%TF.GenerationSoftware,KiCad,Pcbnew,(5.1.9-0-10_14)*%
%TF.CreationDate,2021-05-15T13:13:52+01:00*%
%TF.ProjectId,Battery,42617474-6572-4792-9e6b-696361645f70,1*%
%TF.SameCoordinates,Original*%
%TF.FileFunction,Copper,L2,Bot*%
%TF.FilePolarity,Positive*%
%FSLAX46Y46*%
G04 Gerber Fmt 4.6, Leading zero omitted, Abs format (unit mm)*
G04 Created by KiCad (PCBNEW (5.1.9-0-10_14)) date 2021-05-15 13:13:52*
%MOMM*%
%LPD*%
G01*
G04 APERTURE LIST*
%TA.AperFunction,NonConductor*%
%ADD10C,0.300000*%
%TD*%
%TA.AperFunction,ComponentPad*%
%ADD11R,1.700000X1.700000*%
%TD*%
%TA.AperFunction,ComponentPad*%
%ADD12O,1.700000X1.700000*%
%TD*%
%TA.AperFunction,SMDPad,CuDef*%
%ADD13R,2.000000X0.900000*%
%TD*%
%TA.AperFunction,SMDPad,CuDef*%
%ADD14R,0.900000X2.000000*%
%TD*%
%TA.AperFunction,SMDPad,CuDef*%
%ADD15R,5.000000X5.000000*%
%TD*%
%TA.AperFunction,ComponentPad*%
%ADD16C,0.350000*%
%TD*%
%TA.AperFunction,ComponentPad*%
%ADD17C,1.700000*%
%TD*%
%TA.AperFunction,ComponentPad*%
%ADD18C,2.000000*%
%TD*%
%TA.AperFunction,ComponentPad*%
%ADD19C,0.600000*%
%TD*%
%TA.AperFunction,ViaPad*%
%ADD20C,0.800000*%
%TD*%
%TA.AperFunction,Conductor*%
%ADD21C,0.250000*%
%TD*%
%TA.AperFunction,Conductor*%
%ADD22C,0.254000*%
%TD*%
%TA.AperFunction,Conductor*%
%ADD23C,0.100000*%
%TD*%
G04 APERTURE END LIST*
D10*
X131485714Y-124178571D02*
X131200000Y-125178571D01*
X130914285Y-124464285D01*
X130628571Y-125178571D01*
X130342857Y-124178571D01*
X129914285Y-124178571D02*
X129628571Y-125178571D01*
X129342857Y-124464285D01*
X129057142Y-125178571D01*
X128771428Y-124178571D01*
X128342857Y-124178571D02*
X128057142Y-125178571D01*
X127771428Y-124464285D01*
X127485714Y-125178571D01*
X127200000Y-124178571D01*
X126628571Y-125035714D02*
X126557142Y-125107142D01*
X126628571Y-125178571D01*
X126700000Y-125107142D01*
X126628571Y-125035714D01*
X126628571Y-125178571D01*
X125914285Y-125178571D02*
X125914285Y-124178571D01*
X125914285Y-124321428D02*
X125842857Y-124250000D01*
X125700000Y-124178571D01*
X125485714Y-124178571D01*
X125342857Y-124250000D01*
X125271428Y-124392857D01*
X125271428Y-125178571D01*
X125271428Y-124392857D02*
X125200000Y-124250000D01*
X125057142Y-124178571D01*
X124842857Y-124178571D01*
X124700000Y-124250000D01*
X124628571Y-124392857D01*
X124628571Y-125178571D01*
X123342857Y-125107142D02*
X123485714Y-125178571D01*
X123771428Y-125178571D01*
X123914285Y-125107142D01*
X123985714Y-124964285D01*
X123985714Y-124392857D01*
X123914285Y-124250000D01*
X123771428Y-124178571D01*
X123485714Y-124178571D01*
X123342857Y-124250000D01*
X123271428Y-124392857D01*
X123271428Y-124535714D01*
X123985714Y-124678571D01*
X122628571Y-125035714D02*
X122557142Y-125107142D01*
X122628571Y-125178571D01*
X122700000Y-125107142D01*
X122628571Y-125035714D01*
X122628571Y-125178571D01*
X121271428Y-124178571D02*
X121271428Y-125178571D01*
X121914285Y-124178571D02*
X121914285Y-124964285D01*
X121842857Y-125107142D01*
X121700000Y-125178571D01*
X121485714Y-125178571D01*
X121342857Y-125107142D01*
X121271428Y-125035714D01*
X120557142Y-125178571D02*
X120557142Y-123678571D01*
X120414285Y-124607142D02*
X119985714Y-125178571D01*
X119985714Y-124178571D02*
X120557142Y-124750000D01*
D11*
%TO.P,J1,1*%
%TO.N,GND*%
X133045000Y-120500000D03*
D12*
%TO.P,J1,2*%
%TO.N,IO1*%
X130505000Y-120500000D03*
%TO.P,J1,3*%
%TO.N,IO2*%
X127965000Y-120500000D03*
%TO.P,J1,4*%
%TO.N,IO3*%
X125425000Y-120500000D03*
%TO.P,J1,5*%
%TO.N,IO4*%
X122885000Y-120500000D03*
%TO.P,J1,6*%
%TO.N,Net-(J1-Pad6)*%
X120345000Y-120500000D03*
%TD*%
D13*
%TO.P,U1,38*%
%TO.N,GND*%
X118200000Y-99895000D03*
%TO.P,U1,37*%
%TO.N,Net-(U1-Pad37)*%
X118200000Y-101165000D03*
%TO.P,U1,36*%
%TO.N,CBUS*%
X118200000Y-102435000D03*
%TO.P,U1,35*%
%TO.N,Net-(Q2-Pad1)*%
X118200000Y-103705000D03*
%TO.P,U1,34*%
%TO.N,I*%
X118200000Y-104975000D03*
%TO.P,U1,33*%
%TO.N,Net-(U1-Pad33)*%
X118200000Y-106245000D03*
%TO.P,U1,32*%
%TO.N,Net-(U1-Pad32)*%
X118200000Y-107515000D03*
%TO.P,U1,31*%
%TO.N,Net-(U1-Pad31)*%
X118200000Y-108785000D03*
%TO.P,U1,30*%
%TO.N,Net-(U1-Pad30)*%
X118200000Y-110055000D03*
%TO.P,U1,29*%
%TO.N,Net-(U1-Pad29)*%
X118200000Y-111325000D03*
%TO.P,U1,28*%
%TO.N,Net-(U1-Pad28)*%
X118200000Y-112595000D03*
%TO.P,U1,27*%
%TO.N,Net-(U1-Pad27)*%
X118200000Y-113865000D03*
%TO.P,U1,26*%
%TO.N,IO5*%
X118200000Y-115135000D03*
%TO.P,U1,25*%
%TO.N,Net-(Q1-Pad1)*%
X118200000Y-116405000D03*
D14*
%TO.P,U1,24*%
%TO.N,IO3*%
X120985000Y-117405000D03*
%TO.P,U1,23*%
%TO.N,IO2*%
X122255000Y-117405000D03*
%TO.P,U1,22*%
%TO.N,Net-(U1-Pad22)*%
X123525000Y-117405000D03*
%TO.P,U1,21*%
%TO.N,Net-(U1-Pad21)*%
X124795000Y-117405000D03*
%TO.P,U1,20*%
%TO.N,Net-(U1-Pad20)*%
X126065000Y-117405000D03*
%TO.P,U1,19*%
%TO.N,Net-(U1-Pad19)*%
X127335000Y-117405000D03*
%TO.P,U1,18*%
%TO.N,Net-(U1-Pad18)*%
X128605000Y-117405000D03*
%TO.P,U1,17*%
%TO.N,Net-(U1-Pad17)*%
X129875000Y-117405000D03*
%TO.P,U1,16*%
%TO.N,IO1*%
X131145000Y-117405000D03*
%TO.P,U1,15*%
%TO.N,GND*%
X132415000Y-117405000D03*
D13*
%TO.P,U1,14*%
%TO.N,Net-(U1-Pad14)*%
X135200000Y-116405000D03*
%TO.P,U1,13*%
%TO.N,IO4*%
X135200000Y-115135000D03*
%TO.P,U1,12*%
%TO.N,GND*%
X135200000Y-113865000D03*
%TO.P,U1,11*%
X135200000Y-112595000D03*
%TO.P,U1,10*%
%TO.N,Net-(D1-Pad1)*%
X135200000Y-111325000D03*
%TO.P,U1,9*%
%TO.N,Net-(U1-Pad9)*%
X135200000Y-110055000D03*
%TO.P,U1,8*%
%TO.N,Net-(U1-Pad8)*%
X135200000Y-108785000D03*
%TO.P,U1,7*%
%TO.N,Net-(U1-Pad7)*%
X135200000Y-107515000D03*
%TO.P,U1,6*%
%TO.N,Net-(U1-Pad6)*%
X135200000Y-106245000D03*
%TO.P,U1,5*%
%TO.N,GND*%
X135200000Y-104975000D03*
%TO.P,U1,4*%
X135200000Y-103705000D03*
%TO.P,U1,3*%
%TO.N,Net-(Q1-Pad3)*%
X135200000Y-102435000D03*
%TO.P,U1,2*%
%TO.N,+3V3*%
X135200000Y-101165000D03*
%TO.P,U1,1*%
%TO.N,GND*%
X135200000Y-99895000D03*
D15*
%TO.P,U1,39*%
X127700000Y-107395000D03*
%TD*%
D16*
%TO.P,U2,21*%
%TO.N,GND*%
X125325000Y-114625000D03*
%TD*%
D12*
%TO.P,J3,2*%
%TO.N,Net-(J3-Pad2)*%
X134000000Y-123260000D03*
D11*
%TO.P,J3,1*%
%TO.N,GND*%
X134000000Y-125800000D03*
%TD*%
D17*
%TO.P,J2,S1*%
%TO.N,GND*%
X134310000Y-104475000D03*
X134310000Y-113125000D03*
D18*
X130130000Y-104475000D03*
X130130000Y-113125000D03*
D19*
X130610000Y-105910000D03*
X130610000Y-111690000D03*
%TD*%
D20*
%TO.N,D+*%
X128496491Y-114526850D03*
X124578269Y-108324985D03*
X123400000Y-107100000D03*
%TO.N,GND*%
X127600000Y-105700000D03*
X127800000Y-99900000D03*
X129300000Y-101200000D03*
X135099978Y-120500000D03*
X119797858Y-113339079D03*
%TO.N,+3V3*%
X129600000Y-99800000D03*
X133263385Y-114841048D03*
X132200000Y-103200000D03*
X121499978Y-107489943D03*
%TO.N,VBUS*%
X129200000Y-115354989D03*
X125434619Y-111502420D03*
%TO.N,IO5*%
X118746112Y-115241552D03*
%TO.N,IO1*%
X131100000Y-115600000D03*
%TO.N,I*%
X122002091Y-111533132D03*
%TO.N,USB3.3*%
X122620319Y-115805000D03*
X126995431Y-111770111D03*
%TO.N,Net-(J3-Pad2)*%
X132124013Y-114525689D03*
X124520043Y-105874990D03*
X124520043Y-105874990D03*
%TO.N,Net-(Q2-Pad1)*%
X121448357Y-114878641D03*
%TO.N,CBUS*%
X123452103Y-111722555D03*
%TO.N,Net-(Q1-Pad3)*%
X122224988Y-108491963D03*
%TO.N,Net-(D1-Pad1)*%
X133300000Y-103300000D03*
%TO.N,Net-(Q1-Pad1)*%
X121324979Y-113000011D03*
%TD*%
D21*
%TO.N,D+*%
X128496491Y-111632903D02*
X127088576Y-110224988D01*
X128496491Y-114526850D02*
X128496491Y-111632903D01*
X124578269Y-108278269D02*
X123400000Y-107100000D01*
X124578269Y-108324985D02*
X124578269Y-108278269D01*
X124578269Y-109858271D02*
X124944986Y-110224988D01*
X124578269Y-108324985D02*
X124578269Y-109858271D01*
X124944986Y-110224988D02*
X126824988Y-110224988D01*
X127088576Y-110224988D02*
X126824988Y-110224988D01*
%TO.N,GND*%
X127700000Y-106905000D02*
X130130000Y-104475000D01*
X127700000Y-107395000D02*
X127700000Y-106905000D01*
X134840000Y-112595000D02*
X134310000Y-113125000D01*
X135200000Y-112595000D02*
X134840000Y-112595000D01*
X135050000Y-113865000D02*
X134310000Y-113125000D01*
X135200000Y-113865000D02*
X135050000Y-113865000D01*
X134810000Y-104975000D02*
X134310000Y-104475000D01*
X135200000Y-104975000D02*
X134810000Y-104975000D01*
X135080000Y-103705000D02*
X134310000Y-104475000D01*
X135200000Y-103705000D02*
X135080000Y-103705000D01*
X132415000Y-115841996D02*
X132415000Y-117405000D01*
X125325000Y-114625000D02*
X126779999Y-116079999D01*
X130751998Y-114874998D02*
X131448002Y-114874998D01*
X129546997Y-116079999D02*
X130751998Y-114874998D01*
X131448002Y-114874998D02*
X132415000Y-115841996D01*
X126779999Y-116079999D02*
X129546997Y-116079999D01*
X130130000Y-114253000D02*
X130751998Y-114874998D01*
X130130000Y-113125000D02*
X130130000Y-114253000D01*
X135200000Y-99895000D02*
X132595000Y-99895000D01*
X132595000Y-99895000D02*
X131700000Y-99000000D01*
X128700000Y-99000000D02*
X127800000Y-99900000D01*
X131700000Y-99000000D02*
X128700000Y-99000000D01*
X130130000Y-112170000D02*
X130610000Y-111690000D01*
X130130000Y-113125000D02*
X130130000Y-112170000D01*
X132415000Y-118915000D02*
X129185000Y-118915000D01*
X132415000Y-117405000D02*
X132415000Y-118915000D01*
X132415000Y-117405000D02*
X132415000Y-118415000D01*
X133045000Y-119045000D02*
X133045000Y-120500000D01*
X132415000Y-118415000D02*
X133045000Y-119045000D01*
%TO.N,+3V3*%
X130965000Y-101165000D02*
X129600000Y-99800000D01*
X135200000Y-101165000D02*
X130965000Y-101165000D01*
X133263385Y-114841048D02*
X133150009Y-114727672D01*
X133150009Y-113313599D02*
X133135000Y-113298590D01*
X133135000Y-113298590D02*
X133135000Y-106198589D01*
X133135000Y-106198589D02*
X132200000Y-105263590D01*
X133150009Y-114727672D02*
X133150009Y-113313599D01*
X132200000Y-105263590D02*
X132200000Y-103200000D01*
X122800000Y-109400000D02*
X121900000Y-109400000D01*
X122949989Y-107886399D02*
X122949989Y-109250011D01*
X121900000Y-109400000D02*
X121499978Y-108999978D01*
X122674999Y-106025001D02*
X122674999Y-107611409D01*
X121499978Y-108999978D02*
X121499978Y-107489943D01*
X122674999Y-107611409D02*
X122949989Y-107886399D01*
X126018195Y-102681805D02*
X122674999Y-106025001D01*
X131681805Y-102681805D02*
X126018195Y-102681805D01*
X122949989Y-109250011D02*
X122800000Y-109400000D01*
X132200000Y-103200000D02*
X131681805Y-102681805D01*
%TO.N,VBUS*%
X128289304Y-115354989D02*
X129200000Y-115354989D01*
X125434619Y-111502420D02*
X126732199Y-112800000D01*
X126732199Y-112800000D02*
X127500000Y-112800000D01*
X127767157Y-113067157D02*
X127767157Y-114832843D01*
X127500000Y-112800000D02*
X127767157Y-113067157D01*
X127767157Y-114832843D02*
X128289304Y-115354989D01*
%TO.N,IO5*%
X118200000Y-115135000D02*
X118639560Y-115135000D01*
X118639560Y-115135000D02*
X118746112Y-115241552D01*
%TO.N,IO4*%
X133874999Y-115798003D02*
X134538002Y-115135000D01*
X133874999Y-117980003D02*
X133874999Y-115798003D01*
X134220001Y-121610001D02*
X134220001Y-118325005D01*
X134538002Y-115135000D02*
X135200000Y-115135000D01*
X134220001Y-118325005D02*
X133874999Y-117980003D01*
X134155001Y-121675001D02*
X134220001Y-121610001D01*
X124060001Y-121675001D02*
X134155001Y-121675001D01*
X122885000Y-120500000D02*
X124060001Y-121675001D01*
%TO.N,IO3*%
X124105012Y-119180012D02*
X121510012Y-119180012D01*
X125425000Y-120500000D02*
X124105012Y-119180012D01*
X121510012Y-119180012D02*
X120985000Y-118655000D01*
X120985000Y-118655000D02*
X120985000Y-117405000D01*
%TO.N,IO2*%
X126195001Y-118730001D02*
X127965000Y-120500000D01*
X122330001Y-118730001D02*
X126195001Y-118730001D01*
X122255000Y-118655000D02*
X122330001Y-118730001D01*
X122255000Y-117405000D02*
X122255000Y-118655000D01*
%TO.N,IO1*%
X131145000Y-117405000D02*
X131145000Y-115645000D01*
X131145000Y-115645000D02*
X131100000Y-115600000D01*
%TO.N,I*%
X118200000Y-104975000D02*
X119450000Y-104975000D01*
X119450000Y-104975000D02*
X119549969Y-105074969D01*
X119549969Y-109081010D02*
X122002091Y-111533132D01*
X119549969Y-105074969D02*
X119549969Y-109081010D01*
%TO.N,USB3.3*%
X125900319Y-110674999D02*
X126995431Y-111770111D01*
X124488590Y-110674999D02*
X125900319Y-110674999D01*
X124249989Y-110913600D02*
X124488590Y-110674999D01*
X123300000Y-113700000D02*
X123300000Y-113000000D01*
X124249989Y-112050011D02*
X124249989Y-110913600D01*
X122620319Y-114379681D02*
X123300000Y-113700000D01*
X123300000Y-113000000D02*
X124249989Y-112050011D01*
X122620319Y-115805000D02*
X122620319Y-114379681D01*
%TO.N,Net-(J3-Pad2)*%
X132684989Y-113484989D02*
X132699999Y-113499999D01*
X132699999Y-113949703D02*
X132524012Y-114125690D01*
X132524012Y-114125690D02*
X132124013Y-114525689D01*
X130747818Y-103131816D02*
X131724014Y-104108012D01*
X132699999Y-113499999D02*
X132699999Y-113949703D01*
X131724014Y-105424014D02*
X132684989Y-106384989D01*
X132684989Y-106384989D02*
X132684989Y-113484989D01*
X126468184Y-103131816D02*
X130747818Y-103131816D01*
X124520043Y-105079957D02*
X126468184Y-103131816D01*
X131724014Y-104108012D02*
X131724014Y-105424014D01*
X124520043Y-105874990D02*
X124520043Y-105079957D01*
%TO.N,Net-(Q2-Pad1)*%
X119450000Y-103705000D02*
X120099980Y-104354980D01*
X122727101Y-113599897D02*
X121448357Y-114878641D01*
X118200000Y-103705000D02*
X119450000Y-103705000D01*
X120099980Y-104354980D02*
X120099980Y-108872801D01*
X122027200Y-110800022D02*
X122427202Y-110800022D01*
X122427202Y-110800022D02*
X122727101Y-111099921D01*
X122727101Y-111099921D02*
X122727101Y-113599897D01*
X120099980Y-108872801D02*
X122027200Y-110800022D01*
%TO.N,CBUS*%
X122645245Y-110350011D02*
X123452103Y-111156870D01*
X122213600Y-110350011D02*
X122645245Y-110350011D01*
X118200000Y-102435000D02*
X119450000Y-102435000D01*
X120774976Y-103759976D02*
X120774976Y-108911387D01*
X123452103Y-111156870D02*
X123452103Y-111722555D01*
X119450000Y-102435000D02*
X120774976Y-103759976D01*
X120774976Y-108911387D02*
X122213600Y-110350011D01*
%TO.N,Net-(Q1-Pad3)*%
X122224988Y-105838600D02*
X122224988Y-108491963D01*
X135200000Y-102435000D02*
X132071411Y-102435000D01*
X125831794Y-102231794D02*
X122224988Y-105838600D01*
X131868205Y-102231794D02*
X125831794Y-102231794D01*
X132071411Y-102435000D02*
X131868205Y-102231794D01*
%TO.N,Net-(D1-Pad1)*%
X132900001Y-105263591D02*
X133850009Y-106213599D01*
X133662500Y-111037500D02*
X133950000Y-111325000D01*
X133300000Y-103300000D02*
X132900001Y-103699999D01*
X133850009Y-106213599D02*
X133850009Y-107786401D01*
X132900001Y-103699999D02*
X132900001Y-105263591D01*
X133850009Y-107786401D02*
X133662500Y-107973910D01*
X133662500Y-107973910D02*
X133662500Y-111037500D01*
X133950000Y-111325000D02*
X135200000Y-111325000D01*
%TO.N,Net-(Q1-Pad1)*%
X119458573Y-116405000D02*
X120723355Y-115140218D01*
X120723355Y-113601635D02*
X121324979Y-113000011D01*
X120723355Y-115140218D02*
X120723355Y-113601635D01*
X118200000Y-116405000D02*
X119458573Y-116405000D01*
%TD*%
D22*
%TO.N,GND*%
X120156176Y-118405000D02*
X120163455Y-118478905D01*
X120185012Y-118549970D01*
X120220019Y-118615463D01*
X120267131Y-118672869D01*
X120324537Y-118719981D01*
X120390030Y-118754988D01*
X120461095Y-118776545D01*
X120498397Y-118780219D01*
X120518969Y-118848035D01*
X120565583Y-118935245D01*
X120628316Y-119011684D01*
X120647467Y-119027401D01*
X121137615Y-119517550D01*
X121153328Y-119536696D01*
X121229767Y-119599429D01*
X121316976Y-119646043D01*
X121411603Y-119674748D01*
X121485359Y-119682012D01*
X121485368Y-119682012D01*
X121510011Y-119684439D01*
X121534654Y-119682012D01*
X121967748Y-119682012D01*
X121931927Y-119717833D01*
X121797647Y-119918798D01*
X121705153Y-120142097D01*
X121658000Y-120379151D01*
X121658000Y-120620849D01*
X121705153Y-120857903D01*
X121797647Y-121081202D01*
X121931927Y-121282167D01*
X122102833Y-121453073D01*
X122303798Y-121587353D01*
X122527097Y-121679847D01*
X122764151Y-121727000D01*
X123005849Y-121727000D01*
X123242903Y-121679847D01*
X123322105Y-121647040D01*
X123687604Y-122012539D01*
X123703317Y-122031685D01*
X123779756Y-122094418D01*
X123866965Y-122141032D01*
X123961592Y-122169737D01*
X124035348Y-122177001D01*
X124035357Y-122177001D01*
X124060000Y-122179428D01*
X124084643Y-122177001D01*
X133412282Y-122177001D01*
X133217833Y-122306927D01*
X133046927Y-122477833D01*
X132912647Y-122678798D01*
X132820153Y-122902097D01*
X132773000Y-123139151D01*
X132773000Y-123380849D01*
X132820153Y-123617903D01*
X132912647Y-123841202D01*
X133046927Y-124042167D01*
X133217833Y-124213073D01*
X133367553Y-124313112D01*
X133150000Y-124311928D01*
X133025518Y-124324188D01*
X132905820Y-124360498D01*
X132795506Y-124419463D01*
X132698815Y-124498815D01*
X132619463Y-124595506D01*
X132560498Y-124705820D01*
X132524188Y-124825518D01*
X132511928Y-124950000D01*
X132515000Y-125514250D01*
X132673750Y-125673000D01*
X133873000Y-125673000D01*
X133873000Y-125653000D01*
X134127000Y-125653000D01*
X134127000Y-125673000D01*
X135326250Y-125673000D01*
X135485000Y-125514250D01*
X135488072Y-124950000D01*
X135475812Y-124825518D01*
X135439502Y-124705820D01*
X135380537Y-124595506D01*
X135301185Y-124498815D01*
X135204494Y-124419463D01*
X135094180Y-124360498D01*
X134974482Y-124324188D01*
X134850000Y-124311928D01*
X134632447Y-124313112D01*
X134782167Y-124213073D01*
X134953073Y-124042167D01*
X135087353Y-123841202D01*
X135179847Y-123617903D01*
X135227000Y-123380849D01*
X135227000Y-123139151D01*
X135179847Y-122902097D01*
X135087353Y-122678798D01*
X134953073Y-122477833D01*
X134782167Y-122306927D01*
X134581202Y-122172647D01*
X134416514Y-122104431D01*
X134435246Y-122094418D01*
X134511685Y-122031685D01*
X134527403Y-122012533D01*
X134557533Y-121982403D01*
X134576685Y-121966685D01*
X134639418Y-121890246D01*
X134686032Y-121803037D01*
X134714737Y-121708410D01*
X134722001Y-121634654D01*
X134722001Y-121634644D01*
X134724428Y-121610001D01*
X134722001Y-121585358D01*
X134722001Y-118349650D01*
X134724428Y-118325005D01*
X134722001Y-118300359D01*
X134722001Y-118300352D01*
X134714737Y-118226596D01*
X134698491Y-118173039D01*
X134686032Y-118131968D01*
X134639418Y-118044759D01*
X134592401Y-117987470D01*
X134592398Y-117987467D01*
X134576685Y-117968321D01*
X134557538Y-117952608D01*
X134376999Y-117772069D01*
X134376999Y-117233824D01*
X135773000Y-117233824D01*
X135773000Y-126579117D01*
X135760078Y-126710899D01*
X135727873Y-126817570D01*
X135675558Y-126915961D01*
X135605130Y-127002313D01*
X135519270Y-127073343D01*
X135421255Y-127126339D01*
X135314807Y-127159290D01*
X135217983Y-127169467D01*
X135301185Y-127101185D01*
X135380537Y-127004494D01*
X135439502Y-126894180D01*
X135475812Y-126774482D01*
X135488072Y-126650000D01*
X135485000Y-126085750D01*
X135326250Y-125927000D01*
X134127000Y-125927000D01*
X134127000Y-125947000D01*
X133873000Y-125947000D01*
X133873000Y-125927000D01*
X132673750Y-125927000D01*
X132515000Y-126085750D01*
X132511928Y-126650000D01*
X132524188Y-126774482D01*
X132560498Y-126894180D01*
X132619463Y-127004494D01*
X132698815Y-127101185D01*
X132786322Y-127173000D01*
X118220883Y-127173000D01*
X118089101Y-127160078D01*
X117982430Y-127127873D01*
X117884039Y-127075558D01*
X117797687Y-127005130D01*
X117726657Y-126919270D01*
X117673661Y-126821255D01*
X117640710Y-126714807D01*
X117627000Y-126584371D01*
X117627000Y-122968000D01*
X119173000Y-122968000D01*
X119173000Y-126272000D01*
X132227000Y-126272000D01*
X132227000Y-122968000D01*
X119173000Y-122968000D01*
X117627000Y-122968000D01*
X117627000Y-120379151D01*
X119118000Y-120379151D01*
X119118000Y-120620849D01*
X119165153Y-120857903D01*
X119257647Y-121081202D01*
X119391927Y-121282167D01*
X119562833Y-121453073D01*
X119763798Y-121587353D01*
X119987097Y-121679847D01*
X120224151Y-121727000D01*
X120465849Y-121727000D01*
X120702903Y-121679847D01*
X120926202Y-121587353D01*
X121127167Y-121453073D01*
X121298073Y-121282167D01*
X121432353Y-121081202D01*
X121524847Y-120857903D01*
X121572000Y-120620849D01*
X121572000Y-120379151D01*
X121524847Y-120142097D01*
X121432353Y-119918798D01*
X121298073Y-119717833D01*
X121127167Y-119546927D01*
X120926202Y-119412647D01*
X120702903Y-119320153D01*
X120465849Y-119273000D01*
X120224151Y-119273000D01*
X119987097Y-119320153D01*
X119763798Y-119412647D01*
X119562833Y-119546927D01*
X119391927Y-119717833D01*
X119257647Y-119918798D01*
X119165153Y-120142097D01*
X119118000Y-120379151D01*
X117627000Y-120379151D01*
X117627000Y-117233824D01*
X119200000Y-117233824D01*
X119273905Y-117226545D01*
X119344970Y-117204988D01*
X119410463Y-117169981D01*
X119467869Y-117122869D01*
X119514981Y-117065463D01*
X119549988Y-116999970D01*
X119571545Y-116928905D01*
X119574955Y-116894284D01*
X119651609Y-116871031D01*
X119738818Y-116824417D01*
X119815257Y-116761684D01*
X119830974Y-116742533D01*
X120156176Y-116417332D01*
X120156176Y-118405000D01*
%TA.AperFunction,Conductor*%
D23*
G36*
X120156176Y-118405000D02*
G01*
X120163455Y-118478905D01*
X120185012Y-118549970D01*
X120220019Y-118615463D01*
X120267131Y-118672869D01*
X120324537Y-118719981D01*
X120390030Y-118754988D01*
X120461095Y-118776545D01*
X120498397Y-118780219D01*
X120518969Y-118848035D01*
X120565583Y-118935245D01*
X120628316Y-119011684D01*
X120647467Y-119027401D01*
X121137615Y-119517550D01*
X121153328Y-119536696D01*
X121229767Y-119599429D01*
X121316976Y-119646043D01*
X121411603Y-119674748D01*
X121485359Y-119682012D01*
X121485368Y-119682012D01*
X121510011Y-119684439D01*
X121534654Y-119682012D01*
X121967748Y-119682012D01*
X121931927Y-119717833D01*
X121797647Y-119918798D01*
X121705153Y-120142097D01*
X121658000Y-120379151D01*
X121658000Y-120620849D01*
X121705153Y-120857903D01*
X121797647Y-121081202D01*
X121931927Y-121282167D01*
X122102833Y-121453073D01*
X122303798Y-121587353D01*
X122527097Y-121679847D01*
X122764151Y-121727000D01*
X123005849Y-121727000D01*
X123242903Y-121679847D01*
X123322105Y-121647040D01*
X123687604Y-122012539D01*
X123703317Y-122031685D01*
X123779756Y-122094418D01*
X123866965Y-122141032D01*
X123961592Y-122169737D01*
X124035348Y-122177001D01*
X124035357Y-122177001D01*
X124060000Y-122179428D01*
X124084643Y-122177001D01*
X133412282Y-122177001D01*
X133217833Y-122306927D01*
X133046927Y-122477833D01*
X132912647Y-122678798D01*
X132820153Y-122902097D01*
X132773000Y-123139151D01*
X132773000Y-123380849D01*
X132820153Y-123617903D01*
X132912647Y-123841202D01*
X133046927Y-124042167D01*
X133217833Y-124213073D01*
X133367553Y-124313112D01*
X133150000Y-124311928D01*
X133025518Y-124324188D01*
X132905820Y-124360498D01*
X132795506Y-124419463D01*
X132698815Y-124498815D01*
X132619463Y-124595506D01*
X132560498Y-124705820D01*
X132524188Y-124825518D01*
X132511928Y-124950000D01*
X132515000Y-125514250D01*
X132673750Y-125673000D01*
X133873000Y-125673000D01*
X133873000Y-125653000D01*
X134127000Y-125653000D01*
X134127000Y-125673000D01*
X135326250Y-125673000D01*
X135485000Y-125514250D01*
X135488072Y-124950000D01*
X135475812Y-124825518D01*
X135439502Y-124705820D01*
X135380537Y-124595506D01*
X135301185Y-124498815D01*
X135204494Y-124419463D01*
X135094180Y-124360498D01*
X134974482Y-124324188D01*
X134850000Y-124311928D01*
X134632447Y-124313112D01*
X134782167Y-124213073D01*
X134953073Y-124042167D01*
X135087353Y-123841202D01*
X135179847Y-123617903D01*
X135227000Y-123380849D01*
X135227000Y-123139151D01*
X135179847Y-122902097D01*
X135087353Y-122678798D01*
X134953073Y-122477833D01*
X134782167Y-122306927D01*
X134581202Y-122172647D01*
X134416514Y-122104431D01*
X134435246Y-122094418D01*
X134511685Y-122031685D01*
X134527403Y-122012533D01*
X134557533Y-121982403D01*
X134576685Y-121966685D01*
X134639418Y-121890246D01*
X134686032Y-121803037D01*
X134714737Y-121708410D01*
X134722001Y-121634654D01*
X134722001Y-121634644D01*
X134724428Y-121610001D01*
X134722001Y-121585358D01*
X134722001Y-118349650D01*
X134724428Y-118325005D01*
X134722001Y-118300359D01*
X134722001Y-118300352D01*
X134714737Y-118226596D01*
X134698491Y-118173039D01*
X134686032Y-118131968D01*
X134639418Y-118044759D01*
X134592401Y-117987470D01*
X134592398Y-117987467D01*
X134576685Y-117968321D01*
X134557538Y-117952608D01*
X134376999Y-117772069D01*
X134376999Y-117233824D01*
X135773000Y-117233824D01*
X135773000Y-126579117D01*
X135760078Y-126710899D01*
X135727873Y-126817570D01*
X135675558Y-126915961D01*
X135605130Y-127002313D01*
X135519270Y-127073343D01*
X135421255Y-127126339D01*
X135314807Y-127159290D01*
X135217983Y-127169467D01*
X135301185Y-127101185D01*
X135380537Y-127004494D01*
X135439502Y-126894180D01*
X135475812Y-126774482D01*
X135488072Y-126650000D01*
X135485000Y-126085750D01*
X135326250Y-125927000D01*
X134127000Y-125927000D01*
X134127000Y-125947000D01*
X133873000Y-125947000D01*
X133873000Y-125927000D01*
X132673750Y-125927000D01*
X132515000Y-126085750D01*
X132511928Y-126650000D01*
X132524188Y-126774482D01*
X132560498Y-126894180D01*
X132619463Y-127004494D01*
X132698815Y-127101185D01*
X132786322Y-127173000D01*
X118220883Y-127173000D01*
X118089101Y-127160078D01*
X117982430Y-127127873D01*
X117884039Y-127075558D01*
X117797687Y-127005130D01*
X117726657Y-126919270D01*
X117673661Y-126821255D01*
X117640710Y-126714807D01*
X117627000Y-126584371D01*
X117627000Y-122968000D01*
X119173000Y-122968000D01*
X119173000Y-126272000D01*
X132227000Y-126272000D01*
X132227000Y-122968000D01*
X119173000Y-122968000D01*
X117627000Y-122968000D01*
X117627000Y-120379151D01*
X119118000Y-120379151D01*
X119118000Y-120620849D01*
X119165153Y-120857903D01*
X119257647Y-121081202D01*
X119391927Y-121282167D01*
X119562833Y-121453073D01*
X119763798Y-121587353D01*
X119987097Y-121679847D01*
X120224151Y-121727000D01*
X120465849Y-121727000D01*
X120702903Y-121679847D01*
X120926202Y-121587353D01*
X121127167Y-121453073D01*
X121298073Y-121282167D01*
X121432353Y-121081202D01*
X121524847Y-120857903D01*
X121572000Y-120620849D01*
X121572000Y-120379151D01*
X121524847Y-120142097D01*
X121432353Y-119918798D01*
X121298073Y-119717833D01*
X121127167Y-119546927D01*
X120926202Y-119412647D01*
X120702903Y-119320153D01*
X120465849Y-119273000D01*
X120224151Y-119273000D01*
X119987097Y-119320153D01*
X119763798Y-119412647D01*
X119562833Y-119546927D01*
X119391927Y-119717833D01*
X119257647Y-119918798D01*
X119165153Y-120142097D01*
X119118000Y-120379151D01*
X117627000Y-120379151D01*
X117627000Y-117233824D01*
X119200000Y-117233824D01*
X119273905Y-117226545D01*
X119344970Y-117204988D01*
X119410463Y-117169981D01*
X119467869Y-117122869D01*
X119514981Y-117065463D01*
X119549988Y-116999970D01*
X119571545Y-116928905D01*
X119574955Y-116894284D01*
X119651609Y-116871031D01*
X119738818Y-116824417D01*
X119815257Y-116761684D01*
X119830974Y-116742533D01*
X120156176Y-116417332D01*
X120156176Y-118405000D01*
G37*
%TD.AperFunction*%
D22*
X130550030Y-118754988D02*
X130621095Y-118776545D01*
X130695000Y-118783824D01*
X131454430Y-118783824D01*
X131513815Y-118856185D01*
X131610506Y-118935537D01*
X131720820Y-118994502D01*
X131840518Y-119030812D01*
X131965000Y-119043072D01*
X132011109Y-119042210D01*
X131950820Y-119060498D01*
X131840506Y-119119463D01*
X131743815Y-119198815D01*
X131664463Y-119295506D01*
X131605498Y-119405820D01*
X131569188Y-119525518D01*
X131556928Y-119650000D01*
X131558112Y-119867553D01*
X131458073Y-119717833D01*
X131287167Y-119546927D01*
X131086202Y-119412647D01*
X130862903Y-119320153D01*
X130625849Y-119273000D01*
X130384151Y-119273000D01*
X130147097Y-119320153D01*
X129923798Y-119412647D01*
X129722833Y-119546927D01*
X129551927Y-119717833D01*
X129417647Y-119918798D01*
X129325153Y-120142097D01*
X129278000Y-120379151D01*
X129278000Y-120620849D01*
X129325153Y-120857903D01*
X129417647Y-121081202D01*
X129478985Y-121173001D01*
X128991015Y-121173001D01*
X129052353Y-121081202D01*
X129144847Y-120857903D01*
X129192000Y-120620849D01*
X129192000Y-120379151D01*
X129144847Y-120142097D01*
X129052353Y-119918798D01*
X128918073Y-119717833D01*
X128747167Y-119546927D01*
X128546202Y-119412647D01*
X128322903Y-119320153D01*
X128085849Y-119273000D01*
X127844151Y-119273000D01*
X127607097Y-119320153D01*
X127527895Y-119352960D01*
X126958758Y-118783824D01*
X127785000Y-118783824D01*
X127858905Y-118776545D01*
X127929970Y-118754988D01*
X127970000Y-118733591D01*
X128010030Y-118754988D01*
X128081095Y-118776545D01*
X128155000Y-118783824D01*
X129055000Y-118783824D01*
X129128905Y-118776545D01*
X129199970Y-118754988D01*
X129240000Y-118733591D01*
X129280030Y-118754988D01*
X129351095Y-118776545D01*
X129425000Y-118783824D01*
X130325000Y-118783824D01*
X130398905Y-118776545D01*
X130469970Y-118754988D01*
X130510000Y-118733591D01*
X130550030Y-118754988D01*
%TA.AperFunction,Conductor*%
D23*
G36*
X130550030Y-118754988D02*
G01*
X130621095Y-118776545D01*
X130695000Y-118783824D01*
X131454430Y-118783824D01*
X131513815Y-118856185D01*
X131610506Y-118935537D01*
X131720820Y-118994502D01*
X131840518Y-119030812D01*
X131965000Y-119043072D01*
X132011109Y-119042210D01*
X131950820Y-119060498D01*
X131840506Y-119119463D01*
X131743815Y-119198815D01*
X131664463Y-119295506D01*
X131605498Y-119405820D01*
X131569188Y-119525518D01*
X131556928Y-119650000D01*
X131558112Y-119867553D01*
X131458073Y-119717833D01*
X131287167Y-119546927D01*
X131086202Y-119412647D01*
X130862903Y-119320153D01*
X130625849Y-119273000D01*
X130384151Y-119273000D01*
X130147097Y-119320153D01*
X129923798Y-119412647D01*
X129722833Y-119546927D01*
X129551927Y-119717833D01*
X129417647Y-119918798D01*
X129325153Y-120142097D01*
X129278000Y-120379151D01*
X129278000Y-120620849D01*
X129325153Y-120857903D01*
X129417647Y-121081202D01*
X129478985Y-121173001D01*
X128991015Y-121173001D01*
X129052353Y-121081202D01*
X129144847Y-120857903D01*
X129192000Y-120620849D01*
X129192000Y-120379151D01*
X129144847Y-120142097D01*
X129052353Y-119918798D01*
X128918073Y-119717833D01*
X128747167Y-119546927D01*
X128546202Y-119412647D01*
X128322903Y-119320153D01*
X128085849Y-119273000D01*
X127844151Y-119273000D01*
X127607097Y-119320153D01*
X127527895Y-119352960D01*
X126958758Y-118783824D01*
X127785000Y-118783824D01*
X127858905Y-118776545D01*
X127929970Y-118754988D01*
X127970000Y-118733591D01*
X128010030Y-118754988D01*
X128081095Y-118776545D01*
X128155000Y-118783824D01*
X129055000Y-118783824D01*
X129128905Y-118776545D01*
X129199970Y-118754988D01*
X129240000Y-118733591D01*
X129280030Y-118754988D01*
X129351095Y-118776545D01*
X129425000Y-118783824D01*
X130325000Y-118783824D01*
X130398905Y-118776545D01*
X130469970Y-118754988D01*
X130510000Y-118733591D01*
X130550030Y-118754988D01*
G37*
%TD.AperFunction*%
D22*
X133518315Y-118336687D02*
X133537466Y-118352404D01*
X133718002Y-118532940D01*
X133718002Y-119012892D01*
X133330750Y-119015000D01*
X133172000Y-119173750D01*
X133172000Y-120373000D01*
X133192000Y-120373000D01*
X133192000Y-120627000D01*
X133172000Y-120627000D01*
X133172000Y-120647000D01*
X132918000Y-120647000D01*
X132918000Y-120627000D01*
X132898000Y-120627000D01*
X132898000Y-120373000D01*
X132918000Y-120373000D01*
X132918000Y-119173750D01*
X132785841Y-119041591D01*
X132865000Y-119043072D01*
X132989482Y-119030812D01*
X133109180Y-118994502D01*
X133219494Y-118935537D01*
X133316185Y-118856185D01*
X133395537Y-118759494D01*
X133454502Y-118649180D01*
X133490812Y-118529482D01*
X133503072Y-118405000D01*
X133502696Y-118317656D01*
X133518315Y-118336687D01*
%TA.AperFunction,Conductor*%
D23*
G36*
X133518315Y-118336687D02*
G01*
X133537466Y-118352404D01*
X133718002Y-118532940D01*
X133718002Y-119012892D01*
X133330750Y-119015000D01*
X133172000Y-119173750D01*
X133172000Y-120373000D01*
X133192000Y-120373000D01*
X133192000Y-120627000D01*
X133172000Y-120627000D01*
X133172000Y-120647000D01*
X132918000Y-120647000D01*
X132918000Y-120627000D01*
X132898000Y-120627000D01*
X132898000Y-120373000D01*
X132918000Y-120373000D01*
X132918000Y-119173750D01*
X132785841Y-119041591D01*
X132865000Y-119043072D01*
X132989482Y-119030812D01*
X133109180Y-118994502D01*
X133219494Y-118935537D01*
X133316185Y-118856185D01*
X133395537Y-118759494D01*
X133454502Y-118649180D01*
X133490812Y-118529482D01*
X133503072Y-118405000D01*
X133502696Y-118317656D01*
X133518315Y-118336687D01*
G37*
%TD.AperFunction*%
D22*
X132574816Y-115209096D02*
X132659849Y-115336357D01*
X132768076Y-115444584D01*
X132895337Y-115529617D01*
X133036742Y-115588189D01*
X133186857Y-115618048D01*
X133339913Y-115618048D01*
X133409361Y-115604234D01*
X133408969Y-115604967D01*
X133380264Y-115699594D01*
X133370572Y-115798003D01*
X133373000Y-115822656D01*
X133373000Y-116023044D01*
X133316185Y-115953815D01*
X133219494Y-115874463D01*
X133109180Y-115815498D01*
X132989482Y-115779188D01*
X132865000Y-115766928D01*
X132700750Y-115770000D01*
X132542000Y-115928750D01*
X132542000Y-117278000D01*
X132562000Y-117278000D01*
X132562000Y-117532000D01*
X132542000Y-117532000D01*
X132542000Y-117552000D01*
X132288000Y-117552000D01*
X132288000Y-117532000D01*
X132268000Y-117532000D01*
X132268000Y-117278000D01*
X132288000Y-117278000D01*
X132288000Y-115928750D01*
X132129250Y-115770000D01*
X131965000Y-115766928D01*
X131856901Y-115777574D01*
X131877000Y-115676528D01*
X131877000Y-115523472D01*
X131847141Y-115373357D01*
X131788569Y-115231952D01*
X131784699Y-115226160D01*
X131897370Y-115272830D01*
X132047485Y-115302689D01*
X132200541Y-115302689D01*
X132350656Y-115272830D01*
X132492061Y-115214258D01*
X132558552Y-115169830D01*
X132574816Y-115209096D01*
%TA.AperFunction,Conductor*%
D23*
G36*
X132574816Y-115209096D02*
G01*
X132659849Y-115336357D01*
X132768076Y-115444584D01*
X132895337Y-115529617D01*
X133036742Y-115588189D01*
X133186857Y-115618048D01*
X133339913Y-115618048D01*
X133409361Y-115604234D01*
X133408969Y-115604967D01*
X133380264Y-115699594D01*
X133370572Y-115798003D01*
X133373000Y-115822656D01*
X133373000Y-116023044D01*
X133316185Y-115953815D01*
X133219494Y-115874463D01*
X133109180Y-115815498D01*
X132989482Y-115779188D01*
X132865000Y-115766928D01*
X132700750Y-115770000D01*
X132542000Y-115928750D01*
X132542000Y-117278000D01*
X132562000Y-117278000D01*
X132562000Y-117532000D01*
X132542000Y-117532000D01*
X132542000Y-117552000D01*
X132288000Y-117552000D01*
X132288000Y-117532000D01*
X132268000Y-117532000D01*
X132268000Y-117278000D01*
X132288000Y-117278000D01*
X132288000Y-115928750D01*
X132129250Y-115770000D01*
X131965000Y-115766928D01*
X131856901Y-115777574D01*
X131877000Y-115676528D01*
X131877000Y-115523472D01*
X131847141Y-115373357D01*
X131788569Y-115231952D01*
X131784699Y-115226160D01*
X131897370Y-115272830D01*
X132047485Y-115302689D01*
X132200541Y-115302689D01*
X132350656Y-115272830D01*
X132492061Y-115214258D01*
X132558552Y-115169830D01*
X132574816Y-115209096D01*
G37*
%TD.AperFunction*%
D22*
X124831083Y-111997729D02*
X124939310Y-112105956D01*
X125066571Y-112190989D01*
X125207976Y-112249561D01*
X125358091Y-112279420D01*
X125501685Y-112279420D01*
X126359802Y-113137538D01*
X126375515Y-113156684D01*
X126394661Y-113172397D01*
X126394663Y-113172399D01*
X126428515Y-113200181D01*
X126451954Y-113219417D01*
X126539163Y-113266031D01*
X126633790Y-113294736D01*
X126707546Y-113302000D01*
X126707555Y-113302000D01*
X126732198Y-113304427D01*
X126756841Y-113302000D01*
X127265157Y-113302000D01*
X127265158Y-114808191D01*
X127262730Y-114832843D01*
X127272422Y-114931252D01*
X127301127Y-115025880D01*
X127347741Y-115113088D01*
X127394758Y-115170378D01*
X127394761Y-115170381D01*
X127410474Y-115189527D01*
X127429620Y-115205240D01*
X127916907Y-115692527D01*
X127932620Y-115711673D01*
X127951766Y-115727386D01*
X127951769Y-115727389D01*
X127972664Y-115744537D01*
X128009059Y-115774406D01*
X128096268Y-115821020D01*
X128190895Y-115849725D01*
X128264651Y-115856989D01*
X128264659Y-115856989D01*
X128289304Y-115859416D01*
X128313947Y-115856989D01*
X128603155Y-115856989D01*
X128704691Y-115958525D01*
X128805938Y-116026176D01*
X128155000Y-116026176D01*
X128081095Y-116033455D01*
X128010030Y-116055012D01*
X127970000Y-116076409D01*
X127929970Y-116055012D01*
X127858905Y-116033455D01*
X127785000Y-116026176D01*
X126885000Y-116026176D01*
X126811095Y-116033455D01*
X126740030Y-116055012D01*
X126700000Y-116076409D01*
X126659970Y-116055012D01*
X126588905Y-116033455D01*
X126515000Y-116026176D01*
X125615000Y-116026176D01*
X125541095Y-116033455D01*
X125470030Y-116055012D01*
X125430000Y-116076409D01*
X125389970Y-116055012D01*
X125318905Y-116033455D01*
X125245000Y-116026176D01*
X124345000Y-116026176D01*
X124271095Y-116033455D01*
X124200030Y-116055012D01*
X124160000Y-116076409D01*
X124119970Y-116055012D01*
X124048905Y-116033455D01*
X123975000Y-116026176D01*
X123368547Y-116026176D01*
X123397319Y-115881528D01*
X123397319Y-115728472D01*
X123367460Y-115578357D01*
X123308888Y-115436952D01*
X123223855Y-115309691D01*
X123122319Y-115208155D01*
X123122319Y-114587615D01*
X123637538Y-114072397D01*
X123656684Y-114056684D01*
X123687354Y-114019314D01*
X123719416Y-113980246D01*
X123719417Y-113980245D01*
X123766031Y-113893036D01*
X123794736Y-113798409D01*
X123802000Y-113724653D01*
X123802000Y-113724644D01*
X123804427Y-113700001D01*
X123802000Y-113675358D01*
X123802000Y-113207934D01*
X124587527Y-112422408D01*
X124606673Y-112406695D01*
X124633796Y-112373647D01*
X124669405Y-112330257D01*
X124671632Y-112326091D01*
X124716020Y-112243047D01*
X124744725Y-112148420D01*
X124751989Y-112074664D01*
X124751989Y-112074655D01*
X124754416Y-112050012D01*
X124751989Y-112025369D01*
X124751989Y-111879356D01*
X124831083Y-111997729D01*
%TA.AperFunction,Conductor*%
D23*
G36*
X124831083Y-111997729D02*
G01*
X124939310Y-112105956D01*
X125066571Y-112190989D01*
X125207976Y-112249561D01*
X125358091Y-112279420D01*
X125501685Y-112279420D01*
X126359802Y-113137538D01*
X126375515Y-113156684D01*
X126394661Y-113172397D01*
X126394663Y-113172399D01*
X126428515Y-113200181D01*
X126451954Y-113219417D01*
X126539163Y-113266031D01*
X126633790Y-113294736D01*
X126707546Y-113302000D01*
X126707555Y-113302000D01*
X126732198Y-113304427D01*
X126756841Y-113302000D01*
X127265157Y-113302000D01*
X127265158Y-114808191D01*
X127262730Y-114832843D01*
X127272422Y-114931252D01*
X127301127Y-115025880D01*
X127347741Y-115113088D01*
X127394758Y-115170378D01*
X127394761Y-115170381D01*
X127410474Y-115189527D01*
X127429620Y-115205240D01*
X127916907Y-115692527D01*
X127932620Y-115711673D01*
X127951766Y-115727386D01*
X127951769Y-115727389D01*
X127972664Y-115744537D01*
X128009059Y-115774406D01*
X128096268Y-115821020D01*
X128190895Y-115849725D01*
X128264651Y-115856989D01*
X128264659Y-115856989D01*
X128289304Y-115859416D01*
X128313947Y-115856989D01*
X128603155Y-115856989D01*
X128704691Y-115958525D01*
X128805938Y-116026176D01*
X128155000Y-116026176D01*
X128081095Y-116033455D01*
X128010030Y-116055012D01*
X127970000Y-116076409D01*
X127929970Y-116055012D01*
X127858905Y-116033455D01*
X127785000Y-116026176D01*
X126885000Y-116026176D01*
X126811095Y-116033455D01*
X126740030Y-116055012D01*
X126700000Y-116076409D01*
X126659970Y-116055012D01*
X126588905Y-116033455D01*
X126515000Y-116026176D01*
X125615000Y-116026176D01*
X125541095Y-116033455D01*
X125470030Y-116055012D01*
X125430000Y-116076409D01*
X125389970Y-116055012D01*
X125318905Y-116033455D01*
X125245000Y-116026176D01*
X124345000Y-116026176D01*
X124271095Y-116033455D01*
X124200030Y-116055012D01*
X124160000Y-116076409D01*
X124119970Y-116055012D01*
X124048905Y-116033455D01*
X123975000Y-116026176D01*
X123368547Y-116026176D01*
X123397319Y-115881528D01*
X123397319Y-115728472D01*
X123367460Y-115578357D01*
X123308888Y-115436952D01*
X123223855Y-115309691D01*
X123122319Y-115208155D01*
X123122319Y-114587615D01*
X123637538Y-114072397D01*
X123656684Y-114056684D01*
X123687354Y-114019314D01*
X123719416Y-113980246D01*
X123719417Y-113980245D01*
X123766031Y-113893036D01*
X123794736Y-113798409D01*
X123802000Y-113724653D01*
X123802000Y-113724644D01*
X123804427Y-113700001D01*
X123802000Y-113675358D01*
X123802000Y-113207934D01*
X124587527Y-112422408D01*
X124606673Y-112406695D01*
X124633796Y-112373647D01*
X124669405Y-112330257D01*
X124671632Y-112326091D01*
X124716020Y-112243047D01*
X124744725Y-112148420D01*
X124751989Y-112074664D01*
X124751989Y-112074655D01*
X124754416Y-112050012D01*
X124751989Y-112025369D01*
X124751989Y-111879356D01*
X124831083Y-111997729D01*
G37*
%TD.AperFunction*%
D22*
X128589296Y-103904571D02*
X128507616Y-104216108D01*
X128505020Y-104259280D01*
X127985750Y-104260000D01*
X127827000Y-104418750D01*
X127827000Y-107268000D01*
X130676250Y-107268000D01*
X130835000Y-107109250D01*
X130835403Y-106818568D01*
X130881061Y-106809574D01*
X131051351Y-106739408D01*
X131054425Y-106737763D01*
X131064936Y-106544541D01*
X130836101Y-106315706D01*
X130836599Y-105956994D01*
X131244541Y-106364936D01*
X131437763Y-106354425D01*
X131508562Y-106184397D01*
X131544828Y-106003824D01*
X131544919Y-105954853D01*
X132182989Y-106592924D01*
X132182990Y-113460336D01*
X132180562Y-113484989D01*
X132190254Y-113583398D01*
X132197999Y-113608930D01*
X132197999Y-113741769D01*
X132191079Y-113748689D01*
X132047485Y-113748689D01*
X131897370Y-113778548D01*
X131755965Y-113837120D01*
X131628704Y-113922153D01*
X131520477Y-114030380D01*
X131435444Y-114157641D01*
X131376872Y-114299046D01*
X131347013Y-114449161D01*
X131347013Y-114602217D01*
X131376872Y-114752332D01*
X131435444Y-114893737D01*
X131439314Y-114899529D01*
X131326643Y-114852859D01*
X131176528Y-114823000D01*
X131023472Y-114823000D01*
X130873357Y-114852859D01*
X130731952Y-114911431D01*
X130604691Y-114996464D01*
X130496464Y-115104691D01*
X130411431Y-115231952D01*
X130352859Y-115373357D01*
X130323000Y-115523472D01*
X130323000Y-115676528D01*
X130352859Y-115826643D01*
X130411431Y-115968048D01*
X130469429Y-116054848D01*
X130398905Y-116033455D01*
X130325000Y-116026176D01*
X129594062Y-116026176D01*
X129695309Y-115958525D01*
X129803536Y-115850298D01*
X129888569Y-115723037D01*
X129947141Y-115581632D01*
X129977000Y-115431517D01*
X129977000Y-115278461D01*
X129947141Y-115128346D01*
X129888569Y-114986941D01*
X129803536Y-114859680D01*
X129695309Y-114751453D01*
X129571759Y-114668899D01*
X129871108Y-114747384D01*
X130192595Y-114766718D01*
X130511675Y-114722961D01*
X130816088Y-114617795D01*
X130990044Y-114524814D01*
X131085808Y-114260413D01*
X130130000Y-113304605D01*
X130115858Y-113318748D01*
X129936253Y-113139143D01*
X129950395Y-113125000D01*
X129936253Y-113110858D01*
X130115858Y-112931253D01*
X130130000Y-112945395D01*
X130144143Y-112931253D01*
X130323748Y-113110858D01*
X130309605Y-113125000D01*
X131265413Y-114080808D01*
X131529814Y-113985044D01*
X131670704Y-113695429D01*
X131752384Y-113383892D01*
X131771718Y-113062405D01*
X131727961Y-112743325D01*
X131622795Y-112438912D01*
X131529814Y-112264956D01*
X131270723Y-112171115D01*
X131267108Y-112167500D01*
X131292268Y-112142340D01*
X131437763Y-112134425D01*
X131508562Y-111964397D01*
X131544828Y-111783824D01*
X131545171Y-111599645D01*
X131509574Y-111418939D01*
X131439408Y-111248649D01*
X131437763Y-111245575D01*
X131244541Y-111235064D01*
X130831531Y-111648074D01*
X130700429Y-111584296D01*
X130388892Y-111502616D01*
X130233676Y-111493281D01*
X129975459Y-111235064D01*
X129782237Y-111245575D01*
X129711438Y-111415603D01*
X129684639Y-111549041D01*
X129443912Y-111632205D01*
X129269956Y-111725186D01*
X129174193Y-111989585D01*
X129058525Y-111873917D01*
X128998491Y-111933951D01*
X128998491Y-111657545D01*
X129000918Y-111632902D01*
X128998491Y-111608259D01*
X128998491Y-111608250D01*
X128991227Y-111534494D01*
X128962522Y-111439867D01*
X128915908Y-111352658D01*
X128893209Y-111325000D01*
X128868890Y-111295367D01*
X128868888Y-111295365D01*
X128853175Y-111276219D01*
X128834029Y-111260506D01*
X128628982Y-111055459D01*
X130155064Y-111055459D01*
X130610000Y-111510395D01*
X131064936Y-111055459D01*
X131054425Y-110862237D01*
X130884397Y-110791438D01*
X130703824Y-110755172D01*
X130519645Y-110754829D01*
X130338939Y-110790426D01*
X130168649Y-110860592D01*
X130165575Y-110862237D01*
X130155064Y-111055459D01*
X128628982Y-111055459D01*
X128103686Y-110530164D01*
X130200000Y-110533072D01*
X130324482Y-110520812D01*
X130444180Y-110484502D01*
X130554494Y-110425537D01*
X130651185Y-110346185D01*
X130730537Y-110249494D01*
X130789502Y-110139180D01*
X130825812Y-110019482D01*
X130838072Y-109895000D01*
X130835000Y-107680750D01*
X130676250Y-107522000D01*
X127827000Y-107522000D01*
X127827000Y-107542000D01*
X127573000Y-107542000D01*
X127573000Y-107522000D01*
X124723750Y-107522000D01*
X124690636Y-107555114D01*
X124654797Y-107547985D01*
X124557920Y-107547985D01*
X124177000Y-107167066D01*
X124177000Y-107023472D01*
X124147141Y-106873357D01*
X124088569Y-106731952D01*
X124003536Y-106604691D01*
X123895309Y-106496464D01*
X123768048Y-106411431D01*
X123626643Y-106352859D01*
X123476528Y-106323000D01*
X123323472Y-106323000D01*
X123176999Y-106352135D01*
X123176999Y-106232935D01*
X123780903Y-105629031D01*
X123772902Y-105648347D01*
X123743043Y-105798462D01*
X123743043Y-105951518D01*
X123772902Y-106101633D01*
X123831474Y-106243038D01*
X123916507Y-106370299D01*
X124024734Y-106478526D01*
X124151995Y-106563559D01*
X124293400Y-106622131D01*
X124443515Y-106651990D01*
X124564366Y-106651990D01*
X124565000Y-107109250D01*
X124723750Y-107268000D01*
X127573000Y-107268000D01*
X127573000Y-104418750D01*
X127414250Y-104260000D01*
X126051825Y-104258110D01*
X126676119Y-103633816D01*
X128721011Y-103633816D01*
X128589296Y-103904571D01*
%TA.AperFunction,Conductor*%
D23*
G36*
X128589296Y-103904571D02*
G01*
X128507616Y-104216108D01*
X128505020Y-104259280D01*
X127985750Y-104260000D01*
X127827000Y-104418750D01*
X127827000Y-107268000D01*
X130676250Y-107268000D01*
X130835000Y-107109250D01*
X130835403Y-106818568D01*
X130881061Y-106809574D01*
X131051351Y-106739408D01*
X131054425Y-106737763D01*
X131064936Y-106544541D01*
X130836101Y-106315706D01*
X130836599Y-105956994D01*
X131244541Y-106364936D01*
X131437763Y-106354425D01*
X131508562Y-106184397D01*
X131544828Y-106003824D01*
X131544919Y-105954853D01*
X132182989Y-106592924D01*
X132182990Y-113460336D01*
X132180562Y-113484989D01*
X132190254Y-113583398D01*
X132197999Y-113608930D01*
X132197999Y-113741769D01*
X132191079Y-113748689D01*
X132047485Y-113748689D01*
X131897370Y-113778548D01*
X131755965Y-113837120D01*
X131628704Y-113922153D01*
X131520477Y-114030380D01*
X131435444Y-114157641D01*
X131376872Y-114299046D01*
X131347013Y-114449161D01*
X131347013Y-114602217D01*
X131376872Y-114752332D01*
X131435444Y-114893737D01*
X131439314Y-114899529D01*
X131326643Y-114852859D01*
X131176528Y-114823000D01*
X131023472Y-114823000D01*
X130873357Y-114852859D01*
X130731952Y-114911431D01*
X130604691Y-114996464D01*
X130496464Y-115104691D01*
X130411431Y-115231952D01*
X130352859Y-115373357D01*
X130323000Y-115523472D01*
X130323000Y-115676528D01*
X130352859Y-115826643D01*
X130411431Y-115968048D01*
X130469429Y-116054848D01*
X130398905Y-116033455D01*
X130325000Y-116026176D01*
X129594062Y-116026176D01*
X129695309Y-115958525D01*
X129803536Y-115850298D01*
X129888569Y-115723037D01*
X129947141Y-115581632D01*
X129977000Y-115431517D01*
X129977000Y-115278461D01*
X129947141Y-115128346D01*
X129888569Y-114986941D01*
X129803536Y-114859680D01*
X129695309Y-114751453D01*
X129571759Y-114668899D01*
X129871108Y-114747384D01*
X130192595Y-114766718D01*
X130511675Y-114722961D01*
X130816088Y-114617795D01*
X130990044Y-114524814D01*
X131085808Y-114260413D01*
X130130000Y-113304605D01*
X130115858Y-113318748D01*
X129936253Y-113139143D01*
X129950395Y-113125000D01*
X129936253Y-113110858D01*
X130115858Y-112931253D01*
X130130000Y-112945395D01*
X130144143Y-112931253D01*
X130323748Y-113110858D01*
X130309605Y-113125000D01*
X131265413Y-114080808D01*
X131529814Y-113985044D01*
X131670704Y-113695429D01*
X131752384Y-113383892D01*
X131771718Y-113062405D01*
X131727961Y-112743325D01*
X131622795Y-112438912D01*
X131529814Y-112264956D01*
X131270723Y-112171115D01*
X131267108Y-112167500D01*
X131292268Y-112142340D01*
X131437763Y-112134425D01*
X131508562Y-111964397D01*
X131544828Y-111783824D01*
X131545171Y-111599645D01*
X131509574Y-111418939D01*
X131439408Y-111248649D01*
X131437763Y-111245575D01*
X131244541Y-111235064D01*
X130831531Y-111648074D01*
X130700429Y-111584296D01*
X130388892Y-111502616D01*
X130233676Y-111493281D01*
X129975459Y-111235064D01*
X129782237Y-111245575D01*
X129711438Y-111415603D01*
X129684639Y-111549041D01*
X129443912Y-111632205D01*
X129269956Y-111725186D01*
X129174193Y-111989585D01*
X129058525Y-111873917D01*
X128998491Y-111933951D01*
X128998491Y-111657545D01*
X129000918Y-111632902D01*
X128998491Y-111608259D01*
X128998491Y-111608250D01*
X128991227Y-111534494D01*
X128962522Y-111439867D01*
X128915908Y-111352658D01*
X128893209Y-111325000D01*
X128868890Y-111295367D01*
X128868888Y-111295365D01*
X128853175Y-111276219D01*
X128834029Y-111260506D01*
X128628982Y-111055459D01*
X130155064Y-111055459D01*
X130610000Y-111510395D01*
X131064936Y-111055459D01*
X131054425Y-110862237D01*
X130884397Y-110791438D01*
X130703824Y-110755172D01*
X130519645Y-110754829D01*
X130338939Y-110790426D01*
X130168649Y-110860592D01*
X130165575Y-110862237D01*
X130155064Y-111055459D01*
X128628982Y-111055459D01*
X128103686Y-110530164D01*
X130200000Y-110533072D01*
X130324482Y-110520812D01*
X130444180Y-110484502D01*
X130554494Y-110425537D01*
X130651185Y-110346185D01*
X130730537Y-110249494D01*
X130789502Y-110139180D01*
X130825812Y-110019482D01*
X130838072Y-109895000D01*
X130835000Y-107680750D01*
X130676250Y-107522000D01*
X127827000Y-107522000D01*
X127827000Y-107542000D01*
X127573000Y-107542000D01*
X127573000Y-107522000D01*
X124723750Y-107522000D01*
X124690636Y-107555114D01*
X124654797Y-107547985D01*
X124557920Y-107547985D01*
X124177000Y-107167066D01*
X124177000Y-107023472D01*
X124147141Y-106873357D01*
X124088569Y-106731952D01*
X124003536Y-106604691D01*
X123895309Y-106496464D01*
X123768048Y-106411431D01*
X123626643Y-106352859D01*
X123476528Y-106323000D01*
X123323472Y-106323000D01*
X123176999Y-106352135D01*
X123176999Y-106232935D01*
X123780903Y-105629031D01*
X123772902Y-105648347D01*
X123743043Y-105798462D01*
X123743043Y-105951518D01*
X123772902Y-106101633D01*
X123831474Y-106243038D01*
X123916507Y-106370299D01*
X124024734Y-106478526D01*
X124151995Y-106563559D01*
X124293400Y-106622131D01*
X124443515Y-106651990D01*
X124564366Y-106651990D01*
X124565000Y-107109250D01*
X124723750Y-107268000D01*
X127573000Y-107268000D01*
X127573000Y-104418750D01*
X127414250Y-104260000D01*
X126051825Y-104258110D01*
X126676119Y-103633816D01*
X128721011Y-103633816D01*
X128589296Y-103904571D01*
G37*
%TD.AperFunction*%
D22*
X121225091Y-111466067D02*
X121225091Y-111609660D01*
X121254950Y-111759775D01*
X121313522Y-111901180D01*
X121398555Y-112028441D01*
X121506782Y-112136668D01*
X121634043Y-112221701D01*
X121775448Y-112280273D01*
X121925563Y-112310132D01*
X122078619Y-112310132D01*
X122225101Y-112280996D01*
X122225102Y-113391961D01*
X121515423Y-114101641D01*
X121371829Y-114101641D01*
X121225355Y-114130776D01*
X121225355Y-113809570D01*
X121257914Y-113777011D01*
X121401507Y-113777011D01*
X121551622Y-113747152D01*
X121693027Y-113688580D01*
X121820288Y-113603547D01*
X121928515Y-113495320D01*
X122013548Y-113368059D01*
X122072120Y-113226654D01*
X122101979Y-113076539D01*
X122101979Y-112923483D01*
X122072120Y-112773368D01*
X122013548Y-112631963D01*
X121928515Y-112504702D01*
X121820288Y-112396475D01*
X121693027Y-112311442D01*
X121551622Y-112252870D01*
X121401507Y-112223011D01*
X121248451Y-112223011D01*
X121098336Y-112252870D01*
X120956931Y-112311442D01*
X120829670Y-112396475D01*
X120721443Y-112504702D01*
X120636410Y-112631963D01*
X120577838Y-112773368D01*
X120547979Y-112923483D01*
X120547979Y-113067076D01*
X120385817Y-113229239D01*
X120366672Y-113244951D01*
X120350959Y-113264097D01*
X120350956Y-113264100D01*
X120303939Y-113321390D01*
X120257325Y-113408599D01*
X120228620Y-113503226D01*
X120218928Y-113601635D01*
X120221356Y-113626288D01*
X120221355Y-114932282D01*
X119578824Y-115574814D01*
X119578824Y-114685000D01*
X119571545Y-114611095D01*
X119549988Y-114540030D01*
X119528591Y-114500000D01*
X119549988Y-114459970D01*
X119571545Y-114388905D01*
X119578824Y-114315000D01*
X119578824Y-113415000D01*
X119571545Y-113341095D01*
X119549988Y-113270030D01*
X119528591Y-113230000D01*
X119549988Y-113189970D01*
X119571545Y-113118905D01*
X119578824Y-113045000D01*
X119578824Y-112145000D01*
X119571545Y-112071095D01*
X119549988Y-112000030D01*
X119528591Y-111960000D01*
X119549988Y-111919970D01*
X119571545Y-111848905D01*
X119578824Y-111775000D01*
X119578824Y-110875000D01*
X119571545Y-110801095D01*
X119549988Y-110730030D01*
X119528591Y-110690000D01*
X119549988Y-110649970D01*
X119571545Y-110578905D01*
X119578824Y-110505000D01*
X119578824Y-109819799D01*
X121225091Y-111466067D01*
%TA.AperFunction,Conductor*%
D23*
G36*
X121225091Y-111466067D02*
G01*
X121225091Y-111609660D01*
X121254950Y-111759775D01*
X121313522Y-111901180D01*
X121398555Y-112028441D01*
X121506782Y-112136668D01*
X121634043Y-112221701D01*
X121775448Y-112280273D01*
X121925563Y-112310132D01*
X122078619Y-112310132D01*
X122225101Y-112280996D01*
X122225102Y-113391961D01*
X121515423Y-114101641D01*
X121371829Y-114101641D01*
X121225355Y-114130776D01*
X121225355Y-113809570D01*
X121257914Y-113777011D01*
X121401507Y-113777011D01*
X121551622Y-113747152D01*
X121693027Y-113688580D01*
X121820288Y-113603547D01*
X121928515Y-113495320D01*
X122013548Y-113368059D01*
X122072120Y-113226654D01*
X122101979Y-113076539D01*
X122101979Y-112923483D01*
X122072120Y-112773368D01*
X122013548Y-112631963D01*
X121928515Y-112504702D01*
X121820288Y-112396475D01*
X121693027Y-112311442D01*
X121551622Y-112252870D01*
X121401507Y-112223011D01*
X121248451Y-112223011D01*
X121098336Y-112252870D01*
X120956931Y-112311442D01*
X120829670Y-112396475D01*
X120721443Y-112504702D01*
X120636410Y-112631963D01*
X120577838Y-112773368D01*
X120547979Y-112923483D01*
X120547979Y-113067076D01*
X120385817Y-113229239D01*
X120366672Y-113244951D01*
X120350959Y-113264097D01*
X120350956Y-113264100D01*
X120303939Y-113321390D01*
X120257325Y-113408599D01*
X120228620Y-113503226D01*
X120218928Y-113601635D01*
X120221356Y-113626288D01*
X120221355Y-114932282D01*
X119578824Y-115574814D01*
X119578824Y-114685000D01*
X119571545Y-114611095D01*
X119549988Y-114540030D01*
X119528591Y-114500000D01*
X119549988Y-114459970D01*
X119571545Y-114388905D01*
X119578824Y-114315000D01*
X119578824Y-113415000D01*
X119571545Y-113341095D01*
X119549988Y-113270030D01*
X119528591Y-113230000D01*
X119549988Y-113189970D01*
X119571545Y-113118905D01*
X119578824Y-113045000D01*
X119578824Y-112145000D01*
X119571545Y-112071095D01*
X119549988Y-112000030D01*
X119528591Y-111960000D01*
X119549988Y-111919970D01*
X119571545Y-111848905D01*
X119578824Y-111775000D01*
X119578824Y-110875000D01*
X119571545Y-110801095D01*
X119549988Y-110730030D01*
X119528591Y-110690000D01*
X119549988Y-110649970D01*
X119571545Y-110578905D01*
X119578824Y-110505000D01*
X119578824Y-109819799D01*
X121225091Y-111466067D01*
G37*
%TD.AperFunction*%
D22*
X129373357Y-99052859D02*
X129231952Y-99111431D01*
X129104691Y-99196464D01*
X128996464Y-99304691D01*
X128911431Y-99431952D01*
X128852859Y-99573357D01*
X128823000Y-99723472D01*
X128823000Y-99876528D01*
X128852859Y-100026643D01*
X128911431Y-100168048D01*
X128996464Y-100295309D01*
X129104691Y-100403536D01*
X129231952Y-100488569D01*
X129373357Y-100547141D01*
X129523472Y-100577000D01*
X129667066Y-100577000D01*
X130592603Y-101502538D01*
X130608316Y-101521684D01*
X130627462Y-101537397D01*
X130627465Y-101537400D01*
X130684754Y-101584417D01*
X130771963Y-101631031D01*
X130866590Y-101659736D01*
X130875432Y-101660607D01*
X130940347Y-101667000D01*
X130940354Y-101667000D01*
X130965000Y-101669427D01*
X130989645Y-101667000D01*
X133826298Y-101667000D01*
X133828455Y-101688905D01*
X133850012Y-101759970D01*
X133871409Y-101800000D01*
X133850012Y-101840030D01*
X133828455Y-101911095D01*
X133826298Y-101933000D01*
X132279345Y-101933000D01*
X132240606Y-101894261D01*
X132224889Y-101875110D01*
X132148450Y-101812377D01*
X132061241Y-101765763D01*
X131966614Y-101737058D01*
X131892858Y-101729794D01*
X131892848Y-101729794D01*
X131868205Y-101727367D01*
X131843562Y-101729794D01*
X125856437Y-101729794D01*
X125831794Y-101727367D01*
X125807151Y-101729794D01*
X125807141Y-101729794D01*
X125733385Y-101737058D01*
X125638758Y-101765763D01*
X125551549Y-101812377D01*
X125475110Y-101875110D01*
X125459397Y-101894256D01*
X121887456Y-105466198D01*
X121868304Y-105481916D01*
X121805571Y-105558355D01*
X121758957Y-105645565D01*
X121730252Y-105740192D01*
X121722988Y-105813948D01*
X121722988Y-105813957D01*
X121720561Y-105838600D01*
X121722988Y-105863243D01*
X121722988Y-106742079D01*
X121576506Y-106712943D01*
X121423450Y-106712943D01*
X121276976Y-106742078D01*
X121276976Y-103784618D01*
X121279403Y-103759975D01*
X121276976Y-103735332D01*
X121276976Y-103735323D01*
X121269712Y-103661567D01*
X121241007Y-103566940D01*
X121194393Y-103479731D01*
X121131660Y-103403292D01*
X121112514Y-103387579D01*
X119822399Y-102097465D01*
X119806684Y-102078316D01*
X119730245Y-102015583D01*
X119643036Y-101968969D01*
X119575219Y-101948397D01*
X119571545Y-101911095D01*
X119549988Y-101840030D01*
X119528591Y-101800000D01*
X119549988Y-101759970D01*
X119571545Y-101688905D01*
X119578824Y-101615000D01*
X119578824Y-100855570D01*
X119651185Y-100796185D01*
X119730537Y-100699494D01*
X119789502Y-100589180D01*
X119825812Y-100469482D01*
X119838072Y-100345000D01*
X119835000Y-100180750D01*
X119676250Y-100022000D01*
X118327000Y-100022000D01*
X118327000Y-100042000D01*
X118073000Y-100042000D01*
X118073000Y-100022000D01*
X118053000Y-100022000D01*
X118053000Y-99768000D01*
X118073000Y-99768000D01*
X118073000Y-99748000D01*
X118327000Y-99748000D01*
X118327000Y-99768000D01*
X119676250Y-99768000D01*
X119835000Y-99609250D01*
X119838072Y-99445000D01*
X119825812Y-99320518D01*
X119789502Y-99200820D01*
X119730537Y-99090506D01*
X119678419Y-99027000D01*
X129503362Y-99027000D01*
X129373357Y-99052859D01*
%TA.AperFunction,Conductor*%
D23*
G36*
X129373357Y-99052859D02*
G01*
X129231952Y-99111431D01*
X129104691Y-99196464D01*
X128996464Y-99304691D01*
X128911431Y-99431952D01*
X128852859Y-99573357D01*
X128823000Y-99723472D01*
X128823000Y-99876528D01*
X128852859Y-100026643D01*
X128911431Y-100168048D01*
X128996464Y-100295309D01*
X129104691Y-100403536D01*
X129231952Y-100488569D01*
X129373357Y-100547141D01*
X129523472Y-100577000D01*
X129667066Y-100577000D01*
X130592603Y-101502538D01*
X130608316Y-101521684D01*
X130627462Y-101537397D01*
X130627465Y-101537400D01*
X130684754Y-101584417D01*
X130771963Y-101631031D01*
X130866590Y-101659736D01*
X130875432Y-101660607D01*
X130940347Y-101667000D01*
X130940354Y-101667000D01*
X130965000Y-101669427D01*
X130989645Y-101667000D01*
X133826298Y-101667000D01*
X133828455Y-101688905D01*
X133850012Y-101759970D01*
X133871409Y-101800000D01*
X133850012Y-101840030D01*
X133828455Y-101911095D01*
X133826298Y-101933000D01*
X132279345Y-101933000D01*
X132240606Y-101894261D01*
X132224889Y-101875110D01*
X132148450Y-101812377D01*
X132061241Y-101765763D01*
X131966614Y-101737058D01*
X131892858Y-101729794D01*
X131892848Y-101729794D01*
X131868205Y-101727367D01*
X131843562Y-101729794D01*
X125856437Y-101729794D01*
X125831794Y-101727367D01*
X125807151Y-101729794D01*
X125807141Y-101729794D01*
X125733385Y-101737058D01*
X125638758Y-101765763D01*
X125551549Y-101812377D01*
X125475110Y-101875110D01*
X125459397Y-101894256D01*
X121887456Y-105466198D01*
X121868304Y-105481916D01*
X121805571Y-105558355D01*
X121758957Y-105645565D01*
X121730252Y-105740192D01*
X121722988Y-105813948D01*
X121722988Y-105813957D01*
X121720561Y-105838600D01*
X121722988Y-105863243D01*
X121722988Y-106742079D01*
X121576506Y-106712943D01*
X121423450Y-106712943D01*
X121276976Y-106742078D01*
X121276976Y-103784618D01*
X121279403Y-103759975D01*
X121276976Y-103735332D01*
X121276976Y-103735323D01*
X121269712Y-103661567D01*
X121241007Y-103566940D01*
X121194393Y-103479731D01*
X121131660Y-103403292D01*
X121112514Y-103387579D01*
X119822399Y-102097465D01*
X119806684Y-102078316D01*
X119730245Y-102015583D01*
X119643036Y-101968969D01*
X119575219Y-101948397D01*
X119571545Y-101911095D01*
X119549988Y-101840030D01*
X119528591Y-101800000D01*
X119549988Y-101759970D01*
X119571545Y-101688905D01*
X119578824Y-101615000D01*
X119578824Y-100855570D01*
X119651185Y-100796185D01*
X119730537Y-100699494D01*
X119789502Y-100589180D01*
X119825812Y-100469482D01*
X119838072Y-100345000D01*
X119835000Y-100180750D01*
X119676250Y-100022000D01*
X118327000Y-100022000D01*
X118327000Y-100042000D01*
X118073000Y-100042000D01*
X118073000Y-100022000D01*
X118053000Y-100022000D01*
X118053000Y-99768000D01*
X118073000Y-99768000D01*
X118073000Y-99748000D01*
X118327000Y-99748000D01*
X118327000Y-99768000D01*
X119676250Y-99768000D01*
X119835000Y-99609250D01*
X119838072Y-99445000D01*
X119825812Y-99320518D01*
X119789502Y-99200820D01*
X119730537Y-99090506D01*
X119678419Y-99027000D01*
X129503362Y-99027000D01*
X129373357Y-99052859D01*
G37*
%TD.AperFunction*%
D22*
X133669463Y-99090506D02*
X133610498Y-99200820D01*
X133574188Y-99320518D01*
X133561928Y-99445000D01*
X133565000Y-99609250D01*
X133723750Y-99768000D01*
X135073000Y-99768000D01*
X135073000Y-99748000D01*
X135327000Y-99748000D01*
X135327000Y-99768000D01*
X135347000Y-99768000D01*
X135347000Y-100022000D01*
X135327000Y-100022000D01*
X135327000Y-100042000D01*
X135073000Y-100042000D01*
X135073000Y-100022000D01*
X133723750Y-100022000D01*
X133565000Y-100180750D01*
X133561928Y-100345000D01*
X133574188Y-100469482D01*
X133610498Y-100589180D01*
X133649956Y-100663000D01*
X131172935Y-100663000D01*
X130377000Y-99867066D01*
X130377000Y-99723472D01*
X130347141Y-99573357D01*
X130288569Y-99431952D01*
X130203536Y-99304691D01*
X130095309Y-99196464D01*
X129968048Y-99111431D01*
X129826643Y-99052859D01*
X129696638Y-99027000D01*
X133721581Y-99027000D01*
X133669463Y-99090506D01*
%TA.AperFunction,Conductor*%
D23*
G36*
X133669463Y-99090506D02*
G01*
X133610498Y-99200820D01*
X133574188Y-99320518D01*
X133561928Y-99445000D01*
X133565000Y-99609250D01*
X133723750Y-99768000D01*
X135073000Y-99768000D01*
X135073000Y-99748000D01*
X135327000Y-99748000D01*
X135327000Y-99768000D01*
X135347000Y-99768000D01*
X135347000Y-100022000D01*
X135327000Y-100022000D01*
X135327000Y-100042000D01*
X135073000Y-100042000D01*
X135073000Y-100022000D01*
X133723750Y-100022000D01*
X133565000Y-100180750D01*
X133561928Y-100345000D01*
X133574188Y-100469482D01*
X133610498Y-100589180D01*
X133649956Y-100663000D01*
X131172935Y-100663000D01*
X130377000Y-99867066D01*
X130377000Y-99723472D01*
X130347141Y-99573357D01*
X130288569Y-99431952D01*
X130203536Y-99304691D01*
X130095309Y-99196464D01*
X129968048Y-99111431D01*
X129826643Y-99052859D01*
X129696638Y-99027000D01*
X133721581Y-99027000D01*
X133669463Y-99090506D01*
G37*
%TD.AperFunction*%
%TD*%
M02*
