M48
; DRILL file {KiCad (5.1.9-0-10_14)} date Saturday, May 15, 2021 at 08:29:54 AM
; FORMAT={-:-/ absolute / inch / decimal}
; #@! TF.CreationDate,2021-05-15T08:29:55+01:00
; #@! TF.GenerationSoftware,Kicad,Pcbnew,(5.1.9-0-10_14)
; #@! TF.FileFunction,Plated,1,2,PTH
FMAT,2
INCH
T1C0.0098
T2C0.0157
T3C0.0236
T4C0.0394
T5C0.0472
T6C0.0591
%
G90
G05
T1
X4.9341Y-4.5128
T2
X4.675Y-4.5371
X4.7766Y-4.4488
X4.7814Y-4.5228
X4.7928Y-4.2319
X4.8057Y-4.3907
X4.8196Y-4.2679
X4.8276Y-4.5593
X4.8632Y-4.4014
X4.8661Y-4.2008
X4.9024Y-4.1683
X4.9043Y-4.2458
X4.9384Y-4.3899
X4.9956Y-4.4046
X5.0236Y-4.1614
X5.0315Y-3.9331
X5.0589Y-4.5089
X5.0866Y-4.5415
X5.0906Y-3.9843
X5.1024Y-3.9291
X5.1614Y-4.5512
X5.2017Y-4.5089
X5.2047Y-4.063
X5.2466Y-4.5213
X5.248Y-4.0669
X5.3189Y-4.7441
T3
X5.1421Y-4.1697
X5.1421Y-4.3972
T4
X4.738Y-4.7441
X4.838Y-4.7441
X4.938Y-4.7441
X5.038Y-4.7441
X5.138Y-4.7441
X5.238Y-4.7441
X5.2756Y-4.8528
X5.2756Y-4.9528
T5
X5.2878Y-4.1132
X5.2878Y-4.4537
T6
X5.1232Y-4.1132
X5.1232Y-4.4537
T0
M30
