%TF.GenerationSoftware,KiCad,Pcbnew,(5.1.10-1-10_14)*%
%TF.CreationDate,2021-05-11T18:40:34+01:00*%
%TF.ProjectId,Generic,47656e65-7269-4632-9e6b-696361645f70,3*%
%TF.SameCoordinates,Original*%
%TF.FileFunction,Copper,L2,Bot*%
%TF.FilePolarity,Positive*%
%FSLAX46Y46*%
G04 Gerber Fmt 4.6, Leading zero omitted, Abs format (unit mm)*
G04 Created by KiCad (PCBNEW (5.1.10-1-10_14)) date 2021-05-11 18:40:34*
%MOMM*%
%LPD*%
G01*
G04 APERTURE LIST*
%TA.AperFunction,NonConductor*%
%ADD10C,0.080000*%
%TD*%
%TA.AperFunction,EtchedComponent*%
%ADD11C,0.250000*%
%TD*%
%TA.AperFunction,EtchedComponent*%
%ADD12C,0.500000*%
%TD*%
%TA.AperFunction,ComponentPad*%
%ADD13R,1.700000X1.700000*%
%TD*%
%TA.AperFunction,ComponentPad*%
%ADD14O,1.700000X1.700000*%
%TD*%
%TA.AperFunction,SMDPad,CuDef*%
%ADD15R,0.500000X1.000000*%
%TD*%
%TA.AperFunction,SMDPad,CuDef*%
%ADD16C,0.100000*%
%TD*%
%TA.AperFunction,SMDPad,CuDef*%
%ADD17R,1.000000X0.500000*%
%TD*%
%TA.AperFunction,SMDPad,CuDef*%
%ADD18R,0.800000X0.500000*%
%TD*%
%TA.AperFunction,SMDPad,CuDef*%
%ADD19R,3.650000X0.500000*%
%TD*%
%TA.AperFunction,SMDPad,CuDef*%
%ADD20R,0.500000X2.500000*%
%TD*%
%TA.AperFunction,SMDPad,CuDef*%
%ADD21R,3.700000X1.100000*%
%TD*%
%TA.AperFunction,SMDPad,CuDef*%
%ADD22R,1.560000X0.650000*%
%TD*%
%TA.AperFunction,SMDPad,CuDef*%
%ADD23R,1.750000X2.000000*%
%TD*%
%TA.AperFunction,ComponentPad*%
%ADD24C,0.350000*%
%TD*%
%TA.AperFunction,SMDPad,CuDef*%
%ADD25R,0.200000X0.200000*%
%TD*%
%TA.AperFunction,SMDPad,CuDef*%
%ADD26C,0.500000*%
%TD*%
%TA.AperFunction,SMDPad,CuDef*%
%ADD27R,2.000000X1.750000*%
%TD*%
%TA.AperFunction,SMDPad,CuDef*%
%ADD28R,0.500000X0.200000*%
%TD*%
%TA.AperFunction,SMDPad,CuDef*%
%ADD29R,0.200000X0.500000*%
%TD*%
%TA.AperFunction,SMDPad,CuDef*%
%ADD30R,5.490000X8.340000*%
%TD*%
%TA.AperFunction,SMDPad,CuDef*%
%ADD31R,1.140000X0.600000*%
%TD*%
%TA.AperFunction,ComponentPad*%
%ADD32C,1.700000*%
%TD*%
%TA.AperFunction,ComponentPad*%
%ADD33C,2.000000*%
%TD*%
%TA.AperFunction,SMDPad,CuDef*%
%ADD34R,1.140000X0.300000*%
%TD*%
%TA.AperFunction,ComponentPad*%
%ADD35C,0.600000*%
%TD*%
%TA.AperFunction,ViaPad*%
%ADD36C,0.800000*%
%TD*%
%TA.AperFunction,Conductor*%
%ADD37C,0.250000*%
%TD*%
%TA.AperFunction,Conductor*%
%ADD38C,0.500000*%
%TD*%
%TA.AperFunction,Conductor*%
%ADD39C,0.254000*%
%TD*%
%TA.AperFunction,Conductor*%
%ADD40C,0.100000*%
%TD*%
G04 APERTURE END LIST*
D10*
X128173809Y-109471428D02*
X128150000Y-109495238D01*
X128126190Y-109542857D01*
X128126190Y-109661904D01*
X128150000Y-109709523D01*
X128173809Y-109733333D01*
X128221428Y-109757142D01*
X128269047Y-109757142D01*
X128340476Y-109733333D01*
X128626190Y-109447619D01*
X128626190Y-109757142D01*
X128126190Y-110066666D02*
X128126190Y-110114285D01*
X128150000Y-110161904D01*
X128173809Y-110185714D01*
X128221428Y-110209523D01*
X128316666Y-110233333D01*
X128435714Y-110233333D01*
X128530952Y-110209523D01*
X128578571Y-110185714D01*
X128602380Y-110161904D01*
X128626190Y-110114285D01*
X128626190Y-110066666D01*
X128602380Y-110019047D01*
X128578571Y-109995238D01*
X128530952Y-109971428D01*
X128435714Y-109947619D01*
X128316666Y-109947619D01*
X128221428Y-109971428D01*
X128173809Y-109995238D01*
X128150000Y-110019047D01*
X128126190Y-110066666D01*
X128173809Y-110423809D02*
X128150000Y-110447619D01*
X128126190Y-110495238D01*
X128126190Y-110614285D01*
X128150000Y-110661904D01*
X128173809Y-110685714D01*
X128221428Y-110709523D01*
X128269047Y-110709523D01*
X128340476Y-110685714D01*
X128626190Y-110400000D01*
X128626190Y-110709523D01*
X128626190Y-111185714D02*
X128626190Y-110900000D01*
X128626190Y-111042857D02*
X128126190Y-111042857D01*
X128197619Y-110995238D01*
X128245238Y-110947619D01*
X128269047Y-110900000D01*
X128435714Y-111400000D02*
X128435714Y-111780952D01*
X128126190Y-112114285D02*
X128126190Y-112161904D01*
X128150000Y-112209523D01*
X128173809Y-112233333D01*
X128221428Y-112257142D01*
X128316666Y-112280952D01*
X128435714Y-112280952D01*
X128530952Y-112257142D01*
X128578571Y-112233333D01*
X128602380Y-112209523D01*
X128626190Y-112161904D01*
X128626190Y-112114285D01*
X128602380Y-112066666D01*
X128578571Y-112042857D01*
X128530952Y-112019047D01*
X128435714Y-111995238D01*
X128316666Y-111995238D01*
X128221428Y-112019047D01*
X128173809Y-112042857D01*
X128150000Y-112066666D01*
X128126190Y-112114285D01*
X128126190Y-112733333D02*
X128126190Y-112495238D01*
X128364285Y-112471428D01*
X128340476Y-112495238D01*
X128316666Y-112542857D01*
X128316666Y-112661904D01*
X128340476Y-112709523D01*
X128364285Y-112733333D01*
X128411904Y-112757142D01*
X128530952Y-112757142D01*
X128578571Y-112733333D01*
X128602380Y-112709523D01*
X128626190Y-112661904D01*
X128626190Y-112542857D01*
X128602380Y-112495238D01*
X128578571Y-112471428D01*
X128435714Y-112971428D02*
X128435714Y-113352380D01*
X128626190Y-113852380D02*
X128626190Y-113566666D01*
X128626190Y-113709523D02*
X128126190Y-113709523D01*
X128197619Y-113661904D01*
X128245238Y-113614285D01*
X128269047Y-113566666D01*
X128626190Y-114328571D02*
X128626190Y-114042857D01*
X128626190Y-114185714D02*
X128126190Y-114185714D01*
X128197619Y-114138095D01*
X128245238Y-114090476D01*
X128269047Y-114042857D01*
D11*
%TO.C,Reg1*%
X120500000Y-106750000D02*
X121250000Y-106750000D01*
X128250000Y-107000000D02*
X128250000Y-103650000D01*
X126550000Y-108450000D02*
X127750000Y-108450000D01*
X127750000Y-106500000D02*
X127750000Y-104150000D01*
X126550000Y-106500000D02*
X127750000Y-106500000D01*
X121250000Y-104150000D02*
X127750000Y-104150000D01*
X121250000Y-106750000D02*
X121250000Y-104150000D01*
X122250000Y-105250000D02*
X122250000Y-106750000D01*
D12*
X124250000Y-105250000D02*
X122250000Y-105250000D01*
X124250000Y-105100000D02*
X124250000Y-106500000D01*
D11*
X125500000Y-103650000D02*
X128250000Y-103650000D01*
X125500000Y-103650000D02*
X125500000Y-102800000D01*
X127750000Y-107000000D02*
X128250000Y-107000000D01*
X127750000Y-107000000D02*
X127750000Y-108450000D01*
%TD*%
%TO.P,R6,1*%
%TO.N,IO5*%
%TA.AperFunction,SMDPad,CuDef*%
G36*
G01*
X127825000Y-119750100D02*
X127825000Y-120649900D01*
G75*
G02*
X127574900Y-120900000I-250100J0D01*
G01*
X127050100Y-120900000D01*
G75*
G02*
X126800000Y-120649900I0J250100D01*
G01*
X126800000Y-119750100D01*
G75*
G02*
X127050100Y-119500000I250100J0D01*
G01*
X127574900Y-119500000D01*
G75*
G02*
X127825000Y-119750100I0J-250100D01*
G01*
G37*
%TD.AperFunction*%
%TO.P,R6,2*%
%TO.N,Net-(J1-Pad6)*%
%TA.AperFunction,SMDPad,CuDef*%
G36*
G01*
X126000000Y-119750100D02*
X126000000Y-120649900D01*
G75*
G02*
X125749900Y-120900000I-250100J0D01*
G01*
X125225100Y-120900000D01*
G75*
G02*
X124975000Y-120649900I0J250100D01*
G01*
X124975000Y-119750100D01*
G75*
G02*
X125225100Y-119500000I250100J0D01*
G01*
X125749900Y-119500000D01*
G75*
G02*
X126000000Y-119750100I0J-250100D01*
G01*
G37*
%TD.AperFunction*%
%TA.AperFunction,SMDPad,CuDef*%
G36*
G01*
X125500000Y-119574750D02*
X125500000Y-120825250D01*
G75*
G02*
X125250250Y-121075000I-249750J0D01*
G01*
X124624750Y-121075000D01*
G75*
G02*
X124375000Y-120825250I0J249750D01*
G01*
X124375000Y-119574750D01*
G75*
G02*
X124624750Y-119325000I249750J0D01*
G01*
X125250250Y-119325000D01*
G75*
G02*
X125500000Y-119574750I0J-249750D01*
G01*
G37*
%TD.AperFunction*%
%TO.P,R6,1*%
%TO.N,IO5*%
%TA.AperFunction,SMDPad,CuDef*%
G36*
G01*
X128425000Y-119574750D02*
X128425000Y-120825250D01*
G75*
G02*
X128175250Y-121075000I-249750J0D01*
G01*
X127549750Y-121075000D01*
G75*
G02*
X127300000Y-120825250I0J249750D01*
G01*
X127300000Y-119574750D01*
G75*
G02*
X127549750Y-119325000I249750J0D01*
G01*
X128175250Y-119325000D01*
G75*
G02*
X128425000Y-119574750I0J-249750D01*
G01*
G37*
%TD.AperFunction*%
%TD*%
%TO.P,R5,1*%
%TO.N,VBUS*%
%TA.AperFunction,SMDPad,CuDef*%
G36*
G01*
X126949900Y-128175000D02*
X126050100Y-128175000D01*
G75*
G02*
X125800000Y-127924900I0J250100D01*
G01*
X125800000Y-127400100D01*
G75*
G02*
X126050100Y-127150000I250100J0D01*
G01*
X126949900Y-127150000D01*
G75*
G02*
X127200000Y-127400100I0J-250100D01*
G01*
X127200000Y-127924900D01*
G75*
G02*
X126949900Y-128175000I-250100J0D01*
G01*
G37*
%TD.AperFunction*%
%TO.P,R5,2*%
%TO.N,Net-(J1-Pad6)*%
%TA.AperFunction,SMDPad,CuDef*%
G36*
G01*
X126949900Y-126350000D02*
X126050100Y-126350000D01*
G75*
G02*
X125800000Y-126099900I0J250100D01*
G01*
X125800000Y-125575100D01*
G75*
G02*
X126050100Y-125325000I250100J0D01*
G01*
X126949900Y-125325000D01*
G75*
G02*
X127200000Y-125575100I0J-250100D01*
G01*
X127200000Y-126099900D01*
G75*
G02*
X126949900Y-126350000I-250100J0D01*
G01*
G37*
%TD.AperFunction*%
%TA.AperFunction,SMDPad,CuDef*%
G36*
G01*
X127125250Y-125850000D02*
X125874750Y-125850000D01*
G75*
G02*
X125625000Y-125600250I0J249750D01*
G01*
X125625000Y-124974750D01*
G75*
G02*
X125874750Y-124725000I249750J0D01*
G01*
X127125250Y-124725000D01*
G75*
G02*
X127375000Y-124974750I0J-249750D01*
G01*
X127375000Y-125600250D01*
G75*
G02*
X127125250Y-125850000I-249750J0D01*
G01*
G37*
%TD.AperFunction*%
%TO.P,R5,1*%
%TO.N,VBUS*%
%TA.AperFunction,SMDPad,CuDef*%
G36*
G01*
X127125250Y-128775000D02*
X125874750Y-128775000D01*
G75*
G02*
X125625000Y-128525250I0J249750D01*
G01*
X125625000Y-127899750D01*
G75*
G02*
X125874750Y-127650000I249750J0D01*
G01*
X127125250Y-127650000D01*
G75*
G02*
X127375000Y-127899750I0J-249750D01*
G01*
X127375000Y-128525250D01*
G75*
G02*
X127125250Y-128775000I-249750J0D01*
G01*
G37*
%TD.AperFunction*%
%TD*%
%TO.P,R4,1*%
%TO.N,+3V3*%
%TA.AperFunction,SMDPad,CuDef*%
G36*
G01*
X123679900Y-128175000D02*
X122780100Y-128175000D01*
G75*
G02*
X122530000Y-127924900I0J250100D01*
G01*
X122530000Y-127400100D01*
G75*
G02*
X122780100Y-127150000I250100J0D01*
G01*
X123679900Y-127150000D01*
G75*
G02*
X123930000Y-127400100I0J-250100D01*
G01*
X123930000Y-127924900D01*
G75*
G02*
X123679900Y-128175000I-250100J0D01*
G01*
G37*
%TD.AperFunction*%
%TO.P,R4,2*%
%TO.N,IO4*%
%TA.AperFunction,SMDPad,CuDef*%
G36*
G01*
X123679900Y-126350000D02*
X122780100Y-126350000D01*
G75*
G02*
X122530000Y-126099900I0J250100D01*
G01*
X122530000Y-125575100D01*
G75*
G02*
X122780100Y-125325000I250100J0D01*
G01*
X123679900Y-125325000D01*
G75*
G02*
X123930000Y-125575100I0J-250100D01*
G01*
X123930000Y-126099900D01*
G75*
G02*
X123679900Y-126350000I-250100J0D01*
G01*
G37*
%TD.AperFunction*%
%TA.AperFunction,SMDPad,CuDef*%
G36*
G01*
X123855250Y-125850000D02*
X122604750Y-125850000D01*
G75*
G02*
X122355000Y-125600250I0J249750D01*
G01*
X122355000Y-124974750D01*
G75*
G02*
X122604750Y-124725000I249750J0D01*
G01*
X123855250Y-124725000D01*
G75*
G02*
X124105000Y-124974750I0J-249750D01*
G01*
X124105000Y-125600250D01*
G75*
G02*
X123855250Y-125850000I-249750J0D01*
G01*
G37*
%TD.AperFunction*%
%TO.P,R4,1*%
%TO.N,+3V3*%
%TA.AperFunction,SMDPad,CuDef*%
G36*
G01*
X123855250Y-128775000D02*
X122604750Y-128775000D01*
G75*
G02*
X122355000Y-128525250I0J249750D01*
G01*
X122355000Y-127899750D01*
G75*
G02*
X122604750Y-127650000I249750J0D01*
G01*
X123855250Y-127650000D01*
G75*
G02*
X124105000Y-127899750I0J-249750D01*
G01*
X124105000Y-128525250D01*
G75*
G02*
X123855250Y-128775000I-249750J0D01*
G01*
G37*
%TD.AperFunction*%
%TD*%
%TO.P,R3,1*%
%TO.N,+3V3*%
%TA.AperFunction,SMDPad,CuDef*%
G36*
G01*
X121179900Y-128175000D02*
X120280100Y-128175000D01*
G75*
G02*
X120030000Y-127924900I0J250100D01*
G01*
X120030000Y-127400100D01*
G75*
G02*
X120280100Y-127150000I250100J0D01*
G01*
X121179900Y-127150000D01*
G75*
G02*
X121430000Y-127400100I0J-250100D01*
G01*
X121430000Y-127924900D01*
G75*
G02*
X121179900Y-128175000I-250100J0D01*
G01*
G37*
%TD.AperFunction*%
%TO.P,R3,2*%
%TO.N,IO3*%
%TA.AperFunction,SMDPad,CuDef*%
G36*
G01*
X121179900Y-126350000D02*
X120280100Y-126350000D01*
G75*
G02*
X120030000Y-126099900I0J250100D01*
G01*
X120030000Y-125575100D01*
G75*
G02*
X120280100Y-125325000I250100J0D01*
G01*
X121179900Y-125325000D01*
G75*
G02*
X121430000Y-125575100I0J-250100D01*
G01*
X121430000Y-126099900D01*
G75*
G02*
X121179900Y-126350000I-250100J0D01*
G01*
G37*
%TD.AperFunction*%
%TA.AperFunction,SMDPad,CuDef*%
G36*
G01*
X121355250Y-125850000D02*
X120104750Y-125850000D01*
G75*
G02*
X119855000Y-125600250I0J249750D01*
G01*
X119855000Y-124974750D01*
G75*
G02*
X120104750Y-124725000I249750J0D01*
G01*
X121355250Y-124725000D01*
G75*
G02*
X121605000Y-124974750I0J-249750D01*
G01*
X121605000Y-125600250D01*
G75*
G02*
X121355250Y-125850000I-249750J0D01*
G01*
G37*
%TD.AperFunction*%
%TO.P,R3,1*%
%TO.N,+3V3*%
%TA.AperFunction,SMDPad,CuDef*%
G36*
G01*
X121355250Y-128775000D02*
X120104750Y-128775000D01*
G75*
G02*
X119855000Y-128525250I0J249750D01*
G01*
X119855000Y-127899750D01*
G75*
G02*
X120104750Y-127650000I249750J0D01*
G01*
X121355250Y-127650000D01*
G75*
G02*
X121605000Y-127899750I0J-249750D01*
G01*
X121605000Y-128525250D01*
G75*
G02*
X121355250Y-128775000I-249750J0D01*
G01*
G37*
%TD.AperFunction*%
%TD*%
%TO.P,R2,1*%
%TO.N,+3V3*%
%TA.AperFunction,SMDPad,CuDef*%
G36*
G01*
X118679900Y-128175000D02*
X117780100Y-128175000D01*
G75*
G02*
X117530000Y-127924900I0J250100D01*
G01*
X117530000Y-127400100D01*
G75*
G02*
X117780100Y-127150000I250100J0D01*
G01*
X118679900Y-127150000D01*
G75*
G02*
X118930000Y-127400100I0J-250100D01*
G01*
X118930000Y-127924900D01*
G75*
G02*
X118679900Y-128175000I-250100J0D01*
G01*
G37*
%TD.AperFunction*%
%TO.P,R2,2*%
%TO.N,IO2*%
%TA.AperFunction,SMDPad,CuDef*%
G36*
G01*
X118679900Y-126350000D02*
X117780100Y-126350000D01*
G75*
G02*
X117530000Y-126099900I0J250100D01*
G01*
X117530000Y-125575100D01*
G75*
G02*
X117780100Y-125325000I250100J0D01*
G01*
X118679900Y-125325000D01*
G75*
G02*
X118930000Y-125575100I0J-250100D01*
G01*
X118930000Y-126099900D01*
G75*
G02*
X118679900Y-126350000I-250100J0D01*
G01*
G37*
%TD.AperFunction*%
%TA.AperFunction,SMDPad,CuDef*%
G36*
G01*
X118855250Y-125850000D02*
X117604750Y-125850000D01*
G75*
G02*
X117355000Y-125600250I0J249750D01*
G01*
X117355000Y-124974750D01*
G75*
G02*
X117604750Y-124725000I249750J0D01*
G01*
X118855250Y-124725000D01*
G75*
G02*
X119105000Y-124974750I0J-249750D01*
G01*
X119105000Y-125600250D01*
G75*
G02*
X118855250Y-125850000I-249750J0D01*
G01*
G37*
%TD.AperFunction*%
%TO.P,R2,1*%
%TO.N,+3V3*%
%TA.AperFunction,SMDPad,CuDef*%
G36*
G01*
X118855250Y-128775000D02*
X117604750Y-128775000D01*
G75*
G02*
X117355000Y-128525250I0J249750D01*
G01*
X117355000Y-127899750D01*
G75*
G02*
X117604750Y-127650000I249750J0D01*
G01*
X118855250Y-127650000D01*
G75*
G02*
X119105000Y-127899750I0J-249750D01*
G01*
X119105000Y-128525250D01*
G75*
G02*
X118855250Y-128775000I-249750J0D01*
G01*
G37*
%TD.AperFunction*%
%TD*%
%TO.P,R1,1*%
%TO.N,+3V3*%
%TA.AperFunction,SMDPad,CuDef*%
G36*
G01*
X116179900Y-128175000D02*
X115280100Y-128175000D01*
G75*
G02*
X115030000Y-127924900I0J250100D01*
G01*
X115030000Y-127400100D01*
G75*
G02*
X115280100Y-127150000I250100J0D01*
G01*
X116179900Y-127150000D01*
G75*
G02*
X116430000Y-127400100I0J-250100D01*
G01*
X116430000Y-127924900D01*
G75*
G02*
X116179900Y-128175000I-250100J0D01*
G01*
G37*
%TD.AperFunction*%
%TO.P,R1,2*%
%TO.N,IO1*%
%TA.AperFunction,SMDPad,CuDef*%
G36*
G01*
X116179900Y-126350000D02*
X115280100Y-126350000D01*
G75*
G02*
X115030000Y-126099900I0J250100D01*
G01*
X115030000Y-125575100D01*
G75*
G02*
X115280100Y-125325000I250100J0D01*
G01*
X116179900Y-125325000D01*
G75*
G02*
X116430000Y-125575100I0J-250100D01*
G01*
X116430000Y-126099900D01*
G75*
G02*
X116179900Y-126350000I-250100J0D01*
G01*
G37*
%TD.AperFunction*%
%TA.AperFunction,SMDPad,CuDef*%
G36*
G01*
X116355250Y-125850000D02*
X115104750Y-125850000D01*
G75*
G02*
X114855000Y-125600250I0J249750D01*
G01*
X114855000Y-124974750D01*
G75*
G02*
X115104750Y-124725000I249750J0D01*
G01*
X116355250Y-124725000D01*
G75*
G02*
X116605000Y-124974750I0J-249750D01*
G01*
X116605000Y-125600250D01*
G75*
G02*
X116355250Y-125850000I-249750J0D01*
G01*
G37*
%TD.AperFunction*%
%TO.P,R1,1*%
%TO.N,+3V3*%
%TA.AperFunction,SMDPad,CuDef*%
G36*
G01*
X116355250Y-128775000D02*
X115104750Y-128775000D01*
G75*
G02*
X114855000Y-128525250I0J249750D01*
G01*
X114855000Y-127899750D01*
G75*
G02*
X115104750Y-127650000I249750J0D01*
G01*
X116355250Y-127650000D01*
G75*
G02*
X116605000Y-127899750I0J-249750D01*
G01*
X116605000Y-128525250D01*
G75*
G02*
X116355250Y-128775000I-249750J0D01*
G01*
G37*
%TD.AperFunction*%
%TD*%
%TO.P,C1,1*%
%TO.N,GND*%
%TA.AperFunction,SMDPad,CuDef*%
G36*
G01*
X111337500Y-120649900D02*
X111337500Y-119750100D01*
G75*
G02*
X111587600Y-119500000I250100J0D01*
G01*
X112112400Y-119500000D01*
G75*
G02*
X112362500Y-119750100I0J-250100D01*
G01*
X112362500Y-120649900D01*
G75*
G02*
X112112400Y-120900000I-250100J0D01*
G01*
X111587600Y-120900000D01*
G75*
G02*
X111337500Y-120649900I0J250100D01*
G01*
G37*
%TD.AperFunction*%
%TO.P,C1,2*%
%TO.N,IO1*%
%TA.AperFunction,SMDPad,CuDef*%
G36*
G01*
X113162500Y-120649900D02*
X113162500Y-119750100D01*
G75*
G02*
X113412600Y-119500000I250100J0D01*
G01*
X113937400Y-119500000D01*
G75*
G02*
X114187500Y-119750100I0J-250100D01*
G01*
X114187500Y-120649900D01*
G75*
G02*
X113937400Y-120900000I-250100J0D01*
G01*
X113412600Y-120900000D01*
G75*
G02*
X113162500Y-120649900I0J250100D01*
G01*
G37*
%TD.AperFunction*%
%TA.AperFunction,SMDPad,CuDef*%
G36*
G01*
X113662500Y-120825250D02*
X113662500Y-119574750D01*
G75*
G02*
X113912250Y-119325000I249750J0D01*
G01*
X114537750Y-119325000D01*
G75*
G02*
X114787500Y-119574750I0J-249750D01*
G01*
X114787500Y-120825250D01*
G75*
G02*
X114537750Y-121075000I-249750J0D01*
G01*
X113912250Y-121075000D01*
G75*
G02*
X113662500Y-120825250I0J249750D01*
G01*
G37*
%TD.AperFunction*%
%TO.P,C1,1*%
%TO.N,GND*%
%TA.AperFunction,SMDPad,CuDef*%
G36*
G01*
X110737500Y-120825250D02*
X110737500Y-119574750D01*
G75*
G02*
X110987250Y-119325000I249750J0D01*
G01*
X111612750Y-119325000D01*
G75*
G02*
X111862500Y-119574750I0J-249750D01*
G01*
X111862500Y-120825250D01*
G75*
G02*
X111612750Y-121075000I-249750J0D01*
G01*
X110987250Y-121075000D01*
G75*
G02*
X110737500Y-120825250I0J249750D01*
G01*
G37*
%TD.AperFunction*%
%TD*%
D13*
%TO.P,J1,1*%
%TO.N,GND*%
X113155000Y-122900000D03*
D14*
%TO.P,J1,2*%
%TO.N,IO1*%
X115695000Y-122900000D03*
%TO.P,J1,3*%
%TO.N,IO2*%
X118235000Y-122900000D03*
%TO.P,J1,4*%
%TO.N,IO3*%
X120775000Y-122900000D03*
%TO.P,J1,5*%
%TO.N,IO4*%
X123315000Y-122900000D03*
%TO.P,J1,6*%
%TO.N,Net-(J1-Pad6)*%
X125855000Y-122900000D03*
%TD*%
%TO.P,C2,2*%
%TO.N,GND*%
%TA.AperFunction,SMDPad,CuDef*%
G36*
G01*
X125237500Y-111675000D02*
X124762500Y-111675000D01*
G75*
G02*
X124525000Y-111437500I0J237500D01*
G01*
X124525000Y-110837500D01*
G75*
G02*
X124762500Y-110600000I237500J0D01*
G01*
X125237500Y-110600000D01*
G75*
G02*
X125475000Y-110837500I0J-237500D01*
G01*
X125475000Y-111437500D01*
G75*
G02*
X125237500Y-111675000I-237500J0D01*
G01*
G37*
%TD.AperFunction*%
%TO.P,C2,1*%
%TO.N,+3V3*%
%TA.AperFunction,SMDPad,CuDef*%
G36*
G01*
X125237500Y-113400000D02*
X124762500Y-113400000D01*
G75*
G02*
X124525000Y-113162500I0J237500D01*
G01*
X124525000Y-112562500D01*
G75*
G02*
X124762500Y-112325000I237500J0D01*
G01*
X125237500Y-112325000D01*
G75*
G02*
X125475000Y-112562500I0J-237500D01*
G01*
X125475000Y-113162500D01*
G75*
G02*
X125237500Y-113400000I-237500J0D01*
G01*
G37*
%TD.AperFunction*%
%TD*%
%TO.P,R8,2*%
%TO.N,Net-(J2-PadB5)*%
%TA.AperFunction,SMDPad,CuDef*%
G36*
G01*
X113075000Y-104987500D02*
X113075000Y-104512500D01*
G75*
G02*
X113312500Y-104275000I237500J0D01*
G01*
X113812500Y-104275000D01*
G75*
G02*
X114050000Y-104512500I0J-237500D01*
G01*
X114050000Y-104987500D01*
G75*
G02*
X113812500Y-105225000I-237500J0D01*
G01*
X113312500Y-105225000D01*
G75*
G02*
X113075000Y-104987500I0J237500D01*
G01*
G37*
%TD.AperFunction*%
%TO.P,R8,1*%
%TO.N,GND*%
%TA.AperFunction,SMDPad,CuDef*%
G36*
G01*
X111250000Y-104987500D02*
X111250000Y-104512500D01*
G75*
G02*
X111487500Y-104275000I237500J0D01*
G01*
X111987500Y-104275000D01*
G75*
G02*
X112225000Y-104512500I0J-237500D01*
G01*
X112225000Y-104987500D01*
G75*
G02*
X111987500Y-105225000I-237500J0D01*
G01*
X111487500Y-105225000D01*
G75*
G02*
X111250000Y-104987500I0J237500D01*
G01*
G37*
%TD.AperFunction*%
%TD*%
%TO.P,R7,2*%
%TO.N,GND*%
%TA.AperFunction,SMDPad,CuDef*%
G36*
G01*
X112225000Y-102062500D02*
X112225000Y-102537500D01*
G75*
G02*
X111987500Y-102775000I-237500J0D01*
G01*
X111487500Y-102775000D01*
G75*
G02*
X111250000Y-102537500I0J237500D01*
G01*
X111250000Y-102062500D01*
G75*
G02*
X111487500Y-101825000I237500J0D01*
G01*
X111987500Y-101825000D01*
G75*
G02*
X112225000Y-102062500I0J-237500D01*
G01*
G37*
%TD.AperFunction*%
%TO.P,R7,1*%
%TO.N,Net-(J2-PadA5)*%
%TA.AperFunction,SMDPad,CuDef*%
G36*
G01*
X114050000Y-102062500D02*
X114050000Y-102537500D01*
G75*
G02*
X113812500Y-102775000I-237500J0D01*
G01*
X113312500Y-102775000D01*
G75*
G02*
X113075000Y-102537500I0J237500D01*
G01*
X113075000Y-102062500D01*
G75*
G02*
X113312500Y-101825000I237500J0D01*
G01*
X113812500Y-101825000D01*
G75*
G02*
X114050000Y-102062500I0J-237500D01*
G01*
G37*
%TD.AperFunction*%
%TD*%
D15*
%TO.P,Reg1,4*%
%TO.N,+3V3*%
X124550000Y-102700000D03*
%TA.AperFunction,SMDPad,CuDef*%
G36*
G01*
X120684835Y-103461612D02*
X120861612Y-103284835D01*
G75*
G02*
X121038388Y-103284835I88388J-88388D01*
G01*
X121215165Y-103461612D01*
G75*
G02*
X121215165Y-103638388I-88388J-88388D01*
G01*
X121038388Y-103815165D01*
G75*
G02*
X120861612Y-103815165I-88388J88388D01*
G01*
X120684835Y-103638388D01*
G75*
G02*
X120684835Y-103461612I88388J88388D01*
G01*
G37*
%TD.AperFunction*%
%TA.AperFunction,SMDPad,CuDef*%
G36*
G01*
X121225000Y-103750000D02*
X120975000Y-103750000D01*
G75*
G02*
X120850000Y-103625000I0J125000D01*
G01*
X120850000Y-103375000D01*
G75*
G02*
X120975000Y-103250000I125000J0D01*
G01*
X121225000Y-103250000D01*
G75*
G02*
X121350000Y-103375000I0J-125000D01*
G01*
X121350000Y-103625000D01*
G75*
G02*
X121225000Y-103750000I-125000J0D01*
G01*
G37*
%TD.AperFunction*%
%TA.AperFunction,SMDPad,CuDef*%
D16*
G36*
X120169670Y-103976777D02*
G01*
X120876777Y-103269670D01*
X121230330Y-103623223D01*
X120523223Y-104330330D01*
X120169670Y-103976777D01*
G37*
%TD.AperFunction*%
%TO.P,Reg1,2*%
%TO.N,VBUS*%
%TA.AperFunction,SMDPad,CuDef*%
G36*
G01*
X123175000Y-107750000D02*
X122925000Y-107750000D01*
G75*
G02*
X122800000Y-107625000I0J125000D01*
G01*
X122800000Y-107375000D01*
G75*
G02*
X122925000Y-107250000I125000J0D01*
G01*
X123175000Y-107250000D01*
G75*
G02*
X123300000Y-107375000I0J-125000D01*
G01*
X123300000Y-107625000D01*
G75*
G02*
X123175000Y-107750000I-125000J0D01*
G01*
G37*
%TD.AperFunction*%
%TA.AperFunction,SMDPad,CuDef*%
G36*
G01*
X122634835Y-107461612D02*
X122811612Y-107284835D01*
G75*
G02*
X122988388Y-107284835I88388J-88388D01*
G01*
X123165165Y-107461612D01*
G75*
G02*
X123165165Y-107638388I-88388J-88388D01*
G01*
X122988388Y-107815165D01*
G75*
G02*
X122811612Y-107815165I-88388J88388D01*
G01*
X122634835Y-107638388D01*
G75*
G02*
X122634835Y-107461612I88388J88388D01*
G01*
G37*
%TD.AperFunction*%
D17*
X123400000Y-107500000D03*
%TA.AperFunction,SMDPad,CuDef*%
D16*
G36*
X122069670Y-108026777D02*
G01*
X122776777Y-107319670D01*
X123130330Y-107673223D01*
X122423223Y-108380330D01*
X122069670Y-108026777D01*
G37*
%TD.AperFunction*%
D17*
%TO.P,Reg1,3*%
%TO.N,GND*%
X120900000Y-102250000D03*
X121750000Y-102250000D03*
X126000000Y-107500000D03*
D18*
X125400000Y-107500000D03*
D17*
X121250000Y-102250000D03*
%TO.P,Reg1,4*%
%TO.N,+3V3*%
%TA.AperFunction,SMDPad,CuDef*%
G36*
G01*
X124675000Y-103750000D02*
X124425000Y-103750000D01*
G75*
G02*
X124300000Y-103625000I0J125000D01*
G01*
X124300000Y-103375000D01*
G75*
G02*
X124425000Y-103250000I125000J0D01*
G01*
X124675000Y-103250000D01*
G75*
G02*
X124800000Y-103375000I0J-125000D01*
G01*
X124800000Y-103625000D01*
G75*
G02*
X124675000Y-103750000I-125000J0D01*
G01*
G37*
%TD.AperFunction*%
D15*
X124550000Y-103100000D03*
D19*
X122850000Y-103500000D03*
%TO.P,Reg1,~*%
%TO.N,N/C*%
%TA.AperFunction,SMDPad,CuDef*%
G36*
G01*
X123125626Y-105950000D02*
X121874374Y-105950000D01*
G75*
G02*
X121625000Y-105700626I0J249374D01*
G01*
X121625000Y-104774374D01*
G75*
G02*
X121874374Y-104525000I249374J0D01*
G01*
X123125626Y-104525000D01*
G75*
G02*
X123375000Y-104774374I0J-249374D01*
G01*
X123375000Y-105700626D01*
G75*
G02*
X123125626Y-105950000I-249374J0D01*
G01*
G37*
%TD.AperFunction*%
%TO.P,Reg1,3*%
%TO.N,GND*%
%TA.AperFunction,SMDPad,CuDef*%
G36*
G01*
X123125626Y-102975000D02*
X121874374Y-102975000D01*
G75*
G02*
X121625000Y-102725626I0J249374D01*
G01*
X121625000Y-101799374D01*
G75*
G02*
X121874374Y-101550000I249374J0D01*
G01*
X123125626Y-101550000D01*
G75*
G02*
X123375000Y-101799374I0J-249374D01*
G01*
X123375000Y-102725626D01*
G75*
G02*
X123125626Y-102975000I-249374J0D01*
G01*
G37*
%TD.AperFunction*%
D20*
X125250000Y-107500000D03*
D18*
X125650000Y-107500000D03*
D21*
%TO.P,Reg1,4*%
%TO.N,+3V3*%
X125500000Y-102250000D03*
%TO.P,Reg1,~*%
%TO.N,N/C*%
X125500000Y-105250000D03*
%TO.P,Reg1,3*%
%TO.N,GND*%
%TA.AperFunction,SMDPad,CuDef*%
G36*
G01*
X120700450Y-102800000D02*
X119799550Y-102800000D01*
G75*
G02*
X119550000Y-102550450I0J249550D01*
G01*
X119550000Y-101899550D01*
G75*
G02*
X119799550Y-101650000I249550J0D01*
G01*
X120700450Y-101650000D01*
G75*
G02*
X120950000Y-101899550I0J-249550D01*
G01*
X120950000Y-102550450D01*
G75*
G02*
X120700450Y-102800000I-249550J0D01*
G01*
G37*
%TD.AperFunction*%
%TO.P,Reg1,4*%
%TO.N,+3V3*%
%TA.AperFunction,SMDPad,CuDef*%
G36*
G01*
X120700450Y-104850000D02*
X119799550Y-104850000D01*
G75*
G02*
X119550000Y-104600450I0J249550D01*
G01*
X119550000Y-103949550D01*
G75*
G02*
X119799550Y-103700000I249550J0D01*
G01*
X120700450Y-103700000D01*
G75*
G02*
X120950000Y-103949550I0J-249550D01*
G01*
X120950000Y-104600450D01*
G75*
G02*
X120700450Y-104850000I-249550J0D01*
G01*
G37*
%TD.AperFunction*%
%TO.P,Reg1,3*%
%TO.N,GND*%
%TA.AperFunction,SMDPad,CuDef*%
G36*
G01*
X119850000Y-108237500D02*
X119850000Y-107762500D01*
G75*
G02*
X120087500Y-107525000I237500J0D01*
G01*
X120687500Y-107525000D01*
G75*
G02*
X120925000Y-107762500I0J-237500D01*
G01*
X120925000Y-108237500D01*
G75*
G02*
X120687500Y-108475000I-237500J0D01*
G01*
X120087500Y-108475000D01*
G75*
G02*
X119850000Y-108237500I0J237500D01*
G01*
G37*
%TD.AperFunction*%
%TO.P,Reg1,2*%
%TO.N,VBUS*%
%TA.AperFunction,SMDPad,CuDef*%
G36*
G01*
X121575000Y-108237500D02*
X121575000Y-107762500D01*
G75*
G02*
X121812500Y-107525000I237500J0D01*
G01*
X122412500Y-107525000D01*
G75*
G02*
X122650000Y-107762500I0J-237500D01*
G01*
X122650000Y-108237500D01*
G75*
G02*
X122412500Y-108475000I-237500J0D01*
G01*
X121812500Y-108475000D01*
G75*
G02*
X121575000Y-108237500I0J237500D01*
G01*
G37*
%TD.AperFunction*%
%TO.P,Reg1,~*%
%TO.N,N/C*%
%TA.AperFunction,SMDPad,CuDef*%
G36*
G01*
X119850000Y-106987500D02*
X119850000Y-106512500D01*
G75*
G02*
X120087500Y-106275000I237500J0D01*
G01*
X120687500Y-106275000D01*
G75*
G02*
X120925000Y-106512500I0J-237500D01*
G01*
X120925000Y-106987500D01*
G75*
G02*
X120687500Y-107225000I-237500J0D01*
G01*
X120087500Y-107225000D01*
G75*
G02*
X119850000Y-106987500I0J237500D01*
G01*
G37*
%TD.AperFunction*%
%TA.AperFunction,SMDPad,CuDef*%
G36*
G01*
X121575000Y-106987500D02*
X121575000Y-106512500D01*
G75*
G02*
X121812500Y-106275000I237500J0D01*
G01*
X122412500Y-106275000D01*
G75*
G02*
X122650000Y-106512500I0J-237500D01*
G01*
X122650000Y-106987500D01*
G75*
G02*
X122412500Y-107225000I-237500J0D01*
G01*
X121812500Y-107225000D01*
G75*
G02*
X121575000Y-106987500I0J237500D01*
G01*
G37*
%TD.AperFunction*%
D22*
%TO.P,Reg1,1*%
%TO.N,VBUS*%
X123900000Y-108450000D03*
%TO.P,Reg1,2*%
X123900000Y-107500000D03*
%TO.P,Reg1,~*%
%TO.N,N/C*%
X123900000Y-106550000D03*
X126600000Y-106550000D03*
X126600000Y-108450000D03*
%TO.P,Reg1,3*%
%TO.N,GND*%
X126600000Y-107500000D03*
%TD*%
%TA.AperFunction,SMDPad,CuDef*%
D16*
%TO.P,U2,21*%
%TO.N,GND*%
G36*
X120125113Y-116024797D02*
G01*
X121875203Y-117774887D01*
X121624887Y-118025203D01*
X119874797Y-116275113D01*
X120125113Y-116024797D01*
G37*
%TD.AperFunction*%
D23*
X120750000Y-117025000D03*
D24*
X120875000Y-117025000D03*
D25*
%TO.P,U2,~*%
%TO.N,N/C*%
X122875000Y-119025000D03*
X118875000Y-115025000D03*
X118875000Y-119025000D03*
X122875000Y-115025000D03*
D26*
X122875000Y-119025000D03*
D27*
%TO.P,U2,21*%
%TO.N,GND*%
X120875000Y-116900000D03*
%TO.P,U2,20*%
%TO.N,+3V3*%
%TA.AperFunction,SMDPad,CuDef*%
G36*
G01*
X123312500Y-118150000D02*
X122437500Y-118150000D01*
G75*
G02*
X122375000Y-118087500I0J62500D01*
G01*
X122375000Y-117962500D01*
G75*
G02*
X122437500Y-117900000I62500J0D01*
G01*
X123312500Y-117900000D01*
G75*
G02*
X123375000Y-117962500I0J-62500D01*
G01*
X123375000Y-118087500D01*
G75*
G02*
X123312500Y-118150000I-62500J0D01*
G01*
G37*
%TD.AperFunction*%
%TO.P,U2,19*%
%TO.N,EN*%
%TA.AperFunction,SMDPad,CuDef*%
G36*
G01*
X123312500Y-117650000D02*
X122437500Y-117650000D01*
G75*
G02*
X122375000Y-117587500I0J62500D01*
G01*
X122375000Y-117462500D01*
G75*
G02*
X122437500Y-117400000I62500J0D01*
G01*
X123312500Y-117400000D01*
G75*
G02*
X123375000Y-117462500I0J-62500D01*
G01*
X123375000Y-117587500D01*
G75*
G02*
X123312500Y-117650000I-62500J0D01*
G01*
G37*
%TD.AperFunction*%
%TO.P,U2,18*%
%TO.N,GPIO0*%
%TA.AperFunction,SMDPad,CuDef*%
G36*
G01*
X123312500Y-117150000D02*
X122437500Y-117150000D01*
G75*
G02*
X122375000Y-117087500I0J62500D01*
G01*
X122375000Y-116962500D01*
G75*
G02*
X122437500Y-116900000I62500J0D01*
G01*
X123312500Y-116900000D01*
G75*
G02*
X123375000Y-116962500I0J-62500D01*
G01*
X123375000Y-117087500D01*
G75*
G02*
X123312500Y-117150000I-62500J0D01*
G01*
G37*
%TD.AperFunction*%
%TO.P,U2,17*%
%TO.N,I*%
%TA.AperFunction,SMDPad,CuDef*%
G36*
G01*
X123312500Y-116650000D02*
X122437500Y-116650000D01*
G75*
G02*
X122375000Y-116587500I0J62500D01*
G01*
X122375000Y-116462500D01*
G75*
G02*
X122437500Y-116400000I62500J0D01*
G01*
X123312500Y-116400000D01*
G75*
G02*
X123375000Y-116462500I0J-62500D01*
G01*
X123375000Y-116587500D01*
G75*
G02*
X123312500Y-116650000I-62500J0D01*
G01*
G37*
%TD.AperFunction*%
%TO.P,U2,16*%
%TO.N,Net-(U2-Pad16)*%
%TA.AperFunction,SMDPad,CuDef*%
G36*
G01*
X123312500Y-116150000D02*
X122437500Y-116150000D01*
G75*
G02*
X122375000Y-116087500I0J62500D01*
G01*
X122375000Y-115962500D01*
G75*
G02*
X122437500Y-115900000I62500J0D01*
G01*
X123312500Y-115900000D01*
G75*
G02*
X123375000Y-115962500I0J-62500D01*
G01*
X123375000Y-116087500D01*
G75*
G02*
X123312500Y-116150000I-62500J0D01*
G01*
G37*
%TD.AperFunction*%
%TO.P,U2,15*%
%TO.N,Net-(U2-Pad15)*%
%TA.AperFunction,SMDPad,CuDef*%
G36*
G01*
X121937500Y-115525000D02*
X121812500Y-115525000D01*
G75*
G02*
X121750000Y-115462500I0J62500D01*
G01*
X121750000Y-114587500D01*
G75*
G02*
X121812500Y-114525000I62500J0D01*
G01*
X121937500Y-114525000D01*
G75*
G02*
X122000000Y-114587500I0J-62500D01*
G01*
X122000000Y-115462500D01*
G75*
G02*
X121937500Y-115525000I-62500J0D01*
G01*
G37*
%TD.AperFunction*%
%TO.P,U2,14*%
%TO.N,Net-(U2-Pad14)*%
%TA.AperFunction,SMDPad,CuDef*%
G36*
G01*
X121437500Y-115525000D02*
X121312500Y-115525000D01*
G75*
G02*
X121250000Y-115462500I0J62500D01*
G01*
X121250000Y-114587500D01*
G75*
G02*
X121312500Y-114525000I62500J0D01*
G01*
X121437500Y-114525000D01*
G75*
G02*
X121500000Y-114587500I0J-62500D01*
G01*
X121500000Y-115462500D01*
G75*
G02*
X121437500Y-115525000I-62500J0D01*
G01*
G37*
%TD.AperFunction*%
%TO.P,U2,13*%
%TO.N,GND*%
%TA.AperFunction,SMDPad,CuDef*%
G36*
G01*
X120937500Y-115525000D02*
X120812500Y-115525000D01*
G75*
G02*
X120750000Y-115462500I0J62500D01*
G01*
X120750000Y-114587500D01*
G75*
G02*
X120812500Y-114525000I62500J0D01*
G01*
X120937500Y-114525000D01*
G75*
G02*
X121000000Y-114587500I0J-62500D01*
G01*
X121000000Y-115462500D01*
G75*
G02*
X120937500Y-115525000I-62500J0D01*
G01*
G37*
%TD.AperFunction*%
%TO.P,U2,12*%
%TO.N,+3V3*%
%TA.AperFunction,SMDPad,CuDef*%
G36*
G01*
X120437500Y-115525000D02*
X120312500Y-115525000D01*
G75*
G02*
X120250000Y-115462500I0J62500D01*
G01*
X120250000Y-114587500D01*
G75*
G02*
X120312500Y-114525000I62500J0D01*
G01*
X120437500Y-114525000D01*
G75*
G02*
X120500000Y-114587500I0J-62500D01*
G01*
X120500000Y-115462500D01*
G75*
G02*
X120437500Y-115525000I-62500J0D01*
G01*
G37*
%TD.AperFunction*%
%TO.P,U2,11*%
%TA.AperFunction,SMDPad,CuDef*%
G36*
G01*
X119937500Y-115525000D02*
X119812500Y-115525000D01*
G75*
G02*
X119750000Y-115462500I0J62500D01*
G01*
X119750000Y-114587500D01*
G75*
G02*
X119812500Y-114525000I62500J0D01*
G01*
X119937500Y-114525000D01*
G75*
G02*
X120000000Y-114587500I0J-62500D01*
G01*
X120000000Y-115462500D01*
G75*
G02*
X119937500Y-115525000I-62500J0D01*
G01*
G37*
%TD.AperFunction*%
%TO.P,U2,10*%
%TA.AperFunction,SMDPad,CuDef*%
G36*
G01*
X119312500Y-116150000D02*
X118437500Y-116150000D01*
G75*
G02*
X118375000Y-116087500I0J62500D01*
G01*
X118375000Y-115962500D01*
G75*
G02*
X118437500Y-115900000I62500J0D01*
G01*
X119312500Y-115900000D01*
G75*
G02*
X119375000Y-115962500I0J-62500D01*
G01*
X119375000Y-116087500D01*
G75*
G02*
X119312500Y-116150000I-62500J0D01*
G01*
G37*
%TD.AperFunction*%
%TO.P,U2,9*%
%TO.N,D-*%
%TA.AperFunction,SMDPad,CuDef*%
G36*
G01*
X119312500Y-116650000D02*
X118437500Y-116650000D01*
G75*
G02*
X118375000Y-116587500I0J62500D01*
G01*
X118375000Y-116462500D01*
G75*
G02*
X118437500Y-116400000I62500J0D01*
G01*
X119312500Y-116400000D01*
G75*
G02*
X119375000Y-116462500I0J-62500D01*
G01*
X119375000Y-116587500D01*
G75*
G02*
X119312500Y-116650000I-62500J0D01*
G01*
G37*
%TD.AperFunction*%
%TO.P,U2,8*%
%TO.N,D+*%
%TA.AperFunction,SMDPad,CuDef*%
G36*
G01*
X119312500Y-117150000D02*
X118437500Y-117150000D01*
G75*
G02*
X118375000Y-117087500I0J62500D01*
G01*
X118375000Y-116962500D01*
G75*
G02*
X118437500Y-116900000I62500J0D01*
G01*
X119312500Y-116900000D01*
G75*
G02*
X119375000Y-116962500I0J-62500D01*
G01*
X119375000Y-117087500D01*
G75*
G02*
X119312500Y-117150000I-62500J0D01*
G01*
G37*
%TD.AperFunction*%
%TO.P,U2,7*%
%TO.N,Net-(U2-Pad7)*%
%TA.AperFunction,SMDPad,CuDef*%
G36*
G01*
X119312500Y-117650000D02*
X118437500Y-117650000D01*
G75*
G02*
X118375000Y-117587500I0J62500D01*
G01*
X118375000Y-117462500D01*
G75*
G02*
X118437500Y-117400000I62500J0D01*
G01*
X119312500Y-117400000D01*
G75*
G02*
X119375000Y-117462500I0J-62500D01*
G01*
X119375000Y-117587500D01*
G75*
G02*
X119312500Y-117650000I-62500J0D01*
G01*
G37*
%TD.AperFunction*%
%TO.P,U2,6*%
%TO.N,GND*%
%TA.AperFunction,SMDPad,CuDef*%
G36*
G01*
X119312500Y-118150000D02*
X118437500Y-118150000D01*
G75*
G02*
X118375000Y-118087500I0J62500D01*
G01*
X118375000Y-117962500D01*
G75*
G02*
X118437500Y-117900000I62500J0D01*
G01*
X119312500Y-117900000D01*
G75*
G02*
X119375000Y-117962500I0J-62500D01*
G01*
X119375000Y-118087500D01*
G75*
G02*
X119312500Y-118150000I-62500J0D01*
G01*
G37*
%TD.AperFunction*%
%TO.P,U2,5*%
%TA.AperFunction,SMDPad,CuDef*%
G36*
G01*
X119937500Y-119525000D02*
X119812500Y-119525000D01*
G75*
G02*
X119750000Y-119462500I0J62500D01*
G01*
X119750000Y-118587500D01*
G75*
G02*
X119812500Y-118525000I62500J0D01*
G01*
X119937500Y-118525000D01*
G75*
G02*
X120000000Y-118587500I0J-62500D01*
G01*
X120000000Y-119462500D01*
G75*
G02*
X119937500Y-119525000I-62500J0D01*
G01*
G37*
%TD.AperFunction*%
%TO.P,U2,4*%
%TA.AperFunction,SMDPad,CuDef*%
G36*
G01*
X120437500Y-119525000D02*
X120312500Y-119525000D01*
G75*
G02*
X120250000Y-119462500I0J62500D01*
G01*
X120250000Y-118587500D01*
G75*
G02*
X120312500Y-118525000I62500J0D01*
G01*
X120437500Y-118525000D01*
G75*
G02*
X120500000Y-118587500I0J-62500D01*
G01*
X120500000Y-119462500D01*
G75*
G02*
X120437500Y-119525000I-62500J0D01*
G01*
G37*
%TD.AperFunction*%
%TO.P,U2,3*%
%TA.AperFunction,SMDPad,CuDef*%
G36*
G01*
X120937500Y-119525000D02*
X120812500Y-119525000D01*
G75*
G02*
X120750000Y-119462500I0J62500D01*
G01*
X120750000Y-118587500D01*
G75*
G02*
X120812500Y-118525000I62500J0D01*
G01*
X120937500Y-118525000D01*
G75*
G02*
X121000000Y-118587500I0J-62500D01*
G01*
X121000000Y-119462500D01*
G75*
G02*
X120937500Y-119525000I-62500J0D01*
G01*
G37*
%TD.AperFunction*%
%TO.P,U2,2*%
%TA.AperFunction,SMDPad,CuDef*%
G36*
G01*
X121437500Y-119525000D02*
X121312500Y-119525000D01*
G75*
G02*
X121250000Y-119462500I0J62500D01*
G01*
X121250000Y-118587500D01*
G75*
G02*
X121312500Y-118525000I62500J0D01*
G01*
X121437500Y-118525000D01*
G75*
G02*
X121500000Y-118587500I0J-62500D01*
G01*
X121500000Y-119462500D01*
G75*
G02*
X121437500Y-119525000I-62500J0D01*
G01*
G37*
%TD.AperFunction*%
%TO.P,U2,1*%
%TO.N,O*%
%TA.AperFunction,SMDPad,CuDef*%
G36*
G01*
X121937500Y-119525000D02*
X121812500Y-119525000D01*
G75*
G02*
X121750000Y-119462500I0J62500D01*
G01*
X121750000Y-118587500D01*
G75*
G02*
X121812500Y-118525000I62500J0D01*
G01*
X121937500Y-118525000D01*
G75*
G02*
X122000000Y-118587500I0J-62500D01*
G01*
X122000000Y-119462500D01*
G75*
G02*
X121937500Y-119525000I-62500J0D01*
G01*
G37*
%TD.AperFunction*%
%TD*%
D14*
%TO.P,J3,2*%
%TO.N,VBUS*%
X112200000Y-125660000D03*
D13*
%TO.P,J3,1*%
%TO.N,GND*%
X112200000Y-128200000D03*
%TD*%
D28*
%TO.P,J2,S1*%
%TO.N,GND*%
X115220000Y-107180000D03*
X115230000Y-115230000D03*
X115240000Y-108310000D03*
X115370000Y-108310000D03*
X115240000Y-114100000D03*
X115390000Y-114100000D03*
D29*
X111880000Y-114810000D03*
%TA.AperFunction,SMDPad,CuDef*%
D16*
G36*
X116133934Y-107522513D02*
G01*
X116487487Y-107876066D01*
X116346066Y-108017487D01*
X115992513Y-107663934D01*
X116133934Y-107522513D01*
G37*
%TD.AperFunction*%
%TA.AperFunction,SMDPad,CuDef*%
G36*
X115932513Y-114756066D02*
G01*
X116286066Y-114402513D01*
X116427487Y-114543934D01*
X116073934Y-114897487D01*
X115932513Y-114756066D01*
G37*
%TD.AperFunction*%
D29*
X111880000Y-107580000D03*
D30*
X112545000Y-111200000D03*
D31*
%TO.P,J2,A12*%
X116660000Y-108000000D03*
%TO.P,J2,A4*%
%TO.N,VBUS*%
X116660000Y-113600000D03*
%TO.P,J2,B12*%
%TO.N,GND*%
X116660000Y-114400000D03*
%TO.P,J2,B4*%
%TO.N,VBUS*%
X116660000Y-108800000D03*
D32*
%TO.P,J2,S1*%
%TO.N,GND*%
X111890000Y-106875000D03*
X111890000Y-115525000D03*
D33*
X116070000Y-106875000D03*
X116070000Y-115525000D03*
D34*
%TO.P,J2,A7*%
%TO.N,D-*%
X116660000Y-110950000D03*
%TO.P,J2,A6*%
%TO.N,D+*%
X116660000Y-111450000D03*
%TO.P,J2,B6*%
X116660000Y-110450000D03*
%TO.P,J2,B7*%
%TO.N,D-*%
X116660000Y-111950000D03*
%TO.P,J2,A8*%
%TO.N,Net-(J2-PadA8)*%
X116660000Y-109950000D03*
%TO.P,J2,A5*%
%TO.N,Net-(J2-PadA5)*%
X116660000Y-112450000D03*
%TO.P,J2,B5*%
%TO.N,Net-(J2-PadB5)*%
X116660000Y-109450000D03*
%TO.P,J2,B8*%
%TO.N,Net-(J2-PadB8)*%
X116660000Y-112950000D03*
D31*
%TO.P,J2,A9*%
%TO.N,VBUS*%
X116660000Y-108800000D03*
%TO.P,J2,B9*%
X116660000Y-113600000D03*
%TO.P,J2,B1*%
%TO.N,GND*%
X116660000Y-108000000D03*
D35*
%TO.P,J2,S1*%
X115590000Y-108310000D03*
X115590000Y-114090000D03*
D31*
%TO.P,J2,A1*%
X116660000Y-114400000D03*
%TD*%
D36*
%TO.N,GND*%
X118600000Y-109700000D03*
X124100000Y-115400000D03*
X112300000Y-101650000D03*
%TO.N,D-*%
X121600000Y-110747992D03*
X123148206Y-112312246D03*
X121600719Y-112198004D03*
%TO.N,+3V3*%
X113629916Y-126374388D03*
X118750000Y-103750000D03*
X126221157Y-116087612D03*
X124212651Y-118148151D03*
%TO.N,VBUS*%
X117735755Y-113422822D03*
X124399990Y-109451066D03*
X125002467Y-128324922D03*
%TO.N,IO5*%
X126481687Y-118011366D03*
%TO.N,IO4*%
X113800000Y-117304974D03*
%TO.N,O*%
X115885191Y-117544392D03*
%TO.N,I*%
X126350032Y-114962407D03*
%TO.N,EN*%
X112710202Y-116755063D03*
%TO.N,Net-(J2-PadA5)*%
X119500000Y-112895002D03*
X114637340Y-102362660D03*
%TO.N,GPIO0*%
X125314209Y-116920525D03*
%TD*%
D37*
%TO.N,D+*%
X118650000Y-111450000D02*
X116660000Y-111450000D01*
X116660000Y-110450000D02*
X120799599Y-110450000D01*
X122325001Y-110361458D02*
X122325001Y-111248001D01*
X121963543Y-110000000D02*
X122325001Y-110361458D01*
X121249599Y-110000000D02*
X121963543Y-110000000D01*
X122325001Y-111248001D02*
X122100000Y-111473002D01*
X120799599Y-110450000D02*
X121249599Y-110000000D01*
X118673002Y-111473002D02*
X118650000Y-111450000D01*
X120873002Y-111473002D02*
X118673002Y-111473002D01*
X122100000Y-111473002D02*
X120873002Y-111473002D01*
X121699040Y-113125002D02*
X120429155Y-113125002D01*
X120429155Y-113125002D02*
X119934144Y-113620013D01*
X119934144Y-113620013D02*
X118643576Y-113620013D01*
X117574979Y-114688610D02*
X117574979Y-116434412D01*
X120873002Y-111473002D02*
X121931962Y-111473002D01*
X122423204Y-112400838D02*
X121699040Y-113125002D01*
X121931962Y-111473002D02*
X122423204Y-111964244D01*
X122423204Y-111964244D02*
X122423204Y-112400838D01*
X118643576Y-113620013D02*
X117574979Y-114688610D01*
X117574979Y-116434412D02*
X118165567Y-117025000D01*
X118165567Y-117025000D02*
X118850000Y-117025000D01*
%TO.N,GND*%
X116070000Y-115525000D02*
X112545000Y-112000000D01*
X116070000Y-106875000D02*
X112545000Y-110400000D01*
X111890000Y-115525000D02*
X111890000Y-111855000D01*
X120875000Y-115000000D02*
X120875000Y-117025000D01*
X121375000Y-117525000D02*
X120875000Y-117025000D01*
X121375000Y-119050000D02*
X121375000Y-117525000D01*
X120875000Y-119050000D02*
X120875000Y-117025000D01*
X120375000Y-117525000D02*
X120875000Y-117025000D01*
X120375000Y-119050000D02*
X120375000Y-117525000D01*
X119875000Y-119050000D02*
X119875000Y-118025000D01*
D38*
X118600000Y-109700000D02*
X118600000Y-104900000D01*
D37*
X111737500Y-106722500D02*
X111890000Y-106875000D01*
D38*
X120250000Y-102225000D02*
X119025000Y-102225000D01*
X125250000Y-110887500D02*
X125000000Y-111137500D01*
X125250000Y-107500000D02*
X125250000Y-110887500D01*
D37*
X120387500Y-108000000D02*
X120387500Y-108637500D01*
X124373863Y-111137500D02*
X125000000Y-111137500D01*
X122317947Y-109081585D02*
X124373863Y-111137500D01*
X120831584Y-109081584D02*
X122317947Y-109081585D01*
X120387500Y-108637500D02*
X120831584Y-109081584D01*
D38*
X120387500Y-108000000D02*
X120387500Y-109112500D01*
D37*
X119875000Y-118025000D02*
X120875000Y-117025000D01*
X118850000Y-118025000D02*
X119875000Y-118025000D01*
X117000000Y-118000000D02*
X117000000Y-117800000D01*
X112300000Y-101737500D02*
X111737500Y-102300000D01*
X112300000Y-101650000D02*
X112300000Y-101737500D01*
D38*
X111890000Y-115525000D02*
X110800000Y-116615000D01*
X110800000Y-116615000D02*
X110800000Y-117500000D01*
X111200000Y-117900000D02*
X111200000Y-120200000D01*
X110800000Y-117500000D02*
X111200000Y-117900000D01*
D37*
X118850000Y-118000000D02*
X117000000Y-118000000D01*
X117000000Y-116455000D02*
X116070000Y-115525000D01*
X117000000Y-118000000D02*
X117000000Y-116455000D01*
X113155000Y-122900000D02*
X113155000Y-124345000D01*
X113155000Y-124463190D02*
X114500000Y-125808190D01*
X113155000Y-124345000D02*
X113155000Y-124463190D01*
X114500000Y-125808190D02*
X114500000Y-125900000D01*
X117000000Y-125768190D02*
X117000000Y-124000000D01*
D38*
X111300000Y-120200000D02*
X111300000Y-122700000D01*
X111500000Y-122900000D02*
X113155000Y-122900000D01*
X111300000Y-122700000D02*
X111500000Y-122900000D01*
D37*
%TO.N,D-*%
X116660000Y-110950000D02*
X121397992Y-110950000D01*
X121397992Y-110950000D02*
X121600000Y-110747992D01*
X121352715Y-111950000D02*
X121600719Y-112198004D01*
X116660000Y-111950000D02*
X121352715Y-111950000D01*
X121885439Y-113575013D02*
X123148206Y-112312246D01*
X120615555Y-113575013D02*
X121885439Y-113575013D01*
X118024990Y-114875010D02*
X118829976Y-114070024D01*
X118024990Y-116248012D02*
X118024990Y-114875010D01*
X120120544Y-114070024D02*
X120615555Y-113575013D01*
X118850000Y-116525000D02*
X118301978Y-116525000D01*
X118829976Y-114070024D02*
X120120544Y-114070024D01*
X118301978Y-116525000D02*
X118024990Y-116248012D01*
%TO.N,+3V3*%
X115730000Y-128300000D02*
X118230000Y-128300000D01*
X118230000Y-128300000D02*
X120730000Y-128300000D01*
X120730000Y-128300000D02*
X123230000Y-128300000D01*
X115730000Y-128300000D02*
X115555528Y-128300000D01*
X115555528Y-128300000D02*
X113629916Y-126374388D01*
X124835231Y-112697731D02*
X125000000Y-112862500D01*
X123899977Y-112697731D02*
X124835231Y-112697731D01*
X119275000Y-104275000D02*
X118750000Y-103750000D01*
X120250000Y-104275000D02*
X119275000Y-104275000D01*
X121031594Y-109531594D02*
X122131546Y-109531594D01*
X120563188Y-110000000D02*
X121031594Y-109531594D01*
X120000000Y-110000000D02*
X120563188Y-110000000D01*
X119175010Y-109175010D02*
X120000000Y-110000000D01*
X119975000Y-104275000D02*
X119175010Y-105074990D01*
X119175010Y-105074990D02*
X119175010Y-109175010D01*
X120250000Y-104275000D02*
X119975000Y-104275000D01*
X122849976Y-110250024D02*
X122849976Y-111349976D01*
X122131546Y-109531594D02*
X122849976Y-110250024D01*
X122849976Y-111349976D02*
X123000000Y-111500000D01*
X123500000Y-111500000D02*
X123899977Y-111899977D01*
X123000000Y-111500000D02*
X123500000Y-111500000D01*
X123899977Y-111899977D02*
X123899977Y-112697731D01*
X123560461Y-113037247D02*
X123899977Y-112697731D01*
X121921872Y-114174990D02*
X123059615Y-113037247D01*
X120651988Y-114174990D02*
X121921872Y-114174990D01*
X120375000Y-114451978D02*
X120651988Y-114174990D01*
X120375000Y-115000000D02*
X120375000Y-114451978D01*
X119875000Y-115000000D02*
X120375000Y-115000000D01*
X123059615Y-113037247D02*
X123560461Y-113037247D01*
X118850000Y-116025000D02*
X119875000Y-115000000D01*
X122875000Y-118025000D02*
X124089500Y-118025000D01*
X124089500Y-118025000D02*
X124212651Y-118148151D01*
X125000000Y-112862500D02*
X125000000Y-114149980D01*
X126786842Y-116087612D02*
X126221157Y-116087612D01*
X125025010Y-114174990D02*
X126623840Y-114174990D01*
X125000000Y-114149980D02*
X125025010Y-114174990D01*
X127101821Y-114652971D02*
X127101821Y-115772633D01*
X126623840Y-114174990D02*
X127101821Y-114652971D01*
X127101821Y-115772633D02*
X126786842Y-116087612D01*
%TO.N,VBUS*%
X116004998Y-113600000D02*
X116660000Y-113600000D01*
X115764999Y-113360001D02*
X116004998Y-113600000D01*
X115764999Y-109039999D02*
X115764999Y-113360001D01*
X116004998Y-108800000D02*
X115764999Y-109039999D01*
X116660000Y-108800000D02*
X116004998Y-108800000D01*
X116660000Y-113600000D02*
X117550000Y-113600000D01*
X117558577Y-113600000D02*
X117735755Y-113422822D01*
X116660000Y-113600000D02*
X117558577Y-113600000D01*
X123900000Y-108450000D02*
X123900000Y-107500000D01*
X123900000Y-108951076D02*
X124399990Y-109451066D01*
X123900000Y-108450000D02*
X123900000Y-108951076D01*
X125027389Y-128300000D02*
X125002467Y-128324922D01*
X126500000Y-128300000D02*
X125027389Y-128300000D01*
%TO.N,IO5*%
X127950000Y-119479679D02*
X127950000Y-120200000D01*
X126481687Y-118011366D02*
X127950000Y-119479679D01*
%TO.N,IO4*%
X123500000Y-123170000D02*
X123230000Y-122900000D01*
X123315000Y-125115000D02*
X123230000Y-125200000D01*
X123315000Y-122900000D02*
X123315000Y-125115000D01*
X116599309Y-119899308D02*
X115299656Y-118599655D01*
X116799308Y-119899308D02*
X116599309Y-119899308D01*
X115094681Y-118599655D02*
X113800000Y-117304974D01*
X117457486Y-119899310D02*
X116799310Y-119899310D01*
X116799310Y-119899310D02*
X116799308Y-119899308D01*
X122270912Y-121070912D02*
X118629088Y-121070912D01*
X115299656Y-118599655D02*
X115094681Y-118599655D01*
X118629088Y-121070912D02*
X117457486Y-119899310D01*
X123315000Y-122115000D02*
X122270912Y-121070912D01*
X123315000Y-122900000D02*
X123315000Y-122115000D01*
%TO.N,IO3*%
X120775000Y-125155000D02*
X120730000Y-125200000D01*
X120775000Y-122900000D02*
X120775000Y-125155000D01*
%TO.N,IO2*%
X118235000Y-125195000D02*
X118230000Y-125200000D01*
X118235000Y-122900000D02*
X118235000Y-125195000D01*
%TO.N,IO1*%
X114325000Y-120200000D02*
X114325000Y-121495000D01*
X115695000Y-125165000D02*
X115730000Y-125200000D01*
X115695000Y-122900000D02*
X115695000Y-125165000D01*
X114325000Y-121530000D02*
X114325000Y-121495000D01*
X115695000Y-122900000D02*
X114325000Y-121530000D01*
%TO.N,O*%
X121875000Y-119573022D02*
X121298011Y-120150011D01*
X121298011Y-120150011D02*
X118981007Y-120150011D01*
X121875000Y-119025000D02*
X121875000Y-119573022D01*
X117830286Y-118999288D02*
X117340087Y-118999288D01*
X118981007Y-120150011D02*
X117830286Y-118999288D01*
X117340087Y-118999288D02*
X115885191Y-117544392D01*
%TO.N,I*%
X122900000Y-116525000D02*
X123329174Y-116525000D01*
X123329174Y-116525000D02*
X123379198Y-116474976D01*
X123379198Y-116474976D02*
X124271778Y-116474976D01*
X124271778Y-116474976D02*
X125784347Y-114962407D01*
X125784347Y-114962407D02*
X126350032Y-114962407D01*
%TO.N,EN*%
X113110201Y-116355064D02*
X112710202Y-116755063D01*
X117643886Y-119449299D02*
X116785710Y-119449299D01*
X115486055Y-118149644D02*
X115286055Y-118149644D01*
X122875000Y-117525000D02*
X123601996Y-117525000D01*
X123601996Y-117525000D02*
X123703856Y-117423141D01*
X123703856Y-117423141D02*
X124596145Y-117423141D01*
X118794608Y-120600022D02*
X117643886Y-119449299D01*
X124596145Y-117423141D02*
X124937661Y-117764659D01*
X124937661Y-118535343D02*
X124548002Y-118925002D01*
X124937661Y-117764659D02*
X124937661Y-118535343D01*
X115286055Y-118149644D02*
X114625001Y-117488590D01*
X124548002Y-118925002D02*
X124168606Y-118925002D01*
X122493586Y-120600022D02*
X118794608Y-120600022D01*
X116785710Y-119449299D02*
X115486055Y-118149644D01*
X124168606Y-118925002D02*
X122493586Y-120600022D01*
X114625001Y-117488590D02*
X114625001Y-116851999D01*
X114128066Y-116355064D02*
X113110201Y-116355064D01*
X114625001Y-116851999D02*
X114128066Y-116355064D01*
%TO.N,Net-(J2-PadA5)*%
X116660000Y-112450000D02*
X119054998Y-112450000D01*
X119054998Y-112450000D02*
X119500000Y-112895002D01*
X113562500Y-102300000D02*
X114574680Y-102300000D01*
X114574680Y-102300000D02*
X114637340Y-102362660D01*
%TO.N,Net-(J2-PadB5)*%
X117480000Y-109450000D02*
X116660000Y-109450000D01*
X117924990Y-106773414D02*
X117924990Y-109005010D01*
X117924990Y-109005010D02*
X117480000Y-109450000D01*
X115901576Y-104750000D02*
X117924990Y-106773414D01*
X113562500Y-104750000D02*
X115901576Y-104750000D01*
%TO.N,Net-(J1-Pad6)*%
X124850000Y-121895000D02*
X124850000Y-121600000D01*
X124850000Y-120200000D02*
X124850000Y-121600000D01*
X124850000Y-121895000D02*
X125855000Y-122900000D01*
X125855000Y-124555000D02*
X126500000Y-125200000D01*
X125855000Y-122900000D02*
X125855000Y-124555000D01*
%TO.N,GPIO0*%
X123465586Y-117025000D02*
X123517456Y-116973130D01*
X122875000Y-117025000D02*
X123465586Y-117025000D01*
X125261607Y-116973130D02*
X124973130Y-116973130D01*
X125261604Y-116973130D02*
X123826870Y-116973130D01*
X125314209Y-116920525D02*
X125261604Y-116973130D01*
X123826870Y-116973130D02*
X125261602Y-116973130D01*
X123517456Y-116973130D02*
X123826870Y-116973130D01*
%TD*%
D39*
%TO.N,GND*%
X125373000Y-109226250D02*
X125531750Y-109385000D01*
X125630813Y-109374519D01*
X125750137Y-109336999D01*
X125859848Y-109276920D01*
X125955731Y-109196593D01*
X125990112Y-109153824D01*
X127380000Y-109153824D01*
X127453905Y-109146545D01*
X127524970Y-109124988D01*
X127590463Y-109089981D01*
X127643000Y-109046865D01*
X127643000Y-114840809D01*
X128573000Y-114840809D01*
X128573001Y-119091940D01*
X128524467Y-119052110D01*
X128415795Y-118994023D01*
X128297879Y-118958254D01*
X128175250Y-118946176D01*
X128126432Y-118946176D01*
X127258687Y-118078432D01*
X127258687Y-117934838D01*
X127228828Y-117784723D01*
X127170256Y-117643318D01*
X127085223Y-117516057D01*
X126976996Y-117407830D01*
X126849735Y-117322797D01*
X126708330Y-117264225D01*
X126558215Y-117234366D01*
X126405159Y-117234366D01*
X126255044Y-117264225D01*
X126113639Y-117322797D01*
X125986378Y-117407830D01*
X125878151Y-117516057D01*
X125793118Y-117643318D01*
X125734546Y-117784723D01*
X125704687Y-117934838D01*
X125704687Y-118087894D01*
X125734546Y-118238009D01*
X125793118Y-118379414D01*
X125878151Y-118506675D01*
X125986378Y-118614902D01*
X126113639Y-118699935D01*
X126255044Y-118758507D01*
X126405159Y-118788366D01*
X126548753Y-118788366D01*
X126901504Y-119141117D01*
X126809421Y-119169050D01*
X126700689Y-119227169D01*
X126605384Y-119305384D01*
X126527169Y-119400689D01*
X126469050Y-119509421D01*
X126433261Y-119627403D01*
X126421176Y-119750100D01*
X126421176Y-120649900D01*
X126433261Y-120772597D01*
X126469050Y-120890579D01*
X126527169Y-120999311D01*
X126605384Y-121094616D01*
X126700689Y-121172831D01*
X126809421Y-121230950D01*
X126927403Y-121266739D01*
X127050100Y-121278824D01*
X127116376Y-121278824D01*
X127200533Y-121347890D01*
X127309205Y-121405977D01*
X127427121Y-121441746D01*
X127549750Y-121453824D01*
X128175250Y-121453824D01*
X128297879Y-121441746D01*
X128415795Y-121405977D01*
X128524467Y-121347890D01*
X128573001Y-121308060D01*
X128573001Y-128979107D01*
X128560078Y-129110899D01*
X128527873Y-129217570D01*
X128475558Y-129315961D01*
X128405130Y-129402313D01*
X128319270Y-129473343D01*
X128221255Y-129526339D01*
X128114807Y-129559290D01*
X127984371Y-129573000D01*
X113413678Y-129573000D01*
X113501185Y-129501185D01*
X113580537Y-129404494D01*
X113639502Y-129294180D01*
X113675812Y-129174482D01*
X113688072Y-129050000D01*
X113685000Y-128485750D01*
X113526250Y-128327000D01*
X112327000Y-128327000D01*
X112327000Y-128347000D01*
X112073000Y-128347000D01*
X112073000Y-128327000D01*
X110873750Y-128327000D01*
X110715000Y-128485750D01*
X110711928Y-129050000D01*
X110724188Y-129174482D01*
X110760498Y-129294180D01*
X110819463Y-129404494D01*
X110898815Y-129501185D01*
X110981633Y-129569151D01*
X110889101Y-129560078D01*
X110782430Y-129527873D01*
X110684039Y-129475558D01*
X110597687Y-129405130D01*
X110526657Y-129319270D01*
X110473661Y-129221255D01*
X110440710Y-129114807D01*
X110427000Y-128984371D01*
X110427000Y-127350000D01*
X110711928Y-127350000D01*
X110715000Y-127914250D01*
X110873750Y-128073000D01*
X112073000Y-128073000D01*
X112073000Y-128053000D01*
X112327000Y-128053000D01*
X112327000Y-128073000D01*
X113526250Y-128073000D01*
X113685000Y-127914250D01*
X113688072Y-127350000D01*
X113675812Y-127225518D01*
X113653325Y-127151388D01*
X113696982Y-127151388D01*
X114476176Y-127930583D01*
X114476176Y-128525250D01*
X114488254Y-128647879D01*
X114524023Y-128765795D01*
X114582110Y-128874467D01*
X114660281Y-128969719D01*
X114755533Y-129047890D01*
X114864205Y-129105977D01*
X114982121Y-129141746D01*
X115104750Y-129153824D01*
X116355250Y-129153824D01*
X116477879Y-129141746D01*
X116595795Y-129105977D01*
X116704467Y-129047890D01*
X116799719Y-128969719D01*
X116877890Y-128874467D01*
X116916625Y-128802000D01*
X117043375Y-128802000D01*
X117082110Y-128874467D01*
X117160281Y-128969719D01*
X117255533Y-129047890D01*
X117364205Y-129105977D01*
X117482121Y-129141746D01*
X117604750Y-129153824D01*
X118855250Y-129153824D01*
X118977879Y-129141746D01*
X119095795Y-129105977D01*
X119204467Y-129047890D01*
X119299719Y-128969719D01*
X119377890Y-128874467D01*
X119416625Y-128802000D01*
X119543375Y-128802000D01*
X119582110Y-128874467D01*
X119660281Y-128969719D01*
X119755533Y-129047890D01*
X119864205Y-129105977D01*
X119982121Y-129141746D01*
X120104750Y-129153824D01*
X121355250Y-129153824D01*
X121477879Y-129141746D01*
X121595795Y-129105977D01*
X121704467Y-129047890D01*
X121799719Y-128969719D01*
X121877890Y-128874467D01*
X121916625Y-128802000D01*
X122043375Y-128802000D01*
X122082110Y-128874467D01*
X122160281Y-128969719D01*
X122255533Y-129047890D01*
X122364205Y-129105977D01*
X122482121Y-129141746D01*
X122604750Y-129153824D01*
X123855250Y-129153824D01*
X123977879Y-129141746D01*
X124095795Y-129105977D01*
X124204467Y-129047890D01*
X124299719Y-128969719D01*
X124377890Y-128874467D01*
X124404111Y-128825411D01*
X124507158Y-128928458D01*
X124634419Y-129013491D01*
X124775824Y-129072063D01*
X124925939Y-129101922D01*
X125078995Y-129101922D01*
X125229110Y-129072063D01*
X125370515Y-129013491D01*
X125432859Y-128971834D01*
X125525533Y-129047890D01*
X125634205Y-129105977D01*
X125752121Y-129141746D01*
X125874750Y-129153824D01*
X127125250Y-129153824D01*
X127247879Y-129141746D01*
X127365795Y-129105977D01*
X127474467Y-129047890D01*
X127569719Y-128969719D01*
X127647890Y-128874467D01*
X127705977Y-128765795D01*
X127741746Y-128647879D01*
X127753824Y-128525250D01*
X127753824Y-127899750D01*
X127741746Y-127777121D01*
X127705977Y-127659205D01*
X127647890Y-127550533D01*
X127578824Y-127466376D01*
X127578824Y-127400100D01*
X127566739Y-127277403D01*
X127530950Y-127159421D01*
X127472831Y-127050689D01*
X127394616Y-126955384D01*
X127299311Y-126877169D01*
X127190579Y-126819050D01*
X127072597Y-126783261D01*
X126949900Y-126771176D01*
X126050100Y-126771176D01*
X125927403Y-126783261D01*
X125809421Y-126819050D01*
X125700689Y-126877169D01*
X125605384Y-126955384D01*
X125527169Y-127050689D01*
X125469050Y-127159421D01*
X125433261Y-127277403D01*
X125421176Y-127400100D01*
X125421176Y-127466376D01*
X125352110Y-127550533D01*
X125317889Y-127614555D01*
X125229110Y-127577781D01*
X125078995Y-127547922D01*
X124925939Y-127547922D01*
X124775824Y-127577781D01*
X124634419Y-127636353D01*
X124507158Y-127721386D01*
X124467016Y-127761528D01*
X124435977Y-127659205D01*
X124377890Y-127550533D01*
X124308824Y-127466376D01*
X124308824Y-127400100D01*
X124296739Y-127277403D01*
X124260950Y-127159421D01*
X124202831Y-127050689D01*
X124124616Y-126955384D01*
X124029311Y-126877169D01*
X123920579Y-126819050D01*
X123802597Y-126783261D01*
X123679900Y-126771176D01*
X122780100Y-126771176D01*
X122657403Y-126783261D01*
X122539421Y-126819050D01*
X122430689Y-126877169D01*
X122335384Y-126955384D01*
X122257169Y-127050689D01*
X122199050Y-127159421D01*
X122163261Y-127277403D01*
X122151176Y-127400100D01*
X122151176Y-127466376D01*
X122082110Y-127550533D01*
X122024023Y-127659205D01*
X121988254Y-127777121D01*
X121986198Y-127798000D01*
X121973802Y-127798000D01*
X121971746Y-127777121D01*
X121935977Y-127659205D01*
X121877890Y-127550533D01*
X121808824Y-127466376D01*
X121808824Y-127400100D01*
X121796739Y-127277403D01*
X121760950Y-127159421D01*
X121702831Y-127050689D01*
X121624616Y-126955384D01*
X121529311Y-126877169D01*
X121420579Y-126819050D01*
X121302597Y-126783261D01*
X121179900Y-126771176D01*
X120280100Y-126771176D01*
X120157403Y-126783261D01*
X120039421Y-126819050D01*
X119930689Y-126877169D01*
X119835384Y-126955384D01*
X119757169Y-127050689D01*
X119699050Y-127159421D01*
X119663261Y-127277403D01*
X119651176Y-127400100D01*
X119651176Y-127466376D01*
X119582110Y-127550533D01*
X119524023Y-127659205D01*
X119488254Y-127777121D01*
X119486198Y-127798000D01*
X119473802Y-127798000D01*
X119471746Y-127777121D01*
X119435977Y-127659205D01*
X119377890Y-127550533D01*
X119308824Y-127466376D01*
X119308824Y-127400100D01*
X119296739Y-127277403D01*
X119260950Y-127159421D01*
X119202831Y-127050689D01*
X119124616Y-126955384D01*
X119029311Y-126877169D01*
X118920579Y-126819050D01*
X118802597Y-126783261D01*
X118679900Y-126771176D01*
X117780100Y-126771176D01*
X117657403Y-126783261D01*
X117539421Y-126819050D01*
X117430689Y-126877169D01*
X117335384Y-126955384D01*
X117257169Y-127050689D01*
X117199050Y-127159421D01*
X117163261Y-127277403D01*
X117151176Y-127400100D01*
X117151176Y-127466376D01*
X117082110Y-127550533D01*
X117024023Y-127659205D01*
X116988254Y-127777121D01*
X116986198Y-127798000D01*
X116973802Y-127798000D01*
X116971746Y-127777121D01*
X116935977Y-127659205D01*
X116877890Y-127550533D01*
X116808824Y-127466376D01*
X116808824Y-127400100D01*
X116796739Y-127277403D01*
X116760950Y-127159421D01*
X116702831Y-127050689D01*
X116624616Y-126955384D01*
X116529311Y-126877169D01*
X116420579Y-126819050D01*
X116302597Y-126783261D01*
X116179900Y-126771176D01*
X115280100Y-126771176D01*
X115157403Y-126783261D01*
X115039421Y-126819050D01*
X114930689Y-126877169D01*
X114882324Y-126916861D01*
X114406916Y-126441454D01*
X114406916Y-126297860D01*
X114377057Y-126147745D01*
X114318485Y-126006340D01*
X114233452Y-125879079D01*
X114125225Y-125770852D01*
X113997964Y-125685819D01*
X113856559Y-125627247D01*
X113706444Y-125597388D01*
X113553388Y-125597388D01*
X113427000Y-125622528D01*
X113427000Y-125539151D01*
X113379847Y-125302097D01*
X113287353Y-125078798D01*
X113153073Y-124877833D01*
X112982167Y-124706927D01*
X112781202Y-124572647D01*
X112557903Y-124480153D01*
X112320849Y-124433000D01*
X112079151Y-124433000D01*
X111842097Y-124480153D01*
X111618798Y-124572647D01*
X111417833Y-124706927D01*
X111246927Y-124877833D01*
X111112647Y-125078798D01*
X111020153Y-125302097D01*
X110973000Y-125539151D01*
X110973000Y-125780849D01*
X111020153Y-126017903D01*
X111112647Y-126241202D01*
X111246927Y-126442167D01*
X111417833Y-126613073D01*
X111567553Y-126713112D01*
X111350000Y-126711928D01*
X111225518Y-126724188D01*
X111105820Y-126760498D01*
X110995506Y-126819463D01*
X110898815Y-126898815D01*
X110819463Y-126995506D01*
X110760498Y-127105820D01*
X110724188Y-127225518D01*
X110711928Y-127350000D01*
X110427000Y-127350000D01*
X110427000Y-123750000D01*
X111666928Y-123750000D01*
X111679188Y-123874482D01*
X111715498Y-123994180D01*
X111774463Y-124104494D01*
X111853815Y-124201185D01*
X111950506Y-124280537D01*
X112060820Y-124339502D01*
X112180518Y-124375812D01*
X112305000Y-124388072D01*
X112869250Y-124385000D01*
X113028000Y-124226250D01*
X113028000Y-123027000D01*
X111828750Y-123027000D01*
X111670000Y-123185750D01*
X111666928Y-123750000D01*
X110427000Y-123750000D01*
X110427000Y-121629053D01*
X110493320Y-121664502D01*
X110613018Y-121700812D01*
X110737500Y-121713072D01*
X111014250Y-121710000D01*
X111173000Y-121551250D01*
X111173000Y-121513673D01*
X111213018Y-121525812D01*
X111337500Y-121538072D01*
X111427000Y-121536859D01*
X111427000Y-121551250D01*
X111585750Y-121710000D01*
X111765648Y-121711997D01*
X111715498Y-121805820D01*
X111679188Y-121925518D01*
X111666928Y-122050000D01*
X111670000Y-122614250D01*
X111828750Y-122773000D01*
X113028000Y-122773000D01*
X113028000Y-121573750D01*
X112869250Y-121415000D01*
X112736805Y-121414279D01*
X112813685Y-121351185D01*
X112893037Y-121254494D01*
X112952002Y-121144180D01*
X112967266Y-121093863D01*
X112967884Y-121094616D01*
X113063189Y-121172831D01*
X113171921Y-121230950D01*
X113289903Y-121266739D01*
X113412600Y-121278824D01*
X113478876Y-121278824D01*
X113563033Y-121347890D01*
X113671705Y-121405977D01*
X113696854Y-121413606D01*
X113440750Y-121415000D01*
X113282000Y-121573750D01*
X113282000Y-122773000D01*
X113302000Y-122773000D01*
X113302000Y-123027000D01*
X113282000Y-123027000D01*
X113282000Y-124226250D01*
X113440750Y-124385000D01*
X114005000Y-124388072D01*
X114129482Y-124375812D01*
X114249180Y-124339502D01*
X114359494Y-124280537D01*
X114456185Y-124201185D01*
X114535537Y-124104494D01*
X114594502Y-123994180D01*
X114630812Y-123874482D01*
X114643072Y-123750000D01*
X114641888Y-123532447D01*
X114741927Y-123682167D01*
X114912833Y-123853073D01*
X115113798Y-123987353D01*
X115193000Y-124020160D01*
X115193001Y-124346176D01*
X115104750Y-124346176D01*
X114982121Y-124358254D01*
X114864205Y-124394023D01*
X114755533Y-124452110D01*
X114660281Y-124530281D01*
X114582110Y-124625533D01*
X114524023Y-124734205D01*
X114488254Y-124852121D01*
X114476176Y-124974750D01*
X114476176Y-125600250D01*
X114488254Y-125722879D01*
X114524023Y-125840795D01*
X114582110Y-125949467D01*
X114651176Y-126033624D01*
X114651176Y-126099900D01*
X114663261Y-126222597D01*
X114699050Y-126340579D01*
X114757169Y-126449311D01*
X114835384Y-126544616D01*
X114930689Y-126622831D01*
X115039421Y-126680950D01*
X115157403Y-126716739D01*
X115280100Y-126728824D01*
X116179900Y-126728824D01*
X116302597Y-126716739D01*
X116420579Y-126680950D01*
X116529311Y-126622831D01*
X116624616Y-126544616D01*
X116702831Y-126449311D01*
X116760950Y-126340579D01*
X116796739Y-126222597D01*
X116808824Y-126099900D01*
X116808824Y-126033624D01*
X116877890Y-125949467D01*
X116935977Y-125840795D01*
X116971746Y-125722879D01*
X116980000Y-125639075D01*
X116988254Y-125722879D01*
X117024023Y-125840795D01*
X117082110Y-125949467D01*
X117151176Y-126033624D01*
X117151176Y-126099900D01*
X117163261Y-126222597D01*
X117199050Y-126340579D01*
X117257169Y-126449311D01*
X117335384Y-126544616D01*
X117430689Y-126622831D01*
X117539421Y-126680950D01*
X117657403Y-126716739D01*
X117780100Y-126728824D01*
X118679900Y-126728824D01*
X118802597Y-126716739D01*
X118920579Y-126680950D01*
X119029311Y-126622831D01*
X119124616Y-126544616D01*
X119202831Y-126449311D01*
X119260950Y-126340579D01*
X119296739Y-126222597D01*
X119308824Y-126099900D01*
X119308824Y-126033624D01*
X119377890Y-125949467D01*
X119435977Y-125840795D01*
X119471746Y-125722879D01*
X119480000Y-125639075D01*
X119488254Y-125722879D01*
X119524023Y-125840795D01*
X119582110Y-125949467D01*
X119651176Y-126033624D01*
X119651176Y-126099900D01*
X119663261Y-126222597D01*
X119699050Y-126340579D01*
X119757169Y-126449311D01*
X119835384Y-126544616D01*
X119930689Y-126622831D01*
X120039421Y-126680950D01*
X120157403Y-126716739D01*
X120280100Y-126728824D01*
X121179900Y-126728824D01*
X121302597Y-126716739D01*
X121420579Y-126680950D01*
X121529311Y-126622831D01*
X121624616Y-126544616D01*
X121702831Y-126449311D01*
X121760950Y-126340579D01*
X121796739Y-126222597D01*
X121808824Y-126099900D01*
X121808824Y-126033624D01*
X121877890Y-125949467D01*
X121935977Y-125840795D01*
X121971746Y-125722879D01*
X121980000Y-125639075D01*
X121988254Y-125722879D01*
X122024023Y-125840795D01*
X122082110Y-125949467D01*
X122151176Y-126033624D01*
X122151176Y-126099900D01*
X122163261Y-126222597D01*
X122199050Y-126340579D01*
X122257169Y-126449311D01*
X122335384Y-126544616D01*
X122430689Y-126622831D01*
X122539421Y-126680950D01*
X122657403Y-126716739D01*
X122780100Y-126728824D01*
X123679900Y-126728824D01*
X123802597Y-126716739D01*
X123920579Y-126680950D01*
X124029311Y-126622831D01*
X124124616Y-126544616D01*
X124202831Y-126449311D01*
X124260950Y-126340579D01*
X124296739Y-126222597D01*
X124308824Y-126099900D01*
X124308824Y-126033624D01*
X124377890Y-125949467D01*
X124435977Y-125840795D01*
X124471746Y-125722879D01*
X124483824Y-125600250D01*
X124483824Y-124974750D01*
X124471746Y-124852121D01*
X124435977Y-124734205D01*
X124377890Y-124625533D01*
X124299719Y-124530281D01*
X124204467Y-124452110D01*
X124095795Y-124394023D01*
X123977879Y-124358254D01*
X123855250Y-124346176D01*
X123817000Y-124346176D01*
X123817000Y-124020160D01*
X123896202Y-123987353D01*
X124097167Y-123853073D01*
X124268073Y-123682167D01*
X124402353Y-123481202D01*
X124494847Y-123257903D01*
X124542000Y-123020849D01*
X124542000Y-122779151D01*
X124494847Y-122542097D01*
X124402353Y-122318798D01*
X124268073Y-122117833D01*
X124097167Y-121946927D01*
X123896202Y-121812647D01*
X123672903Y-121720153D01*
X123619457Y-121709522D01*
X122857649Y-120947715D01*
X122865987Y-120937555D01*
X123996176Y-119807367D01*
X123996176Y-120825250D01*
X124008254Y-120947879D01*
X124044023Y-121065795D01*
X124102110Y-121174467D01*
X124180281Y-121269719D01*
X124275533Y-121347890D01*
X124348001Y-121386625D01*
X124348001Y-121575337D01*
X124348000Y-121575347D01*
X124348000Y-121870357D01*
X124345573Y-121895000D01*
X124348000Y-121919643D01*
X124348000Y-121919652D01*
X124355264Y-121993408D01*
X124383969Y-122088035D01*
X124430583Y-122175245D01*
X124493316Y-122251684D01*
X124512467Y-122267401D01*
X124707960Y-122462894D01*
X124675153Y-122542097D01*
X124628000Y-122779151D01*
X124628000Y-123020849D01*
X124675153Y-123257903D01*
X124767647Y-123481202D01*
X124901927Y-123682167D01*
X125072833Y-123853073D01*
X125273798Y-123987353D01*
X125353001Y-124020160D01*
X125353001Y-124530347D01*
X125350573Y-124555000D01*
X125356940Y-124619648D01*
X125352110Y-124625533D01*
X125294023Y-124734205D01*
X125258254Y-124852121D01*
X125246176Y-124974750D01*
X125246176Y-125600250D01*
X125258254Y-125722879D01*
X125294023Y-125840795D01*
X125352110Y-125949467D01*
X125421176Y-126033624D01*
X125421176Y-126099900D01*
X125433261Y-126222597D01*
X125469050Y-126340579D01*
X125527169Y-126449311D01*
X125605384Y-126544616D01*
X125700689Y-126622831D01*
X125809421Y-126680950D01*
X125927403Y-126716739D01*
X126050100Y-126728824D01*
X126949900Y-126728824D01*
X127072597Y-126716739D01*
X127190579Y-126680950D01*
X127299311Y-126622831D01*
X127394616Y-126544616D01*
X127472831Y-126449311D01*
X127530950Y-126340579D01*
X127566739Y-126222597D01*
X127578824Y-126099900D01*
X127578824Y-126033624D01*
X127647890Y-125949467D01*
X127705977Y-125840795D01*
X127741746Y-125722879D01*
X127753824Y-125600250D01*
X127753824Y-124974750D01*
X127741746Y-124852121D01*
X127705977Y-124734205D01*
X127647890Y-124625533D01*
X127569719Y-124530281D01*
X127474467Y-124452110D01*
X127365795Y-124394023D01*
X127247879Y-124358254D01*
X127125250Y-124346176D01*
X126357000Y-124346176D01*
X126357000Y-124020160D01*
X126436202Y-123987353D01*
X126637167Y-123853073D01*
X126808073Y-123682167D01*
X126942353Y-123481202D01*
X127034847Y-123257903D01*
X127082000Y-123020849D01*
X127082000Y-122779151D01*
X127034847Y-122542097D01*
X126942353Y-122318798D01*
X126808073Y-122117833D01*
X126637167Y-121946927D01*
X126436202Y-121812647D01*
X126212903Y-121720153D01*
X125975849Y-121673000D01*
X125734151Y-121673000D01*
X125497097Y-121720153D01*
X125417894Y-121752960D01*
X125352000Y-121687066D01*
X125352000Y-121443802D01*
X125372879Y-121441746D01*
X125490795Y-121405977D01*
X125599467Y-121347890D01*
X125683624Y-121278824D01*
X125749900Y-121278824D01*
X125872597Y-121266739D01*
X125990579Y-121230950D01*
X126099311Y-121172831D01*
X126194616Y-121094616D01*
X126272831Y-120999311D01*
X126330950Y-120890579D01*
X126366739Y-120772597D01*
X126378824Y-120649900D01*
X126378824Y-119750100D01*
X126366739Y-119627403D01*
X126330950Y-119509421D01*
X126272831Y-119400689D01*
X126194616Y-119305384D01*
X126099311Y-119227169D01*
X125990579Y-119169050D01*
X125872597Y-119133261D01*
X125749900Y-119121176D01*
X125683624Y-119121176D01*
X125599467Y-119052110D01*
X125490795Y-118994023D01*
X125372879Y-118958254D01*
X125250250Y-118946176D01*
X125236763Y-118946176D01*
X125275199Y-118907740D01*
X125294345Y-118892027D01*
X125357078Y-118815588D01*
X125403692Y-118728379D01*
X125432397Y-118633752D01*
X125439661Y-118559996D01*
X125439661Y-118559987D01*
X125442088Y-118535344D01*
X125439661Y-118510701D01*
X125439661Y-117789303D01*
X125442088Y-117764660D01*
X125439661Y-117740015D01*
X125439661Y-117740006D01*
X125434618Y-117688797D01*
X125540852Y-117667666D01*
X125682257Y-117609094D01*
X125809518Y-117524061D01*
X125917745Y-117415834D01*
X126002778Y-117288573D01*
X126061350Y-117147168D01*
X126091209Y-116997053D01*
X126091209Y-116853986D01*
X126144629Y-116864612D01*
X126297685Y-116864612D01*
X126447800Y-116834753D01*
X126589205Y-116776181D01*
X126716466Y-116691148D01*
X126818713Y-116588901D01*
X126885251Y-116582348D01*
X126979878Y-116553643D01*
X127067087Y-116507029D01*
X127143526Y-116444296D01*
X127159244Y-116425144D01*
X127439353Y-116145035D01*
X127458505Y-116129317D01*
X127500844Y-116077728D01*
X127521238Y-116052879D01*
X127567852Y-115965670D01*
X127596557Y-115871043D01*
X127597612Y-115860328D01*
X127603821Y-115797286D01*
X127603821Y-115797279D01*
X127606248Y-115772633D01*
X127603821Y-115747988D01*
X127603821Y-114677613D01*
X127606248Y-114652970D01*
X127603821Y-114628327D01*
X127603821Y-114628318D01*
X127596557Y-114554562D01*
X127567852Y-114459935D01*
X127521238Y-114372726D01*
X127499813Y-114346620D01*
X127474220Y-114315435D01*
X127474218Y-114315433D01*
X127458505Y-114296287D01*
X127439359Y-114280574D01*
X126996239Y-113837455D01*
X126980524Y-113818306D01*
X126904085Y-113755573D01*
X126816876Y-113708959D01*
X126722249Y-113680254D01*
X126648493Y-113672990D01*
X126648483Y-113672990D01*
X126623840Y-113670563D01*
X126599197Y-113672990D01*
X125582305Y-113672990D01*
X125673307Y-113598307D01*
X125749955Y-113504911D01*
X125806909Y-113398357D01*
X125841982Y-113282739D01*
X125853824Y-113162500D01*
X125853824Y-112562500D01*
X125841982Y-112442261D01*
X125806909Y-112326643D01*
X125761580Y-112241838D01*
X125829494Y-112205537D01*
X125926185Y-112126185D01*
X126005537Y-112029494D01*
X126064502Y-111919180D01*
X126100812Y-111799482D01*
X126113072Y-111675000D01*
X126110000Y-111423250D01*
X125951250Y-111264500D01*
X125127000Y-111264500D01*
X125127000Y-111284500D01*
X124873000Y-111284500D01*
X124873000Y-111264500D01*
X124048750Y-111264500D01*
X124011592Y-111301658D01*
X123872399Y-111162465D01*
X123856684Y-111143316D01*
X123780245Y-111080583D01*
X123693036Y-111033969D01*
X123598409Y-111005264D01*
X123524653Y-110998000D01*
X123524643Y-110998000D01*
X123500000Y-110995573D01*
X123475357Y-110998000D01*
X123351976Y-110998000D01*
X123351976Y-110274666D01*
X123354403Y-110250023D01*
X123351976Y-110225380D01*
X123351976Y-110225371D01*
X123344712Y-110151615D01*
X123316007Y-110056988D01*
X123269393Y-109969779D01*
X123251519Y-109948000D01*
X123222375Y-109912488D01*
X123222373Y-109912486D01*
X123206660Y-109893340D01*
X123187514Y-109877627D01*
X122503947Y-109194061D01*
X122488230Y-109174910D01*
X122411791Y-109112177D01*
X122324582Y-109065563D01*
X122229955Y-109036858D01*
X122156199Y-109029594D01*
X122156189Y-109029594D01*
X122131546Y-109027167D01*
X122106903Y-109029594D01*
X121056236Y-109029594D01*
X121054392Y-109029412D01*
X121173942Y-108965512D01*
X121306623Y-108856623D01*
X121415512Y-108723942D01*
X121422488Y-108710890D01*
X121470089Y-108749955D01*
X121576643Y-108806909D01*
X121692261Y-108841982D01*
X121812500Y-108853824D01*
X122412500Y-108853824D01*
X122532739Y-108841982D01*
X122648357Y-108806909D01*
X122741176Y-108757296D01*
X122741176Y-108775000D01*
X122748455Y-108848905D01*
X122770012Y-108919970D01*
X122805019Y-108985463D01*
X122852131Y-109042869D01*
X122909537Y-109089981D01*
X122975030Y-109124988D01*
X123046095Y-109146545D01*
X123120000Y-109153824D01*
X123439161Y-109153824D01*
X123480584Y-109231321D01*
X123527601Y-109288611D01*
X123527604Y-109288614D01*
X123543317Y-109307760D01*
X123562462Y-109323472D01*
X123622990Y-109384000D01*
X123622990Y-109527594D01*
X123652849Y-109677709D01*
X123711421Y-109819114D01*
X123796454Y-109946375D01*
X123904681Y-110054602D01*
X124031942Y-110139635D01*
X124068815Y-110154908D01*
X123994463Y-110245506D01*
X123935498Y-110355820D01*
X123899188Y-110475518D01*
X123886928Y-110600000D01*
X123890000Y-110851750D01*
X124048750Y-111010500D01*
X124873000Y-111010500D01*
X124873000Y-110123750D01*
X125127000Y-110123750D01*
X125127000Y-111010500D01*
X125951250Y-111010500D01*
X126110000Y-110851750D01*
X126113072Y-110600000D01*
X126100812Y-110475518D01*
X126064502Y-110355820D01*
X126005537Y-110245506D01*
X125926185Y-110148815D01*
X125829494Y-110069463D01*
X125719180Y-110010498D01*
X125599482Y-109974188D01*
X125475000Y-109961928D01*
X125285750Y-109965000D01*
X125127000Y-110123750D01*
X124873000Y-110123750D01*
X124840481Y-110091231D01*
X124895299Y-110054602D01*
X125003526Y-109946375D01*
X125088559Y-109819114D01*
X125147131Y-109677709D01*
X125176990Y-109527594D01*
X125176990Y-109374538D01*
X125147131Y-109224423D01*
X125127000Y-109175823D01*
X125127000Y-108388072D01*
X125373000Y-108388072D01*
X125373000Y-109226250D01*
%TA.AperFunction,Conductor*%
D40*
G36*
X125373000Y-109226250D02*
G01*
X125531750Y-109385000D01*
X125630813Y-109374519D01*
X125750137Y-109336999D01*
X125859848Y-109276920D01*
X125955731Y-109196593D01*
X125990112Y-109153824D01*
X127380000Y-109153824D01*
X127453905Y-109146545D01*
X127524970Y-109124988D01*
X127590463Y-109089981D01*
X127643000Y-109046865D01*
X127643000Y-114840809D01*
X128573000Y-114840809D01*
X128573001Y-119091940D01*
X128524467Y-119052110D01*
X128415795Y-118994023D01*
X128297879Y-118958254D01*
X128175250Y-118946176D01*
X128126432Y-118946176D01*
X127258687Y-118078432D01*
X127258687Y-117934838D01*
X127228828Y-117784723D01*
X127170256Y-117643318D01*
X127085223Y-117516057D01*
X126976996Y-117407830D01*
X126849735Y-117322797D01*
X126708330Y-117264225D01*
X126558215Y-117234366D01*
X126405159Y-117234366D01*
X126255044Y-117264225D01*
X126113639Y-117322797D01*
X125986378Y-117407830D01*
X125878151Y-117516057D01*
X125793118Y-117643318D01*
X125734546Y-117784723D01*
X125704687Y-117934838D01*
X125704687Y-118087894D01*
X125734546Y-118238009D01*
X125793118Y-118379414D01*
X125878151Y-118506675D01*
X125986378Y-118614902D01*
X126113639Y-118699935D01*
X126255044Y-118758507D01*
X126405159Y-118788366D01*
X126548753Y-118788366D01*
X126901504Y-119141117D01*
X126809421Y-119169050D01*
X126700689Y-119227169D01*
X126605384Y-119305384D01*
X126527169Y-119400689D01*
X126469050Y-119509421D01*
X126433261Y-119627403D01*
X126421176Y-119750100D01*
X126421176Y-120649900D01*
X126433261Y-120772597D01*
X126469050Y-120890579D01*
X126527169Y-120999311D01*
X126605384Y-121094616D01*
X126700689Y-121172831D01*
X126809421Y-121230950D01*
X126927403Y-121266739D01*
X127050100Y-121278824D01*
X127116376Y-121278824D01*
X127200533Y-121347890D01*
X127309205Y-121405977D01*
X127427121Y-121441746D01*
X127549750Y-121453824D01*
X128175250Y-121453824D01*
X128297879Y-121441746D01*
X128415795Y-121405977D01*
X128524467Y-121347890D01*
X128573001Y-121308060D01*
X128573001Y-128979107D01*
X128560078Y-129110899D01*
X128527873Y-129217570D01*
X128475558Y-129315961D01*
X128405130Y-129402313D01*
X128319270Y-129473343D01*
X128221255Y-129526339D01*
X128114807Y-129559290D01*
X127984371Y-129573000D01*
X113413678Y-129573000D01*
X113501185Y-129501185D01*
X113580537Y-129404494D01*
X113639502Y-129294180D01*
X113675812Y-129174482D01*
X113688072Y-129050000D01*
X113685000Y-128485750D01*
X113526250Y-128327000D01*
X112327000Y-128327000D01*
X112327000Y-128347000D01*
X112073000Y-128347000D01*
X112073000Y-128327000D01*
X110873750Y-128327000D01*
X110715000Y-128485750D01*
X110711928Y-129050000D01*
X110724188Y-129174482D01*
X110760498Y-129294180D01*
X110819463Y-129404494D01*
X110898815Y-129501185D01*
X110981633Y-129569151D01*
X110889101Y-129560078D01*
X110782430Y-129527873D01*
X110684039Y-129475558D01*
X110597687Y-129405130D01*
X110526657Y-129319270D01*
X110473661Y-129221255D01*
X110440710Y-129114807D01*
X110427000Y-128984371D01*
X110427000Y-127350000D01*
X110711928Y-127350000D01*
X110715000Y-127914250D01*
X110873750Y-128073000D01*
X112073000Y-128073000D01*
X112073000Y-128053000D01*
X112327000Y-128053000D01*
X112327000Y-128073000D01*
X113526250Y-128073000D01*
X113685000Y-127914250D01*
X113688072Y-127350000D01*
X113675812Y-127225518D01*
X113653325Y-127151388D01*
X113696982Y-127151388D01*
X114476176Y-127930583D01*
X114476176Y-128525250D01*
X114488254Y-128647879D01*
X114524023Y-128765795D01*
X114582110Y-128874467D01*
X114660281Y-128969719D01*
X114755533Y-129047890D01*
X114864205Y-129105977D01*
X114982121Y-129141746D01*
X115104750Y-129153824D01*
X116355250Y-129153824D01*
X116477879Y-129141746D01*
X116595795Y-129105977D01*
X116704467Y-129047890D01*
X116799719Y-128969719D01*
X116877890Y-128874467D01*
X116916625Y-128802000D01*
X117043375Y-128802000D01*
X117082110Y-128874467D01*
X117160281Y-128969719D01*
X117255533Y-129047890D01*
X117364205Y-129105977D01*
X117482121Y-129141746D01*
X117604750Y-129153824D01*
X118855250Y-129153824D01*
X118977879Y-129141746D01*
X119095795Y-129105977D01*
X119204467Y-129047890D01*
X119299719Y-128969719D01*
X119377890Y-128874467D01*
X119416625Y-128802000D01*
X119543375Y-128802000D01*
X119582110Y-128874467D01*
X119660281Y-128969719D01*
X119755533Y-129047890D01*
X119864205Y-129105977D01*
X119982121Y-129141746D01*
X120104750Y-129153824D01*
X121355250Y-129153824D01*
X121477879Y-129141746D01*
X121595795Y-129105977D01*
X121704467Y-129047890D01*
X121799719Y-128969719D01*
X121877890Y-128874467D01*
X121916625Y-128802000D01*
X122043375Y-128802000D01*
X122082110Y-128874467D01*
X122160281Y-128969719D01*
X122255533Y-129047890D01*
X122364205Y-129105977D01*
X122482121Y-129141746D01*
X122604750Y-129153824D01*
X123855250Y-129153824D01*
X123977879Y-129141746D01*
X124095795Y-129105977D01*
X124204467Y-129047890D01*
X124299719Y-128969719D01*
X124377890Y-128874467D01*
X124404111Y-128825411D01*
X124507158Y-128928458D01*
X124634419Y-129013491D01*
X124775824Y-129072063D01*
X124925939Y-129101922D01*
X125078995Y-129101922D01*
X125229110Y-129072063D01*
X125370515Y-129013491D01*
X125432859Y-128971834D01*
X125525533Y-129047890D01*
X125634205Y-129105977D01*
X125752121Y-129141746D01*
X125874750Y-129153824D01*
X127125250Y-129153824D01*
X127247879Y-129141746D01*
X127365795Y-129105977D01*
X127474467Y-129047890D01*
X127569719Y-128969719D01*
X127647890Y-128874467D01*
X127705977Y-128765795D01*
X127741746Y-128647879D01*
X127753824Y-128525250D01*
X127753824Y-127899750D01*
X127741746Y-127777121D01*
X127705977Y-127659205D01*
X127647890Y-127550533D01*
X127578824Y-127466376D01*
X127578824Y-127400100D01*
X127566739Y-127277403D01*
X127530950Y-127159421D01*
X127472831Y-127050689D01*
X127394616Y-126955384D01*
X127299311Y-126877169D01*
X127190579Y-126819050D01*
X127072597Y-126783261D01*
X126949900Y-126771176D01*
X126050100Y-126771176D01*
X125927403Y-126783261D01*
X125809421Y-126819050D01*
X125700689Y-126877169D01*
X125605384Y-126955384D01*
X125527169Y-127050689D01*
X125469050Y-127159421D01*
X125433261Y-127277403D01*
X125421176Y-127400100D01*
X125421176Y-127466376D01*
X125352110Y-127550533D01*
X125317889Y-127614555D01*
X125229110Y-127577781D01*
X125078995Y-127547922D01*
X124925939Y-127547922D01*
X124775824Y-127577781D01*
X124634419Y-127636353D01*
X124507158Y-127721386D01*
X124467016Y-127761528D01*
X124435977Y-127659205D01*
X124377890Y-127550533D01*
X124308824Y-127466376D01*
X124308824Y-127400100D01*
X124296739Y-127277403D01*
X124260950Y-127159421D01*
X124202831Y-127050689D01*
X124124616Y-126955384D01*
X124029311Y-126877169D01*
X123920579Y-126819050D01*
X123802597Y-126783261D01*
X123679900Y-126771176D01*
X122780100Y-126771176D01*
X122657403Y-126783261D01*
X122539421Y-126819050D01*
X122430689Y-126877169D01*
X122335384Y-126955384D01*
X122257169Y-127050689D01*
X122199050Y-127159421D01*
X122163261Y-127277403D01*
X122151176Y-127400100D01*
X122151176Y-127466376D01*
X122082110Y-127550533D01*
X122024023Y-127659205D01*
X121988254Y-127777121D01*
X121986198Y-127798000D01*
X121973802Y-127798000D01*
X121971746Y-127777121D01*
X121935977Y-127659205D01*
X121877890Y-127550533D01*
X121808824Y-127466376D01*
X121808824Y-127400100D01*
X121796739Y-127277403D01*
X121760950Y-127159421D01*
X121702831Y-127050689D01*
X121624616Y-126955384D01*
X121529311Y-126877169D01*
X121420579Y-126819050D01*
X121302597Y-126783261D01*
X121179900Y-126771176D01*
X120280100Y-126771176D01*
X120157403Y-126783261D01*
X120039421Y-126819050D01*
X119930689Y-126877169D01*
X119835384Y-126955384D01*
X119757169Y-127050689D01*
X119699050Y-127159421D01*
X119663261Y-127277403D01*
X119651176Y-127400100D01*
X119651176Y-127466376D01*
X119582110Y-127550533D01*
X119524023Y-127659205D01*
X119488254Y-127777121D01*
X119486198Y-127798000D01*
X119473802Y-127798000D01*
X119471746Y-127777121D01*
X119435977Y-127659205D01*
X119377890Y-127550533D01*
X119308824Y-127466376D01*
X119308824Y-127400100D01*
X119296739Y-127277403D01*
X119260950Y-127159421D01*
X119202831Y-127050689D01*
X119124616Y-126955384D01*
X119029311Y-126877169D01*
X118920579Y-126819050D01*
X118802597Y-126783261D01*
X118679900Y-126771176D01*
X117780100Y-126771176D01*
X117657403Y-126783261D01*
X117539421Y-126819050D01*
X117430689Y-126877169D01*
X117335384Y-126955384D01*
X117257169Y-127050689D01*
X117199050Y-127159421D01*
X117163261Y-127277403D01*
X117151176Y-127400100D01*
X117151176Y-127466376D01*
X117082110Y-127550533D01*
X117024023Y-127659205D01*
X116988254Y-127777121D01*
X116986198Y-127798000D01*
X116973802Y-127798000D01*
X116971746Y-127777121D01*
X116935977Y-127659205D01*
X116877890Y-127550533D01*
X116808824Y-127466376D01*
X116808824Y-127400100D01*
X116796739Y-127277403D01*
X116760950Y-127159421D01*
X116702831Y-127050689D01*
X116624616Y-126955384D01*
X116529311Y-126877169D01*
X116420579Y-126819050D01*
X116302597Y-126783261D01*
X116179900Y-126771176D01*
X115280100Y-126771176D01*
X115157403Y-126783261D01*
X115039421Y-126819050D01*
X114930689Y-126877169D01*
X114882324Y-126916861D01*
X114406916Y-126441454D01*
X114406916Y-126297860D01*
X114377057Y-126147745D01*
X114318485Y-126006340D01*
X114233452Y-125879079D01*
X114125225Y-125770852D01*
X113997964Y-125685819D01*
X113856559Y-125627247D01*
X113706444Y-125597388D01*
X113553388Y-125597388D01*
X113427000Y-125622528D01*
X113427000Y-125539151D01*
X113379847Y-125302097D01*
X113287353Y-125078798D01*
X113153073Y-124877833D01*
X112982167Y-124706927D01*
X112781202Y-124572647D01*
X112557903Y-124480153D01*
X112320849Y-124433000D01*
X112079151Y-124433000D01*
X111842097Y-124480153D01*
X111618798Y-124572647D01*
X111417833Y-124706927D01*
X111246927Y-124877833D01*
X111112647Y-125078798D01*
X111020153Y-125302097D01*
X110973000Y-125539151D01*
X110973000Y-125780849D01*
X111020153Y-126017903D01*
X111112647Y-126241202D01*
X111246927Y-126442167D01*
X111417833Y-126613073D01*
X111567553Y-126713112D01*
X111350000Y-126711928D01*
X111225518Y-126724188D01*
X111105820Y-126760498D01*
X110995506Y-126819463D01*
X110898815Y-126898815D01*
X110819463Y-126995506D01*
X110760498Y-127105820D01*
X110724188Y-127225518D01*
X110711928Y-127350000D01*
X110427000Y-127350000D01*
X110427000Y-123750000D01*
X111666928Y-123750000D01*
X111679188Y-123874482D01*
X111715498Y-123994180D01*
X111774463Y-124104494D01*
X111853815Y-124201185D01*
X111950506Y-124280537D01*
X112060820Y-124339502D01*
X112180518Y-124375812D01*
X112305000Y-124388072D01*
X112869250Y-124385000D01*
X113028000Y-124226250D01*
X113028000Y-123027000D01*
X111828750Y-123027000D01*
X111670000Y-123185750D01*
X111666928Y-123750000D01*
X110427000Y-123750000D01*
X110427000Y-121629053D01*
X110493320Y-121664502D01*
X110613018Y-121700812D01*
X110737500Y-121713072D01*
X111014250Y-121710000D01*
X111173000Y-121551250D01*
X111173000Y-121513673D01*
X111213018Y-121525812D01*
X111337500Y-121538072D01*
X111427000Y-121536859D01*
X111427000Y-121551250D01*
X111585750Y-121710000D01*
X111765648Y-121711997D01*
X111715498Y-121805820D01*
X111679188Y-121925518D01*
X111666928Y-122050000D01*
X111670000Y-122614250D01*
X111828750Y-122773000D01*
X113028000Y-122773000D01*
X113028000Y-121573750D01*
X112869250Y-121415000D01*
X112736805Y-121414279D01*
X112813685Y-121351185D01*
X112893037Y-121254494D01*
X112952002Y-121144180D01*
X112967266Y-121093863D01*
X112967884Y-121094616D01*
X113063189Y-121172831D01*
X113171921Y-121230950D01*
X113289903Y-121266739D01*
X113412600Y-121278824D01*
X113478876Y-121278824D01*
X113563033Y-121347890D01*
X113671705Y-121405977D01*
X113696854Y-121413606D01*
X113440750Y-121415000D01*
X113282000Y-121573750D01*
X113282000Y-122773000D01*
X113302000Y-122773000D01*
X113302000Y-123027000D01*
X113282000Y-123027000D01*
X113282000Y-124226250D01*
X113440750Y-124385000D01*
X114005000Y-124388072D01*
X114129482Y-124375812D01*
X114249180Y-124339502D01*
X114359494Y-124280537D01*
X114456185Y-124201185D01*
X114535537Y-124104494D01*
X114594502Y-123994180D01*
X114630812Y-123874482D01*
X114643072Y-123750000D01*
X114641888Y-123532447D01*
X114741927Y-123682167D01*
X114912833Y-123853073D01*
X115113798Y-123987353D01*
X115193000Y-124020160D01*
X115193001Y-124346176D01*
X115104750Y-124346176D01*
X114982121Y-124358254D01*
X114864205Y-124394023D01*
X114755533Y-124452110D01*
X114660281Y-124530281D01*
X114582110Y-124625533D01*
X114524023Y-124734205D01*
X114488254Y-124852121D01*
X114476176Y-124974750D01*
X114476176Y-125600250D01*
X114488254Y-125722879D01*
X114524023Y-125840795D01*
X114582110Y-125949467D01*
X114651176Y-126033624D01*
X114651176Y-126099900D01*
X114663261Y-126222597D01*
X114699050Y-126340579D01*
X114757169Y-126449311D01*
X114835384Y-126544616D01*
X114930689Y-126622831D01*
X115039421Y-126680950D01*
X115157403Y-126716739D01*
X115280100Y-126728824D01*
X116179900Y-126728824D01*
X116302597Y-126716739D01*
X116420579Y-126680950D01*
X116529311Y-126622831D01*
X116624616Y-126544616D01*
X116702831Y-126449311D01*
X116760950Y-126340579D01*
X116796739Y-126222597D01*
X116808824Y-126099900D01*
X116808824Y-126033624D01*
X116877890Y-125949467D01*
X116935977Y-125840795D01*
X116971746Y-125722879D01*
X116980000Y-125639075D01*
X116988254Y-125722879D01*
X117024023Y-125840795D01*
X117082110Y-125949467D01*
X117151176Y-126033624D01*
X117151176Y-126099900D01*
X117163261Y-126222597D01*
X117199050Y-126340579D01*
X117257169Y-126449311D01*
X117335384Y-126544616D01*
X117430689Y-126622831D01*
X117539421Y-126680950D01*
X117657403Y-126716739D01*
X117780100Y-126728824D01*
X118679900Y-126728824D01*
X118802597Y-126716739D01*
X118920579Y-126680950D01*
X119029311Y-126622831D01*
X119124616Y-126544616D01*
X119202831Y-126449311D01*
X119260950Y-126340579D01*
X119296739Y-126222597D01*
X119308824Y-126099900D01*
X119308824Y-126033624D01*
X119377890Y-125949467D01*
X119435977Y-125840795D01*
X119471746Y-125722879D01*
X119480000Y-125639075D01*
X119488254Y-125722879D01*
X119524023Y-125840795D01*
X119582110Y-125949467D01*
X119651176Y-126033624D01*
X119651176Y-126099900D01*
X119663261Y-126222597D01*
X119699050Y-126340579D01*
X119757169Y-126449311D01*
X119835384Y-126544616D01*
X119930689Y-126622831D01*
X120039421Y-126680950D01*
X120157403Y-126716739D01*
X120280100Y-126728824D01*
X121179900Y-126728824D01*
X121302597Y-126716739D01*
X121420579Y-126680950D01*
X121529311Y-126622831D01*
X121624616Y-126544616D01*
X121702831Y-126449311D01*
X121760950Y-126340579D01*
X121796739Y-126222597D01*
X121808824Y-126099900D01*
X121808824Y-126033624D01*
X121877890Y-125949467D01*
X121935977Y-125840795D01*
X121971746Y-125722879D01*
X121980000Y-125639075D01*
X121988254Y-125722879D01*
X122024023Y-125840795D01*
X122082110Y-125949467D01*
X122151176Y-126033624D01*
X122151176Y-126099900D01*
X122163261Y-126222597D01*
X122199050Y-126340579D01*
X122257169Y-126449311D01*
X122335384Y-126544616D01*
X122430689Y-126622831D01*
X122539421Y-126680950D01*
X122657403Y-126716739D01*
X122780100Y-126728824D01*
X123679900Y-126728824D01*
X123802597Y-126716739D01*
X123920579Y-126680950D01*
X124029311Y-126622831D01*
X124124616Y-126544616D01*
X124202831Y-126449311D01*
X124260950Y-126340579D01*
X124296739Y-126222597D01*
X124308824Y-126099900D01*
X124308824Y-126033624D01*
X124377890Y-125949467D01*
X124435977Y-125840795D01*
X124471746Y-125722879D01*
X124483824Y-125600250D01*
X124483824Y-124974750D01*
X124471746Y-124852121D01*
X124435977Y-124734205D01*
X124377890Y-124625533D01*
X124299719Y-124530281D01*
X124204467Y-124452110D01*
X124095795Y-124394023D01*
X123977879Y-124358254D01*
X123855250Y-124346176D01*
X123817000Y-124346176D01*
X123817000Y-124020160D01*
X123896202Y-123987353D01*
X124097167Y-123853073D01*
X124268073Y-123682167D01*
X124402353Y-123481202D01*
X124494847Y-123257903D01*
X124542000Y-123020849D01*
X124542000Y-122779151D01*
X124494847Y-122542097D01*
X124402353Y-122318798D01*
X124268073Y-122117833D01*
X124097167Y-121946927D01*
X123896202Y-121812647D01*
X123672903Y-121720153D01*
X123619457Y-121709522D01*
X122857649Y-120947715D01*
X122865987Y-120937555D01*
X123996176Y-119807367D01*
X123996176Y-120825250D01*
X124008254Y-120947879D01*
X124044023Y-121065795D01*
X124102110Y-121174467D01*
X124180281Y-121269719D01*
X124275533Y-121347890D01*
X124348001Y-121386625D01*
X124348001Y-121575337D01*
X124348000Y-121575347D01*
X124348000Y-121870357D01*
X124345573Y-121895000D01*
X124348000Y-121919643D01*
X124348000Y-121919652D01*
X124355264Y-121993408D01*
X124383969Y-122088035D01*
X124430583Y-122175245D01*
X124493316Y-122251684D01*
X124512467Y-122267401D01*
X124707960Y-122462894D01*
X124675153Y-122542097D01*
X124628000Y-122779151D01*
X124628000Y-123020849D01*
X124675153Y-123257903D01*
X124767647Y-123481202D01*
X124901927Y-123682167D01*
X125072833Y-123853073D01*
X125273798Y-123987353D01*
X125353001Y-124020160D01*
X125353001Y-124530347D01*
X125350573Y-124555000D01*
X125356940Y-124619648D01*
X125352110Y-124625533D01*
X125294023Y-124734205D01*
X125258254Y-124852121D01*
X125246176Y-124974750D01*
X125246176Y-125600250D01*
X125258254Y-125722879D01*
X125294023Y-125840795D01*
X125352110Y-125949467D01*
X125421176Y-126033624D01*
X125421176Y-126099900D01*
X125433261Y-126222597D01*
X125469050Y-126340579D01*
X125527169Y-126449311D01*
X125605384Y-126544616D01*
X125700689Y-126622831D01*
X125809421Y-126680950D01*
X125927403Y-126716739D01*
X126050100Y-126728824D01*
X126949900Y-126728824D01*
X127072597Y-126716739D01*
X127190579Y-126680950D01*
X127299311Y-126622831D01*
X127394616Y-126544616D01*
X127472831Y-126449311D01*
X127530950Y-126340579D01*
X127566739Y-126222597D01*
X127578824Y-126099900D01*
X127578824Y-126033624D01*
X127647890Y-125949467D01*
X127705977Y-125840795D01*
X127741746Y-125722879D01*
X127753824Y-125600250D01*
X127753824Y-124974750D01*
X127741746Y-124852121D01*
X127705977Y-124734205D01*
X127647890Y-124625533D01*
X127569719Y-124530281D01*
X127474467Y-124452110D01*
X127365795Y-124394023D01*
X127247879Y-124358254D01*
X127125250Y-124346176D01*
X126357000Y-124346176D01*
X126357000Y-124020160D01*
X126436202Y-123987353D01*
X126637167Y-123853073D01*
X126808073Y-123682167D01*
X126942353Y-123481202D01*
X127034847Y-123257903D01*
X127082000Y-123020849D01*
X127082000Y-122779151D01*
X127034847Y-122542097D01*
X126942353Y-122318798D01*
X126808073Y-122117833D01*
X126637167Y-121946927D01*
X126436202Y-121812647D01*
X126212903Y-121720153D01*
X125975849Y-121673000D01*
X125734151Y-121673000D01*
X125497097Y-121720153D01*
X125417894Y-121752960D01*
X125352000Y-121687066D01*
X125352000Y-121443802D01*
X125372879Y-121441746D01*
X125490795Y-121405977D01*
X125599467Y-121347890D01*
X125683624Y-121278824D01*
X125749900Y-121278824D01*
X125872597Y-121266739D01*
X125990579Y-121230950D01*
X126099311Y-121172831D01*
X126194616Y-121094616D01*
X126272831Y-120999311D01*
X126330950Y-120890579D01*
X126366739Y-120772597D01*
X126378824Y-120649900D01*
X126378824Y-119750100D01*
X126366739Y-119627403D01*
X126330950Y-119509421D01*
X126272831Y-119400689D01*
X126194616Y-119305384D01*
X126099311Y-119227169D01*
X125990579Y-119169050D01*
X125872597Y-119133261D01*
X125749900Y-119121176D01*
X125683624Y-119121176D01*
X125599467Y-119052110D01*
X125490795Y-118994023D01*
X125372879Y-118958254D01*
X125250250Y-118946176D01*
X125236763Y-118946176D01*
X125275199Y-118907740D01*
X125294345Y-118892027D01*
X125357078Y-118815588D01*
X125403692Y-118728379D01*
X125432397Y-118633752D01*
X125439661Y-118559996D01*
X125439661Y-118559987D01*
X125442088Y-118535344D01*
X125439661Y-118510701D01*
X125439661Y-117789303D01*
X125442088Y-117764660D01*
X125439661Y-117740015D01*
X125439661Y-117740006D01*
X125434618Y-117688797D01*
X125540852Y-117667666D01*
X125682257Y-117609094D01*
X125809518Y-117524061D01*
X125917745Y-117415834D01*
X126002778Y-117288573D01*
X126061350Y-117147168D01*
X126091209Y-116997053D01*
X126091209Y-116853986D01*
X126144629Y-116864612D01*
X126297685Y-116864612D01*
X126447800Y-116834753D01*
X126589205Y-116776181D01*
X126716466Y-116691148D01*
X126818713Y-116588901D01*
X126885251Y-116582348D01*
X126979878Y-116553643D01*
X127067087Y-116507029D01*
X127143526Y-116444296D01*
X127159244Y-116425144D01*
X127439353Y-116145035D01*
X127458505Y-116129317D01*
X127500844Y-116077728D01*
X127521238Y-116052879D01*
X127567852Y-115965670D01*
X127596557Y-115871043D01*
X127597612Y-115860328D01*
X127603821Y-115797286D01*
X127603821Y-115797279D01*
X127606248Y-115772633D01*
X127603821Y-115747988D01*
X127603821Y-114677613D01*
X127606248Y-114652970D01*
X127603821Y-114628327D01*
X127603821Y-114628318D01*
X127596557Y-114554562D01*
X127567852Y-114459935D01*
X127521238Y-114372726D01*
X127499813Y-114346620D01*
X127474220Y-114315435D01*
X127474218Y-114315433D01*
X127458505Y-114296287D01*
X127439359Y-114280574D01*
X126996239Y-113837455D01*
X126980524Y-113818306D01*
X126904085Y-113755573D01*
X126816876Y-113708959D01*
X126722249Y-113680254D01*
X126648493Y-113672990D01*
X126648483Y-113672990D01*
X126623840Y-113670563D01*
X126599197Y-113672990D01*
X125582305Y-113672990D01*
X125673307Y-113598307D01*
X125749955Y-113504911D01*
X125806909Y-113398357D01*
X125841982Y-113282739D01*
X125853824Y-113162500D01*
X125853824Y-112562500D01*
X125841982Y-112442261D01*
X125806909Y-112326643D01*
X125761580Y-112241838D01*
X125829494Y-112205537D01*
X125926185Y-112126185D01*
X126005537Y-112029494D01*
X126064502Y-111919180D01*
X126100812Y-111799482D01*
X126113072Y-111675000D01*
X126110000Y-111423250D01*
X125951250Y-111264500D01*
X125127000Y-111264500D01*
X125127000Y-111284500D01*
X124873000Y-111284500D01*
X124873000Y-111264500D01*
X124048750Y-111264500D01*
X124011592Y-111301658D01*
X123872399Y-111162465D01*
X123856684Y-111143316D01*
X123780245Y-111080583D01*
X123693036Y-111033969D01*
X123598409Y-111005264D01*
X123524653Y-110998000D01*
X123524643Y-110998000D01*
X123500000Y-110995573D01*
X123475357Y-110998000D01*
X123351976Y-110998000D01*
X123351976Y-110274666D01*
X123354403Y-110250023D01*
X123351976Y-110225380D01*
X123351976Y-110225371D01*
X123344712Y-110151615D01*
X123316007Y-110056988D01*
X123269393Y-109969779D01*
X123251519Y-109948000D01*
X123222375Y-109912488D01*
X123222373Y-109912486D01*
X123206660Y-109893340D01*
X123187514Y-109877627D01*
X122503947Y-109194061D01*
X122488230Y-109174910D01*
X122411791Y-109112177D01*
X122324582Y-109065563D01*
X122229955Y-109036858D01*
X122156199Y-109029594D01*
X122156189Y-109029594D01*
X122131546Y-109027167D01*
X122106903Y-109029594D01*
X121056236Y-109029594D01*
X121054392Y-109029412D01*
X121173942Y-108965512D01*
X121306623Y-108856623D01*
X121415512Y-108723942D01*
X121422488Y-108710890D01*
X121470089Y-108749955D01*
X121576643Y-108806909D01*
X121692261Y-108841982D01*
X121812500Y-108853824D01*
X122412500Y-108853824D01*
X122532739Y-108841982D01*
X122648357Y-108806909D01*
X122741176Y-108757296D01*
X122741176Y-108775000D01*
X122748455Y-108848905D01*
X122770012Y-108919970D01*
X122805019Y-108985463D01*
X122852131Y-109042869D01*
X122909537Y-109089981D01*
X122975030Y-109124988D01*
X123046095Y-109146545D01*
X123120000Y-109153824D01*
X123439161Y-109153824D01*
X123480584Y-109231321D01*
X123527601Y-109288611D01*
X123527604Y-109288614D01*
X123543317Y-109307760D01*
X123562462Y-109323472D01*
X123622990Y-109384000D01*
X123622990Y-109527594D01*
X123652849Y-109677709D01*
X123711421Y-109819114D01*
X123796454Y-109946375D01*
X123904681Y-110054602D01*
X124031942Y-110139635D01*
X124068815Y-110154908D01*
X123994463Y-110245506D01*
X123935498Y-110355820D01*
X123899188Y-110475518D01*
X123886928Y-110600000D01*
X123890000Y-110851750D01*
X124048750Y-111010500D01*
X124873000Y-111010500D01*
X124873000Y-110123750D01*
X125127000Y-110123750D01*
X125127000Y-111010500D01*
X125951250Y-111010500D01*
X126110000Y-110851750D01*
X126113072Y-110600000D01*
X126100812Y-110475518D01*
X126064502Y-110355820D01*
X126005537Y-110245506D01*
X125926185Y-110148815D01*
X125829494Y-110069463D01*
X125719180Y-110010498D01*
X125599482Y-109974188D01*
X125475000Y-109961928D01*
X125285750Y-109965000D01*
X125127000Y-110123750D01*
X124873000Y-110123750D01*
X124840481Y-110091231D01*
X124895299Y-110054602D01*
X125003526Y-109946375D01*
X125088559Y-109819114D01*
X125147131Y-109677709D01*
X125176990Y-109527594D01*
X125176990Y-109374538D01*
X125147131Y-109224423D01*
X125127000Y-109175823D01*
X125127000Y-108388072D01*
X125373000Y-108388072D01*
X125373000Y-109226250D01*
G37*
%TD.AperFunction*%
D39*
X114996272Y-119094391D02*
X115070028Y-119101655D01*
X115070037Y-119101655D01*
X115094091Y-119104024D01*
X116226911Y-120236845D01*
X116242625Y-120255992D01*
X116319064Y-120318725D01*
X116406273Y-120365339D01*
X116500900Y-120394044D01*
X116574656Y-120401308D01*
X116574666Y-120401308D01*
X116599309Y-120403735D01*
X116623952Y-120401308D01*
X116774637Y-120401308D01*
X116774657Y-120401310D01*
X116774667Y-120401310D01*
X116799310Y-120403737D01*
X116823953Y-120401310D01*
X117249552Y-120401310D01*
X118256691Y-121408450D01*
X118272404Y-121427596D01*
X118291550Y-121443309D01*
X118291552Y-121443311D01*
X118329740Y-121474651D01*
X118348843Y-121490329D01*
X118436052Y-121536943D01*
X118530679Y-121565648D01*
X118604435Y-121572912D01*
X118604444Y-121572912D01*
X118629087Y-121575339D01*
X118653730Y-121572912D01*
X122062978Y-121572912D01*
X122484913Y-121994847D01*
X122361927Y-122117833D01*
X122227647Y-122318798D01*
X122135153Y-122542097D01*
X122088000Y-122779151D01*
X122088000Y-123020849D01*
X122135153Y-123257903D01*
X122227647Y-123481202D01*
X122361927Y-123682167D01*
X122532833Y-123853073D01*
X122733798Y-123987353D01*
X122813001Y-124020160D01*
X122813001Y-124346176D01*
X122604750Y-124346176D01*
X122482121Y-124358254D01*
X122364205Y-124394023D01*
X122255533Y-124452110D01*
X122160281Y-124530281D01*
X122082110Y-124625533D01*
X122024023Y-124734205D01*
X121988254Y-124852121D01*
X121980000Y-124935925D01*
X121971746Y-124852121D01*
X121935977Y-124734205D01*
X121877890Y-124625533D01*
X121799719Y-124530281D01*
X121704467Y-124452110D01*
X121595795Y-124394023D01*
X121477879Y-124358254D01*
X121355250Y-124346176D01*
X121277000Y-124346176D01*
X121277000Y-124020160D01*
X121356202Y-123987353D01*
X121557167Y-123853073D01*
X121728073Y-123682167D01*
X121862353Y-123481202D01*
X121954847Y-123257903D01*
X122002000Y-123020849D01*
X122002000Y-122779151D01*
X121954847Y-122542097D01*
X121862353Y-122318798D01*
X121728073Y-122117833D01*
X121557167Y-121946927D01*
X121356202Y-121812647D01*
X121132903Y-121720153D01*
X120895849Y-121673000D01*
X120654151Y-121673000D01*
X120417097Y-121720153D01*
X120193798Y-121812647D01*
X119992833Y-121946927D01*
X119821927Y-122117833D01*
X119687647Y-122318798D01*
X119595153Y-122542097D01*
X119548000Y-122779151D01*
X119548000Y-123020849D01*
X119595153Y-123257903D01*
X119687647Y-123481202D01*
X119821927Y-123682167D01*
X119992833Y-123853073D01*
X120193798Y-123987353D01*
X120273000Y-124020160D01*
X120273001Y-124346176D01*
X120104750Y-124346176D01*
X119982121Y-124358254D01*
X119864205Y-124394023D01*
X119755533Y-124452110D01*
X119660281Y-124530281D01*
X119582110Y-124625533D01*
X119524023Y-124734205D01*
X119488254Y-124852121D01*
X119480000Y-124935925D01*
X119471746Y-124852121D01*
X119435977Y-124734205D01*
X119377890Y-124625533D01*
X119299719Y-124530281D01*
X119204467Y-124452110D01*
X119095795Y-124394023D01*
X118977879Y-124358254D01*
X118855250Y-124346176D01*
X118737000Y-124346176D01*
X118737000Y-124020160D01*
X118816202Y-123987353D01*
X119017167Y-123853073D01*
X119188073Y-123682167D01*
X119322353Y-123481202D01*
X119414847Y-123257903D01*
X119462000Y-123020849D01*
X119462000Y-122779151D01*
X119414847Y-122542097D01*
X119322353Y-122318798D01*
X119188073Y-122117833D01*
X119017167Y-121946927D01*
X118816202Y-121812647D01*
X118592903Y-121720153D01*
X118355849Y-121673000D01*
X118114151Y-121673000D01*
X117877097Y-121720153D01*
X117653798Y-121812647D01*
X117452833Y-121946927D01*
X117281927Y-122117833D01*
X117147647Y-122318798D01*
X117055153Y-122542097D01*
X117008000Y-122779151D01*
X117008000Y-123020849D01*
X117055153Y-123257903D01*
X117147647Y-123481202D01*
X117281927Y-123682167D01*
X117452833Y-123853073D01*
X117653798Y-123987353D01*
X117733000Y-124020160D01*
X117733001Y-124346176D01*
X117604750Y-124346176D01*
X117482121Y-124358254D01*
X117364205Y-124394023D01*
X117255533Y-124452110D01*
X117160281Y-124530281D01*
X117082110Y-124625533D01*
X117024023Y-124734205D01*
X116988254Y-124852121D01*
X116980000Y-124935925D01*
X116971746Y-124852121D01*
X116935977Y-124734205D01*
X116877890Y-124625533D01*
X116799719Y-124530281D01*
X116704467Y-124452110D01*
X116595795Y-124394023D01*
X116477879Y-124358254D01*
X116355250Y-124346176D01*
X116197000Y-124346176D01*
X116197000Y-124020160D01*
X116276202Y-123987353D01*
X116477167Y-123853073D01*
X116648073Y-123682167D01*
X116782353Y-123481202D01*
X116874847Y-123257903D01*
X116922000Y-123020849D01*
X116922000Y-122779151D01*
X116874847Y-122542097D01*
X116782353Y-122318798D01*
X116648073Y-122117833D01*
X116477167Y-121946927D01*
X116276202Y-121812647D01*
X116052903Y-121720153D01*
X115815849Y-121673000D01*
X115574151Y-121673000D01*
X115337097Y-121720153D01*
X115257895Y-121752960D01*
X114864717Y-121359783D01*
X114886967Y-121347890D01*
X114982219Y-121269719D01*
X115060390Y-121174467D01*
X115118477Y-121065795D01*
X115154246Y-120947879D01*
X115166324Y-120825250D01*
X115166324Y-119574750D01*
X115154246Y-119452121D01*
X115118477Y-119334205D01*
X115060390Y-119225533D01*
X114982219Y-119130281D01*
X114904603Y-119066583D01*
X114996272Y-119094391D01*
%TA.AperFunction,Conductor*%
D40*
G36*
X114996272Y-119094391D02*
G01*
X115070028Y-119101655D01*
X115070037Y-119101655D01*
X115094091Y-119104024D01*
X116226911Y-120236845D01*
X116242625Y-120255992D01*
X116319064Y-120318725D01*
X116406273Y-120365339D01*
X116500900Y-120394044D01*
X116574656Y-120401308D01*
X116574666Y-120401308D01*
X116599309Y-120403735D01*
X116623952Y-120401308D01*
X116774637Y-120401308D01*
X116774657Y-120401310D01*
X116774667Y-120401310D01*
X116799310Y-120403737D01*
X116823953Y-120401310D01*
X117249552Y-120401310D01*
X118256691Y-121408450D01*
X118272404Y-121427596D01*
X118291550Y-121443309D01*
X118291552Y-121443311D01*
X118329740Y-121474651D01*
X118348843Y-121490329D01*
X118436052Y-121536943D01*
X118530679Y-121565648D01*
X118604435Y-121572912D01*
X118604444Y-121572912D01*
X118629087Y-121575339D01*
X118653730Y-121572912D01*
X122062978Y-121572912D01*
X122484913Y-121994847D01*
X122361927Y-122117833D01*
X122227647Y-122318798D01*
X122135153Y-122542097D01*
X122088000Y-122779151D01*
X122088000Y-123020849D01*
X122135153Y-123257903D01*
X122227647Y-123481202D01*
X122361927Y-123682167D01*
X122532833Y-123853073D01*
X122733798Y-123987353D01*
X122813001Y-124020160D01*
X122813001Y-124346176D01*
X122604750Y-124346176D01*
X122482121Y-124358254D01*
X122364205Y-124394023D01*
X122255533Y-124452110D01*
X122160281Y-124530281D01*
X122082110Y-124625533D01*
X122024023Y-124734205D01*
X121988254Y-124852121D01*
X121980000Y-124935925D01*
X121971746Y-124852121D01*
X121935977Y-124734205D01*
X121877890Y-124625533D01*
X121799719Y-124530281D01*
X121704467Y-124452110D01*
X121595795Y-124394023D01*
X121477879Y-124358254D01*
X121355250Y-124346176D01*
X121277000Y-124346176D01*
X121277000Y-124020160D01*
X121356202Y-123987353D01*
X121557167Y-123853073D01*
X121728073Y-123682167D01*
X121862353Y-123481202D01*
X121954847Y-123257903D01*
X122002000Y-123020849D01*
X122002000Y-122779151D01*
X121954847Y-122542097D01*
X121862353Y-122318798D01*
X121728073Y-122117833D01*
X121557167Y-121946927D01*
X121356202Y-121812647D01*
X121132903Y-121720153D01*
X120895849Y-121673000D01*
X120654151Y-121673000D01*
X120417097Y-121720153D01*
X120193798Y-121812647D01*
X119992833Y-121946927D01*
X119821927Y-122117833D01*
X119687647Y-122318798D01*
X119595153Y-122542097D01*
X119548000Y-122779151D01*
X119548000Y-123020849D01*
X119595153Y-123257903D01*
X119687647Y-123481202D01*
X119821927Y-123682167D01*
X119992833Y-123853073D01*
X120193798Y-123987353D01*
X120273000Y-124020160D01*
X120273001Y-124346176D01*
X120104750Y-124346176D01*
X119982121Y-124358254D01*
X119864205Y-124394023D01*
X119755533Y-124452110D01*
X119660281Y-124530281D01*
X119582110Y-124625533D01*
X119524023Y-124734205D01*
X119488254Y-124852121D01*
X119480000Y-124935925D01*
X119471746Y-124852121D01*
X119435977Y-124734205D01*
X119377890Y-124625533D01*
X119299719Y-124530281D01*
X119204467Y-124452110D01*
X119095795Y-124394023D01*
X118977879Y-124358254D01*
X118855250Y-124346176D01*
X118737000Y-124346176D01*
X118737000Y-124020160D01*
X118816202Y-123987353D01*
X119017167Y-123853073D01*
X119188073Y-123682167D01*
X119322353Y-123481202D01*
X119414847Y-123257903D01*
X119462000Y-123020849D01*
X119462000Y-122779151D01*
X119414847Y-122542097D01*
X119322353Y-122318798D01*
X119188073Y-122117833D01*
X119017167Y-121946927D01*
X118816202Y-121812647D01*
X118592903Y-121720153D01*
X118355849Y-121673000D01*
X118114151Y-121673000D01*
X117877097Y-121720153D01*
X117653798Y-121812647D01*
X117452833Y-121946927D01*
X117281927Y-122117833D01*
X117147647Y-122318798D01*
X117055153Y-122542097D01*
X117008000Y-122779151D01*
X117008000Y-123020849D01*
X117055153Y-123257903D01*
X117147647Y-123481202D01*
X117281927Y-123682167D01*
X117452833Y-123853073D01*
X117653798Y-123987353D01*
X117733000Y-124020160D01*
X117733001Y-124346176D01*
X117604750Y-124346176D01*
X117482121Y-124358254D01*
X117364205Y-124394023D01*
X117255533Y-124452110D01*
X117160281Y-124530281D01*
X117082110Y-124625533D01*
X117024023Y-124734205D01*
X116988254Y-124852121D01*
X116980000Y-124935925D01*
X116971746Y-124852121D01*
X116935977Y-124734205D01*
X116877890Y-124625533D01*
X116799719Y-124530281D01*
X116704467Y-124452110D01*
X116595795Y-124394023D01*
X116477879Y-124358254D01*
X116355250Y-124346176D01*
X116197000Y-124346176D01*
X116197000Y-124020160D01*
X116276202Y-123987353D01*
X116477167Y-123853073D01*
X116648073Y-123682167D01*
X116782353Y-123481202D01*
X116874847Y-123257903D01*
X116922000Y-123020849D01*
X116922000Y-122779151D01*
X116874847Y-122542097D01*
X116782353Y-122318798D01*
X116648073Y-122117833D01*
X116477167Y-121946927D01*
X116276202Y-121812647D01*
X116052903Y-121720153D01*
X115815849Y-121673000D01*
X115574151Y-121673000D01*
X115337097Y-121720153D01*
X115257895Y-121752960D01*
X114864717Y-121359783D01*
X114886967Y-121347890D01*
X114982219Y-121269719D01*
X115060390Y-121174467D01*
X115118477Y-121065795D01*
X115154246Y-120947879D01*
X115166324Y-120825250D01*
X115166324Y-119574750D01*
X115154246Y-119452121D01*
X115118477Y-119334205D01*
X115060390Y-119225533D01*
X114982219Y-119130281D01*
X114904603Y-119066583D01*
X114996272Y-119094391D01*
G37*
%TD.AperFunction*%
D39*
X111997000Y-120327000D02*
X111153000Y-120327000D01*
X111153000Y-120073000D01*
X111997000Y-120073000D01*
X111997000Y-120327000D01*
%TA.AperFunction,Conductor*%
D40*
G36*
X111997000Y-120327000D02*
G01*
X111153000Y-120327000D01*
X111153000Y-120073000D01*
X111997000Y-120073000D01*
X111997000Y-120327000D01*
G37*
%TD.AperFunction*%
D39*
X111983320Y-115639570D02*
X111904143Y-115718748D01*
X111890000Y-115704605D01*
X111041208Y-116553397D01*
X111118843Y-116802472D01*
X111382883Y-116928371D01*
X111666411Y-117000339D01*
X111958531Y-117015611D01*
X111976052Y-117013068D01*
X112021633Y-117123111D01*
X112106666Y-117250372D01*
X112214893Y-117358599D01*
X112342154Y-117443632D01*
X112483559Y-117502204D01*
X112633674Y-117532063D01*
X112786730Y-117532063D01*
X112936845Y-117502204D01*
X113038623Y-117460046D01*
X113052859Y-117531617D01*
X113111431Y-117673022D01*
X113196464Y-117800283D01*
X113304691Y-117908510D01*
X113431952Y-117993543D01*
X113573357Y-118052115D01*
X113723472Y-118081974D01*
X113867066Y-118081974D01*
X114722284Y-118937193D01*
X114737997Y-118956339D01*
X114757143Y-118972052D01*
X114757145Y-118972054D01*
X114772850Y-118984943D01*
X114794410Y-119002637D01*
X114778295Y-118994023D01*
X114660379Y-118958254D01*
X114537750Y-118946176D01*
X113912250Y-118946176D01*
X113789621Y-118958254D01*
X113671705Y-118994023D01*
X113563033Y-119052110D01*
X113478876Y-119121176D01*
X113412600Y-119121176D01*
X113289903Y-119133261D01*
X113171921Y-119169050D01*
X113063189Y-119227169D01*
X112967884Y-119305384D01*
X112967266Y-119306137D01*
X112952002Y-119255820D01*
X112893037Y-119145506D01*
X112813685Y-119048815D01*
X112716994Y-118969463D01*
X112606680Y-118910498D01*
X112486982Y-118874188D01*
X112362500Y-118861928D01*
X112300229Y-118862772D01*
X112216994Y-118794463D01*
X112106680Y-118735498D01*
X111986982Y-118699188D01*
X111862500Y-118686928D01*
X111585750Y-118690000D01*
X111427000Y-118848750D01*
X111427000Y-118863141D01*
X111337500Y-118861928D01*
X111213018Y-118874188D01*
X111173000Y-118886327D01*
X111173000Y-118848750D01*
X111014250Y-118690000D01*
X110737500Y-118686928D01*
X110613018Y-118699188D01*
X110493320Y-118735498D01*
X110427000Y-118770947D01*
X110427000Y-115783787D01*
X110441401Y-115883019D01*
X110539081Y-116158747D01*
X110612528Y-116296157D01*
X110861603Y-116373792D01*
X111574480Y-115660915D01*
X111623335Y-115678540D01*
X111721250Y-115695000D01*
X111880000Y-115536250D01*
X111983320Y-115639570D01*
%TA.AperFunction,Conductor*%
D40*
G36*
X111983320Y-115639570D02*
G01*
X111904143Y-115718748D01*
X111890000Y-115704605D01*
X111041208Y-116553397D01*
X111118843Y-116802472D01*
X111382883Y-116928371D01*
X111666411Y-117000339D01*
X111958531Y-117015611D01*
X111976052Y-117013068D01*
X112021633Y-117123111D01*
X112106666Y-117250372D01*
X112214893Y-117358599D01*
X112342154Y-117443632D01*
X112483559Y-117502204D01*
X112633674Y-117532063D01*
X112786730Y-117532063D01*
X112936845Y-117502204D01*
X113038623Y-117460046D01*
X113052859Y-117531617D01*
X113111431Y-117673022D01*
X113196464Y-117800283D01*
X113304691Y-117908510D01*
X113431952Y-117993543D01*
X113573357Y-118052115D01*
X113723472Y-118081974D01*
X113867066Y-118081974D01*
X114722284Y-118937193D01*
X114737997Y-118956339D01*
X114757143Y-118972052D01*
X114757145Y-118972054D01*
X114772850Y-118984943D01*
X114794410Y-119002637D01*
X114778295Y-118994023D01*
X114660379Y-118958254D01*
X114537750Y-118946176D01*
X113912250Y-118946176D01*
X113789621Y-118958254D01*
X113671705Y-118994023D01*
X113563033Y-119052110D01*
X113478876Y-119121176D01*
X113412600Y-119121176D01*
X113289903Y-119133261D01*
X113171921Y-119169050D01*
X113063189Y-119227169D01*
X112967884Y-119305384D01*
X112967266Y-119306137D01*
X112952002Y-119255820D01*
X112893037Y-119145506D01*
X112813685Y-119048815D01*
X112716994Y-118969463D01*
X112606680Y-118910498D01*
X112486982Y-118874188D01*
X112362500Y-118861928D01*
X112300229Y-118862772D01*
X112216994Y-118794463D01*
X112106680Y-118735498D01*
X111986982Y-118699188D01*
X111862500Y-118686928D01*
X111585750Y-118690000D01*
X111427000Y-118848750D01*
X111427000Y-118863141D01*
X111337500Y-118861928D01*
X111213018Y-118874188D01*
X111173000Y-118886327D01*
X111173000Y-118848750D01*
X111014250Y-118690000D01*
X110737500Y-118686928D01*
X110613018Y-118699188D01*
X110493320Y-118735498D01*
X110427000Y-118770947D01*
X110427000Y-115783787D01*
X110441401Y-115883019D01*
X110539081Y-116158747D01*
X110612528Y-116296157D01*
X110861603Y-116373792D01*
X111574480Y-115660915D01*
X111623335Y-115678540D01*
X111721250Y-115695000D01*
X111880000Y-115536250D01*
X111983320Y-115639570D01*
G37*
%TD.AperFunction*%
D39*
X117141475Y-116776083D02*
X117176901Y-116740657D01*
X117202580Y-116771947D01*
X117202583Y-116771950D01*
X117218296Y-116791096D01*
X117237442Y-116806809D01*
X117793170Y-117362538D01*
X117808883Y-117381684D01*
X117828029Y-117397397D01*
X117828032Y-117397400D01*
X117885321Y-117444417D01*
X117915359Y-117460473D01*
X117851891Y-117534633D01*
X117790663Y-117643706D01*
X117751891Y-117762629D01*
X117740000Y-117866250D01*
X117898750Y-118025000D01*
X117740000Y-118183750D01*
X117751891Y-118287371D01*
X117790663Y-118406294D01*
X117840971Y-118495913D01*
X117830286Y-118494861D01*
X117805643Y-118497288D01*
X117548023Y-118497288D01*
X116662191Y-117611457D01*
X116662191Y-117467864D01*
X116632332Y-117317749D01*
X116573760Y-117176344D01*
X116521884Y-117098706D01*
X116756088Y-117017795D01*
X116930044Y-116924814D01*
X117025807Y-116660415D01*
X117141475Y-116776083D01*
%TA.AperFunction,Conductor*%
D40*
G36*
X117141475Y-116776083D02*
G01*
X117176901Y-116740657D01*
X117202580Y-116771947D01*
X117202583Y-116771950D01*
X117218296Y-116791096D01*
X117237442Y-116806809D01*
X117793170Y-117362538D01*
X117808883Y-117381684D01*
X117828029Y-117397397D01*
X117828032Y-117397400D01*
X117885321Y-117444417D01*
X117915359Y-117460473D01*
X117851891Y-117534633D01*
X117790663Y-117643706D01*
X117751891Y-117762629D01*
X117740000Y-117866250D01*
X117898750Y-118025000D01*
X117740000Y-118183750D01*
X117751891Y-118287371D01*
X117790663Y-118406294D01*
X117840971Y-118495913D01*
X117830286Y-118494861D01*
X117805643Y-118497288D01*
X117548023Y-118497288D01*
X116662191Y-117611457D01*
X116662191Y-117467864D01*
X116632332Y-117317749D01*
X116573760Y-117176344D01*
X116521884Y-117098706D01*
X116756088Y-117017795D01*
X116930044Y-116924814D01*
X117025807Y-116660415D01*
X117141475Y-116776083D01*
G37*
%TD.AperFunction*%
D39*
X118979494Y-101559872D02*
X118928983Y-101726384D01*
X118911928Y-101899550D01*
X118911928Y-102550450D01*
X118928983Y-102723616D01*
X118979494Y-102890128D01*
X119057695Y-103036432D01*
X118976643Y-103002859D01*
X118826528Y-102973000D01*
X118673472Y-102973000D01*
X118523357Y-103002859D01*
X118381952Y-103061431D01*
X118254691Y-103146464D01*
X118146464Y-103254691D01*
X118061431Y-103381952D01*
X118002859Y-103523357D01*
X117973000Y-103673472D01*
X117973000Y-103826528D01*
X118002859Y-103976643D01*
X118061431Y-104118048D01*
X118146464Y-104245309D01*
X118254691Y-104353536D01*
X118381952Y-104438569D01*
X118523357Y-104497141D01*
X118673472Y-104527000D01*
X118817065Y-104527000D01*
X118902601Y-104612536D01*
X118913838Y-104626228D01*
X118837477Y-104702589D01*
X118818326Y-104718306D01*
X118755593Y-104794745D01*
X118708979Y-104881955D01*
X118680274Y-104976582D01*
X118673010Y-105050338D01*
X118673010Y-105050347D01*
X118670583Y-105074990D01*
X118673010Y-105099633D01*
X118673011Y-109150357D01*
X118670583Y-109175010D01*
X118680275Y-109273419D01*
X118708980Y-109368046D01*
X118755594Y-109455255D01*
X118802611Y-109512545D01*
X118802614Y-109512548D01*
X118818327Y-109531694D01*
X118837473Y-109547407D01*
X119238065Y-109948000D01*
X117608824Y-109948000D01*
X117608824Y-109935510D01*
X117673036Y-109916031D01*
X117760245Y-109869417D01*
X117836684Y-109806684D01*
X117852401Y-109787533D01*
X118262528Y-109377407D01*
X118281674Y-109361694D01*
X118344407Y-109285255D01*
X118391021Y-109198046D01*
X118419726Y-109103419D01*
X118426990Y-109029663D01*
X118426990Y-109029653D01*
X118429417Y-109005010D01*
X118426990Y-108980367D01*
X118426990Y-106798059D01*
X118429417Y-106773414D01*
X118426990Y-106748768D01*
X118426990Y-106748761D01*
X118419726Y-106675005D01*
X118419726Y-106675004D01*
X118391021Y-106580377D01*
X118344407Y-106493168D01*
X118297390Y-106435879D01*
X118297387Y-106435876D01*
X118281674Y-106416730D01*
X118262528Y-106401017D01*
X116273978Y-104412467D01*
X116258260Y-104393316D01*
X116181821Y-104330583D01*
X116094612Y-104283969D01*
X115999985Y-104255264D01*
X115926229Y-104248000D01*
X115926219Y-104248000D01*
X115901576Y-104245573D01*
X115876933Y-104248000D01*
X114366599Y-104248000D01*
X114324955Y-104170089D01*
X114248307Y-104076693D01*
X114154911Y-104000045D01*
X114048357Y-103943091D01*
X113932739Y-103908018D01*
X113812500Y-103896176D01*
X113312500Y-103896176D01*
X113192261Y-103908018D01*
X113076643Y-103943091D01*
X112970089Y-104000045D01*
X112876693Y-104076693D01*
X112841446Y-104119642D01*
X112814502Y-104030820D01*
X112755537Y-103920506D01*
X112676185Y-103823815D01*
X112579494Y-103744463D01*
X112469180Y-103685498D01*
X112349482Y-103649188D01*
X112225000Y-103636928D01*
X112023250Y-103640000D01*
X111864500Y-103798750D01*
X111864500Y-104623000D01*
X111884500Y-104623000D01*
X111884500Y-104877000D01*
X111864500Y-104877000D01*
X111864500Y-104897000D01*
X111610500Y-104897000D01*
X111610500Y-104877000D01*
X110773750Y-104877000D01*
X110615000Y-105035750D01*
X110611928Y-105225000D01*
X110624188Y-105349482D01*
X110660498Y-105469180D01*
X110719463Y-105579494D01*
X110798815Y-105676185D01*
X110895506Y-105755537D01*
X111005820Y-105814502D01*
X111047292Y-105827083D01*
X111041208Y-105846603D01*
X111890000Y-106695395D01*
X112738792Y-105846603D01*
X112683062Y-105667805D01*
X112755537Y-105579494D01*
X112814502Y-105469180D01*
X112841446Y-105380358D01*
X112876693Y-105423307D01*
X112970089Y-105499955D01*
X113076643Y-105556909D01*
X113192261Y-105591982D01*
X113312500Y-105603824D01*
X113812500Y-105603824D01*
X113932739Y-105591982D01*
X114048357Y-105556909D01*
X114154911Y-105499955D01*
X114248307Y-105423307D01*
X114324955Y-105329911D01*
X114366599Y-105252000D01*
X115693642Y-105252000D01*
X115715020Y-105273378D01*
X115688325Y-105277039D01*
X115383912Y-105382205D01*
X115209956Y-105475186D01*
X115114192Y-105739587D01*
X116070000Y-106695395D01*
X116084143Y-106681253D01*
X116263748Y-106860858D01*
X116249605Y-106875000D01*
X116276438Y-106901833D01*
X116166918Y-106885293D01*
X116076335Y-106889505D01*
X116046091Y-106805674D01*
X115981503Y-106698555D01*
X115897259Y-106606095D01*
X115796595Y-106531847D01*
X115683380Y-106478664D01*
X115561965Y-106448590D01*
X115501750Y-106445000D01*
X115481073Y-106465678D01*
X114934587Y-105919192D01*
X114670186Y-106014956D01*
X114529296Y-106304571D01*
X114447616Y-106616108D01*
X114440903Y-106727735D01*
X114393909Y-106805674D01*
X114351460Y-106923335D01*
X114335000Y-107021250D01*
X114456403Y-107142653D01*
X114465411Y-107208339D01*
X114335000Y-107338750D01*
X114351460Y-107436665D01*
X114393909Y-107554326D01*
X114458497Y-107661445D01*
X114542741Y-107753905D01*
X114544997Y-107755569D01*
X114478497Y-107828555D01*
X114413909Y-107935674D01*
X114371460Y-108053335D01*
X114355000Y-108151250D01*
X114513750Y-108310000D01*
X114355000Y-108468750D01*
X114371460Y-108566665D01*
X114413909Y-108684326D01*
X114478497Y-108791445D01*
X114562741Y-108883905D01*
X114663405Y-108958153D01*
X114776620Y-109011336D01*
X114898035Y-109041410D01*
X114958250Y-109045000D01*
X114974981Y-109028269D01*
X114982249Y-109030069D01*
X115015894Y-109063714D01*
X115037626Y-109041982D01*
X115088250Y-109045000D01*
X115112998Y-109020252D01*
X115112998Y-109045000D01*
X115140529Y-109045000D01*
X115145575Y-109137763D01*
X115262999Y-109186658D01*
X115263000Y-113213475D01*
X115148649Y-113260592D01*
X115145575Y-113262237D01*
X115139985Y-113365000D01*
X115112998Y-113365000D01*
X115112998Y-113369748D01*
X115108250Y-113365000D01*
X115048189Y-113368581D01*
X115015894Y-113336286D01*
X114972715Y-113379465D01*
X114958250Y-113365000D01*
X114898035Y-113368590D01*
X114776620Y-113398664D01*
X114663405Y-113451847D01*
X114562741Y-113526095D01*
X114478497Y-113618555D01*
X114413909Y-113725674D01*
X114371460Y-113843335D01*
X114355000Y-113941250D01*
X114513750Y-114100000D01*
X114355000Y-114258750D01*
X114371460Y-114356665D01*
X114413909Y-114474326D01*
X114478497Y-114581445D01*
X114549627Y-114659512D01*
X114468497Y-114748555D01*
X114403909Y-114855674D01*
X114361460Y-114973335D01*
X114345000Y-115071250D01*
X114466777Y-115193027D01*
X114447616Y-115266108D01*
X114446335Y-115287415D01*
X114345000Y-115388750D01*
X114361460Y-115486665D01*
X114403909Y-115604326D01*
X114438427Y-115661574D01*
X114472039Y-115906675D01*
X114515546Y-116032610D01*
X114500467Y-116017531D01*
X114484750Y-115998380D01*
X114408311Y-115935647D01*
X114321102Y-115889033D01*
X114226475Y-115860328D01*
X114152719Y-115853064D01*
X114152709Y-115853064D01*
X114128066Y-115850637D01*
X114103423Y-115853064D01*
X113338820Y-115853064D01*
X113365339Y-115748589D01*
X113380611Y-115456469D01*
X113338599Y-115166981D01*
X113240919Y-114891253D01*
X113167472Y-114753843D01*
X112918397Y-114676208D01*
X112558928Y-115035678D01*
X112456250Y-114933000D01*
X112302395Y-114933000D01*
X112738792Y-114496603D01*
X112661157Y-114247528D01*
X112472069Y-114157367D01*
X112453905Y-114132741D01*
X112361445Y-114048497D01*
X112254326Y-113983909D01*
X112136665Y-113941460D01*
X112038750Y-113925000D01*
X111924001Y-114039749D01*
X111831145Y-114034895D01*
X111721250Y-113925000D01*
X111623335Y-113941460D01*
X111505674Y-113983909D01*
X111398555Y-114048497D01*
X111306095Y-114132741D01*
X111282448Y-114164801D01*
X111256253Y-114174081D01*
X111118843Y-114247528D01*
X111041208Y-114496603D01*
X111477605Y-114933000D01*
X111303750Y-114933000D01*
X111211073Y-115025678D01*
X110861603Y-114676208D01*
X110612528Y-114753843D01*
X110486629Y-115017883D01*
X110427000Y-115252800D01*
X110427000Y-107133787D01*
X110441401Y-107233019D01*
X110539081Y-107508747D01*
X110612528Y-107646157D01*
X110861603Y-107723792D01*
X111216073Y-107369323D01*
X111303750Y-107457000D01*
X111487605Y-107457000D01*
X111041208Y-107903397D01*
X111118843Y-108152472D01*
X111288458Y-108233348D01*
X111306095Y-108257259D01*
X111398555Y-108341503D01*
X111505674Y-108406091D01*
X111623335Y-108448540D01*
X111721250Y-108465000D01*
X111827490Y-108358760D01*
X111938304Y-108364554D01*
X112038750Y-108465000D01*
X112136665Y-108448540D01*
X112254326Y-108406091D01*
X112361445Y-108341503D01*
X112453905Y-108257259D01*
X112460493Y-108248328D01*
X112523747Y-108225919D01*
X112661157Y-108152472D01*
X112738792Y-107903397D01*
X112292395Y-107457000D01*
X112456250Y-107457000D01*
X112553928Y-107359323D01*
X112918397Y-107723792D01*
X113167472Y-107646157D01*
X113293371Y-107382117D01*
X113365339Y-107098589D01*
X113380611Y-106806469D01*
X113338599Y-106516981D01*
X113240919Y-106241253D01*
X113167472Y-106103843D01*
X112918397Y-106026208D01*
X112207566Y-106737039D01*
X112136665Y-106711460D01*
X112038750Y-106695000D01*
X111880000Y-106853750D01*
X111721250Y-106695000D01*
X111623335Y-106711460D01*
X111567132Y-106731737D01*
X110861603Y-106026208D01*
X110612528Y-106103843D01*
X110486629Y-106367883D01*
X110427000Y-106602800D01*
X110427000Y-104275000D01*
X110611928Y-104275000D01*
X110615000Y-104464250D01*
X110773750Y-104623000D01*
X111610500Y-104623000D01*
X111610500Y-103798750D01*
X111451750Y-103640000D01*
X111250000Y-103636928D01*
X111125518Y-103649188D01*
X111005820Y-103685498D01*
X110895506Y-103744463D01*
X110798815Y-103823815D01*
X110719463Y-103920506D01*
X110660498Y-104030820D01*
X110624188Y-104150518D01*
X110611928Y-104275000D01*
X110427000Y-104275000D01*
X110427000Y-102775000D01*
X110611928Y-102775000D01*
X110624188Y-102899482D01*
X110660498Y-103019180D01*
X110719463Y-103129494D01*
X110798815Y-103226185D01*
X110895506Y-103305537D01*
X111005820Y-103364502D01*
X111125518Y-103400812D01*
X111250000Y-103413072D01*
X111451750Y-103410000D01*
X111610500Y-103251250D01*
X111610500Y-102427000D01*
X110773750Y-102427000D01*
X110615000Y-102585750D01*
X110611928Y-102775000D01*
X110427000Y-102775000D01*
X110427000Y-102020883D01*
X110439922Y-101889100D01*
X110472129Y-101782427D01*
X110524442Y-101684039D01*
X110594868Y-101597689D01*
X110680728Y-101526658D01*
X110692993Y-101520026D01*
X110660498Y-101580820D01*
X110624188Y-101700518D01*
X110611928Y-101825000D01*
X110615000Y-102014250D01*
X110773750Y-102173000D01*
X111610500Y-102173000D01*
X111610500Y-102153000D01*
X111864500Y-102153000D01*
X111864500Y-102173000D01*
X111884500Y-102173000D01*
X111884500Y-102427000D01*
X111864500Y-102427000D01*
X111864500Y-103251250D01*
X112023250Y-103410000D01*
X112225000Y-103413072D01*
X112349482Y-103400812D01*
X112469180Y-103364502D01*
X112579494Y-103305537D01*
X112676185Y-103226185D01*
X112755537Y-103129494D01*
X112814502Y-103019180D01*
X112841446Y-102930358D01*
X112876693Y-102973307D01*
X112970089Y-103049955D01*
X113076643Y-103106909D01*
X113192261Y-103141982D01*
X113312500Y-103153824D01*
X113812500Y-103153824D01*
X113932739Y-103141982D01*
X114048357Y-103106909D01*
X114154911Y-103049955D01*
X114205388Y-103008530D01*
X114269292Y-103051229D01*
X114410697Y-103109801D01*
X114560812Y-103139660D01*
X114713868Y-103139660D01*
X114863983Y-103109801D01*
X115005388Y-103051229D01*
X115132649Y-102966196D01*
X115240876Y-102857969D01*
X115325909Y-102730708D01*
X115384481Y-102589303D01*
X115414340Y-102439188D01*
X115414340Y-102286132D01*
X115384481Y-102136017D01*
X115325909Y-101994612D01*
X115240876Y-101867351D01*
X115132649Y-101759124D01*
X115005388Y-101674091D01*
X114863983Y-101615519D01*
X114713868Y-101585660D01*
X114560812Y-101585660D01*
X114410697Y-101615519D01*
X114282661Y-101668553D01*
X114248307Y-101626693D01*
X114154911Y-101550045D01*
X114048357Y-101493091D01*
X113932739Y-101458018D01*
X113812500Y-101446176D01*
X113312500Y-101446176D01*
X113192261Y-101458018D01*
X113076643Y-101493091D01*
X112970089Y-101550045D01*
X112876693Y-101626693D01*
X112841446Y-101669642D01*
X112814502Y-101580820D01*
X112755537Y-101470506D01*
X112719833Y-101427000D01*
X119050516Y-101427000D01*
X118979494Y-101559872D01*
%TA.AperFunction,Conductor*%
D40*
G36*
X118979494Y-101559872D02*
G01*
X118928983Y-101726384D01*
X118911928Y-101899550D01*
X118911928Y-102550450D01*
X118928983Y-102723616D01*
X118979494Y-102890128D01*
X119057695Y-103036432D01*
X118976643Y-103002859D01*
X118826528Y-102973000D01*
X118673472Y-102973000D01*
X118523357Y-103002859D01*
X118381952Y-103061431D01*
X118254691Y-103146464D01*
X118146464Y-103254691D01*
X118061431Y-103381952D01*
X118002859Y-103523357D01*
X117973000Y-103673472D01*
X117973000Y-103826528D01*
X118002859Y-103976643D01*
X118061431Y-104118048D01*
X118146464Y-104245309D01*
X118254691Y-104353536D01*
X118381952Y-104438569D01*
X118523357Y-104497141D01*
X118673472Y-104527000D01*
X118817065Y-104527000D01*
X118902601Y-104612536D01*
X118913838Y-104626228D01*
X118837477Y-104702589D01*
X118818326Y-104718306D01*
X118755593Y-104794745D01*
X118708979Y-104881955D01*
X118680274Y-104976582D01*
X118673010Y-105050338D01*
X118673010Y-105050347D01*
X118670583Y-105074990D01*
X118673010Y-105099633D01*
X118673011Y-109150357D01*
X118670583Y-109175010D01*
X118680275Y-109273419D01*
X118708980Y-109368046D01*
X118755594Y-109455255D01*
X118802611Y-109512545D01*
X118802614Y-109512548D01*
X118818327Y-109531694D01*
X118837473Y-109547407D01*
X119238065Y-109948000D01*
X117608824Y-109948000D01*
X117608824Y-109935510D01*
X117673036Y-109916031D01*
X117760245Y-109869417D01*
X117836684Y-109806684D01*
X117852401Y-109787533D01*
X118262528Y-109377407D01*
X118281674Y-109361694D01*
X118344407Y-109285255D01*
X118391021Y-109198046D01*
X118419726Y-109103419D01*
X118426990Y-109029663D01*
X118426990Y-109029653D01*
X118429417Y-109005010D01*
X118426990Y-108980367D01*
X118426990Y-106798059D01*
X118429417Y-106773414D01*
X118426990Y-106748768D01*
X118426990Y-106748761D01*
X118419726Y-106675005D01*
X118419726Y-106675004D01*
X118391021Y-106580377D01*
X118344407Y-106493168D01*
X118297390Y-106435879D01*
X118297387Y-106435876D01*
X118281674Y-106416730D01*
X118262528Y-106401017D01*
X116273978Y-104412467D01*
X116258260Y-104393316D01*
X116181821Y-104330583D01*
X116094612Y-104283969D01*
X115999985Y-104255264D01*
X115926229Y-104248000D01*
X115926219Y-104248000D01*
X115901576Y-104245573D01*
X115876933Y-104248000D01*
X114366599Y-104248000D01*
X114324955Y-104170089D01*
X114248307Y-104076693D01*
X114154911Y-104000045D01*
X114048357Y-103943091D01*
X113932739Y-103908018D01*
X113812500Y-103896176D01*
X113312500Y-103896176D01*
X113192261Y-103908018D01*
X113076643Y-103943091D01*
X112970089Y-104000045D01*
X112876693Y-104076693D01*
X112841446Y-104119642D01*
X112814502Y-104030820D01*
X112755537Y-103920506D01*
X112676185Y-103823815D01*
X112579494Y-103744463D01*
X112469180Y-103685498D01*
X112349482Y-103649188D01*
X112225000Y-103636928D01*
X112023250Y-103640000D01*
X111864500Y-103798750D01*
X111864500Y-104623000D01*
X111884500Y-104623000D01*
X111884500Y-104877000D01*
X111864500Y-104877000D01*
X111864500Y-104897000D01*
X111610500Y-104897000D01*
X111610500Y-104877000D01*
X110773750Y-104877000D01*
X110615000Y-105035750D01*
X110611928Y-105225000D01*
X110624188Y-105349482D01*
X110660498Y-105469180D01*
X110719463Y-105579494D01*
X110798815Y-105676185D01*
X110895506Y-105755537D01*
X111005820Y-105814502D01*
X111047292Y-105827083D01*
X111041208Y-105846603D01*
X111890000Y-106695395D01*
X112738792Y-105846603D01*
X112683062Y-105667805D01*
X112755537Y-105579494D01*
X112814502Y-105469180D01*
X112841446Y-105380358D01*
X112876693Y-105423307D01*
X112970089Y-105499955D01*
X113076643Y-105556909D01*
X113192261Y-105591982D01*
X113312500Y-105603824D01*
X113812500Y-105603824D01*
X113932739Y-105591982D01*
X114048357Y-105556909D01*
X114154911Y-105499955D01*
X114248307Y-105423307D01*
X114324955Y-105329911D01*
X114366599Y-105252000D01*
X115693642Y-105252000D01*
X115715020Y-105273378D01*
X115688325Y-105277039D01*
X115383912Y-105382205D01*
X115209956Y-105475186D01*
X115114192Y-105739587D01*
X116070000Y-106695395D01*
X116084143Y-106681253D01*
X116263748Y-106860858D01*
X116249605Y-106875000D01*
X116276438Y-106901833D01*
X116166918Y-106885293D01*
X116076335Y-106889505D01*
X116046091Y-106805674D01*
X115981503Y-106698555D01*
X115897259Y-106606095D01*
X115796595Y-106531847D01*
X115683380Y-106478664D01*
X115561965Y-106448590D01*
X115501750Y-106445000D01*
X115481073Y-106465678D01*
X114934587Y-105919192D01*
X114670186Y-106014956D01*
X114529296Y-106304571D01*
X114447616Y-106616108D01*
X114440903Y-106727735D01*
X114393909Y-106805674D01*
X114351460Y-106923335D01*
X114335000Y-107021250D01*
X114456403Y-107142653D01*
X114465411Y-107208339D01*
X114335000Y-107338750D01*
X114351460Y-107436665D01*
X114393909Y-107554326D01*
X114458497Y-107661445D01*
X114542741Y-107753905D01*
X114544997Y-107755569D01*
X114478497Y-107828555D01*
X114413909Y-107935674D01*
X114371460Y-108053335D01*
X114355000Y-108151250D01*
X114513750Y-108310000D01*
X114355000Y-108468750D01*
X114371460Y-108566665D01*
X114413909Y-108684326D01*
X114478497Y-108791445D01*
X114562741Y-108883905D01*
X114663405Y-108958153D01*
X114776620Y-109011336D01*
X114898035Y-109041410D01*
X114958250Y-109045000D01*
X114974981Y-109028269D01*
X114982249Y-109030069D01*
X115015894Y-109063714D01*
X115037626Y-109041982D01*
X115088250Y-109045000D01*
X115112998Y-109020252D01*
X115112998Y-109045000D01*
X115140529Y-109045000D01*
X115145575Y-109137763D01*
X115262999Y-109186658D01*
X115263000Y-113213475D01*
X115148649Y-113260592D01*
X115145575Y-113262237D01*
X115139985Y-113365000D01*
X115112998Y-113365000D01*
X115112998Y-113369748D01*
X115108250Y-113365000D01*
X115048189Y-113368581D01*
X115015894Y-113336286D01*
X114972715Y-113379465D01*
X114958250Y-113365000D01*
X114898035Y-113368590D01*
X114776620Y-113398664D01*
X114663405Y-113451847D01*
X114562741Y-113526095D01*
X114478497Y-113618555D01*
X114413909Y-113725674D01*
X114371460Y-113843335D01*
X114355000Y-113941250D01*
X114513750Y-114100000D01*
X114355000Y-114258750D01*
X114371460Y-114356665D01*
X114413909Y-114474326D01*
X114478497Y-114581445D01*
X114549627Y-114659512D01*
X114468497Y-114748555D01*
X114403909Y-114855674D01*
X114361460Y-114973335D01*
X114345000Y-115071250D01*
X114466777Y-115193027D01*
X114447616Y-115266108D01*
X114446335Y-115287415D01*
X114345000Y-115388750D01*
X114361460Y-115486665D01*
X114403909Y-115604326D01*
X114438427Y-115661574D01*
X114472039Y-115906675D01*
X114515546Y-116032610D01*
X114500467Y-116017531D01*
X114484750Y-115998380D01*
X114408311Y-115935647D01*
X114321102Y-115889033D01*
X114226475Y-115860328D01*
X114152719Y-115853064D01*
X114152709Y-115853064D01*
X114128066Y-115850637D01*
X114103423Y-115853064D01*
X113338820Y-115853064D01*
X113365339Y-115748589D01*
X113380611Y-115456469D01*
X113338599Y-115166981D01*
X113240919Y-114891253D01*
X113167472Y-114753843D01*
X112918397Y-114676208D01*
X112558928Y-115035678D01*
X112456250Y-114933000D01*
X112302395Y-114933000D01*
X112738792Y-114496603D01*
X112661157Y-114247528D01*
X112472069Y-114157367D01*
X112453905Y-114132741D01*
X112361445Y-114048497D01*
X112254326Y-113983909D01*
X112136665Y-113941460D01*
X112038750Y-113925000D01*
X111924001Y-114039749D01*
X111831145Y-114034895D01*
X111721250Y-113925000D01*
X111623335Y-113941460D01*
X111505674Y-113983909D01*
X111398555Y-114048497D01*
X111306095Y-114132741D01*
X111282448Y-114164801D01*
X111256253Y-114174081D01*
X111118843Y-114247528D01*
X111041208Y-114496603D01*
X111477605Y-114933000D01*
X111303750Y-114933000D01*
X111211073Y-115025678D01*
X110861603Y-114676208D01*
X110612528Y-114753843D01*
X110486629Y-115017883D01*
X110427000Y-115252800D01*
X110427000Y-107133787D01*
X110441401Y-107233019D01*
X110539081Y-107508747D01*
X110612528Y-107646157D01*
X110861603Y-107723792D01*
X111216073Y-107369323D01*
X111303750Y-107457000D01*
X111487605Y-107457000D01*
X111041208Y-107903397D01*
X111118843Y-108152472D01*
X111288458Y-108233348D01*
X111306095Y-108257259D01*
X111398555Y-108341503D01*
X111505674Y-108406091D01*
X111623335Y-108448540D01*
X111721250Y-108465000D01*
X111827490Y-108358760D01*
X111938304Y-108364554D01*
X112038750Y-108465000D01*
X112136665Y-108448540D01*
X112254326Y-108406091D01*
X112361445Y-108341503D01*
X112453905Y-108257259D01*
X112460493Y-108248328D01*
X112523747Y-108225919D01*
X112661157Y-108152472D01*
X112738792Y-107903397D01*
X112292395Y-107457000D01*
X112456250Y-107457000D01*
X112553928Y-107359323D01*
X112918397Y-107723792D01*
X113167472Y-107646157D01*
X113293371Y-107382117D01*
X113365339Y-107098589D01*
X113380611Y-106806469D01*
X113338599Y-106516981D01*
X113240919Y-106241253D01*
X113167472Y-106103843D01*
X112918397Y-106026208D01*
X112207566Y-106737039D01*
X112136665Y-106711460D01*
X112038750Y-106695000D01*
X111880000Y-106853750D01*
X111721250Y-106695000D01*
X111623335Y-106711460D01*
X111567132Y-106731737D01*
X110861603Y-106026208D01*
X110612528Y-106103843D01*
X110486629Y-106367883D01*
X110427000Y-106602800D01*
X110427000Y-104275000D01*
X110611928Y-104275000D01*
X110615000Y-104464250D01*
X110773750Y-104623000D01*
X111610500Y-104623000D01*
X111610500Y-103798750D01*
X111451750Y-103640000D01*
X111250000Y-103636928D01*
X111125518Y-103649188D01*
X111005820Y-103685498D01*
X110895506Y-103744463D01*
X110798815Y-103823815D01*
X110719463Y-103920506D01*
X110660498Y-104030820D01*
X110624188Y-104150518D01*
X110611928Y-104275000D01*
X110427000Y-104275000D01*
X110427000Y-102775000D01*
X110611928Y-102775000D01*
X110624188Y-102899482D01*
X110660498Y-103019180D01*
X110719463Y-103129494D01*
X110798815Y-103226185D01*
X110895506Y-103305537D01*
X111005820Y-103364502D01*
X111125518Y-103400812D01*
X111250000Y-103413072D01*
X111451750Y-103410000D01*
X111610500Y-103251250D01*
X111610500Y-102427000D01*
X110773750Y-102427000D01*
X110615000Y-102585750D01*
X110611928Y-102775000D01*
X110427000Y-102775000D01*
X110427000Y-102020883D01*
X110439922Y-101889100D01*
X110472129Y-101782427D01*
X110524442Y-101684039D01*
X110594868Y-101597689D01*
X110680728Y-101526658D01*
X110692993Y-101520026D01*
X110660498Y-101580820D01*
X110624188Y-101700518D01*
X110611928Y-101825000D01*
X110615000Y-102014250D01*
X110773750Y-102173000D01*
X111610500Y-102173000D01*
X111610500Y-102153000D01*
X111864500Y-102153000D01*
X111864500Y-102173000D01*
X111884500Y-102173000D01*
X111884500Y-102427000D01*
X111864500Y-102427000D01*
X111864500Y-103251250D01*
X112023250Y-103410000D01*
X112225000Y-103413072D01*
X112349482Y-103400812D01*
X112469180Y-103364502D01*
X112579494Y-103305537D01*
X112676185Y-103226185D01*
X112755537Y-103129494D01*
X112814502Y-103019180D01*
X112841446Y-102930358D01*
X112876693Y-102973307D01*
X112970089Y-103049955D01*
X113076643Y-103106909D01*
X113192261Y-103141982D01*
X113312500Y-103153824D01*
X113812500Y-103153824D01*
X113932739Y-103141982D01*
X114048357Y-103106909D01*
X114154911Y-103049955D01*
X114205388Y-103008530D01*
X114269292Y-103051229D01*
X114410697Y-103109801D01*
X114560812Y-103139660D01*
X114713868Y-103139660D01*
X114863983Y-103109801D01*
X115005388Y-103051229D01*
X115132649Y-102966196D01*
X115240876Y-102857969D01*
X115325909Y-102730708D01*
X115384481Y-102589303D01*
X115414340Y-102439188D01*
X115414340Y-102286132D01*
X115384481Y-102136017D01*
X115325909Y-101994612D01*
X115240876Y-101867351D01*
X115132649Y-101759124D01*
X115005388Y-101674091D01*
X114863983Y-101615519D01*
X114713868Y-101585660D01*
X114560812Y-101585660D01*
X114410697Y-101615519D01*
X114282661Y-101668553D01*
X114248307Y-101626693D01*
X114154911Y-101550045D01*
X114048357Y-101493091D01*
X113932739Y-101458018D01*
X113812500Y-101446176D01*
X113312500Y-101446176D01*
X113192261Y-101458018D01*
X113076643Y-101493091D01*
X112970089Y-101550045D01*
X112876693Y-101626693D01*
X112841446Y-101669642D01*
X112814502Y-101580820D01*
X112755537Y-101470506D01*
X112719833Y-101427000D01*
X119050516Y-101427000D01*
X118979494Y-101559872D01*
G37*
%TD.AperFunction*%
D39*
X124158018Y-113282739D02*
X124193091Y-113398357D01*
X124250045Y-113504911D01*
X124326693Y-113598307D01*
X124420089Y-113674955D01*
X124498001Y-113716599D01*
X124498001Y-114125327D01*
X124495573Y-114149980D01*
X124505265Y-114248389D01*
X124533970Y-114343016D01*
X124580584Y-114430225D01*
X124627601Y-114487515D01*
X124627604Y-114487518D01*
X124643317Y-114506664D01*
X124657050Y-114517935D01*
X124668326Y-114531674D01*
X124744765Y-114594407D01*
X124831974Y-114641021D01*
X124926601Y-114669726D01*
X125000357Y-114676990D01*
X125000366Y-114676990D01*
X125025009Y-114679417D01*
X125049652Y-114676990D01*
X125359828Y-114676990D01*
X124063844Y-115972976D01*
X123753824Y-115972976D01*
X123753824Y-115962500D01*
X123745344Y-115876402D01*
X123720230Y-115793613D01*
X123679447Y-115717314D01*
X123624563Y-115650437D01*
X123577000Y-115611403D01*
X123577000Y-114450000D01*
X123574560Y-114425224D01*
X123567333Y-114401399D01*
X123555597Y-114379443D01*
X123539803Y-114360197D01*
X123520557Y-114344403D01*
X123498601Y-114332667D01*
X123474776Y-114325440D01*
X123450000Y-114323000D01*
X122483796Y-114323000D01*
X123267551Y-113539247D01*
X123535818Y-113539247D01*
X123560461Y-113541674D01*
X123585104Y-113539247D01*
X123585114Y-113539247D01*
X123658870Y-113531983D01*
X123753497Y-113503278D01*
X123840706Y-113456664D01*
X123917145Y-113393931D01*
X123932862Y-113374780D01*
X124107912Y-113199731D01*
X124149843Y-113199731D01*
X124158018Y-113282739D01*
%TA.AperFunction,Conductor*%
D40*
G36*
X124158018Y-113282739D02*
G01*
X124193091Y-113398357D01*
X124250045Y-113504911D01*
X124326693Y-113598307D01*
X124420089Y-113674955D01*
X124498001Y-113716599D01*
X124498001Y-114125327D01*
X124495573Y-114149980D01*
X124505265Y-114248389D01*
X124533970Y-114343016D01*
X124580584Y-114430225D01*
X124627601Y-114487515D01*
X124627604Y-114487518D01*
X124643317Y-114506664D01*
X124657050Y-114517935D01*
X124668326Y-114531674D01*
X124744765Y-114594407D01*
X124831974Y-114641021D01*
X124926601Y-114669726D01*
X125000357Y-114676990D01*
X125000366Y-114676990D01*
X125025009Y-114679417D01*
X125049652Y-114676990D01*
X125359828Y-114676990D01*
X124063844Y-115972976D01*
X123753824Y-115972976D01*
X123753824Y-115962500D01*
X123745344Y-115876402D01*
X123720230Y-115793613D01*
X123679447Y-115717314D01*
X123624563Y-115650437D01*
X123577000Y-115611403D01*
X123577000Y-114450000D01*
X123574560Y-114425224D01*
X123567333Y-114401399D01*
X123555597Y-114379443D01*
X123539803Y-114360197D01*
X123520557Y-114344403D01*
X123498601Y-114332667D01*
X123474776Y-114325440D01*
X123450000Y-114323000D01*
X122483796Y-114323000D01*
X123267551Y-113539247D01*
X123535818Y-113539247D01*
X123560461Y-113541674D01*
X123585104Y-113539247D01*
X123585114Y-113539247D01*
X123658870Y-113531983D01*
X123753497Y-113503278D01*
X123840706Y-113456664D01*
X123917145Y-113393931D01*
X123932862Y-113374780D01*
X124107912Y-113199731D01*
X124149843Y-113199731D01*
X124158018Y-113282739D01*
G37*
%TD.AperFunction*%
D39*
X116263748Y-115510858D02*
X116249605Y-115525000D01*
X116263748Y-115539143D01*
X116084143Y-115718748D01*
X116070000Y-115704605D01*
X116055858Y-115718748D01*
X116012963Y-115675853D01*
X116056091Y-115604326D01*
X116081632Y-115533531D01*
X116106918Y-115534707D01*
X116230599Y-115516028D01*
X116258759Y-115505869D01*
X116263748Y-115510858D01*
%TA.AperFunction,Conductor*%
D40*
G36*
X116263748Y-115510858D02*
G01*
X116249605Y-115525000D01*
X116263748Y-115539143D01*
X116084143Y-115718748D01*
X116070000Y-115704605D01*
X116055858Y-115718748D01*
X116012963Y-115675853D01*
X116056091Y-115604326D01*
X116081632Y-115533531D01*
X116106918Y-115534707D01*
X116230599Y-115516028D01*
X116258759Y-115505869D01*
X116263748Y-115510858D01*
G37*
%TD.AperFunction*%
D39*
X119916684Y-109096248D02*
X120087500Y-109113072D01*
X120687500Y-109113072D01*
X120763719Y-109105565D01*
X120751349Y-109112177D01*
X120735739Y-109124988D01*
X120718169Y-109139408D01*
X120674910Y-109174910D01*
X120659197Y-109194056D01*
X120355254Y-109498000D01*
X120207935Y-109498000D01*
X119758066Y-109048132D01*
X119916684Y-109096248D01*
%TA.AperFunction,Conductor*%
D40*
G36*
X119916684Y-109096248D02*
G01*
X120087500Y-109113072D01*
X120687500Y-109113072D01*
X120763719Y-109105565D01*
X120751349Y-109112177D01*
X120735739Y-109124988D01*
X120718169Y-109139408D01*
X120674910Y-109174910D01*
X120659197Y-109194056D01*
X120355254Y-109498000D01*
X120207935Y-109498000D01*
X119758066Y-109048132D01*
X119916684Y-109096248D01*
G37*
%TD.AperFunction*%
%TD*%
M02*
