%TF.GenerationSoftware,KiCad,Pcbnew,(5.1.10-1-10_14)*%
%TF.CreationDate,2021-05-11T14:24:32+01:00*%
%TF.ProjectId,Generic,47656e65-7269-4632-9e6b-696361645f70,3*%
%TF.SameCoordinates,Original*%
%TF.FileFunction,Copper,L2,Bot*%
%TF.FilePolarity,Positive*%
%FSLAX46Y46*%
G04 Gerber Fmt 4.6, Leading zero omitted, Abs format (unit mm)*
G04 Created by KiCad (PCBNEW (5.1.10-1-10_14)) date 2021-05-11 14:24:32*
%MOMM*%
%LPD*%
G01*
G04 APERTURE LIST*
%TA.AperFunction,NonConductor*%
%ADD10C,0.080000*%
%TD*%
%TA.AperFunction,EtchedComponent*%
%ADD11C,0.250000*%
%TD*%
%TA.AperFunction,EtchedComponent*%
%ADD12C,0.500000*%
%TD*%
%TA.AperFunction,ComponentPad*%
%ADD13R,1.700000X1.700000*%
%TD*%
%TA.AperFunction,ComponentPad*%
%ADD14O,1.700000X1.700000*%
%TD*%
%TA.AperFunction,SMDPad,CuDef*%
%ADD15R,0.500000X1.000000*%
%TD*%
%TA.AperFunction,SMDPad,CuDef*%
%ADD16C,0.100000*%
%TD*%
%TA.AperFunction,SMDPad,CuDef*%
%ADD17R,1.000000X0.500000*%
%TD*%
%TA.AperFunction,SMDPad,CuDef*%
%ADD18R,0.800000X0.500000*%
%TD*%
%TA.AperFunction,SMDPad,CuDef*%
%ADD19R,3.650000X0.500000*%
%TD*%
%TA.AperFunction,SMDPad,CuDef*%
%ADD20R,0.500000X2.500000*%
%TD*%
%TA.AperFunction,SMDPad,CuDef*%
%ADD21R,3.700000X1.100000*%
%TD*%
%TA.AperFunction,SMDPad,CuDef*%
%ADD22R,1.560000X0.650000*%
%TD*%
%TA.AperFunction,SMDPad,CuDef*%
%ADD23R,1.750000X2.000000*%
%TD*%
%TA.AperFunction,ComponentPad*%
%ADD24C,0.350000*%
%TD*%
%TA.AperFunction,SMDPad,CuDef*%
%ADD25R,0.200000X0.200000*%
%TD*%
%TA.AperFunction,SMDPad,CuDef*%
%ADD26C,0.500000*%
%TD*%
%TA.AperFunction,SMDPad,CuDef*%
%ADD27R,2.000000X1.750000*%
%TD*%
%TA.AperFunction,SMDPad,CuDef*%
%ADD28R,0.500000X0.200000*%
%TD*%
%TA.AperFunction,SMDPad,CuDef*%
%ADD29R,0.200000X0.500000*%
%TD*%
%TA.AperFunction,SMDPad,CuDef*%
%ADD30R,5.490000X8.340000*%
%TD*%
%TA.AperFunction,SMDPad,CuDef*%
%ADD31R,1.140000X0.600000*%
%TD*%
%TA.AperFunction,ComponentPad*%
%ADD32C,1.700000*%
%TD*%
%TA.AperFunction,ComponentPad*%
%ADD33C,2.000000*%
%TD*%
%TA.AperFunction,SMDPad,CuDef*%
%ADD34R,1.140000X0.300000*%
%TD*%
%TA.AperFunction,ComponentPad*%
%ADD35C,0.600000*%
%TD*%
%TA.AperFunction,ViaPad*%
%ADD36C,0.800000*%
%TD*%
%TA.AperFunction,Conductor*%
%ADD37C,0.250000*%
%TD*%
%TA.AperFunction,Conductor*%
%ADD38C,0.500000*%
%TD*%
%TA.AperFunction,Conductor*%
%ADD39C,0.254000*%
%TD*%
%TA.AperFunction,Conductor*%
%ADD40C,0.100000*%
%TD*%
G04 APERTURE END LIST*
D10*
X128173809Y-109471428D02*
X128150000Y-109495238D01*
X128126190Y-109542857D01*
X128126190Y-109661904D01*
X128150000Y-109709523D01*
X128173809Y-109733333D01*
X128221428Y-109757142D01*
X128269047Y-109757142D01*
X128340476Y-109733333D01*
X128626190Y-109447619D01*
X128626190Y-109757142D01*
X128126190Y-110066666D02*
X128126190Y-110114285D01*
X128150000Y-110161904D01*
X128173809Y-110185714D01*
X128221428Y-110209523D01*
X128316666Y-110233333D01*
X128435714Y-110233333D01*
X128530952Y-110209523D01*
X128578571Y-110185714D01*
X128602380Y-110161904D01*
X128626190Y-110114285D01*
X128626190Y-110066666D01*
X128602380Y-110019047D01*
X128578571Y-109995238D01*
X128530952Y-109971428D01*
X128435714Y-109947619D01*
X128316666Y-109947619D01*
X128221428Y-109971428D01*
X128173809Y-109995238D01*
X128150000Y-110019047D01*
X128126190Y-110066666D01*
X128173809Y-110423809D02*
X128150000Y-110447619D01*
X128126190Y-110495238D01*
X128126190Y-110614285D01*
X128150000Y-110661904D01*
X128173809Y-110685714D01*
X128221428Y-110709523D01*
X128269047Y-110709523D01*
X128340476Y-110685714D01*
X128626190Y-110400000D01*
X128626190Y-110709523D01*
X128626190Y-111185714D02*
X128626190Y-110900000D01*
X128626190Y-111042857D02*
X128126190Y-111042857D01*
X128197619Y-110995238D01*
X128245238Y-110947619D01*
X128269047Y-110900000D01*
X128435714Y-111400000D02*
X128435714Y-111780952D01*
X128126190Y-112114285D02*
X128126190Y-112161904D01*
X128150000Y-112209523D01*
X128173809Y-112233333D01*
X128221428Y-112257142D01*
X128316666Y-112280952D01*
X128435714Y-112280952D01*
X128530952Y-112257142D01*
X128578571Y-112233333D01*
X128602380Y-112209523D01*
X128626190Y-112161904D01*
X128626190Y-112114285D01*
X128602380Y-112066666D01*
X128578571Y-112042857D01*
X128530952Y-112019047D01*
X128435714Y-111995238D01*
X128316666Y-111995238D01*
X128221428Y-112019047D01*
X128173809Y-112042857D01*
X128150000Y-112066666D01*
X128126190Y-112114285D01*
X128126190Y-112733333D02*
X128126190Y-112495238D01*
X128364285Y-112471428D01*
X128340476Y-112495238D01*
X128316666Y-112542857D01*
X128316666Y-112661904D01*
X128340476Y-112709523D01*
X128364285Y-112733333D01*
X128411904Y-112757142D01*
X128530952Y-112757142D01*
X128578571Y-112733333D01*
X128602380Y-112709523D01*
X128626190Y-112661904D01*
X128626190Y-112542857D01*
X128602380Y-112495238D01*
X128578571Y-112471428D01*
X128435714Y-112971428D02*
X128435714Y-113352380D01*
X128626190Y-113852380D02*
X128626190Y-113566666D01*
X128626190Y-113709523D02*
X128126190Y-113709523D01*
X128197619Y-113661904D01*
X128245238Y-113614285D01*
X128269047Y-113566666D01*
X128626190Y-114328571D02*
X128626190Y-114042857D01*
X128626190Y-114185714D02*
X128126190Y-114185714D01*
X128197619Y-114138095D01*
X128245238Y-114090476D01*
X128269047Y-114042857D01*
D11*
%TO.C,Reg1*%
X127750000Y-107000000D02*
X127750000Y-108450000D01*
X127750000Y-107000000D02*
X128250000Y-107000000D01*
X125500000Y-103650000D02*
X125500000Y-102800000D01*
X125500000Y-103650000D02*
X128250000Y-103650000D01*
D12*
X124250000Y-105100000D02*
X124250000Y-106500000D01*
X124250000Y-105250000D02*
X122250000Y-105250000D01*
D11*
X122250000Y-105250000D02*
X122250000Y-106750000D01*
X121250000Y-106750000D02*
X121250000Y-104150000D01*
X121250000Y-104150000D02*
X127750000Y-104150000D01*
X126550000Y-106500000D02*
X127750000Y-106500000D01*
X127750000Y-106500000D02*
X127750000Y-104150000D01*
X126550000Y-108450000D02*
X127750000Y-108450000D01*
X128250000Y-107000000D02*
X128250000Y-103650000D01*
X120500000Y-106750000D02*
X121250000Y-106750000D01*
%TD*%
D13*
%TO.P,J1,1*%
%TO.N,GND*%
X113155000Y-122900000D03*
D14*
%TO.P,J1,2*%
%TO.N,IO1*%
X115695000Y-122900000D03*
%TO.P,J1,3*%
%TO.N,IO2*%
X118235000Y-122900000D03*
%TO.P,J1,4*%
%TO.N,IO3*%
X120775000Y-122900000D03*
%TO.P,J1,5*%
%TO.N,IO4*%
X123315000Y-122900000D03*
%TO.P,J1,6*%
%TO.N,Net-(J1-Pad6)*%
X125855000Y-122900000D03*
%TD*%
%TO.P,C2,2*%
%TO.N,GND*%
%TA.AperFunction,SMDPad,CuDef*%
G36*
G01*
X125237500Y-111675000D02*
X124762500Y-111675000D01*
G75*
G02*
X124525000Y-111437500I0J237500D01*
G01*
X124525000Y-110837500D01*
G75*
G02*
X124762500Y-110600000I237500J0D01*
G01*
X125237500Y-110600000D01*
G75*
G02*
X125475000Y-110837500I0J-237500D01*
G01*
X125475000Y-111437500D01*
G75*
G02*
X125237500Y-111675000I-237500J0D01*
G01*
G37*
%TD.AperFunction*%
%TO.P,C2,1*%
%TO.N,+3V3*%
%TA.AperFunction,SMDPad,CuDef*%
G36*
G01*
X125237500Y-113400000D02*
X124762500Y-113400000D01*
G75*
G02*
X124525000Y-113162500I0J237500D01*
G01*
X124525000Y-112562500D01*
G75*
G02*
X124762500Y-112325000I237500J0D01*
G01*
X125237500Y-112325000D01*
G75*
G02*
X125475000Y-112562500I0J-237500D01*
G01*
X125475000Y-113162500D01*
G75*
G02*
X125237500Y-113400000I-237500J0D01*
G01*
G37*
%TD.AperFunction*%
%TD*%
%TO.P,R8,2*%
%TO.N,Net-(J2-PadB5)*%
%TA.AperFunction,SMDPad,CuDef*%
G36*
G01*
X113075000Y-104987500D02*
X113075000Y-104512500D01*
G75*
G02*
X113312500Y-104275000I237500J0D01*
G01*
X113812500Y-104275000D01*
G75*
G02*
X114050000Y-104512500I0J-237500D01*
G01*
X114050000Y-104987500D01*
G75*
G02*
X113812500Y-105225000I-237500J0D01*
G01*
X113312500Y-105225000D01*
G75*
G02*
X113075000Y-104987500I0J237500D01*
G01*
G37*
%TD.AperFunction*%
%TO.P,R8,1*%
%TO.N,GND*%
%TA.AperFunction,SMDPad,CuDef*%
G36*
G01*
X111250000Y-104987500D02*
X111250000Y-104512500D01*
G75*
G02*
X111487500Y-104275000I237500J0D01*
G01*
X111987500Y-104275000D01*
G75*
G02*
X112225000Y-104512500I0J-237500D01*
G01*
X112225000Y-104987500D01*
G75*
G02*
X111987500Y-105225000I-237500J0D01*
G01*
X111487500Y-105225000D01*
G75*
G02*
X111250000Y-104987500I0J237500D01*
G01*
G37*
%TD.AperFunction*%
%TD*%
%TO.P,R7,2*%
%TO.N,GND*%
%TA.AperFunction,SMDPad,CuDef*%
G36*
G01*
X112225000Y-102062500D02*
X112225000Y-102537500D01*
G75*
G02*
X111987500Y-102775000I-237500J0D01*
G01*
X111487500Y-102775000D01*
G75*
G02*
X111250000Y-102537500I0J237500D01*
G01*
X111250000Y-102062500D01*
G75*
G02*
X111487500Y-101825000I237500J0D01*
G01*
X111987500Y-101825000D01*
G75*
G02*
X112225000Y-102062500I0J-237500D01*
G01*
G37*
%TD.AperFunction*%
%TO.P,R7,1*%
%TO.N,Net-(J2-PadA5)*%
%TA.AperFunction,SMDPad,CuDef*%
G36*
G01*
X114050000Y-102062500D02*
X114050000Y-102537500D01*
G75*
G02*
X113812500Y-102775000I-237500J0D01*
G01*
X113312500Y-102775000D01*
G75*
G02*
X113075000Y-102537500I0J237500D01*
G01*
X113075000Y-102062500D01*
G75*
G02*
X113312500Y-101825000I237500J0D01*
G01*
X113812500Y-101825000D01*
G75*
G02*
X114050000Y-102062500I0J-237500D01*
G01*
G37*
%TD.AperFunction*%
%TD*%
D15*
%TO.P,Reg1,4*%
%TO.N,+3V3*%
X124550000Y-102700000D03*
%TA.AperFunction,SMDPad,CuDef*%
G36*
G01*
X120684835Y-103461612D02*
X120861612Y-103284835D01*
G75*
G02*
X121038388Y-103284835I88388J-88388D01*
G01*
X121215165Y-103461612D01*
G75*
G02*
X121215165Y-103638388I-88388J-88388D01*
G01*
X121038388Y-103815165D01*
G75*
G02*
X120861612Y-103815165I-88388J88388D01*
G01*
X120684835Y-103638388D01*
G75*
G02*
X120684835Y-103461612I88388J88388D01*
G01*
G37*
%TD.AperFunction*%
%TA.AperFunction,SMDPad,CuDef*%
G36*
G01*
X121225000Y-103750000D02*
X120975000Y-103750000D01*
G75*
G02*
X120850000Y-103625000I0J125000D01*
G01*
X120850000Y-103375000D01*
G75*
G02*
X120975000Y-103250000I125000J0D01*
G01*
X121225000Y-103250000D01*
G75*
G02*
X121350000Y-103375000I0J-125000D01*
G01*
X121350000Y-103625000D01*
G75*
G02*
X121225000Y-103750000I-125000J0D01*
G01*
G37*
%TD.AperFunction*%
%TA.AperFunction,SMDPad,CuDef*%
D16*
G36*
X120169670Y-103976777D02*
G01*
X120876777Y-103269670D01*
X121230330Y-103623223D01*
X120523223Y-104330330D01*
X120169670Y-103976777D01*
G37*
%TD.AperFunction*%
%TO.P,Reg1,2*%
%TO.N,VBUS*%
%TA.AperFunction,SMDPad,CuDef*%
G36*
G01*
X123175000Y-107750000D02*
X122925000Y-107750000D01*
G75*
G02*
X122800000Y-107625000I0J125000D01*
G01*
X122800000Y-107375000D01*
G75*
G02*
X122925000Y-107250000I125000J0D01*
G01*
X123175000Y-107250000D01*
G75*
G02*
X123300000Y-107375000I0J-125000D01*
G01*
X123300000Y-107625000D01*
G75*
G02*
X123175000Y-107750000I-125000J0D01*
G01*
G37*
%TD.AperFunction*%
%TA.AperFunction,SMDPad,CuDef*%
G36*
G01*
X122634835Y-107461612D02*
X122811612Y-107284835D01*
G75*
G02*
X122988388Y-107284835I88388J-88388D01*
G01*
X123165165Y-107461612D01*
G75*
G02*
X123165165Y-107638388I-88388J-88388D01*
G01*
X122988388Y-107815165D01*
G75*
G02*
X122811612Y-107815165I-88388J88388D01*
G01*
X122634835Y-107638388D01*
G75*
G02*
X122634835Y-107461612I88388J88388D01*
G01*
G37*
%TD.AperFunction*%
D17*
X123400000Y-107500000D03*
%TA.AperFunction,SMDPad,CuDef*%
D16*
G36*
X122069670Y-108026777D02*
G01*
X122776777Y-107319670D01*
X123130330Y-107673223D01*
X122423223Y-108380330D01*
X122069670Y-108026777D01*
G37*
%TD.AperFunction*%
D17*
%TO.P,Reg1,3*%
%TO.N,GND*%
X120900000Y-102250000D03*
X121750000Y-102250000D03*
X126000000Y-107500000D03*
D18*
X125400000Y-107500000D03*
D17*
X121250000Y-102250000D03*
%TO.P,Reg1,4*%
%TO.N,+3V3*%
%TA.AperFunction,SMDPad,CuDef*%
G36*
G01*
X124675000Y-103750000D02*
X124425000Y-103750000D01*
G75*
G02*
X124300000Y-103625000I0J125000D01*
G01*
X124300000Y-103375000D01*
G75*
G02*
X124425000Y-103250000I125000J0D01*
G01*
X124675000Y-103250000D01*
G75*
G02*
X124800000Y-103375000I0J-125000D01*
G01*
X124800000Y-103625000D01*
G75*
G02*
X124675000Y-103750000I-125000J0D01*
G01*
G37*
%TD.AperFunction*%
D15*
X124550000Y-103100000D03*
D19*
X122850000Y-103500000D03*
%TO.P,Reg1,~*%
%TO.N,N/C*%
%TA.AperFunction,SMDPad,CuDef*%
G36*
G01*
X123125626Y-105950000D02*
X121874374Y-105950000D01*
G75*
G02*
X121625000Y-105700626I0J249374D01*
G01*
X121625000Y-104774374D01*
G75*
G02*
X121874374Y-104525000I249374J0D01*
G01*
X123125626Y-104525000D01*
G75*
G02*
X123375000Y-104774374I0J-249374D01*
G01*
X123375000Y-105700626D01*
G75*
G02*
X123125626Y-105950000I-249374J0D01*
G01*
G37*
%TD.AperFunction*%
%TO.P,Reg1,3*%
%TO.N,GND*%
%TA.AperFunction,SMDPad,CuDef*%
G36*
G01*
X123125626Y-102975000D02*
X121874374Y-102975000D01*
G75*
G02*
X121625000Y-102725626I0J249374D01*
G01*
X121625000Y-101799374D01*
G75*
G02*
X121874374Y-101550000I249374J0D01*
G01*
X123125626Y-101550000D01*
G75*
G02*
X123375000Y-101799374I0J-249374D01*
G01*
X123375000Y-102725626D01*
G75*
G02*
X123125626Y-102975000I-249374J0D01*
G01*
G37*
%TD.AperFunction*%
D20*
X125250000Y-107500000D03*
D18*
X125650000Y-107500000D03*
D21*
%TO.P,Reg1,4*%
%TO.N,+3V3*%
X125500000Y-102250000D03*
%TO.P,Reg1,~*%
%TO.N,N/C*%
X125500000Y-105250000D03*
%TO.P,Reg1,3*%
%TO.N,GND*%
%TA.AperFunction,SMDPad,CuDef*%
G36*
G01*
X120700450Y-102800000D02*
X119799550Y-102800000D01*
G75*
G02*
X119550000Y-102550450I0J249550D01*
G01*
X119550000Y-101899550D01*
G75*
G02*
X119799550Y-101650000I249550J0D01*
G01*
X120700450Y-101650000D01*
G75*
G02*
X120950000Y-101899550I0J-249550D01*
G01*
X120950000Y-102550450D01*
G75*
G02*
X120700450Y-102800000I-249550J0D01*
G01*
G37*
%TD.AperFunction*%
%TO.P,Reg1,4*%
%TO.N,+3V3*%
%TA.AperFunction,SMDPad,CuDef*%
G36*
G01*
X120700450Y-104850000D02*
X119799550Y-104850000D01*
G75*
G02*
X119550000Y-104600450I0J249550D01*
G01*
X119550000Y-103949550D01*
G75*
G02*
X119799550Y-103700000I249550J0D01*
G01*
X120700450Y-103700000D01*
G75*
G02*
X120950000Y-103949550I0J-249550D01*
G01*
X120950000Y-104600450D01*
G75*
G02*
X120700450Y-104850000I-249550J0D01*
G01*
G37*
%TD.AperFunction*%
%TO.P,Reg1,3*%
%TO.N,GND*%
%TA.AperFunction,SMDPad,CuDef*%
G36*
G01*
X119850000Y-108237500D02*
X119850000Y-107762500D01*
G75*
G02*
X120087500Y-107525000I237500J0D01*
G01*
X120687500Y-107525000D01*
G75*
G02*
X120925000Y-107762500I0J-237500D01*
G01*
X120925000Y-108237500D01*
G75*
G02*
X120687500Y-108475000I-237500J0D01*
G01*
X120087500Y-108475000D01*
G75*
G02*
X119850000Y-108237500I0J237500D01*
G01*
G37*
%TD.AperFunction*%
%TO.P,Reg1,2*%
%TO.N,VBUS*%
%TA.AperFunction,SMDPad,CuDef*%
G36*
G01*
X121575000Y-108237500D02*
X121575000Y-107762500D01*
G75*
G02*
X121812500Y-107525000I237500J0D01*
G01*
X122412500Y-107525000D01*
G75*
G02*
X122650000Y-107762500I0J-237500D01*
G01*
X122650000Y-108237500D01*
G75*
G02*
X122412500Y-108475000I-237500J0D01*
G01*
X121812500Y-108475000D01*
G75*
G02*
X121575000Y-108237500I0J237500D01*
G01*
G37*
%TD.AperFunction*%
%TO.P,Reg1,~*%
%TO.N,N/C*%
%TA.AperFunction,SMDPad,CuDef*%
G36*
G01*
X119850000Y-106987500D02*
X119850000Y-106512500D01*
G75*
G02*
X120087500Y-106275000I237500J0D01*
G01*
X120687500Y-106275000D01*
G75*
G02*
X120925000Y-106512500I0J-237500D01*
G01*
X120925000Y-106987500D01*
G75*
G02*
X120687500Y-107225000I-237500J0D01*
G01*
X120087500Y-107225000D01*
G75*
G02*
X119850000Y-106987500I0J237500D01*
G01*
G37*
%TD.AperFunction*%
%TA.AperFunction,SMDPad,CuDef*%
G36*
G01*
X121575000Y-106987500D02*
X121575000Y-106512500D01*
G75*
G02*
X121812500Y-106275000I237500J0D01*
G01*
X122412500Y-106275000D01*
G75*
G02*
X122650000Y-106512500I0J-237500D01*
G01*
X122650000Y-106987500D01*
G75*
G02*
X122412500Y-107225000I-237500J0D01*
G01*
X121812500Y-107225000D01*
G75*
G02*
X121575000Y-106987500I0J237500D01*
G01*
G37*
%TD.AperFunction*%
D22*
%TO.P,Reg1,1*%
%TO.N,VBUS*%
X123900000Y-108450000D03*
%TO.P,Reg1,2*%
X123900000Y-107500000D03*
%TO.P,Reg1,~*%
%TO.N,N/C*%
X123900000Y-106550000D03*
X126600000Y-106550000D03*
X126600000Y-108450000D03*
%TO.P,Reg1,3*%
%TO.N,GND*%
X126600000Y-107500000D03*
%TD*%
%TA.AperFunction,SMDPad,CuDef*%
D16*
%TO.P,U2,21*%
%TO.N,GND*%
G36*
X120125113Y-116024797D02*
G01*
X121875203Y-117774887D01*
X121624887Y-118025203D01*
X119874797Y-116275113D01*
X120125113Y-116024797D01*
G37*
%TD.AperFunction*%
D23*
X120750000Y-117025000D03*
D24*
X120875000Y-117025000D03*
D25*
%TO.P,U2,~*%
%TO.N,N/C*%
X122875000Y-119025000D03*
X118875000Y-115025000D03*
X118875000Y-119025000D03*
X122875000Y-115025000D03*
D26*
X122875000Y-119025000D03*
D27*
%TO.P,U2,21*%
%TO.N,GND*%
X120875000Y-116900000D03*
%TO.P,U2,20*%
%TO.N,+3V3*%
%TA.AperFunction,SMDPad,CuDef*%
G36*
G01*
X123312500Y-118150000D02*
X122437500Y-118150000D01*
G75*
G02*
X122375000Y-118087500I0J62500D01*
G01*
X122375000Y-117962500D01*
G75*
G02*
X122437500Y-117900000I62500J0D01*
G01*
X123312500Y-117900000D01*
G75*
G02*
X123375000Y-117962500I0J-62500D01*
G01*
X123375000Y-118087500D01*
G75*
G02*
X123312500Y-118150000I-62500J0D01*
G01*
G37*
%TD.AperFunction*%
%TO.P,U2,19*%
%TO.N,EN*%
%TA.AperFunction,SMDPad,CuDef*%
G36*
G01*
X123312500Y-117650000D02*
X122437500Y-117650000D01*
G75*
G02*
X122375000Y-117587500I0J62500D01*
G01*
X122375000Y-117462500D01*
G75*
G02*
X122437500Y-117400000I62500J0D01*
G01*
X123312500Y-117400000D01*
G75*
G02*
X123375000Y-117462500I0J-62500D01*
G01*
X123375000Y-117587500D01*
G75*
G02*
X123312500Y-117650000I-62500J0D01*
G01*
G37*
%TD.AperFunction*%
%TO.P,U2,18*%
%TO.N,GPIO0*%
%TA.AperFunction,SMDPad,CuDef*%
G36*
G01*
X123312500Y-117150000D02*
X122437500Y-117150000D01*
G75*
G02*
X122375000Y-117087500I0J62500D01*
G01*
X122375000Y-116962500D01*
G75*
G02*
X122437500Y-116900000I62500J0D01*
G01*
X123312500Y-116900000D01*
G75*
G02*
X123375000Y-116962500I0J-62500D01*
G01*
X123375000Y-117087500D01*
G75*
G02*
X123312500Y-117150000I-62500J0D01*
G01*
G37*
%TD.AperFunction*%
%TO.P,U2,17*%
%TO.N,I*%
%TA.AperFunction,SMDPad,CuDef*%
G36*
G01*
X123312500Y-116650000D02*
X122437500Y-116650000D01*
G75*
G02*
X122375000Y-116587500I0J62500D01*
G01*
X122375000Y-116462500D01*
G75*
G02*
X122437500Y-116400000I62500J0D01*
G01*
X123312500Y-116400000D01*
G75*
G02*
X123375000Y-116462500I0J-62500D01*
G01*
X123375000Y-116587500D01*
G75*
G02*
X123312500Y-116650000I-62500J0D01*
G01*
G37*
%TD.AperFunction*%
%TO.P,U2,16*%
%TO.N,Net-(U2-Pad16)*%
%TA.AperFunction,SMDPad,CuDef*%
G36*
G01*
X123312500Y-116150000D02*
X122437500Y-116150000D01*
G75*
G02*
X122375000Y-116087500I0J62500D01*
G01*
X122375000Y-115962500D01*
G75*
G02*
X122437500Y-115900000I62500J0D01*
G01*
X123312500Y-115900000D01*
G75*
G02*
X123375000Y-115962500I0J-62500D01*
G01*
X123375000Y-116087500D01*
G75*
G02*
X123312500Y-116150000I-62500J0D01*
G01*
G37*
%TD.AperFunction*%
%TO.P,U2,15*%
%TO.N,Net-(U2-Pad15)*%
%TA.AperFunction,SMDPad,CuDef*%
G36*
G01*
X121937500Y-115525000D02*
X121812500Y-115525000D01*
G75*
G02*
X121750000Y-115462500I0J62500D01*
G01*
X121750000Y-114587500D01*
G75*
G02*
X121812500Y-114525000I62500J0D01*
G01*
X121937500Y-114525000D01*
G75*
G02*
X122000000Y-114587500I0J-62500D01*
G01*
X122000000Y-115462500D01*
G75*
G02*
X121937500Y-115525000I-62500J0D01*
G01*
G37*
%TD.AperFunction*%
%TO.P,U2,14*%
%TO.N,Net-(U2-Pad14)*%
%TA.AperFunction,SMDPad,CuDef*%
G36*
G01*
X121437500Y-115525000D02*
X121312500Y-115525000D01*
G75*
G02*
X121250000Y-115462500I0J62500D01*
G01*
X121250000Y-114587500D01*
G75*
G02*
X121312500Y-114525000I62500J0D01*
G01*
X121437500Y-114525000D01*
G75*
G02*
X121500000Y-114587500I0J-62500D01*
G01*
X121500000Y-115462500D01*
G75*
G02*
X121437500Y-115525000I-62500J0D01*
G01*
G37*
%TD.AperFunction*%
%TO.P,U2,13*%
%TO.N,GND*%
%TA.AperFunction,SMDPad,CuDef*%
G36*
G01*
X120937500Y-115525000D02*
X120812500Y-115525000D01*
G75*
G02*
X120750000Y-115462500I0J62500D01*
G01*
X120750000Y-114587500D01*
G75*
G02*
X120812500Y-114525000I62500J0D01*
G01*
X120937500Y-114525000D01*
G75*
G02*
X121000000Y-114587500I0J-62500D01*
G01*
X121000000Y-115462500D01*
G75*
G02*
X120937500Y-115525000I-62500J0D01*
G01*
G37*
%TD.AperFunction*%
%TO.P,U2,12*%
%TO.N,+3V3*%
%TA.AperFunction,SMDPad,CuDef*%
G36*
G01*
X120437500Y-115525000D02*
X120312500Y-115525000D01*
G75*
G02*
X120250000Y-115462500I0J62500D01*
G01*
X120250000Y-114587500D01*
G75*
G02*
X120312500Y-114525000I62500J0D01*
G01*
X120437500Y-114525000D01*
G75*
G02*
X120500000Y-114587500I0J-62500D01*
G01*
X120500000Y-115462500D01*
G75*
G02*
X120437500Y-115525000I-62500J0D01*
G01*
G37*
%TD.AperFunction*%
%TO.P,U2,11*%
%TA.AperFunction,SMDPad,CuDef*%
G36*
G01*
X119937500Y-115525000D02*
X119812500Y-115525000D01*
G75*
G02*
X119750000Y-115462500I0J62500D01*
G01*
X119750000Y-114587500D01*
G75*
G02*
X119812500Y-114525000I62500J0D01*
G01*
X119937500Y-114525000D01*
G75*
G02*
X120000000Y-114587500I0J-62500D01*
G01*
X120000000Y-115462500D01*
G75*
G02*
X119937500Y-115525000I-62500J0D01*
G01*
G37*
%TD.AperFunction*%
%TO.P,U2,10*%
%TA.AperFunction,SMDPad,CuDef*%
G36*
G01*
X119312500Y-116150000D02*
X118437500Y-116150000D01*
G75*
G02*
X118375000Y-116087500I0J62500D01*
G01*
X118375000Y-115962500D01*
G75*
G02*
X118437500Y-115900000I62500J0D01*
G01*
X119312500Y-115900000D01*
G75*
G02*
X119375000Y-115962500I0J-62500D01*
G01*
X119375000Y-116087500D01*
G75*
G02*
X119312500Y-116150000I-62500J0D01*
G01*
G37*
%TD.AperFunction*%
%TO.P,U2,9*%
%TO.N,D-*%
%TA.AperFunction,SMDPad,CuDef*%
G36*
G01*
X119312500Y-116650000D02*
X118437500Y-116650000D01*
G75*
G02*
X118375000Y-116587500I0J62500D01*
G01*
X118375000Y-116462500D01*
G75*
G02*
X118437500Y-116400000I62500J0D01*
G01*
X119312500Y-116400000D01*
G75*
G02*
X119375000Y-116462500I0J-62500D01*
G01*
X119375000Y-116587500D01*
G75*
G02*
X119312500Y-116650000I-62500J0D01*
G01*
G37*
%TD.AperFunction*%
%TO.P,U2,8*%
%TO.N,D+*%
%TA.AperFunction,SMDPad,CuDef*%
G36*
G01*
X119312500Y-117150000D02*
X118437500Y-117150000D01*
G75*
G02*
X118375000Y-117087500I0J62500D01*
G01*
X118375000Y-116962500D01*
G75*
G02*
X118437500Y-116900000I62500J0D01*
G01*
X119312500Y-116900000D01*
G75*
G02*
X119375000Y-116962500I0J-62500D01*
G01*
X119375000Y-117087500D01*
G75*
G02*
X119312500Y-117150000I-62500J0D01*
G01*
G37*
%TD.AperFunction*%
%TO.P,U2,7*%
%TO.N,Net-(U2-Pad7)*%
%TA.AperFunction,SMDPad,CuDef*%
G36*
G01*
X119312500Y-117650000D02*
X118437500Y-117650000D01*
G75*
G02*
X118375000Y-117587500I0J62500D01*
G01*
X118375000Y-117462500D01*
G75*
G02*
X118437500Y-117400000I62500J0D01*
G01*
X119312500Y-117400000D01*
G75*
G02*
X119375000Y-117462500I0J-62500D01*
G01*
X119375000Y-117587500D01*
G75*
G02*
X119312500Y-117650000I-62500J0D01*
G01*
G37*
%TD.AperFunction*%
%TO.P,U2,6*%
%TO.N,GND*%
%TA.AperFunction,SMDPad,CuDef*%
G36*
G01*
X119312500Y-118150000D02*
X118437500Y-118150000D01*
G75*
G02*
X118375000Y-118087500I0J62500D01*
G01*
X118375000Y-117962500D01*
G75*
G02*
X118437500Y-117900000I62500J0D01*
G01*
X119312500Y-117900000D01*
G75*
G02*
X119375000Y-117962500I0J-62500D01*
G01*
X119375000Y-118087500D01*
G75*
G02*
X119312500Y-118150000I-62500J0D01*
G01*
G37*
%TD.AperFunction*%
%TO.P,U2,5*%
%TA.AperFunction,SMDPad,CuDef*%
G36*
G01*
X119937500Y-119525000D02*
X119812500Y-119525000D01*
G75*
G02*
X119750000Y-119462500I0J62500D01*
G01*
X119750000Y-118587500D01*
G75*
G02*
X119812500Y-118525000I62500J0D01*
G01*
X119937500Y-118525000D01*
G75*
G02*
X120000000Y-118587500I0J-62500D01*
G01*
X120000000Y-119462500D01*
G75*
G02*
X119937500Y-119525000I-62500J0D01*
G01*
G37*
%TD.AperFunction*%
%TO.P,U2,4*%
%TA.AperFunction,SMDPad,CuDef*%
G36*
G01*
X120437500Y-119525000D02*
X120312500Y-119525000D01*
G75*
G02*
X120250000Y-119462500I0J62500D01*
G01*
X120250000Y-118587500D01*
G75*
G02*
X120312500Y-118525000I62500J0D01*
G01*
X120437500Y-118525000D01*
G75*
G02*
X120500000Y-118587500I0J-62500D01*
G01*
X120500000Y-119462500D01*
G75*
G02*
X120437500Y-119525000I-62500J0D01*
G01*
G37*
%TD.AperFunction*%
%TO.P,U2,3*%
%TA.AperFunction,SMDPad,CuDef*%
G36*
G01*
X120937500Y-119525000D02*
X120812500Y-119525000D01*
G75*
G02*
X120750000Y-119462500I0J62500D01*
G01*
X120750000Y-118587500D01*
G75*
G02*
X120812500Y-118525000I62500J0D01*
G01*
X120937500Y-118525000D01*
G75*
G02*
X121000000Y-118587500I0J-62500D01*
G01*
X121000000Y-119462500D01*
G75*
G02*
X120937500Y-119525000I-62500J0D01*
G01*
G37*
%TD.AperFunction*%
%TO.P,U2,2*%
%TA.AperFunction,SMDPad,CuDef*%
G36*
G01*
X121437500Y-119525000D02*
X121312500Y-119525000D01*
G75*
G02*
X121250000Y-119462500I0J62500D01*
G01*
X121250000Y-118587500D01*
G75*
G02*
X121312500Y-118525000I62500J0D01*
G01*
X121437500Y-118525000D01*
G75*
G02*
X121500000Y-118587500I0J-62500D01*
G01*
X121500000Y-119462500D01*
G75*
G02*
X121437500Y-119525000I-62500J0D01*
G01*
G37*
%TD.AperFunction*%
%TO.P,U2,1*%
%TO.N,O*%
%TA.AperFunction,SMDPad,CuDef*%
G36*
G01*
X121937500Y-119525000D02*
X121812500Y-119525000D01*
G75*
G02*
X121750000Y-119462500I0J62500D01*
G01*
X121750000Y-118587500D01*
G75*
G02*
X121812500Y-118525000I62500J0D01*
G01*
X121937500Y-118525000D01*
G75*
G02*
X122000000Y-118587500I0J-62500D01*
G01*
X122000000Y-119462500D01*
G75*
G02*
X121937500Y-119525000I-62500J0D01*
G01*
G37*
%TD.AperFunction*%
%TD*%
%TO.P,C1,2*%
%TO.N,IO1*%
%TA.AperFunction,SMDPad,CuDef*%
G36*
G01*
X113662500Y-120850001D02*
X113662500Y-119549999D01*
G75*
G02*
X113912499Y-119300000I249999J0D01*
G01*
X114737501Y-119300000D01*
G75*
G02*
X114987500Y-119549999I0J-249999D01*
G01*
X114987500Y-120850001D01*
G75*
G02*
X114737501Y-121100000I-249999J0D01*
G01*
X113912499Y-121100000D01*
G75*
G02*
X113662500Y-120850001I0J249999D01*
G01*
G37*
%TD.AperFunction*%
%TO.P,C1,1*%
%TO.N,GND*%
%TA.AperFunction,SMDPad,CuDef*%
G36*
G01*
X110537500Y-120850001D02*
X110537500Y-119549999D01*
G75*
G02*
X110787499Y-119300000I249999J0D01*
G01*
X111612501Y-119300000D01*
G75*
G02*
X111862500Y-119549999I0J-249999D01*
G01*
X111862500Y-120850001D01*
G75*
G02*
X111612501Y-121100000I-249999J0D01*
G01*
X110787499Y-121100000D01*
G75*
G02*
X110537500Y-120850001I0J249999D01*
G01*
G37*
%TD.AperFunction*%
%TD*%
%TO.P,R6,2*%
%TO.N,Net-(J1-Pad6)*%
%TA.AperFunction,SMDPad,CuDef*%
G36*
G01*
X125500000Y-119575000D02*
X125500000Y-120825000D01*
G75*
G02*
X125250000Y-121075000I-250000J0D01*
G01*
X124450000Y-121075000D01*
G75*
G02*
X124200000Y-120825000I0J250000D01*
G01*
X124200000Y-119575000D01*
G75*
G02*
X124450000Y-119325000I250000J0D01*
G01*
X125250000Y-119325000D01*
G75*
G02*
X125500000Y-119575000I0J-250000D01*
G01*
G37*
%TD.AperFunction*%
%TO.P,R6,1*%
%TO.N,IO5*%
%TA.AperFunction,SMDPad,CuDef*%
G36*
G01*
X128600000Y-119575000D02*
X128600000Y-120825000D01*
G75*
G02*
X128350000Y-121075000I-250000J0D01*
G01*
X127550000Y-121075000D01*
G75*
G02*
X127300000Y-120825000I0J250000D01*
G01*
X127300000Y-119575000D01*
G75*
G02*
X127550000Y-119325000I250000J0D01*
G01*
X128350000Y-119325000D01*
G75*
G02*
X128600000Y-119575000I0J-250000D01*
G01*
G37*
%TD.AperFunction*%
%TD*%
D14*
%TO.P,J3,2*%
%TO.N,VBUS*%
X112200000Y-125660000D03*
D13*
%TO.P,J3,1*%
%TO.N,GND*%
X112200000Y-128200000D03*
%TD*%
%TO.P,R5,2*%
%TO.N,Net-(J1-Pad6)*%
%TA.AperFunction,SMDPad,CuDef*%
G36*
G01*
X127125000Y-125850000D02*
X125875000Y-125850000D01*
G75*
G02*
X125625000Y-125600000I0J250000D01*
G01*
X125625000Y-124800000D01*
G75*
G02*
X125875000Y-124550000I250000J0D01*
G01*
X127125000Y-124550000D01*
G75*
G02*
X127375000Y-124800000I0J-250000D01*
G01*
X127375000Y-125600000D01*
G75*
G02*
X127125000Y-125850000I-250000J0D01*
G01*
G37*
%TD.AperFunction*%
%TO.P,R5,1*%
%TO.N,VBUS*%
%TA.AperFunction,SMDPad,CuDef*%
G36*
G01*
X127125000Y-128950000D02*
X125875000Y-128950000D01*
G75*
G02*
X125625000Y-128700000I0J250000D01*
G01*
X125625000Y-127900000D01*
G75*
G02*
X125875000Y-127650000I250000J0D01*
G01*
X127125000Y-127650000D01*
G75*
G02*
X127375000Y-127900000I0J-250000D01*
G01*
X127375000Y-128700000D01*
G75*
G02*
X127125000Y-128950000I-250000J0D01*
G01*
G37*
%TD.AperFunction*%
%TD*%
%TO.P,R4,2*%
%TO.N,IO4*%
%TA.AperFunction,SMDPad,CuDef*%
G36*
G01*
X123855000Y-125850000D02*
X122605000Y-125850000D01*
G75*
G02*
X122355000Y-125600000I0J250000D01*
G01*
X122355000Y-124800000D01*
G75*
G02*
X122605000Y-124550000I250000J0D01*
G01*
X123855000Y-124550000D01*
G75*
G02*
X124105000Y-124800000I0J-250000D01*
G01*
X124105000Y-125600000D01*
G75*
G02*
X123855000Y-125850000I-250000J0D01*
G01*
G37*
%TD.AperFunction*%
%TO.P,R4,1*%
%TO.N,+3V3*%
%TA.AperFunction,SMDPad,CuDef*%
G36*
G01*
X123855000Y-128950000D02*
X122605000Y-128950000D01*
G75*
G02*
X122355000Y-128700000I0J250000D01*
G01*
X122355000Y-127900000D01*
G75*
G02*
X122605000Y-127650000I250000J0D01*
G01*
X123855000Y-127650000D01*
G75*
G02*
X124105000Y-127900000I0J-250000D01*
G01*
X124105000Y-128700000D01*
G75*
G02*
X123855000Y-128950000I-250000J0D01*
G01*
G37*
%TD.AperFunction*%
%TD*%
%TO.P,R3,2*%
%TO.N,IO3*%
%TA.AperFunction,SMDPad,CuDef*%
G36*
G01*
X121355000Y-125850000D02*
X120105000Y-125850000D01*
G75*
G02*
X119855000Y-125600000I0J250000D01*
G01*
X119855000Y-124800000D01*
G75*
G02*
X120105000Y-124550000I250000J0D01*
G01*
X121355000Y-124550000D01*
G75*
G02*
X121605000Y-124800000I0J-250000D01*
G01*
X121605000Y-125600000D01*
G75*
G02*
X121355000Y-125850000I-250000J0D01*
G01*
G37*
%TD.AperFunction*%
%TO.P,R3,1*%
%TO.N,+3V3*%
%TA.AperFunction,SMDPad,CuDef*%
G36*
G01*
X121355000Y-128950000D02*
X120105000Y-128950000D01*
G75*
G02*
X119855000Y-128700000I0J250000D01*
G01*
X119855000Y-127900000D01*
G75*
G02*
X120105000Y-127650000I250000J0D01*
G01*
X121355000Y-127650000D01*
G75*
G02*
X121605000Y-127900000I0J-250000D01*
G01*
X121605000Y-128700000D01*
G75*
G02*
X121355000Y-128950000I-250000J0D01*
G01*
G37*
%TD.AperFunction*%
%TD*%
%TO.P,R2,2*%
%TO.N,IO2*%
%TA.AperFunction,SMDPad,CuDef*%
G36*
G01*
X118855000Y-125850000D02*
X117605000Y-125850000D01*
G75*
G02*
X117355000Y-125600000I0J250000D01*
G01*
X117355000Y-124800000D01*
G75*
G02*
X117605000Y-124550000I250000J0D01*
G01*
X118855000Y-124550000D01*
G75*
G02*
X119105000Y-124800000I0J-250000D01*
G01*
X119105000Y-125600000D01*
G75*
G02*
X118855000Y-125850000I-250000J0D01*
G01*
G37*
%TD.AperFunction*%
%TO.P,R2,1*%
%TO.N,+3V3*%
%TA.AperFunction,SMDPad,CuDef*%
G36*
G01*
X118855000Y-128950000D02*
X117605000Y-128950000D01*
G75*
G02*
X117355000Y-128700000I0J250000D01*
G01*
X117355000Y-127900000D01*
G75*
G02*
X117605000Y-127650000I250000J0D01*
G01*
X118855000Y-127650000D01*
G75*
G02*
X119105000Y-127900000I0J-250000D01*
G01*
X119105000Y-128700000D01*
G75*
G02*
X118855000Y-128950000I-250000J0D01*
G01*
G37*
%TD.AperFunction*%
%TD*%
%TO.P,R1,2*%
%TO.N,IO1*%
%TA.AperFunction,SMDPad,CuDef*%
G36*
G01*
X116355000Y-125850000D02*
X115105000Y-125850000D01*
G75*
G02*
X114855000Y-125600000I0J250000D01*
G01*
X114855000Y-124800000D01*
G75*
G02*
X115105000Y-124550000I250000J0D01*
G01*
X116355000Y-124550000D01*
G75*
G02*
X116605000Y-124800000I0J-250000D01*
G01*
X116605000Y-125600000D01*
G75*
G02*
X116355000Y-125850000I-250000J0D01*
G01*
G37*
%TD.AperFunction*%
%TO.P,R1,1*%
%TO.N,+3V3*%
%TA.AperFunction,SMDPad,CuDef*%
G36*
G01*
X116355000Y-128950000D02*
X115105000Y-128950000D01*
G75*
G02*
X114855000Y-128700000I0J250000D01*
G01*
X114855000Y-127900000D01*
G75*
G02*
X115105000Y-127650000I250000J0D01*
G01*
X116355000Y-127650000D01*
G75*
G02*
X116605000Y-127900000I0J-250000D01*
G01*
X116605000Y-128700000D01*
G75*
G02*
X116355000Y-128950000I-250000J0D01*
G01*
G37*
%TD.AperFunction*%
%TD*%
D28*
%TO.P,J2,S1*%
%TO.N,GND*%
X115220000Y-107180000D03*
X115230000Y-115230000D03*
X115240000Y-108310000D03*
X115370000Y-108310000D03*
X115240000Y-114100000D03*
X115390000Y-114100000D03*
D29*
X111880000Y-114810000D03*
%TA.AperFunction,SMDPad,CuDef*%
D16*
G36*
X116133934Y-107522513D02*
G01*
X116487487Y-107876066D01*
X116346066Y-108017487D01*
X115992513Y-107663934D01*
X116133934Y-107522513D01*
G37*
%TD.AperFunction*%
%TA.AperFunction,SMDPad,CuDef*%
G36*
X115932513Y-114756066D02*
G01*
X116286066Y-114402513D01*
X116427487Y-114543934D01*
X116073934Y-114897487D01*
X115932513Y-114756066D01*
G37*
%TD.AperFunction*%
D29*
X111880000Y-107580000D03*
D30*
X112545000Y-111200000D03*
D31*
%TO.P,J2,A12*%
X116660000Y-108000000D03*
%TO.P,J2,A4*%
%TO.N,VBUS*%
X116660000Y-113600000D03*
%TO.P,J2,B12*%
%TO.N,GND*%
X116660000Y-114400000D03*
%TO.P,J2,B4*%
%TO.N,VBUS*%
X116660000Y-108800000D03*
D32*
%TO.P,J2,S1*%
%TO.N,GND*%
X111890000Y-106875000D03*
X111890000Y-115525000D03*
D33*
X116070000Y-106875000D03*
X116070000Y-115525000D03*
D34*
%TO.P,J2,A7*%
%TO.N,D-*%
X116660000Y-110950000D03*
%TO.P,J2,A6*%
%TO.N,D+*%
X116660000Y-111450000D03*
%TO.P,J2,B6*%
X116660000Y-110450000D03*
%TO.P,J2,B7*%
%TO.N,D-*%
X116660000Y-111950000D03*
%TO.P,J2,A8*%
%TO.N,Net-(J2-PadA8)*%
X116660000Y-109950000D03*
%TO.P,J2,A5*%
%TO.N,Net-(J2-PadA5)*%
X116660000Y-112450000D03*
%TO.P,J2,B5*%
%TO.N,Net-(J2-PadB5)*%
X116660000Y-109450000D03*
%TO.P,J2,B8*%
%TO.N,Net-(J2-PadB8)*%
X116660000Y-112950000D03*
D31*
%TO.P,J2,A9*%
%TO.N,VBUS*%
X116660000Y-108800000D03*
%TO.P,J2,B9*%
X116660000Y-113600000D03*
%TO.P,J2,B1*%
%TO.N,GND*%
X116660000Y-108000000D03*
D35*
%TO.P,J2,S1*%
X115590000Y-108310000D03*
X115590000Y-114090000D03*
D31*
%TO.P,J2,A1*%
X116660000Y-114400000D03*
%TD*%
D36*
%TO.N,GND*%
X118600000Y-109700000D03*
X124100000Y-115400000D03*
X112300000Y-101650000D03*
%TO.N,D-*%
X121600000Y-110747992D03*
X123148206Y-112312246D03*
X121600719Y-112198004D03*
%TO.N,+3V3*%
X113629916Y-126374388D03*
X118750000Y-103750000D03*
X126221157Y-116087612D03*
X124212651Y-118148151D03*
%TO.N,VBUS*%
X117735755Y-113422822D03*
X124399990Y-109451066D03*
X125002467Y-128324922D03*
%TO.N,IO5*%
X126481687Y-118011366D03*
%TO.N,IO4*%
X113800000Y-117304974D03*
%TO.N,O*%
X115700000Y-117754989D03*
%TO.N,I*%
X126350032Y-114962407D03*
%TO.N,EN*%
X112710202Y-116755063D03*
%TO.N,Net-(J2-PadA5)*%
X119500000Y-112895002D03*
X114637340Y-102362660D03*
%TO.N,GPIO0*%
X125314209Y-116920525D03*
%TD*%
D37*
%TO.N,D+*%
X118650000Y-111450000D02*
X116660000Y-111450000D01*
X116660000Y-110450000D02*
X120799599Y-110450000D01*
X122325001Y-110361458D02*
X122325001Y-111248001D01*
X121963543Y-110000000D02*
X122325001Y-110361458D01*
X121249599Y-110000000D02*
X121963543Y-110000000D01*
X122325001Y-111248001D02*
X122100000Y-111473002D01*
X120799599Y-110450000D02*
X121249599Y-110000000D01*
X118673002Y-111473002D02*
X118650000Y-111450000D01*
X120873002Y-111473002D02*
X118673002Y-111473002D01*
X122100000Y-111473002D02*
X120873002Y-111473002D01*
X121699040Y-113125002D02*
X120429155Y-113125002D01*
X120429155Y-113125002D02*
X119934144Y-113620013D01*
X119934144Y-113620013D02*
X118643576Y-113620013D01*
X117574979Y-114688610D02*
X117574979Y-116434412D01*
X120873002Y-111473002D02*
X121931962Y-111473002D01*
X122423204Y-112400838D02*
X121699040Y-113125002D01*
X121931962Y-111473002D02*
X122423204Y-111964244D01*
X122423204Y-111964244D02*
X122423204Y-112400838D01*
X118643576Y-113620013D02*
X117574979Y-114688610D01*
X117574979Y-116434412D02*
X118165567Y-117025000D01*
X118165567Y-117025000D02*
X118850000Y-117025000D01*
%TO.N,GND*%
X116070000Y-115525000D02*
X112545000Y-112000000D01*
X116070000Y-106875000D02*
X112545000Y-110400000D01*
X111890000Y-115525000D02*
X111890000Y-111855000D01*
X120875000Y-115000000D02*
X120875000Y-117025000D01*
X121375000Y-117525000D02*
X120875000Y-117025000D01*
X121375000Y-119050000D02*
X121375000Y-117525000D01*
X120875000Y-119050000D02*
X120875000Y-117025000D01*
X120375000Y-117525000D02*
X120875000Y-117025000D01*
X120375000Y-119050000D02*
X120375000Y-117525000D01*
X119875000Y-119050000D02*
X119875000Y-118025000D01*
D38*
X118600000Y-109700000D02*
X118600000Y-104900000D01*
D37*
X111737500Y-106722500D02*
X111890000Y-106875000D01*
D38*
X120250000Y-102225000D02*
X119025000Y-102225000D01*
X125250000Y-110887500D02*
X125000000Y-111137500D01*
X125250000Y-107500000D02*
X125250000Y-110887500D01*
D37*
X120387500Y-108000000D02*
X120387500Y-108637500D01*
X124373863Y-111137500D02*
X125000000Y-111137500D01*
X122317947Y-109081585D02*
X124373863Y-111137500D01*
X120831584Y-109081584D02*
X122317947Y-109081585D01*
X120387500Y-108637500D02*
X120831584Y-109081584D01*
D38*
X120387500Y-108000000D02*
X120387500Y-109112500D01*
D37*
X119875000Y-118025000D02*
X120875000Y-117025000D01*
X118850000Y-118025000D02*
X119875000Y-118025000D01*
X117000000Y-118000000D02*
X117000000Y-117800000D01*
X112300000Y-101737500D02*
X111737500Y-102300000D01*
X112300000Y-101650000D02*
X112300000Y-101737500D01*
D38*
X111890000Y-115525000D02*
X110800000Y-116615000D01*
X110800000Y-116615000D02*
X110800000Y-117500000D01*
X111200000Y-117900000D02*
X111200000Y-120200000D01*
X110800000Y-117500000D02*
X111200000Y-117900000D01*
D37*
X117000000Y-118000000D02*
X116070000Y-117070000D01*
X116070000Y-117070000D02*
X116070000Y-115525000D01*
X118850000Y-118000000D02*
X117000000Y-118000000D01*
X119875000Y-119025000D02*
X118850000Y-118000000D01*
%TO.N,D-*%
X116660000Y-110950000D02*
X121397992Y-110950000D01*
X121397992Y-110950000D02*
X121600000Y-110747992D01*
X121352715Y-111950000D02*
X121600719Y-112198004D01*
X116660000Y-111950000D02*
X121352715Y-111950000D01*
X121885439Y-113575013D02*
X123148206Y-112312246D01*
X120615555Y-113575013D02*
X121885439Y-113575013D01*
X118024990Y-114875010D02*
X118829976Y-114070024D01*
X118024990Y-116248012D02*
X118024990Y-114875010D01*
X120120544Y-114070024D02*
X120615555Y-113575013D01*
X118850000Y-116525000D02*
X118301978Y-116525000D01*
X118829976Y-114070024D02*
X120120544Y-114070024D01*
X118301978Y-116525000D02*
X118024990Y-116248012D01*
%TO.N,+3V3*%
X115730000Y-128300000D02*
X118230000Y-128300000D01*
X118230000Y-128300000D02*
X120730000Y-128300000D01*
X120730000Y-128300000D02*
X123230000Y-128300000D01*
X115730000Y-128300000D02*
X115555528Y-128300000D01*
X115555528Y-128300000D02*
X113629916Y-126374388D01*
X124835231Y-112697731D02*
X125000000Y-112862500D01*
X123899977Y-112697731D02*
X124835231Y-112697731D01*
X119275000Y-104275000D02*
X118750000Y-103750000D01*
X120250000Y-104275000D02*
X119275000Y-104275000D01*
X121031594Y-109531594D02*
X122131546Y-109531594D01*
X120563188Y-110000000D02*
X121031594Y-109531594D01*
X120000000Y-110000000D02*
X120563188Y-110000000D01*
X119175010Y-109175010D02*
X120000000Y-110000000D01*
X119975000Y-104275000D02*
X119175010Y-105074990D01*
X119175010Y-105074990D02*
X119175010Y-109175010D01*
X120250000Y-104275000D02*
X119975000Y-104275000D01*
X122849976Y-110250024D02*
X122849976Y-111349976D01*
X122131546Y-109531594D02*
X122849976Y-110250024D01*
X122849976Y-111349976D02*
X123000000Y-111500000D01*
X123500000Y-111500000D02*
X123899977Y-111899977D01*
X123000000Y-111500000D02*
X123500000Y-111500000D01*
X123899977Y-111899977D02*
X123899977Y-112697731D01*
X123560461Y-113037247D02*
X123899977Y-112697731D01*
X121921872Y-114174990D02*
X123059615Y-113037247D01*
X120651988Y-114174990D02*
X121921872Y-114174990D01*
X120375000Y-114451978D02*
X120651988Y-114174990D01*
X120375000Y-115000000D02*
X120375000Y-114451978D01*
X119875000Y-115000000D02*
X120375000Y-115000000D01*
X123059615Y-113037247D02*
X123560461Y-113037247D01*
X118850000Y-116025000D02*
X119875000Y-115000000D01*
X122875000Y-118025000D02*
X124089500Y-118025000D01*
X124089500Y-118025000D02*
X124212651Y-118148151D01*
X125000000Y-112862500D02*
X125000000Y-114149980D01*
X126786842Y-116087612D02*
X126221157Y-116087612D01*
X125025010Y-114174990D02*
X126623840Y-114174990D01*
X125000000Y-114149980D02*
X125025010Y-114174990D01*
X127101821Y-114652971D02*
X127101821Y-115772633D01*
X126623840Y-114174990D02*
X127101821Y-114652971D01*
X127101821Y-115772633D02*
X126786842Y-116087612D01*
%TO.N,VBUS*%
X116004998Y-113600000D02*
X116660000Y-113600000D01*
X115764999Y-113360001D02*
X116004998Y-113600000D01*
X115764999Y-109039999D02*
X115764999Y-113360001D01*
X116004998Y-108800000D02*
X115764999Y-109039999D01*
X116660000Y-108800000D02*
X116004998Y-108800000D01*
X116660000Y-113600000D02*
X117550000Y-113600000D01*
X117558577Y-113600000D02*
X117735755Y-113422822D01*
X116660000Y-113600000D02*
X117558577Y-113600000D01*
X123900000Y-108450000D02*
X123900000Y-107500000D01*
X123900000Y-108951076D02*
X124399990Y-109451066D01*
X123900000Y-108450000D02*
X123900000Y-108951076D01*
X125027389Y-128300000D02*
X125002467Y-128324922D01*
X126500000Y-128300000D02*
X125027389Y-128300000D01*
%TO.N,IO5*%
X127950000Y-119479679D02*
X127950000Y-120200000D01*
X126481687Y-118011366D02*
X127950000Y-119479679D01*
%TO.N,IO4*%
X123500000Y-123170000D02*
X123230000Y-122900000D01*
X123315000Y-125115000D02*
X123230000Y-125200000D01*
X123315000Y-122900000D02*
X123315000Y-125115000D01*
X113800000Y-117304974D02*
X113800000Y-117799310D01*
X113800000Y-117799310D02*
X115900000Y-119899310D01*
X115900000Y-119899310D02*
X117457486Y-119899310D01*
X118629088Y-121070912D02*
X122270912Y-121070912D01*
X117457486Y-119899310D02*
X118629088Y-121070912D01*
X123315000Y-122115000D02*
X123315000Y-122900000D01*
X122270912Y-121070912D02*
X123315000Y-122115000D01*
%TO.N,IO3*%
X120775000Y-125155000D02*
X120730000Y-125200000D01*
X120775000Y-122900000D02*
X120775000Y-125155000D01*
%TO.N,IO2*%
X118235000Y-125195000D02*
X118230000Y-125200000D01*
X118235000Y-122900000D02*
X118235000Y-125195000D01*
%TO.N,IO1*%
X114325000Y-120200000D02*
X114325000Y-121495000D01*
X115695000Y-125165000D02*
X115730000Y-125200000D01*
X115695000Y-122900000D02*
X115695000Y-125165000D01*
X114325000Y-121530000D02*
X114325000Y-121495000D01*
X115695000Y-122900000D02*
X114325000Y-121530000D01*
%TO.N,O*%
X118981007Y-120150011D02*
X121298011Y-120150011D01*
X117830286Y-118999288D02*
X118981007Y-120150011D01*
X121875000Y-119573022D02*
X121875000Y-119025000D01*
X115700000Y-117754989D02*
X116944299Y-118999288D01*
X116944299Y-118999288D02*
X117830286Y-118999288D01*
X121298011Y-120150011D02*
X121875000Y-119573022D01*
%TO.N,I*%
X122900000Y-116525000D02*
X123329174Y-116525000D01*
X123329174Y-116525000D02*
X123379198Y-116474976D01*
X123379198Y-116474976D02*
X124271778Y-116474976D01*
X124271778Y-116474976D02*
X125784347Y-114962407D01*
X125784347Y-114962407D02*
X126350032Y-114962407D01*
%TO.N,EN*%
X123703856Y-117423141D02*
X124596145Y-117423141D01*
X113110201Y-116355064D02*
X112710202Y-116755063D01*
X124596145Y-117423141D02*
X124937661Y-117764659D01*
X123601996Y-117525000D02*
X123703856Y-117423141D01*
X118794608Y-120600022D02*
X117643886Y-119449299D01*
X124937661Y-118535343D02*
X124548002Y-118925002D01*
X122875000Y-117525000D02*
X123601996Y-117525000D01*
X116185709Y-119449299D02*
X114625001Y-117888591D01*
X117643886Y-119449299D02*
X116185709Y-119449299D01*
X114128066Y-116355064D02*
X113110201Y-116355064D01*
X114625001Y-117888591D02*
X114625001Y-116851999D01*
X124937661Y-117764659D02*
X124937661Y-118535343D01*
X124168606Y-118925002D02*
X122493586Y-120600022D01*
X114625001Y-116851999D02*
X114128066Y-116355064D01*
X122493586Y-120600022D02*
X118794608Y-120600022D01*
X124548002Y-118925002D02*
X124168606Y-118925002D01*
%TO.N,Net-(J2-PadA5)*%
X116660000Y-112450000D02*
X119054998Y-112450000D01*
X119054998Y-112450000D02*
X119500000Y-112895002D01*
X113562500Y-102300000D02*
X114574680Y-102300000D01*
X114574680Y-102300000D02*
X114637340Y-102362660D01*
%TO.N,Net-(J2-PadB5)*%
X117480000Y-109450000D02*
X116660000Y-109450000D01*
X117924990Y-106773414D02*
X117924990Y-109005010D01*
X117924990Y-109005010D02*
X117480000Y-109450000D01*
X115901576Y-104750000D02*
X117924990Y-106773414D01*
X113562500Y-104750000D02*
X115901576Y-104750000D01*
%TO.N,Net-(J1-Pad6)*%
X124850000Y-121895000D02*
X124850000Y-121600000D01*
X124850000Y-120200000D02*
X124850000Y-121600000D01*
X124850000Y-121895000D02*
X125855000Y-122900000D01*
X125855000Y-124555000D02*
X126500000Y-125200000D01*
X125855000Y-122900000D02*
X125855000Y-124555000D01*
%TO.N,GPIO0*%
X123465586Y-117025000D02*
X123517456Y-116973130D01*
X122875000Y-117025000D02*
X123465586Y-117025000D01*
X125261607Y-116973130D02*
X124973130Y-116973130D01*
X125261604Y-116973130D02*
X123826870Y-116973130D01*
X125314209Y-116920525D02*
X125261604Y-116973130D01*
X123826870Y-116973130D02*
X125261602Y-116973130D01*
X123517456Y-116973130D02*
X123826870Y-116973130D01*
%TD*%
D39*
%TO.N,GND*%
X125373000Y-109226250D02*
X125531750Y-109385000D01*
X125630813Y-109374519D01*
X125750137Y-109336999D01*
X125859848Y-109276920D01*
X125955731Y-109196593D01*
X125990112Y-109153824D01*
X127380000Y-109153824D01*
X127453905Y-109146545D01*
X127524970Y-109124988D01*
X127590463Y-109089981D01*
X127643000Y-109046865D01*
X127643000Y-114840809D01*
X128573000Y-114840809D01*
X128573001Y-118988691D01*
X128472677Y-118958259D01*
X128350000Y-118946176D01*
X128126432Y-118946176D01*
X127258687Y-118078432D01*
X127258687Y-117934838D01*
X127228828Y-117784723D01*
X127170256Y-117643318D01*
X127085223Y-117516057D01*
X126976996Y-117407830D01*
X126849735Y-117322797D01*
X126708330Y-117264225D01*
X126558215Y-117234366D01*
X126405159Y-117234366D01*
X126255044Y-117264225D01*
X126113639Y-117322797D01*
X125986378Y-117407830D01*
X125878151Y-117516057D01*
X125793118Y-117643318D01*
X125734546Y-117784723D01*
X125704687Y-117934838D01*
X125704687Y-118087894D01*
X125734546Y-118238009D01*
X125793118Y-118379414D01*
X125878151Y-118506675D01*
X125986378Y-118614902D01*
X126113639Y-118699935D01*
X126255044Y-118758507D01*
X126405159Y-118788366D01*
X126548753Y-118788366D01*
X127012828Y-119252442D01*
X126969042Y-119334359D01*
X126933259Y-119452323D01*
X126921176Y-119575000D01*
X126921176Y-120825000D01*
X126933259Y-120947677D01*
X126969042Y-121065641D01*
X127027152Y-121174356D01*
X127105354Y-121269646D01*
X127200644Y-121347848D01*
X127309359Y-121405958D01*
X127427323Y-121441741D01*
X127550000Y-121453824D01*
X128350000Y-121453824D01*
X128472677Y-121441741D01*
X128573001Y-121411309D01*
X128573001Y-128979107D01*
X128560078Y-129110899D01*
X128527873Y-129217570D01*
X128475558Y-129315961D01*
X128405130Y-129402313D01*
X128319270Y-129473343D01*
X128221255Y-129526339D01*
X128114807Y-129559290D01*
X127984371Y-129573000D01*
X113413678Y-129573000D01*
X113501185Y-129501185D01*
X113580537Y-129404494D01*
X113639502Y-129294180D01*
X113675812Y-129174482D01*
X113688072Y-129050000D01*
X113685000Y-128485750D01*
X113526250Y-128327000D01*
X112327000Y-128327000D01*
X112327000Y-128347000D01*
X112073000Y-128347000D01*
X112073000Y-128327000D01*
X110873750Y-128327000D01*
X110715000Y-128485750D01*
X110711928Y-129050000D01*
X110724188Y-129174482D01*
X110760498Y-129294180D01*
X110819463Y-129404494D01*
X110898815Y-129501185D01*
X110981633Y-129569151D01*
X110889101Y-129560078D01*
X110782430Y-129527873D01*
X110684039Y-129475558D01*
X110597687Y-129405130D01*
X110526657Y-129319270D01*
X110473661Y-129221255D01*
X110440710Y-129114807D01*
X110427000Y-128984371D01*
X110427000Y-127350000D01*
X110711928Y-127350000D01*
X110715000Y-127914250D01*
X110873750Y-128073000D01*
X112073000Y-128073000D01*
X112073000Y-128053000D01*
X112327000Y-128053000D01*
X112327000Y-128073000D01*
X113526250Y-128073000D01*
X113685000Y-127914250D01*
X113688072Y-127350000D01*
X113675812Y-127225518D01*
X113653325Y-127151388D01*
X113696982Y-127151388D01*
X114476176Y-127930583D01*
X114476176Y-128700000D01*
X114488259Y-128822677D01*
X114524042Y-128940641D01*
X114582152Y-129049356D01*
X114660354Y-129144646D01*
X114755644Y-129222848D01*
X114864359Y-129280958D01*
X114982323Y-129316741D01*
X115105000Y-129328824D01*
X116355000Y-129328824D01*
X116477677Y-129316741D01*
X116595641Y-129280958D01*
X116704356Y-129222848D01*
X116799646Y-129144646D01*
X116877848Y-129049356D01*
X116935958Y-128940641D01*
X116971741Y-128822677D01*
X116973778Y-128802000D01*
X116986222Y-128802000D01*
X116988259Y-128822677D01*
X117024042Y-128940641D01*
X117082152Y-129049356D01*
X117160354Y-129144646D01*
X117255644Y-129222848D01*
X117364359Y-129280958D01*
X117482323Y-129316741D01*
X117605000Y-129328824D01*
X118855000Y-129328824D01*
X118977677Y-129316741D01*
X119095641Y-129280958D01*
X119204356Y-129222848D01*
X119299646Y-129144646D01*
X119377848Y-129049356D01*
X119435958Y-128940641D01*
X119471741Y-128822677D01*
X119473778Y-128802000D01*
X119486222Y-128802000D01*
X119488259Y-128822677D01*
X119524042Y-128940641D01*
X119582152Y-129049356D01*
X119660354Y-129144646D01*
X119755644Y-129222848D01*
X119864359Y-129280958D01*
X119982323Y-129316741D01*
X120105000Y-129328824D01*
X121355000Y-129328824D01*
X121477677Y-129316741D01*
X121595641Y-129280958D01*
X121704356Y-129222848D01*
X121799646Y-129144646D01*
X121877848Y-129049356D01*
X121935958Y-128940641D01*
X121971741Y-128822677D01*
X121973778Y-128802000D01*
X121986222Y-128802000D01*
X121988259Y-128822677D01*
X122024042Y-128940641D01*
X122082152Y-129049356D01*
X122160354Y-129144646D01*
X122255644Y-129222848D01*
X122364359Y-129280958D01*
X122482323Y-129316741D01*
X122605000Y-129328824D01*
X123855000Y-129328824D01*
X123977677Y-129316741D01*
X124095641Y-129280958D01*
X124204356Y-129222848D01*
X124299646Y-129144646D01*
X124377848Y-129049356D01*
X124435958Y-128940641D01*
X124455365Y-128876665D01*
X124507158Y-128928458D01*
X124634419Y-129013491D01*
X124775824Y-129072063D01*
X124925939Y-129101922D01*
X125078995Y-129101922D01*
X125229110Y-129072063D01*
X125339785Y-129026220D01*
X125352152Y-129049356D01*
X125430354Y-129144646D01*
X125525644Y-129222848D01*
X125634359Y-129280958D01*
X125752323Y-129316741D01*
X125875000Y-129328824D01*
X127125000Y-129328824D01*
X127247677Y-129316741D01*
X127365641Y-129280958D01*
X127474356Y-129222848D01*
X127569646Y-129144646D01*
X127647848Y-129049356D01*
X127705958Y-128940641D01*
X127741741Y-128822677D01*
X127753824Y-128700000D01*
X127753824Y-127900000D01*
X127741741Y-127777323D01*
X127705958Y-127659359D01*
X127647848Y-127550644D01*
X127569646Y-127455354D01*
X127474356Y-127377152D01*
X127365641Y-127319042D01*
X127247677Y-127283259D01*
X127125000Y-127271176D01*
X125875000Y-127271176D01*
X125752323Y-127283259D01*
X125634359Y-127319042D01*
X125525644Y-127377152D01*
X125430354Y-127455354D01*
X125352152Y-127550644D01*
X125317972Y-127614589D01*
X125229110Y-127577781D01*
X125078995Y-127547922D01*
X124925939Y-127547922D01*
X124775824Y-127577781D01*
X124634419Y-127636353D01*
X124507158Y-127721386D01*
X124466965Y-127761579D01*
X124435958Y-127659359D01*
X124377848Y-127550644D01*
X124299646Y-127455354D01*
X124204356Y-127377152D01*
X124095641Y-127319042D01*
X123977677Y-127283259D01*
X123855000Y-127271176D01*
X122605000Y-127271176D01*
X122482323Y-127283259D01*
X122364359Y-127319042D01*
X122255644Y-127377152D01*
X122160354Y-127455354D01*
X122082152Y-127550644D01*
X122024042Y-127659359D01*
X121988259Y-127777323D01*
X121986222Y-127798000D01*
X121973778Y-127798000D01*
X121971741Y-127777323D01*
X121935958Y-127659359D01*
X121877848Y-127550644D01*
X121799646Y-127455354D01*
X121704356Y-127377152D01*
X121595641Y-127319042D01*
X121477677Y-127283259D01*
X121355000Y-127271176D01*
X120105000Y-127271176D01*
X119982323Y-127283259D01*
X119864359Y-127319042D01*
X119755644Y-127377152D01*
X119660354Y-127455354D01*
X119582152Y-127550644D01*
X119524042Y-127659359D01*
X119488259Y-127777323D01*
X119486222Y-127798000D01*
X119473778Y-127798000D01*
X119471741Y-127777323D01*
X119435958Y-127659359D01*
X119377848Y-127550644D01*
X119299646Y-127455354D01*
X119204356Y-127377152D01*
X119095641Y-127319042D01*
X118977677Y-127283259D01*
X118855000Y-127271176D01*
X117605000Y-127271176D01*
X117482323Y-127283259D01*
X117364359Y-127319042D01*
X117255644Y-127377152D01*
X117160354Y-127455354D01*
X117082152Y-127550644D01*
X117024042Y-127659359D01*
X116988259Y-127777323D01*
X116986222Y-127798000D01*
X116973778Y-127798000D01*
X116971741Y-127777323D01*
X116935958Y-127659359D01*
X116877848Y-127550644D01*
X116799646Y-127455354D01*
X116704356Y-127377152D01*
X116595641Y-127319042D01*
X116477677Y-127283259D01*
X116355000Y-127271176D01*
X115236639Y-127271176D01*
X114406916Y-126441454D01*
X114406916Y-126297860D01*
X114377057Y-126147745D01*
X114318485Y-126006340D01*
X114233452Y-125879079D01*
X114125225Y-125770852D01*
X113997964Y-125685819D01*
X113856559Y-125627247D01*
X113706444Y-125597388D01*
X113553388Y-125597388D01*
X113427000Y-125622528D01*
X113427000Y-125539151D01*
X113379847Y-125302097D01*
X113287353Y-125078798D01*
X113153073Y-124877833D01*
X112982167Y-124706927D01*
X112781202Y-124572647D01*
X112557903Y-124480153D01*
X112320849Y-124433000D01*
X112079151Y-124433000D01*
X111842097Y-124480153D01*
X111618798Y-124572647D01*
X111417833Y-124706927D01*
X111246927Y-124877833D01*
X111112647Y-125078798D01*
X111020153Y-125302097D01*
X110973000Y-125539151D01*
X110973000Y-125780849D01*
X111020153Y-126017903D01*
X111112647Y-126241202D01*
X111246927Y-126442167D01*
X111417833Y-126613073D01*
X111567553Y-126713112D01*
X111350000Y-126711928D01*
X111225518Y-126724188D01*
X111105820Y-126760498D01*
X110995506Y-126819463D01*
X110898815Y-126898815D01*
X110819463Y-126995506D01*
X110760498Y-127105820D01*
X110724188Y-127225518D01*
X110711928Y-127350000D01*
X110427000Y-127350000D01*
X110427000Y-123750000D01*
X111666928Y-123750000D01*
X111679188Y-123874482D01*
X111715498Y-123994180D01*
X111774463Y-124104494D01*
X111853815Y-124201185D01*
X111950506Y-124280537D01*
X112060820Y-124339502D01*
X112180518Y-124375812D01*
X112305000Y-124388072D01*
X112869250Y-124385000D01*
X113028000Y-124226250D01*
X113028000Y-123027000D01*
X111828750Y-123027000D01*
X111670000Y-123185750D01*
X111666928Y-123750000D01*
X110427000Y-123750000D01*
X110427000Y-121727189D01*
X110537500Y-121738072D01*
X110914250Y-121735000D01*
X111073000Y-121576250D01*
X111073000Y-120327000D01*
X111327000Y-120327000D01*
X111327000Y-121576250D01*
X111485750Y-121735000D01*
X111752191Y-121737173D01*
X111715498Y-121805820D01*
X111679188Y-121925518D01*
X111666928Y-122050000D01*
X111670000Y-122614250D01*
X111828750Y-122773000D01*
X113028000Y-122773000D01*
X113028000Y-121573750D01*
X112869250Y-121415000D01*
X112415468Y-121412529D01*
X112452002Y-121344180D01*
X112488312Y-121224482D01*
X112500572Y-121100000D01*
X112497500Y-120485750D01*
X112338750Y-120327000D01*
X111327000Y-120327000D01*
X111073000Y-120327000D01*
X111053000Y-120327000D01*
X111053000Y-120073000D01*
X111073000Y-120073000D01*
X111073000Y-118823750D01*
X111327000Y-118823750D01*
X111327000Y-120073000D01*
X112338750Y-120073000D01*
X112497500Y-119914250D01*
X112500572Y-119300000D01*
X112488312Y-119175518D01*
X112452002Y-119055820D01*
X112393037Y-118945506D01*
X112313685Y-118848815D01*
X112216994Y-118769463D01*
X112106680Y-118710498D01*
X111986982Y-118674188D01*
X111862500Y-118661928D01*
X111485750Y-118665000D01*
X111327000Y-118823750D01*
X111073000Y-118823750D01*
X110914250Y-118665000D01*
X110537500Y-118661928D01*
X110427000Y-118672811D01*
X110427000Y-116007289D01*
X110485399Y-116007216D01*
X110539081Y-116158747D01*
X110612528Y-116296157D01*
X110861603Y-116373792D01*
X111229108Y-116006287D01*
X111588767Y-116005838D01*
X111041208Y-116553397D01*
X111118843Y-116802472D01*
X111382883Y-116928371D01*
X111666411Y-117000339D01*
X111958531Y-117015611D01*
X111976052Y-117013068D01*
X112021633Y-117123111D01*
X112106666Y-117250372D01*
X112214893Y-117358599D01*
X112342154Y-117443632D01*
X112483559Y-117502204D01*
X112633674Y-117532063D01*
X112786730Y-117532063D01*
X112936845Y-117502204D01*
X113038623Y-117460046D01*
X113052859Y-117531617D01*
X113111431Y-117673022D01*
X113196464Y-117800283D01*
X113304691Y-117908510D01*
X113309517Y-117911734D01*
X113333970Y-117992346D01*
X113380584Y-118079555D01*
X113427601Y-118136845D01*
X113427604Y-118136848D01*
X113443317Y-118155994D01*
X113462463Y-118171707D01*
X114211932Y-118921176D01*
X113912499Y-118921176D01*
X113789822Y-118933259D01*
X113671859Y-118969042D01*
X113563144Y-119027152D01*
X113467854Y-119105354D01*
X113389652Y-119200644D01*
X113331542Y-119309359D01*
X113295759Y-119427322D01*
X113283676Y-119549999D01*
X113283676Y-120850001D01*
X113295759Y-120972678D01*
X113331542Y-121090641D01*
X113389652Y-121199356D01*
X113467854Y-121294646D01*
X113563144Y-121372848D01*
X113639975Y-121413915D01*
X113440750Y-121415000D01*
X113282000Y-121573750D01*
X113282000Y-122773000D01*
X113302000Y-122773000D01*
X113302000Y-123027000D01*
X113282000Y-123027000D01*
X113282000Y-124226250D01*
X113440750Y-124385000D01*
X114005000Y-124388072D01*
X114129482Y-124375812D01*
X114249180Y-124339502D01*
X114359494Y-124280537D01*
X114456185Y-124201185D01*
X114535537Y-124104494D01*
X114594502Y-123994180D01*
X114630812Y-123874482D01*
X114643072Y-123750000D01*
X114641888Y-123532447D01*
X114741927Y-123682167D01*
X114912833Y-123853073D01*
X115113798Y-123987353D01*
X115193000Y-124020160D01*
X115193001Y-124171176D01*
X115105000Y-124171176D01*
X114982323Y-124183259D01*
X114864359Y-124219042D01*
X114755644Y-124277152D01*
X114660354Y-124355354D01*
X114582152Y-124450644D01*
X114524042Y-124559359D01*
X114488259Y-124677323D01*
X114476176Y-124800000D01*
X114476176Y-125600000D01*
X114488259Y-125722677D01*
X114524042Y-125840641D01*
X114582152Y-125949356D01*
X114660354Y-126044646D01*
X114755644Y-126122848D01*
X114864359Y-126180958D01*
X114982323Y-126216741D01*
X115105000Y-126228824D01*
X116355000Y-126228824D01*
X116477677Y-126216741D01*
X116595641Y-126180958D01*
X116704356Y-126122848D01*
X116799646Y-126044646D01*
X116877848Y-125949356D01*
X116935958Y-125840641D01*
X116971741Y-125722677D01*
X116980000Y-125638825D01*
X116988259Y-125722677D01*
X117024042Y-125840641D01*
X117082152Y-125949356D01*
X117160354Y-126044646D01*
X117255644Y-126122848D01*
X117364359Y-126180958D01*
X117482323Y-126216741D01*
X117605000Y-126228824D01*
X118855000Y-126228824D01*
X118977677Y-126216741D01*
X119095641Y-126180958D01*
X119204356Y-126122848D01*
X119299646Y-126044646D01*
X119377848Y-125949356D01*
X119435958Y-125840641D01*
X119471741Y-125722677D01*
X119480000Y-125638825D01*
X119488259Y-125722677D01*
X119524042Y-125840641D01*
X119582152Y-125949356D01*
X119660354Y-126044646D01*
X119755644Y-126122848D01*
X119864359Y-126180958D01*
X119982323Y-126216741D01*
X120105000Y-126228824D01*
X121355000Y-126228824D01*
X121477677Y-126216741D01*
X121595641Y-126180958D01*
X121704356Y-126122848D01*
X121799646Y-126044646D01*
X121877848Y-125949356D01*
X121935958Y-125840641D01*
X121971741Y-125722677D01*
X121980000Y-125638825D01*
X121988259Y-125722677D01*
X122024042Y-125840641D01*
X122082152Y-125949356D01*
X122160354Y-126044646D01*
X122255644Y-126122848D01*
X122364359Y-126180958D01*
X122482323Y-126216741D01*
X122605000Y-126228824D01*
X123855000Y-126228824D01*
X123977677Y-126216741D01*
X124095641Y-126180958D01*
X124204356Y-126122848D01*
X124299646Y-126044646D01*
X124377848Y-125949356D01*
X124435958Y-125840641D01*
X124471741Y-125722677D01*
X124483824Y-125600000D01*
X124483824Y-124800000D01*
X124471741Y-124677323D01*
X124435958Y-124559359D01*
X124377848Y-124450644D01*
X124299646Y-124355354D01*
X124204356Y-124277152D01*
X124095641Y-124219042D01*
X123977677Y-124183259D01*
X123855000Y-124171176D01*
X123817000Y-124171176D01*
X123817000Y-124020160D01*
X123896202Y-123987353D01*
X124097167Y-123853073D01*
X124268073Y-123682167D01*
X124402353Y-123481202D01*
X124494847Y-123257903D01*
X124542000Y-123020849D01*
X124542000Y-122779151D01*
X124494847Y-122542097D01*
X124402353Y-122318798D01*
X124268073Y-122117833D01*
X124097167Y-121946927D01*
X123896202Y-121812647D01*
X123672903Y-121720153D01*
X123619457Y-121709522D01*
X122857649Y-120947715D01*
X122865987Y-120937555D01*
X123821176Y-119982367D01*
X123821176Y-120825000D01*
X123833259Y-120947677D01*
X123869042Y-121065641D01*
X123927152Y-121174356D01*
X124005354Y-121269646D01*
X124100644Y-121347848D01*
X124209359Y-121405958D01*
X124327323Y-121441741D01*
X124348001Y-121443778D01*
X124348001Y-121575337D01*
X124348000Y-121575347D01*
X124348000Y-121870357D01*
X124345573Y-121895000D01*
X124348000Y-121919643D01*
X124348000Y-121919652D01*
X124355264Y-121993408D01*
X124383969Y-122088035D01*
X124430583Y-122175245D01*
X124493316Y-122251684D01*
X124512467Y-122267401D01*
X124707960Y-122462894D01*
X124675153Y-122542097D01*
X124628000Y-122779151D01*
X124628000Y-123020849D01*
X124675153Y-123257903D01*
X124767647Y-123481202D01*
X124901927Y-123682167D01*
X125072833Y-123853073D01*
X125273798Y-123987353D01*
X125353001Y-124020160D01*
X125353001Y-124449610D01*
X125352152Y-124450644D01*
X125294042Y-124559359D01*
X125258259Y-124677323D01*
X125246176Y-124800000D01*
X125246176Y-125600000D01*
X125258259Y-125722677D01*
X125294042Y-125840641D01*
X125352152Y-125949356D01*
X125430354Y-126044646D01*
X125525644Y-126122848D01*
X125634359Y-126180958D01*
X125752323Y-126216741D01*
X125875000Y-126228824D01*
X127125000Y-126228824D01*
X127247677Y-126216741D01*
X127365641Y-126180958D01*
X127474356Y-126122848D01*
X127569646Y-126044646D01*
X127647848Y-125949356D01*
X127705958Y-125840641D01*
X127741741Y-125722677D01*
X127753824Y-125600000D01*
X127753824Y-124800000D01*
X127741741Y-124677323D01*
X127705958Y-124559359D01*
X127647848Y-124450644D01*
X127569646Y-124355354D01*
X127474356Y-124277152D01*
X127365641Y-124219042D01*
X127247677Y-124183259D01*
X127125000Y-124171176D01*
X126357000Y-124171176D01*
X126357000Y-124020160D01*
X126436202Y-123987353D01*
X126637167Y-123853073D01*
X126808073Y-123682167D01*
X126942353Y-123481202D01*
X127034847Y-123257903D01*
X127082000Y-123020849D01*
X127082000Y-122779151D01*
X127034847Y-122542097D01*
X126942353Y-122318798D01*
X126808073Y-122117833D01*
X126637167Y-121946927D01*
X126436202Y-121812647D01*
X126212903Y-121720153D01*
X125975849Y-121673000D01*
X125734151Y-121673000D01*
X125497097Y-121720153D01*
X125417894Y-121752960D01*
X125352000Y-121687066D01*
X125352000Y-121443778D01*
X125372677Y-121441741D01*
X125490641Y-121405958D01*
X125599356Y-121347848D01*
X125694646Y-121269646D01*
X125772848Y-121174356D01*
X125830958Y-121065641D01*
X125866741Y-120947677D01*
X125878824Y-120825000D01*
X125878824Y-119575000D01*
X125866741Y-119452323D01*
X125830958Y-119334359D01*
X125772848Y-119225644D01*
X125694646Y-119130354D01*
X125599356Y-119052152D01*
X125490641Y-118994042D01*
X125372677Y-118958259D01*
X125250000Y-118946176D01*
X125236763Y-118946176D01*
X125275199Y-118907740D01*
X125294345Y-118892027D01*
X125357078Y-118815588D01*
X125403692Y-118728379D01*
X125432397Y-118633752D01*
X125439661Y-118559996D01*
X125439661Y-118559987D01*
X125442088Y-118535344D01*
X125439661Y-118510701D01*
X125439661Y-117789303D01*
X125442088Y-117764660D01*
X125439661Y-117740015D01*
X125439661Y-117740006D01*
X125434618Y-117688797D01*
X125540852Y-117667666D01*
X125682257Y-117609094D01*
X125809518Y-117524061D01*
X125917745Y-117415834D01*
X126002778Y-117288573D01*
X126061350Y-117147168D01*
X126091209Y-116997053D01*
X126091209Y-116853986D01*
X126144629Y-116864612D01*
X126297685Y-116864612D01*
X126447800Y-116834753D01*
X126589205Y-116776181D01*
X126716466Y-116691148D01*
X126818713Y-116588901D01*
X126885251Y-116582348D01*
X126979878Y-116553643D01*
X127067087Y-116507029D01*
X127143526Y-116444296D01*
X127159244Y-116425144D01*
X127439353Y-116145035D01*
X127458505Y-116129317D01*
X127500844Y-116077728D01*
X127521238Y-116052879D01*
X127567852Y-115965670D01*
X127596557Y-115871043D01*
X127597612Y-115860328D01*
X127603821Y-115797286D01*
X127603821Y-115797279D01*
X127606248Y-115772633D01*
X127603821Y-115747988D01*
X127603821Y-114677613D01*
X127606248Y-114652970D01*
X127603821Y-114628327D01*
X127603821Y-114628318D01*
X127596557Y-114554562D01*
X127567852Y-114459935D01*
X127521238Y-114372726D01*
X127499813Y-114346620D01*
X127474220Y-114315435D01*
X127474218Y-114315433D01*
X127458505Y-114296287D01*
X127439359Y-114280574D01*
X126996239Y-113837455D01*
X126980524Y-113818306D01*
X126904085Y-113755573D01*
X126816876Y-113708959D01*
X126722249Y-113680254D01*
X126648493Y-113672990D01*
X126648483Y-113672990D01*
X126623840Y-113670563D01*
X126599197Y-113672990D01*
X125582305Y-113672990D01*
X125673307Y-113598307D01*
X125749955Y-113504911D01*
X125806909Y-113398357D01*
X125841982Y-113282739D01*
X125853824Y-113162500D01*
X125853824Y-112562500D01*
X125841982Y-112442261D01*
X125806909Y-112326643D01*
X125761580Y-112241838D01*
X125829494Y-112205537D01*
X125926185Y-112126185D01*
X126005537Y-112029494D01*
X126064502Y-111919180D01*
X126100812Y-111799482D01*
X126113072Y-111675000D01*
X126110000Y-111423250D01*
X125951250Y-111264500D01*
X125127000Y-111264500D01*
X125127000Y-111284500D01*
X124873000Y-111284500D01*
X124873000Y-111264500D01*
X124048750Y-111264500D01*
X124011592Y-111301658D01*
X123872399Y-111162465D01*
X123856684Y-111143316D01*
X123780245Y-111080583D01*
X123693036Y-111033969D01*
X123598409Y-111005264D01*
X123524653Y-110998000D01*
X123524643Y-110998000D01*
X123500000Y-110995573D01*
X123475357Y-110998000D01*
X123351976Y-110998000D01*
X123351976Y-110274666D01*
X123354403Y-110250023D01*
X123351976Y-110225380D01*
X123351976Y-110225371D01*
X123344712Y-110151615D01*
X123316007Y-110056988D01*
X123269393Y-109969779D01*
X123251519Y-109948000D01*
X123222375Y-109912488D01*
X123222373Y-109912486D01*
X123206660Y-109893340D01*
X123187514Y-109877627D01*
X122503947Y-109194061D01*
X122488230Y-109174910D01*
X122411791Y-109112177D01*
X122324582Y-109065563D01*
X122229955Y-109036858D01*
X122156199Y-109029594D01*
X122156189Y-109029594D01*
X122131546Y-109027167D01*
X122106903Y-109029594D01*
X121056236Y-109029594D01*
X121054392Y-109029412D01*
X121173942Y-108965512D01*
X121306623Y-108856623D01*
X121415512Y-108723942D01*
X121422488Y-108710890D01*
X121470089Y-108749955D01*
X121576643Y-108806909D01*
X121692261Y-108841982D01*
X121812500Y-108853824D01*
X122412500Y-108853824D01*
X122532739Y-108841982D01*
X122648357Y-108806909D01*
X122741176Y-108757296D01*
X122741176Y-108775000D01*
X122748455Y-108848905D01*
X122770012Y-108919970D01*
X122805019Y-108985463D01*
X122852131Y-109042869D01*
X122909537Y-109089981D01*
X122975030Y-109124988D01*
X123046095Y-109146545D01*
X123120000Y-109153824D01*
X123439161Y-109153824D01*
X123480584Y-109231321D01*
X123527601Y-109288611D01*
X123527604Y-109288614D01*
X123543317Y-109307760D01*
X123562462Y-109323472D01*
X123622990Y-109384000D01*
X123622990Y-109527594D01*
X123652849Y-109677709D01*
X123711421Y-109819114D01*
X123796454Y-109946375D01*
X123904681Y-110054602D01*
X124031942Y-110139635D01*
X124068815Y-110154908D01*
X123994463Y-110245506D01*
X123935498Y-110355820D01*
X123899188Y-110475518D01*
X123886928Y-110600000D01*
X123890000Y-110851750D01*
X124048750Y-111010500D01*
X124873000Y-111010500D01*
X124873000Y-110123750D01*
X125127000Y-110123750D01*
X125127000Y-111010500D01*
X125951250Y-111010500D01*
X126110000Y-110851750D01*
X126113072Y-110600000D01*
X126100812Y-110475518D01*
X126064502Y-110355820D01*
X126005537Y-110245506D01*
X125926185Y-110148815D01*
X125829494Y-110069463D01*
X125719180Y-110010498D01*
X125599482Y-109974188D01*
X125475000Y-109961928D01*
X125285750Y-109965000D01*
X125127000Y-110123750D01*
X124873000Y-110123750D01*
X124840481Y-110091231D01*
X124895299Y-110054602D01*
X125003526Y-109946375D01*
X125088559Y-109819114D01*
X125147131Y-109677709D01*
X125176990Y-109527594D01*
X125176990Y-109374538D01*
X125147131Y-109224423D01*
X125127000Y-109175823D01*
X125127000Y-108388072D01*
X125373000Y-108388072D01*
X125373000Y-109226250D01*
%TA.AperFunction,Conductor*%
D40*
G36*
X125373000Y-109226250D02*
G01*
X125531750Y-109385000D01*
X125630813Y-109374519D01*
X125750137Y-109336999D01*
X125859848Y-109276920D01*
X125955731Y-109196593D01*
X125990112Y-109153824D01*
X127380000Y-109153824D01*
X127453905Y-109146545D01*
X127524970Y-109124988D01*
X127590463Y-109089981D01*
X127643000Y-109046865D01*
X127643000Y-114840809D01*
X128573000Y-114840809D01*
X128573001Y-118988691D01*
X128472677Y-118958259D01*
X128350000Y-118946176D01*
X128126432Y-118946176D01*
X127258687Y-118078432D01*
X127258687Y-117934838D01*
X127228828Y-117784723D01*
X127170256Y-117643318D01*
X127085223Y-117516057D01*
X126976996Y-117407830D01*
X126849735Y-117322797D01*
X126708330Y-117264225D01*
X126558215Y-117234366D01*
X126405159Y-117234366D01*
X126255044Y-117264225D01*
X126113639Y-117322797D01*
X125986378Y-117407830D01*
X125878151Y-117516057D01*
X125793118Y-117643318D01*
X125734546Y-117784723D01*
X125704687Y-117934838D01*
X125704687Y-118087894D01*
X125734546Y-118238009D01*
X125793118Y-118379414D01*
X125878151Y-118506675D01*
X125986378Y-118614902D01*
X126113639Y-118699935D01*
X126255044Y-118758507D01*
X126405159Y-118788366D01*
X126548753Y-118788366D01*
X127012828Y-119252442D01*
X126969042Y-119334359D01*
X126933259Y-119452323D01*
X126921176Y-119575000D01*
X126921176Y-120825000D01*
X126933259Y-120947677D01*
X126969042Y-121065641D01*
X127027152Y-121174356D01*
X127105354Y-121269646D01*
X127200644Y-121347848D01*
X127309359Y-121405958D01*
X127427323Y-121441741D01*
X127550000Y-121453824D01*
X128350000Y-121453824D01*
X128472677Y-121441741D01*
X128573001Y-121411309D01*
X128573001Y-128979107D01*
X128560078Y-129110899D01*
X128527873Y-129217570D01*
X128475558Y-129315961D01*
X128405130Y-129402313D01*
X128319270Y-129473343D01*
X128221255Y-129526339D01*
X128114807Y-129559290D01*
X127984371Y-129573000D01*
X113413678Y-129573000D01*
X113501185Y-129501185D01*
X113580537Y-129404494D01*
X113639502Y-129294180D01*
X113675812Y-129174482D01*
X113688072Y-129050000D01*
X113685000Y-128485750D01*
X113526250Y-128327000D01*
X112327000Y-128327000D01*
X112327000Y-128347000D01*
X112073000Y-128347000D01*
X112073000Y-128327000D01*
X110873750Y-128327000D01*
X110715000Y-128485750D01*
X110711928Y-129050000D01*
X110724188Y-129174482D01*
X110760498Y-129294180D01*
X110819463Y-129404494D01*
X110898815Y-129501185D01*
X110981633Y-129569151D01*
X110889101Y-129560078D01*
X110782430Y-129527873D01*
X110684039Y-129475558D01*
X110597687Y-129405130D01*
X110526657Y-129319270D01*
X110473661Y-129221255D01*
X110440710Y-129114807D01*
X110427000Y-128984371D01*
X110427000Y-127350000D01*
X110711928Y-127350000D01*
X110715000Y-127914250D01*
X110873750Y-128073000D01*
X112073000Y-128073000D01*
X112073000Y-128053000D01*
X112327000Y-128053000D01*
X112327000Y-128073000D01*
X113526250Y-128073000D01*
X113685000Y-127914250D01*
X113688072Y-127350000D01*
X113675812Y-127225518D01*
X113653325Y-127151388D01*
X113696982Y-127151388D01*
X114476176Y-127930583D01*
X114476176Y-128700000D01*
X114488259Y-128822677D01*
X114524042Y-128940641D01*
X114582152Y-129049356D01*
X114660354Y-129144646D01*
X114755644Y-129222848D01*
X114864359Y-129280958D01*
X114982323Y-129316741D01*
X115105000Y-129328824D01*
X116355000Y-129328824D01*
X116477677Y-129316741D01*
X116595641Y-129280958D01*
X116704356Y-129222848D01*
X116799646Y-129144646D01*
X116877848Y-129049356D01*
X116935958Y-128940641D01*
X116971741Y-128822677D01*
X116973778Y-128802000D01*
X116986222Y-128802000D01*
X116988259Y-128822677D01*
X117024042Y-128940641D01*
X117082152Y-129049356D01*
X117160354Y-129144646D01*
X117255644Y-129222848D01*
X117364359Y-129280958D01*
X117482323Y-129316741D01*
X117605000Y-129328824D01*
X118855000Y-129328824D01*
X118977677Y-129316741D01*
X119095641Y-129280958D01*
X119204356Y-129222848D01*
X119299646Y-129144646D01*
X119377848Y-129049356D01*
X119435958Y-128940641D01*
X119471741Y-128822677D01*
X119473778Y-128802000D01*
X119486222Y-128802000D01*
X119488259Y-128822677D01*
X119524042Y-128940641D01*
X119582152Y-129049356D01*
X119660354Y-129144646D01*
X119755644Y-129222848D01*
X119864359Y-129280958D01*
X119982323Y-129316741D01*
X120105000Y-129328824D01*
X121355000Y-129328824D01*
X121477677Y-129316741D01*
X121595641Y-129280958D01*
X121704356Y-129222848D01*
X121799646Y-129144646D01*
X121877848Y-129049356D01*
X121935958Y-128940641D01*
X121971741Y-128822677D01*
X121973778Y-128802000D01*
X121986222Y-128802000D01*
X121988259Y-128822677D01*
X122024042Y-128940641D01*
X122082152Y-129049356D01*
X122160354Y-129144646D01*
X122255644Y-129222848D01*
X122364359Y-129280958D01*
X122482323Y-129316741D01*
X122605000Y-129328824D01*
X123855000Y-129328824D01*
X123977677Y-129316741D01*
X124095641Y-129280958D01*
X124204356Y-129222848D01*
X124299646Y-129144646D01*
X124377848Y-129049356D01*
X124435958Y-128940641D01*
X124455365Y-128876665D01*
X124507158Y-128928458D01*
X124634419Y-129013491D01*
X124775824Y-129072063D01*
X124925939Y-129101922D01*
X125078995Y-129101922D01*
X125229110Y-129072063D01*
X125339785Y-129026220D01*
X125352152Y-129049356D01*
X125430354Y-129144646D01*
X125525644Y-129222848D01*
X125634359Y-129280958D01*
X125752323Y-129316741D01*
X125875000Y-129328824D01*
X127125000Y-129328824D01*
X127247677Y-129316741D01*
X127365641Y-129280958D01*
X127474356Y-129222848D01*
X127569646Y-129144646D01*
X127647848Y-129049356D01*
X127705958Y-128940641D01*
X127741741Y-128822677D01*
X127753824Y-128700000D01*
X127753824Y-127900000D01*
X127741741Y-127777323D01*
X127705958Y-127659359D01*
X127647848Y-127550644D01*
X127569646Y-127455354D01*
X127474356Y-127377152D01*
X127365641Y-127319042D01*
X127247677Y-127283259D01*
X127125000Y-127271176D01*
X125875000Y-127271176D01*
X125752323Y-127283259D01*
X125634359Y-127319042D01*
X125525644Y-127377152D01*
X125430354Y-127455354D01*
X125352152Y-127550644D01*
X125317972Y-127614589D01*
X125229110Y-127577781D01*
X125078995Y-127547922D01*
X124925939Y-127547922D01*
X124775824Y-127577781D01*
X124634419Y-127636353D01*
X124507158Y-127721386D01*
X124466965Y-127761579D01*
X124435958Y-127659359D01*
X124377848Y-127550644D01*
X124299646Y-127455354D01*
X124204356Y-127377152D01*
X124095641Y-127319042D01*
X123977677Y-127283259D01*
X123855000Y-127271176D01*
X122605000Y-127271176D01*
X122482323Y-127283259D01*
X122364359Y-127319042D01*
X122255644Y-127377152D01*
X122160354Y-127455354D01*
X122082152Y-127550644D01*
X122024042Y-127659359D01*
X121988259Y-127777323D01*
X121986222Y-127798000D01*
X121973778Y-127798000D01*
X121971741Y-127777323D01*
X121935958Y-127659359D01*
X121877848Y-127550644D01*
X121799646Y-127455354D01*
X121704356Y-127377152D01*
X121595641Y-127319042D01*
X121477677Y-127283259D01*
X121355000Y-127271176D01*
X120105000Y-127271176D01*
X119982323Y-127283259D01*
X119864359Y-127319042D01*
X119755644Y-127377152D01*
X119660354Y-127455354D01*
X119582152Y-127550644D01*
X119524042Y-127659359D01*
X119488259Y-127777323D01*
X119486222Y-127798000D01*
X119473778Y-127798000D01*
X119471741Y-127777323D01*
X119435958Y-127659359D01*
X119377848Y-127550644D01*
X119299646Y-127455354D01*
X119204356Y-127377152D01*
X119095641Y-127319042D01*
X118977677Y-127283259D01*
X118855000Y-127271176D01*
X117605000Y-127271176D01*
X117482323Y-127283259D01*
X117364359Y-127319042D01*
X117255644Y-127377152D01*
X117160354Y-127455354D01*
X117082152Y-127550644D01*
X117024042Y-127659359D01*
X116988259Y-127777323D01*
X116986222Y-127798000D01*
X116973778Y-127798000D01*
X116971741Y-127777323D01*
X116935958Y-127659359D01*
X116877848Y-127550644D01*
X116799646Y-127455354D01*
X116704356Y-127377152D01*
X116595641Y-127319042D01*
X116477677Y-127283259D01*
X116355000Y-127271176D01*
X115236639Y-127271176D01*
X114406916Y-126441454D01*
X114406916Y-126297860D01*
X114377057Y-126147745D01*
X114318485Y-126006340D01*
X114233452Y-125879079D01*
X114125225Y-125770852D01*
X113997964Y-125685819D01*
X113856559Y-125627247D01*
X113706444Y-125597388D01*
X113553388Y-125597388D01*
X113427000Y-125622528D01*
X113427000Y-125539151D01*
X113379847Y-125302097D01*
X113287353Y-125078798D01*
X113153073Y-124877833D01*
X112982167Y-124706927D01*
X112781202Y-124572647D01*
X112557903Y-124480153D01*
X112320849Y-124433000D01*
X112079151Y-124433000D01*
X111842097Y-124480153D01*
X111618798Y-124572647D01*
X111417833Y-124706927D01*
X111246927Y-124877833D01*
X111112647Y-125078798D01*
X111020153Y-125302097D01*
X110973000Y-125539151D01*
X110973000Y-125780849D01*
X111020153Y-126017903D01*
X111112647Y-126241202D01*
X111246927Y-126442167D01*
X111417833Y-126613073D01*
X111567553Y-126713112D01*
X111350000Y-126711928D01*
X111225518Y-126724188D01*
X111105820Y-126760498D01*
X110995506Y-126819463D01*
X110898815Y-126898815D01*
X110819463Y-126995506D01*
X110760498Y-127105820D01*
X110724188Y-127225518D01*
X110711928Y-127350000D01*
X110427000Y-127350000D01*
X110427000Y-123750000D01*
X111666928Y-123750000D01*
X111679188Y-123874482D01*
X111715498Y-123994180D01*
X111774463Y-124104494D01*
X111853815Y-124201185D01*
X111950506Y-124280537D01*
X112060820Y-124339502D01*
X112180518Y-124375812D01*
X112305000Y-124388072D01*
X112869250Y-124385000D01*
X113028000Y-124226250D01*
X113028000Y-123027000D01*
X111828750Y-123027000D01*
X111670000Y-123185750D01*
X111666928Y-123750000D01*
X110427000Y-123750000D01*
X110427000Y-121727189D01*
X110537500Y-121738072D01*
X110914250Y-121735000D01*
X111073000Y-121576250D01*
X111073000Y-120327000D01*
X111327000Y-120327000D01*
X111327000Y-121576250D01*
X111485750Y-121735000D01*
X111752191Y-121737173D01*
X111715498Y-121805820D01*
X111679188Y-121925518D01*
X111666928Y-122050000D01*
X111670000Y-122614250D01*
X111828750Y-122773000D01*
X113028000Y-122773000D01*
X113028000Y-121573750D01*
X112869250Y-121415000D01*
X112415468Y-121412529D01*
X112452002Y-121344180D01*
X112488312Y-121224482D01*
X112500572Y-121100000D01*
X112497500Y-120485750D01*
X112338750Y-120327000D01*
X111327000Y-120327000D01*
X111073000Y-120327000D01*
X111053000Y-120327000D01*
X111053000Y-120073000D01*
X111073000Y-120073000D01*
X111073000Y-118823750D01*
X111327000Y-118823750D01*
X111327000Y-120073000D01*
X112338750Y-120073000D01*
X112497500Y-119914250D01*
X112500572Y-119300000D01*
X112488312Y-119175518D01*
X112452002Y-119055820D01*
X112393037Y-118945506D01*
X112313685Y-118848815D01*
X112216994Y-118769463D01*
X112106680Y-118710498D01*
X111986982Y-118674188D01*
X111862500Y-118661928D01*
X111485750Y-118665000D01*
X111327000Y-118823750D01*
X111073000Y-118823750D01*
X110914250Y-118665000D01*
X110537500Y-118661928D01*
X110427000Y-118672811D01*
X110427000Y-116007289D01*
X110485399Y-116007216D01*
X110539081Y-116158747D01*
X110612528Y-116296157D01*
X110861603Y-116373792D01*
X111229108Y-116006287D01*
X111588767Y-116005838D01*
X111041208Y-116553397D01*
X111118843Y-116802472D01*
X111382883Y-116928371D01*
X111666411Y-117000339D01*
X111958531Y-117015611D01*
X111976052Y-117013068D01*
X112021633Y-117123111D01*
X112106666Y-117250372D01*
X112214893Y-117358599D01*
X112342154Y-117443632D01*
X112483559Y-117502204D01*
X112633674Y-117532063D01*
X112786730Y-117532063D01*
X112936845Y-117502204D01*
X113038623Y-117460046D01*
X113052859Y-117531617D01*
X113111431Y-117673022D01*
X113196464Y-117800283D01*
X113304691Y-117908510D01*
X113309517Y-117911734D01*
X113333970Y-117992346D01*
X113380584Y-118079555D01*
X113427601Y-118136845D01*
X113427604Y-118136848D01*
X113443317Y-118155994D01*
X113462463Y-118171707D01*
X114211932Y-118921176D01*
X113912499Y-118921176D01*
X113789822Y-118933259D01*
X113671859Y-118969042D01*
X113563144Y-119027152D01*
X113467854Y-119105354D01*
X113389652Y-119200644D01*
X113331542Y-119309359D01*
X113295759Y-119427322D01*
X113283676Y-119549999D01*
X113283676Y-120850001D01*
X113295759Y-120972678D01*
X113331542Y-121090641D01*
X113389652Y-121199356D01*
X113467854Y-121294646D01*
X113563144Y-121372848D01*
X113639975Y-121413915D01*
X113440750Y-121415000D01*
X113282000Y-121573750D01*
X113282000Y-122773000D01*
X113302000Y-122773000D01*
X113302000Y-123027000D01*
X113282000Y-123027000D01*
X113282000Y-124226250D01*
X113440750Y-124385000D01*
X114005000Y-124388072D01*
X114129482Y-124375812D01*
X114249180Y-124339502D01*
X114359494Y-124280537D01*
X114456185Y-124201185D01*
X114535537Y-124104494D01*
X114594502Y-123994180D01*
X114630812Y-123874482D01*
X114643072Y-123750000D01*
X114641888Y-123532447D01*
X114741927Y-123682167D01*
X114912833Y-123853073D01*
X115113798Y-123987353D01*
X115193000Y-124020160D01*
X115193001Y-124171176D01*
X115105000Y-124171176D01*
X114982323Y-124183259D01*
X114864359Y-124219042D01*
X114755644Y-124277152D01*
X114660354Y-124355354D01*
X114582152Y-124450644D01*
X114524042Y-124559359D01*
X114488259Y-124677323D01*
X114476176Y-124800000D01*
X114476176Y-125600000D01*
X114488259Y-125722677D01*
X114524042Y-125840641D01*
X114582152Y-125949356D01*
X114660354Y-126044646D01*
X114755644Y-126122848D01*
X114864359Y-126180958D01*
X114982323Y-126216741D01*
X115105000Y-126228824D01*
X116355000Y-126228824D01*
X116477677Y-126216741D01*
X116595641Y-126180958D01*
X116704356Y-126122848D01*
X116799646Y-126044646D01*
X116877848Y-125949356D01*
X116935958Y-125840641D01*
X116971741Y-125722677D01*
X116980000Y-125638825D01*
X116988259Y-125722677D01*
X117024042Y-125840641D01*
X117082152Y-125949356D01*
X117160354Y-126044646D01*
X117255644Y-126122848D01*
X117364359Y-126180958D01*
X117482323Y-126216741D01*
X117605000Y-126228824D01*
X118855000Y-126228824D01*
X118977677Y-126216741D01*
X119095641Y-126180958D01*
X119204356Y-126122848D01*
X119299646Y-126044646D01*
X119377848Y-125949356D01*
X119435958Y-125840641D01*
X119471741Y-125722677D01*
X119480000Y-125638825D01*
X119488259Y-125722677D01*
X119524042Y-125840641D01*
X119582152Y-125949356D01*
X119660354Y-126044646D01*
X119755644Y-126122848D01*
X119864359Y-126180958D01*
X119982323Y-126216741D01*
X120105000Y-126228824D01*
X121355000Y-126228824D01*
X121477677Y-126216741D01*
X121595641Y-126180958D01*
X121704356Y-126122848D01*
X121799646Y-126044646D01*
X121877848Y-125949356D01*
X121935958Y-125840641D01*
X121971741Y-125722677D01*
X121980000Y-125638825D01*
X121988259Y-125722677D01*
X122024042Y-125840641D01*
X122082152Y-125949356D01*
X122160354Y-126044646D01*
X122255644Y-126122848D01*
X122364359Y-126180958D01*
X122482323Y-126216741D01*
X122605000Y-126228824D01*
X123855000Y-126228824D01*
X123977677Y-126216741D01*
X124095641Y-126180958D01*
X124204356Y-126122848D01*
X124299646Y-126044646D01*
X124377848Y-125949356D01*
X124435958Y-125840641D01*
X124471741Y-125722677D01*
X124483824Y-125600000D01*
X124483824Y-124800000D01*
X124471741Y-124677323D01*
X124435958Y-124559359D01*
X124377848Y-124450644D01*
X124299646Y-124355354D01*
X124204356Y-124277152D01*
X124095641Y-124219042D01*
X123977677Y-124183259D01*
X123855000Y-124171176D01*
X123817000Y-124171176D01*
X123817000Y-124020160D01*
X123896202Y-123987353D01*
X124097167Y-123853073D01*
X124268073Y-123682167D01*
X124402353Y-123481202D01*
X124494847Y-123257903D01*
X124542000Y-123020849D01*
X124542000Y-122779151D01*
X124494847Y-122542097D01*
X124402353Y-122318798D01*
X124268073Y-122117833D01*
X124097167Y-121946927D01*
X123896202Y-121812647D01*
X123672903Y-121720153D01*
X123619457Y-121709522D01*
X122857649Y-120947715D01*
X122865987Y-120937555D01*
X123821176Y-119982367D01*
X123821176Y-120825000D01*
X123833259Y-120947677D01*
X123869042Y-121065641D01*
X123927152Y-121174356D01*
X124005354Y-121269646D01*
X124100644Y-121347848D01*
X124209359Y-121405958D01*
X124327323Y-121441741D01*
X124348001Y-121443778D01*
X124348001Y-121575337D01*
X124348000Y-121575347D01*
X124348000Y-121870357D01*
X124345573Y-121895000D01*
X124348000Y-121919643D01*
X124348000Y-121919652D01*
X124355264Y-121993408D01*
X124383969Y-122088035D01*
X124430583Y-122175245D01*
X124493316Y-122251684D01*
X124512467Y-122267401D01*
X124707960Y-122462894D01*
X124675153Y-122542097D01*
X124628000Y-122779151D01*
X124628000Y-123020849D01*
X124675153Y-123257903D01*
X124767647Y-123481202D01*
X124901927Y-123682167D01*
X125072833Y-123853073D01*
X125273798Y-123987353D01*
X125353001Y-124020160D01*
X125353001Y-124449610D01*
X125352152Y-124450644D01*
X125294042Y-124559359D01*
X125258259Y-124677323D01*
X125246176Y-124800000D01*
X125246176Y-125600000D01*
X125258259Y-125722677D01*
X125294042Y-125840641D01*
X125352152Y-125949356D01*
X125430354Y-126044646D01*
X125525644Y-126122848D01*
X125634359Y-126180958D01*
X125752323Y-126216741D01*
X125875000Y-126228824D01*
X127125000Y-126228824D01*
X127247677Y-126216741D01*
X127365641Y-126180958D01*
X127474356Y-126122848D01*
X127569646Y-126044646D01*
X127647848Y-125949356D01*
X127705958Y-125840641D01*
X127741741Y-125722677D01*
X127753824Y-125600000D01*
X127753824Y-124800000D01*
X127741741Y-124677323D01*
X127705958Y-124559359D01*
X127647848Y-124450644D01*
X127569646Y-124355354D01*
X127474356Y-124277152D01*
X127365641Y-124219042D01*
X127247677Y-124183259D01*
X127125000Y-124171176D01*
X126357000Y-124171176D01*
X126357000Y-124020160D01*
X126436202Y-123987353D01*
X126637167Y-123853073D01*
X126808073Y-123682167D01*
X126942353Y-123481202D01*
X127034847Y-123257903D01*
X127082000Y-123020849D01*
X127082000Y-122779151D01*
X127034847Y-122542097D01*
X126942353Y-122318798D01*
X126808073Y-122117833D01*
X126637167Y-121946927D01*
X126436202Y-121812647D01*
X126212903Y-121720153D01*
X125975849Y-121673000D01*
X125734151Y-121673000D01*
X125497097Y-121720153D01*
X125417894Y-121752960D01*
X125352000Y-121687066D01*
X125352000Y-121443778D01*
X125372677Y-121441741D01*
X125490641Y-121405958D01*
X125599356Y-121347848D01*
X125694646Y-121269646D01*
X125772848Y-121174356D01*
X125830958Y-121065641D01*
X125866741Y-120947677D01*
X125878824Y-120825000D01*
X125878824Y-119575000D01*
X125866741Y-119452323D01*
X125830958Y-119334359D01*
X125772848Y-119225644D01*
X125694646Y-119130354D01*
X125599356Y-119052152D01*
X125490641Y-118994042D01*
X125372677Y-118958259D01*
X125250000Y-118946176D01*
X125236763Y-118946176D01*
X125275199Y-118907740D01*
X125294345Y-118892027D01*
X125357078Y-118815588D01*
X125403692Y-118728379D01*
X125432397Y-118633752D01*
X125439661Y-118559996D01*
X125439661Y-118559987D01*
X125442088Y-118535344D01*
X125439661Y-118510701D01*
X125439661Y-117789303D01*
X125442088Y-117764660D01*
X125439661Y-117740015D01*
X125439661Y-117740006D01*
X125434618Y-117688797D01*
X125540852Y-117667666D01*
X125682257Y-117609094D01*
X125809518Y-117524061D01*
X125917745Y-117415834D01*
X126002778Y-117288573D01*
X126061350Y-117147168D01*
X126091209Y-116997053D01*
X126091209Y-116853986D01*
X126144629Y-116864612D01*
X126297685Y-116864612D01*
X126447800Y-116834753D01*
X126589205Y-116776181D01*
X126716466Y-116691148D01*
X126818713Y-116588901D01*
X126885251Y-116582348D01*
X126979878Y-116553643D01*
X127067087Y-116507029D01*
X127143526Y-116444296D01*
X127159244Y-116425144D01*
X127439353Y-116145035D01*
X127458505Y-116129317D01*
X127500844Y-116077728D01*
X127521238Y-116052879D01*
X127567852Y-115965670D01*
X127596557Y-115871043D01*
X127597612Y-115860328D01*
X127603821Y-115797286D01*
X127603821Y-115797279D01*
X127606248Y-115772633D01*
X127603821Y-115747988D01*
X127603821Y-114677613D01*
X127606248Y-114652970D01*
X127603821Y-114628327D01*
X127603821Y-114628318D01*
X127596557Y-114554562D01*
X127567852Y-114459935D01*
X127521238Y-114372726D01*
X127499813Y-114346620D01*
X127474220Y-114315435D01*
X127474218Y-114315433D01*
X127458505Y-114296287D01*
X127439359Y-114280574D01*
X126996239Y-113837455D01*
X126980524Y-113818306D01*
X126904085Y-113755573D01*
X126816876Y-113708959D01*
X126722249Y-113680254D01*
X126648493Y-113672990D01*
X126648483Y-113672990D01*
X126623840Y-113670563D01*
X126599197Y-113672990D01*
X125582305Y-113672990D01*
X125673307Y-113598307D01*
X125749955Y-113504911D01*
X125806909Y-113398357D01*
X125841982Y-113282739D01*
X125853824Y-113162500D01*
X125853824Y-112562500D01*
X125841982Y-112442261D01*
X125806909Y-112326643D01*
X125761580Y-112241838D01*
X125829494Y-112205537D01*
X125926185Y-112126185D01*
X126005537Y-112029494D01*
X126064502Y-111919180D01*
X126100812Y-111799482D01*
X126113072Y-111675000D01*
X126110000Y-111423250D01*
X125951250Y-111264500D01*
X125127000Y-111264500D01*
X125127000Y-111284500D01*
X124873000Y-111284500D01*
X124873000Y-111264500D01*
X124048750Y-111264500D01*
X124011592Y-111301658D01*
X123872399Y-111162465D01*
X123856684Y-111143316D01*
X123780245Y-111080583D01*
X123693036Y-111033969D01*
X123598409Y-111005264D01*
X123524653Y-110998000D01*
X123524643Y-110998000D01*
X123500000Y-110995573D01*
X123475357Y-110998000D01*
X123351976Y-110998000D01*
X123351976Y-110274666D01*
X123354403Y-110250023D01*
X123351976Y-110225380D01*
X123351976Y-110225371D01*
X123344712Y-110151615D01*
X123316007Y-110056988D01*
X123269393Y-109969779D01*
X123251519Y-109948000D01*
X123222375Y-109912488D01*
X123222373Y-109912486D01*
X123206660Y-109893340D01*
X123187514Y-109877627D01*
X122503947Y-109194061D01*
X122488230Y-109174910D01*
X122411791Y-109112177D01*
X122324582Y-109065563D01*
X122229955Y-109036858D01*
X122156199Y-109029594D01*
X122156189Y-109029594D01*
X122131546Y-109027167D01*
X122106903Y-109029594D01*
X121056236Y-109029594D01*
X121054392Y-109029412D01*
X121173942Y-108965512D01*
X121306623Y-108856623D01*
X121415512Y-108723942D01*
X121422488Y-108710890D01*
X121470089Y-108749955D01*
X121576643Y-108806909D01*
X121692261Y-108841982D01*
X121812500Y-108853824D01*
X122412500Y-108853824D01*
X122532739Y-108841982D01*
X122648357Y-108806909D01*
X122741176Y-108757296D01*
X122741176Y-108775000D01*
X122748455Y-108848905D01*
X122770012Y-108919970D01*
X122805019Y-108985463D01*
X122852131Y-109042869D01*
X122909537Y-109089981D01*
X122975030Y-109124988D01*
X123046095Y-109146545D01*
X123120000Y-109153824D01*
X123439161Y-109153824D01*
X123480584Y-109231321D01*
X123527601Y-109288611D01*
X123527604Y-109288614D01*
X123543317Y-109307760D01*
X123562462Y-109323472D01*
X123622990Y-109384000D01*
X123622990Y-109527594D01*
X123652849Y-109677709D01*
X123711421Y-109819114D01*
X123796454Y-109946375D01*
X123904681Y-110054602D01*
X124031942Y-110139635D01*
X124068815Y-110154908D01*
X123994463Y-110245506D01*
X123935498Y-110355820D01*
X123899188Y-110475518D01*
X123886928Y-110600000D01*
X123890000Y-110851750D01*
X124048750Y-111010500D01*
X124873000Y-111010500D01*
X124873000Y-110123750D01*
X125127000Y-110123750D01*
X125127000Y-111010500D01*
X125951250Y-111010500D01*
X126110000Y-110851750D01*
X126113072Y-110600000D01*
X126100812Y-110475518D01*
X126064502Y-110355820D01*
X126005537Y-110245506D01*
X125926185Y-110148815D01*
X125829494Y-110069463D01*
X125719180Y-110010498D01*
X125599482Y-109974188D01*
X125475000Y-109961928D01*
X125285750Y-109965000D01*
X125127000Y-110123750D01*
X124873000Y-110123750D01*
X124840481Y-110091231D01*
X124895299Y-110054602D01*
X125003526Y-109946375D01*
X125088559Y-109819114D01*
X125147131Y-109677709D01*
X125176990Y-109527594D01*
X125176990Y-109374538D01*
X125147131Y-109224423D01*
X125127000Y-109175823D01*
X125127000Y-108388072D01*
X125373000Y-108388072D01*
X125373000Y-109226250D01*
G37*
%TD.AperFunction*%
D39*
X117141475Y-116776083D02*
X117176901Y-116740657D01*
X117202580Y-116771947D01*
X117202583Y-116771950D01*
X117218296Y-116791096D01*
X117237442Y-116806809D01*
X117793170Y-117362538D01*
X117808883Y-117381684D01*
X117828029Y-117397397D01*
X117828032Y-117397400D01*
X117885321Y-117444417D01*
X117915359Y-117460473D01*
X117851891Y-117534633D01*
X117790663Y-117643706D01*
X117751891Y-117762629D01*
X117740000Y-117866250D01*
X117898750Y-118025000D01*
X117740000Y-118183750D01*
X117751891Y-118287371D01*
X117790663Y-118406294D01*
X117840971Y-118495913D01*
X117830286Y-118494861D01*
X117805643Y-118497288D01*
X117152234Y-118497288D01*
X116477000Y-117822055D01*
X116477000Y-117678461D01*
X116447141Y-117528346D01*
X116388569Y-117386941D01*
X116303536Y-117259680D01*
X116201170Y-117157314D01*
X116451675Y-117122961D01*
X116756088Y-117017795D01*
X116930044Y-116924814D01*
X117025807Y-116660415D01*
X117141475Y-116776083D01*
%TA.AperFunction,Conductor*%
D40*
G36*
X117141475Y-116776083D02*
G01*
X117176901Y-116740657D01*
X117202580Y-116771947D01*
X117202583Y-116771950D01*
X117218296Y-116791096D01*
X117237442Y-116806809D01*
X117793170Y-117362538D01*
X117808883Y-117381684D01*
X117828029Y-117397397D01*
X117828032Y-117397400D01*
X117885321Y-117444417D01*
X117915359Y-117460473D01*
X117851891Y-117534633D01*
X117790663Y-117643706D01*
X117751891Y-117762629D01*
X117740000Y-117866250D01*
X117898750Y-118025000D01*
X117740000Y-118183750D01*
X117751891Y-118287371D01*
X117790663Y-118406294D01*
X117840971Y-118495913D01*
X117830286Y-118494861D01*
X117805643Y-118497288D01*
X117152234Y-118497288D01*
X116477000Y-117822055D01*
X116477000Y-117678461D01*
X116447141Y-117528346D01*
X116388569Y-117386941D01*
X116303536Y-117259680D01*
X116201170Y-117157314D01*
X116451675Y-117122961D01*
X116756088Y-117017795D01*
X116930044Y-116924814D01*
X117025807Y-116660415D01*
X117141475Y-116776083D01*
G37*
%TD.AperFunction*%
D39*
X124158018Y-113282739D02*
X124193091Y-113398357D01*
X124250045Y-113504911D01*
X124326693Y-113598307D01*
X124420089Y-113674955D01*
X124498001Y-113716599D01*
X124498001Y-114125327D01*
X124495573Y-114149980D01*
X124505265Y-114248389D01*
X124533970Y-114343016D01*
X124580584Y-114430225D01*
X124627601Y-114487515D01*
X124627604Y-114487518D01*
X124643317Y-114506664D01*
X124657050Y-114517935D01*
X124668326Y-114531674D01*
X124744765Y-114594407D01*
X124831974Y-114641021D01*
X124926601Y-114669726D01*
X125000357Y-114676990D01*
X125000366Y-114676990D01*
X125025009Y-114679417D01*
X125049652Y-114676990D01*
X125359828Y-114676990D01*
X124063844Y-115972976D01*
X123753824Y-115972976D01*
X123753824Y-115962500D01*
X123745344Y-115876402D01*
X123720230Y-115793613D01*
X123679447Y-115717314D01*
X123624563Y-115650437D01*
X123577000Y-115611403D01*
X123577000Y-114450000D01*
X123574560Y-114425224D01*
X123567333Y-114401399D01*
X123555597Y-114379443D01*
X123539803Y-114360197D01*
X123520557Y-114344403D01*
X123498601Y-114332667D01*
X123474776Y-114325440D01*
X123450000Y-114323000D01*
X122483796Y-114323000D01*
X123267551Y-113539247D01*
X123535818Y-113539247D01*
X123560461Y-113541674D01*
X123585104Y-113539247D01*
X123585114Y-113539247D01*
X123658870Y-113531983D01*
X123753497Y-113503278D01*
X123840706Y-113456664D01*
X123917145Y-113393931D01*
X123932862Y-113374780D01*
X124107912Y-113199731D01*
X124149843Y-113199731D01*
X124158018Y-113282739D01*
%TA.AperFunction,Conductor*%
D40*
G36*
X124158018Y-113282739D02*
G01*
X124193091Y-113398357D01*
X124250045Y-113504911D01*
X124326693Y-113598307D01*
X124420089Y-113674955D01*
X124498001Y-113716599D01*
X124498001Y-114125327D01*
X124495573Y-114149980D01*
X124505265Y-114248389D01*
X124533970Y-114343016D01*
X124580584Y-114430225D01*
X124627601Y-114487515D01*
X124627604Y-114487518D01*
X124643317Y-114506664D01*
X124657050Y-114517935D01*
X124668326Y-114531674D01*
X124744765Y-114594407D01*
X124831974Y-114641021D01*
X124926601Y-114669726D01*
X125000357Y-114676990D01*
X125000366Y-114676990D01*
X125025009Y-114679417D01*
X125049652Y-114676990D01*
X125359828Y-114676990D01*
X124063844Y-115972976D01*
X123753824Y-115972976D01*
X123753824Y-115962500D01*
X123745344Y-115876402D01*
X123720230Y-115793613D01*
X123679447Y-115717314D01*
X123624563Y-115650437D01*
X123577000Y-115611403D01*
X123577000Y-114450000D01*
X123574560Y-114425224D01*
X123567333Y-114401399D01*
X123555597Y-114379443D01*
X123539803Y-114360197D01*
X123520557Y-114344403D01*
X123498601Y-114332667D01*
X123474776Y-114325440D01*
X123450000Y-114323000D01*
X122483796Y-114323000D01*
X123267551Y-113539247D01*
X123535818Y-113539247D01*
X123560461Y-113541674D01*
X123585104Y-113539247D01*
X123585114Y-113539247D01*
X123658870Y-113531983D01*
X123753497Y-113503278D01*
X123840706Y-113456664D01*
X123917145Y-113393931D01*
X123932862Y-113374780D01*
X124107912Y-113199731D01*
X124149843Y-113199731D01*
X124158018Y-113282739D01*
G37*
%TD.AperFunction*%
D39*
X116263748Y-115510858D02*
X116249605Y-115525000D01*
X116263748Y-115539143D01*
X116084143Y-115718748D01*
X116070000Y-115704605D01*
X116055858Y-115718748D01*
X116012963Y-115675853D01*
X116056091Y-115604326D01*
X116081632Y-115533531D01*
X116106918Y-115534707D01*
X116230599Y-115516028D01*
X116258759Y-115505869D01*
X116263748Y-115510858D01*
%TA.AperFunction,Conductor*%
D40*
G36*
X116263748Y-115510858D02*
G01*
X116249605Y-115525000D01*
X116263748Y-115539143D01*
X116084143Y-115718748D01*
X116070000Y-115704605D01*
X116055858Y-115718748D01*
X116012963Y-115675853D01*
X116056091Y-115604326D01*
X116081632Y-115533531D01*
X116106918Y-115534707D01*
X116230599Y-115516028D01*
X116258759Y-115505869D01*
X116263748Y-115510858D01*
G37*
%TD.AperFunction*%
D39*
X112672000Y-111073000D02*
X112692000Y-111073000D01*
X112692000Y-111327000D01*
X112672000Y-111327000D01*
X112672000Y-111347000D01*
X112418000Y-111347000D01*
X112418000Y-111327000D01*
X112398000Y-111327000D01*
X112398000Y-111073000D01*
X112418000Y-111073000D01*
X112418000Y-108289973D01*
X112453905Y-108257259D01*
X112460493Y-108248328D01*
X112523747Y-108225919D01*
X112661157Y-108152472D01*
X112672000Y-108117685D01*
X112672000Y-111073000D01*
%TA.AperFunction,Conductor*%
D40*
G36*
X112672000Y-111073000D02*
G01*
X112692000Y-111073000D01*
X112692000Y-111327000D01*
X112672000Y-111327000D01*
X112672000Y-111347000D01*
X112418000Y-111347000D01*
X112418000Y-111327000D01*
X112398000Y-111327000D01*
X112398000Y-111073000D01*
X112418000Y-111073000D01*
X112418000Y-108289973D01*
X112453905Y-108257259D01*
X112460493Y-108248328D01*
X112523747Y-108225919D01*
X112661157Y-108152472D01*
X112672000Y-108117685D01*
X112672000Y-111073000D01*
G37*
%TD.AperFunction*%
D39*
X118979494Y-101559872D02*
X118928983Y-101726384D01*
X118911928Y-101899550D01*
X118911928Y-102550450D01*
X118928983Y-102723616D01*
X118979494Y-102890128D01*
X119057695Y-103036432D01*
X118976643Y-103002859D01*
X118826528Y-102973000D01*
X118673472Y-102973000D01*
X118523357Y-103002859D01*
X118381952Y-103061431D01*
X118254691Y-103146464D01*
X118146464Y-103254691D01*
X118061431Y-103381952D01*
X118002859Y-103523357D01*
X117973000Y-103673472D01*
X117973000Y-103826528D01*
X118002859Y-103976643D01*
X118061431Y-104118048D01*
X118146464Y-104245309D01*
X118254691Y-104353536D01*
X118381952Y-104438569D01*
X118523357Y-104497141D01*
X118673472Y-104527000D01*
X118817065Y-104527000D01*
X118902601Y-104612536D01*
X118913838Y-104626228D01*
X118837477Y-104702589D01*
X118818326Y-104718306D01*
X118755593Y-104794745D01*
X118708979Y-104881955D01*
X118680274Y-104976582D01*
X118673010Y-105050338D01*
X118673010Y-105050347D01*
X118670583Y-105074990D01*
X118673010Y-105099633D01*
X118673011Y-109150357D01*
X118670583Y-109175010D01*
X118680275Y-109273419D01*
X118708980Y-109368046D01*
X118755594Y-109455255D01*
X118802611Y-109512545D01*
X118802614Y-109512548D01*
X118818327Y-109531694D01*
X118837473Y-109547407D01*
X119238065Y-109948000D01*
X117608824Y-109948000D01*
X117608824Y-109935510D01*
X117673036Y-109916031D01*
X117760245Y-109869417D01*
X117836684Y-109806684D01*
X117852401Y-109787533D01*
X118262528Y-109377407D01*
X118281674Y-109361694D01*
X118344407Y-109285255D01*
X118391021Y-109198046D01*
X118419726Y-109103419D01*
X118426990Y-109029663D01*
X118426990Y-109029653D01*
X118429417Y-109005010D01*
X118426990Y-108980367D01*
X118426990Y-106798059D01*
X118429417Y-106773414D01*
X118426990Y-106748768D01*
X118426990Y-106748761D01*
X118419726Y-106675005D01*
X118419726Y-106675004D01*
X118391021Y-106580377D01*
X118344407Y-106493168D01*
X118297390Y-106435879D01*
X118297387Y-106435876D01*
X118281674Y-106416730D01*
X118262528Y-106401017D01*
X116273978Y-104412467D01*
X116258260Y-104393316D01*
X116181821Y-104330583D01*
X116094612Y-104283969D01*
X115999985Y-104255264D01*
X115926229Y-104248000D01*
X115926219Y-104248000D01*
X115901576Y-104245573D01*
X115876933Y-104248000D01*
X114366599Y-104248000D01*
X114324955Y-104170089D01*
X114248307Y-104076693D01*
X114154911Y-104000045D01*
X114048357Y-103943091D01*
X113932739Y-103908018D01*
X113812500Y-103896176D01*
X113312500Y-103896176D01*
X113192261Y-103908018D01*
X113076643Y-103943091D01*
X112970089Y-104000045D01*
X112876693Y-104076693D01*
X112841446Y-104119642D01*
X112814502Y-104030820D01*
X112755537Y-103920506D01*
X112676185Y-103823815D01*
X112579494Y-103744463D01*
X112469180Y-103685498D01*
X112349482Y-103649188D01*
X112225000Y-103636928D01*
X112023250Y-103640000D01*
X111864500Y-103798750D01*
X111864500Y-104623000D01*
X111884500Y-104623000D01*
X111884500Y-104877000D01*
X111864500Y-104877000D01*
X111864500Y-104897000D01*
X111610500Y-104897000D01*
X111610500Y-104877000D01*
X110773750Y-104877000D01*
X110615000Y-105035750D01*
X110611928Y-105225000D01*
X110624188Y-105349482D01*
X110660498Y-105469180D01*
X110719463Y-105579494D01*
X110798815Y-105676185D01*
X110895506Y-105755537D01*
X111005820Y-105814502D01*
X111047292Y-105827083D01*
X111041208Y-105846603D01*
X111588767Y-106394162D01*
X111229108Y-106393713D01*
X110861603Y-106026208D01*
X110612528Y-106103843D01*
X110486629Y-106367883D01*
X110480310Y-106392778D01*
X110427000Y-106392711D01*
X110427000Y-104275000D01*
X110611928Y-104275000D01*
X110615000Y-104464250D01*
X110773750Y-104623000D01*
X111610500Y-104623000D01*
X111610500Y-103798750D01*
X111451750Y-103640000D01*
X111250000Y-103636928D01*
X111125518Y-103649188D01*
X111005820Y-103685498D01*
X110895506Y-103744463D01*
X110798815Y-103823815D01*
X110719463Y-103920506D01*
X110660498Y-104030820D01*
X110624188Y-104150518D01*
X110611928Y-104275000D01*
X110427000Y-104275000D01*
X110427000Y-102775000D01*
X110611928Y-102775000D01*
X110624188Y-102899482D01*
X110660498Y-103019180D01*
X110719463Y-103129494D01*
X110798815Y-103226185D01*
X110895506Y-103305537D01*
X111005820Y-103364502D01*
X111125518Y-103400812D01*
X111250000Y-103413072D01*
X111451750Y-103410000D01*
X111610500Y-103251250D01*
X111610500Y-102427000D01*
X110773750Y-102427000D01*
X110615000Y-102585750D01*
X110611928Y-102775000D01*
X110427000Y-102775000D01*
X110427000Y-102020883D01*
X110439922Y-101889100D01*
X110472129Y-101782427D01*
X110524442Y-101684039D01*
X110594868Y-101597689D01*
X110680728Y-101526658D01*
X110692993Y-101520026D01*
X110660498Y-101580820D01*
X110624188Y-101700518D01*
X110611928Y-101825000D01*
X110615000Y-102014250D01*
X110773750Y-102173000D01*
X111610500Y-102173000D01*
X111610500Y-102153000D01*
X111864500Y-102153000D01*
X111864500Y-102173000D01*
X111884500Y-102173000D01*
X111884500Y-102427000D01*
X111864500Y-102427000D01*
X111864500Y-103251250D01*
X112023250Y-103410000D01*
X112225000Y-103413072D01*
X112349482Y-103400812D01*
X112469180Y-103364502D01*
X112579494Y-103305537D01*
X112676185Y-103226185D01*
X112755537Y-103129494D01*
X112814502Y-103019180D01*
X112841446Y-102930358D01*
X112876693Y-102973307D01*
X112970089Y-103049955D01*
X113076643Y-103106909D01*
X113192261Y-103141982D01*
X113312500Y-103153824D01*
X113812500Y-103153824D01*
X113932739Y-103141982D01*
X114048357Y-103106909D01*
X114154911Y-103049955D01*
X114205388Y-103008530D01*
X114269292Y-103051229D01*
X114410697Y-103109801D01*
X114560812Y-103139660D01*
X114713868Y-103139660D01*
X114863983Y-103109801D01*
X115005388Y-103051229D01*
X115132649Y-102966196D01*
X115240876Y-102857969D01*
X115325909Y-102730708D01*
X115384481Y-102589303D01*
X115414340Y-102439188D01*
X115414340Y-102286132D01*
X115384481Y-102136017D01*
X115325909Y-101994612D01*
X115240876Y-101867351D01*
X115132649Y-101759124D01*
X115005388Y-101674091D01*
X114863983Y-101615519D01*
X114713868Y-101585660D01*
X114560812Y-101585660D01*
X114410697Y-101615519D01*
X114282661Y-101668553D01*
X114248307Y-101626693D01*
X114154911Y-101550045D01*
X114048357Y-101493091D01*
X113932739Y-101458018D01*
X113812500Y-101446176D01*
X113312500Y-101446176D01*
X113192261Y-101458018D01*
X113076643Y-101493091D01*
X112970089Y-101550045D01*
X112876693Y-101626693D01*
X112841446Y-101669642D01*
X112814502Y-101580820D01*
X112755537Y-101470506D01*
X112719833Y-101427000D01*
X119050516Y-101427000D01*
X118979494Y-101559872D01*
%TA.AperFunction,Conductor*%
D40*
G36*
X118979494Y-101559872D02*
G01*
X118928983Y-101726384D01*
X118911928Y-101899550D01*
X118911928Y-102550450D01*
X118928983Y-102723616D01*
X118979494Y-102890128D01*
X119057695Y-103036432D01*
X118976643Y-103002859D01*
X118826528Y-102973000D01*
X118673472Y-102973000D01*
X118523357Y-103002859D01*
X118381952Y-103061431D01*
X118254691Y-103146464D01*
X118146464Y-103254691D01*
X118061431Y-103381952D01*
X118002859Y-103523357D01*
X117973000Y-103673472D01*
X117973000Y-103826528D01*
X118002859Y-103976643D01*
X118061431Y-104118048D01*
X118146464Y-104245309D01*
X118254691Y-104353536D01*
X118381952Y-104438569D01*
X118523357Y-104497141D01*
X118673472Y-104527000D01*
X118817065Y-104527000D01*
X118902601Y-104612536D01*
X118913838Y-104626228D01*
X118837477Y-104702589D01*
X118818326Y-104718306D01*
X118755593Y-104794745D01*
X118708979Y-104881955D01*
X118680274Y-104976582D01*
X118673010Y-105050338D01*
X118673010Y-105050347D01*
X118670583Y-105074990D01*
X118673010Y-105099633D01*
X118673011Y-109150357D01*
X118670583Y-109175010D01*
X118680275Y-109273419D01*
X118708980Y-109368046D01*
X118755594Y-109455255D01*
X118802611Y-109512545D01*
X118802614Y-109512548D01*
X118818327Y-109531694D01*
X118837473Y-109547407D01*
X119238065Y-109948000D01*
X117608824Y-109948000D01*
X117608824Y-109935510D01*
X117673036Y-109916031D01*
X117760245Y-109869417D01*
X117836684Y-109806684D01*
X117852401Y-109787533D01*
X118262528Y-109377407D01*
X118281674Y-109361694D01*
X118344407Y-109285255D01*
X118391021Y-109198046D01*
X118419726Y-109103419D01*
X118426990Y-109029663D01*
X118426990Y-109029653D01*
X118429417Y-109005010D01*
X118426990Y-108980367D01*
X118426990Y-106798059D01*
X118429417Y-106773414D01*
X118426990Y-106748768D01*
X118426990Y-106748761D01*
X118419726Y-106675005D01*
X118419726Y-106675004D01*
X118391021Y-106580377D01*
X118344407Y-106493168D01*
X118297390Y-106435879D01*
X118297387Y-106435876D01*
X118281674Y-106416730D01*
X118262528Y-106401017D01*
X116273978Y-104412467D01*
X116258260Y-104393316D01*
X116181821Y-104330583D01*
X116094612Y-104283969D01*
X115999985Y-104255264D01*
X115926229Y-104248000D01*
X115926219Y-104248000D01*
X115901576Y-104245573D01*
X115876933Y-104248000D01*
X114366599Y-104248000D01*
X114324955Y-104170089D01*
X114248307Y-104076693D01*
X114154911Y-104000045D01*
X114048357Y-103943091D01*
X113932739Y-103908018D01*
X113812500Y-103896176D01*
X113312500Y-103896176D01*
X113192261Y-103908018D01*
X113076643Y-103943091D01*
X112970089Y-104000045D01*
X112876693Y-104076693D01*
X112841446Y-104119642D01*
X112814502Y-104030820D01*
X112755537Y-103920506D01*
X112676185Y-103823815D01*
X112579494Y-103744463D01*
X112469180Y-103685498D01*
X112349482Y-103649188D01*
X112225000Y-103636928D01*
X112023250Y-103640000D01*
X111864500Y-103798750D01*
X111864500Y-104623000D01*
X111884500Y-104623000D01*
X111884500Y-104877000D01*
X111864500Y-104877000D01*
X111864500Y-104897000D01*
X111610500Y-104897000D01*
X111610500Y-104877000D01*
X110773750Y-104877000D01*
X110615000Y-105035750D01*
X110611928Y-105225000D01*
X110624188Y-105349482D01*
X110660498Y-105469180D01*
X110719463Y-105579494D01*
X110798815Y-105676185D01*
X110895506Y-105755537D01*
X111005820Y-105814502D01*
X111047292Y-105827083D01*
X111041208Y-105846603D01*
X111588767Y-106394162D01*
X111229108Y-106393713D01*
X110861603Y-106026208D01*
X110612528Y-106103843D01*
X110486629Y-106367883D01*
X110480310Y-106392778D01*
X110427000Y-106392711D01*
X110427000Y-104275000D01*
X110611928Y-104275000D01*
X110615000Y-104464250D01*
X110773750Y-104623000D01*
X111610500Y-104623000D01*
X111610500Y-103798750D01*
X111451750Y-103640000D01*
X111250000Y-103636928D01*
X111125518Y-103649188D01*
X111005820Y-103685498D01*
X110895506Y-103744463D01*
X110798815Y-103823815D01*
X110719463Y-103920506D01*
X110660498Y-104030820D01*
X110624188Y-104150518D01*
X110611928Y-104275000D01*
X110427000Y-104275000D01*
X110427000Y-102775000D01*
X110611928Y-102775000D01*
X110624188Y-102899482D01*
X110660498Y-103019180D01*
X110719463Y-103129494D01*
X110798815Y-103226185D01*
X110895506Y-103305537D01*
X111005820Y-103364502D01*
X111125518Y-103400812D01*
X111250000Y-103413072D01*
X111451750Y-103410000D01*
X111610500Y-103251250D01*
X111610500Y-102427000D01*
X110773750Y-102427000D01*
X110615000Y-102585750D01*
X110611928Y-102775000D01*
X110427000Y-102775000D01*
X110427000Y-102020883D01*
X110439922Y-101889100D01*
X110472129Y-101782427D01*
X110524442Y-101684039D01*
X110594868Y-101597689D01*
X110680728Y-101526658D01*
X110692993Y-101520026D01*
X110660498Y-101580820D01*
X110624188Y-101700518D01*
X110611928Y-101825000D01*
X110615000Y-102014250D01*
X110773750Y-102173000D01*
X111610500Y-102173000D01*
X111610500Y-102153000D01*
X111864500Y-102153000D01*
X111864500Y-102173000D01*
X111884500Y-102173000D01*
X111884500Y-102427000D01*
X111864500Y-102427000D01*
X111864500Y-103251250D01*
X112023250Y-103410000D01*
X112225000Y-103413072D01*
X112349482Y-103400812D01*
X112469180Y-103364502D01*
X112579494Y-103305537D01*
X112676185Y-103226185D01*
X112755537Y-103129494D01*
X112814502Y-103019180D01*
X112841446Y-102930358D01*
X112876693Y-102973307D01*
X112970089Y-103049955D01*
X113076643Y-103106909D01*
X113192261Y-103141982D01*
X113312500Y-103153824D01*
X113812500Y-103153824D01*
X113932739Y-103141982D01*
X114048357Y-103106909D01*
X114154911Y-103049955D01*
X114205388Y-103008530D01*
X114269292Y-103051229D01*
X114410697Y-103109801D01*
X114560812Y-103139660D01*
X114713868Y-103139660D01*
X114863983Y-103109801D01*
X115005388Y-103051229D01*
X115132649Y-102966196D01*
X115240876Y-102857969D01*
X115325909Y-102730708D01*
X115384481Y-102589303D01*
X115414340Y-102439188D01*
X115414340Y-102286132D01*
X115384481Y-102136017D01*
X115325909Y-101994612D01*
X115240876Y-101867351D01*
X115132649Y-101759124D01*
X115005388Y-101674091D01*
X114863983Y-101615519D01*
X114713868Y-101585660D01*
X114560812Y-101585660D01*
X114410697Y-101615519D01*
X114282661Y-101668553D01*
X114248307Y-101626693D01*
X114154911Y-101550045D01*
X114048357Y-101493091D01*
X113932739Y-101458018D01*
X113812500Y-101446176D01*
X113312500Y-101446176D01*
X113192261Y-101458018D01*
X113076643Y-101493091D01*
X112970089Y-101550045D01*
X112876693Y-101626693D01*
X112841446Y-101669642D01*
X112814502Y-101580820D01*
X112755537Y-101470506D01*
X112719833Y-101427000D01*
X119050516Y-101427000D01*
X118979494Y-101559872D01*
G37*
%TD.AperFunction*%
D39*
X119916684Y-109096248D02*
X120087500Y-109113072D01*
X120687500Y-109113072D01*
X120763719Y-109105565D01*
X120751349Y-109112177D01*
X120735739Y-109124988D01*
X120718169Y-109139408D01*
X120674910Y-109174910D01*
X120659197Y-109194056D01*
X120355254Y-109498000D01*
X120207935Y-109498000D01*
X119758066Y-109048132D01*
X119916684Y-109096248D01*
%TA.AperFunction,Conductor*%
D40*
G36*
X119916684Y-109096248D02*
G01*
X120087500Y-109113072D01*
X120687500Y-109113072D01*
X120763719Y-109105565D01*
X120751349Y-109112177D01*
X120735739Y-109124988D01*
X120718169Y-109139408D01*
X120674910Y-109174910D01*
X120659197Y-109194056D01*
X120355254Y-109498000D01*
X120207935Y-109498000D01*
X119758066Y-109048132D01*
X119916684Y-109096248D01*
G37*
%TD.AperFunction*%
D39*
X115715020Y-105273378D02*
X115688325Y-105277039D01*
X115383912Y-105382205D01*
X115209956Y-105475186D01*
X115114192Y-105739587D01*
X116070000Y-106695395D01*
X116084143Y-106681253D01*
X116263748Y-106860858D01*
X116249605Y-106875000D01*
X116276438Y-106901833D01*
X116166918Y-106885293D01*
X116076335Y-106889505D01*
X116046091Y-106805674D01*
X115981503Y-106698555D01*
X115897259Y-106606095D01*
X115796595Y-106531847D01*
X115683380Y-106478664D01*
X115561965Y-106448590D01*
X115547731Y-106447741D01*
X115534180Y-106440498D01*
X115421804Y-106406409D01*
X114934587Y-105919192D01*
X114670186Y-106014956D01*
X114529296Y-106304571D01*
X114506136Y-106392907D01*
X113295180Y-106394420D01*
X113240919Y-106241253D01*
X113167472Y-106103843D01*
X112918397Y-106026208D01*
X112404428Y-106540178D01*
X112259250Y-106395000D01*
X112190481Y-106394914D01*
X112738792Y-105846603D01*
X112683062Y-105667805D01*
X112755537Y-105579494D01*
X112814502Y-105469180D01*
X112841446Y-105380358D01*
X112876693Y-105423307D01*
X112970089Y-105499955D01*
X113076643Y-105556909D01*
X113192261Y-105591982D01*
X113312500Y-105603824D01*
X113812500Y-105603824D01*
X113932739Y-105591982D01*
X114048357Y-105556909D01*
X114154911Y-105499955D01*
X114248307Y-105423307D01*
X114324955Y-105329911D01*
X114366599Y-105252000D01*
X115693642Y-105252000D01*
X115715020Y-105273378D01*
%TA.AperFunction,Conductor*%
D40*
G36*
X115715020Y-105273378D02*
G01*
X115688325Y-105277039D01*
X115383912Y-105382205D01*
X115209956Y-105475186D01*
X115114192Y-105739587D01*
X116070000Y-106695395D01*
X116084143Y-106681253D01*
X116263748Y-106860858D01*
X116249605Y-106875000D01*
X116276438Y-106901833D01*
X116166918Y-106885293D01*
X116076335Y-106889505D01*
X116046091Y-106805674D01*
X115981503Y-106698555D01*
X115897259Y-106606095D01*
X115796595Y-106531847D01*
X115683380Y-106478664D01*
X115561965Y-106448590D01*
X115547731Y-106447741D01*
X115534180Y-106440498D01*
X115421804Y-106406409D01*
X114934587Y-105919192D01*
X114670186Y-106014956D01*
X114529296Y-106304571D01*
X114506136Y-106392907D01*
X113295180Y-106394420D01*
X113240919Y-106241253D01*
X113167472Y-106103843D01*
X112918397Y-106026208D01*
X112404428Y-106540178D01*
X112259250Y-106395000D01*
X112190481Y-106394914D01*
X112738792Y-105846603D01*
X112683062Y-105667805D01*
X112755537Y-105579494D01*
X112814502Y-105469180D01*
X112841446Y-105380358D01*
X112876693Y-105423307D01*
X112970089Y-105499955D01*
X113076643Y-105556909D01*
X113192261Y-105591982D01*
X113312500Y-105603824D01*
X113812500Y-105603824D01*
X113932739Y-105591982D01*
X114048357Y-105556909D01*
X114154911Y-105499955D01*
X114248307Y-105423307D01*
X114324955Y-105329911D01*
X114366599Y-105252000D01*
X115693642Y-105252000D01*
X115715020Y-105273378D01*
G37*
%TD.AperFunction*%
%TD*%
M02*
