%TF.GenerationSoftware,KiCad,Pcbnew,(5.1.10-1-10_14)*%
%TF.CreationDate,2021-05-13T11:47:25+01:00*%
%TF.ProjectId,Generic,47656e65-7269-4632-9e6b-696361645f70,3*%
%TF.SameCoordinates,Original*%
%TF.FileFunction,Paste,Bot*%
%TF.FilePolarity,Positive*%
%FSLAX46Y46*%
G04 Gerber Fmt 4.6, Leading zero omitted, Abs format (unit mm)*
G04 Created by KiCad (PCBNEW (5.1.10-1-10_14)) date 2021-05-13 11:47:25*
%MOMM*%
%LPD*%
G01*
G04 APERTURE LIST*
%ADD10R,2.000000X0.900000*%
%ADD11R,0.900000X2.000000*%
G04 APERTURE END LIST*
%TO.C,U1*%
G36*
G01*
X120300000Y-111095000D02*
X120300000Y-111495000D01*
G75*
G02*
X120100000Y-111695000I-200000J0D01*
G01*
X119700000Y-111695000D01*
G75*
G02*
X119500000Y-111495000I0J200000D01*
G01*
X119500000Y-111095000D01*
G75*
G02*
X119700000Y-110895000I200000J0D01*
G01*
X120100000Y-110895000D01*
G75*
G02*
X120300000Y-111095000I0J-200000D01*
G01*
G37*
G36*
G01*
X121300000Y-111095000D02*
X121300000Y-111495000D01*
G75*
G02*
X121100000Y-111695000I-200000J0D01*
G01*
X120700000Y-111695000D01*
G75*
G02*
X120500000Y-111495000I0J200000D01*
G01*
X120500000Y-111095000D01*
G75*
G02*
X120700000Y-110895000I200000J0D01*
G01*
X121100000Y-110895000D01*
G75*
G02*
X121300000Y-111095000I0J-200000D01*
G01*
G37*
G36*
G01*
X122300000Y-111095000D02*
X122300000Y-111495000D01*
G75*
G02*
X122100000Y-111695000I-200000J0D01*
G01*
X121700000Y-111695000D01*
G75*
G02*
X121500000Y-111495000I0J200000D01*
G01*
X121500000Y-111095000D01*
G75*
G02*
X121700000Y-110895000I200000J0D01*
G01*
X122100000Y-110895000D01*
G75*
G02*
X122300000Y-111095000I0J-200000D01*
G01*
G37*
G36*
G01*
X122300000Y-110095000D02*
X122300000Y-110495000D01*
G75*
G02*
X122100000Y-110695000I-200000J0D01*
G01*
X121700000Y-110695000D01*
G75*
G02*
X121500000Y-110495000I0J200000D01*
G01*
X121500000Y-110095000D01*
G75*
G02*
X121700000Y-109895000I200000J0D01*
G01*
X122100000Y-109895000D01*
G75*
G02*
X122300000Y-110095000I0J-200000D01*
G01*
G37*
G36*
G01*
X121300000Y-110095000D02*
X121300000Y-110495000D01*
G75*
G02*
X121100000Y-110695000I-200000J0D01*
G01*
X120700000Y-110695000D01*
G75*
G02*
X120500000Y-110495000I0J200000D01*
G01*
X120500000Y-110095000D01*
G75*
G02*
X120700000Y-109895000I200000J0D01*
G01*
X121100000Y-109895000D01*
G75*
G02*
X121300000Y-110095000I0J-200000D01*
G01*
G37*
G36*
G01*
X119300000Y-110095000D02*
X119300000Y-110495000D01*
G75*
G02*
X119100000Y-110695000I-200000J0D01*
G01*
X118700000Y-110695000D01*
G75*
G02*
X118500000Y-110495000I0J200000D01*
G01*
X118500000Y-110095000D01*
G75*
G02*
X118700000Y-109895000I200000J0D01*
G01*
X119100000Y-109895000D01*
G75*
G02*
X119300000Y-110095000I0J-200000D01*
G01*
G37*
G36*
G01*
X120300000Y-110095000D02*
X120300000Y-110495000D01*
G75*
G02*
X120100000Y-110695000I-200000J0D01*
G01*
X119700000Y-110695000D01*
G75*
G02*
X119500000Y-110495000I0J200000D01*
G01*
X119500000Y-110095000D01*
G75*
G02*
X119700000Y-109895000I200000J0D01*
G01*
X120100000Y-109895000D01*
G75*
G02*
X120300000Y-110095000I0J-200000D01*
G01*
G37*
G36*
G01*
X119300000Y-111095000D02*
X119300000Y-111495000D01*
G75*
G02*
X119100000Y-111695000I-200000J0D01*
G01*
X118700000Y-111695000D01*
G75*
G02*
X118500000Y-111495000I0J200000D01*
G01*
X118500000Y-111095000D01*
G75*
G02*
X118700000Y-110895000I200000J0D01*
G01*
X119100000Y-110895000D01*
G75*
G02*
X119300000Y-111095000I0J-200000D01*
G01*
G37*
G36*
G01*
X122300000Y-109095000D02*
X122300000Y-109495000D01*
G75*
G02*
X122100000Y-109695000I-200000J0D01*
G01*
X121700000Y-109695000D01*
G75*
G02*
X121500000Y-109495000I0J200000D01*
G01*
X121500000Y-109095000D01*
G75*
G02*
X121700000Y-108895000I200000J0D01*
G01*
X122100000Y-108895000D01*
G75*
G02*
X122300000Y-109095000I0J-200000D01*
G01*
G37*
G36*
G01*
X121300000Y-109095000D02*
X121300000Y-109495000D01*
G75*
G02*
X121100000Y-109695000I-200000J0D01*
G01*
X120700000Y-109695000D01*
G75*
G02*
X120500000Y-109495000I0J200000D01*
G01*
X120500000Y-109095000D01*
G75*
G02*
X120700000Y-108895000I200000J0D01*
G01*
X121100000Y-108895000D01*
G75*
G02*
X121300000Y-109095000I0J-200000D01*
G01*
G37*
G36*
G01*
X119300000Y-109095000D02*
X119300000Y-109495000D01*
G75*
G02*
X119100000Y-109695000I-200000J0D01*
G01*
X118700000Y-109695000D01*
G75*
G02*
X118500000Y-109495000I0J200000D01*
G01*
X118500000Y-109095000D01*
G75*
G02*
X118700000Y-108895000I200000J0D01*
G01*
X119100000Y-108895000D01*
G75*
G02*
X119300000Y-109095000I0J-200000D01*
G01*
G37*
G36*
G01*
X120300000Y-109095000D02*
X120300000Y-109495000D01*
G75*
G02*
X120100000Y-109695000I-200000J0D01*
G01*
X119700000Y-109695000D01*
G75*
G02*
X119500000Y-109495000I0J200000D01*
G01*
X119500000Y-109095000D01*
G75*
G02*
X119700000Y-108895000I200000J0D01*
G01*
X120100000Y-108895000D01*
G75*
G02*
X120300000Y-109095000I0J-200000D01*
G01*
G37*
G36*
G01*
X120300000Y-108095000D02*
X120300000Y-108495000D01*
G75*
G02*
X120100000Y-108695000I-200000J0D01*
G01*
X119700000Y-108695000D01*
G75*
G02*
X119500000Y-108495000I0J200000D01*
G01*
X119500000Y-108095000D01*
G75*
G02*
X119700000Y-107895000I200000J0D01*
G01*
X120100000Y-107895000D01*
G75*
G02*
X120300000Y-108095000I0J-200000D01*
G01*
G37*
G36*
G01*
X119300000Y-108095000D02*
X119300000Y-108495000D01*
G75*
G02*
X119100000Y-108695000I-200000J0D01*
G01*
X118700000Y-108695000D01*
G75*
G02*
X118500000Y-108495000I0J200000D01*
G01*
X118500000Y-108095000D01*
G75*
G02*
X118700000Y-107895000I200000J0D01*
G01*
X119100000Y-107895000D01*
G75*
G02*
X119300000Y-108095000I0J-200000D01*
G01*
G37*
G36*
G01*
X121300000Y-108095000D02*
X121300000Y-108495000D01*
G75*
G02*
X121100000Y-108695000I-200000J0D01*
G01*
X120700000Y-108695000D01*
G75*
G02*
X120500000Y-108495000I0J200000D01*
G01*
X120500000Y-108095000D01*
G75*
G02*
X120700000Y-107895000I200000J0D01*
G01*
X121100000Y-107895000D01*
G75*
G02*
X121300000Y-108095000I0J-200000D01*
G01*
G37*
G36*
G01*
X122300000Y-108095000D02*
X122300000Y-108495000D01*
G75*
G02*
X122100000Y-108695000I-200000J0D01*
G01*
X121700000Y-108695000D01*
G75*
G02*
X121500000Y-108495000I0J200000D01*
G01*
X121500000Y-108095000D01*
G75*
G02*
X121700000Y-107895000I200000J0D01*
G01*
X122100000Y-107895000D01*
G75*
G02*
X122300000Y-108095000I0J-200000D01*
G01*
G37*
D10*
X110900000Y-102295000D03*
X110900000Y-103565000D03*
X110900000Y-104835000D03*
X110900000Y-106105000D03*
X110900000Y-107375000D03*
X110900000Y-108645000D03*
X110900000Y-109915000D03*
X110900000Y-111185000D03*
X110900000Y-112455000D03*
X110900000Y-113725000D03*
X110900000Y-114995000D03*
X110900000Y-116265000D03*
X110900000Y-117535000D03*
X110900000Y-118805000D03*
D11*
X113685000Y-119805000D03*
X114955000Y-119805000D03*
X116225000Y-119805000D03*
X117495000Y-119805000D03*
X118765000Y-119805000D03*
X120035000Y-119805000D03*
X121305000Y-119805000D03*
X122575000Y-119805000D03*
X123845000Y-119805000D03*
X125115000Y-119805000D03*
D10*
X127900000Y-118805000D03*
X127900000Y-117535000D03*
X127900000Y-116265000D03*
X127900000Y-114995000D03*
X127900000Y-113725000D03*
X127900000Y-112455000D03*
X127900000Y-111185000D03*
X127900000Y-109915000D03*
X127900000Y-108645000D03*
X127900000Y-107375000D03*
X127900000Y-106105000D03*
X127900000Y-104835000D03*
X127900000Y-103565000D03*
X127900000Y-102295000D03*
%TD*%
M02*
