%TF.GenerationSoftware,KiCad,Pcbnew,(5.1.9-0-10_14)*%
%TF.CreationDate,2021-04-21T10:27:22+01:00*%
%TF.ProjectId,Generic,47656e65-7269-4632-9e6b-696361645f70,2*%
%TF.SameCoordinates,Original*%
%TF.FileFunction,Paste,Bot*%
%TF.FilePolarity,Positive*%
%FSLAX46Y46*%
G04 Gerber Fmt 4.6, Leading zero omitted, Abs format (unit mm)*
G04 Created by KiCad (PCBNEW (5.1.9-0-10_14)) date 2021-04-21 10:27:22*
%MOMM*%
%LPD*%
G01*
G04 APERTURE LIST*
%ADD10C,1.700000*%
%ADD11R,1.000000X0.300000*%
%ADD12R,0.300000X1.000000*%
%ADD13R,1.140000X0.600000*%
%ADD14R,1.140000X0.300000*%
G04 APERTURE END LIST*
%TO.C,C1*%
G36*
G01*
X113962500Y-121150003D02*
X113962500Y-119849997D01*
G75*
G02*
X114212497Y-119600000I249997J0D01*
G01*
X115037503Y-119600000D01*
G75*
G02*
X115287500Y-119849997I0J-249997D01*
G01*
X115287500Y-121150003D01*
G75*
G02*
X115037503Y-121400000I-249997J0D01*
G01*
X114212497Y-121400000D01*
G75*
G02*
X113962500Y-121150003I0J249997D01*
G01*
G37*
G36*
G01*
X110837500Y-121150003D02*
X110837500Y-119849997D01*
G75*
G02*
X111087497Y-119600000I249997J0D01*
G01*
X111912503Y-119600000D01*
G75*
G02*
X112162500Y-119849997I0J-249997D01*
G01*
X112162500Y-121150003D01*
G75*
G02*
X111912503Y-121400000I-249997J0D01*
G01*
X111087497Y-121400000D01*
G75*
G02*
X110837500Y-121150003I0J249997D01*
G01*
G37*
%TD*%
%TO.C,R6*%
G36*
G01*
X125550000Y-119374999D02*
X125550000Y-120625001D01*
G75*
G02*
X125300001Y-120875000I-249999J0D01*
G01*
X124499999Y-120875000D01*
G75*
G02*
X124250000Y-120625001I0J249999D01*
G01*
X124250000Y-119374999D01*
G75*
G02*
X124499999Y-119125000I249999J0D01*
G01*
X125300001Y-119125000D01*
G75*
G02*
X125550000Y-119374999I0J-249999D01*
G01*
G37*
G36*
G01*
X128650000Y-119374999D02*
X128650000Y-120625001D01*
G75*
G02*
X128400001Y-120875000I-249999J0D01*
G01*
X127599999Y-120875000D01*
G75*
G02*
X127350000Y-120625001I0J249999D01*
G01*
X127350000Y-119374999D01*
G75*
G02*
X127599999Y-119125000I249999J0D01*
G01*
X128400001Y-119125000D01*
G75*
G02*
X128650000Y-119374999I0J-249999D01*
G01*
G37*
%TD*%
D10*
%TO.C,M1*%
X119990000Y-102270000D03*
X127610000Y-102270000D03*
X122530000Y-102270000D03*
%TD*%
%TO.C,U2*%
G36*
G01*
X120537500Y-117650000D02*
X120112500Y-117650000D01*
G75*
G02*
X119900000Y-117437500I0J212500D01*
G01*
X119900000Y-117012500D01*
G75*
G02*
X120112500Y-116800000I212500J0D01*
G01*
X120537500Y-116800000D01*
G75*
G02*
X120750000Y-117012500I0J-212500D01*
G01*
X120750000Y-117437500D01*
G75*
G02*
X120537500Y-117650000I-212500J0D01*
G01*
G37*
G36*
G01*
X121587500Y-117650000D02*
X121162500Y-117650000D01*
G75*
G02*
X120950000Y-117437500I0J212500D01*
G01*
X120950000Y-117012500D01*
G75*
G02*
X121162500Y-116800000I212500J0D01*
G01*
X121587500Y-116800000D01*
G75*
G02*
X121800000Y-117012500I0J-212500D01*
G01*
X121800000Y-117437500D01*
G75*
G02*
X121587500Y-117650000I-212500J0D01*
G01*
G37*
G36*
G01*
X120537500Y-118700000D02*
X120112500Y-118700000D01*
G75*
G02*
X119900000Y-118487500I0J212500D01*
G01*
X119900000Y-118062500D01*
G75*
G02*
X120112500Y-117850000I212500J0D01*
G01*
X120537500Y-117850000D01*
G75*
G02*
X120750000Y-118062500I0J-212500D01*
G01*
X120750000Y-118487500D01*
G75*
G02*
X120537500Y-118700000I-212500J0D01*
G01*
G37*
G36*
G01*
X121587500Y-118700000D02*
X121162500Y-118700000D01*
G75*
G02*
X120950000Y-118487500I0J212500D01*
G01*
X120950000Y-118062500D01*
G75*
G02*
X121162500Y-117850000I212500J0D01*
G01*
X121587500Y-117850000D01*
G75*
G02*
X121800000Y-118062500I0J-212500D01*
G01*
X121800000Y-118487500D01*
G75*
G02*
X121587500Y-118700000I-212500J0D01*
G01*
G37*
D11*
X122900000Y-118725000D03*
X122900000Y-118075000D03*
X122900000Y-117425000D03*
X122900000Y-116775000D03*
D12*
X121825000Y-115700000D03*
X121175000Y-115700000D03*
X120525000Y-115700000D03*
X119875000Y-115700000D03*
D11*
X118800000Y-116775000D03*
X118800000Y-117425000D03*
X118800000Y-118075000D03*
X118800000Y-118725000D03*
D12*
X119875000Y-119800000D03*
X120525000Y-119800000D03*
X121175000Y-119800000D03*
X121825000Y-119800000D03*
%TD*%
%TO.C,R5*%
G36*
G01*
X127125001Y-125850000D02*
X125874999Y-125850000D01*
G75*
G02*
X125625000Y-125600001I0J249999D01*
G01*
X125625000Y-124799999D01*
G75*
G02*
X125874999Y-124550000I249999J0D01*
G01*
X127125001Y-124550000D01*
G75*
G02*
X127375000Y-124799999I0J-249999D01*
G01*
X127375000Y-125600001D01*
G75*
G02*
X127125001Y-125850000I-249999J0D01*
G01*
G37*
G36*
G01*
X127125001Y-128950000D02*
X125874999Y-128950000D01*
G75*
G02*
X125625000Y-128700001I0J249999D01*
G01*
X125625000Y-127899999D01*
G75*
G02*
X125874999Y-127650000I249999J0D01*
G01*
X127125001Y-127650000D01*
G75*
G02*
X127375000Y-127899999I0J-249999D01*
G01*
X127375000Y-128700001D01*
G75*
G02*
X127125001Y-128950000I-249999J0D01*
G01*
G37*
%TD*%
%TO.C,R4*%
G36*
G01*
X123855001Y-125850000D02*
X122604999Y-125850000D01*
G75*
G02*
X122355000Y-125600001I0J249999D01*
G01*
X122355000Y-124799999D01*
G75*
G02*
X122604999Y-124550000I249999J0D01*
G01*
X123855001Y-124550000D01*
G75*
G02*
X124105000Y-124799999I0J-249999D01*
G01*
X124105000Y-125600001D01*
G75*
G02*
X123855001Y-125850000I-249999J0D01*
G01*
G37*
G36*
G01*
X123855001Y-128950000D02*
X122604999Y-128950000D01*
G75*
G02*
X122355000Y-128700001I0J249999D01*
G01*
X122355000Y-127899999D01*
G75*
G02*
X122604999Y-127650000I249999J0D01*
G01*
X123855001Y-127650000D01*
G75*
G02*
X124105000Y-127899999I0J-249999D01*
G01*
X124105000Y-128700001D01*
G75*
G02*
X123855001Y-128950000I-249999J0D01*
G01*
G37*
%TD*%
%TO.C,R3*%
G36*
G01*
X121355001Y-125850000D02*
X120104999Y-125850000D01*
G75*
G02*
X119855000Y-125600001I0J249999D01*
G01*
X119855000Y-124799999D01*
G75*
G02*
X120104999Y-124550000I249999J0D01*
G01*
X121355001Y-124550000D01*
G75*
G02*
X121605000Y-124799999I0J-249999D01*
G01*
X121605000Y-125600001D01*
G75*
G02*
X121355001Y-125850000I-249999J0D01*
G01*
G37*
G36*
G01*
X121355001Y-128950000D02*
X120104999Y-128950000D01*
G75*
G02*
X119855000Y-128700001I0J249999D01*
G01*
X119855000Y-127899999D01*
G75*
G02*
X120104999Y-127650000I249999J0D01*
G01*
X121355001Y-127650000D01*
G75*
G02*
X121605000Y-127899999I0J-249999D01*
G01*
X121605000Y-128700001D01*
G75*
G02*
X121355001Y-128950000I-249999J0D01*
G01*
G37*
%TD*%
%TO.C,R2*%
G36*
G01*
X118855001Y-125850000D02*
X117604999Y-125850000D01*
G75*
G02*
X117355000Y-125600001I0J249999D01*
G01*
X117355000Y-124799999D01*
G75*
G02*
X117604999Y-124550000I249999J0D01*
G01*
X118855001Y-124550000D01*
G75*
G02*
X119105000Y-124799999I0J-249999D01*
G01*
X119105000Y-125600001D01*
G75*
G02*
X118855001Y-125850000I-249999J0D01*
G01*
G37*
G36*
G01*
X118855001Y-128950000D02*
X117604999Y-128950000D01*
G75*
G02*
X117355000Y-128700001I0J249999D01*
G01*
X117355000Y-127899999D01*
G75*
G02*
X117604999Y-127650000I249999J0D01*
G01*
X118855001Y-127650000D01*
G75*
G02*
X119105000Y-127899999I0J-249999D01*
G01*
X119105000Y-128700001D01*
G75*
G02*
X118855001Y-128950000I-249999J0D01*
G01*
G37*
%TD*%
%TO.C,R1*%
G36*
G01*
X116355001Y-125850000D02*
X115104999Y-125850000D01*
G75*
G02*
X114855000Y-125600001I0J249999D01*
G01*
X114855000Y-124799999D01*
G75*
G02*
X115104999Y-124550000I249999J0D01*
G01*
X116355001Y-124550000D01*
G75*
G02*
X116605000Y-124799999I0J-249999D01*
G01*
X116605000Y-125600001D01*
G75*
G02*
X116355001Y-125850000I-249999J0D01*
G01*
G37*
G36*
G01*
X116355001Y-128950000D02*
X115104999Y-128950000D01*
G75*
G02*
X114855000Y-128700001I0J249999D01*
G01*
X114855000Y-127899999D01*
G75*
G02*
X115104999Y-127650000I249999J0D01*
G01*
X116355001Y-127650000D01*
G75*
G02*
X116605000Y-127899999I0J-249999D01*
G01*
X116605000Y-128700001D01*
G75*
G02*
X116355001Y-128950000I-249999J0D01*
G01*
G37*
%TD*%
D13*
%TO.C,J2*%
X116660000Y-108000000D03*
X116660000Y-113600000D03*
X116660000Y-114400000D03*
X116660000Y-108800000D03*
D14*
X116660000Y-110950000D03*
X116660000Y-111450000D03*
X116660000Y-110450000D03*
X116660000Y-111950000D03*
X116660000Y-109950000D03*
X116660000Y-112450000D03*
X116660000Y-109450000D03*
X116660000Y-112950000D03*
D13*
X116660000Y-108800000D03*
X116660000Y-113600000D03*
X116660000Y-108000000D03*
X116660000Y-114400000D03*
%TD*%
%TO.C,R8*%
G36*
G01*
X113550000Y-105375001D02*
X113550000Y-104124999D01*
G75*
G02*
X113799999Y-103875000I249999J0D01*
G01*
X114600001Y-103875000D01*
G75*
G02*
X114850000Y-104124999I0J-249999D01*
G01*
X114850000Y-105375001D01*
G75*
G02*
X114600001Y-105625000I-249999J0D01*
G01*
X113799999Y-105625000D01*
G75*
G02*
X113550000Y-105375001I0J249999D01*
G01*
G37*
G36*
G01*
X110450000Y-105375001D02*
X110450000Y-104124999D01*
G75*
G02*
X110699999Y-103875000I249999J0D01*
G01*
X111500001Y-103875000D01*
G75*
G02*
X111750000Y-104124999I0J-249999D01*
G01*
X111750000Y-105375001D01*
G75*
G02*
X111500001Y-105625000I-249999J0D01*
G01*
X110699999Y-105625000D01*
G75*
G02*
X110450000Y-105375001I0J249999D01*
G01*
G37*
%TD*%
%TO.C,R7*%
G36*
G01*
X111750000Y-101674999D02*
X111750000Y-102925001D01*
G75*
G02*
X111500001Y-103175000I-249999J0D01*
G01*
X110699999Y-103175000D01*
G75*
G02*
X110450000Y-102925001I0J249999D01*
G01*
X110450000Y-101674999D01*
G75*
G02*
X110699999Y-101425000I249999J0D01*
G01*
X111500001Y-101425000D01*
G75*
G02*
X111750000Y-101674999I0J-249999D01*
G01*
G37*
G36*
G01*
X114850000Y-101674999D02*
X114850000Y-102925001D01*
G75*
G02*
X114600001Y-103175000I-249999J0D01*
G01*
X113799999Y-103175000D01*
G75*
G02*
X113550000Y-102925001I0J249999D01*
G01*
X113550000Y-101674999D01*
G75*
G02*
X113799999Y-101425000I249999J0D01*
G01*
X114600001Y-101425000D01*
G75*
G02*
X114850000Y-101674999I0J-249999D01*
G01*
G37*
%TD*%
M02*
