%TF.GenerationSoftware,KiCad,Pcbnew,(5.1.9-0-10_14)*%
%TF.CreationDate,2021-03-08T14:06:37+00:00*%
%TF.ProjectId,Generic,47656e65-7269-4632-9e6b-696361645f70,rev?*%
%TF.SameCoordinates,Original*%
%TF.FileFunction,Copper,L1,Top*%
%TF.FilePolarity,Positive*%
%FSLAX46Y46*%
G04 Gerber Fmt 4.6, Leading zero omitted, Abs format (unit mm)*
G04 Created by KiCad (PCBNEW (5.1.9-0-10_14)) date 2021-03-08 14:06:37*
%MOMM*%
%LPD*%
G01*
G04 APERTURE LIST*
%TA.AperFunction,NonConductor*%
%ADD10C,0.300000*%
%TD*%
%TA.AperFunction,ComponentPad*%
%ADD11O,1.700000X1.700000*%
%TD*%
%TA.AperFunction,ComponentPad*%
%ADD12R,1.700000X1.700000*%
%TD*%
%TA.AperFunction,ComponentPad*%
%ADD13C,1.700000*%
%TD*%
%TA.AperFunction,ComponentPad*%
%ADD14R,1.524000X1.524000*%
%TD*%
%TA.AperFunction,ComponentPad*%
%ADD15C,2.000000*%
%TD*%
%TA.AperFunction,ComponentPad*%
%ADD16C,0.600000*%
%TD*%
%TA.AperFunction,SMDPad,CuDef*%
%ADD17R,2.000000X0.900000*%
%TD*%
%TA.AperFunction,SMDPad,CuDef*%
%ADD18R,0.900000X2.000000*%
%TD*%
%TA.AperFunction,SMDPad,CuDef*%
%ADD19R,5.000000X5.000000*%
%TD*%
%TA.AperFunction,ComponentPad*%
%ADD20O,1.700000X1.850000*%
%TD*%
%TA.AperFunction,ViaPad*%
%ADD21C,0.800000*%
%TD*%
%TA.AperFunction,Conductor*%
%ADD22C,0.250000*%
%TD*%
%TA.AperFunction,Conductor*%
%ADD23C,0.254000*%
%TD*%
%TA.AperFunction,Conductor*%
%ADD24C,0.100000*%
%TD*%
G04 APERTURE END LIST*
D10*
X117864285Y-123628571D02*
X118150000Y-124628571D01*
X118435714Y-123914285D01*
X118721428Y-124628571D01*
X119007142Y-123628571D01*
X119435714Y-123628571D02*
X119721428Y-124628571D01*
X120007142Y-123914285D01*
X120292857Y-124628571D01*
X120578571Y-123628571D01*
X121007142Y-123628571D02*
X121292857Y-124628571D01*
X121578571Y-123914285D01*
X121864285Y-124628571D01*
X122150000Y-123628571D01*
X122721428Y-124485714D02*
X122792857Y-124557142D01*
X122721428Y-124628571D01*
X122650000Y-124557142D01*
X122721428Y-124485714D01*
X122721428Y-124628571D01*
X123435714Y-124628571D02*
X123435714Y-123628571D01*
X123435714Y-123771428D02*
X123507142Y-123700000D01*
X123650000Y-123628571D01*
X123864285Y-123628571D01*
X124007142Y-123700000D01*
X124078571Y-123842857D01*
X124078571Y-124628571D01*
X124078571Y-123842857D02*
X124150000Y-123700000D01*
X124292857Y-123628571D01*
X124507142Y-123628571D01*
X124650000Y-123700000D01*
X124721428Y-123842857D01*
X124721428Y-124628571D01*
X126007142Y-124557142D02*
X125864285Y-124628571D01*
X125578571Y-124628571D01*
X125435714Y-124557142D01*
X125364285Y-124414285D01*
X125364285Y-123842857D01*
X125435714Y-123700000D01*
X125578571Y-123628571D01*
X125864285Y-123628571D01*
X126007142Y-123700000D01*
X126078571Y-123842857D01*
X126078571Y-123985714D01*
X125364285Y-124128571D01*
X126721428Y-124485714D02*
X126792857Y-124557142D01*
X126721428Y-124628571D01*
X126650000Y-124557142D01*
X126721428Y-124485714D01*
X126721428Y-124628571D01*
X128078571Y-123628571D02*
X128078571Y-124628571D01*
X127435714Y-123628571D02*
X127435714Y-124414285D01*
X127507142Y-124557142D01*
X127650000Y-124628571D01*
X127864285Y-124628571D01*
X128007142Y-124557142D01*
X128078571Y-124485714D01*
X128792857Y-124628571D02*
X128792857Y-123128571D01*
X128935714Y-124057142D02*
X129364285Y-124628571D01*
X129364285Y-123628571D02*
X128792857Y-124200000D01*
D11*
%TO.P,J3,2*%
%TO.N,VBUS*%
X114700000Y-123160000D03*
D12*
%TO.P,J3,1*%
%TO.N,GND*%
X114700000Y-125700000D03*
%TD*%
D13*
%TO.P,M1,4*%
%TO.N,+3V3*%
X122560000Y-111150000D03*
D14*
%TO.P,M1,3*%
%TO.N,GND*%
X125100000Y-111150000D03*
D13*
%TO.P,M1,2*%
%TO.N,VBUS*%
X127640000Y-111150000D03*
%TD*%
%TO.P,J2,S1*%
%TO.N,GND*%
X114390000Y-104375000D03*
X114390000Y-113025000D03*
D15*
X118570000Y-104375000D03*
X118570000Y-113025000D03*
D16*
X118090000Y-105810000D03*
X118090000Y-111590000D03*
%TD*%
D17*
%TO.P,U1,38*%
%TO.N,GND*%
X130500000Y-99795000D03*
%TO.P,U1,37*%
%TO.N,Net-(U1-Pad37)*%
X130500000Y-101065000D03*
%TO.P,U1,36*%
%TO.N,Net-(U1-Pad36)*%
X130500000Y-102335000D03*
%TO.P,U1,35*%
%TO.N,O*%
X130500000Y-103605000D03*
%TO.P,U1,34*%
%TO.N,I*%
X130500000Y-104875000D03*
%TO.P,U1,33*%
%TO.N,Net-(U1-Pad33)*%
X130500000Y-106145000D03*
%TO.P,U1,32*%
%TO.N,Net-(U1-Pad32)*%
X130500000Y-107415000D03*
%TO.P,U1,31*%
%TO.N,Net-(U1-Pad31)*%
X130500000Y-108685000D03*
%TO.P,U1,30*%
%TO.N,Net-(U1-Pad30)*%
X130500000Y-109955000D03*
%TO.P,U1,29*%
%TO.N,CBUS1*%
X130500000Y-111225000D03*
%TO.P,U1,28*%
%TO.N,CBUS0*%
X130500000Y-112495000D03*
%TO.P,U1,27*%
%TO.N,IO4*%
X130500000Y-113765000D03*
%TO.P,U1,26*%
%TO.N,IO5*%
X130500000Y-115035000D03*
%TO.P,U1,25*%
%TO.N,CBUS3*%
X130500000Y-116305000D03*
D18*
%TO.P,U1,24*%
%TO.N,IO3*%
X127715000Y-117305000D03*
%TO.P,U1,23*%
%TO.N,IO2*%
X126445000Y-117305000D03*
%TO.P,U1,22*%
%TO.N,Net-(U1-Pad22)*%
X125175000Y-117305000D03*
%TO.P,U1,21*%
%TO.N,Net-(U1-Pad21)*%
X123905000Y-117305000D03*
%TO.P,U1,20*%
%TO.N,Net-(U1-Pad20)*%
X122635000Y-117305000D03*
%TO.P,U1,19*%
%TO.N,Net-(U1-Pad19)*%
X121365000Y-117305000D03*
%TO.P,U1,18*%
%TO.N,Net-(U1-Pad18)*%
X120095000Y-117305000D03*
%TO.P,U1,17*%
%TO.N,Net-(U1-Pad17)*%
X118825000Y-117305000D03*
%TO.P,U1,16*%
%TO.N,IO1*%
X117555000Y-117305000D03*
%TO.P,U1,15*%
%TO.N,GND*%
X116285000Y-117305000D03*
D17*
%TO.P,U1,14*%
%TO.N,Net-(U1-Pad14)*%
X113500000Y-116305000D03*
%TO.P,U1,13*%
%TO.N,CBUS2*%
X113500000Y-115035000D03*
%TO.P,U1,12*%
%TO.N,GND*%
X113500000Y-113765000D03*
%TO.P,U1,11*%
X113500000Y-112495000D03*
%TO.P,U1,10*%
%TO.N,Net-(U1-Pad10)*%
X113500000Y-111225000D03*
%TO.P,U1,9*%
%TO.N,Net-(U1-Pad9)*%
X113500000Y-109955000D03*
%TO.P,U1,8*%
%TO.N,Net-(U1-Pad8)*%
X113500000Y-108685000D03*
%TO.P,U1,7*%
%TO.N,Net-(U1-Pad7)*%
X113500000Y-107415000D03*
%TO.P,U1,6*%
%TO.N,Net-(U1-Pad6)*%
X113500000Y-106145000D03*
%TO.P,U1,5*%
%TO.N,GND*%
X113500000Y-104875000D03*
%TO.P,U1,4*%
X113500000Y-103605000D03*
%TO.P,U1,3*%
%TO.N,EN*%
X113500000Y-102335000D03*
%TO.P,U1,2*%
%TO.N,+3V3*%
X113500000Y-101065000D03*
%TO.P,U1,1*%
%TO.N,GND*%
X113500000Y-99795000D03*
D19*
%TO.P,U1,39*%
X121000000Y-107295000D03*
%TD*%
D20*
%TO.P,J1,6*%
%TO.N,IO5*%
X128500000Y-120400000D03*
%TO.P,J1,5*%
%TO.N,IO4*%
X126000000Y-120400000D03*
%TO.P,J1,4*%
%TO.N,IO3*%
X123500000Y-120400000D03*
%TO.P,J1,3*%
%TO.N,IO2*%
X121000000Y-120400000D03*
%TO.P,J1,2*%
%TO.N,IO1*%
X118500000Y-120400000D03*
%TO.P,J1,1*%
%TO.N,GND*%
%TA.AperFunction,ComponentPad*%
G36*
G01*
X115150000Y-121075000D02*
X115150000Y-119725000D01*
G75*
G02*
X115400000Y-119475000I250000J0D01*
G01*
X116600000Y-119475000D01*
G75*
G02*
X116850000Y-119725000I0J-250000D01*
G01*
X116850000Y-121075000D01*
G75*
G02*
X116600000Y-121325000I-250000J0D01*
G01*
X115400000Y-121325000D01*
G75*
G02*
X115150000Y-121075000I0J250000D01*
G01*
G37*
%TD.AperFunction*%
%TD*%
D21*
%TO.N,D+*%
X120581010Y-103693670D03*
X119952424Y-113830548D03*
%TO.N,GND*%
X128650000Y-99850000D03*
X115150000Y-99800000D03*
X125369309Y-113575012D03*
%TO.N,D-*%
X126628251Y-104652932D03*
X123664831Y-103744605D03*
X121689663Y-103224624D03*
%TO.N,+3V3*%
X126750000Y-100900000D03*
X127383573Y-103328155D03*
X116150000Y-123950000D03*
X118058212Y-115548333D03*
%TO.N,VBUS*%
X120372991Y-111100000D03*
%TO.N,O*%
X119027658Y-115254989D03*
%TO.N,I*%
X127739571Y-115630549D03*
%TO.N,EN*%
X115550000Y-114300000D03*
%TO.N,CBUS3*%
X129864808Y-118040128D03*
%TO.N,CBUS0*%
X128572613Y-113458340D03*
%TO.N,CBUS1*%
X127575010Y-113388975D03*
%TO.N,CBUS2*%
X116815147Y-114539827D03*
%TD*%
D22*
%TO.N,D+*%
X120581010Y-103693670D02*
X119487328Y-102599988D01*
X116794988Y-103552599D02*
X116794988Y-109369141D01*
X119952424Y-112526577D02*
X119952424Y-113830548D01*
X116794988Y-109369141D02*
X119952424Y-112526577D01*
X119487328Y-102599988D02*
X117747599Y-102599988D01*
X117747599Y-102599988D02*
X116794988Y-103552599D01*
%TO.N,GND*%
X116285000Y-120115000D02*
X116000000Y-120400000D01*
X116285000Y-117305000D02*
X116285000Y-120115000D01*
X113890000Y-104875000D02*
X114390000Y-104375000D01*
X113500000Y-104875000D02*
X113890000Y-104875000D01*
X114030000Y-113025000D02*
X113500000Y-112495000D01*
X114390000Y-113025000D02*
X114030000Y-113025000D01*
X113650000Y-113765000D02*
X114390000Y-113025000D01*
X113500000Y-113765000D02*
X113650000Y-113765000D01*
X113620000Y-103605000D02*
X114390000Y-104375000D01*
X113500000Y-103605000D02*
X113620000Y-103605000D01*
X121000000Y-107295000D02*
X121000000Y-106805000D01*
X121000000Y-106805000D02*
X118570000Y-104375000D01*
X115162531Y-126312531D02*
X114700000Y-125850000D01*
X118090000Y-112545000D02*
X118570000Y-113025000D01*
X118090000Y-111590000D02*
X118090000Y-112545000D01*
X125100000Y-113305703D02*
X125369309Y-113575012D01*
X125100000Y-111150000D02*
X125100000Y-113305703D01*
%TO.N,D-*%
X123664831Y-103744605D02*
X122209644Y-103744605D01*
X122209644Y-103744605D02*
X121689663Y-103224624D01*
X123664831Y-103744605D02*
X123894605Y-103744605D01*
X124802932Y-104652932D02*
X126628251Y-104652932D01*
X123894605Y-103744605D02*
X124802932Y-104652932D01*
%TO.N,+3V3*%
X122560000Y-111150000D02*
X122730002Y-111150000D01*
X127803264Y-105187334D02*
X127803264Y-104118530D01*
X127803264Y-104118530D02*
X127383573Y-103698839D01*
X127383573Y-103698839D02*
X127383573Y-103328155D01*
X125200000Y-102450000D02*
X126750000Y-100900000D01*
X123200000Y-102450000D02*
X125200000Y-102450000D01*
X122449967Y-101699967D02*
X123200000Y-102450000D01*
X115349967Y-101699967D02*
X122449967Y-101699967D01*
X114715000Y-101065000D02*
X115349967Y-101699967D01*
X113500000Y-101065000D02*
X114715000Y-101065000D01*
X115509999Y-116044999D02*
X115574999Y-115979999D01*
X114700011Y-121421009D02*
X114700011Y-119611798D01*
X115509999Y-118801810D02*
X115509999Y-116044999D01*
X116150000Y-123950000D02*
X116150000Y-122870998D01*
X114700011Y-119611798D02*
X115509999Y-118801810D01*
X118186708Y-115548333D02*
X118058212Y-115548333D01*
X115574999Y-115979999D02*
X117626546Y-115979999D01*
X117626546Y-115979999D02*
X118058212Y-115548333D01*
X116150000Y-122870998D02*
X114700011Y-121421009D01*
X118489878Y-115979999D02*
X118058212Y-115548333D01*
X118220001Y-115581626D02*
X118186708Y-115548333D01*
X124090001Y-109790001D02*
X124090001Y-106209999D01*
X122730002Y-111150000D02*
X124090001Y-109790001D01*
X127220296Y-105770299D02*
X127220299Y-105770299D01*
X127162652Y-105827943D02*
X127220296Y-105770299D01*
X124472057Y-105827943D02*
X127162652Y-105827943D01*
X124090001Y-106209999D02*
X124472057Y-105827943D01*
X127220299Y-105770299D02*
X127803264Y-105187334D01*
X121270001Y-115979999D02*
X121270001Y-115879999D01*
X121270001Y-115979999D02*
X118489878Y-115979999D01*
X121270001Y-115879999D02*
X121750000Y-115400000D01*
X121750000Y-111960000D02*
X122560000Y-111150000D01*
X121750000Y-115400000D02*
X121750000Y-111960000D01*
%TO.N,VBUS*%
X115059989Y-115840011D02*
X115370012Y-115529988D01*
X117042877Y-115529988D02*
X118042878Y-114529987D01*
X114700000Y-123160000D02*
X113850001Y-122310001D01*
X113850001Y-122310001D02*
X113850001Y-118891973D01*
X120747989Y-114152011D02*
X120747989Y-113688402D01*
X120647990Y-113588403D02*
X120647990Y-111374999D01*
X119578859Y-114529987D02*
X119604422Y-114555550D01*
X113850001Y-118891973D02*
X115059988Y-117681986D01*
X115370012Y-115529988D02*
X117042877Y-115529988D01*
X120747989Y-113688402D02*
X120647990Y-113588403D01*
X118042878Y-114529987D02*
X119578859Y-114529987D01*
X115059988Y-117681986D02*
X115059989Y-115840011D01*
X120344450Y-114555550D02*
X120747989Y-114152011D01*
X120647990Y-111374999D02*
X120372991Y-111100000D01*
X119604422Y-114555550D02*
X120344450Y-114555550D01*
%TO.N,IO5*%
X129250000Y-115035000D02*
X130500000Y-115035000D01*
X129139807Y-119760193D02*
X129139807Y-115145193D01*
X129139807Y-115145193D02*
X129250000Y-115035000D01*
X128500000Y-120400000D02*
X129139807Y-119760193D01*
%TO.N,IO4*%
X126000000Y-120400000D02*
X126655002Y-120400000D01*
X126655002Y-120400000D02*
X128689796Y-118365206D01*
X128689796Y-114810202D02*
X129734998Y-113765000D01*
X128689796Y-118365206D02*
X128689796Y-114810202D01*
X129734998Y-113765000D02*
X130500000Y-113765000D01*
%TO.N,IO3*%
X127715000Y-118555000D02*
X127715000Y-117305000D01*
X127120010Y-119149990D02*
X127715000Y-118555000D01*
X123500000Y-120400000D02*
X124750010Y-119149990D01*
X124750010Y-119149990D02*
X127120010Y-119149990D01*
%TO.N,IO2*%
X126300021Y-118699979D02*
X126445000Y-118555000D01*
X121000000Y-120400000D02*
X122700021Y-118699979D01*
X126445000Y-118555000D02*
X126445000Y-117305000D01*
X122700021Y-118699979D02*
X126300021Y-118699979D01*
%TO.N,IO1*%
X117515538Y-119415538D02*
X118500000Y-120400000D01*
X117515538Y-117344462D02*
X117515538Y-119415538D01*
X117555000Y-117305000D02*
X117515538Y-117344462D01*
%TO.N,O*%
X126280250Y-105377933D02*
X126377933Y-105377933D01*
X130500000Y-103605000D02*
X129428004Y-103605000D01*
X126976252Y-105377933D02*
X126280250Y-105377933D01*
X128398002Y-102574998D02*
X127111412Y-102574998D01*
X129428004Y-103605000D02*
X128398002Y-102574998D01*
X126539659Y-103927930D02*
X126976253Y-103927930D01*
X126976253Y-103927930D02*
X127353253Y-104304930D01*
X127353253Y-105000932D02*
X126976252Y-105377933D01*
X126539659Y-103146751D02*
X126539659Y-103927930D01*
X127353253Y-104304930D02*
X127353253Y-105000932D01*
X127111412Y-102574998D02*
X126539659Y-103146751D01*
X121197999Y-115088412D02*
X121031422Y-115254989D01*
X121197999Y-113502002D02*
X121197999Y-115088412D01*
X121098001Y-113402004D02*
X121197999Y-113502002D01*
X121098001Y-110274999D02*
X121098001Y-113402004D01*
X117244999Y-109125001D02*
X118394997Y-110274999D01*
X117244999Y-103738999D02*
X117244999Y-109125001D01*
X119206001Y-103049999D02*
X117933999Y-103049999D01*
X119856009Y-103700007D02*
X119206001Y-103049999D01*
X118394997Y-110274999D02*
X121098001Y-110274999D01*
X119856009Y-104048696D02*
X119856009Y-103700007D01*
X117933999Y-103049999D02*
X117244999Y-103738999D01*
X121031422Y-115254989D02*
X119027658Y-115254989D01*
X126280250Y-105377933D02*
X124667935Y-105377933D01*
X124667935Y-105377933D02*
X123760001Y-104469999D01*
X120277312Y-104469999D02*
X119856009Y-104048696D01*
X123760001Y-104469999D02*
X120277312Y-104469999D01*
%TO.N,I*%
X126850000Y-113750000D02*
X127739571Y-114639571D01*
X126850000Y-112450000D02*
X126850000Y-113750000D01*
X126464999Y-112064999D02*
X126850000Y-112450000D01*
X126464999Y-110484999D02*
X126464999Y-112064999D01*
X127224999Y-109724999D02*
X126464999Y-110484999D01*
X127739571Y-114639571D02*
X127739571Y-115630549D01*
X129075001Y-109724999D02*
X127224999Y-109724999D01*
X130500000Y-104875000D02*
X129250000Y-104875000D01*
X129174999Y-109625001D02*
X129075001Y-109724999D01*
X129174999Y-104950001D02*
X129174999Y-109625001D01*
X129250000Y-104875000D02*
X129174999Y-104950001D01*
%TO.N,EN*%
X115565001Y-114284999D02*
X115550000Y-114300000D01*
X114825001Y-111475001D02*
X115565001Y-112215001D01*
X115565001Y-112215001D02*
X115565001Y-114284999D01*
X115565001Y-104934999D02*
X114825001Y-105674999D01*
X114825001Y-105674999D02*
X114825001Y-111475001D01*
X114750000Y-102335000D02*
X115565001Y-103150001D01*
X115565001Y-103150001D02*
X115565001Y-104934999D01*
X113500000Y-102335000D02*
X114750000Y-102335000D01*
%TO.N,CBUS3*%
X130500000Y-117404936D02*
X129864808Y-118040128D01*
X130500000Y-116305000D02*
X130500000Y-117404936D01*
%TO.N,CBUS0*%
X129535953Y-112495000D02*
X128572613Y-113458340D01*
X130500000Y-112495000D02*
X129535953Y-112495000D01*
%TO.N,CBUS1*%
X129738985Y-111225000D02*
X130500000Y-111225000D01*
X127575010Y-113388975D02*
X129738985Y-111225000D01*
%TO.N,CBUS2*%
X116319974Y-115035000D02*
X116815147Y-114539827D01*
X113500000Y-115035000D02*
X116319974Y-115035000D01*
%TD*%
D23*
%TO.N,GND*%
X114557988Y-117474051D02*
X113512464Y-118519576D01*
X113493318Y-118535289D01*
X113477605Y-118554435D01*
X113477602Y-118554438D01*
X113430585Y-118611728D01*
X113383971Y-118698937D01*
X113355266Y-118793564D01*
X113345574Y-118891973D01*
X113348002Y-118916626D01*
X113348001Y-122285358D01*
X113345574Y-122310001D01*
X113348001Y-122334644D01*
X113348001Y-122334653D01*
X113355265Y-122408409D01*
X113383970Y-122503036D01*
X113430584Y-122590246D01*
X113493317Y-122666685D01*
X113512468Y-122682402D01*
X113552960Y-122722894D01*
X113520153Y-122802097D01*
X113473000Y-123039151D01*
X113473000Y-123280849D01*
X113520153Y-123517903D01*
X113612647Y-123741202D01*
X113746927Y-123942167D01*
X113917833Y-124113073D01*
X114067553Y-124213112D01*
X113850000Y-124211928D01*
X113725518Y-124224188D01*
X113605820Y-124260498D01*
X113495506Y-124319463D01*
X113398815Y-124398815D01*
X113319463Y-124495506D01*
X113260498Y-124605820D01*
X113224188Y-124725518D01*
X113211928Y-124850000D01*
X113215000Y-125414250D01*
X113373750Y-125573000D01*
X114573000Y-125573000D01*
X114573000Y-125553000D01*
X114827000Y-125553000D01*
X114827000Y-125573000D01*
X116026250Y-125573000D01*
X116185000Y-125414250D01*
X116188072Y-124850000D01*
X116175958Y-124727000D01*
X116226528Y-124727000D01*
X116376643Y-124697141D01*
X116518048Y-124638569D01*
X116645309Y-124553536D01*
X116753536Y-124445309D01*
X116838569Y-124318048D01*
X116897141Y-124176643D01*
X116927000Y-124026528D01*
X116927000Y-123873472D01*
X116897141Y-123723357D01*
X116838569Y-123581952D01*
X116753536Y-123454691D01*
X116652000Y-123353155D01*
X116652000Y-122895640D01*
X116654427Y-122870997D01*
X116652000Y-122846354D01*
X116652000Y-122846345D01*
X116644736Y-122772589D01*
X116616031Y-122677962D01*
X116569417Y-122590753D01*
X116506684Y-122514314D01*
X116487538Y-122498601D01*
X116406937Y-122418000D01*
X117123000Y-122418000D01*
X117123000Y-125722000D01*
X130177000Y-125722000D01*
X130177000Y-122418000D01*
X117123000Y-122418000D01*
X116406937Y-122418000D01*
X115831593Y-121842657D01*
X115873000Y-121801250D01*
X115873000Y-120527000D01*
X115853000Y-120527000D01*
X115853000Y-120273000D01*
X115873000Y-120273000D01*
X115873000Y-120253000D01*
X116127000Y-120253000D01*
X116127000Y-120273000D01*
X116147000Y-120273000D01*
X116147000Y-120527000D01*
X116127000Y-120527000D01*
X116127000Y-121801250D01*
X116285750Y-121960000D01*
X116850000Y-121963072D01*
X116974482Y-121950812D01*
X117094180Y-121914502D01*
X117204494Y-121855537D01*
X117301185Y-121776185D01*
X117380537Y-121679494D01*
X117439502Y-121569180D01*
X117475812Y-121449482D01*
X117488072Y-121325000D01*
X117487352Y-121175216D01*
X117628184Y-121346817D01*
X117815018Y-121500149D01*
X118028177Y-121614084D01*
X118259467Y-121684245D01*
X118500000Y-121707936D01*
X118740534Y-121684245D01*
X118971824Y-121614084D01*
X119184983Y-121500149D01*
X119371817Y-121346817D01*
X119525149Y-121159982D01*
X119639084Y-120946823D01*
X119709245Y-120715533D01*
X119727000Y-120535267D01*
X119727000Y-120264732D01*
X119709245Y-120084466D01*
X119639084Y-119853176D01*
X119525149Y-119640017D01*
X119371817Y-119453183D01*
X119184982Y-119299851D01*
X118971823Y-119185916D01*
X118740533Y-119115755D01*
X118500000Y-119092064D01*
X118259466Y-119115755D01*
X118028176Y-119185916D01*
X118017538Y-119191602D01*
X118017538Y-118682589D01*
X118078905Y-118676545D01*
X118149970Y-118654988D01*
X118190000Y-118633591D01*
X118230030Y-118654988D01*
X118301095Y-118676545D01*
X118375000Y-118683824D01*
X119275000Y-118683824D01*
X119348905Y-118676545D01*
X119419970Y-118654988D01*
X119460000Y-118633591D01*
X119500030Y-118654988D01*
X119571095Y-118676545D01*
X119645000Y-118683824D01*
X120545000Y-118683824D01*
X120618905Y-118676545D01*
X120689970Y-118654988D01*
X120730000Y-118633591D01*
X120770030Y-118654988D01*
X120841095Y-118676545D01*
X120915000Y-118683824D01*
X121815000Y-118683824D01*
X121888905Y-118676545D01*
X121959970Y-118654988D01*
X122000000Y-118633591D01*
X122036802Y-118653263D01*
X121492889Y-119197176D01*
X121471823Y-119185916D01*
X121240533Y-119115755D01*
X121000000Y-119092064D01*
X120759466Y-119115755D01*
X120528176Y-119185916D01*
X120315017Y-119299851D01*
X120128183Y-119453183D01*
X119974851Y-119640018D01*
X119860916Y-119853177D01*
X119790755Y-120084467D01*
X119773000Y-120264733D01*
X119773000Y-120535268D01*
X119790755Y-120715534D01*
X119860916Y-120946824D01*
X119974851Y-121159983D01*
X120128184Y-121346817D01*
X120315018Y-121500149D01*
X120528177Y-121614084D01*
X120759467Y-121684245D01*
X121000000Y-121707936D01*
X121240534Y-121684245D01*
X121471824Y-121614084D01*
X121684983Y-121500149D01*
X121871817Y-121346817D01*
X122025149Y-121159982D01*
X122139084Y-120946823D01*
X122209245Y-120715533D01*
X122227000Y-120535267D01*
X122227000Y-120264732D01*
X122209245Y-120084466D01*
X122166472Y-119943463D01*
X122497431Y-119612505D01*
X122474851Y-119640018D01*
X122360916Y-119853177D01*
X122290755Y-120084467D01*
X122273000Y-120264733D01*
X122273000Y-120535268D01*
X122290755Y-120715534D01*
X122360916Y-120946824D01*
X122474851Y-121159983D01*
X122628184Y-121346817D01*
X122815018Y-121500149D01*
X123028177Y-121614084D01*
X123259467Y-121684245D01*
X123500000Y-121707936D01*
X123740534Y-121684245D01*
X123971824Y-121614084D01*
X124184983Y-121500149D01*
X124371817Y-121346817D01*
X124525149Y-121159982D01*
X124639084Y-120946823D01*
X124709245Y-120715533D01*
X124727000Y-120535267D01*
X124727000Y-120264732D01*
X124709245Y-120084466D01*
X124666472Y-119943463D01*
X124957945Y-119651990D01*
X124968452Y-119651990D01*
X124860916Y-119853177D01*
X124790755Y-120084467D01*
X124773000Y-120264733D01*
X124773000Y-120535268D01*
X124790755Y-120715534D01*
X124860916Y-120946824D01*
X124974851Y-121159983D01*
X125128184Y-121346817D01*
X125315018Y-121500149D01*
X125528177Y-121614084D01*
X125759467Y-121684245D01*
X126000000Y-121707936D01*
X126240534Y-121684245D01*
X126471824Y-121614084D01*
X126684983Y-121500149D01*
X126871817Y-121346817D01*
X127025149Y-121159982D01*
X127139084Y-120946823D01*
X127209245Y-120715533D01*
X127226708Y-120538228D01*
X127273000Y-120491936D01*
X127273000Y-120535268D01*
X127290755Y-120715534D01*
X127360916Y-120946824D01*
X127474851Y-121159983D01*
X127628184Y-121346817D01*
X127815018Y-121500149D01*
X128028177Y-121614084D01*
X128259467Y-121684245D01*
X128500000Y-121707936D01*
X128740534Y-121684245D01*
X128971824Y-121614084D01*
X129184983Y-121500149D01*
X129371817Y-121346817D01*
X129525149Y-121159982D01*
X129639084Y-120946823D01*
X129709245Y-120715533D01*
X129727000Y-120535267D01*
X129727000Y-120264732D01*
X129709245Y-120084466D01*
X129639084Y-119853176D01*
X129635701Y-119846846D01*
X129641807Y-119784846D01*
X129641807Y-119784836D01*
X129644234Y-119760193D01*
X129641807Y-119735550D01*
X129641807Y-118787993D01*
X129788280Y-118817128D01*
X129941336Y-118817128D01*
X130091451Y-118787269D01*
X130232856Y-118728697D01*
X130360117Y-118643664D01*
X130468344Y-118535437D01*
X130553377Y-118408176D01*
X130611949Y-118266771D01*
X130641808Y-118116656D01*
X130641808Y-117973063D01*
X130837538Y-117777333D01*
X130856684Y-117761620D01*
X130893418Y-117716861D01*
X130919416Y-117685182D01*
X130921124Y-117681987D01*
X130966031Y-117597972D01*
X130994736Y-117503345D01*
X131002000Y-117429589D01*
X131002000Y-117429580D01*
X131004427Y-117404937D01*
X131002000Y-117380294D01*
X131002000Y-117133824D01*
X131073001Y-117133824D01*
X131073001Y-127073000D01*
X115913678Y-127073000D01*
X116001185Y-127001185D01*
X116080537Y-126904494D01*
X116139502Y-126794180D01*
X116175812Y-126674482D01*
X116188072Y-126550000D01*
X116185000Y-125985750D01*
X116026250Y-125827000D01*
X114827000Y-125827000D01*
X114827000Y-125847000D01*
X114573000Y-125847000D01*
X114573000Y-125827000D01*
X113373750Y-125827000D01*
X113215000Y-125985750D01*
X113211928Y-126550000D01*
X113224188Y-126674482D01*
X113260498Y-126794180D01*
X113319463Y-126904494D01*
X113398815Y-127001185D01*
X113486322Y-127073000D01*
X112927000Y-127073000D01*
X112927000Y-117133824D01*
X114500000Y-117133824D01*
X114557989Y-117128113D01*
X114557988Y-117474051D01*
%TA.AperFunction,Conductor*%
D24*
G36*
X114557988Y-117474051D02*
G01*
X113512464Y-118519576D01*
X113493318Y-118535289D01*
X113477605Y-118554435D01*
X113477602Y-118554438D01*
X113430585Y-118611728D01*
X113383971Y-118698937D01*
X113355266Y-118793564D01*
X113345574Y-118891973D01*
X113348002Y-118916626D01*
X113348001Y-122285358D01*
X113345574Y-122310001D01*
X113348001Y-122334644D01*
X113348001Y-122334653D01*
X113355265Y-122408409D01*
X113383970Y-122503036D01*
X113430584Y-122590246D01*
X113493317Y-122666685D01*
X113512468Y-122682402D01*
X113552960Y-122722894D01*
X113520153Y-122802097D01*
X113473000Y-123039151D01*
X113473000Y-123280849D01*
X113520153Y-123517903D01*
X113612647Y-123741202D01*
X113746927Y-123942167D01*
X113917833Y-124113073D01*
X114067553Y-124213112D01*
X113850000Y-124211928D01*
X113725518Y-124224188D01*
X113605820Y-124260498D01*
X113495506Y-124319463D01*
X113398815Y-124398815D01*
X113319463Y-124495506D01*
X113260498Y-124605820D01*
X113224188Y-124725518D01*
X113211928Y-124850000D01*
X113215000Y-125414250D01*
X113373750Y-125573000D01*
X114573000Y-125573000D01*
X114573000Y-125553000D01*
X114827000Y-125553000D01*
X114827000Y-125573000D01*
X116026250Y-125573000D01*
X116185000Y-125414250D01*
X116188072Y-124850000D01*
X116175958Y-124727000D01*
X116226528Y-124727000D01*
X116376643Y-124697141D01*
X116518048Y-124638569D01*
X116645309Y-124553536D01*
X116753536Y-124445309D01*
X116838569Y-124318048D01*
X116897141Y-124176643D01*
X116927000Y-124026528D01*
X116927000Y-123873472D01*
X116897141Y-123723357D01*
X116838569Y-123581952D01*
X116753536Y-123454691D01*
X116652000Y-123353155D01*
X116652000Y-122895640D01*
X116654427Y-122870997D01*
X116652000Y-122846354D01*
X116652000Y-122846345D01*
X116644736Y-122772589D01*
X116616031Y-122677962D01*
X116569417Y-122590753D01*
X116506684Y-122514314D01*
X116487538Y-122498601D01*
X116406937Y-122418000D01*
X117123000Y-122418000D01*
X117123000Y-125722000D01*
X130177000Y-125722000D01*
X130177000Y-122418000D01*
X117123000Y-122418000D01*
X116406937Y-122418000D01*
X115831593Y-121842657D01*
X115873000Y-121801250D01*
X115873000Y-120527000D01*
X115853000Y-120527000D01*
X115853000Y-120273000D01*
X115873000Y-120273000D01*
X115873000Y-120253000D01*
X116127000Y-120253000D01*
X116127000Y-120273000D01*
X116147000Y-120273000D01*
X116147000Y-120527000D01*
X116127000Y-120527000D01*
X116127000Y-121801250D01*
X116285750Y-121960000D01*
X116850000Y-121963072D01*
X116974482Y-121950812D01*
X117094180Y-121914502D01*
X117204494Y-121855537D01*
X117301185Y-121776185D01*
X117380537Y-121679494D01*
X117439502Y-121569180D01*
X117475812Y-121449482D01*
X117488072Y-121325000D01*
X117487352Y-121175216D01*
X117628184Y-121346817D01*
X117815018Y-121500149D01*
X118028177Y-121614084D01*
X118259467Y-121684245D01*
X118500000Y-121707936D01*
X118740534Y-121684245D01*
X118971824Y-121614084D01*
X119184983Y-121500149D01*
X119371817Y-121346817D01*
X119525149Y-121159982D01*
X119639084Y-120946823D01*
X119709245Y-120715533D01*
X119727000Y-120535267D01*
X119727000Y-120264732D01*
X119709245Y-120084466D01*
X119639084Y-119853176D01*
X119525149Y-119640017D01*
X119371817Y-119453183D01*
X119184982Y-119299851D01*
X118971823Y-119185916D01*
X118740533Y-119115755D01*
X118500000Y-119092064D01*
X118259466Y-119115755D01*
X118028176Y-119185916D01*
X118017538Y-119191602D01*
X118017538Y-118682589D01*
X118078905Y-118676545D01*
X118149970Y-118654988D01*
X118190000Y-118633591D01*
X118230030Y-118654988D01*
X118301095Y-118676545D01*
X118375000Y-118683824D01*
X119275000Y-118683824D01*
X119348905Y-118676545D01*
X119419970Y-118654988D01*
X119460000Y-118633591D01*
X119500030Y-118654988D01*
X119571095Y-118676545D01*
X119645000Y-118683824D01*
X120545000Y-118683824D01*
X120618905Y-118676545D01*
X120689970Y-118654988D01*
X120730000Y-118633591D01*
X120770030Y-118654988D01*
X120841095Y-118676545D01*
X120915000Y-118683824D01*
X121815000Y-118683824D01*
X121888905Y-118676545D01*
X121959970Y-118654988D01*
X122000000Y-118633591D01*
X122036802Y-118653263D01*
X121492889Y-119197176D01*
X121471823Y-119185916D01*
X121240533Y-119115755D01*
X121000000Y-119092064D01*
X120759466Y-119115755D01*
X120528176Y-119185916D01*
X120315017Y-119299851D01*
X120128183Y-119453183D01*
X119974851Y-119640018D01*
X119860916Y-119853177D01*
X119790755Y-120084467D01*
X119773000Y-120264733D01*
X119773000Y-120535268D01*
X119790755Y-120715534D01*
X119860916Y-120946824D01*
X119974851Y-121159983D01*
X120128184Y-121346817D01*
X120315018Y-121500149D01*
X120528177Y-121614084D01*
X120759467Y-121684245D01*
X121000000Y-121707936D01*
X121240534Y-121684245D01*
X121471824Y-121614084D01*
X121684983Y-121500149D01*
X121871817Y-121346817D01*
X122025149Y-121159982D01*
X122139084Y-120946823D01*
X122209245Y-120715533D01*
X122227000Y-120535267D01*
X122227000Y-120264732D01*
X122209245Y-120084466D01*
X122166472Y-119943463D01*
X122497431Y-119612505D01*
X122474851Y-119640018D01*
X122360916Y-119853177D01*
X122290755Y-120084467D01*
X122273000Y-120264733D01*
X122273000Y-120535268D01*
X122290755Y-120715534D01*
X122360916Y-120946824D01*
X122474851Y-121159983D01*
X122628184Y-121346817D01*
X122815018Y-121500149D01*
X123028177Y-121614084D01*
X123259467Y-121684245D01*
X123500000Y-121707936D01*
X123740534Y-121684245D01*
X123971824Y-121614084D01*
X124184983Y-121500149D01*
X124371817Y-121346817D01*
X124525149Y-121159982D01*
X124639084Y-120946823D01*
X124709245Y-120715533D01*
X124727000Y-120535267D01*
X124727000Y-120264732D01*
X124709245Y-120084466D01*
X124666472Y-119943463D01*
X124957945Y-119651990D01*
X124968452Y-119651990D01*
X124860916Y-119853177D01*
X124790755Y-120084467D01*
X124773000Y-120264733D01*
X124773000Y-120535268D01*
X124790755Y-120715534D01*
X124860916Y-120946824D01*
X124974851Y-121159983D01*
X125128184Y-121346817D01*
X125315018Y-121500149D01*
X125528177Y-121614084D01*
X125759467Y-121684245D01*
X126000000Y-121707936D01*
X126240534Y-121684245D01*
X126471824Y-121614084D01*
X126684983Y-121500149D01*
X126871817Y-121346817D01*
X127025149Y-121159982D01*
X127139084Y-120946823D01*
X127209245Y-120715533D01*
X127226708Y-120538228D01*
X127273000Y-120491936D01*
X127273000Y-120535268D01*
X127290755Y-120715534D01*
X127360916Y-120946824D01*
X127474851Y-121159983D01*
X127628184Y-121346817D01*
X127815018Y-121500149D01*
X128028177Y-121614084D01*
X128259467Y-121684245D01*
X128500000Y-121707936D01*
X128740534Y-121684245D01*
X128971824Y-121614084D01*
X129184983Y-121500149D01*
X129371817Y-121346817D01*
X129525149Y-121159982D01*
X129639084Y-120946823D01*
X129709245Y-120715533D01*
X129727000Y-120535267D01*
X129727000Y-120264732D01*
X129709245Y-120084466D01*
X129639084Y-119853176D01*
X129635701Y-119846846D01*
X129641807Y-119784846D01*
X129641807Y-119784836D01*
X129644234Y-119760193D01*
X129641807Y-119735550D01*
X129641807Y-118787993D01*
X129788280Y-118817128D01*
X129941336Y-118817128D01*
X130091451Y-118787269D01*
X130232856Y-118728697D01*
X130360117Y-118643664D01*
X130468344Y-118535437D01*
X130553377Y-118408176D01*
X130611949Y-118266771D01*
X130641808Y-118116656D01*
X130641808Y-117973063D01*
X130837538Y-117777333D01*
X130856684Y-117761620D01*
X130893418Y-117716861D01*
X130919416Y-117685182D01*
X130921124Y-117681987D01*
X130966031Y-117597972D01*
X130994736Y-117503345D01*
X131002000Y-117429589D01*
X131002000Y-117429580D01*
X131004427Y-117404937D01*
X131002000Y-117380294D01*
X131002000Y-117133824D01*
X131073001Y-117133824D01*
X131073001Y-127073000D01*
X115913678Y-127073000D01*
X116001185Y-127001185D01*
X116080537Y-126904494D01*
X116139502Y-126794180D01*
X116175812Y-126674482D01*
X116188072Y-126550000D01*
X116185000Y-125985750D01*
X116026250Y-125827000D01*
X114827000Y-125827000D01*
X114827000Y-125847000D01*
X114573000Y-125847000D01*
X114573000Y-125827000D01*
X113373750Y-125827000D01*
X113215000Y-125985750D01*
X113211928Y-126550000D01*
X113224188Y-126674482D01*
X113260498Y-126794180D01*
X113319463Y-126904494D01*
X113398815Y-127001185D01*
X113486322Y-127073000D01*
X112927000Y-127073000D01*
X112927000Y-117133824D01*
X114500000Y-117133824D01*
X114557989Y-117128113D01*
X114557988Y-117474051D01*
G37*
%TD.AperFunction*%
D23*
X116412000Y-117178000D02*
X116432000Y-117178000D01*
X116432000Y-117432000D01*
X116412000Y-117432000D01*
X116412000Y-117452000D01*
X116158000Y-117452000D01*
X116158000Y-117432000D01*
X116138000Y-117432000D01*
X116138000Y-117178000D01*
X116158000Y-117178000D01*
X116158000Y-117158000D01*
X116412000Y-117158000D01*
X116412000Y-117178000D01*
%TA.AperFunction,Conductor*%
D24*
G36*
X116412000Y-117178000D02*
G01*
X116432000Y-117178000D01*
X116432000Y-117432000D01*
X116412000Y-117432000D01*
X116412000Y-117452000D01*
X116158000Y-117452000D01*
X116158000Y-117432000D01*
X116138000Y-117432000D01*
X116138000Y-117178000D01*
X116158000Y-117178000D01*
X116158000Y-117158000D01*
X116412000Y-117158000D01*
X116412000Y-117178000D01*
G37*
%TD.AperFunction*%
D23*
X129055611Y-103942543D02*
X129071320Y-103961684D01*
X129090460Y-103977392D01*
X129090468Y-103977400D01*
X129121176Y-104002601D01*
X129121176Y-104055000D01*
X129128455Y-104128905D01*
X129150012Y-104199970D01*
X129171409Y-104240000D01*
X129150012Y-104280030D01*
X129128455Y-104351095D01*
X129124781Y-104388397D01*
X129056964Y-104408969D01*
X128969755Y-104455583D01*
X128893316Y-104518316D01*
X128877598Y-104537468D01*
X128837467Y-104577599D01*
X128818315Y-104593317D01*
X128755582Y-104669756D01*
X128708968Y-104756966D01*
X128680263Y-104851593D01*
X128672999Y-104925349D01*
X128672999Y-104925358D01*
X128670572Y-104950001D01*
X128672999Y-104974644D01*
X128673000Y-109222999D01*
X127249641Y-109222999D01*
X127224998Y-109220572D01*
X127200355Y-109222999D01*
X127200346Y-109222999D01*
X127126590Y-109230263D01*
X127031963Y-109258968D01*
X126944754Y-109305582D01*
X126944752Y-109305583D01*
X126944753Y-109305583D01*
X126896160Y-109345463D01*
X126868315Y-109368315D01*
X126852602Y-109387461D01*
X126307728Y-109932336D01*
X126216494Y-109857463D01*
X126106180Y-109798498D01*
X125986482Y-109762188D01*
X125862000Y-109749928D01*
X125385750Y-109753000D01*
X125227000Y-109911750D01*
X125227000Y-111023000D01*
X125247000Y-111023000D01*
X125247000Y-111277000D01*
X125227000Y-111277000D01*
X125227000Y-112388250D01*
X125385750Y-112547000D01*
X125862000Y-112550072D01*
X125986482Y-112537812D01*
X126106180Y-112501502D01*
X126161825Y-112471759D01*
X126348000Y-112657935D01*
X126348001Y-113725347D01*
X126345573Y-113750000D01*
X126355265Y-113848409D01*
X126383970Y-113943036D01*
X126430584Y-114030245D01*
X126477601Y-114087535D01*
X126477604Y-114087538D01*
X126493317Y-114106684D01*
X126512463Y-114122397D01*
X127237571Y-114847506D01*
X127237571Y-115033704D01*
X127136035Y-115135240D01*
X127051002Y-115262501D01*
X126992430Y-115403906D01*
X126962571Y-115554021D01*
X126962571Y-115707077D01*
X126992430Y-115857192D01*
X127031939Y-115952576D01*
X126968905Y-115933455D01*
X126895000Y-115926176D01*
X125995000Y-115926176D01*
X125921095Y-115933455D01*
X125850030Y-115955012D01*
X125810000Y-115976409D01*
X125769970Y-115955012D01*
X125698905Y-115933455D01*
X125625000Y-115926176D01*
X124725000Y-115926176D01*
X124651095Y-115933455D01*
X124580030Y-115955012D01*
X124540000Y-115976409D01*
X124499970Y-115955012D01*
X124428905Y-115933455D01*
X124355000Y-115926176D01*
X123455000Y-115926176D01*
X123381095Y-115933455D01*
X123310030Y-115955012D01*
X123270000Y-115976409D01*
X123229970Y-115955012D01*
X123158905Y-115933455D01*
X123085000Y-115926176D01*
X122185000Y-115926176D01*
X122111095Y-115933455D01*
X122040030Y-115955012D01*
X122000000Y-115976409D01*
X121959970Y-115955012D01*
X121917734Y-115942200D01*
X122087538Y-115772397D01*
X122106684Y-115756684D01*
X122169417Y-115680245D01*
X122216031Y-115593036D01*
X122244736Y-115498409D01*
X122252000Y-115424653D01*
X122252000Y-115424644D01*
X122254427Y-115400001D01*
X122252000Y-115375358D01*
X122252000Y-112339773D01*
X122439151Y-112377000D01*
X122680849Y-112377000D01*
X122917903Y-112329847D01*
X123141202Y-112237353D01*
X123342167Y-112103073D01*
X123513073Y-111932167D01*
X123647353Y-111731202D01*
X123701944Y-111599408D01*
X123699928Y-111912000D01*
X123712188Y-112036482D01*
X123748498Y-112156180D01*
X123807463Y-112266494D01*
X123886815Y-112363185D01*
X123983506Y-112442537D01*
X124093820Y-112501502D01*
X124213518Y-112537812D01*
X124338000Y-112550072D01*
X124814250Y-112547000D01*
X124973000Y-112388250D01*
X124973000Y-111277000D01*
X124953000Y-111277000D01*
X124953000Y-111023000D01*
X124973000Y-111023000D01*
X124973000Y-109911750D01*
X124814250Y-109753000D01*
X124592001Y-109751566D01*
X124592001Y-106417934D01*
X124679992Y-106329943D01*
X127138009Y-106329943D01*
X127162652Y-106332370D01*
X127187295Y-106329943D01*
X127187305Y-106329943D01*
X127261061Y-106322679D01*
X127355688Y-106293974D01*
X127442897Y-106247360D01*
X127519336Y-106184627D01*
X127535054Y-106165475D01*
X127557815Y-106142714D01*
X127576983Y-106126983D01*
X127592700Y-106107832D01*
X128140802Y-105559731D01*
X128159948Y-105544018D01*
X128187528Y-105510413D01*
X128222680Y-105467580D01*
X128232354Y-105449482D01*
X128269295Y-105380370D01*
X128298000Y-105285743D01*
X128305264Y-105211987D01*
X128305264Y-105211978D01*
X128307691Y-105187335D01*
X128305264Y-105162692D01*
X128305264Y-104143173D01*
X128307691Y-104118530D01*
X128305264Y-104093887D01*
X128305264Y-104093877D01*
X128298000Y-104020121D01*
X128269295Y-103925494D01*
X128242804Y-103875932D01*
X128222681Y-103838284D01*
X128175664Y-103780994D01*
X128175656Y-103780986D01*
X128159948Y-103761846D01*
X128140807Y-103746137D01*
X128077628Y-103682958D01*
X128130714Y-103554798D01*
X128160573Y-103404683D01*
X128160573Y-103251627D01*
X128130714Y-103101512D01*
X128120560Y-103076998D01*
X128190068Y-103076998D01*
X129055611Y-103942543D01*
%TA.AperFunction,Conductor*%
D24*
G36*
X129055611Y-103942543D02*
G01*
X129071320Y-103961684D01*
X129090460Y-103977392D01*
X129090468Y-103977400D01*
X129121176Y-104002601D01*
X129121176Y-104055000D01*
X129128455Y-104128905D01*
X129150012Y-104199970D01*
X129171409Y-104240000D01*
X129150012Y-104280030D01*
X129128455Y-104351095D01*
X129124781Y-104388397D01*
X129056964Y-104408969D01*
X128969755Y-104455583D01*
X128893316Y-104518316D01*
X128877598Y-104537468D01*
X128837467Y-104577599D01*
X128818315Y-104593317D01*
X128755582Y-104669756D01*
X128708968Y-104756966D01*
X128680263Y-104851593D01*
X128672999Y-104925349D01*
X128672999Y-104925358D01*
X128670572Y-104950001D01*
X128672999Y-104974644D01*
X128673000Y-109222999D01*
X127249641Y-109222999D01*
X127224998Y-109220572D01*
X127200355Y-109222999D01*
X127200346Y-109222999D01*
X127126590Y-109230263D01*
X127031963Y-109258968D01*
X126944754Y-109305582D01*
X126944752Y-109305583D01*
X126944753Y-109305583D01*
X126896160Y-109345463D01*
X126868315Y-109368315D01*
X126852602Y-109387461D01*
X126307728Y-109932336D01*
X126216494Y-109857463D01*
X126106180Y-109798498D01*
X125986482Y-109762188D01*
X125862000Y-109749928D01*
X125385750Y-109753000D01*
X125227000Y-109911750D01*
X125227000Y-111023000D01*
X125247000Y-111023000D01*
X125247000Y-111277000D01*
X125227000Y-111277000D01*
X125227000Y-112388250D01*
X125385750Y-112547000D01*
X125862000Y-112550072D01*
X125986482Y-112537812D01*
X126106180Y-112501502D01*
X126161825Y-112471759D01*
X126348000Y-112657935D01*
X126348001Y-113725347D01*
X126345573Y-113750000D01*
X126355265Y-113848409D01*
X126383970Y-113943036D01*
X126430584Y-114030245D01*
X126477601Y-114087535D01*
X126477604Y-114087538D01*
X126493317Y-114106684D01*
X126512463Y-114122397D01*
X127237571Y-114847506D01*
X127237571Y-115033704D01*
X127136035Y-115135240D01*
X127051002Y-115262501D01*
X126992430Y-115403906D01*
X126962571Y-115554021D01*
X126962571Y-115707077D01*
X126992430Y-115857192D01*
X127031939Y-115952576D01*
X126968905Y-115933455D01*
X126895000Y-115926176D01*
X125995000Y-115926176D01*
X125921095Y-115933455D01*
X125850030Y-115955012D01*
X125810000Y-115976409D01*
X125769970Y-115955012D01*
X125698905Y-115933455D01*
X125625000Y-115926176D01*
X124725000Y-115926176D01*
X124651095Y-115933455D01*
X124580030Y-115955012D01*
X124540000Y-115976409D01*
X124499970Y-115955012D01*
X124428905Y-115933455D01*
X124355000Y-115926176D01*
X123455000Y-115926176D01*
X123381095Y-115933455D01*
X123310030Y-115955012D01*
X123270000Y-115976409D01*
X123229970Y-115955012D01*
X123158905Y-115933455D01*
X123085000Y-115926176D01*
X122185000Y-115926176D01*
X122111095Y-115933455D01*
X122040030Y-115955012D01*
X122000000Y-115976409D01*
X121959970Y-115955012D01*
X121917734Y-115942200D01*
X122087538Y-115772397D01*
X122106684Y-115756684D01*
X122169417Y-115680245D01*
X122216031Y-115593036D01*
X122244736Y-115498409D01*
X122252000Y-115424653D01*
X122252000Y-115424644D01*
X122254427Y-115400001D01*
X122252000Y-115375358D01*
X122252000Y-112339773D01*
X122439151Y-112377000D01*
X122680849Y-112377000D01*
X122917903Y-112329847D01*
X123141202Y-112237353D01*
X123342167Y-112103073D01*
X123513073Y-111932167D01*
X123647353Y-111731202D01*
X123701944Y-111599408D01*
X123699928Y-111912000D01*
X123712188Y-112036482D01*
X123748498Y-112156180D01*
X123807463Y-112266494D01*
X123886815Y-112363185D01*
X123983506Y-112442537D01*
X124093820Y-112501502D01*
X124213518Y-112537812D01*
X124338000Y-112550072D01*
X124814250Y-112547000D01*
X124973000Y-112388250D01*
X124973000Y-111277000D01*
X124953000Y-111277000D01*
X124953000Y-111023000D01*
X124973000Y-111023000D01*
X124973000Y-109911750D01*
X124814250Y-109753000D01*
X124592001Y-109751566D01*
X124592001Y-106417934D01*
X124679992Y-106329943D01*
X127138009Y-106329943D01*
X127162652Y-106332370D01*
X127187295Y-106329943D01*
X127187305Y-106329943D01*
X127261061Y-106322679D01*
X127355688Y-106293974D01*
X127442897Y-106247360D01*
X127519336Y-106184627D01*
X127535054Y-106165475D01*
X127557815Y-106142714D01*
X127576983Y-106126983D01*
X127592700Y-106107832D01*
X128140802Y-105559731D01*
X128159948Y-105544018D01*
X128187528Y-105510413D01*
X128222680Y-105467580D01*
X128232354Y-105449482D01*
X128269295Y-105380370D01*
X128298000Y-105285743D01*
X128305264Y-105211987D01*
X128305264Y-105211978D01*
X128307691Y-105187335D01*
X128305264Y-105162692D01*
X128305264Y-104143173D01*
X128307691Y-104118530D01*
X128305264Y-104093887D01*
X128305264Y-104093877D01*
X128298000Y-104020121D01*
X128269295Y-103925494D01*
X128242804Y-103875932D01*
X128222681Y-103838284D01*
X128175664Y-103780994D01*
X128175656Y-103780986D01*
X128159948Y-103761846D01*
X128140807Y-103746137D01*
X128077628Y-103682958D01*
X128130714Y-103554798D01*
X128160573Y-103404683D01*
X128160573Y-103251627D01*
X128130714Y-103101512D01*
X128120560Y-103076998D01*
X128190068Y-103076998D01*
X129055611Y-103942543D01*
G37*
%TD.AperFunction*%
D23*
X117440515Y-102202598D02*
X117390915Y-102243304D01*
X117375202Y-102262450D01*
X116457455Y-103180198D01*
X116438304Y-103195915D01*
X116375571Y-103272354D01*
X116328957Y-103359564D01*
X116300252Y-103454191D01*
X116292988Y-103527947D01*
X116292988Y-103527956D01*
X116290561Y-103552599D01*
X116292988Y-103577242D01*
X116292989Y-109344488D01*
X116290561Y-109369141D01*
X116300253Y-109467550D01*
X116328958Y-109562177D01*
X116375572Y-109649386D01*
X116422589Y-109706676D01*
X116422592Y-109706679D01*
X116438305Y-109725825D01*
X116457451Y-109741538D01*
X117636937Y-110921025D01*
X117635064Y-110955459D01*
X118090000Y-111410395D01*
X118104143Y-111396253D01*
X118148640Y-111440750D01*
X117883912Y-111532205D01*
X117863507Y-111543112D01*
X117455459Y-111135064D01*
X117262237Y-111145575D01*
X117191438Y-111315603D01*
X117155172Y-111496176D01*
X117154829Y-111680355D01*
X117190426Y-111861061D01*
X117260592Y-112031351D01*
X117262237Y-112034425D01*
X117407732Y-112042340D01*
X117432892Y-112067500D01*
X117429277Y-112071115D01*
X117170186Y-112164956D01*
X117029296Y-112454571D01*
X116947616Y-112766108D01*
X116928282Y-113087595D01*
X116972039Y-113406675D01*
X117077205Y-113711088D01*
X117143293Y-113834730D01*
X117041790Y-113792686D01*
X116891675Y-113762827D01*
X116738619Y-113762827D01*
X116588504Y-113792686D01*
X116447099Y-113851258D01*
X116319838Y-113936291D01*
X116263643Y-113992486D01*
X116238569Y-113931952D01*
X116153536Y-113804691D01*
X116067001Y-113718156D01*
X116067001Y-112239643D01*
X116069428Y-112215000D01*
X116067001Y-112190357D01*
X116067001Y-112190348D01*
X116059737Y-112116592D01*
X116031032Y-112021965D01*
X115984418Y-111934756D01*
X115921685Y-111858317D01*
X115902539Y-111842604D01*
X115327001Y-111267067D01*
X115327001Y-105882933D01*
X115902539Y-105307396D01*
X115921685Y-105291683D01*
X115984418Y-105215244D01*
X116031032Y-105128035D01*
X116059737Y-105033408D01*
X116067001Y-104959652D01*
X116067001Y-104959643D01*
X116069428Y-104935000D01*
X116067001Y-104910357D01*
X116067001Y-103174643D01*
X116069428Y-103150000D01*
X116067001Y-103125357D01*
X116067001Y-103125348D01*
X116059737Y-103051592D01*
X116031032Y-102956965D01*
X115984418Y-102869756D01*
X115955316Y-102834296D01*
X115937400Y-102812465D01*
X115937398Y-102812463D01*
X115921685Y-102793317D01*
X115902539Y-102777604D01*
X115327074Y-102202139D01*
X115349967Y-102204394D01*
X115374610Y-102201967D01*
X117441283Y-102201967D01*
X117440515Y-102202598D01*
%TA.AperFunction,Conductor*%
D24*
G36*
X117440515Y-102202598D02*
G01*
X117390915Y-102243304D01*
X117375202Y-102262450D01*
X116457455Y-103180198D01*
X116438304Y-103195915D01*
X116375571Y-103272354D01*
X116328957Y-103359564D01*
X116300252Y-103454191D01*
X116292988Y-103527947D01*
X116292988Y-103527956D01*
X116290561Y-103552599D01*
X116292988Y-103577242D01*
X116292989Y-109344488D01*
X116290561Y-109369141D01*
X116300253Y-109467550D01*
X116328958Y-109562177D01*
X116375572Y-109649386D01*
X116422589Y-109706676D01*
X116422592Y-109706679D01*
X116438305Y-109725825D01*
X116457451Y-109741538D01*
X117636937Y-110921025D01*
X117635064Y-110955459D01*
X118090000Y-111410395D01*
X118104143Y-111396253D01*
X118148640Y-111440750D01*
X117883912Y-111532205D01*
X117863507Y-111543112D01*
X117455459Y-111135064D01*
X117262237Y-111145575D01*
X117191438Y-111315603D01*
X117155172Y-111496176D01*
X117154829Y-111680355D01*
X117190426Y-111861061D01*
X117260592Y-112031351D01*
X117262237Y-112034425D01*
X117407732Y-112042340D01*
X117432892Y-112067500D01*
X117429277Y-112071115D01*
X117170186Y-112164956D01*
X117029296Y-112454571D01*
X116947616Y-112766108D01*
X116928282Y-113087595D01*
X116972039Y-113406675D01*
X117077205Y-113711088D01*
X117143293Y-113834730D01*
X117041790Y-113792686D01*
X116891675Y-113762827D01*
X116738619Y-113762827D01*
X116588504Y-113792686D01*
X116447099Y-113851258D01*
X116319838Y-113936291D01*
X116263643Y-113992486D01*
X116238569Y-113931952D01*
X116153536Y-113804691D01*
X116067001Y-113718156D01*
X116067001Y-112239643D01*
X116069428Y-112215000D01*
X116067001Y-112190357D01*
X116067001Y-112190348D01*
X116059737Y-112116592D01*
X116031032Y-112021965D01*
X115984418Y-111934756D01*
X115921685Y-111858317D01*
X115902539Y-111842604D01*
X115327001Y-111267067D01*
X115327001Y-105882933D01*
X115902539Y-105307396D01*
X115921685Y-105291683D01*
X115984418Y-105215244D01*
X116031032Y-105128035D01*
X116059737Y-105033408D01*
X116067001Y-104959652D01*
X116067001Y-104959643D01*
X116069428Y-104935000D01*
X116067001Y-104910357D01*
X116067001Y-103174643D01*
X116069428Y-103150000D01*
X116067001Y-103125357D01*
X116067001Y-103125348D01*
X116059737Y-103051592D01*
X116031032Y-102956965D01*
X115984418Y-102869756D01*
X115955316Y-102834296D01*
X115937400Y-102812465D01*
X115937398Y-102812463D01*
X115921685Y-102793317D01*
X115902539Y-102777604D01*
X115327074Y-102202139D01*
X115349967Y-102204394D01*
X115374610Y-102201967D01*
X117441283Y-102201967D01*
X117440515Y-102202598D01*
G37*
%TD.AperFunction*%
D23*
X118763748Y-113010858D02*
X118749605Y-113025000D01*
X118763748Y-113039143D01*
X118584143Y-113218748D01*
X118570000Y-113204605D01*
X118555858Y-113218748D01*
X118376253Y-113039143D01*
X118390395Y-113025000D01*
X118376253Y-113010858D01*
X118555858Y-112831253D01*
X118570000Y-112845395D01*
X118584143Y-112831253D01*
X118763748Y-113010858D01*
%TA.AperFunction,Conductor*%
D24*
G36*
X118763748Y-113010858D02*
G01*
X118749605Y-113025000D01*
X118763748Y-113039143D01*
X118584143Y-113218748D01*
X118570000Y-113204605D01*
X118555858Y-113218748D01*
X118376253Y-113039143D01*
X118390395Y-113025000D01*
X118376253Y-113010858D01*
X118555858Y-112831253D01*
X118570000Y-112845395D01*
X118584143Y-112831253D01*
X118763748Y-113010858D01*
G37*
%TD.AperFunction*%
D23*
X117815603Y-106708562D02*
X117864596Y-106718402D01*
X117865000Y-107009250D01*
X118023750Y-107168000D01*
X120873000Y-107168000D01*
X120873000Y-107148000D01*
X121127000Y-107148000D01*
X121127000Y-107168000D01*
X121147000Y-107168000D01*
X121147000Y-107422000D01*
X121127000Y-107422000D01*
X121127000Y-107442000D01*
X120873000Y-107442000D01*
X120873000Y-107422000D01*
X118023750Y-107422000D01*
X117865000Y-107580750D01*
X117862985Y-109033053D01*
X117746999Y-108917067D01*
X117746999Y-106679996D01*
X117815603Y-106708562D01*
%TA.AperFunction,Conductor*%
D24*
G36*
X117815603Y-106708562D02*
G01*
X117864596Y-106718402D01*
X117865000Y-107009250D01*
X118023750Y-107168000D01*
X120873000Y-107168000D01*
X120873000Y-107148000D01*
X121127000Y-107148000D01*
X121127000Y-107168000D01*
X121147000Y-107168000D01*
X121147000Y-107422000D01*
X121127000Y-107422000D01*
X121127000Y-107442000D01*
X120873000Y-107442000D01*
X120873000Y-107422000D01*
X118023750Y-107422000D01*
X117865000Y-107580750D01*
X117862985Y-109033053D01*
X117746999Y-108917067D01*
X117746999Y-106679996D01*
X117815603Y-106708562D01*
G37*
%TD.AperFunction*%
D23*
X129032236Y-98914017D02*
X128969463Y-98990506D01*
X128910498Y-99100820D01*
X128874188Y-99220518D01*
X128861928Y-99345000D01*
X128865000Y-99509250D01*
X129023750Y-99668000D01*
X130373000Y-99668000D01*
X130373000Y-99648000D01*
X130627000Y-99648000D01*
X130627000Y-99668000D01*
X130647000Y-99668000D01*
X130647000Y-99922000D01*
X130627000Y-99922000D01*
X130627000Y-99942000D01*
X130373000Y-99942000D01*
X130373000Y-99922000D01*
X129023750Y-99922000D01*
X128865000Y-100080750D01*
X128861928Y-100245000D01*
X128874188Y-100369482D01*
X128910498Y-100489180D01*
X128969463Y-100599494D01*
X129048815Y-100696185D01*
X129121176Y-100755570D01*
X129121176Y-101515000D01*
X129128455Y-101588905D01*
X129150012Y-101659970D01*
X129171409Y-101700000D01*
X129150012Y-101740030D01*
X129128455Y-101811095D01*
X129121176Y-101885000D01*
X129121176Y-102588237D01*
X128770403Y-102237465D01*
X128754686Y-102218314D01*
X128678247Y-102155581D01*
X128591038Y-102108967D01*
X128496411Y-102080262D01*
X128422655Y-102072998D01*
X128422645Y-102072998D01*
X128398002Y-102070571D01*
X128373359Y-102072998D01*
X127136055Y-102072998D01*
X127111412Y-102070571D01*
X127086769Y-102072998D01*
X127086759Y-102072998D01*
X127013003Y-102080262D01*
X126918376Y-102108967D01*
X126831167Y-102155581D01*
X126831165Y-102155582D01*
X126831166Y-102155582D01*
X126773876Y-102202598D01*
X126773868Y-102202606D01*
X126754728Y-102218314D01*
X126739019Y-102237455D01*
X126202126Y-102774350D01*
X126182975Y-102790067D01*
X126120242Y-102866506D01*
X126073628Y-102953716D01*
X126044923Y-103048343D01*
X126037659Y-103122099D01*
X126037659Y-103122108D01*
X126035232Y-103146751D01*
X126037659Y-103171394D01*
X126037660Y-103903267D01*
X126035231Y-103927930D01*
X126044923Y-104026339D01*
X126070775Y-104111563D01*
X126031406Y-104150932D01*
X125010867Y-104150932D01*
X124420433Y-103560499D01*
X124411972Y-103517962D01*
X124353400Y-103376557D01*
X124268367Y-103249296D01*
X124160140Y-103141069D01*
X124032879Y-103056036D01*
X123891474Y-102997464D01*
X123741359Y-102967605D01*
X123588303Y-102967605D01*
X123438188Y-102997464D01*
X123296783Y-103056036D01*
X123169522Y-103141069D01*
X123067986Y-103242605D01*
X122466663Y-103242605D01*
X122466663Y-103148096D01*
X122436804Y-102997981D01*
X122378232Y-102856576D01*
X122293199Y-102729315D01*
X122184972Y-102621088D01*
X122057711Y-102536055D01*
X121916306Y-102477483D01*
X121766191Y-102447624D01*
X121613135Y-102447624D01*
X121463020Y-102477483D01*
X121321615Y-102536055D01*
X121194354Y-102621088D01*
X121086127Y-102729315D01*
X121001094Y-102856576D01*
X120942522Y-102997981D01*
X120941711Y-103002058D01*
X120807653Y-102946529D01*
X120657538Y-102916670D01*
X120513945Y-102916670D01*
X119859729Y-102262455D01*
X119844012Y-102243304D01*
X119793644Y-102201967D01*
X122242033Y-102201967D01*
X122827607Y-102787543D01*
X122843316Y-102806684D01*
X122862456Y-102822392D01*
X122862464Y-102822400D01*
X122902484Y-102855243D01*
X122919755Y-102869417D01*
X123006964Y-102916031D01*
X123101591Y-102944736D01*
X123175347Y-102952000D01*
X123175357Y-102952000D01*
X123200000Y-102954427D01*
X123224643Y-102952000D01*
X125175357Y-102952000D01*
X125200000Y-102954427D01*
X125224643Y-102952000D01*
X125224653Y-102952000D01*
X125298409Y-102944736D01*
X125393036Y-102916031D01*
X125480245Y-102869417D01*
X125556684Y-102806684D01*
X125572401Y-102787533D01*
X126682935Y-101677000D01*
X126826528Y-101677000D01*
X126976643Y-101647141D01*
X127118048Y-101588569D01*
X127245309Y-101503536D01*
X127353536Y-101395309D01*
X127438569Y-101268048D01*
X127497141Y-101126643D01*
X127527000Y-100976528D01*
X127527000Y-100823472D01*
X127497141Y-100673357D01*
X127438569Y-100531952D01*
X127353536Y-100404691D01*
X127245309Y-100296464D01*
X127118048Y-100211431D01*
X126976643Y-100152859D01*
X126826528Y-100123000D01*
X126673472Y-100123000D01*
X126523357Y-100152859D01*
X126381952Y-100211431D01*
X126254691Y-100296464D01*
X126146464Y-100404691D01*
X126061431Y-100531952D01*
X126002859Y-100673357D01*
X125973000Y-100823472D01*
X125973000Y-100967065D01*
X124992066Y-101948000D01*
X123407936Y-101948000D01*
X122822368Y-101362434D01*
X122806651Y-101343283D01*
X122730212Y-101280550D01*
X122643003Y-101233936D01*
X122548376Y-101205231D01*
X122474620Y-101197967D01*
X122474610Y-101197967D01*
X122449967Y-101195540D01*
X122425324Y-101197967D01*
X115557902Y-101197967D01*
X115087401Y-100727467D01*
X115071684Y-100708316D01*
X114995245Y-100645583D01*
X114993485Y-100644642D01*
X115030537Y-100599494D01*
X115089502Y-100489180D01*
X115125812Y-100369482D01*
X115138072Y-100245000D01*
X115135000Y-100080750D01*
X114976250Y-99922000D01*
X113627000Y-99922000D01*
X113627000Y-99942000D01*
X113373000Y-99942000D01*
X113373000Y-99922000D01*
X113353000Y-99922000D01*
X113353000Y-99668000D01*
X113373000Y-99668000D01*
X113373000Y-99648000D01*
X113627000Y-99648000D01*
X113627000Y-99668000D01*
X114976250Y-99668000D01*
X115135000Y-99509250D01*
X115138072Y-99345000D01*
X115125812Y-99220518D01*
X115089502Y-99100820D01*
X115030537Y-98990506D01*
X114951185Y-98893815D01*
X114885073Y-98839558D01*
X129032236Y-98914017D01*
%TA.AperFunction,Conductor*%
D24*
G36*
X129032236Y-98914017D02*
G01*
X128969463Y-98990506D01*
X128910498Y-99100820D01*
X128874188Y-99220518D01*
X128861928Y-99345000D01*
X128865000Y-99509250D01*
X129023750Y-99668000D01*
X130373000Y-99668000D01*
X130373000Y-99648000D01*
X130627000Y-99648000D01*
X130627000Y-99668000D01*
X130647000Y-99668000D01*
X130647000Y-99922000D01*
X130627000Y-99922000D01*
X130627000Y-99942000D01*
X130373000Y-99942000D01*
X130373000Y-99922000D01*
X129023750Y-99922000D01*
X128865000Y-100080750D01*
X128861928Y-100245000D01*
X128874188Y-100369482D01*
X128910498Y-100489180D01*
X128969463Y-100599494D01*
X129048815Y-100696185D01*
X129121176Y-100755570D01*
X129121176Y-101515000D01*
X129128455Y-101588905D01*
X129150012Y-101659970D01*
X129171409Y-101700000D01*
X129150012Y-101740030D01*
X129128455Y-101811095D01*
X129121176Y-101885000D01*
X129121176Y-102588237D01*
X128770403Y-102237465D01*
X128754686Y-102218314D01*
X128678247Y-102155581D01*
X128591038Y-102108967D01*
X128496411Y-102080262D01*
X128422655Y-102072998D01*
X128422645Y-102072998D01*
X128398002Y-102070571D01*
X128373359Y-102072998D01*
X127136055Y-102072998D01*
X127111412Y-102070571D01*
X127086769Y-102072998D01*
X127086759Y-102072998D01*
X127013003Y-102080262D01*
X126918376Y-102108967D01*
X126831167Y-102155581D01*
X126831165Y-102155582D01*
X126831166Y-102155582D01*
X126773876Y-102202598D01*
X126773868Y-102202606D01*
X126754728Y-102218314D01*
X126739019Y-102237455D01*
X126202126Y-102774350D01*
X126182975Y-102790067D01*
X126120242Y-102866506D01*
X126073628Y-102953716D01*
X126044923Y-103048343D01*
X126037659Y-103122099D01*
X126037659Y-103122108D01*
X126035232Y-103146751D01*
X126037659Y-103171394D01*
X126037660Y-103903267D01*
X126035231Y-103927930D01*
X126044923Y-104026339D01*
X126070775Y-104111563D01*
X126031406Y-104150932D01*
X125010867Y-104150932D01*
X124420433Y-103560499D01*
X124411972Y-103517962D01*
X124353400Y-103376557D01*
X124268367Y-103249296D01*
X124160140Y-103141069D01*
X124032879Y-103056036D01*
X123891474Y-102997464D01*
X123741359Y-102967605D01*
X123588303Y-102967605D01*
X123438188Y-102997464D01*
X123296783Y-103056036D01*
X123169522Y-103141069D01*
X123067986Y-103242605D01*
X122466663Y-103242605D01*
X122466663Y-103148096D01*
X122436804Y-102997981D01*
X122378232Y-102856576D01*
X122293199Y-102729315D01*
X122184972Y-102621088D01*
X122057711Y-102536055D01*
X121916306Y-102477483D01*
X121766191Y-102447624D01*
X121613135Y-102447624D01*
X121463020Y-102477483D01*
X121321615Y-102536055D01*
X121194354Y-102621088D01*
X121086127Y-102729315D01*
X121001094Y-102856576D01*
X120942522Y-102997981D01*
X120941711Y-103002058D01*
X120807653Y-102946529D01*
X120657538Y-102916670D01*
X120513945Y-102916670D01*
X119859729Y-102262455D01*
X119844012Y-102243304D01*
X119793644Y-102201967D01*
X122242033Y-102201967D01*
X122827607Y-102787543D01*
X122843316Y-102806684D01*
X122862456Y-102822392D01*
X122862464Y-102822400D01*
X122902484Y-102855243D01*
X122919755Y-102869417D01*
X123006964Y-102916031D01*
X123101591Y-102944736D01*
X123175347Y-102952000D01*
X123175357Y-102952000D01*
X123200000Y-102954427D01*
X123224643Y-102952000D01*
X125175357Y-102952000D01*
X125200000Y-102954427D01*
X125224643Y-102952000D01*
X125224653Y-102952000D01*
X125298409Y-102944736D01*
X125393036Y-102916031D01*
X125480245Y-102869417D01*
X125556684Y-102806684D01*
X125572401Y-102787533D01*
X126682935Y-101677000D01*
X126826528Y-101677000D01*
X126976643Y-101647141D01*
X127118048Y-101588569D01*
X127245309Y-101503536D01*
X127353536Y-101395309D01*
X127438569Y-101268048D01*
X127497141Y-101126643D01*
X127527000Y-100976528D01*
X127527000Y-100823472D01*
X127497141Y-100673357D01*
X127438569Y-100531952D01*
X127353536Y-100404691D01*
X127245309Y-100296464D01*
X127118048Y-100211431D01*
X126976643Y-100152859D01*
X126826528Y-100123000D01*
X126673472Y-100123000D01*
X126523357Y-100152859D01*
X126381952Y-100211431D01*
X126254691Y-100296464D01*
X126146464Y-100404691D01*
X126061431Y-100531952D01*
X126002859Y-100673357D01*
X125973000Y-100823472D01*
X125973000Y-100967065D01*
X124992066Y-101948000D01*
X123407936Y-101948000D01*
X122822368Y-101362434D01*
X122806651Y-101343283D01*
X122730212Y-101280550D01*
X122643003Y-101233936D01*
X122548376Y-101205231D01*
X122474620Y-101197967D01*
X122474610Y-101197967D01*
X122449967Y-101195540D01*
X122425324Y-101197967D01*
X115557902Y-101197967D01*
X115087401Y-100727467D01*
X115071684Y-100708316D01*
X114995245Y-100645583D01*
X114993485Y-100644642D01*
X115030537Y-100599494D01*
X115089502Y-100489180D01*
X115125812Y-100369482D01*
X115138072Y-100245000D01*
X115135000Y-100080750D01*
X114976250Y-99922000D01*
X113627000Y-99922000D01*
X113627000Y-99942000D01*
X113373000Y-99942000D01*
X113373000Y-99922000D01*
X113353000Y-99922000D01*
X113353000Y-99668000D01*
X113373000Y-99668000D01*
X113373000Y-99648000D01*
X113627000Y-99648000D01*
X113627000Y-99668000D01*
X114976250Y-99668000D01*
X115135000Y-99509250D01*
X115138072Y-99345000D01*
X115125812Y-99220518D01*
X115089502Y-99100820D01*
X115030537Y-98990506D01*
X114951185Y-98893815D01*
X114885073Y-98839558D01*
X129032236Y-98914017D01*
G37*
%TD.AperFunction*%
%TD*%
M02*
