%TF.GenerationSoftware,KiCad,Pcbnew,(5.1.9-0-10_14)*%
%TF.CreationDate,2021-06-20T07:03:24+01:00*%
%TF.ProjectId,Generic,47656e65-7269-4632-9e6b-696361645f70,4*%
%TF.SameCoordinates,Original*%
%TF.FileFunction,Soldermask,Top*%
%TF.FilePolarity,Negative*%
%FSLAX46Y46*%
G04 Gerber Fmt 4.6, Leading zero omitted, Abs format (unit mm)*
G04 Created by KiCad (PCBNEW (5.1.9-0-10_14)) date 2021-06-20 07:03:24*
%MOMM*%
%LPD*%
G01*
G04 APERTURE LIST*
%ADD10C,5.500000*%
%ADD11R,0.500000X0.850000*%
%ADD12C,0.350000*%
%ADD13C,0.100000*%
%ADD14C,2.000000*%
%ADD15R,2.000000X2.000000*%
%ADD16R,0.650000X0.400000*%
%ADD17R,0.600000X1.100000*%
%ADD18R,1.425000X3.700000*%
%ADD19R,1.700000X1.700000*%
%ADD20O,1.700000X1.700000*%
%ADD21R,5.490000X5.000000*%
%ADD22R,1.140000X0.600000*%
%ADD23C,1.500000*%
%ADD24C,1.750000*%
%ADD25R,1.140000X0.300000*%
G04 APERTURE END LIST*
D10*
%TO.C,Logo1*%
X112600000Y-103700000D03*
%TD*%
%TO.C,R13*%
G36*
G01*
X112075000Y-114625000D02*
X112075000Y-115175000D01*
G75*
G02*
X111875000Y-115375000I-200000J0D01*
G01*
X111475000Y-115375000D01*
G75*
G02*
X111275000Y-115175000I0J200000D01*
G01*
X111275000Y-114625000D01*
G75*
G02*
X111475000Y-114425000I200000J0D01*
G01*
X111875000Y-114425000D01*
G75*
G02*
X112075000Y-114625000I0J-200000D01*
G01*
G37*
G36*
G01*
X113725000Y-114625000D02*
X113725000Y-115175000D01*
G75*
G02*
X113525000Y-115375000I-200000J0D01*
G01*
X113125000Y-115375000D01*
G75*
G02*
X112925000Y-115175000I0J200000D01*
G01*
X112925000Y-114625000D01*
G75*
G02*
X113125000Y-114425000I200000J0D01*
G01*
X113525000Y-114425000D01*
G75*
G02*
X113725000Y-114625000I0J-200000D01*
G01*
G37*
%TD*%
%TO.C,R12*%
G36*
G01*
X112075000Y-113425000D02*
X112075000Y-113975000D01*
G75*
G02*
X111875000Y-114175000I-200000J0D01*
G01*
X111475000Y-114175000D01*
G75*
G02*
X111275000Y-113975000I0J200000D01*
G01*
X111275000Y-113425000D01*
G75*
G02*
X111475000Y-113225000I200000J0D01*
G01*
X111875000Y-113225000D01*
G75*
G02*
X112075000Y-113425000I0J-200000D01*
G01*
G37*
G36*
G01*
X113725000Y-113425000D02*
X113725000Y-113975000D01*
G75*
G02*
X113525000Y-114175000I-200000J0D01*
G01*
X113125000Y-114175000D01*
G75*
G02*
X112925000Y-113975000I0J200000D01*
G01*
X112925000Y-113425000D01*
G75*
G02*
X113125000Y-113225000I200000J0D01*
G01*
X113525000Y-113225000D01*
G75*
G02*
X113725000Y-113425000I0J-200000D01*
G01*
G37*
%TD*%
D11*
%TO.C,D4*%
X115800000Y-115875000D03*
X115800000Y-114125000D03*
X114800000Y-114125000D03*
X114800000Y-115875000D03*
%TD*%
%TO.C,R9*%
G36*
G01*
X118675000Y-112925000D02*
X118675000Y-113475000D01*
G75*
G02*
X118475000Y-113675000I-200000J0D01*
G01*
X118075000Y-113675000D01*
G75*
G02*
X117875000Y-113475000I0J200000D01*
G01*
X117875000Y-112925000D01*
G75*
G02*
X118075000Y-112725000I200000J0D01*
G01*
X118475000Y-112725000D01*
G75*
G02*
X118675000Y-112925000I0J-200000D01*
G01*
G37*
G36*
G01*
X120325000Y-112925000D02*
X120325000Y-113475000D01*
G75*
G02*
X120125000Y-113675000I-200000J0D01*
G01*
X119725000Y-113675000D01*
G75*
G02*
X119525000Y-113475000I0J200000D01*
G01*
X119525000Y-112925000D01*
G75*
G02*
X119725000Y-112725000I200000J0D01*
G01*
X120125000Y-112725000D01*
G75*
G02*
X120325000Y-112925000I0J-200000D01*
G01*
G37*
%TD*%
%TO.C,R10*%
G36*
G01*
X119525000Y-115275000D02*
X119525000Y-114725000D01*
G75*
G02*
X119725000Y-114525000I200000J0D01*
G01*
X120125000Y-114525000D01*
G75*
G02*
X120325000Y-114725000I0J-200000D01*
G01*
X120325000Y-115275000D01*
G75*
G02*
X120125000Y-115475000I-200000J0D01*
G01*
X119725000Y-115475000D01*
G75*
G02*
X119525000Y-115275000I0J200000D01*
G01*
G37*
G36*
G01*
X117875000Y-115275000D02*
X117875000Y-114725000D01*
G75*
G02*
X118075000Y-114525000I200000J0D01*
G01*
X118475000Y-114525000D01*
G75*
G02*
X118675000Y-114725000I0J-200000D01*
G01*
X118675000Y-115275000D01*
G75*
G02*
X118475000Y-115475000I-200000J0D01*
G01*
X118075000Y-115475000D01*
G75*
G02*
X117875000Y-115275000I0J200000D01*
G01*
G37*
%TD*%
D12*
%TO.C,U2*%
X115750000Y-108250000D03*
D13*
G36*
X114750000Y-107250000D02*
G01*
X116750000Y-107250000D01*
X116750000Y-109000000D01*
X116500000Y-109250000D01*
X114750000Y-109250000D01*
X114750000Y-107250000D01*
G37*
G36*
G01*
X116875000Y-109862500D02*
X116875000Y-110437500D01*
G75*
G02*
X116812500Y-110500000I-62500J0D01*
G01*
X116687500Y-110500000D01*
G75*
G02*
X116625000Y-110437500I0J62500D01*
G01*
X116625000Y-109862500D01*
G75*
G02*
X116687500Y-109800000I62500J0D01*
G01*
X116812500Y-109800000D01*
G75*
G02*
X116875000Y-109862500I0J-62500D01*
G01*
G37*
G36*
G01*
X116375000Y-109862500D02*
X116375000Y-110437500D01*
G75*
G02*
X116312500Y-110500000I-62500J0D01*
G01*
X116187500Y-110500000D01*
G75*
G02*
X116125000Y-110437500I0J62500D01*
G01*
X116125000Y-109862500D01*
G75*
G02*
X116187500Y-109800000I62500J0D01*
G01*
X116312500Y-109800000D01*
G75*
G02*
X116375000Y-109862500I0J-62500D01*
G01*
G37*
G36*
G01*
X115875000Y-109862500D02*
X115875000Y-110437500D01*
G75*
G02*
X115812500Y-110500000I-62500J0D01*
G01*
X115687500Y-110500000D01*
G75*
G02*
X115625000Y-110437500I0J62500D01*
G01*
X115625000Y-109862500D01*
G75*
G02*
X115687500Y-109800000I62500J0D01*
G01*
X115812500Y-109800000D01*
G75*
G02*
X115875000Y-109862500I0J-62500D01*
G01*
G37*
G36*
G01*
X115375000Y-109862500D02*
X115375000Y-110437500D01*
G75*
G02*
X115312500Y-110500000I-62500J0D01*
G01*
X115187500Y-110500000D01*
G75*
G02*
X115125000Y-110437500I0J62500D01*
G01*
X115125000Y-109862500D01*
G75*
G02*
X115187500Y-109800000I62500J0D01*
G01*
X115312500Y-109800000D01*
G75*
G02*
X115375000Y-109862500I0J-62500D01*
G01*
G37*
G36*
G01*
X114875000Y-109862500D02*
X114875000Y-110437500D01*
G75*
G02*
X114812500Y-110500000I-62500J0D01*
G01*
X114687500Y-110500000D01*
G75*
G02*
X114625000Y-110437500I0J62500D01*
G01*
X114625000Y-109862500D01*
G75*
G02*
X114687500Y-109800000I62500J0D01*
G01*
X114812500Y-109800000D01*
G75*
G02*
X114875000Y-109862500I0J-62500D01*
G01*
G37*
G36*
G01*
X114200000Y-109187500D02*
X114200000Y-109312500D01*
G75*
G02*
X114137500Y-109375000I-62500J0D01*
G01*
X113562500Y-109375000D01*
G75*
G02*
X113500000Y-109312500I0J62500D01*
G01*
X113500000Y-109187500D01*
G75*
G02*
X113562500Y-109125000I62500J0D01*
G01*
X114137500Y-109125000D01*
G75*
G02*
X114200000Y-109187500I0J-62500D01*
G01*
G37*
G36*
G01*
X114200000Y-108687500D02*
X114200000Y-108812500D01*
G75*
G02*
X114137500Y-108875000I-62500J0D01*
G01*
X113562500Y-108875000D01*
G75*
G02*
X113500000Y-108812500I0J62500D01*
G01*
X113500000Y-108687500D01*
G75*
G02*
X113562500Y-108625000I62500J0D01*
G01*
X114137500Y-108625000D01*
G75*
G02*
X114200000Y-108687500I0J-62500D01*
G01*
G37*
G36*
G01*
X114200000Y-108187500D02*
X114200000Y-108312500D01*
G75*
G02*
X114137500Y-108375000I-62500J0D01*
G01*
X113562500Y-108375000D01*
G75*
G02*
X113500000Y-108312500I0J62500D01*
G01*
X113500000Y-108187500D01*
G75*
G02*
X113562500Y-108125000I62500J0D01*
G01*
X114137500Y-108125000D01*
G75*
G02*
X114200000Y-108187500I0J-62500D01*
G01*
G37*
G36*
G01*
X114200000Y-107687500D02*
X114200000Y-107812500D01*
G75*
G02*
X114137500Y-107875000I-62500J0D01*
G01*
X113562500Y-107875000D01*
G75*
G02*
X113500000Y-107812500I0J62500D01*
G01*
X113500000Y-107687500D01*
G75*
G02*
X113562500Y-107625000I62500J0D01*
G01*
X114137500Y-107625000D01*
G75*
G02*
X114200000Y-107687500I0J-62500D01*
G01*
G37*
G36*
G01*
X114200000Y-107187500D02*
X114200000Y-107312500D01*
G75*
G02*
X114137500Y-107375000I-62500J0D01*
G01*
X113562500Y-107375000D01*
G75*
G02*
X113500000Y-107312500I0J62500D01*
G01*
X113500000Y-107187500D01*
G75*
G02*
X113562500Y-107125000I62500J0D01*
G01*
X114137500Y-107125000D01*
G75*
G02*
X114200000Y-107187500I0J-62500D01*
G01*
G37*
G36*
G01*
X114875000Y-106062500D02*
X114875000Y-106637500D01*
G75*
G02*
X114812500Y-106700000I-62500J0D01*
G01*
X114687500Y-106700000D01*
G75*
G02*
X114625000Y-106637500I0J62500D01*
G01*
X114625000Y-106062500D01*
G75*
G02*
X114687500Y-106000000I62500J0D01*
G01*
X114812500Y-106000000D01*
G75*
G02*
X114875000Y-106062500I0J-62500D01*
G01*
G37*
G36*
G01*
X115375000Y-106062500D02*
X115375000Y-106637500D01*
G75*
G02*
X115312500Y-106700000I-62500J0D01*
G01*
X115187500Y-106700000D01*
G75*
G02*
X115125000Y-106637500I0J62500D01*
G01*
X115125000Y-106062500D01*
G75*
G02*
X115187500Y-106000000I62500J0D01*
G01*
X115312500Y-106000000D01*
G75*
G02*
X115375000Y-106062500I0J-62500D01*
G01*
G37*
G36*
G01*
X115875000Y-106062500D02*
X115875000Y-106637500D01*
G75*
G02*
X115812500Y-106700000I-62500J0D01*
G01*
X115687500Y-106700000D01*
G75*
G02*
X115625000Y-106637500I0J62500D01*
G01*
X115625000Y-106062500D01*
G75*
G02*
X115687500Y-106000000I62500J0D01*
G01*
X115812500Y-106000000D01*
G75*
G02*
X115875000Y-106062500I0J-62500D01*
G01*
G37*
G36*
G01*
X116375000Y-106062500D02*
X116375000Y-106637500D01*
G75*
G02*
X116312500Y-106700000I-62500J0D01*
G01*
X116187500Y-106700000D01*
G75*
G02*
X116125000Y-106637500I0J62500D01*
G01*
X116125000Y-106062500D01*
G75*
G02*
X116187500Y-106000000I62500J0D01*
G01*
X116312500Y-106000000D01*
G75*
G02*
X116375000Y-106062500I0J-62500D01*
G01*
G37*
G36*
G01*
X116875000Y-106062500D02*
X116875000Y-106637500D01*
G75*
G02*
X116812500Y-106700000I-62500J0D01*
G01*
X116687500Y-106700000D01*
G75*
G02*
X116625000Y-106637500I0J62500D01*
G01*
X116625000Y-106062500D01*
G75*
G02*
X116687500Y-106000000I62500J0D01*
G01*
X116812500Y-106000000D01*
G75*
G02*
X116875000Y-106062500I0J-62500D01*
G01*
G37*
G36*
G01*
X118000000Y-107187500D02*
X118000000Y-107312500D01*
G75*
G02*
X117937500Y-107375000I-62500J0D01*
G01*
X117362500Y-107375000D01*
G75*
G02*
X117300000Y-107312500I0J62500D01*
G01*
X117300000Y-107187500D01*
G75*
G02*
X117362500Y-107125000I62500J0D01*
G01*
X117937500Y-107125000D01*
G75*
G02*
X118000000Y-107187500I0J-62500D01*
G01*
G37*
G36*
G01*
X118000000Y-107687500D02*
X118000000Y-107812500D01*
G75*
G02*
X117937500Y-107875000I-62500J0D01*
G01*
X117362500Y-107875000D01*
G75*
G02*
X117300000Y-107812500I0J62500D01*
G01*
X117300000Y-107687500D01*
G75*
G02*
X117362500Y-107625000I62500J0D01*
G01*
X117937500Y-107625000D01*
G75*
G02*
X118000000Y-107687500I0J-62500D01*
G01*
G37*
G36*
G01*
X118000000Y-108187500D02*
X118000000Y-108312500D01*
G75*
G02*
X117937500Y-108375000I-62500J0D01*
G01*
X117362500Y-108375000D01*
G75*
G02*
X117300000Y-108312500I0J62500D01*
G01*
X117300000Y-108187500D01*
G75*
G02*
X117362500Y-108125000I62500J0D01*
G01*
X117937500Y-108125000D01*
G75*
G02*
X118000000Y-108187500I0J-62500D01*
G01*
G37*
G36*
G01*
X118000000Y-108687500D02*
X118000000Y-108812500D01*
G75*
G02*
X117937500Y-108875000I-62500J0D01*
G01*
X117362500Y-108875000D01*
G75*
G02*
X117300000Y-108812500I0J62500D01*
G01*
X117300000Y-108687500D01*
G75*
G02*
X117362500Y-108625000I62500J0D01*
G01*
X117937500Y-108625000D01*
G75*
G02*
X118000000Y-108687500I0J-62500D01*
G01*
G37*
G36*
G01*
X118000000Y-109187500D02*
X118000000Y-109312500D01*
G75*
G02*
X117937500Y-109375000I-62500J0D01*
G01*
X117362500Y-109375000D01*
G75*
G02*
X117300000Y-109312500I0J62500D01*
G01*
X117300000Y-109187500D01*
G75*
G02*
X117362500Y-109125000I62500J0D01*
G01*
X117937500Y-109125000D01*
G75*
G02*
X118000000Y-109187500I0J-62500D01*
G01*
G37*
%TD*%
D14*
%TO.C,J3*%
X126600000Y-125460000D03*
D15*
X126600000Y-128000000D03*
%TD*%
%TO.C,R11*%
G36*
G01*
X112075000Y-115825000D02*
X112075000Y-116375000D01*
G75*
G02*
X111875000Y-116575000I-200000J0D01*
G01*
X111475000Y-116575000D01*
G75*
G02*
X111275000Y-116375000I0J200000D01*
G01*
X111275000Y-115825000D01*
G75*
G02*
X111475000Y-115625000I200000J0D01*
G01*
X111875000Y-115625000D01*
G75*
G02*
X112075000Y-115825000I0J-200000D01*
G01*
G37*
G36*
G01*
X113725000Y-115825000D02*
X113725000Y-116375000D01*
G75*
G02*
X113525000Y-116575000I-200000J0D01*
G01*
X113125000Y-116575000D01*
G75*
G02*
X112925000Y-116375000I0J200000D01*
G01*
X112925000Y-115825000D01*
G75*
G02*
X113125000Y-115625000I200000J0D01*
G01*
X113525000Y-115625000D01*
G75*
G02*
X113725000Y-115825000I0J-200000D01*
G01*
G37*
%TD*%
%TO.C,D3*%
G36*
G01*
X118925000Y-108975000D02*
X120175000Y-108975000D01*
G75*
G02*
X120425000Y-109225000I0J-250000D01*
G01*
X120425000Y-110150000D01*
G75*
G02*
X120175000Y-110400000I-250000J0D01*
G01*
X118925000Y-110400000D01*
G75*
G02*
X118675000Y-110150000I0J250000D01*
G01*
X118675000Y-109225000D01*
G75*
G02*
X118925000Y-108975000I250000J0D01*
G01*
G37*
G36*
G01*
X118925000Y-106000000D02*
X120175000Y-106000000D01*
G75*
G02*
X120425000Y-106250000I0J-250000D01*
G01*
X120425000Y-107175000D01*
G75*
G02*
X120175000Y-107425000I-250000J0D01*
G01*
X118925000Y-107425000D01*
G75*
G02*
X118675000Y-107175000I0J250000D01*
G01*
X118675000Y-106250000D01*
G75*
G02*
X118925000Y-106000000I250000J0D01*
G01*
G37*
%TD*%
D16*
%TO.C,D2*%
X117450000Y-119300000D03*
X117450000Y-120600000D03*
X115550000Y-119950000D03*
X117450000Y-119950000D03*
X115550000Y-120600000D03*
X115550000Y-119300000D03*
%TD*%
%TO.C,D1*%
X120950000Y-119300000D03*
X120950000Y-120600000D03*
X119050000Y-119950000D03*
X120950000Y-119950000D03*
X119050000Y-120600000D03*
X119050000Y-119300000D03*
%TD*%
%TO.C,C2*%
G36*
G01*
X112350000Y-108725000D02*
X112850000Y-108725000D01*
G75*
G02*
X113075000Y-108950000I0J-225000D01*
G01*
X113075000Y-109400000D01*
G75*
G02*
X112850000Y-109625000I-225000J0D01*
G01*
X112350000Y-109625000D01*
G75*
G02*
X112125000Y-109400000I0J225000D01*
G01*
X112125000Y-108950000D01*
G75*
G02*
X112350000Y-108725000I225000J0D01*
G01*
G37*
G36*
G01*
X112350000Y-107175000D02*
X112850000Y-107175000D01*
G75*
G02*
X113075000Y-107400000I0J-225000D01*
G01*
X113075000Y-107850000D01*
G75*
G02*
X112850000Y-108075000I-225000J0D01*
G01*
X112350000Y-108075000D01*
G75*
G02*
X112125000Y-107850000I0J225000D01*
G01*
X112125000Y-107400000D01*
G75*
G02*
X112350000Y-107175000I225000J0D01*
G01*
G37*
%TD*%
D17*
%TO.C,Reg1*%
X123750000Y-102700000D03*
X121850000Y-102700000D03*
X122800000Y-102700000D03*
X121850000Y-105400000D03*
X122800000Y-105400000D03*
X123750000Y-105400000D03*
G36*
G01*
X127725000Y-106150000D02*
X128675000Y-106150000D01*
G75*
G02*
X128925000Y-106400000I0J-250000D01*
G01*
X128925000Y-106900000D01*
G75*
G02*
X128675000Y-107150000I-250000J0D01*
G01*
X127725000Y-107150000D01*
G75*
G02*
X127475000Y-106900000I0J250000D01*
G01*
X127475000Y-106400000D01*
G75*
G02*
X127725000Y-106150000I250000J0D01*
G01*
G37*
G36*
G01*
X127725000Y-108050000D02*
X128675000Y-108050000D01*
G75*
G02*
X128925000Y-108300000I0J-250000D01*
G01*
X128925000Y-108800000D01*
G75*
G02*
X128675000Y-109050000I-250000J0D01*
G01*
X127725000Y-109050000D01*
G75*
G02*
X127475000Y-108800000I0J250000D01*
G01*
X127475000Y-108300000D01*
G75*
G02*
X127725000Y-108050000I250000J0D01*
G01*
G37*
G36*
G01*
X121475000Y-108050000D02*
X122425000Y-108050000D01*
G75*
G02*
X122675000Y-108300000I0J-250000D01*
G01*
X122675000Y-108800000D01*
G75*
G02*
X122425000Y-109050000I-250000J0D01*
G01*
X121475000Y-109050000D01*
G75*
G02*
X121225000Y-108800000I0J250000D01*
G01*
X121225000Y-108300000D01*
G75*
G02*
X121475000Y-108050000I250000J0D01*
G01*
G37*
G36*
G01*
X121475000Y-106150000D02*
X122425000Y-106150000D01*
G75*
G02*
X122675000Y-106400000I0J-250000D01*
G01*
X122675000Y-106900000D01*
G75*
G02*
X122425000Y-107150000I-250000J0D01*
G01*
X121475000Y-107150000D01*
G75*
G02*
X121225000Y-106900000I0J250000D01*
G01*
X121225000Y-106400000D01*
G75*
G02*
X121475000Y-106150000I250000J0D01*
G01*
G37*
G36*
G01*
X120950000Y-103725000D02*
X120450000Y-103725000D01*
G75*
G02*
X120225000Y-103500000I0J225000D01*
G01*
X120225000Y-103050000D01*
G75*
G02*
X120450000Y-102825000I225000J0D01*
G01*
X120950000Y-102825000D01*
G75*
G02*
X121175000Y-103050000I0J-225000D01*
G01*
X121175000Y-103500000D01*
G75*
G02*
X120950000Y-103725000I-225000J0D01*
G01*
G37*
G36*
G01*
X120950000Y-105275000D02*
X120450000Y-105275000D01*
G75*
G02*
X120225000Y-105050000I0J225000D01*
G01*
X120225000Y-104600000D01*
G75*
G02*
X120450000Y-104375000I225000J0D01*
G01*
X120950000Y-104375000D01*
G75*
G02*
X121175000Y-104600000I0J-225000D01*
G01*
X121175000Y-105050000D01*
G75*
G02*
X120950000Y-105275000I-225000J0D01*
G01*
G37*
G36*
G01*
X122875000Y-107845626D02*
X122875000Y-106594374D01*
G75*
G02*
X123124374Y-106345000I249374J0D01*
G01*
X124050626Y-106345000D01*
G75*
G02*
X124300000Y-106594374I0J-249374D01*
G01*
X124300000Y-107845626D01*
G75*
G02*
X124050626Y-108095000I-249374J0D01*
G01*
X123124374Y-108095000D01*
G75*
G02*
X122875000Y-107845626I0J249374D01*
G01*
G37*
G36*
G01*
X125850000Y-107845626D02*
X125850000Y-106594374D01*
G75*
G02*
X126099374Y-106345000I249374J0D01*
G01*
X127025626Y-106345000D01*
G75*
G02*
X127275000Y-106594374I0J-249374D01*
G01*
X127275000Y-107845626D01*
G75*
G02*
X127025626Y-108095000I-249374J0D01*
G01*
X126099374Y-108095000D01*
G75*
G02*
X125850000Y-107845626I0J249374D01*
G01*
G37*
D18*
X128200000Y-104100000D03*
X125200000Y-104100000D03*
%TD*%
%TO.C,R8*%
G36*
G01*
X119525000Y-111675000D02*
X119525000Y-111125000D01*
G75*
G02*
X119725000Y-110925000I200000J0D01*
G01*
X120125000Y-110925000D01*
G75*
G02*
X120325000Y-111125000I0J-200000D01*
G01*
X120325000Y-111675000D01*
G75*
G02*
X120125000Y-111875000I-200000J0D01*
G01*
X119725000Y-111875000D01*
G75*
G02*
X119525000Y-111675000I0J200000D01*
G01*
G37*
G36*
G01*
X117875000Y-111675000D02*
X117875000Y-111125000D01*
G75*
G02*
X118075000Y-110925000I200000J0D01*
G01*
X118475000Y-110925000D01*
G75*
G02*
X118675000Y-111125000I0J-200000D01*
G01*
X118675000Y-111675000D01*
G75*
G02*
X118475000Y-111875000I-200000J0D01*
G01*
X118075000Y-111875000D01*
G75*
G02*
X117875000Y-111675000I0J200000D01*
G01*
G37*
%TD*%
%TO.C,R7*%
G36*
G01*
X118675000Y-116525000D02*
X118675000Y-117075000D01*
G75*
G02*
X118475000Y-117275000I-200000J0D01*
G01*
X118075000Y-117275000D01*
G75*
G02*
X117875000Y-117075000I0J200000D01*
G01*
X117875000Y-116525000D01*
G75*
G02*
X118075000Y-116325000I200000J0D01*
G01*
X118475000Y-116325000D01*
G75*
G02*
X118675000Y-116525000I0J-200000D01*
G01*
G37*
G36*
G01*
X120325000Y-116525000D02*
X120325000Y-117075000D01*
G75*
G02*
X120125000Y-117275000I-200000J0D01*
G01*
X119725000Y-117275000D01*
G75*
G02*
X119525000Y-117075000I0J200000D01*
G01*
X119525000Y-116525000D01*
G75*
G02*
X119725000Y-116325000I200000J0D01*
G01*
X120125000Y-116325000D01*
G75*
G02*
X120325000Y-116525000I0J-200000D01*
G01*
G37*
%TD*%
%TO.C,R6*%
G36*
G01*
X111075000Y-120649900D02*
X111075000Y-119750100D01*
G75*
G02*
X111325100Y-119500000I250100J0D01*
G01*
X111849900Y-119500000D01*
G75*
G02*
X112100000Y-119750100I0J-250100D01*
G01*
X112100000Y-120649900D01*
G75*
G02*
X111849900Y-120900000I-250100J0D01*
G01*
X111325100Y-120900000D01*
G75*
G02*
X111075000Y-120649900I0J250100D01*
G01*
G37*
G36*
G01*
X112900000Y-120649900D02*
X112900000Y-119750100D01*
G75*
G02*
X113150100Y-119500000I250100J0D01*
G01*
X113674900Y-119500000D01*
G75*
G02*
X113925000Y-119750100I0J-250100D01*
G01*
X113925000Y-120649900D01*
G75*
G02*
X113674900Y-120900000I-250100J0D01*
G01*
X113150100Y-120900000D01*
G75*
G02*
X112900000Y-120649900I0J250100D01*
G01*
G37*
G36*
G01*
X113400000Y-120825250D02*
X113400000Y-119574750D01*
G75*
G02*
X113649750Y-119325000I249750J0D01*
G01*
X114275250Y-119325000D01*
G75*
G02*
X114525000Y-119574750I0J-249750D01*
G01*
X114525000Y-120825250D01*
G75*
G02*
X114275250Y-121075000I-249750J0D01*
G01*
X113649750Y-121075000D01*
G75*
G02*
X113400000Y-120825250I0J249750D01*
G01*
G37*
G36*
G01*
X110475000Y-120825250D02*
X110475000Y-119574750D01*
G75*
G02*
X110724750Y-119325000I249750J0D01*
G01*
X111350250Y-119325000D01*
G75*
G02*
X111600000Y-119574750I0J-249750D01*
G01*
X111600000Y-120825250D01*
G75*
G02*
X111350250Y-121075000I-249750J0D01*
G01*
X110724750Y-121075000D01*
G75*
G02*
X110475000Y-120825250I0J249750D01*
G01*
G37*
%TD*%
%TO.C,R5*%
G36*
G01*
X112849900Y-128175000D02*
X111950100Y-128175000D01*
G75*
G02*
X111700000Y-127924900I0J250100D01*
G01*
X111700000Y-127400100D01*
G75*
G02*
X111950100Y-127150000I250100J0D01*
G01*
X112849900Y-127150000D01*
G75*
G02*
X113100000Y-127400100I0J-250100D01*
G01*
X113100000Y-127924900D01*
G75*
G02*
X112849900Y-128175000I-250100J0D01*
G01*
G37*
G36*
G01*
X112849900Y-126350000D02*
X111950100Y-126350000D01*
G75*
G02*
X111700000Y-126099900I0J250100D01*
G01*
X111700000Y-125575100D01*
G75*
G02*
X111950100Y-125325000I250100J0D01*
G01*
X112849900Y-125325000D01*
G75*
G02*
X113100000Y-125575100I0J-250100D01*
G01*
X113100000Y-126099900D01*
G75*
G02*
X112849900Y-126350000I-250100J0D01*
G01*
G37*
G36*
G01*
X113025250Y-125850000D02*
X111774750Y-125850000D01*
G75*
G02*
X111525000Y-125600250I0J249750D01*
G01*
X111525000Y-124974750D01*
G75*
G02*
X111774750Y-124725000I249750J0D01*
G01*
X113025250Y-124725000D01*
G75*
G02*
X113275000Y-124974750I0J-249750D01*
G01*
X113275000Y-125600250D01*
G75*
G02*
X113025250Y-125850000I-249750J0D01*
G01*
G37*
G36*
G01*
X113025250Y-128775000D02*
X111774750Y-128775000D01*
G75*
G02*
X111525000Y-128525250I0J249750D01*
G01*
X111525000Y-127899750D01*
G75*
G02*
X111774750Y-127650000I249750J0D01*
G01*
X113025250Y-127650000D01*
G75*
G02*
X113275000Y-127899750I0J-249750D01*
G01*
X113275000Y-128525250D01*
G75*
G02*
X113025250Y-128775000I-249750J0D01*
G01*
G37*
%TD*%
%TO.C,R4*%
G36*
G01*
X116119900Y-128175000D02*
X115220100Y-128175000D01*
G75*
G02*
X114970000Y-127924900I0J250100D01*
G01*
X114970000Y-127400100D01*
G75*
G02*
X115220100Y-127150000I250100J0D01*
G01*
X116119900Y-127150000D01*
G75*
G02*
X116370000Y-127400100I0J-250100D01*
G01*
X116370000Y-127924900D01*
G75*
G02*
X116119900Y-128175000I-250100J0D01*
G01*
G37*
G36*
G01*
X116119900Y-126350000D02*
X115220100Y-126350000D01*
G75*
G02*
X114970000Y-126099900I0J250100D01*
G01*
X114970000Y-125575100D01*
G75*
G02*
X115220100Y-125325000I250100J0D01*
G01*
X116119900Y-125325000D01*
G75*
G02*
X116370000Y-125575100I0J-250100D01*
G01*
X116370000Y-126099900D01*
G75*
G02*
X116119900Y-126350000I-250100J0D01*
G01*
G37*
G36*
G01*
X116295250Y-125850000D02*
X115044750Y-125850000D01*
G75*
G02*
X114795000Y-125600250I0J249750D01*
G01*
X114795000Y-124974750D01*
G75*
G02*
X115044750Y-124725000I249750J0D01*
G01*
X116295250Y-124725000D01*
G75*
G02*
X116545000Y-124974750I0J-249750D01*
G01*
X116545000Y-125600250D01*
G75*
G02*
X116295250Y-125850000I-249750J0D01*
G01*
G37*
G36*
G01*
X116295250Y-128775000D02*
X115044750Y-128775000D01*
G75*
G02*
X114795000Y-128525250I0J249750D01*
G01*
X114795000Y-127899750D01*
G75*
G02*
X115044750Y-127650000I249750J0D01*
G01*
X116295250Y-127650000D01*
G75*
G02*
X116545000Y-127899750I0J-249750D01*
G01*
X116545000Y-128525250D01*
G75*
G02*
X116295250Y-128775000I-249750J0D01*
G01*
G37*
%TD*%
%TO.C,R3*%
G36*
G01*
X118619900Y-128175000D02*
X117720100Y-128175000D01*
G75*
G02*
X117470000Y-127924900I0J250100D01*
G01*
X117470000Y-127400100D01*
G75*
G02*
X117720100Y-127150000I250100J0D01*
G01*
X118619900Y-127150000D01*
G75*
G02*
X118870000Y-127400100I0J-250100D01*
G01*
X118870000Y-127924900D01*
G75*
G02*
X118619900Y-128175000I-250100J0D01*
G01*
G37*
G36*
G01*
X118619900Y-126350000D02*
X117720100Y-126350000D01*
G75*
G02*
X117470000Y-126099900I0J250100D01*
G01*
X117470000Y-125575100D01*
G75*
G02*
X117720100Y-125325000I250100J0D01*
G01*
X118619900Y-125325000D01*
G75*
G02*
X118870000Y-125575100I0J-250100D01*
G01*
X118870000Y-126099900D01*
G75*
G02*
X118619900Y-126350000I-250100J0D01*
G01*
G37*
G36*
G01*
X118795250Y-125850000D02*
X117544750Y-125850000D01*
G75*
G02*
X117295000Y-125600250I0J249750D01*
G01*
X117295000Y-124974750D01*
G75*
G02*
X117544750Y-124725000I249750J0D01*
G01*
X118795250Y-124725000D01*
G75*
G02*
X119045000Y-124974750I0J-249750D01*
G01*
X119045000Y-125600250D01*
G75*
G02*
X118795250Y-125850000I-249750J0D01*
G01*
G37*
G36*
G01*
X118795250Y-128775000D02*
X117544750Y-128775000D01*
G75*
G02*
X117295000Y-128525250I0J249750D01*
G01*
X117295000Y-127899750D01*
G75*
G02*
X117544750Y-127650000I249750J0D01*
G01*
X118795250Y-127650000D01*
G75*
G02*
X119045000Y-127899750I0J-249750D01*
G01*
X119045000Y-128525250D01*
G75*
G02*
X118795250Y-128775000I-249750J0D01*
G01*
G37*
%TD*%
%TO.C,R2*%
G36*
G01*
X121119900Y-128175000D02*
X120220100Y-128175000D01*
G75*
G02*
X119970000Y-127924900I0J250100D01*
G01*
X119970000Y-127400100D01*
G75*
G02*
X120220100Y-127150000I250100J0D01*
G01*
X121119900Y-127150000D01*
G75*
G02*
X121370000Y-127400100I0J-250100D01*
G01*
X121370000Y-127924900D01*
G75*
G02*
X121119900Y-128175000I-250100J0D01*
G01*
G37*
G36*
G01*
X121119900Y-126350000D02*
X120220100Y-126350000D01*
G75*
G02*
X119970000Y-126099900I0J250100D01*
G01*
X119970000Y-125575100D01*
G75*
G02*
X120220100Y-125325000I250100J0D01*
G01*
X121119900Y-125325000D01*
G75*
G02*
X121370000Y-125575100I0J-250100D01*
G01*
X121370000Y-126099900D01*
G75*
G02*
X121119900Y-126350000I-250100J0D01*
G01*
G37*
G36*
G01*
X121295250Y-125850000D02*
X120044750Y-125850000D01*
G75*
G02*
X119795000Y-125600250I0J249750D01*
G01*
X119795000Y-124974750D01*
G75*
G02*
X120044750Y-124725000I249750J0D01*
G01*
X121295250Y-124725000D01*
G75*
G02*
X121545000Y-124974750I0J-249750D01*
G01*
X121545000Y-125600250D01*
G75*
G02*
X121295250Y-125850000I-249750J0D01*
G01*
G37*
G36*
G01*
X121295250Y-128775000D02*
X120044750Y-128775000D01*
G75*
G02*
X119795000Y-128525250I0J249750D01*
G01*
X119795000Y-127899750D01*
G75*
G02*
X120044750Y-127650000I249750J0D01*
G01*
X121295250Y-127650000D01*
G75*
G02*
X121545000Y-127899750I0J-249750D01*
G01*
X121545000Y-128525250D01*
G75*
G02*
X121295250Y-128775000I-249750J0D01*
G01*
G37*
%TD*%
%TO.C,R1*%
G36*
G01*
X123619900Y-128175000D02*
X122720100Y-128175000D01*
G75*
G02*
X122470000Y-127924900I0J250100D01*
G01*
X122470000Y-127400100D01*
G75*
G02*
X122720100Y-127150000I250100J0D01*
G01*
X123619900Y-127150000D01*
G75*
G02*
X123870000Y-127400100I0J-250100D01*
G01*
X123870000Y-127924900D01*
G75*
G02*
X123619900Y-128175000I-250100J0D01*
G01*
G37*
G36*
G01*
X123619900Y-126350000D02*
X122720100Y-126350000D01*
G75*
G02*
X122470000Y-126099900I0J250100D01*
G01*
X122470000Y-125575100D01*
G75*
G02*
X122720100Y-125325000I250100J0D01*
G01*
X123619900Y-125325000D01*
G75*
G02*
X123870000Y-125575100I0J-250100D01*
G01*
X123870000Y-126099900D01*
G75*
G02*
X123619900Y-126350000I-250100J0D01*
G01*
G37*
G36*
G01*
X123795250Y-125850000D02*
X122544750Y-125850000D01*
G75*
G02*
X122295000Y-125600250I0J249750D01*
G01*
X122295000Y-124974750D01*
G75*
G02*
X122544750Y-124725000I249750J0D01*
G01*
X123795250Y-124725000D01*
G75*
G02*
X124045000Y-124974750I0J-249750D01*
G01*
X124045000Y-125600250D01*
G75*
G02*
X123795250Y-125850000I-249750J0D01*
G01*
G37*
G36*
G01*
X123795250Y-128775000D02*
X122544750Y-128775000D01*
G75*
G02*
X122295000Y-128525250I0J249750D01*
G01*
X122295000Y-127899750D01*
G75*
G02*
X122544750Y-127650000I249750J0D01*
G01*
X123795250Y-127650000D01*
G75*
G02*
X124045000Y-127899750I0J-249750D01*
G01*
X124045000Y-128525250D01*
G75*
G02*
X123795250Y-128775000I-249750J0D01*
G01*
G37*
%TD*%
%TO.C,C1*%
G36*
G01*
X127562500Y-119750100D02*
X127562500Y-120649900D01*
G75*
G02*
X127312400Y-120900000I-250100J0D01*
G01*
X126787600Y-120900000D01*
G75*
G02*
X126537500Y-120649900I0J250100D01*
G01*
X126537500Y-119750100D01*
G75*
G02*
X126787600Y-119500000I250100J0D01*
G01*
X127312400Y-119500000D01*
G75*
G02*
X127562500Y-119750100I0J-250100D01*
G01*
G37*
G36*
G01*
X125737500Y-119750100D02*
X125737500Y-120649900D01*
G75*
G02*
X125487400Y-120900000I-250100J0D01*
G01*
X124962600Y-120900000D01*
G75*
G02*
X124712500Y-120649900I0J250100D01*
G01*
X124712500Y-119750100D01*
G75*
G02*
X124962600Y-119500000I250100J0D01*
G01*
X125487400Y-119500000D01*
G75*
G02*
X125737500Y-119750100I0J-250100D01*
G01*
G37*
G36*
G01*
X125237500Y-119574750D02*
X125237500Y-120825250D01*
G75*
G02*
X124987750Y-121075000I-249750J0D01*
G01*
X124362250Y-121075000D01*
G75*
G02*
X124112500Y-120825250I0J249750D01*
G01*
X124112500Y-119574750D01*
G75*
G02*
X124362250Y-119325000I249750J0D01*
G01*
X124987750Y-119325000D01*
G75*
G02*
X125237500Y-119574750I0J-249750D01*
G01*
G37*
G36*
G01*
X128162500Y-119574750D02*
X128162500Y-120825250D01*
G75*
G02*
X127912750Y-121075000I-249750J0D01*
G01*
X127287250Y-121075000D01*
G75*
G02*
X127037500Y-120825250I0J249750D01*
G01*
X127037500Y-119574750D01*
G75*
G02*
X127287250Y-119325000I249750J0D01*
G01*
X127912750Y-119325000D01*
G75*
G02*
X128162500Y-119574750I0J-249750D01*
G01*
G37*
%TD*%
D19*
%TO.C,J1*%
X125745000Y-122900000D03*
D20*
X123205000Y-122900000D03*
X120665000Y-122900000D03*
X118125000Y-122900000D03*
X115585000Y-122900000D03*
X113045000Y-122900000D03*
%TD*%
D21*
%TO.C,J2*%
X126155000Y-113400000D03*
D22*
X122040000Y-115800000D03*
X122040000Y-111000000D03*
D23*
X126790000Y-109080000D03*
X126790000Y-117720000D03*
D24*
X122620000Y-109080000D03*
X122620000Y-117720000D03*
D25*
X122040000Y-113150000D03*
X122040000Y-113650000D03*
X122040000Y-112650000D03*
X122040000Y-114150000D03*
X122040000Y-112150000D03*
X122040000Y-114650000D03*
X122040000Y-111650000D03*
X122040000Y-115150000D03*
D22*
X122040000Y-110200000D03*
X122040000Y-116600000D03*
%TD*%
M02*
