%TF.GenerationSoftware,KiCad,Pcbnew,(5.1.10-1-10_14)*%
%TF.CreationDate,2021-05-11T14:24:32+01:00*%
%TF.ProjectId,Generic,47656e65-7269-4632-9e6b-696361645f70,3*%
%TF.SameCoordinates,Original*%
%TF.FileFunction,Legend,Bot*%
%TF.FilePolarity,Positive*%
%FSLAX46Y46*%
G04 Gerber Fmt 4.6, Leading zero omitted, Abs format (unit mm)*
G04 Created by KiCad (PCBNEW (5.1.10-1-10_14)) date 2021-05-11 14:24:32*
%MOMM*%
%LPD*%
G01*
G04 APERTURE LIST*
%ADD10C,0.150000*%
%ADD11C,0.120000*%
%ADD12C,0.100000*%
G04 APERTURE END LIST*
D10*
X123407142Y-120735714D02*
X123216666Y-121402380D01*
X123026190Y-120926190D01*
X122835714Y-121402380D01*
X122645238Y-120735714D01*
X122359523Y-120735714D02*
X122169047Y-121402380D01*
X121978571Y-120926190D01*
X121788095Y-121402380D01*
X121597619Y-120735714D01*
X121311904Y-120735714D02*
X121121428Y-121402380D01*
X120930952Y-120926190D01*
X120740476Y-121402380D01*
X120550000Y-120735714D01*
X120169047Y-121307142D02*
X120121428Y-121354761D01*
X120169047Y-121402380D01*
X120216666Y-121354761D01*
X120169047Y-121307142D01*
X120169047Y-121402380D01*
X119692857Y-121402380D02*
X119692857Y-120735714D01*
X119692857Y-120830952D02*
X119645238Y-120783333D01*
X119550000Y-120735714D01*
X119407142Y-120735714D01*
X119311904Y-120783333D01*
X119264285Y-120878571D01*
X119264285Y-121402380D01*
X119264285Y-120878571D02*
X119216666Y-120783333D01*
X119121428Y-120735714D01*
X118978571Y-120735714D01*
X118883333Y-120783333D01*
X118835714Y-120878571D01*
X118835714Y-121402380D01*
X117978571Y-121354761D02*
X118073809Y-121402380D01*
X118264285Y-121402380D01*
X118359523Y-121354761D01*
X118407142Y-121259523D01*
X118407142Y-120878571D01*
X118359523Y-120783333D01*
X118264285Y-120735714D01*
X118073809Y-120735714D01*
X117978571Y-120783333D01*
X117930952Y-120878571D01*
X117930952Y-120973809D01*
X118407142Y-121069047D01*
X117502380Y-121307142D02*
X117454761Y-121354761D01*
X117502380Y-121402380D01*
X117550000Y-121354761D01*
X117502380Y-121307142D01*
X117502380Y-121402380D01*
X116597619Y-120735714D02*
X116597619Y-121402380D01*
X117026190Y-120735714D02*
X117026190Y-121259523D01*
X116978571Y-121354761D01*
X116883333Y-121402380D01*
X116740476Y-121402380D01*
X116645238Y-121354761D01*
X116597619Y-121307142D01*
X116121428Y-121402380D02*
X116121428Y-120402380D01*
X116026190Y-121021428D02*
X115740476Y-121402380D01*
X115740476Y-120735714D02*
X116121428Y-121116666D01*
X112309523Y-117452380D02*
X111976190Y-118452380D01*
X111642857Y-117452380D01*
X111404761Y-117452380D02*
X110785714Y-117452380D01*
X111119047Y-117833333D01*
X110976190Y-117833333D01*
X110880952Y-117880952D01*
X110833333Y-117928571D01*
X110785714Y-118023809D01*
X110785714Y-118261904D01*
X110833333Y-118357142D01*
X110880952Y-118404761D01*
X110976190Y-118452380D01*
X111261904Y-118452380D01*
X111357142Y-118404761D01*
X111404761Y-118357142D01*
D11*
%TO.C,C2*%
X124490000Y-112146267D02*
X124490000Y-111853733D01*
X125510000Y-112146267D02*
X125510000Y-111853733D01*
%TO.C,R8*%
X112395276Y-104227500D02*
X112904724Y-104227500D01*
X112395276Y-105272500D02*
X112904724Y-105272500D01*
%TO.C,R7*%
X112904724Y-102822500D02*
X112395276Y-102822500D01*
X112904724Y-101777500D02*
X112395276Y-101777500D01*
%TO.C,Reg1*%
X128500000Y-109250000D02*
X128500000Y-101250000D01*
X128500000Y-101250000D02*
X119500000Y-101250000D01*
X119500000Y-101250000D02*
X119500000Y-109250000D01*
X119500000Y-109250000D02*
X128500000Y-109250000D01*
%TO.C,U2*%
X122985000Y-115640000D02*
X122985000Y-114915000D01*
X122985000Y-114915000D02*
X122260000Y-114915000D01*
X118765000Y-118410000D02*
X118765000Y-119135000D01*
X118765000Y-119135000D02*
X119490000Y-119135000D01*
X118765000Y-115640000D02*
X118765000Y-114915000D01*
X118765000Y-114915000D02*
X119490000Y-114915000D01*
X122985000Y-118410000D02*
X122985000Y-119135000D01*
%TO.C,C1*%
X112051248Y-119290000D02*
X113473752Y-119290000D01*
X112051248Y-121110000D02*
X113473752Y-121110000D01*
%TO.C,R6*%
X127127064Y-121110000D02*
X125672936Y-121110000D01*
X127127064Y-119290000D02*
X125672936Y-119290000D01*
%TO.C,J3*%
X110870000Y-129530000D02*
X112200000Y-129530000D01*
X110870000Y-128200000D02*
X110870000Y-129530000D01*
X110870000Y-126930000D02*
X113530000Y-126930000D01*
X113530000Y-126930000D02*
X113530000Y-124330000D01*
X110870000Y-126930000D02*
X110870000Y-124330000D01*
X110870000Y-124330000D02*
X113530000Y-124330000D01*
%TO.C,R5*%
X125590000Y-127477064D02*
X125590000Y-126022936D01*
X127410000Y-127477064D02*
X127410000Y-126022936D01*
%TO.C,R4*%
X122320000Y-127477064D02*
X122320000Y-126022936D01*
X124140000Y-127477064D02*
X124140000Y-126022936D01*
%TO.C,R3*%
X119820000Y-127477064D02*
X119820000Y-126022936D01*
X121640000Y-127477064D02*
X121640000Y-126022936D01*
%TO.C,R2*%
X117320000Y-127477064D02*
X117320000Y-126022936D01*
X119140000Y-127477064D02*
X119140000Y-126022936D01*
%TO.C,R1*%
X114820000Y-127477064D02*
X114820000Y-126022936D01*
X116640000Y-127477064D02*
X116640000Y-126022936D01*
%TO.C,J2*%
X109310000Y-115670000D02*
X109310000Y-106730000D01*
X116660000Y-106730000D02*
X109310000Y-106730000D01*
X116660000Y-115670000D02*
X116660000Y-106730000D01*
X109310000Y-115670000D02*
X116660000Y-115670000D01*
%TO.C,C2*%
D12*
X126428571Y-111916666D02*
X126452380Y-111892857D01*
X126476190Y-111821428D01*
X126476190Y-111773809D01*
X126452380Y-111702380D01*
X126404761Y-111654761D01*
X126357142Y-111630952D01*
X126261904Y-111607142D01*
X126190476Y-111607142D01*
X126095238Y-111630952D01*
X126047619Y-111654761D01*
X126000000Y-111702380D01*
X125976190Y-111773809D01*
X125976190Y-111821428D01*
X126000000Y-111892857D01*
X126023809Y-111916666D01*
X126023809Y-112107142D02*
X126000000Y-112130952D01*
X125976190Y-112178571D01*
X125976190Y-112297619D01*
X126000000Y-112345238D01*
X126023809Y-112369047D01*
X126071428Y-112392857D01*
X126119047Y-112392857D01*
X126190476Y-112369047D01*
X126476190Y-112083333D01*
X126476190Y-112392857D01*
%TO.C,R8*%
X115126190Y-104616666D02*
X114888095Y-104450000D01*
X115126190Y-104330952D02*
X114626190Y-104330952D01*
X114626190Y-104521428D01*
X114650000Y-104569047D01*
X114673809Y-104592857D01*
X114721428Y-104616666D01*
X114792857Y-104616666D01*
X114840476Y-104592857D01*
X114864285Y-104569047D01*
X114888095Y-104521428D01*
X114888095Y-104330952D01*
X114840476Y-104902380D02*
X114816666Y-104854761D01*
X114792857Y-104830952D01*
X114745238Y-104807142D01*
X114721428Y-104807142D01*
X114673809Y-104830952D01*
X114650000Y-104854761D01*
X114626190Y-104902380D01*
X114626190Y-104997619D01*
X114650000Y-105045238D01*
X114673809Y-105069047D01*
X114721428Y-105092857D01*
X114745238Y-105092857D01*
X114792857Y-105069047D01*
X114816666Y-105045238D01*
X114840476Y-104997619D01*
X114840476Y-104902380D01*
X114864285Y-104854761D01*
X114888095Y-104830952D01*
X114935714Y-104807142D01*
X115030952Y-104807142D01*
X115078571Y-104830952D01*
X115102380Y-104854761D01*
X115126190Y-104902380D01*
X115126190Y-104997619D01*
X115102380Y-105045238D01*
X115078571Y-105069047D01*
X115030952Y-105092857D01*
X114935714Y-105092857D01*
X114888095Y-105069047D01*
X114864285Y-105045238D01*
X114840476Y-104997619D01*
%TO.C,R7*%
X115126190Y-102216666D02*
X114888095Y-102050000D01*
X115126190Y-101930952D02*
X114626190Y-101930952D01*
X114626190Y-102121428D01*
X114650000Y-102169047D01*
X114673809Y-102192857D01*
X114721428Y-102216666D01*
X114792857Y-102216666D01*
X114840476Y-102192857D01*
X114864285Y-102169047D01*
X114888095Y-102121428D01*
X114888095Y-101930952D01*
X114626190Y-102383333D02*
X114626190Y-102716666D01*
X115126190Y-102502380D01*
%TO.C,Reg1*%
D10*
X119002380Y-102052380D02*
X118526190Y-101719047D01*
X119002380Y-101480952D02*
X118002380Y-101480952D01*
X118002380Y-101861904D01*
X118050000Y-101957142D01*
X118097619Y-102004761D01*
X118192857Y-102052380D01*
X118335714Y-102052380D01*
X118430952Y-102004761D01*
X118478571Y-101957142D01*
X118526190Y-101861904D01*
X118526190Y-101480952D01*
X118954761Y-102861904D02*
X119002380Y-102766666D01*
X119002380Y-102576190D01*
X118954761Y-102480952D01*
X118859523Y-102433333D01*
X118478571Y-102433333D01*
X118383333Y-102480952D01*
X118335714Y-102576190D01*
X118335714Y-102766666D01*
X118383333Y-102861904D01*
X118478571Y-102909523D01*
X118573809Y-102909523D01*
X118669047Y-102433333D01*
X118335714Y-103766666D02*
X119145238Y-103766666D01*
X119240476Y-103719047D01*
X119288095Y-103671428D01*
X119335714Y-103576190D01*
X119335714Y-103433333D01*
X119288095Y-103338095D01*
X118954761Y-103766666D02*
X119002380Y-103671428D01*
X119002380Y-103480952D01*
X118954761Y-103385714D01*
X118907142Y-103338095D01*
X118811904Y-103290476D01*
X118526190Y-103290476D01*
X118430952Y-103338095D01*
X118383333Y-103385714D01*
X118335714Y-103480952D01*
X118335714Y-103671428D01*
X118383333Y-103766666D01*
X119002380Y-104766666D02*
X119002380Y-104195238D01*
X119002380Y-104480952D02*
X118002380Y-104480952D01*
X118145238Y-104385714D01*
X118240476Y-104290476D01*
X118288095Y-104195238D01*
%TO.C,U2*%
X123627380Y-116263095D02*
X124436904Y-116263095D01*
X124532142Y-116310714D01*
X124579761Y-116358333D01*
X124627380Y-116453571D01*
X124627380Y-116644047D01*
X124579761Y-116739285D01*
X124532142Y-116786904D01*
X124436904Y-116834523D01*
X123627380Y-116834523D01*
X123722619Y-117263095D02*
X123675000Y-117310714D01*
X123627380Y-117405952D01*
X123627380Y-117644047D01*
X123675000Y-117739285D01*
X123722619Y-117786904D01*
X123817857Y-117834523D01*
X123913095Y-117834523D01*
X124055952Y-117786904D01*
X124627380Y-117215476D01*
X124627380Y-117834523D01*
%TO.C,C1*%
X112866666Y-120557142D02*
X112914285Y-120604761D01*
X113057142Y-120652380D01*
X113152380Y-120652380D01*
X113295238Y-120604761D01*
X113390476Y-120509523D01*
X113438095Y-120414285D01*
X113485714Y-120223809D01*
X113485714Y-120080952D01*
X113438095Y-119890476D01*
X113390476Y-119795238D01*
X113295238Y-119700000D01*
X113152380Y-119652380D01*
X113057142Y-119652380D01*
X112914285Y-119700000D01*
X112866666Y-119747619D01*
X111914285Y-120652380D02*
X112485714Y-120652380D01*
X112200000Y-120652380D02*
X112200000Y-119652380D01*
X112295238Y-119795238D01*
X112390476Y-119890476D01*
X112485714Y-119938095D01*
%TO.C,R6*%
X126616666Y-120652380D02*
X126950000Y-120176190D01*
X127188095Y-120652380D02*
X127188095Y-119652380D01*
X126807142Y-119652380D01*
X126711904Y-119700000D01*
X126664285Y-119747619D01*
X126616666Y-119842857D01*
X126616666Y-119985714D01*
X126664285Y-120080952D01*
X126711904Y-120128571D01*
X126807142Y-120176190D01*
X127188095Y-120176190D01*
X125759523Y-119652380D02*
X125950000Y-119652380D01*
X126045238Y-119700000D01*
X126092857Y-119747619D01*
X126188095Y-119890476D01*
X126235714Y-120080952D01*
X126235714Y-120461904D01*
X126188095Y-120557142D01*
X126140476Y-120604761D01*
X126045238Y-120652380D01*
X125854761Y-120652380D01*
X125759523Y-120604761D01*
X125711904Y-120557142D01*
X125664285Y-120461904D01*
X125664285Y-120223809D01*
X125711904Y-120128571D01*
X125759523Y-120080952D01*
X125854761Y-120033333D01*
X126045238Y-120033333D01*
X126140476Y-120080952D01*
X126188095Y-120128571D01*
X126235714Y-120223809D01*
%TO.C,J3*%
X111833333Y-122952380D02*
X111833333Y-123666666D01*
X111880952Y-123809523D01*
X111976190Y-123904761D01*
X112119047Y-123952380D01*
X112214285Y-123952380D01*
X111452380Y-122952380D02*
X110833333Y-122952380D01*
X111166666Y-123333333D01*
X111023809Y-123333333D01*
X110928571Y-123380952D01*
X110880952Y-123428571D01*
X110833333Y-123523809D01*
X110833333Y-123761904D01*
X110880952Y-123857142D01*
X110928571Y-123904761D01*
X111023809Y-123952380D01*
X111309523Y-123952380D01*
X111404761Y-123904761D01*
X111452380Y-123857142D01*
%TO.C,R5*%
X127052380Y-126633333D02*
X126576190Y-126300000D01*
X127052380Y-126061904D02*
X126052380Y-126061904D01*
X126052380Y-126442857D01*
X126100000Y-126538095D01*
X126147619Y-126585714D01*
X126242857Y-126633333D01*
X126385714Y-126633333D01*
X126480952Y-126585714D01*
X126528571Y-126538095D01*
X126576190Y-126442857D01*
X126576190Y-126061904D01*
X126052380Y-127538095D02*
X126052380Y-127061904D01*
X126528571Y-127014285D01*
X126480952Y-127061904D01*
X126433333Y-127157142D01*
X126433333Y-127395238D01*
X126480952Y-127490476D01*
X126528571Y-127538095D01*
X126623809Y-127585714D01*
X126861904Y-127585714D01*
X126957142Y-127538095D01*
X127004761Y-127490476D01*
X127052380Y-127395238D01*
X127052380Y-127157142D01*
X127004761Y-127061904D01*
X126957142Y-127014285D01*
%TO.C,R4*%
X123682380Y-126583333D02*
X123206190Y-126250000D01*
X123682380Y-126011904D02*
X122682380Y-126011904D01*
X122682380Y-126392857D01*
X122730000Y-126488095D01*
X122777619Y-126535714D01*
X122872857Y-126583333D01*
X123015714Y-126583333D01*
X123110952Y-126535714D01*
X123158571Y-126488095D01*
X123206190Y-126392857D01*
X123206190Y-126011904D01*
X123015714Y-127440476D02*
X123682380Y-127440476D01*
X122634761Y-127202380D02*
X123349047Y-126964285D01*
X123349047Y-127583333D01*
%TO.C,R3*%
X121182380Y-126533333D02*
X120706190Y-126200000D01*
X121182380Y-125961904D02*
X120182380Y-125961904D01*
X120182380Y-126342857D01*
X120230000Y-126438095D01*
X120277619Y-126485714D01*
X120372857Y-126533333D01*
X120515714Y-126533333D01*
X120610952Y-126485714D01*
X120658571Y-126438095D01*
X120706190Y-126342857D01*
X120706190Y-125961904D01*
X120182380Y-126866666D02*
X120182380Y-127485714D01*
X120563333Y-127152380D01*
X120563333Y-127295238D01*
X120610952Y-127390476D01*
X120658571Y-127438095D01*
X120753809Y-127485714D01*
X120991904Y-127485714D01*
X121087142Y-127438095D01*
X121134761Y-127390476D01*
X121182380Y-127295238D01*
X121182380Y-127009523D01*
X121134761Y-126914285D01*
X121087142Y-126866666D01*
%TO.C,R2*%
X118682380Y-126533333D02*
X118206190Y-126200000D01*
X118682380Y-125961904D02*
X117682380Y-125961904D01*
X117682380Y-126342857D01*
X117730000Y-126438095D01*
X117777619Y-126485714D01*
X117872857Y-126533333D01*
X118015714Y-126533333D01*
X118110952Y-126485714D01*
X118158571Y-126438095D01*
X118206190Y-126342857D01*
X118206190Y-125961904D01*
X117777619Y-126914285D02*
X117730000Y-126961904D01*
X117682380Y-127057142D01*
X117682380Y-127295238D01*
X117730000Y-127390476D01*
X117777619Y-127438095D01*
X117872857Y-127485714D01*
X117968095Y-127485714D01*
X118110952Y-127438095D01*
X118682380Y-126866666D01*
X118682380Y-127485714D01*
%TO.C,R1*%
X116182380Y-126533333D02*
X115706190Y-126200000D01*
X116182380Y-125961904D02*
X115182380Y-125961904D01*
X115182380Y-126342857D01*
X115230000Y-126438095D01*
X115277619Y-126485714D01*
X115372857Y-126533333D01*
X115515714Y-126533333D01*
X115610952Y-126485714D01*
X115658571Y-126438095D01*
X115706190Y-126342857D01*
X115706190Y-125961904D01*
X116182380Y-127485714D02*
X116182380Y-126914285D01*
X116182380Y-127200000D02*
X115182380Y-127200000D01*
X115325238Y-127104761D01*
X115420476Y-127009523D01*
X115468095Y-126914285D01*
%TO.C,J2*%
X113452380Y-116566666D02*
X114166666Y-116566666D01*
X114309523Y-116519047D01*
X114404761Y-116423809D01*
X114452380Y-116280952D01*
X114452380Y-116185714D01*
X113547619Y-116995238D02*
X113500000Y-117042857D01*
X113452380Y-117138095D01*
X113452380Y-117376190D01*
X113500000Y-117471428D01*
X113547619Y-117519047D01*
X113642857Y-117566666D01*
X113738095Y-117566666D01*
X113880952Y-117519047D01*
X114452380Y-116947619D01*
X114452380Y-117566666D01*
%TD*%
M02*
