%TF.GenerationSoftware,KiCad,Pcbnew,(5.1.9-0-10_14)*%
%TF.CreationDate,2021-03-08T07:54:43+00:00*%
%TF.ProjectId,Generic,47656e65-7269-4632-9e6b-696361645f70,rev?*%
%TF.SameCoordinates,Original*%
%TF.FileFunction,Copper,L1,Top*%
%TF.FilePolarity,Positive*%
%FSLAX46Y46*%
G04 Gerber Fmt 4.6, Leading zero omitted, Abs format (unit mm)*
G04 Created by KiCad (PCBNEW (5.1.9-0-10_14)) date 2021-03-08 07:54:43*
%MOMM*%
%LPD*%
G01*
G04 APERTURE LIST*
%TA.AperFunction,NonConductor*%
%ADD10C,0.300000*%
%TD*%
%TA.AperFunction,ComponentPad*%
%ADD11O,1.700000X1.700000*%
%TD*%
%TA.AperFunction,ComponentPad*%
%ADD12R,1.700000X1.700000*%
%TD*%
%TA.AperFunction,ComponentPad*%
%ADD13C,1.524000*%
%TD*%
%TA.AperFunction,ComponentPad*%
%ADD14R,1.524000X1.524000*%
%TD*%
%TA.AperFunction,ComponentPad*%
%ADD15C,2.000000*%
%TD*%
%TA.AperFunction,ComponentPad*%
%ADD16C,0.600000*%
%TD*%
%TA.AperFunction,SMDPad,CuDef*%
%ADD17R,2.000000X0.900000*%
%TD*%
%TA.AperFunction,SMDPad,CuDef*%
%ADD18R,0.900000X2.000000*%
%TD*%
%TA.AperFunction,SMDPad,CuDef*%
%ADD19R,5.000000X5.000000*%
%TD*%
%TA.AperFunction,ComponentPad*%
%ADD20O,1.700000X1.850000*%
%TD*%
%TA.AperFunction,ViaPad*%
%ADD21C,0.800000*%
%TD*%
%TA.AperFunction,Conductor*%
%ADD22C,0.250000*%
%TD*%
%TA.AperFunction,Conductor*%
%ADD23C,0.254000*%
%TD*%
%TA.AperFunction,Conductor*%
%ADD24C,0.100000*%
%TD*%
G04 APERTURE END LIST*
D10*
X117864285Y-123628571D02*
X118150000Y-124628571D01*
X118435714Y-123914285D01*
X118721428Y-124628571D01*
X119007142Y-123628571D01*
X119435714Y-123628571D02*
X119721428Y-124628571D01*
X120007142Y-123914285D01*
X120292857Y-124628571D01*
X120578571Y-123628571D01*
X121007142Y-123628571D02*
X121292857Y-124628571D01*
X121578571Y-123914285D01*
X121864285Y-124628571D01*
X122150000Y-123628571D01*
X122721428Y-124485714D02*
X122792857Y-124557142D01*
X122721428Y-124628571D01*
X122650000Y-124557142D01*
X122721428Y-124485714D01*
X122721428Y-124628571D01*
X123435714Y-124628571D02*
X123435714Y-123628571D01*
X123435714Y-123771428D02*
X123507142Y-123700000D01*
X123650000Y-123628571D01*
X123864285Y-123628571D01*
X124007142Y-123700000D01*
X124078571Y-123842857D01*
X124078571Y-124628571D01*
X124078571Y-123842857D02*
X124150000Y-123700000D01*
X124292857Y-123628571D01*
X124507142Y-123628571D01*
X124650000Y-123700000D01*
X124721428Y-123842857D01*
X124721428Y-124628571D01*
X126007142Y-124557142D02*
X125864285Y-124628571D01*
X125578571Y-124628571D01*
X125435714Y-124557142D01*
X125364285Y-124414285D01*
X125364285Y-123842857D01*
X125435714Y-123700000D01*
X125578571Y-123628571D01*
X125864285Y-123628571D01*
X126007142Y-123700000D01*
X126078571Y-123842857D01*
X126078571Y-123985714D01*
X125364285Y-124128571D01*
X126721428Y-124485714D02*
X126792857Y-124557142D01*
X126721428Y-124628571D01*
X126650000Y-124557142D01*
X126721428Y-124485714D01*
X126721428Y-124628571D01*
X128078571Y-123628571D02*
X128078571Y-124628571D01*
X127435714Y-123628571D02*
X127435714Y-124414285D01*
X127507142Y-124557142D01*
X127650000Y-124628571D01*
X127864285Y-124628571D01*
X128007142Y-124557142D01*
X128078571Y-124485714D01*
X128792857Y-124628571D02*
X128792857Y-123128571D01*
X128935714Y-124057142D02*
X129364285Y-124628571D01*
X129364285Y-123628571D02*
X128792857Y-124200000D01*
D11*
%TO.P,J3,2*%
%TO.N,VBUS*%
X114700000Y-123160000D03*
D12*
%TO.P,J3,1*%
%TO.N,GND*%
X114700000Y-125700000D03*
%TD*%
D13*
%TO.P,M1,4*%
%TO.N,+3V3*%
X122560000Y-111150000D03*
D14*
%TO.P,M1,3*%
%TO.N,GND*%
X125100000Y-111150000D03*
D13*
%TO.P,M1,2*%
%TO.N,VBUS*%
X127640000Y-111150000D03*
%TD*%
D15*
%TO.P,J2,S1*%
%TO.N,GND*%
X114390000Y-104375000D03*
X114390000Y-113025000D03*
X118570000Y-104375000D03*
X118570000Y-113025000D03*
D16*
X118090000Y-105810000D03*
X118090000Y-111590000D03*
%TD*%
D17*
%TO.P,U1,38*%
%TO.N,GND*%
X130500000Y-99795000D03*
%TO.P,U1,37*%
%TO.N,Net-(U1-Pad37)*%
X130500000Y-101065000D03*
%TO.P,U1,36*%
%TO.N,Net-(U1-Pad36)*%
X130500000Y-102335000D03*
%TO.P,U1,35*%
%TO.N,O*%
X130500000Y-103605000D03*
%TO.P,U1,34*%
%TO.N,I*%
X130500000Y-104875000D03*
%TO.P,U1,33*%
%TO.N,Net-(U1-Pad33)*%
X130500000Y-106145000D03*
%TO.P,U1,32*%
%TO.N,Net-(U1-Pad32)*%
X130500000Y-107415000D03*
%TO.P,U1,31*%
%TO.N,Net-(U1-Pad31)*%
X130500000Y-108685000D03*
%TO.P,U1,30*%
%TO.N,Net-(U1-Pad30)*%
X130500000Y-109955000D03*
%TO.P,U1,29*%
%TO.N,CBUS1*%
X130500000Y-111225000D03*
%TO.P,U1,28*%
%TO.N,CBUS0*%
X130500000Y-112495000D03*
%TO.P,U1,27*%
%TO.N,IO4*%
X130500000Y-113765000D03*
%TO.P,U1,26*%
%TO.N,IO5*%
X130500000Y-115035000D03*
%TO.P,U1,25*%
%TO.N,CBUS3*%
X130500000Y-116305000D03*
D18*
%TO.P,U1,24*%
%TO.N,IO3*%
X127715000Y-117305000D03*
%TO.P,U1,23*%
%TO.N,IO2*%
X126445000Y-117305000D03*
%TO.P,U1,22*%
%TO.N,Net-(U1-Pad22)*%
X125175000Y-117305000D03*
%TO.P,U1,21*%
%TO.N,Net-(U1-Pad21)*%
X123905000Y-117305000D03*
%TO.P,U1,20*%
%TO.N,Net-(U1-Pad20)*%
X122635000Y-117305000D03*
%TO.P,U1,19*%
%TO.N,Net-(U1-Pad19)*%
X121365000Y-117305000D03*
%TO.P,U1,18*%
%TO.N,Net-(U1-Pad18)*%
X120095000Y-117305000D03*
%TO.P,U1,17*%
%TO.N,Net-(U1-Pad17)*%
X118825000Y-117305000D03*
%TO.P,U1,16*%
%TO.N,IO1*%
X117555000Y-117305000D03*
%TO.P,U1,15*%
%TO.N,GND*%
X116285000Y-117305000D03*
D17*
%TO.P,U1,14*%
%TO.N,Net-(U1-Pad14)*%
X113500000Y-116305000D03*
%TO.P,U1,13*%
%TO.N,CBUS2*%
X113500000Y-115035000D03*
%TO.P,U1,12*%
%TO.N,GND*%
X113500000Y-113765000D03*
%TO.P,U1,11*%
X113500000Y-112495000D03*
%TO.P,U1,10*%
%TO.N,Net-(U1-Pad10)*%
X113500000Y-111225000D03*
%TO.P,U1,9*%
%TO.N,Net-(U1-Pad9)*%
X113500000Y-109955000D03*
%TO.P,U1,8*%
%TO.N,Net-(U1-Pad8)*%
X113500000Y-108685000D03*
%TO.P,U1,7*%
%TO.N,Net-(U1-Pad7)*%
X113500000Y-107415000D03*
%TO.P,U1,6*%
%TO.N,Net-(U1-Pad6)*%
X113500000Y-106145000D03*
%TO.P,U1,5*%
%TO.N,GND*%
X113500000Y-104875000D03*
%TO.P,U1,4*%
X113500000Y-103605000D03*
%TO.P,U1,3*%
%TO.N,EN*%
X113500000Y-102335000D03*
%TO.P,U1,2*%
%TO.N,+3V3*%
X113500000Y-101065000D03*
%TO.P,U1,1*%
%TO.N,GND*%
X113500000Y-99795000D03*
D19*
%TO.P,U1,39*%
X121000000Y-107295000D03*
%TD*%
D20*
%TO.P,J1,6*%
%TO.N,IO5*%
X128500000Y-120400000D03*
%TO.P,J1,5*%
%TO.N,IO4*%
X126000000Y-120400000D03*
%TO.P,J1,4*%
%TO.N,IO3*%
X123500000Y-120400000D03*
%TO.P,J1,3*%
%TO.N,IO2*%
X121000000Y-120400000D03*
%TO.P,J1,2*%
%TO.N,IO1*%
X118500000Y-120400000D03*
%TO.P,J1,1*%
%TO.N,GND*%
%TA.AperFunction,ComponentPad*%
G36*
G01*
X115150000Y-121075000D02*
X115150000Y-119725000D01*
G75*
G02*
X115400000Y-119475000I250000J0D01*
G01*
X116600000Y-119475000D01*
G75*
G02*
X116850000Y-119725000I0J-250000D01*
G01*
X116850000Y-121075000D01*
G75*
G02*
X116600000Y-121325000I-250000J0D01*
G01*
X115400000Y-121325000D01*
G75*
G02*
X115150000Y-121075000I0J250000D01*
G01*
G37*
%TD.AperFunction*%
%TD*%
D21*
%TO.N,D+*%
X120581010Y-103693670D03*
X119952424Y-113830548D03*
%TO.N,GND*%
X125800000Y-113600000D03*
X128650000Y-99850000D03*
X115150000Y-99800000D03*
%TO.N,D-*%
X126628251Y-104652932D03*
X123664831Y-103744605D03*
X121689663Y-103224624D03*
%TO.N,+3V3*%
X126750000Y-100900000D03*
X127383573Y-103328155D03*
X116150000Y-123950000D03*
%TO.N,VBUS*%
X120747989Y-111100000D03*
%TO.N,O*%
X119124422Y-115254989D03*
%TO.N,I*%
X127739571Y-115630549D03*
%TO.N,EN*%
X128450000Y-101850000D03*
X127882959Y-106132959D03*
X123320237Y-112280083D03*
X126633851Y-115704996D03*
X128355431Y-103563773D03*
%TO.N,CBUS3*%
X129864808Y-118040128D03*
%TO.N,CBUS0*%
X128910975Y-113200756D03*
%TO.N,CBUS1*%
X127950000Y-113650000D03*
%TO.N,CBUS2*%
X116550000Y-114804974D03*
%TD*%
D22*
%TO.N,D+*%
X119487328Y-102599988D02*
X120581010Y-103693670D01*
X117747599Y-102599988D02*
X119487328Y-102599988D01*
X116794988Y-109369141D02*
X116794988Y-103552599D01*
X120200000Y-112200000D02*
X119862076Y-111862076D01*
X119287924Y-111862076D02*
X116794988Y-109369141D01*
X116794988Y-103552599D02*
X117747599Y-102599988D01*
X119862076Y-111862076D02*
X119287924Y-111862076D01*
X120200000Y-113582972D02*
X119952424Y-113830548D01*
X120200000Y-112200000D02*
X120200000Y-113582972D01*
%TO.N,GND*%
X116285000Y-120115000D02*
X116000000Y-120400000D01*
X116285000Y-117305000D02*
X116285000Y-120115000D01*
X113890000Y-104875000D02*
X114390000Y-104375000D01*
X113500000Y-104875000D02*
X113890000Y-104875000D01*
X114030000Y-113025000D02*
X113500000Y-112495000D01*
X114390000Y-113025000D02*
X114030000Y-113025000D01*
X113650000Y-113765000D02*
X114390000Y-113025000D01*
X113500000Y-113765000D02*
X113650000Y-113765000D01*
X113620000Y-103605000D02*
X114390000Y-104375000D01*
X113500000Y-103605000D02*
X113620000Y-103605000D01*
X125100000Y-112900000D02*
X125100000Y-111150000D01*
X125800000Y-113600000D02*
X125100000Y-112900000D01*
X121000000Y-107295000D02*
X121000000Y-106805000D01*
X121000000Y-106805000D02*
X118570000Y-104375000D01*
X115162531Y-126312531D02*
X114700000Y-125850000D01*
%TO.N,D-*%
X126628251Y-104652932D02*
X125719924Y-103744605D01*
X125719924Y-103744605D02*
X123664831Y-103744605D01*
X123664831Y-103744605D02*
X122209644Y-103744605D01*
X122209644Y-103744605D02*
X121689663Y-103224624D01*
%TO.N,+3V3*%
X122560000Y-111150000D02*
X122730002Y-111150000D01*
X127150009Y-106729993D02*
X127150009Y-105840589D01*
X127803264Y-105187334D02*
X127803264Y-104118530D01*
X127150009Y-105840589D02*
X127803264Y-105187334D01*
X127803264Y-104118530D02*
X127383573Y-103698839D01*
X127383573Y-103698839D02*
X127383573Y-103328155D01*
X122730002Y-111150000D02*
X127150009Y-106729993D01*
X125200000Y-102450000D02*
X126750000Y-100900000D01*
X123200000Y-102450000D02*
X125200000Y-102450000D01*
X122449967Y-101699967D02*
X123200000Y-102450000D01*
X115349967Y-101699967D02*
X122449967Y-101699967D01*
X114715000Y-101065000D02*
X115349967Y-101699967D01*
X113500000Y-101065000D02*
X114715000Y-101065000D01*
X114700011Y-121421009D02*
X116150000Y-122870998D01*
X122270001Y-115979999D02*
X115574999Y-115979999D01*
X115574999Y-115979999D02*
X115509999Y-116044999D01*
X122560000Y-115690000D02*
X122270001Y-115979999D01*
X122560000Y-111150000D02*
X122560000Y-115690000D01*
X115509999Y-118801810D02*
X114700011Y-119611798D01*
X114700011Y-119611798D02*
X114700011Y-121421009D01*
X116150000Y-122870998D02*
X116150000Y-123950000D01*
X115509999Y-116044999D02*
X115509999Y-118801810D01*
%TO.N,VBUS*%
X113850001Y-119825398D02*
X113850001Y-122310001D01*
X115059989Y-115858599D02*
X115059989Y-118615410D01*
X115059989Y-118615410D02*
X113850001Y-119825398D01*
X120747989Y-111100000D02*
X120747989Y-114152011D01*
X117821179Y-115529988D02*
X115370012Y-115529988D01*
X115370012Y-115529988D02*
X115075000Y-115825000D01*
X119604422Y-114555550D02*
X119578859Y-114529987D01*
X113850001Y-122310001D02*
X114700000Y-123160000D01*
X120344450Y-114555550D02*
X119604422Y-114555550D01*
X119578859Y-114529987D02*
X118821180Y-114529987D01*
X115075000Y-115825000D02*
X115075000Y-115843587D01*
X120747989Y-114152011D02*
X120344450Y-114555550D01*
X115075000Y-115843587D02*
X115059989Y-115858599D01*
X118821180Y-114529987D02*
X117821179Y-115529988D01*
%TO.N,IO5*%
X129250000Y-115035000D02*
X130500000Y-115035000D01*
X129139807Y-119760193D02*
X129139807Y-115145193D01*
X129139807Y-115145193D02*
X129250000Y-115035000D01*
X128500000Y-120400000D02*
X129139807Y-119760193D01*
%TO.N,IO4*%
X126000000Y-120400000D02*
X126655002Y-120400000D01*
X126655002Y-120400000D02*
X128689796Y-118365206D01*
X128689796Y-114810202D02*
X129734998Y-113765000D01*
X128689796Y-118365206D02*
X128689796Y-114810202D01*
X129734998Y-113765000D02*
X130500000Y-113765000D01*
%TO.N,IO3*%
X127715000Y-118555000D02*
X127715000Y-117305000D01*
X127120010Y-119149990D02*
X127715000Y-118555000D01*
X123500000Y-120400000D02*
X124750010Y-119149990D01*
X124750010Y-119149990D02*
X127120010Y-119149990D01*
%TO.N,IO2*%
X126300021Y-118699979D02*
X126445000Y-118555000D01*
X121000000Y-120400000D02*
X122700021Y-118699979D01*
X126445000Y-118555000D02*
X126445000Y-117305000D01*
X122700021Y-118699979D02*
X126300021Y-118699979D01*
%TO.N,IO1*%
X117555000Y-117305000D02*
X117555000Y-118555000D01*
X117555000Y-118555000D02*
X118500000Y-119500000D01*
X118500000Y-119500000D02*
X118500000Y-120400000D01*
%TO.N,O*%
X126280250Y-105377933D02*
X126377933Y-105377933D01*
X130500000Y-103605000D02*
X129428004Y-103605000D01*
X126976252Y-105377933D02*
X126280250Y-105377933D01*
X128398002Y-102574998D02*
X127111412Y-102574998D01*
X129428004Y-103605000D02*
X128398002Y-102574998D01*
X126539659Y-103927930D02*
X126976253Y-103927930D01*
X126976253Y-103927930D02*
X127353253Y-104304930D01*
X127353253Y-105000932D02*
X126976252Y-105377933D01*
X126539659Y-103146751D02*
X126539659Y-103927930D01*
X127353253Y-104304930D02*
X127353253Y-105000932D01*
X127111412Y-102574998D02*
X126539659Y-103146751D01*
X125372317Y-104469999D02*
X120277312Y-104469999D01*
X126280250Y-105377933D02*
X125372317Y-104469999D01*
X120277312Y-104469999D02*
X119856009Y-104048696D01*
X119856009Y-104048696D02*
X119856009Y-103700007D01*
X119856009Y-103700007D02*
X119206001Y-103049999D01*
X119206001Y-103049999D02*
X117933999Y-103049999D01*
X117244999Y-103738999D02*
X117244999Y-109125001D01*
X117244999Y-109125001D02*
X118394997Y-110274999D01*
X117933999Y-103049999D02*
X117244999Y-103738999D01*
X118394997Y-110274999D02*
X121098001Y-110274999D01*
X121098001Y-110274999D02*
X121472999Y-110649997D01*
X121031422Y-115254989D02*
X119124422Y-115254989D01*
X121204989Y-115254989D02*
X121031422Y-115254989D01*
X121472999Y-114986979D02*
X121204989Y-115254989D01*
X121472999Y-110649997D02*
X121472999Y-114986979D01*
%TO.N,I*%
X126675001Y-113775001D02*
X126675001Y-114565979D01*
X126675001Y-114565979D02*
X127739571Y-115630549D01*
X129174999Y-104950001D02*
X129174999Y-111225001D01*
X129174999Y-111225001D02*
X128786392Y-111613608D01*
X129250000Y-104875000D02*
X129174999Y-104950001D01*
X130500000Y-104875000D02*
X129250000Y-104875000D01*
X128786392Y-111613608D02*
X128786392Y-111663610D01*
X128786392Y-111663610D02*
X126675001Y-113775001D01*
%TO.N,EN*%
X113500000Y-102335000D02*
X117376176Y-102335000D01*
X117561199Y-102149978D02*
X121999978Y-102149978D01*
X117376176Y-102335000D02*
X117561199Y-102149978D01*
X124012832Y-103019604D02*
X124043228Y-103050000D01*
X121999978Y-102149978D02*
X122869604Y-103019604D01*
X122869604Y-103019604D02*
X124012832Y-103019604D01*
X127025011Y-102124989D02*
X127300000Y-101850000D01*
X126000000Y-103050000D02*
X126925011Y-102124989D01*
X124043228Y-103050000D02*
X126000000Y-103050000D01*
X128355431Y-105660487D02*
X128355431Y-103563773D01*
X127882959Y-106132959D02*
X128355431Y-105660487D01*
X127300000Y-101850000D02*
X128450000Y-101850000D01*
X126925011Y-102124989D02*
X127025011Y-102124989D01*
X123320237Y-112280083D02*
X123320237Y-115220237D01*
X123804996Y-115704996D02*
X126633851Y-115704996D01*
X123320237Y-115220237D02*
X123804996Y-115704996D01*
%TO.N,CBUS3*%
X130500000Y-117404936D02*
X129864808Y-118040128D01*
X130500000Y-116305000D02*
X130500000Y-117404936D01*
%TO.N,CBUS0*%
X129616731Y-112495000D02*
X128910975Y-113200756D01*
X130500000Y-112495000D02*
X129616731Y-112495000D01*
%TO.N,CBUS1*%
X127950000Y-113136412D02*
X129236401Y-111850011D01*
X127950000Y-113650000D02*
X127950000Y-113136412D01*
X129236401Y-111850011D02*
X129236401Y-111800009D01*
X129236401Y-111800009D02*
X129811410Y-111225000D01*
X129811410Y-111225000D02*
X130500000Y-111225000D01*
%TO.N,CBUS2*%
X113500000Y-115035000D02*
X115247176Y-115035000D01*
X115477202Y-114804974D02*
X115247176Y-115035000D01*
X116550000Y-114804974D02*
X115477202Y-114804974D01*
%TD*%
D23*
%TO.N,GND*%
X114557990Y-118407474D02*
X113512468Y-119452997D01*
X113493317Y-119468714D01*
X113430584Y-119545153D01*
X113383970Y-119632363D01*
X113355265Y-119726990D01*
X113348001Y-119800746D01*
X113348001Y-119800755D01*
X113345574Y-119825398D01*
X113348001Y-119850041D01*
X113348002Y-122285348D01*
X113345574Y-122310001D01*
X113355266Y-122408410D01*
X113383971Y-122503037D01*
X113430585Y-122590246D01*
X113477602Y-122647536D01*
X113477605Y-122647539D01*
X113493318Y-122666685D01*
X113512464Y-122682398D01*
X113552960Y-122722894D01*
X113520153Y-122802097D01*
X113473000Y-123039151D01*
X113473000Y-123280849D01*
X113520153Y-123517903D01*
X113612647Y-123741202D01*
X113746927Y-123942167D01*
X113917833Y-124113073D01*
X114067553Y-124213112D01*
X113850000Y-124211928D01*
X113725518Y-124224188D01*
X113605820Y-124260498D01*
X113495506Y-124319463D01*
X113398815Y-124398815D01*
X113319463Y-124495506D01*
X113260498Y-124605820D01*
X113224188Y-124725518D01*
X113211928Y-124850000D01*
X113215000Y-125414250D01*
X113373750Y-125573000D01*
X114573000Y-125573000D01*
X114573000Y-125553000D01*
X114827000Y-125553000D01*
X114827000Y-125573000D01*
X116026250Y-125573000D01*
X116185000Y-125414250D01*
X116188072Y-124850000D01*
X116175958Y-124727000D01*
X116226528Y-124727000D01*
X116376643Y-124697141D01*
X116518048Y-124638569D01*
X116645309Y-124553536D01*
X116753536Y-124445309D01*
X116838569Y-124318048D01*
X116897141Y-124176643D01*
X116927000Y-124026528D01*
X116927000Y-123873472D01*
X116897141Y-123723357D01*
X116838569Y-123581952D01*
X116753536Y-123454691D01*
X116652000Y-123353155D01*
X116652000Y-122895640D01*
X116654427Y-122870997D01*
X116652000Y-122846354D01*
X116652000Y-122846345D01*
X116644736Y-122772589D01*
X116616031Y-122677962D01*
X116569417Y-122590753D01*
X116506684Y-122514314D01*
X116487538Y-122498601D01*
X116406937Y-122418000D01*
X117123000Y-122418000D01*
X117123000Y-125722000D01*
X130177000Y-125722000D01*
X130177000Y-122418000D01*
X117123000Y-122418000D01*
X116406937Y-122418000D01*
X115831593Y-121842657D01*
X115873000Y-121801250D01*
X115873000Y-120527000D01*
X115853000Y-120527000D01*
X115853000Y-120273000D01*
X115873000Y-120273000D01*
X115873000Y-120253000D01*
X116127000Y-120253000D01*
X116127000Y-120273000D01*
X116147000Y-120273000D01*
X116147000Y-120527000D01*
X116127000Y-120527000D01*
X116127000Y-121801250D01*
X116285750Y-121960000D01*
X116850000Y-121963072D01*
X116974482Y-121950812D01*
X117094180Y-121914502D01*
X117204494Y-121855537D01*
X117301185Y-121776185D01*
X117380537Y-121679494D01*
X117439502Y-121569180D01*
X117475812Y-121449482D01*
X117488072Y-121325000D01*
X117487352Y-121175216D01*
X117628184Y-121346817D01*
X117815018Y-121500149D01*
X118028177Y-121614084D01*
X118259467Y-121684245D01*
X118500000Y-121707936D01*
X118740534Y-121684245D01*
X118971824Y-121614084D01*
X119184983Y-121500149D01*
X119371817Y-121346817D01*
X119525149Y-121159982D01*
X119639084Y-120946823D01*
X119709245Y-120715533D01*
X119727000Y-120535267D01*
X119727000Y-120264732D01*
X119709245Y-120084466D01*
X119639084Y-119853176D01*
X119525149Y-119640017D01*
X119371817Y-119453183D01*
X119184982Y-119299851D01*
X118971823Y-119185916D01*
X118865069Y-119153532D01*
X118856684Y-119143316D01*
X118837543Y-119127607D01*
X118393759Y-118683824D01*
X119275000Y-118683824D01*
X119348905Y-118676545D01*
X119419970Y-118654988D01*
X119460000Y-118633591D01*
X119500030Y-118654988D01*
X119571095Y-118676545D01*
X119645000Y-118683824D01*
X120545000Y-118683824D01*
X120618905Y-118676545D01*
X120689970Y-118654988D01*
X120730000Y-118633591D01*
X120770030Y-118654988D01*
X120841095Y-118676545D01*
X120915000Y-118683824D01*
X121815000Y-118683824D01*
X121888905Y-118676545D01*
X121959970Y-118654988D01*
X122000000Y-118633591D01*
X122036802Y-118653263D01*
X121492889Y-119197176D01*
X121471823Y-119185916D01*
X121240533Y-119115755D01*
X121000000Y-119092064D01*
X120759466Y-119115755D01*
X120528176Y-119185916D01*
X120315017Y-119299851D01*
X120128183Y-119453183D01*
X119974851Y-119640018D01*
X119860916Y-119853177D01*
X119790755Y-120084467D01*
X119773000Y-120264733D01*
X119773000Y-120535268D01*
X119790755Y-120715534D01*
X119860916Y-120946824D01*
X119974851Y-121159983D01*
X120128184Y-121346817D01*
X120315018Y-121500149D01*
X120528177Y-121614084D01*
X120759467Y-121684245D01*
X121000000Y-121707936D01*
X121240534Y-121684245D01*
X121471824Y-121614084D01*
X121684983Y-121500149D01*
X121871817Y-121346817D01*
X122025149Y-121159982D01*
X122139084Y-120946823D01*
X122209245Y-120715533D01*
X122227000Y-120535267D01*
X122227000Y-120264732D01*
X122209245Y-120084466D01*
X122166472Y-119943463D01*
X122497431Y-119612505D01*
X122474851Y-119640018D01*
X122360916Y-119853177D01*
X122290755Y-120084467D01*
X122273000Y-120264733D01*
X122273000Y-120535268D01*
X122290755Y-120715534D01*
X122360916Y-120946824D01*
X122474851Y-121159983D01*
X122628184Y-121346817D01*
X122815018Y-121500149D01*
X123028177Y-121614084D01*
X123259467Y-121684245D01*
X123500000Y-121707936D01*
X123740534Y-121684245D01*
X123971824Y-121614084D01*
X124184983Y-121500149D01*
X124371817Y-121346817D01*
X124525149Y-121159982D01*
X124639084Y-120946823D01*
X124709245Y-120715533D01*
X124727000Y-120535267D01*
X124727000Y-120264732D01*
X124709245Y-120084466D01*
X124666472Y-119943463D01*
X124957945Y-119651990D01*
X124968452Y-119651990D01*
X124860916Y-119853177D01*
X124790755Y-120084467D01*
X124773000Y-120264733D01*
X124773000Y-120535268D01*
X124790755Y-120715534D01*
X124860916Y-120946824D01*
X124974851Y-121159983D01*
X125128184Y-121346817D01*
X125315018Y-121500149D01*
X125528177Y-121614084D01*
X125759467Y-121684245D01*
X126000000Y-121707936D01*
X126240534Y-121684245D01*
X126471824Y-121614084D01*
X126684983Y-121500149D01*
X126871817Y-121346817D01*
X127025149Y-121159982D01*
X127139084Y-120946823D01*
X127209245Y-120715533D01*
X127226708Y-120538228D01*
X127273000Y-120491936D01*
X127273000Y-120535268D01*
X127290755Y-120715534D01*
X127360916Y-120946824D01*
X127474851Y-121159983D01*
X127628184Y-121346817D01*
X127815018Y-121500149D01*
X128028177Y-121614084D01*
X128259467Y-121684245D01*
X128500000Y-121707936D01*
X128740534Y-121684245D01*
X128971824Y-121614084D01*
X129184983Y-121500149D01*
X129371817Y-121346817D01*
X129525149Y-121159982D01*
X129639084Y-120946823D01*
X129709245Y-120715533D01*
X129727000Y-120535267D01*
X129727000Y-120264732D01*
X129709245Y-120084466D01*
X129639084Y-119853176D01*
X129635701Y-119846846D01*
X129641807Y-119784846D01*
X129641807Y-119784836D01*
X129644234Y-119760193D01*
X129641807Y-119735550D01*
X129641807Y-118787993D01*
X129788280Y-118817128D01*
X129941336Y-118817128D01*
X130091451Y-118787269D01*
X130232856Y-118728697D01*
X130360117Y-118643664D01*
X130468344Y-118535437D01*
X130553377Y-118408176D01*
X130611949Y-118266771D01*
X130641808Y-118116656D01*
X130641808Y-117973063D01*
X130837538Y-117777333D01*
X130856684Y-117761620D01*
X130919417Y-117685181D01*
X130966031Y-117597972D01*
X130994736Y-117503345D01*
X131002000Y-117429589D01*
X131002000Y-117429580D01*
X131004427Y-117404937D01*
X131002000Y-117380294D01*
X131002000Y-117133824D01*
X131073001Y-117133824D01*
X131073001Y-127073000D01*
X115913678Y-127073000D01*
X116001185Y-127001185D01*
X116080537Y-126904494D01*
X116139502Y-126794180D01*
X116175812Y-126674482D01*
X116188072Y-126550000D01*
X116185000Y-125985750D01*
X116026250Y-125827000D01*
X114827000Y-125827000D01*
X114827000Y-125847000D01*
X114573000Y-125847000D01*
X114573000Y-125827000D01*
X113373750Y-125827000D01*
X113215000Y-125985750D01*
X113211928Y-126550000D01*
X113224188Y-126674482D01*
X113260498Y-126794180D01*
X113319463Y-126904494D01*
X113398815Y-127001185D01*
X113486322Y-127073000D01*
X112927000Y-127073000D01*
X112927000Y-117133824D01*
X114500000Y-117133824D01*
X114557989Y-117128113D01*
X114557990Y-118407474D01*
%TA.AperFunction,Conductor*%
D24*
G36*
X114557990Y-118407474D02*
G01*
X113512468Y-119452997D01*
X113493317Y-119468714D01*
X113430584Y-119545153D01*
X113383970Y-119632363D01*
X113355265Y-119726990D01*
X113348001Y-119800746D01*
X113348001Y-119800755D01*
X113345574Y-119825398D01*
X113348001Y-119850041D01*
X113348002Y-122285348D01*
X113345574Y-122310001D01*
X113355266Y-122408410D01*
X113383971Y-122503037D01*
X113430585Y-122590246D01*
X113477602Y-122647536D01*
X113477605Y-122647539D01*
X113493318Y-122666685D01*
X113512464Y-122682398D01*
X113552960Y-122722894D01*
X113520153Y-122802097D01*
X113473000Y-123039151D01*
X113473000Y-123280849D01*
X113520153Y-123517903D01*
X113612647Y-123741202D01*
X113746927Y-123942167D01*
X113917833Y-124113073D01*
X114067553Y-124213112D01*
X113850000Y-124211928D01*
X113725518Y-124224188D01*
X113605820Y-124260498D01*
X113495506Y-124319463D01*
X113398815Y-124398815D01*
X113319463Y-124495506D01*
X113260498Y-124605820D01*
X113224188Y-124725518D01*
X113211928Y-124850000D01*
X113215000Y-125414250D01*
X113373750Y-125573000D01*
X114573000Y-125573000D01*
X114573000Y-125553000D01*
X114827000Y-125553000D01*
X114827000Y-125573000D01*
X116026250Y-125573000D01*
X116185000Y-125414250D01*
X116188072Y-124850000D01*
X116175958Y-124727000D01*
X116226528Y-124727000D01*
X116376643Y-124697141D01*
X116518048Y-124638569D01*
X116645309Y-124553536D01*
X116753536Y-124445309D01*
X116838569Y-124318048D01*
X116897141Y-124176643D01*
X116927000Y-124026528D01*
X116927000Y-123873472D01*
X116897141Y-123723357D01*
X116838569Y-123581952D01*
X116753536Y-123454691D01*
X116652000Y-123353155D01*
X116652000Y-122895640D01*
X116654427Y-122870997D01*
X116652000Y-122846354D01*
X116652000Y-122846345D01*
X116644736Y-122772589D01*
X116616031Y-122677962D01*
X116569417Y-122590753D01*
X116506684Y-122514314D01*
X116487538Y-122498601D01*
X116406937Y-122418000D01*
X117123000Y-122418000D01*
X117123000Y-125722000D01*
X130177000Y-125722000D01*
X130177000Y-122418000D01*
X117123000Y-122418000D01*
X116406937Y-122418000D01*
X115831593Y-121842657D01*
X115873000Y-121801250D01*
X115873000Y-120527000D01*
X115853000Y-120527000D01*
X115853000Y-120273000D01*
X115873000Y-120273000D01*
X115873000Y-120253000D01*
X116127000Y-120253000D01*
X116127000Y-120273000D01*
X116147000Y-120273000D01*
X116147000Y-120527000D01*
X116127000Y-120527000D01*
X116127000Y-121801250D01*
X116285750Y-121960000D01*
X116850000Y-121963072D01*
X116974482Y-121950812D01*
X117094180Y-121914502D01*
X117204494Y-121855537D01*
X117301185Y-121776185D01*
X117380537Y-121679494D01*
X117439502Y-121569180D01*
X117475812Y-121449482D01*
X117488072Y-121325000D01*
X117487352Y-121175216D01*
X117628184Y-121346817D01*
X117815018Y-121500149D01*
X118028177Y-121614084D01*
X118259467Y-121684245D01*
X118500000Y-121707936D01*
X118740534Y-121684245D01*
X118971824Y-121614084D01*
X119184983Y-121500149D01*
X119371817Y-121346817D01*
X119525149Y-121159982D01*
X119639084Y-120946823D01*
X119709245Y-120715533D01*
X119727000Y-120535267D01*
X119727000Y-120264732D01*
X119709245Y-120084466D01*
X119639084Y-119853176D01*
X119525149Y-119640017D01*
X119371817Y-119453183D01*
X119184982Y-119299851D01*
X118971823Y-119185916D01*
X118865069Y-119153532D01*
X118856684Y-119143316D01*
X118837543Y-119127607D01*
X118393759Y-118683824D01*
X119275000Y-118683824D01*
X119348905Y-118676545D01*
X119419970Y-118654988D01*
X119460000Y-118633591D01*
X119500030Y-118654988D01*
X119571095Y-118676545D01*
X119645000Y-118683824D01*
X120545000Y-118683824D01*
X120618905Y-118676545D01*
X120689970Y-118654988D01*
X120730000Y-118633591D01*
X120770030Y-118654988D01*
X120841095Y-118676545D01*
X120915000Y-118683824D01*
X121815000Y-118683824D01*
X121888905Y-118676545D01*
X121959970Y-118654988D01*
X122000000Y-118633591D01*
X122036802Y-118653263D01*
X121492889Y-119197176D01*
X121471823Y-119185916D01*
X121240533Y-119115755D01*
X121000000Y-119092064D01*
X120759466Y-119115755D01*
X120528176Y-119185916D01*
X120315017Y-119299851D01*
X120128183Y-119453183D01*
X119974851Y-119640018D01*
X119860916Y-119853177D01*
X119790755Y-120084467D01*
X119773000Y-120264733D01*
X119773000Y-120535268D01*
X119790755Y-120715534D01*
X119860916Y-120946824D01*
X119974851Y-121159983D01*
X120128184Y-121346817D01*
X120315018Y-121500149D01*
X120528177Y-121614084D01*
X120759467Y-121684245D01*
X121000000Y-121707936D01*
X121240534Y-121684245D01*
X121471824Y-121614084D01*
X121684983Y-121500149D01*
X121871817Y-121346817D01*
X122025149Y-121159982D01*
X122139084Y-120946823D01*
X122209245Y-120715533D01*
X122227000Y-120535267D01*
X122227000Y-120264732D01*
X122209245Y-120084466D01*
X122166472Y-119943463D01*
X122497431Y-119612505D01*
X122474851Y-119640018D01*
X122360916Y-119853177D01*
X122290755Y-120084467D01*
X122273000Y-120264733D01*
X122273000Y-120535268D01*
X122290755Y-120715534D01*
X122360916Y-120946824D01*
X122474851Y-121159983D01*
X122628184Y-121346817D01*
X122815018Y-121500149D01*
X123028177Y-121614084D01*
X123259467Y-121684245D01*
X123500000Y-121707936D01*
X123740534Y-121684245D01*
X123971824Y-121614084D01*
X124184983Y-121500149D01*
X124371817Y-121346817D01*
X124525149Y-121159982D01*
X124639084Y-120946823D01*
X124709245Y-120715533D01*
X124727000Y-120535267D01*
X124727000Y-120264732D01*
X124709245Y-120084466D01*
X124666472Y-119943463D01*
X124957945Y-119651990D01*
X124968452Y-119651990D01*
X124860916Y-119853177D01*
X124790755Y-120084467D01*
X124773000Y-120264733D01*
X124773000Y-120535268D01*
X124790755Y-120715534D01*
X124860916Y-120946824D01*
X124974851Y-121159983D01*
X125128184Y-121346817D01*
X125315018Y-121500149D01*
X125528177Y-121614084D01*
X125759467Y-121684245D01*
X126000000Y-121707936D01*
X126240534Y-121684245D01*
X126471824Y-121614084D01*
X126684983Y-121500149D01*
X126871817Y-121346817D01*
X127025149Y-121159982D01*
X127139084Y-120946823D01*
X127209245Y-120715533D01*
X127226708Y-120538228D01*
X127273000Y-120491936D01*
X127273000Y-120535268D01*
X127290755Y-120715534D01*
X127360916Y-120946824D01*
X127474851Y-121159983D01*
X127628184Y-121346817D01*
X127815018Y-121500149D01*
X128028177Y-121614084D01*
X128259467Y-121684245D01*
X128500000Y-121707936D01*
X128740534Y-121684245D01*
X128971824Y-121614084D01*
X129184983Y-121500149D01*
X129371817Y-121346817D01*
X129525149Y-121159982D01*
X129639084Y-120946823D01*
X129709245Y-120715533D01*
X129727000Y-120535267D01*
X129727000Y-120264732D01*
X129709245Y-120084466D01*
X129639084Y-119853176D01*
X129635701Y-119846846D01*
X129641807Y-119784846D01*
X129641807Y-119784836D01*
X129644234Y-119760193D01*
X129641807Y-119735550D01*
X129641807Y-118787993D01*
X129788280Y-118817128D01*
X129941336Y-118817128D01*
X130091451Y-118787269D01*
X130232856Y-118728697D01*
X130360117Y-118643664D01*
X130468344Y-118535437D01*
X130553377Y-118408176D01*
X130611949Y-118266771D01*
X130641808Y-118116656D01*
X130641808Y-117973063D01*
X130837538Y-117777333D01*
X130856684Y-117761620D01*
X130919417Y-117685181D01*
X130966031Y-117597972D01*
X130994736Y-117503345D01*
X131002000Y-117429589D01*
X131002000Y-117429580D01*
X131004427Y-117404937D01*
X131002000Y-117380294D01*
X131002000Y-117133824D01*
X131073001Y-117133824D01*
X131073001Y-127073000D01*
X115913678Y-127073000D01*
X116001185Y-127001185D01*
X116080537Y-126904494D01*
X116139502Y-126794180D01*
X116175812Y-126674482D01*
X116188072Y-126550000D01*
X116185000Y-125985750D01*
X116026250Y-125827000D01*
X114827000Y-125827000D01*
X114827000Y-125847000D01*
X114573000Y-125847000D01*
X114573000Y-125827000D01*
X113373750Y-125827000D01*
X113215000Y-125985750D01*
X113211928Y-126550000D01*
X113224188Y-126674482D01*
X113260498Y-126794180D01*
X113319463Y-126904494D01*
X113398815Y-127001185D01*
X113486322Y-127073000D01*
X112927000Y-127073000D01*
X112927000Y-117133824D01*
X114500000Y-117133824D01*
X114557989Y-117128113D01*
X114557990Y-118407474D01*
G37*
%TD.AperFunction*%
D23*
X116412000Y-117178000D02*
X116432000Y-117178000D01*
X116432000Y-117432000D01*
X116412000Y-117432000D01*
X116412000Y-117452000D01*
X116158000Y-117452000D01*
X116158000Y-117432000D01*
X116138000Y-117432000D01*
X116138000Y-117178000D01*
X116158000Y-117178000D01*
X116158000Y-117158000D01*
X116412000Y-117158000D01*
X116412000Y-117178000D01*
%TA.AperFunction,Conductor*%
D24*
G36*
X116412000Y-117178000D02*
G01*
X116432000Y-117178000D01*
X116432000Y-117432000D01*
X116412000Y-117432000D01*
X116412000Y-117452000D01*
X116158000Y-117452000D01*
X116158000Y-117432000D01*
X116138000Y-117432000D01*
X116138000Y-117178000D01*
X116158000Y-117178000D01*
X116158000Y-117158000D01*
X116412000Y-117158000D01*
X116412000Y-117178000D01*
G37*
%TD.AperFunction*%
D23*
X128673000Y-110667531D02*
X128649369Y-110610481D01*
X128524719Y-110423930D01*
X128366070Y-110265281D01*
X128179519Y-110140631D01*
X127972234Y-110054771D01*
X127752182Y-110011000D01*
X127527818Y-110011000D01*
X127307766Y-110054771D01*
X127100481Y-110140631D01*
X126913930Y-110265281D01*
X126755281Y-110423930D01*
X126630631Y-110610481D01*
X126544771Y-110817766D01*
X126501000Y-111037818D01*
X126501000Y-111262182D01*
X126544771Y-111482234D01*
X126630631Y-111689519D01*
X126755281Y-111876070D01*
X126913930Y-112034719D01*
X127100481Y-112159369D01*
X127307766Y-112245229D01*
X127463801Y-112276266D01*
X126337468Y-113402600D01*
X126318317Y-113418317D01*
X126255584Y-113494756D01*
X126208970Y-113581966D01*
X126180265Y-113676593D01*
X126173001Y-113750349D01*
X126173001Y-113750358D01*
X126170574Y-113775001D01*
X126173001Y-113799644D01*
X126173002Y-114541327D01*
X126170574Y-114565979D01*
X126180266Y-114664388D01*
X126208971Y-114759015D01*
X126255585Y-114846224D01*
X126302602Y-114903514D01*
X126302605Y-114903517D01*
X126318318Y-114922663D01*
X126337464Y-114938376D01*
X126371665Y-114972577D01*
X126265803Y-115016427D01*
X126138542Y-115101460D01*
X126037006Y-115202996D01*
X124012931Y-115202996D01*
X123822237Y-115012302D01*
X123822237Y-112876928D01*
X123923773Y-112775392D01*
X124008806Y-112648131D01*
X124067378Y-112506726D01*
X124070858Y-112489229D01*
X124093820Y-112501502D01*
X124213518Y-112537812D01*
X124338000Y-112550072D01*
X124814250Y-112547000D01*
X124973000Y-112388250D01*
X124973000Y-111277000D01*
X125227000Y-111277000D01*
X125227000Y-112388250D01*
X125385750Y-112547000D01*
X125862000Y-112550072D01*
X125986482Y-112537812D01*
X126106180Y-112501502D01*
X126216494Y-112442537D01*
X126313185Y-112363185D01*
X126392537Y-112266494D01*
X126451502Y-112156180D01*
X126487812Y-112036482D01*
X126500072Y-111912000D01*
X126497000Y-111435750D01*
X126338250Y-111277000D01*
X125227000Y-111277000D01*
X124973000Y-111277000D01*
X123861750Y-111277000D01*
X123703000Y-111435750D01*
X123701936Y-111600636D01*
X123688285Y-111591514D01*
X123621434Y-111563823D01*
X123655229Y-111482234D01*
X123699000Y-111262182D01*
X123699000Y-111037818D01*
X123674631Y-110915305D01*
X123714343Y-110875593D01*
X123861750Y-111023000D01*
X124973000Y-111023000D01*
X124973000Y-109911750D01*
X125227000Y-109911750D01*
X125227000Y-111023000D01*
X126338250Y-111023000D01*
X126497000Y-110864250D01*
X126500072Y-110388000D01*
X126487812Y-110263518D01*
X126451502Y-110143820D01*
X126392537Y-110033506D01*
X126313185Y-109936815D01*
X126216494Y-109857463D01*
X126106180Y-109798498D01*
X125986482Y-109762188D01*
X125862000Y-109749928D01*
X125385750Y-109753000D01*
X125227000Y-109911750D01*
X124973000Y-109911750D01*
X124825593Y-109764343D01*
X127487552Y-107102385D01*
X127506693Y-107086677D01*
X127522401Y-107067537D01*
X127522409Y-107067529D01*
X127569425Y-107010239D01*
X127569954Y-107009250D01*
X127616040Y-106923029D01*
X127632105Y-106870071D01*
X127656316Y-106880100D01*
X127806431Y-106909959D01*
X127959487Y-106909959D01*
X128109602Y-106880100D01*
X128251007Y-106821528D01*
X128378268Y-106736495D01*
X128486495Y-106628268D01*
X128571528Y-106501007D01*
X128630100Y-106359602D01*
X128659959Y-106209487D01*
X128659959Y-106065894D01*
X128672999Y-106052854D01*
X128673000Y-110667531D01*
%TA.AperFunction,Conductor*%
D24*
G36*
X128673000Y-110667531D02*
G01*
X128649369Y-110610481D01*
X128524719Y-110423930D01*
X128366070Y-110265281D01*
X128179519Y-110140631D01*
X127972234Y-110054771D01*
X127752182Y-110011000D01*
X127527818Y-110011000D01*
X127307766Y-110054771D01*
X127100481Y-110140631D01*
X126913930Y-110265281D01*
X126755281Y-110423930D01*
X126630631Y-110610481D01*
X126544771Y-110817766D01*
X126501000Y-111037818D01*
X126501000Y-111262182D01*
X126544771Y-111482234D01*
X126630631Y-111689519D01*
X126755281Y-111876070D01*
X126913930Y-112034719D01*
X127100481Y-112159369D01*
X127307766Y-112245229D01*
X127463801Y-112276266D01*
X126337468Y-113402600D01*
X126318317Y-113418317D01*
X126255584Y-113494756D01*
X126208970Y-113581966D01*
X126180265Y-113676593D01*
X126173001Y-113750349D01*
X126173001Y-113750358D01*
X126170574Y-113775001D01*
X126173001Y-113799644D01*
X126173002Y-114541327D01*
X126170574Y-114565979D01*
X126180266Y-114664388D01*
X126208971Y-114759015D01*
X126255585Y-114846224D01*
X126302602Y-114903514D01*
X126302605Y-114903517D01*
X126318318Y-114922663D01*
X126337464Y-114938376D01*
X126371665Y-114972577D01*
X126265803Y-115016427D01*
X126138542Y-115101460D01*
X126037006Y-115202996D01*
X124012931Y-115202996D01*
X123822237Y-115012302D01*
X123822237Y-112876928D01*
X123923773Y-112775392D01*
X124008806Y-112648131D01*
X124067378Y-112506726D01*
X124070858Y-112489229D01*
X124093820Y-112501502D01*
X124213518Y-112537812D01*
X124338000Y-112550072D01*
X124814250Y-112547000D01*
X124973000Y-112388250D01*
X124973000Y-111277000D01*
X125227000Y-111277000D01*
X125227000Y-112388250D01*
X125385750Y-112547000D01*
X125862000Y-112550072D01*
X125986482Y-112537812D01*
X126106180Y-112501502D01*
X126216494Y-112442537D01*
X126313185Y-112363185D01*
X126392537Y-112266494D01*
X126451502Y-112156180D01*
X126487812Y-112036482D01*
X126500072Y-111912000D01*
X126497000Y-111435750D01*
X126338250Y-111277000D01*
X125227000Y-111277000D01*
X124973000Y-111277000D01*
X123861750Y-111277000D01*
X123703000Y-111435750D01*
X123701936Y-111600636D01*
X123688285Y-111591514D01*
X123621434Y-111563823D01*
X123655229Y-111482234D01*
X123699000Y-111262182D01*
X123699000Y-111037818D01*
X123674631Y-110915305D01*
X123714343Y-110875593D01*
X123861750Y-111023000D01*
X124973000Y-111023000D01*
X124973000Y-109911750D01*
X125227000Y-109911750D01*
X125227000Y-111023000D01*
X126338250Y-111023000D01*
X126497000Y-110864250D01*
X126500072Y-110388000D01*
X126487812Y-110263518D01*
X126451502Y-110143820D01*
X126392537Y-110033506D01*
X126313185Y-109936815D01*
X126216494Y-109857463D01*
X126106180Y-109798498D01*
X125986482Y-109762188D01*
X125862000Y-109749928D01*
X125385750Y-109753000D01*
X125227000Y-109911750D01*
X124973000Y-109911750D01*
X124825593Y-109764343D01*
X127487552Y-107102385D01*
X127506693Y-107086677D01*
X127522401Y-107067537D01*
X127522409Y-107067529D01*
X127569425Y-107010239D01*
X127569954Y-107009250D01*
X127616040Y-106923029D01*
X127632105Y-106870071D01*
X127656316Y-106880100D01*
X127806431Y-106909959D01*
X127959487Y-106909959D01*
X128109602Y-106880100D01*
X128251007Y-106821528D01*
X128378268Y-106736495D01*
X128486495Y-106628268D01*
X128571528Y-106501007D01*
X128630100Y-106359602D01*
X128659959Y-106209487D01*
X128659959Y-106065894D01*
X128672999Y-106052854D01*
X128673000Y-110667531D01*
G37*
%TD.AperFunction*%
D23*
X116457451Y-103180202D02*
X116438305Y-103195915D01*
X116422592Y-103215061D01*
X116422589Y-103215064D01*
X116375572Y-103272354D01*
X116328958Y-103359563D01*
X116300253Y-103454190D01*
X116290561Y-103552599D01*
X116292989Y-103577252D01*
X116292988Y-109344498D01*
X116290561Y-109369141D01*
X116292988Y-109393784D01*
X116292988Y-109393793D01*
X116300252Y-109467549D01*
X116328957Y-109562176D01*
X116375571Y-109649386D01*
X116438304Y-109725825D01*
X116457456Y-109741543D01*
X117636937Y-110921024D01*
X117635064Y-110955459D01*
X118090000Y-111410395D01*
X118104143Y-111396253D01*
X118148639Y-111440749D01*
X117883912Y-111532205D01*
X117863507Y-111543112D01*
X117455459Y-111135064D01*
X117262237Y-111145575D01*
X117191438Y-111315603D01*
X117155172Y-111496176D01*
X117154829Y-111680355D01*
X117190426Y-111861061D01*
X117260592Y-112031351D01*
X117262237Y-112034425D01*
X117407732Y-112042340D01*
X117432892Y-112067500D01*
X117429277Y-112071115D01*
X117170186Y-112164956D01*
X117029296Y-112454571D01*
X116947616Y-112766108D01*
X116928282Y-113087595D01*
X116972039Y-113406675D01*
X117077205Y-113711088D01*
X117170186Y-113885044D01*
X117434587Y-113980808D01*
X118390395Y-113025000D01*
X118376253Y-113010858D01*
X118555858Y-112831253D01*
X118570000Y-112845395D01*
X118584143Y-112831253D01*
X118763748Y-113010858D01*
X118749605Y-113025000D01*
X118763748Y-113039143D01*
X118584143Y-113218748D01*
X118570000Y-113204605D01*
X117614192Y-114160413D01*
X117709956Y-114424814D01*
X117999571Y-114565704D01*
X118059750Y-114581482D01*
X117613245Y-115027988D01*
X117297863Y-115027988D01*
X117327000Y-114881502D01*
X117327000Y-114728446D01*
X117297141Y-114578331D01*
X117238569Y-114436926D01*
X117153536Y-114309665D01*
X117045309Y-114201438D01*
X116918048Y-114116405D01*
X116776643Y-114057833D01*
X116626528Y-114027974D01*
X116473472Y-114027974D01*
X116323357Y-114057833D01*
X116181952Y-114116405D01*
X116054691Y-114201438D01*
X115953155Y-114302974D01*
X115501845Y-114302974D01*
X115477202Y-114300547D01*
X115452559Y-114302974D01*
X115452549Y-114302974D01*
X115378793Y-114310238D01*
X115284166Y-114338943D01*
X115280421Y-114340945D01*
X115345808Y-114160413D01*
X114823395Y-113638000D01*
X114976250Y-113638000D01*
X115079428Y-113534823D01*
X115525413Y-113980808D01*
X115789814Y-113885044D01*
X115930704Y-113595429D01*
X116012384Y-113283892D01*
X116031718Y-112962405D01*
X115987961Y-112643325D01*
X115882795Y-112338912D01*
X115789814Y-112164956D01*
X115525413Y-112069192D01*
X115135000Y-112459605D01*
X115135000Y-112367998D01*
X114976252Y-112367998D01*
X115135000Y-112209250D01*
X115137075Y-112098320D01*
X115345808Y-111889587D01*
X115250044Y-111625186D01*
X114960429Y-111484296D01*
X114878824Y-111462900D01*
X114878824Y-110775000D01*
X114871545Y-110701095D01*
X114849988Y-110630030D01*
X114828591Y-110590000D01*
X114849988Y-110549970D01*
X114871545Y-110478905D01*
X114878824Y-110405000D01*
X114878824Y-109505000D01*
X114871545Y-109431095D01*
X114849988Y-109360030D01*
X114828591Y-109320000D01*
X114849988Y-109279970D01*
X114871545Y-109208905D01*
X114878824Y-109135000D01*
X114878824Y-108235000D01*
X114871545Y-108161095D01*
X114849988Y-108090030D01*
X114828591Y-108050000D01*
X114849988Y-108009970D01*
X114871545Y-107938905D01*
X114878824Y-107865000D01*
X114878824Y-106965000D01*
X114871545Y-106891095D01*
X114849988Y-106820030D01*
X114828591Y-106780000D01*
X114849988Y-106739970D01*
X114871545Y-106668905D01*
X114878824Y-106595000D01*
X114878824Y-105935944D01*
X115076088Y-105867795D01*
X115250044Y-105774814D01*
X115345808Y-105510413D01*
X115137647Y-105302252D01*
X115135000Y-105160750D01*
X114976252Y-105002002D01*
X115135000Y-105002002D01*
X115135000Y-104940395D01*
X115525413Y-105330808D01*
X115789814Y-105235044D01*
X115930704Y-104945429D01*
X116012384Y-104633892D01*
X116031718Y-104312405D01*
X115987961Y-103993325D01*
X115882795Y-103688912D01*
X115789814Y-103514956D01*
X115525413Y-103419192D01*
X115094428Y-103850178D01*
X114976250Y-103732000D01*
X114853395Y-103732000D01*
X115345808Y-103239587D01*
X115250044Y-102975186D01*
X115079582Y-102892261D01*
X115050044Y-102837000D01*
X116800653Y-102837000D01*
X116457451Y-103180202D01*
%TA.AperFunction,Conductor*%
D24*
G36*
X116457451Y-103180202D02*
G01*
X116438305Y-103195915D01*
X116422592Y-103215061D01*
X116422589Y-103215064D01*
X116375572Y-103272354D01*
X116328958Y-103359563D01*
X116300253Y-103454190D01*
X116290561Y-103552599D01*
X116292989Y-103577252D01*
X116292988Y-109344498D01*
X116290561Y-109369141D01*
X116292988Y-109393784D01*
X116292988Y-109393793D01*
X116300252Y-109467549D01*
X116328957Y-109562176D01*
X116375571Y-109649386D01*
X116438304Y-109725825D01*
X116457456Y-109741543D01*
X117636937Y-110921024D01*
X117635064Y-110955459D01*
X118090000Y-111410395D01*
X118104143Y-111396253D01*
X118148639Y-111440749D01*
X117883912Y-111532205D01*
X117863507Y-111543112D01*
X117455459Y-111135064D01*
X117262237Y-111145575D01*
X117191438Y-111315603D01*
X117155172Y-111496176D01*
X117154829Y-111680355D01*
X117190426Y-111861061D01*
X117260592Y-112031351D01*
X117262237Y-112034425D01*
X117407732Y-112042340D01*
X117432892Y-112067500D01*
X117429277Y-112071115D01*
X117170186Y-112164956D01*
X117029296Y-112454571D01*
X116947616Y-112766108D01*
X116928282Y-113087595D01*
X116972039Y-113406675D01*
X117077205Y-113711088D01*
X117170186Y-113885044D01*
X117434587Y-113980808D01*
X118390395Y-113025000D01*
X118376253Y-113010858D01*
X118555858Y-112831253D01*
X118570000Y-112845395D01*
X118584143Y-112831253D01*
X118763748Y-113010858D01*
X118749605Y-113025000D01*
X118763748Y-113039143D01*
X118584143Y-113218748D01*
X118570000Y-113204605D01*
X117614192Y-114160413D01*
X117709956Y-114424814D01*
X117999571Y-114565704D01*
X118059750Y-114581482D01*
X117613245Y-115027988D01*
X117297863Y-115027988D01*
X117327000Y-114881502D01*
X117327000Y-114728446D01*
X117297141Y-114578331D01*
X117238569Y-114436926D01*
X117153536Y-114309665D01*
X117045309Y-114201438D01*
X116918048Y-114116405D01*
X116776643Y-114057833D01*
X116626528Y-114027974D01*
X116473472Y-114027974D01*
X116323357Y-114057833D01*
X116181952Y-114116405D01*
X116054691Y-114201438D01*
X115953155Y-114302974D01*
X115501845Y-114302974D01*
X115477202Y-114300547D01*
X115452559Y-114302974D01*
X115452549Y-114302974D01*
X115378793Y-114310238D01*
X115284166Y-114338943D01*
X115280421Y-114340945D01*
X115345808Y-114160413D01*
X114823395Y-113638000D01*
X114976250Y-113638000D01*
X115079428Y-113534823D01*
X115525413Y-113980808D01*
X115789814Y-113885044D01*
X115930704Y-113595429D01*
X116012384Y-113283892D01*
X116031718Y-112962405D01*
X115987961Y-112643325D01*
X115882795Y-112338912D01*
X115789814Y-112164956D01*
X115525413Y-112069192D01*
X115135000Y-112459605D01*
X115135000Y-112367998D01*
X114976252Y-112367998D01*
X115135000Y-112209250D01*
X115137075Y-112098320D01*
X115345808Y-111889587D01*
X115250044Y-111625186D01*
X114960429Y-111484296D01*
X114878824Y-111462900D01*
X114878824Y-110775000D01*
X114871545Y-110701095D01*
X114849988Y-110630030D01*
X114828591Y-110590000D01*
X114849988Y-110549970D01*
X114871545Y-110478905D01*
X114878824Y-110405000D01*
X114878824Y-109505000D01*
X114871545Y-109431095D01*
X114849988Y-109360030D01*
X114828591Y-109320000D01*
X114849988Y-109279970D01*
X114871545Y-109208905D01*
X114878824Y-109135000D01*
X114878824Y-108235000D01*
X114871545Y-108161095D01*
X114849988Y-108090030D01*
X114828591Y-108050000D01*
X114849988Y-108009970D01*
X114871545Y-107938905D01*
X114878824Y-107865000D01*
X114878824Y-106965000D01*
X114871545Y-106891095D01*
X114849988Y-106820030D01*
X114828591Y-106780000D01*
X114849988Y-106739970D01*
X114871545Y-106668905D01*
X114878824Y-106595000D01*
X114878824Y-105935944D01*
X115076088Y-105867795D01*
X115250044Y-105774814D01*
X115345808Y-105510413D01*
X115137647Y-105302252D01*
X115135000Y-105160750D01*
X114976252Y-105002002D01*
X115135000Y-105002002D01*
X115135000Y-104940395D01*
X115525413Y-105330808D01*
X115789814Y-105235044D01*
X115930704Y-104945429D01*
X116012384Y-104633892D01*
X116031718Y-104312405D01*
X115987961Y-103993325D01*
X115882795Y-103688912D01*
X115789814Y-103514956D01*
X115525413Y-103419192D01*
X115094428Y-103850178D01*
X114976250Y-103732000D01*
X114853395Y-103732000D01*
X115345808Y-103239587D01*
X115250044Y-102975186D01*
X115079582Y-102892261D01*
X115050044Y-102837000D01*
X116800653Y-102837000D01*
X116457451Y-103180202D01*
G37*
%TD.AperFunction*%
D23*
X125907853Y-105715471D02*
X125923566Y-105734617D01*
X125942712Y-105750330D01*
X125942714Y-105750332D01*
X125972545Y-105774814D01*
X126000005Y-105797350D01*
X126087214Y-105843964D01*
X126181841Y-105872669D01*
X126255597Y-105879933D01*
X126255606Y-105879933D01*
X126280249Y-105882360D01*
X126304892Y-105879933D01*
X126648010Y-105879933D01*
X126648009Y-106522057D01*
X124137015Y-109033052D01*
X124135000Y-107580750D01*
X123976250Y-107422000D01*
X121127000Y-107422000D01*
X121127000Y-107442000D01*
X120873000Y-107442000D01*
X120873000Y-107422000D01*
X118023750Y-107422000D01*
X117865000Y-107580750D01*
X117862985Y-109033053D01*
X117746999Y-108917067D01*
X117746999Y-106679996D01*
X117815603Y-106708562D01*
X117864596Y-106718402D01*
X117865000Y-107009250D01*
X118023750Y-107168000D01*
X120873000Y-107168000D01*
X120873000Y-107148000D01*
X121127000Y-107148000D01*
X121127000Y-107168000D01*
X123976250Y-107168000D01*
X124135000Y-107009250D01*
X124137826Y-104971999D01*
X125164382Y-104971999D01*
X125907853Y-105715471D01*
%TA.AperFunction,Conductor*%
D24*
G36*
X125907853Y-105715471D02*
G01*
X125923566Y-105734617D01*
X125942712Y-105750330D01*
X125942714Y-105750332D01*
X125972545Y-105774814D01*
X126000005Y-105797350D01*
X126087214Y-105843964D01*
X126181841Y-105872669D01*
X126255597Y-105879933D01*
X126255606Y-105879933D01*
X126280249Y-105882360D01*
X126304892Y-105879933D01*
X126648010Y-105879933D01*
X126648009Y-106522057D01*
X124137015Y-109033052D01*
X124135000Y-107580750D01*
X123976250Y-107422000D01*
X121127000Y-107422000D01*
X121127000Y-107442000D01*
X120873000Y-107442000D01*
X120873000Y-107422000D01*
X118023750Y-107422000D01*
X117865000Y-107580750D01*
X117862985Y-109033053D01*
X117746999Y-108917067D01*
X117746999Y-106679996D01*
X117815603Y-106708562D01*
X117864596Y-106718402D01*
X117865000Y-107009250D01*
X118023750Y-107168000D01*
X120873000Y-107168000D01*
X120873000Y-107148000D01*
X121127000Y-107148000D01*
X121127000Y-107168000D01*
X123976250Y-107168000D01*
X124135000Y-107009250D01*
X124137826Y-104971999D01*
X125164382Y-104971999D01*
X125907853Y-105715471D01*
G37*
%TD.AperFunction*%
D23*
X129032236Y-98914017D02*
X128969463Y-98990506D01*
X128910498Y-99100820D01*
X128874188Y-99220518D01*
X128861928Y-99345000D01*
X128865000Y-99509250D01*
X129023750Y-99668000D01*
X130373000Y-99668000D01*
X130373000Y-99648000D01*
X130627000Y-99648000D01*
X130627000Y-99668000D01*
X130647000Y-99668000D01*
X130647000Y-99922000D01*
X130627000Y-99922000D01*
X130627000Y-99942000D01*
X130373000Y-99942000D01*
X130373000Y-99922000D01*
X129023750Y-99922000D01*
X128865000Y-100080750D01*
X128861928Y-100245000D01*
X128874188Y-100369482D01*
X128910498Y-100489180D01*
X128969463Y-100599494D01*
X129048815Y-100696185D01*
X129121176Y-100755570D01*
X129121176Y-101455922D01*
X129053536Y-101354691D01*
X128945309Y-101246464D01*
X128818048Y-101161431D01*
X128676643Y-101102859D01*
X128526528Y-101073000D01*
X128373472Y-101073000D01*
X128223357Y-101102859D01*
X128081952Y-101161431D01*
X127954691Y-101246464D01*
X127853155Y-101348000D01*
X127385147Y-101348000D01*
X127438569Y-101268048D01*
X127497141Y-101126643D01*
X127527000Y-100976528D01*
X127527000Y-100823472D01*
X127497141Y-100673357D01*
X127438569Y-100531952D01*
X127353536Y-100404691D01*
X127245309Y-100296464D01*
X127118048Y-100211431D01*
X126976643Y-100152859D01*
X126826528Y-100123000D01*
X126673472Y-100123000D01*
X126523357Y-100152859D01*
X126381952Y-100211431D01*
X126254691Y-100296464D01*
X126146464Y-100404691D01*
X126061431Y-100531952D01*
X126002859Y-100673357D01*
X125973000Y-100823472D01*
X125973000Y-100967065D01*
X124992066Y-101948000D01*
X123407936Y-101948000D01*
X122822368Y-101362434D01*
X122806651Y-101343283D01*
X122730212Y-101280550D01*
X122643003Y-101233936D01*
X122548376Y-101205231D01*
X122474620Y-101197967D01*
X122474610Y-101197967D01*
X122449967Y-101195540D01*
X122425324Y-101197967D01*
X115557902Y-101197967D01*
X115087401Y-100727467D01*
X115071684Y-100708316D01*
X114995245Y-100645583D01*
X114993485Y-100644642D01*
X115030537Y-100599494D01*
X115089502Y-100489180D01*
X115125812Y-100369482D01*
X115138072Y-100245000D01*
X115135000Y-100080750D01*
X114976250Y-99922000D01*
X113627000Y-99922000D01*
X113627000Y-99942000D01*
X113373000Y-99942000D01*
X113373000Y-99922000D01*
X113353000Y-99922000D01*
X113353000Y-99668000D01*
X113373000Y-99668000D01*
X113373000Y-99648000D01*
X113627000Y-99648000D01*
X113627000Y-99668000D01*
X114976250Y-99668000D01*
X115135000Y-99509250D01*
X115138072Y-99345000D01*
X115125812Y-99220518D01*
X115089502Y-99100820D01*
X115030537Y-98990506D01*
X114951185Y-98893815D01*
X114885073Y-98839558D01*
X129032236Y-98914017D01*
%TA.AperFunction,Conductor*%
D24*
G36*
X129032236Y-98914017D02*
G01*
X128969463Y-98990506D01*
X128910498Y-99100820D01*
X128874188Y-99220518D01*
X128861928Y-99345000D01*
X128865000Y-99509250D01*
X129023750Y-99668000D01*
X130373000Y-99668000D01*
X130373000Y-99648000D01*
X130627000Y-99648000D01*
X130627000Y-99668000D01*
X130647000Y-99668000D01*
X130647000Y-99922000D01*
X130627000Y-99922000D01*
X130627000Y-99942000D01*
X130373000Y-99942000D01*
X130373000Y-99922000D01*
X129023750Y-99922000D01*
X128865000Y-100080750D01*
X128861928Y-100245000D01*
X128874188Y-100369482D01*
X128910498Y-100489180D01*
X128969463Y-100599494D01*
X129048815Y-100696185D01*
X129121176Y-100755570D01*
X129121176Y-101455922D01*
X129053536Y-101354691D01*
X128945309Y-101246464D01*
X128818048Y-101161431D01*
X128676643Y-101102859D01*
X128526528Y-101073000D01*
X128373472Y-101073000D01*
X128223357Y-101102859D01*
X128081952Y-101161431D01*
X127954691Y-101246464D01*
X127853155Y-101348000D01*
X127385147Y-101348000D01*
X127438569Y-101268048D01*
X127497141Y-101126643D01*
X127527000Y-100976528D01*
X127527000Y-100823472D01*
X127497141Y-100673357D01*
X127438569Y-100531952D01*
X127353536Y-100404691D01*
X127245309Y-100296464D01*
X127118048Y-100211431D01*
X126976643Y-100152859D01*
X126826528Y-100123000D01*
X126673472Y-100123000D01*
X126523357Y-100152859D01*
X126381952Y-100211431D01*
X126254691Y-100296464D01*
X126146464Y-100404691D01*
X126061431Y-100531952D01*
X126002859Y-100673357D01*
X125973000Y-100823472D01*
X125973000Y-100967065D01*
X124992066Y-101948000D01*
X123407936Y-101948000D01*
X122822368Y-101362434D01*
X122806651Y-101343283D01*
X122730212Y-101280550D01*
X122643003Y-101233936D01*
X122548376Y-101205231D01*
X122474620Y-101197967D01*
X122474610Y-101197967D01*
X122449967Y-101195540D01*
X122425324Y-101197967D01*
X115557902Y-101197967D01*
X115087401Y-100727467D01*
X115071684Y-100708316D01*
X114995245Y-100645583D01*
X114993485Y-100644642D01*
X115030537Y-100599494D01*
X115089502Y-100489180D01*
X115125812Y-100369482D01*
X115138072Y-100245000D01*
X115135000Y-100080750D01*
X114976250Y-99922000D01*
X113627000Y-99922000D01*
X113627000Y-99942000D01*
X113373000Y-99942000D01*
X113373000Y-99922000D01*
X113353000Y-99922000D01*
X113353000Y-99668000D01*
X113373000Y-99668000D01*
X113373000Y-99648000D01*
X113627000Y-99648000D01*
X113627000Y-99668000D01*
X114976250Y-99668000D01*
X115135000Y-99509250D01*
X115138072Y-99345000D01*
X115125812Y-99220518D01*
X115089502Y-99100820D01*
X115030537Y-98990506D01*
X114951185Y-98893815D01*
X114885073Y-98839558D01*
X129032236Y-98914017D01*
G37*
%TD.AperFunction*%
%TD*%
M02*
