M48
; DRILL file {KiCad (5.1.9-0-10_14)} date Monday, March 08, 2021 at 07:54:42 AM
; FORMAT={-:-/ absolute / inch / decimal}
; #@! TF.CreationDate,2021-03-08T07:54:42+00:00
; #@! TF.GenerationSoftware,Kicad,Pcbnew,(5.1.9-0-10_14)
; #@! TF.FileFunction,Plated,1,2,PTH
FMAT,2
INCH
T1C0.0157
T2C0.0236
T3C0.0300
T4C0.0335
T5C0.0394
T6C0.0551
T7C0.0669
%
G90
G05
T1
X4.5335Y-3.9291
X4.5728Y-4.8799
X4.5886Y-4.5199
X4.6899Y-4.5376
X4.7225Y-4.4815
X4.7473Y-4.0824
X4.7539Y-4.374
X4.7909Y-4.064
X4.8551Y-4.4205
X4.8687Y-4.0844
X4.9528Y-4.4724
X4.9854Y-4.1202
X4.9856Y-4.5553
X4.9902Y-3.9724
X5.0151Y-4.068
X5.0291Y-4.5524
X5.0348Y-4.1785
X5.0374Y-4.4744
X5.0534Y-4.0773
X5.0571Y-4.0098
X5.065Y-3.9311
X5.0752Y-4.4567
X5.1128Y-4.6472
T2
X4.6492Y-4.1657
X4.6492Y-4.3933
T3
X4.8252Y-4.376
X4.9252Y-4.376
X5.0252Y-4.376
T4
X4.5669Y-4.7402
X4.6654Y-4.7402
X4.7638Y-4.7402
X4.8622Y-4.7402
X4.9606Y-4.7402
X5.0591Y-4.7402
T5
X4.5157Y-4.8488
X4.5157Y-4.9488
T6
X4.5035Y-4.1093
X4.5035Y-4.4498
T7
X4.6681Y-4.1093
X4.6681Y-4.4498
T0
M30
