%TF.GenerationSoftware,KiCad,Pcbnew,(5.1.9-0-10_14)*%
%TF.CreationDate,2021-06-17T09:58:53+01:00*%
%TF.ProjectId,Generic,47656e65-7269-4632-9e6b-696361645f70,4*%
%TF.SameCoordinates,Original*%
%TF.FileFunction,Copper,L2,Bot*%
%TF.FilePolarity,Positive*%
%FSLAX46Y46*%
G04 Gerber Fmt 4.6, Leading zero omitted, Abs format (unit mm)*
G04 Created by KiCad (PCBNEW (5.1.9-0-10_14)) date 2021-06-17 09:58:53*
%MOMM*%
%LPD*%
G01*
G04 APERTURE LIST*
%TA.AperFunction,NonConductor*%
%ADD10C,0.300000*%
%TD*%
%TA.AperFunction,ComponentPad*%
%ADD11C,0.350000*%
%TD*%
%TA.AperFunction,SMDPad,CuDef*%
%ADD12R,2.000000X0.900000*%
%TD*%
%TA.AperFunction,SMDPad,CuDef*%
%ADD13R,0.900000X2.000000*%
%TD*%
%TA.AperFunction,SMDPad,CuDef*%
%ADD14R,5.000000X5.000000*%
%TD*%
%TA.AperFunction,ComponentPad*%
%ADD15C,2.000000*%
%TD*%
%TA.AperFunction,ComponentPad*%
%ADD16R,2.000000X2.000000*%
%TD*%
%TA.AperFunction,ComponentPad*%
%ADD17R,1.700000X1.700000*%
%TD*%
%TA.AperFunction,ComponentPad*%
%ADD18O,1.700000X1.700000*%
%TD*%
%TA.AperFunction,ComponentPad*%
%ADD19C,1.700000*%
%TD*%
%TA.AperFunction,ComponentPad*%
%ADD20C,0.600000*%
%TD*%
%TA.AperFunction,ViaPad*%
%ADD21C,0.800000*%
%TD*%
%TA.AperFunction,Conductor*%
%ADD22C,0.250000*%
%TD*%
%TA.AperFunction,Conductor*%
%ADD23C,0.500000*%
%TD*%
%TA.AperFunction,Conductor*%
%ADD24C,0.254000*%
%TD*%
%TA.AperFunction,Conductor*%
%ADD25C,0.100000*%
%TD*%
G04 APERTURE END LIST*
D10*
X124185714Y-126578571D02*
X123900000Y-127578571D01*
X123614285Y-126864285D01*
X123328571Y-127578571D01*
X123042857Y-126578571D01*
X122614285Y-126578571D02*
X122328571Y-127578571D01*
X122042857Y-126864285D01*
X121757142Y-127578571D01*
X121471428Y-126578571D01*
X121042857Y-126578571D02*
X120757142Y-127578571D01*
X120471428Y-126864285D01*
X120185714Y-127578571D01*
X119900000Y-126578571D01*
X119328571Y-127435714D02*
X119257142Y-127507142D01*
X119328571Y-127578571D01*
X119400000Y-127507142D01*
X119328571Y-127435714D01*
X119328571Y-127578571D01*
X118614285Y-127578571D02*
X118614285Y-126578571D01*
X118614285Y-126721428D02*
X118542857Y-126650000D01*
X118400000Y-126578571D01*
X118185714Y-126578571D01*
X118042857Y-126650000D01*
X117971428Y-126792857D01*
X117971428Y-127578571D01*
X117971428Y-126792857D02*
X117900000Y-126650000D01*
X117757142Y-126578571D01*
X117542857Y-126578571D01*
X117400000Y-126650000D01*
X117328571Y-126792857D01*
X117328571Y-127578571D01*
X116042857Y-127507142D02*
X116185714Y-127578571D01*
X116471428Y-127578571D01*
X116614285Y-127507142D01*
X116685714Y-127364285D01*
X116685714Y-126792857D01*
X116614285Y-126650000D01*
X116471428Y-126578571D01*
X116185714Y-126578571D01*
X116042857Y-126650000D01*
X115971428Y-126792857D01*
X115971428Y-126935714D01*
X116685714Y-127078571D01*
X115328571Y-127435714D02*
X115257142Y-127507142D01*
X115328571Y-127578571D01*
X115400000Y-127507142D01*
X115328571Y-127435714D01*
X115328571Y-127578571D01*
X113971428Y-126578571D02*
X113971428Y-127578571D01*
X114614285Y-126578571D02*
X114614285Y-127364285D01*
X114542857Y-127507142D01*
X114400000Y-127578571D01*
X114185714Y-127578571D01*
X114042857Y-127507142D01*
X113971428Y-127435714D01*
X113257142Y-127578571D02*
X113257142Y-126078571D01*
X113114285Y-127007142D02*
X112685714Y-127578571D01*
X112685714Y-126578571D02*
X113257142Y-127150000D01*
D11*
%TO.P,U2,21*%
%TO.N,GND*%
X116600000Y-113300000D03*
%TD*%
D12*
%TO.P,U1,38*%
%TO.N,GND*%
X110900000Y-102295000D03*
%TO.P,U1,37*%
%TO.N,Net-(U1-Pad37)*%
X110900000Y-103565000D03*
%TO.P,U1,36*%
%TO.N,Net-(U1-Pad36)*%
X110900000Y-104835000D03*
%TO.P,U1,35*%
%TO.N,O*%
X110900000Y-106105000D03*
%TO.P,U1,34*%
%TO.N,I*%
X110900000Y-107375000D03*
%TO.P,U1,33*%
%TO.N,Net-(U1-Pad33)*%
X110900000Y-108645000D03*
%TO.P,U1,32*%
%TO.N,Net-(U1-Pad32)*%
X110900000Y-109915000D03*
%TO.P,U1,31*%
%TO.N,Net-(U1-Pad31)*%
X110900000Y-111185000D03*
%TO.P,U1,30*%
%TO.N,Net-(U1-Pad30)*%
X110900000Y-112455000D03*
%TO.P,U1,29*%
%TO.N,Net-(U1-Pad29)*%
X110900000Y-113725000D03*
%TO.P,U1,28*%
%TO.N,Net-(U1-Pad28)*%
X110900000Y-114995000D03*
%TO.P,U1,27*%
%TO.N,Net-(U1-Pad27)*%
X110900000Y-116265000D03*
%TO.P,U1,26*%
%TO.N,IO5*%
X110900000Y-117535000D03*
%TO.P,U1,25*%
%TO.N,BOOT*%
X110900000Y-118805000D03*
D13*
%TO.P,U1,24*%
%TO.N,IO3*%
X113685000Y-119805000D03*
%TO.P,U1,23*%
%TO.N,IO2*%
X114955000Y-119805000D03*
%TO.P,U1,22*%
%TO.N,Net-(U1-Pad22)*%
X116225000Y-119805000D03*
%TO.P,U1,21*%
%TO.N,Net-(U1-Pad21)*%
X117495000Y-119805000D03*
%TO.P,U1,20*%
%TO.N,Net-(U1-Pad20)*%
X118765000Y-119805000D03*
%TO.P,U1,19*%
%TO.N,Net-(U1-Pad19)*%
X120035000Y-119805000D03*
%TO.P,U1,18*%
%TO.N,Net-(U1-Pad18)*%
X121305000Y-119805000D03*
%TO.P,U1,17*%
%TO.N,Net-(U1-Pad17)*%
X122575000Y-119805000D03*
%TO.P,U1,16*%
%TO.N,IO1*%
X123845000Y-119805000D03*
%TO.P,U1,15*%
%TO.N,GND*%
X125115000Y-119805000D03*
D12*
%TO.P,U1,14*%
%TO.N,Net-(U1-Pad14)*%
X127900000Y-118805000D03*
%TO.P,U1,13*%
%TO.N,IO4*%
X127900000Y-117535000D03*
%TO.P,U1,12*%
%TO.N,GND*%
X127900000Y-116265000D03*
%TO.P,U1,11*%
X127900000Y-114995000D03*
%TO.P,U1,10*%
%TO.N,LED*%
X127900000Y-113725000D03*
%TO.P,U1,9*%
%TO.N,Net-(U1-Pad9)*%
X127900000Y-112455000D03*
%TO.P,U1,8*%
%TO.N,Net-(U1-Pad8)*%
X127900000Y-111185000D03*
%TO.P,U1,7*%
%TO.N,Net-(U1-Pad7)*%
X127900000Y-109915000D03*
%TO.P,U1,6*%
%TO.N,Net-(U1-Pad6)*%
X127900000Y-108645000D03*
%TO.P,U1,5*%
%TO.N,GND*%
X127900000Y-107375000D03*
%TO.P,U1,4*%
X127900000Y-106105000D03*
%TO.P,U1,3*%
%TO.N,EN*%
X127900000Y-104835000D03*
%TO.P,U1,2*%
%TO.N,+3V3*%
X127900000Y-103565000D03*
%TO.P,U1,1*%
%TO.N,GND*%
X127900000Y-102295000D03*
D14*
%TO.P,U1,39*%
X120400000Y-109795000D03*
%TD*%
D15*
%TO.P,J3,2*%
%TO.N,+12V*%
X126600000Y-125460000D03*
D16*
%TO.P,J3,1*%
%TO.N,GND*%
X126600000Y-128000000D03*
%TD*%
D17*
%TO.P,J1,1*%
%TO.N,GND*%
X125745000Y-122900000D03*
D18*
%TO.P,J1,2*%
%TO.N,IO1*%
X123205000Y-122900000D03*
%TO.P,J1,3*%
%TO.N,IO2*%
X120665000Y-122900000D03*
%TO.P,J1,4*%
%TO.N,IO3*%
X118125000Y-122900000D03*
%TO.P,J1,5*%
%TO.N,IO4*%
X115585000Y-122900000D03*
%TO.P,J1,6*%
%TO.N,Net-(J1-Pad6)*%
X113045000Y-122900000D03*
%TD*%
D19*
%TO.P,J2,S1*%
%TO.N,GND*%
X127010000Y-106875000D03*
X127010000Y-115525000D03*
D15*
X122830000Y-106875000D03*
X122830000Y-115525000D03*
D20*
X123310000Y-108310000D03*
X123310000Y-114090000D03*
%TD*%
D21*
%TO.N,D+*%
X120619989Y-106694998D03*
X120000000Y-112895002D03*
%TO.N,GND*%
X115300000Y-107300000D03*
X114800008Y-118100023D03*
X112624981Y-112002892D03*
%TO.N,D-*%
X116100000Y-110000000D03*
X119871755Y-114246436D03*
%TO.N,+3V3*%
X124656599Y-102625010D03*
%TO.N,IO5*%
X110900000Y-121800000D03*
%TO.N,O*%
X119568405Y-116043086D03*
%TO.N,I*%
X115000000Y-116200000D03*
%TO.N,EN*%
X117507039Y-116549978D03*
%TO.N,Net-(J2-PadA5)*%
X120567316Y-115996171D03*
X120125010Y-103800000D03*
%TO.N,LED*%
X125780033Y-106074970D03*
%TO.N,BOOT*%
X113102066Y-117311725D03*
%TD*%
D22*
%TO.N,D+*%
X124155001Y-111508589D02*
X124155001Y-106238999D01*
X120275001Y-112620001D02*
X123043589Y-112620001D01*
X124155001Y-106238999D02*
X123466001Y-105549999D01*
X120000000Y-112895002D02*
X120275001Y-112620001D01*
X123043589Y-112620001D02*
X124155001Y-111508589D01*
X123466001Y-105549999D02*
X121764988Y-105549999D01*
X121764988Y-105549999D02*
X120619989Y-106694998D01*
%TO.N,GND*%
X116600000Y-113300000D02*
X116600000Y-115258321D01*
D23*
X117795000Y-109795000D02*
X120400000Y-109795000D01*
X115300000Y-107300000D02*
X117795000Y-109795000D01*
D22*
X127540000Y-114995000D02*
X127010000Y-115525000D01*
X127900000Y-114995000D02*
X127540000Y-114995000D01*
X127750000Y-116265000D02*
X127010000Y-115525000D01*
X127900000Y-116265000D02*
X127750000Y-116265000D01*
X127780000Y-106105000D02*
X127010000Y-106875000D01*
X127900000Y-106105000D02*
X127780000Y-106105000D01*
X127510000Y-107375000D02*
X127010000Y-106875000D01*
X127900000Y-107375000D02*
X127510000Y-107375000D01*
X114800031Y-118100000D02*
X114800008Y-118100023D01*
X120255000Y-118100000D02*
X114800031Y-118100000D01*
X116600000Y-116300031D02*
X114800008Y-118100023D01*
X116600000Y-113300000D02*
X116600000Y-116300031D01*
X114336410Y-116836411D02*
X114336410Y-117636425D01*
X114336410Y-117636425D02*
X114800008Y-118100023D01*
X114100000Y-116600001D02*
X114336410Y-116836411D01*
X114100000Y-113400000D02*
X114100000Y-116600001D01*
X116200000Y-116700031D02*
X114800008Y-118100023D01*
X116200000Y-116000000D02*
X116200000Y-116700031D01*
X118000000Y-115500000D02*
X116700000Y-115500000D01*
X119500000Y-117000000D02*
X118000000Y-115500000D01*
X116700000Y-115500000D02*
X116200000Y-116000000D01*
X121355000Y-117000000D02*
X119500000Y-117000000D01*
X122830000Y-115525000D02*
X121355000Y-117000000D01*
X114300000Y-113400000D02*
X112902892Y-112002892D01*
X112902892Y-112002892D02*
X112624981Y-112002892D01*
%TO.N,D-*%
X118966434Y-114246436D02*
X119871755Y-114246436D01*
X116100000Y-110000000D02*
X116100000Y-111380002D01*
X116100000Y-111380002D02*
X118966434Y-114246436D01*
%TO.N,+3V3*%
X125596589Y-103565000D02*
X124656599Y-102625010D01*
X127900000Y-103565000D02*
X125596589Y-103565000D01*
%TO.N,IO5*%
X112869669Y-116386400D02*
X113249989Y-116386400D01*
X113886400Y-117122811D02*
X113886400Y-117568598D01*
X112909999Y-118544999D02*
X112909999Y-119790001D01*
X110900000Y-117535000D02*
X111721069Y-117535000D01*
X111721069Y-117535000D02*
X112869669Y-116386400D01*
X112909999Y-119790001D02*
X110900000Y-121800000D01*
X113886400Y-117568598D02*
X112909999Y-118544999D01*
X113749989Y-116986400D02*
X113886400Y-117122811D01*
X113249989Y-116386400D02*
X113749989Y-116886400D01*
%TO.N,IO4*%
X124380001Y-123464001D02*
X123769001Y-124075001D01*
X124380001Y-121979997D02*
X124380001Y-123464001D01*
X116760001Y-124075001D02*
X115585000Y-122900000D01*
X124634999Y-121724999D02*
X124380001Y-121979997D01*
X125775001Y-121724999D02*
X124634999Y-121724999D01*
X125890001Y-121609999D02*
X125775001Y-121724999D01*
X125890001Y-118294999D02*
X125890001Y-121609999D01*
X123769001Y-124075001D02*
X116760001Y-124075001D01*
X126650000Y-117535000D02*
X125890001Y-118294999D01*
X127900000Y-117535000D02*
X126650000Y-117535000D01*
%TO.N,IO3*%
X116949999Y-121724999D02*
X118125000Y-122900000D01*
X114354999Y-121724999D02*
X116949999Y-121724999D01*
X113685000Y-121055000D02*
X114354999Y-121724999D01*
X113685000Y-119805000D02*
X113685000Y-121055000D01*
%TO.N,IO2*%
X118895001Y-121130001D02*
X120665000Y-122900000D01*
X115030001Y-121130001D02*
X118895001Y-121130001D01*
X114955000Y-121055000D02*
X115030001Y-121130001D01*
X114955000Y-119805000D02*
X114955000Y-121055000D01*
%TO.N,IO1*%
X123845000Y-122260000D02*
X123205000Y-122900000D01*
X123845000Y-119805000D02*
X123845000Y-122260000D01*
%TO.N,O*%
X110900000Y-106105000D02*
X112150000Y-106105000D01*
X112150000Y-106105000D02*
X114582703Y-108537703D01*
X114582703Y-110542701D02*
X119568405Y-115528403D01*
X119568405Y-115528403D02*
X119568405Y-116043086D01*
X114582703Y-108537703D02*
X114582703Y-110542701D01*
%TO.N,I*%
X115000000Y-112601531D02*
X115000000Y-116200000D01*
X113402868Y-111004399D02*
X115000000Y-112601531D01*
X110900000Y-107375000D02*
X112150000Y-107375000D01*
X112150000Y-107375000D02*
X113402868Y-108627868D01*
X113402868Y-108627868D02*
X113402868Y-111004399D01*
%TO.N,EN*%
X127900000Y-104835000D02*
X125591996Y-104835000D01*
X124358001Y-113441999D02*
X124358001Y-115958001D01*
X125591996Y-104835000D02*
X125055023Y-105371973D01*
X124358001Y-115958001D02*
X122765991Y-117550011D01*
X125055023Y-105371973D02*
X125055023Y-112744977D01*
X125055023Y-112744977D02*
X124358001Y-113441999D01*
X118507072Y-117550011D02*
X118949989Y-117550011D01*
X117507039Y-116549978D02*
X118507072Y-117550011D01*
X118949989Y-117550011D02*
X118613600Y-117550011D01*
X122765991Y-117550011D02*
X118949989Y-117550011D01*
%TO.N,Net-(J2-PadA5)*%
X124605012Y-112394988D02*
X124605012Y-106052600D01*
X123929988Y-113070012D02*
X124605012Y-112394988D01*
X122927790Y-113070012D02*
X123929988Y-113070012D01*
X120567316Y-115996171D02*
X120567316Y-115430486D01*
X124605012Y-106052600D02*
X122352412Y-103800000D01*
X122352412Y-103800000D02*
X120125010Y-103800000D01*
X120567316Y-115430486D02*
X122927790Y-113070012D01*
%TO.N,LED*%
X127900000Y-113725000D02*
X126650000Y-113725000D01*
X125780033Y-107480033D02*
X125880033Y-107480033D01*
X125780033Y-107480033D02*
X125780033Y-106074970D01*
X125880033Y-107480033D02*
X126500000Y-108100000D01*
X126500000Y-113575000D02*
X126650000Y-113725000D01*
X126500000Y-108100000D02*
X126500000Y-113575000D01*
%TO.N,BOOT*%
X111608791Y-118805000D02*
X113102066Y-117311725D01*
X110900000Y-118805000D02*
X111608791Y-118805000D01*
%TD*%
D24*
%TO.N,GND*%
X126521176Y-119255000D02*
X126528455Y-119328905D01*
X126550012Y-119399970D01*
X126585019Y-119465463D01*
X126632131Y-119522869D01*
X126689537Y-119569981D01*
X126755030Y-119604988D01*
X126826095Y-119626545D01*
X126900000Y-119633824D01*
X128473000Y-119633824D01*
X128473000Y-128979117D01*
X128460078Y-129110899D01*
X128427873Y-129217570D01*
X128375558Y-129315961D01*
X128305130Y-129402313D01*
X128219270Y-129473343D01*
X128121255Y-129526339D01*
X128014807Y-129559290D01*
X127884371Y-129573000D01*
X127875053Y-129573000D01*
X127954494Y-129530537D01*
X128051185Y-129451185D01*
X128130537Y-129354494D01*
X128189502Y-129244180D01*
X128225812Y-129124482D01*
X128238072Y-129000000D01*
X128235000Y-128285750D01*
X128076250Y-128127000D01*
X126727000Y-128127000D01*
X126727000Y-128147000D01*
X126473000Y-128147000D01*
X126473000Y-128127000D01*
X125123750Y-128127000D01*
X124965000Y-128285750D01*
X124961928Y-129000000D01*
X124974188Y-129124482D01*
X125010498Y-129244180D01*
X125069463Y-129354494D01*
X125148815Y-129451185D01*
X125245506Y-129530537D01*
X125324947Y-129573000D01*
X110920883Y-129573000D01*
X110789101Y-129560078D01*
X110682430Y-129527873D01*
X110584039Y-129475558D01*
X110497687Y-129405130D01*
X110426657Y-129319270D01*
X110373661Y-129221255D01*
X110340710Y-129114807D01*
X110327000Y-128984371D01*
X110327000Y-125368000D01*
X111873000Y-125368000D01*
X111873000Y-128672000D01*
X124927000Y-128672000D01*
X124927000Y-125368000D01*
X111873000Y-125368000D01*
X110327000Y-125368000D01*
X110327000Y-122779151D01*
X111818000Y-122779151D01*
X111818000Y-123020849D01*
X111865153Y-123257903D01*
X111957647Y-123481202D01*
X112091927Y-123682167D01*
X112262833Y-123853073D01*
X112463798Y-123987353D01*
X112687097Y-124079847D01*
X112924151Y-124127000D01*
X113165849Y-124127000D01*
X113402903Y-124079847D01*
X113626202Y-123987353D01*
X113827167Y-123853073D01*
X113998073Y-123682167D01*
X114132353Y-123481202D01*
X114224847Y-123257903D01*
X114272000Y-123020849D01*
X114272000Y-122779151D01*
X114224847Y-122542097D01*
X114132353Y-122318798D01*
X113998073Y-122117833D01*
X113827167Y-121946927D01*
X113626202Y-121812647D01*
X113402903Y-121720153D01*
X113165849Y-121673000D01*
X112924151Y-121673000D01*
X112687097Y-121720153D01*
X112463798Y-121812647D01*
X112262833Y-121946927D01*
X112091927Y-122117833D01*
X111957647Y-122318798D01*
X111865153Y-122542097D01*
X111818000Y-122779151D01*
X110327000Y-122779151D01*
X110327000Y-122325845D01*
X110404691Y-122403536D01*
X110531952Y-122488569D01*
X110673357Y-122547141D01*
X110823472Y-122577000D01*
X110976528Y-122577000D01*
X111126643Y-122547141D01*
X111268048Y-122488569D01*
X111395309Y-122403536D01*
X111503536Y-122295309D01*
X111588569Y-122168048D01*
X111647141Y-122026643D01*
X111677000Y-121876528D01*
X111677000Y-121732934D01*
X112856176Y-120553760D01*
X112856176Y-120805000D01*
X112863455Y-120878905D01*
X112885012Y-120949970D01*
X112920019Y-121015463D01*
X112967131Y-121072869D01*
X113024537Y-121119981D01*
X113090030Y-121154988D01*
X113161095Y-121176545D01*
X113198398Y-121180219D01*
X113218970Y-121248036D01*
X113265584Y-121335245D01*
X113312601Y-121392535D01*
X113312604Y-121392538D01*
X113328317Y-121411684D01*
X113347462Y-121427397D01*
X113982606Y-122062542D01*
X113998315Y-122081683D01*
X114017455Y-122097391D01*
X114017463Y-122097399D01*
X114074753Y-122144416D01*
X114121367Y-122169331D01*
X114161963Y-122191030D01*
X114256590Y-122219735D01*
X114330346Y-122226999D01*
X114330356Y-122226999D01*
X114354999Y-122229426D01*
X114379642Y-122226999D01*
X114558985Y-122226999D01*
X114497647Y-122318798D01*
X114405153Y-122542097D01*
X114358000Y-122779151D01*
X114358000Y-123020849D01*
X114405153Y-123257903D01*
X114497647Y-123481202D01*
X114631927Y-123682167D01*
X114802833Y-123853073D01*
X115003798Y-123987353D01*
X115227097Y-124079847D01*
X115464151Y-124127000D01*
X115705849Y-124127000D01*
X115942903Y-124079847D01*
X116022105Y-124047040D01*
X116387604Y-124412539D01*
X116403317Y-124431685D01*
X116479756Y-124494418D01*
X116566965Y-124541032D01*
X116661592Y-124569737D01*
X116735348Y-124577001D01*
X116735357Y-124577001D01*
X116760000Y-124579428D01*
X116784643Y-124577001D01*
X123744358Y-124577001D01*
X123769001Y-124579428D01*
X123793644Y-124577001D01*
X123793654Y-124577001D01*
X123867410Y-124569737D01*
X123962037Y-124541032D01*
X124049246Y-124494418D01*
X124125685Y-124431685D01*
X124141402Y-124412534D01*
X124402768Y-124151169D01*
X124443815Y-124201185D01*
X124540506Y-124280537D01*
X124650820Y-124339502D01*
X124770518Y-124375812D01*
X124895000Y-124388072D01*
X125459250Y-124385000D01*
X125617998Y-124226252D01*
X125617998Y-124385000D01*
X125730316Y-124385000D01*
X125722213Y-124390414D01*
X125530414Y-124582213D01*
X125379718Y-124807746D01*
X125275917Y-125058344D01*
X125223000Y-125324377D01*
X125223000Y-125595623D01*
X125275917Y-125861656D01*
X125379718Y-126112254D01*
X125530414Y-126337787D01*
X125558630Y-126366003D01*
X125475518Y-126374188D01*
X125355820Y-126410498D01*
X125245506Y-126469463D01*
X125148815Y-126548815D01*
X125069463Y-126645506D01*
X125010498Y-126755820D01*
X124974188Y-126875518D01*
X124961928Y-127000000D01*
X124965000Y-127714250D01*
X125123750Y-127873000D01*
X126473000Y-127873000D01*
X126473000Y-127853000D01*
X126727000Y-127853000D01*
X126727000Y-127873000D01*
X128076250Y-127873000D01*
X128235000Y-127714250D01*
X128238072Y-127000000D01*
X128225812Y-126875518D01*
X128189502Y-126755820D01*
X128130537Y-126645506D01*
X128051185Y-126548815D01*
X127954494Y-126469463D01*
X127844180Y-126410498D01*
X127724482Y-126374188D01*
X127641370Y-126366003D01*
X127669586Y-126337787D01*
X127820282Y-126112254D01*
X127924083Y-125861656D01*
X127977000Y-125595623D01*
X127977000Y-125324377D01*
X127924083Y-125058344D01*
X127820282Y-124807746D01*
X127669586Y-124582213D01*
X127477787Y-124390414D01*
X127252254Y-124239718D01*
X127074863Y-124166240D01*
X127125537Y-124104494D01*
X127184502Y-123994180D01*
X127220812Y-123874482D01*
X127233072Y-123750000D01*
X127230000Y-123185750D01*
X127071250Y-123027000D01*
X125872000Y-123027000D01*
X125872000Y-123047000D01*
X125618000Y-123047000D01*
X125618000Y-123027000D01*
X125598000Y-123027000D01*
X125598000Y-122773000D01*
X125618000Y-122773000D01*
X125618000Y-122753000D01*
X125872000Y-122753000D01*
X125872000Y-122773000D01*
X127071250Y-122773000D01*
X127230000Y-122614250D01*
X127233072Y-122050000D01*
X127220812Y-121925518D01*
X127184502Y-121805820D01*
X127125537Y-121695506D01*
X127046185Y-121598815D01*
X126949494Y-121519463D01*
X126839180Y-121460498D01*
X126719482Y-121424188D01*
X126595000Y-121411928D01*
X126392001Y-121413033D01*
X126392001Y-118502933D01*
X126521176Y-118373758D01*
X126521176Y-119255000D01*
%TA.AperFunction,Conductor*%
D25*
G36*
X126521176Y-119255000D02*
G01*
X126528455Y-119328905D01*
X126550012Y-119399970D01*
X126585019Y-119465463D01*
X126632131Y-119522869D01*
X126689537Y-119569981D01*
X126755030Y-119604988D01*
X126826095Y-119626545D01*
X126900000Y-119633824D01*
X128473000Y-119633824D01*
X128473000Y-128979117D01*
X128460078Y-129110899D01*
X128427873Y-129217570D01*
X128375558Y-129315961D01*
X128305130Y-129402313D01*
X128219270Y-129473343D01*
X128121255Y-129526339D01*
X128014807Y-129559290D01*
X127884371Y-129573000D01*
X127875053Y-129573000D01*
X127954494Y-129530537D01*
X128051185Y-129451185D01*
X128130537Y-129354494D01*
X128189502Y-129244180D01*
X128225812Y-129124482D01*
X128238072Y-129000000D01*
X128235000Y-128285750D01*
X128076250Y-128127000D01*
X126727000Y-128127000D01*
X126727000Y-128147000D01*
X126473000Y-128147000D01*
X126473000Y-128127000D01*
X125123750Y-128127000D01*
X124965000Y-128285750D01*
X124961928Y-129000000D01*
X124974188Y-129124482D01*
X125010498Y-129244180D01*
X125069463Y-129354494D01*
X125148815Y-129451185D01*
X125245506Y-129530537D01*
X125324947Y-129573000D01*
X110920883Y-129573000D01*
X110789101Y-129560078D01*
X110682430Y-129527873D01*
X110584039Y-129475558D01*
X110497687Y-129405130D01*
X110426657Y-129319270D01*
X110373661Y-129221255D01*
X110340710Y-129114807D01*
X110327000Y-128984371D01*
X110327000Y-125368000D01*
X111873000Y-125368000D01*
X111873000Y-128672000D01*
X124927000Y-128672000D01*
X124927000Y-125368000D01*
X111873000Y-125368000D01*
X110327000Y-125368000D01*
X110327000Y-122779151D01*
X111818000Y-122779151D01*
X111818000Y-123020849D01*
X111865153Y-123257903D01*
X111957647Y-123481202D01*
X112091927Y-123682167D01*
X112262833Y-123853073D01*
X112463798Y-123987353D01*
X112687097Y-124079847D01*
X112924151Y-124127000D01*
X113165849Y-124127000D01*
X113402903Y-124079847D01*
X113626202Y-123987353D01*
X113827167Y-123853073D01*
X113998073Y-123682167D01*
X114132353Y-123481202D01*
X114224847Y-123257903D01*
X114272000Y-123020849D01*
X114272000Y-122779151D01*
X114224847Y-122542097D01*
X114132353Y-122318798D01*
X113998073Y-122117833D01*
X113827167Y-121946927D01*
X113626202Y-121812647D01*
X113402903Y-121720153D01*
X113165849Y-121673000D01*
X112924151Y-121673000D01*
X112687097Y-121720153D01*
X112463798Y-121812647D01*
X112262833Y-121946927D01*
X112091927Y-122117833D01*
X111957647Y-122318798D01*
X111865153Y-122542097D01*
X111818000Y-122779151D01*
X110327000Y-122779151D01*
X110327000Y-122325845D01*
X110404691Y-122403536D01*
X110531952Y-122488569D01*
X110673357Y-122547141D01*
X110823472Y-122577000D01*
X110976528Y-122577000D01*
X111126643Y-122547141D01*
X111268048Y-122488569D01*
X111395309Y-122403536D01*
X111503536Y-122295309D01*
X111588569Y-122168048D01*
X111647141Y-122026643D01*
X111677000Y-121876528D01*
X111677000Y-121732934D01*
X112856176Y-120553760D01*
X112856176Y-120805000D01*
X112863455Y-120878905D01*
X112885012Y-120949970D01*
X112920019Y-121015463D01*
X112967131Y-121072869D01*
X113024537Y-121119981D01*
X113090030Y-121154988D01*
X113161095Y-121176545D01*
X113198398Y-121180219D01*
X113218970Y-121248036D01*
X113265584Y-121335245D01*
X113312601Y-121392535D01*
X113312604Y-121392538D01*
X113328317Y-121411684D01*
X113347462Y-121427397D01*
X113982606Y-122062542D01*
X113998315Y-122081683D01*
X114017455Y-122097391D01*
X114017463Y-122097399D01*
X114074753Y-122144416D01*
X114121367Y-122169331D01*
X114161963Y-122191030D01*
X114256590Y-122219735D01*
X114330346Y-122226999D01*
X114330356Y-122226999D01*
X114354999Y-122229426D01*
X114379642Y-122226999D01*
X114558985Y-122226999D01*
X114497647Y-122318798D01*
X114405153Y-122542097D01*
X114358000Y-122779151D01*
X114358000Y-123020849D01*
X114405153Y-123257903D01*
X114497647Y-123481202D01*
X114631927Y-123682167D01*
X114802833Y-123853073D01*
X115003798Y-123987353D01*
X115227097Y-124079847D01*
X115464151Y-124127000D01*
X115705849Y-124127000D01*
X115942903Y-124079847D01*
X116022105Y-124047040D01*
X116387604Y-124412539D01*
X116403317Y-124431685D01*
X116479756Y-124494418D01*
X116566965Y-124541032D01*
X116661592Y-124569737D01*
X116735348Y-124577001D01*
X116735357Y-124577001D01*
X116760000Y-124579428D01*
X116784643Y-124577001D01*
X123744358Y-124577001D01*
X123769001Y-124579428D01*
X123793644Y-124577001D01*
X123793654Y-124577001D01*
X123867410Y-124569737D01*
X123962037Y-124541032D01*
X124049246Y-124494418D01*
X124125685Y-124431685D01*
X124141402Y-124412534D01*
X124402768Y-124151169D01*
X124443815Y-124201185D01*
X124540506Y-124280537D01*
X124650820Y-124339502D01*
X124770518Y-124375812D01*
X124895000Y-124388072D01*
X125459250Y-124385000D01*
X125617998Y-124226252D01*
X125617998Y-124385000D01*
X125730316Y-124385000D01*
X125722213Y-124390414D01*
X125530414Y-124582213D01*
X125379718Y-124807746D01*
X125275917Y-125058344D01*
X125223000Y-125324377D01*
X125223000Y-125595623D01*
X125275917Y-125861656D01*
X125379718Y-126112254D01*
X125530414Y-126337787D01*
X125558630Y-126366003D01*
X125475518Y-126374188D01*
X125355820Y-126410498D01*
X125245506Y-126469463D01*
X125148815Y-126548815D01*
X125069463Y-126645506D01*
X125010498Y-126755820D01*
X124974188Y-126875518D01*
X124961928Y-127000000D01*
X124965000Y-127714250D01*
X125123750Y-127873000D01*
X126473000Y-127873000D01*
X126473000Y-127853000D01*
X126727000Y-127853000D01*
X126727000Y-127873000D01*
X128076250Y-127873000D01*
X128235000Y-127714250D01*
X128238072Y-127000000D01*
X128225812Y-126875518D01*
X128189502Y-126755820D01*
X128130537Y-126645506D01*
X128051185Y-126548815D01*
X127954494Y-126469463D01*
X127844180Y-126410498D01*
X127724482Y-126374188D01*
X127641370Y-126366003D01*
X127669586Y-126337787D01*
X127820282Y-126112254D01*
X127924083Y-125861656D01*
X127977000Y-125595623D01*
X127977000Y-125324377D01*
X127924083Y-125058344D01*
X127820282Y-124807746D01*
X127669586Y-124582213D01*
X127477787Y-124390414D01*
X127252254Y-124239718D01*
X127074863Y-124166240D01*
X127125537Y-124104494D01*
X127184502Y-123994180D01*
X127220812Y-123874482D01*
X127233072Y-123750000D01*
X127230000Y-123185750D01*
X127071250Y-123027000D01*
X125872000Y-123027000D01*
X125872000Y-123047000D01*
X125618000Y-123047000D01*
X125618000Y-123027000D01*
X125598000Y-123027000D01*
X125598000Y-122773000D01*
X125618000Y-122773000D01*
X125618000Y-122753000D01*
X125872000Y-122753000D01*
X125872000Y-122773000D01*
X127071250Y-122773000D01*
X127230000Y-122614250D01*
X127233072Y-122050000D01*
X127220812Y-121925518D01*
X127184502Y-121805820D01*
X127125537Y-121695506D01*
X127046185Y-121598815D01*
X126949494Y-121519463D01*
X126839180Y-121460498D01*
X126719482Y-121424188D01*
X126595000Y-121411928D01*
X126392001Y-121413033D01*
X126392001Y-118502933D01*
X126521176Y-118373758D01*
X126521176Y-119255000D01*
G37*
%TD.AperFunction*%
D24*
X125586997Y-107946064D02*
X125657524Y-107967458D01*
X125998000Y-108307936D01*
X125998001Y-113550347D01*
X125995573Y-113575000D01*
X126005265Y-113673409D01*
X126033970Y-113768036D01*
X126080584Y-113855245D01*
X126127601Y-113912535D01*
X126127604Y-113912538D01*
X126143317Y-113931684D01*
X126162463Y-113947397D01*
X126277598Y-114062532D01*
X126293316Y-114081684D01*
X126369755Y-114144417D01*
X126395843Y-114158361D01*
X126385685Y-114170740D01*
X126376253Y-114174081D01*
X126238843Y-114247528D01*
X126161208Y-114496603D01*
X126262925Y-114598320D01*
X126265000Y-114709250D01*
X126423748Y-114867998D01*
X126265000Y-114867998D01*
X126265000Y-114959605D01*
X125981603Y-114676208D01*
X125732528Y-114753843D01*
X125606629Y-115017883D01*
X125534661Y-115301411D01*
X125519389Y-115593531D01*
X125561401Y-115883019D01*
X125659081Y-116158747D01*
X125732528Y-116296157D01*
X125981603Y-116373792D01*
X126320573Y-116034823D01*
X126423750Y-116138000D01*
X126576605Y-116138000D01*
X126161208Y-116553397D01*
X126238843Y-116802472D01*
X126272105Y-116818332D01*
X126274188Y-116839482D01*
X126310498Y-116959180D01*
X126369463Y-117069494D01*
X126395843Y-117101639D01*
X126369755Y-117115583D01*
X126360949Y-117122810D01*
X126323537Y-117153514D01*
X126293316Y-117178316D01*
X126277603Y-117197462D01*
X125552468Y-117922598D01*
X125533317Y-117938315D01*
X125470584Y-118014754D01*
X125423970Y-118101964D01*
X125403346Y-118169951D01*
X125400750Y-118170000D01*
X125242000Y-118328750D01*
X125242000Y-119678000D01*
X125262000Y-119678000D01*
X125262000Y-119932000D01*
X125242000Y-119932000D01*
X125242000Y-119952000D01*
X124988000Y-119952000D01*
X124988000Y-119932000D01*
X124968000Y-119932000D01*
X124968000Y-119678000D01*
X124988000Y-119678000D01*
X124988000Y-118328750D01*
X124829250Y-118170000D01*
X124665000Y-118166928D01*
X124540518Y-118179188D01*
X124420820Y-118215498D01*
X124310506Y-118274463D01*
X124213815Y-118353815D01*
X124154430Y-118426176D01*
X123395000Y-118426176D01*
X123321095Y-118433455D01*
X123250030Y-118455012D01*
X123210000Y-118476409D01*
X123169970Y-118455012D01*
X123098905Y-118433455D01*
X123025000Y-118426176D01*
X122125000Y-118426176D01*
X122051095Y-118433455D01*
X121980030Y-118455012D01*
X121940000Y-118476409D01*
X121899970Y-118455012D01*
X121828905Y-118433455D01*
X121755000Y-118426176D01*
X120855000Y-118426176D01*
X120781095Y-118433455D01*
X120710030Y-118455012D01*
X120670000Y-118476409D01*
X120629970Y-118455012D01*
X120558905Y-118433455D01*
X120485000Y-118426176D01*
X119585000Y-118426176D01*
X119511095Y-118433455D01*
X119440030Y-118455012D01*
X119400000Y-118476409D01*
X119359970Y-118455012D01*
X119288905Y-118433455D01*
X119215000Y-118426176D01*
X118315000Y-118426176D01*
X118241095Y-118433455D01*
X118170030Y-118455012D01*
X118130000Y-118476409D01*
X118089970Y-118455012D01*
X118018905Y-118433455D01*
X117945000Y-118426176D01*
X117045000Y-118426176D01*
X116971095Y-118433455D01*
X116900030Y-118455012D01*
X116860000Y-118476409D01*
X116819970Y-118455012D01*
X116748905Y-118433455D01*
X116675000Y-118426176D01*
X115775000Y-118426176D01*
X115701095Y-118433455D01*
X115630030Y-118455012D01*
X115590000Y-118476409D01*
X115549970Y-118455012D01*
X115478905Y-118433455D01*
X115405000Y-118426176D01*
X114505000Y-118426176D01*
X114431095Y-118433455D01*
X114360030Y-118455012D01*
X114320000Y-118476409D01*
X114279970Y-118455012D01*
X114208905Y-118433455D01*
X114135000Y-118426176D01*
X113738756Y-118426176D01*
X114223938Y-117940995D01*
X114243084Y-117925282D01*
X114258797Y-117906136D01*
X114258800Y-117906133D01*
X114305817Y-117848844D01*
X114352431Y-117761635D01*
X114381136Y-117667008D01*
X114382884Y-117649261D01*
X114388400Y-117593250D01*
X114388400Y-117593244D01*
X114390827Y-117568598D01*
X114388400Y-117543953D01*
X114388400Y-117147453D01*
X114390827Y-117122810D01*
X114388400Y-117098167D01*
X114388400Y-117098158D01*
X114381136Y-117024402D01*
X114352431Y-116929775D01*
X114305817Y-116842566D01*
X114243084Y-116766127D01*
X114236437Y-116760672D01*
X114216019Y-116693363D01*
X114169406Y-116606154D01*
X114122389Y-116548864D01*
X113622390Y-116048867D01*
X113606673Y-116029716D01*
X113530234Y-115966983D01*
X113443025Y-115920369D01*
X113348398Y-115891664D01*
X113274642Y-115884400D01*
X113274632Y-115884400D01*
X113249989Y-115881973D01*
X113225346Y-115884400D01*
X112894312Y-115884400D01*
X112869669Y-115881973D01*
X112845026Y-115884400D01*
X112845016Y-115884400D01*
X112771260Y-115891664D01*
X112676633Y-115920369D01*
X112667556Y-115925221D01*
X112589423Y-115966983D01*
X112532133Y-116014000D01*
X112532125Y-116014008D01*
X112512985Y-116029716D01*
X112497276Y-116048857D01*
X112278824Y-116267309D01*
X112278824Y-115815000D01*
X112271545Y-115741095D01*
X112249988Y-115670030D01*
X112228591Y-115630000D01*
X112249988Y-115589970D01*
X112271545Y-115518905D01*
X112278824Y-115445000D01*
X112278824Y-114545000D01*
X112271545Y-114471095D01*
X112249988Y-114400030D01*
X112228591Y-114360000D01*
X112249988Y-114319970D01*
X112271545Y-114248905D01*
X112278824Y-114175000D01*
X112278824Y-113275000D01*
X112271545Y-113201095D01*
X112249988Y-113130030D01*
X112228591Y-113090000D01*
X112249988Y-113049970D01*
X112271545Y-112978905D01*
X112278824Y-112905000D01*
X112278824Y-112005000D01*
X112271545Y-111931095D01*
X112249988Y-111860030D01*
X112228591Y-111820000D01*
X112249988Y-111779970D01*
X112271545Y-111708905D01*
X112278824Y-111635000D01*
X112278824Y-110735000D01*
X112271545Y-110661095D01*
X112249988Y-110590030D01*
X112228591Y-110550000D01*
X112249988Y-110509970D01*
X112271545Y-110438905D01*
X112278824Y-110365000D01*
X112278824Y-109465000D01*
X112271545Y-109391095D01*
X112249988Y-109320030D01*
X112228591Y-109280000D01*
X112249988Y-109239970D01*
X112271545Y-109168905D01*
X112278824Y-109095000D01*
X112278824Y-108213758D01*
X112900868Y-108835803D01*
X112900869Y-110979746D01*
X112898441Y-111004399D01*
X112908133Y-111102808D01*
X112936838Y-111197435D01*
X112983452Y-111284644D01*
X113030469Y-111341934D01*
X113030472Y-111341937D01*
X113046185Y-111361083D01*
X113065331Y-111376796D01*
X114498000Y-112809467D01*
X114498001Y-115603154D01*
X114396464Y-115704691D01*
X114311431Y-115831952D01*
X114252859Y-115973357D01*
X114223000Y-116123472D01*
X114223000Y-116276528D01*
X114252859Y-116426643D01*
X114311431Y-116568048D01*
X114396464Y-116695309D01*
X114504691Y-116803536D01*
X114631952Y-116888569D01*
X114773357Y-116947141D01*
X114923472Y-116977000D01*
X115076528Y-116977000D01*
X115226643Y-116947141D01*
X115368048Y-116888569D01*
X115495309Y-116803536D01*
X115603536Y-116695309D01*
X115688569Y-116568048D01*
X115747141Y-116426643D01*
X115777000Y-116276528D01*
X115777000Y-116123472D01*
X115747141Y-115973357D01*
X115688569Y-115831952D01*
X115603536Y-115704691D01*
X115502000Y-115603155D01*
X115502000Y-112626174D01*
X115504427Y-112601531D01*
X115502000Y-112576888D01*
X115502000Y-112576878D01*
X115494736Y-112503122D01*
X115466031Y-112408495D01*
X115444332Y-112367899D01*
X115419417Y-112321285D01*
X115372400Y-112263995D01*
X115372392Y-112263987D01*
X115356684Y-112244847D01*
X115337543Y-112229138D01*
X113904868Y-110796465D01*
X113904868Y-108652511D01*
X113907295Y-108627868D01*
X113904868Y-108603225D01*
X113904868Y-108603215D01*
X113901218Y-108566154D01*
X114080703Y-108745639D01*
X114080704Y-110518048D01*
X114078276Y-110542701D01*
X114087968Y-110641110D01*
X114116673Y-110735737D01*
X114163287Y-110822946D01*
X114210304Y-110880236D01*
X114210307Y-110880239D01*
X114226020Y-110899385D01*
X114245166Y-110915098D01*
X118930012Y-115599945D01*
X118879836Y-115675038D01*
X118821264Y-115816443D01*
X118791405Y-115966558D01*
X118791405Y-116119614D01*
X118821264Y-116269729D01*
X118879836Y-116411134D01*
X118964869Y-116538395D01*
X119073096Y-116646622D01*
X119200357Y-116731655D01*
X119341762Y-116790227D01*
X119491877Y-116820086D01*
X119644933Y-116820086D01*
X119795048Y-116790227D01*
X119936453Y-116731655D01*
X120063714Y-116646622D01*
X120095159Y-116615177D01*
X120199268Y-116684740D01*
X120340673Y-116743312D01*
X120490788Y-116773171D01*
X120643844Y-116773171D01*
X120793959Y-116743312D01*
X120935364Y-116684740D01*
X121062625Y-116599707D01*
X121170852Y-116491480D01*
X121255885Y-116364219D01*
X121314457Y-116222814D01*
X121324249Y-116173585D01*
X121337205Y-116211088D01*
X121430186Y-116385044D01*
X121694587Y-116480808D01*
X122650395Y-115525000D01*
X122636253Y-115510858D01*
X122815858Y-115331253D01*
X122830000Y-115345395D01*
X122844143Y-115331253D01*
X123023748Y-115510858D01*
X123009605Y-115525000D01*
X123023748Y-115539143D01*
X122844143Y-115718748D01*
X122830000Y-115704605D01*
X121874192Y-116660413D01*
X121969956Y-116924814D01*
X122223201Y-117048011D01*
X118715007Y-117048011D01*
X118284039Y-116617044D01*
X118284039Y-116473450D01*
X118254180Y-116323335D01*
X118195608Y-116181930D01*
X118110575Y-116054669D01*
X118002348Y-115946442D01*
X117875087Y-115861409D01*
X117733682Y-115802837D01*
X117583567Y-115772978D01*
X117430511Y-115772978D01*
X117280396Y-115802837D01*
X117138991Y-115861409D01*
X117011730Y-115946442D01*
X116903503Y-116054669D01*
X116818470Y-116181930D01*
X116759898Y-116323335D01*
X116730039Y-116473450D01*
X116730039Y-116626506D01*
X116759898Y-116776621D01*
X116818470Y-116918026D01*
X116903503Y-117045287D01*
X117011730Y-117153514D01*
X117138991Y-117238547D01*
X117280396Y-117297119D01*
X117430511Y-117326978D01*
X117574105Y-117326978D01*
X118134675Y-117887549D01*
X118150388Y-117906695D01*
X118226827Y-117969428D01*
X118314036Y-118016042D01*
X118408663Y-118044747D01*
X118482419Y-118052011D01*
X118482428Y-118052011D01*
X118507071Y-118054438D01*
X118531714Y-118052011D01*
X122741348Y-118052011D01*
X122765991Y-118054438D01*
X122790634Y-118052011D01*
X122790644Y-118052011D01*
X122864400Y-118044747D01*
X122959027Y-118016042D01*
X123046236Y-117969428D01*
X123122675Y-117906695D01*
X123138392Y-117887544D01*
X124695539Y-116330398D01*
X124714685Y-116314685D01*
X124777418Y-116238246D01*
X124824032Y-116151037D01*
X124852737Y-116056410D01*
X124860001Y-115982654D01*
X124860001Y-115982645D01*
X124862428Y-115958002D01*
X124860001Y-115933359D01*
X124860001Y-113649933D01*
X125392561Y-113117374D01*
X125411707Y-113101661D01*
X125437681Y-113070013D01*
X125474439Y-113025223D01*
X125476724Y-113020948D01*
X125521054Y-112938013D01*
X125549759Y-112843386D01*
X125557023Y-112769630D01*
X125557023Y-112769620D01*
X125559450Y-112744977D01*
X125557023Y-112720334D01*
X125557023Y-107930043D01*
X125586997Y-107946064D01*
%TA.AperFunction,Conductor*%
D25*
G36*
X125586997Y-107946064D02*
G01*
X125657524Y-107967458D01*
X125998000Y-108307936D01*
X125998001Y-113550347D01*
X125995573Y-113575000D01*
X126005265Y-113673409D01*
X126033970Y-113768036D01*
X126080584Y-113855245D01*
X126127601Y-113912535D01*
X126127604Y-113912538D01*
X126143317Y-113931684D01*
X126162463Y-113947397D01*
X126277598Y-114062532D01*
X126293316Y-114081684D01*
X126369755Y-114144417D01*
X126395843Y-114158361D01*
X126385685Y-114170740D01*
X126376253Y-114174081D01*
X126238843Y-114247528D01*
X126161208Y-114496603D01*
X126262925Y-114598320D01*
X126265000Y-114709250D01*
X126423748Y-114867998D01*
X126265000Y-114867998D01*
X126265000Y-114959605D01*
X125981603Y-114676208D01*
X125732528Y-114753843D01*
X125606629Y-115017883D01*
X125534661Y-115301411D01*
X125519389Y-115593531D01*
X125561401Y-115883019D01*
X125659081Y-116158747D01*
X125732528Y-116296157D01*
X125981603Y-116373792D01*
X126320573Y-116034823D01*
X126423750Y-116138000D01*
X126576605Y-116138000D01*
X126161208Y-116553397D01*
X126238843Y-116802472D01*
X126272105Y-116818332D01*
X126274188Y-116839482D01*
X126310498Y-116959180D01*
X126369463Y-117069494D01*
X126395843Y-117101639D01*
X126369755Y-117115583D01*
X126360949Y-117122810D01*
X126323537Y-117153514D01*
X126293316Y-117178316D01*
X126277603Y-117197462D01*
X125552468Y-117922598D01*
X125533317Y-117938315D01*
X125470584Y-118014754D01*
X125423970Y-118101964D01*
X125403346Y-118169951D01*
X125400750Y-118170000D01*
X125242000Y-118328750D01*
X125242000Y-119678000D01*
X125262000Y-119678000D01*
X125262000Y-119932000D01*
X125242000Y-119932000D01*
X125242000Y-119952000D01*
X124988000Y-119952000D01*
X124988000Y-119932000D01*
X124968000Y-119932000D01*
X124968000Y-119678000D01*
X124988000Y-119678000D01*
X124988000Y-118328750D01*
X124829250Y-118170000D01*
X124665000Y-118166928D01*
X124540518Y-118179188D01*
X124420820Y-118215498D01*
X124310506Y-118274463D01*
X124213815Y-118353815D01*
X124154430Y-118426176D01*
X123395000Y-118426176D01*
X123321095Y-118433455D01*
X123250030Y-118455012D01*
X123210000Y-118476409D01*
X123169970Y-118455012D01*
X123098905Y-118433455D01*
X123025000Y-118426176D01*
X122125000Y-118426176D01*
X122051095Y-118433455D01*
X121980030Y-118455012D01*
X121940000Y-118476409D01*
X121899970Y-118455012D01*
X121828905Y-118433455D01*
X121755000Y-118426176D01*
X120855000Y-118426176D01*
X120781095Y-118433455D01*
X120710030Y-118455012D01*
X120670000Y-118476409D01*
X120629970Y-118455012D01*
X120558905Y-118433455D01*
X120485000Y-118426176D01*
X119585000Y-118426176D01*
X119511095Y-118433455D01*
X119440030Y-118455012D01*
X119400000Y-118476409D01*
X119359970Y-118455012D01*
X119288905Y-118433455D01*
X119215000Y-118426176D01*
X118315000Y-118426176D01*
X118241095Y-118433455D01*
X118170030Y-118455012D01*
X118130000Y-118476409D01*
X118089970Y-118455012D01*
X118018905Y-118433455D01*
X117945000Y-118426176D01*
X117045000Y-118426176D01*
X116971095Y-118433455D01*
X116900030Y-118455012D01*
X116860000Y-118476409D01*
X116819970Y-118455012D01*
X116748905Y-118433455D01*
X116675000Y-118426176D01*
X115775000Y-118426176D01*
X115701095Y-118433455D01*
X115630030Y-118455012D01*
X115590000Y-118476409D01*
X115549970Y-118455012D01*
X115478905Y-118433455D01*
X115405000Y-118426176D01*
X114505000Y-118426176D01*
X114431095Y-118433455D01*
X114360030Y-118455012D01*
X114320000Y-118476409D01*
X114279970Y-118455012D01*
X114208905Y-118433455D01*
X114135000Y-118426176D01*
X113738756Y-118426176D01*
X114223938Y-117940995D01*
X114243084Y-117925282D01*
X114258797Y-117906136D01*
X114258800Y-117906133D01*
X114305817Y-117848844D01*
X114352431Y-117761635D01*
X114381136Y-117667008D01*
X114382884Y-117649261D01*
X114388400Y-117593250D01*
X114388400Y-117593244D01*
X114390827Y-117568598D01*
X114388400Y-117543953D01*
X114388400Y-117147453D01*
X114390827Y-117122810D01*
X114388400Y-117098167D01*
X114388400Y-117098158D01*
X114381136Y-117024402D01*
X114352431Y-116929775D01*
X114305817Y-116842566D01*
X114243084Y-116766127D01*
X114236437Y-116760672D01*
X114216019Y-116693363D01*
X114169406Y-116606154D01*
X114122389Y-116548864D01*
X113622390Y-116048867D01*
X113606673Y-116029716D01*
X113530234Y-115966983D01*
X113443025Y-115920369D01*
X113348398Y-115891664D01*
X113274642Y-115884400D01*
X113274632Y-115884400D01*
X113249989Y-115881973D01*
X113225346Y-115884400D01*
X112894312Y-115884400D01*
X112869669Y-115881973D01*
X112845026Y-115884400D01*
X112845016Y-115884400D01*
X112771260Y-115891664D01*
X112676633Y-115920369D01*
X112667556Y-115925221D01*
X112589423Y-115966983D01*
X112532133Y-116014000D01*
X112532125Y-116014008D01*
X112512985Y-116029716D01*
X112497276Y-116048857D01*
X112278824Y-116267309D01*
X112278824Y-115815000D01*
X112271545Y-115741095D01*
X112249988Y-115670030D01*
X112228591Y-115630000D01*
X112249988Y-115589970D01*
X112271545Y-115518905D01*
X112278824Y-115445000D01*
X112278824Y-114545000D01*
X112271545Y-114471095D01*
X112249988Y-114400030D01*
X112228591Y-114360000D01*
X112249988Y-114319970D01*
X112271545Y-114248905D01*
X112278824Y-114175000D01*
X112278824Y-113275000D01*
X112271545Y-113201095D01*
X112249988Y-113130030D01*
X112228591Y-113090000D01*
X112249988Y-113049970D01*
X112271545Y-112978905D01*
X112278824Y-112905000D01*
X112278824Y-112005000D01*
X112271545Y-111931095D01*
X112249988Y-111860030D01*
X112228591Y-111820000D01*
X112249988Y-111779970D01*
X112271545Y-111708905D01*
X112278824Y-111635000D01*
X112278824Y-110735000D01*
X112271545Y-110661095D01*
X112249988Y-110590030D01*
X112228591Y-110550000D01*
X112249988Y-110509970D01*
X112271545Y-110438905D01*
X112278824Y-110365000D01*
X112278824Y-109465000D01*
X112271545Y-109391095D01*
X112249988Y-109320030D01*
X112228591Y-109280000D01*
X112249988Y-109239970D01*
X112271545Y-109168905D01*
X112278824Y-109095000D01*
X112278824Y-108213758D01*
X112900868Y-108835803D01*
X112900869Y-110979746D01*
X112898441Y-111004399D01*
X112908133Y-111102808D01*
X112936838Y-111197435D01*
X112983452Y-111284644D01*
X113030469Y-111341934D01*
X113030472Y-111341937D01*
X113046185Y-111361083D01*
X113065331Y-111376796D01*
X114498000Y-112809467D01*
X114498001Y-115603154D01*
X114396464Y-115704691D01*
X114311431Y-115831952D01*
X114252859Y-115973357D01*
X114223000Y-116123472D01*
X114223000Y-116276528D01*
X114252859Y-116426643D01*
X114311431Y-116568048D01*
X114396464Y-116695309D01*
X114504691Y-116803536D01*
X114631952Y-116888569D01*
X114773357Y-116947141D01*
X114923472Y-116977000D01*
X115076528Y-116977000D01*
X115226643Y-116947141D01*
X115368048Y-116888569D01*
X115495309Y-116803536D01*
X115603536Y-116695309D01*
X115688569Y-116568048D01*
X115747141Y-116426643D01*
X115777000Y-116276528D01*
X115777000Y-116123472D01*
X115747141Y-115973357D01*
X115688569Y-115831952D01*
X115603536Y-115704691D01*
X115502000Y-115603155D01*
X115502000Y-112626174D01*
X115504427Y-112601531D01*
X115502000Y-112576888D01*
X115502000Y-112576878D01*
X115494736Y-112503122D01*
X115466031Y-112408495D01*
X115444332Y-112367899D01*
X115419417Y-112321285D01*
X115372400Y-112263995D01*
X115372392Y-112263987D01*
X115356684Y-112244847D01*
X115337543Y-112229138D01*
X113904868Y-110796465D01*
X113904868Y-108652511D01*
X113907295Y-108627868D01*
X113904868Y-108603225D01*
X113904868Y-108603215D01*
X113901218Y-108566154D01*
X114080703Y-108745639D01*
X114080704Y-110518048D01*
X114078276Y-110542701D01*
X114087968Y-110641110D01*
X114116673Y-110735737D01*
X114163287Y-110822946D01*
X114210304Y-110880236D01*
X114210307Y-110880239D01*
X114226020Y-110899385D01*
X114245166Y-110915098D01*
X118930012Y-115599945D01*
X118879836Y-115675038D01*
X118821264Y-115816443D01*
X118791405Y-115966558D01*
X118791405Y-116119614D01*
X118821264Y-116269729D01*
X118879836Y-116411134D01*
X118964869Y-116538395D01*
X119073096Y-116646622D01*
X119200357Y-116731655D01*
X119341762Y-116790227D01*
X119491877Y-116820086D01*
X119644933Y-116820086D01*
X119795048Y-116790227D01*
X119936453Y-116731655D01*
X120063714Y-116646622D01*
X120095159Y-116615177D01*
X120199268Y-116684740D01*
X120340673Y-116743312D01*
X120490788Y-116773171D01*
X120643844Y-116773171D01*
X120793959Y-116743312D01*
X120935364Y-116684740D01*
X121062625Y-116599707D01*
X121170852Y-116491480D01*
X121255885Y-116364219D01*
X121314457Y-116222814D01*
X121324249Y-116173585D01*
X121337205Y-116211088D01*
X121430186Y-116385044D01*
X121694587Y-116480808D01*
X122650395Y-115525000D01*
X122636253Y-115510858D01*
X122815858Y-115331253D01*
X122830000Y-115345395D01*
X122844143Y-115331253D01*
X123023748Y-115510858D01*
X123009605Y-115525000D01*
X123023748Y-115539143D01*
X122844143Y-115718748D01*
X122830000Y-115704605D01*
X121874192Y-116660413D01*
X121969956Y-116924814D01*
X122223201Y-117048011D01*
X118715007Y-117048011D01*
X118284039Y-116617044D01*
X118284039Y-116473450D01*
X118254180Y-116323335D01*
X118195608Y-116181930D01*
X118110575Y-116054669D01*
X118002348Y-115946442D01*
X117875087Y-115861409D01*
X117733682Y-115802837D01*
X117583567Y-115772978D01*
X117430511Y-115772978D01*
X117280396Y-115802837D01*
X117138991Y-115861409D01*
X117011730Y-115946442D01*
X116903503Y-116054669D01*
X116818470Y-116181930D01*
X116759898Y-116323335D01*
X116730039Y-116473450D01*
X116730039Y-116626506D01*
X116759898Y-116776621D01*
X116818470Y-116918026D01*
X116903503Y-117045287D01*
X117011730Y-117153514D01*
X117138991Y-117238547D01*
X117280396Y-117297119D01*
X117430511Y-117326978D01*
X117574105Y-117326978D01*
X118134675Y-117887549D01*
X118150388Y-117906695D01*
X118226827Y-117969428D01*
X118314036Y-118016042D01*
X118408663Y-118044747D01*
X118482419Y-118052011D01*
X118482428Y-118052011D01*
X118507071Y-118054438D01*
X118531714Y-118052011D01*
X122741348Y-118052011D01*
X122765991Y-118054438D01*
X122790634Y-118052011D01*
X122790644Y-118052011D01*
X122864400Y-118044747D01*
X122959027Y-118016042D01*
X123046236Y-117969428D01*
X123122675Y-117906695D01*
X123138392Y-117887544D01*
X124695539Y-116330398D01*
X124714685Y-116314685D01*
X124777418Y-116238246D01*
X124824032Y-116151037D01*
X124852737Y-116056410D01*
X124860001Y-115982654D01*
X124860001Y-115982645D01*
X124862428Y-115958002D01*
X124860001Y-115933359D01*
X124860001Y-113649933D01*
X125392561Y-113117374D01*
X125411707Y-113101661D01*
X125437681Y-113070013D01*
X125474439Y-113025223D01*
X125476724Y-113020948D01*
X125521054Y-112938013D01*
X125549759Y-112843386D01*
X125557023Y-112769630D01*
X125557023Y-112769620D01*
X125559450Y-112744977D01*
X125557023Y-112720334D01*
X125557023Y-107930043D01*
X125586997Y-107946064D01*
G37*
%TD.AperFunction*%
D24*
X123856001Y-114319391D02*
X123785807Y-114389585D01*
X123690044Y-114125186D01*
X123400429Y-113984296D01*
X123088892Y-113902616D01*
X122821218Y-113886518D01*
X123135725Y-113572012D01*
X123856001Y-113572012D01*
X123856001Y-114319391D01*
%TA.AperFunction,Conductor*%
D25*
G36*
X123856001Y-114319391D02*
G01*
X123785807Y-114389585D01*
X123690044Y-114125186D01*
X123400429Y-113984296D01*
X123088892Y-113902616D01*
X122821218Y-113886518D01*
X123135725Y-113572012D01*
X123856001Y-113572012D01*
X123856001Y-114319391D01*
G37*
%TD.AperFunction*%
D24*
X126369463Y-101490506D02*
X126310498Y-101600820D01*
X126274188Y-101720518D01*
X126261928Y-101845000D01*
X126265000Y-102009250D01*
X126423750Y-102168000D01*
X127773000Y-102168000D01*
X127773000Y-102148000D01*
X128027000Y-102148000D01*
X128027000Y-102168000D01*
X128047000Y-102168000D01*
X128047000Y-102422000D01*
X128027000Y-102422000D01*
X128027000Y-102442000D01*
X127773000Y-102442000D01*
X127773000Y-102422000D01*
X126423750Y-102422000D01*
X126265000Y-102580750D01*
X126261928Y-102745000D01*
X126274188Y-102869482D01*
X126310498Y-102989180D01*
X126349956Y-103063000D01*
X125804525Y-103063000D01*
X125433599Y-102692075D01*
X125433599Y-102548482D01*
X125403740Y-102398367D01*
X125345168Y-102256962D01*
X125260135Y-102129701D01*
X125151908Y-102021474D01*
X125024647Y-101936441D01*
X124883242Y-101877869D01*
X124733127Y-101848010D01*
X124580071Y-101848010D01*
X124429956Y-101877869D01*
X124288551Y-101936441D01*
X124161290Y-102021474D01*
X124053063Y-102129701D01*
X123968030Y-102256962D01*
X123909458Y-102398367D01*
X123879599Y-102548482D01*
X123879599Y-102701538D01*
X123909458Y-102851653D01*
X123968030Y-102993058D01*
X124053063Y-103120319D01*
X124161290Y-103228546D01*
X124288551Y-103313579D01*
X124429956Y-103372151D01*
X124580071Y-103402010D01*
X124723664Y-103402010D01*
X125224196Y-103902543D01*
X125239905Y-103921684D01*
X125259045Y-103937392D01*
X125259053Y-103937400D01*
X125316343Y-103984417D01*
X125403552Y-104031031D01*
X125498179Y-104059736D01*
X125507021Y-104060607D01*
X125571936Y-104067000D01*
X125571943Y-104067000D01*
X125596589Y-104069427D01*
X125621234Y-104067000D01*
X126526298Y-104067000D01*
X126528455Y-104088905D01*
X126550012Y-104159970D01*
X126571409Y-104200000D01*
X126550012Y-104240030D01*
X126528455Y-104311095D01*
X126526298Y-104333000D01*
X125616631Y-104333000D01*
X125591995Y-104330574D01*
X125567360Y-104333000D01*
X125567343Y-104333000D01*
X125493587Y-104340264D01*
X125398960Y-104368969D01*
X125311751Y-104415583D01*
X125235312Y-104478316D01*
X125219599Y-104497462D01*
X124717490Y-104999572D01*
X124698339Y-105015289D01*
X124635606Y-105091728D01*
X124588992Y-105178938D01*
X124560287Y-105273565D01*
X124558102Y-105295755D01*
X122724814Y-103462467D01*
X122709096Y-103443316D01*
X122632657Y-103380583D01*
X122545448Y-103333969D01*
X122450821Y-103305264D01*
X122377065Y-103298000D01*
X122377055Y-103298000D01*
X122352412Y-103295573D01*
X122327769Y-103298000D01*
X120721855Y-103298000D01*
X120620319Y-103196464D01*
X120493058Y-103111431D01*
X120351653Y-103052859D01*
X120201538Y-103023000D01*
X120048482Y-103023000D01*
X119898367Y-103052859D01*
X119756962Y-103111431D01*
X119629701Y-103196464D01*
X119521474Y-103304691D01*
X119436441Y-103431952D01*
X119377869Y-103573357D01*
X119348010Y-103723472D01*
X119348010Y-103876528D01*
X119377869Y-104026643D01*
X119436441Y-104168048D01*
X119521474Y-104295309D01*
X119629701Y-104403536D01*
X119756962Y-104488569D01*
X119898367Y-104547141D01*
X120048482Y-104577000D01*
X120201538Y-104577000D01*
X120351653Y-104547141D01*
X120493058Y-104488569D01*
X120620319Y-104403536D01*
X120721855Y-104302000D01*
X122144478Y-104302000D01*
X122890477Y-105047999D01*
X121789630Y-105047999D01*
X121764987Y-105045572D01*
X121740344Y-105047999D01*
X121740335Y-105047999D01*
X121666579Y-105055263D01*
X121571952Y-105083968D01*
X121484743Y-105130582D01*
X121484741Y-105130583D01*
X121484742Y-105130583D01*
X121433623Y-105172536D01*
X121408304Y-105193315D01*
X121392591Y-105212461D01*
X120687055Y-105917998D01*
X120543461Y-105917998D01*
X120393346Y-105947857D01*
X120251941Y-106006429D01*
X120124680Y-106091462D01*
X120016453Y-106199689D01*
X119931420Y-106326950D01*
X119872848Y-106468355D01*
X119842989Y-106618470D01*
X119842989Y-106771526D01*
X119872848Y-106921641D01*
X119931420Y-107063046D01*
X120016453Y-107190307D01*
X120124680Y-107298534D01*
X120251941Y-107383567D01*
X120393346Y-107442139D01*
X120543461Y-107471998D01*
X120696517Y-107471998D01*
X120846632Y-107442139D01*
X120988037Y-107383567D01*
X121115298Y-107298534D01*
X121223008Y-107190824D01*
X121232039Y-107256675D01*
X121337205Y-107561088D01*
X121430186Y-107735044D01*
X121694587Y-107830808D01*
X122650395Y-106875000D01*
X122636253Y-106860858D01*
X122815858Y-106681253D01*
X122830000Y-106695395D01*
X122844143Y-106681253D01*
X123023748Y-106860858D01*
X123009605Y-106875000D01*
X123023748Y-106889143D01*
X122844143Y-107068748D01*
X122830000Y-107054605D01*
X121874192Y-108010413D01*
X121969956Y-108274814D01*
X122259571Y-108415704D01*
X122571108Y-108497384D01*
X122892595Y-108516718D01*
X123211675Y-108472961D01*
X123516088Y-108367795D01*
X123653002Y-108294613D01*
X123653001Y-111300654D01*
X122835655Y-112118001D01*
X120299643Y-112118001D01*
X120275000Y-112115574D01*
X120250357Y-112118001D01*
X120250348Y-112118001D01*
X120176592Y-112125265D01*
X120151425Y-112132899D01*
X120076528Y-112118002D01*
X119923472Y-112118002D01*
X119773357Y-112147861D01*
X119631952Y-112206433D01*
X119504691Y-112291466D01*
X119396464Y-112399693D01*
X119311431Y-112526954D01*
X119252859Y-112668359D01*
X119223000Y-112818474D01*
X119223000Y-112971530D01*
X119252859Y-113121645D01*
X119311431Y-113263050D01*
X119396464Y-113390311D01*
X119504691Y-113498538D01*
X119559127Y-113534911D01*
X119503707Y-113557867D01*
X119376446Y-113642900D01*
X119274910Y-113744436D01*
X119174370Y-113744436D01*
X116602000Y-111172068D01*
X116602000Y-110596845D01*
X116703536Y-110495309D01*
X116788569Y-110368048D01*
X116847141Y-110226643D01*
X116877000Y-110076528D01*
X116877000Y-109923472D01*
X116847141Y-109773357D01*
X116788569Y-109631952D01*
X116703536Y-109504691D01*
X116595309Y-109396464D01*
X116468048Y-109311431D01*
X116326643Y-109252859D01*
X116176528Y-109223000D01*
X116023472Y-109223000D01*
X115873357Y-109252859D01*
X115731952Y-109311431D01*
X115604691Y-109396464D01*
X115496464Y-109504691D01*
X115411431Y-109631952D01*
X115352859Y-109773357D01*
X115323000Y-109923472D01*
X115323000Y-110076528D01*
X115352859Y-110226643D01*
X115411431Y-110368048D01*
X115496464Y-110495309D01*
X115598000Y-110596845D01*
X115598001Y-110848064D01*
X115084703Y-110334767D01*
X115084703Y-108562348D01*
X115087130Y-108537703D01*
X115084703Y-108513057D01*
X115084703Y-108513050D01*
X115077439Y-108439294D01*
X115076086Y-108434833D01*
X115048734Y-108344666D01*
X115002120Y-108257457D01*
X114955103Y-108200167D01*
X114955095Y-108200159D01*
X114939387Y-108181019D01*
X114920246Y-108165310D01*
X112522401Y-105767467D01*
X112506684Y-105748316D01*
X112430245Y-105685583D01*
X112343036Y-105638969D01*
X112275219Y-105618397D01*
X112271545Y-105581095D01*
X112249988Y-105510030D01*
X112228591Y-105470000D01*
X112249988Y-105429970D01*
X112271545Y-105358905D01*
X112278824Y-105285000D01*
X112278824Y-104385000D01*
X112271545Y-104311095D01*
X112249988Y-104240030D01*
X112228591Y-104200000D01*
X112249988Y-104159970D01*
X112271545Y-104088905D01*
X112278824Y-104015000D01*
X112278824Y-103255570D01*
X112351185Y-103196185D01*
X112430537Y-103099494D01*
X112489502Y-102989180D01*
X112525812Y-102869482D01*
X112538072Y-102745000D01*
X112535000Y-102580750D01*
X112376250Y-102422000D01*
X111027000Y-102422000D01*
X111027000Y-102442000D01*
X110773000Y-102442000D01*
X110773000Y-102422000D01*
X110753000Y-102422000D01*
X110753000Y-102168000D01*
X110773000Y-102168000D01*
X110773000Y-102148000D01*
X111027000Y-102148000D01*
X111027000Y-102168000D01*
X112376250Y-102168000D01*
X112535000Y-102009250D01*
X112538072Y-101845000D01*
X112525812Y-101720518D01*
X112489502Y-101600820D01*
X112430537Y-101490506D01*
X112378419Y-101427000D01*
X126421581Y-101427000D01*
X126369463Y-101490506D01*
%TA.AperFunction,Conductor*%
D25*
G36*
X126369463Y-101490506D02*
G01*
X126310498Y-101600820D01*
X126274188Y-101720518D01*
X126261928Y-101845000D01*
X126265000Y-102009250D01*
X126423750Y-102168000D01*
X127773000Y-102168000D01*
X127773000Y-102148000D01*
X128027000Y-102148000D01*
X128027000Y-102168000D01*
X128047000Y-102168000D01*
X128047000Y-102422000D01*
X128027000Y-102422000D01*
X128027000Y-102442000D01*
X127773000Y-102442000D01*
X127773000Y-102422000D01*
X126423750Y-102422000D01*
X126265000Y-102580750D01*
X126261928Y-102745000D01*
X126274188Y-102869482D01*
X126310498Y-102989180D01*
X126349956Y-103063000D01*
X125804525Y-103063000D01*
X125433599Y-102692075D01*
X125433599Y-102548482D01*
X125403740Y-102398367D01*
X125345168Y-102256962D01*
X125260135Y-102129701D01*
X125151908Y-102021474D01*
X125024647Y-101936441D01*
X124883242Y-101877869D01*
X124733127Y-101848010D01*
X124580071Y-101848010D01*
X124429956Y-101877869D01*
X124288551Y-101936441D01*
X124161290Y-102021474D01*
X124053063Y-102129701D01*
X123968030Y-102256962D01*
X123909458Y-102398367D01*
X123879599Y-102548482D01*
X123879599Y-102701538D01*
X123909458Y-102851653D01*
X123968030Y-102993058D01*
X124053063Y-103120319D01*
X124161290Y-103228546D01*
X124288551Y-103313579D01*
X124429956Y-103372151D01*
X124580071Y-103402010D01*
X124723664Y-103402010D01*
X125224196Y-103902543D01*
X125239905Y-103921684D01*
X125259045Y-103937392D01*
X125259053Y-103937400D01*
X125316343Y-103984417D01*
X125403552Y-104031031D01*
X125498179Y-104059736D01*
X125507021Y-104060607D01*
X125571936Y-104067000D01*
X125571943Y-104067000D01*
X125596589Y-104069427D01*
X125621234Y-104067000D01*
X126526298Y-104067000D01*
X126528455Y-104088905D01*
X126550012Y-104159970D01*
X126571409Y-104200000D01*
X126550012Y-104240030D01*
X126528455Y-104311095D01*
X126526298Y-104333000D01*
X125616631Y-104333000D01*
X125591995Y-104330574D01*
X125567360Y-104333000D01*
X125567343Y-104333000D01*
X125493587Y-104340264D01*
X125398960Y-104368969D01*
X125311751Y-104415583D01*
X125235312Y-104478316D01*
X125219599Y-104497462D01*
X124717490Y-104999572D01*
X124698339Y-105015289D01*
X124635606Y-105091728D01*
X124588992Y-105178938D01*
X124560287Y-105273565D01*
X124558102Y-105295755D01*
X122724814Y-103462467D01*
X122709096Y-103443316D01*
X122632657Y-103380583D01*
X122545448Y-103333969D01*
X122450821Y-103305264D01*
X122377065Y-103298000D01*
X122377055Y-103298000D01*
X122352412Y-103295573D01*
X122327769Y-103298000D01*
X120721855Y-103298000D01*
X120620319Y-103196464D01*
X120493058Y-103111431D01*
X120351653Y-103052859D01*
X120201538Y-103023000D01*
X120048482Y-103023000D01*
X119898367Y-103052859D01*
X119756962Y-103111431D01*
X119629701Y-103196464D01*
X119521474Y-103304691D01*
X119436441Y-103431952D01*
X119377869Y-103573357D01*
X119348010Y-103723472D01*
X119348010Y-103876528D01*
X119377869Y-104026643D01*
X119436441Y-104168048D01*
X119521474Y-104295309D01*
X119629701Y-104403536D01*
X119756962Y-104488569D01*
X119898367Y-104547141D01*
X120048482Y-104577000D01*
X120201538Y-104577000D01*
X120351653Y-104547141D01*
X120493058Y-104488569D01*
X120620319Y-104403536D01*
X120721855Y-104302000D01*
X122144478Y-104302000D01*
X122890477Y-105047999D01*
X121789630Y-105047999D01*
X121764987Y-105045572D01*
X121740344Y-105047999D01*
X121740335Y-105047999D01*
X121666579Y-105055263D01*
X121571952Y-105083968D01*
X121484743Y-105130582D01*
X121484741Y-105130583D01*
X121484742Y-105130583D01*
X121433623Y-105172536D01*
X121408304Y-105193315D01*
X121392591Y-105212461D01*
X120687055Y-105917998D01*
X120543461Y-105917998D01*
X120393346Y-105947857D01*
X120251941Y-106006429D01*
X120124680Y-106091462D01*
X120016453Y-106199689D01*
X119931420Y-106326950D01*
X119872848Y-106468355D01*
X119842989Y-106618470D01*
X119842989Y-106771526D01*
X119872848Y-106921641D01*
X119931420Y-107063046D01*
X120016453Y-107190307D01*
X120124680Y-107298534D01*
X120251941Y-107383567D01*
X120393346Y-107442139D01*
X120543461Y-107471998D01*
X120696517Y-107471998D01*
X120846632Y-107442139D01*
X120988037Y-107383567D01*
X121115298Y-107298534D01*
X121223008Y-107190824D01*
X121232039Y-107256675D01*
X121337205Y-107561088D01*
X121430186Y-107735044D01*
X121694587Y-107830808D01*
X122650395Y-106875000D01*
X122636253Y-106860858D01*
X122815858Y-106681253D01*
X122830000Y-106695395D01*
X122844143Y-106681253D01*
X123023748Y-106860858D01*
X123009605Y-106875000D01*
X123023748Y-106889143D01*
X122844143Y-107068748D01*
X122830000Y-107054605D01*
X121874192Y-108010413D01*
X121969956Y-108274814D01*
X122259571Y-108415704D01*
X122571108Y-108497384D01*
X122892595Y-108516718D01*
X123211675Y-108472961D01*
X123516088Y-108367795D01*
X123653002Y-108294613D01*
X123653001Y-111300654D01*
X122835655Y-112118001D01*
X120299643Y-112118001D01*
X120275000Y-112115574D01*
X120250357Y-112118001D01*
X120250348Y-112118001D01*
X120176592Y-112125265D01*
X120151425Y-112132899D01*
X120076528Y-112118002D01*
X119923472Y-112118002D01*
X119773357Y-112147861D01*
X119631952Y-112206433D01*
X119504691Y-112291466D01*
X119396464Y-112399693D01*
X119311431Y-112526954D01*
X119252859Y-112668359D01*
X119223000Y-112818474D01*
X119223000Y-112971530D01*
X119252859Y-113121645D01*
X119311431Y-113263050D01*
X119396464Y-113390311D01*
X119504691Y-113498538D01*
X119559127Y-113534911D01*
X119503707Y-113557867D01*
X119376446Y-113642900D01*
X119274910Y-113744436D01*
X119174370Y-113744436D01*
X116602000Y-111172068D01*
X116602000Y-110596845D01*
X116703536Y-110495309D01*
X116788569Y-110368048D01*
X116847141Y-110226643D01*
X116877000Y-110076528D01*
X116877000Y-109923472D01*
X116847141Y-109773357D01*
X116788569Y-109631952D01*
X116703536Y-109504691D01*
X116595309Y-109396464D01*
X116468048Y-109311431D01*
X116326643Y-109252859D01*
X116176528Y-109223000D01*
X116023472Y-109223000D01*
X115873357Y-109252859D01*
X115731952Y-109311431D01*
X115604691Y-109396464D01*
X115496464Y-109504691D01*
X115411431Y-109631952D01*
X115352859Y-109773357D01*
X115323000Y-109923472D01*
X115323000Y-110076528D01*
X115352859Y-110226643D01*
X115411431Y-110368048D01*
X115496464Y-110495309D01*
X115598000Y-110596845D01*
X115598001Y-110848064D01*
X115084703Y-110334767D01*
X115084703Y-108562348D01*
X115087130Y-108537703D01*
X115084703Y-108513057D01*
X115084703Y-108513050D01*
X115077439Y-108439294D01*
X115076086Y-108434833D01*
X115048734Y-108344666D01*
X115002120Y-108257457D01*
X114955103Y-108200167D01*
X114955095Y-108200159D01*
X114939387Y-108181019D01*
X114920246Y-108165310D01*
X112522401Y-105767467D01*
X112506684Y-105748316D01*
X112430245Y-105685583D01*
X112343036Y-105638969D01*
X112275219Y-105618397D01*
X112271545Y-105581095D01*
X112249988Y-105510030D01*
X112228591Y-105470000D01*
X112249988Y-105429970D01*
X112271545Y-105358905D01*
X112278824Y-105285000D01*
X112278824Y-104385000D01*
X112271545Y-104311095D01*
X112249988Y-104240030D01*
X112228591Y-104200000D01*
X112249988Y-104159970D01*
X112271545Y-104088905D01*
X112278824Y-104015000D01*
X112278824Y-103255570D01*
X112351185Y-103196185D01*
X112430537Y-103099494D01*
X112489502Y-102989180D01*
X112525812Y-102869482D01*
X112538072Y-102745000D01*
X112535000Y-102580750D01*
X112376250Y-102422000D01*
X111027000Y-102422000D01*
X111027000Y-102442000D01*
X110773000Y-102442000D01*
X110773000Y-102422000D01*
X110753000Y-102422000D01*
X110753000Y-102168000D01*
X110773000Y-102168000D01*
X110773000Y-102148000D01*
X111027000Y-102148000D01*
X111027000Y-102168000D01*
X112376250Y-102168000D01*
X112535000Y-102009250D01*
X112538072Y-101845000D01*
X112525812Y-101720518D01*
X112489502Y-101600820D01*
X112430537Y-101490506D01*
X112378419Y-101427000D01*
X126421581Y-101427000D01*
X126369463Y-101490506D01*
G37*
%TD.AperFunction*%
%TD*%
M02*
