M48
; DRILL file {KiCad (5.1.9-0-10_14)} date Thursday, May 20, 2021 at 08:11:57 AM
; FORMAT={-:-/ absolute / inch / decimal}
; #@! TF.CreationDate,2021-05-20T08:11:57+01:00
; #@! TF.GenerationSoftware,Kicad,Pcbnew,(5.1.9-0-10_14)
; #@! TF.FileFunction,Plated,1,2,PTH
FMAT,2
INCH
T1C0.0098
T2C0.0157
T3C0.0236
T4C0.0394
T5C0.0472
T6C0.0591
%
G90
G05
T1
X4.6467Y-4.6073
T2
X4.4259Y-4.6461
X4.4311Y-4.5261
X4.4362Y-4.5704
X4.4719Y-4.6032
X4.4842Y-5.0522
X4.5079Y-4.3091
X4.5152Y-4.6515
X4.5197Y-4.5433
X4.5572Y-4.4217
X4.6181Y-4.4172
X4.6181Y-4.3602
X4.6417Y-4.2598
X4.7008Y-4.4447
X4.7138Y-4.0661
X4.7362Y-4.3189
X4.7702Y-4.4655
X4.8431Y-4.6277
X4.9021Y-4.062
X4.9252Y-4.0945
X4.9252Y-4.6183
X4.9319Y-4.9754
X4.9409Y-4.1772
X4.9681Y-4.5967
T3
X4.8547Y-4.2642
X4.8547Y-4.4917
T4
X4.4506Y-4.8386
X4.5506Y-4.8386
X4.6506Y-4.8386
X4.7506Y-4.8386
X4.8506Y-4.8386
X4.9506Y-4.8386
X4.9882Y-4.9472
X4.9882Y-5.0472
T5
X5.0004Y-4.2077
X5.0004Y-4.5482
T6
X4.8358Y-4.2077
X4.8358Y-4.5482
T0
M30
