%TF.GenerationSoftware,KiCad,Pcbnew,(5.1.9-0-10_14)*%
%TF.CreationDate,2021-05-05T08:09:59+01:00*%
%TF.ProjectId,Generic,47656e65-7269-4632-9e6b-696361645f70,3*%
%TF.SameCoordinates,Original*%
%TF.FileFunction,Legend,Top*%
%TF.FilePolarity,Positive*%
%FSLAX46Y46*%
G04 Gerber Fmt 4.6, Leading zero omitted, Abs format (unit mm)*
G04 Created by KiCad (PCBNEW (5.1.9-0-10_14)) date 2021-05-05 08:09:59*
%MOMM*%
%LPD*%
G01*
G04 APERTURE LIST*
%ADD10C,0.120000*%
%ADD11C,0.150000*%
G04 APERTURE END LIST*
D10*
%TO.C,J1*%
X110630000Y-121500000D02*
X110630000Y-129500000D01*
X110630000Y-121500000D02*
X128330000Y-121500000D01*
X128330000Y-121500000D02*
X128330000Y-129500000D01*
%TO.C,U1*%
X110380000Y-119650000D02*
X110380000Y-120430000D01*
X110380000Y-120430000D02*
X111380000Y-120430000D01*
X128620000Y-119650000D02*
X128620000Y-120430000D01*
X128620000Y-120430000D02*
X127620000Y-120430000D01*
X110380000Y-94685000D02*
X128620000Y-94685000D01*
X128620000Y-94685000D02*
X128620000Y-101105000D01*
X110380000Y-94685000D02*
X110380000Y-101105000D01*
X110380000Y-101105000D02*
X110000000Y-101105000D01*
%TO.C,J1*%
D11*
X119146666Y-128352380D02*
X119146666Y-129066666D01*
X119099047Y-129209523D01*
X119003809Y-129304761D01*
X118860952Y-129352380D01*
X118765714Y-129352380D01*
X120146666Y-129352380D02*
X119575238Y-129352380D01*
X119860952Y-129352380D02*
X119860952Y-128352380D01*
X119765714Y-128495238D01*
X119670476Y-128590476D01*
X119575238Y-128638095D01*
X112015714Y-123352380D02*
X111444285Y-123352380D01*
X111730000Y-123352380D02*
X111730000Y-122352380D01*
X111634761Y-122495238D01*
X111539523Y-122590476D01*
X111444285Y-122638095D01*
%TO.C,U1*%
X118638095Y-101502380D02*
X118638095Y-102311904D01*
X118685714Y-102407142D01*
X118733333Y-102454761D01*
X118828571Y-102502380D01*
X119019047Y-102502380D01*
X119114285Y-102454761D01*
X119161904Y-102407142D01*
X119209523Y-102311904D01*
X119209523Y-101502380D01*
X120209523Y-102502380D02*
X119638095Y-102502380D01*
X119923809Y-102502380D02*
X119923809Y-101502380D01*
X119828571Y-101645238D01*
X119733333Y-101740476D01*
X119638095Y-101788095D01*
%TD*%
M02*
