%TF.GenerationSoftware,KiCad,Pcbnew,(5.1.9-0-10_14)*%
%TF.CreationDate,2021-06-19T10:17:34+01:00*%
%TF.ProjectId,Generic,47656e65-7269-4632-9e6b-696361645f70,4*%
%TF.SameCoordinates,Original*%
%TF.FileFunction,Copper,L2,Bot*%
%TF.FilePolarity,Positive*%
%FSLAX46Y46*%
G04 Gerber Fmt 4.6, Leading zero omitted, Abs format (unit mm)*
G04 Created by KiCad (PCBNEW (5.1.9-0-10_14)) date 2021-06-19 10:17:34*
%MOMM*%
%LPD*%
G01*
G04 APERTURE LIST*
%TA.AperFunction,NonConductor*%
%ADD10C,0.300000*%
%TD*%
%TA.AperFunction,ComponentPad*%
%ADD11C,0.350000*%
%TD*%
%TA.AperFunction,SMDPad,CuDef*%
%ADD12R,2.000000X0.900000*%
%TD*%
%TA.AperFunction,SMDPad,CuDef*%
%ADD13R,0.900000X2.000000*%
%TD*%
%TA.AperFunction,SMDPad,CuDef*%
%ADD14R,5.000000X5.000000*%
%TD*%
%TA.AperFunction,ComponentPad*%
%ADD15C,2.000000*%
%TD*%
%TA.AperFunction,ComponentPad*%
%ADD16R,2.000000X2.000000*%
%TD*%
%TA.AperFunction,ComponentPad*%
%ADD17R,1.700000X1.700000*%
%TD*%
%TA.AperFunction,ComponentPad*%
%ADD18O,1.700000X1.700000*%
%TD*%
%TA.AperFunction,ComponentPad*%
%ADD19C,1.500000*%
%TD*%
%TA.AperFunction,ComponentPad*%
%ADD20C,1.750000*%
%TD*%
%TA.AperFunction,ComponentPad*%
%ADD21C,0.600000*%
%TD*%
%TA.AperFunction,ViaPad*%
%ADD22C,0.800000*%
%TD*%
%TA.AperFunction,Conductor*%
%ADD23C,0.250000*%
%TD*%
%TA.AperFunction,Conductor*%
%ADD24C,0.254000*%
%TD*%
%TA.AperFunction,Conductor*%
%ADD25C,0.100000*%
%TD*%
G04 APERTURE END LIST*
D10*
X124185714Y-126578571D02*
X123900000Y-127578571D01*
X123614285Y-126864285D01*
X123328571Y-127578571D01*
X123042857Y-126578571D01*
X122614285Y-126578571D02*
X122328571Y-127578571D01*
X122042857Y-126864285D01*
X121757142Y-127578571D01*
X121471428Y-126578571D01*
X121042857Y-126578571D02*
X120757142Y-127578571D01*
X120471428Y-126864285D01*
X120185714Y-127578571D01*
X119900000Y-126578571D01*
X119328571Y-127435714D02*
X119257142Y-127507142D01*
X119328571Y-127578571D01*
X119400000Y-127507142D01*
X119328571Y-127435714D01*
X119328571Y-127578571D01*
X118614285Y-127578571D02*
X118614285Y-126578571D01*
X118614285Y-126721428D02*
X118542857Y-126650000D01*
X118400000Y-126578571D01*
X118185714Y-126578571D01*
X118042857Y-126650000D01*
X117971428Y-126792857D01*
X117971428Y-127578571D01*
X117971428Y-126792857D02*
X117900000Y-126650000D01*
X117757142Y-126578571D01*
X117542857Y-126578571D01*
X117400000Y-126650000D01*
X117328571Y-126792857D01*
X117328571Y-127578571D01*
X116042857Y-127507142D02*
X116185714Y-127578571D01*
X116471428Y-127578571D01*
X116614285Y-127507142D01*
X116685714Y-127364285D01*
X116685714Y-126792857D01*
X116614285Y-126650000D01*
X116471428Y-126578571D01*
X116185714Y-126578571D01*
X116042857Y-126650000D01*
X115971428Y-126792857D01*
X115971428Y-126935714D01*
X116685714Y-127078571D01*
X115328571Y-127435714D02*
X115257142Y-127507142D01*
X115328571Y-127578571D01*
X115400000Y-127507142D01*
X115328571Y-127435714D01*
X115328571Y-127578571D01*
X113971428Y-126578571D02*
X113971428Y-127578571D01*
X114614285Y-126578571D02*
X114614285Y-127364285D01*
X114542857Y-127507142D01*
X114400000Y-127578571D01*
X114185714Y-127578571D01*
X114042857Y-127507142D01*
X113971428Y-127435714D01*
X113257142Y-127578571D02*
X113257142Y-126078571D01*
X113114285Y-127007142D02*
X112685714Y-127578571D01*
X112685714Y-126578571D02*
X113257142Y-127150000D01*
D11*
%TO.P,U2,21*%
%TO.N,GND*%
X115750000Y-108250000D03*
%TD*%
D12*
%TO.P,U1,38*%
%TO.N,GND*%
X110900000Y-102295000D03*
%TO.P,U1,37*%
%TO.N,Net-(U1-Pad37)*%
X110900000Y-103565000D03*
%TO.P,U1,36*%
%TO.N,Net-(U1-Pad36)*%
X110900000Y-104835000D03*
%TO.P,U1,35*%
%TO.N,O*%
X110900000Y-106105000D03*
%TO.P,U1,34*%
%TO.N,I*%
X110900000Y-107375000D03*
%TO.P,U1,33*%
%TO.N,Net-(U1-Pad33)*%
X110900000Y-108645000D03*
%TO.P,U1,32*%
%TO.N,Net-(U1-Pad32)*%
X110900000Y-109915000D03*
%TO.P,U1,31*%
%TO.N,Net-(U1-Pad31)*%
X110900000Y-111185000D03*
%TO.P,U1,30*%
%TO.N,G*%
X110900000Y-112455000D03*
%TO.P,U1,29*%
%TO.N,Net-(U1-Pad29)*%
X110900000Y-113725000D03*
%TO.P,U1,28*%
%TO.N,B*%
X110900000Y-114995000D03*
%TO.P,U1,27*%
%TO.N,R*%
X110900000Y-116265000D03*
%TO.P,U1,26*%
%TO.N,IO5*%
X110900000Y-117535000D03*
%TO.P,U1,25*%
%TO.N,BOOT*%
X110900000Y-118805000D03*
D13*
%TO.P,U1,24*%
%TO.N,IO4*%
X113685000Y-119805000D03*
%TO.P,U1,23*%
%TO.N,IO3*%
X114955000Y-119805000D03*
%TO.P,U1,22*%
%TO.N,Net-(U1-Pad22)*%
X116225000Y-119805000D03*
%TO.P,U1,21*%
%TO.N,Net-(U1-Pad21)*%
X117495000Y-119805000D03*
%TO.P,U1,20*%
%TO.N,Net-(U1-Pad20)*%
X118765000Y-119805000D03*
%TO.P,U1,19*%
%TO.N,Net-(U1-Pad19)*%
X120035000Y-119805000D03*
%TO.P,U1,18*%
%TO.N,Net-(U1-Pad18)*%
X121305000Y-119805000D03*
%TO.P,U1,17*%
%TO.N,Net-(U1-Pad17)*%
X122575000Y-119805000D03*
%TO.P,U1,16*%
%TO.N,IO2*%
X123845000Y-119805000D03*
%TO.P,U1,15*%
%TO.N,GND*%
X125115000Y-119805000D03*
D12*
%TO.P,U1,14*%
X127900000Y-118805000D03*
%TO.P,U1,13*%
X127900000Y-117535000D03*
%TO.P,U1,12*%
%TO.N,IO1*%
X127900000Y-116265000D03*
%TO.P,U1,11*%
%TO.N,Net-(U1-Pad11)*%
X127900000Y-114995000D03*
%TO.P,U1,10*%
%TO.N,Net-(U1-Pad10)*%
X127900000Y-113725000D03*
%TO.P,U1,9*%
%TO.N,Net-(U1-Pad9)*%
X127900000Y-112455000D03*
%TO.P,U1,8*%
%TO.N,Net-(U1-Pad8)*%
X127900000Y-111185000D03*
%TO.P,U1,7*%
%TO.N,GND*%
X127900000Y-109915000D03*
%TO.P,U1,6*%
X127900000Y-108645000D03*
%TO.P,U1,5*%
%TO.N,Net-(U1-Pad5)*%
X127900000Y-107375000D03*
%TO.P,U1,4*%
%TO.N,Net-(U1-Pad4)*%
X127900000Y-106105000D03*
%TO.P,U1,3*%
%TO.N,EN*%
X127900000Y-104835000D03*
%TO.P,U1,2*%
%TO.N,+3V3*%
X127900000Y-103565000D03*
%TO.P,U1,1*%
%TO.N,GND*%
X127900000Y-102295000D03*
D14*
%TO.P,U1,39*%
X120400000Y-109795000D03*
%TD*%
D15*
%TO.P,J3,2*%
%TO.N,+12V*%
X126600000Y-125460000D03*
D16*
%TO.P,J3,1*%
%TO.N,GND*%
X126600000Y-128000000D03*
%TD*%
D17*
%TO.P,J1,1*%
%TO.N,GND*%
X125745000Y-122900000D03*
D18*
%TO.P,J1,2*%
%TO.N,IO1*%
X123205000Y-122900000D03*
%TO.P,J1,3*%
%TO.N,IO2*%
X120665000Y-122900000D03*
%TO.P,J1,4*%
%TO.N,IO3*%
X118125000Y-122900000D03*
%TO.P,J1,5*%
%TO.N,IO4*%
X115585000Y-122900000D03*
%TO.P,J1,6*%
%TO.N,Net-(J1-Pad6)*%
X113045000Y-122900000D03*
%TD*%
D19*
%TO.P,J2,S1*%
%TO.N,GND*%
X126790000Y-109080000D03*
X126790000Y-117720000D03*
D20*
X122620000Y-109080000D03*
X122620000Y-117720000D03*
D21*
X123110000Y-110510000D03*
X123110000Y-116290000D03*
%TD*%
D22*
%TO.N,D+*%
X117424921Y-105779276D03*
X117925020Y-115228434D03*
%TO.N,GND*%
X117457994Y-118204997D03*
X116100000Y-103250000D03*
X125050000Y-109650000D03*
X113845871Y-110120552D03*
X112650000Y-111000000D03*
%TO.N,D-*%
X118474980Y-113516667D03*
X117068681Y-104844878D03*
%TO.N,+3V3*%
X119619244Y-103020010D03*
%TO.N,IO5*%
X112336708Y-117943554D03*
%TO.N,IO1*%
X124900000Y-117754989D03*
%TO.N,O*%
X117291421Y-116008579D03*
%TO.N,I*%
X114357611Y-111114284D03*
%TO.N,EN*%
X116185309Y-111350882D03*
%TO.N,+12V*%
X119700000Y-105500000D03*
X114000000Y-128700000D03*
%TO.N,BOOT*%
X115000012Y-112263909D03*
%TO.N,Net-(J2-PadA7)*%
X119100000Y-115900000D03*
X120686400Y-113065823D03*
%TO.N,G*%
X112216525Y-112444419D03*
%TO.N,B*%
X113203761Y-112603761D03*
%TO.N,R*%
X114102163Y-116974990D03*
%TD*%
D23*
%TO.N,D+*%
X117525021Y-113417577D02*
X117525021Y-114828435D01*
X117024922Y-112917478D02*
X117525021Y-113417577D01*
X117024922Y-106179275D02*
X117024922Y-112917478D01*
X117525021Y-114828435D02*
X117925020Y-115228434D01*
X117424921Y-105779276D02*
X117024922Y-106179275D01*
%TO.N,GND*%
X127225000Y-108645000D02*
X126790000Y-109080000D01*
X127900000Y-108645000D02*
X127225000Y-108645000D01*
X127625000Y-109915000D02*
X126790000Y-109080000D01*
X127900000Y-109915000D02*
X127625000Y-109915000D01*
X126975000Y-117535000D02*
X126790000Y-117720000D01*
X127900000Y-117535000D02*
X126975000Y-117535000D01*
X127875000Y-118805000D02*
X126790000Y-117720000D01*
X127900000Y-118805000D02*
X127875000Y-118805000D01*
X125745000Y-120435000D02*
X125115000Y-119805000D01*
X125745000Y-122900000D02*
X125745000Y-120435000D01*
X117457994Y-118204997D02*
X119995003Y-118204997D01*
X119995003Y-118204997D02*
X121500000Y-116700000D01*
X122520000Y-117720000D02*
X122620000Y-117720000D01*
X121500000Y-116700000D02*
X122520000Y-117720000D01*
X110900000Y-102295000D02*
X116205000Y-102295000D01*
X116205000Y-102295000D02*
X127900000Y-102295000D01*
X116205000Y-102295000D02*
X116205000Y-102295000D01*
%TO.N,D-*%
X118149931Y-105360443D02*
X117634366Y-104844878D01*
X117574999Y-112616686D02*
X117574999Y-107097822D01*
X117574999Y-107097822D02*
X118149931Y-106522890D01*
X117634366Y-104844878D02*
X117068681Y-104844878D01*
X118474980Y-113516667D02*
X117574999Y-112616686D01*
X118149931Y-106522890D02*
X118149931Y-105360443D01*
%TO.N,+3V3*%
X120164234Y-103565000D02*
X119619244Y-103020010D01*
X127900000Y-103565000D02*
X120164234Y-103565000D01*
%TO.N,IO5*%
X111928154Y-117535000D02*
X112336708Y-117943554D01*
X110900000Y-117535000D02*
X111928154Y-117535000D01*
%TO.N,IO4*%
X113685000Y-121000000D02*
X115585000Y-122900000D01*
X113685000Y-119805000D02*
X113685000Y-121000000D01*
%TO.N,IO3*%
X117284998Y-122900000D02*
X118125000Y-122900000D01*
X114955000Y-120570002D02*
X117284998Y-122900000D01*
X114955000Y-119805000D02*
X114955000Y-120570002D01*
%TO.N,IO2*%
X121465998Y-122900000D02*
X120665000Y-122900000D01*
X123845000Y-120520998D02*
X121465998Y-122900000D01*
X123845000Y-119805000D02*
X123845000Y-120520998D01*
%TO.N,IO1*%
X127900000Y-116265000D02*
X126650000Y-116265000D01*
X126650000Y-116265000D02*
X125115000Y-117800000D01*
X124945011Y-117800000D02*
X124900000Y-117754989D01*
X125115000Y-117800000D02*
X124945011Y-117800000D01*
%TO.N,O*%
X112291410Y-106105000D02*
X115348014Y-109161604D01*
X110900000Y-106105000D02*
X112291410Y-106105000D01*
X115725014Y-114442172D02*
X117291421Y-116008579D01*
X115725014Y-111915907D02*
X115725014Y-114442172D01*
X115348014Y-111538907D02*
X115725014Y-111915907D01*
X115348014Y-109161604D02*
X115348014Y-111538907D01*
%TO.N,I*%
X114757610Y-110714285D02*
X114357611Y-111114284D01*
X110900000Y-107375000D02*
X112173321Y-107375000D01*
X114757610Y-109959289D02*
X114757610Y-110714285D01*
X112173321Y-107375000D02*
X114757610Y-109959289D01*
%TO.N,EN*%
X116343679Y-111192512D02*
X116185309Y-111350882D01*
X127900000Y-104835000D02*
X120361232Y-104835000D01*
X120361232Y-104835000D02*
X118993731Y-103467499D01*
X118993731Y-103467499D02*
X116990469Y-103467499D01*
X116343679Y-104114289D02*
X116343679Y-111192512D01*
X116990469Y-103467499D02*
X116343679Y-104114289D01*
%TO.N,+12V*%
X123849989Y-117822993D02*
X123849989Y-107659987D01*
X125743589Y-118479999D02*
X124506995Y-118479999D01*
X126574999Y-119311409D02*
X125743589Y-118479999D01*
X126574999Y-121444997D02*
X126574999Y-119311409D01*
X127599999Y-122469997D02*
X126574999Y-121444997D01*
X124506995Y-118479999D02*
X123849989Y-117822993D01*
X127599999Y-124460001D02*
X127599999Y-122469997D01*
X126600000Y-125460000D02*
X127599999Y-124460001D01*
X121690002Y-105500000D02*
X122045001Y-105854999D01*
X119700000Y-105500000D02*
X121690002Y-105500000D01*
X123849989Y-107659987D02*
X122045001Y-105854999D01*
X114000000Y-129150002D02*
X114000000Y-128700000D01*
X114174999Y-129325001D02*
X114000000Y-129150002D01*
X127874999Y-129325001D02*
X114174999Y-129325001D01*
X127925001Y-126785001D02*
X127925001Y-129274999D01*
X126600000Y-125460000D02*
X127925001Y-126785001D01*
X127925001Y-129274999D02*
X127874999Y-129325001D01*
%TO.N,BOOT*%
X112649998Y-118805000D02*
X113061709Y-118393289D01*
X113200009Y-117699991D02*
X114450164Y-117699991D01*
X113061709Y-117838291D02*
X113200009Y-117699991D01*
X115000012Y-117150143D02*
X115000012Y-112263909D01*
X113061709Y-118393289D02*
X113061709Y-117838291D01*
X114450164Y-117699991D02*
X115000012Y-117150143D01*
X110900000Y-118805000D02*
X112649998Y-118805000D01*
%TO.N,Net-(J2-PadA7)*%
X120686400Y-114313600D02*
X119100000Y-115900000D01*
X120686400Y-113065823D02*
X120686400Y-114313600D01*
%TO.N,G*%
X110900000Y-112455000D02*
X111043431Y-112311569D01*
X111043431Y-112311569D02*
X111787918Y-112311569D01*
X110900000Y-112455000D02*
X112205944Y-112455000D01*
X112205944Y-112455000D02*
X112216525Y-112444419D01*
%TO.N,B*%
X112150000Y-114995000D02*
X110900000Y-114995000D01*
X113203761Y-113941239D02*
X112150000Y-114995000D01*
X113203761Y-112603761D02*
X113203761Y-113941239D01*
%TO.N,R*%
X110900000Y-116265000D02*
X113392173Y-116265000D01*
X113392173Y-116265000D02*
X114102163Y-116974990D01*
%TD*%
D24*
%TO.N,GND*%
X112856176Y-120805000D02*
X112863455Y-120878905D01*
X112885012Y-120949970D01*
X112920019Y-121015463D01*
X112967131Y-121072869D01*
X113024537Y-121119981D01*
X113090030Y-121154988D01*
X113161095Y-121176545D01*
X113215596Y-121181913D01*
X113218970Y-121193036D01*
X113265584Y-121280245D01*
X113312601Y-121337535D01*
X113312604Y-121337538D01*
X113328317Y-121356684D01*
X113347463Y-121372397D01*
X114437960Y-122462895D01*
X114405153Y-122542097D01*
X114358000Y-122779151D01*
X114358000Y-123020849D01*
X114405153Y-123257903D01*
X114497647Y-123481202D01*
X114631927Y-123682167D01*
X114802833Y-123853073D01*
X115003798Y-123987353D01*
X115227097Y-124079847D01*
X115464151Y-124127000D01*
X115705849Y-124127000D01*
X115942903Y-124079847D01*
X116166202Y-123987353D01*
X116367167Y-123853073D01*
X116538073Y-123682167D01*
X116672353Y-123481202D01*
X116764847Y-123257903D01*
X116792740Y-123117677D01*
X116912605Y-123237543D01*
X116928314Y-123256684D01*
X116947454Y-123272392D01*
X116947462Y-123272400D01*
X116953061Y-123276995D01*
X117037647Y-123481202D01*
X117171927Y-123682167D01*
X117342833Y-123853073D01*
X117543798Y-123987353D01*
X117767097Y-124079847D01*
X118004151Y-124127000D01*
X118245849Y-124127000D01*
X118482903Y-124079847D01*
X118706202Y-123987353D01*
X118907167Y-123853073D01*
X119078073Y-123682167D01*
X119212353Y-123481202D01*
X119304847Y-123257903D01*
X119352000Y-123020849D01*
X119352000Y-122779151D01*
X119304847Y-122542097D01*
X119212353Y-122318798D01*
X119078073Y-122117833D01*
X118907167Y-121946927D01*
X118706202Y-121812647D01*
X118482903Y-121720153D01*
X118245849Y-121673000D01*
X118004151Y-121673000D01*
X117767097Y-121720153D01*
X117543798Y-121812647D01*
X117342833Y-121946927D01*
X117192347Y-122097413D01*
X116278757Y-121183824D01*
X116675000Y-121183824D01*
X116748905Y-121176545D01*
X116819970Y-121154988D01*
X116860000Y-121133591D01*
X116900030Y-121154988D01*
X116971095Y-121176545D01*
X117045000Y-121183824D01*
X117945000Y-121183824D01*
X118018905Y-121176545D01*
X118089970Y-121154988D01*
X118130000Y-121133591D01*
X118170030Y-121154988D01*
X118241095Y-121176545D01*
X118315000Y-121183824D01*
X119215000Y-121183824D01*
X119288905Y-121176545D01*
X119359970Y-121154988D01*
X119400000Y-121133591D01*
X119440030Y-121154988D01*
X119511095Y-121176545D01*
X119585000Y-121183824D01*
X120485000Y-121183824D01*
X120558905Y-121176545D01*
X120629970Y-121154988D01*
X120670000Y-121133591D01*
X120710030Y-121154988D01*
X120781095Y-121176545D01*
X120855000Y-121183824D01*
X121755000Y-121183824D01*
X121828905Y-121176545D01*
X121899970Y-121154988D01*
X121940000Y-121133591D01*
X121980030Y-121154988D01*
X122051095Y-121176545D01*
X122125000Y-121183824D01*
X122472239Y-121183824D01*
X121578152Y-122077912D01*
X121447167Y-121946927D01*
X121246202Y-121812647D01*
X121022903Y-121720153D01*
X120785849Y-121673000D01*
X120544151Y-121673000D01*
X120307097Y-121720153D01*
X120083798Y-121812647D01*
X119882833Y-121946927D01*
X119711927Y-122117833D01*
X119577647Y-122318798D01*
X119485153Y-122542097D01*
X119438000Y-122779151D01*
X119438000Y-123020849D01*
X119485153Y-123257903D01*
X119577647Y-123481202D01*
X119711927Y-123682167D01*
X119882833Y-123853073D01*
X120083798Y-123987353D01*
X120307097Y-124079847D01*
X120544151Y-124127000D01*
X120785849Y-124127000D01*
X121022903Y-124079847D01*
X121246202Y-123987353D01*
X121447167Y-123853073D01*
X121618073Y-123682167D01*
X121752353Y-123481202D01*
X121844847Y-123257903D01*
X121851506Y-123224426D01*
X121990789Y-123085143D01*
X122025153Y-123257903D01*
X122117647Y-123481202D01*
X122251927Y-123682167D01*
X122422833Y-123853073D01*
X122623798Y-123987353D01*
X122847097Y-124079847D01*
X123084151Y-124127000D01*
X123325849Y-124127000D01*
X123562903Y-124079847D01*
X123786202Y-123987353D01*
X123987167Y-123853073D01*
X124158073Y-123682167D01*
X124258112Y-123532447D01*
X124256928Y-123750000D01*
X124269188Y-123874482D01*
X124305498Y-123994180D01*
X124364463Y-124104494D01*
X124443815Y-124201185D01*
X124540506Y-124280537D01*
X124650820Y-124339502D01*
X124770518Y-124375812D01*
X124895000Y-124388072D01*
X125459250Y-124385000D01*
X125617998Y-124226252D01*
X125617998Y-124385000D01*
X125730316Y-124385000D01*
X125722213Y-124390414D01*
X125530414Y-124582213D01*
X125379718Y-124807746D01*
X125275917Y-125058344D01*
X125223000Y-125324377D01*
X125223000Y-125595623D01*
X125275917Y-125861656D01*
X125379718Y-126112254D01*
X125530414Y-126337787D01*
X125558630Y-126366003D01*
X125475518Y-126374188D01*
X125355820Y-126410498D01*
X125245506Y-126469463D01*
X125148815Y-126548815D01*
X125069463Y-126645506D01*
X125010498Y-126755820D01*
X124974188Y-126875518D01*
X124961928Y-127000000D01*
X124965000Y-127714250D01*
X125123750Y-127873000D01*
X126473000Y-127873000D01*
X126473000Y-127853000D01*
X126727000Y-127853000D01*
X126727000Y-127873000D01*
X126747000Y-127873000D01*
X126747000Y-128127000D01*
X126727000Y-128127000D01*
X126727000Y-128147000D01*
X126473000Y-128147000D01*
X126473000Y-128127000D01*
X125123750Y-128127000D01*
X124965000Y-128285750D01*
X124962689Y-128823001D01*
X114767756Y-128823001D01*
X114777000Y-128776528D01*
X114777000Y-128672000D01*
X124927000Y-128672000D01*
X124927000Y-125368000D01*
X111873000Y-125368000D01*
X111873000Y-128672000D01*
X113223000Y-128672000D01*
X113223000Y-128776528D01*
X113252859Y-128926643D01*
X113311431Y-129068048D01*
X113396464Y-129195309D01*
X113504691Y-129303536D01*
X113526383Y-129318030D01*
X113533969Y-129343037D01*
X113580583Y-129430247D01*
X113643316Y-129506686D01*
X113662468Y-129522404D01*
X113713064Y-129573000D01*
X110920883Y-129573000D01*
X110789101Y-129560078D01*
X110682430Y-129527873D01*
X110584039Y-129475558D01*
X110497687Y-129405130D01*
X110426657Y-129319270D01*
X110373661Y-129221255D01*
X110340710Y-129114807D01*
X110327000Y-128984371D01*
X110327000Y-122779151D01*
X111818000Y-122779151D01*
X111818000Y-123020849D01*
X111865153Y-123257903D01*
X111957647Y-123481202D01*
X112091927Y-123682167D01*
X112262833Y-123853073D01*
X112463798Y-123987353D01*
X112687097Y-124079847D01*
X112924151Y-124127000D01*
X113165849Y-124127000D01*
X113402903Y-124079847D01*
X113626202Y-123987353D01*
X113827167Y-123853073D01*
X113998073Y-123682167D01*
X114132353Y-123481202D01*
X114224847Y-123257903D01*
X114272000Y-123020849D01*
X114272000Y-122779151D01*
X114224847Y-122542097D01*
X114132353Y-122318798D01*
X113998073Y-122117833D01*
X113827167Y-121946927D01*
X113626202Y-121812647D01*
X113402903Y-121720153D01*
X113165849Y-121673000D01*
X112924151Y-121673000D01*
X112687097Y-121720153D01*
X112463798Y-121812647D01*
X112262833Y-121946927D01*
X112091927Y-122117833D01*
X111957647Y-122318798D01*
X111865153Y-122542097D01*
X111818000Y-122779151D01*
X110327000Y-122779151D01*
X110327000Y-119633824D01*
X111900000Y-119633824D01*
X111973905Y-119626545D01*
X112044970Y-119604988D01*
X112110463Y-119569981D01*
X112167869Y-119522869D01*
X112214981Y-119465463D01*
X112249988Y-119399970D01*
X112271545Y-119328905D01*
X112273702Y-119307000D01*
X112625355Y-119307000D01*
X112649998Y-119309427D01*
X112674641Y-119307000D01*
X112674651Y-119307000D01*
X112748407Y-119299736D01*
X112843034Y-119271031D01*
X112856176Y-119264006D01*
X112856176Y-120805000D01*
%TA.AperFunction,Conductor*%
D25*
G36*
X112856176Y-120805000D02*
G01*
X112863455Y-120878905D01*
X112885012Y-120949970D01*
X112920019Y-121015463D01*
X112967131Y-121072869D01*
X113024537Y-121119981D01*
X113090030Y-121154988D01*
X113161095Y-121176545D01*
X113215596Y-121181913D01*
X113218970Y-121193036D01*
X113265584Y-121280245D01*
X113312601Y-121337535D01*
X113312604Y-121337538D01*
X113328317Y-121356684D01*
X113347463Y-121372397D01*
X114437960Y-122462895D01*
X114405153Y-122542097D01*
X114358000Y-122779151D01*
X114358000Y-123020849D01*
X114405153Y-123257903D01*
X114497647Y-123481202D01*
X114631927Y-123682167D01*
X114802833Y-123853073D01*
X115003798Y-123987353D01*
X115227097Y-124079847D01*
X115464151Y-124127000D01*
X115705849Y-124127000D01*
X115942903Y-124079847D01*
X116166202Y-123987353D01*
X116367167Y-123853073D01*
X116538073Y-123682167D01*
X116672353Y-123481202D01*
X116764847Y-123257903D01*
X116792740Y-123117677D01*
X116912605Y-123237543D01*
X116928314Y-123256684D01*
X116947454Y-123272392D01*
X116947462Y-123272400D01*
X116953061Y-123276995D01*
X117037647Y-123481202D01*
X117171927Y-123682167D01*
X117342833Y-123853073D01*
X117543798Y-123987353D01*
X117767097Y-124079847D01*
X118004151Y-124127000D01*
X118245849Y-124127000D01*
X118482903Y-124079847D01*
X118706202Y-123987353D01*
X118907167Y-123853073D01*
X119078073Y-123682167D01*
X119212353Y-123481202D01*
X119304847Y-123257903D01*
X119352000Y-123020849D01*
X119352000Y-122779151D01*
X119304847Y-122542097D01*
X119212353Y-122318798D01*
X119078073Y-122117833D01*
X118907167Y-121946927D01*
X118706202Y-121812647D01*
X118482903Y-121720153D01*
X118245849Y-121673000D01*
X118004151Y-121673000D01*
X117767097Y-121720153D01*
X117543798Y-121812647D01*
X117342833Y-121946927D01*
X117192347Y-122097413D01*
X116278757Y-121183824D01*
X116675000Y-121183824D01*
X116748905Y-121176545D01*
X116819970Y-121154988D01*
X116860000Y-121133591D01*
X116900030Y-121154988D01*
X116971095Y-121176545D01*
X117045000Y-121183824D01*
X117945000Y-121183824D01*
X118018905Y-121176545D01*
X118089970Y-121154988D01*
X118130000Y-121133591D01*
X118170030Y-121154988D01*
X118241095Y-121176545D01*
X118315000Y-121183824D01*
X119215000Y-121183824D01*
X119288905Y-121176545D01*
X119359970Y-121154988D01*
X119400000Y-121133591D01*
X119440030Y-121154988D01*
X119511095Y-121176545D01*
X119585000Y-121183824D01*
X120485000Y-121183824D01*
X120558905Y-121176545D01*
X120629970Y-121154988D01*
X120670000Y-121133591D01*
X120710030Y-121154988D01*
X120781095Y-121176545D01*
X120855000Y-121183824D01*
X121755000Y-121183824D01*
X121828905Y-121176545D01*
X121899970Y-121154988D01*
X121940000Y-121133591D01*
X121980030Y-121154988D01*
X122051095Y-121176545D01*
X122125000Y-121183824D01*
X122472239Y-121183824D01*
X121578152Y-122077912D01*
X121447167Y-121946927D01*
X121246202Y-121812647D01*
X121022903Y-121720153D01*
X120785849Y-121673000D01*
X120544151Y-121673000D01*
X120307097Y-121720153D01*
X120083798Y-121812647D01*
X119882833Y-121946927D01*
X119711927Y-122117833D01*
X119577647Y-122318798D01*
X119485153Y-122542097D01*
X119438000Y-122779151D01*
X119438000Y-123020849D01*
X119485153Y-123257903D01*
X119577647Y-123481202D01*
X119711927Y-123682167D01*
X119882833Y-123853073D01*
X120083798Y-123987353D01*
X120307097Y-124079847D01*
X120544151Y-124127000D01*
X120785849Y-124127000D01*
X121022903Y-124079847D01*
X121246202Y-123987353D01*
X121447167Y-123853073D01*
X121618073Y-123682167D01*
X121752353Y-123481202D01*
X121844847Y-123257903D01*
X121851506Y-123224426D01*
X121990789Y-123085143D01*
X122025153Y-123257903D01*
X122117647Y-123481202D01*
X122251927Y-123682167D01*
X122422833Y-123853073D01*
X122623798Y-123987353D01*
X122847097Y-124079847D01*
X123084151Y-124127000D01*
X123325849Y-124127000D01*
X123562903Y-124079847D01*
X123786202Y-123987353D01*
X123987167Y-123853073D01*
X124158073Y-123682167D01*
X124258112Y-123532447D01*
X124256928Y-123750000D01*
X124269188Y-123874482D01*
X124305498Y-123994180D01*
X124364463Y-124104494D01*
X124443815Y-124201185D01*
X124540506Y-124280537D01*
X124650820Y-124339502D01*
X124770518Y-124375812D01*
X124895000Y-124388072D01*
X125459250Y-124385000D01*
X125617998Y-124226252D01*
X125617998Y-124385000D01*
X125730316Y-124385000D01*
X125722213Y-124390414D01*
X125530414Y-124582213D01*
X125379718Y-124807746D01*
X125275917Y-125058344D01*
X125223000Y-125324377D01*
X125223000Y-125595623D01*
X125275917Y-125861656D01*
X125379718Y-126112254D01*
X125530414Y-126337787D01*
X125558630Y-126366003D01*
X125475518Y-126374188D01*
X125355820Y-126410498D01*
X125245506Y-126469463D01*
X125148815Y-126548815D01*
X125069463Y-126645506D01*
X125010498Y-126755820D01*
X124974188Y-126875518D01*
X124961928Y-127000000D01*
X124965000Y-127714250D01*
X125123750Y-127873000D01*
X126473000Y-127873000D01*
X126473000Y-127853000D01*
X126727000Y-127853000D01*
X126727000Y-127873000D01*
X126747000Y-127873000D01*
X126747000Y-128127000D01*
X126727000Y-128127000D01*
X126727000Y-128147000D01*
X126473000Y-128147000D01*
X126473000Y-128127000D01*
X125123750Y-128127000D01*
X124965000Y-128285750D01*
X124962689Y-128823001D01*
X114767756Y-128823001D01*
X114777000Y-128776528D01*
X114777000Y-128672000D01*
X124927000Y-128672000D01*
X124927000Y-125368000D01*
X111873000Y-125368000D01*
X111873000Y-128672000D01*
X113223000Y-128672000D01*
X113223000Y-128776528D01*
X113252859Y-128926643D01*
X113311431Y-129068048D01*
X113396464Y-129195309D01*
X113504691Y-129303536D01*
X113526383Y-129318030D01*
X113533969Y-129343037D01*
X113580583Y-129430247D01*
X113643316Y-129506686D01*
X113662468Y-129522404D01*
X113713064Y-129573000D01*
X110920883Y-129573000D01*
X110789101Y-129560078D01*
X110682430Y-129527873D01*
X110584039Y-129475558D01*
X110497687Y-129405130D01*
X110426657Y-129319270D01*
X110373661Y-129221255D01*
X110340710Y-129114807D01*
X110327000Y-128984371D01*
X110327000Y-122779151D01*
X111818000Y-122779151D01*
X111818000Y-123020849D01*
X111865153Y-123257903D01*
X111957647Y-123481202D01*
X112091927Y-123682167D01*
X112262833Y-123853073D01*
X112463798Y-123987353D01*
X112687097Y-124079847D01*
X112924151Y-124127000D01*
X113165849Y-124127000D01*
X113402903Y-124079847D01*
X113626202Y-123987353D01*
X113827167Y-123853073D01*
X113998073Y-123682167D01*
X114132353Y-123481202D01*
X114224847Y-123257903D01*
X114272000Y-123020849D01*
X114272000Y-122779151D01*
X114224847Y-122542097D01*
X114132353Y-122318798D01*
X113998073Y-122117833D01*
X113827167Y-121946927D01*
X113626202Y-121812647D01*
X113402903Y-121720153D01*
X113165849Y-121673000D01*
X112924151Y-121673000D01*
X112687097Y-121720153D01*
X112463798Y-121812647D01*
X112262833Y-121946927D01*
X112091927Y-122117833D01*
X111957647Y-122318798D01*
X111865153Y-122542097D01*
X111818000Y-122779151D01*
X110327000Y-122779151D01*
X110327000Y-119633824D01*
X111900000Y-119633824D01*
X111973905Y-119626545D01*
X112044970Y-119604988D01*
X112110463Y-119569981D01*
X112167869Y-119522869D01*
X112214981Y-119465463D01*
X112249988Y-119399970D01*
X112271545Y-119328905D01*
X112273702Y-119307000D01*
X112625355Y-119307000D01*
X112649998Y-119309427D01*
X112674641Y-119307000D01*
X112674651Y-119307000D01*
X112748407Y-119299736D01*
X112843034Y-119271031D01*
X112856176Y-119264006D01*
X112856176Y-120805000D01*
G37*
%TD.AperFunction*%
D24*
X128027000Y-118678000D02*
X128047000Y-118678000D01*
X128047000Y-118932000D01*
X128027000Y-118932000D01*
X128027000Y-119731250D01*
X128185750Y-119890000D01*
X128473000Y-119891235D01*
X128473000Y-128979117D01*
X128460078Y-129110899D01*
X128427873Y-129217570D01*
X128427001Y-129219210D01*
X128427001Y-126809643D01*
X128429428Y-126785000D01*
X128427001Y-126760357D01*
X128427001Y-126760348D01*
X128419737Y-126686592D01*
X128391032Y-126591965D01*
X128344418Y-126504756D01*
X128281685Y-126428317D01*
X128262539Y-126412604D01*
X127861845Y-126011911D01*
X127924083Y-125861656D01*
X127977000Y-125595623D01*
X127977000Y-125324377D01*
X127924083Y-125058344D01*
X127861846Y-124908089D01*
X127937537Y-124832398D01*
X127956683Y-124816685D01*
X128019416Y-124740246D01*
X128066030Y-124653037D01*
X128094735Y-124558410D01*
X128101999Y-124484654D01*
X128101999Y-124484645D01*
X128104426Y-124460002D01*
X128101999Y-124435359D01*
X128101999Y-122494640D01*
X128104426Y-122469997D01*
X128101999Y-122445354D01*
X128101999Y-122445344D01*
X128094735Y-122371588D01*
X128066030Y-122276961D01*
X128019416Y-122189752D01*
X127956683Y-122113313D01*
X127937537Y-122097600D01*
X127076999Y-121237063D01*
X127076999Y-119892311D01*
X127614250Y-119890000D01*
X127773000Y-119731250D01*
X127773000Y-118932000D01*
X127753000Y-118932000D01*
X127753000Y-118678000D01*
X127773000Y-118678000D01*
X127773000Y-118658000D01*
X128027000Y-118658000D01*
X128027000Y-118678000D01*
%TA.AperFunction,Conductor*%
D25*
G36*
X128027000Y-118678000D02*
G01*
X128047000Y-118678000D01*
X128047000Y-118932000D01*
X128027000Y-118932000D01*
X128027000Y-119731250D01*
X128185750Y-119890000D01*
X128473000Y-119891235D01*
X128473000Y-128979117D01*
X128460078Y-129110899D01*
X128427873Y-129217570D01*
X128427001Y-129219210D01*
X128427001Y-126809643D01*
X128429428Y-126785000D01*
X128427001Y-126760357D01*
X128427001Y-126760348D01*
X128419737Y-126686592D01*
X128391032Y-126591965D01*
X128344418Y-126504756D01*
X128281685Y-126428317D01*
X128262539Y-126412604D01*
X127861845Y-126011911D01*
X127924083Y-125861656D01*
X127977000Y-125595623D01*
X127977000Y-125324377D01*
X127924083Y-125058344D01*
X127861846Y-124908089D01*
X127937537Y-124832398D01*
X127956683Y-124816685D01*
X128019416Y-124740246D01*
X128066030Y-124653037D01*
X128094735Y-124558410D01*
X128101999Y-124484654D01*
X128101999Y-124484645D01*
X128104426Y-124460002D01*
X128101999Y-124435359D01*
X128101999Y-122494640D01*
X128104426Y-122469997D01*
X128101999Y-122445354D01*
X128101999Y-122445344D01*
X128094735Y-122371588D01*
X128066030Y-122276961D01*
X128019416Y-122189752D01*
X127956683Y-122113313D01*
X127937537Y-122097600D01*
X127076999Y-121237063D01*
X127076999Y-119892311D01*
X127614250Y-119890000D01*
X127773000Y-119731250D01*
X127773000Y-118932000D01*
X127753000Y-118932000D01*
X127753000Y-118678000D01*
X127773000Y-118678000D01*
X127773000Y-118658000D01*
X128027000Y-118658000D01*
X128027000Y-118678000D01*
G37*
%TD.AperFunction*%
D24*
X126072999Y-121414770D02*
X126030750Y-121415000D01*
X125872000Y-121573750D01*
X125872000Y-122773000D01*
X125892000Y-122773000D01*
X125892000Y-123027000D01*
X125872000Y-123027000D01*
X125872000Y-123047000D01*
X125618000Y-123047000D01*
X125618000Y-123027000D01*
X125598000Y-123027000D01*
X125598000Y-122773000D01*
X125618000Y-122773000D01*
X125618000Y-121573750D01*
X125485841Y-121441591D01*
X125565000Y-121443072D01*
X125689482Y-121430812D01*
X125809180Y-121394502D01*
X125919494Y-121335537D01*
X126016185Y-121256185D01*
X126072999Y-121186957D01*
X126072999Y-121414770D01*
%TA.AperFunction,Conductor*%
D25*
G36*
X126072999Y-121414770D02*
G01*
X126030750Y-121415000D01*
X125872000Y-121573750D01*
X125872000Y-122773000D01*
X125892000Y-122773000D01*
X125892000Y-123027000D01*
X125872000Y-123027000D01*
X125872000Y-123047000D01*
X125618000Y-123047000D01*
X125618000Y-123027000D01*
X125598000Y-123027000D01*
X125598000Y-122773000D01*
X125618000Y-122773000D01*
X125618000Y-121573750D01*
X125485841Y-121441591D01*
X125565000Y-121443072D01*
X125689482Y-121430812D01*
X125809180Y-121394502D01*
X125919494Y-121335537D01*
X126016185Y-121256185D01*
X126072999Y-121186957D01*
X126072999Y-121414770D01*
G37*
%TD.AperFunction*%
D24*
X125242000Y-119678000D02*
X125262000Y-119678000D01*
X125262000Y-119932000D01*
X125242000Y-119932000D01*
X125242000Y-119952000D01*
X124988000Y-119952000D01*
X124988000Y-119932000D01*
X124968000Y-119932000D01*
X124968000Y-119678000D01*
X124988000Y-119678000D01*
X124988000Y-119658000D01*
X125242000Y-119658000D01*
X125242000Y-119678000D01*
%TA.AperFunction,Conductor*%
D25*
G36*
X125242000Y-119678000D02*
G01*
X125262000Y-119678000D01*
X125262000Y-119932000D01*
X125242000Y-119932000D01*
X125242000Y-119952000D01*
X124988000Y-119952000D01*
X124988000Y-119932000D01*
X124968000Y-119932000D01*
X124968000Y-119678000D01*
X124988000Y-119678000D01*
X124988000Y-119658000D01*
X125242000Y-119658000D01*
X125242000Y-119678000D01*
G37*
%TD.AperFunction*%
D24*
X119553263Y-104736965D02*
X119473357Y-104752859D01*
X119331952Y-104811431D01*
X119204691Y-104896464D01*
X119096464Y-105004691D01*
X119011431Y-105131952D01*
X118952859Y-105273357D01*
X118923000Y-105423472D01*
X118923000Y-105576528D01*
X118952859Y-105726643D01*
X119011431Y-105868048D01*
X119096464Y-105995309D01*
X119204691Y-106103536D01*
X119331952Y-106188569D01*
X119473357Y-106247141D01*
X119623472Y-106277000D01*
X119776528Y-106277000D01*
X119926643Y-106247141D01*
X120068048Y-106188569D01*
X120195309Y-106103536D01*
X120296845Y-106002000D01*
X121482068Y-106002000D01*
X121707465Y-106227398D01*
X121707470Y-106227402D01*
X123132473Y-107652406D01*
X122849474Y-107580145D01*
X122552457Y-107564196D01*
X122258037Y-107606499D01*
X121977526Y-107705428D01*
X121834025Y-107782132D01*
X121753365Y-108033760D01*
X122620000Y-108900395D01*
X122634143Y-108886253D01*
X122813748Y-109065858D01*
X122799605Y-109080000D01*
X122813748Y-109094143D01*
X122634143Y-109273748D01*
X122620000Y-109259605D01*
X121753365Y-110126240D01*
X121834025Y-110377868D01*
X122102329Y-110506267D01*
X122390526Y-110579855D01*
X122687543Y-110595804D01*
X122981963Y-110553501D01*
X123262474Y-110454572D01*
X123347990Y-110408862D01*
X123347989Y-116394382D01*
X123137671Y-116293733D01*
X122849474Y-116220145D01*
X122552457Y-116204196D01*
X122258037Y-116246499D01*
X121977526Y-116345428D01*
X121834025Y-116422132D01*
X121753365Y-116673760D01*
X122620000Y-117540395D01*
X122634143Y-117526253D01*
X122813748Y-117705858D01*
X122799605Y-117720000D01*
X122813748Y-117734143D01*
X122634143Y-117913748D01*
X122620000Y-117899605D01*
X122605858Y-117913748D01*
X122426253Y-117734143D01*
X122440395Y-117720000D01*
X121573760Y-116853365D01*
X121322132Y-116934025D01*
X121193733Y-117202329D01*
X121120145Y-117490526D01*
X121104196Y-117787543D01*
X121146499Y-118081963D01*
X121245428Y-118362474D01*
X121279478Y-118426176D01*
X120855000Y-118426176D01*
X120781095Y-118433455D01*
X120710030Y-118455012D01*
X120670000Y-118476409D01*
X120629970Y-118455012D01*
X120558905Y-118433455D01*
X120485000Y-118426176D01*
X119585000Y-118426176D01*
X119511095Y-118433455D01*
X119440030Y-118455012D01*
X119400000Y-118476409D01*
X119359970Y-118455012D01*
X119288905Y-118433455D01*
X119215000Y-118426176D01*
X118315000Y-118426176D01*
X118241095Y-118433455D01*
X118170030Y-118455012D01*
X118130000Y-118476409D01*
X118089970Y-118455012D01*
X118018905Y-118433455D01*
X117945000Y-118426176D01*
X117045000Y-118426176D01*
X116971095Y-118433455D01*
X116900030Y-118455012D01*
X116860000Y-118476409D01*
X116819970Y-118455012D01*
X116748905Y-118433455D01*
X116675000Y-118426176D01*
X115775000Y-118426176D01*
X115701095Y-118433455D01*
X115630030Y-118455012D01*
X115590000Y-118476409D01*
X115549970Y-118455012D01*
X115478905Y-118433455D01*
X115405000Y-118426176D01*
X114505000Y-118426176D01*
X114431095Y-118433455D01*
X114360030Y-118455012D01*
X114320000Y-118476409D01*
X114279970Y-118455012D01*
X114208905Y-118433455D01*
X114135000Y-118426176D01*
X113562898Y-118426176D01*
X113563709Y-118417942D01*
X113563709Y-118417933D01*
X113566136Y-118393290D01*
X113563709Y-118368647D01*
X113563709Y-118201991D01*
X114425521Y-118201991D01*
X114450164Y-118204418D01*
X114474807Y-118201991D01*
X114474817Y-118201991D01*
X114548573Y-118194727D01*
X114643200Y-118166022D01*
X114730409Y-118119408D01*
X114806848Y-118056675D01*
X114822565Y-118037524D01*
X115337550Y-117522540D01*
X115356696Y-117506827D01*
X115383027Y-117474744D01*
X115419428Y-117430389D01*
X115425583Y-117418874D01*
X115466043Y-117343179D01*
X115494748Y-117248552D01*
X115502012Y-117174796D01*
X115502012Y-117174779D01*
X115504438Y-117150144D01*
X115502012Y-117125508D01*
X115502012Y-114929104D01*
X116514421Y-115941514D01*
X116514421Y-116085107D01*
X116544280Y-116235222D01*
X116602852Y-116376627D01*
X116687885Y-116503888D01*
X116796112Y-116612115D01*
X116923373Y-116697148D01*
X117064778Y-116755720D01*
X117214893Y-116785579D01*
X117367949Y-116785579D01*
X117518064Y-116755720D01*
X117659469Y-116697148D01*
X117786730Y-116612115D01*
X117894957Y-116503888D01*
X117979990Y-116376627D01*
X118038562Y-116235222D01*
X118068421Y-116085107D01*
X118068421Y-115992132D01*
X118151663Y-115975575D01*
X118293068Y-115917003D01*
X118323000Y-115897003D01*
X118323000Y-115976528D01*
X118352859Y-116126643D01*
X118411431Y-116268048D01*
X118496464Y-116395309D01*
X118604691Y-116503536D01*
X118731952Y-116588569D01*
X118873357Y-116647141D01*
X119023472Y-116677000D01*
X119176528Y-116677000D01*
X119326643Y-116647141D01*
X119468048Y-116588569D01*
X119595309Y-116503536D01*
X119703536Y-116395309D01*
X119788569Y-116268048D01*
X119847141Y-116126643D01*
X119877000Y-115976528D01*
X119877000Y-115832934D01*
X121023938Y-114685997D01*
X121043084Y-114670284D01*
X121105817Y-114593845D01*
X121152431Y-114506636D01*
X121181136Y-114412009D01*
X121188400Y-114338253D01*
X121188400Y-114338244D01*
X121190827Y-114313601D01*
X121188400Y-114288958D01*
X121188400Y-113662668D01*
X121289936Y-113561132D01*
X121374969Y-113433871D01*
X121433541Y-113292466D01*
X121463400Y-113142351D01*
X121463400Y-112989295D01*
X121433541Y-112839180D01*
X121374969Y-112697775D01*
X121289936Y-112570514D01*
X121181709Y-112462287D01*
X121054448Y-112377254D01*
X120913043Y-112318682D01*
X120762928Y-112288823D01*
X120609872Y-112288823D01*
X120459757Y-112318682D01*
X120318352Y-112377254D01*
X120191091Y-112462287D01*
X120082864Y-112570514D01*
X119997831Y-112697775D01*
X119939259Y-112839180D01*
X119909400Y-112989295D01*
X119909400Y-113142351D01*
X119939259Y-113292466D01*
X119997831Y-113433871D01*
X120082864Y-113561132D01*
X120184400Y-113662668D01*
X120184401Y-114105664D01*
X119167066Y-115123000D01*
X119023472Y-115123000D01*
X118873357Y-115152859D01*
X118731952Y-115211431D01*
X118702020Y-115231431D01*
X118702020Y-115151906D01*
X118672161Y-115001791D01*
X118613589Y-114860386D01*
X118528556Y-114733125D01*
X118420329Y-114624898D01*
X118293068Y-114539865D01*
X118151663Y-114481293D01*
X118027021Y-114456501D01*
X118027021Y-114151841D01*
X118106932Y-114205236D01*
X118248337Y-114263808D01*
X118398452Y-114293667D01*
X118551508Y-114293667D01*
X118701623Y-114263808D01*
X118843028Y-114205236D01*
X118970289Y-114120203D01*
X119078516Y-114011976D01*
X119163549Y-113884715D01*
X119222121Y-113743310D01*
X119251980Y-113593195D01*
X119251980Y-113440139D01*
X119222121Y-113290024D01*
X119163549Y-113148619D01*
X119078516Y-113021358D01*
X118970289Y-112913131D01*
X118843028Y-112828098D01*
X118701623Y-112769526D01*
X118551508Y-112739667D01*
X118407915Y-112739667D01*
X118076999Y-112408752D01*
X118076999Y-109147543D01*
X121104196Y-109147543D01*
X121146499Y-109441963D01*
X121245428Y-109722474D01*
X121322132Y-109865975D01*
X121573760Y-109946635D01*
X122440395Y-109080000D01*
X121573760Y-108213365D01*
X121322132Y-108294025D01*
X121193733Y-108562329D01*
X121120145Y-108850526D01*
X121104196Y-109147543D01*
X118076999Y-109147543D01*
X118076999Y-107305757D01*
X118487474Y-106895283D01*
X118506615Y-106879574D01*
X118522323Y-106860434D01*
X118522331Y-106860426D01*
X118569348Y-106803136D01*
X118615962Y-106715927D01*
X118644667Y-106621300D01*
X118646791Y-106599736D01*
X118651931Y-106547543D01*
X118651931Y-106547536D01*
X118654358Y-106522890D01*
X118651931Y-106498245D01*
X118651931Y-105385085D01*
X118654358Y-105360442D01*
X118651931Y-105335799D01*
X118651931Y-105335790D01*
X118644667Y-105262034D01*
X118615962Y-105167407D01*
X118569348Y-105080198D01*
X118506615Y-105003759D01*
X118487469Y-104988046D01*
X118006767Y-104507345D01*
X117991050Y-104488194D01*
X117914611Y-104425461D01*
X117827402Y-104378847D01*
X117732775Y-104350142D01*
X117666237Y-104343589D01*
X117563990Y-104241342D01*
X117436729Y-104156309D01*
X117295324Y-104097737D01*
X117145209Y-104067878D01*
X117100025Y-104067878D01*
X117198404Y-103969499D01*
X118785797Y-103969499D01*
X119553263Y-104736965D01*
%TA.AperFunction,Conductor*%
D25*
G36*
X119553263Y-104736965D02*
G01*
X119473357Y-104752859D01*
X119331952Y-104811431D01*
X119204691Y-104896464D01*
X119096464Y-105004691D01*
X119011431Y-105131952D01*
X118952859Y-105273357D01*
X118923000Y-105423472D01*
X118923000Y-105576528D01*
X118952859Y-105726643D01*
X119011431Y-105868048D01*
X119096464Y-105995309D01*
X119204691Y-106103536D01*
X119331952Y-106188569D01*
X119473357Y-106247141D01*
X119623472Y-106277000D01*
X119776528Y-106277000D01*
X119926643Y-106247141D01*
X120068048Y-106188569D01*
X120195309Y-106103536D01*
X120296845Y-106002000D01*
X121482068Y-106002000D01*
X121707465Y-106227398D01*
X121707470Y-106227402D01*
X123132473Y-107652406D01*
X122849474Y-107580145D01*
X122552457Y-107564196D01*
X122258037Y-107606499D01*
X121977526Y-107705428D01*
X121834025Y-107782132D01*
X121753365Y-108033760D01*
X122620000Y-108900395D01*
X122634143Y-108886253D01*
X122813748Y-109065858D01*
X122799605Y-109080000D01*
X122813748Y-109094143D01*
X122634143Y-109273748D01*
X122620000Y-109259605D01*
X121753365Y-110126240D01*
X121834025Y-110377868D01*
X122102329Y-110506267D01*
X122390526Y-110579855D01*
X122687543Y-110595804D01*
X122981963Y-110553501D01*
X123262474Y-110454572D01*
X123347990Y-110408862D01*
X123347989Y-116394382D01*
X123137671Y-116293733D01*
X122849474Y-116220145D01*
X122552457Y-116204196D01*
X122258037Y-116246499D01*
X121977526Y-116345428D01*
X121834025Y-116422132D01*
X121753365Y-116673760D01*
X122620000Y-117540395D01*
X122634143Y-117526253D01*
X122813748Y-117705858D01*
X122799605Y-117720000D01*
X122813748Y-117734143D01*
X122634143Y-117913748D01*
X122620000Y-117899605D01*
X122605858Y-117913748D01*
X122426253Y-117734143D01*
X122440395Y-117720000D01*
X121573760Y-116853365D01*
X121322132Y-116934025D01*
X121193733Y-117202329D01*
X121120145Y-117490526D01*
X121104196Y-117787543D01*
X121146499Y-118081963D01*
X121245428Y-118362474D01*
X121279478Y-118426176D01*
X120855000Y-118426176D01*
X120781095Y-118433455D01*
X120710030Y-118455012D01*
X120670000Y-118476409D01*
X120629970Y-118455012D01*
X120558905Y-118433455D01*
X120485000Y-118426176D01*
X119585000Y-118426176D01*
X119511095Y-118433455D01*
X119440030Y-118455012D01*
X119400000Y-118476409D01*
X119359970Y-118455012D01*
X119288905Y-118433455D01*
X119215000Y-118426176D01*
X118315000Y-118426176D01*
X118241095Y-118433455D01*
X118170030Y-118455012D01*
X118130000Y-118476409D01*
X118089970Y-118455012D01*
X118018905Y-118433455D01*
X117945000Y-118426176D01*
X117045000Y-118426176D01*
X116971095Y-118433455D01*
X116900030Y-118455012D01*
X116860000Y-118476409D01*
X116819970Y-118455012D01*
X116748905Y-118433455D01*
X116675000Y-118426176D01*
X115775000Y-118426176D01*
X115701095Y-118433455D01*
X115630030Y-118455012D01*
X115590000Y-118476409D01*
X115549970Y-118455012D01*
X115478905Y-118433455D01*
X115405000Y-118426176D01*
X114505000Y-118426176D01*
X114431095Y-118433455D01*
X114360030Y-118455012D01*
X114320000Y-118476409D01*
X114279970Y-118455012D01*
X114208905Y-118433455D01*
X114135000Y-118426176D01*
X113562898Y-118426176D01*
X113563709Y-118417942D01*
X113563709Y-118417933D01*
X113566136Y-118393290D01*
X113563709Y-118368647D01*
X113563709Y-118201991D01*
X114425521Y-118201991D01*
X114450164Y-118204418D01*
X114474807Y-118201991D01*
X114474817Y-118201991D01*
X114548573Y-118194727D01*
X114643200Y-118166022D01*
X114730409Y-118119408D01*
X114806848Y-118056675D01*
X114822565Y-118037524D01*
X115337550Y-117522540D01*
X115356696Y-117506827D01*
X115383027Y-117474744D01*
X115419428Y-117430389D01*
X115425583Y-117418874D01*
X115466043Y-117343179D01*
X115494748Y-117248552D01*
X115502012Y-117174796D01*
X115502012Y-117174779D01*
X115504438Y-117150144D01*
X115502012Y-117125508D01*
X115502012Y-114929104D01*
X116514421Y-115941514D01*
X116514421Y-116085107D01*
X116544280Y-116235222D01*
X116602852Y-116376627D01*
X116687885Y-116503888D01*
X116796112Y-116612115D01*
X116923373Y-116697148D01*
X117064778Y-116755720D01*
X117214893Y-116785579D01*
X117367949Y-116785579D01*
X117518064Y-116755720D01*
X117659469Y-116697148D01*
X117786730Y-116612115D01*
X117894957Y-116503888D01*
X117979990Y-116376627D01*
X118038562Y-116235222D01*
X118068421Y-116085107D01*
X118068421Y-115992132D01*
X118151663Y-115975575D01*
X118293068Y-115917003D01*
X118323000Y-115897003D01*
X118323000Y-115976528D01*
X118352859Y-116126643D01*
X118411431Y-116268048D01*
X118496464Y-116395309D01*
X118604691Y-116503536D01*
X118731952Y-116588569D01*
X118873357Y-116647141D01*
X119023472Y-116677000D01*
X119176528Y-116677000D01*
X119326643Y-116647141D01*
X119468048Y-116588569D01*
X119595309Y-116503536D01*
X119703536Y-116395309D01*
X119788569Y-116268048D01*
X119847141Y-116126643D01*
X119877000Y-115976528D01*
X119877000Y-115832934D01*
X121023938Y-114685997D01*
X121043084Y-114670284D01*
X121105817Y-114593845D01*
X121152431Y-114506636D01*
X121181136Y-114412009D01*
X121188400Y-114338253D01*
X121188400Y-114338244D01*
X121190827Y-114313601D01*
X121188400Y-114288958D01*
X121188400Y-113662668D01*
X121289936Y-113561132D01*
X121374969Y-113433871D01*
X121433541Y-113292466D01*
X121463400Y-113142351D01*
X121463400Y-112989295D01*
X121433541Y-112839180D01*
X121374969Y-112697775D01*
X121289936Y-112570514D01*
X121181709Y-112462287D01*
X121054448Y-112377254D01*
X120913043Y-112318682D01*
X120762928Y-112288823D01*
X120609872Y-112288823D01*
X120459757Y-112318682D01*
X120318352Y-112377254D01*
X120191091Y-112462287D01*
X120082864Y-112570514D01*
X119997831Y-112697775D01*
X119939259Y-112839180D01*
X119909400Y-112989295D01*
X119909400Y-113142351D01*
X119939259Y-113292466D01*
X119997831Y-113433871D01*
X120082864Y-113561132D01*
X120184400Y-113662668D01*
X120184401Y-114105664D01*
X119167066Y-115123000D01*
X119023472Y-115123000D01*
X118873357Y-115152859D01*
X118731952Y-115211431D01*
X118702020Y-115231431D01*
X118702020Y-115151906D01*
X118672161Y-115001791D01*
X118613589Y-114860386D01*
X118528556Y-114733125D01*
X118420329Y-114624898D01*
X118293068Y-114539865D01*
X118151663Y-114481293D01*
X118027021Y-114456501D01*
X118027021Y-114151841D01*
X118106932Y-114205236D01*
X118248337Y-114263808D01*
X118398452Y-114293667D01*
X118551508Y-114293667D01*
X118701623Y-114263808D01*
X118843028Y-114205236D01*
X118970289Y-114120203D01*
X119078516Y-114011976D01*
X119163549Y-113884715D01*
X119222121Y-113743310D01*
X119251980Y-113593195D01*
X119251980Y-113440139D01*
X119222121Y-113290024D01*
X119163549Y-113148619D01*
X119078516Y-113021358D01*
X118970289Y-112913131D01*
X118843028Y-112828098D01*
X118701623Y-112769526D01*
X118551508Y-112739667D01*
X118407915Y-112739667D01*
X118076999Y-112408752D01*
X118076999Y-109147543D01*
X121104196Y-109147543D01*
X121146499Y-109441963D01*
X121245428Y-109722474D01*
X121322132Y-109865975D01*
X121573760Y-109946635D01*
X122440395Y-109080000D01*
X121573760Y-108213365D01*
X121322132Y-108294025D01*
X121193733Y-108562329D01*
X121120145Y-108850526D01*
X121104196Y-109147543D01*
X118076999Y-109147543D01*
X118076999Y-107305757D01*
X118487474Y-106895283D01*
X118506615Y-106879574D01*
X118522323Y-106860434D01*
X118522331Y-106860426D01*
X118569348Y-106803136D01*
X118615962Y-106715927D01*
X118644667Y-106621300D01*
X118646791Y-106599736D01*
X118651931Y-106547543D01*
X118651931Y-106547536D01*
X118654358Y-106522890D01*
X118651931Y-106498245D01*
X118651931Y-105385085D01*
X118654358Y-105360442D01*
X118651931Y-105335799D01*
X118651931Y-105335790D01*
X118644667Y-105262034D01*
X118615962Y-105167407D01*
X118569348Y-105080198D01*
X118506615Y-105003759D01*
X118487469Y-104988046D01*
X118006767Y-104507345D01*
X117991050Y-104488194D01*
X117914611Y-104425461D01*
X117827402Y-104378847D01*
X117732775Y-104350142D01*
X117666237Y-104343589D01*
X117563990Y-104241342D01*
X117436729Y-104156309D01*
X117295324Y-104097737D01*
X117145209Y-104067878D01*
X117100025Y-104067878D01*
X117198404Y-103969499D01*
X118785797Y-103969499D01*
X119553263Y-104736965D01*
G37*
%TD.AperFunction*%
D24*
X126528455Y-105358905D02*
X126550012Y-105429970D01*
X126571409Y-105470000D01*
X126550012Y-105510030D01*
X126528455Y-105581095D01*
X126521176Y-105655000D01*
X126521176Y-106555000D01*
X126528455Y-106628905D01*
X126550012Y-106699970D01*
X126571409Y-106740000D01*
X126550012Y-106780030D01*
X126528455Y-106851095D01*
X126521176Y-106925000D01*
X126521176Y-107684430D01*
X126468149Y-107727948D01*
X126447762Y-107731035D01*
X126191168Y-107823723D01*
X126078137Y-107884140D01*
X126012612Y-108123007D01*
X126661605Y-108772000D01*
X126423750Y-108772000D01*
X126363073Y-108832678D01*
X125833007Y-108302612D01*
X125594140Y-108368137D01*
X125478240Y-108615116D01*
X125412750Y-108879960D01*
X125400188Y-109152492D01*
X125441035Y-109422238D01*
X125533723Y-109678832D01*
X125594140Y-109791863D01*
X125833007Y-109857388D01*
X126265919Y-109424476D01*
X126261928Y-109465000D01*
X126265000Y-109629250D01*
X126342678Y-109706928D01*
X126012612Y-110036993D01*
X126078137Y-110275860D01*
X126261982Y-110362133D01*
X126261928Y-110365000D01*
X126274188Y-110489482D01*
X126310498Y-110609180D01*
X126369463Y-110719494D01*
X126448815Y-110816185D01*
X126521176Y-110875570D01*
X126521176Y-111635000D01*
X126528455Y-111708905D01*
X126550012Y-111779970D01*
X126571409Y-111820000D01*
X126550012Y-111860030D01*
X126528455Y-111931095D01*
X126521176Y-112005000D01*
X126521176Y-112905000D01*
X126528455Y-112978905D01*
X126550012Y-113049970D01*
X126571409Y-113090000D01*
X126550012Y-113130030D01*
X126528455Y-113201095D01*
X126521176Y-113275000D01*
X126521176Y-114175000D01*
X126528455Y-114248905D01*
X126550012Y-114319970D01*
X126571409Y-114360000D01*
X126550012Y-114400030D01*
X126528455Y-114471095D01*
X126521176Y-114545000D01*
X126521176Y-115445000D01*
X126528455Y-115518905D01*
X126550012Y-115589970D01*
X126571409Y-115630000D01*
X126550012Y-115670030D01*
X126528455Y-115741095D01*
X126524781Y-115778397D01*
X126456964Y-115798969D01*
X126369755Y-115845583D01*
X126369753Y-115845584D01*
X126369754Y-115845584D01*
X126312464Y-115892600D01*
X126312456Y-115892608D01*
X126293316Y-115908316D01*
X126277607Y-115927457D01*
X125176547Y-117028519D01*
X125126643Y-117007848D01*
X124976528Y-116977989D01*
X124823472Y-116977989D01*
X124673357Y-117007848D01*
X124531952Y-117066420D01*
X124404691Y-117151453D01*
X124351989Y-117204155D01*
X124351989Y-107684632D01*
X124354416Y-107659987D01*
X124351989Y-107635341D01*
X124351989Y-107635334D01*
X124344725Y-107561578D01*
X124344725Y-107561577D01*
X124316020Y-107466950D01*
X124269406Y-107379741D01*
X124222389Y-107322452D01*
X124222386Y-107322449D01*
X124206673Y-107303303D01*
X124187527Y-107287590D01*
X122417404Y-105517468D01*
X122417400Y-105517463D01*
X122236937Y-105337000D01*
X126526298Y-105337000D01*
X126528455Y-105358905D01*
%TA.AperFunction,Conductor*%
D25*
G36*
X126528455Y-105358905D02*
G01*
X126550012Y-105429970D01*
X126571409Y-105470000D01*
X126550012Y-105510030D01*
X126528455Y-105581095D01*
X126521176Y-105655000D01*
X126521176Y-106555000D01*
X126528455Y-106628905D01*
X126550012Y-106699970D01*
X126571409Y-106740000D01*
X126550012Y-106780030D01*
X126528455Y-106851095D01*
X126521176Y-106925000D01*
X126521176Y-107684430D01*
X126468149Y-107727948D01*
X126447762Y-107731035D01*
X126191168Y-107823723D01*
X126078137Y-107884140D01*
X126012612Y-108123007D01*
X126661605Y-108772000D01*
X126423750Y-108772000D01*
X126363073Y-108832678D01*
X125833007Y-108302612D01*
X125594140Y-108368137D01*
X125478240Y-108615116D01*
X125412750Y-108879960D01*
X125400188Y-109152492D01*
X125441035Y-109422238D01*
X125533723Y-109678832D01*
X125594140Y-109791863D01*
X125833007Y-109857388D01*
X126265919Y-109424476D01*
X126261928Y-109465000D01*
X126265000Y-109629250D01*
X126342678Y-109706928D01*
X126012612Y-110036993D01*
X126078137Y-110275860D01*
X126261982Y-110362133D01*
X126261928Y-110365000D01*
X126274188Y-110489482D01*
X126310498Y-110609180D01*
X126369463Y-110719494D01*
X126448815Y-110816185D01*
X126521176Y-110875570D01*
X126521176Y-111635000D01*
X126528455Y-111708905D01*
X126550012Y-111779970D01*
X126571409Y-111820000D01*
X126550012Y-111860030D01*
X126528455Y-111931095D01*
X126521176Y-112005000D01*
X126521176Y-112905000D01*
X126528455Y-112978905D01*
X126550012Y-113049970D01*
X126571409Y-113090000D01*
X126550012Y-113130030D01*
X126528455Y-113201095D01*
X126521176Y-113275000D01*
X126521176Y-114175000D01*
X126528455Y-114248905D01*
X126550012Y-114319970D01*
X126571409Y-114360000D01*
X126550012Y-114400030D01*
X126528455Y-114471095D01*
X126521176Y-114545000D01*
X126521176Y-115445000D01*
X126528455Y-115518905D01*
X126550012Y-115589970D01*
X126571409Y-115630000D01*
X126550012Y-115670030D01*
X126528455Y-115741095D01*
X126524781Y-115778397D01*
X126456964Y-115798969D01*
X126369755Y-115845583D01*
X126369753Y-115845584D01*
X126369754Y-115845584D01*
X126312464Y-115892600D01*
X126312456Y-115892608D01*
X126293316Y-115908316D01*
X126277607Y-115927457D01*
X125176547Y-117028519D01*
X125126643Y-117007848D01*
X124976528Y-116977989D01*
X124823472Y-116977989D01*
X124673357Y-117007848D01*
X124531952Y-117066420D01*
X124404691Y-117151453D01*
X124351989Y-117204155D01*
X124351989Y-107684632D01*
X124354416Y-107659987D01*
X124351989Y-107635341D01*
X124351989Y-107635334D01*
X124344725Y-107561578D01*
X124344725Y-107561577D01*
X124316020Y-107466950D01*
X124269406Y-107379741D01*
X124222389Y-107322452D01*
X124222386Y-107322449D01*
X124206673Y-107303303D01*
X124187527Y-107287590D01*
X122417404Y-105517468D01*
X122417400Y-105517463D01*
X122236937Y-105337000D01*
X126526298Y-105337000D01*
X126528455Y-105358905D01*
G37*
%TD.AperFunction*%
D24*
X114255610Y-110167224D02*
X114255611Y-110342351D01*
X114130968Y-110367143D01*
X113989563Y-110425715D01*
X113862302Y-110510748D01*
X113754075Y-110618975D01*
X113669042Y-110746236D01*
X113610470Y-110887641D01*
X113580611Y-111037756D01*
X113580611Y-111190812D01*
X113610470Y-111340927D01*
X113669042Y-111482332D01*
X113754075Y-111609593D01*
X113862302Y-111717820D01*
X113989563Y-111802853D01*
X114130968Y-111861425D01*
X114281083Y-111891284D01*
X114314501Y-111891284D01*
X114311443Y-111895861D01*
X114252871Y-112037266D01*
X114223012Y-112187381D01*
X114223012Y-112340437D01*
X114252871Y-112490552D01*
X114311443Y-112631957D01*
X114396476Y-112759218D01*
X114498013Y-112860755D01*
X114498012Y-116304997D01*
X114470211Y-116286421D01*
X114328806Y-116227849D01*
X114178691Y-116197990D01*
X114035097Y-116197990D01*
X113764574Y-115927467D01*
X113748857Y-115908316D01*
X113672418Y-115845583D01*
X113585209Y-115798969D01*
X113490582Y-115770264D01*
X113416826Y-115763000D01*
X113416816Y-115763000D01*
X113392173Y-115760573D01*
X113367530Y-115763000D01*
X112273702Y-115763000D01*
X112271545Y-115741095D01*
X112249988Y-115670030D01*
X112228591Y-115630000D01*
X112249988Y-115589970D01*
X112271545Y-115518905D01*
X112275219Y-115481603D01*
X112343036Y-115461031D01*
X112430245Y-115414417D01*
X112506684Y-115351684D01*
X112522401Y-115332533D01*
X113541299Y-114313636D01*
X113560445Y-114297923D01*
X113623178Y-114221484D01*
X113669792Y-114134275D01*
X113698497Y-114039648D01*
X113705761Y-113965892D01*
X113705761Y-113965883D01*
X113708188Y-113941240D01*
X113705761Y-113916597D01*
X113705761Y-113200606D01*
X113807297Y-113099070D01*
X113892330Y-112971809D01*
X113950902Y-112830404D01*
X113980761Y-112680289D01*
X113980761Y-112527233D01*
X113950902Y-112377118D01*
X113892330Y-112235713D01*
X113807297Y-112108452D01*
X113699070Y-112000225D01*
X113571809Y-111915192D01*
X113430404Y-111856620D01*
X113280289Y-111826761D01*
X113127233Y-111826761D01*
X112977118Y-111856620D01*
X112835713Y-111915192D01*
X112805998Y-111935047D01*
X112711834Y-111840883D01*
X112584573Y-111755850D01*
X112443168Y-111697278D01*
X112293053Y-111667419D01*
X112275631Y-111667419D01*
X112278824Y-111635000D01*
X112278824Y-110735000D01*
X112271545Y-110661095D01*
X112249988Y-110590030D01*
X112228591Y-110550000D01*
X112249988Y-110509970D01*
X112271545Y-110438905D01*
X112278824Y-110365000D01*
X112278824Y-109465000D01*
X112271545Y-109391095D01*
X112249988Y-109320030D01*
X112228591Y-109280000D01*
X112249988Y-109239970D01*
X112271545Y-109168905D01*
X112278824Y-109095000D01*
X112278824Y-108195000D01*
X112278326Y-108189939D01*
X114255610Y-110167224D01*
%TA.AperFunction,Conductor*%
D25*
G36*
X114255610Y-110167224D02*
G01*
X114255611Y-110342351D01*
X114130968Y-110367143D01*
X113989563Y-110425715D01*
X113862302Y-110510748D01*
X113754075Y-110618975D01*
X113669042Y-110746236D01*
X113610470Y-110887641D01*
X113580611Y-111037756D01*
X113580611Y-111190812D01*
X113610470Y-111340927D01*
X113669042Y-111482332D01*
X113754075Y-111609593D01*
X113862302Y-111717820D01*
X113989563Y-111802853D01*
X114130968Y-111861425D01*
X114281083Y-111891284D01*
X114314501Y-111891284D01*
X114311443Y-111895861D01*
X114252871Y-112037266D01*
X114223012Y-112187381D01*
X114223012Y-112340437D01*
X114252871Y-112490552D01*
X114311443Y-112631957D01*
X114396476Y-112759218D01*
X114498013Y-112860755D01*
X114498012Y-116304997D01*
X114470211Y-116286421D01*
X114328806Y-116227849D01*
X114178691Y-116197990D01*
X114035097Y-116197990D01*
X113764574Y-115927467D01*
X113748857Y-115908316D01*
X113672418Y-115845583D01*
X113585209Y-115798969D01*
X113490582Y-115770264D01*
X113416826Y-115763000D01*
X113416816Y-115763000D01*
X113392173Y-115760573D01*
X113367530Y-115763000D01*
X112273702Y-115763000D01*
X112271545Y-115741095D01*
X112249988Y-115670030D01*
X112228591Y-115630000D01*
X112249988Y-115589970D01*
X112271545Y-115518905D01*
X112275219Y-115481603D01*
X112343036Y-115461031D01*
X112430245Y-115414417D01*
X112506684Y-115351684D01*
X112522401Y-115332533D01*
X113541299Y-114313636D01*
X113560445Y-114297923D01*
X113623178Y-114221484D01*
X113669792Y-114134275D01*
X113698497Y-114039648D01*
X113705761Y-113965892D01*
X113705761Y-113965883D01*
X113708188Y-113941240D01*
X113705761Y-113916597D01*
X113705761Y-113200606D01*
X113807297Y-113099070D01*
X113892330Y-112971809D01*
X113950902Y-112830404D01*
X113980761Y-112680289D01*
X113980761Y-112527233D01*
X113950902Y-112377118D01*
X113892330Y-112235713D01*
X113807297Y-112108452D01*
X113699070Y-112000225D01*
X113571809Y-111915192D01*
X113430404Y-111856620D01*
X113280289Y-111826761D01*
X113127233Y-111826761D01*
X112977118Y-111856620D01*
X112835713Y-111915192D01*
X112805998Y-111935047D01*
X112711834Y-111840883D01*
X112584573Y-111755850D01*
X112443168Y-111697278D01*
X112293053Y-111667419D01*
X112275631Y-111667419D01*
X112278824Y-111635000D01*
X112278824Y-110735000D01*
X112271545Y-110661095D01*
X112249988Y-110590030D01*
X112228591Y-110550000D01*
X112249988Y-110509970D01*
X112271545Y-110438905D01*
X112278824Y-110365000D01*
X112278824Y-109465000D01*
X112271545Y-109391095D01*
X112249988Y-109320030D01*
X112228591Y-109280000D01*
X112249988Y-109239970D01*
X112271545Y-109168905D01*
X112278824Y-109095000D01*
X112278824Y-108195000D01*
X112278326Y-108189939D01*
X114255610Y-110167224D01*
G37*
%TD.AperFunction*%
D24*
X128027000Y-109788000D02*
X128047000Y-109788000D01*
X128047000Y-110042000D01*
X128027000Y-110042000D01*
X128027000Y-110062000D01*
X127773000Y-110062000D01*
X127773000Y-110042000D01*
X127753000Y-110042000D01*
X127753000Y-109855740D01*
X127985860Y-109791863D01*
X127997058Y-109768000D01*
X128027000Y-109768000D01*
X128027000Y-109788000D01*
%TA.AperFunction,Conductor*%
D25*
G36*
X128027000Y-109788000D02*
G01*
X128047000Y-109788000D01*
X128047000Y-110042000D01*
X128027000Y-110042000D01*
X128027000Y-110062000D01*
X127773000Y-110062000D01*
X127773000Y-110042000D01*
X127753000Y-110042000D01*
X127753000Y-109855740D01*
X127985860Y-109791863D01*
X127997058Y-109768000D01*
X128027000Y-109768000D01*
X128027000Y-109788000D01*
G37*
%TD.AperFunction*%
D24*
X126369463Y-101490506D02*
X126310498Y-101600820D01*
X126274188Y-101720518D01*
X126261928Y-101845000D01*
X126265000Y-102009250D01*
X126423750Y-102168000D01*
X127773000Y-102168000D01*
X127773000Y-102148000D01*
X128027000Y-102148000D01*
X128027000Y-102168000D01*
X128047000Y-102168000D01*
X128047000Y-102422000D01*
X128027000Y-102422000D01*
X128027000Y-102442000D01*
X127773000Y-102442000D01*
X127773000Y-102422000D01*
X126423750Y-102422000D01*
X126265000Y-102580750D01*
X126261928Y-102745000D01*
X126274188Y-102869482D01*
X126310498Y-102989180D01*
X126349956Y-103063000D01*
X120396244Y-103063000D01*
X120396244Y-102943482D01*
X120366385Y-102793367D01*
X120307813Y-102651962D01*
X120222780Y-102524701D01*
X120114553Y-102416474D01*
X119987292Y-102331441D01*
X119845887Y-102272869D01*
X119695772Y-102243010D01*
X119542716Y-102243010D01*
X119392601Y-102272869D01*
X119251196Y-102331441D01*
X119123935Y-102416474D01*
X119015708Y-102524701D01*
X118930675Y-102651962D01*
X118872103Y-102793367D01*
X118842244Y-102943482D01*
X118842244Y-102965499D01*
X117015111Y-102965499D01*
X116990468Y-102963072D01*
X116965825Y-102965499D01*
X116965816Y-102965499D01*
X116892060Y-102972763D01*
X116797433Y-103001468D01*
X116710224Y-103048082D01*
X116633785Y-103110815D01*
X116618072Y-103129961D01*
X116006146Y-103741888D01*
X115986995Y-103757605D01*
X115924262Y-103834044D01*
X115877648Y-103921254D01*
X115848943Y-104015881D01*
X115841679Y-104089637D01*
X115841679Y-104089646D01*
X115839252Y-104114289D01*
X115841679Y-104138932D01*
X115841680Y-109059667D01*
X115814045Y-108968568D01*
X115767431Y-108881359D01*
X115732822Y-108839188D01*
X115720414Y-108824068D01*
X115720406Y-108824060D01*
X115704698Y-108804920D01*
X115685557Y-108789211D01*
X112663811Y-105767467D01*
X112648094Y-105748316D01*
X112571655Y-105685583D01*
X112484446Y-105638969D01*
X112389819Y-105610264D01*
X112316063Y-105603000D01*
X112316053Y-105603000D01*
X112291410Y-105600573D01*
X112273636Y-105602324D01*
X112271545Y-105581095D01*
X112249988Y-105510030D01*
X112228591Y-105470000D01*
X112249988Y-105429970D01*
X112271545Y-105358905D01*
X112278824Y-105285000D01*
X112278824Y-104385000D01*
X112271545Y-104311095D01*
X112249988Y-104240030D01*
X112228591Y-104200000D01*
X112249988Y-104159970D01*
X112271545Y-104088905D01*
X112278824Y-104015000D01*
X112278824Y-103255570D01*
X112351185Y-103196185D01*
X112430537Y-103099494D01*
X112489502Y-102989180D01*
X112525812Y-102869482D01*
X112538072Y-102745000D01*
X112535000Y-102580750D01*
X112376250Y-102422000D01*
X111027000Y-102422000D01*
X111027000Y-102442000D01*
X110773000Y-102442000D01*
X110773000Y-102422000D01*
X110753000Y-102422000D01*
X110753000Y-102168000D01*
X110773000Y-102168000D01*
X110773000Y-102148000D01*
X111027000Y-102148000D01*
X111027000Y-102168000D01*
X112376250Y-102168000D01*
X112535000Y-102009250D01*
X112538072Y-101845000D01*
X112525812Y-101720518D01*
X112489502Y-101600820D01*
X112430537Y-101490506D01*
X112378419Y-101427000D01*
X126421581Y-101427000D01*
X126369463Y-101490506D01*
%TA.AperFunction,Conductor*%
D25*
G36*
X126369463Y-101490506D02*
G01*
X126310498Y-101600820D01*
X126274188Y-101720518D01*
X126261928Y-101845000D01*
X126265000Y-102009250D01*
X126423750Y-102168000D01*
X127773000Y-102168000D01*
X127773000Y-102148000D01*
X128027000Y-102148000D01*
X128027000Y-102168000D01*
X128047000Y-102168000D01*
X128047000Y-102422000D01*
X128027000Y-102422000D01*
X128027000Y-102442000D01*
X127773000Y-102442000D01*
X127773000Y-102422000D01*
X126423750Y-102422000D01*
X126265000Y-102580750D01*
X126261928Y-102745000D01*
X126274188Y-102869482D01*
X126310498Y-102989180D01*
X126349956Y-103063000D01*
X120396244Y-103063000D01*
X120396244Y-102943482D01*
X120366385Y-102793367D01*
X120307813Y-102651962D01*
X120222780Y-102524701D01*
X120114553Y-102416474D01*
X119987292Y-102331441D01*
X119845887Y-102272869D01*
X119695772Y-102243010D01*
X119542716Y-102243010D01*
X119392601Y-102272869D01*
X119251196Y-102331441D01*
X119123935Y-102416474D01*
X119015708Y-102524701D01*
X118930675Y-102651962D01*
X118872103Y-102793367D01*
X118842244Y-102943482D01*
X118842244Y-102965499D01*
X117015111Y-102965499D01*
X116990468Y-102963072D01*
X116965825Y-102965499D01*
X116965816Y-102965499D01*
X116892060Y-102972763D01*
X116797433Y-103001468D01*
X116710224Y-103048082D01*
X116633785Y-103110815D01*
X116618072Y-103129961D01*
X116006146Y-103741888D01*
X115986995Y-103757605D01*
X115924262Y-103834044D01*
X115877648Y-103921254D01*
X115848943Y-104015881D01*
X115841679Y-104089637D01*
X115841679Y-104089646D01*
X115839252Y-104114289D01*
X115841679Y-104138932D01*
X115841680Y-109059667D01*
X115814045Y-108968568D01*
X115767431Y-108881359D01*
X115732822Y-108839188D01*
X115720414Y-108824068D01*
X115720406Y-108824060D01*
X115704698Y-108804920D01*
X115685557Y-108789211D01*
X112663811Y-105767467D01*
X112648094Y-105748316D01*
X112571655Y-105685583D01*
X112484446Y-105638969D01*
X112389819Y-105610264D01*
X112316063Y-105603000D01*
X112316053Y-105603000D01*
X112291410Y-105600573D01*
X112273636Y-105602324D01*
X112271545Y-105581095D01*
X112249988Y-105510030D01*
X112228591Y-105470000D01*
X112249988Y-105429970D01*
X112271545Y-105358905D01*
X112278824Y-105285000D01*
X112278824Y-104385000D01*
X112271545Y-104311095D01*
X112249988Y-104240030D01*
X112228591Y-104200000D01*
X112249988Y-104159970D01*
X112271545Y-104088905D01*
X112278824Y-104015000D01*
X112278824Y-103255570D01*
X112351185Y-103196185D01*
X112430537Y-103099494D01*
X112489502Y-102989180D01*
X112525812Y-102869482D01*
X112538072Y-102745000D01*
X112535000Y-102580750D01*
X112376250Y-102422000D01*
X111027000Y-102422000D01*
X111027000Y-102442000D01*
X110773000Y-102442000D01*
X110773000Y-102422000D01*
X110753000Y-102422000D01*
X110753000Y-102168000D01*
X110773000Y-102168000D01*
X110773000Y-102148000D01*
X111027000Y-102148000D01*
X111027000Y-102168000D01*
X112376250Y-102168000D01*
X112535000Y-102009250D01*
X112538072Y-101845000D01*
X112525812Y-101720518D01*
X112489502Y-101600820D01*
X112430537Y-101490506D01*
X112378419Y-101427000D01*
X126421581Y-101427000D01*
X126369463Y-101490506D01*
G37*
%TD.AperFunction*%
%TD*%
M02*
