%TF.GenerationSoftware,KiCad,Pcbnew,(5.1.9-0-10_14)*%
%TF.CreationDate,2021-04-21T10:27:22+01:00*%
%TF.ProjectId,Generic,47656e65-7269-4632-9e6b-696361645f70,2*%
%TF.SameCoordinates,Original*%
%TF.FileFunction,Legend,Bot*%
%TF.FilePolarity,Positive*%
%FSLAX46Y46*%
G04 Gerber Fmt 4.6, Leading zero omitted, Abs format (unit mm)*
G04 Created by KiCad (PCBNEW (5.1.9-0-10_14)) date 2021-04-21 10:27:22*
%MOMM*%
%LPD*%
G01*
G04 APERTURE LIST*
%ADD10C,0.150000*%
%ADD11C,0.120000*%
G04 APERTURE END LIST*
D10*
X123407142Y-120735714D02*
X123216666Y-121402380D01*
X123026190Y-120926190D01*
X122835714Y-121402380D01*
X122645238Y-120735714D01*
X122359523Y-120735714D02*
X122169047Y-121402380D01*
X121978571Y-120926190D01*
X121788095Y-121402380D01*
X121597619Y-120735714D01*
X121311904Y-120735714D02*
X121121428Y-121402380D01*
X120930952Y-120926190D01*
X120740476Y-121402380D01*
X120550000Y-120735714D01*
X120169047Y-121307142D02*
X120121428Y-121354761D01*
X120169047Y-121402380D01*
X120216666Y-121354761D01*
X120169047Y-121307142D01*
X120169047Y-121402380D01*
X119692857Y-121402380D02*
X119692857Y-120735714D01*
X119692857Y-120830952D02*
X119645238Y-120783333D01*
X119550000Y-120735714D01*
X119407142Y-120735714D01*
X119311904Y-120783333D01*
X119264285Y-120878571D01*
X119264285Y-121402380D01*
X119264285Y-120878571D02*
X119216666Y-120783333D01*
X119121428Y-120735714D01*
X118978571Y-120735714D01*
X118883333Y-120783333D01*
X118835714Y-120878571D01*
X118835714Y-121402380D01*
X117978571Y-121354761D02*
X118073809Y-121402380D01*
X118264285Y-121402380D01*
X118359523Y-121354761D01*
X118407142Y-121259523D01*
X118407142Y-120878571D01*
X118359523Y-120783333D01*
X118264285Y-120735714D01*
X118073809Y-120735714D01*
X117978571Y-120783333D01*
X117930952Y-120878571D01*
X117930952Y-120973809D01*
X118407142Y-121069047D01*
X117502380Y-121307142D02*
X117454761Y-121354761D01*
X117502380Y-121402380D01*
X117550000Y-121354761D01*
X117502380Y-121307142D01*
X117502380Y-121402380D01*
X116597619Y-120735714D02*
X116597619Y-121402380D01*
X117026190Y-120735714D02*
X117026190Y-121259523D01*
X116978571Y-121354761D01*
X116883333Y-121402380D01*
X116740476Y-121402380D01*
X116645238Y-121354761D01*
X116597619Y-121307142D01*
X116121428Y-121402380D02*
X116121428Y-120402380D01*
X116026190Y-121021428D02*
X115740476Y-121402380D01*
X115740476Y-120735714D02*
X116121428Y-121116666D01*
X112309523Y-117452380D02*
X111976190Y-118452380D01*
X111642857Y-117452380D01*
X111404761Y-117452380D02*
X110785714Y-117452380D01*
X111119047Y-117833333D01*
X110976190Y-117833333D01*
X110880952Y-117880952D01*
X110833333Y-117928571D01*
X110785714Y-118023809D01*
X110785714Y-118261904D01*
X110833333Y-118357142D01*
X110880952Y-118404761D01*
X110976190Y-118452380D01*
X111261904Y-118452380D01*
X111357142Y-118404761D01*
X111404761Y-118357142D01*
D11*
%TO.C,C1*%
X112351248Y-119590000D02*
X113773752Y-119590000D01*
X112351248Y-121410000D02*
X113773752Y-121410000D01*
%TO.C,R6*%
X127177064Y-120910000D02*
X125722936Y-120910000D01*
X127177064Y-119090000D02*
X125722936Y-119090000D01*
%TO.C,M1*%
X118720000Y-101000000D02*
X118720000Y-113700000D01*
X118720000Y-113700000D02*
X128880000Y-113700000D01*
X128880000Y-113700000D02*
X128880000Y-101000000D01*
X128880000Y-101000000D02*
X118720000Y-101000000D01*
%TO.C,U2*%
X122960000Y-119135000D02*
X122960000Y-119860000D01*
X118740000Y-115640000D02*
X119465000Y-115640000D01*
X118740000Y-116365000D02*
X118740000Y-115640000D01*
X118740000Y-119860000D02*
X119465000Y-119860000D01*
X118740000Y-119135000D02*
X118740000Y-119860000D01*
X122960000Y-115640000D02*
X122235000Y-115640000D01*
X122960000Y-116365000D02*
X122960000Y-115640000D01*
%TO.C,J3*%
X110870000Y-124330000D02*
X113530000Y-124330000D01*
X110870000Y-126930000D02*
X110870000Y-124330000D01*
X113530000Y-126930000D02*
X113530000Y-124330000D01*
X110870000Y-126930000D02*
X113530000Y-126930000D01*
X110870000Y-128200000D02*
X110870000Y-129530000D01*
X110870000Y-129530000D02*
X112200000Y-129530000D01*
%TO.C,R5*%
X127410000Y-127477064D02*
X127410000Y-126022936D01*
X125590000Y-127477064D02*
X125590000Y-126022936D01*
%TO.C,R4*%
X124140000Y-127477064D02*
X124140000Y-126022936D01*
X122320000Y-127477064D02*
X122320000Y-126022936D01*
%TO.C,R3*%
X121640000Y-127477064D02*
X121640000Y-126022936D01*
X119820000Y-127477064D02*
X119820000Y-126022936D01*
%TO.C,R2*%
X119140000Y-127477064D02*
X119140000Y-126022936D01*
X117320000Y-127477064D02*
X117320000Y-126022936D01*
%TO.C,R1*%
X116640000Y-127477064D02*
X116640000Y-126022936D01*
X114820000Y-127477064D02*
X114820000Y-126022936D01*
%TO.C,J2*%
X109310000Y-115670000D02*
X116660000Y-115670000D01*
X116660000Y-115670000D02*
X116660000Y-106730000D01*
X116660000Y-106730000D02*
X109310000Y-106730000D01*
X109310000Y-115670000D02*
X109310000Y-106730000D01*
%TO.C,R8*%
X111922936Y-105660000D02*
X113377064Y-105660000D01*
X111922936Y-103840000D02*
X113377064Y-103840000D01*
%TO.C,R7*%
X113377064Y-101390000D02*
X111922936Y-101390000D01*
X113377064Y-103210000D02*
X111922936Y-103210000D01*
%TO.C,C1*%
D10*
X113166666Y-120857142D02*
X113214285Y-120904761D01*
X113357142Y-120952380D01*
X113452380Y-120952380D01*
X113595238Y-120904761D01*
X113690476Y-120809523D01*
X113738095Y-120714285D01*
X113785714Y-120523809D01*
X113785714Y-120380952D01*
X113738095Y-120190476D01*
X113690476Y-120095238D01*
X113595238Y-120000000D01*
X113452380Y-119952380D01*
X113357142Y-119952380D01*
X113214285Y-120000000D01*
X113166666Y-120047619D01*
X112214285Y-120952380D02*
X112785714Y-120952380D01*
X112500000Y-120952380D02*
X112500000Y-119952380D01*
X112595238Y-120095238D01*
X112690476Y-120190476D01*
X112785714Y-120238095D01*
%TO.C,R6*%
X126666666Y-120452380D02*
X127000000Y-119976190D01*
X127238095Y-120452380D02*
X127238095Y-119452380D01*
X126857142Y-119452380D01*
X126761904Y-119500000D01*
X126714285Y-119547619D01*
X126666666Y-119642857D01*
X126666666Y-119785714D01*
X126714285Y-119880952D01*
X126761904Y-119928571D01*
X126857142Y-119976190D01*
X127238095Y-119976190D01*
X125809523Y-119452380D02*
X126000000Y-119452380D01*
X126095238Y-119500000D01*
X126142857Y-119547619D01*
X126238095Y-119690476D01*
X126285714Y-119880952D01*
X126285714Y-120261904D01*
X126238095Y-120357142D01*
X126190476Y-120404761D01*
X126095238Y-120452380D01*
X125904761Y-120452380D01*
X125809523Y-120404761D01*
X125761904Y-120357142D01*
X125714285Y-120261904D01*
X125714285Y-120023809D01*
X125761904Y-119928571D01*
X125809523Y-119880952D01*
X125904761Y-119833333D01*
X126095238Y-119833333D01*
X126190476Y-119880952D01*
X126238095Y-119928571D01*
X126285714Y-120023809D01*
%TO.C,M1*%
X128309523Y-114952380D02*
X128309523Y-113952380D01*
X127976190Y-114666666D01*
X127642857Y-113952380D01*
X127642857Y-114952380D01*
X126642857Y-114952380D02*
X127214285Y-114952380D01*
X126928571Y-114952380D02*
X126928571Y-113952380D01*
X127023809Y-114095238D01*
X127119047Y-114190476D01*
X127214285Y-114238095D01*
%TO.C,U2*%
X123622380Y-116988095D02*
X124431904Y-116988095D01*
X124527142Y-117035714D01*
X124574761Y-117083333D01*
X124622380Y-117178571D01*
X124622380Y-117369047D01*
X124574761Y-117464285D01*
X124527142Y-117511904D01*
X124431904Y-117559523D01*
X123622380Y-117559523D01*
X123717619Y-117988095D02*
X123670000Y-118035714D01*
X123622380Y-118130952D01*
X123622380Y-118369047D01*
X123670000Y-118464285D01*
X123717619Y-118511904D01*
X123812857Y-118559523D01*
X123908095Y-118559523D01*
X124050952Y-118511904D01*
X124622380Y-117940476D01*
X124622380Y-118559523D01*
%TO.C,J3*%
X111833333Y-122952380D02*
X111833333Y-123666666D01*
X111880952Y-123809523D01*
X111976190Y-123904761D01*
X112119047Y-123952380D01*
X112214285Y-123952380D01*
X111452380Y-122952380D02*
X110833333Y-122952380D01*
X111166666Y-123333333D01*
X111023809Y-123333333D01*
X110928571Y-123380952D01*
X110880952Y-123428571D01*
X110833333Y-123523809D01*
X110833333Y-123761904D01*
X110880952Y-123857142D01*
X110928571Y-123904761D01*
X111023809Y-123952380D01*
X111309523Y-123952380D01*
X111404761Y-123904761D01*
X111452380Y-123857142D01*
%TO.C,R5*%
X127052380Y-126633333D02*
X126576190Y-126300000D01*
X127052380Y-126061904D02*
X126052380Y-126061904D01*
X126052380Y-126442857D01*
X126100000Y-126538095D01*
X126147619Y-126585714D01*
X126242857Y-126633333D01*
X126385714Y-126633333D01*
X126480952Y-126585714D01*
X126528571Y-126538095D01*
X126576190Y-126442857D01*
X126576190Y-126061904D01*
X126052380Y-127538095D02*
X126052380Y-127061904D01*
X126528571Y-127014285D01*
X126480952Y-127061904D01*
X126433333Y-127157142D01*
X126433333Y-127395238D01*
X126480952Y-127490476D01*
X126528571Y-127538095D01*
X126623809Y-127585714D01*
X126861904Y-127585714D01*
X126957142Y-127538095D01*
X127004761Y-127490476D01*
X127052380Y-127395238D01*
X127052380Y-127157142D01*
X127004761Y-127061904D01*
X126957142Y-127014285D01*
%TO.C,R4*%
X123682380Y-126583333D02*
X123206190Y-126250000D01*
X123682380Y-126011904D02*
X122682380Y-126011904D01*
X122682380Y-126392857D01*
X122730000Y-126488095D01*
X122777619Y-126535714D01*
X122872857Y-126583333D01*
X123015714Y-126583333D01*
X123110952Y-126535714D01*
X123158571Y-126488095D01*
X123206190Y-126392857D01*
X123206190Y-126011904D01*
X123015714Y-127440476D02*
X123682380Y-127440476D01*
X122634761Y-127202380D02*
X123349047Y-126964285D01*
X123349047Y-127583333D01*
%TO.C,R3*%
X121182380Y-126533333D02*
X120706190Y-126200000D01*
X121182380Y-125961904D02*
X120182380Y-125961904D01*
X120182380Y-126342857D01*
X120230000Y-126438095D01*
X120277619Y-126485714D01*
X120372857Y-126533333D01*
X120515714Y-126533333D01*
X120610952Y-126485714D01*
X120658571Y-126438095D01*
X120706190Y-126342857D01*
X120706190Y-125961904D01*
X120182380Y-126866666D02*
X120182380Y-127485714D01*
X120563333Y-127152380D01*
X120563333Y-127295238D01*
X120610952Y-127390476D01*
X120658571Y-127438095D01*
X120753809Y-127485714D01*
X120991904Y-127485714D01*
X121087142Y-127438095D01*
X121134761Y-127390476D01*
X121182380Y-127295238D01*
X121182380Y-127009523D01*
X121134761Y-126914285D01*
X121087142Y-126866666D01*
%TO.C,R2*%
X118682380Y-126533333D02*
X118206190Y-126200000D01*
X118682380Y-125961904D02*
X117682380Y-125961904D01*
X117682380Y-126342857D01*
X117730000Y-126438095D01*
X117777619Y-126485714D01*
X117872857Y-126533333D01*
X118015714Y-126533333D01*
X118110952Y-126485714D01*
X118158571Y-126438095D01*
X118206190Y-126342857D01*
X118206190Y-125961904D01*
X117777619Y-126914285D02*
X117730000Y-126961904D01*
X117682380Y-127057142D01*
X117682380Y-127295238D01*
X117730000Y-127390476D01*
X117777619Y-127438095D01*
X117872857Y-127485714D01*
X117968095Y-127485714D01*
X118110952Y-127438095D01*
X118682380Y-126866666D01*
X118682380Y-127485714D01*
%TO.C,R1*%
X116182380Y-126533333D02*
X115706190Y-126200000D01*
X116182380Y-125961904D02*
X115182380Y-125961904D01*
X115182380Y-126342857D01*
X115230000Y-126438095D01*
X115277619Y-126485714D01*
X115372857Y-126533333D01*
X115515714Y-126533333D01*
X115610952Y-126485714D01*
X115658571Y-126438095D01*
X115706190Y-126342857D01*
X115706190Y-125961904D01*
X116182380Y-127485714D02*
X116182380Y-126914285D01*
X116182380Y-127200000D02*
X115182380Y-127200000D01*
X115325238Y-127104761D01*
X115420476Y-127009523D01*
X115468095Y-126914285D01*
%TO.C,J2*%
X113452380Y-116566666D02*
X114166666Y-116566666D01*
X114309523Y-116519047D01*
X114404761Y-116423809D01*
X114452380Y-116280952D01*
X114452380Y-116185714D01*
X113547619Y-116995238D02*
X113500000Y-117042857D01*
X113452380Y-117138095D01*
X113452380Y-117376190D01*
X113500000Y-117471428D01*
X113547619Y-117519047D01*
X113642857Y-117566666D01*
X113738095Y-117566666D01*
X113880952Y-117519047D01*
X114452380Y-116947619D01*
X114452380Y-117566666D01*
%TO.C,R8*%
X116366666Y-105252380D02*
X116700000Y-104776190D01*
X116938095Y-105252380D02*
X116938095Y-104252380D01*
X116557142Y-104252380D01*
X116461904Y-104300000D01*
X116414285Y-104347619D01*
X116366666Y-104442857D01*
X116366666Y-104585714D01*
X116414285Y-104680952D01*
X116461904Y-104728571D01*
X116557142Y-104776190D01*
X116938095Y-104776190D01*
X115795238Y-104680952D02*
X115890476Y-104633333D01*
X115938095Y-104585714D01*
X115985714Y-104490476D01*
X115985714Y-104442857D01*
X115938095Y-104347619D01*
X115890476Y-104300000D01*
X115795238Y-104252380D01*
X115604761Y-104252380D01*
X115509523Y-104300000D01*
X115461904Y-104347619D01*
X115414285Y-104442857D01*
X115414285Y-104490476D01*
X115461904Y-104585714D01*
X115509523Y-104633333D01*
X115604761Y-104680952D01*
X115795238Y-104680952D01*
X115890476Y-104728571D01*
X115938095Y-104776190D01*
X115985714Y-104871428D01*
X115985714Y-105061904D01*
X115938095Y-105157142D01*
X115890476Y-105204761D01*
X115795238Y-105252380D01*
X115604761Y-105252380D01*
X115509523Y-105204761D01*
X115461904Y-105157142D01*
X115414285Y-105061904D01*
X115414285Y-104871428D01*
X115461904Y-104776190D01*
X115509523Y-104728571D01*
X115604761Y-104680952D01*
%TO.C,R7*%
X116366666Y-102802380D02*
X116700000Y-102326190D01*
X116938095Y-102802380D02*
X116938095Y-101802380D01*
X116557142Y-101802380D01*
X116461904Y-101850000D01*
X116414285Y-101897619D01*
X116366666Y-101992857D01*
X116366666Y-102135714D01*
X116414285Y-102230952D01*
X116461904Y-102278571D01*
X116557142Y-102326190D01*
X116938095Y-102326190D01*
X116033333Y-101802380D02*
X115366666Y-101802380D01*
X115795238Y-102802380D01*
%TD*%
M02*
