%TF.GenerationSoftware,KiCad,Pcbnew,(5.1.10-1-10_14)*%
%TF.CreationDate,2021-05-11T18:40:35+01:00*%
%TF.ProjectId,Generic,47656e65-7269-4632-9e6b-696361645f70,3*%
%TF.SameCoordinates,Original*%
%TF.FileFunction,Soldermask,Top*%
%TF.FilePolarity,Negative*%
%FSLAX46Y46*%
G04 Gerber Fmt 4.6, Leading zero omitted, Abs format (unit mm)*
G04 Created by KiCad (PCBNEW (5.1.10-1-10_14)) date 2021-05-11 18:40:35*
%MOMM*%
%LPD*%
G01*
G04 APERTURE LIST*
%ADD10R,1.700000X1.700000*%
%ADD11O,1.700000X1.700000*%
%ADD12R,2.000000X0.900000*%
%ADD13R,0.900000X2.000000*%
%ADD14R,5.000000X5.000000*%
%ADD15C,0.350000*%
%ADD16C,1.700000*%
%ADD17C,2.000000*%
G04 APERTURE END LIST*
D10*
%TO.C,J1*%
X113155000Y-122900000D03*
D11*
X115695000Y-122900000D03*
X118235000Y-122900000D03*
X120775000Y-122900000D03*
X123315000Y-122900000D03*
X125855000Y-122900000D03*
%TD*%
D12*
%TO.C,U1*%
X128000000Y-102295000D03*
X128000000Y-103565000D03*
X128000000Y-104835000D03*
X128000000Y-106105000D03*
X128000000Y-107375000D03*
X128000000Y-108645000D03*
X128000000Y-109915000D03*
X128000000Y-111185000D03*
X128000000Y-112455000D03*
X128000000Y-113725000D03*
X128000000Y-114995000D03*
X128000000Y-116265000D03*
X128000000Y-117535000D03*
X128000000Y-118805000D03*
D13*
X125215000Y-119805000D03*
X123945000Y-119805000D03*
X122675000Y-119805000D03*
X121405000Y-119805000D03*
X120135000Y-119805000D03*
X118865000Y-119805000D03*
X117595000Y-119805000D03*
X116325000Y-119805000D03*
X115055000Y-119805000D03*
X113785000Y-119805000D03*
D12*
X111000000Y-118805000D03*
X111000000Y-117535000D03*
X111000000Y-116265000D03*
X111000000Y-114995000D03*
X111000000Y-113725000D03*
X111000000Y-112455000D03*
X111000000Y-111185000D03*
X111000000Y-109915000D03*
X111000000Y-108645000D03*
X111000000Y-107375000D03*
X111000000Y-106105000D03*
X111000000Y-104835000D03*
X111000000Y-103565000D03*
X111000000Y-102295000D03*
D14*
X118500000Y-109795000D03*
%TD*%
D15*
%TO.C,U2*%
X120875000Y-117025000D03*
%TD*%
D11*
%TO.C,J3*%
X112200000Y-125660000D03*
D10*
X112200000Y-128200000D03*
%TD*%
D16*
%TO.C,J2*%
X111890000Y-106875000D03*
X111890000Y-115525000D03*
D17*
X116070000Y-106875000D03*
X116070000Y-115525000D03*
%TD*%
M02*
