%TF.GenerationSoftware,KiCad,Pcbnew,(5.1.9-0-10_14)*%
%TF.CreationDate,2021-04-21T10:27:22+01:00*%
%TF.ProjectId,Generic,47656e65-7269-4632-9e6b-696361645f70,2*%
%TF.SameCoordinates,Original*%
%TF.FileFunction,Copper,L2,Bot*%
%TF.FilePolarity,Positive*%
%FSLAX46Y46*%
G04 Gerber Fmt 4.6, Leading zero omitted, Abs format (unit mm)*
G04 Created by KiCad (PCBNEW (5.1.9-0-10_14)) date 2021-04-21 10:27:22*
%MOMM*%
%LPD*%
G01*
G04 APERTURE LIST*
%TA.AperFunction,EtchedComponent*%
%ADD10C,0.200000*%
%TD*%
%TA.AperFunction,SMDPad,CuDef*%
%ADD11C,1.700000*%
%TD*%
%TA.AperFunction,ComponentPad*%
%ADD12R,1.524000X1.524000*%
%TD*%
%TA.AperFunction,SMDPad,CuDef*%
%ADD13R,0.200000X0.200000*%
%TD*%
%TA.AperFunction,SMDPad,CuDef*%
%ADD14C,0.500000*%
%TD*%
%TA.AperFunction,ComponentPad*%
%ADD15C,1.524000*%
%TD*%
%TA.AperFunction,SMDPad,CuDef*%
%ADD16R,2.100000X2.100000*%
%TD*%
%TA.AperFunction,SMDPad,CuDef*%
%ADD17R,1.000000X0.300000*%
%TD*%
%TA.AperFunction,SMDPad,CuDef*%
%ADD18R,0.300000X1.000000*%
%TD*%
%TA.AperFunction,ComponentPad*%
%ADD19O,1.700000X1.700000*%
%TD*%
%TA.AperFunction,ComponentPad*%
%ADD20R,1.700000X1.700000*%
%TD*%
%TA.AperFunction,SMDPad,CuDef*%
%ADD21R,5.490000X8.340000*%
%TD*%
%TA.AperFunction,SMDPad,CuDef*%
%ADD22R,1.140000X0.600000*%
%TD*%
%TA.AperFunction,ComponentPad*%
%ADD23C,1.700000*%
%TD*%
%TA.AperFunction,ComponentPad*%
%ADD24C,2.000000*%
%TD*%
%TA.AperFunction,SMDPad,CuDef*%
%ADD25R,1.140000X0.300000*%
%TD*%
%TA.AperFunction,ComponentPad*%
%ADD26C,0.600000*%
%TD*%
%TA.AperFunction,ComponentPad*%
%ADD27O,1.700000X1.850000*%
%TD*%
%TA.AperFunction,ViaPad*%
%ADD28C,0.800000*%
%TD*%
%TA.AperFunction,Conductor*%
%ADD29C,0.250000*%
%TD*%
%TA.AperFunction,Conductor*%
%ADD30C,0.254000*%
%TD*%
%TA.AperFunction,Conductor*%
%ADD31C,0.100000*%
%TD*%
G04 APERTURE END LIST*
D10*
%TO.C,AJK1*%
X124150000Y-112770000D02*
X126208820Y-111005290D01*
X126209000Y-111005300D02*
X126209000Y-109534700D01*
X126208820Y-111005290D02*
X128267650Y-112770000D01*
X128787579Y-109750074D02*
X128267650Y-109534712D01*
X128787579Y-110789938D02*
X129002940Y-110270006D01*
X129002940Y-110270006D02*
X128787579Y-109750074D01*
X124150000Y-111005300D02*
X128267650Y-111005300D01*
X128267650Y-111005300D02*
X128787579Y-110789938D01*
X128267650Y-108064120D02*
X124150000Y-111005300D01*
%TD*%
%TO.P,C1,2*%
%TO.N,IO1*%
%TA.AperFunction,SMDPad,CuDef*%
G36*
G01*
X113962500Y-121150003D02*
X113962500Y-119849997D01*
G75*
G02*
X114212497Y-119600000I249997J0D01*
G01*
X115037503Y-119600000D01*
G75*
G02*
X115287500Y-119849997I0J-249997D01*
G01*
X115287500Y-121150003D01*
G75*
G02*
X115037503Y-121400000I-249997J0D01*
G01*
X114212497Y-121400000D01*
G75*
G02*
X113962500Y-121150003I0J249997D01*
G01*
G37*
%TD.AperFunction*%
%TO.P,C1,1*%
%TO.N,GND*%
%TA.AperFunction,SMDPad,CuDef*%
G36*
G01*
X110837500Y-121150003D02*
X110837500Y-119849997D01*
G75*
G02*
X111087497Y-119600000I249997J0D01*
G01*
X111912503Y-119600000D01*
G75*
G02*
X112162500Y-119849997I0J-249997D01*
G01*
X112162500Y-121150003D01*
G75*
G02*
X111912503Y-121400000I-249997J0D01*
G01*
X111087497Y-121400000D01*
G75*
G02*
X110837500Y-121150003I0J249997D01*
G01*
G37*
%TD.AperFunction*%
%TD*%
%TO.P,R6,2*%
%TO.N,Net-(J1-Pad6)*%
%TA.AperFunction,SMDPad,CuDef*%
G36*
G01*
X125550000Y-119374999D02*
X125550000Y-120625001D01*
G75*
G02*
X125300001Y-120875000I-249999J0D01*
G01*
X124499999Y-120875000D01*
G75*
G02*
X124250000Y-120625001I0J249999D01*
G01*
X124250000Y-119374999D01*
G75*
G02*
X124499999Y-119125000I249999J0D01*
G01*
X125300001Y-119125000D01*
G75*
G02*
X125550000Y-119374999I0J-249999D01*
G01*
G37*
%TD.AperFunction*%
%TO.P,R6,1*%
%TO.N,IO5*%
%TA.AperFunction,SMDPad,CuDef*%
G36*
G01*
X128650000Y-119374999D02*
X128650000Y-120625001D01*
G75*
G02*
X128400001Y-120875000I-249999J0D01*
G01*
X127599999Y-120875000D01*
G75*
G02*
X127350000Y-120625001I0J249999D01*
G01*
X127350000Y-119374999D01*
G75*
G02*
X127599999Y-119125000I249999J0D01*
G01*
X128400001Y-119125000D01*
G75*
G02*
X128650000Y-119374999I0J-249999D01*
G01*
G37*
%TD.AperFunction*%
%TD*%
D11*
%TO.P,M1,1*%
%TO.N,Net-(M1-Pad1)*%
X119990000Y-102270000D03*
%TO.P,M1,4*%
%TO.N,+3V3*%
X127610000Y-102270000D03*
D12*
%TO.P,M1,3*%
%TO.N,GND*%
X125070000Y-102270000D03*
D11*
%TO.P,M1,2*%
%TO.N,VBUS*%
X122530000Y-102270000D03*
%TD*%
D13*
%TO.P,U2,~*%
%TO.N,N/C*%
X122850000Y-119750000D03*
X118850000Y-115750000D03*
X118850000Y-119750000D03*
X122850000Y-115750000D03*
D14*
X122850000Y-119750000D03*
D15*
%TO.P,U2,17*%
%TO.N,GND*%
X120850000Y-117750000D03*
D16*
X120850000Y-117750000D03*
D17*
%TO.P,U2,16*%
%TO.N,EN*%
X122900000Y-118725000D03*
%TO.P,U2,15*%
%TO.N,I*%
X122900000Y-118075000D03*
%TO.P,U2,14*%
%TO.N,CBUS3*%
X122900000Y-117425000D03*
%TO.P,U2,13*%
%TO.N,GND*%
X122900000Y-116775000D03*
D18*
%TO.P,U2,12*%
%TO.N,CBUS0*%
X121825000Y-115700000D03*
%TO.P,U2,11*%
%TO.N,CBUS1*%
X121175000Y-115700000D03*
%TO.P,U2,10*%
%TO.N,+3V3*%
X120525000Y-115700000D03*
%TO.P,U2,9*%
X119875000Y-115700000D03*
D17*
%TO.P,U2,8*%
X118800000Y-116775000D03*
%TO.P,U2,7*%
%TO.N,D-*%
X118800000Y-117425000D03*
%TO.P,U2,6*%
%TO.N,D+*%
X118800000Y-118075000D03*
%TO.P,U2,5*%
%TO.N,CBUS2*%
X118800000Y-118725000D03*
D18*
%TO.P,U2,4*%
%TO.N,GND*%
X119875000Y-119800000D03*
%TO.P,U2,3*%
X120525000Y-119800000D03*
%TO.P,U2,2*%
%TO.N,O*%
X121175000Y-119800000D03*
%TO.P,U2,1*%
%TO.N,+3V3*%
X121825000Y-119800000D03*
%TD*%
D19*
%TO.P,J3,2*%
%TO.N,VBUS*%
X112200000Y-125660000D03*
D20*
%TO.P,J3,1*%
%TO.N,GND*%
X112200000Y-128200000D03*
%TD*%
%TO.P,R5,2*%
%TO.N,Net-(J1-Pad6)*%
%TA.AperFunction,SMDPad,CuDef*%
G36*
G01*
X127125001Y-125850000D02*
X125874999Y-125850000D01*
G75*
G02*
X125625000Y-125600001I0J249999D01*
G01*
X125625000Y-124799999D01*
G75*
G02*
X125874999Y-124550000I249999J0D01*
G01*
X127125001Y-124550000D01*
G75*
G02*
X127375000Y-124799999I0J-249999D01*
G01*
X127375000Y-125600001D01*
G75*
G02*
X127125001Y-125850000I-249999J0D01*
G01*
G37*
%TD.AperFunction*%
%TO.P,R5,1*%
%TO.N,VBUS*%
%TA.AperFunction,SMDPad,CuDef*%
G36*
G01*
X127125001Y-128950000D02*
X125874999Y-128950000D01*
G75*
G02*
X125625000Y-128700001I0J249999D01*
G01*
X125625000Y-127899999D01*
G75*
G02*
X125874999Y-127650000I249999J0D01*
G01*
X127125001Y-127650000D01*
G75*
G02*
X127375000Y-127899999I0J-249999D01*
G01*
X127375000Y-128700001D01*
G75*
G02*
X127125001Y-128950000I-249999J0D01*
G01*
G37*
%TD.AperFunction*%
%TD*%
%TO.P,R4,2*%
%TO.N,IO4*%
%TA.AperFunction,SMDPad,CuDef*%
G36*
G01*
X123855001Y-125850000D02*
X122604999Y-125850000D01*
G75*
G02*
X122355000Y-125600001I0J249999D01*
G01*
X122355000Y-124799999D01*
G75*
G02*
X122604999Y-124550000I249999J0D01*
G01*
X123855001Y-124550000D01*
G75*
G02*
X124105000Y-124799999I0J-249999D01*
G01*
X124105000Y-125600001D01*
G75*
G02*
X123855001Y-125850000I-249999J0D01*
G01*
G37*
%TD.AperFunction*%
%TO.P,R4,1*%
%TO.N,+3V3*%
%TA.AperFunction,SMDPad,CuDef*%
G36*
G01*
X123855001Y-128950000D02*
X122604999Y-128950000D01*
G75*
G02*
X122355000Y-128700001I0J249999D01*
G01*
X122355000Y-127899999D01*
G75*
G02*
X122604999Y-127650000I249999J0D01*
G01*
X123855001Y-127650000D01*
G75*
G02*
X124105000Y-127899999I0J-249999D01*
G01*
X124105000Y-128700001D01*
G75*
G02*
X123855001Y-128950000I-249999J0D01*
G01*
G37*
%TD.AperFunction*%
%TD*%
%TO.P,R3,2*%
%TO.N,IO3*%
%TA.AperFunction,SMDPad,CuDef*%
G36*
G01*
X121355001Y-125850000D02*
X120104999Y-125850000D01*
G75*
G02*
X119855000Y-125600001I0J249999D01*
G01*
X119855000Y-124799999D01*
G75*
G02*
X120104999Y-124550000I249999J0D01*
G01*
X121355001Y-124550000D01*
G75*
G02*
X121605000Y-124799999I0J-249999D01*
G01*
X121605000Y-125600001D01*
G75*
G02*
X121355001Y-125850000I-249999J0D01*
G01*
G37*
%TD.AperFunction*%
%TO.P,R3,1*%
%TO.N,+3V3*%
%TA.AperFunction,SMDPad,CuDef*%
G36*
G01*
X121355001Y-128950000D02*
X120104999Y-128950000D01*
G75*
G02*
X119855000Y-128700001I0J249999D01*
G01*
X119855000Y-127899999D01*
G75*
G02*
X120104999Y-127650000I249999J0D01*
G01*
X121355001Y-127650000D01*
G75*
G02*
X121605000Y-127899999I0J-249999D01*
G01*
X121605000Y-128700001D01*
G75*
G02*
X121355001Y-128950000I-249999J0D01*
G01*
G37*
%TD.AperFunction*%
%TD*%
%TO.P,R2,2*%
%TO.N,IO2*%
%TA.AperFunction,SMDPad,CuDef*%
G36*
G01*
X118855001Y-125850000D02*
X117604999Y-125850000D01*
G75*
G02*
X117355000Y-125600001I0J249999D01*
G01*
X117355000Y-124799999D01*
G75*
G02*
X117604999Y-124550000I249999J0D01*
G01*
X118855001Y-124550000D01*
G75*
G02*
X119105000Y-124799999I0J-249999D01*
G01*
X119105000Y-125600001D01*
G75*
G02*
X118855001Y-125850000I-249999J0D01*
G01*
G37*
%TD.AperFunction*%
%TO.P,R2,1*%
%TO.N,+3V3*%
%TA.AperFunction,SMDPad,CuDef*%
G36*
G01*
X118855001Y-128950000D02*
X117604999Y-128950000D01*
G75*
G02*
X117355000Y-128700001I0J249999D01*
G01*
X117355000Y-127899999D01*
G75*
G02*
X117604999Y-127650000I249999J0D01*
G01*
X118855001Y-127650000D01*
G75*
G02*
X119105000Y-127899999I0J-249999D01*
G01*
X119105000Y-128700001D01*
G75*
G02*
X118855001Y-128950000I-249999J0D01*
G01*
G37*
%TD.AperFunction*%
%TD*%
%TO.P,R1,2*%
%TO.N,IO1*%
%TA.AperFunction,SMDPad,CuDef*%
G36*
G01*
X116355001Y-125850000D02*
X115104999Y-125850000D01*
G75*
G02*
X114855000Y-125600001I0J249999D01*
G01*
X114855000Y-124799999D01*
G75*
G02*
X115104999Y-124550000I249999J0D01*
G01*
X116355001Y-124550000D01*
G75*
G02*
X116605000Y-124799999I0J-249999D01*
G01*
X116605000Y-125600001D01*
G75*
G02*
X116355001Y-125850000I-249999J0D01*
G01*
G37*
%TD.AperFunction*%
%TO.P,R1,1*%
%TO.N,+3V3*%
%TA.AperFunction,SMDPad,CuDef*%
G36*
G01*
X116355001Y-128950000D02*
X115104999Y-128950000D01*
G75*
G02*
X114855000Y-128700001I0J249999D01*
G01*
X114855000Y-127899999D01*
G75*
G02*
X115104999Y-127650000I249999J0D01*
G01*
X116355001Y-127650000D01*
G75*
G02*
X116605000Y-127899999I0J-249999D01*
G01*
X116605000Y-128700001D01*
G75*
G02*
X116355001Y-128950000I-249999J0D01*
G01*
G37*
%TD.AperFunction*%
%TD*%
D21*
%TO.P,J2,S1*%
%TO.N,GND*%
X112545000Y-111200000D03*
D22*
%TO.P,J2,A12*%
X116660000Y-108000000D03*
%TO.P,J2,A4*%
%TO.N,VBUS*%
X116660000Y-113600000D03*
%TO.P,J2,B12*%
%TO.N,GND*%
X116660000Y-114400000D03*
%TO.P,J2,B4*%
%TO.N,VBUS*%
X116660000Y-108800000D03*
D23*
%TO.P,J2,S1*%
%TO.N,GND*%
X111890000Y-106875000D03*
X111890000Y-115525000D03*
D24*
X116070000Y-106875000D03*
X116070000Y-115525000D03*
D25*
%TO.P,J2,A7*%
%TO.N,D-*%
X116660000Y-110950000D03*
%TO.P,J2,A6*%
%TO.N,D+*%
X116660000Y-111450000D03*
%TO.P,J2,B6*%
X116660000Y-110450000D03*
%TO.P,J2,B7*%
%TO.N,D-*%
X116660000Y-111950000D03*
%TO.P,J2,A8*%
%TO.N,Net-(J2-PadA8)*%
X116660000Y-109950000D03*
%TO.P,J2,A5*%
%TO.N,Net-(J2-PadA5)*%
X116660000Y-112450000D03*
%TO.P,J2,B5*%
%TO.N,Net-(J2-PadB5)*%
X116660000Y-109450000D03*
%TO.P,J2,B8*%
%TO.N,Net-(J2-PadB8)*%
X116660000Y-112950000D03*
D22*
%TO.P,J2,A9*%
%TO.N,VBUS*%
X116660000Y-108800000D03*
%TO.P,J2,B9*%
X116660000Y-113600000D03*
%TO.P,J2,B1*%
%TO.N,GND*%
X116660000Y-108000000D03*
D26*
%TO.P,J2,S1*%
X115590000Y-108310000D03*
X115590000Y-114090000D03*
D22*
%TO.P,J2,A1*%
X116660000Y-114400000D03*
%TD*%
%TO.P,R8,2*%
%TO.N,Net-(J2-PadB5)*%
%TA.AperFunction,SMDPad,CuDef*%
G36*
G01*
X113550000Y-105375001D02*
X113550000Y-104124999D01*
G75*
G02*
X113799999Y-103875000I249999J0D01*
G01*
X114600001Y-103875000D01*
G75*
G02*
X114850000Y-104124999I0J-249999D01*
G01*
X114850000Y-105375001D01*
G75*
G02*
X114600001Y-105625000I-249999J0D01*
G01*
X113799999Y-105625000D01*
G75*
G02*
X113550000Y-105375001I0J249999D01*
G01*
G37*
%TD.AperFunction*%
%TO.P,R8,1*%
%TO.N,GND*%
%TA.AperFunction,SMDPad,CuDef*%
G36*
G01*
X110450000Y-105375001D02*
X110450000Y-104124999D01*
G75*
G02*
X110699999Y-103875000I249999J0D01*
G01*
X111500001Y-103875000D01*
G75*
G02*
X111750000Y-104124999I0J-249999D01*
G01*
X111750000Y-105375001D01*
G75*
G02*
X111500001Y-105625000I-249999J0D01*
G01*
X110699999Y-105625000D01*
G75*
G02*
X110450000Y-105375001I0J249999D01*
G01*
G37*
%TD.AperFunction*%
%TD*%
%TO.P,R7,2*%
%TO.N,GND*%
%TA.AperFunction,SMDPad,CuDef*%
G36*
G01*
X111750000Y-101674999D02*
X111750000Y-102925001D01*
G75*
G02*
X111500001Y-103175000I-249999J0D01*
G01*
X110699999Y-103175000D01*
G75*
G02*
X110450000Y-102925001I0J249999D01*
G01*
X110450000Y-101674999D01*
G75*
G02*
X110699999Y-101425000I249999J0D01*
G01*
X111500001Y-101425000D01*
G75*
G02*
X111750000Y-101674999I0J-249999D01*
G01*
G37*
%TD.AperFunction*%
%TO.P,R7,1*%
%TO.N,Net-(J2-PadA5)*%
%TA.AperFunction,SMDPad,CuDef*%
G36*
G01*
X114850000Y-101674999D02*
X114850000Y-102925001D01*
G75*
G02*
X114600001Y-103175000I-249999J0D01*
G01*
X113799999Y-103175000D01*
G75*
G02*
X113550000Y-102925001I0J249999D01*
G01*
X113550000Y-101674999D01*
G75*
G02*
X113799999Y-101425000I249999J0D01*
G01*
X114600001Y-101425000D01*
G75*
G02*
X114850000Y-101674999I0J-249999D01*
G01*
G37*
%TD.AperFunction*%
%TD*%
D27*
%TO.P,J1,6*%
%TO.N,Net-(J1-Pad6)*%
X125730000Y-122900000D03*
%TO.P,J1,5*%
%TO.N,IO4*%
X123230000Y-122900000D03*
%TO.P,J1,4*%
%TO.N,IO3*%
X120730000Y-122900000D03*
%TO.P,J1,3*%
%TO.N,IO2*%
X118230000Y-122900000D03*
%TO.P,J1,2*%
%TO.N,IO1*%
X115730000Y-122900000D03*
%TO.P,J1,1*%
%TO.N,GND*%
%TA.AperFunction,ComponentPad*%
G36*
G01*
X112380000Y-123575000D02*
X112380000Y-122225000D01*
G75*
G02*
X112630000Y-121975000I250000J0D01*
G01*
X113830000Y-121975000D01*
G75*
G02*
X114080000Y-122225000I0J-250000D01*
G01*
X114080000Y-123575000D01*
G75*
G02*
X113830000Y-123825000I-250000J0D01*
G01*
X112630000Y-123825000D01*
G75*
G02*
X112380000Y-123575000I0J250000D01*
G01*
G37*
%TD.AperFunction*%
%TD*%
D28*
%TO.N,D+*%
X118176034Y-105838698D03*
X116964002Y-116851939D03*
%TO.N,GND*%
X112650000Y-102300000D03*
X122900000Y-112300000D03*
X111000000Y-116265000D03*
%TO.N,D-*%
X124128251Y-107152932D03*
X121572067Y-106048231D03*
X119247982Y-105582966D03*
%TO.N,+3V3*%
X126000000Y-104300000D03*
X125724149Y-106959354D03*
X114046623Y-118166940D03*
X113629916Y-126374388D03*
%TO.N,VBUS*%
X117871245Y-113475560D03*
X126500000Y-128300000D03*
%TO.N,IO5*%
X128000000Y-117535000D03*
%TO.N,O*%
X114784442Y-117441930D03*
%TO.N,I*%
X125049988Y-118187751D03*
%TO.N,EN*%
X112710202Y-116755063D03*
%TO.N,CBUS3*%
X125049988Y-117183173D03*
%TO.N,CBUS0*%
X127400000Y-123600000D03*
%TO.N,CBUS1*%
X125275010Y-115733152D03*
%TO.N,CBUS2*%
X113864025Y-116264025D03*
%TD*%
D29*
%TO.N,D+*%
X117147820Y-118075000D02*
X116964002Y-117891182D01*
X118800000Y-118075000D02*
X117147820Y-118075000D01*
X116964002Y-117891182D02*
X116964002Y-116851939D01*
X116660000Y-110450000D02*
X118450000Y-110450000D01*
X120550011Y-109622810D02*
X120550011Y-105811991D01*
X119600000Y-106963589D02*
X118475109Y-105838698D01*
X118722821Y-111450000D02*
X120550011Y-109622810D01*
X118591083Y-104857964D02*
X118176034Y-105273013D01*
X119600000Y-109300000D02*
X119600000Y-106963589D01*
X116660000Y-111450000D02*
X118722821Y-111450000D01*
X118475109Y-105838698D02*
X118176034Y-105838698D01*
X119595984Y-104857964D02*
X118591083Y-104857964D01*
X118176034Y-105273013D02*
X118176034Y-105838698D01*
X118450000Y-110450000D02*
X119600000Y-109300000D01*
X120550011Y-105811991D02*
X119595984Y-104857964D01*
%TO.N,GND*%
X112545000Y-112000000D02*
X112545000Y-111200000D01*
X116070000Y-115525000D02*
X112545000Y-112000000D01*
X116660000Y-114935000D02*
X116070000Y-115525000D01*
X116660000Y-114400000D02*
X116660000Y-114935000D01*
X115590000Y-114090000D02*
X112700000Y-111200000D01*
X111890000Y-110545000D02*
X112545000Y-111200000D01*
X111890000Y-106875000D02*
X111890000Y-110545000D01*
X112545000Y-110400000D02*
X112545000Y-111200000D01*
X116070000Y-106875000D02*
X112545000Y-110400000D01*
X112700000Y-111200000D02*
X112545000Y-111200000D01*
X115590000Y-108310000D02*
X112700000Y-111200000D01*
X116070000Y-107410000D02*
X116660000Y-108000000D01*
X116070000Y-106875000D02*
X116070000Y-107410000D01*
X121825000Y-116775000D02*
X120850000Y-117750000D01*
X122800000Y-116775000D02*
X121825000Y-116775000D01*
X120525000Y-118075000D02*
X120850000Y-117750000D01*
X120525000Y-119700000D02*
X120525000Y-118075000D01*
X111100000Y-106085000D02*
X111890000Y-106875000D01*
X111100000Y-104750000D02*
X111100000Y-106085000D01*
X111890000Y-115525000D02*
X111890000Y-111855000D01*
X111890000Y-111855000D02*
X112545000Y-111200000D01*
X119875000Y-118725000D02*
X120850000Y-117750000D01*
X119875000Y-119800000D02*
X119875000Y-118725000D01*
X112650000Y-102300000D02*
X112650000Y-103150000D01*
X113049990Y-103549990D02*
X116149990Y-103549990D01*
X112650000Y-103150000D02*
X113049990Y-103549990D01*
X116660000Y-108000000D02*
X118000000Y-108000000D01*
%TO.N,D-*%
X118800000Y-117425000D02*
X117925000Y-117425000D01*
X117925000Y-117425000D02*
X117689003Y-117189003D01*
X117689003Y-117189003D02*
X117689003Y-116689003D01*
X117689003Y-116689003D02*
X117689003Y-116503938D01*
X120100000Y-109436410D02*
X120100000Y-106434984D01*
X118586410Y-110950000D02*
X120100000Y-109436410D01*
X116660000Y-111950000D02*
X118859232Y-111950000D01*
X120100000Y-106434984D02*
X119247982Y-105582966D01*
X121572067Y-109237165D02*
X121572067Y-106048231D01*
X118859232Y-111950000D02*
X121572067Y-109237165D01*
X116660000Y-110950000D02*
X118586410Y-110950000D01*
X124128251Y-108598928D02*
X124128251Y-107152932D01*
X117689003Y-116689003D02*
X117674988Y-116674988D01*
X117674988Y-114588601D02*
X118063589Y-114200000D01*
X117674988Y-116674988D02*
X117674988Y-114588601D01*
X118536410Y-114200000D02*
X121599980Y-111136430D01*
X118063589Y-114200000D02*
X118536410Y-114200000D01*
X121599980Y-111127199D02*
X124128251Y-108598928D01*
X121599980Y-111136430D02*
X121599980Y-111127199D01*
%TO.N,+3V3*%
X119875000Y-115800000D02*
X119875000Y-113835000D01*
X115730000Y-128300000D02*
X118230000Y-128300000D01*
X118230000Y-128300000D02*
X120730000Y-128300000D01*
X120730000Y-128300000D02*
X123230000Y-128300000D01*
X127610000Y-102690000D02*
X127610000Y-102270000D01*
X126000000Y-104300000D02*
X127610000Y-102690000D01*
X127610000Y-105073503D02*
X125724149Y-106959354D01*
X127610000Y-102270000D02*
X127610000Y-105073503D01*
X120435000Y-113835000D02*
X119875000Y-113835000D01*
X120525000Y-113925000D02*
X120435000Y-113835000D01*
X120525000Y-115700000D02*
X120525000Y-113925000D01*
X119565000Y-113835000D02*
X119875000Y-113835000D01*
X118250000Y-114650000D02*
X118750000Y-114650000D01*
X118750000Y-114650000D02*
X119565000Y-113835000D01*
X118800000Y-116775000D02*
X118275000Y-116775000D01*
X118275000Y-116775000D02*
X118139013Y-116639013D01*
X118139013Y-116364015D02*
X118124999Y-116350001D01*
X118139013Y-116639013D02*
X118139013Y-116364015D01*
X118124999Y-114775001D02*
X118250000Y-114650000D01*
X118124999Y-116350001D02*
X118124999Y-114775001D01*
X117063568Y-121199979D02*
X116449989Y-120586400D01*
X116449989Y-120586400D02*
X116449989Y-119449989D01*
X116449989Y-119449989D02*
X115166940Y-118166940D01*
X121825000Y-119800000D02*
X121825000Y-121075000D01*
X115166940Y-118166940D02*
X114046623Y-118166940D01*
X121825000Y-121075000D02*
X121700021Y-121199979D01*
X121700021Y-121199979D02*
X117063568Y-121199979D01*
X119875000Y-113835000D02*
X119875000Y-113615587D01*
X119875000Y-113615587D02*
X125724149Y-107766438D01*
X125724149Y-107766438D02*
X125724149Y-106959354D01*
X115730000Y-128300000D02*
X115555528Y-128300000D01*
X115555528Y-128300000D02*
X113629916Y-126374388D01*
%TO.N,VBUS*%
X116004998Y-113600000D02*
X116660000Y-113600000D01*
X115764999Y-113360001D02*
X116004998Y-113600000D01*
X115764999Y-109039999D02*
X115764999Y-113360001D01*
X116004998Y-108800000D02*
X115764999Y-109039999D01*
X116660000Y-108800000D02*
X116004998Y-108800000D01*
X116660000Y-113600000D02*
X117550000Y-113600000D01*
X116660000Y-113600000D02*
X117746805Y-113600000D01*
X117746805Y-113600000D02*
X117871245Y-113475560D01*
X122530000Y-102270000D02*
X123379999Y-103119999D01*
X123379999Y-103119999D02*
X123379999Y-108710769D01*
X123379999Y-108710769D02*
X118615208Y-113475560D01*
X118615208Y-113475560D02*
X118436930Y-113475560D01*
X118436930Y-113475560D02*
X117871245Y-113475560D01*
%TO.N,IO5*%
X128000000Y-120000000D02*
X128000000Y-117535000D01*
%TO.N,IO4*%
X123500000Y-123170000D02*
X123230000Y-122900000D01*
X123230000Y-125200000D02*
X123230000Y-122900000D01*
%TO.N,IO3*%
X120730000Y-125200000D02*
X120730000Y-122900000D01*
%TO.N,IO2*%
X118500000Y-123170000D02*
X118230000Y-122900000D01*
X118230000Y-125200000D02*
X118230000Y-122900000D01*
%TO.N,IO1*%
X116000000Y-123170000D02*
X115730000Y-122900000D01*
X115730000Y-125200000D02*
X115730000Y-122900000D01*
X114625000Y-121795000D02*
X115730000Y-122900000D01*
X114625000Y-120500000D02*
X114625000Y-121795000D01*
%TO.N,O*%
X115241930Y-117441930D02*
X114784442Y-117441930D01*
X117249968Y-120749968D02*
X116900000Y-120400000D01*
X121175000Y-119800000D02*
X121175000Y-120688590D01*
X116900000Y-120400000D02*
X116900000Y-119100000D01*
X121175000Y-120688590D02*
X121113622Y-120749968D01*
X121113622Y-120749968D02*
X117249968Y-120749968D01*
X116900000Y-119100000D02*
X115241930Y-117441930D01*
%TO.N,I*%
X122800000Y-118075000D02*
X124937237Y-118075000D01*
X124937237Y-118075000D02*
X125049988Y-118187751D01*
%TO.N,EN*%
X113698622Y-118891941D02*
X112710202Y-117903521D01*
X115191941Y-118891941D02*
X113698622Y-118891941D01*
X115900000Y-119600000D02*
X115191941Y-118891941D01*
X115900000Y-121036411D02*
X115900000Y-119600000D01*
X112710202Y-117903521D02*
X112710202Y-116755063D01*
X123350010Y-121649990D02*
X116513579Y-121649990D01*
X116513579Y-121649990D02*
X115900000Y-121036411D01*
X123650000Y-121350000D02*
X123350010Y-121649990D01*
X123650000Y-118800000D02*
X123650000Y-121350000D01*
X123575000Y-118725000D02*
X123650000Y-118800000D01*
X122900000Y-118725000D02*
X123575000Y-118725000D01*
%TO.N,CBUS3*%
X124808161Y-117425000D02*
X125049988Y-117183173D01*
X122900000Y-117425000D02*
X124808161Y-117425000D01*
%TO.N,CBUS0*%
X122100000Y-114675000D02*
X121825000Y-114950000D01*
X125598001Y-116458163D02*
X124958163Y-116458163D01*
X126007031Y-116867193D02*
X125598001Y-116458163D01*
X126007031Y-120992969D02*
X126007031Y-116867193D01*
X127400000Y-122385938D02*
X126007031Y-120992969D01*
X121825000Y-114950000D02*
X121825000Y-115700000D01*
X123175000Y-114675000D02*
X122100000Y-114675000D01*
X124958163Y-116458163D02*
X123175000Y-114675000D01*
X127400000Y-123600000D02*
X127400000Y-122385938D01*
%TO.N,CBUS1*%
X121300000Y-114000000D02*
X124800000Y-114000000D01*
X121175000Y-114125000D02*
X121300000Y-114000000D01*
X124800000Y-114000000D02*
X125275010Y-114475010D01*
X125275010Y-114475010D02*
X125275010Y-115733152D01*
X121175000Y-115700000D02*
X121175000Y-114125000D01*
%TO.N,CBUS2*%
X118800000Y-118725000D02*
X117161410Y-118725000D01*
X117161410Y-118725000D02*
X114700435Y-116264025D01*
X114700435Y-116264025D02*
X113864025Y-116264025D01*
%TO.N,Net-(J2-PadA5)*%
X122297069Y-109148574D02*
X122297069Y-104497069D01*
X114850000Y-102300000D02*
X114200000Y-102300000D01*
X122297069Y-104497069D02*
X121600000Y-103800000D01*
X117936410Y-101700000D02*
X115450000Y-101700000D01*
X116660000Y-112450000D02*
X118995643Y-112450000D01*
X118995643Y-112450000D02*
X122297069Y-109148574D01*
X119336998Y-103800000D02*
X118514999Y-102978001D01*
X115450000Y-101700000D02*
X114850000Y-102300000D01*
X121600000Y-103800000D02*
X119336998Y-103800000D01*
X118514999Y-102978001D02*
X118514999Y-102278588D01*
X118514999Y-102278588D02*
X117936410Y-101700000D01*
%TO.N,Net-(J2-PadB5)*%
X117100000Y-105400000D02*
X115600000Y-105400000D01*
X118000000Y-106687984D02*
X117356008Y-106043992D01*
X119000000Y-107000000D02*
X118687984Y-106687984D01*
X118650000Y-109450000D02*
X119000000Y-109100000D01*
X115600000Y-105400000D02*
X114950000Y-104750000D01*
X117356008Y-105656008D02*
X117100000Y-105400000D01*
X114950000Y-104750000D02*
X114200000Y-104750000D01*
X118687984Y-106687984D02*
X118000000Y-106687984D01*
X119000000Y-109100000D02*
X119000000Y-107000000D01*
X116660000Y-109450000D02*
X118650000Y-109450000D01*
X117356008Y-106043992D02*
X117356008Y-105656008D01*
%TO.N,Net-(J1-Pad6)*%
X126000000Y-123170000D02*
X125730000Y-122900000D01*
X124900000Y-122070000D02*
X125730000Y-122900000D01*
X124900000Y-120000000D02*
X124900000Y-122070000D01*
X126500000Y-125200000D02*
X126500000Y-123670000D01*
X126500000Y-123670000D02*
X125730000Y-122900000D01*
%TD*%
D30*
%TO.N,GND*%
X128573000Y-107697216D02*
X128521376Y-107657478D01*
X128437169Y-107615792D01*
X128346447Y-107591335D01*
X128252698Y-107585047D01*
X128159522Y-107597169D01*
X128070502Y-107627236D01*
X128009459Y-107662355D01*
X125956247Y-109128937D01*
X125942712Y-109136171D01*
X125919844Y-109154938D01*
X123897892Y-110599191D01*
X123883711Y-110606771D01*
X123859750Y-110626435D01*
X123853690Y-110630764D01*
X123841661Y-110641281D01*
X123811079Y-110666379D01*
X123806316Y-110672182D01*
X123800672Y-110677117D01*
X123776571Y-110708427D01*
X123751471Y-110739011D01*
X123747932Y-110745632D01*
X123743358Y-110751574D01*
X123725829Y-110786984D01*
X123707178Y-110821877D01*
X123704998Y-110829063D01*
X123701672Y-110835782D01*
X123691386Y-110873938D01*
X123679903Y-110911792D01*
X123679167Y-110919261D01*
X123677215Y-110926503D01*
X123674570Y-110965936D01*
X123670693Y-111005300D01*
X123671429Y-111012771D01*
X123670927Y-111020252D01*
X123676026Y-111059445D01*
X123679903Y-111098808D01*
X123682081Y-111105989D01*
X123683049Y-111113427D01*
X123695696Y-111150870D01*
X123707178Y-111188723D01*
X123710717Y-111195344D01*
X123713116Y-111202447D01*
X123732823Y-111236702D01*
X123751471Y-111271589D01*
X123756232Y-111277390D01*
X123759972Y-111283891D01*
X123785985Y-111313644D01*
X123811079Y-111344221D01*
X123816882Y-111348983D01*
X123821817Y-111354628D01*
X123853127Y-111378729D01*
X123883711Y-111403829D01*
X123890332Y-111407368D01*
X123896274Y-111411942D01*
X123931684Y-111429471D01*
X123966577Y-111448122D01*
X123973763Y-111450302D01*
X123980482Y-111453628D01*
X124018638Y-111463914D01*
X124056492Y-111475397D01*
X124063961Y-111476133D01*
X124071203Y-111478085D01*
X124110635Y-111480730D01*
X124126577Y-111482300D01*
X124134045Y-111482300D01*
X124164952Y-111484373D01*
X124180886Y-111482300D01*
X124919359Y-111482300D01*
X123821788Y-112423079D01*
X123773068Y-112473931D01*
X123722550Y-112553156D01*
X123688459Y-112640714D01*
X123672106Y-112733240D01*
X123674116Y-112827178D01*
X123694415Y-112918920D01*
X123732223Y-113004939D01*
X123786084Y-113081929D01*
X123853931Y-113146932D01*
X123933156Y-113197450D01*
X124020714Y-113231541D01*
X124113240Y-113247894D01*
X124207178Y-113245884D01*
X124298920Y-113225585D01*
X124384939Y-113187777D01*
X124442644Y-113147408D01*
X126208821Y-111633537D01*
X127975006Y-113147408D01*
X128032711Y-113187778D01*
X128118730Y-113225585D01*
X128210472Y-113245884D01*
X128304411Y-113247894D01*
X128396937Y-113231540D01*
X128484495Y-113197449D01*
X128563719Y-113146931D01*
X128573000Y-113138039D01*
X128573001Y-117009156D01*
X128495309Y-116931464D01*
X128368048Y-116846431D01*
X128226643Y-116787859D01*
X128076528Y-116758000D01*
X127923472Y-116758000D01*
X127773357Y-116787859D01*
X127631952Y-116846431D01*
X127504691Y-116931464D01*
X127396464Y-117039691D01*
X127311431Y-117166952D01*
X127252859Y-117308357D01*
X127223000Y-117458472D01*
X127223000Y-117611528D01*
X127252859Y-117761643D01*
X127311431Y-117903048D01*
X127396464Y-118030309D01*
X127498001Y-118131846D01*
X127498001Y-118756222D01*
X127477322Y-118758259D01*
X127359359Y-118794042D01*
X127250644Y-118852152D01*
X127155354Y-118930354D01*
X127077152Y-119025644D01*
X127019042Y-119134359D01*
X126983259Y-119252322D01*
X126971176Y-119374999D01*
X126971176Y-120625001D01*
X126983259Y-120747678D01*
X127019042Y-120865641D01*
X127077152Y-120974356D01*
X127155354Y-121069646D01*
X127250644Y-121147848D01*
X127359359Y-121205958D01*
X127477322Y-121241741D01*
X127599999Y-121253824D01*
X128400001Y-121253824D01*
X128522678Y-121241741D01*
X128573001Y-121226476D01*
X128573001Y-128979107D01*
X128560078Y-129110899D01*
X128527873Y-129217570D01*
X128475558Y-129315961D01*
X128405130Y-129402313D01*
X128319270Y-129473343D01*
X128221255Y-129526339D01*
X128114807Y-129559290D01*
X127984371Y-129573000D01*
X113413678Y-129573000D01*
X113501185Y-129501185D01*
X113580537Y-129404494D01*
X113639502Y-129294180D01*
X113675812Y-129174482D01*
X113688072Y-129050000D01*
X113685000Y-128485750D01*
X113526250Y-128327000D01*
X112327000Y-128327000D01*
X112327000Y-128347000D01*
X112073000Y-128347000D01*
X112073000Y-128327000D01*
X110873750Y-128327000D01*
X110715000Y-128485750D01*
X110711928Y-129050000D01*
X110724188Y-129174482D01*
X110760498Y-129294180D01*
X110819463Y-129404494D01*
X110898815Y-129501185D01*
X110981633Y-129569151D01*
X110889101Y-129560078D01*
X110782430Y-129527873D01*
X110684039Y-129475558D01*
X110597687Y-129405130D01*
X110526657Y-129319270D01*
X110473661Y-129221255D01*
X110440710Y-129114807D01*
X110427000Y-128984371D01*
X110427000Y-127350000D01*
X110711928Y-127350000D01*
X110715000Y-127914250D01*
X110873750Y-128073000D01*
X112073000Y-128073000D01*
X112073000Y-128053000D01*
X112327000Y-128053000D01*
X112327000Y-128073000D01*
X113526250Y-128073000D01*
X113685000Y-127914250D01*
X113688072Y-127350000D01*
X113675812Y-127225518D01*
X113653325Y-127151388D01*
X113696982Y-127151388D01*
X114476176Y-127930583D01*
X114476176Y-128700001D01*
X114488259Y-128822678D01*
X114524042Y-128940641D01*
X114582152Y-129049356D01*
X114660354Y-129144646D01*
X114755644Y-129222848D01*
X114864359Y-129280958D01*
X114982322Y-129316741D01*
X115104999Y-129328824D01*
X116355001Y-129328824D01*
X116477678Y-129316741D01*
X116595641Y-129280958D01*
X116704356Y-129222848D01*
X116799646Y-129144646D01*
X116877848Y-129049356D01*
X116935958Y-128940641D01*
X116971741Y-128822678D01*
X116973778Y-128802000D01*
X116986222Y-128802000D01*
X116988259Y-128822678D01*
X117024042Y-128940641D01*
X117082152Y-129049356D01*
X117160354Y-129144646D01*
X117255644Y-129222848D01*
X117364359Y-129280958D01*
X117482322Y-129316741D01*
X117604999Y-129328824D01*
X118855001Y-129328824D01*
X118977678Y-129316741D01*
X119095641Y-129280958D01*
X119204356Y-129222848D01*
X119299646Y-129144646D01*
X119377848Y-129049356D01*
X119435958Y-128940641D01*
X119471741Y-128822678D01*
X119473778Y-128802000D01*
X119486222Y-128802000D01*
X119488259Y-128822678D01*
X119524042Y-128940641D01*
X119582152Y-129049356D01*
X119660354Y-129144646D01*
X119755644Y-129222848D01*
X119864359Y-129280958D01*
X119982322Y-129316741D01*
X120104999Y-129328824D01*
X121355001Y-129328824D01*
X121477678Y-129316741D01*
X121595641Y-129280958D01*
X121704356Y-129222848D01*
X121799646Y-129144646D01*
X121877848Y-129049356D01*
X121935958Y-128940641D01*
X121971741Y-128822678D01*
X121973778Y-128802000D01*
X121986222Y-128802000D01*
X121988259Y-128822678D01*
X122024042Y-128940641D01*
X122082152Y-129049356D01*
X122160354Y-129144646D01*
X122255644Y-129222848D01*
X122364359Y-129280958D01*
X122482322Y-129316741D01*
X122604999Y-129328824D01*
X123855001Y-129328824D01*
X123977678Y-129316741D01*
X124095641Y-129280958D01*
X124204356Y-129222848D01*
X124299646Y-129144646D01*
X124377848Y-129049356D01*
X124435958Y-128940641D01*
X124471741Y-128822678D01*
X124483824Y-128700001D01*
X124483824Y-127899999D01*
X125246176Y-127899999D01*
X125246176Y-128700001D01*
X125258259Y-128822678D01*
X125294042Y-128940641D01*
X125352152Y-129049356D01*
X125430354Y-129144646D01*
X125525644Y-129222848D01*
X125634359Y-129280958D01*
X125752322Y-129316741D01*
X125874999Y-129328824D01*
X127125001Y-129328824D01*
X127247678Y-129316741D01*
X127365641Y-129280958D01*
X127474356Y-129222848D01*
X127569646Y-129144646D01*
X127647848Y-129049356D01*
X127705958Y-128940641D01*
X127741741Y-128822678D01*
X127753824Y-128700001D01*
X127753824Y-127899999D01*
X127741741Y-127777322D01*
X127705958Y-127659359D01*
X127647848Y-127550644D01*
X127569646Y-127455354D01*
X127474356Y-127377152D01*
X127365641Y-127319042D01*
X127247678Y-127283259D01*
X127125001Y-127271176D01*
X125874999Y-127271176D01*
X125752322Y-127283259D01*
X125634359Y-127319042D01*
X125525644Y-127377152D01*
X125430354Y-127455354D01*
X125352152Y-127550644D01*
X125294042Y-127659359D01*
X125258259Y-127777322D01*
X125246176Y-127899999D01*
X124483824Y-127899999D01*
X124471741Y-127777322D01*
X124435958Y-127659359D01*
X124377848Y-127550644D01*
X124299646Y-127455354D01*
X124204356Y-127377152D01*
X124095641Y-127319042D01*
X123977678Y-127283259D01*
X123855001Y-127271176D01*
X122604999Y-127271176D01*
X122482322Y-127283259D01*
X122364359Y-127319042D01*
X122255644Y-127377152D01*
X122160354Y-127455354D01*
X122082152Y-127550644D01*
X122024042Y-127659359D01*
X121988259Y-127777322D01*
X121986222Y-127798000D01*
X121973778Y-127798000D01*
X121971741Y-127777322D01*
X121935958Y-127659359D01*
X121877848Y-127550644D01*
X121799646Y-127455354D01*
X121704356Y-127377152D01*
X121595641Y-127319042D01*
X121477678Y-127283259D01*
X121355001Y-127271176D01*
X120104999Y-127271176D01*
X119982322Y-127283259D01*
X119864359Y-127319042D01*
X119755644Y-127377152D01*
X119660354Y-127455354D01*
X119582152Y-127550644D01*
X119524042Y-127659359D01*
X119488259Y-127777322D01*
X119486222Y-127798000D01*
X119473778Y-127798000D01*
X119471741Y-127777322D01*
X119435958Y-127659359D01*
X119377848Y-127550644D01*
X119299646Y-127455354D01*
X119204356Y-127377152D01*
X119095641Y-127319042D01*
X118977678Y-127283259D01*
X118855001Y-127271176D01*
X117604999Y-127271176D01*
X117482322Y-127283259D01*
X117364359Y-127319042D01*
X117255644Y-127377152D01*
X117160354Y-127455354D01*
X117082152Y-127550644D01*
X117024042Y-127659359D01*
X116988259Y-127777322D01*
X116986222Y-127798000D01*
X116973778Y-127798000D01*
X116971741Y-127777322D01*
X116935958Y-127659359D01*
X116877848Y-127550644D01*
X116799646Y-127455354D01*
X116704356Y-127377152D01*
X116595641Y-127319042D01*
X116477678Y-127283259D01*
X116355001Y-127271176D01*
X115236639Y-127271176D01*
X114406916Y-126441454D01*
X114406916Y-126297860D01*
X114377057Y-126147745D01*
X114318485Y-126006340D01*
X114233452Y-125879079D01*
X114125225Y-125770852D01*
X113997964Y-125685819D01*
X113856559Y-125627247D01*
X113706444Y-125597388D01*
X113553388Y-125597388D01*
X113427000Y-125622528D01*
X113427000Y-125539151D01*
X113379847Y-125302097D01*
X113287353Y-125078798D01*
X113153073Y-124877833D01*
X112982167Y-124706927D01*
X112781202Y-124572647D01*
X112557903Y-124480153D01*
X112469579Y-124462584D01*
X112944250Y-124460000D01*
X113103000Y-124301250D01*
X113103000Y-123027000D01*
X111903750Y-123027000D01*
X111745000Y-123185750D01*
X111741928Y-123825000D01*
X111754188Y-123949482D01*
X111790498Y-124069180D01*
X111849463Y-124179494D01*
X111928815Y-124276185D01*
X112025506Y-124355537D01*
X112135820Y-124414502D01*
X112196800Y-124433000D01*
X112079151Y-124433000D01*
X111842097Y-124480153D01*
X111618798Y-124572647D01*
X111417833Y-124706927D01*
X111246927Y-124877833D01*
X111112647Y-125078798D01*
X111020153Y-125302097D01*
X110973000Y-125539151D01*
X110973000Y-125780849D01*
X111020153Y-126017903D01*
X111112647Y-126241202D01*
X111246927Y-126442167D01*
X111417833Y-126613073D01*
X111567553Y-126713112D01*
X111350000Y-126711928D01*
X111225518Y-126724188D01*
X111105820Y-126760498D01*
X110995506Y-126819463D01*
X110898815Y-126898815D01*
X110819463Y-126995506D01*
X110760498Y-127105820D01*
X110724188Y-127225518D01*
X110711928Y-127350000D01*
X110427000Y-127350000D01*
X110427000Y-121884574D01*
X110483006Y-121930537D01*
X110593320Y-121989502D01*
X110713018Y-122025812D01*
X110837500Y-122038072D01*
X111214250Y-122035000D01*
X111373000Y-121876250D01*
X111373000Y-120627000D01*
X111627000Y-120627000D01*
X111627000Y-121876250D01*
X111742006Y-121991256D01*
X111745000Y-122614250D01*
X111903750Y-122773000D01*
X113103000Y-122773000D01*
X113103000Y-121498750D01*
X112944250Y-121340000D01*
X112800268Y-121339216D01*
X112797500Y-120785750D01*
X112638750Y-120627000D01*
X111627000Y-120627000D01*
X111373000Y-120627000D01*
X111353000Y-120627000D01*
X111353000Y-120373000D01*
X111373000Y-120373000D01*
X111373000Y-119123750D01*
X111627000Y-119123750D01*
X111627000Y-120373000D01*
X112638750Y-120373000D01*
X112797500Y-120214250D01*
X112800572Y-119600000D01*
X112788312Y-119475518D01*
X112752002Y-119355820D01*
X112693037Y-119245506D01*
X112613685Y-119148815D01*
X112516994Y-119069463D01*
X112406680Y-119010498D01*
X112286982Y-118974188D01*
X112162500Y-118961928D01*
X111785750Y-118965000D01*
X111627000Y-119123750D01*
X111373000Y-119123750D01*
X111214250Y-118965000D01*
X110837500Y-118961928D01*
X110713018Y-118974188D01*
X110593320Y-119010498D01*
X110483006Y-119069463D01*
X110427000Y-119115426D01*
X110427000Y-116007289D01*
X110485399Y-116007216D01*
X110539081Y-116158747D01*
X110612528Y-116296157D01*
X110861603Y-116373792D01*
X111229108Y-116006287D01*
X111588767Y-116005838D01*
X111041208Y-116553397D01*
X111118843Y-116802472D01*
X111382883Y-116928371D01*
X111666411Y-117000339D01*
X111958531Y-117015611D01*
X111976052Y-117013068D01*
X112021633Y-117123111D01*
X112106666Y-117250372D01*
X112208202Y-117351908D01*
X112208202Y-117878878D01*
X112205775Y-117903521D01*
X112208202Y-117928164D01*
X112208202Y-117928173D01*
X112215466Y-118001929D01*
X112244171Y-118096556D01*
X112290785Y-118183766D01*
X112353518Y-118260205D01*
X112372669Y-118275922D01*
X113326225Y-119229479D01*
X113341938Y-119248625D01*
X113361084Y-119264338D01*
X113361086Y-119264340D01*
X113396052Y-119293036D01*
X113418377Y-119311358D01*
X113505586Y-119357972D01*
X113600213Y-119386677D01*
X113673969Y-119393941D01*
X113673979Y-119393941D01*
X113698622Y-119396368D01*
X113723265Y-119393941D01*
X113781759Y-119393941D01*
X113767853Y-119405353D01*
X113689651Y-119500643D01*
X113631542Y-119609358D01*
X113595759Y-119727320D01*
X113583676Y-119849997D01*
X113583676Y-121150003D01*
X113595759Y-121272680D01*
X113616014Y-121339454D01*
X113515750Y-121340000D01*
X113357000Y-121498750D01*
X113357000Y-122773000D01*
X113377000Y-122773000D01*
X113377000Y-123027000D01*
X113357000Y-123027000D01*
X113357000Y-124301250D01*
X113515750Y-124460000D01*
X114080000Y-124463072D01*
X114204482Y-124450812D01*
X114324180Y-124414502D01*
X114434494Y-124355537D01*
X114531185Y-124276185D01*
X114610537Y-124179494D01*
X114669502Y-124069180D01*
X114705812Y-123949482D01*
X114718072Y-123825000D01*
X114717352Y-123675216D01*
X114858184Y-123846817D01*
X115045018Y-124000149D01*
X115228000Y-124097954D01*
X115228000Y-124171176D01*
X115104999Y-124171176D01*
X114982322Y-124183259D01*
X114864359Y-124219042D01*
X114755644Y-124277152D01*
X114660354Y-124355354D01*
X114582152Y-124450644D01*
X114524042Y-124559359D01*
X114488259Y-124677322D01*
X114476176Y-124799999D01*
X114476176Y-125600001D01*
X114488259Y-125722678D01*
X114524042Y-125840641D01*
X114582152Y-125949356D01*
X114660354Y-126044646D01*
X114755644Y-126122848D01*
X114864359Y-126180958D01*
X114982322Y-126216741D01*
X115104999Y-126228824D01*
X116355001Y-126228824D01*
X116477678Y-126216741D01*
X116595641Y-126180958D01*
X116704356Y-126122848D01*
X116799646Y-126044646D01*
X116877848Y-125949356D01*
X116935958Y-125840641D01*
X116971741Y-125722678D01*
X116980000Y-125638826D01*
X116988259Y-125722678D01*
X117024042Y-125840641D01*
X117082152Y-125949356D01*
X117160354Y-126044646D01*
X117255644Y-126122848D01*
X117364359Y-126180958D01*
X117482322Y-126216741D01*
X117604999Y-126228824D01*
X118855001Y-126228824D01*
X118977678Y-126216741D01*
X119095641Y-126180958D01*
X119204356Y-126122848D01*
X119299646Y-126044646D01*
X119377848Y-125949356D01*
X119435958Y-125840641D01*
X119471741Y-125722678D01*
X119480000Y-125638826D01*
X119488259Y-125722678D01*
X119524042Y-125840641D01*
X119582152Y-125949356D01*
X119660354Y-126044646D01*
X119755644Y-126122848D01*
X119864359Y-126180958D01*
X119982322Y-126216741D01*
X120104999Y-126228824D01*
X121355001Y-126228824D01*
X121477678Y-126216741D01*
X121595641Y-126180958D01*
X121704356Y-126122848D01*
X121799646Y-126044646D01*
X121877848Y-125949356D01*
X121935958Y-125840641D01*
X121971741Y-125722678D01*
X121980000Y-125638826D01*
X121988259Y-125722678D01*
X122024042Y-125840641D01*
X122082152Y-125949356D01*
X122160354Y-126044646D01*
X122255644Y-126122848D01*
X122364359Y-126180958D01*
X122482322Y-126216741D01*
X122604999Y-126228824D01*
X123855001Y-126228824D01*
X123977678Y-126216741D01*
X124095641Y-126180958D01*
X124204356Y-126122848D01*
X124299646Y-126044646D01*
X124377848Y-125949356D01*
X124435958Y-125840641D01*
X124471741Y-125722678D01*
X124483824Y-125600001D01*
X124483824Y-124799999D01*
X124471741Y-124677322D01*
X124435958Y-124559359D01*
X124377848Y-124450644D01*
X124299646Y-124355354D01*
X124204356Y-124277152D01*
X124095641Y-124219042D01*
X123977678Y-124183259D01*
X123855001Y-124171176D01*
X123732000Y-124171176D01*
X123732000Y-124097955D01*
X123914983Y-124000149D01*
X124101817Y-123846817D01*
X124255149Y-123659982D01*
X124369084Y-123446823D01*
X124439245Y-123215533D01*
X124457000Y-123035267D01*
X124457000Y-122764732D01*
X124439245Y-122584466D01*
X124369084Y-122353176D01*
X124255149Y-122140017D01*
X124101817Y-121953183D01*
X123914982Y-121799851D01*
X123911789Y-121798145D01*
X123987532Y-121722402D01*
X124006684Y-121706684D01*
X124069417Y-121630245D01*
X124116031Y-121543036D01*
X124144736Y-121448409D01*
X124152000Y-121374653D01*
X124152000Y-121374643D01*
X124154427Y-121350000D01*
X124152000Y-121325357D01*
X124152000Y-121148573D01*
X124259359Y-121205958D01*
X124377322Y-121241741D01*
X124398001Y-121243778D01*
X124398001Y-122045347D01*
X124395573Y-122070000D01*
X124405265Y-122168409D01*
X124433970Y-122263036D01*
X124480584Y-122350245D01*
X124527601Y-122407535D01*
X124527604Y-122407538D01*
X124543317Y-122426684D01*
X124562463Y-122442397D01*
X124563528Y-122443462D01*
X124520755Y-122584467D01*
X124503000Y-122764733D01*
X124503000Y-123035268D01*
X124520755Y-123215534D01*
X124590916Y-123446824D01*
X124704851Y-123659983D01*
X124858184Y-123846817D01*
X125045018Y-124000149D01*
X125258177Y-124114084D01*
X125489467Y-124184245D01*
X125685440Y-124203547D01*
X125634359Y-124219042D01*
X125525644Y-124277152D01*
X125430354Y-124355354D01*
X125352152Y-124450644D01*
X125294042Y-124559359D01*
X125258259Y-124677322D01*
X125246176Y-124799999D01*
X125246176Y-125600001D01*
X125258259Y-125722678D01*
X125294042Y-125840641D01*
X125352152Y-125949356D01*
X125430354Y-126044646D01*
X125525644Y-126122848D01*
X125634359Y-126180958D01*
X125752322Y-126216741D01*
X125874999Y-126228824D01*
X127125001Y-126228824D01*
X127247678Y-126216741D01*
X127365641Y-126180958D01*
X127474356Y-126122848D01*
X127569646Y-126044646D01*
X127647848Y-125949356D01*
X127705958Y-125840641D01*
X127741741Y-125722678D01*
X127753824Y-125600001D01*
X127753824Y-124799999D01*
X127741741Y-124677322D01*
X127705958Y-124559359D01*
X127647848Y-124450644D01*
X127571850Y-124358040D01*
X127626643Y-124347141D01*
X127768048Y-124288569D01*
X127895309Y-124203536D01*
X128003536Y-124095309D01*
X128088569Y-123968048D01*
X128147141Y-123826643D01*
X128177000Y-123676528D01*
X128177000Y-123523472D01*
X128147141Y-123373357D01*
X128088569Y-123231952D01*
X128003536Y-123104691D01*
X127902000Y-123003155D01*
X127902000Y-122410581D01*
X127904427Y-122385938D01*
X127902000Y-122361295D01*
X127902000Y-122361285D01*
X127894736Y-122287529D01*
X127866031Y-122192902D01*
X127844000Y-122151684D01*
X127819417Y-122105692D01*
X127772400Y-122048402D01*
X127772392Y-122048394D01*
X127756684Y-122029254D01*
X127737543Y-122013545D01*
X126509031Y-120785035D01*
X126509031Y-116891836D01*
X126511458Y-116867193D01*
X126509031Y-116842550D01*
X126509031Y-116842540D01*
X126501767Y-116768784D01*
X126473062Y-116674157D01*
X126444494Y-116620709D01*
X126426448Y-116586947D01*
X126379431Y-116529657D01*
X126379423Y-116529649D01*
X126363715Y-116510509D01*
X126344574Y-116494800D01*
X125970402Y-116120630D01*
X125959485Y-116107327D01*
X125963579Y-116101200D01*
X126022151Y-115959795D01*
X126052010Y-115809680D01*
X126052010Y-115656624D01*
X126022151Y-115506509D01*
X125963579Y-115365104D01*
X125878546Y-115237843D01*
X125777010Y-115136307D01*
X125777010Y-114499655D01*
X125779437Y-114475010D01*
X125777010Y-114450364D01*
X125777010Y-114450357D01*
X125769746Y-114376601D01*
X125769746Y-114376600D01*
X125741041Y-114281973D01*
X125694427Y-114194764D01*
X125647410Y-114137474D01*
X125647402Y-114137466D01*
X125631694Y-114118326D01*
X125612553Y-114102617D01*
X125172401Y-113662467D01*
X125156684Y-113643316D01*
X125080245Y-113580583D01*
X124993036Y-113533969D01*
X124898409Y-113505264D01*
X124824653Y-113498000D01*
X124824643Y-113498000D01*
X124800000Y-113495573D01*
X124775357Y-113498000D01*
X121324643Y-113498000D01*
X121300000Y-113495573D01*
X121275357Y-113498000D01*
X121275347Y-113498000D01*
X121201591Y-113505264D01*
X121106964Y-113533969D01*
X121032129Y-113573969D01*
X121019755Y-113580583D01*
X120962465Y-113627600D01*
X120962464Y-113627601D01*
X120943316Y-113643316D01*
X120943276Y-113643365D01*
X120881684Y-113568316D01*
X120862532Y-113552598D01*
X120807402Y-113497468D01*
X120791684Y-113478316D01*
X120753523Y-113446998D01*
X126061693Y-108138830D01*
X126080833Y-108123122D01*
X126096541Y-108103982D01*
X126096549Y-108103974D01*
X126138083Y-108053364D01*
X126143566Y-108046683D01*
X126190180Y-107959474D01*
X126218885Y-107864847D01*
X126226149Y-107791091D01*
X126226149Y-107791081D01*
X126228576Y-107766438D01*
X126226149Y-107741795D01*
X126226149Y-107556199D01*
X126327685Y-107454663D01*
X126412718Y-107327402D01*
X126471290Y-107185997D01*
X126501149Y-107035882D01*
X126501149Y-106892288D01*
X127947538Y-105445900D01*
X127966684Y-105430187D01*
X127991459Y-105400000D01*
X128014912Y-105371422D01*
X128029417Y-105353748D01*
X128076031Y-105266539D01*
X128104736Y-105171912D01*
X128112000Y-105098156D01*
X128112000Y-105098147D01*
X128114427Y-105073504D01*
X128112000Y-105048861D01*
X128112000Y-103660758D01*
X128309622Y-103578901D01*
X128551533Y-103417261D01*
X128573000Y-103395794D01*
X128573000Y-107697216D01*
%TA.AperFunction,Conductor*%
D31*
G36*
X128573000Y-107697216D02*
G01*
X128521376Y-107657478D01*
X128437169Y-107615792D01*
X128346447Y-107591335D01*
X128252698Y-107585047D01*
X128159522Y-107597169D01*
X128070502Y-107627236D01*
X128009459Y-107662355D01*
X125956247Y-109128937D01*
X125942712Y-109136171D01*
X125919844Y-109154938D01*
X123897892Y-110599191D01*
X123883711Y-110606771D01*
X123859750Y-110626435D01*
X123853690Y-110630764D01*
X123841661Y-110641281D01*
X123811079Y-110666379D01*
X123806316Y-110672182D01*
X123800672Y-110677117D01*
X123776571Y-110708427D01*
X123751471Y-110739011D01*
X123747932Y-110745632D01*
X123743358Y-110751574D01*
X123725829Y-110786984D01*
X123707178Y-110821877D01*
X123704998Y-110829063D01*
X123701672Y-110835782D01*
X123691386Y-110873938D01*
X123679903Y-110911792D01*
X123679167Y-110919261D01*
X123677215Y-110926503D01*
X123674570Y-110965936D01*
X123670693Y-111005300D01*
X123671429Y-111012771D01*
X123670927Y-111020252D01*
X123676026Y-111059445D01*
X123679903Y-111098808D01*
X123682081Y-111105989D01*
X123683049Y-111113427D01*
X123695696Y-111150870D01*
X123707178Y-111188723D01*
X123710717Y-111195344D01*
X123713116Y-111202447D01*
X123732823Y-111236702D01*
X123751471Y-111271589D01*
X123756232Y-111277390D01*
X123759972Y-111283891D01*
X123785985Y-111313644D01*
X123811079Y-111344221D01*
X123816882Y-111348983D01*
X123821817Y-111354628D01*
X123853127Y-111378729D01*
X123883711Y-111403829D01*
X123890332Y-111407368D01*
X123896274Y-111411942D01*
X123931684Y-111429471D01*
X123966577Y-111448122D01*
X123973763Y-111450302D01*
X123980482Y-111453628D01*
X124018638Y-111463914D01*
X124056492Y-111475397D01*
X124063961Y-111476133D01*
X124071203Y-111478085D01*
X124110635Y-111480730D01*
X124126577Y-111482300D01*
X124134045Y-111482300D01*
X124164952Y-111484373D01*
X124180886Y-111482300D01*
X124919359Y-111482300D01*
X123821788Y-112423079D01*
X123773068Y-112473931D01*
X123722550Y-112553156D01*
X123688459Y-112640714D01*
X123672106Y-112733240D01*
X123674116Y-112827178D01*
X123694415Y-112918920D01*
X123732223Y-113004939D01*
X123786084Y-113081929D01*
X123853931Y-113146932D01*
X123933156Y-113197450D01*
X124020714Y-113231541D01*
X124113240Y-113247894D01*
X124207178Y-113245884D01*
X124298920Y-113225585D01*
X124384939Y-113187777D01*
X124442644Y-113147408D01*
X126208821Y-111633537D01*
X127975006Y-113147408D01*
X128032711Y-113187778D01*
X128118730Y-113225585D01*
X128210472Y-113245884D01*
X128304411Y-113247894D01*
X128396937Y-113231540D01*
X128484495Y-113197449D01*
X128563719Y-113146931D01*
X128573000Y-113138039D01*
X128573001Y-117009156D01*
X128495309Y-116931464D01*
X128368048Y-116846431D01*
X128226643Y-116787859D01*
X128076528Y-116758000D01*
X127923472Y-116758000D01*
X127773357Y-116787859D01*
X127631952Y-116846431D01*
X127504691Y-116931464D01*
X127396464Y-117039691D01*
X127311431Y-117166952D01*
X127252859Y-117308357D01*
X127223000Y-117458472D01*
X127223000Y-117611528D01*
X127252859Y-117761643D01*
X127311431Y-117903048D01*
X127396464Y-118030309D01*
X127498001Y-118131846D01*
X127498001Y-118756222D01*
X127477322Y-118758259D01*
X127359359Y-118794042D01*
X127250644Y-118852152D01*
X127155354Y-118930354D01*
X127077152Y-119025644D01*
X127019042Y-119134359D01*
X126983259Y-119252322D01*
X126971176Y-119374999D01*
X126971176Y-120625001D01*
X126983259Y-120747678D01*
X127019042Y-120865641D01*
X127077152Y-120974356D01*
X127155354Y-121069646D01*
X127250644Y-121147848D01*
X127359359Y-121205958D01*
X127477322Y-121241741D01*
X127599999Y-121253824D01*
X128400001Y-121253824D01*
X128522678Y-121241741D01*
X128573001Y-121226476D01*
X128573001Y-128979107D01*
X128560078Y-129110899D01*
X128527873Y-129217570D01*
X128475558Y-129315961D01*
X128405130Y-129402313D01*
X128319270Y-129473343D01*
X128221255Y-129526339D01*
X128114807Y-129559290D01*
X127984371Y-129573000D01*
X113413678Y-129573000D01*
X113501185Y-129501185D01*
X113580537Y-129404494D01*
X113639502Y-129294180D01*
X113675812Y-129174482D01*
X113688072Y-129050000D01*
X113685000Y-128485750D01*
X113526250Y-128327000D01*
X112327000Y-128327000D01*
X112327000Y-128347000D01*
X112073000Y-128347000D01*
X112073000Y-128327000D01*
X110873750Y-128327000D01*
X110715000Y-128485750D01*
X110711928Y-129050000D01*
X110724188Y-129174482D01*
X110760498Y-129294180D01*
X110819463Y-129404494D01*
X110898815Y-129501185D01*
X110981633Y-129569151D01*
X110889101Y-129560078D01*
X110782430Y-129527873D01*
X110684039Y-129475558D01*
X110597687Y-129405130D01*
X110526657Y-129319270D01*
X110473661Y-129221255D01*
X110440710Y-129114807D01*
X110427000Y-128984371D01*
X110427000Y-127350000D01*
X110711928Y-127350000D01*
X110715000Y-127914250D01*
X110873750Y-128073000D01*
X112073000Y-128073000D01*
X112073000Y-128053000D01*
X112327000Y-128053000D01*
X112327000Y-128073000D01*
X113526250Y-128073000D01*
X113685000Y-127914250D01*
X113688072Y-127350000D01*
X113675812Y-127225518D01*
X113653325Y-127151388D01*
X113696982Y-127151388D01*
X114476176Y-127930583D01*
X114476176Y-128700001D01*
X114488259Y-128822678D01*
X114524042Y-128940641D01*
X114582152Y-129049356D01*
X114660354Y-129144646D01*
X114755644Y-129222848D01*
X114864359Y-129280958D01*
X114982322Y-129316741D01*
X115104999Y-129328824D01*
X116355001Y-129328824D01*
X116477678Y-129316741D01*
X116595641Y-129280958D01*
X116704356Y-129222848D01*
X116799646Y-129144646D01*
X116877848Y-129049356D01*
X116935958Y-128940641D01*
X116971741Y-128822678D01*
X116973778Y-128802000D01*
X116986222Y-128802000D01*
X116988259Y-128822678D01*
X117024042Y-128940641D01*
X117082152Y-129049356D01*
X117160354Y-129144646D01*
X117255644Y-129222848D01*
X117364359Y-129280958D01*
X117482322Y-129316741D01*
X117604999Y-129328824D01*
X118855001Y-129328824D01*
X118977678Y-129316741D01*
X119095641Y-129280958D01*
X119204356Y-129222848D01*
X119299646Y-129144646D01*
X119377848Y-129049356D01*
X119435958Y-128940641D01*
X119471741Y-128822678D01*
X119473778Y-128802000D01*
X119486222Y-128802000D01*
X119488259Y-128822678D01*
X119524042Y-128940641D01*
X119582152Y-129049356D01*
X119660354Y-129144646D01*
X119755644Y-129222848D01*
X119864359Y-129280958D01*
X119982322Y-129316741D01*
X120104999Y-129328824D01*
X121355001Y-129328824D01*
X121477678Y-129316741D01*
X121595641Y-129280958D01*
X121704356Y-129222848D01*
X121799646Y-129144646D01*
X121877848Y-129049356D01*
X121935958Y-128940641D01*
X121971741Y-128822678D01*
X121973778Y-128802000D01*
X121986222Y-128802000D01*
X121988259Y-128822678D01*
X122024042Y-128940641D01*
X122082152Y-129049356D01*
X122160354Y-129144646D01*
X122255644Y-129222848D01*
X122364359Y-129280958D01*
X122482322Y-129316741D01*
X122604999Y-129328824D01*
X123855001Y-129328824D01*
X123977678Y-129316741D01*
X124095641Y-129280958D01*
X124204356Y-129222848D01*
X124299646Y-129144646D01*
X124377848Y-129049356D01*
X124435958Y-128940641D01*
X124471741Y-128822678D01*
X124483824Y-128700001D01*
X124483824Y-127899999D01*
X125246176Y-127899999D01*
X125246176Y-128700001D01*
X125258259Y-128822678D01*
X125294042Y-128940641D01*
X125352152Y-129049356D01*
X125430354Y-129144646D01*
X125525644Y-129222848D01*
X125634359Y-129280958D01*
X125752322Y-129316741D01*
X125874999Y-129328824D01*
X127125001Y-129328824D01*
X127247678Y-129316741D01*
X127365641Y-129280958D01*
X127474356Y-129222848D01*
X127569646Y-129144646D01*
X127647848Y-129049356D01*
X127705958Y-128940641D01*
X127741741Y-128822678D01*
X127753824Y-128700001D01*
X127753824Y-127899999D01*
X127741741Y-127777322D01*
X127705958Y-127659359D01*
X127647848Y-127550644D01*
X127569646Y-127455354D01*
X127474356Y-127377152D01*
X127365641Y-127319042D01*
X127247678Y-127283259D01*
X127125001Y-127271176D01*
X125874999Y-127271176D01*
X125752322Y-127283259D01*
X125634359Y-127319042D01*
X125525644Y-127377152D01*
X125430354Y-127455354D01*
X125352152Y-127550644D01*
X125294042Y-127659359D01*
X125258259Y-127777322D01*
X125246176Y-127899999D01*
X124483824Y-127899999D01*
X124471741Y-127777322D01*
X124435958Y-127659359D01*
X124377848Y-127550644D01*
X124299646Y-127455354D01*
X124204356Y-127377152D01*
X124095641Y-127319042D01*
X123977678Y-127283259D01*
X123855001Y-127271176D01*
X122604999Y-127271176D01*
X122482322Y-127283259D01*
X122364359Y-127319042D01*
X122255644Y-127377152D01*
X122160354Y-127455354D01*
X122082152Y-127550644D01*
X122024042Y-127659359D01*
X121988259Y-127777322D01*
X121986222Y-127798000D01*
X121973778Y-127798000D01*
X121971741Y-127777322D01*
X121935958Y-127659359D01*
X121877848Y-127550644D01*
X121799646Y-127455354D01*
X121704356Y-127377152D01*
X121595641Y-127319042D01*
X121477678Y-127283259D01*
X121355001Y-127271176D01*
X120104999Y-127271176D01*
X119982322Y-127283259D01*
X119864359Y-127319042D01*
X119755644Y-127377152D01*
X119660354Y-127455354D01*
X119582152Y-127550644D01*
X119524042Y-127659359D01*
X119488259Y-127777322D01*
X119486222Y-127798000D01*
X119473778Y-127798000D01*
X119471741Y-127777322D01*
X119435958Y-127659359D01*
X119377848Y-127550644D01*
X119299646Y-127455354D01*
X119204356Y-127377152D01*
X119095641Y-127319042D01*
X118977678Y-127283259D01*
X118855001Y-127271176D01*
X117604999Y-127271176D01*
X117482322Y-127283259D01*
X117364359Y-127319042D01*
X117255644Y-127377152D01*
X117160354Y-127455354D01*
X117082152Y-127550644D01*
X117024042Y-127659359D01*
X116988259Y-127777322D01*
X116986222Y-127798000D01*
X116973778Y-127798000D01*
X116971741Y-127777322D01*
X116935958Y-127659359D01*
X116877848Y-127550644D01*
X116799646Y-127455354D01*
X116704356Y-127377152D01*
X116595641Y-127319042D01*
X116477678Y-127283259D01*
X116355001Y-127271176D01*
X115236639Y-127271176D01*
X114406916Y-126441454D01*
X114406916Y-126297860D01*
X114377057Y-126147745D01*
X114318485Y-126006340D01*
X114233452Y-125879079D01*
X114125225Y-125770852D01*
X113997964Y-125685819D01*
X113856559Y-125627247D01*
X113706444Y-125597388D01*
X113553388Y-125597388D01*
X113427000Y-125622528D01*
X113427000Y-125539151D01*
X113379847Y-125302097D01*
X113287353Y-125078798D01*
X113153073Y-124877833D01*
X112982167Y-124706927D01*
X112781202Y-124572647D01*
X112557903Y-124480153D01*
X112469579Y-124462584D01*
X112944250Y-124460000D01*
X113103000Y-124301250D01*
X113103000Y-123027000D01*
X111903750Y-123027000D01*
X111745000Y-123185750D01*
X111741928Y-123825000D01*
X111754188Y-123949482D01*
X111790498Y-124069180D01*
X111849463Y-124179494D01*
X111928815Y-124276185D01*
X112025506Y-124355537D01*
X112135820Y-124414502D01*
X112196800Y-124433000D01*
X112079151Y-124433000D01*
X111842097Y-124480153D01*
X111618798Y-124572647D01*
X111417833Y-124706927D01*
X111246927Y-124877833D01*
X111112647Y-125078798D01*
X111020153Y-125302097D01*
X110973000Y-125539151D01*
X110973000Y-125780849D01*
X111020153Y-126017903D01*
X111112647Y-126241202D01*
X111246927Y-126442167D01*
X111417833Y-126613073D01*
X111567553Y-126713112D01*
X111350000Y-126711928D01*
X111225518Y-126724188D01*
X111105820Y-126760498D01*
X110995506Y-126819463D01*
X110898815Y-126898815D01*
X110819463Y-126995506D01*
X110760498Y-127105820D01*
X110724188Y-127225518D01*
X110711928Y-127350000D01*
X110427000Y-127350000D01*
X110427000Y-121884574D01*
X110483006Y-121930537D01*
X110593320Y-121989502D01*
X110713018Y-122025812D01*
X110837500Y-122038072D01*
X111214250Y-122035000D01*
X111373000Y-121876250D01*
X111373000Y-120627000D01*
X111627000Y-120627000D01*
X111627000Y-121876250D01*
X111742006Y-121991256D01*
X111745000Y-122614250D01*
X111903750Y-122773000D01*
X113103000Y-122773000D01*
X113103000Y-121498750D01*
X112944250Y-121340000D01*
X112800268Y-121339216D01*
X112797500Y-120785750D01*
X112638750Y-120627000D01*
X111627000Y-120627000D01*
X111373000Y-120627000D01*
X111353000Y-120627000D01*
X111353000Y-120373000D01*
X111373000Y-120373000D01*
X111373000Y-119123750D01*
X111627000Y-119123750D01*
X111627000Y-120373000D01*
X112638750Y-120373000D01*
X112797500Y-120214250D01*
X112800572Y-119600000D01*
X112788312Y-119475518D01*
X112752002Y-119355820D01*
X112693037Y-119245506D01*
X112613685Y-119148815D01*
X112516994Y-119069463D01*
X112406680Y-119010498D01*
X112286982Y-118974188D01*
X112162500Y-118961928D01*
X111785750Y-118965000D01*
X111627000Y-119123750D01*
X111373000Y-119123750D01*
X111214250Y-118965000D01*
X110837500Y-118961928D01*
X110713018Y-118974188D01*
X110593320Y-119010498D01*
X110483006Y-119069463D01*
X110427000Y-119115426D01*
X110427000Y-116007289D01*
X110485399Y-116007216D01*
X110539081Y-116158747D01*
X110612528Y-116296157D01*
X110861603Y-116373792D01*
X111229108Y-116006287D01*
X111588767Y-116005838D01*
X111041208Y-116553397D01*
X111118843Y-116802472D01*
X111382883Y-116928371D01*
X111666411Y-117000339D01*
X111958531Y-117015611D01*
X111976052Y-117013068D01*
X112021633Y-117123111D01*
X112106666Y-117250372D01*
X112208202Y-117351908D01*
X112208202Y-117878878D01*
X112205775Y-117903521D01*
X112208202Y-117928164D01*
X112208202Y-117928173D01*
X112215466Y-118001929D01*
X112244171Y-118096556D01*
X112290785Y-118183766D01*
X112353518Y-118260205D01*
X112372669Y-118275922D01*
X113326225Y-119229479D01*
X113341938Y-119248625D01*
X113361084Y-119264338D01*
X113361086Y-119264340D01*
X113396052Y-119293036D01*
X113418377Y-119311358D01*
X113505586Y-119357972D01*
X113600213Y-119386677D01*
X113673969Y-119393941D01*
X113673979Y-119393941D01*
X113698622Y-119396368D01*
X113723265Y-119393941D01*
X113781759Y-119393941D01*
X113767853Y-119405353D01*
X113689651Y-119500643D01*
X113631542Y-119609358D01*
X113595759Y-119727320D01*
X113583676Y-119849997D01*
X113583676Y-121150003D01*
X113595759Y-121272680D01*
X113616014Y-121339454D01*
X113515750Y-121340000D01*
X113357000Y-121498750D01*
X113357000Y-122773000D01*
X113377000Y-122773000D01*
X113377000Y-123027000D01*
X113357000Y-123027000D01*
X113357000Y-124301250D01*
X113515750Y-124460000D01*
X114080000Y-124463072D01*
X114204482Y-124450812D01*
X114324180Y-124414502D01*
X114434494Y-124355537D01*
X114531185Y-124276185D01*
X114610537Y-124179494D01*
X114669502Y-124069180D01*
X114705812Y-123949482D01*
X114718072Y-123825000D01*
X114717352Y-123675216D01*
X114858184Y-123846817D01*
X115045018Y-124000149D01*
X115228000Y-124097954D01*
X115228000Y-124171176D01*
X115104999Y-124171176D01*
X114982322Y-124183259D01*
X114864359Y-124219042D01*
X114755644Y-124277152D01*
X114660354Y-124355354D01*
X114582152Y-124450644D01*
X114524042Y-124559359D01*
X114488259Y-124677322D01*
X114476176Y-124799999D01*
X114476176Y-125600001D01*
X114488259Y-125722678D01*
X114524042Y-125840641D01*
X114582152Y-125949356D01*
X114660354Y-126044646D01*
X114755644Y-126122848D01*
X114864359Y-126180958D01*
X114982322Y-126216741D01*
X115104999Y-126228824D01*
X116355001Y-126228824D01*
X116477678Y-126216741D01*
X116595641Y-126180958D01*
X116704356Y-126122848D01*
X116799646Y-126044646D01*
X116877848Y-125949356D01*
X116935958Y-125840641D01*
X116971741Y-125722678D01*
X116980000Y-125638826D01*
X116988259Y-125722678D01*
X117024042Y-125840641D01*
X117082152Y-125949356D01*
X117160354Y-126044646D01*
X117255644Y-126122848D01*
X117364359Y-126180958D01*
X117482322Y-126216741D01*
X117604999Y-126228824D01*
X118855001Y-126228824D01*
X118977678Y-126216741D01*
X119095641Y-126180958D01*
X119204356Y-126122848D01*
X119299646Y-126044646D01*
X119377848Y-125949356D01*
X119435958Y-125840641D01*
X119471741Y-125722678D01*
X119480000Y-125638826D01*
X119488259Y-125722678D01*
X119524042Y-125840641D01*
X119582152Y-125949356D01*
X119660354Y-126044646D01*
X119755644Y-126122848D01*
X119864359Y-126180958D01*
X119982322Y-126216741D01*
X120104999Y-126228824D01*
X121355001Y-126228824D01*
X121477678Y-126216741D01*
X121595641Y-126180958D01*
X121704356Y-126122848D01*
X121799646Y-126044646D01*
X121877848Y-125949356D01*
X121935958Y-125840641D01*
X121971741Y-125722678D01*
X121980000Y-125638826D01*
X121988259Y-125722678D01*
X122024042Y-125840641D01*
X122082152Y-125949356D01*
X122160354Y-126044646D01*
X122255644Y-126122848D01*
X122364359Y-126180958D01*
X122482322Y-126216741D01*
X122604999Y-126228824D01*
X123855001Y-126228824D01*
X123977678Y-126216741D01*
X124095641Y-126180958D01*
X124204356Y-126122848D01*
X124299646Y-126044646D01*
X124377848Y-125949356D01*
X124435958Y-125840641D01*
X124471741Y-125722678D01*
X124483824Y-125600001D01*
X124483824Y-124799999D01*
X124471741Y-124677322D01*
X124435958Y-124559359D01*
X124377848Y-124450644D01*
X124299646Y-124355354D01*
X124204356Y-124277152D01*
X124095641Y-124219042D01*
X123977678Y-124183259D01*
X123855001Y-124171176D01*
X123732000Y-124171176D01*
X123732000Y-124097955D01*
X123914983Y-124000149D01*
X124101817Y-123846817D01*
X124255149Y-123659982D01*
X124369084Y-123446823D01*
X124439245Y-123215533D01*
X124457000Y-123035267D01*
X124457000Y-122764732D01*
X124439245Y-122584466D01*
X124369084Y-122353176D01*
X124255149Y-122140017D01*
X124101817Y-121953183D01*
X123914982Y-121799851D01*
X123911789Y-121798145D01*
X123987532Y-121722402D01*
X124006684Y-121706684D01*
X124069417Y-121630245D01*
X124116031Y-121543036D01*
X124144736Y-121448409D01*
X124152000Y-121374653D01*
X124152000Y-121374643D01*
X124154427Y-121350000D01*
X124152000Y-121325357D01*
X124152000Y-121148573D01*
X124259359Y-121205958D01*
X124377322Y-121241741D01*
X124398001Y-121243778D01*
X124398001Y-122045347D01*
X124395573Y-122070000D01*
X124405265Y-122168409D01*
X124433970Y-122263036D01*
X124480584Y-122350245D01*
X124527601Y-122407535D01*
X124527604Y-122407538D01*
X124543317Y-122426684D01*
X124562463Y-122442397D01*
X124563528Y-122443462D01*
X124520755Y-122584467D01*
X124503000Y-122764733D01*
X124503000Y-123035268D01*
X124520755Y-123215534D01*
X124590916Y-123446824D01*
X124704851Y-123659983D01*
X124858184Y-123846817D01*
X125045018Y-124000149D01*
X125258177Y-124114084D01*
X125489467Y-124184245D01*
X125685440Y-124203547D01*
X125634359Y-124219042D01*
X125525644Y-124277152D01*
X125430354Y-124355354D01*
X125352152Y-124450644D01*
X125294042Y-124559359D01*
X125258259Y-124677322D01*
X125246176Y-124799999D01*
X125246176Y-125600001D01*
X125258259Y-125722678D01*
X125294042Y-125840641D01*
X125352152Y-125949356D01*
X125430354Y-126044646D01*
X125525644Y-126122848D01*
X125634359Y-126180958D01*
X125752322Y-126216741D01*
X125874999Y-126228824D01*
X127125001Y-126228824D01*
X127247678Y-126216741D01*
X127365641Y-126180958D01*
X127474356Y-126122848D01*
X127569646Y-126044646D01*
X127647848Y-125949356D01*
X127705958Y-125840641D01*
X127741741Y-125722678D01*
X127753824Y-125600001D01*
X127753824Y-124799999D01*
X127741741Y-124677322D01*
X127705958Y-124559359D01*
X127647848Y-124450644D01*
X127571850Y-124358040D01*
X127626643Y-124347141D01*
X127768048Y-124288569D01*
X127895309Y-124203536D01*
X128003536Y-124095309D01*
X128088569Y-123968048D01*
X128147141Y-123826643D01*
X128177000Y-123676528D01*
X128177000Y-123523472D01*
X128147141Y-123373357D01*
X128088569Y-123231952D01*
X128003536Y-123104691D01*
X127902000Y-123003155D01*
X127902000Y-122410581D01*
X127904427Y-122385938D01*
X127902000Y-122361295D01*
X127902000Y-122361285D01*
X127894736Y-122287529D01*
X127866031Y-122192902D01*
X127844000Y-122151684D01*
X127819417Y-122105692D01*
X127772400Y-122048402D01*
X127772392Y-122048394D01*
X127756684Y-122029254D01*
X127737543Y-122013545D01*
X126509031Y-120785035D01*
X126509031Y-116891836D01*
X126511458Y-116867193D01*
X126509031Y-116842550D01*
X126509031Y-116842540D01*
X126501767Y-116768784D01*
X126473062Y-116674157D01*
X126444494Y-116620709D01*
X126426448Y-116586947D01*
X126379431Y-116529657D01*
X126379423Y-116529649D01*
X126363715Y-116510509D01*
X126344574Y-116494800D01*
X125970402Y-116120630D01*
X125959485Y-116107327D01*
X125963579Y-116101200D01*
X126022151Y-115959795D01*
X126052010Y-115809680D01*
X126052010Y-115656624D01*
X126022151Y-115506509D01*
X125963579Y-115365104D01*
X125878546Y-115237843D01*
X125777010Y-115136307D01*
X125777010Y-114499655D01*
X125779437Y-114475010D01*
X125777010Y-114450364D01*
X125777010Y-114450357D01*
X125769746Y-114376601D01*
X125769746Y-114376600D01*
X125741041Y-114281973D01*
X125694427Y-114194764D01*
X125647410Y-114137474D01*
X125647402Y-114137466D01*
X125631694Y-114118326D01*
X125612553Y-114102617D01*
X125172401Y-113662467D01*
X125156684Y-113643316D01*
X125080245Y-113580583D01*
X124993036Y-113533969D01*
X124898409Y-113505264D01*
X124824653Y-113498000D01*
X124824643Y-113498000D01*
X124800000Y-113495573D01*
X124775357Y-113498000D01*
X121324643Y-113498000D01*
X121300000Y-113495573D01*
X121275357Y-113498000D01*
X121275347Y-113498000D01*
X121201591Y-113505264D01*
X121106964Y-113533969D01*
X121032129Y-113573969D01*
X121019755Y-113580583D01*
X120962465Y-113627600D01*
X120962464Y-113627601D01*
X120943316Y-113643316D01*
X120943276Y-113643365D01*
X120881684Y-113568316D01*
X120862532Y-113552598D01*
X120807402Y-113497468D01*
X120791684Y-113478316D01*
X120753523Y-113446998D01*
X126061693Y-108138830D01*
X126080833Y-108123122D01*
X126096541Y-108103982D01*
X126096549Y-108103974D01*
X126138083Y-108053364D01*
X126143566Y-108046683D01*
X126190180Y-107959474D01*
X126218885Y-107864847D01*
X126226149Y-107791091D01*
X126226149Y-107791081D01*
X126228576Y-107766438D01*
X126226149Y-107741795D01*
X126226149Y-107556199D01*
X126327685Y-107454663D01*
X126412718Y-107327402D01*
X126471290Y-107185997D01*
X126501149Y-107035882D01*
X126501149Y-106892288D01*
X127947538Y-105445900D01*
X127966684Y-105430187D01*
X127991459Y-105400000D01*
X128014912Y-105371422D01*
X128029417Y-105353748D01*
X128076031Y-105266539D01*
X128104736Y-105171912D01*
X128112000Y-105098156D01*
X128112000Y-105098147D01*
X128114427Y-105073504D01*
X128112000Y-105048861D01*
X128112000Y-103660758D01*
X128309622Y-103578901D01*
X128551533Y-103417261D01*
X128573000Y-103395794D01*
X128573000Y-107697216D01*
G37*
%TD.AperFunction*%
D30*
X119898000Y-119672250D02*
X119898000Y-119673000D01*
X120022000Y-119673000D01*
X120022000Y-119927000D01*
X119898000Y-119927000D01*
X119898000Y-119927750D01*
X119878750Y-119947000D01*
X119852000Y-119947000D01*
X119852000Y-119927000D01*
X119728000Y-119927000D01*
X119728000Y-119673000D01*
X119852000Y-119673000D01*
X119852000Y-119653000D01*
X119878750Y-119653000D01*
X119898000Y-119672250D01*
%TA.AperFunction,Conductor*%
D31*
G36*
X119898000Y-119672250D02*
G01*
X119898000Y-119673000D01*
X120022000Y-119673000D01*
X120022000Y-119927000D01*
X119898000Y-119927000D01*
X119898000Y-119927750D01*
X119878750Y-119947000D01*
X119852000Y-119947000D01*
X119852000Y-119927000D01*
X119728000Y-119927000D01*
X119728000Y-119673000D01*
X119852000Y-119673000D01*
X119852000Y-119653000D01*
X119878750Y-119653000D01*
X119898000Y-119672250D01*
G37*
%TD.AperFunction*%
D30*
X120548000Y-119672998D02*
X120502000Y-119672998D01*
X120502000Y-119672250D01*
X120521250Y-119653000D01*
X120548000Y-119653000D01*
X120548000Y-119672998D01*
%TA.AperFunction,Conductor*%
D31*
G36*
X120548000Y-119672998D02*
G01*
X120502000Y-119672998D01*
X120502000Y-119672250D01*
X120521250Y-119653000D01*
X120548000Y-119653000D01*
X120548000Y-119672998D01*
G37*
%TD.AperFunction*%
D30*
X120997000Y-117689110D02*
X120997000Y-117810890D01*
X120910890Y-117897000D01*
X120789110Y-117897000D01*
X120703000Y-117810890D01*
X120703000Y-117689110D01*
X120789110Y-117603000D01*
X120910890Y-117603000D01*
X120997000Y-117689110D01*
%TA.AperFunction,Conductor*%
D31*
G36*
X120997000Y-117689110D02*
G01*
X120997000Y-117810890D01*
X120910890Y-117897000D01*
X120789110Y-117897000D01*
X120703000Y-117810890D01*
X120703000Y-117689110D01*
X120789110Y-117603000D01*
X120910890Y-117603000D01*
X120997000Y-117689110D01*
G37*
%TD.AperFunction*%
D30*
X124462191Y-116672125D02*
X124446452Y-116687864D01*
X124361419Y-116815125D01*
X124316736Y-116923000D01*
X124001250Y-116923000D01*
X123876250Y-116798000D01*
X123027000Y-116798000D01*
X123027000Y-116896176D01*
X122773000Y-116896176D01*
X122773000Y-116798000D01*
X122753000Y-116798000D01*
X122753000Y-116752000D01*
X122773000Y-116752000D01*
X122773000Y-116628000D01*
X123027000Y-116628000D01*
X123027000Y-116752000D01*
X123876250Y-116752000D01*
X124035000Y-116593250D01*
X124023277Y-116488391D01*
X123984650Y-116369421D01*
X123923555Y-116260272D01*
X123842340Y-116165140D01*
X123744126Y-116087680D01*
X123632688Y-116030869D01*
X123556841Y-116009459D01*
X123567927Y-115972913D01*
X123580033Y-115850000D01*
X123580033Y-115789967D01*
X124462191Y-116672125D01*
%TA.AperFunction,Conductor*%
D31*
G36*
X124462191Y-116672125D02*
G01*
X124446452Y-116687864D01*
X124361419Y-116815125D01*
X124316736Y-116923000D01*
X124001250Y-116923000D01*
X123876250Y-116798000D01*
X123027000Y-116798000D01*
X123027000Y-116896176D01*
X122773000Y-116896176D01*
X122773000Y-116798000D01*
X122753000Y-116798000D01*
X122753000Y-116752000D01*
X122773000Y-116752000D01*
X122773000Y-116628000D01*
X123027000Y-116628000D01*
X123027000Y-116752000D01*
X123876250Y-116752000D01*
X124035000Y-116593250D01*
X124023277Y-116488391D01*
X123984650Y-116369421D01*
X123923555Y-116260272D01*
X123842340Y-116165140D01*
X123744126Y-116087680D01*
X123632688Y-116030869D01*
X123556841Y-116009459D01*
X123567927Y-115972913D01*
X123580033Y-115850000D01*
X123580033Y-115789967D01*
X124462191Y-116672125D01*
G37*
%TD.AperFunction*%
D30*
X116059692Y-115335087D02*
X116070000Y-115345395D01*
X116078460Y-115336935D01*
X116090000Y-115338072D01*
X116090952Y-115338062D01*
X116263748Y-115510858D01*
X116249605Y-115525000D01*
X116263748Y-115539143D01*
X116084143Y-115718748D01*
X116070000Y-115704605D01*
X116055858Y-115718748D01*
X115896210Y-115559100D01*
X115915812Y-115494482D01*
X115918345Y-115468765D01*
X116052711Y-115334399D01*
X116059692Y-115335087D01*
%TA.AperFunction,Conductor*%
D31*
G36*
X116059692Y-115335087D02*
G01*
X116070000Y-115345395D01*
X116078460Y-115336935D01*
X116090000Y-115338072D01*
X116090952Y-115338062D01*
X116263748Y-115510858D01*
X116249605Y-115525000D01*
X116263748Y-115539143D01*
X116084143Y-115718748D01*
X116070000Y-115704605D01*
X116055858Y-115718748D01*
X115896210Y-115559100D01*
X115915812Y-115494482D01*
X115918345Y-115468765D01*
X116052711Y-115334399D01*
X116059692Y-115335087D01*
G37*
%TD.AperFunction*%
D30*
X112672000Y-111073000D02*
X112692000Y-111073000D01*
X112692000Y-111327000D01*
X112672000Y-111327000D01*
X112672000Y-111347000D01*
X112418000Y-111347000D01*
X112418000Y-111327000D01*
X112398000Y-111327000D01*
X112398000Y-111073000D01*
X112418000Y-111073000D01*
X112418000Y-108263381D01*
X112523747Y-108225919D01*
X112661157Y-108152472D01*
X112672000Y-108117685D01*
X112672000Y-111073000D01*
%TA.AperFunction,Conductor*%
D31*
G36*
X112672000Y-111073000D02*
G01*
X112692000Y-111073000D01*
X112692000Y-111327000D01*
X112672000Y-111327000D01*
X112672000Y-111347000D01*
X112418000Y-111347000D01*
X112418000Y-111327000D01*
X112398000Y-111327000D01*
X112398000Y-111073000D01*
X112418000Y-111073000D01*
X112418000Y-108263381D01*
X112523747Y-108225919D01*
X112661157Y-108152472D01*
X112672000Y-108117685D01*
X112672000Y-111073000D01*
G37*
%TD.AperFunction*%
D30*
X117719755Y-107107401D02*
X117806964Y-107154015D01*
X117901591Y-107182720D01*
X117975347Y-107189984D01*
X117975356Y-107189984D01*
X117999999Y-107192411D01*
X118024642Y-107189984D01*
X118480050Y-107189984D01*
X118498001Y-107207935D01*
X118498000Y-108892065D01*
X118442065Y-108948000D01*
X117608824Y-108948000D01*
X117608824Y-108810570D01*
X117681185Y-108751185D01*
X117760537Y-108654494D01*
X117819502Y-108544180D01*
X117855812Y-108424482D01*
X117868072Y-108300000D01*
X117865000Y-108285750D01*
X117706250Y-108127000D01*
X117289132Y-108127000D01*
X117230000Y-108121176D01*
X116985690Y-108121176D01*
X117025808Y-108010413D01*
X116888395Y-107873000D01*
X117706250Y-107873000D01*
X117865000Y-107714250D01*
X117868072Y-107700000D01*
X117855812Y-107575518D01*
X117819502Y-107455820D01*
X117760537Y-107345506D01*
X117681185Y-107248815D01*
X117665605Y-107236029D01*
X117692384Y-107133892D01*
X117695190Y-107087240D01*
X117719755Y-107107401D01*
%TA.AperFunction,Conductor*%
D31*
G36*
X117719755Y-107107401D02*
G01*
X117806964Y-107154015D01*
X117901591Y-107182720D01*
X117975347Y-107189984D01*
X117975356Y-107189984D01*
X117999999Y-107192411D01*
X118024642Y-107189984D01*
X118480050Y-107189984D01*
X118498001Y-107207935D01*
X118498000Y-108892065D01*
X118442065Y-108948000D01*
X117608824Y-108948000D01*
X117608824Y-108810570D01*
X117681185Y-108751185D01*
X117760537Y-108654494D01*
X117819502Y-108544180D01*
X117855812Y-108424482D01*
X117868072Y-108300000D01*
X117865000Y-108285750D01*
X117706250Y-108127000D01*
X117289132Y-108127000D01*
X117230000Y-108121176D01*
X116985690Y-108121176D01*
X117025808Y-108010413D01*
X116888395Y-107873000D01*
X117706250Y-107873000D01*
X117865000Y-107714250D01*
X117868072Y-107700000D01*
X117855812Y-107575518D01*
X117819502Y-107455820D01*
X117760537Y-107345506D01*
X117681185Y-107248815D01*
X117665605Y-107236029D01*
X117692384Y-107133892D01*
X117695190Y-107087240D01*
X117719755Y-107107401D01*
G37*
%TD.AperFunction*%
D30*
X125197000Y-102143000D02*
X125217000Y-102143000D01*
X125217000Y-102397000D01*
X125197000Y-102397000D01*
X125197000Y-103508250D01*
X125355750Y-103667000D01*
X125546941Y-103668233D01*
X125504691Y-103696464D01*
X125396464Y-103804691D01*
X125311431Y-103931952D01*
X125252859Y-104073357D01*
X125223000Y-104223472D01*
X125223000Y-104376528D01*
X125252859Y-104526643D01*
X125311431Y-104668048D01*
X125396464Y-104795309D01*
X125504691Y-104903536D01*
X125631952Y-104988569D01*
X125773357Y-105047141D01*
X125923472Y-105077000D01*
X126076528Y-105077000D01*
X126226643Y-105047141D01*
X126368048Y-104988569D01*
X126495309Y-104903536D01*
X126603536Y-104795309D01*
X126688569Y-104668048D01*
X126747141Y-104526643D01*
X126777000Y-104376528D01*
X126777000Y-104232935D01*
X127108001Y-103901934D01*
X127108001Y-104865567D01*
X125791215Y-106182354D01*
X125647621Y-106182354D01*
X125497506Y-106212213D01*
X125356101Y-106270785D01*
X125228840Y-106355818D01*
X125120613Y-106464045D01*
X125035580Y-106591306D01*
X124977008Y-106732711D01*
X124947149Y-106882826D01*
X124947149Y-107035882D01*
X124977008Y-107185997D01*
X125035580Y-107327402D01*
X125120613Y-107454663D01*
X125222149Y-107556199D01*
X125222149Y-107558502D01*
X124630251Y-108150400D01*
X124630251Y-107749777D01*
X124731787Y-107648241D01*
X124816820Y-107520980D01*
X124875392Y-107379575D01*
X124905251Y-107229460D01*
X124905251Y-107076404D01*
X124875392Y-106926289D01*
X124816820Y-106784884D01*
X124731787Y-106657623D01*
X124623560Y-106549396D01*
X124496299Y-106464363D01*
X124354894Y-106405791D01*
X124204779Y-106375932D01*
X124051723Y-106375932D01*
X123901608Y-106405791D01*
X123881999Y-106413913D01*
X123881999Y-103503853D01*
X123953506Y-103562537D01*
X124063820Y-103621502D01*
X124183518Y-103657812D01*
X124308000Y-103670072D01*
X124784250Y-103667000D01*
X124943000Y-103508250D01*
X124943000Y-102397000D01*
X124923000Y-102397000D01*
X124923000Y-102143000D01*
X124943000Y-102143000D01*
X124943000Y-102123000D01*
X125197000Y-102123000D01*
X125197000Y-102143000D01*
%TA.AperFunction,Conductor*%
D31*
G36*
X125197000Y-102143000D02*
G01*
X125217000Y-102143000D01*
X125217000Y-102397000D01*
X125197000Y-102397000D01*
X125197000Y-103508250D01*
X125355750Y-103667000D01*
X125546941Y-103668233D01*
X125504691Y-103696464D01*
X125396464Y-103804691D01*
X125311431Y-103931952D01*
X125252859Y-104073357D01*
X125223000Y-104223472D01*
X125223000Y-104376528D01*
X125252859Y-104526643D01*
X125311431Y-104668048D01*
X125396464Y-104795309D01*
X125504691Y-104903536D01*
X125631952Y-104988569D01*
X125773357Y-105047141D01*
X125923472Y-105077000D01*
X126076528Y-105077000D01*
X126226643Y-105047141D01*
X126368048Y-104988569D01*
X126495309Y-104903536D01*
X126603536Y-104795309D01*
X126688569Y-104668048D01*
X126747141Y-104526643D01*
X126777000Y-104376528D01*
X126777000Y-104232935D01*
X127108001Y-103901934D01*
X127108001Y-104865567D01*
X125791215Y-106182354D01*
X125647621Y-106182354D01*
X125497506Y-106212213D01*
X125356101Y-106270785D01*
X125228840Y-106355818D01*
X125120613Y-106464045D01*
X125035580Y-106591306D01*
X124977008Y-106732711D01*
X124947149Y-106882826D01*
X124947149Y-107035882D01*
X124977008Y-107185997D01*
X125035580Y-107327402D01*
X125120613Y-107454663D01*
X125222149Y-107556199D01*
X125222149Y-107558502D01*
X124630251Y-108150400D01*
X124630251Y-107749777D01*
X124731787Y-107648241D01*
X124816820Y-107520980D01*
X124875392Y-107379575D01*
X124905251Y-107229460D01*
X124905251Y-107076404D01*
X124875392Y-106926289D01*
X124816820Y-106784884D01*
X124731787Y-106657623D01*
X124623560Y-106549396D01*
X124496299Y-106464363D01*
X124354894Y-106405791D01*
X124204779Y-106375932D01*
X124051723Y-106375932D01*
X123901608Y-106405791D01*
X123881999Y-106413913D01*
X123881999Y-103503853D01*
X123953506Y-103562537D01*
X124063820Y-103621502D01*
X124183518Y-103657812D01*
X124308000Y-103670072D01*
X124784250Y-103667000D01*
X124943000Y-103508250D01*
X124943000Y-102397000D01*
X124923000Y-102397000D01*
X124923000Y-102143000D01*
X124943000Y-102143000D01*
X124943000Y-102123000D01*
X125197000Y-102123000D01*
X125197000Y-102143000D01*
G37*
%TD.AperFunction*%
D30*
X116263748Y-106860858D02*
X116249605Y-106875000D01*
X116532998Y-107158393D01*
X116532998Y-107223748D01*
X116374250Y-107065000D01*
X116090000Y-107061928D01*
X116078460Y-107063065D01*
X116070000Y-107054605D01*
X116059692Y-107064913D01*
X116052711Y-107065601D01*
X115918345Y-106931235D01*
X115915812Y-106905518D01*
X115896210Y-106840900D01*
X116055858Y-106681253D01*
X116070000Y-106695395D01*
X116084143Y-106681253D01*
X116263748Y-106860858D01*
%TA.AperFunction,Conductor*%
D31*
G36*
X116263748Y-106860858D02*
G01*
X116249605Y-106875000D01*
X116532998Y-107158393D01*
X116532998Y-107223748D01*
X116374250Y-107065000D01*
X116090000Y-107061928D01*
X116078460Y-107063065D01*
X116070000Y-107054605D01*
X116059692Y-107064913D01*
X116052711Y-107065601D01*
X115918345Y-106931235D01*
X115915812Y-106905518D01*
X115896210Y-106840900D01*
X116055858Y-106681253D01*
X116070000Y-106695395D01*
X116084143Y-106681253D01*
X116263748Y-106860858D01*
G37*
%TD.AperFunction*%
D30*
X113219042Y-101434359D02*
X113183259Y-101552322D01*
X113171176Y-101674999D01*
X113171176Y-102925001D01*
X113183259Y-103047678D01*
X113219042Y-103165641D01*
X113277152Y-103274356D01*
X113355354Y-103369646D01*
X113450644Y-103447848D01*
X113559359Y-103505958D01*
X113622133Y-103525000D01*
X113559359Y-103544042D01*
X113450644Y-103602152D01*
X113355354Y-103680354D01*
X113277152Y-103775644D01*
X113219042Y-103884359D01*
X113183259Y-104002322D01*
X113171176Y-104124999D01*
X113171176Y-105375001D01*
X113183259Y-105497678D01*
X113219042Y-105615641D01*
X113277152Y-105724356D01*
X113355354Y-105819646D01*
X113450644Y-105897848D01*
X113559359Y-105955958D01*
X113677322Y-105991741D01*
X113799999Y-106003824D01*
X114600001Y-106003824D01*
X114722678Y-105991741D01*
X114794092Y-105970078D01*
X114670186Y-106014956D01*
X114529296Y-106304571D01*
X114506136Y-106392907D01*
X113295180Y-106394420D01*
X113240919Y-106241253D01*
X113167472Y-106103843D01*
X112918397Y-106026208D01*
X112404428Y-106540178D01*
X112259250Y-106395000D01*
X112190481Y-106394914D01*
X112738792Y-105846603D01*
X112661157Y-105597528D01*
X112397117Y-105471629D01*
X112387259Y-105469127D01*
X112385000Y-105035750D01*
X112226250Y-104877000D01*
X111227000Y-104877000D01*
X111227000Y-105539717D01*
X111118843Y-105597528D01*
X111041209Y-105846601D01*
X110973000Y-105778392D01*
X110973000Y-104877000D01*
X110953000Y-104877000D01*
X110953000Y-104623000D01*
X110973000Y-104623000D01*
X110973000Y-102427000D01*
X111227000Y-102427000D01*
X111227000Y-104623000D01*
X112226250Y-104623000D01*
X112385000Y-104464250D01*
X112388072Y-103875000D01*
X112375812Y-103750518D01*
X112339502Y-103630820D01*
X112282939Y-103525000D01*
X112339502Y-103419180D01*
X112375812Y-103299482D01*
X112388072Y-103175000D01*
X112385000Y-102585750D01*
X112226250Y-102427000D01*
X111227000Y-102427000D01*
X110973000Y-102427000D01*
X110953000Y-102427000D01*
X110953000Y-102173000D01*
X110973000Y-102173000D01*
X110973000Y-102153000D01*
X111227000Y-102153000D01*
X111227000Y-102173000D01*
X112226250Y-102173000D01*
X112385000Y-102014250D01*
X112388062Y-101427000D01*
X113222976Y-101427000D01*
X113219042Y-101434359D01*
%TA.AperFunction,Conductor*%
D31*
G36*
X113219042Y-101434359D02*
G01*
X113183259Y-101552322D01*
X113171176Y-101674999D01*
X113171176Y-102925001D01*
X113183259Y-103047678D01*
X113219042Y-103165641D01*
X113277152Y-103274356D01*
X113355354Y-103369646D01*
X113450644Y-103447848D01*
X113559359Y-103505958D01*
X113622133Y-103525000D01*
X113559359Y-103544042D01*
X113450644Y-103602152D01*
X113355354Y-103680354D01*
X113277152Y-103775644D01*
X113219042Y-103884359D01*
X113183259Y-104002322D01*
X113171176Y-104124999D01*
X113171176Y-105375001D01*
X113183259Y-105497678D01*
X113219042Y-105615641D01*
X113277152Y-105724356D01*
X113355354Y-105819646D01*
X113450644Y-105897848D01*
X113559359Y-105955958D01*
X113677322Y-105991741D01*
X113799999Y-106003824D01*
X114600001Y-106003824D01*
X114722678Y-105991741D01*
X114794092Y-105970078D01*
X114670186Y-106014956D01*
X114529296Y-106304571D01*
X114506136Y-106392907D01*
X113295180Y-106394420D01*
X113240919Y-106241253D01*
X113167472Y-106103843D01*
X112918397Y-106026208D01*
X112404428Y-106540178D01*
X112259250Y-106395000D01*
X112190481Y-106394914D01*
X112738792Y-105846603D01*
X112661157Y-105597528D01*
X112397117Y-105471629D01*
X112387259Y-105469127D01*
X112385000Y-105035750D01*
X112226250Y-104877000D01*
X111227000Y-104877000D01*
X111227000Y-105539717D01*
X111118843Y-105597528D01*
X111041209Y-105846601D01*
X110973000Y-105778392D01*
X110973000Y-104877000D01*
X110953000Y-104877000D01*
X110953000Y-104623000D01*
X110973000Y-104623000D01*
X110973000Y-102427000D01*
X111227000Y-102427000D01*
X111227000Y-104623000D01*
X112226250Y-104623000D01*
X112385000Y-104464250D01*
X112388072Y-103875000D01*
X112375812Y-103750518D01*
X112339502Y-103630820D01*
X112282939Y-103525000D01*
X112339502Y-103419180D01*
X112375812Y-103299482D01*
X112388072Y-103175000D01*
X112385000Y-102585750D01*
X112226250Y-102427000D01*
X111227000Y-102427000D01*
X110973000Y-102427000D01*
X110953000Y-102427000D01*
X110953000Y-102173000D01*
X110973000Y-102173000D01*
X110973000Y-102153000D01*
X111227000Y-102153000D01*
X111227000Y-102173000D01*
X112226250Y-102173000D01*
X112385000Y-102014250D01*
X112388062Y-101427000D01*
X113222976Y-101427000D01*
X113219042Y-101434359D01*
G37*
%TD.AperFunction*%
D30*
X118013000Y-102486524D02*
X118012999Y-102953357D01*
X118010572Y-102978001D01*
X118012999Y-103002644D01*
X118012999Y-103002653D01*
X118020263Y-103076409D01*
X118048968Y-103171036D01*
X118095582Y-103258246D01*
X118158315Y-103334685D01*
X118177466Y-103350402D01*
X118964601Y-104137538D01*
X118980314Y-104156684D01*
X119056753Y-104219417D01*
X119143962Y-104266031D01*
X119238589Y-104294736D01*
X119312345Y-104302000D01*
X119312354Y-104302000D01*
X119336997Y-104304427D01*
X119361640Y-104302000D01*
X121392066Y-104302000D01*
X121795070Y-104705005D01*
X121795070Y-105300366D01*
X121648595Y-105271231D01*
X121495539Y-105271231D01*
X121345424Y-105301090D01*
X121204019Y-105359662D01*
X121076758Y-105444695D01*
X120976492Y-105544961D01*
X120969428Y-105531746D01*
X120937564Y-105492920D01*
X120922410Y-105474455D01*
X120922408Y-105474453D01*
X120906695Y-105455307D01*
X120887549Y-105439594D01*
X119968385Y-104520431D01*
X119952668Y-104501280D01*
X119876229Y-104438547D01*
X119789020Y-104391933D01*
X119694393Y-104363228D01*
X119620637Y-104355964D01*
X119620627Y-104355964D01*
X119595984Y-104353537D01*
X119571341Y-104355964D01*
X118615726Y-104355964D01*
X118591083Y-104353537D01*
X118566440Y-104355964D01*
X118566430Y-104355964D01*
X118492674Y-104363228D01*
X118398047Y-104391933D01*
X118310838Y-104438547D01*
X118310836Y-104438548D01*
X118310837Y-104438548D01*
X118272812Y-104469755D01*
X118234399Y-104501280D01*
X118218686Y-104520426D01*
X117838501Y-104900612D01*
X117819350Y-104916329D01*
X117756617Y-104992768D01*
X117710003Y-105079978D01*
X117681298Y-105174605D01*
X117674745Y-105241142D01*
X117662911Y-105252977D01*
X117472402Y-105062468D01*
X117456684Y-105043316D01*
X117380245Y-104980583D01*
X117293036Y-104933969D01*
X117198409Y-104905264D01*
X117124653Y-104898000D01*
X117124643Y-104898000D01*
X117100000Y-104895573D01*
X117075357Y-104898000D01*
X115807936Y-104898000D01*
X115322401Y-104412467D01*
X115306684Y-104393316D01*
X115230245Y-104330583D01*
X115228824Y-104329823D01*
X115228824Y-104124999D01*
X115216741Y-104002322D01*
X115180958Y-103884359D01*
X115122848Y-103775644D01*
X115044646Y-103680354D01*
X114949356Y-103602152D01*
X114840641Y-103544042D01*
X114777867Y-103525000D01*
X114840641Y-103505958D01*
X114949356Y-103447848D01*
X115044646Y-103369646D01*
X115122848Y-103274356D01*
X115180958Y-103165641D01*
X115216741Y-103047678D01*
X115228824Y-102925001D01*
X115228824Y-102631110D01*
X115657935Y-102202000D01*
X117728476Y-102202000D01*
X118013000Y-102486524D01*
%TA.AperFunction,Conductor*%
D31*
G36*
X118013000Y-102486524D02*
G01*
X118012999Y-102953357D01*
X118010572Y-102978001D01*
X118012999Y-103002644D01*
X118012999Y-103002653D01*
X118020263Y-103076409D01*
X118048968Y-103171036D01*
X118095582Y-103258246D01*
X118158315Y-103334685D01*
X118177466Y-103350402D01*
X118964601Y-104137538D01*
X118980314Y-104156684D01*
X119056753Y-104219417D01*
X119143962Y-104266031D01*
X119238589Y-104294736D01*
X119312345Y-104302000D01*
X119312354Y-104302000D01*
X119336997Y-104304427D01*
X119361640Y-104302000D01*
X121392066Y-104302000D01*
X121795070Y-104705005D01*
X121795070Y-105300366D01*
X121648595Y-105271231D01*
X121495539Y-105271231D01*
X121345424Y-105301090D01*
X121204019Y-105359662D01*
X121076758Y-105444695D01*
X120976492Y-105544961D01*
X120969428Y-105531746D01*
X120937564Y-105492920D01*
X120922410Y-105474455D01*
X120922408Y-105474453D01*
X120906695Y-105455307D01*
X120887549Y-105439594D01*
X119968385Y-104520431D01*
X119952668Y-104501280D01*
X119876229Y-104438547D01*
X119789020Y-104391933D01*
X119694393Y-104363228D01*
X119620637Y-104355964D01*
X119620627Y-104355964D01*
X119595984Y-104353537D01*
X119571341Y-104355964D01*
X118615726Y-104355964D01*
X118591083Y-104353537D01*
X118566440Y-104355964D01*
X118566430Y-104355964D01*
X118492674Y-104363228D01*
X118398047Y-104391933D01*
X118310838Y-104438547D01*
X118310836Y-104438548D01*
X118310837Y-104438548D01*
X118272812Y-104469755D01*
X118234399Y-104501280D01*
X118218686Y-104520426D01*
X117838501Y-104900612D01*
X117819350Y-104916329D01*
X117756617Y-104992768D01*
X117710003Y-105079978D01*
X117681298Y-105174605D01*
X117674745Y-105241142D01*
X117662911Y-105252977D01*
X117472402Y-105062468D01*
X117456684Y-105043316D01*
X117380245Y-104980583D01*
X117293036Y-104933969D01*
X117198409Y-104905264D01*
X117124653Y-104898000D01*
X117124643Y-104898000D01*
X117100000Y-104895573D01*
X117075357Y-104898000D01*
X115807936Y-104898000D01*
X115322401Y-104412467D01*
X115306684Y-104393316D01*
X115230245Y-104330583D01*
X115228824Y-104329823D01*
X115228824Y-104124999D01*
X115216741Y-104002322D01*
X115180958Y-103884359D01*
X115122848Y-103775644D01*
X115044646Y-103680354D01*
X114949356Y-103602152D01*
X114840641Y-103544042D01*
X114777867Y-103525000D01*
X114840641Y-103505958D01*
X114949356Y-103447848D01*
X115044646Y-103369646D01*
X115122848Y-103274356D01*
X115180958Y-103165641D01*
X115216741Y-103047678D01*
X115228824Y-102925001D01*
X115228824Y-102631110D01*
X115657935Y-102202000D01*
X117728476Y-102202000D01*
X118013000Y-102486524D01*
G37*
%TD.AperFunction*%
%TD*%
M02*
