%TF.GenerationSoftware,KiCad,Pcbnew,(5.1.9-0-10_14)*%
%TF.CreationDate,2021-04-11T15:50:03+01:00*%
%TF.ProjectId,Generic,47656e65-7269-4632-9e6b-696361645f70,2*%
%TF.SameCoordinates,Original*%
%TF.FileFunction,Paste,Bot*%
%TF.FilePolarity,Positive*%
%FSLAX46Y46*%
G04 Gerber Fmt 4.6, Leading zero omitted, Abs format (unit mm)*
G04 Created by KiCad (PCBNEW (5.1.9-0-10_14)) date 2021-04-11 15:50:03*
%MOMM*%
%LPD*%
G01*
G04 APERTURE LIST*
%ADD10C,1.700000*%
%ADD11R,1.000000X0.300000*%
%ADD12R,0.300000X1.000000*%
%ADD13R,1.140000X0.600000*%
%ADD14R,1.140000X0.300000*%
G04 APERTURE END LIST*
%TO.C,C1*%
G36*
G01*
X116462500Y-118650002D02*
X116462500Y-117349998D01*
G75*
G02*
X116712498Y-117100000I249998J0D01*
G01*
X117537502Y-117100000D01*
G75*
G02*
X117787500Y-117349998I0J-249998D01*
G01*
X117787500Y-118650002D01*
G75*
G02*
X117537502Y-118900000I-249998J0D01*
G01*
X116712498Y-118900000D01*
G75*
G02*
X116462500Y-118650002I0J249998D01*
G01*
G37*
G36*
G01*
X113337500Y-118650002D02*
X113337500Y-117349998D01*
G75*
G02*
X113587498Y-117100000I249998J0D01*
G01*
X114412502Y-117100000D01*
G75*
G02*
X114662500Y-117349998I0J-249998D01*
G01*
X114662500Y-118650002D01*
G75*
G02*
X114412502Y-118900000I-249998J0D01*
G01*
X113587498Y-118900000D01*
G75*
G02*
X113337500Y-118650002I0J249998D01*
G01*
G37*
%TD*%
%TO.C,R6*%
G36*
G01*
X128050000Y-116874999D02*
X128050000Y-118125001D01*
G75*
G02*
X127800001Y-118375000I-249999J0D01*
G01*
X126999999Y-118375000D01*
G75*
G02*
X126750000Y-118125001I0J249999D01*
G01*
X126750000Y-116874999D01*
G75*
G02*
X126999999Y-116625000I249999J0D01*
G01*
X127800001Y-116625000D01*
G75*
G02*
X128050000Y-116874999I0J-249999D01*
G01*
G37*
G36*
G01*
X131150000Y-116874999D02*
X131150000Y-118125001D01*
G75*
G02*
X130900001Y-118375000I-249999J0D01*
G01*
X130099999Y-118375000D01*
G75*
G02*
X129850000Y-118125001I0J249999D01*
G01*
X129850000Y-116874999D01*
G75*
G02*
X130099999Y-116625000I249999J0D01*
G01*
X130900001Y-116625000D01*
G75*
G02*
X131150000Y-116874999I0J-249999D01*
G01*
G37*
%TD*%
D10*
%TO.C,M1*%
X122490000Y-99770000D03*
X130110000Y-99770000D03*
X125030000Y-99770000D03*
%TD*%
%TO.C,U2*%
G36*
G01*
X123037500Y-115150000D02*
X122612500Y-115150000D01*
G75*
G02*
X122400000Y-114937500I0J212500D01*
G01*
X122400000Y-114512500D01*
G75*
G02*
X122612500Y-114300000I212500J0D01*
G01*
X123037500Y-114300000D01*
G75*
G02*
X123250000Y-114512500I0J-212500D01*
G01*
X123250000Y-114937500D01*
G75*
G02*
X123037500Y-115150000I-212500J0D01*
G01*
G37*
G36*
G01*
X124087500Y-115150000D02*
X123662500Y-115150000D01*
G75*
G02*
X123450000Y-114937500I0J212500D01*
G01*
X123450000Y-114512500D01*
G75*
G02*
X123662500Y-114300000I212500J0D01*
G01*
X124087500Y-114300000D01*
G75*
G02*
X124300000Y-114512500I0J-212500D01*
G01*
X124300000Y-114937500D01*
G75*
G02*
X124087500Y-115150000I-212500J0D01*
G01*
G37*
G36*
G01*
X123037500Y-116200000D02*
X122612500Y-116200000D01*
G75*
G02*
X122400000Y-115987500I0J212500D01*
G01*
X122400000Y-115562500D01*
G75*
G02*
X122612500Y-115350000I212500J0D01*
G01*
X123037500Y-115350000D01*
G75*
G02*
X123250000Y-115562500I0J-212500D01*
G01*
X123250000Y-115987500D01*
G75*
G02*
X123037500Y-116200000I-212500J0D01*
G01*
G37*
G36*
G01*
X124087500Y-116200000D02*
X123662500Y-116200000D01*
G75*
G02*
X123450000Y-115987500I0J212500D01*
G01*
X123450000Y-115562500D01*
G75*
G02*
X123662500Y-115350000I212500J0D01*
G01*
X124087500Y-115350000D01*
G75*
G02*
X124300000Y-115562500I0J-212500D01*
G01*
X124300000Y-115987500D01*
G75*
G02*
X124087500Y-116200000I-212500J0D01*
G01*
G37*
D11*
X125400000Y-116225000D03*
X125400000Y-115575000D03*
X125400000Y-114925000D03*
X125400000Y-114275000D03*
D12*
X124325000Y-113200000D03*
X123675000Y-113200000D03*
X123025000Y-113200000D03*
X122375000Y-113200000D03*
D11*
X121300000Y-114275000D03*
X121300000Y-114925000D03*
X121300000Y-115575000D03*
X121300000Y-116225000D03*
D12*
X122375000Y-117300000D03*
X123025000Y-117300000D03*
X123675000Y-117300000D03*
X124325000Y-117300000D03*
%TD*%
%TO.C,R5*%
G36*
G01*
X129625001Y-123350000D02*
X128374999Y-123350000D01*
G75*
G02*
X128125000Y-123100001I0J249999D01*
G01*
X128125000Y-122299999D01*
G75*
G02*
X128374999Y-122050000I249999J0D01*
G01*
X129625001Y-122050000D01*
G75*
G02*
X129875000Y-122299999I0J-249999D01*
G01*
X129875000Y-123100001D01*
G75*
G02*
X129625001Y-123350000I-249999J0D01*
G01*
G37*
G36*
G01*
X129625001Y-126450000D02*
X128374999Y-126450000D01*
G75*
G02*
X128125000Y-126200001I0J249999D01*
G01*
X128125000Y-125399999D01*
G75*
G02*
X128374999Y-125150000I249999J0D01*
G01*
X129625001Y-125150000D01*
G75*
G02*
X129875000Y-125399999I0J-249999D01*
G01*
X129875000Y-126200001D01*
G75*
G02*
X129625001Y-126450000I-249999J0D01*
G01*
G37*
%TD*%
%TO.C,R4*%
G36*
G01*
X126355001Y-123350000D02*
X125104999Y-123350000D01*
G75*
G02*
X124855000Y-123100001I0J249999D01*
G01*
X124855000Y-122299999D01*
G75*
G02*
X125104999Y-122050000I249999J0D01*
G01*
X126355001Y-122050000D01*
G75*
G02*
X126605000Y-122299999I0J-249999D01*
G01*
X126605000Y-123100001D01*
G75*
G02*
X126355001Y-123350000I-249999J0D01*
G01*
G37*
G36*
G01*
X126355001Y-126450000D02*
X125104999Y-126450000D01*
G75*
G02*
X124855000Y-126200001I0J249999D01*
G01*
X124855000Y-125399999D01*
G75*
G02*
X125104999Y-125150000I249999J0D01*
G01*
X126355001Y-125150000D01*
G75*
G02*
X126605000Y-125399999I0J-249999D01*
G01*
X126605000Y-126200001D01*
G75*
G02*
X126355001Y-126450000I-249999J0D01*
G01*
G37*
%TD*%
%TO.C,R3*%
G36*
G01*
X123855001Y-123350000D02*
X122604999Y-123350000D01*
G75*
G02*
X122355000Y-123100001I0J249999D01*
G01*
X122355000Y-122299999D01*
G75*
G02*
X122604999Y-122050000I249999J0D01*
G01*
X123855001Y-122050000D01*
G75*
G02*
X124105000Y-122299999I0J-249999D01*
G01*
X124105000Y-123100001D01*
G75*
G02*
X123855001Y-123350000I-249999J0D01*
G01*
G37*
G36*
G01*
X123855001Y-126450000D02*
X122604999Y-126450000D01*
G75*
G02*
X122355000Y-126200001I0J249999D01*
G01*
X122355000Y-125399999D01*
G75*
G02*
X122604999Y-125150000I249999J0D01*
G01*
X123855001Y-125150000D01*
G75*
G02*
X124105000Y-125399999I0J-249999D01*
G01*
X124105000Y-126200001D01*
G75*
G02*
X123855001Y-126450000I-249999J0D01*
G01*
G37*
%TD*%
%TO.C,R2*%
G36*
G01*
X121355001Y-123350000D02*
X120104999Y-123350000D01*
G75*
G02*
X119855000Y-123100001I0J249999D01*
G01*
X119855000Y-122299999D01*
G75*
G02*
X120104999Y-122050000I249999J0D01*
G01*
X121355001Y-122050000D01*
G75*
G02*
X121605000Y-122299999I0J-249999D01*
G01*
X121605000Y-123100001D01*
G75*
G02*
X121355001Y-123350000I-249999J0D01*
G01*
G37*
G36*
G01*
X121355001Y-126450000D02*
X120104999Y-126450000D01*
G75*
G02*
X119855000Y-126200001I0J249999D01*
G01*
X119855000Y-125399999D01*
G75*
G02*
X120104999Y-125150000I249999J0D01*
G01*
X121355001Y-125150000D01*
G75*
G02*
X121605000Y-125399999I0J-249999D01*
G01*
X121605000Y-126200001D01*
G75*
G02*
X121355001Y-126450000I-249999J0D01*
G01*
G37*
%TD*%
%TO.C,R1*%
G36*
G01*
X118855001Y-123350000D02*
X117604999Y-123350000D01*
G75*
G02*
X117355000Y-123100001I0J249999D01*
G01*
X117355000Y-122299999D01*
G75*
G02*
X117604999Y-122050000I249999J0D01*
G01*
X118855001Y-122050000D01*
G75*
G02*
X119105000Y-122299999I0J-249999D01*
G01*
X119105000Y-123100001D01*
G75*
G02*
X118855001Y-123350000I-249999J0D01*
G01*
G37*
G36*
G01*
X118855001Y-126450000D02*
X117604999Y-126450000D01*
G75*
G02*
X117355000Y-126200001I0J249999D01*
G01*
X117355000Y-125399999D01*
G75*
G02*
X117604999Y-125150000I249999J0D01*
G01*
X118855001Y-125150000D01*
G75*
G02*
X119105000Y-125399999I0J-249999D01*
G01*
X119105000Y-126200001D01*
G75*
G02*
X118855001Y-126450000I-249999J0D01*
G01*
G37*
%TD*%
D13*
%TO.C,J2*%
X119160000Y-105500000D03*
X119160000Y-111100000D03*
X119160000Y-111900000D03*
X119160000Y-106300000D03*
D14*
X119160000Y-108450000D03*
X119160000Y-108950000D03*
X119160000Y-107950000D03*
X119160000Y-109450000D03*
X119160000Y-107450000D03*
X119160000Y-109950000D03*
X119160000Y-106950000D03*
X119160000Y-110450000D03*
D13*
X119160000Y-106300000D03*
X119160000Y-111100000D03*
X119160000Y-105500000D03*
X119160000Y-111900000D03*
%TD*%
%TO.C,R8*%
G36*
G01*
X116050000Y-102875001D02*
X116050000Y-101624999D01*
G75*
G02*
X116299999Y-101375000I249999J0D01*
G01*
X117100001Y-101375000D01*
G75*
G02*
X117350000Y-101624999I0J-249999D01*
G01*
X117350000Y-102875001D01*
G75*
G02*
X117100001Y-103125000I-249999J0D01*
G01*
X116299999Y-103125000D01*
G75*
G02*
X116050000Y-102875001I0J249999D01*
G01*
G37*
G36*
G01*
X112950000Y-102875001D02*
X112950000Y-101624999D01*
G75*
G02*
X113199999Y-101375000I249999J0D01*
G01*
X114000001Y-101375000D01*
G75*
G02*
X114250000Y-101624999I0J-249999D01*
G01*
X114250000Y-102875001D01*
G75*
G02*
X114000001Y-103125000I-249999J0D01*
G01*
X113199999Y-103125000D01*
G75*
G02*
X112950000Y-102875001I0J249999D01*
G01*
G37*
%TD*%
%TO.C,R7*%
G36*
G01*
X114250000Y-99174999D02*
X114250000Y-100425001D01*
G75*
G02*
X114000001Y-100675000I-249999J0D01*
G01*
X113199999Y-100675000D01*
G75*
G02*
X112950000Y-100425001I0J249999D01*
G01*
X112950000Y-99174999D01*
G75*
G02*
X113199999Y-98925000I249999J0D01*
G01*
X114000001Y-98925000D01*
G75*
G02*
X114250000Y-99174999I0J-249999D01*
G01*
G37*
G36*
G01*
X117350000Y-99174999D02*
X117350000Y-100425001D01*
G75*
G02*
X117100001Y-100675000I-249999J0D01*
G01*
X116299999Y-100675000D01*
G75*
G02*
X116050000Y-100425001I0J249999D01*
G01*
X116050000Y-99174999D01*
G75*
G02*
X116299999Y-98925000I249999J0D01*
G01*
X117100001Y-98925000D01*
G75*
G02*
X117350000Y-99174999I0J-249999D01*
G01*
G37*
%TD*%
M02*
