%TF.GenerationSoftware,KiCad,Pcbnew,(5.1.9-0-10_14)*%
%TF.CreationDate,2021-03-06T18:22:27+00:00*%
%TF.ProjectId,Generic,47656e65-7269-4632-9e6b-696361645f70,rev?*%
%TF.SameCoordinates,Original*%
%TF.FileFunction,Copper,L2,Bot*%
%TF.FilePolarity,Positive*%
%FSLAX46Y46*%
G04 Gerber Fmt 4.6, Leading zero omitted, Abs format (unit mm)*
G04 Created by KiCad (PCBNEW (5.1.9-0-10_14)) date 2021-03-06 18:22:27*
%MOMM*%
%LPD*%
G01*
G04 APERTURE LIST*
%TA.AperFunction,SMDPad,CuDef*%
%ADD10R,2.000000X1.500000*%
%TD*%
%TA.AperFunction,SMDPad,CuDef*%
%ADD11R,2.000000X3.800000*%
%TD*%
%TA.AperFunction,SMDPad,CuDef*%
%ADD12R,5.490000X8.340000*%
%TD*%
%TA.AperFunction,SMDPad,CuDef*%
%ADD13R,1.140000X0.600000*%
%TD*%
%TA.AperFunction,ComponentPad*%
%ADD14C,2.000000*%
%TD*%
%TA.AperFunction,SMDPad,CuDef*%
%ADD15R,1.140000X0.300000*%
%TD*%
%TA.AperFunction,ComponentPad*%
%ADD16C,0.600000*%
%TD*%
%TA.AperFunction,SMDPad,CuDef*%
%ADD17R,2.100000X2.100000*%
%TD*%
%TA.AperFunction,ComponentPad*%
%ADD18O,1.700000X1.850000*%
%TD*%
%TA.AperFunction,ViaPad*%
%ADD19C,0.800000*%
%TD*%
%TA.AperFunction,Conductor*%
%ADD20C,0.250000*%
%TD*%
%TA.AperFunction,Conductor*%
%ADD21C,0.254000*%
%TD*%
%TA.AperFunction,Conductor*%
%ADD22C,0.100000*%
%TD*%
G04 APERTURE END LIST*
D10*
%TO.P,U3,1*%
%TO.N,VBUS*%
X114600000Y-104300000D03*
%TO.P,U3,3*%
%TO.N,+3V3*%
X114600000Y-99700000D03*
%TO.P,U3,2*%
%TO.N,GND*%
X114600000Y-102000000D03*
D11*
X120900000Y-102000000D03*
%TD*%
%TO.P,R5,2*%
%TO.N,IO5*%
%TA.AperFunction,SMDPad,CuDef*%
G36*
G01*
X130125001Y-123350000D02*
X128874999Y-123350000D01*
G75*
G02*
X128625000Y-123100001I0J249999D01*
G01*
X128625000Y-122299999D01*
G75*
G02*
X128874999Y-122050000I249999J0D01*
G01*
X130125001Y-122050000D01*
G75*
G02*
X130375000Y-122299999I0J-249999D01*
G01*
X130375000Y-123100001D01*
G75*
G02*
X130125001Y-123350000I-249999J0D01*
G01*
G37*
%TD.AperFunction*%
%TO.P,R5,1*%
%TO.N,+3V3*%
%TA.AperFunction,SMDPad,CuDef*%
G36*
G01*
X130125001Y-126450000D02*
X128874999Y-126450000D01*
G75*
G02*
X128625000Y-126200001I0J249999D01*
G01*
X128625000Y-125399999D01*
G75*
G02*
X128874999Y-125150000I249999J0D01*
G01*
X130125001Y-125150000D01*
G75*
G02*
X130375000Y-125399999I0J-249999D01*
G01*
X130375000Y-126200001D01*
G75*
G02*
X130125001Y-126450000I-249999J0D01*
G01*
G37*
%TD.AperFunction*%
%TD*%
%TO.P,R4,2*%
%TO.N,IO4*%
%TA.AperFunction,SMDPad,CuDef*%
G36*
G01*
X127625001Y-123350000D02*
X126374999Y-123350000D01*
G75*
G02*
X126125000Y-123100001I0J249999D01*
G01*
X126125000Y-122299999D01*
G75*
G02*
X126374999Y-122050000I249999J0D01*
G01*
X127625001Y-122050000D01*
G75*
G02*
X127875000Y-122299999I0J-249999D01*
G01*
X127875000Y-123100001D01*
G75*
G02*
X127625001Y-123350000I-249999J0D01*
G01*
G37*
%TD.AperFunction*%
%TO.P,R4,1*%
%TO.N,+3V3*%
%TA.AperFunction,SMDPad,CuDef*%
G36*
G01*
X127625001Y-126450000D02*
X126374999Y-126450000D01*
G75*
G02*
X126125000Y-126200001I0J249999D01*
G01*
X126125000Y-125399999D01*
G75*
G02*
X126374999Y-125150000I249999J0D01*
G01*
X127625001Y-125150000D01*
G75*
G02*
X127875000Y-125399999I0J-249999D01*
G01*
X127875000Y-126200001D01*
G75*
G02*
X127625001Y-126450000I-249999J0D01*
G01*
G37*
%TD.AperFunction*%
%TD*%
%TO.P,R3,2*%
%TO.N,IO3*%
%TA.AperFunction,SMDPad,CuDef*%
G36*
G01*
X125125001Y-123350000D02*
X123874999Y-123350000D01*
G75*
G02*
X123625000Y-123100001I0J249999D01*
G01*
X123625000Y-122299999D01*
G75*
G02*
X123874999Y-122050000I249999J0D01*
G01*
X125125001Y-122050000D01*
G75*
G02*
X125375000Y-122299999I0J-249999D01*
G01*
X125375000Y-123100001D01*
G75*
G02*
X125125001Y-123350000I-249999J0D01*
G01*
G37*
%TD.AperFunction*%
%TO.P,R3,1*%
%TO.N,+3V3*%
%TA.AperFunction,SMDPad,CuDef*%
G36*
G01*
X125125001Y-126450000D02*
X123874999Y-126450000D01*
G75*
G02*
X123625000Y-126200001I0J249999D01*
G01*
X123625000Y-125399999D01*
G75*
G02*
X123874999Y-125150000I249999J0D01*
G01*
X125125001Y-125150000D01*
G75*
G02*
X125375000Y-125399999I0J-249999D01*
G01*
X125375000Y-126200001D01*
G75*
G02*
X125125001Y-126450000I-249999J0D01*
G01*
G37*
%TD.AperFunction*%
%TD*%
%TO.P,R2,2*%
%TO.N,IO2*%
%TA.AperFunction,SMDPad,CuDef*%
G36*
G01*
X122625001Y-123350000D02*
X121374999Y-123350000D01*
G75*
G02*
X121125000Y-123100001I0J249999D01*
G01*
X121125000Y-122299999D01*
G75*
G02*
X121374999Y-122050000I249999J0D01*
G01*
X122625001Y-122050000D01*
G75*
G02*
X122875000Y-122299999I0J-249999D01*
G01*
X122875000Y-123100001D01*
G75*
G02*
X122625001Y-123350000I-249999J0D01*
G01*
G37*
%TD.AperFunction*%
%TO.P,R2,1*%
%TO.N,+3V3*%
%TA.AperFunction,SMDPad,CuDef*%
G36*
G01*
X122625001Y-126450000D02*
X121374999Y-126450000D01*
G75*
G02*
X121125000Y-126200001I0J249999D01*
G01*
X121125000Y-125399999D01*
G75*
G02*
X121374999Y-125150000I249999J0D01*
G01*
X122625001Y-125150000D01*
G75*
G02*
X122875000Y-125399999I0J-249999D01*
G01*
X122875000Y-126200001D01*
G75*
G02*
X122625001Y-126450000I-249999J0D01*
G01*
G37*
%TD.AperFunction*%
%TD*%
%TO.P,R1,2*%
%TO.N,IO1*%
%TA.AperFunction,SMDPad,CuDef*%
G36*
G01*
X120125001Y-123350000D02*
X118874999Y-123350000D01*
G75*
G02*
X118625000Y-123100001I0J249999D01*
G01*
X118625000Y-122299999D01*
G75*
G02*
X118874999Y-122050000I249999J0D01*
G01*
X120125001Y-122050000D01*
G75*
G02*
X120375000Y-122299999I0J-249999D01*
G01*
X120375000Y-123100001D01*
G75*
G02*
X120125001Y-123350000I-249999J0D01*
G01*
G37*
%TD.AperFunction*%
%TO.P,R1,1*%
%TO.N,+3V3*%
%TA.AperFunction,SMDPad,CuDef*%
G36*
G01*
X120125001Y-126450000D02*
X118874999Y-126450000D01*
G75*
G02*
X118625000Y-126200001I0J249999D01*
G01*
X118625000Y-125399999D01*
G75*
G02*
X118874999Y-125150000I249999J0D01*
G01*
X120125001Y-125150000D01*
G75*
G02*
X120375000Y-125399999I0J-249999D01*
G01*
X120375000Y-126200001D01*
G75*
G02*
X120125001Y-126450000I-249999J0D01*
G01*
G37*
%TD.AperFunction*%
%TD*%
D12*
%TO.P,J2,S1*%
%TO.N,GND*%
X116100000Y-110700000D03*
D13*
%TO.P,J2,A12*%
X120215000Y-107500000D03*
%TO.P,J2,A4*%
%TO.N,VBUS*%
X120215000Y-113100000D03*
%TO.P,J2,B12*%
%TO.N,GND*%
X120215000Y-113900000D03*
%TO.P,J2,B4*%
%TO.N,VBUS*%
X120215000Y-108300000D03*
D14*
%TO.P,J2,S1*%
%TO.N,GND*%
X115445000Y-106375000D03*
X115445000Y-115025000D03*
X119625000Y-106375000D03*
X119625000Y-115025000D03*
D15*
%TO.P,J2,A7*%
%TO.N,D-*%
X120215000Y-110450000D03*
%TO.P,J2,A6*%
%TO.N,D+*%
X120215000Y-110950000D03*
%TO.P,J2,B6*%
X120215000Y-109950000D03*
%TO.P,J2,B7*%
%TO.N,D-*%
X120215000Y-111450000D03*
%TO.P,J2,A8*%
%TO.N,Net-(J2-PadA8)*%
X120215000Y-109450000D03*
%TO.P,J2,A5*%
%TO.N,Net-(J2-PadA5)*%
X120215000Y-111950000D03*
%TO.P,J2,B5*%
%TO.N,Net-(J2-PadB5)*%
X120215000Y-108950000D03*
%TO.P,J2,B8*%
%TO.N,Net-(J2-PadB8)*%
X120215000Y-112450000D03*
D13*
%TO.P,J2,A9*%
%TO.N,VBUS*%
X120215000Y-108300000D03*
%TO.P,J2,B9*%
X120215000Y-113100000D03*
%TO.P,J2,B1*%
%TO.N,GND*%
X120215000Y-107500000D03*
D16*
%TO.P,J2,S1*%
X119145000Y-107810000D03*
X119145000Y-113590000D03*
D13*
%TO.P,J2,A1*%
X120215000Y-113900000D03*
%TD*%
D17*
%TO.P,U2,17*%
%TO.N,GND*%
X128500000Y-108700000D03*
%TO.P,U2,16*%
%TO.N,EN*%
%TA.AperFunction,SMDPad,CuDef*%
G36*
G01*
X126200000Y-107575000D02*
X126900000Y-107575000D01*
G75*
G02*
X126975000Y-107650000I0J-75000D01*
G01*
X126975000Y-107800000D01*
G75*
G02*
X126900000Y-107875000I-75000J0D01*
G01*
X126200000Y-107875000D01*
G75*
G02*
X126125000Y-107800000I0J75000D01*
G01*
X126125000Y-107650000D01*
G75*
G02*
X126200000Y-107575000I75000J0D01*
G01*
G37*
%TD.AperFunction*%
%TO.P,U2,15*%
%TO.N,I*%
%TA.AperFunction,SMDPad,CuDef*%
G36*
G01*
X126200000Y-108225000D02*
X126900000Y-108225000D01*
G75*
G02*
X126975000Y-108300000I0J-75000D01*
G01*
X126975000Y-108450000D01*
G75*
G02*
X126900000Y-108525000I-75000J0D01*
G01*
X126200000Y-108525000D01*
G75*
G02*
X126125000Y-108450000I0J75000D01*
G01*
X126125000Y-108300000D01*
G75*
G02*
X126200000Y-108225000I75000J0D01*
G01*
G37*
%TD.AperFunction*%
%TO.P,U2,14*%
%TO.N,CBUS3*%
%TA.AperFunction,SMDPad,CuDef*%
G36*
G01*
X126200000Y-108875000D02*
X126900000Y-108875000D01*
G75*
G02*
X126975000Y-108950000I0J-75000D01*
G01*
X126975000Y-109100000D01*
G75*
G02*
X126900000Y-109175000I-75000J0D01*
G01*
X126200000Y-109175000D01*
G75*
G02*
X126125000Y-109100000I0J75000D01*
G01*
X126125000Y-108950000D01*
G75*
G02*
X126200000Y-108875000I75000J0D01*
G01*
G37*
%TD.AperFunction*%
%TO.P,U2,13*%
%TO.N,GND*%
%TA.AperFunction,SMDPad,CuDef*%
G36*
G01*
X126200000Y-109525000D02*
X126900000Y-109525000D01*
G75*
G02*
X126975000Y-109600000I0J-75000D01*
G01*
X126975000Y-109750000D01*
G75*
G02*
X126900000Y-109825000I-75000J0D01*
G01*
X126200000Y-109825000D01*
G75*
G02*
X126125000Y-109750000I0J75000D01*
G01*
X126125000Y-109600000D01*
G75*
G02*
X126200000Y-109525000I75000J0D01*
G01*
G37*
%TD.AperFunction*%
%TO.P,U2,12*%
%TO.N,CBUS0*%
%TA.AperFunction,SMDPad,CuDef*%
G36*
G01*
X127450000Y-110225000D02*
X127600000Y-110225000D01*
G75*
G02*
X127675000Y-110300000I0J-75000D01*
G01*
X127675000Y-111000000D01*
G75*
G02*
X127600000Y-111075000I-75000J0D01*
G01*
X127450000Y-111075000D01*
G75*
G02*
X127375000Y-111000000I0J75000D01*
G01*
X127375000Y-110300000D01*
G75*
G02*
X127450000Y-110225000I75000J0D01*
G01*
G37*
%TD.AperFunction*%
%TO.P,U2,11*%
%TO.N,CBUS1*%
%TA.AperFunction,SMDPad,CuDef*%
G36*
G01*
X128100000Y-110225000D02*
X128250000Y-110225000D01*
G75*
G02*
X128325000Y-110300000I0J-75000D01*
G01*
X128325000Y-111000000D01*
G75*
G02*
X128250000Y-111075000I-75000J0D01*
G01*
X128100000Y-111075000D01*
G75*
G02*
X128025000Y-111000000I0J75000D01*
G01*
X128025000Y-110300000D01*
G75*
G02*
X128100000Y-110225000I75000J0D01*
G01*
G37*
%TD.AperFunction*%
%TO.P,U2,10*%
%TO.N,VBUS*%
%TA.AperFunction,SMDPad,CuDef*%
G36*
G01*
X128750000Y-110225000D02*
X128900000Y-110225000D01*
G75*
G02*
X128975000Y-110300000I0J-75000D01*
G01*
X128975000Y-111000000D01*
G75*
G02*
X128900000Y-111075000I-75000J0D01*
G01*
X128750000Y-111075000D01*
G75*
G02*
X128675000Y-111000000I0J75000D01*
G01*
X128675000Y-110300000D01*
G75*
G02*
X128750000Y-110225000I75000J0D01*
G01*
G37*
%TD.AperFunction*%
%TO.P,U2,9*%
%TO.N,Net-(C3-Pad1)*%
%TA.AperFunction,SMDPad,CuDef*%
G36*
G01*
X129400000Y-110225000D02*
X129550000Y-110225000D01*
G75*
G02*
X129625000Y-110300000I0J-75000D01*
G01*
X129625000Y-111000000D01*
G75*
G02*
X129550000Y-111075000I-75000J0D01*
G01*
X129400000Y-111075000D01*
G75*
G02*
X129325000Y-111000000I0J75000D01*
G01*
X129325000Y-110300000D01*
G75*
G02*
X129400000Y-110225000I75000J0D01*
G01*
G37*
%TD.AperFunction*%
%TO.P,U2,8*%
%TA.AperFunction,SMDPad,CuDef*%
G36*
G01*
X130100000Y-109525000D02*
X130800000Y-109525000D01*
G75*
G02*
X130875000Y-109600000I0J-75000D01*
G01*
X130875000Y-109750000D01*
G75*
G02*
X130800000Y-109825000I-75000J0D01*
G01*
X130100000Y-109825000D01*
G75*
G02*
X130025000Y-109750000I0J75000D01*
G01*
X130025000Y-109600000D01*
G75*
G02*
X130100000Y-109525000I75000J0D01*
G01*
G37*
%TD.AperFunction*%
%TO.P,U2,7*%
%TO.N,Net-(R6-Pad1)*%
%TA.AperFunction,SMDPad,CuDef*%
G36*
G01*
X130100000Y-108875000D02*
X130800000Y-108875000D01*
G75*
G02*
X130875000Y-108950000I0J-75000D01*
G01*
X130875000Y-109100000D01*
G75*
G02*
X130800000Y-109175000I-75000J0D01*
G01*
X130100000Y-109175000D01*
G75*
G02*
X130025000Y-109100000I0J75000D01*
G01*
X130025000Y-108950000D01*
G75*
G02*
X130100000Y-108875000I75000J0D01*
G01*
G37*
%TD.AperFunction*%
%TO.P,U2,6*%
%TO.N,Net-(R7-Pad1)*%
%TA.AperFunction,SMDPad,CuDef*%
G36*
G01*
X130100000Y-108225000D02*
X130800000Y-108225000D01*
G75*
G02*
X130875000Y-108300000I0J-75000D01*
G01*
X130875000Y-108450000D01*
G75*
G02*
X130800000Y-108525000I-75000J0D01*
G01*
X130100000Y-108525000D01*
G75*
G02*
X130025000Y-108450000I0J75000D01*
G01*
X130025000Y-108300000D01*
G75*
G02*
X130100000Y-108225000I75000J0D01*
G01*
G37*
%TD.AperFunction*%
%TO.P,U2,5*%
%TO.N,CBUS2*%
%TA.AperFunction,SMDPad,CuDef*%
G36*
G01*
X130100000Y-107575000D02*
X130800000Y-107575000D01*
G75*
G02*
X130875000Y-107650000I0J-75000D01*
G01*
X130875000Y-107800000D01*
G75*
G02*
X130800000Y-107875000I-75000J0D01*
G01*
X130100000Y-107875000D01*
G75*
G02*
X130025000Y-107800000I0J75000D01*
G01*
X130025000Y-107650000D01*
G75*
G02*
X130100000Y-107575000I75000J0D01*
G01*
G37*
%TD.AperFunction*%
%TO.P,U2,4*%
%TO.N,Net-(U2-Pad4)*%
%TA.AperFunction,SMDPad,CuDef*%
G36*
G01*
X129400000Y-106325000D02*
X129550000Y-106325000D01*
G75*
G02*
X129625000Y-106400000I0J-75000D01*
G01*
X129625000Y-107100000D01*
G75*
G02*
X129550000Y-107175000I-75000J0D01*
G01*
X129400000Y-107175000D01*
G75*
G02*
X129325000Y-107100000I0J75000D01*
G01*
X129325000Y-106400000D01*
G75*
G02*
X129400000Y-106325000I75000J0D01*
G01*
G37*
%TD.AperFunction*%
%TO.P,U2,3*%
%TO.N,GND*%
%TA.AperFunction,SMDPad,CuDef*%
G36*
G01*
X128750000Y-106325000D02*
X128900000Y-106325000D01*
G75*
G02*
X128975000Y-106400000I0J-75000D01*
G01*
X128975000Y-107100000D01*
G75*
G02*
X128900000Y-107175000I-75000J0D01*
G01*
X128750000Y-107175000D01*
G75*
G02*
X128675000Y-107100000I0J75000D01*
G01*
X128675000Y-106400000D01*
G75*
G02*
X128750000Y-106325000I75000J0D01*
G01*
G37*
%TD.AperFunction*%
%TO.P,U2,2*%
%TO.N,O*%
%TA.AperFunction,SMDPad,CuDef*%
G36*
G01*
X128100000Y-106325000D02*
X128250000Y-106325000D01*
G75*
G02*
X128325000Y-106400000I0J-75000D01*
G01*
X128325000Y-107100000D01*
G75*
G02*
X128250000Y-107175000I-75000J0D01*
G01*
X128100000Y-107175000D01*
G75*
G02*
X128025000Y-107100000I0J75000D01*
G01*
X128025000Y-106400000D01*
G75*
G02*
X128100000Y-106325000I75000J0D01*
G01*
G37*
%TD.AperFunction*%
%TO.P,U2,1*%
%TO.N,Net-(C3-Pad1)*%
%TA.AperFunction,SMDPad,CuDef*%
G36*
G01*
X127450000Y-106325000D02*
X127600000Y-106325000D01*
G75*
G02*
X127675000Y-106400000I0J-75000D01*
G01*
X127675000Y-107100000D01*
G75*
G02*
X127600000Y-107175000I-75000J0D01*
G01*
X127450000Y-107175000D01*
G75*
G02*
X127375000Y-107100000I0J75000D01*
G01*
X127375000Y-106400000D01*
G75*
G02*
X127450000Y-106325000I75000J0D01*
G01*
G37*
%TD.AperFunction*%
%TD*%
%TO.P,R9,2*%
%TO.N,Net-(J2-PadB5)*%
%TA.AperFunction,SMDPad,CuDef*%
G36*
G01*
X125074999Y-101800000D02*
X126325001Y-101800000D01*
G75*
G02*
X126575000Y-102049999I0J-249999D01*
G01*
X126575000Y-102850001D01*
G75*
G02*
X126325001Y-103100000I-249999J0D01*
G01*
X125074999Y-103100000D01*
G75*
G02*
X124825000Y-102850001I0J249999D01*
G01*
X124825000Y-102049999D01*
G75*
G02*
X125074999Y-101800000I249999J0D01*
G01*
G37*
%TD.AperFunction*%
%TO.P,R9,1*%
%TO.N,GND*%
%TA.AperFunction,SMDPad,CuDef*%
G36*
G01*
X125074999Y-98700000D02*
X126325001Y-98700000D01*
G75*
G02*
X126575000Y-98949999I0J-249999D01*
G01*
X126575000Y-99750001D01*
G75*
G02*
X126325001Y-100000000I-249999J0D01*
G01*
X125074999Y-100000000D01*
G75*
G02*
X124825000Y-99750001I0J249999D01*
G01*
X124825000Y-98949999D01*
G75*
G02*
X125074999Y-98700000I249999J0D01*
G01*
G37*
%TD.AperFunction*%
%TD*%
%TO.P,R8,2*%
%TO.N,GND*%
%TA.AperFunction,SMDPad,CuDef*%
G36*
G01*
X122774999Y-116300000D02*
X124025001Y-116300000D01*
G75*
G02*
X124275000Y-116549999I0J-249999D01*
G01*
X124275000Y-117350001D01*
G75*
G02*
X124025001Y-117600000I-249999J0D01*
G01*
X122774999Y-117600000D01*
G75*
G02*
X122525000Y-117350001I0J249999D01*
G01*
X122525000Y-116549999D01*
G75*
G02*
X122774999Y-116300000I249999J0D01*
G01*
G37*
%TD.AperFunction*%
%TO.P,R8,1*%
%TO.N,Net-(J2-PadA5)*%
%TA.AperFunction,SMDPad,CuDef*%
G36*
G01*
X122774999Y-113200000D02*
X124025001Y-113200000D01*
G75*
G02*
X124275000Y-113449999I0J-249999D01*
G01*
X124275000Y-114250001D01*
G75*
G02*
X124025001Y-114500000I-249999J0D01*
G01*
X122774999Y-114500000D01*
G75*
G02*
X122525000Y-114250001I0J249999D01*
G01*
X122525000Y-113449999D01*
G75*
G02*
X122774999Y-113200000I249999J0D01*
G01*
G37*
%TD.AperFunction*%
%TD*%
%TO.P,R7,2*%
%TO.N,D+*%
%TA.AperFunction,SMDPad,CuDef*%
G36*
G01*
X128550000Y-98974999D02*
X128550000Y-100225001D01*
G75*
G02*
X128300001Y-100475000I-249999J0D01*
G01*
X127499999Y-100475000D01*
G75*
G02*
X127250000Y-100225001I0J249999D01*
G01*
X127250000Y-98974999D01*
G75*
G02*
X127499999Y-98725000I249999J0D01*
G01*
X128300001Y-98725000D01*
G75*
G02*
X128550000Y-98974999I0J-249999D01*
G01*
G37*
%TD.AperFunction*%
%TO.P,R7,1*%
%TO.N,Net-(R7-Pad1)*%
%TA.AperFunction,SMDPad,CuDef*%
G36*
G01*
X131650000Y-98974999D02*
X131650000Y-100225001D01*
G75*
G02*
X131400001Y-100475000I-249999J0D01*
G01*
X130599999Y-100475000D01*
G75*
G02*
X130350000Y-100225001I0J249999D01*
G01*
X130350000Y-98974999D01*
G75*
G02*
X130599999Y-98725000I249999J0D01*
G01*
X131400001Y-98725000D01*
G75*
G02*
X131650000Y-98974999I0J-249999D01*
G01*
G37*
%TD.AperFunction*%
%TD*%
%TO.P,R6,2*%
%TO.N,D-*%
%TA.AperFunction,SMDPad,CuDef*%
G36*
G01*
X126300000Y-116074999D02*
X126300000Y-117325001D01*
G75*
G02*
X126050001Y-117575000I-249999J0D01*
G01*
X125249999Y-117575000D01*
G75*
G02*
X125000000Y-117325001I0J249999D01*
G01*
X125000000Y-116074999D01*
G75*
G02*
X125249999Y-115825000I249999J0D01*
G01*
X126050001Y-115825000D01*
G75*
G02*
X126300000Y-116074999I0J-249999D01*
G01*
G37*
%TD.AperFunction*%
%TO.P,R6,1*%
%TO.N,Net-(R6-Pad1)*%
%TA.AperFunction,SMDPad,CuDef*%
G36*
G01*
X129400000Y-116074999D02*
X129400000Y-117325001D01*
G75*
G02*
X129150001Y-117575000I-249999J0D01*
G01*
X128349999Y-117575000D01*
G75*
G02*
X128100000Y-117325001I0J249999D01*
G01*
X128100000Y-116074999D01*
G75*
G02*
X128349999Y-115825000I249999J0D01*
G01*
X129150001Y-115825000D01*
G75*
G02*
X129400000Y-116074999I0J-249999D01*
G01*
G37*
%TD.AperFunction*%
%TD*%
D18*
%TO.P,J1,6*%
%TO.N,IO5*%
X129500000Y-120400000D03*
%TO.P,J1,5*%
%TO.N,IO4*%
X127000000Y-120400000D03*
%TO.P,J1,4*%
%TO.N,IO3*%
X124500000Y-120400000D03*
%TO.P,J1,3*%
%TO.N,IO2*%
X122000000Y-120400000D03*
%TO.P,J1,2*%
%TO.N,IO1*%
X119500000Y-120400000D03*
%TO.P,J1,1*%
%TO.N,GND*%
%TA.AperFunction,ComponentPad*%
G36*
G01*
X116150000Y-121075000D02*
X116150000Y-119725000D01*
G75*
G02*
X116400000Y-119475000I250000J0D01*
G01*
X117600000Y-119475000D01*
G75*
G02*
X117850000Y-119725000I0J-250000D01*
G01*
X117850000Y-121075000D01*
G75*
G02*
X117600000Y-121325000I-250000J0D01*
G01*
X116400000Y-121325000D01*
G75*
G02*
X116150000Y-121075000I0J250000D01*
G01*
G37*
%TD.AperFunction*%
%TD*%
%TO.P,C4,2*%
%TO.N,GND*%
%TA.AperFunction,SMDPad,CuDef*%
G36*
G01*
X122749997Y-101900000D02*
X124050003Y-101900000D01*
G75*
G02*
X124300000Y-102149997I0J-249997D01*
G01*
X124300000Y-102975003D01*
G75*
G02*
X124050003Y-103225000I-249997J0D01*
G01*
X122749997Y-103225000D01*
G75*
G02*
X122500000Y-102975003I0J249997D01*
G01*
X122500000Y-102149997D01*
G75*
G02*
X122749997Y-101900000I249997J0D01*
G01*
G37*
%TD.AperFunction*%
%TO.P,C4,1*%
%TO.N,VBUS*%
%TA.AperFunction,SMDPad,CuDef*%
G36*
G01*
X122749997Y-98775000D02*
X124050003Y-98775000D01*
G75*
G02*
X124300000Y-99024997I0J-249997D01*
G01*
X124300000Y-99850003D01*
G75*
G02*
X124050003Y-100100000I-249997J0D01*
G01*
X122749997Y-100100000D01*
G75*
G02*
X122500000Y-99850003I0J249997D01*
G01*
X122500000Y-99024997D01*
G75*
G02*
X122749997Y-98775000I249997J0D01*
G01*
G37*
%TD.AperFunction*%
%TD*%
%TO.P,C3,2*%
%TO.N,GND*%
%TA.AperFunction,SMDPad,CuDef*%
G36*
G01*
X128537500Y-103949997D02*
X128537500Y-105250003D01*
G75*
G02*
X128287503Y-105500000I-249997J0D01*
G01*
X127462497Y-105500000D01*
G75*
G02*
X127212500Y-105250003I0J249997D01*
G01*
X127212500Y-103949997D01*
G75*
G02*
X127462497Y-103700000I249997J0D01*
G01*
X128287503Y-103700000D01*
G75*
G02*
X128537500Y-103949997I0J-249997D01*
G01*
G37*
%TD.AperFunction*%
%TO.P,C3,1*%
%TO.N,Net-(C3-Pad1)*%
%TA.AperFunction,SMDPad,CuDef*%
G36*
G01*
X131662500Y-103949997D02*
X131662500Y-105250003D01*
G75*
G02*
X131412503Y-105500000I-249997J0D01*
G01*
X130587497Y-105500000D01*
G75*
G02*
X130337500Y-105250003I0J249997D01*
G01*
X130337500Y-103949997D01*
G75*
G02*
X130587497Y-103700000I249997J0D01*
G01*
X131412503Y-103700000D01*
G75*
G02*
X131662500Y-103949997I0J-249997D01*
G01*
G37*
%TD.AperFunction*%
%TD*%
%TO.P,C2,2*%
%TO.N,GND*%
%TA.AperFunction,SMDPad,CuDef*%
G36*
G01*
X128100000Y-114750003D02*
X128100000Y-113449997D01*
G75*
G02*
X128349997Y-113200000I249997J0D01*
G01*
X129175003Y-113200000D01*
G75*
G02*
X129425000Y-113449997I0J-249997D01*
G01*
X129425000Y-114750003D01*
G75*
G02*
X129175003Y-115000000I-249997J0D01*
G01*
X128349997Y-115000000D01*
G75*
G02*
X128100000Y-114750003I0J249997D01*
G01*
G37*
%TD.AperFunction*%
%TO.P,C2,1*%
%TO.N,D-*%
%TA.AperFunction,SMDPad,CuDef*%
G36*
G01*
X124975000Y-114750003D02*
X124975000Y-113449997D01*
G75*
G02*
X125224997Y-113200000I249997J0D01*
G01*
X126050003Y-113200000D01*
G75*
G02*
X126300000Y-113449997I0J-249997D01*
G01*
X126300000Y-114750003D01*
G75*
G02*
X126050003Y-115000000I-249997J0D01*
G01*
X125224997Y-115000000D01*
G75*
G02*
X124975000Y-114750003I0J249997D01*
G01*
G37*
%TD.AperFunction*%
%TD*%
%TO.P,C1,2*%
%TO.N,D+*%
%TA.AperFunction,SMDPad,CuDef*%
G36*
G01*
X128600000Y-101549997D02*
X128600000Y-102850003D01*
G75*
G02*
X128350003Y-103100000I-249997J0D01*
G01*
X127524997Y-103100000D01*
G75*
G02*
X127275000Y-102850003I0J249997D01*
G01*
X127275000Y-101549997D01*
G75*
G02*
X127524997Y-101300000I249997J0D01*
G01*
X128350003Y-101300000D01*
G75*
G02*
X128600000Y-101549997I0J-249997D01*
G01*
G37*
%TD.AperFunction*%
%TO.P,C1,1*%
%TO.N,GND*%
%TA.AperFunction,SMDPad,CuDef*%
G36*
G01*
X131725000Y-101549997D02*
X131725000Y-102850003D01*
G75*
G02*
X131475003Y-103100000I-249997J0D01*
G01*
X130649997Y-103100000D01*
G75*
G02*
X130400000Y-102850003I0J249997D01*
G01*
X130400000Y-101549997D01*
G75*
G02*
X130649997Y-101300000I249997J0D01*
G01*
X131475003Y-101300000D01*
G75*
G02*
X131725000Y-101549997I0J-249997D01*
G01*
G37*
%TD.AperFunction*%
%TD*%
D19*
%TO.N,D+*%
X125170002Y-106800000D03*
X121882322Y-110724990D03*
%TO.N,GND*%
X123400000Y-101000000D03*
X117500000Y-102900000D03*
X122900000Y-104100000D03*
X116200000Y-100200000D03*
X129400000Y-99800000D03*
%TO.N,+3V3*%
X115200000Y-118100000D03*
X116918236Y-99125678D03*
X118100023Y-100300008D03*
%TO.N,VBUS*%
X121156214Y-113128617D03*
X128630308Y-111669669D03*
%TO.N,IO3*%
X122098631Y-115704999D03*
%TO.N,IO2*%
X121073311Y-115705000D03*
%TO.N,O*%
X129750160Y-103750160D03*
%TO.N,I*%
X125995041Y-106134903D03*
%TO.N,EN*%
X126444261Y-104630420D03*
%TO.N,CBUS3*%
X126600000Y-115400000D03*
%TO.N,CBUS0*%
X130757503Y-112714502D03*
%TO.N,CBUS1*%
X129700000Y-112100000D03*
%TO.N,CBUS2*%
X130314316Y-106139037D03*
%TO.N,Net-(C3-Pad1)*%
X129915774Y-111106712D03*
X129969998Y-105200171D03*
X127445052Y-106186808D03*
%TD*%
D20*
%TO.N,D+*%
X127937500Y-99637500D02*
X127900000Y-99600000D01*
X127937500Y-102200000D02*
X127937500Y-99637500D01*
X125719259Y-105265741D02*
X125719259Y-104282418D01*
X127801677Y-102200000D02*
X127937500Y-102200000D01*
X125719259Y-104282418D02*
X127801677Y-102200000D01*
X125170002Y-106170002D02*
X124992500Y-105992500D01*
X124992500Y-105992500D02*
X125719259Y-105265741D01*
X125170002Y-106800000D02*
X125170002Y-106170002D01*
X121484488Y-109424987D02*
X121560013Y-109424987D01*
X121560013Y-109424987D02*
X124992500Y-105992500D01*
X120215000Y-109950000D02*
X120959475Y-109950000D01*
X120959475Y-109950000D02*
X121484488Y-109424987D01*
X120215000Y-110950000D02*
X121657312Y-110950000D01*
X121657312Y-110950000D02*
X121882322Y-110724990D01*
%TO.N,GND*%
X116100000Y-109900000D02*
X116100000Y-110700000D01*
X119625000Y-106375000D02*
X116100000Y-109900000D01*
X116100000Y-111500000D02*
X116100000Y-110700000D01*
X119625000Y-115025000D02*
X116100000Y-111500000D01*
X115445000Y-111355000D02*
X116100000Y-110700000D01*
X115445000Y-115025000D02*
X115445000Y-111355000D01*
X115445000Y-110045000D02*
X116100000Y-110700000D01*
X115445000Y-106375000D02*
X115445000Y-110045000D01*
X119145000Y-107810000D02*
X116255000Y-110700000D01*
X116255000Y-110700000D02*
X116100000Y-110700000D01*
X119145000Y-113590000D02*
X116255000Y-110700000D01*
X127525000Y-109675000D02*
X128500000Y-108700000D01*
X126550000Y-109675000D02*
X127525000Y-109675000D01*
X128825000Y-108375000D02*
X128500000Y-108700000D01*
X128825000Y-106750000D02*
X128825000Y-108375000D01*
X130275000Y-102200000D02*
X127875000Y-104600000D01*
X131062500Y-102200000D02*
X130275000Y-102200000D01*
X120215000Y-106965000D02*
X119625000Y-106375000D01*
X120215000Y-107500000D02*
X120215000Y-106965000D01*
X120215000Y-114435000D02*
X119625000Y-115025000D01*
X120215000Y-113900000D02*
X120215000Y-114435000D01*
X128762500Y-114100000D02*
X128700000Y-114100000D01*
%TO.N,D-*%
X125637500Y-116687500D02*
X125650000Y-116700000D01*
X125637500Y-114100000D02*
X125637500Y-116687500D01*
X123000000Y-110644206D02*
X123000000Y-110500000D01*
X120215000Y-111450000D02*
X122194206Y-111450000D01*
X123000000Y-110500000D02*
X125637500Y-113200000D01*
X122312498Y-109874998D02*
X123000000Y-110500000D01*
X125637500Y-113200000D02*
X125637500Y-114100000D01*
X121670888Y-109874998D02*
X122312498Y-109874998D01*
X120215000Y-110450000D02*
X121095886Y-110450000D01*
X121095886Y-110450000D02*
X121670888Y-109874998D01*
X122194206Y-111450000D02*
X123000000Y-110644206D01*
%TO.N,+3V3*%
X129500000Y-125800000D02*
X127000000Y-125800000D01*
X127000000Y-125800000D02*
X124500000Y-125800000D01*
X124500000Y-125800000D02*
X122000000Y-125800000D01*
X122000000Y-125800000D02*
X119500000Y-125800000D01*
X115200000Y-121500000D02*
X115200000Y-118100000D01*
X119500000Y-125800000D02*
X115200000Y-121500000D01*
X115174322Y-99125678D02*
X116918236Y-99125678D01*
X114600000Y-99700000D02*
X115174322Y-99125678D01*
X116918236Y-99125678D02*
X118092566Y-100300008D01*
X118092566Y-100300008D02*
X118100023Y-100300008D01*
%TO.N,VBUS*%
X114600000Y-104300000D02*
X114725001Y-104425001D01*
X114725001Y-104425001D02*
X117048001Y-104425001D01*
X119319999Y-112860001D02*
X119559998Y-113100000D01*
X119559998Y-113100000D02*
X120215000Y-113100000D01*
X119319999Y-108539999D02*
X119319999Y-112860001D01*
X119559998Y-108300000D02*
X119319999Y-108539999D01*
X120215000Y-108300000D02*
X119559998Y-108300000D01*
X121110001Y-105898999D02*
X119636003Y-104425001D01*
X121110001Y-108224999D02*
X121110001Y-105898999D01*
X121035000Y-108300000D02*
X121110001Y-108224999D01*
X120215000Y-108300000D02*
X121035000Y-108300000D01*
X120243617Y-113128617D02*
X120215000Y-113100000D01*
X121156214Y-113128617D02*
X120243617Y-113128617D01*
X117048001Y-104425001D02*
X117430955Y-104425001D01*
X128825000Y-110650000D02*
X128825000Y-111474977D01*
X128825000Y-111474977D02*
X128630308Y-111669669D01*
X118374999Y-104425001D02*
X117048001Y-104425001D01*
X119636003Y-104425001D02*
X118374999Y-104425001D01*
X120035502Y-99437500D02*
X118374999Y-101098003D01*
X123400000Y-99437500D02*
X120035502Y-99437500D01*
X118374999Y-101098003D02*
X118374999Y-104425001D01*
%TO.N,IO5*%
X129500000Y-122700000D02*
X129500000Y-120400000D01*
%TO.N,IO4*%
X127000000Y-122700000D02*
X127000000Y-120400000D01*
%TO.N,IO3*%
X124500000Y-122700000D02*
X124500000Y-120400000D01*
X122649991Y-119186401D02*
X122649991Y-118038182D01*
X124500000Y-120400000D02*
X123863590Y-120400000D01*
X123863590Y-120400000D02*
X122649991Y-119186401D01*
X122649991Y-118038182D02*
X122098631Y-117486822D01*
X122098631Y-117486822D02*
X122098631Y-115704999D01*
%TO.N,IO2*%
X122000000Y-122700000D02*
X122000000Y-120400000D01*
X122000000Y-118024601D02*
X122000000Y-120400000D01*
X121073311Y-115705000D02*
X121073311Y-117097912D01*
X121073311Y-117097912D02*
X122000000Y-118024601D01*
%TO.N,IO1*%
X119500000Y-122700000D02*
X119500000Y-120400000D01*
%TO.N,O*%
X128175000Y-106750000D02*
X128175000Y-106175690D01*
X129212661Y-105138029D02*
X129212661Y-104287659D01*
X129212661Y-104287659D02*
X129750160Y-103750160D01*
X128175000Y-106175690D02*
X129212661Y-105138029D01*
%TO.N,I*%
X125799990Y-107243014D02*
X125995041Y-107047963D01*
X126550000Y-108375000D02*
X126125000Y-108375000D01*
X125995041Y-107047963D02*
X125995041Y-106134903D01*
X126125000Y-108375000D02*
X125799990Y-108049990D01*
X125799990Y-108049990D02*
X125799990Y-107243014D01*
%TO.N,EN*%
X126720042Y-107554958D02*
X126720042Y-104906201D01*
X126550000Y-107725000D02*
X126720042Y-107554958D01*
X126720042Y-104906201D02*
X126444261Y-104630420D01*
%TO.N,CBUS3*%
X126125000Y-109025000D02*
X125799990Y-109350010D01*
X126550000Y-109025000D02*
X126125000Y-109025000D01*
X125799990Y-109350010D02*
X125799990Y-112386800D01*
X125799990Y-112386800D02*
X126649991Y-113236801D01*
X126649991Y-115350009D02*
X126600000Y-115400000D01*
X126649991Y-113236801D02*
X126649991Y-115350009D01*
%TO.N,CBUS0*%
X130597015Y-112874990D02*
X130757503Y-112714502D01*
X127525000Y-110650000D02*
X127374999Y-110800001D01*
X127374999Y-112076089D02*
X128173900Y-112874990D01*
X127374999Y-110800001D02*
X127374999Y-112076089D01*
X128173900Y-112874990D02*
X130597015Y-112874990D01*
%TO.N,CBUS1*%
X128360299Y-112424979D02*
X129375021Y-112424979D01*
X127874998Y-111939678D02*
X128360299Y-112424979D01*
X128175000Y-111075000D02*
X127874998Y-111375002D01*
X128175000Y-110650000D02*
X128175000Y-111075000D01*
X129375021Y-112424979D02*
X129700000Y-112100000D01*
X127874998Y-111375002D02*
X127874998Y-111939678D01*
%TO.N,CBUS2*%
X130450000Y-107725000D02*
X130450000Y-106274721D01*
X130450000Y-106274721D02*
X130314316Y-106139037D01*
%TO.N,Net-(J2-PadA5)*%
X122935000Y-113850000D02*
X123400000Y-113850000D01*
X121035000Y-111950000D02*
X122935000Y-113850000D01*
X120215000Y-111950000D02*
X121035000Y-111950000D01*
%TO.N,Net-(J2-PadB5)*%
X121035000Y-108950000D02*
X125269248Y-104715752D01*
X125269248Y-102880752D02*
X125700000Y-102450000D01*
X120215000Y-108950000D02*
X121035000Y-108950000D01*
X125269248Y-104715752D02*
X125269248Y-102880752D01*
%TO.N,Net-(R6-Pad1)*%
X131482505Y-114617495D02*
X129400000Y-116700000D01*
X130875000Y-109025000D02*
X131482505Y-109632505D01*
X130450000Y-109025000D02*
X130875000Y-109025000D01*
X131482505Y-109632505D02*
X131482505Y-114617495D01*
X129400000Y-116700000D02*
X128750000Y-116700000D01*
%TO.N,Net-(R7-Pad1)*%
X130875000Y-108375000D02*
X130450000Y-108375000D01*
X132050010Y-100650010D02*
X132050010Y-107199990D01*
X132050010Y-107199990D02*
X130875000Y-108375000D01*
X131000000Y-99600000D02*
X132050010Y-100650010D01*
%TO.N,Net-(C3-Pad1)*%
X129475000Y-110650000D02*
X130450000Y-109675000D01*
X129475000Y-110650000D02*
X129915774Y-111090774D01*
X129915774Y-111090774D02*
X129915774Y-111106712D01*
X130570169Y-104600000D02*
X129969998Y-105200171D01*
X131000000Y-104600000D02*
X130570169Y-104600000D01*
X127525000Y-106266756D02*
X127445052Y-106186808D01*
X127525000Y-106750000D02*
X127525000Y-106266756D01*
%TD*%
D21*
%TO.N,GND*%
X132373001Y-127073000D02*
X113727000Y-127073000D01*
X113727000Y-118023472D01*
X114423000Y-118023472D01*
X114423000Y-118176528D01*
X114452859Y-118326643D01*
X114511431Y-118468048D01*
X114596464Y-118595309D01*
X114698001Y-118696846D01*
X114698000Y-121475357D01*
X114695573Y-121500000D01*
X114698000Y-121524643D01*
X114698000Y-121524652D01*
X114705264Y-121598408D01*
X114733969Y-121693035D01*
X114780583Y-121780245D01*
X114843316Y-121856684D01*
X114862468Y-121872402D01*
X118260384Y-125270318D01*
X118258259Y-125277322D01*
X118246176Y-125399999D01*
X118246176Y-126200001D01*
X118258259Y-126322678D01*
X118294042Y-126440641D01*
X118352152Y-126549356D01*
X118430354Y-126644646D01*
X118525644Y-126722848D01*
X118634359Y-126780958D01*
X118752322Y-126816741D01*
X118874999Y-126828824D01*
X120125001Y-126828824D01*
X120247678Y-126816741D01*
X120365641Y-126780958D01*
X120474356Y-126722848D01*
X120569646Y-126644646D01*
X120647848Y-126549356D01*
X120705958Y-126440641D01*
X120741741Y-126322678D01*
X120743778Y-126302000D01*
X120756222Y-126302000D01*
X120758259Y-126322678D01*
X120794042Y-126440641D01*
X120852152Y-126549356D01*
X120930354Y-126644646D01*
X121025644Y-126722848D01*
X121134359Y-126780958D01*
X121252322Y-126816741D01*
X121374999Y-126828824D01*
X122625001Y-126828824D01*
X122747678Y-126816741D01*
X122865641Y-126780958D01*
X122974356Y-126722848D01*
X123069646Y-126644646D01*
X123147848Y-126549356D01*
X123205958Y-126440641D01*
X123241741Y-126322678D01*
X123243778Y-126302000D01*
X123256222Y-126302000D01*
X123258259Y-126322678D01*
X123294042Y-126440641D01*
X123352152Y-126549356D01*
X123430354Y-126644646D01*
X123525644Y-126722848D01*
X123634359Y-126780958D01*
X123752322Y-126816741D01*
X123874999Y-126828824D01*
X125125001Y-126828824D01*
X125247678Y-126816741D01*
X125365641Y-126780958D01*
X125474356Y-126722848D01*
X125569646Y-126644646D01*
X125647848Y-126549356D01*
X125705958Y-126440641D01*
X125741741Y-126322678D01*
X125743778Y-126302000D01*
X125756222Y-126302000D01*
X125758259Y-126322678D01*
X125794042Y-126440641D01*
X125852152Y-126549356D01*
X125930354Y-126644646D01*
X126025644Y-126722848D01*
X126134359Y-126780958D01*
X126252322Y-126816741D01*
X126374999Y-126828824D01*
X127625001Y-126828824D01*
X127747678Y-126816741D01*
X127865641Y-126780958D01*
X127974356Y-126722848D01*
X128069646Y-126644646D01*
X128147848Y-126549356D01*
X128205958Y-126440641D01*
X128241741Y-126322678D01*
X128243778Y-126302000D01*
X128256222Y-126302000D01*
X128258259Y-126322678D01*
X128294042Y-126440641D01*
X128352152Y-126549356D01*
X128430354Y-126644646D01*
X128525644Y-126722848D01*
X128634359Y-126780958D01*
X128752322Y-126816741D01*
X128874999Y-126828824D01*
X130125001Y-126828824D01*
X130247678Y-126816741D01*
X130365641Y-126780958D01*
X130474356Y-126722848D01*
X130569646Y-126644646D01*
X130647848Y-126549356D01*
X130705958Y-126440641D01*
X130741741Y-126322678D01*
X130753824Y-126200001D01*
X130753824Y-125399999D01*
X130741741Y-125277322D01*
X130705958Y-125159359D01*
X130647848Y-125050644D01*
X130569646Y-124955354D01*
X130474356Y-124877152D01*
X130365641Y-124819042D01*
X130247678Y-124783259D01*
X130125001Y-124771176D01*
X128874999Y-124771176D01*
X128752322Y-124783259D01*
X128634359Y-124819042D01*
X128525644Y-124877152D01*
X128430354Y-124955354D01*
X128352152Y-125050644D01*
X128294042Y-125159359D01*
X128258259Y-125277322D01*
X128256222Y-125298000D01*
X128243778Y-125298000D01*
X128241741Y-125277322D01*
X128205958Y-125159359D01*
X128147848Y-125050644D01*
X128069646Y-124955354D01*
X127974356Y-124877152D01*
X127865641Y-124819042D01*
X127747678Y-124783259D01*
X127625001Y-124771176D01*
X126374999Y-124771176D01*
X126252322Y-124783259D01*
X126134359Y-124819042D01*
X126025644Y-124877152D01*
X125930354Y-124955354D01*
X125852152Y-125050644D01*
X125794042Y-125159359D01*
X125758259Y-125277322D01*
X125756222Y-125298000D01*
X125743778Y-125298000D01*
X125741741Y-125277322D01*
X125705958Y-125159359D01*
X125647848Y-125050644D01*
X125569646Y-124955354D01*
X125474356Y-124877152D01*
X125365641Y-124819042D01*
X125247678Y-124783259D01*
X125125001Y-124771176D01*
X123874999Y-124771176D01*
X123752322Y-124783259D01*
X123634359Y-124819042D01*
X123525644Y-124877152D01*
X123430354Y-124955354D01*
X123352152Y-125050644D01*
X123294042Y-125159359D01*
X123258259Y-125277322D01*
X123256222Y-125298000D01*
X123243778Y-125298000D01*
X123241741Y-125277322D01*
X123205958Y-125159359D01*
X123147848Y-125050644D01*
X123069646Y-124955354D01*
X122974356Y-124877152D01*
X122865641Y-124819042D01*
X122747678Y-124783259D01*
X122625001Y-124771176D01*
X121374999Y-124771176D01*
X121252322Y-124783259D01*
X121134359Y-124819042D01*
X121025644Y-124877152D01*
X120930354Y-124955354D01*
X120852152Y-125050644D01*
X120794042Y-125159359D01*
X120758259Y-125277322D01*
X120756222Y-125298000D01*
X120743778Y-125298000D01*
X120741741Y-125277322D01*
X120705958Y-125159359D01*
X120647848Y-125050644D01*
X120569646Y-124955354D01*
X120474356Y-124877152D01*
X120365641Y-124819042D01*
X120247678Y-124783259D01*
X120125001Y-124771176D01*
X119181111Y-124771176D01*
X116371799Y-121961864D01*
X116714250Y-121960000D01*
X116873000Y-121801250D01*
X116873000Y-120527000D01*
X116853000Y-120527000D01*
X116853000Y-120273000D01*
X116873000Y-120273000D01*
X116873000Y-118998750D01*
X116714250Y-118840000D01*
X116150000Y-118836928D01*
X116025518Y-118849188D01*
X115905820Y-118885498D01*
X115795506Y-118944463D01*
X115702000Y-119021201D01*
X115702000Y-118696845D01*
X115803536Y-118595309D01*
X115888569Y-118468048D01*
X115947141Y-118326643D01*
X115977000Y-118176528D01*
X115977000Y-118023472D01*
X115947141Y-117873357D01*
X115888569Y-117731952D01*
X115803536Y-117604691D01*
X115695309Y-117496464D01*
X115568048Y-117411431D01*
X115426643Y-117352859D01*
X115276528Y-117323000D01*
X115123472Y-117323000D01*
X114973357Y-117352859D01*
X114831952Y-117411431D01*
X114704691Y-117496464D01*
X114596464Y-117604691D01*
X114511431Y-117731952D01*
X114452859Y-117873357D01*
X114423000Y-118023472D01*
X113727000Y-118023472D01*
X113727000Y-115507607D01*
X113881841Y-115507414D01*
X113952205Y-115711088D01*
X114045186Y-115885044D01*
X114309587Y-115980808D01*
X114784108Y-115506287D01*
X115143767Y-115505838D01*
X114489192Y-116160413D01*
X114584956Y-116424814D01*
X114874571Y-116565704D01*
X115186108Y-116647384D01*
X115507595Y-116666718D01*
X115826675Y-116622961D01*
X116131088Y-116517795D01*
X116305044Y-116424814D01*
X116400808Y-116160413D01*
X115745481Y-115505086D01*
X115814250Y-115505000D01*
X115959428Y-115359823D01*
X116580413Y-115980808D01*
X116844814Y-115885044D01*
X116985704Y-115595429D01*
X117009209Y-115505779D01*
X118061731Y-115507094D01*
X118132205Y-115711088D01*
X118225186Y-115885044D01*
X118489587Y-115980808D01*
X118976804Y-115493591D01*
X119089180Y-115459502D01*
X119199494Y-115400537D01*
X119296185Y-115321185D01*
X119375537Y-115224494D01*
X119434502Y-115114180D01*
X119470812Y-114994482D01*
X119473345Y-114968765D01*
X119607711Y-114834399D01*
X119614692Y-114835087D01*
X119625000Y-114845395D01*
X119633460Y-114836935D01*
X119645000Y-114838072D01*
X119929250Y-114835000D01*
X120087998Y-114676252D01*
X120087998Y-114741607D01*
X119804605Y-115025000D01*
X119818748Y-115039143D01*
X119639143Y-115218748D01*
X119625000Y-115204605D01*
X118669192Y-116160413D01*
X118764956Y-116424814D01*
X119054571Y-116565704D01*
X119366108Y-116647384D01*
X119687595Y-116666718D01*
X120006675Y-116622961D01*
X120311088Y-116517795D01*
X120485044Y-116424814D01*
X120540678Y-116271212D01*
X120571311Y-116301845D01*
X120571312Y-117073259D01*
X120568884Y-117097912D01*
X120578576Y-117196321D01*
X120607281Y-117290948D01*
X120653895Y-117378157D01*
X120700912Y-117435447D01*
X120700915Y-117435450D01*
X120716628Y-117454596D01*
X120735774Y-117470309D01*
X121498000Y-118232536D01*
X121498000Y-119202045D01*
X121315017Y-119299851D01*
X121128183Y-119453183D01*
X120974851Y-119640018D01*
X120860916Y-119853177D01*
X120790755Y-120084467D01*
X120773000Y-120264733D01*
X120773000Y-120535268D01*
X120790755Y-120715534D01*
X120860916Y-120946824D01*
X120974851Y-121159983D01*
X121128184Y-121346817D01*
X121315018Y-121500149D01*
X121498000Y-121597954D01*
X121498000Y-121671176D01*
X121374999Y-121671176D01*
X121252322Y-121683259D01*
X121134359Y-121719042D01*
X121025644Y-121777152D01*
X120930354Y-121855354D01*
X120852152Y-121950644D01*
X120794042Y-122059359D01*
X120758259Y-122177322D01*
X120750000Y-122261174D01*
X120741741Y-122177322D01*
X120705958Y-122059359D01*
X120647848Y-121950644D01*
X120569646Y-121855354D01*
X120474356Y-121777152D01*
X120365641Y-121719042D01*
X120247678Y-121683259D01*
X120125001Y-121671176D01*
X120002000Y-121671176D01*
X120002000Y-121597955D01*
X120184983Y-121500149D01*
X120371817Y-121346817D01*
X120525149Y-121159982D01*
X120639084Y-120946823D01*
X120709245Y-120715533D01*
X120727000Y-120535267D01*
X120727000Y-120264732D01*
X120709245Y-120084466D01*
X120639084Y-119853176D01*
X120525149Y-119640017D01*
X120371817Y-119453183D01*
X120184982Y-119299851D01*
X119971823Y-119185916D01*
X119740533Y-119115755D01*
X119500000Y-119092064D01*
X119259466Y-119115755D01*
X119028176Y-119185916D01*
X118815017Y-119299851D01*
X118628183Y-119453183D01*
X118487352Y-119624785D01*
X118488072Y-119475000D01*
X118475812Y-119350518D01*
X118439502Y-119230820D01*
X118380537Y-119120506D01*
X118301185Y-119023815D01*
X118204494Y-118944463D01*
X118094180Y-118885498D01*
X117974482Y-118849188D01*
X117850000Y-118836928D01*
X117285750Y-118840000D01*
X117127000Y-118998750D01*
X117127000Y-120273000D01*
X117147000Y-120273000D01*
X117147000Y-120527000D01*
X117127000Y-120527000D01*
X117127000Y-121801250D01*
X117285750Y-121960000D01*
X117850000Y-121963072D01*
X117974482Y-121950812D01*
X118094180Y-121914502D01*
X118204494Y-121855537D01*
X118301185Y-121776185D01*
X118380537Y-121679494D01*
X118439502Y-121569180D01*
X118475812Y-121449482D01*
X118488072Y-121325000D01*
X118487352Y-121175216D01*
X118628184Y-121346817D01*
X118815018Y-121500149D01*
X118998000Y-121597954D01*
X118998000Y-121671176D01*
X118874999Y-121671176D01*
X118752322Y-121683259D01*
X118634359Y-121719042D01*
X118525644Y-121777152D01*
X118430354Y-121855354D01*
X118352152Y-121950644D01*
X118294042Y-122059359D01*
X118258259Y-122177322D01*
X118246176Y-122299999D01*
X118246176Y-123100001D01*
X118258259Y-123222678D01*
X118294042Y-123340641D01*
X118352152Y-123449356D01*
X118430354Y-123544646D01*
X118525644Y-123622848D01*
X118634359Y-123680958D01*
X118752322Y-123716741D01*
X118874999Y-123728824D01*
X120125001Y-123728824D01*
X120247678Y-123716741D01*
X120365641Y-123680958D01*
X120474356Y-123622848D01*
X120569646Y-123544646D01*
X120647848Y-123449356D01*
X120705958Y-123340641D01*
X120741741Y-123222678D01*
X120750000Y-123138826D01*
X120758259Y-123222678D01*
X120794042Y-123340641D01*
X120852152Y-123449356D01*
X120930354Y-123544646D01*
X121025644Y-123622848D01*
X121134359Y-123680958D01*
X121252322Y-123716741D01*
X121374999Y-123728824D01*
X122625001Y-123728824D01*
X122747678Y-123716741D01*
X122865641Y-123680958D01*
X122974356Y-123622848D01*
X123069646Y-123544646D01*
X123147848Y-123449356D01*
X123205958Y-123340641D01*
X123241741Y-123222678D01*
X123250000Y-123138826D01*
X123258259Y-123222678D01*
X123294042Y-123340641D01*
X123352152Y-123449356D01*
X123430354Y-123544646D01*
X123525644Y-123622848D01*
X123634359Y-123680958D01*
X123752322Y-123716741D01*
X123874999Y-123728824D01*
X125125001Y-123728824D01*
X125247678Y-123716741D01*
X125365641Y-123680958D01*
X125474356Y-123622848D01*
X125569646Y-123544646D01*
X125647848Y-123449356D01*
X125705958Y-123340641D01*
X125741741Y-123222678D01*
X125750000Y-123138826D01*
X125758259Y-123222678D01*
X125794042Y-123340641D01*
X125852152Y-123449356D01*
X125930354Y-123544646D01*
X126025644Y-123622848D01*
X126134359Y-123680958D01*
X126252322Y-123716741D01*
X126374999Y-123728824D01*
X127625001Y-123728824D01*
X127747678Y-123716741D01*
X127865641Y-123680958D01*
X127974356Y-123622848D01*
X128069646Y-123544646D01*
X128147848Y-123449356D01*
X128205958Y-123340641D01*
X128241741Y-123222678D01*
X128250000Y-123138826D01*
X128258259Y-123222678D01*
X128294042Y-123340641D01*
X128352152Y-123449356D01*
X128430354Y-123544646D01*
X128525644Y-123622848D01*
X128634359Y-123680958D01*
X128752322Y-123716741D01*
X128874999Y-123728824D01*
X130125001Y-123728824D01*
X130247678Y-123716741D01*
X130365641Y-123680958D01*
X130474356Y-123622848D01*
X130569646Y-123544646D01*
X130647848Y-123449356D01*
X130705958Y-123340641D01*
X130741741Y-123222678D01*
X130753824Y-123100001D01*
X130753824Y-122299999D01*
X130741741Y-122177322D01*
X130705958Y-122059359D01*
X130647848Y-121950644D01*
X130569646Y-121855354D01*
X130474356Y-121777152D01*
X130365641Y-121719042D01*
X130247678Y-121683259D01*
X130125001Y-121671176D01*
X130002000Y-121671176D01*
X130002000Y-121597955D01*
X130184983Y-121500149D01*
X130371817Y-121346817D01*
X130525149Y-121159982D01*
X130639084Y-120946823D01*
X130709245Y-120715533D01*
X130727000Y-120535267D01*
X130727000Y-120264732D01*
X130709245Y-120084466D01*
X130639084Y-119853176D01*
X130525149Y-119640017D01*
X130371817Y-119453183D01*
X130184982Y-119299851D01*
X129971823Y-119185916D01*
X129740533Y-119115755D01*
X129500000Y-119092064D01*
X129259466Y-119115755D01*
X129028176Y-119185916D01*
X128815017Y-119299851D01*
X128628183Y-119453183D01*
X128474851Y-119640018D01*
X128360916Y-119853177D01*
X128290755Y-120084467D01*
X128273000Y-120264733D01*
X128273000Y-120535268D01*
X128290755Y-120715534D01*
X128360916Y-120946824D01*
X128474851Y-121159983D01*
X128628184Y-121346817D01*
X128815018Y-121500149D01*
X128998000Y-121597954D01*
X128998000Y-121671176D01*
X128874999Y-121671176D01*
X128752322Y-121683259D01*
X128634359Y-121719042D01*
X128525644Y-121777152D01*
X128430354Y-121855354D01*
X128352152Y-121950644D01*
X128294042Y-122059359D01*
X128258259Y-122177322D01*
X128250000Y-122261174D01*
X128241741Y-122177322D01*
X128205958Y-122059359D01*
X128147848Y-121950644D01*
X128069646Y-121855354D01*
X127974356Y-121777152D01*
X127865641Y-121719042D01*
X127747678Y-121683259D01*
X127625001Y-121671176D01*
X127502000Y-121671176D01*
X127502000Y-121597955D01*
X127684983Y-121500149D01*
X127871817Y-121346817D01*
X128025149Y-121159982D01*
X128139084Y-120946823D01*
X128209245Y-120715533D01*
X128227000Y-120535267D01*
X128227000Y-120264732D01*
X128209245Y-120084466D01*
X128139084Y-119853176D01*
X128025149Y-119640017D01*
X127871817Y-119453183D01*
X127684982Y-119299851D01*
X127471823Y-119185916D01*
X127240533Y-119115755D01*
X127000000Y-119092064D01*
X126759466Y-119115755D01*
X126528176Y-119185916D01*
X126315017Y-119299851D01*
X126128183Y-119453183D01*
X125974851Y-119640018D01*
X125860916Y-119853177D01*
X125790755Y-120084467D01*
X125773000Y-120264733D01*
X125773000Y-120535268D01*
X125790755Y-120715534D01*
X125860916Y-120946824D01*
X125974851Y-121159983D01*
X126128184Y-121346817D01*
X126315018Y-121500149D01*
X126498000Y-121597954D01*
X126498000Y-121671176D01*
X126374999Y-121671176D01*
X126252322Y-121683259D01*
X126134359Y-121719042D01*
X126025644Y-121777152D01*
X125930354Y-121855354D01*
X125852152Y-121950644D01*
X125794042Y-122059359D01*
X125758259Y-122177322D01*
X125750000Y-122261174D01*
X125741741Y-122177322D01*
X125705958Y-122059359D01*
X125647848Y-121950644D01*
X125569646Y-121855354D01*
X125474356Y-121777152D01*
X125365641Y-121719042D01*
X125247678Y-121683259D01*
X125125001Y-121671176D01*
X125002000Y-121671176D01*
X125002000Y-121597955D01*
X125184983Y-121500149D01*
X125371817Y-121346817D01*
X125525149Y-121159982D01*
X125639084Y-120946823D01*
X125709245Y-120715533D01*
X125727000Y-120535267D01*
X125727000Y-120264732D01*
X125709245Y-120084466D01*
X125639084Y-119853176D01*
X125525149Y-119640017D01*
X125371817Y-119453183D01*
X125184982Y-119299851D01*
X124971823Y-119185916D01*
X124740533Y-119115755D01*
X124500000Y-119092064D01*
X124259466Y-119115755D01*
X124028176Y-119185916D01*
X123815017Y-119299851D01*
X123628183Y-119453183D01*
X123627518Y-119453993D01*
X123151991Y-118978467D01*
X123151991Y-118197259D01*
X123273000Y-118076250D01*
X123273000Y-117077000D01*
X123253000Y-117077000D01*
X123253000Y-116823000D01*
X123273000Y-116823000D01*
X123273000Y-115823750D01*
X123114250Y-115665000D01*
X122875631Y-115663756D01*
X122875631Y-115628471D01*
X122845772Y-115478356D01*
X122787200Y-115336951D01*
X122702167Y-115209690D01*
X122593940Y-115101463D01*
X122466679Y-115016430D01*
X122325274Y-114957858D01*
X122175159Y-114927999D01*
X122022103Y-114927999D01*
X121871988Y-114957858D01*
X121730583Y-115016430D01*
X121603322Y-115101463D01*
X121585971Y-115118815D01*
X121568620Y-115101464D01*
X121441359Y-115016431D01*
X121299954Y-114957859D01*
X121265145Y-114950935D01*
X121225268Y-114660145D01*
X121236185Y-114651185D01*
X121315537Y-114554494D01*
X121374502Y-114444180D01*
X121410812Y-114324482D01*
X121423072Y-114200000D01*
X121420000Y-114185750D01*
X121261250Y-114027000D01*
X120443395Y-114027000D01*
X120580808Y-113889587D01*
X120540690Y-113778824D01*
X120730753Y-113778824D01*
X120788166Y-113817186D01*
X120929571Y-113875758D01*
X121079686Y-113905617D01*
X121232742Y-113905617D01*
X121382857Y-113875758D01*
X121524262Y-113817186D01*
X121651523Y-113732153D01*
X121759750Y-113623926D01*
X121844783Y-113496665D01*
X121852676Y-113477611D01*
X122146176Y-113771112D01*
X122146176Y-114250001D01*
X122158259Y-114372678D01*
X122194042Y-114490641D01*
X122252152Y-114599356D01*
X122330354Y-114694646D01*
X122425644Y-114772848D01*
X122534359Y-114830958D01*
X122652322Y-114866741D01*
X122774999Y-114878824D01*
X124025001Y-114878824D01*
X124147678Y-114866741D01*
X124265641Y-114830958D01*
X124374356Y-114772848D01*
X124469646Y-114694646D01*
X124547848Y-114599356D01*
X124596176Y-114508942D01*
X124596176Y-114750003D01*
X124608259Y-114872680D01*
X124644042Y-114990642D01*
X124702151Y-115099357D01*
X124780353Y-115194647D01*
X124875643Y-115272849D01*
X124984358Y-115330958D01*
X125102320Y-115366741D01*
X125135500Y-115370009D01*
X125135501Y-115457453D01*
X125127322Y-115458259D01*
X125009359Y-115494042D01*
X124900644Y-115552152D01*
X124805354Y-115630354D01*
X124727152Y-115725644D01*
X124681095Y-115811810D01*
X124629494Y-115769463D01*
X124519180Y-115710498D01*
X124399482Y-115674188D01*
X124275000Y-115661928D01*
X123685750Y-115665000D01*
X123527000Y-115823750D01*
X123527000Y-116823000D01*
X123547000Y-116823000D01*
X123547000Y-117077000D01*
X123527000Y-117077000D01*
X123527000Y-118076250D01*
X123685750Y-118235000D01*
X124275000Y-118238072D01*
X124399482Y-118225812D01*
X124519180Y-118189502D01*
X124629494Y-118130537D01*
X124726185Y-118051185D01*
X124805537Y-117954494D01*
X124864502Y-117844180D01*
X124870815Y-117823368D01*
X124900644Y-117847848D01*
X125009359Y-117905958D01*
X125127322Y-117941741D01*
X125249999Y-117953824D01*
X126050001Y-117953824D01*
X126172678Y-117941741D01*
X126290641Y-117905958D01*
X126399356Y-117847848D01*
X126494646Y-117769646D01*
X126572848Y-117674356D01*
X126630958Y-117565641D01*
X126666741Y-117447678D01*
X126678824Y-117325001D01*
X126678824Y-116176543D01*
X126826643Y-116147141D01*
X126968048Y-116088569D01*
X127095309Y-116003536D01*
X127203536Y-115895309D01*
X127288569Y-115768048D01*
X127347141Y-115626643D01*
X127377000Y-115476528D01*
X127377000Y-115323472D01*
X127347141Y-115173357D01*
X127288569Y-115031952D01*
X127203536Y-114904691D01*
X127151991Y-114853146D01*
X127151991Y-113261444D01*
X127154418Y-113236801D01*
X127151991Y-113212158D01*
X127151991Y-113212148D01*
X127144727Y-113138392D01*
X127116022Y-113043765D01*
X127069408Y-112956556D01*
X127035288Y-112914981D01*
X127022390Y-112899265D01*
X127022388Y-112899263D01*
X127006675Y-112880117D01*
X126987529Y-112864404D01*
X126301990Y-112178866D01*
X126301990Y-110422260D01*
X126423000Y-110301250D01*
X126423000Y-109698000D01*
X126403000Y-109698000D01*
X126403000Y-109652000D01*
X126423000Y-109652000D01*
X126423000Y-109553824D01*
X126677000Y-109553824D01*
X126677000Y-109652000D01*
X126697000Y-109652000D01*
X126697000Y-109698000D01*
X126677000Y-109698000D01*
X126677000Y-110301250D01*
X126835750Y-110460000D01*
X126961361Y-110462926D01*
X126996176Y-110460247D01*
X126996176Y-110470293D01*
X126955582Y-110519756D01*
X126908968Y-110606966D01*
X126880263Y-110701593D01*
X126872999Y-110775349D01*
X126872999Y-110775358D01*
X126870572Y-110800001D01*
X126872999Y-110824644D01*
X126873000Y-112051436D01*
X126870572Y-112076089D01*
X126880264Y-112174498D01*
X126908969Y-112269125D01*
X126955583Y-112356334D01*
X127002600Y-112413624D01*
X127002603Y-112413627D01*
X127018316Y-112432773D01*
X127037462Y-112448486D01*
X127522445Y-112933470D01*
X127510498Y-112955820D01*
X127474188Y-113075518D01*
X127461928Y-113200000D01*
X127465000Y-113814250D01*
X127623750Y-113973000D01*
X128635500Y-113973000D01*
X128635500Y-113953000D01*
X128889500Y-113953000D01*
X128889500Y-113973000D01*
X129901250Y-113973000D01*
X130060000Y-113814250D01*
X130062187Y-113376990D01*
X130350422Y-113376990D01*
X130389455Y-113403071D01*
X130530860Y-113461643D01*
X130680975Y-113491502D01*
X130834031Y-113491502D01*
X130980506Y-113462367D01*
X130980506Y-114409558D01*
X129669050Y-115721016D01*
X129594646Y-115630354D01*
X129578416Y-115617035D01*
X129669180Y-115589502D01*
X129779494Y-115530537D01*
X129876185Y-115451185D01*
X129955537Y-115354494D01*
X130014502Y-115244180D01*
X130050812Y-115124482D01*
X130063072Y-115000000D01*
X130060000Y-114385750D01*
X129901250Y-114227000D01*
X128889500Y-114227000D01*
X128889500Y-114247000D01*
X128635500Y-114247000D01*
X128635500Y-114227000D01*
X127623750Y-114227000D01*
X127465000Y-114385750D01*
X127461928Y-115000000D01*
X127474188Y-115124482D01*
X127510498Y-115244180D01*
X127569463Y-115354494D01*
X127648815Y-115451185D01*
X127745506Y-115530537D01*
X127855820Y-115589502D01*
X127928330Y-115611498D01*
X127905354Y-115630354D01*
X127827152Y-115725644D01*
X127769042Y-115834359D01*
X127733259Y-115952322D01*
X127721176Y-116074999D01*
X127721176Y-117325001D01*
X127733259Y-117447678D01*
X127769042Y-117565641D01*
X127827152Y-117674356D01*
X127905354Y-117769646D01*
X128000644Y-117847848D01*
X128109359Y-117905958D01*
X128227322Y-117941741D01*
X128349999Y-117953824D01*
X129150001Y-117953824D01*
X129272678Y-117941741D01*
X129390641Y-117905958D01*
X129499356Y-117847848D01*
X129594646Y-117769646D01*
X129672848Y-117674356D01*
X129730958Y-117565641D01*
X129766741Y-117447678D01*
X129778824Y-117325001D01*
X129778824Y-117031110D01*
X131820048Y-114989888D01*
X131839189Y-114974179D01*
X131854897Y-114955039D01*
X131854905Y-114955031D01*
X131901921Y-114897741D01*
X131909277Y-114883979D01*
X131948536Y-114810531D01*
X131977241Y-114715904D01*
X131984505Y-114642148D01*
X131984505Y-114642138D01*
X131986932Y-114617495D01*
X131984505Y-114592852D01*
X131984505Y-109657148D01*
X131986932Y-109632505D01*
X131984505Y-109607862D01*
X131984505Y-109607852D01*
X131977241Y-109534096D01*
X131948536Y-109439469D01*
X131901922Y-109352260D01*
X131879843Y-109325357D01*
X131854905Y-109294969D01*
X131854897Y-109294961D01*
X131839189Y-109275821D01*
X131820048Y-109260112D01*
X131259934Y-108700000D01*
X132373000Y-107586935D01*
X132373001Y-127073000D01*
%TA.AperFunction,Conductor*%
D22*
G36*
X132373001Y-127073000D02*
G01*
X113727000Y-127073000D01*
X113727000Y-118023472D01*
X114423000Y-118023472D01*
X114423000Y-118176528D01*
X114452859Y-118326643D01*
X114511431Y-118468048D01*
X114596464Y-118595309D01*
X114698001Y-118696846D01*
X114698000Y-121475357D01*
X114695573Y-121500000D01*
X114698000Y-121524643D01*
X114698000Y-121524652D01*
X114705264Y-121598408D01*
X114733969Y-121693035D01*
X114780583Y-121780245D01*
X114843316Y-121856684D01*
X114862468Y-121872402D01*
X118260384Y-125270318D01*
X118258259Y-125277322D01*
X118246176Y-125399999D01*
X118246176Y-126200001D01*
X118258259Y-126322678D01*
X118294042Y-126440641D01*
X118352152Y-126549356D01*
X118430354Y-126644646D01*
X118525644Y-126722848D01*
X118634359Y-126780958D01*
X118752322Y-126816741D01*
X118874999Y-126828824D01*
X120125001Y-126828824D01*
X120247678Y-126816741D01*
X120365641Y-126780958D01*
X120474356Y-126722848D01*
X120569646Y-126644646D01*
X120647848Y-126549356D01*
X120705958Y-126440641D01*
X120741741Y-126322678D01*
X120743778Y-126302000D01*
X120756222Y-126302000D01*
X120758259Y-126322678D01*
X120794042Y-126440641D01*
X120852152Y-126549356D01*
X120930354Y-126644646D01*
X121025644Y-126722848D01*
X121134359Y-126780958D01*
X121252322Y-126816741D01*
X121374999Y-126828824D01*
X122625001Y-126828824D01*
X122747678Y-126816741D01*
X122865641Y-126780958D01*
X122974356Y-126722848D01*
X123069646Y-126644646D01*
X123147848Y-126549356D01*
X123205958Y-126440641D01*
X123241741Y-126322678D01*
X123243778Y-126302000D01*
X123256222Y-126302000D01*
X123258259Y-126322678D01*
X123294042Y-126440641D01*
X123352152Y-126549356D01*
X123430354Y-126644646D01*
X123525644Y-126722848D01*
X123634359Y-126780958D01*
X123752322Y-126816741D01*
X123874999Y-126828824D01*
X125125001Y-126828824D01*
X125247678Y-126816741D01*
X125365641Y-126780958D01*
X125474356Y-126722848D01*
X125569646Y-126644646D01*
X125647848Y-126549356D01*
X125705958Y-126440641D01*
X125741741Y-126322678D01*
X125743778Y-126302000D01*
X125756222Y-126302000D01*
X125758259Y-126322678D01*
X125794042Y-126440641D01*
X125852152Y-126549356D01*
X125930354Y-126644646D01*
X126025644Y-126722848D01*
X126134359Y-126780958D01*
X126252322Y-126816741D01*
X126374999Y-126828824D01*
X127625001Y-126828824D01*
X127747678Y-126816741D01*
X127865641Y-126780958D01*
X127974356Y-126722848D01*
X128069646Y-126644646D01*
X128147848Y-126549356D01*
X128205958Y-126440641D01*
X128241741Y-126322678D01*
X128243778Y-126302000D01*
X128256222Y-126302000D01*
X128258259Y-126322678D01*
X128294042Y-126440641D01*
X128352152Y-126549356D01*
X128430354Y-126644646D01*
X128525644Y-126722848D01*
X128634359Y-126780958D01*
X128752322Y-126816741D01*
X128874999Y-126828824D01*
X130125001Y-126828824D01*
X130247678Y-126816741D01*
X130365641Y-126780958D01*
X130474356Y-126722848D01*
X130569646Y-126644646D01*
X130647848Y-126549356D01*
X130705958Y-126440641D01*
X130741741Y-126322678D01*
X130753824Y-126200001D01*
X130753824Y-125399999D01*
X130741741Y-125277322D01*
X130705958Y-125159359D01*
X130647848Y-125050644D01*
X130569646Y-124955354D01*
X130474356Y-124877152D01*
X130365641Y-124819042D01*
X130247678Y-124783259D01*
X130125001Y-124771176D01*
X128874999Y-124771176D01*
X128752322Y-124783259D01*
X128634359Y-124819042D01*
X128525644Y-124877152D01*
X128430354Y-124955354D01*
X128352152Y-125050644D01*
X128294042Y-125159359D01*
X128258259Y-125277322D01*
X128256222Y-125298000D01*
X128243778Y-125298000D01*
X128241741Y-125277322D01*
X128205958Y-125159359D01*
X128147848Y-125050644D01*
X128069646Y-124955354D01*
X127974356Y-124877152D01*
X127865641Y-124819042D01*
X127747678Y-124783259D01*
X127625001Y-124771176D01*
X126374999Y-124771176D01*
X126252322Y-124783259D01*
X126134359Y-124819042D01*
X126025644Y-124877152D01*
X125930354Y-124955354D01*
X125852152Y-125050644D01*
X125794042Y-125159359D01*
X125758259Y-125277322D01*
X125756222Y-125298000D01*
X125743778Y-125298000D01*
X125741741Y-125277322D01*
X125705958Y-125159359D01*
X125647848Y-125050644D01*
X125569646Y-124955354D01*
X125474356Y-124877152D01*
X125365641Y-124819042D01*
X125247678Y-124783259D01*
X125125001Y-124771176D01*
X123874999Y-124771176D01*
X123752322Y-124783259D01*
X123634359Y-124819042D01*
X123525644Y-124877152D01*
X123430354Y-124955354D01*
X123352152Y-125050644D01*
X123294042Y-125159359D01*
X123258259Y-125277322D01*
X123256222Y-125298000D01*
X123243778Y-125298000D01*
X123241741Y-125277322D01*
X123205958Y-125159359D01*
X123147848Y-125050644D01*
X123069646Y-124955354D01*
X122974356Y-124877152D01*
X122865641Y-124819042D01*
X122747678Y-124783259D01*
X122625001Y-124771176D01*
X121374999Y-124771176D01*
X121252322Y-124783259D01*
X121134359Y-124819042D01*
X121025644Y-124877152D01*
X120930354Y-124955354D01*
X120852152Y-125050644D01*
X120794042Y-125159359D01*
X120758259Y-125277322D01*
X120756222Y-125298000D01*
X120743778Y-125298000D01*
X120741741Y-125277322D01*
X120705958Y-125159359D01*
X120647848Y-125050644D01*
X120569646Y-124955354D01*
X120474356Y-124877152D01*
X120365641Y-124819042D01*
X120247678Y-124783259D01*
X120125001Y-124771176D01*
X119181111Y-124771176D01*
X116371799Y-121961864D01*
X116714250Y-121960000D01*
X116873000Y-121801250D01*
X116873000Y-120527000D01*
X116853000Y-120527000D01*
X116853000Y-120273000D01*
X116873000Y-120273000D01*
X116873000Y-118998750D01*
X116714250Y-118840000D01*
X116150000Y-118836928D01*
X116025518Y-118849188D01*
X115905820Y-118885498D01*
X115795506Y-118944463D01*
X115702000Y-119021201D01*
X115702000Y-118696845D01*
X115803536Y-118595309D01*
X115888569Y-118468048D01*
X115947141Y-118326643D01*
X115977000Y-118176528D01*
X115977000Y-118023472D01*
X115947141Y-117873357D01*
X115888569Y-117731952D01*
X115803536Y-117604691D01*
X115695309Y-117496464D01*
X115568048Y-117411431D01*
X115426643Y-117352859D01*
X115276528Y-117323000D01*
X115123472Y-117323000D01*
X114973357Y-117352859D01*
X114831952Y-117411431D01*
X114704691Y-117496464D01*
X114596464Y-117604691D01*
X114511431Y-117731952D01*
X114452859Y-117873357D01*
X114423000Y-118023472D01*
X113727000Y-118023472D01*
X113727000Y-115507607D01*
X113881841Y-115507414D01*
X113952205Y-115711088D01*
X114045186Y-115885044D01*
X114309587Y-115980808D01*
X114784108Y-115506287D01*
X115143767Y-115505838D01*
X114489192Y-116160413D01*
X114584956Y-116424814D01*
X114874571Y-116565704D01*
X115186108Y-116647384D01*
X115507595Y-116666718D01*
X115826675Y-116622961D01*
X116131088Y-116517795D01*
X116305044Y-116424814D01*
X116400808Y-116160413D01*
X115745481Y-115505086D01*
X115814250Y-115505000D01*
X115959428Y-115359823D01*
X116580413Y-115980808D01*
X116844814Y-115885044D01*
X116985704Y-115595429D01*
X117009209Y-115505779D01*
X118061731Y-115507094D01*
X118132205Y-115711088D01*
X118225186Y-115885044D01*
X118489587Y-115980808D01*
X118976804Y-115493591D01*
X119089180Y-115459502D01*
X119199494Y-115400537D01*
X119296185Y-115321185D01*
X119375537Y-115224494D01*
X119434502Y-115114180D01*
X119470812Y-114994482D01*
X119473345Y-114968765D01*
X119607711Y-114834399D01*
X119614692Y-114835087D01*
X119625000Y-114845395D01*
X119633460Y-114836935D01*
X119645000Y-114838072D01*
X119929250Y-114835000D01*
X120087998Y-114676252D01*
X120087998Y-114741607D01*
X119804605Y-115025000D01*
X119818748Y-115039143D01*
X119639143Y-115218748D01*
X119625000Y-115204605D01*
X118669192Y-116160413D01*
X118764956Y-116424814D01*
X119054571Y-116565704D01*
X119366108Y-116647384D01*
X119687595Y-116666718D01*
X120006675Y-116622961D01*
X120311088Y-116517795D01*
X120485044Y-116424814D01*
X120540678Y-116271212D01*
X120571311Y-116301845D01*
X120571312Y-117073259D01*
X120568884Y-117097912D01*
X120578576Y-117196321D01*
X120607281Y-117290948D01*
X120653895Y-117378157D01*
X120700912Y-117435447D01*
X120700915Y-117435450D01*
X120716628Y-117454596D01*
X120735774Y-117470309D01*
X121498000Y-118232536D01*
X121498000Y-119202045D01*
X121315017Y-119299851D01*
X121128183Y-119453183D01*
X120974851Y-119640018D01*
X120860916Y-119853177D01*
X120790755Y-120084467D01*
X120773000Y-120264733D01*
X120773000Y-120535268D01*
X120790755Y-120715534D01*
X120860916Y-120946824D01*
X120974851Y-121159983D01*
X121128184Y-121346817D01*
X121315018Y-121500149D01*
X121498000Y-121597954D01*
X121498000Y-121671176D01*
X121374999Y-121671176D01*
X121252322Y-121683259D01*
X121134359Y-121719042D01*
X121025644Y-121777152D01*
X120930354Y-121855354D01*
X120852152Y-121950644D01*
X120794042Y-122059359D01*
X120758259Y-122177322D01*
X120750000Y-122261174D01*
X120741741Y-122177322D01*
X120705958Y-122059359D01*
X120647848Y-121950644D01*
X120569646Y-121855354D01*
X120474356Y-121777152D01*
X120365641Y-121719042D01*
X120247678Y-121683259D01*
X120125001Y-121671176D01*
X120002000Y-121671176D01*
X120002000Y-121597955D01*
X120184983Y-121500149D01*
X120371817Y-121346817D01*
X120525149Y-121159982D01*
X120639084Y-120946823D01*
X120709245Y-120715533D01*
X120727000Y-120535267D01*
X120727000Y-120264732D01*
X120709245Y-120084466D01*
X120639084Y-119853176D01*
X120525149Y-119640017D01*
X120371817Y-119453183D01*
X120184982Y-119299851D01*
X119971823Y-119185916D01*
X119740533Y-119115755D01*
X119500000Y-119092064D01*
X119259466Y-119115755D01*
X119028176Y-119185916D01*
X118815017Y-119299851D01*
X118628183Y-119453183D01*
X118487352Y-119624785D01*
X118488072Y-119475000D01*
X118475812Y-119350518D01*
X118439502Y-119230820D01*
X118380537Y-119120506D01*
X118301185Y-119023815D01*
X118204494Y-118944463D01*
X118094180Y-118885498D01*
X117974482Y-118849188D01*
X117850000Y-118836928D01*
X117285750Y-118840000D01*
X117127000Y-118998750D01*
X117127000Y-120273000D01*
X117147000Y-120273000D01*
X117147000Y-120527000D01*
X117127000Y-120527000D01*
X117127000Y-121801250D01*
X117285750Y-121960000D01*
X117850000Y-121963072D01*
X117974482Y-121950812D01*
X118094180Y-121914502D01*
X118204494Y-121855537D01*
X118301185Y-121776185D01*
X118380537Y-121679494D01*
X118439502Y-121569180D01*
X118475812Y-121449482D01*
X118488072Y-121325000D01*
X118487352Y-121175216D01*
X118628184Y-121346817D01*
X118815018Y-121500149D01*
X118998000Y-121597954D01*
X118998000Y-121671176D01*
X118874999Y-121671176D01*
X118752322Y-121683259D01*
X118634359Y-121719042D01*
X118525644Y-121777152D01*
X118430354Y-121855354D01*
X118352152Y-121950644D01*
X118294042Y-122059359D01*
X118258259Y-122177322D01*
X118246176Y-122299999D01*
X118246176Y-123100001D01*
X118258259Y-123222678D01*
X118294042Y-123340641D01*
X118352152Y-123449356D01*
X118430354Y-123544646D01*
X118525644Y-123622848D01*
X118634359Y-123680958D01*
X118752322Y-123716741D01*
X118874999Y-123728824D01*
X120125001Y-123728824D01*
X120247678Y-123716741D01*
X120365641Y-123680958D01*
X120474356Y-123622848D01*
X120569646Y-123544646D01*
X120647848Y-123449356D01*
X120705958Y-123340641D01*
X120741741Y-123222678D01*
X120750000Y-123138826D01*
X120758259Y-123222678D01*
X120794042Y-123340641D01*
X120852152Y-123449356D01*
X120930354Y-123544646D01*
X121025644Y-123622848D01*
X121134359Y-123680958D01*
X121252322Y-123716741D01*
X121374999Y-123728824D01*
X122625001Y-123728824D01*
X122747678Y-123716741D01*
X122865641Y-123680958D01*
X122974356Y-123622848D01*
X123069646Y-123544646D01*
X123147848Y-123449356D01*
X123205958Y-123340641D01*
X123241741Y-123222678D01*
X123250000Y-123138826D01*
X123258259Y-123222678D01*
X123294042Y-123340641D01*
X123352152Y-123449356D01*
X123430354Y-123544646D01*
X123525644Y-123622848D01*
X123634359Y-123680958D01*
X123752322Y-123716741D01*
X123874999Y-123728824D01*
X125125001Y-123728824D01*
X125247678Y-123716741D01*
X125365641Y-123680958D01*
X125474356Y-123622848D01*
X125569646Y-123544646D01*
X125647848Y-123449356D01*
X125705958Y-123340641D01*
X125741741Y-123222678D01*
X125750000Y-123138826D01*
X125758259Y-123222678D01*
X125794042Y-123340641D01*
X125852152Y-123449356D01*
X125930354Y-123544646D01*
X126025644Y-123622848D01*
X126134359Y-123680958D01*
X126252322Y-123716741D01*
X126374999Y-123728824D01*
X127625001Y-123728824D01*
X127747678Y-123716741D01*
X127865641Y-123680958D01*
X127974356Y-123622848D01*
X128069646Y-123544646D01*
X128147848Y-123449356D01*
X128205958Y-123340641D01*
X128241741Y-123222678D01*
X128250000Y-123138826D01*
X128258259Y-123222678D01*
X128294042Y-123340641D01*
X128352152Y-123449356D01*
X128430354Y-123544646D01*
X128525644Y-123622848D01*
X128634359Y-123680958D01*
X128752322Y-123716741D01*
X128874999Y-123728824D01*
X130125001Y-123728824D01*
X130247678Y-123716741D01*
X130365641Y-123680958D01*
X130474356Y-123622848D01*
X130569646Y-123544646D01*
X130647848Y-123449356D01*
X130705958Y-123340641D01*
X130741741Y-123222678D01*
X130753824Y-123100001D01*
X130753824Y-122299999D01*
X130741741Y-122177322D01*
X130705958Y-122059359D01*
X130647848Y-121950644D01*
X130569646Y-121855354D01*
X130474356Y-121777152D01*
X130365641Y-121719042D01*
X130247678Y-121683259D01*
X130125001Y-121671176D01*
X130002000Y-121671176D01*
X130002000Y-121597955D01*
X130184983Y-121500149D01*
X130371817Y-121346817D01*
X130525149Y-121159982D01*
X130639084Y-120946823D01*
X130709245Y-120715533D01*
X130727000Y-120535267D01*
X130727000Y-120264732D01*
X130709245Y-120084466D01*
X130639084Y-119853176D01*
X130525149Y-119640017D01*
X130371817Y-119453183D01*
X130184982Y-119299851D01*
X129971823Y-119185916D01*
X129740533Y-119115755D01*
X129500000Y-119092064D01*
X129259466Y-119115755D01*
X129028176Y-119185916D01*
X128815017Y-119299851D01*
X128628183Y-119453183D01*
X128474851Y-119640018D01*
X128360916Y-119853177D01*
X128290755Y-120084467D01*
X128273000Y-120264733D01*
X128273000Y-120535268D01*
X128290755Y-120715534D01*
X128360916Y-120946824D01*
X128474851Y-121159983D01*
X128628184Y-121346817D01*
X128815018Y-121500149D01*
X128998000Y-121597954D01*
X128998000Y-121671176D01*
X128874999Y-121671176D01*
X128752322Y-121683259D01*
X128634359Y-121719042D01*
X128525644Y-121777152D01*
X128430354Y-121855354D01*
X128352152Y-121950644D01*
X128294042Y-122059359D01*
X128258259Y-122177322D01*
X128250000Y-122261174D01*
X128241741Y-122177322D01*
X128205958Y-122059359D01*
X128147848Y-121950644D01*
X128069646Y-121855354D01*
X127974356Y-121777152D01*
X127865641Y-121719042D01*
X127747678Y-121683259D01*
X127625001Y-121671176D01*
X127502000Y-121671176D01*
X127502000Y-121597955D01*
X127684983Y-121500149D01*
X127871817Y-121346817D01*
X128025149Y-121159982D01*
X128139084Y-120946823D01*
X128209245Y-120715533D01*
X128227000Y-120535267D01*
X128227000Y-120264732D01*
X128209245Y-120084466D01*
X128139084Y-119853176D01*
X128025149Y-119640017D01*
X127871817Y-119453183D01*
X127684982Y-119299851D01*
X127471823Y-119185916D01*
X127240533Y-119115755D01*
X127000000Y-119092064D01*
X126759466Y-119115755D01*
X126528176Y-119185916D01*
X126315017Y-119299851D01*
X126128183Y-119453183D01*
X125974851Y-119640018D01*
X125860916Y-119853177D01*
X125790755Y-120084467D01*
X125773000Y-120264733D01*
X125773000Y-120535268D01*
X125790755Y-120715534D01*
X125860916Y-120946824D01*
X125974851Y-121159983D01*
X126128184Y-121346817D01*
X126315018Y-121500149D01*
X126498000Y-121597954D01*
X126498000Y-121671176D01*
X126374999Y-121671176D01*
X126252322Y-121683259D01*
X126134359Y-121719042D01*
X126025644Y-121777152D01*
X125930354Y-121855354D01*
X125852152Y-121950644D01*
X125794042Y-122059359D01*
X125758259Y-122177322D01*
X125750000Y-122261174D01*
X125741741Y-122177322D01*
X125705958Y-122059359D01*
X125647848Y-121950644D01*
X125569646Y-121855354D01*
X125474356Y-121777152D01*
X125365641Y-121719042D01*
X125247678Y-121683259D01*
X125125001Y-121671176D01*
X125002000Y-121671176D01*
X125002000Y-121597955D01*
X125184983Y-121500149D01*
X125371817Y-121346817D01*
X125525149Y-121159982D01*
X125639084Y-120946823D01*
X125709245Y-120715533D01*
X125727000Y-120535267D01*
X125727000Y-120264732D01*
X125709245Y-120084466D01*
X125639084Y-119853176D01*
X125525149Y-119640017D01*
X125371817Y-119453183D01*
X125184982Y-119299851D01*
X124971823Y-119185916D01*
X124740533Y-119115755D01*
X124500000Y-119092064D01*
X124259466Y-119115755D01*
X124028176Y-119185916D01*
X123815017Y-119299851D01*
X123628183Y-119453183D01*
X123627518Y-119453993D01*
X123151991Y-118978467D01*
X123151991Y-118197259D01*
X123273000Y-118076250D01*
X123273000Y-117077000D01*
X123253000Y-117077000D01*
X123253000Y-116823000D01*
X123273000Y-116823000D01*
X123273000Y-115823750D01*
X123114250Y-115665000D01*
X122875631Y-115663756D01*
X122875631Y-115628471D01*
X122845772Y-115478356D01*
X122787200Y-115336951D01*
X122702167Y-115209690D01*
X122593940Y-115101463D01*
X122466679Y-115016430D01*
X122325274Y-114957858D01*
X122175159Y-114927999D01*
X122022103Y-114927999D01*
X121871988Y-114957858D01*
X121730583Y-115016430D01*
X121603322Y-115101463D01*
X121585971Y-115118815D01*
X121568620Y-115101464D01*
X121441359Y-115016431D01*
X121299954Y-114957859D01*
X121265145Y-114950935D01*
X121225268Y-114660145D01*
X121236185Y-114651185D01*
X121315537Y-114554494D01*
X121374502Y-114444180D01*
X121410812Y-114324482D01*
X121423072Y-114200000D01*
X121420000Y-114185750D01*
X121261250Y-114027000D01*
X120443395Y-114027000D01*
X120580808Y-113889587D01*
X120540690Y-113778824D01*
X120730753Y-113778824D01*
X120788166Y-113817186D01*
X120929571Y-113875758D01*
X121079686Y-113905617D01*
X121232742Y-113905617D01*
X121382857Y-113875758D01*
X121524262Y-113817186D01*
X121651523Y-113732153D01*
X121759750Y-113623926D01*
X121844783Y-113496665D01*
X121852676Y-113477611D01*
X122146176Y-113771112D01*
X122146176Y-114250001D01*
X122158259Y-114372678D01*
X122194042Y-114490641D01*
X122252152Y-114599356D01*
X122330354Y-114694646D01*
X122425644Y-114772848D01*
X122534359Y-114830958D01*
X122652322Y-114866741D01*
X122774999Y-114878824D01*
X124025001Y-114878824D01*
X124147678Y-114866741D01*
X124265641Y-114830958D01*
X124374356Y-114772848D01*
X124469646Y-114694646D01*
X124547848Y-114599356D01*
X124596176Y-114508942D01*
X124596176Y-114750003D01*
X124608259Y-114872680D01*
X124644042Y-114990642D01*
X124702151Y-115099357D01*
X124780353Y-115194647D01*
X124875643Y-115272849D01*
X124984358Y-115330958D01*
X125102320Y-115366741D01*
X125135500Y-115370009D01*
X125135501Y-115457453D01*
X125127322Y-115458259D01*
X125009359Y-115494042D01*
X124900644Y-115552152D01*
X124805354Y-115630354D01*
X124727152Y-115725644D01*
X124681095Y-115811810D01*
X124629494Y-115769463D01*
X124519180Y-115710498D01*
X124399482Y-115674188D01*
X124275000Y-115661928D01*
X123685750Y-115665000D01*
X123527000Y-115823750D01*
X123527000Y-116823000D01*
X123547000Y-116823000D01*
X123547000Y-117077000D01*
X123527000Y-117077000D01*
X123527000Y-118076250D01*
X123685750Y-118235000D01*
X124275000Y-118238072D01*
X124399482Y-118225812D01*
X124519180Y-118189502D01*
X124629494Y-118130537D01*
X124726185Y-118051185D01*
X124805537Y-117954494D01*
X124864502Y-117844180D01*
X124870815Y-117823368D01*
X124900644Y-117847848D01*
X125009359Y-117905958D01*
X125127322Y-117941741D01*
X125249999Y-117953824D01*
X126050001Y-117953824D01*
X126172678Y-117941741D01*
X126290641Y-117905958D01*
X126399356Y-117847848D01*
X126494646Y-117769646D01*
X126572848Y-117674356D01*
X126630958Y-117565641D01*
X126666741Y-117447678D01*
X126678824Y-117325001D01*
X126678824Y-116176543D01*
X126826643Y-116147141D01*
X126968048Y-116088569D01*
X127095309Y-116003536D01*
X127203536Y-115895309D01*
X127288569Y-115768048D01*
X127347141Y-115626643D01*
X127377000Y-115476528D01*
X127377000Y-115323472D01*
X127347141Y-115173357D01*
X127288569Y-115031952D01*
X127203536Y-114904691D01*
X127151991Y-114853146D01*
X127151991Y-113261444D01*
X127154418Y-113236801D01*
X127151991Y-113212158D01*
X127151991Y-113212148D01*
X127144727Y-113138392D01*
X127116022Y-113043765D01*
X127069408Y-112956556D01*
X127035288Y-112914981D01*
X127022390Y-112899265D01*
X127022388Y-112899263D01*
X127006675Y-112880117D01*
X126987529Y-112864404D01*
X126301990Y-112178866D01*
X126301990Y-110422260D01*
X126423000Y-110301250D01*
X126423000Y-109698000D01*
X126403000Y-109698000D01*
X126403000Y-109652000D01*
X126423000Y-109652000D01*
X126423000Y-109553824D01*
X126677000Y-109553824D01*
X126677000Y-109652000D01*
X126697000Y-109652000D01*
X126697000Y-109698000D01*
X126677000Y-109698000D01*
X126677000Y-110301250D01*
X126835750Y-110460000D01*
X126961361Y-110462926D01*
X126996176Y-110460247D01*
X126996176Y-110470293D01*
X126955582Y-110519756D01*
X126908968Y-110606966D01*
X126880263Y-110701593D01*
X126872999Y-110775349D01*
X126872999Y-110775358D01*
X126870572Y-110800001D01*
X126872999Y-110824644D01*
X126873000Y-112051436D01*
X126870572Y-112076089D01*
X126880264Y-112174498D01*
X126908969Y-112269125D01*
X126955583Y-112356334D01*
X127002600Y-112413624D01*
X127002603Y-112413627D01*
X127018316Y-112432773D01*
X127037462Y-112448486D01*
X127522445Y-112933470D01*
X127510498Y-112955820D01*
X127474188Y-113075518D01*
X127461928Y-113200000D01*
X127465000Y-113814250D01*
X127623750Y-113973000D01*
X128635500Y-113973000D01*
X128635500Y-113953000D01*
X128889500Y-113953000D01*
X128889500Y-113973000D01*
X129901250Y-113973000D01*
X130060000Y-113814250D01*
X130062187Y-113376990D01*
X130350422Y-113376990D01*
X130389455Y-113403071D01*
X130530860Y-113461643D01*
X130680975Y-113491502D01*
X130834031Y-113491502D01*
X130980506Y-113462367D01*
X130980506Y-114409558D01*
X129669050Y-115721016D01*
X129594646Y-115630354D01*
X129578416Y-115617035D01*
X129669180Y-115589502D01*
X129779494Y-115530537D01*
X129876185Y-115451185D01*
X129955537Y-115354494D01*
X130014502Y-115244180D01*
X130050812Y-115124482D01*
X130063072Y-115000000D01*
X130060000Y-114385750D01*
X129901250Y-114227000D01*
X128889500Y-114227000D01*
X128889500Y-114247000D01*
X128635500Y-114247000D01*
X128635500Y-114227000D01*
X127623750Y-114227000D01*
X127465000Y-114385750D01*
X127461928Y-115000000D01*
X127474188Y-115124482D01*
X127510498Y-115244180D01*
X127569463Y-115354494D01*
X127648815Y-115451185D01*
X127745506Y-115530537D01*
X127855820Y-115589502D01*
X127928330Y-115611498D01*
X127905354Y-115630354D01*
X127827152Y-115725644D01*
X127769042Y-115834359D01*
X127733259Y-115952322D01*
X127721176Y-116074999D01*
X127721176Y-117325001D01*
X127733259Y-117447678D01*
X127769042Y-117565641D01*
X127827152Y-117674356D01*
X127905354Y-117769646D01*
X128000644Y-117847848D01*
X128109359Y-117905958D01*
X128227322Y-117941741D01*
X128349999Y-117953824D01*
X129150001Y-117953824D01*
X129272678Y-117941741D01*
X129390641Y-117905958D01*
X129499356Y-117847848D01*
X129594646Y-117769646D01*
X129672848Y-117674356D01*
X129730958Y-117565641D01*
X129766741Y-117447678D01*
X129778824Y-117325001D01*
X129778824Y-117031110D01*
X131820048Y-114989888D01*
X131839189Y-114974179D01*
X131854897Y-114955039D01*
X131854905Y-114955031D01*
X131901921Y-114897741D01*
X131909277Y-114883979D01*
X131948536Y-114810531D01*
X131977241Y-114715904D01*
X131984505Y-114642148D01*
X131984505Y-114642138D01*
X131986932Y-114617495D01*
X131984505Y-114592852D01*
X131984505Y-109657148D01*
X131986932Y-109632505D01*
X131984505Y-109607862D01*
X131984505Y-109607852D01*
X131977241Y-109534096D01*
X131948536Y-109439469D01*
X131901922Y-109352260D01*
X131879843Y-109325357D01*
X131854905Y-109294969D01*
X131854897Y-109294961D01*
X131839189Y-109275821D01*
X131820048Y-109260112D01*
X131259934Y-108700000D01*
X132373000Y-107586935D01*
X132373001Y-127073000D01*
G37*
%TD.AperFunction*%
D21*
X116227000Y-110573000D02*
X116247000Y-110573000D01*
X116247000Y-110827000D01*
X116227000Y-110827000D01*
X116227000Y-113587220D01*
X116015429Y-113484296D01*
X115973000Y-113473172D01*
X115973000Y-110827000D01*
X115953000Y-110827000D01*
X115953000Y-110573000D01*
X115973000Y-110573000D01*
X115973000Y-107922410D01*
X116131088Y-107867795D01*
X116227000Y-107816529D01*
X116227000Y-110573000D01*
%TA.AperFunction,Conductor*%
D22*
G36*
X116227000Y-110573000D02*
G01*
X116247000Y-110573000D01*
X116247000Y-110827000D01*
X116227000Y-110827000D01*
X116227000Y-113587220D01*
X116015429Y-113484296D01*
X115973000Y-113473172D01*
X115973000Y-110827000D01*
X115953000Y-110827000D01*
X115953000Y-110573000D01*
X115973000Y-110573000D01*
X115973000Y-107922410D01*
X116131088Y-107867795D01*
X116227000Y-107816529D01*
X116227000Y-110573000D01*
G37*
%TD.AperFunction*%
D21*
X128627000Y-108573000D02*
X128647000Y-108573000D01*
X128647000Y-108827000D01*
X128627000Y-108827000D01*
X128627000Y-108847000D01*
X128373000Y-108847000D01*
X128373000Y-108827000D01*
X128353000Y-108827000D01*
X128353000Y-108573000D01*
X128373000Y-108573000D01*
X128373000Y-108553000D01*
X128627000Y-108553000D01*
X128627000Y-108573000D01*
%TA.AperFunction,Conductor*%
D22*
G36*
X128627000Y-108573000D02*
G01*
X128647000Y-108573000D01*
X128647000Y-108827000D01*
X128627000Y-108827000D01*
X128627000Y-108847000D01*
X128373000Y-108847000D01*
X128373000Y-108827000D01*
X128353000Y-108827000D01*
X128353000Y-108573000D01*
X128373000Y-108573000D01*
X128373000Y-108553000D01*
X128627000Y-108553000D01*
X128627000Y-108573000D01*
G37*
%TD.AperFunction*%
D21*
X125827000Y-99223000D02*
X125847000Y-99223000D01*
X125847000Y-99477000D01*
X125827000Y-99477000D01*
X125827000Y-100476250D01*
X125985750Y-100635000D01*
X126575000Y-100638072D01*
X126699482Y-100625812D01*
X126819180Y-100589502D01*
X126929494Y-100530537D01*
X126946340Y-100516712D01*
X126977152Y-100574356D01*
X127055354Y-100669646D01*
X127150644Y-100747848D01*
X127259359Y-100805958D01*
X127377322Y-100841741D01*
X127435501Y-100847471D01*
X127435500Y-100929991D01*
X127402320Y-100933259D01*
X127284358Y-100969042D01*
X127175643Y-101027151D01*
X127080353Y-101105353D01*
X127002151Y-101200643D01*
X126944042Y-101309358D01*
X126908259Y-101427320D01*
X126896176Y-101549997D01*
X126896176Y-101791058D01*
X126847848Y-101700644D01*
X126769646Y-101605354D01*
X126674356Y-101527152D01*
X126565641Y-101469042D01*
X126447678Y-101433259D01*
X126325001Y-101421176D01*
X125074999Y-101421176D01*
X124952322Y-101433259D01*
X124834359Y-101469042D01*
X124788084Y-101493777D01*
X124751185Y-101448815D01*
X124654494Y-101369463D01*
X124544180Y-101310498D01*
X124424482Y-101274188D01*
X124300000Y-101261928D01*
X123685750Y-101265000D01*
X123527000Y-101423750D01*
X123527000Y-102435500D01*
X123547000Y-102435500D01*
X123547000Y-102689500D01*
X123527000Y-102689500D01*
X123527000Y-103701250D01*
X123685750Y-103860000D01*
X124300000Y-103863072D01*
X124424482Y-103850812D01*
X124544180Y-103814502D01*
X124654494Y-103755537D01*
X124751185Y-103676185D01*
X124767249Y-103656611D01*
X124767248Y-104507817D01*
X121612001Y-107663065D01*
X121612001Y-105923642D01*
X121614428Y-105898999D01*
X121612001Y-105874356D01*
X121612001Y-105874346D01*
X121604737Y-105800590D01*
X121576032Y-105705963D01*
X121529418Y-105618754D01*
X121491515Y-105572570D01*
X121482400Y-105561463D01*
X121482398Y-105561461D01*
X121466685Y-105542315D01*
X121447539Y-105526602D01*
X120456614Y-104535678D01*
X120614250Y-104535000D01*
X120773000Y-104376250D01*
X120773000Y-102127000D01*
X119423750Y-102127000D01*
X119265000Y-102285750D01*
X119261928Y-103900000D01*
X119264193Y-103923001D01*
X118876999Y-103923001D01*
X118876999Y-101305937D01*
X119263487Y-100919449D01*
X119265000Y-101714250D01*
X119423750Y-101873000D01*
X120773000Y-101873000D01*
X120773000Y-101853000D01*
X121027000Y-101853000D01*
X121027000Y-101873000D01*
X121047000Y-101873000D01*
X121047000Y-102127000D01*
X121027000Y-102127000D01*
X121027000Y-104376250D01*
X121185750Y-104535000D01*
X121900000Y-104538072D01*
X122024482Y-104525812D01*
X122144180Y-104489502D01*
X122254494Y-104430537D01*
X122351185Y-104351185D01*
X122430537Y-104254494D01*
X122489502Y-104144180D01*
X122525812Y-104024482D01*
X122538072Y-103900000D01*
X122538001Y-103862882D01*
X123114250Y-103860000D01*
X123273000Y-103701250D01*
X123273000Y-102689500D01*
X123253000Y-102689500D01*
X123253000Y-102435500D01*
X123273000Y-102435500D01*
X123273000Y-101423750D01*
X123114250Y-101265000D01*
X122535860Y-101262107D01*
X122537426Y-100439472D01*
X122627320Y-100466741D01*
X122749997Y-100478824D01*
X124050003Y-100478824D01*
X124172680Y-100466741D01*
X124290642Y-100430958D01*
X124336917Y-100406224D01*
X124373815Y-100451185D01*
X124470506Y-100530537D01*
X124580820Y-100589502D01*
X124700518Y-100625812D01*
X124825000Y-100638072D01*
X125414250Y-100635000D01*
X125573000Y-100476250D01*
X125573000Y-99477000D01*
X125553000Y-99477000D01*
X125553000Y-99223000D01*
X125573000Y-99223000D01*
X125573000Y-99203000D01*
X125827000Y-99203000D01*
X125827000Y-99223000D01*
%TA.AperFunction,Conductor*%
D22*
G36*
X125827000Y-99223000D02*
G01*
X125847000Y-99223000D01*
X125847000Y-99477000D01*
X125827000Y-99477000D01*
X125827000Y-100476250D01*
X125985750Y-100635000D01*
X126575000Y-100638072D01*
X126699482Y-100625812D01*
X126819180Y-100589502D01*
X126929494Y-100530537D01*
X126946340Y-100516712D01*
X126977152Y-100574356D01*
X127055354Y-100669646D01*
X127150644Y-100747848D01*
X127259359Y-100805958D01*
X127377322Y-100841741D01*
X127435501Y-100847471D01*
X127435500Y-100929991D01*
X127402320Y-100933259D01*
X127284358Y-100969042D01*
X127175643Y-101027151D01*
X127080353Y-101105353D01*
X127002151Y-101200643D01*
X126944042Y-101309358D01*
X126908259Y-101427320D01*
X126896176Y-101549997D01*
X126896176Y-101791058D01*
X126847848Y-101700644D01*
X126769646Y-101605354D01*
X126674356Y-101527152D01*
X126565641Y-101469042D01*
X126447678Y-101433259D01*
X126325001Y-101421176D01*
X125074999Y-101421176D01*
X124952322Y-101433259D01*
X124834359Y-101469042D01*
X124788084Y-101493777D01*
X124751185Y-101448815D01*
X124654494Y-101369463D01*
X124544180Y-101310498D01*
X124424482Y-101274188D01*
X124300000Y-101261928D01*
X123685750Y-101265000D01*
X123527000Y-101423750D01*
X123527000Y-102435500D01*
X123547000Y-102435500D01*
X123547000Y-102689500D01*
X123527000Y-102689500D01*
X123527000Y-103701250D01*
X123685750Y-103860000D01*
X124300000Y-103863072D01*
X124424482Y-103850812D01*
X124544180Y-103814502D01*
X124654494Y-103755537D01*
X124751185Y-103676185D01*
X124767249Y-103656611D01*
X124767248Y-104507817D01*
X121612001Y-107663065D01*
X121612001Y-105923642D01*
X121614428Y-105898999D01*
X121612001Y-105874356D01*
X121612001Y-105874346D01*
X121604737Y-105800590D01*
X121576032Y-105705963D01*
X121529418Y-105618754D01*
X121491515Y-105572570D01*
X121482400Y-105561463D01*
X121482398Y-105561461D01*
X121466685Y-105542315D01*
X121447539Y-105526602D01*
X120456614Y-104535678D01*
X120614250Y-104535000D01*
X120773000Y-104376250D01*
X120773000Y-102127000D01*
X119423750Y-102127000D01*
X119265000Y-102285750D01*
X119261928Y-103900000D01*
X119264193Y-103923001D01*
X118876999Y-103923001D01*
X118876999Y-101305937D01*
X119263487Y-100919449D01*
X119265000Y-101714250D01*
X119423750Y-101873000D01*
X120773000Y-101873000D01*
X120773000Y-101853000D01*
X121027000Y-101853000D01*
X121027000Y-101873000D01*
X121047000Y-101873000D01*
X121047000Y-102127000D01*
X121027000Y-102127000D01*
X121027000Y-104376250D01*
X121185750Y-104535000D01*
X121900000Y-104538072D01*
X122024482Y-104525812D01*
X122144180Y-104489502D01*
X122254494Y-104430537D01*
X122351185Y-104351185D01*
X122430537Y-104254494D01*
X122489502Y-104144180D01*
X122525812Y-104024482D01*
X122538072Y-103900000D01*
X122538001Y-103862882D01*
X123114250Y-103860000D01*
X123273000Y-103701250D01*
X123273000Y-102689500D01*
X123253000Y-102689500D01*
X123253000Y-102435500D01*
X123273000Y-102435500D01*
X123273000Y-101423750D01*
X123114250Y-101265000D01*
X122535860Y-101262107D01*
X122537426Y-100439472D01*
X122627320Y-100466741D01*
X122749997Y-100478824D01*
X124050003Y-100478824D01*
X124172680Y-100466741D01*
X124290642Y-100430958D01*
X124336917Y-100406224D01*
X124373815Y-100451185D01*
X124470506Y-100530537D01*
X124580820Y-100589502D01*
X124700518Y-100625812D01*
X124825000Y-100638072D01*
X125414250Y-100635000D01*
X125573000Y-100476250D01*
X125573000Y-99477000D01*
X125553000Y-99477000D01*
X125553000Y-99223000D01*
X125573000Y-99223000D01*
X125573000Y-99203000D01*
X125827000Y-99203000D01*
X125827000Y-99223000D01*
G37*
%TD.AperFunction*%
D21*
X128848000Y-106623000D02*
X128946176Y-106623000D01*
X128946176Y-106877000D01*
X128848000Y-106877000D01*
X128848000Y-106897000D01*
X128802000Y-106897000D01*
X128802000Y-106877000D01*
X128703824Y-106877000D01*
X128703824Y-106623000D01*
X128802000Y-106623000D01*
X128802000Y-106603000D01*
X128848000Y-106603000D01*
X128848000Y-106623000D01*
%TA.AperFunction,Conductor*%
D22*
G36*
X128848000Y-106623000D02*
G01*
X128946176Y-106623000D01*
X128946176Y-106877000D01*
X128848000Y-106877000D01*
X128848000Y-106897000D01*
X128802000Y-106897000D01*
X128802000Y-106877000D01*
X128703824Y-106877000D01*
X128703824Y-106623000D01*
X128802000Y-106623000D01*
X128802000Y-106603000D01*
X128848000Y-106603000D01*
X128848000Y-106623000D01*
G37*
%TD.AperFunction*%
D21*
X118374999Y-104929429D02*
X118399652Y-104927001D01*
X118855104Y-104927001D01*
X118764956Y-104975186D01*
X118669192Y-105239587D01*
X119625000Y-106195395D01*
X119639143Y-106181253D01*
X119818748Y-106360858D01*
X119804605Y-106375000D01*
X119818748Y-106389143D01*
X119645952Y-106561938D01*
X119645000Y-106561928D01*
X119633460Y-106563065D01*
X119625000Y-106554605D01*
X119614692Y-106564913D01*
X119607711Y-106565601D01*
X119473345Y-106431235D01*
X119470812Y-106405518D01*
X119434502Y-106285820D01*
X119375537Y-106175506D01*
X119296185Y-106078815D01*
X119199494Y-105999463D01*
X119089180Y-105940498D01*
X118976804Y-105906409D01*
X118489587Y-105419192D01*
X118225186Y-105514956D01*
X118084296Y-105804571D01*
X118061136Y-105892907D01*
X117008724Y-105894222D01*
X116937795Y-105688912D01*
X116844814Y-105514956D01*
X116580413Y-105419192D01*
X115959428Y-106040178D01*
X115814250Y-105895000D01*
X115745481Y-105894914D01*
X116400808Y-105239587D01*
X116305044Y-104975186D01*
X116205994Y-104927001D01*
X118350346Y-104927001D01*
X118374999Y-104929429D01*
%TA.AperFunction,Conductor*%
D22*
G36*
X118374999Y-104929429D02*
G01*
X118399652Y-104927001D01*
X118855104Y-104927001D01*
X118764956Y-104975186D01*
X118669192Y-105239587D01*
X119625000Y-106195395D01*
X119639143Y-106181253D01*
X119818748Y-106360858D01*
X119804605Y-106375000D01*
X119818748Y-106389143D01*
X119645952Y-106561938D01*
X119645000Y-106561928D01*
X119633460Y-106563065D01*
X119625000Y-106554605D01*
X119614692Y-106564913D01*
X119607711Y-106565601D01*
X119473345Y-106431235D01*
X119470812Y-106405518D01*
X119434502Y-106285820D01*
X119375537Y-106175506D01*
X119296185Y-106078815D01*
X119199494Y-105999463D01*
X119089180Y-105940498D01*
X118976804Y-105906409D01*
X118489587Y-105419192D01*
X118225186Y-105514956D01*
X118084296Y-105804571D01*
X118061136Y-105892907D01*
X117008724Y-105894222D01*
X116937795Y-105688912D01*
X116844814Y-105514956D01*
X116580413Y-105419192D01*
X115959428Y-106040178D01*
X115814250Y-105895000D01*
X115745481Y-105894914D01*
X116400808Y-105239587D01*
X116305044Y-104975186D01*
X116205994Y-104927001D01*
X118350346Y-104927001D01*
X118374999Y-104929429D01*
G37*
%TD.AperFunction*%
D21*
X128002000Y-104473000D02*
X128022000Y-104473000D01*
X128022000Y-104727000D01*
X128002000Y-104727000D01*
X128002000Y-104747000D01*
X127748000Y-104747000D01*
X127748000Y-104727000D01*
X127728000Y-104727000D01*
X127728000Y-104473000D01*
X127748000Y-104473000D01*
X127748000Y-104453000D01*
X128002000Y-104453000D01*
X128002000Y-104473000D01*
%TA.AperFunction,Conductor*%
D22*
G36*
X128002000Y-104473000D02*
G01*
X128022000Y-104473000D01*
X128022000Y-104727000D01*
X128002000Y-104727000D01*
X128002000Y-104747000D01*
X127748000Y-104747000D01*
X127748000Y-104727000D01*
X127728000Y-104727000D01*
X127728000Y-104473000D01*
X127748000Y-104473000D01*
X127748000Y-104453000D01*
X128002000Y-104453000D01*
X128002000Y-104473000D01*
G37*
%TD.AperFunction*%
D21*
X116422927Y-99729214D02*
X116550188Y-99814247D01*
X116691593Y-99872819D01*
X116841708Y-99902678D01*
X116985302Y-99902678D01*
X117323023Y-100240400D01*
X117323023Y-100376536D01*
X117352882Y-100526651D01*
X117411454Y-100668056D01*
X117496487Y-100795317D01*
X117604714Y-100903544D01*
X117731975Y-100988577D01*
X117873380Y-101047149D01*
X117875537Y-101047578D01*
X117872999Y-101073351D01*
X117872999Y-101073360D01*
X117870572Y-101098003D01*
X117872999Y-101122646D01*
X117873000Y-103923001D01*
X115978824Y-103923001D01*
X115978824Y-103550000D01*
X115971545Y-103476095D01*
X115949988Y-103405030D01*
X115914981Y-103339537D01*
X115893373Y-103313207D01*
X115954494Y-103280537D01*
X116051185Y-103201185D01*
X116130537Y-103104494D01*
X116189502Y-102994180D01*
X116225812Y-102874482D01*
X116238072Y-102750000D01*
X116235000Y-102285750D01*
X116076250Y-102127000D01*
X114727000Y-102127000D01*
X114727000Y-102147000D01*
X114473000Y-102147000D01*
X114473000Y-102127000D01*
X114453000Y-102127000D01*
X114453000Y-101873000D01*
X114473000Y-101873000D01*
X114473000Y-101853000D01*
X114727000Y-101853000D01*
X114727000Y-101873000D01*
X116076250Y-101873000D01*
X116235000Y-101714250D01*
X116238072Y-101250000D01*
X116225812Y-101125518D01*
X116189502Y-101005820D01*
X116130537Y-100895506D01*
X116051185Y-100798815D01*
X115954494Y-100719463D01*
X115893373Y-100686793D01*
X115914981Y-100660463D01*
X115949988Y-100594970D01*
X115971545Y-100523905D01*
X115978824Y-100450000D01*
X115978824Y-99627678D01*
X116321391Y-99627678D01*
X116422927Y-99729214D01*
%TA.AperFunction,Conductor*%
D22*
G36*
X116422927Y-99729214D02*
G01*
X116550188Y-99814247D01*
X116691593Y-99872819D01*
X116841708Y-99902678D01*
X116985302Y-99902678D01*
X117323023Y-100240400D01*
X117323023Y-100376536D01*
X117352882Y-100526651D01*
X117411454Y-100668056D01*
X117496487Y-100795317D01*
X117604714Y-100903544D01*
X117731975Y-100988577D01*
X117873380Y-101047149D01*
X117875537Y-101047578D01*
X117872999Y-101073351D01*
X117872999Y-101073360D01*
X117870572Y-101098003D01*
X117872999Y-101122646D01*
X117873000Y-103923001D01*
X115978824Y-103923001D01*
X115978824Y-103550000D01*
X115971545Y-103476095D01*
X115949988Y-103405030D01*
X115914981Y-103339537D01*
X115893373Y-103313207D01*
X115954494Y-103280537D01*
X116051185Y-103201185D01*
X116130537Y-103104494D01*
X116189502Y-102994180D01*
X116225812Y-102874482D01*
X116238072Y-102750000D01*
X116235000Y-102285750D01*
X116076250Y-102127000D01*
X114727000Y-102127000D01*
X114727000Y-102147000D01*
X114473000Y-102147000D01*
X114473000Y-102127000D01*
X114453000Y-102127000D01*
X114453000Y-101873000D01*
X114473000Y-101873000D01*
X114473000Y-101853000D01*
X114727000Y-101853000D01*
X114727000Y-101873000D01*
X116076250Y-101873000D01*
X116235000Y-101714250D01*
X116238072Y-101250000D01*
X116225812Y-101125518D01*
X116189502Y-101005820D01*
X116130537Y-100895506D01*
X116051185Y-100798815D01*
X115954494Y-100719463D01*
X115893373Y-100686793D01*
X115914981Y-100660463D01*
X115949988Y-100594970D01*
X115971545Y-100523905D01*
X115978824Y-100450000D01*
X115978824Y-99627678D01*
X116321391Y-99627678D01*
X116422927Y-99729214D01*
G37*
%TD.AperFunction*%
D21*
X129977329Y-98912529D02*
X129971176Y-98974999D01*
X129971176Y-100225001D01*
X129983259Y-100347678D01*
X130019042Y-100465641D01*
X130077152Y-100574356D01*
X130155354Y-100669646D01*
X130191824Y-100699576D01*
X130155820Y-100710498D01*
X130045506Y-100769463D01*
X129948815Y-100848815D01*
X129869463Y-100945506D01*
X129810498Y-101055820D01*
X129774188Y-101175518D01*
X129761928Y-101300000D01*
X129765000Y-101914250D01*
X129923750Y-102073000D01*
X130935500Y-102073000D01*
X130935500Y-102053000D01*
X131189500Y-102053000D01*
X131189500Y-102073000D01*
X131209500Y-102073000D01*
X131209500Y-102327000D01*
X131189500Y-102327000D01*
X131189500Y-102347000D01*
X130935500Y-102347000D01*
X130935500Y-102327000D01*
X129923750Y-102327000D01*
X129765000Y-102485750D01*
X129762562Y-102973160D01*
X129673632Y-102973160D01*
X129523517Y-103003019D01*
X129382112Y-103061591D01*
X129254851Y-103146624D01*
X129146624Y-103254851D01*
X129076043Y-103360483D01*
X129068037Y-103345506D01*
X128988685Y-103248815D01*
X128891994Y-103169463D01*
X128889531Y-103168147D01*
X128930958Y-103090642D01*
X128966741Y-102972680D01*
X128978824Y-102850003D01*
X128978824Y-101549997D01*
X128966741Y-101427320D01*
X128930958Y-101309358D01*
X128872849Y-101200643D01*
X128794647Y-101105353D01*
X128699357Y-101027151D01*
X128590642Y-100969042D01*
X128472680Y-100933259D01*
X128439500Y-100929991D01*
X128439500Y-100836638D01*
X128540641Y-100805958D01*
X128649356Y-100747848D01*
X128744646Y-100669646D01*
X128822848Y-100574356D01*
X128880958Y-100465641D01*
X128916741Y-100347678D01*
X128928824Y-100225001D01*
X128928824Y-98974999D01*
X128922138Y-98907118D01*
X129977329Y-98912529D01*
%TA.AperFunction,Conductor*%
D22*
G36*
X129977329Y-98912529D02*
G01*
X129971176Y-98974999D01*
X129971176Y-100225001D01*
X129983259Y-100347678D01*
X130019042Y-100465641D01*
X130077152Y-100574356D01*
X130155354Y-100669646D01*
X130191824Y-100699576D01*
X130155820Y-100710498D01*
X130045506Y-100769463D01*
X129948815Y-100848815D01*
X129869463Y-100945506D01*
X129810498Y-101055820D01*
X129774188Y-101175518D01*
X129761928Y-101300000D01*
X129765000Y-101914250D01*
X129923750Y-102073000D01*
X130935500Y-102073000D01*
X130935500Y-102053000D01*
X131189500Y-102053000D01*
X131189500Y-102073000D01*
X131209500Y-102073000D01*
X131209500Y-102327000D01*
X131189500Y-102327000D01*
X131189500Y-102347000D01*
X130935500Y-102347000D01*
X130935500Y-102327000D01*
X129923750Y-102327000D01*
X129765000Y-102485750D01*
X129762562Y-102973160D01*
X129673632Y-102973160D01*
X129523517Y-103003019D01*
X129382112Y-103061591D01*
X129254851Y-103146624D01*
X129146624Y-103254851D01*
X129076043Y-103360483D01*
X129068037Y-103345506D01*
X128988685Y-103248815D01*
X128891994Y-103169463D01*
X128889531Y-103168147D01*
X128930958Y-103090642D01*
X128966741Y-102972680D01*
X128978824Y-102850003D01*
X128978824Y-101549997D01*
X128966741Y-101427320D01*
X128930958Y-101309358D01*
X128872849Y-101200643D01*
X128794647Y-101105353D01*
X128699357Y-101027151D01*
X128590642Y-100969042D01*
X128472680Y-100933259D01*
X128439500Y-100929991D01*
X128439500Y-100836638D01*
X128540641Y-100805958D01*
X128649356Y-100747848D01*
X128744646Y-100669646D01*
X128822848Y-100574356D01*
X128880958Y-100465641D01*
X128916741Y-100347678D01*
X128928824Y-100225001D01*
X128928824Y-98974999D01*
X128922138Y-98907118D01*
X129977329Y-98912529D01*
G37*
%TD.AperFunction*%
%TD*%
M02*
