%TF.GenerationSoftware,KiCad,Pcbnew,(5.1.9-0-10_14)*%
%TF.CreationDate,2021-05-02T12:57:30+01:00*%
%TF.ProjectId,Generic,47656e65-7269-4632-9e6b-696361645f70,3*%
%TF.SameCoordinates,Original*%
%TF.FileFunction,Legend,Top*%
%TF.FilePolarity,Positive*%
%FSLAX46Y46*%
G04 Gerber Fmt 4.6, Leading zero omitted, Abs format (unit mm)*
G04 Created by KiCad (PCBNEW (5.1.9-0-10_14)) date 2021-05-02 12:57:30*
%MOMM*%
%LPD*%
G01*
G04 APERTURE LIST*
%ADD10C,0.120000*%
%ADD11C,0.150000*%
G04 APERTURE END LIST*
D10*
%TO.C,U1*%
X110380000Y-119650000D02*
X110380000Y-120430000D01*
X110380000Y-120430000D02*
X111380000Y-120430000D01*
X128620000Y-119650000D02*
X128620000Y-120430000D01*
X128620000Y-120430000D02*
X127620000Y-120430000D01*
X110380000Y-94685000D02*
X128620000Y-94685000D01*
X128620000Y-94685000D02*
X128620000Y-101105000D01*
X110380000Y-94685000D02*
X110380000Y-101105000D01*
X110380000Y-101105000D02*
X110000000Y-101105000D01*
%TO.C,J1*%
X110370000Y-121190000D02*
X112780000Y-121190000D01*
X110370000Y-123600000D02*
X110370000Y-121190000D01*
X128290000Y-121490000D02*
X110670000Y-121490000D01*
X128290000Y-129610000D02*
X128290000Y-121490000D01*
X110670000Y-129610000D02*
X128290000Y-129610000D01*
X110670000Y-121490000D02*
X110670000Y-129610000D01*
%TO.C,U1*%
D11*
X118638095Y-101502380D02*
X118638095Y-102311904D01*
X118685714Y-102407142D01*
X118733333Y-102454761D01*
X118828571Y-102502380D01*
X119019047Y-102502380D01*
X119114285Y-102454761D01*
X119161904Y-102407142D01*
X119209523Y-102311904D01*
X119209523Y-101502380D01*
X120209523Y-102502380D02*
X119638095Y-102502380D01*
X119923809Y-102502380D02*
X119923809Y-101502380D01*
X119828571Y-101645238D01*
X119733333Y-101740476D01*
X119638095Y-101788095D01*
%TO.C,J1*%
X126596666Y-128102380D02*
X126596666Y-128816666D01*
X126549047Y-128959523D01*
X126453809Y-129054761D01*
X126310952Y-129102380D01*
X126215714Y-129102380D01*
X127596666Y-129102380D02*
X127025238Y-129102380D01*
X127310952Y-129102380D02*
X127310952Y-128102380D01*
X127215714Y-128245238D01*
X127120476Y-128340476D01*
X127025238Y-128388095D01*
%TD*%
M02*
