%TF.GenerationSoftware,KiCad,Pcbnew,(5.1.9-0-10_14)*%
%TF.CreationDate,2021-05-23T10:14:56+01:00*%
%TF.ProjectId,Generic,47656e65-7269-4632-9e6b-696361645f70,3*%
%TF.SameCoordinates,Original*%
%TF.FileFunction,Soldermask,Top*%
%TF.FilePolarity,Negative*%
%FSLAX46Y46*%
G04 Gerber Fmt 4.6, Leading zero omitted, Abs format (unit mm)*
G04 Created by KiCad (PCBNEW (5.1.9-0-10_14)) date 2021-05-23 10:14:56*
%MOMM*%
%LPD*%
G01*
G04 APERTURE LIST*
%ADD10R,0.650000X1.060000*%
%ADD11R,1.425000X3.700000*%
%ADD12R,1.700000X1.700000*%
%ADD13O,1.700000X1.700000*%
%ADD14C,0.350000*%
%ADD15C,0.500000*%
%ADD16C,0.100000*%
%ADD17R,1.140000X0.600000*%
%ADD18C,1.700000*%
%ADD19C,2.000000*%
%ADD20R,1.140000X0.300000*%
G04 APERTURE END LIST*
D10*
%TO.C,Reg1*%
X113700000Y-102900000D03*
X111800000Y-102900000D03*
X112750000Y-102900000D03*
X111800000Y-105100000D03*
X112750000Y-105100000D03*
X113700000Y-105100000D03*
G36*
G01*
X117675000Y-106250000D02*
X118625000Y-106250000D01*
G75*
G02*
X118875000Y-106500000I0J-250000D01*
G01*
X118875000Y-107000000D01*
G75*
G02*
X118625000Y-107250000I-250000J0D01*
G01*
X117675000Y-107250000D01*
G75*
G02*
X117425000Y-107000000I0J250000D01*
G01*
X117425000Y-106500000D01*
G75*
G02*
X117675000Y-106250000I250000J0D01*
G01*
G37*
G36*
G01*
X117675000Y-108150000D02*
X118625000Y-108150000D01*
G75*
G02*
X118875000Y-108400000I0J-250000D01*
G01*
X118875000Y-108900000D01*
G75*
G02*
X118625000Y-109150000I-250000J0D01*
G01*
X117675000Y-109150000D01*
G75*
G02*
X117425000Y-108900000I0J250000D01*
G01*
X117425000Y-108400000D01*
G75*
G02*
X117675000Y-108150000I250000J0D01*
G01*
G37*
G36*
G01*
X111175000Y-108150000D02*
X112125000Y-108150000D01*
G75*
G02*
X112375000Y-108400000I0J-250000D01*
G01*
X112375000Y-108900000D01*
G75*
G02*
X112125000Y-109150000I-250000J0D01*
G01*
X111175000Y-109150000D01*
G75*
G02*
X110925000Y-108900000I0J250000D01*
G01*
X110925000Y-108400000D01*
G75*
G02*
X111175000Y-108150000I250000J0D01*
G01*
G37*
G36*
G01*
X111175000Y-106250000D02*
X112125000Y-106250000D01*
G75*
G02*
X112375000Y-106500000I0J-250000D01*
G01*
X112375000Y-107000000D01*
G75*
G02*
X112125000Y-107250000I-250000J0D01*
G01*
X111175000Y-107250000D01*
G75*
G02*
X110925000Y-107000000I0J250000D01*
G01*
X110925000Y-106500000D01*
G75*
G02*
X111175000Y-106250000I250000J0D01*
G01*
G37*
G36*
G01*
X110850000Y-103675000D02*
X110350000Y-103675000D01*
G75*
G02*
X110125000Y-103450000I0J225000D01*
G01*
X110125000Y-103000000D01*
G75*
G02*
X110350000Y-102775000I225000J0D01*
G01*
X110850000Y-102775000D01*
G75*
G02*
X111075000Y-103000000I0J-225000D01*
G01*
X111075000Y-103450000D01*
G75*
G02*
X110850000Y-103675000I-225000J0D01*
G01*
G37*
G36*
G01*
X110850000Y-105225000D02*
X110350000Y-105225000D01*
G75*
G02*
X110125000Y-105000000I0J225000D01*
G01*
X110125000Y-104550000D01*
G75*
G02*
X110350000Y-104325000I225000J0D01*
G01*
X110850000Y-104325000D01*
G75*
G02*
X111075000Y-104550000I0J-225000D01*
G01*
X111075000Y-105000000D01*
G75*
G02*
X110850000Y-105225000I-225000J0D01*
G01*
G37*
G36*
G01*
X112700000Y-107925626D02*
X112700000Y-106674374D01*
G75*
G02*
X112949374Y-106425000I249374J0D01*
G01*
X113875626Y-106425000D01*
G75*
G02*
X114125000Y-106674374I0J-249374D01*
G01*
X114125000Y-107925626D01*
G75*
G02*
X113875626Y-108175000I-249374J0D01*
G01*
X112949374Y-108175000D01*
G75*
G02*
X112700000Y-107925626I0J249374D01*
G01*
G37*
G36*
G01*
X115675000Y-107925626D02*
X115675000Y-106674374D01*
G75*
G02*
X115924374Y-106425000I249374J0D01*
G01*
X116850626Y-106425000D01*
G75*
G02*
X117100000Y-106674374I0J-249374D01*
G01*
X117100000Y-107925626D01*
G75*
G02*
X116850626Y-108175000I-249374J0D01*
G01*
X115924374Y-108175000D01*
G75*
G02*
X115675000Y-107925626I0J249374D01*
G01*
G37*
D11*
X118150000Y-104200000D03*
X115150000Y-104200000D03*
%TD*%
%TO.C,D1*%
G36*
G01*
X128056250Y-102450000D02*
X127543750Y-102450000D01*
G75*
G02*
X127325000Y-102231250I0J218750D01*
G01*
X127325000Y-101793750D01*
G75*
G02*
X127543750Y-101575000I218750J0D01*
G01*
X128056250Y-101575000D01*
G75*
G02*
X128275000Y-101793750I0J-218750D01*
G01*
X128275000Y-102231250D01*
G75*
G02*
X128056250Y-102450000I-218750J0D01*
G01*
G37*
G36*
G01*
X128056250Y-104025000D02*
X127543750Y-104025000D01*
G75*
G02*
X127325000Y-103806250I0J218750D01*
G01*
X127325000Y-103368750D01*
G75*
G02*
X127543750Y-103150000I218750J0D01*
G01*
X128056250Y-103150000D01*
G75*
G02*
X128275000Y-103368750I0J-218750D01*
G01*
X128275000Y-103806250D01*
G75*
G02*
X128056250Y-104025000I-218750J0D01*
G01*
G37*
%TD*%
%TO.C,R9*%
G36*
G01*
X124875000Y-101825000D02*
X124875000Y-102375000D01*
G75*
G02*
X124675000Y-102575000I-200000J0D01*
G01*
X124275000Y-102575000D01*
G75*
G02*
X124075000Y-102375000I0J200000D01*
G01*
X124075000Y-101825000D01*
G75*
G02*
X124275000Y-101625000I200000J0D01*
G01*
X124675000Y-101625000D01*
G75*
G02*
X124875000Y-101825000I0J-200000D01*
G01*
G37*
G36*
G01*
X126525000Y-101825000D02*
X126525000Y-102375000D01*
G75*
G02*
X126325000Y-102575000I-200000J0D01*
G01*
X125925000Y-102575000D01*
G75*
G02*
X125725000Y-102375000I0J200000D01*
G01*
X125725000Y-101825000D01*
G75*
G02*
X125925000Y-101625000I200000J0D01*
G01*
X126325000Y-101625000D01*
G75*
G02*
X126525000Y-101825000I0J-200000D01*
G01*
G37*
%TD*%
%TO.C,R8*%
G36*
G01*
X122175000Y-104725000D02*
X122175000Y-105275000D01*
G75*
G02*
X121975000Y-105475000I-200000J0D01*
G01*
X121575000Y-105475000D01*
G75*
G02*
X121375000Y-105275000I0J200000D01*
G01*
X121375000Y-104725000D01*
G75*
G02*
X121575000Y-104525000I200000J0D01*
G01*
X121975000Y-104525000D01*
G75*
G02*
X122175000Y-104725000I0J-200000D01*
G01*
G37*
G36*
G01*
X123825000Y-104725000D02*
X123825000Y-105275000D01*
G75*
G02*
X123625000Y-105475000I-200000J0D01*
G01*
X123225000Y-105475000D01*
G75*
G02*
X123025000Y-105275000I0J200000D01*
G01*
X123025000Y-104725000D01*
G75*
G02*
X123225000Y-104525000I200000J0D01*
G01*
X123625000Y-104525000D01*
G75*
G02*
X123825000Y-104725000I0J-200000D01*
G01*
G37*
%TD*%
%TO.C,R7*%
G36*
G01*
X126025000Y-105275000D02*
X126025000Y-104725000D01*
G75*
G02*
X126225000Y-104525000I200000J0D01*
G01*
X126625000Y-104525000D01*
G75*
G02*
X126825000Y-104725000I0J-200000D01*
G01*
X126825000Y-105275000D01*
G75*
G02*
X126625000Y-105475000I-200000J0D01*
G01*
X126225000Y-105475000D01*
G75*
G02*
X126025000Y-105275000I0J200000D01*
G01*
G37*
G36*
G01*
X124375000Y-105275000D02*
X124375000Y-104725000D01*
G75*
G02*
X124575000Y-104525000I200000J0D01*
G01*
X124975000Y-104525000D01*
G75*
G02*
X125175000Y-104725000I0J-200000D01*
G01*
X125175000Y-105275000D01*
G75*
G02*
X124975000Y-105475000I-200000J0D01*
G01*
X124575000Y-105475000D01*
G75*
G02*
X124375000Y-105275000I0J200000D01*
G01*
G37*
%TD*%
%TO.C,R6*%
G36*
G01*
X111075000Y-120649900D02*
X111075000Y-119750100D01*
G75*
G02*
X111325100Y-119500000I250100J0D01*
G01*
X111849900Y-119500000D01*
G75*
G02*
X112100000Y-119750100I0J-250100D01*
G01*
X112100000Y-120649900D01*
G75*
G02*
X111849900Y-120900000I-250100J0D01*
G01*
X111325100Y-120900000D01*
G75*
G02*
X111075000Y-120649900I0J250100D01*
G01*
G37*
G36*
G01*
X112900000Y-120649900D02*
X112900000Y-119750100D01*
G75*
G02*
X113150100Y-119500000I250100J0D01*
G01*
X113674900Y-119500000D01*
G75*
G02*
X113925000Y-119750100I0J-250100D01*
G01*
X113925000Y-120649900D01*
G75*
G02*
X113674900Y-120900000I-250100J0D01*
G01*
X113150100Y-120900000D01*
G75*
G02*
X112900000Y-120649900I0J250100D01*
G01*
G37*
G36*
G01*
X113400000Y-120825250D02*
X113400000Y-119574750D01*
G75*
G02*
X113649750Y-119325000I249750J0D01*
G01*
X114275250Y-119325000D01*
G75*
G02*
X114525000Y-119574750I0J-249750D01*
G01*
X114525000Y-120825250D01*
G75*
G02*
X114275250Y-121075000I-249750J0D01*
G01*
X113649750Y-121075000D01*
G75*
G02*
X113400000Y-120825250I0J249750D01*
G01*
G37*
G36*
G01*
X110475000Y-120825250D02*
X110475000Y-119574750D01*
G75*
G02*
X110724750Y-119325000I249750J0D01*
G01*
X111350250Y-119325000D01*
G75*
G02*
X111600000Y-119574750I0J-249750D01*
G01*
X111600000Y-120825250D01*
G75*
G02*
X111350250Y-121075000I-249750J0D01*
G01*
X110724750Y-121075000D01*
G75*
G02*
X110475000Y-120825250I0J249750D01*
G01*
G37*
%TD*%
%TO.C,R5*%
G36*
G01*
X112849900Y-128175000D02*
X111950100Y-128175000D01*
G75*
G02*
X111700000Y-127924900I0J250100D01*
G01*
X111700000Y-127400100D01*
G75*
G02*
X111950100Y-127150000I250100J0D01*
G01*
X112849900Y-127150000D01*
G75*
G02*
X113100000Y-127400100I0J-250100D01*
G01*
X113100000Y-127924900D01*
G75*
G02*
X112849900Y-128175000I-250100J0D01*
G01*
G37*
G36*
G01*
X112849900Y-126350000D02*
X111950100Y-126350000D01*
G75*
G02*
X111700000Y-126099900I0J250100D01*
G01*
X111700000Y-125575100D01*
G75*
G02*
X111950100Y-125325000I250100J0D01*
G01*
X112849900Y-125325000D01*
G75*
G02*
X113100000Y-125575100I0J-250100D01*
G01*
X113100000Y-126099900D01*
G75*
G02*
X112849900Y-126350000I-250100J0D01*
G01*
G37*
G36*
G01*
X113025250Y-125850000D02*
X111774750Y-125850000D01*
G75*
G02*
X111525000Y-125600250I0J249750D01*
G01*
X111525000Y-124974750D01*
G75*
G02*
X111774750Y-124725000I249750J0D01*
G01*
X113025250Y-124725000D01*
G75*
G02*
X113275000Y-124974750I0J-249750D01*
G01*
X113275000Y-125600250D01*
G75*
G02*
X113025250Y-125850000I-249750J0D01*
G01*
G37*
G36*
G01*
X113025250Y-128775000D02*
X111774750Y-128775000D01*
G75*
G02*
X111525000Y-128525250I0J249750D01*
G01*
X111525000Y-127899750D01*
G75*
G02*
X111774750Y-127650000I249750J0D01*
G01*
X113025250Y-127650000D01*
G75*
G02*
X113275000Y-127899750I0J-249750D01*
G01*
X113275000Y-128525250D01*
G75*
G02*
X113025250Y-128775000I-249750J0D01*
G01*
G37*
%TD*%
%TO.C,R4*%
G36*
G01*
X116119900Y-128175000D02*
X115220100Y-128175000D01*
G75*
G02*
X114970000Y-127924900I0J250100D01*
G01*
X114970000Y-127400100D01*
G75*
G02*
X115220100Y-127150000I250100J0D01*
G01*
X116119900Y-127150000D01*
G75*
G02*
X116370000Y-127400100I0J-250100D01*
G01*
X116370000Y-127924900D01*
G75*
G02*
X116119900Y-128175000I-250100J0D01*
G01*
G37*
G36*
G01*
X116119900Y-126350000D02*
X115220100Y-126350000D01*
G75*
G02*
X114970000Y-126099900I0J250100D01*
G01*
X114970000Y-125575100D01*
G75*
G02*
X115220100Y-125325000I250100J0D01*
G01*
X116119900Y-125325000D01*
G75*
G02*
X116370000Y-125575100I0J-250100D01*
G01*
X116370000Y-126099900D01*
G75*
G02*
X116119900Y-126350000I-250100J0D01*
G01*
G37*
G36*
G01*
X116295250Y-125850000D02*
X115044750Y-125850000D01*
G75*
G02*
X114795000Y-125600250I0J249750D01*
G01*
X114795000Y-124974750D01*
G75*
G02*
X115044750Y-124725000I249750J0D01*
G01*
X116295250Y-124725000D01*
G75*
G02*
X116545000Y-124974750I0J-249750D01*
G01*
X116545000Y-125600250D01*
G75*
G02*
X116295250Y-125850000I-249750J0D01*
G01*
G37*
G36*
G01*
X116295250Y-128775000D02*
X115044750Y-128775000D01*
G75*
G02*
X114795000Y-128525250I0J249750D01*
G01*
X114795000Y-127899750D01*
G75*
G02*
X115044750Y-127650000I249750J0D01*
G01*
X116295250Y-127650000D01*
G75*
G02*
X116545000Y-127899750I0J-249750D01*
G01*
X116545000Y-128525250D01*
G75*
G02*
X116295250Y-128775000I-249750J0D01*
G01*
G37*
%TD*%
%TO.C,R3*%
G36*
G01*
X118619900Y-128175000D02*
X117720100Y-128175000D01*
G75*
G02*
X117470000Y-127924900I0J250100D01*
G01*
X117470000Y-127400100D01*
G75*
G02*
X117720100Y-127150000I250100J0D01*
G01*
X118619900Y-127150000D01*
G75*
G02*
X118870000Y-127400100I0J-250100D01*
G01*
X118870000Y-127924900D01*
G75*
G02*
X118619900Y-128175000I-250100J0D01*
G01*
G37*
G36*
G01*
X118619900Y-126350000D02*
X117720100Y-126350000D01*
G75*
G02*
X117470000Y-126099900I0J250100D01*
G01*
X117470000Y-125575100D01*
G75*
G02*
X117720100Y-125325000I250100J0D01*
G01*
X118619900Y-125325000D01*
G75*
G02*
X118870000Y-125575100I0J-250100D01*
G01*
X118870000Y-126099900D01*
G75*
G02*
X118619900Y-126350000I-250100J0D01*
G01*
G37*
G36*
G01*
X118795250Y-125850000D02*
X117544750Y-125850000D01*
G75*
G02*
X117295000Y-125600250I0J249750D01*
G01*
X117295000Y-124974750D01*
G75*
G02*
X117544750Y-124725000I249750J0D01*
G01*
X118795250Y-124725000D01*
G75*
G02*
X119045000Y-124974750I0J-249750D01*
G01*
X119045000Y-125600250D01*
G75*
G02*
X118795250Y-125850000I-249750J0D01*
G01*
G37*
G36*
G01*
X118795250Y-128775000D02*
X117544750Y-128775000D01*
G75*
G02*
X117295000Y-128525250I0J249750D01*
G01*
X117295000Y-127899750D01*
G75*
G02*
X117544750Y-127650000I249750J0D01*
G01*
X118795250Y-127650000D01*
G75*
G02*
X119045000Y-127899750I0J-249750D01*
G01*
X119045000Y-128525250D01*
G75*
G02*
X118795250Y-128775000I-249750J0D01*
G01*
G37*
%TD*%
%TO.C,R2*%
G36*
G01*
X121119900Y-128175000D02*
X120220100Y-128175000D01*
G75*
G02*
X119970000Y-127924900I0J250100D01*
G01*
X119970000Y-127400100D01*
G75*
G02*
X120220100Y-127150000I250100J0D01*
G01*
X121119900Y-127150000D01*
G75*
G02*
X121370000Y-127400100I0J-250100D01*
G01*
X121370000Y-127924900D01*
G75*
G02*
X121119900Y-128175000I-250100J0D01*
G01*
G37*
G36*
G01*
X121119900Y-126350000D02*
X120220100Y-126350000D01*
G75*
G02*
X119970000Y-126099900I0J250100D01*
G01*
X119970000Y-125575100D01*
G75*
G02*
X120220100Y-125325000I250100J0D01*
G01*
X121119900Y-125325000D01*
G75*
G02*
X121370000Y-125575100I0J-250100D01*
G01*
X121370000Y-126099900D01*
G75*
G02*
X121119900Y-126350000I-250100J0D01*
G01*
G37*
G36*
G01*
X121295250Y-125850000D02*
X120044750Y-125850000D01*
G75*
G02*
X119795000Y-125600250I0J249750D01*
G01*
X119795000Y-124974750D01*
G75*
G02*
X120044750Y-124725000I249750J0D01*
G01*
X121295250Y-124725000D01*
G75*
G02*
X121545000Y-124974750I0J-249750D01*
G01*
X121545000Y-125600250D01*
G75*
G02*
X121295250Y-125850000I-249750J0D01*
G01*
G37*
G36*
G01*
X121295250Y-128775000D02*
X120044750Y-128775000D01*
G75*
G02*
X119795000Y-128525250I0J249750D01*
G01*
X119795000Y-127899750D01*
G75*
G02*
X120044750Y-127650000I249750J0D01*
G01*
X121295250Y-127650000D01*
G75*
G02*
X121545000Y-127899750I0J-249750D01*
G01*
X121545000Y-128525250D01*
G75*
G02*
X121295250Y-128775000I-249750J0D01*
G01*
G37*
%TD*%
%TO.C,R1*%
G36*
G01*
X123619900Y-128175000D02*
X122720100Y-128175000D01*
G75*
G02*
X122470000Y-127924900I0J250100D01*
G01*
X122470000Y-127400100D01*
G75*
G02*
X122720100Y-127150000I250100J0D01*
G01*
X123619900Y-127150000D01*
G75*
G02*
X123870000Y-127400100I0J-250100D01*
G01*
X123870000Y-127924900D01*
G75*
G02*
X123619900Y-128175000I-250100J0D01*
G01*
G37*
G36*
G01*
X123619900Y-126350000D02*
X122720100Y-126350000D01*
G75*
G02*
X122470000Y-126099900I0J250100D01*
G01*
X122470000Y-125575100D01*
G75*
G02*
X122720100Y-125325000I250100J0D01*
G01*
X123619900Y-125325000D01*
G75*
G02*
X123870000Y-125575100I0J-250100D01*
G01*
X123870000Y-126099900D01*
G75*
G02*
X123619900Y-126350000I-250100J0D01*
G01*
G37*
G36*
G01*
X123795250Y-125850000D02*
X122544750Y-125850000D01*
G75*
G02*
X122295000Y-125600250I0J249750D01*
G01*
X122295000Y-124974750D01*
G75*
G02*
X122544750Y-124725000I249750J0D01*
G01*
X123795250Y-124725000D01*
G75*
G02*
X124045000Y-124974750I0J-249750D01*
G01*
X124045000Y-125600250D01*
G75*
G02*
X123795250Y-125850000I-249750J0D01*
G01*
G37*
G36*
G01*
X123795250Y-128775000D02*
X122544750Y-128775000D01*
G75*
G02*
X122295000Y-128525250I0J249750D01*
G01*
X122295000Y-127899750D01*
G75*
G02*
X122544750Y-127650000I249750J0D01*
G01*
X123795250Y-127650000D01*
G75*
G02*
X124045000Y-127899750I0J-249750D01*
G01*
X124045000Y-128525250D01*
G75*
G02*
X123795250Y-128775000I-249750J0D01*
G01*
G37*
%TD*%
%TO.C,C1*%
G36*
G01*
X127562500Y-119750100D02*
X127562500Y-120649900D01*
G75*
G02*
X127312400Y-120900000I-250100J0D01*
G01*
X126787600Y-120900000D01*
G75*
G02*
X126537500Y-120649900I0J250100D01*
G01*
X126537500Y-119750100D01*
G75*
G02*
X126787600Y-119500000I250100J0D01*
G01*
X127312400Y-119500000D01*
G75*
G02*
X127562500Y-119750100I0J-250100D01*
G01*
G37*
G36*
G01*
X125737500Y-119750100D02*
X125737500Y-120649900D01*
G75*
G02*
X125487400Y-120900000I-250100J0D01*
G01*
X124962600Y-120900000D01*
G75*
G02*
X124712500Y-120649900I0J250100D01*
G01*
X124712500Y-119750100D01*
G75*
G02*
X124962600Y-119500000I250100J0D01*
G01*
X125487400Y-119500000D01*
G75*
G02*
X125737500Y-119750100I0J-250100D01*
G01*
G37*
G36*
G01*
X125237500Y-119574750D02*
X125237500Y-120825250D01*
G75*
G02*
X124987750Y-121075000I-249750J0D01*
G01*
X124362250Y-121075000D01*
G75*
G02*
X124112500Y-120825250I0J249750D01*
G01*
X124112500Y-119574750D01*
G75*
G02*
X124362250Y-119325000I249750J0D01*
G01*
X124987750Y-119325000D01*
G75*
G02*
X125237500Y-119574750I0J-249750D01*
G01*
G37*
G36*
G01*
X128162500Y-119574750D02*
X128162500Y-120825250D01*
G75*
G02*
X127912750Y-121075000I-249750J0D01*
G01*
X127287250Y-121075000D01*
G75*
G02*
X127037500Y-120825250I0J249750D01*
G01*
X127037500Y-119574750D01*
G75*
G02*
X127287250Y-119325000I249750J0D01*
G01*
X127912750Y-119325000D01*
G75*
G02*
X128162500Y-119574750I0J-249750D01*
G01*
G37*
%TD*%
D12*
%TO.C,J1*%
X125745000Y-122900000D03*
D13*
X123205000Y-122900000D03*
X120665000Y-122900000D03*
X118125000Y-122900000D03*
X115585000Y-122900000D03*
X113045000Y-122900000D03*
%TD*%
%TO.C,C2*%
G36*
G01*
X114137500Y-111675000D02*
X113662500Y-111675000D01*
G75*
G02*
X113425000Y-111437500I0J237500D01*
G01*
X113425000Y-110837500D01*
G75*
G02*
X113662500Y-110600000I237500J0D01*
G01*
X114137500Y-110600000D01*
G75*
G02*
X114375000Y-110837500I0J-237500D01*
G01*
X114375000Y-111437500D01*
G75*
G02*
X114137500Y-111675000I-237500J0D01*
G01*
G37*
G36*
G01*
X114137500Y-113400000D02*
X113662500Y-113400000D01*
G75*
G02*
X113425000Y-113162500I0J237500D01*
G01*
X113425000Y-112562500D01*
G75*
G02*
X113662500Y-112325000I237500J0D01*
G01*
X114137500Y-112325000D01*
G75*
G02*
X114375000Y-112562500I0J-237500D01*
G01*
X114375000Y-113162500D01*
G75*
G02*
X114137500Y-113400000I-237500J0D01*
G01*
G37*
%TD*%
D14*
%TO.C,U2*%
X118025000Y-117025000D03*
D15*
X116025000Y-119025000D03*
D16*
G36*
X119025000Y-116025000D02*
G01*
X119025000Y-118025000D01*
X117275000Y-118025000D01*
X117025000Y-117775000D01*
X117025000Y-116025000D01*
X119025000Y-116025000D01*
G37*
G36*
G01*
X116462500Y-118150000D02*
X115587500Y-118150000D01*
G75*
G02*
X115525000Y-118087500I0J62500D01*
G01*
X115525000Y-117962500D01*
G75*
G02*
X115587500Y-117900000I62500J0D01*
G01*
X116462500Y-117900000D01*
G75*
G02*
X116525000Y-117962500I0J-62500D01*
G01*
X116525000Y-118087500D01*
G75*
G02*
X116462500Y-118150000I-62500J0D01*
G01*
G37*
G36*
G01*
X116462500Y-117650000D02*
X115587500Y-117650000D01*
G75*
G02*
X115525000Y-117587500I0J62500D01*
G01*
X115525000Y-117462500D01*
G75*
G02*
X115587500Y-117400000I62500J0D01*
G01*
X116462500Y-117400000D01*
G75*
G02*
X116525000Y-117462500I0J-62500D01*
G01*
X116525000Y-117587500D01*
G75*
G02*
X116462500Y-117650000I-62500J0D01*
G01*
G37*
G36*
G01*
X116462500Y-117150000D02*
X115587500Y-117150000D01*
G75*
G02*
X115525000Y-117087500I0J62500D01*
G01*
X115525000Y-116962500D01*
G75*
G02*
X115587500Y-116900000I62500J0D01*
G01*
X116462500Y-116900000D01*
G75*
G02*
X116525000Y-116962500I0J-62500D01*
G01*
X116525000Y-117087500D01*
G75*
G02*
X116462500Y-117150000I-62500J0D01*
G01*
G37*
G36*
G01*
X116462500Y-116650000D02*
X115587500Y-116650000D01*
G75*
G02*
X115525000Y-116587500I0J62500D01*
G01*
X115525000Y-116462500D01*
G75*
G02*
X115587500Y-116400000I62500J0D01*
G01*
X116462500Y-116400000D01*
G75*
G02*
X116525000Y-116462500I0J-62500D01*
G01*
X116525000Y-116587500D01*
G75*
G02*
X116462500Y-116650000I-62500J0D01*
G01*
G37*
G36*
G01*
X116462500Y-116150000D02*
X115587500Y-116150000D01*
G75*
G02*
X115525000Y-116087500I0J62500D01*
G01*
X115525000Y-115962500D01*
G75*
G02*
X115587500Y-115900000I62500J0D01*
G01*
X116462500Y-115900000D01*
G75*
G02*
X116525000Y-115962500I0J-62500D01*
G01*
X116525000Y-116087500D01*
G75*
G02*
X116462500Y-116150000I-62500J0D01*
G01*
G37*
G36*
G01*
X117087500Y-115525000D02*
X116962500Y-115525000D01*
G75*
G02*
X116900000Y-115462500I0J62500D01*
G01*
X116900000Y-114587500D01*
G75*
G02*
X116962500Y-114525000I62500J0D01*
G01*
X117087500Y-114525000D01*
G75*
G02*
X117150000Y-114587500I0J-62500D01*
G01*
X117150000Y-115462500D01*
G75*
G02*
X117087500Y-115525000I-62500J0D01*
G01*
G37*
G36*
G01*
X117587500Y-115525000D02*
X117462500Y-115525000D01*
G75*
G02*
X117400000Y-115462500I0J62500D01*
G01*
X117400000Y-114587500D01*
G75*
G02*
X117462500Y-114525000I62500J0D01*
G01*
X117587500Y-114525000D01*
G75*
G02*
X117650000Y-114587500I0J-62500D01*
G01*
X117650000Y-115462500D01*
G75*
G02*
X117587500Y-115525000I-62500J0D01*
G01*
G37*
G36*
G01*
X118087500Y-115525000D02*
X117962500Y-115525000D01*
G75*
G02*
X117900000Y-115462500I0J62500D01*
G01*
X117900000Y-114587500D01*
G75*
G02*
X117962500Y-114525000I62500J0D01*
G01*
X118087500Y-114525000D01*
G75*
G02*
X118150000Y-114587500I0J-62500D01*
G01*
X118150000Y-115462500D01*
G75*
G02*
X118087500Y-115525000I-62500J0D01*
G01*
G37*
G36*
G01*
X118587500Y-115525000D02*
X118462500Y-115525000D01*
G75*
G02*
X118400000Y-115462500I0J62500D01*
G01*
X118400000Y-114587500D01*
G75*
G02*
X118462500Y-114525000I62500J0D01*
G01*
X118587500Y-114525000D01*
G75*
G02*
X118650000Y-114587500I0J-62500D01*
G01*
X118650000Y-115462500D01*
G75*
G02*
X118587500Y-115525000I-62500J0D01*
G01*
G37*
G36*
G01*
X119087500Y-115525000D02*
X118962500Y-115525000D01*
G75*
G02*
X118900000Y-115462500I0J62500D01*
G01*
X118900000Y-114587500D01*
G75*
G02*
X118962500Y-114525000I62500J0D01*
G01*
X119087500Y-114525000D01*
G75*
G02*
X119150000Y-114587500I0J-62500D01*
G01*
X119150000Y-115462500D01*
G75*
G02*
X119087500Y-115525000I-62500J0D01*
G01*
G37*
G36*
G01*
X120462500Y-116150000D02*
X119587500Y-116150000D01*
G75*
G02*
X119525000Y-116087500I0J62500D01*
G01*
X119525000Y-115962500D01*
G75*
G02*
X119587500Y-115900000I62500J0D01*
G01*
X120462500Y-115900000D01*
G75*
G02*
X120525000Y-115962500I0J-62500D01*
G01*
X120525000Y-116087500D01*
G75*
G02*
X120462500Y-116150000I-62500J0D01*
G01*
G37*
G36*
G01*
X120462500Y-116650000D02*
X119587500Y-116650000D01*
G75*
G02*
X119525000Y-116587500I0J62500D01*
G01*
X119525000Y-116462500D01*
G75*
G02*
X119587500Y-116400000I62500J0D01*
G01*
X120462500Y-116400000D01*
G75*
G02*
X120525000Y-116462500I0J-62500D01*
G01*
X120525000Y-116587500D01*
G75*
G02*
X120462500Y-116650000I-62500J0D01*
G01*
G37*
G36*
G01*
X120462500Y-117150000D02*
X119587500Y-117150000D01*
G75*
G02*
X119525000Y-117087500I0J62500D01*
G01*
X119525000Y-116962500D01*
G75*
G02*
X119587500Y-116900000I62500J0D01*
G01*
X120462500Y-116900000D01*
G75*
G02*
X120525000Y-116962500I0J-62500D01*
G01*
X120525000Y-117087500D01*
G75*
G02*
X120462500Y-117150000I-62500J0D01*
G01*
G37*
G36*
G01*
X120462500Y-117650000D02*
X119587500Y-117650000D01*
G75*
G02*
X119525000Y-117587500I0J62500D01*
G01*
X119525000Y-117462500D01*
G75*
G02*
X119587500Y-117400000I62500J0D01*
G01*
X120462500Y-117400000D01*
G75*
G02*
X120525000Y-117462500I0J-62500D01*
G01*
X120525000Y-117587500D01*
G75*
G02*
X120462500Y-117650000I-62500J0D01*
G01*
G37*
G36*
G01*
X120462500Y-118150000D02*
X119587500Y-118150000D01*
G75*
G02*
X119525000Y-118087500I0J62500D01*
G01*
X119525000Y-117962500D01*
G75*
G02*
X119587500Y-117900000I62500J0D01*
G01*
X120462500Y-117900000D01*
G75*
G02*
X120525000Y-117962500I0J-62500D01*
G01*
X120525000Y-118087500D01*
G75*
G02*
X120462500Y-118150000I-62500J0D01*
G01*
G37*
G36*
G01*
X119087500Y-119525000D02*
X118962500Y-119525000D01*
G75*
G02*
X118900000Y-119462500I0J62500D01*
G01*
X118900000Y-118587500D01*
G75*
G02*
X118962500Y-118525000I62500J0D01*
G01*
X119087500Y-118525000D01*
G75*
G02*
X119150000Y-118587500I0J-62500D01*
G01*
X119150000Y-119462500D01*
G75*
G02*
X119087500Y-119525000I-62500J0D01*
G01*
G37*
G36*
G01*
X118587500Y-119525000D02*
X118462500Y-119525000D01*
G75*
G02*
X118400000Y-119462500I0J62500D01*
G01*
X118400000Y-118587500D01*
G75*
G02*
X118462500Y-118525000I62500J0D01*
G01*
X118587500Y-118525000D01*
G75*
G02*
X118650000Y-118587500I0J-62500D01*
G01*
X118650000Y-119462500D01*
G75*
G02*
X118587500Y-119525000I-62500J0D01*
G01*
G37*
G36*
G01*
X118087500Y-119525000D02*
X117962500Y-119525000D01*
G75*
G02*
X117900000Y-119462500I0J62500D01*
G01*
X117900000Y-118587500D01*
G75*
G02*
X117962500Y-118525000I62500J0D01*
G01*
X118087500Y-118525000D01*
G75*
G02*
X118150000Y-118587500I0J-62500D01*
G01*
X118150000Y-119462500D01*
G75*
G02*
X118087500Y-119525000I-62500J0D01*
G01*
G37*
G36*
G01*
X117587500Y-119525000D02*
X117462500Y-119525000D01*
G75*
G02*
X117400000Y-119462500I0J62500D01*
G01*
X117400000Y-118587500D01*
G75*
G02*
X117462500Y-118525000I62500J0D01*
G01*
X117587500Y-118525000D01*
G75*
G02*
X117650000Y-118587500I0J-62500D01*
G01*
X117650000Y-119462500D01*
G75*
G02*
X117587500Y-119525000I-62500J0D01*
G01*
G37*
G36*
G01*
X117087500Y-119525000D02*
X116962500Y-119525000D01*
G75*
G02*
X116900000Y-119462500I0J62500D01*
G01*
X116900000Y-118587500D01*
G75*
G02*
X116962500Y-118525000I62500J0D01*
G01*
X117087500Y-118525000D01*
G75*
G02*
X117150000Y-118587500I0J-62500D01*
G01*
X117150000Y-119462500D01*
G75*
G02*
X117087500Y-119525000I-62500J0D01*
G01*
G37*
%TD*%
D13*
%TO.C,J3*%
X126700000Y-125660000D03*
D12*
X126700000Y-128200000D03*
%TD*%
D16*
%TO.C,J2*%
G36*
X122115684Y-114386936D02*
G01*
X122117553Y-114374868D01*
X122120589Y-114363040D01*
X122124766Y-114351563D01*
X122130043Y-114340550D01*
X122136369Y-114330103D01*
X122143684Y-114320325D01*
X122151919Y-114311306D01*
X122160995Y-114303134D01*
X122170824Y-114295886D01*
X122181314Y-114289634D01*
X122192364Y-114284433D01*
X122203868Y-114280336D01*
X122215718Y-114277381D01*
X122227800Y-114275597D01*
X122239998Y-114275000D01*
X122252195Y-114275597D01*
X122264277Y-114277380D01*
X122276127Y-114280335D01*
X122287631Y-114284431D01*
X122298682Y-114289631D01*
X122309172Y-114295884D01*
X122319002Y-114303131D01*
X122328077Y-114311303D01*
X122336312Y-114320320D01*
X122343628Y-114330099D01*
X122349954Y-114340545D01*
X122355232Y-114351558D01*
X122359409Y-114363034D01*
X122362446Y-114374863D01*
X122364315Y-114386932D01*
X122364997Y-114399125D01*
X122365082Y-114411210D01*
X122371318Y-114510337D01*
X122386779Y-114605799D01*
X122411485Y-114699306D01*
X122445193Y-114789942D01*
X122487585Y-114876861D01*
X122538261Y-114959234D01*
X122596731Y-115036265D01*
X122662437Y-115107221D01*
X122734760Y-115171431D01*
X122812991Y-115228269D01*
X122896404Y-115277208D01*
X122984191Y-115317772D01*
X123075523Y-115349577D01*
X123169522Y-115372318D01*
X123215977Y-115378847D01*
X123298150Y-115373677D01*
X123610000Y-115323168D01*
X123610000Y-114198629D01*
X123358200Y-114214471D01*
X123356458Y-114214569D01*
X123353835Y-114214569D01*
X123351225Y-114214715D01*
X123310874Y-114214997D01*
X123309129Y-114214997D01*
X123296934Y-114214315D01*
X123284866Y-114212447D01*
X123273038Y-114209410D01*
X123261561Y-114205233D01*
X123250548Y-114199956D01*
X123240102Y-114193630D01*
X123230323Y-114186315D01*
X123221304Y-114178080D01*
X123213133Y-114169004D01*
X123205885Y-114159174D01*
X123199632Y-114148685D01*
X123194432Y-114137635D01*
X123190336Y-114126130D01*
X123187381Y-114114281D01*
X123185596Y-114102199D01*
X123185000Y-114090001D01*
X123185597Y-114077803D01*
X123187380Y-114065721D01*
X123190335Y-114053871D01*
X123194431Y-114042367D01*
X123199631Y-114031317D01*
X123205884Y-114020827D01*
X123213132Y-114010997D01*
X123221303Y-114001922D01*
X123230321Y-113993686D01*
X123240100Y-113986371D01*
X123250546Y-113980045D01*
X123261560Y-113974768D01*
X123273036Y-113970590D01*
X123284865Y-113967554D01*
X123296933Y-113965685D01*
X123309126Y-113965003D01*
X123345993Y-113964745D01*
X123610000Y-113948135D01*
X123610000Y-108452804D01*
X123579804Y-108448345D01*
X123303894Y-108434851D01*
X123302151Y-108434754D01*
X123290014Y-108433392D01*
X123278069Y-108430852D01*
X123266429Y-108427160D01*
X123255203Y-108422349D01*
X123244502Y-108416466D01*
X123234425Y-108409566D01*
X123225070Y-108401717D01*
X123216525Y-108392991D01*
X123208873Y-108383473D01*
X123202185Y-108373254D01*
X123196528Y-108362431D01*
X123191953Y-108351108D01*
X123188505Y-108339393D01*
X123186216Y-108327397D01*
X123185109Y-108315234D01*
X123185195Y-108303022D01*
X123186472Y-108290877D01*
X123188927Y-108278913D01*
X123192538Y-108267247D01*
X123197271Y-108255990D01*
X123203080Y-108245247D01*
X123209908Y-108235122D01*
X123217693Y-108225712D01*
X123226359Y-108217107D01*
X123235822Y-108209388D01*
X123245995Y-108202630D01*
X123256778Y-108196897D01*
X123268069Y-108192243D01*
X123279760Y-108188713D01*
X123291740Y-108186341D01*
X123303894Y-108185150D01*
X123316106Y-108185149D01*
X123598121Y-108198942D01*
X123599864Y-108199039D01*
X123605118Y-108199629D01*
X123610000Y-108200107D01*
X123610000Y-107074855D01*
X123239837Y-107020194D01*
X123226039Y-107019519D01*
X123155967Y-107030366D01*
X123062290Y-107054419D01*
X122971416Y-107087494D01*
X122884204Y-107129279D01*
X122801485Y-107179375D01*
X122724049Y-107237304D01*
X122652633Y-107302517D01*
X122587918Y-107374388D01*
X122530530Y-107452229D01*
X122481010Y-107535300D01*
X122439835Y-107622803D01*
X122407398Y-107713899D01*
X122384001Y-107807739D01*
X122369873Y-107903406D01*
X122364851Y-108006106D01*
X122364754Y-108007848D01*
X122363392Y-108019985D01*
X122360853Y-108031930D01*
X122357161Y-108043571D01*
X122352350Y-108054796D01*
X122346466Y-108065498D01*
X122339566Y-108075575D01*
X122331717Y-108084929D01*
X122322991Y-108093474D01*
X122313473Y-108101127D01*
X122303254Y-108107814D01*
X122292432Y-108113472D01*
X122281109Y-108118047D01*
X122269394Y-108121495D01*
X122257397Y-108123784D01*
X122245235Y-108124891D01*
X122233022Y-108124805D01*
X122220877Y-108123528D01*
X122208914Y-108121073D01*
X122197247Y-108117462D01*
X122185990Y-108112729D01*
X122175247Y-108106921D01*
X122165123Y-108100092D01*
X122155713Y-108092307D01*
X122147108Y-108083641D01*
X122139389Y-108074178D01*
X122132630Y-108064006D01*
X122126897Y-108053223D01*
X122122243Y-108041932D01*
X122118713Y-108030241D01*
X122116341Y-108018261D01*
X122115150Y-108006107D01*
X122115149Y-107993894D01*
X122120470Y-107885089D01*
X122120567Y-107883347D01*
X122121155Y-107878103D01*
X122121662Y-107872934D01*
X122137576Y-107765168D01*
X122137843Y-107763443D01*
X122138934Y-107758311D01*
X122139948Y-107753188D01*
X122166302Y-107647489D01*
X122166736Y-107645799D01*
X122168324Y-107640793D01*
X122169832Y-107635799D01*
X122206374Y-107533176D01*
X122206970Y-107531536D01*
X122209038Y-107526712D01*
X122211027Y-107521885D01*
X122257409Y-107423318D01*
X122258163Y-107421744D01*
X122260680Y-107417166D01*
X122263143Y-107412533D01*
X122318923Y-107318963D01*
X122319827Y-107317470D01*
X122322784Y-107313151D01*
X122325681Y-107308791D01*
X122390325Y-107221110D01*
X122391371Y-107219712D01*
X122394746Y-107215690D01*
X122398044Y-107211645D01*
X122470936Y-107130691D01*
X122472113Y-107129402D01*
X122475873Y-107125720D01*
X122479541Y-107122026D01*
X122559984Y-107048572D01*
X122561280Y-107047404D01*
X122565400Y-107044092D01*
X122569394Y-107040787D01*
X122656622Y-106975532D01*
X122658026Y-106974496D01*
X122662414Y-106971625D01*
X122666747Y-106968702D01*
X122720944Y-106935879D01*
X122716529Y-106927432D01*
X122711953Y-106916109D01*
X122708506Y-106904393D01*
X122706217Y-106892397D01*
X122705110Y-106880235D01*
X122705195Y-106868022D01*
X122706472Y-106855877D01*
X122708927Y-106843914D01*
X122712539Y-106832247D01*
X122717271Y-106820990D01*
X122723080Y-106810247D01*
X122729909Y-106800122D01*
X122737694Y-106790712D01*
X122746359Y-106782107D01*
X122755823Y-106774388D01*
X122765995Y-106767630D01*
X122776778Y-106761897D01*
X122788069Y-106757243D01*
X122799760Y-106753713D01*
X122811740Y-106751341D01*
X122823894Y-106750150D01*
X122836107Y-106750149D01*
X123212891Y-106768576D01*
X123219327Y-106767580D01*
X123221053Y-106767324D01*
X123226303Y-106766847D01*
X123231473Y-106766303D01*
X123340238Y-106760222D01*
X123341981Y-106760136D01*
X123347257Y-106760173D01*
X123352450Y-106760137D01*
X123461290Y-106764699D01*
X123463033Y-106764784D01*
X123468232Y-106765331D01*
X123473452Y-106765806D01*
X123581327Y-106780967D01*
X123583053Y-106781221D01*
X123588226Y-106782283D01*
X123593323Y-106783255D01*
X123699203Y-106808870D01*
X123700897Y-106809292D01*
X123705911Y-106810844D01*
X123710920Y-106812318D01*
X123813794Y-106848143D01*
X123815438Y-106848728D01*
X123820277Y-106850762D01*
X123825118Y-106852718D01*
X123893199Y-106884176D01*
X124110303Y-106938306D01*
X124111993Y-106938740D01*
X124116988Y-106940324D01*
X124121994Y-106941836D01*
X124369587Y-107030000D01*
X126760000Y-107030000D01*
X126760000Y-106450000D01*
X127260000Y-106450000D01*
X127260000Y-107030000D01*
X129100000Y-107030000D01*
X129100000Y-115370000D01*
X127260000Y-115370000D01*
X127260000Y-115950000D01*
X126760000Y-115950000D01*
X126760000Y-115370000D01*
X124368766Y-115370000D01*
X124181322Y-115439710D01*
X124179682Y-115440307D01*
X124174675Y-115441819D01*
X124169681Y-115443403D01*
X123889421Y-115517450D01*
X123841091Y-115540606D01*
X123839512Y-115541349D01*
X123834651Y-115543313D01*
X123829833Y-115545338D01*
X123727466Y-115582597D01*
X123725822Y-115583182D01*
X123720796Y-115584661D01*
X123715800Y-115586208D01*
X123610288Y-115613299D01*
X123608595Y-115613721D01*
X123603433Y-115614706D01*
X123598325Y-115615755D01*
X123490673Y-115632420D01*
X123488946Y-115632676D01*
X123483704Y-115633153D01*
X123478527Y-115633697D01*
X123369762Y-115639778D01*
X123368019Y-115639864D01*
X123362743Y-115639827D01*
X123357549Y-115639863D01*
X123248710Y-115635301D01*
X123246967Y-115635216D01*
X123241747Y-115634667D01*
X123236548Y-115634194D01*
X123206330Y-115629947D01*
X122898235Y-115649331D01*
X122896492Y-115649429D01*
X122893869Y-115649429D01*
X122891259Y-115649575D01*
X122830874Y-115649997D01*
X122829128Y-115649997D01*
X122816934Y-115649315D01*
X122804866Y-115647447D01*
X122793038Y-115644410D01*
X122781561Y-115640233D01*
X122770548Y-115634956D01*
X122760101Y-115628630D01*
X122750323Y-115621315D01*
X122741304Y-115613080D01*
X122733133Y-115604004D01*
X122725885Y-115594174D01*
X122719632Y-115583685D01*
X122714432Y-115572635D01*
X122710336Y-115561130D01*
X122707381Y-115549280D01*
X122705596Y-115537199D01*
X122705000Y-115525001D01*
X122705597Y-115512803D01*
X122707380Y-115500721D01*
X122710335Y-115488871D01*
X122714431Y-115477367D01*
X122719631Y-115466317D01*
X122720943Y-115464116D01*
X122681213Y-115440806D01*
X122679714Y-115439913D01*
X122675358Y-115436975D01*
X122670994Y-115434119D01*
X122582864Y-115370089D01*
X122581459Y-115369054D01*
X122577412Y-115365706D01*
X122573346Y-115362437D01*
X122491884Y-115290112D01*
X122490587Y-115288944D01*
X122486868Y-115285199D01*
X122483159Y-115281567D01*
X122409144Y-115201638D01*
X122407967Y-115200350D01*
X122404641Y-115196272D01*
X122401294Y-115192283D01*
X122335432Y-115105513D01*
X122334386Y-115104116D01*
X122331467Y-115099722D01*
X122328532Y-115095436D01*
X122271452Y-115002653D01*
X122270548Y-115001160D01*
X122268068Y-114996496D01*
X122265569Y-114991951D01*
X122217819Y-114894050D01*
X122217815Y-114894042D01*
X122217811Y-114894033D01*
X122217061Y-114892468D01*
X122215072Y-114887641D01*
X122213004Y-114882817D01*
X122175032Y-114780714D01*
X122174435Y-114779074D01*
X122172923Y-114774067D01*
X122171339Y-114769073D01*
X122143512Y-114663753D01*
X122143078Y-114662063D01*
X122142058Y-114656910D01*
X122140973Y-114651806D01*
X122123557Y-114544273D01*
X122123290Y-114542548D01*
X122122778Y-114537324D01*
X122122196Y-114532137D01*
X122115356Y-114423417D01*
X122115258Y-114421674D01*
X122115258Y-114419053D01*
X122115112Y-114416443D01*
X122115003Y-114400876D01*
X122115003Y-114399131D01*
X122115684Y-114386936D01*
G37*
D17*
X122240000Y-113600000D03*
X122240000Y-108800000D03*
D18*
X127010000Y-106875000D03*
X127010000Y-115525000D03*
D19*
X122830000Y-106875000D03*
X122830000Y-115525000D03*
D20*
X122240000Y-110950000D03*
X122240000Y-111450000D03*
X122240000Y-110450000D03*
X122240000Y-111950000D03*
X122240000Y-109950000D03*
X122240000Y-112450000D03*
X122240000Y-109450000D03*
X122240000Y-112950000D03*
D17*
X122240000Y-108000000D03*
X122240000Y-114400000D03*
%TD*%
M02*
