M48
; DRILL file {KiCad (5.1.9-0-10_14)} date Thursday, April 22, 2021 at 10:32:21 AM
; FORMAT={-:-/ absolute / inch / decimal}
; #@! TF.CreationDate,2021-04-22T10:32:21+01:00
; #@! TF.GenerationSoftware,Kicad,Pcbnew,(5.1.9-0-10_14)
; #@! TF.FileFunction,Plated,1,2,PTH
FMAT,2
INCH
T1C0.0157
T2C0.0236
T3C0.0300
T4C0.0335
T5C0.0394
T6C0.0472
T7C0.0591
%
G90
G05
T1
X4.3701Y-4.5774
X4.435Y-4.0276
X4.4374Y-4.5967
X4.4736Y-4.9754
X4.4828Y-4.5773
X4.5394Y-4.636
X4.62Y-4.587
X4.6515Y-4.4795
X4.6526Y-4.1669
X4.7094Y-4.1652
X4.7863Y-4.1751
X4.874Y-4.6537
X4.8869Y-4.2127
X4.9458Y-4.2075
X4.9606Y-4.1063
X4.9764Y-4.6417
X4.9769Y-4.2318
X4.9803Y-5.0512
X5.0394Y-4.6274
T2
X4.5508Y-4.2642
X4.5508Y-4.4917
T3
X4.7589Y-4.6073
T4
X4.4579Y-4.8386
X4.5563Y-4.8386
X4.6547Y-4.8386
X4.7531Y-4.8386
X4.8516Y-4.8386
X4.95Y-4.8386
T5
X4.4173Y-4.9472
X4.4173Y-5.0472
X4.924Y-4.0264
T6
X4.4051Y-4.2077
X4.4051Y-4.5482
T7
X4.5697Y-4.2077
X4.5697Y-4.5482
T0
M30
