%TF.GenerationSoftware,KiCad,Pcbnew,(5.1.9-0-10_14)*%
%TF.CreationDate,2021-04-22T10:32:22+01:00*%
%TF.ProjectId,Generic,47656e65-7269-4632-9e6b-696361645f70,2*%
%TF.SameCoordinates,Original*%
%TF.FileFunction,Paste,Bot*%
%TF.FilePolarity,Positive*%
%FSLAX46Y46*%
G04 Gerber Fmt 4.6, Leading zero omitted, Abs format (unit mm)*
G04 Created by KiCad (PCBNEW (5.1.9-0-10_14)) date 2021-04-22 10:32:22*
%MOMM*%
%LPD*%
G01*
G04 APERTURE LIST*
%ADD10C,1.700000*%
%ADD11R,1.140000X0.600000*%
%ADD12R,1.140000X0.300000*%
G04 APERTURE END LIST*
%TO.C,U2*%
G36*
G01*
X120505000Y-116905000D02*
X119995000Y-116905000D01*
G75*
G02*
X119745000Y-116655000I0J250000D01*
G01*
X119745000Y-116145000D01*
G75*
G02*
X119995000Y-115895000I250000J0D01*
G01*
X120505000Y-115895000D01*
G75*
G02*
X120755000Y-116145000I0J-250000D01*
G01*
X120755000Y-116655000D01*
G75*
G02*
X120505000Y-116905000I-250000J0D01*
G01*
G37*
G36*
G01*
X121755000Y-116905000D02*
X121245000Y-116905000D01*
G75*
G02*
X120995000Y-116655000I0J250000D01*
G01*
X120995000Y-116145000D01*
G75*
G02*
X121245000Y-115895000I250000J0D01*
G01*
X121755000Y-115895000D01*
G75*
G02*
X122005000Y-116145000I0J-250000D01*
G01*
X122005000Y-116655000D01*
G75*
G02*
X121755000Y-116905000I-250000J0D01*
G01*
G37*
G36*
G01*
X120505000Y-118155000D02*
X119995000Y-118155000D01*
G75*
G02*
X119745000Y-117905000I0J250000D01*
G01*
X119745000Y-117395000D01*
G75*
G02*
X119995000Y-117145000I250000J0D01*
G01*
X120505000Y-117145000D01*
G75*
G02*
X120755000Y-117395000I0J-250000D01*
G01*
X120755000Y-117905000D01*
G75*
G02*
X120505000Y-118155000I-250000J0D01*
G01*
G37*
G36*
G01*
X121755000Y-118155000D02*
X121245000Y-118155000D01*
G75*
G02*
X120995000Y-117905000I0J250000D01*
G01*
X120995000Y-117395000D01*
G75*
G02*
X121245000Y-117145000I250000J0D01*
G01*
X121755000Y-117145000D01*
G75*
G02*
X122005000Y-117395000I0J-250000D01*
G01*
X122005000Y-117905000D01*
G75*
G02*
X121755000Y-118155000I-250000J0D01*
G01*
G37*
G36*
G01*
X123337500Y-118150000D02*
X122462500Y-118150000D01*
G75*
G02*
X122400000Y-118087500I0J62500D01*
G01*
X122400000Y-117962500D01*
G75*
G02*
X122462500Y-117900000I62500J0D01*
G01*
X123337500Y-117900000D01*
G75*
G02*
X123400000Y-117962500I0J-62500D01*
G01*
X123400000Y-118087500D01*
G75*
G02*
X123337500Y-118150000I-62500J0D01*
G01*
G37*
G36*
G01*
X123337500Y-117650000D02*
X122462500Y-117650000D01*
G75*
G02*
X122400000Y-117587500I0J62500D01*
G01*
X122400000Y-117462500D01*
G75*
G02*
X122462500Y-117400000I62500J0D01*
G01*
X123337500Y-117400000D01*
G75*
G02*
X123400000Y-117462500I0J-62500D01*
G01*
X123400000Y-117587500D01*
G75*
G02*
X123337500Y-117650000I-62500J0D01*
G01*
G37*
G36*
G01*
X123337500Y-117150000D02*
X122462500Y-117150000D01*
G75*
G02*
X122400000Y-117087500I0J62500D01*
G01*
X122400000Y-116962500D01*
G75*
G02*
X122462500Y-116900000I62500J0D01*
G01*
X123337500Y-116900000D01*
G75*
G02*
X123400000Y-116962500I0J-62500D01*
G01*
X123400000Y-117087500D01*
G75*
G02*
X123337500Y-117150000I-62500J0D01*
G01*
G37*
G36*
G01*
X123337500Y-116650000D02*
X122462500Y-116650000D01*
G75*
G02*
X122400000Y-116587500I0J62500D01*
G01*
X122400000Y-116462500D01*
G75*
G02*
X122462500Y-116400000I62500J0D01*
G01*
X123337500Y-116400000D01*
G75*
G02*
X123400000Y-116462500I0J-62500D01*
G01*
X123400000Y-116587500D01*
G75*
G02*
X123337500Y-116650000I-62500J0D01*
G01*
G37*
G36*
G01*
X123337500Y-116150000D02*
X122462500Y-116150000D01*
G75*
G02*
X122400000Y-116087500I0J62500D01*
G01*
X122400000Y-115962500D01*
G75*
G02*
X122462500Y-115900000I62500J0D01*
G01*
X123337500Y-115900000D01*
G75*
G02*
X123400000Y-115962500I0J-62500D01*
G01*
X123400000Y-116087500D01*
G75*
G02*
X123337500Y-116150000I-62500J0D01*
G01*
G37*
G36*
G01*
X121937500Y-115500000D02*
X121812500Y-115500000D01*
G75*
G02*
X121750000Y-115437500I0J62500D01*
G01*
X121750000Y-114562500D01*
G75*
G02*
X121812500Y-114500000I62500J0D01*
G01*
X121937500Y-114500000D01*
G75*
G02*
X122000000Y-114562500I0J-62500D01*
G01*
X122000000Y-115437500D01*
G75*
G02*
X121937500Y-115500000I-62500J0D01*
G01*
G37*
G36*
G01*
X121437500Y-115500000D02*
X121312500Y-115500000D01*
G75*
G02*
X121250000Y-115437500I0J62500D01*
G01*
X121250000Y-114562500D01*
G75*
G02*
X121312500Y-114500000I62500J0D01*
G01*
X121437500Y-114500000D01*
G75*
G02*
X121500000Y-114562500I0J-62500D01*
G01*
X121500000Y-115437500D01*
G75*
G02*
X121437500Y-115500000I-62500J0D01*
G01*
G37*
G36*
G01*
X120937500Y-115500000D02*
X120812500Y-115500000D01*
G75*
G02*
X120750000Y-115437500I0J62500D01*
G01*
X120750000Y-114562500D01*
G75*
G02*
X120812500Y-114500000I62500J0D01*
G01*
X120937500Y-114500000D01*
G75*
G02*
X121000000Y-114562500I0J-62500D01*
G01*
X121000000Y-115437500D01*
G75*
G02*
X120937500Y-115500000I-62500J0D01*
G01*
G37*
G36*
G01*
X120437500Y-115500000D02*
X120312500Y-115500000D01*
G75*
G02*
X120250000Y-115437500I0J62500D01*
G01*
X120250000Y-114562500D01*
G75*
G02*
X120312500Y-114500000I62500J0D01*
G01*
X120437500Y-114500000D01*
G75*
G02*
X120500000Y-114562500I0J-62500D01*
G01*
X120500000Y-115437500D01*
G75*
G02*
X120437500Y-115500000I-62500J0D01*
G01*
G37*
G36*
G01*
X119937500Y-115500000D02*
X119812500Y-115500000D01*
G75*
G02*
X119750000Y-115437500I0J62500D01*
G01*
X119750000Y-114562500D01*
G75*
G02*
X119812500Y-114500000I62500J0D01*
G01*
X119937500Y-114500000D01*
G75*
G02*
X120000000Y-114562500I0J-62500D01*
G01*
X120000000Y-115437500D01*
G75*
G02*
X119937500Y-115500000I-62500J0D01*
G01*
G37*
G36*
G01*
X119287500Y-116150000D02*
X118412500Y-116150000D01*
G75*
G02*
X118350000Y-116087500I0J62500D01*
G01*
X118350000Y-115962500D01*
G75*
G02*
X118412500Y-115900000I62500J0D01*
G01*
X119287500Y-115900000D01*
G75*
G02*
X119350000Y-115962500I0J-62500D01*
G01*
X119350000Y-116087500D01*
G75*
G02*
X119287500Y-116150000I-62500J0D01*
G01*
G37*
G36*
G01*
X119287500Y-116650000D02*
X118412500Y-116650000D01*
G75*
G02*
X118350000Y-116587500I0J62500D01*
G01*
X118350000Y-116462500D01*
G75*
G02*
X118412500Y-116400000I62500J0D01*
G01*
X119287500Y-116400000D01*
G75*
G02*
X119350000Y-116462500I0J-62500D01*
G01*
X119350000Y-116587500D01*
G75*
G02*
X119287500Y-116650000I-62500J0D01*
G01*
G37*
G36*
G01*
X119287500Y-117150000D02*
X118412500Y-117150000D01*
G75*
G02*
X118350000Y-117087500I0J62500D01*
G01*
X118350000Y-116962500D01*
G75*
G02*
X118412500Y-116900000I62500J0D01*
G01*
X119287500Y-116900000D01*
G75*
G02*
X119350000Y-116962500I0J-62500D01*
G01*
X119350000Y-117087500D01*
G75*
G02*
X119287500Y-117150000I-62500J0D01*
G01*
G37*
G36*
G01*
X119287500Y-117650000D02*
X118412500Y-117650000D01*
G75*
G02*
X118350000Y-117587500I0J62500D01*
G01*
X118350000Y-117462500D01*
G75*
G02*
X118412500Y-117400000I62500J0D01*
G01*
X119287500Y-117400000D01*
G75*
G02*
X119350000Y-117462500I0J-62500D01*
G01*
X119350000Y-117587500D01*
G75*
G02*
X119287500Y-117650000I-62500J0D01*
G01*
G37*
G36*
G01*
X119287500Y-118150000D02*
X118412500Y-118150000D01*
G75*
G02*
X118350000Y-118087500I0J62500D01*
G01*
X118350000Y-117962500D01*
G75*
G02*
X118412500Y-117900000I62500J0D01*
G01*
X119287500Y-117900000D01*
G75*
G02*
X119350000Y-117962500I0J-62500D01*
G01*
X119350000Y-118087500D01*
G75*
G02*
X119287500Y-118150000I-62500J0D01*
G01*
G37*
G36*
G01*
X119937500Y-119550000D02*
X119812500Y-119550000D01*
G75*
G02*
X119750000Y-119487500I0J62500D01*
G01*
X119750000Y-118612500D01*
G75*
G02*
X119812500Y-118550000I62500J0D01*
G01*
X119937500Y-118550000D01*
G75*
G02*
X120000000Y-118612500I0J-62500D01*
G01*
X120000000Y-119487500D01*
G75*
G02*
X119937500Y-119550000I-62500J0D01*
G01*
G37*
G36*
G01*
X120437500Y-119550000D02*
X120312500Y-119550000D01*
G75*
G02*
X120250000Y-119487500I0J62500D01*
G01*
X120250000Y-118612500D01*
G75*
G02*
X120312500Y-118550000I62500J0D01*
G01*
X120437500Y-118550000D01*
G75*
G02*
X120500000Y-118612500I0J-62500D01*
G01*
X120500000Y-119487500D01*
G75*
G02*
X120437500Y-119550000I-62500J0D01*
G01*
G37*
G36*
G01*
X120937500Y-119550000D02*
X120812500Y-119550000D01*
G75*
G02*
X120750000Y-119487500I0J62500D01*
G01*
X120750000Y-118612500D01*
G75*
G02*
X120812500Y-118550000I62500J0D01*
G01*
X120937500Y-118550000D01*
G75*
G02*
X121000000Y-118612500I0J-62500D01*
G01*
X121000000Y-119487500D01*
G75*
G02*
X120937500Y-119550000I-62500J0D01*
G01*
G37*
G36*
G01*
X121437500Y-119550000D02*
X121312500Y-119550000D01*
G75*
G02*
X121250000Y-119487500I0J62500D01*
G01*
X121250000Y-118612500D01*
G75*
G02*
X121312500Y-118550000I62500J0D01*
G01*
X121437500Y-118550000D01*
G75*
G02*
X121500000Y-118612500I0J-62500D01*
G01*
X121500000Y-119487500D01*
G75*
G02*
X121437500Y-119550000I-62500J0D01*
G01*
G37*
G36*
G01*
X121937500Y-119550000D02*
X121812500Y-119550000D01*
G75*
G02*
X121750000Y-119487500I0J62500D01*
G01*
X121750000Y-118612500D01*
G75*
G02*
X121812500Y-118550000I62500J0D01*
G01*
X121937500Y-118550000D01*
G75*
G02*
X122000000Y-118612500I0J-62500D01*
G01*
X122000000Y-119487500D01*
G75*
G02*
X121937500Y-119550000I-62500J0D01*
G01*
G37*
%TD*%
%TO.C,C1*%
G36*
G01*
X113962500Y-121150003D02*
X113962500Y-119849997D01*
G75*
G02*
X114212497Y-119600000I249997J0D01*
G01*
X115037503Y-119600000D01*
G75*
G02*
X115287500Y-119849997I0J-249997D01*
G01*
X115287500Y-121150003D01*
G75*
G02*
X115037503Y-121400000I-249997J0D01*
G01*
X114212497Y-121400000D01*
G75*
G02*
X113962500Y-121150003I0J249997D01*
G01*
G37*
G36*
G01*
X110837500Y-121150003D02*
X110837500Y-119849997D01*
G75*
G02*
X111087497Y-119600000I249997J0D01*
G01*
X111912503Y-119600000D01*
G75*
G02*
X112162500Y-119849997I0J-249997D01*
G01*
X112162500Y-121150003D01*
G75*
G02*
X111912503Y-121400000I-249997J0D01*
G01*
X111087497Y-121400000D01*
G75*
G02*
X110837500Y-121150003I0J249997D01*
G01*
G37*
%TD*%
%TO.C,R6*%
G36*
G01*
X125550000Y-119374999D02*
X125550000Y-120625001D01*
G75*
G02*
X125300001Y-120875000I-249999J0D01*
G01*
X124499999Y-120875000D01*
G75*
G02*
X124250000Y-120625001I0J249999D01*
G01*
X124250000Y-119374999D01*
G75*
G02*
X124499999Y-119125000I249999J0D01*
G01*
X125300001Y-119125000D01*
G75*
G02*
X125550000Y-119374999I0J-249999D01*
G01*
G37*
G36*
G01*
X128650000Y-119374999D02*
X128650000Y-120625001D01*
G75*
G02*
X128400001Y-120875000I-249999J0D01*
G01*
X127599999Y-120875000D01*
G75*
G02*
X127350000Y-120625001I0J249999D01*
G01*
X127350000Y-119374999D01*
G75*
G02*
X127599999Y-119125000I249999J0D01*
G01*
X128400001Y-119125000D01*
G75*
G02*
X128650000Y-119374999I0J-249999D01*
G01*
G37*
%TD*%
D10*
%TO.C,M1*%
X119990000Y-102270000D03*
X127610000Y-102270000D03*
X122530000Y-102270000D03*
%TD*%
%TO.C,R5*%
G36*
G01*
X127125001Y-125850000D02*
X125874999Y-125850000D01*
G75*
G02*
X125625000Y-125600001I0J249999D01*
G01*
X125625000Y-124799999D01*
G75*
G02*
X125874999Y-124550000I249999J0D01*
G01*
X127125001Y-124550000D01*
G75*
G02*
X127375000Y-124799999I0J-249999D01*
G01*
X127375000Y-125600001D01*
G75*
G02*
X127125001Y-125850000I-249999J0D01*
G01*
G37*
G36*
G01*
X127125001Y-128950000D02*
X125874999Y-128950000D01*
G75*
G02*
X125625000Y-128700001I0J249999D01*
G01*
X125625000Y-127899999D01*
G75*
G02*
X125874999Y-127650000I249999J0D01*
G01*
X127125001Y-127650000D01*
G75*
G02*
X127375000Y-127899999I0J-249999D01*
G01*
X127375000Y-128700001D01*
G75*
G02*
X127125001Y-128950000I-249999J0D01*
G01*
G37*
%TD*%
%TO.C,R4*%
G36*
G01*
X123855001Y-125850000D02*
X122604999Y-125850000D01*
G75*
G02*
X122355000Y-125600001I0J249999D01*
G01*
X122355000Y-124799999D01*
G75*
G02*
X122604999Y-124550000I249999J0D01*
G01*
X123855001Y-124550000D01*
G75*
G02*
X124105000Y-124799999I0J-249999D01*
G01*
X124105000Y-125600001D01*
G75*
G02*
X123855001Y-125850000I-249999J0D01*
G01*
G37*
G36*
G01*
X123855001Y-128950000D02*
X122604999Y-128950000D01*
G75*
G02*
X122355000Y-128700001I0J249999D01*
G01*
X122355000Y-127899999D01*
G75*
G02*
X122604999Y-127650000I249999J0D01*
G01*
X123855001Y-127650000D01*
G75*
G02*
X124105000Y-127899999I0J-249999D01*
G01*
X124105000Y-128700001D01*
G75*
G02*
X123855001Y-128950000I-249999J0D01*
G01*
G37*
%TD*%
%TO.C,R3*%
G36*
G01*
X121355001Y-125850000D02*
X120104999Y-125850000D01*
G75*
G02*
X119855000Y-125600001I0J249999D01*
G01*
X119855000Y-124799999D01*
G75*
G02*
X120104999Y-124550000I249999J0D01*
G01*
X121355001Y-124550000D01*
G75*
G02*
X121605000Y-124799999I0J-249999D01*
G01*
X121605000Y-125600001D01*
G75*
G02*
X121355001Y-125850000I-249999J0D01*
G01*
G37*
G36*
G01*
X121355001Y-128950000D02*
X120104999Y-128950000D01*
G75*
G02*
X119855000Y-128700001I0J249999D01*
G01*
X119855000Y-127899999D01*
G75*
G02*
X120104999Y-127650000I249999J0D01*
G01*
X121355001Y-127650000D01*
G75*
G02*
X121605000Y-127899999I0J-249999D01*
G01*
X121605000Y-128700001D01*
G75*
G02*
X121355001Y-128950000I-249999J0D01*
G01*
G37*
%TD*%
%TO.C,R2*%
G36*
G01*
X118855001Y-125850000D02*
X117604999Y-125850000D01*
G75*
G02*
X117355000Y-125600001I0J249999D01*
G01*
X117355000Y-124799999D01*
G75*
G02*
X117604999Y-124550000I249999J0D01*
G01*
X118855001Y-124550000D01*
G75*
G02*
X119105000Y-124799999I0J-249999D01*
G01*
X119105000Y-125600001D01*
G75*
G02*
X118855001Y-125850000I-249999J0D01*
G01*
G37*
G36*
G01*
X118855001Y-128950000D02*
X117604999Y-128950000D01*
G75*
G02*
X117355000Y-128700001I0J249999D01*
G01*
X117355000Y-127899999D01*
G75*
G02*
X117604999Y-127650000I249999J0D01*
G01*
X118855001Y-127650000D01*
G75*
G02*
X119105000Y-127899999I0J-249999D01*
G01*
X119105000Y-128700001D01*
G75*
G02*
X118855001Y-128950000I-249999J0D01*
G01*
G37*
%TD*%
%TO.C,R1*%
G36*
G01*
X116355001Y-125850000D02*
X115104999Y-125850000D01*
G75*
G02*
X114855000Y-125600001I0J249999D01*
G01*
X114855000Y-124799999D01*
G75*
G02*
X115104999Y-124550000I249999J0D01*
G01*
X116355001Y-124550000D01*
G75*
G02*
X116605000Y-124799999I0J-249999D01*
G01*
X116605000Y-125600001D01*
G75*
G02*
X116355001Y-125850000I-249999J0D01*
G01*
G37*
G36*
G01*
X116355001Y-128950000D02*
X115104999Y-128950000D01*
G75*
G02*
X114855000Y-128700001I0J249999D01*
G01*
X114855000Y-127899999D01*
G75*
G02*
X115104999Y-127650000I249999J0D01*
G01*
X116355001Y-127650000D01*
G75*
G02*
X116605000Y-127899999I0J-249999D01*
G01*
X116605000Y-128700001D01*
G75*
G02*
X116355001Y-128950000I-249999J0D01*
G01*
G37*
%TD*%
D11*
%TO.C,J2*%
X116660000Y-108000000D03*
X116660000Y-113600000D03*
X116660000Y-114400000D03*
X116660000Y-108800000D03*
D12*
X116660000Y-110950000D03*
X116660000Y-111450000D03*
X116660000Y-110450000D03*
X116660000Y-111950000D03*
X116660000Y-109950000D03*
X116660000Y-112450000D03*
X116660000Y-109450000D03*
X116660000Y-112950000D03*
D11*
X116660000Y-108800000D03*
X116660000Y-113600000D03*
X116660000Y-108000000D03*
X116660000Y-114400000D03*
%TD*%
%TO.C,R8*%
G36*
G01*
X113550000Y-105375001D02*
X113550000Y-104124999D01*
G75*
G02*
X113799999Y-103875000I249999J0D01*
G01*
X114600001Y-103875000D01*
G75*
G02*
X114850000Y-104124999I0J-249999D01*
G01*
X114850000Y-105375001D01*
G75*
G02*
X114600001Y-105625000I-249999J0D01*
G01*
X113799999Y-105625000D01*
G75*
G02*
X113550000Y-105375001I0J249999D01*
G01*
G37*
G36*
G01*
X110450000Y-105375001D02*
X110450000Y-104124999D01*
G75*
G02*
X110699999Y-103875000I249999J0D01*
G01*
X111500001Y-103875000D01*
G75*
G02*
X111750000Y-104124999I0J-249999D01*
G01*
X111750000Y-105375001D01*
G75*
G02*
X111500001Y-105625000I-249999J0D01*
G01*
X110699999Y-105625000D01*
G75*
G02*
X110450000Y-105375001I0J249999D01*
G01*
G37*
%TD*%
%TO.C,R7*%
G36*
G01*
X111750000Y-101674999D02*
X111750000Y-102925001D01*
G75*
G02*
X111500001Y-103175000I-249999J0D01*
G01*
X110699999Y-103175000D01*
G75*
G02*
X110450000Y-102925001I0J249999D01*
G01*
X110450000Y-101674999D01*
G75*
G02*
X110699999Y-101425000I249999J0D01*
G01*
X111500001Y-101425000D01*
G75*
G02*
X111750000Y-101674999I0J-249999D01*
G01*
G37*
G36*
G01*
X114850000Y-101674999D02*
X114850000Y-102925001D01*
G75*
G02*
X114600001Y-103175000I-249999J0D01*
G01*
X113799999Y-103175000D01*
G75*
G02*
X113550000Y-102925001I0J249999D01*
G01*
X113550000Y-101674999D01*
G75*
G02*
X113799999Y-101425000I249999J0D01*
G01*
X114600001Y-101425000D01*
G75*
G02*
X114850000Y-101674999I0J-249999D01*
G01*
G37*
%TD*%
M02*
