M48
; DRILL file {KiCad (5.1.9-0-10_14)} date Saturday, March 06, 2021 at 06:22:24 PM
; FORMAT={-:-/ absolute / inch / decimal}
; #@! TF.CreationDate,2021-03-06T18:22:24+00:00
; #@! TF.GenerationSoftware,Kicad,Pcbnew,(5.1.9-0-10_14)
; #@! TF.FileFunction,Plated,1,2,PTH
FMAT,2
INCH
T1C0.0157
T2C0.0236
T3C0.0335
T4C0.0551
T5C0.0669
%
G90
G05
T1
X4.5354Y-4.6496
X4.5748Y-3.9449
X4.6031Y-3.9026
X4.626Y-4.0512
X4.6496Y-3.9488
X4.7667Y-4.5553
X4.7699Y-4.4539
X4.7985Y-4.3593
X4.807Y-4.5553
X4.8386Y-4.0984
X4.8583Y-3.9764
X4.928Y-4.2047
X4.9604Y-4.1785
X4.9781Y-4.1193
X4.9843Y-4.5433
X5.0175Y-4.1806
X5.0642Y-4.3964
X5.0945Y-3.9291
X5.1063Y-4.4134
X5.1083Y-4.0847
X5.1148Y-4.3743
X5.1169Y-4.1417
X5.1305Y-4.1787
X5.1479Y-4.4376
T2
X4.6907Y-4.2445
X4.6907Y-4.472
T3
X4.6063Y-4.7402
X4.7047Y-4.7402
X4.8031Y-4.7402
X4.9016Y-4.7402
X5.0Y-4.7402
X5.0984Y-4.7402
T4
X4.5451Y-4.188
X4.5451Y-4.5285
T5
X4.7096Y-4.188
X4.7096Y-4.5285
T0
M30
