M48
; DRILL file {KiCad (5.1.10-1-10_14)} date Thursday, May 13, 2021 at 11:47:22 AM
; FORMAT={-:-/ absolute / inch / decimal}
; #@! TF.CreationDate,2021-05-13T11:47:22+01:00
; #@! TF.GenerationSoftware,Kicad,Pcbnew,(5.1.10-1-10_14)
; #@! TF.FileFunction,Plated,1,2,PTH
FMAT,2
INCH
T1C0.0098
T2C0.0157
T3C0.0236
T4C0.0394
T5C0.0472
T6C0.0591
%
G90
G05
T1
X4.6467Y-4.6073
T2
X4.4426Y-4.614
X4.456Y-4.3884
X4.4821Y-4.791
X4.5041Y-4.3538
X4.5079Y-4.4803
X4.5131Y-4.6531
X4.5883Y-4.4402
X4.5986Y-4.2787
X4.611Y-4.3482
X4.6141Y-4.4104
X4.7243Y-4.4958
X4.7323Y-4.1496
X4.7362Y-4.252
X4.7384Y-4.0022
X4.7559Y-4.0669
X4.7626Y-4.5052
X4.7677Y-4.2006
X4.7782Y-4.605
X4.8228Y-4.6496
X4.8752Y-4.0856
X4.8819Y-4.6417
X4.9213Y-4.0827
X4.9291Y-4.0433
X4.9409Y-4.1654
X4.9449Y-4.6024
X4.9528Y-4.7815
T3
X4.8547Y-4.2642
X4.8547Y-4.4917
T4
X4.4506Y-4.8386
X4.5506Y-4.8386
X4.6506Y-4.8386
X4.7506Y-4.8386
X4.8506Y-4.8386
X4.9506Y-4.8386
X4.9882Y-4.9472
X4.9882Y-5.0472
T5
X5.0004Y-4.2077
X5.0004Y-4.5482
T6
X4.8358Y-4.2077
X4.8358Y-4.5482
T0
M30
