%TF.GenerationSoftware,KiCad,Pcbnew,(5.1.9-0-10_14)*%
%TF.CreationDate,2021-06-16T11:10:57+01:00*%
%TF.ProjectId,Generic,47656e65-7269-4632-9e6b-696361645f70,4*%
%TF.SameCoordinates,Original*%
%TF.FileFunction,Legend,Bot*%
%TF.FilePolarity,Positive*%
%FSLAX46Y46*%
G04 Gerber Fmt 4.6, Leading zero omitted, Abs format (unit mm)*
G04 Created by KiCad (PCBNEW (5.1.9-0-10_14)) date 2021-06-16 11:10:57*
%MOMM*%
%LPD*%
G01*
G04 APERTURE LIST*
%ADD10C,0.120000*%
%ADD11C,0.150000*%
G04 APERTURE END LIST*
D10*
%TO.C,U1*%
X128520000Y-119650000D02*
X128520000Y-120430000D01*
X128520000Y-120430000D02*
X127520000Y-120430000D01*
X110280000Y-119650000D02*
X110280000Y-120430000D01*
X110280000Y-120430000D02*
X111280000Y-120430000D01*
X128520000Y-94685000D02*
X110280000Y-94685000D01*
X110280000Y-94685000D02*
X110280000Y-101105000D01*
X128520000Y-94685000D02*
X128520000Y-101105000D01*
X128520000Y-101105000D02*
X128900000Y-101105000D01*
%TO.C,J1*%
X128270000Y-121500000D02*
X128270000Y-129500000D01*
X128270000Y-121500000D02*
X110570000Y-121500000D01*
X110570000Y-121500000D02*
X110570000Y-129500000D01*
%TO.C,U1*%
D11*
X126952380Y-109238095D02*
X127761904Y-109238095D01*
X127857142Y-109285714D01*
X127904761Y-109333333D01*
X127952380Y-109428571D01*
X127952380Y-109619047D01*
X127904761Y-109714285D01*
X127857142Y-109761904D01*
X127761904Y-109809523D01*
X126952380Y-109809523D01*
X127952380Y-110809523D02*
X127952380Y-110238095D01*
X127952380Y-110523809D02*
X126952380Y-110523809D01*
X127095238Y-110428571D01*
X127190476Y-110333333D01*
X127238095Y-110238095D01*
%TO.C,J1*%
X119753333Y-128352380D02*
X119753333Y-129066666D01*
X119800952Y-129209523D01*
X119896190Y-129304761D01*
X120039047Y-129352380D01*
X120134285Y-129352380D01*
X118753333Y-129352380D02*
X119324761Y-129352380D01*
X119039047Y-129352380D02*
X119039047Y-128352380D01*
X119134285Y-128495238D01*
X119229523Y-128590476D01*
X119324761Y-128638095D01*
X126884285Y-123352380D02*
X127455714Y-123352380D01*
X127170000Y-123352380D02*
X127170000Y-122352380D01*
X127265238Y-122495238D01*
X127360476Y-122590476D01*
X127455714Y-122638095D01*
%TD*%
M02*
