%TF.GenerationSoftware,KiCad,Pcbnew,(5.1.10-1-10_14)*%
%TF.CreationDate,2021-05-11T10:36:56+01:00*%
%TF.ProjectId,Generic,47656e65-7269-4632-9e6b-696361645f70,3*%
%TF.SameCoordinates,Original*%
%TF.FileFunction,Copper,L1,Top*%
%TF.FilePolarity,Positive*%
%FSLAX46Y46*%
G04 Gerber Fmt 4.6, Leading zero omitted, Abs format (unit mm)*
G04 Created by KiCad (PCBNEW (5.1.10-1-10_14)) date 2021-05-11 10:36:56*
%MOMM*%
%LPD*%
G01*
G04 APERTURE LIST*
%TA.AperFunction,NonConductor*%
%ADD10C,0.300000*%
%TD*%
%TA.AperFunction,ComponentPad*%
%ADD11R,1.700000X1.700000*%
%TD*%
%TA.AperFunction,ComponentPad*%
%ADD12O,1.700000X1.700000*%
%TD*%
%TA.AperFunction,SMDPad,CuDef*%
%ADD13R,2.000000X0.900000*%
%TD*%
%TA.AperFunction,SMDPad,CuDef*%
%ADD14R,0.900000X2.000000*%
%TD*%
%TA.AperFunction,SMDPad,CuDef*%
%ADD15R,5.000000X5.000000*%
%TD*%
%TA.AperFunction,ComponentPad*%
%ADD16C,0.350000*%
%TD*%
%TA.AperFunction,ComponentPad*%
%ADD17C,1.700000*%
%TD*%
%TA.AperFunction,ComponentPad*%
%ADD18C,2.000000*%
%TD*%
%TA.AperFunction,ComponentPad*%
%ADD19C,0.600000*%
%TD*%
%TA.AperFunction,ViaPad*%
%ADD20C,0.800000*%
%TD*%
%TA.AperFunction,Conductor*%
%ADD21C,0.250000*%
%TD*%
%TA.AperFunction,Conductor*%
%ADD22C,0.500000*%
%TD*%
%TA.AperFunction,Conductor*%
%ADD23C,0.254000*%
%TD*%
%TA.AperFunction,Conductor*%
%ADD24C,0.100000*%
%TD*%
G04 APERTURE END LIST*
D10*
X114714285Y-126578571D02*
X115000000Y-127578571D01*
X115285714Y-126864285D01*
X115571428Y-127578571D01*
X115857142Y-126578571D01*
X116285714Y-126578571D02*
X116571428Y-127578571D01*
X116857142Y-126864285D01*
X117142857Y-127578571D01*
X117428571Y-126578571D01*
X117857142Y-126578571D02*
X118142857Y-127578571D01*
X118428571Y-126864285D01*
X118714285Y-127578571D01*
X119000000Y-126578571D01*
X119571428Y-127435714D02*
X119642857Y-127507142D01*
X119571428Y-127578571D01*
X119500000Y-127507142D01*
X119571428Y-127435714D01*
X119571428Y-127578571D01*
X120285714Y-127578571D02*
X120285714Y-126578571D01*
X120285714Y-126721428D02*
X120357142Y-126650000D01*
X120500000Y-126578571D01*
X120714285Y-126578571D01*
X120857142Y-126650000D01*
X120928571Y-126792857D01*
X120928571Y-127578571D01*
X120928571Y-126792857D02*
X121000000Y-126650000D01*
X121142857Y-126578571D01*
X121357142Y-126578571D01*
X121500000Y-126650000D01*
X121571428Y-126792857D01*
X121571428Y-127578571D01*
X122857142Y-127507142D02*
X122714285Y-127578571D01*
X122428571Y-127578571D01*
X122285714Y-127507142D01*
X122214285Y-127364285D01*
X122214285Y-126792857D01*
X122285714Y-126650000D01*
X122428571Y-126578571D01*
X122714285Y-126578571D01*
X122857142Y-126650000D01*
X122928571Y-126792857D01*
X122928571Y-126935714D01*
X122214285Y-127078571D01*
X123571428Y-127435714D02*
X123642857Y-127507142D01*
X123571428Y-127578571D01*
X123500000Y-127507142D01*
X123571428Y-127435714D01*
X123571428Y-127578571D01*
X124928571Y-126578571D02*
X124928571Y-127578571D01*
X124285714Y-126578571D02*
X124285714Y-127364285D01*
X124357142Y-127507142D01*
X124500000Y-127578571D01*
X124714285Y-127578571D01*
X124857142Y-127507142D01*
X124928571Y-127435714D01*
X125642857Y-127578571D02*
X125642857Y-126078571D01*
X125785714Y-127007142D02*
X126214285Y-127578571D01*
X126214285Y-126578571D02*
X125642857Y-127150000D01*
D11*
%TO.P,J1,1*%
%TO.N,GND*%
X113155000Y-122900000D03*
D12*
%TO.P,J1,2*%
%TO.N,IO1*%
X115695000Y-122900000D03*
%TO.P,J1,3*%
%TO.N,IO2*%
X118235000Y-122900000D03*
%TO.P,J1,4*%
%TO.N,IO3*%
X120775000Y-122900000D03*
%TO.P,J1,5*%
%TO.N,IO4*%
X123315000Y-122900000D03*
%TO.P,J1,6*%
%TO.N,Net-(J1-Pad6)*%
X125855000Y-122900000D03*
%TD*%
D13*
%TO.P,U1,38*%
%TO.N,GND*%
X128000000Y-102295000D03*
%TO.P,U1,37*%
%TO.N,Net-(U1-Pad37)*%
X128000000Y-103565000D03*
%TO.P,U1,36*%
%TO.N,Net-(U1-Pad36)*%
X128000000Y-104835000D03*
%TO.P,U1,35*%
%TO.N,O*%
X128000000Y-106105000D03*
%TO.P,U1,34*%
%TO.N,I*%
X128000000Y-107375000D03*
%TO.P,U1,33*%
%TO.N,Net-(U1-Pad33)*%
X128000000Y-108645000D03*
%TO.P,U1,32*%
%TO.N,Net-(U1-Pad32)*%
X128000000Y-109915000D03*
%TO.P,U1,31*%
%TO.N,Net-(U1-Pad31)*%
X128000000Y-111185000D03*
%TO.P,U1,30*%
%TO.N,Net-(U1-Pad30)*%
X128000000Y-112455000D03*
%TO.P,U1,29*%
%TO.N,Net-(U1-Pad29)*%
X128000000Y-113725000D03*
%TO.P,U1,28*%
%TO.N,Net-(U1-Pad28)*%
X128000000Y-114995000D03*
%TO.P,U1,27*%
%TO.N,IO4*%
X128000000Y-116265000D03*
%TO.P,U1,26*%
%TO.N,IO5*%
X128000000Y-117535000D03*
%TO.P,U1,25*%
%TO.N,GPIO0*%
X128000000Y-118805000D03*
D14*
%TO.P,U1,24*%
%TO.N,IO3*%
X125215000Y-119805000D03*
%TO.P,U1,23*%
%TO.N,IO2*%
X123945000Y-119805000D03*
%TO.P,U1,22*%
%TO.N,Net-(U1-Pad22)*%
X122675000Y-119805000D03*
%TO.P,U1,21*%
%TO.N,Net-(U1-Pad21)*%
X121405000Y-119805000D03*
%TO.P,U1,20*%
%TO.N,Net-(U1-Pad20)*%
X120135000Y-119805000D03*
%TO.P,U1,19*%
%TO.N,Net-(U1-Pad19)*%
X118865000Y-119805000D03*
%TO.P,U1,18*%
%TO.N,Net-(U1-Pad18)*%
X117595000Y-119805000D03*
%TO.P,U1,17*%
%TO.N,Net-(U1-Pad17)*%
X116325000Y-119805000D03*
%TO.P,U1,16*%
%TO.N,IO1*%
X115055000Y-119805000D03*
%TO.P,U1,15*%
%TO.N,GND*%
X113785000Y-119805000D03*
D13*
%TO.P,U1,14*%
%TO.N,Net-(U1-Pad14)*%
X111000000Y-118805000D03*
%TO.P,U1,13*%
%TO.N,Net-(U1-Pad13)*%
X111000000Y-117535000D03*
%TO.P,U1,12*%
%TO.N,GND*%
X111000000Y-116265000D03*
%TO.P,U1,11*%
X111000000Y-114995000D03*
%TO.P,U1,10*%
%TO.N,Net-(U1-Pad10)*%
X111000000Y-113725000D03*
%TO.P,U1,9*%
%TO.N,Net-(U1-Pad9)*%
X111000000Y-112455000D03*
%TO.P,U1,8*%
%TO.N,Net-(U1-Pad8)*%
X111000000Y-111185000D03*
%TO.P,U1,7*%
%TO.N,Net-(U1-Pad7)*%
X111000000Y-109915000D03*
%TO.P,U1,6*%
%TO.N,Net-(U1-Pad6)*%
X111000000Y-108645000D03*
%TO.P,U1,5*%
%TO.N,GND*%
X111000000Y-107375000D03*
%TO.P,U1,4*%
X111000000Y-106105000D03*
%TO.P,U1,3*%
%TO.N,EN*%
X111000000Y-104835000D03*
%TO.P,U1,2*%
%TO.N,+3V3*%
X111000000Y-103565000D03*
%TO.P,U1,1*%
%TO.N,GND*%
X111000000Y-102295000D03*
D15*
%TO.P,U1,39*%
X118500000Y-109795000D03*
%TD*%
D16*
%TO.P,U2,21*%
%TO.N,GND*%
X120875000Y-117025000D03*
%TD*%
D12*
%TO.P,J3,2*%
%TO.N,VBUS*%
X112200000Y-125660000D03*
D11*
%TO.P,J3,1*%
%TO.N,GND*%
X112200000Y-128200000D03*
%TD*%
D17*
%TO.P,J2,S1*%
%TO.N,GND*%
X111890000Y-106875000D03*
X111890000Y-115525000D03*
D18*
X116070000Y-106875000D03*
X116070000Y-115525000D03*
D19*
X115590000Y-108310000D03*
X115590000Y-114090000D03*
%TD*%
D20*
%TO.N,GND*%
X118600000Y-109700000D03*
X124100000Y-115400000D03*
X112300000Y-101650000D03*
%TO.N,D-*%
X121600000Y-110747992D03*
X123148206Y-112312246D03*
X121600719Y-112198004D03*
%TO.N,+3V3*%
X113629916Y-126374388D03*
X118750000Y-103750000D03*
X124212660Y-118112660D03*
X126221157Y-116087612D03*
%TO.N,VBUS*%
X117735755Y-113422822D03*
X124399990Y-109451066D03*
X125002467Y-128324922D03*
%TO.N,IO5*%
X128000000Y-117535000D03*
%TO.N,O*%
X115700000Y-117754989D03*
%TO.N,I*%
X126350032Y-114962407D03*
%TO.N,EN*%
X112710202Y-116755063D03*
%TO.N,Net-(J2-PadA5)*%
X119500000Y-112895002D03*
X114637340Y-102362660D03*
%TO.N,GPIO0*%
X126400000Y-117900000D03*
%TD*%
D21*
%TO.N,GND*%
X111390000Y-107375000D02*
X111890000Y-106875000D01*
X111000000Y-107375000D02*
X111390000Y-107375000D01*
X111530000Y-115525000D02*
X111000000Y-114995000D01*
X111890000Y-115525000D02*
X111530000Y-115525000D01*
X111120000Y-106105000D02*
X111890000Y-106875000D01*
X111000000Y-106105000D02*
X111120000Y-106105000D01*
X112662531Y-128812531D02*
X112200000Y-128350000D01*
X115590000Y-115045000D02*
X116070000Y-115525000D01*
X115590000Y-114090000D02*
X115590000Y-115045000D01*
X111150000Y-116265000D02*
X111890000Y-115525000D01*
X111000000Y-116265000D02*
X111150000Y-116265000D01*
X113785000Y-121015000D02*
X113785000Y-119805000D01*
X113155000Y-121645000D02*
X113785000Y-121015000D01*
X113155000Y-122900000D02*
X113155000Y-121645000D01*
D22*
X123549988Y-103550012D02*
X123549988Y-110863176D01*
X124518416Y-111831604D02*
X124518416Y-113381584D01*
X128000000Y-102295000D02*
X124805000Y-102295000D01*
X124805000Y-102295000D02*
X123549988Y-103550012D01*
X123549988Y-110863176D02*
X124518416Y-111831604D01*
X118600000Y-113901365D02*
X118600000Y-109700000D01*
X123998635Y-113901365D02*
X118600000Y-113901365D01*
X124518416Y-113381584D02*
X123998635Y-113901365D01*
D21*
X111655000Y-102295000D02*
X112300000Y-101650000D01*
X111000000Y-102295000D02*
X111655000Y-102295000D01*
%TO.N,D-*%
X123148206Y-112312246D02*
X121714961Y-112312246D01*
X121714961Y-112312246D02*
X121600719Y-112198004D01*
X121600000Y-110747992D02*
X121600000Y-112197285D01*
X121600000Y-112197285D02*
X121600719Y-112198004D01*
%TO.N,+3V3*%
X113629916Y-126374388D02*
X113629916Y-125388106D01*
X111979999Y-121770001D02*
X113009999Y-120740001D01*
X111979999Y-124010001D02*
X111979999Y-121770001D01*
X113074999Y-118479999D02*
X123845321Y-118479999D01*
X113009999Y-118544999D02*
X113074999Y-118479999D01*
X113629916Y-125388106D02*
X112745905Y-124504095D01*
X113009999Y-120740001D02*
X113009999Y-118544999D01*
X112745905Y-124504095D02*
X112474093Y-124504095D01*
X112474093Y-124504095D02*
X111979999Y-124010001D01*
X123845321Y-118479999D02*
X124212660Y-118112660D01*
X124212660Y-118112660D02*
X126221157Y-116104163D01*
X126221157Y-116104163D02*
X126221157Y-116087612D01*
X118200000Y-104300000D02*
X118750000Y-103750000D01*
X115600000Y-103000000D02*
X116900000Y-104300000D01*
X115600000Y-102100000D02*
X115600000Y-103000000D01*
X115074999Y-101574999D02*
X115600000Y-102100000D01*
X116900000Y-104300000D02*
X118200000Y-104300000D01*
X113425001Y-101574999D02*
X115074999Y-101574999D01*
X112800000Y-102200000D02*
X113425001Y-101574999D01*
X112250000Y-103565000D02*
X112800000Y-103015000D01*
X112800000Y-103015000D02*
X112800000Y-102200000D01*
X111000000Y-103565000D02*
X112250000Y-103565000D01*
%TO.N,VBUS*%
X113310001Y-127024999D02*
X114785002Y-128500000D01*
X112362918Y-127024999D02*
X113310001Y-127024999D01*
X112200000Y-126862081D02*
X112362918Y-127024999D01*
X112200000Y-125660000D02*
X112200000Y-126862081D01*
X117735755Y-113988507D02*
X117735755Y-113422822D01*
X124236810Y-114476376D02*
X118223624Y-114476376D01*
X125093426Y-113619760D02*
X124236810Y-114476376D01*
X118223624Y-114476376D02*
X117735755Y-113988507D01*
X125093426Y-113619760D02*
X125093426Y-110144502D01*
X125093426Y-110144502D02*
X124874462Y-109925538D01*
X124399990Y-109451066D02*
X124874462Y-109925538D01*
X125002467Y-128324922D02*
X124827389Y-128500000D01*
X124827389Y-128500000D02*
X124300000Y-128500000D01*
X114785002Y-128500000D02*
X124300000Y-128500000D01*
X113293599Y-117929988D02*
X114293600Y-116929987D01*
X114360011Y-116929987D02*
X114744999Y-116544999D01*
X114293600Y-116929987D02*
X114360011Y-116929987D01*
X117735755Y-113422822D02*
X115332176Y-113422822D01*
X114744999Y-114009999D02*
X114744999Y-116544999D01*
X115332176Y-113422822D02*
X114744999Y-114009999D01*
X112988599Y-117929988D02*
X113293599Y-117929988D01*
X112200000Y-125660000D02*
X111350001Y-124810001D01*
X114744999Y-116544999D02*
X114744999Y-117755001D01*
X112559988Y-120181986D02*
X112559988Y-118358599D01*
X111350001Y-121391973D02*
X112559988Y-120181986D01*
X112559988Y-118358599D02*
X112988599Y-117929988D01*
X111350001Y-124810001D02*
X111350001Y-121391973D01*
%TO.N,IO4*%
X123230000Y-122900000D02*
X123993285Y-122900000D01*
X125990001Y-118563003D02*
X125990001Y-121025997D01*
X125674997Y-118247999D02*
X125990001Y-118563003D01*
X125674997Y-117561414D02*
X125674997Y-118247999D01*
X127092464Y-116265000D02*
X126390232Y-116967232D01*
X124115998Y-122900000D02*
X123315000Y-122900000D01*
X128000000Y-116265000D02*
X127092464Y-116265000D01*
X126269179Y-116967232D02*
X125674997Y-117561414D01*
X125990001Y-121025997D02*
X124115998Y-122900000D01*
X126390232Y-116967232D02*
X126269179Y-116967232D01*
%TO.N,IO3*%
X124606885Y-121649990D02*
X125215000Y-121041875D01*
X120775000Y-121775000D02*
X120900010Y-121649990D01*
X125215000Y-121041875D02*
X125215000Y-119805000D01*
X120900010Y-121649990D02*
X124606885Y-121649990D01*
X120775000Y-122900000D02*
X120775000Y-121775000D01*
%TO.N,IO2*%
X123945000Y-121055000D02*
X123945000Y-119805000D01*
X123800021Y-121199979D02*
X123945000Y-121055000D01*
X118235000Y-122015000D02*
X119050021Y-121199979D01*
X119050021Y-121199979D02*
X123800021Y-121199979D01*
X118235000Y-122900000D02*
X118235000Y-122015000D01*
%TO.N,IO1*%
X115055000Y-122260000D02*
X115695000Y-122900000D01*
X115055000Y-119805000D02*
X115055000Y-122260000D01*
%TO.N,O*%
X125625031Y-114614406D02*
X125625031Y-115374969D01*
X126188962Y-114050475D02*
X125625031Y-114614406D01*
X126188962Y-106666038D02*
X126188962Y-114050475D01*
X125625031Y-115374969D02*
X122970011Y-118029989D01*
X126750000Y-106105000D02*
X126188962Y-106666038D01*
X128000000Y-106105000D02*
X126750000Y-106105000D01*
X125625031Y-115674969D02*
X125625031Y-115374969D01*
X115754989Y-117754989D02*
X116029989Y-118029989D01*
X115700000Y-117754989D02*
X115754989Y-117754989D01*
X123270011Y-118029989D02*
X125625031Y-115674969D01*
X116029989Y-118029989D02*
X123270011Y-118029989D01*
%TO.N,I*%
X126750000Y-107375000D02*
X126638972Y-107486028D01*
X128000000Y-107375000D02*
X126750000Y-107375000D01*
X126638972Y-107486028D02*
X126638972Y-114673467D01*
X126638972Y-114673467D02*
X126350032Y-114962407D01*
%TO.N,EN*%
X111000000Y-104835000D02*
X112250000Y-104835000D01*
X112250000Y-104835000D02*
X113065001Y-105650001D01*
X113065001Y-107434999D02*
X112325001Y-108174999D01*
X113065001Y-105650001D02*
X113065001Y-107434999D01*
X112325001Y-108174999D02*
X112325001Y-113975001D01*
X113110201Y-116355064D02*
X112710202Y-116755063D01*
X112325001Y-113975001D02*
X113110201Y-114760201D01*
X113110201Y-114760201D02*
X113110201Y-116355064D01*
%TO.N,Net-(J2-PadA5)*%
X123943405Y-112543407D02*
X123943405Y-112069781D01*
X123943405Y-112069781D02*
X122900000Y-111026376D01*
X119500000Y-112895002D02*
X119899999Y-113295001D01*
X119899999Y-113295001D02*
X123191811Y-113295001D01*
X122900000Y-111026376D02*
X122900000Y-107800000D01*
X123191811Y-113295001D02*
X123943405Y-112543407D01*
X120025002Y-104925002D02*
X116633997Y-104925002D01*
X122900000Y-107800000D02*
X120025002Y-104925002D01*
X116633997Y-104925002D02*
X114637340Y-102928345D01*
X114637340Y-102928345D02*
X114637340Y-102362660D01*
%TO.N,Net-(U1-Pad28)*%
X128000000Y-114995000D02*
X127238161Y-114995000D01*
%TO.N,GPIO0*%
X127305000Y-118805000D02*
X128000000Y-118805000D01*
X126400000Y-117900000D02*
X127305000Y-118805000D01*
%TD*%
D23*
%TO.N,GND*%
X126621176Y-118831111D02*
X126621176Y-119255000D01*
X126628455Y-119328905D01*
X126650012Y-119399970D01*
X126685019Y-119465463D01*
X126732131Y-119522869D01*
X126789537Y-119569981D01*
X126855030Y-119604988D01*
X126926095Y-119626545D01*
X127000000Y-119633824D01*
X128573001Y-119633824D01*
X128573001Y-128979107D01*
X128560078Y-129110899D01*
X128527873Y-129217570D01*
X128475558Y-129315961D01*
X128405130Y-129402313D01*
X128319270Y-129473343D01*
X128221255Y-129526339D01*
X128114807Y-129559290D01*
X127984371Y-129573000D01*
X113413678Y-129573000D01*
X113501185Y-129501185D01*
X113580537Y-129404494D01*
X113639502Y-129294180D01*
X113675812Y-129174482D01*
X113688072Y-129050000D01*
X113685000Y-128485750D01*
X113526250Y-128327000D01*
X112327000Y-128327000D01*
X112327000Y-128347000D01*
X112073000Y-128347000D01*
X112073000Y-128327000D01*
X110873750Y-128327000D01*
X110715000Y-128485750D01*
X110711928Y-129050000D01*
X110724188Y-129174482D01*
X110760498Y-129294180D01*
X110819463Y-129404494D01*
X110898815Y-129501185D01*
X110981633Y-129569151D01*
X110889101Y-129560078D01*
X110782430Y-129527873D01*
X110684039Y-129475558D01*
X110597687Y-129405130D01*
X110526657Y-129319270D01*
X110473661Y-129221255D01*
X110440710Y-129114807D01*
X110427000Y-128984371D01*
X110427000Y-119633824D01*
X112000000Y-119633824D01*
X112057988Y-119628113D01*
X112057988Y-119974051D01*
X111012464Y-121019576D01*
X110993318Y-121035289D01*
X110977605Y-121054435D01*
X110977602Y-121054438D01*
X110930585Y-121111728D01*
X110883971Y-121198937D01*
X110855266Y-121293564D01*
X110845574Y-121391973D01*
X110848002Y-121416626D01*
X110848001Y-124785358D01*
X110845574Y-124810001D01*
X110848001Y-124834644D01*
X110848001Y-124834653D01*
X110855265Y-124908409D01*
X110883970Y-125003036D01*
X110930584Y-125090246D01*
X110993317Y-125166685D01*
X111012468Y-125182402D01*
X111052960Y-125222894D01*
X111020153Y-125302097D01*
X110973000Y-125539151D01*
X110973000Y-125780849D01*
X111020153Y-126017903D01*
X111112647Y-126241202D01*
X111246927Y-126442167D01*
X111417833Y-126613073D01*
X111567553Y-126713112D01*
X111350000Y-126711928D01*
X111225518Y-126724188D01*
X111105820Y-126760498D01*
X110995506Y-126819463D01*
X110898815Y-126898815D01*
X110819463Y-126995506D01*
X110760498Y-127105820D01*
X110724188Y-127225518D01*
X110711928Y-127350000D01*
X110715000Y-127914250D01*
X110873750Y-128073000D01*
X112073000Y-128073000D01*
X112073000Y-128053000D01*
X112327000Y-128053000D01*
X112327000Y-128073000D01*
X113526250Y-128073000D01*
X113587159Y-128012091D01*
X113973000Y-128397933D01*
X113973000Y-128672000D01*
X114247067Y-128672000D01*
X114412605Y-128837538D01*
X114428318Y-128856684D01*
X114447464Y-128872397D01*
X114447466Y-128872399D01*
X114457597Y-128880713D01*
X114504757Y-128919417D01*
X114591966Y-128966031D01*
X114686593Y-128994736D01*
X114760349Y-129002000D01*
X114760358Y-129002000D01*
X114785001Y-129004427D01*
X114809644Y-129002000D01*
X124617221Y-129002000D01*
X124634419Y-129013491D01*
X124775824Y-129072063D01*
X124925939Y-129101922D01*
X125078995Y-129101922D01*
X125229110Y-129072063D01*
X125370515Y-129013491D01*
X125497776Y-128928458D01*
X125606003Y-128820231D01*
X125691036Y-128692970D01*
X125699722Y-128672000D01*
X127027000Y-128672000D01*
X127027000Y-125368000D01*
X114132363Y-125368000D01*
X114131916Y-125363462D01*
X114131916Y-125363453D01*
X114124652Y-125289697D01*
X114095947Y-125195070D01*
X114049333Y-125107861D01*
X113986600Y-125031422D01*
X113967454Y-125015709D01*
X113282002Y-124330258D01*
X113282002Y-124226252D01*
X113440750Y-124385000D01*
X114005000Y-124388072D01*
X114129482Y-124375812D01*
X114249180Y-124339502D01*
X114359494Y-124280537D01*
X114456185Y-124201185D01*
X114535537Y-124104494D01*
X114594502Y-123994180D01*
X114630812Y-123874482D01*
X114643072Y-123750000D01*
X114641888Y-123532447D01*
X114741927Y-123682167D01*
X114912833Y-123853073D01*
X115113798Y-123987353D01*
X115337097Y-124079847D01*
X115574151Y-124127000D01*
X115815849Y-124127000D01*
X116052903Y-124079847D01*
X116276202Y-123987353D01*
X116477167Y-123853073D01*
X116648073Y-123682167D01*
X116782353Y-123481202D01*
X116874847Y-123257903D01*
X116922000Y-123020849D01*
X116922000Y-122779151D01*
X116874847Y-122542097D01*
X116782353Y-122318798D01*
X116648073Y-122117833D01*
X116477167Y-121946927D01*
X116276202Y-121812647D01*
X116052903Y-121720153D01*
X115815849Y-121673000D01*
X115574151Y-121673000D01*
X115557000Y-121676412D01*
X115557000Y-121178702D01*
X115578905Y-121176545D01*
X115649970Y-121154988D01*
X115690000Y-121133591D01*
X115730030Y-121154988D01*
X115801095Y-121176545D01*
X115875000Y-121183824D01*
X116775000Y-121183824D01*
X116848905Y-121176545D01*
X116919970Y-121154988D01*
X116960000Y-121133591D01*
X117000030Y-121154988D01*
X117071095Y-121176545D01*
X117145000Y-121183824D01*
X118045000Y-121183824D01*
X118118905Y-121176545D01*
X118189970Y-121154988D01*
X118230000Y-121133591D01*
X118270030Y-121154988D01*
X118341095Y-121176545D01*
X118361509Y-121178556D01*
X117897463Y-121642603D01*
X117878317Y-121658316D01*
X117862604Y-121677462D01*
X117862601Y-121677465D01*
X117815584Y-121734755D01*
X117808116Y-121748726D01*
X117653798Y-121812647D01*
X117452833Y-121946927D01*
X117281927Y-122117833D01*
X117147647Y-122318798D01*
X117055153Y-122542097D01*
X117008000Y-122779151D01*
X117008000Y-123020849D01*
X117055153Y-123257903D01*
X117147647Y-123481202D01*
X117281927Y-123682167D01*
X117452833Y-123853073D01*
X117653798Y-123987353D01*
X117877097Y-124079847D01*
X118114151Y-124127000D01*
X118355849Y-124127000D01*
X118592903Y-124079847D01*
X118816202Y-123987353D01*
X119017167Y-123853073D01*
X119188073Y-123682167D01*
X119322353Y-123481202D01*
X119414847Y-123257903D01*
X119462000Y-123020849D01*
X119462000Y-122779151D01*
X119414847Y-122542097D01*
X119322353Y-122318798D01*
X119188073Y-122117833D01*
X119017167Y-121946927D01*
X119014674Y-121945261D01*
X119257957Y-121701979D01*
X120277765Y-121701979D01*
X120270573Y-121775000D01*
X120271126Y-121780616D01*
X120193798Y-121812647D01*
X119992833Y-121946927D01*
X119821927Y-122117833D01*
X119687647Y-122318798D01*
X119595153Y-122542097D01*
X119548000Y-122779151D01*
X119548000Y-123020849D01*
X119595153Y-123257903D01*
X119687647Y-123481202D01*
X119821927Y-123682167D01*
X119992833Y-123853073D01*
X120193798Y-123987353D01*
X120417097Y-124079847D01*
X120654151Y-124127000D01*
X120895849Y-124127000D01*
X121132903Y-124079847D01*
X121356202Y-123987353D01*
X121557167Y-123853073D01*
X121728073Y-123682167D01*
X121862353Y-123481202D01*
X121954847Y-123257903D01*
X122002000Y-123020849D01*
X122002000Y-122779151D01*
X121954847Y-122542097D01*
X121862353Y-122318798D01*
X121750896Y-122151990D01*
X122339104Y-122151990D01*
X122227647Y-122318798D01*
X122135153Y-122542097D01*
X122088000Y-122779151D01*
X122088000Y-123020849D01*
X122135153Y-123257903D01*
X122227647Y-123481202D01*
X122361927Y-123682167D01*
X122532833Y-123853073D01*
X122733798Y-123987353D01*
X122957097Y-124079847D01*
X123194151Y-124127000D01*
X123435849Y-124127000D01*
X123672903Y-124079847D01*
X123896202Y-123987353D01*
X124097167Y-123853073D01*
X124268073Y-123682167D01*
X124402353Y-123481202D01*
X124494847Y-123257903D01*
X124501506Y-123224426D01*
X124640789Y-123085143D01*
X124675153Y-123257903D01*
X124767647Y-123481202D01*
X124901927Y-123682167D01*
X125072833Y-123853073D01*
X125273798Y-123987353D01*
X125497097Y-124079847D01*
X125734151Y-124127000D01*
X125975849Y-124127000D01*
X126212903Y-124079847D01*
X126436202Y-123987353D01*
X126637167Y-123853073D01*
X126808073Y-123682167D01*
X126942353Y-123481202D01*
X127034847Y-123257903D01*
X127082000Y-123020849D01*
X127082000Y-122779151D01*
X127034847Y-122542097D01*
X126942353Y-122318798D01*
X126808073Y-122117833D01*
X126637167Y-121946927D01*
X126436202Y-121812647D01*
X126212903Y-121720153D01*
X126040144Y-121685789D01*
X126327539Y-121398394D01*
X126346685Y-121382681D01*
X126385616Y-121335245D01*
X126409417Y-121306243D01*
X126413616Y-121298388D01*
X126456032Y-121219033D01*
X126484737Y-121124406D01*
X126492001Y-121050650D01*
X126492001Y-121050641D01*
X126494428Y-121025998D01*
X126492001Y-121001355D01*
X126492001Y-118701935D01*
X126621176Y-118831111D01*
%TA.AperFunction,Conductor*%
D24*
G36*
X126621176Y-118831111D02*
G01*
X126621176Y-119255000D01*
X126628455Y-119328905D01*
X126650012Y-119399970D01*
X126685019Y-119465463D01*
X126732131Y-119522869D01*
X126789537Y-119569981D01*
X126855030Y-119604988D01*
X126926095Y-119626545D01*
X127000000Y-119633824D01*
X128573001Y-119633824D01*
X128573001Y-128979107D01*
X128560078Y-129110899D01*
X128527873Y-129217570D01*
X128475558Y-129315961D01*
X128405130Y-129402313D01*
X128319270Y-129473343D01*
X128221255Y-129526339D01*
X128114807Y-129559290D01*
X127984371Y-129573000D01*
X113413678Y-129573000D01*
X113501185Y-129501185D01*
X113580537Y-129404494D01*
X113639502Y-129294180D01*
X113675812Y-129174482D01*
X113688072Y-129050000D01*
X113685000Y-128485750D01*
X113526250Y-128327000D01*
X112327000Y-128327000D01*
X112327000Y-128347000D01*
X112073000Y-128347000D01*
X112073000Y-128327000D01*
X110873750Y-128327000D01*
X110715000Y-128485750D01*
X110711928Y-129050000D01*
X110724188Y-129174482D01*
X110760498Y-129294180D01*
X110819463Y-129404494D01*
X110898815Y-129501185D01*
X110981633Y-129569151D01*
X110889101Y-129560078D01*
X110782430Y-129527873D01*
X110684039Y-129475558D01*
X110597687Y-129405130D01*
X110526657Y-129319270D01*
X110473661Y-129221255D01*
X110440710Y-129114807D01*
X110427000Y-128984371D01*
X110427000Y-119633824D01*
X112000000Y-119633824D01*
X112057988Y-119628113D01*
X112057988Y-119974051D01*
X111012464Y-121019576D01*
X110993318Y-121035289D01*
X110977605Y-121054435D01*
X110977602Y-121054438D01*
X110930585Y-121111728D01*
X110883971Y-121198937D01*
X110855266Y-121293564D01*
X110845574Y-121391973D01*
X110848002Y-121416626D01*
X110848001Y-124785358D01*
X110845574Y-124810001D01*
X110848001Y-124834644D01*
X110848001Y-124834653D01*
X110855265Y-124908409D01*
X110883970Y-125003036D01*
X110930584Y-125090246D01*
X110993317Y-125166685D01*
X111012468Y-125182402D01*
X111052960Y-125222894D01*
X111020153Y-125302097D01*
X110973000Y-125539151D01*
X110973000Y-125780849D01*
X111020153Y-126017903D01*
X111112647Y-126241202D01*
X111246927Y-126442167D01*
X111417833Y-126613073D01*
X111567553Y-126713112D01*
X111350000Y-126711928D01*
X111225518Y-126724188D01*
X111105820Y-126760498D01*
X110995506Y-126819463D01*
X110898815Y-126898815D01*
X110819463Y-126995506D01*
X110760498Y-127105820D01*
X110724188Y-127225518D01*
X110711928Y-127350000D01*
X110715000Y-127914250D01*
X110873750Y-128073000D01*
X112073000Y-128073000D01*
X112073000Y-128053000D01*
X112327000Y-128053000D01*
X112327000Y-128073000D01*
X113526250Y-128073000D01*
X113587159Y-128012091D01*
X113973000Y-128397933D01*
X113973000Y-128672000D01*
X114247067Y-128672000D01*
X114412605Y-128837538D01*
X114428318Y-128856684D01*
X114447464Y-128872397D01*
X114447466Y-128872399D01*
X114457597Y-128880713D01*
X114504757Y-128919417D01*
X114591966Y-128966031D01*
X114686593Y-128994736D01*
X114760349Y-129002000D01*
X114760358Y-129002000D01*
X114785001Y-129004427D01*
X114809644Y-129002000D01*
X124617221Y-129002000D01*
X124634419Y-129013491D01*
X124775824Y-129072063D01*
X124925939Y-129101922D01*
X125078995Y-129101922D01*
X125229110Y-129072063D01*
X125370515Y-129013491D01*
X125497776Y-128928458D01*
X125606003Y-128820231D01*
X125691036Y-128692970D01*
X125699722Y-128672000D01*
X127027000Y-128672000D01*
X127027000Y-125368000D01*
X114132363Y-125368000D01*
X114131916Y-125363462D01*
X114131916Y-125363453D01*
X114124652Y-125289697D01*
X114095947Y-125195070D01*
X114049333Y-125107861D01*
X113986600Y-125031422D01*
X113967454Y-125015709D01*
X113282002Y-124330258D01*
X113282002Y-124226252D01*
X113440750Y-124385000D01*
X114005000Y-124388072D01*
X114129482Y-124375812D01*
X114249180Y-124339502D01*
X114359494Y-124280537D01*
X114456185Y-124201185D01*
X114535537Y-124104494D01*
X114594502Y-123994180D01*
X114630812Y-123874482D01*
X114643072Y-123750000D01*
X114641888Y-123532447D01*
X114741927Y-123682167D01*
X114912833Y-123853073D01*
X115113798Y-123987353D01*
X115337097Y-124079847D01*
X115574151Y-124127000D01*
X115815849Y-124127000D01*
X116052903Y-124079847D01*
X116276202Y-123987353D01*
X116477167Y-123853073D01*
X116648073Y-123682167D01*
X116782353Y-123481202D01*
X116874847Y-123257903D01*
X116922000Y-123020849D01*
X116922000Y-122779151D01*
X116874847Y-122542097D01*
X116782353Y-122318798D01*
X116648073Y-122117833D01*
X116477167Y-121946927D01*
X116276202Y-121812647D01*
X116052903Y-121720153D01*
X115815849Y-121673000D01*
X115574151Y-121673000D01*
X115557000Y-121676412D01*
X115557000Y-121178702D01*
X115578905Y-121176545D01*
X115649970Y-121154988D01*
X115690000Y-121133591D01*
X115730030Y-121154988D01*
X115801095Y-121176545D01*
X115875000Y-121183824D01*
X116775000Y-121183824D01*
X116848905Y-121176545D01*
X116919970Y-121154988D01*
X116960000Y-121133591D01*
X117000030Y-121154988D01*
X117071095Y-121176545D01*
X117145000Y-121183824D01*
X118045000Y-121183824D01*
X118118905Y-121176545D01*
X118189970Y-121154988D01*
X118230000Y-121133591D01*
X118270030Y-121154988D01*
X118341095Y-121176545D01*
X118361509Y-121178556D01*
X117897463Y-121642603D01*
X117878317Y-121658316D01*
X117862604Y-121677462D01*
X117862601Y-121677465D01*
X117815584Y-121734755D01*
X117808116Y-121748726D01*
X117653798Y-121812647D01*
X117452833Y-121946927D01*
X117281927Y-122117833D01*
X117147647Y-122318798D01*
X117055153Y-122542097D01*
X117008000Y-122779151D01*
X117008000Y-123020849D01*
X117055153Y-123257903D01*
X117147647Y-123481202D01*
X117281927Y-123682167D01*
X117452833Y-123853073D01*
X117653798Y-123987353D01*
X117877097Y-124079847D01*
X118114151Y-124127000D01*
X118355849Y-124127000D01*
X118592903Y-124079847D01*
X118816202Y-123987353D01*
X119017167Y-123853073D01*
X119188073Y-123682167D01*
X119322353Y-123481202D01*
X119414847Y-123257903D01*
X119462000Y-123020849D01*
X119462000Y-122779151D01*
X119414847Y-122542097D01*
X119322353Y-122318798D01*
X119188073Y-122117833D01*
X119017167Y-121946927D01*
X119014674Y-121945261D01*
X119257957Y-121701979D01*
X120277765Y-121701979D01*
X120270573Y-121775000D01*
X120271126Y-121780616D01*
X120193798Y-121812647D01*
X119992833Y-121946927D01*
X119821927Y-122117833D01*
X119687647Y-122318798D01*
X119595153Y-122542097D01*
X119548000Y-122779151D01*
X119548000Y-123020849D01*
X119595153Y-123257903D01*
X119687647Y-123481202D01*
X119821927Y-123682167D01*
X119992833Y-123853073D01*
X120193798Y-123987353D01*
X120417097Y-124079847D01*
X120654151Y-124127000D01*
X120895849Y-124127000D01*
X121132903Y-124079847D01*
X121356202Y-123987353D01*
X121557167Y-123853073D01*
X121728073Y-123682167D01*
X121862353Y-123481202D01*
X121954847Y-123257903D01*
X122002000Y-123020849D01*
X122002000Y-122779151D01*
X121954847Y-122542097D01*
X121862353Y-122318798D01*
X121750896Y-122151990D01*
X122339104Y-122151990D01*
X122227647Y-122318798D01*
X122135153Y-122542097D01*
X122088000Y-122779151D01*
X122088000Y-123020849D01*
X122135153Y-123257903D01*
X122227647Y-123481202D01*
X122361927Y-123682167D01*
X122532833Y-123853073D01*
X122733798Y-123987353D01*
X122957097Y-124079847D01*
X123194151Y-124127000D01*
X123435849Y-124127000D01*
X123672903Y-124079847D01*
X123896202Y-123987353D01*
X124097167Y-123853073D01*
X124268073Y-123682167D01*
X124402353Y-123481202D01*
X124494847Y-123257903D01*
X124501506Y-123224426D01*
X124640789Y-123085143D01*
X124675153Y-123257903D01*
X124767647Y-123481202D01*
X124901927Y-123682167D01*
X125072833Y-123853073D01*
X125273798Y-123987353D01*
X125497097Y-124079847D01*
X125734151Y-124127000D01*
X125975849Y-124127000D01*
X126212903Y-124079847D01*
X126436202Y-123987353D01*
X126637167Y-123853073D01*
X126808073Y-123682167D01*
X126942353Y-123481202D01*
X127034847Y-123257903D01*
X127082000Y-123020849D01*
X127082000Y-122779151D01*
X127034847Y-122542097D01*
X126942353Y-122318798D01*
X126808073Y-122117833D01*
X126637167Y-121946927D01*
X126436202Y-121812647D01*
X126212903Y-121720153D01*
X126040144Y-121685789D01*
X126327539Y-121398394D01*
X126346685Y-121382681D01*
X126385616Y-121335245D01*
X126409417Y-121306243D01*
X126413616Y-121298388D01*
X126456032Y-121219033D01*
X126484737Y-121124406D01*
X126492001Y-121050650D01*
X126492001Y-121050641D01*
X126494428Y-121025998D01*
X126492001Y-121001355D01*
X126492001Y-118701935D01*
X126621176Y-118831111D01*
G37*
%TD.AperFunction*%
D23*
X113090820Y-121394502D02*
X113210518Y-121430812D01*
X113335000Y-121443072D01*
X113414159Y-121441591D01*
X113282000Y-121573750D01*
X113282000Y-122773000D01*
X113302000Y-122773000D01*
X113302000Y-123027000D01*
X113282000Y-123027000D01*
X113282000Y-123047000D01*
X113028000Y-123047000D01*
X113028000Y-123027000D01*
X113008000Y-123027000D01*
X113008000Y-122773000D01*
X113028000Y-122773000D01*
X113028000Y-121573750D01*
X112957092Y-121502842D01*
X113074276Y-121385659D01*
X113090820Y-121394502D01*
%TA.AperFunction,Conductor*%
D24*
G36*
X113090820Y-121394502D02*
G01*
X113210518Y-121430812D01*
X113335000Y-121443072D01*
X113414159Y-121441591D01*
X113282000Y-121573750D01*
X113282000Y-122773000D01*
X113302000Y-122773000D01*
X113302000Y-123027000D01*
X113282000Y-123027000D01*
X113282000Y-123047000D01*
X113028000Y-123047000D01*
X113028000Y-123027000D01*
X113008000Y-123027000D01*
X113008000Y-122773000D01*
X113028000Y-122773000D01*
X113028000Y-121573750D01*
X112957092Y-121502842D01*
X113074276Y-121385659D01*
X113090820Y-121394502D01*
G37*
%TD.AperFunction*%
D23*
X113912000Y-119678000D02*
X113932000Y-119678000D01*
X113932000Y-119932000D01*
X113912000Y-119932000D01*
X113912000Y-119952000D01*
X113658000Y-119952000D01*
X113658000Y-119932000D01*
X113638000Y-119932000D01*
X113638000Y-119678000D01*
X113658000Y-119678000D01*
X113658000Y-119658000D01*
X113912000Y-119658000D01*
X113912000Y-119678000D01*
%TA.AperFunction,Conductor*%
D24*
G36*
X113912000Y-119678000D02*
G01*
X113932000Y-119678000D01*
X113932000Y-119932000D01*
X113912000Y-119932000D01*
X113912000Y-119952000D01*
X113658000Y-119952000D01*
X113658000Y-119932000D01*
X113638000Y-119932000D01*
X113638000Y-119678000D01*
X113658000Y-119678000D01*
X113658000Y-119658000D01*
X113912000Y-119658000D01*
X113912000Y-119678000D01*
G37*
%TD.AperFunction*%
D23*
X126469463Y-101490506D02*
X126410498Y-101600820D01*
X126374188Y-101720518D01*
X126361928Y-101845000D01*
X126365000Y-102009250D01*
X126523750Y-102168000D01*
X127873000Y-102168000D01*
X127873000Y-102148000D01*
X128127000Y-102148000D01*
X128127000Y-102168000D01*
X128147000Y-102168000D01*
X128147000Y-102422000D01*
X128127000Y-102422000D01*
X128127000Y-102442000D01*
X127873000Y-102442000D01*
X127873000Y-102422000D01*
X126523750Y-102422000D01*
X126365000Y-102580750D01*
X126361928Y-102745000D01*
X126374188Y-102869482D01*
X126410498Y-102989180D01*
X126469463Y-103099494D01*
X126548815Y-103196185D01*
X126621176Y-103255570D01*
X126621176Y-104015000D01*
X126628455Y-104088905D01*
X126650012Y-104159970D01*
X126671409Y-104200000D01*
X126650012Y-104240030D01*
X126628455Y-104311095D01*
X126621176Y-104385000D01*
X126621176Y-105285000D01*
X126628455Y-105358905D01*
X126650012Y-105429970D01*
X126671409Y-105470000D01*
X126650012Y-105510030D01*
X126628455Y-105581095D01*
X126624781Y-105618396D01*
X126556963Y-105638969D01*
X126469754Y-105685583D01*
X126412465Y-105732600D01*
X126412462Y-105732603D01*
X126393316Y-105748316D01*
X126377603Y-105767462D01*
X125851429Y-106293637D01*
X125832278Y-106309354D01*
X125769545Y-106385793D01*
X125722931Y-106473003D01*
X125694226Y-106567630D01*
X125686962Y-106641386D01*
X125686962Y-106641395D01*
X125684535Y-106666038D01*
X125686962Y-106690681D01*
X125686963Y-113842539D01*
X125287498Y-114242005D01*
X125268347Y-114257722D01*
X125205614Y-114334161D01*
X125159000Y-114421371D01*
X125130295Y-114515998D01*
X125123031Y-114589754D01*
X125123031Y-114589763D01*
X125120604Y-114614406D01*
X125123031Y-114639049D01*
X125123032Y-115167033D01*
X122762077Y-117527989D01*
X116446993Y-117527989D01*
X116388569Y-117386941D01*
X116303536Y-117259680D01*
X116201170Y-117157314D01*
X116451675Y-117122961D01*
X116756088Y-117017795D01*
X116930044Y-116924814D01*
X117025808Y-116660413D01*
X116070000Y-115704605D01*
X116055858Y-115718748D01*
X115876253Y-115539143D01*
X115890395Y-115525000D01*
X116249605Y-115525000D01*
X117205413Y-116480808D01*
X117469814Y-116385044D01*
X117610704Y-116095429D01*
X117692384Y-115783892D01*
X117711718Y-115462405D01*
X117667961Y-115143325D01*
X117562795Y-114838912D01*
X117469814Y-114664956D01*
X117205413Y-114569192D01*
X116249605Y-115525000D01*
X115890395Y-115525000D01*
X115876253Y-115510858D01*
X116055858Y-115331253D01*
X116070000Y-115345395D01*
X117025808Y-114389587D01*
X116930044Y-114125186D01*
X116640429Y-113984296D01*
X116515706Y-113951596D01*
X116510432Y-113924822D01*
X117138910Y-113924822D01*
X117234466Y-114020378D01*
X117241019Y-114086915D01*
X117269724Y-114181542D01*
X117316338Y-114268752D01*
X117379071Y-114345191D01*
X117398222Y-114360908D01*
X117851227Y-114813914D01*
X117866940Y-114833060D01*
X117886086Y-114848773D01*
X117886088Y-114848775D01*
X117907691Y-114866504D01*
X117943379Y-114895793D01*
X118030588Y-114942407D01*
X118125215Y-114971112D01*
X118198971Y-114978376D01*
X118198981Y-114978376D01*
X118223624Y-114980803D01*
X118248267Y-114978376D01*
X124212167Y-114978376D01*
X124236810Y-114980803D01*
X124261453Y-114978376D01*
X124261463Y-114978376D01*
X124335219Y-114971112D01*
X124429846Y-114942407D01*
X124517055Y-114895793D01*
X124593494Y-114833060D01*
X124609211Y-114813909D01*
X125430964Y-113992157D01*
X125450110Y-113976444D01*
X125467301Y-113955498D01*
X125512842Y-113900006D01*
X125518138Y-113890098D01*
X125559457Y-113812796D01*
X125588162Y-113718169D01*
X125595426Y-113644413D01*
X125595426Y-113644403D01*
X125597853Y-113619760D01*
X125595426Y-113595117D01*
X125595426Y-110169145D01*
X125597853Y-110144502D01*
X125595426Y-110119859D01*
X125595426Y-110119849D01*
X125588162Y-110046093D01*
X125559457Y-109951466D01*
X125512843Y-109864257D01*
X125482268Y-109827002D01*
X125465826Y-109806967D01*
X125465823Y-109806964D01*
X125450110Y-109787818D01*
X125430963Y-109772104D01*
X125246871Y-109588012D01*
X125246862Y-109588002D01*
X125176990Y-109518130D01*
X125176990Y-109374538D01*
X125147131Y-109224423D01*
X125088559Y-109083018D01*
X125003526Y-108955757D01*
X124895299Y-108847530D01*
X124768038Y-108762497D01*
X124626633Y-108703925D01*
X124476518Y-108674066D01*
X124323462Y-108674066D01*
X124173347Y-108703925D01*
X124031942Y-108762497D01*
X123904681Y-108847530D01*
X123796454Y-108955757D01*
X123711421Y-109083018D01*
X123652849Y-109224423D01*
X123622990Y-109374538D01*
X123622990Y-109527594D01*
X123652849Y-109677709D01*
X123711421Y-109819114D01*
X123796454Y-109946375D01*
X123904681Y-110054602D01*
X124031942Y-110139635D01*
X124173347Y-110198207D01*
X124323462Y-110228066D01*
X124467054Y-110228066D01*
X124536926Y-110297938D01*
X124536936Y-110297947D01*
X124591427Y-110352437D01*
X124591426Y-113411825D01*
X124028876Y-113974376D01*
X118431559Y-113974376D01*
X118353720Y-113896537D01*
X118424324Y-113790870D01*
X118482896Y-113649465D01*
X118512755Y-113499350D01*
X118512755Y-113346294D01*
X118482896Y-113196179D01*
X118424324Y-113054774D01*
X118339291Y-112927513D01*
X118278014Y-112866236D01*
X118373000Y-112771250D01*
X118373000Y-109922000D01*
X115523750Y-109922000D01*
X115365000Y-110080750D01*
X115361928Y-112295000D01*
X115374188Y-112419482D01*
X115410498Y-112539180D01*
X115469463Y-112649494D01*
X115548815Y-112746185D01*
X115645506Y-112825537D01*
X115755820Y-112884502D01*
X115875518Y-112920812D01*
X115875620Y-112920822D01*
X115356819Y-112920822D01*
X115332176Y-112918395D01*
X115307533Y-112920822D01*
X115307523Y-112920822D01*
X115233767Y-112928086D01*
X115139140Y-112956791D01*
X115111565Y-112971530D01*
X115051930Y-113003405D01*
X114994640Y-113050422D01*
X114994632Y-113050430D01*
X114975492Y-113066138D01*
X114959783Y-113085279D01*
X114407466Y-113637598D01*
X114388315Y-113653315D01*
X114325582Y-113729754D01*
X114278968Y-113816964D01*
X114250263Y-113911591D01*
X114242999Y-113985347D01*
X114242999Y-113985356D01*
X114240572Y-114009999D01*
X114242999Y-114034642D01*
X114243000Y-116337063D01*
X114122876Y-116457188D01*
X114100564Y-116463956D01*
X114013355Y-116510570D01*
X114013353Y-116510571D01*
X114013354Y-116510571D01*
X113967973Y-116547815D01*
X113936916Y-116573303D01*
X113921203Y-116592449D01*
X113404590Y-117109062D01*
X113457343Y-116981706D01*
X113487202Y-116831591D01*
X113487202Y-116686992D01*
X113529617Y-116635310D01*
X113529618Y-116635309D01*
X113576232Y-116548100D01*
X113604937Y-116453473D01*
X113612201Y-116379717D01*
X113612201Y-116379708D01*
X113614628Y-116355065D01*
X113612201Y-116330422D01*
X113612201Y-114784843D01*
X113614628Y-114760200D01*
X113612201Y-114735557D01*
X113612201Y-114735548D01*
X113604937Y-114661792D01*
X113576232Y-114567165D01*
X113529618Y-114479956D01*
X113499181Y-114442869D01*
X113482600Y-114422665D01*
X113482598Y-114422663D01*
X113466885Y-114403517D01*
X113447739Y-114387804D01*
X112827001Y-113767067D01*
X112827001Y-108382933D01*
X113402539Y-107807396D01*
X113421685Y-107791683D01*
X113484418Y-107715244D01*
X113531032Y-107628035D01*
X113559737Y-107533408D01*
X113567001Y-107459652D01*
X113567001Y-107459643D01*
X113569428Y-107435000D01*
X113567001Y-107410357D01*
X113567001Y-105674643D01*
X113569428Y-105650000D01*
X113567001Y-105625357D01*
X113567001Y-105625348D01*
X113559737Y-105551592D01*
X113531032Y-105456965D01*
X113484418Y-105369756D01*
X113421685Y-105293317D01*
X113402539Y-105277604D01*
X112622401Y-104497467D01*
X112606684Y-104478316D01*
X112530245Y-104415583D01*
X112443036Y-104368969D01*
X112375219Y-104348397D01*
X112371545Y-104311095D01*
X112349988Y-104240030D01*
X112328591Y-104200000D01*
X112349988Y-104159970D01*
X112371545Y-104088905D01*
X112375219Y-104051603D01*
X112443036Y-104031031D01*
X112530245Y-103984417D01*
X112606684Y-103921684D01*
X112622401Y-103902533D01*
X113137538Y-103387397D01*
X113156684Y-103371684D01*
X113219417Y-103295245D01*
X113266031Y-103208036D01*
X113294736Y-103113409D01*
X113302000Y-103039653D01*
X113302000Y-103039644D01*
X113304427Y-103015001D01*
X113302000Y-102990358D01*
X113302000Y-102407934D01*
X113632936Y-102076999D01*
X113914645Y-102076999D01*
X113890199Y-102136017D01*
X113860340Y-102286132D01*
X113860340Y-102439188D01*
X113890199Y-102589303D01*
X113948771Y-102730708D01*
X114033804Y-102857969D01*
X114136051Y-102960216D01*
X114142604Y-103026753D01*
X114171309Y-103121380D01*
X114217923Y-103208590D01*
X114280656Y-103285029D01*
X114299807Y-103300746D01*
X116246735Y-105247675D01*
X116007405Y-105233282D01*
X115688325Y-105277039D01*
X115383912Y-105382205D01*
X115209956Y-105475186D01*
X115114192Y-105739587D01*
X116031577Y-106656972D01*
X116000000Y-106656928D01*
X115875518Y-106669188D01*
X115755820Y-106705498D01*
X115733059Y-106717664D01*
X114934587Y-105919192D01*
X114670186Y-106014956D01*
X114529296Y-106304571D01*
X114447616Y-106616108D01*
X114428282Y-106937595D01*
X114472039Y-107256675D01*
X114577205Y-107561088D01*
X114670186Y-107735044D01*
X114929277Y-107828885D01*
X114932892Y-107832500D01*
X114907732Y-107857660D01*
X114762237Y-107865575D01*
X114691438Y-108035603D01*
X114655172Y-108216176D01*
X114654829Y-108400355D01*
X114690426Y-108581061D01*
X114760592Y-108751351D01*
X114762237Y-108754425D01*
X114955459Y-108764936D01*
X115363401Y-108356994D01*
X115363899Y-108715706D01*
X115135064Y-108944541D01*
X115145575Y-109137763D01*
X115315603Y-109208562D01*
X115364596Y-109218402D01*
X115365000Y-109509250D01*
X115523750Y-109668000D01*
X118373000Y-109668000D01*
X118373000Y-106818750D01*
X118214250Y-106660000D01*
X117690718Y-106659274D01*
X117667961Y-106493325D01*
X117562795Y-106188912D01*
X117469814Y-106014956D01*
X117205413Y-105919192D01*
X116467029Y-106657576D01*
X116108317Y-106657078D01*
X117025808Y-105739587D01*
X116930044Y-105475186D01*
X116830996Y-105427002D01*
X119817068Y-105427002D01*
X121052127Y-106662062D01*
X121000000Y-106656928D01*
X118785750Y-106660000D01*
X118627000Y-106818750D01*
X118627000Y-109668000D01*
X121476250Y-109668000D01*
X121635000Y-109509250D01*
X121638072Y-107295000D01*
X121632938Y-107242873D01*
X122398001Y-108007936D01*
X122398000Y-111001733D01*
X122395573Y-111026376D01*
X122398000Y-111051019D01*
X122398000Y-111051028D01*
X122405264Y-111124784D01*
X122433969Y-111219411D01*
X122480583Y-111306621D01*
X122543316Y-111383060D01*
X122562467Y-111398777D01*
X122785255Y-111621566D01*
X122780158Y-111623677D01*
X122652897Y-111708710D01*
X122551361Y-111810246D01*
X122276118Y-111810246D01*
X122204255Y-111702695D01*
X122102000Y-111600440D01*
X122102000Y-111344837D01*
X122203536Y-111243301D01*
X122288569Y-111116040D01*
X122347141Y-110974635D01*
X122377000Y-110824520D01*
X122377000Y-110671464D01*
X122347141Y-110521349D01*
X122288569Y-110379944D01*
X122203536Y-110252683D01*
X122095309Y-110144456D01*
X121968048Y-110059423D01*
X121826643Y-110000851D01*
X121676528Y-109970992D01*
X121525242Y-109970992D01*
X121476250Y-109922000D01*
X118627000Y-109922000D01*
X118627000Y-112771250D01*
X118723000Y-112867250D01*
X118723000Y-112971530D01*
X118752859Y-113121645D01*
X118811431Y-113263050D01*
X118896464Y-113390311D01*
X119004691Y-113498538D01*
X119131952Y-113583571D01*
X119273357Y-113642143D01*
X119423472Y-113672002D01*
X119568071Y-113672002D01*
X119594620Y-113693791D01*
X119619754Y-113714418D01*
X119706963Y-113761032D01*
X119801590Y-113789737D01*
X119875346Y-113797001D01*
X119875355Y-113797001D01*
X119899998Y-113799428D01*
X119924641Y-113797001D01*
X123167168Y-113797001D01*
X123191811Y-113799428D01*
X123216454Y-113797001D01*
X123216464Y-113797001D01*
X123290220Y-113789737D01*
X123384847Y-113761032D01*
X123472056Y-113714418D01*
X123548495Y-113651685D01*
X123564212Y-113632534D01*
X124280943Y-112915804D01*
X124300089Y-112900091D01*
X124362822Y-112823652D01*
X124409436Y-112736443D01*
X124438141Y-112641816D01*
X124445405Y-112568060D01*
X124445405Y-112568051D01*
X124447832Y-112543408D01*
X124445405Y-112518765D01*
X124445405Y-112094426D01*
X124447832Y-112069781D01*
X124445405Y-112045135D01*
X124445405Y-112045129D01*
X124438141Y-111971372D01*
X124421878Y-111917759D01*
X124409436Y-111876744D01*
X124362822Y-111789535D01*
X124315805Y-111732246D01*
X124315802Y-111732243D01*
X124300089Y-111713097D01*
X124280943Y-111697384D01*
X123402000Y-110818442D01*
X123402000Y-107824642D01*
X123404427Y-107799999D01*
X123402000Y-107775356D01*
X123402000Y-107775347D01*
X123394736Y-107701591D01*
X123366031Y-107606964D01*
X123319417Y-107519755D01*
X123303739Y-107500652D01*
X123272399Y-107462464D01*
X123272397Y-107462462D01*
X123256684Y-107443316D01*
X123237538Y-107427603D01*
X120397404Y-104587470D01*
X120381686Y-104568318D01*
X120305247Y-104505585D01*
X120218038Y-104458971D01*
X120123411Y-104430266D01*
X120049655Y-104423002D01*
X120049645Y-104423002D01*
X120025002Y-104420575D01*
X120000359Y-104423002D01*
X119141346Y-104423002D01*
X119245309Y-104353536D01*
X119353536Y-104245309D01*
X119438569Y-104118048D01*
X119497141Y-103976643D01*
X119527000Y-103826528D01*
X119527000Y-103673472D01*
X119497141Y-103523357D01*
X119438569Y-103381952D01*
X119353536Y-103254691D01*
X119245309Y-103146464D01*
X119118048Y-103061431D01*
X118976643Y-103002859D01*
X118826528Y-102973000D01*
X118673472Y-102973000D01*
X118523357Y-103002859D01*
X118381952Y-103061431D01*
X118254691Y-103146464D01*
X118146464Y-103254691D01*
X118061431Y-103381952D01*
X118002859Y-103523357D01*
X117973000Y-103673472D01*
X117973000Y-103798000D01*
X117107936Y-103798000D01*
X116102000Y-102792066D01*
X116102000Y-102124645D01*
X116104427Y-102100000D01*
X116102000Y-102075354D01*
X116102000Y-102075347D01*
X116094736Y-102001591D01*
X116092619Y-101994612D01*
X116066031Y-101906963D01*
X116019417Y-101819754D01*
X115972400Y-101762465D01*
X115972397Y-101762462D01*
X115956684Y-101743316D01*
X115937538Y-101727603D01*
X115636934Y-101427000D01*
X126521581Y-101427000D01*
X126469463Y-101490506D01*
%TA.AperFunction,Conductor*%
D24*
G36*
X126469463Y-101490506D02*
G01*
X126410498Y-101600820D01*
X126374188Y-101720518D01*
X126361928Y-101845000D01*
X126365000Y-102009250D01*
X126523750Y-102168000D01*
X127873000Y-102168000D01*
X127873000Y-102148000D01*
X128127000Y-102148000D01*
X128127000Y-102168000D01*
X128147000Y-102168000D01*
X128147000Y-102422000D01*
X128127000Y-102422000D01*
X128127000Y-102442000D01*
X127873000Y-102442000D01*
X127873000Y-102422000D01*
X126523750Y-102422000D01*
X126365000Y-102580750D01*
X126361928Y-102745000D01*
X126374188Y-102869482D01*
X126410498Y-102989180D01*
X126469463Y-103099494D01*
X126548815Y-103196185D01*
X126621176Y-103255570D01*
X126621176Y-104015000D01*
X126628455Y-104088905D01*
X126650012Y-104159970D01*
X126671409Y-104200000D01*
X126650012Y-104240030D01*
X126628455Y-104311095D01*
X126621176Y-104385000D01*
X126621176Y-105285000D01*
X126628455Y-105358905D01*
X126650012Y-105429970D01*
X126671409Y-105470000D01*
X126650012Y-105510030D01*
X126628455Y-105581095D01*
X126624781Y-105618396D01*
X126556963Y-105638969D01*
X126469754Y-105685583D01*
X126412465Y-105732600D01*
X126412462Y-105732603D01*
X126393316Y-105748316D01*
X126377603Y-105767462D01*
X125851429Y-106293637D01*
X125832278Y-106309354D01*
X125769545Y-106385793D01*
X125722931Y-106473003D01*
X125694226Y-106567630D01*
X125686962Y-106641386D01*
X125686962Y-106641395D01*
X125684535Y-106666038D01*
X125686962Y-106690681D01*
X125686963Y-113842539D01*
X125287498Y-114242005D01*
X125268347Y-114257722D01*
X125205614Y-114334161D01*
X125159000Y-114421371D01*
X125130295Y-114515998D01*
X125123031Y-114589754D01*
X125123031Y-114589763D01*
X125120604Y-114614406D01*
X125123031Y-114639049D01*
X125123032Y-115167033D01*
X122762077Y-117527989D01*
X116446993Y-117527989D01*
X116388569Y-117386941D01*
X116303536Y-117259680D01*
X116201170Y-117157314D01*
X116451675Y-117122961D01*
X116756088Y-117017795D01*
X116930044Y-116924814D01*
X117025808Y-116660413D01*
X116070000Y-115704605D01*
X116055858Y-115718748D01*
X115876253Y-115539143D01*
X115890395Y-115525000D01*
X116249605Y-115525000D01*
X117205413Y-116480808D01*
X117469814Y-116385044D01*
X117610704Y-116095429D01*
X117692384Y-115783892D01*
X117711718Y-115462405D01*
X117667961Y-115143325D01*
X117562795Y-114838912D01*
X117469814Y-114664956D01*
X117205413Y-114569192D01*
X116249605Y-115525000D01*
X115890395Y-115525000D01*
X115876253Y-115510858D01*
X116055858Y-115331253D01*
X116070000Y-115345395D01*
X117025808Y-114389587D01*
X116930044Y-114125186D01*
X116640429Y-113984296D01*
X116515706Y-113951596D01*
X116510432Y-113924822D01*
X117138910Y-113924822D01*
X117234466Y-114020378D01*
X117241019Y-114086915D01*
X117269724Y-114181542D01*
X117316338Y-114268752D01*
X117379071Y-114345191D01*
X117398222Y-114360908D01*
X117851227Y-114813914D01*
X117866940Y-114833060D01*
X117886086Y-114848773D01*
X117886088Y-114848775D01*
X117907691Y-114866504D01*
X117943379Y-114895793D01*
X118030588Y-114942407D01*
X118125215Y-114971112D01*
X118198971Y-114978376D01*
X118198981Y-114978376D01*
X118223624Y-114980803D01*
X118248267Y-114978376D01*
X124212167Y-114978376D01*
X124236810Y-114980803D01*
X124261453Y-114978376D01*
X124261463Y-114978376D01*
X124335219Y-114971112D01*
X124429846Y-114942407D01*
X124517055Y-114895793D01*
X124593494Y-114833060D01*
X124609211Y-114813909D01*
X125430964Y-113992157D01*
X125450110Y-113976444D01*
X125467301Y-113955498D01*
X125512842Y-113900006D01*
X125518138Y-113890098D01*
X125559457Y-113812796D01*
X125588162Y-113718169D01*
X125595426Y-113644413D01*
X125595426Y-113644403D01*
X125597853Y-113619760D01*
X125595426Y-113595117D01*
X125595426Y-110169145D01*
X125597853Y-110144502D01*
X125595426Y-110119859D01*
X125595426Y-110119849D01*
X125588162Y-110046093D01*
X125559457Y-109951466D01*
X125512843Y-109864257D01*
X125482268Y-109827002D01*
X125465826Y-109806967D01*
X125465823Y-109806964D01*
X125450110Y-109787818D01*
X125430963Y-109772104D01*
X125246871Y-109588012D01*
X125246862Y-109588002D01*
X125176990Y-109518130D01*
X125176990Y-109374538D01*
X125147131Y-109224423D01*
X125088559Y-109083018D01*
X125003526Y-108955757D01*
X124895299Y-108847530D01*
X124768038Y-108762497D01*
X124626633Y-108703925D01*
X124476518Y-108674066D01*
X124323462Y-108674066D01*
X124173347Y-108703925D01*
X124031942Y-108762497D01*
X123904681Y-108847530D01*
X123796454Y-108955757D01*
X123711421Y-109083018D01*
X123652849Y-109224423D01*
X123622990Y-109374538D01*
X123622990Y-109527594D01*
X123652849Y-109677709D01*
X123711421Y-109819114D01*
X123796454Y-109946375D01*
X123904681Y-110054602D01*
X124031942Y-110139635D01*
X124173347Y-110198207D01*
X124323462Y-110228066D01*
X124467054Y-110228066D01*
X124536926Y-110297938D01*
X124536936Y-110297947D01*
X124591427Y-110352437D01*
X124591426Y-113411825D01*
X124028876Y-113974376D01*
X118431559Y-113974376D01*
X118353720Y-113896537D01*
X118424324Y-113790870D01*
X118482896Y-113649465D01*
X118512755Y-113499350D01*
X118512755Y-113346294D01*
X118482896Y-113196179D01*
X118424324Y-113054774D01*
X118339291Y-112927513D01*
X118278014Y-112866236D01*
X118373000Y-112771250D01*
X118373000Y-109922000D01*
X115523750Y-109922000D01*
X115365000Y-110080750D01*
X115361928Y-112295000D01*
X115374188Y-112419482D01*
X115410498Y-112539180D01*
X115469463Y-112649494D01*
X115548815Y-112746185D01*
X115645506Y-112825537D01*
X115755820Y-112884502D01*
X115875518Y-112920812D01*
X115875620Y-112920822D01*
X115356819Y-112920822D01*
X115332176Y-112918395D01*
X115307533Y-112920822D01*
X115307523Y-112920822D01*
X115233767Y-112928086D01*
X115139140Y-112956791D01*
X115111565Y-112971530D01*
X115051930Y-113003405D01*
X114994640Y-113050422D01*
X114994632Y-113050430D01*
X114975492Y-113066138D01*
X114959783Y-113085279D01*
X114407466Y-113637598D01*
X114388315Y-113653315D01*
X114325582Y-113729754D01*
X114278968Y-113816964D01*
X114250263Y-113911591D01*
X114242999Y-113985347D01*
X114242999Y-113985356D01*
X114240572Y-114009999D01*
X114242999Y-114034642D01*
X114243000Y-116337063D01*
X114122876Y-116457188D01*
X114100564Y-116463956D01*
X114013355Y-116510570D01*
X114013353Y-116510571D01*
X114013354Y-116510571D01*
X113967973Y-116547815D01*
X113936916Y-116573303D01*
X113921203Y-116592449D01*
X113404590Y-117109062D01*
X113457343Y-116981706D01*
X113487202Y-116831591D01*
X113487202Y-116686992D01*
X113529617Y-116635310D01*
X113529618Y-116635309D01*
X113576232Y-116548100D01*
X113604937Y-116453473D01*
X113612201Y-116379717D01*
X113612201Y-116379708D01*
X113614628Y-116355065D01*
X113612201Y-116330422D01*
X113612201Y-114784843D01*
X113614628Y-114760200D01*
X113612201Y-114735557D01*
X113612201Y-114735548D01*
X113604937Y-114661792D01*
X113576232Y-114567165D01*
X113529618Y-114479956D01*
X113499181Y-114442869D01*
X113482600Y-114422665D01*
X113482598Y-114422663D01*
X113466885Y-114403517D01*
X113447739Y-114387804D01*
X112827001Y-113767067D01*
X112827001Y-108382933D01*
X113402539Y-107807396D01*
X113421685Y-107791683D01*
X113484418Y-107715244D01*
X113531032Y-107628035D01*
X113559737Y-107533408D01*
X113567001Y-107459652D01*
X113567001Y-107459643D01*
X113569428Y-107435000D01*
X113567001Y-107410357D01*
X113567001Y-105674643D01*
X113569428Y-105650000D01*
X113567001Y-105625357D01*
X113567001Y-105625348D01*
X113559737Y-105551592D01*
X113531032Y-105456965D01*
X113484418Y-105369756D01*
X113421685Y-105293317D01*
X113402539Y-105277604D01*
X112622401Y-104497467D01*
X112606684Y-104478316D01*
X112530245Y-104415583D01*
X112443036Y-104368969D01*
X112375219Y-104348397D01*
X112371545Y-104311095D01*
X112349988Y-104240030D01*
X112328591Y-104200000D01*
X112349988Y-104159970D01*
X112371545Y-104088905D01*
X112375219Y-104051603D01*
X112443036Y-104031031D01*
X112530245Y-103984417D01*
X112606684Y-103921684D01*
X112622401Y-103902533D01*
X113137538Y-103387397D01*
X113156684Y-103371684D01*
X113219417Y-103295245D01*
X113266031Y-103208036D01*
X113294736Y-103113409D01*
X113302000Y-103039653D01*
X113302000Y-103039644D01*
X113304427Y-103015001D01*
X113302000Y-102990358D01*
X113302000Y-102407934D01*
X113632936Y-102076999D01*
X113914645Y-102076999D01*
X113890199Y-102136017D01*
X113860340Y-102286132D01*
X113860340Y-102439188D01*
X113890199Y-102589303D01*
X113948771Y-102730708D01*
X114033804Y-102857969D01*
X114136051Y-102960216D01*
X114142604Y-103026753D01*
X114171309Y-103121380D01*
X114217923Y-103208590D01*
X114280656Y-103285029D01*
X114299807Y-103300746D01*
X116246735Y-105247675D01*
X116007405Y-105233282D01*
X115688325Y-105277039D01*
X115383912Y-105382205D01*
X115209956Y-105475186D01*
X115114192Y-105739587D01*
X116031577Y-106656972D01*
X116000000Y-106656928D01*
X115875518Y-106669188D01*
X115755820Y-106705498D01*
X115733059Y-106717664D01*
X114934587Y-105919192D01*
X114670186Y-106014956D01*
X114529296Y-106304571D01*
X114447616Y-106616108D01*
X114428282Y-106937595D01*
X114472039Y-107256675D01*
X114577205Y-107561088D01*
X114670186Y-107735044D01*
X114929277Y-107828885D01*
X114932892Y-107832500D01*
X114907732Y-107857660D01*
X114762237Y-107865575D01*
X114691438Y-108035603D01*
X114655172Y-108216176D01*
X114654829Y-108400355D01*
X114690426Y-108581061D01*
X114760592Y-108751351D01*
X114762237Y-108754425D01*
X114955459Y-108764936D01*
X115363401Y-108356994D01*
X115363899Y-108715706D01*
X115135064Y-108944541D01*
X115145575Y-109137763D01*
X115315603Y-109208562D01*
X115364596Y-109218402D01*
X115365000Y-109509250D01*
X115523750Y-109668000D01*
X118373000Y-109668000D01*
X118373000Y-106818750D01*
X118214250Y-106660000D01*
X117690718Y-106659274D01*
X117667961Y-106493325D01*
X117562795Y-106188912D01*
X117469814Y-106014956D01*
X117205413Y-105919192D01*
X116467029Y-106657576D01*
X116108317Y-106657078D01*
X117025808Y-105739587D01*
X116930044Y-105475186D01*
X116830996Y-105427002D01*
X119817068Y-105427002D01*
X121052127Y-106662062D01*
X121000000Y-106656928D01*
X118785750Y-106660000D01*
X118627000Y-106818750D01*
X118627000Y-109668000D01*
X121476250Y-109668000D01*
X121635000Y-109509250D01*
X121638072Y-107295000D01*
X121632938Y-107242873D01*
X122398001Y-108007936D01*
X122398000Y-111001733D01*
X122395573Y-111026376D01*
X122398000Y-111051019D01*
X122398000Y-111051028D01*
X122405264Y-111124784D01*
X122433969Y-111219411D01*
X122480583Y-111306621D01*
X122543316Y-111383060D01*
X122562467Y-111398777D01*
X122785255Y-111621566D01*
X122780158Y-111623677D01*
X122652897Y-111708710D01*
X122551361Y-111810246D01*
X122276118Y-111810246D01*
X122204255Y-111702695D01*
X122102000Y-111600440D01*
X122102000Y-111344837D01*
X122203536Y-111243301D01*
X122288569Y-111116040D01*
X122347141Y-110974635D01*
X122377000Y-110824520D01*
X122377000Y-110671464D01*
X122347141Y-110521349D01*
X122288569Y-110379944D01*
X122203536Y-110252683D01*
X122095309Y-110144456D01*
X121968048Y-110059423D01*
X121826643Y-110000851D01*
X121676528Y-109970992D01*
X121525242Y-109970992D01*
X121476250Y-109922000D01*
X118627000Y-109922000D01*
X118627000Y-112771250D01*
X118723000Y-112867250D01*
X118723000Y-112971530D01*
X118752859Y-113121645D01*
X118811431Y-113263050D01*
X118896464Y-113390311D01*
X119004691Y-113498538D01*
X119131952Y-113583571D01*
X119273357Y-113642143D01*
X119423472Y-113672002D01*
X119568071Y-113672002D01*
X119594620Y-113693791D01*
X119619754Y-113714418D01*
X119706963Y-113761032D01*
X119801590Y-113789737D01*
X119875346Y-113797001D01*
X119875355Y-113797001D01*
X119899998Y-113799428D01*
X119924641Y-113797001D01*
X123167168Y-113797001D01*
X123191811Y-113799428D01*
X123216454Y-113797001D01*
X123216464Y-113797001D01*
X123290220Y-113789737D01*
X123384847Y-113761032D01*
X123472056Y-113714418D01*
X123548495Y-113651685D01*
X123564212Y-113632534D01*
X124280943Y-112915804D01*
X124300089Y-112900091D01*
X124362822Y-112823652D01*
X124409436Y-112736443D01*
X124438141Y-112641816D01*
X124445405Y-112568060D01*
X124445405Y-112568051D01*
X124447832Y-112543408D01*
X124445405Y-112518765D01*
X124445405Y-112094426D01*
X124447832Y-112069781D01*
X124445405Y-112045135D01*
X124445405Y-112045129D01*
X124438141Y-111971372D01*
X124421878Y-111917759D01*
X124409436Y-111876744D01*
X124362822Y-111789535D01*
X124315805Y-111732246D01*
X124315802Y-111732243D01*
X124300089Y-111713097D01*
X124280943Y-111697384D01*
X123402000Y-110818442D01*
X123402000Y-107824642D01*
X123404427Y-107799999D01*
X123402000Y-107775356D01*
X123402000Y-107775347D01*
X123394736Y-107701591D01*
X123366031Y-107606964D01*
X123319417Y-107519755D01*
X123303739Y-107500652D01*
X123272399Y-107462464D01*
X123272397Y-107462462D01*
X123256684Y-107443316D01*
X123237538Y-107427603D01*
X120397404Y-104587470D01*
X120381686Y-104568318D01*
X120305247Y-104505585D01*
X120218038Y-104458971D01*
X120123411Y-104430266D01*
X120049655Y-104423002D01*
X120049645Y-104423002D01*
X120025002Y-104420575D01*
X120000359Y-104423002D01*
X119141346Y-104423002D01*
X119245309Y-104353536D01*
X119353536Y-104245309D01*
X119438569Y-104118048D01*
X119497141Y-103976643D01*
X119527000Y-103826528D01*
X119527000Y-103673472D01*
X119497141Y-103523357D01*
X119438569Y-103381952D01*
X119353536Y-103254691D01*
X119245309Y-103146464D01*
X119118048Y-103061431D01*
X118976643Y-103002859D01*
X118826528Y-102973000D01*
X118673472Y-102973000D01*
X118523357Y-103002859D01*
X118381952Y-103061431D01*
X118254691Y-103146464D01*
X118146464Y-103254691D01*
X118061431Y-103381952D01*
X118002859Y-103523357D01*
X117973000Y-103673472D01*
X117973000Y-103798000D01*
X117107936Y-103798000D01*
X116102000Y-102792066D01*
X116102000Y-102124645D01*
X116104427Y-102100000D01*
X116102000Y-102075354D01*
X116102000Y-102075347D01*
X116094736Y-102001591D01*
X116092619Y-101994612D01*
X116066031Y-101906963D01*
X116019417Y-101819754D01*
X115972400Y-101762465D01*
X115972397Y-101762462D01*
X115956684Y-101743316D01*
X115937538Y-101727603D01*
X115636934Y-101427000D01*
X126521581Y-101427000D01*
X126469463Y-101490506D01*
G37*
%TD.AperFunction*%
D23*
X115648639Y-113940749D02*
X115469459Y-114002651D01*
X115547288Y-113924822D01*
X115632712Y-113924822D01*
X115648639Y-113940749D01*
%TA.AperFunction,Conductor*%
D24*
G36*
X115648639Y-113940749D02*
G01*
X115469459Y-114002651D01*
X115547288Y-113924822D01*
X115632712Y-113924822D01*
X115648639Y-113940749D01*
G37*
%TD.AperFunction*%
D23*
X111127000Y-102168000D02*
X111147000Y-102168000D01*
X111147000Y-102422000D01*
X111127000Y-102422000D01*
X111127000Y-102442000D01*
X110873000Y-102442000D01*
X110873000Y-102422000D01*
X110853000Y-102422000D01*
X110853000Y-102168000D01*
X110873000Y-102168000D01*
X110873000Y-102148000D01*
X111127000Y-102148000D01*
X111127000Y-102168000D01*
%TA.AperFunction,Conductor*%
D24*
G36*
X111127000Y-102168000D02*
G01*
X111147000Y-102168000D01*
X111147000Y-102422000D01*
X111127000Y-102422000D01*
X111127000Y-102442000D01*
X110873000Y-102442000D01*
X110873000Y-102422000D01*
X110853000Y-102422000D01*
X110853000Y-102168000D01*
X110873000Y-102168000D01*
X110873000Y-102148000D01*
X111127000Y-102148000D01*
X111127000Y-102168000D01*
G37*
%TD.AperFunction*%
%TD*%
M02*
