%TF.GenerationSoftware,KiCad,Pcbnew,(5.1.9-0-10_14)*%
%TF.CreationDate,2021-03-10T14:20:52+00:00*%
%TF.ProjectId,Generic,47656e65-7269-4632-9e6b-696361645f70,2*%
%TF.SameCoordinates,Original*%
%TF.FileFunction,Legend,Bot*%
%TF.FilePolarity,Positive*%
%FSLAX46Y46*%
G04 Gerber Fmt 4.6, Leading zero omitted, Abs format (unit mm)*
G04 Created by KiCad (PCBNEW (5.1.9-0-10_14)) date 2021-03-10 14:20:52*
%MOMM*%
%LPD*%
G01*
G04 APERTURE LIST*
%ADD10C,0.150000*%
%ADD11C,0.120000*%
G04 APERTURE END LIST*
D10*
X115559523Y-116702380D02*
X115226190Y-117702380D01*
X114892857Y-116702380D01*
X114607142Y-116797619D02*
X114559523Y-116750000D01*
X114464285Y-116702380D01*
X114226190Y-116702380D01*
X114130952Y-116750000D01*
X114083333Y-116797619D01*
X114035714Y-116892857D01*
X114035714Y-116988095D01*
X114083333Y-117130952D01*
X114654761Y-117702380D01*
X114035714Y-117702380D01*
X125907142Y-118235714D02*
X125716666Y-118902380D01*
X125526190Y-118426190D01*
X125335714Y-118902380D01*
X125145238Y-118235714D01*
X124859523Y-118235714D02*
X124669047Y-118902380D01*
X124478571Y-118426190D01*
X124288095Y-118902380D01*
X124097619Y-118235714D01*
X123811904Y-118235714D02*
X123621428Y-118902380D01*
X123430952Y-118426190D01*
X123240476Y-118902380D01*
X123050000Y-118235714D01*
X122669047Y-118807142D02*
X122621428Y-118854761D01*
X122669047Y-118902380D01*
X122716666Y-118854761D01*
X122669047Y-118807142D01*
X122669047Y-118902380D01*
X122192857Y-118902380D02*
X122192857Y-118235714D01*
X122192857Y-118330952D02*
X122145238Y-118283333D01*
X122050000Y-118235714D01*
X121907142Y-118235714D01*
X121811904Y-118283333D01*
X121764285Y-118378571D01*
X121764285Y-118902380D01*
X121764285Y-118378571D02*
X121716666Y-118283333D01*
X121621428Y-118235714D01*
X121478571Y-118235714D01*
X121383333Y-118283333D01*
X121335714Y-118378571D01*
X121335714Y-118902380D01*
X120478571Y-118854761D02*
X120573809Y-118902380D01*
X120764285Y-118902380D01*
X120859523Y-118854761D01*
X120907142Y-118759523D01*
X120907142Y-118378571D01*
X120859523Y-118283333D01*
X120764285Y-118235714D01*
X120573809Y-118235714D01*
X120478571Y-118283333D01*
X120430952Y-118378571D01*
X120430952Y-118473809D01*
X120907142Y-118569047D01*
X120002380Y-118807142D02*
X119954761Y-118854761D01*
X120002380Y-118902380D01*
X120050000Y-118854761D01*
X120002380Y-118807142D01*
X120002380Y-118902380D01*
X119097619Y-118235714D02*
X119097619Y-118902380D01*
X119526190Y-118235714D02*
X119526190Y-118759523D01*
X119478571Y-118854761D01*
X119383333Y-118902380D01*
X119240476Y-118902380D01*
X119145238Y-118854761D01*
X119097619Y-118807142D01*
X118621428Y-118902380D02*
X118621428Y-117902380D01*
X118526190Y-118521428D02*
X118240476Y-118902380D01*
X118240476Y-118235714D02*
X118621428Y-118616666D01*
D11*
%TO.C,J3*%
X113370000Y-127030000D02*
X114700000Y-127030000D01*
X113370000Y-125700000D02*
X113370000Y-127030000D01*
X113370000Y-124430000D02*
X116030000Y-124430000D01*
X116030000Y-124430000D02*
X116030000Y-121830000D01*
X113370000Y-124430000D02*
X113370000Y-121830000D01*
X113370000Y-121830000D02*
X116030000Y-121830000D01*
%TO.C,M1*%
X131450000Y-112420000D02*
X131450000Y-99720000D01*
X131450000Y-99720000D02*
X121290000Y-99720000D01*
X121290000Y-99720000D02*
X121290000Y-112420000D01*
X121290000Y-112420000D02*
X131450000Y-112420000D01*
%TO.C,R5*%
X127590000Y-124977064D02*
X127590000Y-123522936D01*
X129410000Y-124977064D02*
X129410000Y-123522936D01*
%TO.C,R4*%
X125090000Y-124977064D02*
X125090000Y-123522936D01*
X126910000Y-124977064D02*
X126910000Y-123522936D01*
%TO.C,R3*%
X122590000Y-124977064D02*
X122590000Y-123522936D01*
X124410000Y-124977064D02*
X124410000Y-123522936D01*
%TO.C,R2*%
X120090000Y-124977064D02*
X120090000Y-123522936D01*
X121910000Y-124977064D02*
X121910000Y-123522936D01*
%TO.C,R1*%
X117590000Y-124977064D02*
X117590000Y-123522936D01*
X119410000Y-124977064D02*
X119410000Y-123522936D01*
%TO.C,J2*%
X111810000Y-113170000D02*
X111810000Y-104230000D01*
X119160000Y-104230000D02*
X111810000Y-104230000D01*
X119160000Y-113170000D02*
X119160000Y-104230000D01*
X111810000Y-113170000D02*
X119160000Y-113170000D01*
%TO.C,U2*%
X125460000Y-116635000D02*
X125460000Y-117360000D01*
X121240000Y-113140000D02*
X121965000Y-113140000D01*
X121240000Y-113865000D02*
X121240000Y-113140000D01*
X121240000Y-117360000D02*
X121965000Y-117360000D01*
X121240000Y-116635000D02*
X121240000Y-117360000D01*
X125460000Y-113140000D02*
X124735000Y-113140000D01*
X125460000Y-113865000D02*
X125460000Y-113140000D01*
%TO.C,R7*%
X114422936Y-101340000D02*
X115877064Y-101340000D01*
X114422936Y-103160000D02*
X115877064Y-103160000D01*
%TO.C,R6*%
X115877064Y-100710000D02*
X114422936Y-100710000D01*
X115877064Y-98890000D02*
X114422936Y-98890000D01*
%TO.C,J3*%
D10*
X114333333Y-120452380D02*
X114333333Y-121166666D01*
X114380952Y-121309523D01*
X114476190Y-121404761D01*
X114619047Y-121452380D01*
X114714285Y-121452380D01*
X113952380Y-120452380D02*
X113333333Y-120452380D01*
X113666666Y-120833333D01*
X113523809Y-120833333D01*
X113428571Y-120880952D01*
X113380952Y-120928571D01*
X113333333Y-121023809D01*
X113333333Y-121261904D01*
X113380952Y-121357142D01*
X113428571Y-121404761D01*
X113523809Y-121452380D01*
X113809523Y-121452380D01*
X113904761Y-121404761D01*
X113952380Y-121357142D01*
%TO.C,M1*%
X130809523Y-113852380D02*
X130809523Y-112852380D01*
X130476190Y-113566666D01*
X130142857Y-112852380D01*
X130142857Y-113852380D01*
X129142857Y-113852380D02*
X129714285Y-113852380D01*
X129428571Y-113852380D02*
X129428571Y-112852380D01*
X129523809Y-112995238D01*
X129619047Y-113090476D01*
X129714285Y-113138095D01*
%TO.C,R5*%
X129052380Y-124133333D02*
X128576190Y-123800000D01*
X129052380Y-123561904D02*
X128052380Y-123561904D01*
X128052380Y-123942857D01*
X128100000Y-124038095D01*
X128147619Y-124085714D01*
X128242857Y-124133333D01*
X128385714Y-124133333D01*
X128480952Y-124085714D01*
X128528571Y-124038095D01*
X128576190Y-123942857D01*
X128576190Y-123561904D01*
X128052380Y-125038095D02*
X128052380Y-124561904D01*
X128528571Y-124514285D01*
X128480952Y-124561904D01*
X128433333Y-124657142D01*
X128433333Y-124895238D01*
X128480952Y-124990476D01*
X128528571Y-125038095D01*
X128623809Y-125085714D01*
X128861904Y-125085714D01*
X128957142Y-125038095D01*
X129004761Y-124990476D01*
X129052380Y-124895238D01*
X129052380Y-124657142D01*
X129004761Y-124561904D01*
X128957142Y-124514285D01*
%TO.C,R4*%
X126452380Y-124083333D02*
X125976190Y-123750000D01*
X126452380Y-123511904D02*
X125452380Y-123511904D01*
X125452380Y-123892857D01*
X125500000Y-123988095D01*
X125547619Y-124035714D01*
X125642857Y-124083333D01*
X125785714Y-124083333D01*
X125880952Y-124035714D01*
X125928571Y-123988095D01*
X125976190Y-123892857D01*
X125976190Y-123511904D01*
X125785714Y-124940476D02*
X126452380Y-124940476D01*
X125404761Y-124702380D02*
X126119047Y-124464285D01*
X126119047Y-125083333D01*
%TO.C,R3*%
X123952380Y-124033333D02*
X123476190Y-123700000D01*
X123952380Y-123461904D02*
X122952380Y-123461904D01*
X122952380Y-123842857D01*
X123000000Y-123938095D01*
X123047619Y-123985714D01*
X123142857Y-124033333D01*
X123285714Y-124033333D01*
X123380952Y-123985714D01*
X123428571Y-123938095D01*
X123476190Y-123842857D01*
X123476190Y-123461904D01*
X122952380Y-124366666D02*
X122952380Y-124985714D01*
X123333333Y-124652380D01*
X123333333Y-124795238D01*
X123380952Y-124890476D01*
X123428571Y-124938095D01*
X123523809Y-124985714D01*
X123761904Y-124985714D01*
X123857142Y-124938095D01*
X123904761Y-124890476D01*
X123952380Y-124795238D01*
X123952380Y-124509523D01*
X123904761Y-124414285D01*
X123857142Y-124366666D01*
%TO.C,R2*%
X121452380Y-124033333D02*
X120976190Y-123700000D01*
X121452380Y-123461904D02*
X120452380Y-123461904D01*
X120452380Y-123842857D01*
X120500000Y-123938095D01*
X120547619Y-123985714D01*
X120642857Y-124033333D01*
X120785714Y-124033333D01*
X120880952Y-123985714D01*
X120928571Y-123938095D01*
X120976190Y-123842857D01*
X120976190Y-123461904D01*
X120547619Y-124414285D02*
X120500000Y-124461904D01*
X120452380Y-124557142D01*
X120452380Y-124795238D01*
X120500000Y-124890476D01*
X120547619Y-124938095D01*
X120642857Y-124985714D01*
X120738095Y-124985714D01*
X120880952Y-124938095D01*
X121452380Y-124366666D01*
X121452380Y-124985714D01*
%TO.C,R1*%
X118952380Y-124033333D02*
X118476190Y-123700000D01*
X118952380Y-123461904D02*
X117952380Y-123461904D01*
X117952380Y-123842857D01*
X118000000Y-123938095D01*
X118047619Y-123985714D01*
X118142857Y-124033333D01*
X118285714Y-124033333D01*
X118380952Y-123985714D01*
X118428571Y-123938095D01*
X118476190Y-123842857D01*
X118476190Y-123461904D01*
X118952380Y-124985714D02*
X118952380Y-124414285D01*
X118952380Y-124700000D02*
X117952380Y-124700000D01*
X118095238Y-124604761D01*
X118190476Y-124509523D01*
X118238095Y-124414285D01*
%TO.C,J2*%
X115952380Y-114066666D02*
X116666666Y-114066666D01*
X116809523Y-114019047D01*
X116904761Y-113923809D01*
X116952380Y-113780952D01*
X116952380Y-113685714D01*
X116047619Y-114495238D02*
X116000000Y-114542857D01*
X115952380Y-114638095D01*
X115952380Y-114876190D01*
X116000000Y-114971428D01*
X116047619Y-115019047D01*
X116142857Y-115066666D01*
X116238095Y-115066666D01*
X116380952Y-115019047D01*
X116952380Y-114447619D01*
X116952380Y-115066666D01*
%TO.C,U2*%
X126202380Y-114788095D02*
X127011904Y-114788095D01*
X127107142Y-114835714D01*
X127154761Y-114883333D01*
X127202380Y-114978571D01*
X127202380Y-115169047D01*
X127154761Y-115264285D01*
X127107142Y-115311904D01*
X127011904Y-115359523D01*
X126202380Y-115359523D01*
X126297619Y-115788095D02*
X126250000Y-115835714D01*
X126202380Y-115930952D01*
X126202380Y-116169047D01*
X126250000Y-116264285D01*
X126297619Y-116311904D01*
X126392857Y-116359523D01*
X126488095Y-116359523D01*
X126630952Y-116311904D01*
X127202380Y-115740476D01*
X127202380Y-116359523D01*
%TO.C,R7*%
X118866666Y-102752380D02*
X119200000Y-102276190D01*
X119438095Y-102752380D02*
X119438095Y-101752380D01*
X119057142Y-101752380D01*
X118961904Y-101800000D01*
X118914285Y-101847619D01*
X118866666Y-101942857D01*
X118866666Y-102085714D01*
X118914285Y-102180952D01*
X118961904Y-102228571D01*
X119057142Y-102276190D01*
X119438095Y-102276190D01*
X118533333Y-101752380D02*
X117866666Y-101752380D01*
X118295238Y-102752380D01*
%TO.C,R6*%
X118866666Y-100302380D02*
X119200000Y-99826190D01*
X119438095Y-100302380D02*
X119438095Y-99302380D01*
X119057142Y-99302380D01*
X118961904Y-99350000D01*
X118914285Y-99397619D01*
X118866666Y-99492857D01*
X118866666Y-99635714D01*
X118914285Y-99730952D01*
X118961904Y-99778571D01*
X119057142Y-99826190D01*
X119438095Y-99826190D01*
X118009523Y-99302380D02*
X118200000Y-99302380D01*
X118295238Y-99350000D01*
X118342857Y-99397619D01*
X118438095Y-99540476D01*
X118485714Y-99730952D01*
X118485714Y-100111904D01*
X118438095Y-100207142D01*
X118390476Y-100254761D01*
X118295238Y-100302380D01*
X118104761Y-100302380D01*
X118009523Y-100254761D01*
X117961904Y-100207142D01*
X117914285Y-100111904D01*
X117914285Y-99873809D01*
X117961904Y-99778571D01*
X118009523Y-99730952D01*
X118104761Y-99683333D01*
X118295238Y-99683333D01*
X118390476Y-99730952D01*
X118438095Y-99778571D01*
X118485714Y-99873809D01*
%TD*%
M02*
