%TF.GenerationSoftware,KiCad,Pcbnew,(5.1.9-0-10_14)*%
%TF.CreationDate,2021-03-26T10:13:59+00:00*%
%TF.ProjectId,Generic,47656e65-7269-4632-9e6b-696361645f70,2*%
%TF.SameCoordinates,Original*%
%TF.FileFunction,Copper,L2,Bot*%
%TF.FilePolarity,Positive*%
%FSLAX46Y46*%
G04 Gerber Fmt 4.6, Leading zero omitted, Abs format (unit mm)*
G04 Created by KiCad (PCBNEW (5.1.9-0-10_14)) date 2021-03-26 10:13:59*
%MOMM*%
%LPD*%
G01*
G04 APERTURE LIST*
%TA.AperFunction,SMDPad,CuDef*%
%ADD10R,0.200000X0.200000*%
%TD*%
%TA.AperFunction,SMDPad,CuDef*%
%ADD11C,0.500000*%
%TD*%
%TA.AperFunction,ComponentPad*%
%ADD12C,1.524000*%
%TD*%
%TA.AperFunction,SMDPad,CuDef*%
%ADD13R,2.100000X2.100000*%
%TD*%
%TA.AperFunction,SMDPad,CuDef*%
%ADD14R,1.000000X0.300000*%
%TD*%
%TA.AperFunction,SMDPad,CuDef*%
%ADD15R,0.300000X1.000000*%
%TD*%
%TA.AperFunction,ComponentPad*%
%ADD16O,1.700000X1.700000*%
%TD*%
%TA.AperFunction,ComponentPad*%
%ADD17R,1.700000X1.700000*%
%TD*%
%TA.AperFunction,SMDPad,CuDef*%
%ADD18C,1.700000*%
%TD*%
%TA.AperFunction,ComponentPad*%
%ADD19C,1.700000*%
%TD*%
%TA.AperFunction,ComponentPad*%
%ADD20R,1.524000X1.524000*%
%TD*%
%TA.AperFunction,SMDPad,CuDef*%
%ADD21R,5.490000X8.340000*%
%TD*%
%TA.AperFunction,SMDPad,CuDef*%
%ADD22R,1.140000X0.600000*%
%TD*%
%TA.AperFunction,ComponentPad*%
%ADD23C,2.000000*%
%TD*%
%TA.AperFunction,SMDPad,CuDef*%
%ADD24R,1.140000X0.300000*%
%TD*%
%TA.AperFunction,ComponentPad*%
%ADD25C,0.600000*%
%TD*%
%TA.AperFunction,ComponentPad*%
%ADD26O,1.700000X1.850000*%
%TD*%
%TA.AperFunction,ViaPad*%
%ADD27C,0.800000*%
%TD*%
%TA.AperFunction,Conductor*%
%ADD28C,0.250000*%
%TD*%
%TA.AperFunction,Conductor*%
%ADD29C,0.254000*%
%TD*%
%TA.AperFunction,Conductor*%
%ADD30C,0.100000*%
%TD*%
G04 APERTURE END LIST*
D10*
%TO.P,U2,~*%
%TO.N,N/C*%
X121350000Y-113250000D03*
X121350000Y-117250000D03*
X125350000Y-113250000D03*
D11*
X125350000Y-117250000D03*
D12*
%TO.P,U2,17*%
%TO.N,GND*%
X123350000Y-115250000D03*
D13*
X123350000Y-115250000D03*
D14*
%TO.P,U2,16*%
%TO.N,EN*%
X125400000Y-116225000D03*
%TO.P,U2,15*%
%TO.N,I*%
X125400000Y-115575000D03*
%TO.P,U2,14*%
%TO.N,CBUS3*%
X125400000Y-114925000D03*
%TO.P,U2,13*%
%TO.N,GND*%
X125400000Y-114275000D03*
D15*
%TO.P,U2,12*%
%TO.N,CBUS0*%
X124325000Y-113200000D03*
%TO.P,U2,11*%
%TO.N,CBUS1*%
X123675000Y-113200000D03*
%TO.P,U2,10*%
%TO.N,+3V3*%
X123025000Y-113200000D03*
%TO.P,U2,9*%
X122375000Y-113200000D03*
D14*
%TO.P,U2,8*%
X121300000Y-114275000D03*
%TO.P,U2,7*%
%TO.N,D-*%
X121300000Y-114925000D03*
%TO.P,U2,6*%
%TO.N,D+*%
X121300000Y-115575000D03*
%TO.P,U2,5*%
%TO.N,CBUS2*%
X121300000Y-116225000D03*
D15*
%TO.P,U2,4*%
%TO.N,GND*%
X122375000Y-117300000D03*
%TO.P,U2,3*%
X123025000Y-117300000D03*
%TO.P,U2,2*%
%TO.N,O*%
X123675000Y-117300000D03*
%TO.P,U2,1*%
%TO.N,+3V3*%
X124325000Y-117300000D03*
%TD*%
D16*
%TO.P,J3,2*%
%TO.N,VBUS*%
X114700000Y-123160000D03*
D17*
%TO.P,J3,1*%
%TO.N,GND*%
X114700000Y-125700000D03*
%TD*%
D18*
%TO.P,M1,1*%
%TO.N,Net-(M1-Pad1)*%
X130180000Y-111150000D03*
D19*
%TO.P,M1,4*%
%TO.N,+3V3*%
X122560000Y-111150000D03*
D20*
%TO.P,M1,3*%
%TO.N,GND*%
X125100000Y-111150000D03*
D19*
%TO.P,M1,2*%
%TO.N,VBUS*%
X127640000Y-111150000D03*
%TD*%
%TO.P,R5,2*%
%TO.N,IO5*%
%TA.AperFunction,SMDPad,CuDef*%
G36*
G01*
X128855000Y-123350000D02*
X127605000Y-123350000D01*
G75*
G02*
X127355000Y-123100000I0J250000D01*
G01*
X127355000Y-122300000D01*
G75*
G02*
X127605000Y-122050000I250000J0D01*
G01*
X128855000Y-122050000D01*
G75*
G02*
X129105000Y-122300000I0J-250000D01*
G01*
X129105000Y-123100000D01*
G75*
G02*
X128855000Y-123350000I-250000J0D01*
G01*
G37*
%TD.AperFunction*%
%TO.P,R5,1*%
%TO.N,+3V3*%
%TA.AperFunction,SMDPad,CuDef*%
G36*
G01*
X128855000Y-126450000D02*
X127605000Y-126450000D01*
G75*
G02*
X127355000Y-126200000I0J250000D01*
G01*
X127355000Y-125400000D01*
G75*
G02*
X127605000Y-125150000I250000J0D01*
G01*
X128855000Y-125150000D01*
G75*
G02*
X129105000Y-125400000I0J-250000D01*
G01*
X129105000Y-126200000D01*
G75*
G02*
X128855000Y-126450000I-250000J0D01*
G01*
G37*
%TD.AperFunction*%
%TD*%
%TO.P,R4,2*%
%TO.N,IO4*%
%TA.AperFunction,SMDPad,CuDef*%
G36*
G01*
X126355000Y-123350000D02*
X125105000Y-123350000D01*
G75*
G02*
X124855000Y-123100000I0J250000D01*
G01*
X124855000Y-122300000D01*
G75*
G02*
X125105000Y-122050000I250000J0D01*
G01*
X126355000Y-122050000D01*
G75*
G02*
X126605000Y-122300000I0J-250000D01*
G01*
X126605000Y-123100000D01*
G75*
G02*
X126355000Y-123350000I-250000J0D01*
G01*
G37*
%TD.AperFunction*%
%TO.P,R4,1*%
%TO.N,+3V3*%
%TA.AperFunction,SMDPad,CuDef*%
G36*
G01*
X126355000Y-126450000D02*
X125105000Y-126450000D01*
G75*
G02*
X124855000Y-126200000I0J250000D01*
G01*
X124855000Y-125400000D01*
G75*
G02*
X125105000Y-125150000I250000J0D01*
G01*
X126355000Y-125150000D01*
G75*
G02*
X126605000Y-125400000I0J-250000D01*
G01*
X126605000Y-126200000D01*
G75*
G02*
X126355000Y-126450000I-250000J0D01*
G01*
G37*
%TD.AperFunction*%
%TD*%
%TO.P,R3,2*%
%TO.N,IO3*%
%TA.AperFunction,SMDPad,CuDef*%
G36*
G01*
X123855000Y-123350000D02*
X122605000Y-123350000D01*
G75*
G02*
X122355000Y-123100000I0J250000D01*
G01*
X122355000Y-122300000D01*
G75*
G02*
X122605000Y-122050000I250000J0D01*
G01*
X123855000Y-122050000D01*
G75*
G02*
X124105000Y-122300000I0J-250000D01*
G01*
X124105000Y-123100000D01*
G75*
G02*
X123855000Y-123350000I-250000J0D01*
G01*
G37*
%TD.AperFunction*%
%TO.P,R3,1*%
%TO.N,+3V3*%
%TA.AperFunction,SMDPad,CuDef*%
G36*
G01*
X123855000Y-126450000D02*
X122605000Y-126450000D01*
G75*
G02*
X122355000Y-126200000I0J250000D01*
G01*
X122355000Y-125400000D01*
G75*
G02*
X122605000Y-125150000I250000J0D01*
G01*
X123855000Y-125150000D01*
G75*
G02*
X124105000Y-125400000I0J-250000D01*
G01*
X124105000Y-126200000D01*
G75*
G02*
X123855000Y-126450000I-250000J0D01*
G01*
G37*
%TD.AperFunction*%
%TD*%
%TO.P,R2,2*%
%TO.N,IO2*%
%TA.AperFunction,SMDPad,CuDef*%
G36*
G01*
X121355000Y-123350000D02*
X120105000Y-123350000D01*
G75*
G02*
X119855000Y-123100000I0J250000D01*
G01*
X119855000Y-122300000D01*
G75*
G02*
X120105000Y-122050000I250000J0D01*
G01*
X121355000Y-122050000D01*
G75*
G02*
X121605000Y-122300000I0J-250000D01*
G01*
X121605000Y-123100000D01*
G75*
G02*
X121355000Y-123350000I-250000J0D01*
G01*
G37*
%TD.AperFunction*%
%TO.P,R2,1*%
%TO.N,+3V3*%
%TA.AperFunction,SMDPad,CuDef*%
G36*
G01*
X121355000Y-126450000D02*
X120105000Y-126450000D01*
G75*
G02*
X119855000Y-126200000I0J250000D01*
G01*
X119855000Y-125400000D01*
G75*
G02*
X120105000Y-125150000I250000J0D01*
G01*
X121355000Y-125150000D01*
G75*
G02*
X121605000Y-125400000I0J-250000D01*
G01*
X121605000Y-126200000D01*
G75*
G02*
X121355000Y-126450000I-250000J0D01*
G01*
G37*
%TD.AperFunction*%
%TD*%
%TO.P,R1,2*%
%TO.N,IO1*%
%TA.AperFunction,SMDPad,CuDef*%
G36*
G01*
X118855000Y-123350000D02*
X117605000Y-123350000D01*
G75*
G02*
X117355000Y-123100000I0J250000D01*
G01*
X117355000Y-122300000D01*
G75*
G02*
X117605000Y-122050000I250000J0D01*
G01*
X118855000Y-122050000D01*
G75*
G02*
X119105000Y-122300000I0J-250000D01*
G01*
X119105000Y-123100000D01*
G75*
G02*
X118855000Y-123350000I-250000J0D01*
G01*
G37*
%TD.AperFunction*%
%TO.P,R1,1*%
%TO.N,+3V3*%
%TA.AperFunction,SMDPad,CuDef*%
G36*
G01*
X118855000Y-126450000D02*
X117605000Y-126450000D01*
G75*
G02*
X117355000Y-126200000I0J250000D01*
G01*
X117355000Y-125400000D01*
G75*
G02*
X117605000Y-125150000I250000J0D01*
G01*
X118855000Y-125150000D01*
G75*
G02*
X119105000Y-125400000I0J-250000D01*
G01*
X119105000Y-126200000D01*
G75*
G02*
X118855000Y-126450000I-250000J0D01*
G01*
G37*
%TD.AperFunction*%
%TD*%
D21*
%TO.P,J2,S1*%
%TO.N,GND*%
X115045000Y-108700000D03*
D22*
%TO.P,J2,A12*%
X119160000Y-105500000D03*
%TO.P,J2,A4*%
%TO.N,VBUS*%
X119160000Y-111100000D03*
%TO.P,J2,B12*%
%TO.N,GND*%
X119160000Y-111900000D03*
%TO.P,J2,B4*%
%TO.N,VBUS*%
X119160000Y-106300000D03*
D19*
%TO.P,J2,S1*%
%TO.N,GND*%
X114390000Y-104375000D03*
X114390000Y-113025000D03*
D23*
X118570000Y-104375000D03*
X118570000Y-113025000D03*
D24*
%TO.P,J2,A7*%
%TO.N,D-*%
X119160000Y-108450000D03*
%TO.P,J2,A6*%
%TO.N,D+*%
X119160000Y-108950000D03*
%TO.P,J2,B6*%
X119160000Y-107950000D03*
%TO.P,J2,B7*%
%TO.N,D-*%
X119160000Y-109450000D03*
%TO.P,J2,A8*%
%TO.N,Net-(J2-PadA8)*%
X119160000Y-107450000D03*
%TO.P,J2,A5*%
%TO.N,Net-(J2-PadA5)*%
X119160000Y-109950000D03*
%TO.P,J2,B5*%
%TO.N,Net-(J2-PadB5)*%
X119160000Y-106950000D03*
%TO.P,J2,B8*%
%TO.N,Net-(J2-PadB8)*%
X119160000Y-110450000D03*
D22*
%TO.P,J2,A9*%
%TO.N,VBUS*%
X119160000Y-106300000D03*
%TO.P,J2,B9*%
X119160000Y-111100000D03*
%TO.P,J2,B1*%
%TO.N,GND*%
X119160000Y-105500000D03*
D25*
%TO.P,J2,S1*%
X118090000Y-105810000D03*
X118090000Y-111590000D03*
D22*
%TO.P,J2,A1*%
X119160000Y-111900000D03*
%TD*%
%TO.P,R7,2*%
%TO.N,Net-(J2-PadB5)*%
%TA.AperFunction,SMDPad,CuDef*%
G36*
G01*
X116050000Y-102875000D02*
X116050000Y-101625000D01*
G75*
G02*
X116300000Y-101375000I250000J0D01*
G01*
X117100000Y-101375000D01*
G75*
G02*
X117350000Y-101625000I0J-250000D01*
G01*
X117350000Y-102875000D01*
G75*
G02*
X117100000Y-103125000I-250000J0D01*
G01*
X116300000Y-103125000D01*
G75*
G02*
X116050000Y-102875000I0J250000D01*
G01*
G37*
%TD.AperFunction*%
%TO.P,R7,1*%
%TO.N,GND*%
%TA.AperFunction,SMDPad,CuDef*%
G36*
G01*
X112950000Y-102875000D02*
X112950000Y-101625000D01*
G75*
G02*
X113200000Y-101375000I250000J0D01*
G01*
X114000000Y-101375000D01*
G75*
G02*
X114250000Y-101625000I0J-250000D01*
G01*
X114250000Y-102875000D01*
G75*
G02*
X114000000Y-103125000I-250000J0D01*
G01*
X113200000Y-103125000D01*
G75*
G02*
X112950000Y-102875000I0J250000D01*
G01*
G37*
%TD.AperFunction*%
%TD*%
%TO.P,R6,2*%
%TO.N,GND*%
%TA.AperFunction,SMDPad,CuDef*%
G36*
G01*
X114250000Y-99175000D02*
X114250000Y-100425000D01*
G75*
G02*
X114000000Y-100675000I-250000J0D01*
G01*
X113200000Y-100675000D01*
G75*
G02*
X112950000Y-100425000I0J250000D01*
G01*
X112950000Y-99175000D01*
G75*
G02*
X113200000Y-98925000I250000J0D01*
G01*
X114000000Y-98925000D01*
G75*
G02*
X114250000Y-99175000I0J-250000D01*
G01*
G37*
%TD.AperFunction*%
%TO.P,R6,1*%
%TO.N,Net-(J2-PadA5)*%
%TA.AperFunction,SMDPad,CuDef*%
G36*
G01*
X117350000Y-99175000D02*
X117350000Y-100425000D01*
G75*
G02*
X117100000Y-100675000I-250000J0D01*
G01*
X116300000Y-100675000D01*
G75*
G02*
X116050000Y-100425000I0J250000D01*
G01*
X116050000Y-99175000D01*
G75*
G02*
X116300000Y-98925000I250000J0D01*
G01*
X117100000Y-98925000D01*
G75*
G02*
X117350000Y-99175000I0J-250000D01*
G01*
G37*
%TD.AperFunction*%
%TD*%
D26*
%TO.P,J1,6*%
%TO.N,IO5*%
X128230000Y-120400000D03*
%TO.P,J1,5*%
%TO.N,IO4*%
X125730000Y-120400000D03*
%TO.P,J1,4*%
%TO.N,IO3*%
X123230000Y-120400000D03*
%TO.P,J1,3*%
%TO.N,IO2*%
X120730000Y-120400000D03*
%TO.P,J1,2*%
%TO.N,IO1*%
X118230000Y-120400000D03*
%TO.P,J1,1*%
%TO.N,GND*%
%TA.AperFunction,ComponentPad*%
G36*
G01*
X114880000Y-121075000D02*
X114880000Y-119725000D01*
G75*
G02*
X115130000Y-119475000I250000J0D01*
G01*
X116330000Y-119475000D01*
G75*
G02*
X116580000Y-119725000I0J-250000D01*
G01*
X116580000Y-121075000D01*
G75*
G02*
X116330000Y-121325000I-250000J0D01*
G01*
X115130000Y-121325000D01*
G75*
G02*
X114880000Y-121075000I0J250000D01*
G01*
G37*
%TD.AperFunction*%
%TD*%
D27*
%TO.N,D+*%
X119474990Y-114352015D03*
X120676034Y-103338698D03*
%TO.N,GND*%
X115150000Y-99800000D03*
%TO.N,D-*%
X126628251Y-104652932D03*
X123664831Y-103744605D03*
X121689663Y-103224624D03*
%TO.N,+3V3*%
X126750000Y-100900000D03*
X127383573Y-103328155D03*
X116150000Y-123950000D03*
X117152738Y-115704998D03*
%TO.N,VBUS*%
X120372991Y-111100000D03*
%TO.N,O*%
X118028959Y-115223077D03*
%TO.N,I*%
X127029841Y-115529529D03*
%TO.N,EN*%
X115260481Y-114305342D03*
%TO.N,CBUS3*%
X127750000Y-114500026D03*
%TO.N,CBUS0*%
X129750000Y-117500000D03*
%TO.N,CBUS1*%
X127463633Y-113050011D03*
%TO.N,CBUS2*%
X116445927Y-114350001D03*
%TD*%
D28*
%TO.N,D+*%
X121300000Y-115575000D02*
X119575000Y-115575000D01*
X119575000Y-115575000D02*
X119474990Y-115474990D01*
X119474990Y-115474990D02*
X119474990Y-114352015D01*
X120967241Y-102481806D02*
X120676034Y-102773013D01*
X122245396Y-102481806D02*
X120967241Y-102481806D01*
X119160000Y-108950000D02*
X120259232Y-108950000D01*
X122600895Y-102837305D02*
X122245396Y-102481806D01*
X119160000Y-107950000D02*
X119986411Y-107950000D01*
X120950011Y-106986400D02*
X120950011Y-103612675D01*
X119986411Y-107950000D02*
X120950011Y-106986400D01*
X120950011Y-103612675D02*
X120676034Y-103338698D01*
X122019797Y-103919797D02*
X122600895Y-103338699D01*
X120676034Y-102773013D02*
X120676034Y-103338698D01*
X120259232Y-108950000D02*
X122019797Y-107189435D01*
X122600895Y-103338699D02*
X122600895Y-102837305D01*
X122019797Y-107189435D02*
X122019797Y-103919797D01*
%TO.N,GND*%
X115045000Y-109500000D02*
X115045000Y-108700000D01*
X118570000Y-113025000D02*
X115045000Y-109500000D01*
X119160000Y-112435000D02*
X118570000Y-113025000D01*
X119160000Y-111900000D02*
X119160000Y-112435000D01*
X118090000Y-111590000D02*
X115200000Y-108700000D01*
X114390000Y-108045000D02*
X115045000Y-108700000D01*
X114390000Y-104375000D02*
X114390000Y-108045000D01*
X115045000Y-107900000D02*
X115045000Y-108700000D01*
X118570000Y-104375000D02*
X115045000Y-107900000D01*
X115200000Y-108700000D02*
X115045000Y-108700000D01*
X118090000Y-105810000D02*
X115200000Y-108700000D01*
X118570000Y-104910000D02*
X119160000Y-105500000D01*
X118570000Y-104375000D02*
X118570000Y-104910000D01*
X124325000Y-114275000D02*
X123350000Y-115250000D01*
X125300000Y-114275000D02*
X124325000Y-114275000D01*
X123025000Y-115575000D02*
X123350000Y-115250000D01*
X123025000Y-117200000D02*
X123025000Y-115575000D01*
X113600000Y-103585000D02*
X114390000Y-104375000D01*
X113600000Y-102250000D02*
X113600000Y-103585000D01*
X114390000Y-113025000D02*
X114390000Y-109355000D01*
X114390000Y-109355000D02*
X115045000Y-108700000D01*
X122375000Y-116225000D02*
X123350000Y-115250000D01*
X122375000Y-117300000D02*
X122375000Y-116225000D01*
%TO.N,D-*%
X120122822Y-108450000D02*
X119160000Y-108450000D01*
X121689663Y-103613520D02*
X121401591Y-103901591D01*
X121401591Y-103901591D02*
X121401591Y-107171231D01*
X121401591Y-107171231D02*
X120122822Y-108450000D01*
X122554718Y-104854718D02*
X123664831Y-103744605D01*
X119160000Y-109450000D02*
X120395644Y-109450000D01*
X120395644Y-109450000D02*
X122554718Y-107290926D01*
X122554718Y-107290926D02*
X122554718Y-104854718D01*
X121689663Y-103224624D02*
X121689663Y-103613520D01*
X126628251Y-105218617D02*
X126628251Y-104652932D01*
X121250009Y-110596859D02*
X126628251Y-105218617D01*
X121250009Y-111349991D02*
X121250009Y-110596859D01*
X120368205Y-111831795D02*
X120768205Y-111831795D01*
X120249989Y-111950011D02*
X120368205Y-111831795D01*
X120249989Y-114624989D02*
X120249989Y-111950011D01*
X120550000Y-114925000D02*
X120249989Y-114624989D01*
X120768205Y-111831795D02*
X121250009Y-111349991D01*
X121300000Y-114925000D02*
X120550000Y-114925000D01*
%TO.N,+3V3*%
X122375000Y-111335000D02*
X122560000Y-111150000D01*
X122375000Y-113300000D02*
X122375000Y-111335000D01*
X126750000Y-102694582D02*
X127383573Y-103328155D01*
X126750000Y-100900000D02*
X126750000Y-102694582D01*
X117100000Y-125800000D02*
X118230000Y-125800000D01*
X116850000Y-124650000D02*
X116850000Y-125550000D01*
X116850000Y-125550000D02*
X117100000Y-125800000D01*
X116150000Y-123950000D02*
X116850000Y-124650000D01*
X118230000Y-125800000D02*
X120730000Y-125800000D01*
X120730000Y-125800000D02*
X123230000Y-125800000D01*
X123230000Y-125800000D02*
X125730000Y-125800000D01*
X125730000Y-125800000D02*
X128230000Y-125800000D01*
X124325000Y-118175001D02*
X123800022Y-118699979D01*
X123800022Y-118699979D02*
X120147719Y-118699979D01*
X124325000Y-117300000D02*
X124325000Y-118175001D01*
X123025000Y-111615000D02*
X122560000Y-111150000D01*
X123025000Y-113200000D02*
X123025000Y-111615000D01*
X119923870Y-118476130D02*
X119923870Y-117323870D01*
X120147719Y-118699979D02*
X119923870Y-118476130D01*
X119826130Y-117226130D02*
X118673870Y-117226130D01*
X119923870Y-117323870D02*
X119826130Y-117226130D01*
X118673870Y-117226130D02*
X117152738Y-115704998D01*
X120699999Y-114199999D02*
X120699999Y-112400001D01*
X120699999Y-112400001D02*
X120795000Y-112305000D01*
X120775000Y-114275000D02*
X120699999Y-114199999D01*
X121300000Y-114275000D02*
X120775000Y-114275000D01*
X122150000Y-111150000D02*
X122560000Y-111150000D01*
X121205000Y-112095000D02*
X122150000Y-111150000D01*
X121205000Y-112105000D02*
X121005000Y-112305000D01*
X121205000Y-112095000D02*
X121205000Y-112105000D01*
X120795000Y-112305000D02*
X121005000Y-112305000D01*
%TO.N,VBUS*%
X118504998Y-111100000D02*
X119160000Y-111100000D01*
X118264999Y-110860001D02*
X118504998Y-111100000D01*
X118264999Y-106539999D02*
X118264999Y-110860001D01*
X118504998Y-106300000D02*
X118264999Y-106539999D01*
X119160000Y-106300000D02*
X118504998Y-106300000D01*
X119160000Y-111100000D02*
X120050000Y-111100000D01*
X119160000Y-111100000D02*
X120372991Y-111100000D01*
X127640000Y-111150000D02*
X127640000Y-104591679D01*
X127640000Y-104591679D02*
X126976252Y-103927931D01*
X126976252Y-103927931D02*
X126280250Y-103927931D01*
X125678249Y-104529930D02*
X125678249Y-105458162D01*
X126280250Y-103927931D02*
X125678249Y-104529930D01*
X120768206Y-110368206D02*
X120768206Y-110968206D01*
X125678249Y-105458162D02*
X120768206Y-110368206D01*
X120636412Y-111100000D02*
X120372991Y-111100000D01*
X120768206Y-110968206D02*
X120636412Y-111100000D01*
%TO.N,IO5*%
X128500000Y-120670000D02*
X128230000Y-120400000D01*
X128230000Y-122700000D02*
X128230000Y-120400000D01*
%TO.N,IO4*%
X126000000Y-120670000D02*
X125730000Y-120400000D01*
X125730000Y-122700000D02*
X125730000Y-120400000D01*
%TO.N,IO3*%
X123230000Y-122700000D02*
X123230000Y-120400000D01*
%TO.N,IO2*%
X121000000Y-120670000D02*
X120730000Y-120400000D01*
X120730000Y-122700000D02*
X120730000Y-120400000D01*
%TO.N,IO1*%
X118500000Y-120670000D02*
X118230000Y-120400000D01*
X118230000Y-122700000D02*
X118230000Y-120400000D01*
%TO.N,O*%
X123613622Y-118249968D02*
X123675000Y-118188590D01*
X120650032Y-118249968D02*
X123613622Y-118249968D01*
X123675000Y-118188590D02*
X123675000Y-117300000D01*
X120490165Y-118090101D02*
X120650032Y-118249968D01*
X120490165Y-116890165D02*
X120490165Y-118090101D01*
X118970099Y-116729901D02*
X120329901Y-116729901D01*
X118028959Y-115788762D02*
X118970099Y-116729901D01*
X120329901Y-116729901D02*
X120490165Y-116890165D01*
X118028959Y-115223077D02*
X118028959Y-115788762D01*
%TO.N,I*%
X125300000Y-115575000D02*
X126984370Y-115575000D01*
X126984370Y-115575000D02*
X127029841Y-115529529D01*
%TO.N,EN*%
X115260481Y-114907462D02*
X115260481Y-114305342D01*
X119323490Y-117723490D02*
X118076510Y-117723490D01*
X119376510Y-117776510D02*
X119323490Y-117723490D01*
X118076510Y-117723490D02*
X115260481Y-114907462D01*
X119376510Y-118576510D02*
X119376510Y-117776510D01*
X119949990Y-119149990D02*
X119376510Y-118576510D01*
X126600000Y-118400000D02*
X124800000Y-118400000D01*
X124050010Y-119149990D02*
X119949990Y-119149990D01*
X125400000Y-116225000D02*
X126825000Y-116225000D01*
X126900000Y-118100000D02*
X126600000Y-118400000D01*
X124800000Y-118400000D02*
X124050010Y-119149990D01*
X126900000Y-116300000D02*
X126900000Y-118100000D01*
X126825000Y-116225000D02*
X126900000Y-116300000D01*
%TO.N,CBUS3*%
X126661355Y-114825013D02*
X126986342Y-114500026D01*
X126986342Y-114500026D02*
X127750000Y-114500026D01*
X125399987Y-114825013D02*
X126661355Y-114825013D01*
%TO.N,CBUS0*%
X127175016Y-113775016D02*
X128598020Y-113775016D01*
X128598020Y-113775016D02*
X129750000Y-114926996D01*
X127175013Y-113775013D02*
X127175016Y-113775016D01*
X126040619Y-112700001D02*
X127115631Y-113775013D01*
X129750000Y-114926996D02*
X129750000Y-117500000D01*
X124399999Y-112700001D02*
X126040619Y-112700001D01*
X124325000Y-112775000D02*
X124399999Y-112700001D01*
X127115631Y-113775013D02*
X127175013Y-113775013D01*
X124325000Y-113200000D02*
X124325000Y-112775000D01*
%TO.N,CBUS1*%
X123850009Y-112249991D02*
X126286402Y-112249991D01*
X127086422Y-113050011D02*
X127463633Y-113050011D01*
X123675000Y-113200000D02*
X123675000Y-112425000D01*
X123675000Y-112425000D02*
X123850009Y-112249991D01*
X126286402Y-112249991D02*
X127086422Y-113050011D01*
%TO.N,CBUS2*%
X117249999Y-114350001D02*
X116445927Y-114350001D01*
X119225000Y-116225000D02*
X121300000Y-116225000D01*
X118753960Y-115753960D02*
X119225000Y-116225000D01*
X118228885Y-114350001D02*
X118753960Y-114875076D01*
X117249999Y-114350001D02*
X118228885Y-114350001D01*
X118753960Y-114875076D02*
X118753960Y-115753960D01*
%TO.N,Net-(J2-PadA5)*%
X117650000Y-99800000D02*
X116700000Y-99800000D01*
X117800000Y-99950000D02*
X117650000Y-99800000D01*
X123268205Y-102031795D02*
X118131795Y-102031795D01*
X118131795Y-102031795D02*
X117800000Y-101700000D01*
X120536410Y-109950000D02*
X122768205Y-107718205D01*
X117800000Y-101700000D02*
X117800000Y-99950000D01*
X124400009Y-103163598D02*
X123268205Y-102031795D01*
X124400009Y-104082429D02*
X124400009Y-103163598D01*
X119160000Y-109950000D02*
X120536410Y-109950000D01*
X122768205Y-107718205D02*
X122781795Y-107718205D01*
X122781795Y-107718205D02*
X123091219Y-107408781D01*
X123091219Y-107408781D02*
X123091219Y-105391219D01*
X123091219Y-105391219D02*
X124400009Y-104082429D01*
%TO.N,Net-(J2-PadB5)*%
X116931806Y-102481806D02*
X116700000Y-102250000D01*
X120500000Y-104187984D02*
X119856008Y-103543992D01*
X120500000Y-106800000D02*
X120500000Y-104187984D01*
X119581806Y-102481806D02*
X116931806Y-102481806D01*
X120350000Y-106950000D02*
X120500000Y-106800000D01*
X119856008Y-103543992D02*
X119856008Y-102756008D01*
X119160000Y-106950000D02*
X120350000Y-106950000D01*
X119856008Y-102756008D02*
X119581806Y-102481806D01*
%TD*%
D29*
%TO.N,GND*%
X131073000Y-98924758D02*
X131073000Y-110307760D01*
X130962167Y-110196927D01*
X130761202Y-110062647D01*
X130537903Y-109970153D01*
X130300849Y-109923000D01*
X130059151Y-109923000D01*
X129822097Y-109970153D01*
X129598798Y-110062647D01*
X129397833Y-110196927D01*
X129226927Y-110367833D01*
X129092647Y-110568798D01*
X129000153Y-110792097D01*
X128953000Y-111029151D01*
X128953000Y-111270849D01*
X129000153Y-111507903D01*
X129092647Y-111731202D01*
X129226927Y-111932167D01*
X129397833Y-112103073D01*
X129598798Y-112237353D01*
X129822097Y-112329847D01*
X130059151Y-112377000D01*
X130300849Y-112377000D01*
X130537903Y-112329847D01*
X130761202Y-112237353D01*
X130962167Y-112103073D01*
X131073000Y-111992240D01*
X131073001Y-127073000D01*
X115913678Y-127073000D01*
X116001185Y-127001185D01*
X116080537Y-126904494D01*
X116139502Y-126794180D01*
X116175812Y-126674482D01*
X116188072Y-126550000D01*
X116185000Y-125985750D01*
X116026250Y-125827000D01*
X114827000Y-125827000D01*
X114827000Y-125847000D01*
X114573000Y-125847000D01*
X114573000Y-125827000D01*
X113373750Y-125827000D01*
X113215000Y-125985750D01*
X113211928Y-126550000D01*
X113224188Y-126674482D01*
X113260498Y-126794180D01*
X113319463Y-126904494D01*
X113398815Y-127001185D01*
X113486322Y-127073000D01*
X112927000Y-127073000D01*
X112927000Y-124850000D01*
X113211928Y-124850000D01*
X113215000Y-125414250D01*
X113373750Y-125573000D01*
X114573000Y-125573000D01*
X114573000Y-125553000D01*
X114827000Y-125553000D01*
X114827000Y-125573000D01*
X116026250Y-125573000D01*
X116185000Y-125414250D01*
X116188072Y-124850000D01*
X116175958Y-124727000D01*
X116217065Y-124727000D01*
X116348000Y-124857935D01*
X116348001Y-125525348D01*
X116345573Y-125550000D01*
X116355265Y-125648409D01*
X116383970Y-125743036D01*
X116430584Y-125830245D01*
X116477601Y-125887535D01*
X116477604Y-125887538D01*
X116493317Y-125906684D01*
X116512463Y-125922397D01*
X116727598Y-126137532D01*
X116743316Y-126156684D01*
X116819755Y-126219417D01*
X116906964Y-126266031D01*
X116985012Y-126289707D01*
X116988259Y-126322677D01*
X117024042Y-126440641D01*
X117082152Y-126549356D01*
X117160354Y-126644646D01*
X117255644Y-126722848D01*
X117364359Y-126780958D01*
X117482323Y-126816741D01*
X117605000Y-126828824D01*
X118855000Y-126828824D01*
X118977677Y-126816741D01*
X119095641Y-126780958D01*
X119204356Y-126722848D01*
X119299646Y-126644646D01*
X119377848Y-126549356D01*
X119435958Y-126440641D01*
X119471741Y-126322677D01*
X119473778Y-126302000D01*
X119486222Y-126302000D01*
X119488259Y-126322677D01*
X119524042Y-126440641D01*
X119582152Y-126549356D01*
X119660354Y-126644646D01*
X119755644Y-126722848D01*
X119864359Y-126780958D01*
X119982323Y-126816741D01*
X120105000Y-126828824D01*
X121355000Y-126828824D01*
X121477677Y-126816741D01*
X121595641Y-126780958D01*
X121704356Y-126722848D01*
X121799646Y-126644646D01*
X121877848Y-126549356D01*
X121935958Y-126440641D01*
X121971741Y-126322677D01*
X121973778Y-126302000D01*
X121986222Y-126302000D01*
X121988259Y-126322677D01*
X122024042Y-126440641D01*
X122082152Y-126549356D01*
X122160354Y-126644646D01*
X122255644Y-126722848D01*
X122364359Y-126780958D01*
X122482323Y-126816741D01*
X122605000Y-126828824D01*
X123855000Y-126828824D01*
X123977677Y-126816741D01*
X124095641Y-126780958D01*
X124204356Y-126722848D01*
X124299646Y-126644646D01*
X124377848Y-126549356D01*
X124435958Y-126440641D01*
X124471741Y-126322677D01*
X124473778Y-126302000D01*
X124486222Y-126302000D01*
X124488259Y-126322677D01*
X124524042Y-126440641D01*
X124582152Y-126549356D01*
X124660354Y-126644646D01*
X124755644Y-126722848D01*
X124864359Y-126780958D01*
X124982323Y-126816741D01*
X125105000Y-126828824D01*
X126355000Y-126828824D01*
X126477677Y-126816741D01*
X126595641Y-126780958D01*
X126704356Y-126722848D01*
X126799646Y-126644646D01*
X126877848Y-126549356D01*
X126935958Y-126440641D01*
X126971741Y-126322677D01*
X126973778Y-126302000D01*
X126986222Y-126302000D01*
X126988259Y-126322677D01*
X127024042Y-126440641D01*
X127082152Y-126549356D01*
X127160354Y-126644646D01*
X127255644Y-126722848D01*
X127364359Y-126780958D01*
X127482323Y-126816741D01*
X127605000Y-126828824D01*
X128855000Y-126828824D01*
X128977677Y-126816741D01*
X129095641Y-126780958D01*
X129204356Y-126722848D01*
X129299646Y-126644646D01*
X129377848Y-126549356D01*
X129435958Y-126440641D01*
X129471741Y-126322677D01*
X129483824Y-126200000D01*
X129483824Y-125400000D01*
X129471741Y-125277323D01*
X129435958Y-125159359D01*
X129377848Y-125050644D01*
X129299646Y-124955354D01*
X129204356Y-124877152D01*
X129095641Y-124819042D01*
X128977677Y-124783259D01*
X128855000Y-124771176D01*
X127605000Y-124771176D01*
X127482323Y-124783259D01*
X127364359Y-124819042D01*
X127255644Y-124877152D01*
X127160354Y-124955354D01*
X127082152Y-125050644D01*
X127024042Y-125159359D01*
X126988259Y-125277323D01*
X126986222Y-125298000D01*
X126973778Y-125298000D01*
X126971741Y-125277323D01*
X126935958Y-125159359D01*
X126877848Y-125050644D01*
X126799646Y-124955354D01*
X126704356Y-124877152D01*
X126595641Y-124819042D01*
X126477677Y-124783259D01*
X126355000Y-124771176D01*
X125105000Y-124771176D01*
X124982323Y-124783259D01*
X124864359Y-124819042D01*
X124755644Y-124877152D01*
X124660354Y-124955354D01*
X124582152Y-125050644D01*
X124524042Y-125159359D01*
X124488259Y-125277323D01*
X124486222Y-125298000D01*
X124473778Y-125298000D01*
X124471741Y-125277323D01*
X124435958Y-125159359D01*
X124377848Y-125050644D01*
X124299646Y-124955354D01*
X124204356Y-124877152D01*
X124095641Y-124819042D01*
X123977677Y-124783259D01*
X123855000Y-124771176D01*
X122605000Y-124771176D01*
X122482323Y-124783259D01*
X122364359Y-124819042D01*
X122255644Y-124877152D01*
X122160354Y-124955354D01*
X122082152Y-125050644D01*
X122024042Y-125159359D01*
X121988259Y-125277323D01*
X121986222Y-125298000D01*
X121973778Y-125298000D01*
X121971741Y-125277323D01*
X121935958Y-125159359D01*
X121877848Y-125050644D01*
X121799646Y-124955354D01*
X121704356Y-124877152D01*
X121595641Y-124819042D01*
X121477677Y-124783259D01*
X121355000Y-124771176D01*
X120105000Y-124771176D01*
X119982323Y-124783259D01*
X119864359Y-124819042D01*
X119755644Y-124877152D01*
X119660354Y-124955354D01*
X119582152Y-125050644D01*
X119524042Y-125159359D01*
X119488259Y-125277323D01*
X119486222Y-125298000D01*
X119473778Y-125298000D01*
X119471741Y-125277323D01*
X119435958Y-125159359D01*
X119377848Y-125050644D01*
X119299646Y-124955354D01*
X119204356Y-124877152D01*
X119095641Y-124819042D01*
X118977677Y-124783259D01*
X118855000Y-124771176D01*
X117605000Y-124771176D01*
X117482323Y-124783259D01*
X117364359Y-124819042D01*
X117352000Y-124825648D01*
X117352000Y-124674642D01*
X117354427Y-124649999D01*
X117352000Y-124625356D01*
X117352000Y-124625347D01*
X117344736Y-124551591D01*
X117316031Y-124456964D01*
X117269417Y-124369755D01*
X117228143Y-124319463D01*
X117222399Y-124312464D01*
X117222397Y-124312462D01*
X117206684Y-124293316D01*
X117187538Y-124277603D01*
X116927000Y-124017065D01*
X116927000Y-123873472D01*
X116897141Y-123723357D01*
X116838569Y-123581952D01*
X116753536Y-123454691D01*
X116645309Y-123346464D01*
X116518048Y-123261431D01*
X116376643Y-123202859D01*
X116226528Y-123173000D01*
X116073472Y-123173000D01*
X115927000Y-123202134D01*
X115927000Y-123039151D01*
X115879847Y-122802097D01*
X115787353Y-122578798D01*
X115653073Y-122377833D01*
X115482167Y-122206927D01*
X115281202Y-122072647D01*
X115057903Y-121980153D01*
X114969579Y-121962584D01*
X115444250Y-121960000D01*
X115603000Y-121801250D01*
X115603000Y-120527000D01*
X114403750Y-120527000D01*
X114245000Y-120685750D01*
X114241928Y-121325000D01*
X114254188Y-121449482D01*
X114290498Y-121569180D01*
X114349463Y-121679494D01*
X114428815Y-121776185D01*
X114525506Y-121855537D01*
X114635820Y-121914502D01*
X114696800Y-121933000D01*
X114579151Y-121933000D01*
X114342097Y-121980153D01*
X114118798Y-122072647D01*
X113917833Y-122206927D01*
X113746927Y-122377833D01*
X113612647Y-122578798D01*
X113520153Y-122802097D01*
X113473000Y-123039151D01*
X113473000Y-123280849D01*
X113520153Y-123517903D01*
X113612647Y-123741202D01*
X113746927Y-123942167D01*
X113917833Y-124113073D01*
X114067553Y-124213112D01*
X113850000Y-124211928D01*
X113725518Y-124224188D01*
X113605820Y-124260498D01*
X113495506Y-124319463D01*
X113398815Y-124398815D01*
X113319463Y-124495506D01*
X113260498Y-124605820D01*
X113224188Y-124725518D01*
X113211928Y-124850000D01*
X112927000Y-124850000D01*
X112927000Y-119475000D01*
X114241928Y-119475000D01*
X114245000Y-120114250D01*
X114403750Y-120273000D01*
X115603000Y-120273000D01*
X115603000Y-118998750D01*
X115444250Y-118840000D01*
X114880000Y-118836928D01*
X114755518Y-118849188D01*
X114635820Y-118885498D01*
X114525506Y-118944463D01*
X114428815Y-119023815D01*
X114349463Y-119120506D01*
X114290498Y-119230820D01*
X114254188Y-119350518D01*
X114241928Y-119475000D01*
X112927000Y-119475000D01*
X112927000Y-113507289D01*
X112985399Y-113507216D01*
X113039081Y-113658747D01*
X113112528Y-113796157D01*
X113361603Y-113873792D01*
X113729108Y-113506287D01*
X114088767Y-113505838D01*
X113541208Y-114053397D01*
X113618843Y-114302472D01*
X113882883Y-114428371D01*
X114166411Y-114500339D01*
X114458531Y-114515611D01*
X114508637Y-114508339D01*
X114513340Y-114531985D01*
X114571912Y-114673390D01*
X114656945Y-114800651D01*
X114756745Y-114900451D01*
X114756054Y-114907462D01*
X114758481Y-114932105D01*
X114758481Y-114932114D01*
X114765745Y-115005870D01*
X114794450Y-115100497D01*
X114841064Y-115187707D01*
X114903797Y-115264146D01*
X114922949Y-115279864D01*
X117704118Y-118061034D01*
X117719826Y-118080174D01*
X117738966Y-118095882D01*
X117738974Y-118095890D01*
X117796264Y-118142907D01*
X117822807Y-118157094D01*
X117883474Y-118189521D01*
X117978101Y-118218226D01*
X118051857Y-118225490D01*
X118051867Y-118225490D01*
X118076510Y-118227917D01*
X118101153Y-118225490D01*
X118874510Y-118225490D01*
X118874510Y-118551867D01*
X118872083Y-118576510D01*
X118874510Y-118601153D01*
X118874510Y-118601162D01*
X118881774Y-118674918D01*
X118910479Y-118769545D01*
X118957093Y-118856755D01*
X119019826Y-118933194D01*
X119038977Y-118948911D01*
X119577593Y-119487528D01*
X119593306Y-119506674D01*
X119669745Y-119569407D01*
X119734427Y-119603980D01*
X119704851Y-119640018D01*
X119590916Y-119853177D01*
X119520755Y-120084467D01*
X119503000Y-120264733D01*
X119503000Y-120535268D01*
X119520755Y-120715534D01*
X119590916Y-120946824D01*
X119704851Y-121159983D01*
X119858184Y-121346817D01*
X120045018Y-121500149D01*
X120228000Y-121597954D01*
X120228000Y-121671176D01*
X120105000Y-121671176D01*
X119982323Y-121683259D01*
X119864359Y-121719042D01*
X119755644Y-121777152D01*
X119660354Y-121855354D01*
X119582152Y-121950644D01*
X119524042Y-122059359D01*
X119488259Y-122177323D01*
X119480000Y-122261175D01*
X119471741Y-122177323D01*
X119435958Y-122059359D01*
X119377848Y-121950644D01*
X119299646Y-121855354D01*
X119204356Y-121777152D01*
X119095641Y-121719042D01*
X118977677Y-121683259D01*
X118855000Y-121671176D01*
X118732000Y-121671176D01*
X118732000Y-121597955D01*
X118914983Y-121500149D01*
X119101817Y-121346817D01*
X119255149Y-121159982D01*
X119369084Y-120946823D01*
X119439245Y-120715533D01*
X119457000Y-120535267D01*
X119457000Y-120264732D01*
X119439245Y-120084466D01*
X119369084Y-119853176D01*
X119255149Y-119640017D01*
X119101817Y-119453183D01*
X118914982Y-119299851D01*
X118701823Y-119185916D01*
X118470533Y-119115755D01*
X118230000Y-119092064D01*
X117989466Y-119115755D01*
X117758176Y-119185916D01*
X117545017Y-119299851D01*
X117358183Y-119453183D01*
X117217352Y-119624785D01*
X117218072Y-119475000D01*
X117205812Y-119350518D01*
X117169502Y-119230820D01*
X117110537Y-119120506D01*
X117031185Y-119023815D01*
X116934494Y-118944463D01*
X116824180Y-118885498D01*
X116704482Y-118849188D01*
X116580000Y-118836928D01*
X116015750Y-118840000D01*
X115857000Y-118998750D01*
X115857000Y-120273000D01*
X115877000Y-120273000D01*
X115877000Y-120527000D01*
X115857000Y-120527000D01*
X115857000Y-121801250D01*
X116015750Y-121960000D01*
X116580000Y-121963072D01*
X116704482Y-121950812D01*
X116824180Y-121914502D01*
X116934494Y-121855537D01*
X117031185Y-121776185D01*
X117110537Y-121679494D01*
X117169502Y-121569180D01*
X117205812Y-121449482D01*
X117218072Y-121325000D01*
X117217352Y-121175216D01*
X117358184Y-121346817D01*
X117545018Y-121500149D01*
X117728000Y-121597954D01*
X117728000Y-121671176D01*
X117605000Y-121671176D01*
X117482323Y-121683259D01*
X117364359Y-121719042D01*
X117255644Y-121777152D01*
X117160354Y-121855354D01*
X117082152Y-121950644D01*
X117024042Y-122059359D01*
X116988259Y-122177323D01*
X116976176Y-122300000D01*
X116976176Y-123100000D01*
X116988259Y-123222677D01*
X117024042Y-123340641D01*
X117082152Y-123449356D01*
X117160354Y-123544646D01*
X117255644Y-123622848D01*
X117364359Y-123680958D01*
X117482323Y-123716741D01*
X117605000Y-123728824D01*
X118855000Y-123728824D01*
X118977677Y-123716741D01*
X119095641Y-123680958D01*
X119204356Y-123622848D01*
X119299646Y-123544646D01*
X119377848Y-123449356D01*
X119435958Y-123340641D01*
X119471741Y-123222677D01*
X119480000Y-123138825D01*
X119488259Y-123222677D01*
X119524042Y-123340641D01*
X119582152Y-123449356D01*
X119660354Y-123544646D01*
X119755644Y-123622848D01*
X119864359Y-123680958D01*
X119982323Y-123716741D01*
X120105000Y-123728824D01*
X121355000Y-123728824D01*
X121477677Y-123716741D01*
X121595641Y-123680958D01*
X121704356Y-123622848D01*
X121799646Y-123544646D01*
X121877848Y-123449356D01*
X121935958Y-123340641D01*
X121971741Y-123222677D01*
X121980000Y-123138825D01*
X121988259Y-123222677D01*
X122024042Y-123340641D01*
X122082152Y-123449356D01*
X122160354Y-123544646D01*
X122255644Y-123622848D01*
X122364359Y-123680958D01*
X122482323Y-123716741D01*
X122605000Y-123728824D01*
X123855000Y-123728824D01*
X123977677Y-123716741D01*
X124095641Y-123680958D01*
X124204356Y-123622848D01*
X124299646Y-123544646D01*
X124377848Y-123449356D01*
X124435958Y-123340641D01*
X124471741Y-123222677D01*
X124480000Y-123138825D01*
X124488259Y-123222677D01*
X124524042Y-123340641D01*
X124582152Y-123449356D01*
X124660354Y-123544646D01*
X124755644Y-123622848D01*
X124864359Y-123680958D01*
X124982323Y-123716741D01*
X125105000Y-123728824D01*
X126355000Y-123728824D01*
X126477677Y-123716741D01*
X126595641Y-123680958D01*
X126704356Y-123622848D01*
X126799646Y-123544646D01*
X126877848Y-123449356D01*
X126935958Y-123340641D01*
X126971741Y-123222677D01*
X126980000Y-123138825D01*
X126988259Y-123222677D01*
X127024042Y-123340641D01*
X127082152Y-123449356D01*
X127160354Y-123544646D01*
X127255644Y-123622848D01*
X127364359Y-123680958D01*
X127482323Y-123716741D01*
X127605000Y-123728824D01*
X128855000Y-123728824D01*
X128977677Y-123716741D01*
X129095641Y-123680958D01*
X129204356Y-123622848D01*
X129299646Y-123544646D01*
X129377848Y-123449356D01*
X129435958Y-123340641D01*
X129471741Y-123222677D01*
X129483824Y-123100000D01*
X129483824Y-122300000D01*
X129471741Y-122177323D01*
X129435958Y-122059359D01*
X129377848Y-121950644D01*
X129299646Y-121855354D01*
X129204356Y-121777152D01*
X129095641Y-121719042D01*
X128977677Y-121683259D01*
X128855000Y-121671176D01*
X128732000Y-121671176D01*
X128732000Y-121597955D01*
X128914983Y-121500149D01*
X129101817Y-121346817D01*
X129255149Y-121159982D01*
X129369084Y-120946823D01*
X129439245Y-120715533D01*
X129457000Y-120535267D01*
X129457000Y-120264732D01*
X129439245Y-120084466D01*
X129369084Y-119853176D01*
X129255149Y-119640017D01*
X129101817Y-119453183D01*
X128914982Y-119299851D01*
X128701823Y-119185916D01*
X128470533Y-119115755D01*
X128230000Y-119092064D01*
X127989466Y-119115755D01*
X127758176Y-119185916D01*
X127545017Y-119299851D01*
X127358183Y-119453183D01*
X127204851Y-119640018D01*
X127090916Y-119853177D01*
X127020755Y-120084467D01*
X127003000Y-120264733D01*
X127003000Y-120535268D01*
X127020755Y-120715534D01*
X127090916Y-120946824D01*
X127204851Y-121159983D01*
X127358184Y-121346817D01*
X127545018Y-121500149D01*
X127728000Y-121597954D01*
X127728000Y-121671176D01*
X127605000Y-121671176D01*
X127482323Y-121683259D01*
X127364359Y-121719042D01*
X127255644Y-121777152D01*
X127160354Y-121855354D01*
X127082152Y-121950644D01*
X127024042Y-122059359D01*
X126988259Y-122177323D01*
X126980000Y-122261175D01*
X126971741Y-122177323D01*
X126935958Y-122059359D01*
X126877848Y-121950644D01*
X126799646Y-121855354D01*
X126704356Y-121777152D01*
X126595641Y-121719042D01*
X126477677Y-121683259D01*
X126355000Y-121671176D01*
X126232000Y-121671176D01*
X126232000Y-121597955D01*
X126414983Y-121500149D01*
X126601817Y-121346817D01*
X126755149Y-121159982D01*
X126869084Y-120946823D01*
X126939245Y-120715533D01*
X126957000Y-120535267D01*
X126957000Y-120264732D01*
X126939245Y-120084466D01*
X126869084Y-119853176D01*
X126755149Y-119640017D01*
X126601817Y-119453183D01*
X126414982Y-119299851D01*
X126201823Y-119185916D01*
X125970533Y-119115755D01*
X125730000Y-119092064D01*
X125489466Y-119115755D01*
X125258176Y-119185916D01*
X125045017Y-119299851D01*
X124858183Y-119453183D01*
X124704851Y-119640018D01*
X124590916Y-119853177D01*
X124520755Y-120084467D01*
X124503000Y-120264733D01*
X124503000Y-120535268D01*
X124520755Y-120715534D01*
X124590916Y-120946824D01*
X124704851Y-121159983D01*
X124858184Y-121346817D01*
X125045018Y-121500149D01*
X125228000Y-121597954D01*
X125228000Y-121671176D01*
X125105000Y-121671176D01*
X124982323Y-121683259D01*
X124864359Y-121719042D01*
X124755644Y-121777152D01*
X124660354Y-121855354D01*
X124582152Y-121950644D01*
X124524042Y-122059359D01*
X124488259Y-122177323D01*
X124480000Y-122261175D01*
X124471741Y-122177323D01*
X124435958Y-122059359D01*
X124377848Y-121950644D01*
X124299646Y-121855354D01*
X124204356Y-121777152D01*
X124095641Y-121719042D01*
X123977677Y-121683259D01*
X123855000Y-121671176D01*
X123732000Y-121671176D01*
X123732000Y-121597955D01*
X123914983Y-121500149D01*
X124101817Y-121346817D01*
X124255149Y-121159982D01*
X124369084Y-120946823D01*
X124439245Y-120715533D01*
X124457000Y-120535267D01*
X124457000Y-120264732D01*
X124439245Y-120084466D01*
X124369084Y-119853176D01*
X124255149Y-119640017D01*
X124236969Y-119617865D01*
X124243046Y-119616021D01*
X124330255Y-119569407D01*
X124406694Y-119506674D01*
X124422411Y-119487523D01*
X125007935Y-118902000D01*
X126575357Y-118902000D01*
X126600000Y-118904427D01*
X126624643Y-118902000D01*
X126624653Y-118902000D01*
X126698409Y-118894736D01*
X126793036Y-118866031D01*
X126880245Y-118819417D01*
X126956684Y-118756684D01*
X126972402Y-118737532D01*
X127237532Y-118472402D01*
X127256684Y-118456684D01*
X127319417Y-118380245D01*
X127366031Y-118293036D01*
X127394736Y-118198409D01*
X127402000Y-118124653D01*
X127402000Y-118124644D01*
X127404427Y-118100001D01*
X127402000Y-118075358D01*
X127402000Y-116324642D01*
X127404427Y-116299999D01*
X127402000Y-116275356D01*
X127402000Y-116275347D01*
X127396422Y-116218706D01*
X127397889Y-116218098D01*
X127525150Y-116133065D01*
X127633377Y-116024838D01*
X127718410Y-115897577D01*
X127776982Y-115756172D01*
X127806841Y-115606057D01*
X127806841Y-115453001D01*
X127776982Y-115302886D01*
X127766270Y-115277026D01*
X127826528Y-115277026D01*
X127976643Y-115247167D01*
X128118048Y-115188595D01*
X128245309Y-115103562D01*
X128353536Y-114995335D01*
X128438569Y-114868074D01*
X128497141Y-114726669D01*
X128527000Y-114576554D01*
X128527000Y-114423498D01*
X128524624Y-114411555D01*
X129248000Y-115134932D01*
X129248001Y-116903154D01*
X129146464Y-117004691D01*
X129061431Y-117131952D01*
X129002859Y-117273357D01*
X128973000Y-117423472D01*
X128973000Y-117576528D01*
X129002859Y-117726643D01*
X129061431Y-117868048D01*
X129146464Y-117995309D01*
X129254691Y-118103536D01*
X129381952Y-118188569D01*
X129523357Y-118247141D01*
X129673472Y-118277000D01*
X129826528Y-118277000D01*
X129976643Y-118247141D01*
X130118048Y-118188569D01*
X130245309Y-118103536D01*
X130353536Y-117995309D01*
X130438569Y-117868048D01*
X130497141Y-117726643D01*
X130527000Y-117576528D01*
X130527000Y-117423472D01*
X130497141Y-117273357D01*
X130438569Y-117131952D01*
X130353536Y-117004691D01*
X130252000Y-116903155D01*
X130252000Y-114951639D01*
X130254427Y-114926996D01*
X130252000Y-114902353D01*
X130252000Y-114902343D01*
X130244736Y-114828587D01*
X130216031Y-114733960D01*
X130188279Y-114682039D01*
X130169417Y-114646750D01*
X130122400Y-114589460D01*
X130122392Y-114589452D01*
X130106684Y-114570312D01*
X130087543Y-114554603D01*
X128970419Y-113437481D01*
X128954704Y-113418332D01*
X128878265Y-113355599D01*
X128791056Y-113308985D01*
X128696429Y-113280280D01*
X128622673Y-113273016D01*
X128622663Y-113273016D01*
X128598020Y-113270589D01*
X128573377Y-113273016D01*
X128211498Y-113273016D01*
X128240633Y-113126539D01*
X128240633Y-112973483D01*
X128210774Y-112823368D01*
X128152202Y-112681963D01*
X128067169Y-112554702D01*
X127958942Y-112446475D01*
X127833375Y-112362574D01*
X127997903Y-112329847D01*
X128221202Y-112237353D01*
X128422167Y-112103073D01*
X128593073Y-111932167D01*
X128727353Y-111731202D01*
X128819847Y-111507903D01*
X128867000Y-111270849D01*
X128867000Y-111029151D01*
X128819847Y-110792097D01*
X128727353Y-110568798D01*
X128593073Y-110367833D01*
X128422167Y-110196927D01*
X128221202Y-110062647D01*
X128142000Y-110029840D01*
X128142000Y-104616321D01*
X128144427Y-104591678D01*
X128142000Y-104567035D01*
X128142000Y-104567026D01*
X128134736Y-104493270D01*
X128106031Y-104398643D01*
X128059417Y-104311434D01*
X128029898Y-104275466D01*
X128012399Y-104254143D01*
X128012397Y-104254141D01*
X127996684Y-104234995D01*
X127977538Y-104219282D01*
X127765623Y-104007368D01*
X127878882Y-103931691D01*
X127987109Y-103823464D01*
X128072142Y-103696203D01*
X128130714Y-103554798D01*
X128160573Y-103404683D01*
X128160573Y-103251627D01*
X128130714Y-103101512D01*
X128072142Y-102960107D01*
X127987109Y-102832846D01*
X127878882Y-102724619D01*
X127751621Y-102639586D01*
X127610216Y-102581014D01*
X127460101Y-102551155D01*
X127316507Y-102551155D01*
X127252000Y-102486648D01*
X127252000Y-101496845D01*
X127353536Y-101395309D01*
X127438569Y-101268048D01*
X127497141Y-101126643D01*
X127527000Y-100976528D01*
X127527000Y-100823472D01*
X127497141Y-100673357D01*
X127438569Y-100531952D01*
X127353536Y-100404691D01*
X127245309Y-100296464D01*
X127118048Y-100211431D01*
X126976643Y-100152859D01*
X126826528Y-100123000D01*
X126673472Y-100123000D01*
X126523357Y-100152859D01*
X126381952Y-100211431D01*
X126254691Y-100296464D01*
X126146464Y-100404691D01*
X126061431Y-100531952D01*
X126002859Y-100673357D01*
X125973000Y-100823472D01*
X125973000Y-100976528D01*
X126002859Y-101126643D01*
X126061431Y-101268048D01*
X126146464Y-101395309D01*
X126248000Y-101496845D01*
X126248001Y-102669929D01*
X126245573Y-102694582D01*
X126255265Y-102792991D01*
X126283970Y-102887618D01*
X126330584Y-102974827D01*
X126377601Y-103032117D01*
X126377604Y-103032120D01*
X126393317Y-103051266D01*
X126412463Y-103066979D01*
X126606573Y-103261089D01*
X126606573Y-103404683D01*
X126610799Y-103425931D01*
X126304894Y-103425931D01*
X126280251Y-103423504D01*
X126255605Y-103425931D01*
X126255597Y-103425931D01*
X126181841Y-103433195D01*
X126087214Y-103461900D01*
X126000005Y-103508514D01*
X125942715Y-103555531D01*
X125942714Y-103555532D01*
X125923566Y-103571247D01*
X125907853Y-103590393D01*
X125340717Y-104157528D01*
X125321565Y-104173246D01*
X125258832Y-104249685D01*
X125212218Y-104336895D01*
X125183513Y-104431522D01*
X125176249Y-104505278D01*
X125176249Y-104505287D01*
X125173822Y-104529930D01*
X125176249Y-104554573D01*
X125176250Y-105250226D01*
X123593219Y-106833258D01*
X123593219Y-105599153D01*
X124737547Y-104454826D01*
X124756693Y-104439113D01*
X124772406Y-104419967D01*
X124772409Y-104419964D01*
X124819426Y-104362675D01*
X124866040Y-104275466D01*
X124894745Y-104180839D01*
X124900641Y-104120969D01*
X124902009Y-104107082D01*
X124902009Y-104107075D01*
X124904436Y-104082429D01*
X124902009Y-104057784D01*
X124902009Y-103188240D01*
X124904436Y-103163597D01*
X124902009Y-103138954D01*
X124902009Y-103138945D01*
X124894745Y-103065189D01*
X124866040Y-102970562D01*
X124819426Y-102883353D01*
X124797450Y-102856576D01*
X124772408Y-102826062D01*
X124772406Y-102826060D01*
X124756693Y-102806914D01*
X124737547Y-102791201D01*
X123640602Y-101694257D01*
X123624889Y-101675111D01*
X123605743Y-101659398D01*
X123605740Y-101659395D01*
X123585705Y-101642953D01*
X123548450Y-101612378D01*
X123461241Y-101565764D01*
X123366614Y-101537059D01*
X123292858Y-101529795D01*
X123292848Y-101529795D01*
X123268205Y-101527368D01*
X123243562Y-101529795D01*
X118339729Y-101529795D01*
X118302000Y-101492066D01*
X118302000Y-99974642D01*
X118304427Y-99949999D01*
X118302000Y-99925356D01*
X118302000Y-99925347D01*
X118294736Y-99851591D01*
X118266031Y-99756964D01*
X118219417Y-99669755D01*
X118156684Y-99593316D01*
X118137532Y-99577598D01*
X118022402Y-99462468D01*
X118006684Y-99443316D01*
X117930245Y-99380583D01*
X117843036Y-99333969D01*
X117748409Y-99305264D01*
X117728824Y-99303335D01*
X117728824Y-99175000D01*
X117716741Y-99052323D01*
X117680958Y-98934359D01*
X117638030Y-98854048D01*
X131073000Y-98924758D01*
%TA.AperFunction,Conductor*%
D30*
G36*
X131073000Y-98924758D02*
G01*
X131073000Y-110307760D01*
X130962167Y-110196927D01*
X130761202Y-110062647D01*
X130537903Y-109970153D01*
X130300849Y-109923000D01*
X130059151Y-109923000D01*
X129822097Y-109970153D01*
X129598798Y-110062647D01*
X129397833Y-110196927D01*
X129226927Y-110367833D01*
X129092647Y-110568798D01*
X129000153Y-110792097D01*
X128953000Y-111029151D01*
X128953000Y-111270849D01*
X129000153Y-111507903D01*
X129092647Y-111731202D01*
X129226927Y-111932167D01*
X129397833Y-112103073D01*
X129598798Y-112237353D01*
X129822097Y-112329847D01*
X130059151Y-112377000D01*
X130300849Y-112377000D01*
X130537903Y-112329847D01*
X130761202Y-112237353D01*
X130962167Y-112103073D01*
X131073000Y-111992240D01*
X131073001Y-127073000D01*
X115913678Y-127073000D01*
X116001185Y-127001185D01*
X116080537Y-126904494D01*
X116139502Y-126794180D01*
X116175812Y-126674482D01*
X116188072Y-126550000D01*
X116185000Y-125985750D01*
X116026250Y-125827000D01*
X114827000Y-125827000D01*
X114827000Y-125847000D01*
X114573000Y-125847000D01*
X114573000Y-125827000D01*
X113373750Y-125827000D01*
X113215000Y-125985750D01*
X113211928Y-126550000D01*
X113224188Y-126674482D01*
X113260498Y-126794180D01*
X113319463Y-126904494D01*
X113398815Y-127001185D01*
X113486322Y-127073000D01*
X112927000Y-127073000D01*
X112927000Y-124850000D01*
X113211928Y-124850000D01*
X113215000Y-125414250D01*
X113373750Y-125573000D01*
X114573000Y-125573000D01*
X114573000Y-125553000D01*
X114827000Y-125553000D01*
X114827000Y-125573000D01*
X116026250Y-125573000D01*
X116185000Y-125414250D01*
X116188072Y-124850000D01*
X116175958Y-124727000D01*
X116217065Y-124727000D01*
X116348000Y-124857935D01*
X116348001Y-125525348D01*
X116345573Y-125550000D01*
X116355265Y-125648409D01*
X116383970Y-125743036D01*
X116430584Y-125830245D01*
X116477601Y-125887535D01*
X116477604Y-125887538D01*
X116493317Y-125906684D01*
X116512463Y-125922397D01*
X116727598Y-126137532D01*
X116743316Y-126156684D01*
X116819755Y-126219417D01*
X116906964Y-126266031D01*
X116985012Y-126289707D01*
X116988259Y-126322677D01*
X117024042Y-126440641D01*
X117082152Y-126549356D01*
X117160354Y-126644646D01*
X117255644Y-126722848D01*
X117364359Y-126780958D01*
X117482323Y-126816741D01*
X117605000Y-126828824D01*
X118855000Y-126828824D01*
X118977677Y-126816741D01*
X119095641Y-126780958D01*
X119204356Y-126722848D01*
X119299646Y-126644646D01*
X119377848Y-126549356D01*
X119435958Y-126440641D01*
X119471741Y-126322677D01*
X119473778Y-126302000D01*
X119486222Y-126302000D01*
X119488259Y-126322677D01*
X119524042Y-126440641D01*
X119582152Y-126549356D01*
X119660354Y-126644646D01*
X119755644Y-126722848D01*
X119864359Y-126780958D01*
X119982323Y-126816741D01*
X120105000Y-126828824D01*
X121355000Y-126828824D01*
X121477677Y-126816741D01*
X121595641Y-126780958D01*
X121704356Y-126722848D01*
X121799646Y-126644646D01*
X121877848Y-126549356D01*
X121935958Y-126440641D01*
X121971741Y-126322677D01*
X121973778Y-126302000D01*
X121986222Y-126302000D01*
X121988259Y-126322677D01*
X122024042Y-126440641D01*
X122082152Y-126549356D01*
X122160354Y-126644646D01*
X122255644Y-126722848D01*
X122364359Y-126780958D01*
X122482323Y-126816741D01*
X122605000Y-126828824D01*
X123855000Y-126828824D01*
X123977677Y-126816741D01*
X124095641Y-126780958D01*
X124204356Y-126722848D01*
X124299646Y-126644646D01*
X124377848Y-126549356D01*
X124435958Y-126440641D01*
X124471741Y-126322677D01*
X124473778Y-126302000D01*
X124486222Y-126302000D01*
X124488259Y-126322677D01*
X124524042Y-126440641D01*
X124582152Y-126549356D01*
X124660354Y-126644646D01*
X124755644Y-126722848D01*
X124864359Y-126780958D01*
X124982323Y-126816741D01*
X125105000Y-126828824D01*
X126355000Y-126828824D01*
X126477677Y-126816741D01*
X126595641Y-126780958D01*
X126704356Y-126722848D01*
X126799646Y-126644646D01*
X126877848Y-126549356D01*
X126935958Y-126440641D01*
X126971741Y-126322677D01*
X126973778Y-126302000D01*
X126986222Y-126302000D01*
X126988259Y-126322677D01*
X127024042Y-126440641D01*
X127082152Y-126549356D01*
X127160354Y-126644646D01*
X127255644Y-126722848D01*
X127364359Y-126780958D01*
X127482323Y-126816741D01*
X127605000Y-126828824D01*
X128855000Y-126828824D01*
X128977677Y-126816741D01*
X129095641Y-126780958D01*
X129204356Y-126722848D01*
X129299646Y-126644646D01*
X129377848Y-126549356D01*
X129435958Y-126440641D01*
X129471741Y-126322677D01*
X129483824Y-126200000D01*
X129483824Y-125400000D01*
X129471741Y-125277323D01*
X129435958Y-125159359D01*
X129377848Y-125050644D01*
X129299646Y-124955354D01*
X129204356Y-124877152D01*
X129095641Y-124819042D01*
X128977677Y-124783259D01*
X128855000Y-124771176D01*
X127605000Y-124771176D01*
X127482323Y-124783259D01*
X127364359Y-124819042D01*
X127255644Y-124877152D01*
X127160354Y-124955354D01*
X127082152Y-125050644D01*
X127024042Y-125159359D01*
X126988259Y-125277323D01*
X126986222Y-125298000D01*
X126973778Y-125298000D01*
X126971741Y-125277323D01*
X126935958Y-125159359D01*
X126877848Y-125050644D01*
X126799646Y-124955354D01*
X126704356Y-124877152D01*
X126595641Y-124819042D01*
X126477677Y-124783259D01*
X126355000Y-124771176D01*
X125105000Y-124771176D01*
X124982323Y-124783259D01*
X124864359Y-124819042D01*
X124755644Y-124877152D01*
X124660354Y-124955354D01*
X124582152Y-125050644D01*
X124524042Y-125159359D01*
X124488259Y-125277323D01*
X124486222Y-125298000D01*
X124473778Y-125298000D01*
X124471741Y-125277323D01*
X124435958Y-125159359D01*
X124377848Y-125050644D01*
X124299646Y-124955354D01*
X124204356Y-124877152D01*
X124095641Y-124819042D01*
X123977677Y-124783259D01*
X123855000Y-124771176D01*
X122605000Y-124771176D01*
X122482323Y-124783259D01*
X122364359Y-124819042D01*
X122255644Y-124877152D01*
X122160354Y-124955354D01*
X122082152Y-125050644D01*
X122024042Y-125159359D01*
X121988259Y-125277323D01*
X121986222Y-125298000D01*
X121973778Y-125298000D01*
X121971741Y-125277323D01*
X121935958Y-125159359D01*
X121877848Y-125050644D01*
X121799646Y-124955354D01*
X121704356Y-124877152D01*
X121595641Y-124819042D01*
X121477677Y-124783259D01*
X121355000Y-124771176D01*
X120105000Y-124771176D01*
X119982323Y-124783259D01*
X119864359Y-124819042D01*
X119755644Y-124877152D01*
X119660354Y-124955354D01*
X119582152Y-125050644D01*
X119524042Y-125159359D01*
X119488259Y-125277323D01*
X119486222Y-125298000D01*
X119473778Y-125298000D01*
X119471741Y-125277323D01*
X119435958Y-125159359D01*
X119377848Y-125050644D01*
X119299646Y-124955354D01*
X119204356Y-124877152D01*
X119095641Y-124819042D01*
X118977677Y-124783259D01*
X118855000Y-124771176D01*
X117605000Y-124771176D01*
X117482323Y-124783259D01*
X117364359Y-124819042D01*
X117352000Y-124825648D01*
X117352000Y-124674642D01*
X117354427Y-124649999D01*
X117352000Y-124625356D01*
X117352000Y-124625347D01*
X117344736Y-124551591D01*
X117316031Y-124456964D01*
X117269417Y-124369755D01*
X117228143Y-124319463D01*
X117222399Y-124312464D01*
X117222397Y-124312462D01*
X117206684Y-124293316D01*
X117187538Y-124277603D01*
X116927000Y-124017065D01*
X116927000Y-123873472D01*
X116897141Y-123723357D01*
X116838569Y-123581952D01*
X116753536Y-123454691D01*
X116645309Y-123346464D01*
X116518048Y-123261431D01*
X116376643Y-123202859D01*
X116226528Y-123173000D01*
X116073472Y-123173000D01*
X115927000Y-123202134D01*
X115927000Y-123039151D01*
X115879847Y-122802097D01*
X115787353Y-122578798D01*
X115653073Y-122377833D01*
X115482167Y-122206927D01*
X115281202Y-122072647D01*
X115057903Y-121980153D01*
X114969579Y-121962584D01*
X115444250Y-121960000D01*
X115603000Y-121801250D01*
X115603000Y-120527000D01*
X114403750Y-120527000D01*
X114245000Y-120685750D01*
X114241928Y-121325000D01*
X114254188Y-121449482D01*
X114290498Y-121569180D01*
X114349463Y-121679494D01*
X114428815Y-121776185D01*
X114525506Y-121855537D01*
X114635820Y-121914502D01*
X114696800Y-121933000D01*
X114579151Y-121933000D01*
X114342097Y-121980153D01*
X114118798Y-122072647D01*
X113917833Y-122206927D01*
X113746927Y-122377833D01*
X113612647Y-122578798D01*
X113520153Y-122802097D01*
X113473000Y-123039151D01*
X113473000Y-123280849D01*
X113520153Y-123517903D01*
X113612647Y-123741202D01*
X113746927Y-123942167D01*
X113917833Y-124113073D01*
X114067553Y-124213112D01*
X113850000Y-124211928D01*
X113725518Y-124224188D01*
X113605820Y-124260498D01*
X113495506Y-124319463D01*
X113398815Y-124398815D01*
X113319463Y-124495506D01*
X113260498Y-124605820D01*
X113224188Y-124725518D01*
X113211928Y-124850000D01*
X112927000Y-124850000D01*
X112927000Y-119475000D01*
X114241928Y-119475000D01*
X114245000Y-120114250D01*
X114403750Y-120273000D01*
X115603000Y-120273000D01*
X115603000Y-118998750D01*
X115444250Y-118840000D01*
X114880000Y-118836928D01*
X114755518Y-118849188D01*
X114635820Y-118885498D01*
X114525506Y-118944463D01*
X114428815Y-119023815D01*
X114349463Y-119120506D01*
X114290498Y-119230820D01*
X114254188Y-119350518D01*
X114241928Y-119475000D01*
X112927000Y-119475000D01*
X112927000Y-113507289D01*
X112985399Y-113507216D01*
X113039081Y-113658747D01*
X113112528Y-113796157D01*
X113361603Y-113873792D01*
X113729108Y-113506287D01*
X114088767Y-113505838D01*
X113541208Y-114053397D01*
X113618843Y-114302472D01*
X113882883Y-114428371D01*
X114166411Y-114500339D01*
X114458531Y-114515611D01*
X114508637Y-114508339D01*
X114513340Y-114531985D01*
X114571912Y-114673390D01*
X114656945Y-114800651D01*
X114756745Y-114900451D01*
X114756054Y-114907462D01*
X114758481Y-114932105D01*
X114758481Y-114932114D01*
X114765745Y-115005870D01*
X114794450Y-115100497D01*
X114841064Y-115187707D01*
X114903797Y-115264146D01*
X114922949Y-115279864D01*
X117704118Y-118061034D01*
X117719826Y-118080174D01*
X117738966Y-118095882D01*
X117738974Y-118095890D01*
X117796264Y-118142907D01*
X117822807Y-118157094D01*
X117883474Y-118189521D01*
X117978101Y-118218226D01*
X118051857Y-118225490D01*
X118051867Y-118225490D01*
X118076510Y-118227917D01*
X118101153Y-118225490D01*
X118874510Y-118225490D01*
X118874510Y-118551867D01*
X118872083Y-118576510D01*
X118874510Y-118601153D01*
X118874510Y-118601162D01*
X118881774Y-118674918D01*
X118910479Y-118769545D01*
X118957093Y-118856755D01*
X119019826Y-118933194D01*
X119038977Y-118948911D01*
X119577593Y-119487528D01*
X119593306Y-119506674D01*
X119669745Y-119569407D01*
X119734427Y-119603980D01*
X119704851Y-119640018D01*
X119590916Y-119853177D01*
X119520755Y-120084467D01*
X119503000Y-120264733D01*
X119503000Y-120535268D01*
X119520755Y-120715534D01*
X119590916Y-120946824D01*
X119704851Y-121159983D01*
X119858184Y-121346817D01*
X120045018Y-121500149D01*
X120228000Y-121597954D01*
X120228000Y-121671176D01*
X120105000Y-121671176D01*
X119982323Y-121683259D01*
X119864359Y-121719042D01*
X119755644Y-121777152D01*
X119660354Y-121855354D01*
X119582152Y-121950644D01*
X119524042Y-122059359D01*
X119488259Y-122177323D01*
X119480000Y-122261175D01*
X119471741Y-122177323D01*
X119435958Y-122059359D01*
X119377848Y-121950644D01*
X119299646Y-121855354D01*
X119204356Y-121777152D01*
X119095641Y-121719042D01*
X118977677Y-121683259D01*
X118855000Y-121671176D01*
X118732000Y-121671176D01*
X118732000Y-121597955D01*
X118914983Y-121500149D01*
X119101817Y-121346817D01*
X119255149Y-121159982D01*
X119369084Y-120946823D01*
X119439245Y-120715533D01*
X119457000Y-120535267D01*
X119457000Y-120264732D01*
X119439245Y-120084466D01*
X119369084Y-119853176D01*
X119255149Y-119640017D01*
X119101817Y-119453183D01*
X118914982Y-119299851D01*
X118701823Y-119185916D01*
X118470533Y-119115755D01*
X118230000Y-119092064D01*
X117989466Y-119115755D01*
X117758176Y-119185916D01*
X117545017Y-119299851D01*
X117358183Y-119453183D01*
X117217352Y-119624785D01*
X117218072Y-119475000D01*
X117205812Y-119350518D01*
X117169502Y-119230820D01*
X117110537Y-119120506D01*
X117031185Y-119023815D01*
X116934494Y-118944463D01*
X116824180Y-118885498D01*
X116704482Y-118849188D01*
X116580000Y-118836928D01*
X116015750Y-118840000D01*
X115857000Y-118998750D01*
X115857000Y-120273000D01*
X115877000Y-120273000D01*
X115877000Y-120527000D01*
X115857000Y-120527000D01*
X115857000Y-121801250D01*
X116015750Y-121960000D01*
X116580000Y-121963072D01*
X116704482Y-121950812D01*
X116824180Y-121914502D01*
X116934494Y-121855537D01*
X117031185Y-121776185D01*
X117110537Y-121679494D01*
X117169502Y-121569180D01*
X117205812Y-121449482D01*
X117218072Y-121325000D01*
X117217352Y-121175216D01*
X117358184Y-121346817D01*
X117545018Y-121500149D01*
X117728000Y-121597954D01*
X117728000Y-121671176D01*
X117605000Y-121671176D01*
X117482323Y-121683259D01*
X117364359Y-121719042D01*
X117255644Y-121777152D01*
X117160354Y-121855354D01*
X117082152Y-121950644D01*
X117024042Y-122059359D01*
X116988259Y-122177323D01*
X116976176Y-122300000D01*
X116976176Y-123100000D01*
X116988259Y-123222677D01*
X117024042Y-123340641D01*
X117082152Y-123449356D01*
X117160354Y-123544646D01*
X117255644Y-123622848D01*
X117364359Y-123680958D01*
X117482323Y-123716741D01*
X117605000Y-123728824D01*
X118855000Y-123728824D01*
X118977677Y-123716741D01*
X119095641Y-123680958D01*
X119204356Y-123622848D01*
X119299646Y-123544646D01*
X119377848Y-123449356D01*
X119435958Y-123340641D01*
X119471741Y-123222677D01*
X119480000Y-123138825D01*
X119488259Y-123222677D01*
X119524042Y-123340641D01*
X119582152Y-123449356D01*
X119660354Y-123544646D01*
X119755644Y-123622848D01*
X119864359Y-123680958D01*
X119982323Y-123716741D01*
X120105000Y-123728824D01*
X121355000Y-123728824D01*
X121477677Y-123716741D01*
X121595641Y-123680958D01*
X121704356Y-123622848D01*
X121799646Y-123544646D01*
X121877848Y-123449356D01*
X121935958Y-123340641D01*
X121971741Y-123222677D01*
X121980000Y-123138825D01*
X121988259Y-123222677D01*
X122024042Y-123340641D01*
X122082152Y-123449356D01*
X122160354Y-123544646D01*
X122255644Y-123622848D01*
X122364359Y-123680958D01*
X122482323Y-123716741D01*
X122605000Y-123728824D01*
X123855000Y-123728824D01*
X123977677Y-123716741D01*
X124095641Y-123680958D01*
X124204356Y-123622848D01*
X124299646Y-123544646D01*
X124377848Y-123449356D01*
X124435958Y-123340641D01*
X124471741Y-123222677D01*
X124480000Y-123138825D01*
X124488259Y-123222677D01*
X124524042Y-123340641D01*
X124582152Y-123449356D01*
X124660354Y-123544646D01*
X124755644Y-123622848D01*
X124864359Y-123680958D01*
X124982323Y-123716741D01*
X125105000Y-123728824D01*
X126355000Y-123728824D01*
X126477677Y-123716741D01*
X126595641Y-123680958D01*
X126704356Y-123622848D01*
X126799646Y-123544646D01*
X126877848Y-123449356D01*
X126935958Y-123340641D01*
X126971741Y-123222677D01*
X126980000Y-123138825D01*
X126988259Y-123222677D01*
X127024042Y-123340641D01*
X127082152Y-123449356D01*
X127160354Y-123544646D01*
X127255644Y-123622848D01*
X127364359Y-123680958D01*
X127482323Y-123716741D01*
X127605000Y-123728824D01*
X128855000Y-123728824D01*
X128977677Y-123716741D01*
X129095641Y-123680958D01*
X129204356Y-123622848D01*
X129299646Y-123544646D01*
X129377848Y-123449356D01*
X129435958Y-123340641D01*
X129471741Y-123222677D01*
X129483824Y-123100000D01*
X129483824Y-122300000D01*
X129471741Y-122177323D01*
X129435958Y-122059359D01*
X129377848Y-121950644D01*
X129299646Y-121855354D01*
X129204356Y-121777152D01*
X129095641Y-121719042D01*
X128977677Y-121683259D01*
X128855000Y-121671176D01*
X128732000Y-121671176D01*
X128732000Y-121597955D01*
X128914983Y-121500149D01*
X129101817Y-121346817D01*
X129255149Y-121159982D01*
X129369084Y-120946823D01*
X129439245Y-120715533D01*
X129457000Y-120535267D01*
X129457000Y-120264732D01*
X129439245Y-120084466D01*
X129369084Y-119853176D01*
X129255149Y-119640017D01*
X129101817Y-119453183D01*
X128914982Y-119299851D01*
X128701823Y-119185916D01*
X128470533Y-119115755D01*
X128230000Y-119092064D01*
X127989466Y-119115755D01*
X127758176Y-119185916D01*
X127545017Y-119299851D01*
X127358183Y-119453183D01*
X127204851Y-119640018D01*
X127090916Y-119853177D01*
X127020755Y-120084467D01*
X127003000Y-120264733D01*
X127003000Y-120535268D01*
X127020755Y-120715534D01*
X127090916Y-120946824D01*
X127204851Y-121159983D01*
X127358184Y-121346817D01*
X127545018Y-121500149D01*
X127728000Y-121597954D01*
X127728000Y-121671176D01*
X127605000Y-121671176D01*
X127482323Y-121683259D01*
X127364359Y-121719042D01*
X127255644Y-121777152D01*
X127160354Y-121855354D01*
X127082152Y-121950644D01*
X127024042Y-122059359D01*
X126988259Y-122177323D01*
X126980000Y-122261175D01*
X126971741Y-122177323D01*
X126935958Y-122059359D01*
X126877848Y-121950644D01*
X126799646Y-121855354D01*
X126704356Y-121777152D01*
X126595641Y-121719042D01*
X126477677Y-121683259D01*
X126355000Y-121671176D01*
X126232000Y-121671176D01*
X126232000Y-121597955D01*
X126414983Y-121500149D01*
X126601817Y-121346817D01*
X126755149Y-121159982D01*
X126869084Y-120946823D01*
X126939245Y-120715533D01*
X126957000Y-120535267D01*
X126957000Y-120264732D01*
X126939245Y-120084466D01*
X126869084Y-119853176D01*
X126755149Y-119640017D01*
X126601817Y-119453183D01*
X126414982Y-119299851D01*
X126201823Y-119185916D01*
X125970533Y-119115755D01*
X125730000Y-119092064D01*
X125489466Y-119115755D01*
X125258176Y-119185916D01*
X125045017Y-119299851D01*
X124858183Y-119453183D01*
X124704851Y-119640018D01*
X124590916Y-119853177D01*
X124520755Y-120084467D01*
X124503000Y-120264733D01*
X124503000Y-120535268D01*
X124520755Y-120715534D01*
X124590916Y-120946824D01*
X124704851Y-121159983D01*
X124858184Y-121346817D01*
X125045018Y-121500149D01*
X125228000Y-121597954D01*
X125228000Y-121671176D01*
X125105000Y-121671176D01*
X124982323Y-121683259D01*
X124864359Y-121719042D01*
X124755644Y-121777152D01*
X124660354Y-121855354D01*
X124582152Y-121950644D01*
X124524042Y-122059359D01*
X124488259Y-122177323D01*
X124480000Y-122261175D01*
X124471741Y-122177323D01*
X124435958Y-122059359D01*
X124377848Y-121950644D01*
X124299646Y-121855354D01*
X124204356Y-121777152D01*
X124095641Y-121719042D01*
X123977677Y-121683259D01*
X123855000Y-121671176D01*
X123732000Y-121671176D01*
X123732000Y-121597955D01*
X123914983Y-121500149D01*
X124101817Y-121346817D01*
X124255149Y-121159982D01*
X124369084Y-120946823D01*
X124439245Y-120715533D01*
X124457000Y-120535267D01*
X124457000Y-120264732D01*
X124439245Y-120084466D01*
X124369084Y-119853176D01*
X124255149Y-119640017D01*
X124236969Y-119617865D01*
X124243046Y-119616021D01*
X124330255Y-119569407D01*
X124406694Y-119506674D01*
X124422411Y-119487523D01*
X125007935Y-118902000D01*
X126575357Y-118902000D01*
X126600000Y-118904427D01*
X126624643Y-118902000D01*
X126624653Y-118902000D01*
X126698409Y-118894736D01*
X126793036Y-118866031D01*
X126880245Y-118819417D01*
X126956684Y-118756684D01*
X126972402Y-118737532D01*
X127237532Y-118472402D01*
X127256684Y-118456684D01*
X127319417Y-118380245D01*
X127366031Y-118293036D01*
X127394736Y-118198409D01*
X127402000Y-118124653D01*
X127402000Y-118124644D01*
X127404427Y-118100001D01*
X127402000Y-118075358D01*
X127402000Y-116324642D01*
X127404427Y-116299999D01*
X127402000Y-116275356D01*
X127402000Y-116275347D01*
X127396422Y-116218706D01*
X127397889Y-116218098D01*
X127525150Y-116133065D01*
X127633377Y-116024838D01*
X127718410Y-115897577D01*
X127776982Y-115756172D01*
X127806841Y-115606057D01*
X127806841Y-115453001D01*
X127776982Y-115302886D01*
X127766270Y-115277026D01*
X127826528Y-115277026D01*
X127976643Y-115247167D01*
X128118048Y-115188595D01*
X128245309Y-115103562D01*
X128353536Y-114995335D01*
X128438569Y-114868074D01*
X128497141Y-114726669D01*
X128527000Y-114576554D01*
X128527000Y-114423498D01*
X128524624Y-114411555D01*
X129248000Y-115134932D01*
X129248001Y-116903154D01*
X129146464Y-117004691D01*
X129061431Y-117131952D01*
X129002859Y-117273357D01*
X128973000Y-117423472D01*
X128973000Y-117576528D01*
X129002859Y-117726643D01*
X129061431Y-117868048D01*
X129146464Y-117995309D01*
X129254691Y-118103536D01*
X129381952Y-118188569D01*
X129523357Y-118247141D01*
X129673472Y-118277000D01*
X129826528Y-118277000D01*
X129976643Y-118247141D01*
X130118048Y-118188569D01*
X130245309Y-118103536D01*
X130353536Y-117995309D01*
X130438569Y-117868048D01*
X130497141Y-117726643D01*
X130527000Y-117576528D01*
X130527000Y-117423472D01*
X130497141Y-117273357D01*
X130438569Y-117131952D01*
X130353536Y-117004691D01*
X130252000Y-116903155D01*
X130252000Y-114951639D01*
X130254427Y-114926996D01*
X130252000Y-114902353D01*
X130252000Y-114902343D01*
X130244736Y-114828587D01*
X130216031Y-114733960D01*
X130188279Y-114682039D01*
X130169417Y-114646750D01*
X130122400Y-114589460D01*
X130122392Y-114589452D01*
X130106684Y-114570312D01*
X130087543Y-114554603D01*
X128970419Y-113437481D01*
X128954704Y-113418332D01*
X128878265Y-113355599D01*
X128791056Y-113308985D01*
X128696429Y-113280280D01*
X128622673Y-113273016D01*
X128622663Y-113273016D01*
X128598020Y-113270589D01*
X128573377Y-113273016D01*
X128211498Y-113273016D01*
X128240633Y-113126539D01*
X128240633Y-112973483D01*
X128210774Y-112823368D01*
X128152202Y-112681963D01*
X128067169Y-112554702D01*
X127958942Y-112446475D01*
X127833375Y-112362574D01*
X127997903Y-112329847D01*
X128221202Y-112237353D01*
X128422167Y-112103073D01*
X128593073Y-111932167D01*
X128727353Y-111731202D01*
X128819847Y-111507903D01*
X128867000Y-111270849D01*
X128867000Y-111029151D01*
X128819847Y-110792097D01*
X128727353Y-110568798D01*
X128593073Y-110367833D01*
X128422167Y-110196927D01*
X128221202Y-110062647D01*
X128142000Y-110029840D01*
X128142000Y-104616321D01*
X128144427Y-104591678D01*
X128142000Y-104567035D01*
X128142000Y-104567026D01*
X128134736Y-104493270D01*
X128106031Y-104398643D01*
X128059417Y-104311434D01*
X128029898Y-104275466D01*
X128012399Y-104254143D01*
X128012397Y-104254141D01*
X127996684Y-104234995D01*
X127977538Y-104219282D01*
X127765623Y-104007368D01*
X127878882Y-103931691D01*
X127987109Y-103823464D01*
X128072142Y-103696203D01*
X128130714Y-103554798D01*
X128160573Y-103404683D01*
X128160573Y-103251627D01*
X128130714Y-103101512D01*
X128072142Y-102960107D01*
X127987109Y-102832846D01*
X127878882Y-102724619D01*
X127751621Y-102639586D01*
X127610216Y-102581014D01*
X127460101Y-102551155D01*
X127316507Y-102551155D01*
X127252000Y-102486648D01*
X127252000Y-101496845D01*
X127353536Y-101395309D01*
X127438569Y-101268048D01*
X127497141Y-101126643D01*
X127527000Y-100976528D01*
X127527000Y-100823472D01*
X127497141Y-100673357D01*
X127438569Y-100531952D01*
X127353536Y-100404691D01*
X127245309Y-100296464D01*
X127118048Y-100211431D01*
X126976643Y-100152859D01*
X126826528Y-100123000D01*
X126673472Y-100123000D01*
X126523357Y-100152859D01*
X126381952Y-100211431D01*
X126254691Y-100296464D01*
X126146464Y-100404691D01*
X126061431Y-100531952D01*
X126002859Y-100673357D01*
X125973000Y-100823472D01*
X125973000Y-100976528D01*
X126002859Y-101126643D01*
X126061431Y-101268048D01*
X126146464Y-101395309D01*
X126248000Y-101496845D01*
X126248001Y-102669929D01*
X126245573Y-102694582D01*
X126255265Y-102792991D01*
X126283970Y-102887618D01*
X126330584Y-102974827D01*
X126377601Y-103032117D01*
X126377604Y-103032120D01*
X126393317Y-103051266D01*
X126412463Y-103066979D01*
X126606573Y-103261089D01*
X126606573Y-103404683D01*
X126610799Y-103425931D01*
X126304894Y-103425931D01*
X126280251Y-103423504D01*
X126255605Y-103425931D01*
X126255597Y-103425931D01*
X126181841Y-103433195D01*
X126087214Y-103461900D01*
X126000005Y-103508514D01*
X125942715Y-103555531D01*
X125942714Y-103555532D01*
X125923566Y-103571247D01*
X125907853Y-103590393D01*
X125340717Y-104157528D01*
X125321565Y-104173246D01*
X125258832Y-104249685D01*
X125212218Y-104336895D01*
X125183513Y-104431522D01*
X125176249Y-104505278D01*
X125176249Y-104505287D01*
X125173822Y-104529930D01*
X125176249Y-104554573D01*
X125176250Y-105250226D01*
X123593219Y-106833258D01*
X123593219Y-105599153D01*
X124737547Y-104454826D01*
X124756693Y-104439113D01*
X124772406Y-104419967D01*
X124772409Y-104419964D01*
X124819426Y-104362675D01*
X124866040Y-104275466D01*
X124894745Y-104180839D01*
X124900641Y-104120969D01*
X124902009Y-104107082D01*
X124902009Y-104107075D01*
X124904436Y-104082429D01*
X124902009Y-104057784D01*
X124902009Y-103188240D01*
X124904436Y-103163597D01*
X124902009Y-103138954D01*
X124902009Y-103138945D01*
X124894745Y-103065189D01*
X124866040Y-102970562D01*
X124819426Y-102883353D01*
X124797450Y-102856576D01*
X124772408Y-102826062D01*
X124772406Y-102826060D01*
X124756693Y-102806914D01*
X124737547Y-102791201D01*
X123640602Y-101694257D01*
X123624889Y-101675111D01*
X123605743Y-101659398D01*
X123605740Y-101659395D01*
X123585705Y-101642953D01*
X123548450Y-101612378D01*
X123461241Y-101565764D01*
X123366614Y-101537059D01*
X123292858Y-101529795D01*
X123292848Y-101529795D01*
X123268205Y-101527368D01*
X123243562Y-101529795D01*
X118339729Y-101529795D01*
X118302000Y-101492066D01*
X118302000Y-99974642D01*
X118304427Y-99949999D01*
X118302000Y-99925356D01*
X118302000Y-99925347D01*
X118294736Y-99851591D01*
X118266031Y-99756964D01*
X118219417Y-99669755D01*
X118156684Y-99593316D01*
X118137532Y-99577598D01*
X118022402Y-99462468D01*
X118006684Y-99443316D01*
X117930245Y-99380583D01*
X117843036Y-99333969D01*
X117748409Y-99305264D01*
X117728824Y-99303335D01*
X117728824Y-99175000D01*
X117716741Y-99052323D01*
X117680958Y-98934359D01*
X117638030Y-98854048D01*
X131073000Y-98924758D01*
G37*
%TD.AperFunction*%
D29*
X122398000Y-117172250D02*
X122398000Y-117173000D01*
X122522000Y-117173000D01*
X122522000Y-117427000D01*
X122398000Y-117427000D01*
X122398000Y-117427750D01*
X122378750Y-117447000D01*
X122352000Y-117447000D01*
X122352000Y-117427000D01*
X122228000Y-117427000D01*
X122228000Y-117173000D01*
X122352000Y-117173000D01*
X122352000Y-117153000D01*
X122378750Y-117153000D01*
X122398000Y-117172250D01*
%TA.AperFunction,Conductor*%
D30*
G36*
X122398000Y-117172250D02*
G01*
X122398000Y-117173000D01*
X122522000Y-117173000D01*
X122522000Y-117427000D01*
X122398000Y-117427000D01*
X122398000Y-117427750D01*
X122378750Y-117447000D01*
X122352000Y-117447000D01*
X122352000Y-117427000D01*
X122228000Y-117427000D01*
X122228000Y-117173000D01*
X122352000Y-117173000D01*
X122352000Y-117153000D01*
X122378750Y-117153000D01*
X122398000Y-117172250D01*
G37*
%TD.AperFunction*%
D29*
X123048000Y-117172998D02*
X123002000Y-117172998D01*
X123002000Y-117172250D01*
X123021250Y-117153000D01*
X123048000Y-117153000D01*
X123048000Y-117172998D01*
%TA.AperFunction,Conductor*%
D30*
G36*
X123048000Y-117172998D02*
G01*
X123002000Y-117172998D01*
X123002000Y-117172250D01*
X123021250Y-117153000D01*
X123048000Y-117153000D01*
X123048000Y-117172998D01*
G37*
%TD.AperFunction*%
D29*
X123497000Y-115189110D02*
X123497000Y-115310890D01*
X123410890Y-115397000D01*
X123289110Y-115397000D01*
X123203000Y-115310890D01*
X123203000Y-115189110D01*
X123289110Y-115103000D01*
X123410890Y-115103000D01*
X123497000Y-115189110D01*
%TA.AperFunction,Conductor*%
D30*
G36*
X123497000Y-115189110D02*
G01*
X123497000Y-115310890D01*
X123410890Y-115397000D01*
X123289110Y-115397000D01*
X123203000Y-115310890D01*
X123203000Y-115189110D01*
X123289110Y-115103000D01*
X123410890Y-115103000D01*
X123497000Y-115189110D01*
G37*
%TD.AperFunction*%
D29*
X125527000Y-114252000D02*
X125547000Y-114252000D01*
X125547000Y-114298000D01*
X125527000Y-114298000D01*
X125527000Y-114323013D01*
X125375334Y-114323013D01*
X125301578Y-114330277D01*
X125273000Y-114338946D01*
X125273000Y-114298000D01*
X125253000Y-114298000D01*
X125253000Y-114252000D01*
X125273000Y-114252000D01*
X125273000Y-114128000D01*
X125527000Y-114128000D01*
X125527000Y-114252000D01*
%TA.AperFunction,Conductor*%
D30*
G36*
X125527000Y-114252000D02*
G01*
X125547000Y-114252000D01*
X125547000Y-114298000D01*
X125527000Y-114298000D01*
X125527000Y-114323013D01*
X125375334Y-114323013D01*
X125301578Y-114330277D01*
X125273000Y-114338946D01*
X125273000Y-114298000D01*
X125253000Y-114298000D01*
X125253000Y-114252000D01*
X125273000Y-114252000D01*
X125273000Y-114128000D01*
X125527000Y-114128000D01*
X125527000Y-114252000D01*
G37*
%TD.AperFunction*%
D29*
X119032998Y-112741607D02*
X118749605Y-113025000D01*
X118763748Y-113039143D01*
X118584143Y-113218748D01*
X118570000Y-113204605D01*
X118555858Y-113218748D01*
X118396210Y-113059100D01*
X118415812Y-112994482D01*
X118418345Y-112968765D01*
X118552711Y-112834399D01*
X118559692Y-112835087D01*
X118570000Y-112845395D01*
X118578460Y-112836935D01*
X118590000Y-112838072D01*
X118874250Y-112835000D01*
X119032998Y-112676252D01*
X119032998Y-112741607D01*
%TA.AperFunction,Conductor*%
D30*
G36*
X119032998Y-112741607D02*
G01*
X118749605Y-113025000D01*
X118763748Y-113039143D01*
X118584143Y-113218748D01*
X118570000Y-113204605D01*
X118555858Y-113218748D01*
X118396210Y-113059100D01*
X118415812Y-112994482D01*
X118418345Y-112968765D01*
X118552711Y-112834399D01*
X118559692Y-112835087D01*
X118570000Y-112845395D01*
X118578460Y-112836935D01*
X118590000Y-112838072D01*
X118874250Y-112835000D01*
X119032998Y-112676252D01*
X119032998Y-112741607D01*
G37*
%TD.AperFunction*%
D29*
X115172000Y-108573000D02*
X115192000Y-108573000D01*
X115192000Y-108827000D01*
X115172000Y-108827000D01*
X115172000Y-111782315D01*
X115161157Y-111747528D01*
X114918000Y-111631586D01*
X114918000Y-108827000D01*
X114898000Y-108827000D01*
X114898000Y-108573000D01*
X114918000Y-108573000D01*
X114918000Y-105763381D01*
X115023747Y-105725919D01*
X115161157Y-105652472D01*
X115172000Y-105617685D01*
X115172000Y-108573000D01*
%TA.AperFunction,Conductor*%
D30*
G36*
X115172000Y-108573000D02*
G01*
X115192000Y-108573000D01*
X115192000Y-108827000D01*
X115172000Y-108827000D01*
X115172000Y-111782315D01*
X115161157Y-111747528D01*
X114918000Y-111631586D01*
X114918000Y-108827000D01*
X114898000Y-108827000D01*
X114898000Y-108573000D01*
X114918000Y-108573000D01*
X114918000Y-105763381D01*
X115023747Y-105725919D01*
X115161157Y-105652472D01*
X115172000Y-105617685D01*
X115172000Y-108573000D01*
G37*
%TD.AperFunction*%
D29*
X127138000Y-110029840D02*
X127058798Y-110062647D01*
X126857833Y-110196927D01*
X126686927Y-110367833D01*
X126552647Y-110568798D01*
X126498056Y-110700592D01*
X126500072Y-110388000D01*
X126487812Y-110263518D01*
X126451502Y-110143820D01*
X126392537Y-110033506D01*
X126313185Y-109936815D01*
X126216494Y-109857463D01*
X126106180Y-109798498D01*
X125986482Y-109762188D01*
X125862000Y-109749928D01*
X125385750Y-109753000D01*
X125227000Y-109911750D01*
X125227000Y-111023000D01*
X125247000Y-111023000D01*
X125247000Y-111277000D01*
X125227000Y-111277000D01*
X125227000Y-111297000D01*
X124973000Y-111297000D01*
X124973000Y-111277000D01*
X124953000Y-111277000D01*
X124953000Y-111023000D01*
X124973000Y-111023000D01*
X124973000Y-109911750D01*
X124814250Y-109753000D01*
X124338000Y-109749928D01*
X124213518Y-109762188D01*
X124093820Y-109798498D01*
X123983506Y-109857463D01*
X123886815Y-109936815D01*
X123807463Y-110033506D01*
X123748498Y-110143820D01*
X123712188Y-110263518D01*
X123699928Y-110388000D01*
X123701944Y-110700592D01*
X123647353Y-110568798D01*
X123513073Y-110367833D01*
X123342167Y-110196927D01*
X123141202Y-110062647D01*
X122917903Y-109970153D01*
X122680849Y-109923000D01*
X122633802Y-109923000D01*
X126965795Y-105591009D01*
X126984935Y-105575301D01*
X127000643Y-105556161D01*
X127000651Y-105556153D01*
X127047668Y-105498863D01*
X127072583Y-105452249D01*
X127094282Y-105411653D01*
X127122987Y-105317026D01*
X127129540Y-105250488D01*
X127138001Y-105242027D01*
X127138000Y-110029840D01*
%TA.AperFunction,Conductor*%
D30*
G36*
X127138000Y-110029840D02*
G01*
X127058798Y-110062647D01*
X126857833Y-110196927D01*
X126686927Y-110367833D01*
X126552647Y-110568798D01*
X126498056Y-110700592D01*
X126500072Y-110388000D01*
X126487812Y-110263518D01*
X126451502Y-110143820D01*
X126392537Y-110033506D01*
X126313185Y-109936815D01*
X126216494Y-109857463D01*
X126106180Y-109798498D01*
X125986482Y-109762188D01*
X125862000Y-109749928D01*
X125385750Y-109753000D01*
X125227000Y-109911750D01*
X125227000Y-111023000D01*
X125247000Y-111023000D01*
X125247000Y-111277000D01*
X125227000Y-111277000D01*
X125227000Y-111297000D01*
X124973000Y-111297000D01*
X124973000Y-111277000D01*
X124953000Y-111277000D01*
X124953000Y-111023000D01*
X124973000Y-111023000D01*
X124973000Y-109911750D01*
X124814250Y-109753000D01*
X124338000Y-109749928D01*
X124213518Y-109762188D01*
X124093820Y-109798498D01*
X123983506Y-109857463D01*
X123886815Y-109936815D01*
X123807463Y-110033506D01*
X123748498Y-110143820D01*
X123712188Y-110263518D01*
X123699928Y-110388000D01*
X123701944Y-110700592D01*
X123647353Y-110568798D01*
X123513073Y-110367833D01*
X123342167Y-110196927D01*
X123141202Y-110062647D01*
X122917903Y-109970153D01*
X122680849Y-109923000D01*
X122633802Y-109923000D01*
X126965795Y-105591009D01*
X126984935Y-105575301D01*
X127000643Y-105556161D01*
X127000651Y-105556153D01*
X127047668Y-105498863D01*
X127072583Y-105452249D01*
X127094282Y-105411653D01*
X127122987Y-105317026D01*
X127129540Y-105250488D01*
X127138001Y-105242027D01*
X127138000Y-110029840D01*
G37*
%TD.AperFunction*%
D29*
X118763748Y-104360858D02*
X118749605Y-104375000D01*
X119032998Y-104658393D01*
X119032998Y-104723748D01*
X118874250Y-104565000D01*
X118590000Y-104561928D01*
X118578460Y-104563065D01*
X118570000Y-104554605D01*
X118559692Y-104564913D01*
X118552711Y-104565601D01*
X118418345Y-104431235D01*
X118415812Y-104405518D01*
X118396210Y-104340900D01*
X118555858Y-104181253D01*
X118570000Y-104195395D01*
X118584143Y-104181253D01*
X118763748Y-104360858D01*
%TA.AperFunction,Conductor*%
D30*
G36*
X118763748Y-104360858D02*
G01*
X118749605Y-104375000D01*
X119032998Y-104658393D01*
X119032998Y-104723748D01*
X118874250Y-104565000D01*
X118590000Y-104561928D01*
X118578460Y-104563065D01*
X118570000Y-104554605D01*
X118559692Y-104564913D01*
X118552711Y-104565601D01*
X118418345Y-104431235D01*
X118415812Y-104405518D01*
X118396210Y-104340900D01*
X118555858Y-104181253D01*
X118570000Y-104195395D01*
X118584143Y-104181253D01*
X118763748Y-104360858D01*
G37*
%TD.AperFunction*%
D29*
X115767233Y-98844201D02*
X115719042Y-98934359D01*
X115683259Y-99052323D01*
X115671176Y-99175000D01*
X115671176Y-100425000D01*
X115683259Y-100547677D01*
X115719042Y-100665641D01*
X115777152Y-100774356D01*
X115855354Y-100869646D01*
X115950644Y-100947848D01*
X116059359Y-101005958D01*
X116122134Y-101025000D01*
X116059359Y-101044042D01*
X115950644Y-101102152D01*
X115855354Y-101180354D01*
X115777152Y-101275644D01*
X115719042Y-101384359D01*
X115683259Y-101502323D01*
X115671176Y-101625000D01*
X115671176Y-102875000D01*
X115683259Y-102997677D01*
X115719042Y-103115641D01*
X115777152Y-103224356D01*
X115855354Y-103319646D01*
X115950644Y-103397848D01*
X116059359Y-103455958D01*
X116177323Y-103491741D01*
X116300000Y-103503824D01*
X117100000Y-103503824D01*
X117222677Y-103491741D01*
X117294094Y-103470078D01*
X117170186Y-103514956D01*
X117029296Y-103804571D01*
X117006136Y-103892907D01*
X115795180Y-103894420D01*
X115740919Y-103741253D01*
X115667472Y-103603843D01*
X115418397Y-103526208D01*
X114904428Y-104040178D01*
X114759250Y-103895000D01*
X114690481Y-103894914D01*
X115238792Y-103346603D01*
X115161157Y-103097528D01*
X114897117Y-102971629D01*
X114887259Y-102969127D01*
X114885000Y-102535750D01*
X114726250Y-102377000D01*
X113727000Y-102377000D01*
X113727000Y-103039717D01*
X113618843Y-103097528D01*
X113541209Y-103346601D01*
X113473000Y-103278392D01*
X113473000Y-102377000D01*
X113453000Y-102377000D01*
X113453000Y-102123000D01*
X113473000Y-102123000D01*
X113473000Y-99927000D01*
X113727000Y-99927000D01*
X113727000Y-102123000D01*
X114726250Y-102123000D01*
X114885000Y-101964250D01*
X114888072Y-101375000D01*
X114875812Y-101250518D01*
X114839502Y-101130820D01*
X114782939Y-101025000D01*
X114839502Y-100919180D01*
X114875812Y-100799482D01*
X114888072Y-100675000D01*
X114885000Y-100085750D01*
X114726250Y-99927000D01*
X113727000Y-99927000D01*
X113473000Y-99927000D01*
X113453000Y-99927000D01*
X113453000Y-99673000D01*
X113473000Y-99673000D01*
X113473000Y-99653000D01*
X113727000Y-99653000D01*
X113727000Y-99673000D01*
X114726250Y-99673000D01*
X114885000Y-99514250D01*
X114888072Y-98925000D01*
X114879654Y-98839530D01*
X115767233Y-98844201D01*
%TA.AperFunction,Conductor*%
D30*
G36*
X115767233Y-98844201D02*
G01*
X115719042Y-98934359D01*
X115683259Y-99052323D01*
X115671176Y-99175000D01*
X115671176Y-100425000D01*
X115683259Y-100547677D01*
X115719042Y-100665641D01*
X115777152Y-100774356D01*
X115855354Y-100869646D01*
X115950644Y-100947848D01*
X116059359Y-101005958D01*
X116122134Y-101025000D01*
X116059359Y-101044042D01*
X115950644Y-101102152D01*
X115855354Y-101180354D01*
X115777152Y-101275644D01*
X115719042Y-101384359D01*
X115683259Y-101502323D01*
X115671176Y-101625000D01*
X115671176Y-102875000D01*
X115683259Y-102997677D01*
X115719042Y-103115641D01*
X115777152Y-103224356D01*
X115855354Y-103319646D01*
X115950644Y-103397848D01*
X116059359Y-103455958D01*
X116177323Y-103491741D01*
X116300000Y-103503824D01*
X117100000Y-103503824D01*
X117222677Y-103491741D01*
X117294094Y-103470078D01*
X117170186Y-103514956D01*
X117029296Y-103804571D01*
X117006136Y-103892907D01*
X115795180Y-103894420D01*
X115740919Y-103741253D01*
X115667472Y-103603843D01*
X115418397Y-103526208D01*
X114904428Y-104040178D01*
X114759250Y-103895000D01*
X114690481Y-103894914D01*
X115238792Y-103346603D01*
X115161157Y-103097528D01*
X114897117Y-102971629D01*
X114887259Y-102969127D01*
X114885000Y-102535750D01*
X114726250Y-102377000D01*
X113727000Y-102377000D01*
X113727000Y-103039717D01*
X113618843Y-103097528D01*
X113541209Y-103346601D01*
X113473000Y-103278392D01*
X113473000Y-102377000D01*
X113453000Y-102377000D01*
X113453000Y-102123000D01*
X113473000Y-102123000D01*
X113473000Y-99927000D01*
X113727000Y-99927000D01*
X113727000Y-102123000D01*
X114726250Y-102123000D01*
X114885000Y-101964250D01*
X114888072Y-101375000D01*
X114875812Y-101250518D01*
X114839502Y-101130820D01*
X114782939Y-101025000D01*
X114839502Y-100919180D01*
X114875812Y-100799482D01*
X114888072Y-100675000D01*
X114885000Y-100085750D01*
X114726250Y-99927000D01*
X113727000Y-99927000D01*
X113473000Y-99927000D01*
X113453000Y-99927000D01*
X113453000Y-99673000D01*
X113473000Y-99673000D01*
X113473000Y-99653000D01*
X113727000Y-99653000D01*
X113727000Y-99673000D01*
X114726250Y-99673000D01*
X114885000Y-99514250D01*
X114888072Y-98925000D01*
X114879654Y-98839530D01*
X115767233Y-98844201D01*
G37*
%TD.AperFunction*%
%TD*%
M02*
