M48
; DRILL file {KiCad (5.1.9-0-10_14)} date Sunday, June 20, 2021 at 10:45:59 AM
; FORMAT={-:-/ absolute / inch / decimal}
; #@! TF.CreationDate,2021-06-20T10:45:59+01:00
; #@! TF.GenerationSoftware,Kicad,Pcbnew,(5.1.9-0-10_14)
; #@! TF.FileFunction,Plated,1,2,PTH
FMAT,2
INCH
T1C0.0098
T2C0.0157
T3C0.0236
T4C0.0394
T5C0.0492
%
G90
G05
T1
X4.5571Y-4.2618
T2
X4.4168Y-4.6659
X4.418Y-4.427
X4.435Y-4.3701
X4.4568Y-4.4332
X4.4821Y-4.3355
X4.4843Y-4.6097
X4.4882Y-5.0669
X4.5032Y-4.3728
X4.5236Y-4.6102
X4.5273Y-4.4201
X4.5661Y-4.6102
X4.5709Y-4.065
X4.5742Y-4.3839
X4.609Y-4.1278
X4.6178Y-4.5673
X4.623Y-4.1645
X4.6243Y-4.6537
X4.628Y-4.5236
X4.6292Y-4.4843
X4.689Y-4.563
X4.7094Y-4.0559
X4.7126Y-4.1535
X4.7507Y-4.4502
X4.9173Y-4.636
T3
X4.8469Y-4.3508
X4.8469Y-4.5783
T4
X4.4506Y-4.8386
X4.5506Y-4.8386
X4.6506Y-4.8386
X4.7506Y-4.8386
X4.8506Y-4.8386
X4.9506Y-4.8386
X4.9843Y-4.9394
X4.9843Y-5.0394
X4.9917Y-4.2945
X4.9917Y-4.6346
T5
X4.8276Y-4.2945
X4.8276Y-4.6346
T0
M30
