M48
; DRILL file {KiCad (5.1.9-0-10_14)} date Monday, March 29, 2021 at 08:37:48 AM
; FORMAT={-:-/ absolute / inch / decimal}
; #@! TF.CreationDate,2021-03-29T08:37:48+01:00
; #@! TF.GenerationSoftware,Kicad,Pcbnew,(5.1.9-0-10_14)
; #@! TF.FileFunction,Plated,1,2,PTH
FMAT,2
INCH
T1C0.0157
T2C0.0236
T3C0.0300
T4C0.0335
T5C0.0394
T6C0.0472
T7C0.0591
%
G90
G05
T1
X4.4685Y-4.4789
X4.5335Y-3.9291
X4.5358Y-4.4982
X4.5728Y-4.8799
X4.5813Y-4.4789
X4.5884Y-4.5538
X4.6175Y-4.5253
X4.7033Y-4.502
X4.739Y-4.3691
X4.751Y-4.0685
X4.7932Y-4.0584
X4.8847Y-4.0767
X4.937Y-4.3228
X4.9854Y-4.1202
X5.028Y-4.5546
X5.0295Y-4.5151
X5.0305Y-4.458
X5.0482Y-4.1126
X5.0591Y-4.0079
X5.1083Y-4.626
T2
X4.6492Y-4.1657
X4.6492Y-4.3933
T3
X4.8563Y-4.5374
T4
X4.5563Y-4.7402
X4.6547Y-4.7402
X4.7531Y-4.7402
X4.8516Y-4.7402
X4.95Y-4.7402
X5.0484Y-4.7402
T5
X4.5157Y-4.8488
X4.5157Y-4.9488
X5.0224Y-3.928
T6
X4.5035Y-4.1093
X4.5035Y-4.4498
T7
X4.6681Y-4.1093
X4.6681Y-4.4498
T0
M30
