%TF.GenerationSoftware,KiCad,Pcbnew,(5.1.10-1-10_14)*%
%TF.CreationDate,2021-05-13T11:47:25+01:00*%
%TF.ProjectId,Generic,47656e65-7269-4632-9e6b-696361645f70,3*%
%TF.SameCoordinates,Original*%
%TF.FileFunction,Copper,L1,Top*%
%TF.FilePolarity,Positive*%
%FSLAX46Y46*%
G04 Gerber Fmt 4.6, Leading zero omitted, Abs format (unit mm)*
G04 Created by KiCad (PCBNEW (5.1.10-1-10_14)) date 2021-05-13 11:47:25*
%MOMM*%
%LPD*%
G01*
G04 APERTURE LIST*
%TA.AperFunction,NonConductor*%
%ADD10C,0.080000*%
%TD*%
%TA.AperFunction,EtchedComponent*%
%ADD11C,0.250000*%
%TD*%
%TA.AperFunction,EtchedComponent*%
%ADD12C,0.500000*%
%TD*%
%TA.AperFunction,SMDPad,CuDef*%
%ADD13R,0.700000X0.450000*%
%TD*%
%TA.AperFunction,ComponentPad*%
%ADD14R,1.700000X1.700000*%
%TD*%
%TA.AperFunction,ComponentPad*%
%ADD15O,1.700000X1.700000*%
%TD*%
%TA.AperFunction,SMDPad,CuDef*%
%ADD16R,0.500000X1.000000*%
%TD*%
%TA.AperFunction,SMDPad,CuDef*%
%ADD17C,0.100000*%
%TD*%
%TA.AperFunction,SMDPad,CuDef*%
%ADD18R,1.000000X0.500000*%
%TD*%
%TA.AperFunction,SMDPad,CuDef*%
%ADD19R,0.800000X0.500000*%
%TD*%
%TA.AperFunction,SMDPad,CuDef*%
%ADD20R,3.650000X0.500000*%
%TD*%
%TA.AperFunction,SMDPad,CuDef*%
%ADD21R,0.500000X2.500000*%
%TD*%
%TA.AperFunction,SMDPad,CuDef*%
%ADD22R,3.700000X1.100000*%
%TD*%
%TA.AperFunction,SMDPad,CuDef*%
%ADD23R,1.560000X0.650000*%
%TD*%
%TA.AperFunction,SMDPad,CuDef*%
%ADD24R,1.750000X2.000000*%
%TD*%
%TA.AperFunction,ComponentPad*%
%ADD25C,0.350000*%
%TD*%
%TA.AperFunction,SMDPad,CuDef*%
%ADD26R,0.200000X0.200000*%
%TD*%
%TA.AperFunction,SMDPad,CuDef*%
%ADD27C,0.500000*%
%TD*%
%TA.AperFunction,SMDPad,CuDef*%
%ADD28R,2.000000X1.750000*%
%TD*%
%TA.AperFunction,SMDPad,CuDef*%
%ADD29R,0.500000X0.200000*%
%TD*%
%TA.AperFunction,SMDPad,CuDef*%
%ADD30R,0.200000X0.500000*%
%TD*%
%TA.AperFunction,SMDPad,CuDef*%
%ADD31R,5.490000X8.340000*%
%TD*%
%TA.AperFunction,SMDPad,CuDef*%
%ADD32R,1.140000X0.600000*%
%TD*%
%TA.AperFunction,ComponentPad*%
%ADD33C,1.700000*%
%TD*%
%TA.AperFunction,ComponentPad*%
%ADD34C,2.000000*%
%TD*%
%TA.AperFunction,SMDPad,CuDef*%
%ADD35R,1.140000X0.300000*%
%TD*%
%TA.AperFunction,ComponentPad*%
%ADD36C,0.600000*%
%TD*%
%TA.AperFunction,ViaPad*%
%ADD37C,0.800000*%
%TD*%
%TA.AperFunction,Conductor*%
%ADD38C,0.250000*%
%TD*%
%TA.AperFunction,Conductor*%
%ADD39C,0.254000*%
%TD*%
%TA.AperFunction,Conductor*%
%ADD40C,0.100000*%
%TD*%
G04 APERTURE END LIST*
D10*
X110726190Y-109471428D02*
X110750000Y-109495238D01*
X110773809Y-109542857D01*
X110773809Y-109661904D01*
X110750000Y-109709523D01*
X110726190Y-109733333D01*
X110678571Y-109757142D01*
X110630952Y-109757142D01*
X110559523Y-109733333D01*
X110273809Y-109447619D01*
X110273809Y-109757142D01*
X110773809Y-110066666D02*
X110773809Y-110114285D01*
X110750000Y-110161904D01*
X110726190Y-110185714D01*
X110678571Y-110209523D01*
X110583333Y-110233333D01*
X110464285Y-110233333D01*
X110369047Y-110209523D01*
X110321428Y-110185714D01*
X110297619Y-110161904D01*
X110273809Y-110114285D01*
X110273809Y-110066666D01*
X110297619Y-110019047D01*
X110321428Y-109995238D01*
X110369047Y-109971428D01*
X110464285Y-109947619D01*
X110583333Y-109947619D01*
X110678571Y-109971428D01*
X110726190Y-109995238D01*
X110750000Y-110019047D01*
X110773809Y-110066666D01*
X110726190Y-110423809D02*
X110750000Y-110447619D01*
X110773809Y-110495238D01*
X110773809Y-110614285D01*
X110750000Y-110661904D01*
X110726190Y-110685714D01*
X110678571Y-110709523D01*
X110630952Y-110709523D01*
X110559523Y-110685714D01*
X110273809Y-110400000D01*
X110273809Y-110709523D01*
X110273809Y-111185714D02*
X110273809Y-110900000D01*
X110273809Y-111042857D02*
X110773809Y-111042857D01*
X110702380Y-110995238D01*
X110654761Y-110947619D01*
X110630952Y-110900000D01*
X110464285Y-111400000D02*
X110464285Y-111780952D01*
X110773809Y-112114285D02*
X110773809Y-112161904D01*
X110750000Y-112209523D01*
X110726190Y-112233333D01*
X110678571Y-112257142D01*
X110583333Y-112280952D01*
X110464285Y-112280952D01*
X110369047Y-112257142D01*
X110321428Y-112233333D01*
X110297619Y-112209523D01*
X110273809Y-112161904D01*
X110273809Y-112114285D01*
X110297619Y-112066666D01*
X110321428Y-112042857D01*
X110369047Y-112019047D01*
X110464285Y-111995238D01*
X110583333Y-111995238D01*
X110678571Y-112019047D01*
X110726190Y-112042857D01*
X110750000Y-112066666D01*
X110773809Y-112114285D01*
X110773809Y-112733333D02*
X110773809Y-112495238D01*
X110535714Y-112471428D01*
X110559523Y-112495238D01*
X110583333Y-112542857D01*
X110583333Y-112661904D01*
X110559523Y-112709523D01*
X110535714Y-112733333D01*
X110488095Y-112757142D01*
X110369047Y-112757142D01*
X110321428Y-112733333D01*
X110297619Y-112709523D01*
X110273809Y-112661904D01*
X110273809Y-112542857D01*
X110297619Y-112495238D01*
X110321428Y-112471428D01*
X110464285Y-112971428D02*
X110464285Y-113352380D01*
X110273809Y-113852380D02*
X110273809Y-113566666D01*
X110273809Y-113709523D02*
X110773809Y-113709523D01*
X110702380Y-113661904D01*
X110654761Y-113614285D01*
X110630952Y-113566666D01*
X110773809Y-114019047D02*
X110773809Y-114328571D01*
X110583333Y-114161904D01*
X110583333Y-114233333D01*
X110559523Y-114280952D01*
X110535714Y-114304761D01*
X110488095Y-114328571D01*
X110369047Y-114328571D01*
X110321428Y-114304761D01*
X110297619Y-114280952D01*
X110273809Y-114233333D01*
X110273809Y-114090476D01*
X110297619Y-114042857D01*
X110321428Y-114019047D01*
D11*
%TO.C,Reg1*%
X111150000Y-107000000D02*
X111150000Y-108450000D01*
X111150000Y-107000000D02*
X110650000Y-107000000D01*
X113400000Y-103650000D02*
X113400000Y-102800000D01*
X113400000Y-103650000D02*
X110650000Y-103650000D01*
D12*
X114650000Y-105100000D02*
X114650000Y-106500000D01*
X114650000Y-105250000D02*
X116650000Y-105250000D01*
D11*
X116650000Y-105250000D02*
X116650000Y-106750000D01*
X117650000Y-106750000D02*
X117650000Y-104150000D01*
X117650000Y-104150000D02*
X111150000Y-104150000D01*
X112350000Y-106500000D02*
X111150000Y-106500000D01*
X111150000Y-106500000D02*
X111150000Y-104150000D01*
X112350000Y-108450000D02*
X111150000Y-108450000D01*
X110650000Y-107000000D02*
X110650000Y-103650000D01*
X118400000Y-106750000D02*
X117650000Y-106750000D01*
%TD*%
%TO.P,D2,2*%
%TO.N,VBUS*%
%TA.AperFunction,SMDPad,CuDef*%
G36*
G01*
X122256250Y-119550000D02*
X121343750Y-119550000D01*
G75*
G02*
X121100000Y-119306250I0J243750D01*
G01*
X121100000Y-118818750D01*
G75*
G02*
X121343750Y-118575000I243750J0D01*
G01*
X122256250Y-118575000D01*
G75*
G02*
X122500000Y-118818750I0J-243750D01*
G01*
X122500000Y-119306250D01*
G75*
G02*
X122256250Y-119550000I-243750J0D01*
G01*
G37*
%TD.AperFunction*%
%TO.P,D2,1*%
%TO.N,VDC*%
%TA.AperFunction,SMDPad,CuDef*%
G36*
G01*
X122256250Y-121425000D02*
X121343750Y-121425000D01*
G75*
G02*
X121100000Y-121181250I0J243750D01*
G01*
X121100000Y-120693750D01*
G75*
G02*
X121343750Y-120450000I243750J0D01*
G01*
X122256250Y-120450000D01*
G75*
G02*
X122500000Y-120693750I0J-243750D01*
G01*
X122500000Y-121181250D01*
G75*
G02*
X122256250Y-121425000I-243750J0D01*
G01*
G37*
%TD.AperFunction*%
%TD*%
%TO.P,R9,2*%
%TO.N,Net-(R9-Pad2)*%
%TA.AperFunction,SMDPad,CuDef*%
G36*
G01*
X126375000Y-103425000D02*
X126375000Y-103975000D01*
G75*
G02*
X126175000Y-104175000I-200000J0D01*
G01*
X125775000Y-104175000D01*
G75*
G02*
X125575000Y-103975000I0J200000D01*
G01*
X125575000Y-103425000D01*
G75*
G02*
X125775000Y-103225000I200000J0D01*
G01*
X126175000Y-103225000D01*
G75*
G02*
X126375000Y-103425000I0J-200000D01*
G01*
G37*
%TD.AperFunction*%
%TO.P,R9,1*%
%TO.N,Net-(D1-Pad1)*%
%TA.AperFunction,SMDPad,CuDef*%
G36*
G01*
X128025000Y-103425000D02*
X128025000Y-103975000D01*
G75*
G02*
X127825000Y-104175000I-200000J0D01*
G01*
X127425000Y-104175000D01*
G75*
G02*
X127225000Y-103975000I0J200000D01*
G01*
X127225000Y-103425000D01*
G75*
G02*
X127425000Y-103225000I200000J0D01*
G01*
X127825000Y-103225000D01*
G75*
G02*
X128025000Y-103425000I0J-200000D01*
G01*
G37*
%TD.AperFunction*%
%TD*%
%TO.P,D1,2*%
%TO.N,+3V3*%
%TA.AperFunction,SMDPad,CuDef*%
G36*
G01*
X126450000Y-101843750D02*
X126450000Y-102356250D01*
G75*
G02*
X126231250Y-102575000I-218750J0D01*
G01*
X125793750Y-102575000D01*
G75*
G02*
X125575000Y-102356250I0J218750D01*
G01*
X125575000Y-101843750D01*
G75*
G02*
X125793750Y-101625000I218750J0D01*
G01*
X126231250Y-101625000D01*
G75*
G02*
X126450000Y-101843750I0J-218750D01*
G01*
G37*
%TD.AperFunction*%
%TO.P,D1,1*%
%TO.N,Net-(D1-Pad1)*%
%TA.AperFunction,SMDPad,CuDef*%
G36*
G01*
X128025000Y-101843750D02*
X128025000Y-102356250D01*
G75*
G02*
X127806250Y-102575000I-218750J0D01*
G01*
X127368750Y-102575000D01*
G75*
G02*
X127150000Y-102356250I0J218750D01*
G01*
X127150000Y-101843750D01*
G75*
G02*
X127368750Y-101625000I218750J0D01*
G01*
X127806250Y-101625000D01*
G75*
G02*
X128025000Y-101843750I0J-218750D01*
G01*
G37*
%TD.AperFunction*%
%TD*%
%TO.P,R8,2*%
%TO.N,Net-(J2-PadB5)*%
%TA.AperFunction,SMDPad,CuDef*%
G36*
G01*
X120525000Y-109875000D02*
X120525000Y-109325000D01*
G75*
G02*
X120725000Y-109125000I200000J0D01*
G01*
X121125000Y-109125000D01*
G75*
G02*
X121325000Y-109325000I0J-200000D01*
G01*
X121325000Y-109875000D01*
G75*
G02*
X121125000Y-110075000I-200000J0D01*
G01*
X120725000Y-110075000D01*
G75*
G02*
X120525000Y-109875000I0J200000D01*
G01*
G37*
%TD.AperFunction*%
%TO.P,R8,1*%
%TO.N,GND*%
%TA.AperFunction,SMDPad,CuDef*%
G36*
G01*
X118875000Y-109875000D02*
X118875000Y-109325000D01*
G75*
G02*
X119075000Y-109125000I200000J0D01*
G01*
X119475000Y-109125000D01*
G75*
G02*
X119675000Y-109325000I0J-200000D01*
G01*
X119675000Y-109875000D01*
G75*
G02*
X119475000Y-110075000I-200000J0D01*
G01*
X119075000Y-110075000D01*
G75*
G02*
X118875000Y-109875000I0J200000D01*
G01*
G37*
%TD.AperFunction*%
%TD*%
%TO.P,R7,2*%
%TO.N,GND*%
%TA.AperFunction,SMDPad,CuDef*%
G36*
G01*
X119675000Y-112425000D02*
X119675000Y-112975000D01*
G75*
G02*
X119475000Y-113175000I-200000J0D01*
G01*
X119075000Y-113175000D01*
G75*
G02*
X118875000Y-112975000I0J200000D01*
G01*
X118875000Y-112425000D01*
G75*
G02*
X119075000Y-112225000I200000J0D01*
G01*
X119475000Y-112225000D01*
G75*
G02*
X119675000Y-112425000I0J-200000D01*
G01*
G37*
%TD.AperFunction*%
%TO.P,R7,1*%
%TO.N,Net-(J2-PadA5)*%
%TA.AperFunction,SMDPad,CuDef*%
G36*
G01*
X121325000Y-112425000D02*
X121325000Y-112975000D01*
G75*
G02*
X121125000Y-113175000I-200000J0D01*
G01*
X120725000Y-113175000D01*
G75*
G02*
X120525000Y-112975000I0J200000D01*
G01*
X120525000Y-112425000D01*
G75*
G02*
X120725000Y-112225000I200000J0D01*
G01*
X121125000Y-112225000D01*
G75*
G02*
X121325000Y-112425000I0J-200000D01*
G01*
G37*
%TD.AperFunction*%
%TD*%
D13*
%TO.P,Q2,3*%
%TO.N,GPIO0*%
X113500000Y-112100000D03*
%TO.P,Q2,2*%
%TO.N,GND*%
X111500000Y-112750000D03*
%TO.P,Q2,1*%
%TO.N,Net-(Q2-Pad1)*%
X111500000Y-111450000D03*
%TD*%
%TO.P,Q1,3*%
%TO.N,EN*%
X113500000Y-115900000D03*
%TO.P,Q1,2*%
%TO.N,GND*%
X111500000Y-116550000D03*
%TO.P,Q1,1*%
%TO.N,Net-(Q1-Pad1)*%
X111500000Y-115250000D03*
%TD*%
%TO.P,R11,2*%
%TO.N,Net-(Q2-Pad1)*%
%TA.AperFunction,SMDPad,CuDef*%
G36*
G01*
X111775000Y-109925000D02*
X111775000Y-110475000D01*
G75*
G02*
X111575000Y-110675000I-200000J0D01*
G01*
X111175000Y-110675000D01*
G75*
G02*
X110975000Y-110475000I0J200000D01*
G01*
X110975000Y-109925000D01*
G75*
G02*
X111175000Y-109725000I200000J0D01*
G01*
X111575000Y-109725000D01*
G75*
G02*
X111775000Y-109925000I0J-200000D01*
G01*
G37*
%TD.AperFunction*%
%TO.P,R11,1*%
%TO.N,Net-(R11-Pad1)*%
%TA.AperFunction,SMDPad,CuDef*%
G36*
G01*
X113425000Y-109925000D02*
X113425000Y-110475000D01*
G75*
G02*
X113225000Y-110675000I-200000J0D01*
G01*
X112825000Y-110675000D01*
G75*
G02*
X112625000Y-110475000I0J200000D01*
G01*
X112625000Y-109925000D01*
G75*
G02*
X112825000Y-109725000I200000J0D01*
G01*
X113225000Y-109725000D01*
G75*
G02*
X113425000Y-109925000I0J-200000D01*
G01*
G37*
%TD.AperFunction*%
%TD*%
%TO.P,R10,2*%
%TO.N,Net-(R10-Pad2)*%
%TA.AperFunction,SMDPad,CuDef*%
G36*
G01*
X112625000Y-114275000D02*
X112625000Y-113725000D01*
G75*
G02*
X112825000Y-113525000I200000J0D01*
G01*
X113225000Y-113525000D01*
G75*
G02*
X113425000Y-113725000I0J-200000D01*
G01*
X113425000Y-114275000D01*
G75*
G02*
X113225000Y-114475000I-200000J0D01*
G01*
X112825000Y-114475000D01*
G75*
G02*
X112625000Y-114275000I0J200000D01*
G01*
G37*
%TD.AperFunction*%
%TO.P,R10,1*%
%TO.N,Net-(Q1-Pad1)*%
%TA.AperFunction,SMDPad,CuDef*%
G36*
G01*
X110975000Y-114275000D02*
X110975000Y-113725000D01*
G75*
G02*
X111175000Y-113525000I200000J0D01*
G01*
X111575000Y-113525000D01*
G75*
G02*
X111775000Y-113725000I0J-200000D01*
G01*
X111775000Y-114275000D01*
G75*
G02*
X111575000Y-114475000I-200000J0D01*
G01*
X111175000Y-114475000D01*
G75*
G02*
X110975000Y-114275000I0J200000D01*
G01*
G37*
%TD.AperFunction*%
%TD*%
%TO.P,R12,2*%
%TO.N,EN*%
%TA.AperFunction,SMDPad,CuDef*%
G36*
G01*
X123075000Y-101825000D02*
X123075000Y-102375000D01*
G75*
G02*
X122875000Y-102575000I-200000J0D01*
G01*
X122475000Y-102575000D01*
G75*
G02*
X122275000Y-102375000I0J200000D01*
G01*
X122275000Y-101825000D01*
G75*
G02*
X122475000Y-101625000I200000J0D01*
G01*
X122875000Y-101625000D01*
G75*
G02*
X123075000Y-101825000I0J-200000D01*
G01*
G37*
%TD.AperFunction*%
%TO.P,R12,1*%
%TO.N,+3V3*%
%TA.AperFunction,SMDPad,CuDef*%
G36*
G01*
X124725000Y-101825000D02*
X124725000Y-102375000D01*
G75*
G02*
X124525000Y-102575000I-200000J0D01*
G01*
X124125000Y-102575000D01*
G75*
G02*
X123925000Y-102375000I0J200000D01*
G01*
X123925000Y-101825000D01*
G75*
G02*
X124125000Y-101625000I200000J0D01*
G01*
X124525000Y-101625000D01*
G75*
G02*
X124725000Y-101825000I0J-200000D01*
G01*
G37*
%TD.AperFunction*%
%TD*%
%TO.P,R6,1*%
%TO.N,IO5*%
%TA.AperFunction,SMDPad,CuDef*%
G36*
G01*
X111075000Y-120649900D02*
X111075000Y-119750100D01*
G75*
G02*
X111325100Y-119500000I250100J0D01*
G01*
X111849900Y-119500000D01*
G75*
G02*
X112100000Y-119750100I0J-250100D01*
G01*
X112100000Y-120649900D01*
G75*
G02*
X111849900Y-120900000I-250100J0D01*
G01*
X111325100Y-120900000D01*
G75*
G02*
X111075000Y-120649900I0J250100D01*
G01*
G37*
%TD.AperFunction*%
%TO.P,R6,2*%
%TO.N,Net-(J1-Pad6)*%
%TA.AperFunction,SMDPad,CuDef*%
G36*
G01*
X112900000Y-120649900D02*
X112900000Y-119750100D01*
G75*
G02*
X113150100Y-119500000I250100J0D01*
G01*
X113674900Y-119500000D01*
G75*
G02*
X113925000Y-119750100I0J-250100D01*
G01*
X113925000Y-120649900D01*
G75*
G02*
X113674900Y-120900000I-250100J0D01*
G01*
X113150100Y-120900000D01*
G75*
G02*
X112900000Y-120649900I0J250100D01*
G01*
G37*
%TD.AperFunction*%
%TA.AperFunction,SMDPad,CuDef*%
G36*
G01*
X113400000Y-120825250D02*
X113400000Y-119574750D01*
G75*
G02*
X113649750Y-119325000I249750J0D01*
G01*
X114275250Y-119325000D01*
G75*
G02*
X114525000Y-119574750I0J-249750D01*
G01*
X114525000Y-120825250D01*
G75*
G02*
X114275250Y-121075000I-249750J0D01*
G01*
X113649750Y-121075000D01*
G75*
G02*
X113400000Y-120825250I0J249750D01*
G01*
G37*
%TD.AperFunction*%
%TO.P,R6,1*%
%TO.N,IO5*%
%TA.AperFunction,SMDPad,CuDef*%
G36*
G01*
X110475000Y-120825250D02*
X110475000Y-119574750D01*
G75*
G02*
X110724750Y-119325000I249750J0D01*
G01*
X111350250Y-119325000D01*
G75*
G02*
X111600000Y-119574750I0J-249750D01*
G01*
X111600000Y-120825250D01*
G75*
G02*
X111350250Y-121075000I-249750J0D01*
G01*
X110724750Y-121075000D01*
G75*
G02*
X110475000Y-120825250I0J249750D01*
G01*
G37*
%TD.AperFunction*%
%TD*%
%TO.P,R5,1*%
%TO.N,VDC*%
%TA.AperFunction,SMDPad,CuDef*%
G36*
G01*
X112849900Y-128175000D02*
X111950100Y-128175000D01*
G75*
G02*
X111700000Y-127924900I0J250100D01*
G01*
X111700000Y-127400100D01*
G75*
G02*
X111950100Y-127150000I250100J0D01*
G01*
X112849900Y-127150000D01*
G75*
G02*
X113100000Y-127400100I0J-250100D01*
G01*
X113100000Y-127924900D01*
G75*
G02*
X112849900Y-128175000I-250100J0D01*
G01*
G37*
%TD.AperFunction*%
%TO.P,R5,2*%
%TO.N,Net-(J1-Pad6)*%
%TA.AperFunction,SMDPad,CuDef*%
G36*
G01*
X112849900Y-126350000D02*
X111950100Y-126350000D01*
G75*
G02*
X111700000Y-126099900I0J250100D01*
G01*
X111700000Y-125575100D01*
G75*
G02*
X111950100Y-125325000I250100J0D01*
G01*
X112849900Y-125325000D01*
G75*
G02*
X113100000Y-125575100I0J-250100D01*
G01*
X113100000Y-126099900D01*
G75*
G02*
X112849900Y-126350000I-250100J0D01*
G01*
G37*
%TD.AperFunction*%
%TA.AperFunction,SMDPad,CuDef*%
G36*
G01*
X113025250Y-125850000D02*
X111774750Y-125850000D01*
G75*
G02*
X111525000Y-125600250I0J249750D01*
G01*
X111525000Y-124974750D01*
G75*
G02*
X111774750Y-124725000I249750J0D01*
G01*
X113025250Y-124725000D01*
G75*
G02*
X113275000Y-124974750I0J-249750D01*
G01*
X113275000Y-125600250D01*
G75*
G02*
X113025250Y-125850000I-249750J0D01*
G01*
G37*
%TD.AperFunction*%
%TO.P,R5,1*%
%TO.N,VDC*%
%TA.AperFunction,SMDPad,CuDef*%
G36*
G01*
X113025250Y-128775000D02*
X111774750Y-128775000D01*
G75*
G02*
X111525000Y-128525250I0J249750D01*
G01*
X111525000Y-127899750D01*
G75*
G02*
X111774750Y-127650000I249750J0D01*
G01*
X113025250Y-127650000D01*
G75*
G02*
X113275000Y-127899750I0J-249750D01*
G01*
X113275000Y-128525250D01*
G75*
G02*
X113025250Y-128775000I-249750J0D01*
G01*
G37*
%TD.AperFunction*%
%TD*%
%TO.P,R4,1*%
%TO.N,+3V3*%
%TA.AperFunction,SMDPad,CuDef*%
G36*
G01*
X116119900Y-128175000D02*
X115220100Y-128175000D01*
G75*
G02*
X114970000Y-127924900I0J250100D01*
G01*
X114970000Y-127400100D01*
G75*
G02*
X115220100Y-127150000I250100J0D01*
G01*
X116119900Y-127150000D01*
G75*
G02*
X116370000Y-127400100I0J-250100D01*
G01*
X116370000Y-127924900D01*
G75*
G02*
X116119900Y-128175000I-250100J0D01*
G01*
G37*
%TD.AperFunction*%
%TO.P,R4,2*%
%TO.N,IO4*%
%TA.AperFunction,SMDPad,CuDef*%
G36*
G01*
X116119900Y-126350000D02*
X115220100Y-126350000D01*
G75*
G02*
X114970000Y-126099900I0J250100D01*
G01*
X114970000Y-125575100D01*
G75*
G02*
X115220100Y-125325000I250100J0D01*
G01*
X116119900Y-125325000D01*
G75*
G02*
X116370000Y-125575100I0J-250100D01*
G01*
X116370000Y-126099900D01*
G75*
G02*
X116119900Y-126350000I-250100J0D01*
G01*
G37*
%TD.AperFunction*%
%TA.AperFunction,SMDPad,CuDef*%
G36*
G01*
X116295250Y-125850000D02*
X115044750Y-125850000D01*
G75*
G02*
X114795000Y-125600250I0J249750D01*
G01*
X114795000Y-124974750D01*
G75*
G02*
X115044750Y-124725000I249750J0D01*
G01*
X116295250Y-124725000D01*
G75*
G02*
X116545000Y-124974750I0J-249750D01*
G01*
X116545000Y-125600250D01*
G75*
G02*
X116295250Y-125850000I-249750J0D01*
G01*
G37*
%TD.AperFunction*%
%TO.P,R4,1*%
%TO.N,+3V3*%
%TA.AperFunction,SMDPad,CuDef*%
G36*
G01*
X116295250Y-128775000D02*
X115044750Y-128775000D01*
G75*
G02*
X114795000Y-128525250I0J249750D01*
G01*
X114795000Y-127899750D01*
G75*
G02*
X115044750Y-127650000I249750J0D01*
G01*
X116295250Y-127650000D01*
G75*
G02*
X116545000Y-127899750I0J-249750D01*
G01*
X116545000Y-128525250D01*
G75*
G02*
X116295250Y-128775000I-249750J0D01*
G01*
G37*
%TD.AperFunction*%
%TD*%
%TO.P,R3,1*%
%TO.N,+3V3*%
%TA.AperFunction,SMDPad,CuDef*%
G36*
G01*
X118619900Y-128175000D02*
X117720100Y-128175000D01*
G75*
G02*
X117470000Y-127924900I0J250100D01*
G01*
X117470000Y-127400100D01*
G75*
G02*
X117720100Y-127150000I250100J0D01*
G01*
X118619900Y-127150000D01*
G75*
G02*
X118870000Y-127400100I0J-250100D01*
G01*
X118870000Y-127924900D01*
G75*
G02*
X118619900Y-128175000I-250100J0D01*
G01*
G37*
%TD.AperFunction*%
%TO.P,R3,2*%
%TO.N,IO3*%
%TA.AperFunction,SMDPad,CuDef*%
G36*
G01*
X118619900Y-126350000D02*
X117720100Y-126350000D01*
G75*
G02*
X117470000Y-126099900I0J250100D01*
G01*
X117470000Y-125575100D01*
G75*
G02*
X117720100Y-125325000I250100J0D01*
G01*
X118619900Y-125325000D01*
G75*
G02*
X118870000Y-125575100I0J-250100D01*
G01*
X118870000Y-126099900D01*
G75*
G02*
X118619900Y-126350000I-250100J0D01*
G01*
G37*
%TD.AperFunction*%
%TA.AperFunction,SMDPad,CuDef*%
G36*
G01*
X118795250Y-125850000D02*
X117544750Y-125850000D01*
G75*
G02*
X117295000Y-125600250I0J249750D01*
G01*
X117295000Y-124974750D01*
G75*
G02*
X117544750Y-124725000I249750J0D01*
G01*
X118795250Y-124725000D01*
G75*
G02*
X119045000Y-124974750I0J-249750D01*
G01*
X119045000Y-125600250D01*
G75*
G02*
X118795250Y-125850000I-249750J0D01*
G01*
G37*
%TD.AperFunction*%
%TO.P,R3,1*%
%TO.N,+3V3*%
%TA.AperFunction,SMDPad,CuDef*%
G36*
G01*
X118795250Y-128775000D02*
X117544750Y-128775000D01*
G75*
G02*
X117295000Y-128525250I0J249750D01*
G01*
X117295000Y-127899750D01*
G75*
G02*
X117544750Y-127650000I249750J0D01*
G01*
X118795250Y-127650000D01*
G75*
G02*
X119045000Y-127899750I0J-249750D01*
G01*
X119045000Y-128525250D01*
G75*
G02*
X118795250Y-128775000I-249750J0D01*
G01*
G37*
%TD.AperFunction*%
%TD*%
%TO.P,R2,1*%
%TO.N,+3V3*%
%TA.AperFunction,SMDPad,CuDef*%
G36*
G01*
X121119900Y-128175000D02*
X120220100Y-128175000D01*
G75*
G02*
X119970000Y-127924900I0J250100D01*
G01*
X119970000Y-127400100D01*
G75*
G02*
X120220100Y-127150000I250100J0D01*
G01*
X121119900Y-127150000D01*
G75*
G02*
X121370000Y-127400100I0J-250100D01*
G01*
X121370000Y-127924900D01*
G75*
G02*
X121119900Y-128175000I-250100J0D01*
G01*
G37*
%TD.AperFunction*%
%TO.P,R2,2*%
%TO.N,IO2*%
%TA.AperFunction,SMDPad,CuDef*%
G36*
G01*
X121119900Y-126350000D02*
X120220100Y-126350000D01*
G75*
G02*
X119970000Y-126099900I0J250100D01*
G01*
X119970000Y-125575100D01*
G75*
G02*
X120220100Y-125325000I250100J0D01*
G01*
X121119900Y-125325000D01*
G75*
G02*
X121370000Y-125575100I0J-250100D01*
G01*
X121370000Y-126099900D01*
G75*
G02*
X121119900Y-126350000I-250100J0D01*
G01*
G37*
%TD.AperFunction*%
%TA.AperFunction,SMDPad,CuDef*%
G36*
G01*
X121295250Y-125850000D02*
X120044750Y-125850000D01*
G75*
G02*
X119795000Y-125600250I0J249750D01*
G01*
X119795000Y-124974750D01*
G75*
G02*
X120044750Y-124725000I249750J0D01*
G01*
X121295250Y-124725000D01*
G75*
G02*
X121545000Y-124974750I0J-249750D01*
G01*
X121545000Y-125600250D01*
G75*
G02*
X121295250Y-125850000I-249750J0D01*
G01*
G37*
%TD.AperFunction*%
%TO.P,R2,1*%
%TO.N,+3V3*%
%TA.AperFunction,SMDPad,CuDef*%
G36*
G01*
X121295250Y-128775000D02*
X120044750Y-128775000D01*
G75*
G02*
X119795000Y-128525250I0J249750D01*
G01*
X119795000Y-127899750D01*
G75*
G02*
X120044750Y-127650000I249750J0D01*
G01*
X121295250Y-127650000D01*
G75*
G02*
X121545000Y-127899750I0J-249750D01*
G01*
X121545000Y-128525250D01*
G75*
G02*
X121295250Y-128775000I-249750J0D01*
G01*
G37*
%TD.AperFunction*%
%TD*%
%TO.P,R1,1*%
%TO.N,+3V3*%
%TA.AperFunction,SMDPad,CuDef*%
G36*
G01*
X123619900Y-128175000D02*
X122720100Y-128175000D01*
G75*
G02*
X122470000Y-127924900I0J250100D01*
G01*
X122470000Y-127400100D01*
G75*
G02*
X122720100Y-127150000I250100J0D01*
G01*
X123619900Y-127150000D01*
G75*
G02*
X123870000Y-127400100I0J-250100D01*
G01*
X123870000Y-127924900D01*
G75*
G02*
X123619900Y-128175000I-250100J0D01*
G01*
G37*
%TD.AperFunction*%
%TO.P,R1,2*%
%TO.N,IO1*%
%TA.AperFunction,SMDPad,CuDef*%
G36*
G01*
X123619900Y-126350000D02*
X122720100Y-126350000D01*
G75*
G02*
X122470000Y-126099900I0J250100D01*
G01*
X122470000Y-125575100D01*
G75*
G02*
X122720100Y-125325000I250100J0D01*
G01*
X123619900Y-125325000D01*
G75*
G02*
X123870000Y-125575100I0J-250100D01*
G01*
X123870000Y-126099900D01*
G75*
G02*
X123619900Y-126350000I-250100J0D01*
G01*
G37*
%TD.AperFunction*%
%TA.AperFunction,SMDPad,CuDef*%
G36*
G01*
X123795250Y-125850000D02*
X122544750Y-125850000D01*
G75*
G02*
X122295000Y-125600250I0J249750D01*
G01*
X122295000Y-124974750D01*
G75*
G02*
X122544750Y-124725000I249750J0D01*
G01*
X123795250Y-124725000D01*
G75*
G02*
X124045000Y-124974750I0J-249750D01*
G01*
X124045000Y-125600250D01*
G75*
G02*
X123795250Y-125850000I-249750J0D01*
G01*
G37*
%TD.AperFunction*%
%TO.P,R1,1*%
%TO.N,+3V3*%
%TA.AperFunction,SMDPad,CuDef*%
G36*
G01*
X123795250Y-128775000D02*
X122544750Y-128775000D01*
G75*
G02*
X122295000Y-128525250I0J249750D01*
G01*
X122295000Y-127899750D01*
G75*
G02*
X122544750Y-127650000I249750J0D01*
G01*
X123795250Y-127650000D01*
G75*
G02*
X124045000Y-127899750I0J-249750D01*
G01*
X124045000Y-128525250D01*
G75*
G02*
X123795250Y-128775000I-249750J0D01*
G01*
G37*
%TD.AperFunction*%
%TD*%
%TO.P,C1,1*%
%TO.N,GND*%
%TA.AperFunction,SMDPad,CuDef*%
G36*
G01*
X127562500Y-119750100D02*
X127562500Y-120649900D01*
G75*
G02*
X127312400Y-120900000I-250100J0D01*
G01*
X126787600Y-120900000D01*
G75*
G02*
X126537500Y-120649900I0J250100D01*
G01*
X126537500Y-119750100D01*
G75*
G02*
X126787600Y-119500000I250100J0D01*
G01*
X127312400Y-119500000D01*
G75*
G02*
X127562500Y-119750100I0J-250100D01*
G01*
G37*
%TD.AperFunction*%
%TO.P,C1,2*%
%TO.N,IO1*%
%TA.AperFunction,SMDPad,CuDef*%
G36*
G01*
X125737500Y-119750100D02*
X125737500Y-120649900D01*
G75*
G02*
X125487400Y-120900000I-250100J0D01*
G01*
X124962600Y-120900000D01*
G75*
G02*
X124712500Y-120649900I0J250100D01*
G01*
X124712500Y-119750100D01*
G75*
G02*
X124962600Y-119500000I250100J0D01*
G01*
X125487400Y-119500000D01*
G75*
G02*
X125737500Y-119750100I0J-250100D01*
G01*
G37*
%TD.AperFunction*%
%TA.AperFunction,SMDPad,CuDef*%
G36*
G01*
X125237500Y-119574750D02*
X125237500Y-120825250D01*
G75*
G02*
X124987750Y-121075000I-249750J0D01*
G01*
X124362250Y-121075000D01*
G75*
G02*
X124112500Y-120825250I0J249750D01*
G01*
X124112500Y-119574750D01*
G75*
G02*
X124362250Y-119325000I249750J0D01*
G01*
X124987750Y-119325000D01*
G75*
G02*
X125237500Y-119574750I0J-249750D01*
G01*
G37*
%TD.AperFunction*%
%TO.P,C1,1*%
%TO.N,GND*%
%TA.AperFunction,SMDPad,CuDef*%
G36*
G01*
X128162500Y-119574750D02*
X128162500Y-120825250D01*
G75*
G02*
X127912750Y-121075000I-249750J0D01*
G01*
X127287250Y-121075000D01*
G75*
G02*
X127037500Y-120825250I0J249750D01*
G01*
X127037500Y-119574750D01*
G75*
G02*
X127287250Y-119325000I249750J0D01*
G01*
X127912750Y-119325000D01*
G75*
G02*
X128162500Y-119574750I0J-249750D01*
G01*
G37*
%TD.AperFunction*%
%TD*%
D14*
%TO.P,J1,1*%
%TO.N,GND*%
X125745000Y-122900000D03*
D15*
%TO.P,J1,2*%
%TO.N,IO1*%
X123205000Y-122900000D03*
%TO.P,J1,3*%
%TO.N,IO2*%
X120665000Y-122900000D03*
%TO.P,J1,4*%
%TO.N,IO3*%
X118125000Y-122900000D03*
%TO.P,J1,5*%
%TO.N,IO4*%
X115585000Y-122900000D03*
%TO.P,J1,6*%
%TO.N,Net-(J1-Pad6)*%
X113045000Y-122900000D03*
%TD*%
%TO.P,C2,2*%
%TO.N,GND*%
%TA.AperFunction,SMDPad,CuDef*%
G36*
G01*
X113375000Y-118262500D02*
X113375000Y-118737500D01*
G75*
G02*
X113137500Y-118975000I-237500J0D01*
G01*
X112537500Y-118975000D01*
G75*
G02*
X112300000Y-118737500I0J237500D01*
G01*
X112300000Y-118262500D01*
G75*
G02*
X112537500Y-118025000I237500J0D01*
G01*
X113137500Y-118025000D01*
G75*
G02*
X113375000Y-118262500I0J-237500D01*
G01*
G37*
%TD.AperFunction*%
%TO.P,C2,1*%
%TO.N,Net-(C2-Pad1)*%
%TA.AperFunction,SMDPad,CuDef*%
G36*
G01*
X115100000Y-118262500D02*
X115100000Y-118737500D01*
G75*
G02*
X114862500Y-118975000I-237500J0D01*
G01*
X114262500Y-118975000D01*
G75*
G02*
X114025000Y-118737500I0J237500D01*
G01*
X114025000Y-118262500D01*
G75*
G02*
X114262500Y-118025000I237500J0D01*
G01*
X114862500Y-118025000D01*
G75*
G02*
X115100000Y-118262500I0J-237500D01*
G01*
G37*
%TD.AperFunction*%
%TD*%
D16*
%TO.P,Reg1,4*%
%TO.N,+3V3*%
X114350000Y-102700000D03*
%TA.AperFunction,SMDPad,CuDef*%
G36*
G01*
X118038388Y-103284835D02*
X118215165Y-103461612D01*
G75*
G02*
X118215165Y-103638388I-88388J-88388D01*
G01*
X118038388Y-103815165D01*
G75*
G02*
X117861612Y-103815165I-88388J88388D01*
G01*
X117684835Y-103638388D01*
G75*
G02*
X117684835Y-103461612I88388J88388D01*
G01*
X117861612Y-103284835D01*
G75*
G02*
X118038388Y-103284835I88388J-88388D01*
G01*
G37*
%TD.AperFunction*%
%TA.AperFunction,SMDPad,CuDef*%
G36*
G01*
X117925000Y-103750000D02*
X117675000Y-103750000D01*
G75*
G02*
X117550000Y-103625000I0J125000D01*
G01*
X117550000Y-103375000D01*
G75*
G02*
X117675000Y-103250000I125000J0D01*
G01*
X117925000Y-103250000D01*
G75*
G02*
X118050000Y-103375000I0J-125000D01*
G01*
X118050000Y-103625000D01*
G75*
G02*
X117925000Y-103750000I-125000J0D01*
G01*
G37*
%TD.AperFunction*%
%TA.AperFunction,SMDPad,CuDef*%
D17*
G36*
X118023223Y-103269670D02*
G01*
X118730330Y-103976777D01*
X118376777Y-104330330D01*
X117669670Y-103623223D01*
X118023223Y-103269670D01*
G37*
%TD.AperFunction*%
%TO.P,Reg1,2*%
%TO.N,VDC*%
%TA.AperFunction,SMDPad,CuDef*%
G36*
G01*
X115975000Y-107750000D02*
X115725000Y-107750000D01*
G75*
G02*
X115600000Y-107625000I0J125000D01*
G01*
X115600000Y-107375000D01*
G75*
G02*
X115725000Y-107250000I125000J0D01*
G01*
X115975000Y-107250000D01*
G75*
G02*
X116100000Y-107375000I0J-125000D01*
G01*
X116100000Y-107625000D01*
G75*
G02*
X115975000Y-107750000I-125000J0D01*
G01*
G37*
%TD.AperFunction*%
%TA.AperFunction,SMDPad,CuDef*%
G36*
G01*
X116088388Y-107284835D02*
X116265165Y-107461612D01*
G75*
G02*
X116265165Y-107638388I-88388J-88388D01*
G01*
X116088388Y-107815165D01*
G75*
G02*
X115911612Y-107815165I-88388J88388D01*
G01*
X115734835Y-107638388D01*
G75*
G02*
X115734835Y-107461612I88388J88388D01*
G01*
X115911612Y-107284835D01*
G75*
G02*
X116088388Y-107284835I88388J-88388D01*
G01*
G37*
%TD.AperFunction*%
D18*
X115500000Y-107500000D03*
%TA.AperFunction,SMDPad,CuDef*%
D17*
G36*
X116123223Y-107319670D02*
G01*
X116830330Y-108026777D01*
X116476777Y-108380330D01*
X115769670Y-107673223D01*
X116123223Y-107319670D01*
G37*
%TD.AperFunction*%
D18*
%TO.P,Reg1,3*%
%TO.N,GND*%
X118000000Y-102250000D03*
X117150000Y-102250000D03*
X112900000Y-107500000D03*
D19*
X113500000Y-107500000D03*
D18*
X117650000Y-102250000D03*
%TO.P,Reg1,4*%
%TO.N,+3V3*%
%TA.AperFunction,SMDPad,CuDef*%
G36*
G01*
X114475000Y-103750000D02*
X114225000Y-103750000D01*
G75*
G02*
X114100000Y-103625000I0J125000D01*
G01*
X114100000Y-103375000D01*
G75*
G02*
X114225000Y-103250000I125000J0D01*
G01*
X114475000Y-103250000D01*
G75*
G02*
X114600000Y-103375000I0J-125000D01*
G01*
X114600000Y-103625000D01*
G75*
G02*
X114475000Y-103750000I-125000J0D01*
G01*
G37*
%TD.AperFunction*%
D16*
X114350000Y-103100000D03*
D20*
X116050000Y-103500000D03*
%TO.P,Reg1,~*%
%TO.N,N/C*%
%TA.AperFunction,SMDPad,CuDef*%
G36*
G01*
X117025626Y-105950000D02*
X115774374Y-105950000D01*
G75*
G02*
X115525000Y-105700626I0J249374D01*
G01*
X115525000Y-104774374D01*
G75*
G02*
X115774374Y-104525000I249374J0D01*
G01*
X117025626Y-104525000D01*
G75*
G02*
X117275000Y-104774374I0J-249374D01*
G01*
X117275000Y-105700626D01*
G75*
G02*
X117025626Y-105950000I-249374J0D01*
G01*
G37*
%TD.AperFunction*%
%TO.P,Reg1,3*%
%TO.N,GND*%
%TA.AperFunction,SMDPad,CuDef*%
G36*
G01*
X117025626Y-102975000D02*
X115774374Y-102975000D01*
G75*
G02*
X115525000Y-102725626I0J249374D01*
G01*
X115525000Y-101799374D01*
G75*
G02*
X115774374Y-101550000I249374J0D01*
G01*
X117025626Y-101550000D01*
G75*
G02*
X117275000Y-101799374I0J-249374D01*
G01*
X117275000Y-102725626D01*
G75*
G02*
X117025626Y-102975000I-249374J0D01*
G01*
G37*
%TD.AperFunction*%
D21*
X113650000Y-107500000D03*
D19*
X113250000Y-107500000D03*
D22*
%TO.P,Reg1,4*%
%TO.N,+3V3*%
X113400000Y-102250000D03*
%TO.P,Reg1,~*%
%TO.N,N/C*%
X113400000Y-105250000D03*
%TO.P,Reg1,3*%
%TO.N,GND*%
%TA.AperFunction,SMDPad,CuDef*%
G36*
G01*
X119100450Y-102800000D02*
X118199550Y-102800000D01*
G75*
G02*
X117950000Y-102550450I0J249550D01*
G01*
X117950000Y-101899550D01*
G75*
G02*
X118199550Y-101650000I249550J0D01*
G01*
X119100450Y-101650000D01*
G75*
G02*
X119350000Y-101899550I0J-249550D01*
G01*
X119350000Y-102550450D01*
G75*
G02*
X119100450Y-102800000I-249550J0D01*
G01*
G37*
%TD.AperFunction*%
%TO.P,Reg1,4*%
%TO.N,+3V3*%
%TA.AperFunction,SMDPad,CuDef*%
G36*
G01*
X119100450Y-104850000D02*
X118199550Y-104850000D01*
G75*
G02*
X117950000Y-104600450I0J249550D01*
G01*
X117950000Y-103949550D01*
G75*
G02*
X118199550Y-103700000I249550J0D01*
G01*
X119100450Y-103700000D01*
G75*
G02*
X119350000Y-103949550I0J-249550D01*
G01*
X119350000Y-104600450D01*
G75*
G02*
X119100450Y-104850000I-249550J0D01*
G01*
G37*
%TD.AperFunction*%
%TO.P,Reg1,3*%
%TO.N,GND*%
%TA.AperFunction,SMDPad,CuDef*%
G36*
G01*
X119050000Y-107762500D02*
X119050000Y-108237500D01*
G75*
G02*
X118812500Y-108475000I-237500J0D01*
G01*
X118212500Y-108475000D01*
G75*
G02*
X117975000Y-108237500I0J237500D01*
G01*
X117975000Y-107762500D01*
G75*
G02*
X118212500Y-107525000I237500J0D01*
G01*
X118812500Y-107525000D01*
G75*
G02*
X119050000Y-107762500I0J-237500D01*
G01*
G37*
%TD.AperFunction*%
%TO.P,Reg1,2*%
%TO.N,VDC*%
%TA.AperFunction,SMDPad,CuDef*%
G36*
G01*
X117325000Y-107762500D02*
X117325000Y-108237500D01*
G75*
G02*
X117087500Y-108475000I-237500J0D01*
G01*
X116487500Y-108475000D01*
G75*
G02*
X116250000Y-108237500I0J237500D01*
G01*
X116250000Y-107762500D01*
G75*
G02*
X116487500Y-107525000I237500J0D01*
G01*
X117087500Y-107525000D01*
G75*
G02*
X117325000Y-107762500I0J-237500D01*
G01*
G37*
%TD.AperFunction*%
%TO.P,Reg1,~*%
%TO.N,N/C*%
%TA.AperFunction,SMDPad,CuDef*%
G36*
G01*
X119050000Y-106512500D02*
X119050000Y-106987500D01*
G75*
G02*
X118812500Y-107225000I-237500J0D01*
G01*
X118212500Y-107225000D01*
G75*
G02*
X117975000Y-106987500I0J237500D01*
G01*
X117975000Y-106512500D01*
G75*
G02*
X118212500Y-106275000I237500J0D01*
G01*
X118812500Y-106275000D01*
G75*
G02*
X119050000Y-106512500I0J-237500D01*
G01*
G37*
%TD.AperFunction*%
%TA.AperFunction,SMDPad,CuDef*%
G36*
G01*
X117325000Y-106512500D02*
X117325000Y-106987500D01*
G75*
G02*
X117087500Y-107225000I-237500J0D01*
G01*
X116487500Y-107225000D01*
G75*
G02*
X116250000Y-106987500I0J237500D01*
G01*
X116250000Y-106512500D01*
G75*
G02*
X116487500Y-106275000I237500J0D01*
G01*
X117087500Y-106275000D01*
G75*
G02*
X117325000Y-106512500I0J-237500D01*
G01*
G37*
%TD.AperFunction*%
D23*
%TO.P,Reg1,1*%
%TO.N,VDC*%
X115000000Y-108450000D03*
%TO.P,Reg1,2*%
X115000000Y-107500000D03*
%TO.P,Reg1,~*%
%TO.N,N/C*%
X115000000Y-106550000D03*
X112300000Y-106550000D03*
X112300000Y-108450000D03*
%TO.P,Reg1,3*%
%TO.N,GND*%
X112300000Y-107500000D03*
%TD*%
%TA.AperFunction,SMDPad,CuDef*%
D17*
%TO.P,U2,21*%
%TO.N,GND*%
G36*
X117024797Y-117774887D02*
G01*
X118774887Y-116024797D01*
X119025203Y-116275113D01*
X117275113Y-118025203D01*
X117024797Y-117774887D01*
G37*
%TD.AperFunction*%
D24*
X118150000Y-117025000D03*
D25*
X118025000Y-117025000D03*
D26*
%TO.P,U2,~*%
%TO.N,N/C*%
X116025000Y-119025000D03*
X120025000Y-115025000D03*
X120025000Y-119025000D03*
X116025000Y-115025000D03*
D27*
X116025000Y-119025000D03*
D28*
%TO.P,U2,21*%
%TO.N,GND*%
X118025000Y-116900000D03*
%TO.P,U2,20*%
%TO.N,Net-(C2-Pad1)*%
%TA.AperFunction,SMDPad,CuDef*%
G36*
G01*
X116462500Y-118150000D02*
X115587500Y-118150000D01*
G75*
G02*
X115525000Y-118087500I0J62500D01*
G01*
X115525000Y-117962500D01*
G75*
G02*
X115587500Y-117900000I62500J0D01*
G01*
X116462500Y-117900000D01*
G75*
G02*
X116525000Y-117962500I0J-62500D01*
G01*
X116525000Y-118087500D01*
G75*
G02*
X116462500Y-118150000I-62500J0D01*
G01*
G37*
%TD.AperFunction*%
%TO.P,U2,19*%
%TO.N,Net-(R10-Pad2)*%
%TA.AperFunction,SMDPad,CuDef*%
G36*
G01*
X116462500Y-117650000D02*
X115587500Y-117650000D01*
G75*
G02*
X115525000Y-117587500I0J62500D01*
G01*
X115525000Y-117462500D01*
G75*
G02*
X115587500Y-117400000I62500J0D01*
G01*
X116462500Y-117400000D01*
G75*
G02*
X116525000Y-117462500I0J-62500D01*
G01*
X116525000Y-117587500D01*
G75*
G02*
X116462500Y-117650000I-62500J0D01*
G01*
G37*
%TD.AperFunction*%
%TO.P,U2,18*%
%TO.N,Net-(R11-Pad1)*%
%TA.AperFunction,SMDPad,CuDef*%
G36*
G01*
X116462500Y-117150000D02*
X115587500Y-117150000D01*
G75*
G02*
X115525000Y-117087500I0J62500D01*
G01*
X115525000Y-116962500D01*
G75*
G02*
X115587500Y-116900000I62500J0D01*
G01*
X116462500Y-116900000D01*
G75*
G02*
X116525000Y-116962500I0J-62500D01*
G01*
X116525000Y-117087500D01*
G75*
G02*
X116462500Y-117150000I-62500J0D01*
G01*
G37*
%TD.AperFunction*%
%TO.P,U2,17*%
%TO.N,I*%
%TA.AperFunction,SMDPad,CuDef*%
G36*
G01*
X116462500Y-116650000D02*
X115587500Y-116650000D01*
G75*
G02*
X115525000Y-116587500I0J62500D01*
G01*
X115525000Y-116462500D01*
G75*
G02*
X115587500Y-116400000I62500J0D01*
G01*
X116462500Y-116400000D01*
G75*
G02*
X116525000Y-116462500I0J-62500D01*
G01*
X116525000Y-116587500D01*
G75*
G02*
X116462500Y-116650000I-62500J0D01*
G01*
G37*
%TD.AperFunction*%
%TO.P,U2,16*%
%TO.N,Net-(U2-Pad16)*%
%TA.AperFunction,SMDPad,CuDef*%
G36*
G01*
X116462500Y-116150000D02*
X115587500Y-116150000D01*
G75*
G02*
X115525000Y-116087500I0J62500D01*
G01*
X115525000Y-115962500D01*
G75*
G02*
X115587500Y-115900000I62500J0D01*
G01*
X116462500Y-115900000D01*
G75*
G02*
X116525000Y-115962500I0J-62500D01*
G01*
X116525000Y-116087500D01*
G75*
G02*
X116462500Y-116150000I-62500J0D01*
G01*
G37*
%TD.AperFunction*%
%TO.P,U2,15*%
%TO.N,Net-(U2-Pad15)*%
%TA.AperFunction,SMDPad,CuDef*%
G36*
G01*
X117087500Y-115525000D02*
X116962500Y-115525000D01*
G75*
G02*
X116900000Y-115462500I0J62500D01*
G01*
X116900000Y-114587500D01*
G75*
G02*
X116962500Y-114525000I62500J0D01*
G01*
X117087500Y-114525000D01*
G75*
G02*
X117150000Y-114587500I0J-62500D01*
G01*
X117150000Y-115462500D01*
G75*
G02*
X117087500Y-115525000I-62500J0D01*
G01*
G37*
%TD.AperFunction*%
%TO.P,U2,14*%
%TO.N,Net-(U2-Pad14)*%
%TA.AperFunction,SMDPad,CuDef*%
G36*
G01*
X117587500Y-115525000D02*
X117462500Y-115525000D01*
G75*
G02*
X117400000Y-115462500I0J62500D01*
G01*
X117400000Y-114587500D01*
G75*
G02*
X117462500Y-114525000I62500J0D01*
G01*
X117587500Y-114525000D01*
G75*
G02*
X117650000Y-114587500I0J-62500D01*
G01*
X117650000Y-115462500D01*
G75*
G02*
X117587500Y-115525000I-62500J0D01*
G01*
G37*
%TD.AperFunction*%
%TO.P,U2,13*%
%TO.N,GND*%
%TA.AperFunction,SMDPad,CuDef*%
G36*
G01*
X118087500Y-115525000D02*
X117962500Y-115525000D01*
G75*
G02*
X117900000Y-115462500I0J62500D01*
G01*
X117900000Y-114587500D01*
G75*
G02*
X117962500Y-114525000I62500J0D01*
G01*
X118087500Y-114525000D01*
G75*
G02*
X118150000Y-114587500I0J-62500D01*
G01*
X118150000Y-115462500D01*
G75*
G02*
X118087500Y-115525000I-62500J0D01*
G01*
G37*
%TD.AperFunction*%
%TO.P,U2,12*%
%TO.N,VBUS*%
%TA.AperFunction,SMDPad,CuDef*%
G36*
G01*
X118587500Y-115525000D02*
X118462500Y-115525000D01*
G75*
G02*
X118400000Y-115462500I0J62500D01*
G01*
X118400000Y-114587500D01*
G75*
G02*
X118462500Y-114525000I62500J0D01*
G01*
X118587500Y-114525000D01*
G75*
G02*
X118650000Y-114587500I0J-62500D01*
G01*
X118650000Y-115462500D01*
G75*
G02*
X118587500Y-115525000I-62500J0D01*
G01*
G37*
%TD.AperFunction*%
%TO.P,U2,11*%
%TO.N,Net-(C2-Pad1)*%
%TA.AperFunction,SMDPad,CuDef*%
G36*
G01*
X119087500Y-115525000D02*
X118962500Y-115525000D01*
G75*
G02*
X118900000Y-115462500I0J62500D01*
G01*
X118900000Y-114587500D01*
G75*
G02*
X118962500Y-114525000I62500J0D01*
G01*
X119087500Y-114525000D01*
G75*
G02*
X119150000Y-114587500I0J-62500D01*
G01*
X119150000Y-115462500D01*
G75*
G02*
X119087500Y-115525000I-62500J0D01*
G01*
G37*
%TD.AperFunction*%
%TO.P,U2,10*%
%TA.AperFunction,SMDPad,CuDef*%
G36*
G01*
X120462500Y-116150000D02*
X119587500Y-116150000D01*
G75*
G02*
X119525000Y-116087500I0J62500D01*
G01*
X119525000Y-115962500D01*
G75*
G02*
X119587500Y-115900000I62500J0D01*
G01*
X120462500Y-115900000D01*
G75*
G02*
X120525000Y-115962500I0J-62500D01*
G01*
X120525000Y-116087500D01*
G75*
G02*
X120462500Y-116150000I-62500J0D01*
G01*
G37*
%TD.AperFunction*%
%TO.P,U2,9*%
%TO.N,D-*%
%TA.AperFunction,SMDPad,CuDef*%
G36*
G01*
X120462500Y-116650000D02*
X119587500Y-116650000D01*
G75*
G02*
X119525000Y-116587500I0J62500D01*
G01*
X119525000Y-116462500D01*
G75*
G02*
X119587500Y-116400000I62500J0D01*
G01*
X120462500Y-116400000D01*
G75*
G02*
X120525000Y-116462500I0J-62500D01*
G01*
X120525000Y-116587500D01*
G75*
G02*
X120462500Y-116650000I-62500J0D01*
G01*
G37*
%TD.AperFunction*%
%TO.P,U2,8*%
%TO.N,D+*%
%TA.AperFunction,SMDPad,CuDef*%
G36*
G01*
X120462500Y-117150000D02*
X119587500Y-117150000D01*
G75*
G02*
X119525000Y-117087500I0J62500D01*
G01*
X119525000Y-116962500D01*
G75*
G02*
X119587500Y-116900000I62500J0D01*
G01*
X120462500Y-116900000D01*
G75*
G02*
X120525000Y-116962500I0J-62500D01*
G01*
X120525000Y-117087500D01*
G75*
G02*
X120462500Y-117150000I-62500J0D01*
G01*
G37*
%TD.AperFunction*%
%TO.P,U2,7*%
%TO.N,Net-(U2-Pad7)*%
%TA.AperFunction,SMDPad,CuDef*%
G36*
G01*
X120462500Y-117650000D02*
X119587500Y-117650000D01*
G75*
G02*
X119525000Y-117587500I0J62500D01*
G01*
X119525000Y-117462500D01*
G75*
G02*
X119587500Y-117400000I62500J0D01*
G01*
X120462500Y-117400000D01*
G75*
G02*
X120525000Y-117462500I0J-62500D01*
G01*
X120525000Y-117587500D01*
G75*
G02*
X120462500Y-117650000I-62500J0D01*
G01*
G37*
%TD.AperFunction*%
%TO.P,U2,6*%
%TO.N,GND*%
%TA.AperFunction,SMDPad,CuDef*%
G36*
G01*
X120462500Y-118150000D02*
X119587500Y-118150000D01*
G75*
G02*
X119525000Y-118087500I0J62500D01*
G01*
X119525000Y-117962500D01*
G75*
G02*
X119587500Y-117900000I62500J0D01*
G01*
X120462500Y-117900000D01*
G75*
G02*
X120525000Y-117962500I0J-62500D01*
G01*
X120525000Y-118087500D01*
G75*
G02*
X120462500Y-118150000I-62500J0D01*
G01*
G37*
%TD.AperFunction*%
%TO.P,U2,5*%
%TA.AperFunction,SMDPad,CuDef*%
G36*
G01*
X119087500Y-119525000D02*
X118962500Y-119525000D01*
G75*
G02*
X118900000Y-119462500I0J62500D01*
G01*
X118900000Y-118587500D01*
G75*
G02*
X118962500Y-118525000I62500J0D01*
G01*
X119087500Y-118525000D01*
G75*
G02*
X119150000Y-118587500I0J-62500D01*
G01*
X119150000Y-119462500D01*
G75*
G02*
X119087500Y-119525000I-62500J0D01*
G01*
G37*
%TD.AperFunction*%
%TO.P,U2,4*%
%TA.AperFunction,SMDPad,CuDef*%
G36*
G01*
X118587500Y-119525000D02*
X118462500Y-119525000D01*
G75*
G02*
X118400000Y-119462500I0J62500D01*
G01*
X118400000Y-118587500D01*
G75*
G02*
X118462500Y-118525000I62500J0D01*
G01*
X118587500Y-118525000D01*
G75*
G02*
X118650000Y-118587500I0J-62500D01*
G01*
X118650000Y-119462500D01*
G75*
G02*
X118587500Y-119525000I-62500J0D01*
G01*
G37*
%TD.AperFunction*%
%TO.P,U2,3*%
%TA.AperFunction,SMDPad,CuDef*%
G36*
G01*
X118087500Y-119525000D02*
X117962500Y-119525000D01*
G75*
G02*
X117900000Y-119462500I0J62500D01*
G01*
X117900000Y-118587500D01*
G75*
G02*
X117962500Y-118525000I62500J0D01*
G01*
X118087500Y-118525000D01*
G75*
G02*
X118150000Y-118587500I0J-62500D01*
G01*
X118150000Y-119462500D01*
G75*
G02*
X118087500Y-119525000I-62500J0D01*
G01*
G37*
%TD.AperFunction*%
%TO.P,U2,2*%
%TA.AperFunction,SMDPad,CuDef*%
G36*
G01*
X117587500Y-119525000D02*
X117462500Y-119525000D01*
G75*
G02*
X117400000Y-119462500I0J62500D01*
G01*
X117400000Y-118587500D01*
G75*
G02*
X117462500Y-118525000I62500J0D01*
G01*
X117587500Y-118525000D01*
G75*
G02*
X117650000Y-118587500I0J-62500D01*
G01*
X117650000Y-119462500D01*
G75*
G02*
X117587500Y-119525000I-62500J0D01*
G01*
G37*
%TD.AperFunction*%
%TO.P,U2,1*%
%TO.N,O*%
%TA.AperFunction,SMDPad,CuDef*%
G36*
G01*
X117087500Y-119525000D02*
X116962500Y-119525000D01*
G75*
G02*
X116900000Y-119462500I0J62500D01*
G01*
X116900000Y-118587500D01*
G75*
G02*
X116962500Y-118525000I62500J0D01*
G01*
X117087500Y-118525000D01*
G75*
G02*
X117150000Y-118587500I0J-62500D01*
G01*
X117150000Y-119462500D01*
G75*
G02*
X117087500Y-119525000I-62500J0D01*
G01*
G37*
%TD.AperFunction*%
%TD*%
D15*
%TO.P,J3,2*%
%TO.N,VDC*%
X126700000Y-125660000D03*
D14*
%TO.P,J3,1*%
%TO.N,GND*%
X126700000Y-128200000D03*
%TD*%
D29*
%TO.P,J2,S1*%
%TO.N,GND*%
X123680000Y-107180000D03*
X123670000Y-115230000D03*
X123660000Y-108310000D03*
X123530000Y-108310000D03*
X123660000Y-114100000D03*
X123510000Y-114100000D03*
D30*
X127020000Y-114810000D03*
%TA.AperFunction,SMDPad,CuDef*%
D17*
G36*
X122412513Y-107876066D02*
G01*
X122766066Y-107522513D01*
X122907487Y-107663934D01*
X122553934Y-108017487D01*
X122412513Y-107876066D01*
G37*
%TD.AperFunction*%
%TA.AperFunction,SMDPad,CuDef*%
G36*
X122613934Y-114402513D02*
G01*
X122967487Y-114756066D01*
X122826066Y-114897487D01*
X122472513Y-114543934D01*
X122613934Y-114402513D01*
G37*
%TD.AperFunction*%
D30*
X127020000Y-107580000D03*
D31*
X126355000Y-111200000D03*
D32*
%TO.P,J2,A12*%
X122240000Y-108000000D03*
%TO.P,J2,A4*%
%TO.N,VBUS*%
X122240000Y-113600000D03*
%TO.P,J2,B12*%
%TO.N,GND*%
X122240000Y-114400000D03*
%TO.P,J2,B4*%
%TO.N,VBUS*%
X122240000Y-108800000D03*
D33*
%TO.P,J2,S1*%
%TO.N,GND*%
X127010000Y-106875000D03*
X127010000Y-115525000D03*
D34*
X122830000Y-106875000D03*
X122830000Y-115525000D03*
D35*
%TO.P,J2,A7*%
%TO.N,D-*%
X122240000Y-110950000D03*
%TO.P,J2,A6*%
%TO.N,D+*%
X122240000Y-111450000D03*
%TO.P,J2,B6*%
X122240000Y-110450000D03*
%TO.P,J2,B7*%
%TO.N,D-*%
X122240000Y-111950000D03*
%TO.P,J2,A8*%
%TO.N,Net-(J2-PadA8)*%
X122240000Y-109950000D03*
%TO.P,J2,A5*%
%TO.N,Net-(J2-PadA5)*%
X122240000Y-112450000D03*
%TO.P,J2,B5*%
%TO.N,Net-(J2-PadB5)*%
X122240000Y-109450000D03*
%TO.P,J2,B8*%
%TO.N,Net-(J2-PadB8)*%
X122240000Y-112950000D03*
D32*
%TO.P,J2,A9*%
%TO.N,VBUS*%
X122240000Y-108800000D03*
%TO.P,J2,B9*%
X122240000Y-113600000D03*
%TO.P,J2,B1*%
%TO.N,GND*%
X122240000Y-108000000D03*
D36*
%TO.P,J2,S1*%
X123310000Y-108310000D03*
X123310000Y-114090000D03*
D32*
%TO.P,J2,A1*%
X122240000Y-114400000D03*
%TD*%
D37*
%TO.N,D+*%
X117197468Y-112025010D03*
X117120453Y-110444258D03*
X121366415Y-116966415D03*
%TO.N,GND*%
X120300000Y-108000000D03*
X124000000Y-117900000D03*
X120800000Y-103300000D03*
X120354598Y-101656560D03*
X120200000Y-105400000D03*
%TO.N,D-*%
X116542271Y-112782037D03*
X120969135Y-114430865D03*
%TO.N,+3V3*%
X125200000Y-102700000D03*
X125600000Y-116900000D03*
X125500000Y-105800000D03*
%TO.N,VBUS*%
X122500000Y-118100000D03*
X121100000Y-106694998D03*
%TO.N,IO5*%
X112842497Y-117195774D03*
%TO.N,O*%
X113844471Y-121690297D03*
%TO.N,I*%
X114403637Y-110587303D03*
%TO.N,EN*%
X114500000Y-113800000D03*
X123830537Y-103775000D03*
%TO.N,GPIO0*%
X113182609Y-111464598D03*
%TO.N,Net-(C2-Pad1)*%
X114633150Y-118188674D03*
X119997937Y-114192540D03*
%TO.N,Net-(R9-Pad2)*%
X125000000Y-103700000D03*
%TO.N,VDC*%
X125800000Y-121449998D03*
X116803835Y-108678516D03*
%TD*%
D38*
%TO.N,D+*%
X121419979Y-111449979D02*
X117772499Y-111449979D01*
X121420000Y-111450000D02*
X121419979Y-111449979D01*
X122240000Y-110450000D02*
X117126195Y-110450000D01*
X117772499Y-111449979D02*
X117197468Y-112025010D01*
X122240000Y-111450000D02*
X121420000Y-111450000D01*
X117126195Y-110450000D02*
X117120453Y-110444258D01*
X120025000Y-117025000D02*
X121307830Y-117025000D01*
X121307830Y-117025000D02*
X121366415Y-116966415D01*
%TO.N,GND*%
X117525000Y-117525000D02*
X118025000Y-117025000D01*
X117525000Y-119025000D02*
X117525000Y-117525000D01*
X118025000Y-119025000D02*
X118025000Y-116900000D01*
X118525000Y-117400000D02*
X118025000Y-116900000D01*
X118525000Y-119025000D02*
X118525000Y-117400000D01*
X119025000Y-117900000D02*
X118150000Y-117025000D01*
X119025000Y-119025000D02*
X119025000Y-117900000D01*
X119150000Y-118025000D02*
X118150000Y-117025000D01*
X120025000Y-118025000D02*
X119150000Y-118025000D01*
X118025000Y-116900000D02*
X118150000Y-117025000D01*
X118025000Y-115025000D02*
X118025000Y-116900000D01*
X113750010Y-107600010D02*
X113750010Y-108890012D01*
X113650000Y-107500000D02*
X113750010Y-107600010D01*
X113750010Y-108890012D02*
X114559998Y-109700000D01*
X116812500Y-109700000D02*
X118512500Y-108000000D01*
X114559998Y-109700000D02*
X116812500Y-109700000D01*
X118512500Y-108000000D02*
X120300000Y-108000000D01*
X120300000Y-108575000D02*
X119275000Y-109600000D01*
X120300000Y-108000000D02*
X120300000Y-108575000D01*
X111500000Y-116550000D02*
X112200000Y-115850000D01*
X112200000Y-113450000D02*
X111500000Y-112750000D01*
X112200000Y-115850000D02*
X112200000Y-113450000D01*
X111500000Y-112750000D02*
X111500000Y-112700000D01*
X112175001Y-112024999D02*
X112175001Y-109624999D01*
X111500000Y-112700000D02*
X112175001Y-112024999D01*
X112175001Y-109624999D02*
X112500000Y-109300000D01*
X113650000Y-109000000D02*
X113650000Y-107500000D01*
X113350000Y-109300000D02*
X113650000Y-109000000D01*
X112500000Y-109300000D02*
X113350000Y-109300000D01*
X111500000Y-116550000D02*
X111500000Y-116600000D01*
X112574990Y-118762510D02*
X112574990Y-121625010D01*
X112837500Y-118500000D02*
X112574990Y-118762510D01*
X111199990Y-123000010D02*
X111199990Y-129299990D01*
X112574990Y-121625010D02*
X111199990Y-123000010D01*
X111199990Y-129299990D02*
X111450021Y-129550021D01*
X124219724Y-129550021D02*
X124269745Y-129500000D01*
X111450021Y-129550021D02*
X124219724Y-129550021D01*
X125400000Y-129500000D02*
X126700000Y-128200000D01*
X124269745Y-129500000D02*
X125400000Y-129500000D01*
X127875001Y-127024999D02*
X126700000Y-128200000D01*
X127875001Y-125095999D02*
X127875001Y-127024999D01*
X127600000Y-120200000D02*
X127600000Y-124820998D01*
X127600000Y-124820998D02*
X127875001Y-125095999D01*
X124570010Y-124074990D02*
X125745000Y-122900000D01*
X121133150Y-120100000D02*
X119370010Y-121863140D01*
X123816871Y-118549979D02*
X122266850Y-120100000D01*
X124570010Y-126729990D02*
X124570010Y-124074990D01*
X119370010Y-121863140D02*
X119370010Y-126729990D01*
X119370010Y-126729990D02*
X124570010Y-126729990D01*
X122266850Y-120100000D02*
X121133150Y-120100000D01*
X124149979Y-118049979D02*
X124149979Y-118549979D01*
X124149979Y-118549979D02*
X123816871Y-118549979D01*
X124000000Y-117900000D02*
X124149979Y-118049979D01*
X125450020Y-118549979D02*
X124149979Y-118549979D01*
X119275000Y-112700000D02*
X119275000Y-112825000D01*
X118025000Y-114075000D02*
X118025000Y-115025000D01*
X119275000Y-112825000D02*
X118025000Y-114075000D01*
X127010000Y-115525000D02*
X128100000Y-116615000D01*
X128100000Y-116615000D02*
X128100000Y-117500000D01*
X128100000Y-117500000D02*
X127600000Y-118000000D01*
X125450020Y-118549979D02*
X127549979Y-118549979D01*
X127600000Y-118600000D02*
X127600000Y-120200000D01*
X127549979Y-118549979D02*
X127600000Y-118600000D01*
X127600000Y-118000000D02*
X127600000Y-118600000D01*
X121355000Y-105400000D02*
X121100000Y-105400000D01*
X122830000Y-106875000D02*
X121355000Y-105400000D01*
X120200000Y-105400000D02*
X121100000Y-105400000D01*
X120200000Y-103900000D02*
X120800000Y-103300000D01*
X119786158Y-102225000D02*
X120354598Y-101656560D01*
X120200000Y-105400000D02*
X120200000Y-103900000D01*
X118650000Y-102225000D02*
X119786158Y-102225000D01*
%TO.N,D-*%
X121434998Y-111950000D02*
X122240000Y-111950000D01*
X118700010Y-111899990D02*
X121384988Y-111899990D01*
X121384988Y-111899990D02*
X121434998Y-111950000D01*
X117817963Y-112782037D02*
X118700010Y-111899990D01*
X116542271Y-112782037D02*
X117817963Y-112782037D01*
X117586099Y-110999968D02*
X117286068Y-111300000D01*
X117713590Y-110950000D02*
X117663622Y-110999968D01*
X117663622Y-110999968D02*
X117586099Y-110999968D01*
X116142272Y-111557728D02*
X116142272Y-112382038D01*
X122240000Y-110950000D02*
X117713590Y-110950000D01*
X116142272Y-112382038D02*
X116542271Y-112782037D01*
X117286068Y-111300000D02*
X116400000Y-111300000D01*
X116400000Y-111300000D02*
X116142272Y-111557728D01*
X120573022Y-116525000D02*
X120969135Y-116128887D01*
X120025000Y-116525000D02*
X120573022Y-116525000D01*
X120969135Y-116128887D02*
X120969135Y-114430865D01*
%TO.N,+3V3*%
X115670000Y-128212500D02*
X118170000Y-128212500D01*
X118170000Y-128212500D02*
X120670000Y-128212500D01*
X120670000Y-128212500D02*
X123170000Y-128212500D01*
X126012500Y-102100000D02*
X126012500Y-102112500D01*
X126012500Y-102112500D02*
X126700000Y-102800000D01*
X126700000Y-104192478D02*
X126392468Y-104500010D01*
X126700000Y-102800000D02*
X126700000Y-104192478D01*
X125200000Y-102700000D02*
X125200000Y-102100000D01*
X125200000Y-102100000D02*
X126012500Y-102100000D01*
X124325000Y-102100000D02*
X125200000Y-102100000D01*
X120580001Y-118778149D02*
X122358150Y-117000000D01*
X116895988Y-119850010D02*
X120218992Y-119850010D01*
X114409999Y-122335999D02*
X116895988Y-119850010D01*
X115670000Y-128212500D02*
X114409999Y-126952499D01*
X120218992Y-119850010D02*
X120580001Y-119489001D01*
X120580001Y-119489001D02*
X120580001Y-118778149D01*
X114409999Y-126952499D02*
X114409999Y-122335999D01*
X122358150Y-117000000D02*
X125500000Y-117000000D01*
X125500000Y-117000000D02*
X125600000Y-116900000D01*
X125500000Y-104600000D02*
X125599990Y-104500010D01*
X125500000Y-105800000D02*
X125500000Y-104600000D01*
X126392468Y-104500010D02*
X125599990Y-104500010D01*
X123273014Y-104500010D02*
X121148002Y-102374998D01*
X118650000Y-104176996D02*
X118650000Y-104275000D01*
X120451998Y-102374998D02*
X118650000Y-104176996D01*
X125599990Y-104500010D02*
X123273014Y-104500010D01*
X121148002Y-102374998D02*
X120451998Y-102374998D01*
%TO.N,VBUS*%
X122375001Y-113464999D02*
X123035001Y-113464999D01*
X122240000Y-113600000D02*
X122375001Y-113464999D01*
X123035001Y-113464999D02*
X123200000Y-113300000D01*
X122895002Y-108800000D02*
X122240000Y-108800000D01*
X123200000Y-109104998D02*
X122895002Y-108800000D01*
X123200000Y-113300000D02*
X123200000Y-109104998D01*
X121800000Y-118800000D02*
X122500000Y-118100000D01*
X121800000Y-119062500D02*
X121800000Y-118800000D01*
X121344999Y-108724999D02*
X121344999Y-106939997D01*
X121420000Y-108800000D02*
X121344999Y-108724999D01*
X122240000Y-108800000D02*
X121420000Y-108800000D01*
X121344999Y-106939997D02*
X121100000Y-106694998D01*
X118525000Y-114325000D02*
X119349990Y-113500010D01*
X118525000Y-115025000D02*
X118525000Y-114325000D01*
X119724939Y-113467539D02*
X120475061Y-113467539D01*
X119349990Y-113500010D02*
X119692468Y-113500010D01*
X119692468Y-113500010D02*
X119724939Y-113467539D01*
X120475061Y-113467539D02*
X120607522Y-113600000D01*
X120607522Y-113600000D02*
X122240000Y-113600000D01*
%TO.N,IO5*%
X111587500Y-120200000D02*
X111587500Y-117885086D01*
X112276812Y-117195774D02*
X112842497Y-117195774D01*
X111587500Y-117885086D02*
X112276812Y-117195774D01*
%TO.N,IO4*%
X115670000Y-122985000D02*
X115585000Y-122900000D01*
X115670000Y-125287500D02*
X115670000Y-122985000D01*
%TO.N,IO3*%
X118170000Y-122945000D02*
X118125000Y-122900000D01*
X118170000Y-125287500D02*
X118170000Y-122945000D01*
%TO.N,IO2*%
X120670000Y-122905000D02*
X120665000Y-122900000D01*
X120670000Y-125287500D02*
X120670000Y-122905000D01*
%TO.N,IO1*%
X123170000Y-122935000D02*
X123205000Y-122900000D01*
X123170000Y-125287500D02*
X123170000Y-122935000D01*
X123205000Y-121670000D02*
X124675000Y-120200000D01*
X123205000Y-122900000D02*
X123205000Y-121670000D01*
%TO.N,O*%
X117025000Y-119025000D02*
X114500011Y-121549989D01*
X114500011Y-121549989D02*
X113984779Y-121549989D01*
X113984779Y-121549989D02*
X113844471Y-121690297D01*
%TO.N,I*%
X115875013Y-113065598D02*
X115234402Y-112424987D01*
X115875013Y-114234402D02*
X115875013Y-113065598D01*
X115200000Y-114909415D02*
X115875013Y-114234402D01*
X115234402Y-112424987D02*
X115234402Y-111418068D01*
X116025000Y-116525000D02*
X115476978Y-116525000D01*
X115476978Y-116525000D02*
X115200000Y-116248022D01*
X115200000Y-116248022D02*
X115200000Y-114909415D01*
X115234402Y-111418068D02*
X114403637Y-110587303D01*
%TO.N,EN*%
X113750010Y-114549990D02*
X114500000Y-113800000D01*
X113750010Y-115649990D02*
X113750010Y-114549990D01*
X113500000Y-115900000D02*
X113750010Y-115649990D01*
X122675000Y-102100000D02*
X122675000Y-102619463D01*
X122675000Y-102619463D02*
X123830537Y-103775000D01*
%TO.N,Net-(J2-PadA5)*%
X121175000Y-112450000D02*
X120925000Y-112700000D01*
X122240000Y-112450000D02*
X121175000Y-112450000D01*
%TO.N,Net-(J2-PadB5)*%
X121075000Y-109450000D02*
X120925000Y-109600000D01*
X122240000Y-109450000D02*
X121075000Y-109450000D01*
%TO.N,Net-(J1-Pad6)*%
X112400000Y-123545000D02*
X113045000Y-122900000D01*
X112400000Y-125287500D02*
X112400000Y-123545000D01*
X113962500Y-120200000D02*
X113045000Y-121117500D01*
X113045000Y-121117500D02*
X113045000Y-122900000D01*
%TO.N,GPIO0*%
X113500000Y-111781989D02*
X113182609Y-111464598D01*
X113500000Y-112100000D02*
X113500000Y-111781989D01*
%TO.N,Net-(R10-Pad2)*%
X115204156Y-117525000D02*
X116025000Y-117525000D01*
X114129157Y-116450001D02*
X115204156Y-117525000D01*
X112824999Y-116385001D02*
X112889999Y-116450001D01*
X112889999Y-116450001D02*
X114129157Y-116450001D01*
X112824999Y-114200001D02*
X112824999Y-116385001D01*
X113025000Y-114000000D02*
X112824999Y-114200001D01*
%TO.N,Net-(Q1-Pad1)*%
X111500000Y-114125000D02*
X111375000Y-114000000D01*
X111500000Y-115250000D02*
X111500000Y-114125000D01*
%TO.N,Net-(Q2-Pad1)*%
X111500000Y-110325000D02*
X111375000Y-110200000D01*
X111500000Y-111450000D02*
X111500000Y-110325000D01*
%TO.N,Net-(R11-Pad1)*%
X114749989Y-112006659D02*
X113025000Y-110281670D01*
X116025000Y-117025000D02*
X115340567Y-117025000D01*
X114749989Y-112576985D02*
X114749989Y-112006659D01*
X114749989Y-116434422D02*
X114749989Y-114723015D01*
X115340567Y-117025000D02*
X114749989Y-116434422D01*
X114749989Y-114723015D02*
X115425002Y-114048002D01*
X115425002Y-114048002D02*
X115425002Y-113251998D01*
X113025000Y-110281670D02*
X113025000Y-110200000D01*
X115425002Y-113251998D02*
X114749989Y-112576985D01*
%TO.N,Net-(C2-Pad1)*%
X119025000Y-115025000D02*
X120025000Y-116025000D01*
X115037500Y-118025000D02*
X114562500Y-118500000D01*
X116025000Y-118025000D02*
X115037500Y-118025000D01*
X114562500Y-118259324D02*
X114633150Y-118188674D01*
X114562500Y-118500000D02*
X114562500Y-118259324D01*
X119857460Y-114192540D02*
X119997937Y-114192540D01*
X119025000Y-115025000D02*
X119857460Y-114192540D01*
%TO.N,Net-(D1-Pad1)*%
X127587500Y-103662500D02*
X127625000Y-103700000D01*
X127587500Y-102100000D02*
X127587500Y-103662500D01*
%TO.N,Net-(R9-Pad2)*%
X125000000Y-103700000D02*
X125975000Y-103700000D01*
%TO.N,VDC*%
X115000000Y-107500000D02*
X115000000Y-108450000D01*
X125800000Y-121449998D02*
X126649998Y-121449998D01*
X126649998Y-121449998D02*
X126900000Y-121700000D01*
X124033324Y-129100010D02*
X124799990Y-128333344D01*
X121583345Y-129049989D02*
X122256655Y-129049989D01*
X119806676Y-129100010D02*
X121533324Y-129100010D01*
X112400000Y-128212500D02*
X113919166Y-128212500D01*
X117306676Y-129100010D02*
X119033324Y-129100010D01*
X122256655Y-129049989D02*
X122306676Y-129100010D01*
X124799990Y-128333344D02*
X124799990Y-127560010D01*
X114806676Y-129100010D02*
X116533324Y-129100010D01*
X116533324Y-129100010D02*
X116583345Y-129049989D01*
X119083345Y-129049989D02*
X119756655Y-129049989D01*
X122306676Y-129100010D02*
X124033324Y-129100010D01*
X119033324Y-129100010D02*
X119083345Y-129049989D01*
X116583345Y-129049989D02*
X117256655Y-129049989D01*
X119756655Y-129049989D02*
X119806676Y-129100010D01*
X117256655Y-129049989D02*
X117306676Y-129100010D01*
X113919166Y-128212500D02*
X114806676Y-129100010D01*
X121533324Y-129100010D02*
X121583345Y-129049989D01*
X124799990Y-127560010D02*
X126700000Y-125660000D01*
X127149989Y-125210011D02*
X127149989Y-121949989D01*
X126700000Y-125660000D02*
X127149989Y-125210011D01*
X127149989Y-121949989D02*
X126900000Y-121700000D01*
X125636420Y-118999990D02*
X124003270Y-118999990D01*
X124003270Y-118999990D02*
X122065760Y-120937500D01*
X122065760Y-120937500D02*
X121800000Y-120937500D01*
X126212490Y-121012490D02*
X126212490Y-119576060D01*
X126900000Y-121700000D02*
X126212490Y-121012490D01*
X126212490Y-119576060D02*
X125636420Y-118999990D01*
X116787500Y-108662181D02*
X116803835Y-108678516D01*
X116787500Y-108000000D02*
X116787500Y-108662181D01*
%TD*%
D39*
%TO.N,GND*%
X112533261Y-119627403D02*
X112521176Y-119750100D01*
X112521176Y-120649900D01*
X112533261Y-120772597D01*
X112569050Y-120890579D01*
X112583066Y-120916800D01*
X112578969Y-120924465D01*
X112550264Y-121019092D01*
X112543000Y-121092848D01*
X112543000Y-121092857D01*
X112540573Y-121117500D01*
X112543000Y-121142143D01*
X112543000Y-121779840D01*
X112463798Y-121812647D01*
X112262833Y-121946927D01*
X112091927Y-122117833D01*
X111957647Y-122318798D01*
X111865153Y-122542097D01*
X111818000Y-122779151D01*
X111818000Y-123020849D01*
X111865153Y-123257903D01*
X111921349Y-123393571D01*
X111905265Y-123446591D01*
X111895573Y-123545000D01*
X111898001Y-123569653D01*
X111898001Y-124346176D01*
X111774750Y-124346176D01*
X111652121Y-124358254D01*
X111534205Y-124394023D01*
X111425533Y-124452110D01*
X111330281Y-124530281D01*
X111252110Y-124625533D01*
X111194023Y-124734205D01*
X111158254Y-124852121D01*
X111146176Y-124974750D01*
X111146176Y-125600250D01*
X111158254Y-125722879D01*
X111194023Y-125840795D01*
X111252110Y-125949467D01*
X111321176Y-126033624D01*
X111321176Y-126099900D01*
X111333261Y-126222597D01*
X111369050Y-126340579D01*
X111427169Y-126449311D01*
X111505384Y-126544616D01*
X111600689Y-126622831D01*
X111709421Y-126680950D01*
X111827403Y-126716739D01*
X111950100Y-126728824D01*
X112849900Y-126728824D01*
X112972597Y-126716739D01*
X113090579Y-126680950D01*
X113199311Y-126622831D01*
X113294616Y-126544616D01*
X113372831Y-126449311D01*
X113430950Y-126340579D01*
X113466739Y-126222597D01*
X113478824Y-126099900D01*
X113478824Y-126033624D01*
X113547890Y-125949467D01*
X113605977Y-125840795D01*
X113641746Y-125722879D01*
X113653824Y-125600250D01*
X113653824Y-124974750D01*
X113641746Y-124852121D01*
X113605977Y-124734205D01*
X113547890Y-124625533D01*
X113469719Y-124530281D01*
X113374467Y-124452110D01*
X113265795Y-124394023D01*
X113147879Y-124358254D01*
X113025250Y-124346176D01*
X112902000Y-124346176D01*
X112902000Y-124122594D01*
X112924151Y-124127000D01*
X113165849Y-124127000D01*
X113402903Y-124079847D01*
X113626202Y-123987353D01*
X113827167Y-123853073D01*
X113908000Y-123772240D01*
X113907999Y-126927856D01*
X113905572Y-126952499D01*
X113907999Y-126977142D01*
X113907999Y-126977151D01*
X113915263Y-127050907D01*
X113943968Y-127145534D01*
X113990582Y-127232744D01*
X114053315Y-127309183D01*
X114072466Y-127324900D01*
X114450698Y-127703132D01*
X114428254Y-127777121D01*
X114416176Y-127899750D01*
X114416176Y-127999576D01*
X114291565Y-127874965D01*
X114275850Y-127855816D01*
X114199411Y-127793083D01*
X114112202Y-127746469D01*
X114017575Y-127717764D01*
X113943819Y-127710500D01*
X113943809Y-127710500D01*
X113919166Y-127708073D01*
X113894523Y-127710500D01*
X113621537Y-127710500D01*
X113605977Y-127659205D01*
X113547890Y-127550533D01*
X113478824Y-127466376D01*
X113478824Y-127400100D01*
X113466739Y-127277403D01*
X113430950Y-127159421D01*
X113372831Y-127050689D01*
X113294616Y-126955384D01*
X113199311Y-126877169D01*
X113090579Y-126819050D01*
X112972597Y-126783261D01*
X112849900Y-126771176D01*
X111950100Y-126771176D01*
X111827403Y-126783261D01*
X111709421Y-126819050D01*
X111600689Y-126877169D01*
X111505384Y-126955384D01*
X111427169Y-127050689D01*
X111369050Y-127159421D01*
X111333261Y-127277403D01*
X111321176Y-127400100D01*
X111321176Y-127466376D01*
X111252110Y-127550533D01*
X111194023Y-127659205D01*
X111158254Y-127777121D01*
X111146176Y-127899750D01*
X111146176Y-128525250D01*
X111158254Y-128647879D01*
X111194023Y-128765795D01*
X111252110Y-128874467D01*
X111330281Y-128969719D01*
X111425533Y-129047890D01*
X111534205Y-129105977D01*
X111652121Y-129141746D01*
X111774750Y-129153824D01*
X113025250Y-129153824D01*
X113147879Y-129141746D01*
X113265795Y-129105977D01*
X113374467Y-129047890D01*
X113469719Y-128969719D01*
X113547890Y-128874467D01*
X113605977Y-128765795D01*
X113621537Y-128714500D01*
X113711232Y-128714500D01*
X114434283Y-129437553D01*
X114449992Y-129456694D01*
X114469132Y-129472402D01*
X114469140Y-129472410D01*
X114526430Y-129519427D01*
X114549912Y-129531978D01*
X114613640Y-129566041D01*
X114636581Y-129573000D01*
X110920883Y-129573000D01*
X110789101Y-129560078D01*
X110682430Y-129527873D01*
X110584039Y-129475558D01*
X110497687Y-129405130D01*
X110426657Y-129319270D01*
X110373661Y-129221255D01*
X110340710Y-129114807D01*
X110327000Y-128984371D01*
X110327000Y-121308060D01*
X110375533Y-121347890D01*
X110484205Y-121405977D01*
X110602121Y-121441746D01*
X110724750Y-121453824D01*
X111350250Y-121453824D01*
X111472879Y-121441746D01*
X111590795Y-121405977D01*
X111699467Y-121347890D01*
X111783624Y-121278824D01*
X111849900Y-121278824D01*
X111972597Y-121266739D01*
X112090579Y-121230950D01*
X112199311Y-121172831D01*
X112294616Y-121094616D01*
X112372831Y-120999311D01*
X112430950Y-120890579D01*
X112466739Y-120772597D01*
X112478824Y-120649900D01*
X112478824Y-119750100D01*
X112466739Y-119627403D01*
X112461793Y-119611098D01*
X112538491Y-119610162D01*
X112533261Y-119627403D01*
%TA.AperFunction,Conductor*%
D40*
G36*
X112533261Y-119627403D02*
G01*
X112521176Y-119750100D01*
X112521176Y-120649900D01*
X112533261Y-120772597D01*
X112569050Y-120890579D01*
X112583066Y-120916800D01*
X112578969Y-120924465D01*
X112550264Y-121019092D01*
X112543000Y-121092848D01*
X112543000Y-121092857D01*
X112540573Y-121117500D01*
X112543000Y-121142143D01*
X112543000Y-121779840D01*
X112463798Y-121812647D01*
X112262833Y-121946927D01*
X112091927Y-122117833D01*
X111957647Y-122318798D01*
X111865153Y-122542097D01*
X111818000Y-122779151D01*
X111818000Y-123020849D01*
X111865153Y-123257903D01*
X111921349Y-123393571D01*
X111905265Y-123446591D01*
X111895573Y-123545000D01*
X111898001Y-123569653D01*
X111898001Y-124346176D01*
X111774750Y-124346176D01*
X111652121Y-124358254D01*
X111534205Y-124394023D01*
X111425533Y-124452110D01*
X111330281Y-124530281D01*
X111252110Y-124625533D01*
X111194023Y-124734205D01*
X111158254Y-124852121D01*
X111146176Y-124974750D01*
X111146176Y-125600250D01*
X111158254Y-125722879D01*
X111194023Y-125840795D01*
X111252110Y-125949467D01*
X111321176Y-126033624D01*
X111321176Y-126099900D01*
X111333261Y-126222597D01*
X111369050Y-126340579D01*
X111427169Y-126449311D01*
X111505384Y-126544616D01*
X111600689Y-126622831D01*
X111709421Y-126680950D01*
X111827403Y-126716739D01*
X111950100Y-126728824D01*
X112849900Y-126728824D01*
X112972597Y-126716739D01*
X113090579Y-126680950D01*
X113199311Y-126622831D01*
X113294616Y-126544616D01*
X113372831Y-126449311D01*
X113430950Y-126340579D01*
X113466739Y-126222597D01*
X113478824Y-126099900D01*
X113478824Y-126033624D01*
X113547890Y-125949467D01*
X113605977Y-125840795D01*
X113641746Y-125722879D01*
X113653824Y-125600250D01*
X113653824Y-124974750D01*
X113641746Y-124852121D01*
X113605977Y-124734205D01*
X113547890Y-124625533D01*
X113469719Y-124530281D01*
X113374467Y-124452110D01*
X113265795Y-124394023D01*
X113147879Y-124358254D01*
X113025250Y-124346176D01*
X112902000Y-124346176D01*
X112902000Y-124122594D01*
X112924151Y-124127000D01*
X113165849Y-124127000D01*
X113402903Y-124079847D01*
X113626202Y-123987353D01*
X113827167Y-123853073D01*
X113908000Y-123772240D01*
X113907999Y-126927856D01*
X113905572Y-126952499D01*
X113907999Y-126977142D01*
X113907999Y-126977151D01*
X113915263Y-127050907D01*
X113943968Y-127145534D01*
X113990582Y-127232744D01*
X114053315Y-127309183D01*
X114072466Y-127324900D01*
X114450698Y-127703132D01*
X114428254Y-127777121D01*
X114416176Y-127899750D01*
X114416176Y-127999576D01*
X114291565Y-127874965D01*
X114275850Y-127855816D01*
X114199411Y-127793083D01*
X114112202Y-127746469D01*
X114017575Y-127717764D01*
X113943819Y-127710500D01*
X113943809Y-127710500D01*
X113919166Y-127708073D01*
X113894523Y-127710500D01*
X113621537Y-127710500D01*
X113605977Y-127659205D01*
X113547890Y-127550533D01*
X113478824Y-127466376D01*
X113478824Y-127400100D01*
X113466739Y-127277403D01*
X113430950Y-127159421D01*
X113372831Y-127050689D01*
X113294616Y-126955384D01*
X113199311Y-126877169D01*
X113090579Y-126819050D01*
X112972597Y-126783261D01*
X112849900Y-126771176D01*
X111950100Y-126771176D01*
X111827403Y-126783261D01*
X111709421Y-126819050D01*
X111600689Y-126877169D01*
X111505384Y-126955384D01*
X111427169Y-127050689D01*
X111369050Y-127159421D01*
X111333261Y-127277403D01*
X111321176Y-127400100D01*
X111321176Y-127466376D01*
X111252110Y-127550533D01*
X111194023Y-127659205D01*
X111158254Y-127777121D01*
X111146176Y-127899750D01*
X111146176Y-128525250D01*
X111158254Y-128647879D01*
X111194023Y-128765795D01*
X111252110Y-128874467D01*
X111330281Y-128969719D01*
X111425533Y-129047890D01*
X111534205Y-129105977D01*
X111652121Y-129141746D01*
X111774750Y-129153824D01*
X113025250Y-129153824D01*
X113147879Y-129141746D01*
X113265795Y-129105977D01*
X113374467Y-129047890D01*
X113469719Y-128969719D01*
X113547890Y-128874467D01*
X113605977Y-128765795D01*
X113621537Y-128714500D01*
X113711232Y-128714500D01*
X114434283Y-129437553D01*
X114449992Y-129456694D01*
X114469132Y-129472402D01*
X114469140Y-129472410D01*
X114526430Y-129519427D01*
X114549912Y-129531978D01*
X114613640Y-129566041D01*
X114636581Y-129573000D01*
X110920883Y-129573000D01*
X110789101Y-129560078D01*
X110682430Y-129527873D01*
X110584039Y-129475558D01*
X110497687Y-129405130D01*
X110426657Y-129319270D01*
X110373661Y-129221255D01*
X110340710Y-129114807D01*
X110327000Y-128984371D01*
X110327000Y-121308060D01*
X110375533Y-121347890D01*
X110484205Y-121405977D01*
X110602121Y-121441746D01*
X110724750Y-121453824D01*
X111350250Y-121453824D01*
X111472879Y-121441746D01*
X111590795Y-121405977D01*
X111699467Y-121347890D01*
X111783624Y-121278824D01*
X111849900Y-121278824D01*
X111972597Y-121266739D01*
X112090579Y-121230950D01*
X112199311Y-121172831D01*
X112294616Y-121094616D01*
X112372831Y-120999311D01*
X112430950Y-120890579D01*
X112466739Y-120772597D01*
X112478824Y-120649900D01*
X112478824Y-119750100D01*
X112466739Y-119627403D01*
X112461793Y-119611098D01*
X112538491Y-119610162D01*
X112533261Y-119627403D01*
G37*
%TD.AperFunction*%
D39*
X125211928Y-129050000D02*
X125224188Y-129174482D01*
X125260498Y-129294180D01*
X125319463Y-129404494D01*
X125398815Y-129501185D01*
X125486322Y-129573000D01*
X124203419Y-129573000D01*
X124226360Y-129566041D01*
X124313569Y-129519427D01*
X124390008Y-129456694D01*
X124405725Y-129437543D01*
X125137528Y-128705741D01*
X125156674Y-128690028D01*
X125191266Y-128647879D01*
X125214270Y-128619848D01*
X125211928Y-129050000D01*
%TA.AperFunction,Conductor*%
D40*
G36*
X125211928Y-129050000D02*
G01*
X125224188Y-129174482D01*
X125260498Y-129294180D01*
X125319463Y-129404494D01*
X125398815Y-129501185D01*
X125486322Y-129573000D01*
X124203419Y-129573000D01*
X124226360Y-129566041D01*
X124313569Y-129519427D01*
X124390008Y-129456694D01*
X124405725Y-129437543D01*
X125137528Y-128705741D01*
X125156674Y-128690028D01*
X125191266Y-128647879D01*
X125214270Y-128619848D01*
X125211928Y-129050000D01*
G37*
%TD.AperFunction*%
D39*
X127727000Y-121551250D02*
X127885750Y-121710000D01*
X128162500Y-121713072D01*
X128286982Y-121700812D01*
X128406680Y-121664502D01*
X128473000Y-121629053D01*
X128473000Y-128979117D01*
X128460078Y-129110899D01*
X128427873Y-129217570D01*
X128375558Y-129315961D01*
X128305130Y-129402313D01*
X128219270Y-129473343D01*
X128121255Y-129526339D01*
X128014807Y-129559290D01*
X127917983Y-129569467D01*
X128001185Y-129501185D01*
X128080537Y-129404494D01*
X128139502Y-129294180D01*
X128175812Y-129174482D01*
X128188072Y-129050000D01*
X128185000Y-128485750D01*
X128026250Y-128327000D01*
X126827000Y-128327000D01*
X126827000Y-128347000D01*
X126573000Y-128347000D01*
X126573000Y-128327000D01*
X126553000Y-128327000D01*
X126553000Y-128073000D01*
X126573000Y-128073000D01*
X126573000Y-128053000D01*
X126827000Y-128053000D01*
X126827000Y-128073000D01*
X128026250Y-128073000D01*
X128185000Y-127914250D01*
X128188072Y-127350000D01*
X128175812Y-127225518D01*
X128139502Y-127105820D01*
X128080537Y-126995506D01*
X128001185Y-126898815D01*
X127904494Y-126819463D01*
X127794180Y-126760498D01*
X127674482Y-126724188D01*
X127550000Y-126711928D01*
X127332447Y-126713112D01*
X127482167Y-126613073D01*
X127653073Y-126442167D01*
X127787353Y-126241202D01*
X127879847Y-126017903D01*
X127927000Y-125780849D01*
X127927000Y-125539151D01*
X127879847Y-125302097D01*
X127787353Y-125078798D01*
X127653073Y-124877833D01*
X127651989Y-124876749D01*
X127651989Y-121974632D01*
X127654416Y-121949989D01*
X127651989Y-121925346D01*
X127651989Y-121925336D01*
X127644725Y-121851580D01*
X127616020Y-121756953D01*
X127569406Y-121669744D01*
X127523468Y-121613769D01*
X127522389Y-121612454D01*
X127522386Y-121612451D01*
X127506673Y-121593305D01*
X127487526Y-121577591D01*
X127467092Y-121557158D01*
X127473000Y-121551250D01*
X127473000Y-121536859D01*
X127562500Y-121538072D01*
X127686982Y-121525812D01*
X127727000Y-121513673D01*
X127727000Y-121551250D01*
%TA.AperFunction,Conductor*%
D40*
G36*
X127727000Y-121551250D02*
G01*
X127885750Y-121710000D01*
X128162500Y-121713072D01*
X128286982Y-121700812D01*
X128406680Y-121664502D01*
X128473000Y-121629053D01*
X128473000Y-128979117D01*
X128460078Y-129110899D01*
X128427873Y-129217570D01*
X128375558Y-129315961D01*
X128305130Y-129402313D01*
X128219270Y-129473343D01*
X128121255Y-129526339D01*
X128014807Y-129559290D01*
X127917983Y-129569467D01*
X128001185Y-129501185D01*
X128080537Y-129404494D01*
X128139502Y-129294180D01*
X128175812Y-129174482D01*
X128188072Y-129050000D01*
X128185000Y-128485750D01*
X128026250Y-128327000D01*
X126827000Y-128327000D01*
X126827000Y-128347000D01*
X126573000Y-128347000D01*
X126573000Y-128327000D01*
X126553000Y-128327000D01*
X126553000Y-128073000D01*
X126573000Y-128073000D01*
X126573000Y-128053000D01*
X126827000Y-128053000D01*
X126827000Y-128073000D01*
X128026250Y-128073000D01*
X128185000Y-127914250D01*
X128188072Y-127350000D01*
X128175812Y-127225518D01*
X128139502Y-127105820D01*
X128080537Y-126995506D01*
X128001185Y-126898815D01*
X127904494Y-126819463D01*
X127794180Y-126760498D01*
X127674482Y-126724188D01*
X127550000Y-126711928D01*
X127332447Y-126713112D01*
X127482167Y-126613073D01*
X127653073Y-126442167D01*
X127787353Y-126241202D01*
X127879847Y-126017903D01*
X127927000Y-125780849D01*
X127927000Y-125539151D01*
X127879847Y-125302097D01*
X127787353Y-125078798D01*
X127653073Y-124877833D01*
X127651989Y-124876749D01*
X127651989Y-121974632D01*
X127654416Y-121949989D01*
X127651989Y-121925346D01*
X127651989Y-121925336D01*
X127644725Y-121851580D01*
X127616020Y-121756953D01*
X127569406Y-121669744D01*
X127523468Y-121613769D01*
X127522389Y-121612454D01*
X127522386Y-121612451D01*
X127506673Y-121593305D01*
X127487526Y-121577591D01*
X127467092Y-121557158D01*
X127473000Y-121551250D01*
X127473000Y-121536859D01*
X127562500Y-121538072D01*
X127686982Y-121525812D01*
X127727000Y-121513673D01*
X127727000Y-121551250D01*
G37*
%TD.AperFunction*%
D39*
X125872000Y-122773000D02*
X125892000Y-122773000D01*
X125892000Y-123027000D01*
X125872000Y-123027000D01*
X125872000Y-124226250D01*
X126030750Y-124385000D01*
X126595000Y-124388072D01*
X126647989Y-124382853D01*
X126647989Y-124433000D01*
X126579151Y-124433000D01*
X126342097Y-124480153D01*
X126118798Y-124572647D01*
X125917833Y-124706927D01*
X125746927Y-124877833D01*
X125612647Y-125078798D01*
X125520153Y-125302097D01*
X125473000Y-125539151D01*
X125473000Y-125780849D01*
X125520153Y-126017903D01*
X125552960Y-126097105D01*
X124462453Y-127187613D01*
X124443307Y-127203326D01*
X124427594Y-127222472D01*
X124427591Y-127222475D01*
X124380574Y-127279765D01*
X124333960Y-127366974D01*
X124305255Y-127461601D01*
X124298789Y-127527258D01*
X124248824Y-127466376D01*
X124248824Y-127400100D01*
X124236739Y-127277403D01*
X124200950Y-127159421D01*
X124142831Y-127050689D01*
X124064616Y-126955384D01*
X123969311Y-126877169D01*
X123860579Y-126819050D01*
X123742597Y-126783261D01*
X123619900Y-126771176D01*
X122720100Y-126771176D01*
X122597403Y-126783261D01*
X122479421Y-126819050D01*
X122370689Y-126877169D01*
X122275384Y-126955384D01*
X122197169Y-127050689D01*
X122139050Y-127159421D01*
X122103261Y-127277403D01*
X122091176Y-127400100D01*
X122091176Y-127466376D01*
X122022110Y-127550533D01*
X121964023Y-127659205D01*
X121948463Y-127710500D01*
X121891537Y-127710500D01*
X121875977Y-127659205D01*
X121817890Y-127550533D01*
X121748824Y-127466376D01*
X121748824Y-127400100D01*
X121736739Y-127277403D01*
X121700950Y-127159421D01*
X121642831Y-127050689D01*
X121564616Y-126955384D01*
X121469311Y-126877169D01*
X121360579Y-126819050D01*
X121242597Y-126783261D01*
X121119900Y-126771176D01*
X120220100Y-126771176D01*
X120097403Y-126783261D01*
X119979421Y-126819050D01*
X119870689Y-126877169D01*
X119775384Y-126955384D01*
X119697169Y-127050689D01*
X119639050Y-127159421D01*
X119603261Y-127277403D01*
X119591176Y-127400100D01*
X119591176Y-127466376D01*
X119522110Y-127550533D01*
X119464023Y-127659205D01*
X119448463Y-127710500D01*
X119391537Y-127710500D01*
X119375977Y-127659205D01*
X119317890Y-127550533D01*
X119248824Y-127466376D01*
X119248824Y-127400100D01*
X119236739Y-127277403D01*
X119200950Y-127159421D01*
X119142831Y-127050689D01*
X119064616Y-126955384D01*
X118969311Y-126877169D01*
X118860579Y-126819050D01*
X118742597Y-126783261D01*
X118619900Y-126771176D01*
X117720100Y-126771176D01*
X117597403Y-126783261D01*
X117479421Y-126819050D01*
X117370689Y-126877169D01*
X117275384Y-126955384D01*
X117197169Y-127050689D01*
X117139050Y-127159421D01*
X117103261Y-127277403D01*
X117091176Y-127400100D01*
X117091176Y-127466376D01*
X117022110Y-127550533D01*
X116964023Y-127659205D01*
X116948463Y-127710500D01*
X116891537Y-127710500D01*
X116875977Y-127659205D01*
X116817890Y-127550533D01*
X116748824Y-127466376D01*
X116748824Y-127400100D01*
X116736739Y-127277403D01*
X116700950Y-127159421D01*
X116642831Y-127050689D01*
X116564616Y-126955384D01*
X116469311Y-126877169D01*
X116360579Y-126819050D01*
X116242597Y-126783261D01*
X116119900Y-126771176D01*
X115220100Y-126771176D01*
X115097403Y-126783261D01*
X114984840Y-126817406D01*
X114911999Y-126744565D01*
X114911999Y-126644912D01*
X114979421Y-126680950D01*
X115097403Y-126716739D01*
X115220100Y-126728824D01*
X116119900Y-126728824D01*
X116242597Y-126716739D01*
X116360579Y-126680950D01*
X116469311Y-126622831D01*
X116564616Y-126544616D01*
X116642831Y-126449311D01*
X116700950Y-126340579D01*
X116736739Y-126222597D01*
X116748824Y-126099900D01*
X116748824Y-126033624D01*
X116817890Y-125949467D01*
X116875977Y-125840795D01*
X116911746Y-125722879D01*
X116920000Y-125639075D01*
X116928254Y-125722879D01*
X116964023Y-125840795D01*
X117022110Y-125949467D01*
X117091176Y-126033624D01*
X117091176Y-126099900D01*
X117103261Y-126222597D01*
X117139050Y-126340579D01*
X117197169Y-126449311D01*
X117275384Y-126544616D01*
X117370689Y-126622831D01*
X117479421Y-126680950D01*
X117597403Y-126716739D01*
X117720100Y-126728824D01*
X118619900Y-126728824D01*
X118742597Y-126716739D01*
X118860579Y-126680950D01*
X118969311Y-126622831D01*
X119064616Y-126544616D01*
X119142831Y-126449311D01*
X119200950Y-126340579D01*
X119236739Y-126222597D01*
X119248824Y-126099900D01*
X119248824Y-126033624D01*
X119317890Y-125949467D01*
X119375977Y-125840795D01*
X119411746Y-125722879D01*
X119420000Y-125639075D01*
X119428254Y-125722879D01*
X119464023Y-125840795D01*
X119522110Y-125949467D01*
X119591176Y-126033624D01*
X119591176Y-126099900D01*
X119603261Y-126222597D01*
X119639050Y-126340579D01*
X119697169Y-126449311D01*
X119775384Y-126544616D01*
X119870689Y-126622831D01*
X119979421Y-126680950D01*
X120097403Y-126716739D01*
X120220100Y-126728824D01*
X121119900Y-126728824D01*
X121242597Y-126716739D01*
X121360579Y-126680950D01*
X121469311Y-126622831D01*
X121564616Y-126544616D01*
X121642831Y-126449311D01*
X121700950Y-126340579D01*
X121736739Y-126222597D01*
X121748824Y-126099900D01*
X121748824Y-126033624D01*
X121817890Y-125949467D01*
X121875977Y-125840795D01*
X121911746Y-125722879D01*
X121920000Y-125639075D01*
X121928254Y-125722879D01*
X121964023Y-125840795D01*
X122022110Y-125949467D01*
X122091176Y-126033624D01*
X122091176Y-126099900D01*
X122103261Y-126222597D01*
X122139050Y-126340579D01*
X122197169Y-126449311D01*
X122275384Y-126544616D01*
X122370689Y-126622831D01*
X122479421Y-126680950D01*
X122597403Y-126716739D01*
X122720100Y-126728824D01*
X123619900Y-126728824D01*
X123742597Y-126716739D01*
X123860579Y-126680950D01*
X123969311Y-126622831D01*
X124064616Y-126544616D01*
X124142831Y-126449311D01*
X124200950Y-126340579D01*
X124236739Y-126222597D01*
X124248824Y-126099900D01*
X124248824Y-126033624D01*
X124317890Y-125949467D01*
X124375977Y-125840795D01*
X124411746Y-125722879D01*
X124423824Y-125600250D01*
X124423824Y-124974750D01*
X124411746Y-124852121D01*
X124375977Y-124734205D01*
X124317890Y-124625533D01*
X124239719Y-124530281D01*
X124144467Y-124452110D01*
X124035795Y-124394023D01*
X123917879Y-124358254D01*
X123795250Y-124346176D01*
X123672000Y-124346176D01*
X123672000Y-124034657D01*
X123786202Y-123987353D01*
X123987167Y-123853073D01*
X124158073Y-123682167D01*
X124258112Y-123532447D01*
X124256928Y-123750000D01*
X124269188Y-123874482D01*
X124305498Y-123994180D01*
X124364463Y-124104494D01*
X124443815Y-124201185D01*
X124540506Y-124280537D01*
X124650820Y-124339502D01*
X124770518Y-124375812D01*
X124895000Y-124388072D01*
X125459250Y-124385000D01*
X125618000Y-124226250D01*
X125618000Y-123027000D01*
X125598000Y-123027000D01*
X125598000Y-122773000D01*
X125618000Y-122773000D01*
X125618000Y-122753000D01*
X125872000Y-122753000D01*
X125872000Y-122773000D01*
%TA.AperFunction,Conductor*%
D40*
G36*
X125872000Y-122773000D02*
G01*
X125892000Y-122773000D01*
X125892000Y-123027000D01*
X125872000Y-123027000D01*
X125872000Y-124226250D01*
X126030750Y-124385000D01*
X126595000Y-124388072D01*
X126647989Y-124382853D01*
X126647989Y-124433000D01*
X126579151Y-124433000D01*
X126342097Y-124480153D01*
X126118798Y-124572647D01*
X125917833Y-124706927D01*
X125746927Y-124877833D01*
X125612647Y-125078798D01*
X125520153Y-125302097D01*
X125473000Y-125539151D01*
X125473000Y-125780849D01*
X125520153Y-126017903D01*
X125552960Y-126097105D01*
X124462453Y-127187613D01*
X124443307Y-127203326D01*
X124427594Y-127222472D01*
X124427591Y-127222475D01*
X124380574Y-127279765D01*
X124333960Y-127366974D01*
X124305255Y-127461601D01*
X124298789Y-127527258D01*
X124248824Y-127466376D01*
X124248824Y-127400100D01*
X124236739Y-127277403D01*
X124200950Y-127159421D01*
X124142831Y-127050689D01*
X124064616Y-126955384D01*
X123969311Y-126877169D01*
X123860579Y-126819050D01*
X123742597Y-126783261D01*
X123619900Y-126771176D01*
X122720100Y-126771176D01*
X122597403Y-126783261D01*
X122479421Y-126819050D01*
X122370689Y-126877169D01*
X122275384Y-126955384D01*
X122197169Y-127050689D01*
X122139050Y-127159421D01*
X122103261Y-127277403D01*
X122091176Y-127400100D01*
X122091176Y-127466376D01*
X122022110Y-127550533D01*
X121964023Y-127659205D01*
X121948463Y-127710500D01*
X121891537Y-127710500D01*
X121875977Y-127659205D01*
X121817890Y-127550533D01*
X121748824Y-127466376D01*
X121748824Y-127400100D01*
X121736739Y-127277403D01*
X121700950Y-127159421D01*
X121642831Y-127050689D01*
X121564616Y-126955384D01*
X121469311Y-126877169D01*
X121360579Y-126819050D01*
X121242597Y-126783261D01*
X121119900Y-126771176D01*
X120220100Y-126771176D01*
X120097403Y-126783261D01*
X119979421Y-126819050D01*
X119870689Y-126877169D01*
X119775384Y-126955384D01*
X119697169Y-127050689D01*
X119639050Y-127159421D01*
X119603261Y-127277403D01*
X119591176Y-127400100D01*
X119591176Y-127466376D01*
X119522110Y-127550533D01*
X119464023Y-127659205D01*
X119448463Y-127710500D01*
X119391537Y-127710500D01*
X119375977Y-127659205D01*
X119317890Y-127550533D01*
X119248824Y-127466376D01*
X119248824Y-127400100D01*
X119236739Y-127277403D01*
X119200950Y-127159421D01*
X119142831Y-127050689D01*
X119064616Y-126955384D01*
X118969311Y-126877169D01*
X118860579Y-126819050D01*
X118742597Y-126783261D01*
X118619900Y-126771176D01*
X117720100Y-126771176D01*
X117597403Y-126783261D01*
X117479421Y-126819050D01*
X117370689Y-126877169D01*
X117275384Y-126955384D01*
X117197169Y-127050689D01*
X117139050Y-127159421D01*
X117103261Y-127277403D01*
X117091176Y-127400100D01*
X117091176Y-127466376D01*
X117022110Y-127550533D01*
X116964023Y-127659205D01*
X116948463Y-127710500D01*
X116891537Y-127710500D01*
X116875977Y-127659205D01*
X116817890Y-127550533D01*
X116748824Y-127466376D01*
X116748824Y-127400100D01*
X116736739Y-127277403D01*
X116700950Y-127159421D01*
X116642831Y-127050689D01*
X116564616Y-126955384D01*
X116469311Y-126877169D01*
X116360579Y-126819050D01*
X116242597Y-126783261D01*
X116119900Y-126771176D01*
X115220100Y-126771176D01*
X115097403Y-126783261D01*
X114984840Y-126817406D01*
X114911999Y-126744565D01*
X114911999Y-126644912D01*
X114979421Y-126680950D01*
X115097403Y-126716739D01*
X115220100Y-126728824D01*
X116119900Y-126728824D01*
X116242597Y-126716739D01*
X116360579Y-126680950D01*
X116469311Y-126622831D01*
X116564616Y-126544616D01*
X116642831Y-126449311D01*
X116700950Y-126340579D01*
X116736739Y-126222597D01*
X116748824Y-126099900D01*
X116748824Y-126033624D01*
X116817890Y-125949467D01*
X116875977Y-125840795D01*
X116911746Y-125722879D01*
X116920000Y-125639075D01*
X116928254Y-125722879D01*
X116964023Y-125840795D01*
X117022110Y-125949467D01*
X117091176Y-126033624D01*
X117091176Y-126099900D01*
X117103261Y-126222597D01*
X117139050Y-126340579D01*
X117197169Y-126449311D01*
X117275384Y-126544616D01*
X117370689Y-126622831D01*
X117479421Y-126680950D01*
X117597403Y-126716739D01*
X117720100Y-126728824D01*
X118619900Y-126728824D01*
X118742597Y-126716739D01*
X118860579Y-126680950D01*
X118969311Y-126622831D01*
X119064616Y-126544616D01*
X119142831Y-126449311D01*
X119200950Y-126340579D01*
X119236739Y-126222597D01*
X119248824Y-126099900D01*
X119248824Y-126033624D01*
X119317890Y-125949467D01*
X119375977Y-125840795D01*
X119411746Y-125722879D01*
X119420000Y-125639075D01*
X119428254Y-125722879D01*
X119464023Y-125840795D01*
X119522110Y-125949467D01*
X119591176Y-126033624D01*
X119591176Y-126099900D01*
X119603261Y-126222597D01*
X119639050Y-126340579D01*
X119697169Y-126449311D01*
X119775384Y-126544616D01*
X119870689Y-126622831D01*
X119979421Y-126680950D01*
X120097403Y-126716739D01*
X120220100Y-126728824D01*
X121119900Y-126728824D01*
X121242597Y-126716739D01*
X121360579Y-126680950D01*
X121469311Y-126622831D01*
X121564616Y-126544616D01*
X121642831Y-126449311D01*
X121700950Y-126340579D01*
X121736739Y-126222597D01*
X121748824Y-126099900D01*
X121748824Y-126033624D01*
X121817890Y-125949467D01*
X121875977Y-125840795D01*
X121911746Y-125722879D01*
X121920000Y-125639075D01*
X121928254Y-125722879D01*
X121964023Y-125840795D01*
X122022110Y-125949467D01*
X122091176Y-126033624D01*
X122091176Y-126099900D01*
X122103261Y-126222597D01*
X122139050Y-126340579D01*
X122197169Y-126449311D01*
X122275384Y-126544616D01*
X122370689Y-126622831D01*
X122479421Y-126680950D01*
X122597403Y-126716739D01*
X122720100Y-126728824D01*
X123619900Y-126728824D01*
X123742597Y-126716739D01*
X123860579Y-126680950D01*
X123969311Y-126622831D01*
X124064616Y-126544616D01*
X124142831Y-126449311D01*
X124200950Y-126340579D01*
X124236739Y-126222597D01*
X124248824Y-126099900D01*
X124248824Y-126033624D01*
X124317890Y-125949467D01*
X124375977Y-125840795D01*
X124411746Y-125722879D01*
X124423824Y-125600250D01*
X124423824Y-124974750D01*
X124411746Y-124852121D01*
X124375977Y-124734205D01*
X124317890Y-124625533D01*
X124239719Y-124530281D01*
X124144467Y-124452110D01*
X124035795Y-124394023D01*
X123917879Y-124358254D01*
X123795250Y-124346176D01*
X123672000Y-124346176D01*
X123672000Y-124034657D01*
X123786202Y-123987353D01*
X123987167Y-123853073D01*
X124158073Y-123682167D01*
X124258112Y-123532447D01*
X124256928Y-123750000D01*
X124269188Y-123874482D01*
X124305498Y-123994180D01*
X124364463Y-124104494D01*
X124443815Y-124201185D01*
X124540506Y-124280537D01*
X124650820Y-124339502D01*
X124770518Y-124375812D01*
X124895000Y-124388072D01*
X125459250Y-124385000D01*
X125618000Y-124226250D01*
X125618000Y-123027000D01*
X125598000Y-123027000D01*
X125598000Y-122773000D01*
X125618000Y-122773000D01*
X125618000Y-122753000D01*
X125872000Y-122753000D01*
X125872000Y-122773000D01*
G37*
%TD.AperFunction*%
D39*
X120997866Y-119823901D02*
X121105501Y-119881433D01*
X121222292Y-119916861D01*
X121343750Y-119928824D01*
X122256250Y-119928824D01*
X122376329Y-119916997D01*
X122222150Y-120071176D01*
X121343750Y-120071176D01*
X121222292Y-120083139D01*
X121105501Y-120118567D01*
X120997866Y-120176099D01*
X120903524Y-120253524D01*
X120826099Y-120347866D01*
X120768567Y-120455501D01*
X120733139Y-120572292D01*
X120721176Y-120693750D01*
X120721176Y-121181250D01*
X120733139Y-121302708D01*
X120768567Y-121419499D01*
X120826099Y-121527134D01*
X120903524Y-121621476D01*
X120997866Y-121698901D01*
X121088322Y-121747250D01*
X121022903Y-121720153D01*
X120785849Y-121673000D01*
X120544151Y-121673000D01*
X120307097Y-121720153D01*
X120083798Y-121812647D01*
X119882833Y-121946927D01*
X119711927Y-122117833D01*
X119577647Y-122318798D01*
X119485153Y-122542097D01*
X119438000Y-122779151D01*
X119438000Y-123020849D01*
X119485153Y-123257903D01*
X119577647Y-123481202D01*
X119711927Y-123682167D01*
X119882833Y-123853073D01*
X120083798Y-123987353D01*
X120168001Y-124022231D01*
X120168000Y-124346176D01*
X120044750Y-124346176D01*
X119922121Y-124358254D01*
X119804205Y-124394023D01*
X119695533Y-124452110D01*
X119600281Y-124530281D01*
X119522110Y-124625533D01*
X119464023Y-124734205D01*
X119428254Y-124852121D01*
X119420000Y-124935925D01*
X119411746Y-124852121D01*
X119375977Y-124734205D01*
X119317890Y-124625533D01*
X119239719Y-124530281D01*
X119144467Y-124452110D01*
X119035795Y-124394023D01*
X118917879Y-124358254D01*
X118795250Y-124346176D01*
X118672000Y-124346176D01*
X118672000Y-124001520D01*
X118706202Y-123987353D01*
X118907167Y-123853073D01*
X119078073Y-123682167D01*
X119212353Y-123481202D01*
X119304847Y-123257903D01*
X119352000Y-123020849D01*
X119352000Y-122779151D01*
X119304847Y-122542097D01*
X119212353Y-122318798D01*
X119078073Y-122117833D01*
X118907167Y-121946927D01*
X118706202Y-121812647D01*
X118482903Y-121720153D01*
X118245849Y-121673000D01*
X118004151Y-121673000D01*
X117767097Y-121720153D01*
X117543798Y-121812647D01*
X117342833Y-121946927D01*
X117171927Y-122117833D01*
X117037647Y-122318798D01*
X116945153Y-122542097D01*
X116898000Y-122779151D01*
X116898000Y-123020849D01*
X116945153Y-123257903D01*
X117037647Y-123481202D01*
X117171927Y-123682167D01*
X117342833Y-123853073D01*
X117543798Y-123987353D01*
X117668001Y-124038800D01*
X117668000Y-124346176D01*
X117544750Y-124346176D01*
X117422121Y-124358254D01*
X117304205Y-124394023D01*
X117195533Y-124452110D01*
X117100281Y-124530281D01*
X117022110Y-124625533D01*
X116964023Y-124734205D01*
X116928254Y-124852121D01*
X116920000Y-124935925D01*
X116911746Y-124852121D01*
X116875977Y-124734205D01*
X116817890Y-124625533D01*
X116739719Y-124530281D01*
X116644467Y-124452110D01*
X116535795Y-124394023D01*
X116417879Y-124358254D01*
X116295250Y-124346176D01*
X116172000Y-124346176D01*
X116172000Y-123983479D01*
X116367167Y-123853073D01*
X116538073Y-123682167D01*
X116672353Y-123481202D01*
X116764847Y-123257903D01*
X116812000Y-123020849D01*
X116812000Y-122779151D01*
X116764847Y-122542097D01*
X116672353Y-122318798D01*
X116538073Y-122117833D01*
X116367167Y-121946927D01*
X116166202Y-121812647D01*
X115942903Y-121720153D01*
X115770143Y-121685789D01*
X117103923Y-120352010D01*
X120194349Y-120352010D01*
X120218992Y-120354437D01*
X120243635Y-120352010D01*
X120243645Y-120352010D01*
X120317401Y-120344746D01*
X120412028Y-120316041D01*
X120499237Y-120269427D01*
X120575676Y-120206694D01*
X120591393Y-120187543D01*
X120917544Y-119861394D01*
X120936685Y-119845685D01*
X120952393Y-119826545D01*
X120952401Y-119826537D01*
X120971991Y-119802666D01*
X120997866Y-119823901D01*
%TA.AperFunction,Conductor*%
D40*
G36*
X120997866Y-119823901D02*
G01*
X121105501Y-119881433D01*
X121222292Y-119916861D01*
X121343750Y-119928824D01*
X122256250Y-119928824D01*
X122376329Y-119916997D01*
X122222150Y-120071176D01*
X121343750Y-120071176D01*
X121222292Y-120083139D01*
X121105501Y-120118567D01*
X120997866Y-120176099D01*
X120903524Y-120253524D01*
X120826099Y-120347866D01*
X120768567Y-120455501D01*
X120733139Y-120572292D01*
X120721176Y-120693750D01*
X120721176Y-121181250D01*
X120733139Y-121302708D01*
X120768567Y-121419499D01*
X120826099Y-121527134D01*
X120903524Y-121621476D01*
X120997866Y-121698901D01*
X121088322Y-121747250D01*
X121022903Y-121720153D01*
X120785849Y-121673000D01*
X120544151Y-121673000D01*
X120307097Y-121720153D01*
X120083798Y-121812647D01*
X119882833Y-121946927D01*
X119711927Y-122117833D01*
X119577647Y-122318798D01*
X119485153Y-122542097D01*
X119438000Y-122779151D01*
X119438000Y-123020849D01*
X119485153Y-123257903D01*
X119577647Y-123481202D01*
X119711927Y-123682167D01*
X119882833Y-123853073D01*
X120083798Y-123987353D01*
X120168001Y-124022231D01*
X120168000Y-124346176D01*
X120044750Y-124346176D01*
X119922121Y-124358254D01*
X119804205Y-124394023D01*
X119695533Y-124452110D01*
X119600281Y-124530281D01*
X119522110Y-124625533D01*
X119464023Y-124734205D01*
X119428254Y-124852121D01*
X119420000Y-124935925D01*
X119411746Y-124852121D01*
X119375977Y-124734205D01*
X119317890Y-124625533D01*
X119239719Y-124530281D01*
X119144467Y-124452110D01*
X119035795Y-124394023D01*
X118917879Y-124358254D01*
X118795250Y-124346176D01*
X118672000Y-124346176D01*
X118672000Y-124001520D01*
X118706202Y-123987353D01*
X118907167Y-123853073D01*
X119078073Y-123682167D01*
X119212353Y-123481202D01*
X119304847Y-123257903D01*
X119352000Y-123020849D01*
X119352000Y-122779151D01*
X119304847Y-122542097D01*
X119212353Y-122318798D01*
X119078073Y-122117833D01*
X118907167Y-121946927D01*
X118706202Y-121812647D01*
X118482903Y-121720153D01*
X118245849Y-121673000D01*
X118004151Y-121673000D01*
X117767097Y-121720153D01*
X117543798Y-121812647D01*
X117342833Y-121946927D01*
X117171927Y-122117833D01*
X117037647Y-122318798D01*
X116945153Y-122542097D01*
X116898000Y-122779151D01*
X116898000Y-123020849D01*
X116945153Y-123257903D01*
X117037647Y-123481202D01*
X117171927Y-123682167D01*
X117342833Y-123853073D01*
X117543798Y-123987353D01*
X117668001Y-124038800D01*
X117668000Y-124346176D01*
X117544750Y-124346176D01*
X117422121Y-124358254D01*
X117304205Y-124394023D01*
X117195533Y-124452110D01*
X117100281Y-124530281D01*
X117022110Y-124625533D01*
X116964023Y-124734205D01*
X116928254Y-124852121D01*
X116920000Y-124935925D01*
X116911746Y-124852121D01*
X116875977Y-124734205D01*
X116817890Y-124625533D01*
X116739719Y-124530281D01*
X116644467Y-124452110D01*
X116535795Y-124394023D01*
X116417879Y-124358254D01*
X116295250Y-124346176D01*
X116172000Y-124346176D01*
X116172000Y-123983479D01*
X116367167Y-123853073D01*
X116538073Y-123682167D01*
X116672353Y-123481202D01*
X116764847Y-123257903D01*
X116812000Y-123020849D01*
X116812000Y-122779151D01*
X116764847Y-122542097D01*
X116672353Y-122318798D01*
X116538073Y-122117833D01*
X116367167Y-121946927D01*
X116166202Y-121812647D01*
X115942903Y-121720153D01*
X115770143Y-121685789D01*
X117103923Y-120352010D01*
X120194349Y-120352010D01*
X120218992Y-120354437D01*
X120243635Y-120352010D01*
X120243645Y-120352010D01*
X120317401Y-120344746D01*
X120412028Y-120316041D01*
X120499237Y-120269427D01*
X120575676Y-120206694D01*
X120591393Y-120187543D01*
X120917544Y-119861394D01*
X120936685Y-119845685D01*
X120952393Y-119826545D01*
X120952401Y-119826537D01*
X120971991Y-119802666D01*
X120997866Y-119823901D01*
G37*
%TD.AperFunction*%
D39*
X127747000Y-120327000D02*
X127453000Y-120327000D01*
X127453000Y-120073000D01*
X127747000Y-120073000D01*
X127747000Y-120327000D01*
%TA.AperFunction,Conductor*%
D40*
G36*
X127747000Y-120327000D02*
G01*
X127453000Y-120327000D01*
X127453000Y-120073000D01*
X127747000Y-120073000D01*
X127747000Y-120327000D01*
G37*
%TD.AperFunction*%
D39*
X127178750Y-115695000D02*
X127276665Y-115678540D01*
X127325520Y-115660915D01*
X128038397Y-116373792D01*
X128287472Y-116296157D01*
X128413371Y-116032117D01*
X128473000Y-115797198D01*
X128473000Y-118770948D01*
X128406680Y-118735498D01*
X128286982Y-118699188D01*
X128162500Y-118686928D01*
X127885750Y-118690000D01*
X127727000Y-118848750D01*
X127727000Y-118886327D01*
X127686982Y-118874188D01*
X127562500Y-118861928D01*
X127473000Y-118863141D01*
X127473000Y-118848750D01*
X127314250Y-118690000D01*
X127037500Y-118686928D01*
X126913018Y-118699188D01*
X126793320Y-118735498D01*
X126683006Y-118794463D01*
X126599771Y-118862772D01*
X126537500Y-118861928D01*
X126413018Y-118874188D01*
X126293320Y-118910498D01*
X126269562Y-118923197D01*
X126008821Y-118662457D01*
X125993104Y-118643306D01*
X125916665Y-118580573D01*
X125829456Y-118533959D01*
X125734829Y-118505254D01*
X125661073Y-118497990D01*
X125661063Y-118497990D01*
X125636420Y-118495563D01*
X125611777Y-118497990D01*
X124027913Y-118497990D01*
X124003270Y-118495563D01*
X123978627Y-118497990D01*
X123978617Y-118497990D01*
X123904861Y-118505254D01*
X123810234Y-118533959D01*
X123723025Y-118580573D01*
X123723023Y-118580574D01*
X123723024Y-118580574D01*
X123666455Y-118627000D01*
X123646586Y-118643306D01*
X123630873Y-118662452D01*
X122866997Y-119426329D01*
X122878824Y-119306250D01*
X122878824Y-118818750D01*
X122875369Y-118783677D01*
X122995309Y-118703536D01*
X123103536Y-118595309D01*
X123188569Y-118468048D01*
X123247141Y-118326643D01*
X123277000Y-118176528D01*
X123277000Y-118023472D01*
X123247141Y-117873357D01*
X123188569Y-117731952D01*
X123103536Y-117604691D01*
X123000845Y-117502000D01*
X125103155Y-117502000D01*
X125104691Y-117503536D01*
X125231952Y-117588569D01*
X125373357Y-117647141D01*
X125523472Y-117677000D01*
X125676528Y-117677000D01*
X125826643Y-117647141D01*
X125968048Y-117588569D01*
X126095309Y-117503536D01*
X126203536Y-117395309D01*
X126288569Y-117268048D01*
X126347141Y-117126643D01*
X126377000Y-116976528D01*
X126377000Y-116868348D01*
X126502883Y-116928371D01*
X126786411Y-117000339D01*
X127078531Y-117015611D01*
X127368019Y-116973599D01*
X127643747Y-116875919D01*
X127781157Y-116802472D01*
X127858792Y-116553397D01*
X127010000Y-115704605D01*
X126995858Y-115718748D01*
X126916680Y-115639570D01*
X127020000Y-115536250D01*
X127178750Y-115695000D01*
%TA.AperFunction,Conductor*%
D40*
G36*
X127178750Y-115695000D02*
G01*
X127276665Y-115678540D01*
X127325520Y-115660915D01*
X128038397Y-116373792D01*
X128287472Y-116296157D01*
X128413371Y-116032117D01*
X128473000Y-115797198D01*
X128473000Y-118770948D01*
X128406680Y-118735498D01*
X128286982Y-118699188D01*
X128162500Y-118686928D01*
X127885750Y-118690000D01*
X127727000Y-118848750D01*
X127727000Y-118886327D01*
X127686982Y-118874188D01*
X127562500Y-118861928D01*
X127473000Y-118863141D01*
X127473000Y-118848750D01*
X127314250Y-118690000D01*
X127037500Y-118686928D01*
X126913018Y-118699188D01*
X126793320Y-118735498D01*
X126683006Y-118794463D01*
X126599771Y-118862772D01*
X126537500Y-118861928D01*
X126413018Y-118874188D01*
X126293320Y-118910498D01*
X126269562Y-118923197D01*
X126008821Y-118662457D01*
X125993104Y-118643306D01*
X125916665Y-118580573D01*
X125829456Y-118533959D01*
X125734829Y-118505254D01*
X125661073Y-118497990D01*
X125661063Y-118497990D01*
X125636420Y-118495563D01*
X125611777Y-118497990D01*
X124027913Y-118497990D01*
X124003270Y-118495563D01*
X123978627Y-118497990D01*
X123978617Y-118497990D01*
X123904861Y-118505254D01*
X123810234Y-118533959D01*
X123723025Y-118580573D01*
X123723023Y-118580574D01*
X123723024Y-118580574D01*
X123666455Y-118627000D01*
X123646586Y-118643306D01*
X123630873Y-118662452D01*
X122866997Y-119426329D01*
X122878824Y-119306250D01*
X122878824Y-118818750D01*
X122875369Y-118783677D01*
X122995309Y-118703536D01*
X123103536Y-118595309D01*
X123188569Y-118468048D01*
X123247141Y-118326643D01*
X123277000Y-118176528D01*
X123277000Y-118023472D01*
X123247141Y-117873357D01*
X123188569Y-117731952D01*
X123103536Y-117604691D01*
X123000845Y-117502000D01*
X125103155Y-117502000D01*
X125104691Y-117503536D01*
X125231952Y-117588569D01*
X125373357Y-117647141D01*
X125523472Y-117677000D01*
X125676528Y-117677000D01*
X125826643Y-117647141D01*
X125968048Y-117588569D01*
X126095309Y-117503536D01*
X126203536Y-117395309D01*
X126288569Y-117268048D01*
X126347141Y-117126643D01*
X126377000Y-116976528D01*
X126377000Y-116868348D01*
X126502883Y-116928371D01*
X126786411Y-117000339D01*
X127078531Y-117015611D01*
X127368019Y-116973599D01*
X127643747Y-116875919D01*
X127781157Y-116802472D01*
X127858792Y-116553397D01*
X127010000Y-115704605D01*
X126995858Y-115718748D01*
X126916680Y-115639570D01*
X127020000Y-115536250D01*
X127178750Y-115695000D01*
G37*
%TD.AperFunction*%
D39*
X110800012Y-114880030D02*
X110778455Y-114951095D01*
X110771176Y-115025000D01*
X110771176Y-115475000D01*
X110778455Y-115548905D01*
X110800012Y-115619970D01*
X110835019Y-115685463D01*
X110882131Y-115742869D01*
X110886690Y-115746610D01*
X110808220Y-115786184D01*
X110709670Y-115863215D01*
X110628041Y-115957992D01*
X110566471Y-116066873D01*
X110527325Y-116185674D01*
X110515000Y-116293250D01*
X110673750Y-116452000D01*
X111373000Y-116452000D01*
X111373000Y-116403000D01*
X111627000Y-116403000D01*
X111627000Y-116452000D01*
X111647000Y-116452000D01*
X111647000Y-116648000D01*
X111627000Y-116648000D01*
X111627000Y-116697000D01*
X111373000Y-116697000D01*
X111373000Y-116648000D01*
X110673750Y-116648000D01*
X110515000Y-116806750D01*
X110527325Y-116914326D01*
X110566471Y-117033127D01*
X110628041Y-117142008D01*
X110709670Y-117236785D01*
X110808220Y-117313816D01*
X110919905Y-117370141D01*
X111040433Y-117403594D01*
X111165171Y-117412892D01*
X111214250Y-117410000D01*
X111372998Y-117251252D01*
X111372998Y-117389654D01*
X111249963Y-117512689D01*
X111230817Y-117528402D01*
X111215104Y-117547548D01*
X111215101Y-117547551D01*
X111168084Y-117604841D01*
X111121470Y-117692050D01*
X111092765Y-117786677D01*
X111083073Y-117885086D01*
X111085501Y-117909739D01*
X111085501Y-118946176D01*
X110724750Y-118946176D01*
X110602121Y-118958254D01*
X110484205Y-118994023D01*
X110375533Y-119052110D01*
X110327000Y-119091940D01*
X110327000Y-114840810D01*
X110820976Y-114840810D01*
X110800012Y-114880030D01*
%TA.AperFunction,Conductor*%
D40*
G36*
X110800012Y-114880030D02*
G01*
X110778455Y-114951095D01*
X110771176Y-115025000D01*
X110771176Y-115475000D01*
X110778455Y-115548905D01*
X110800012Y-115619970D01*
X110835019Y-115685463D01*
X110882131Y-115742869D01*
X110886690Y-115746610D01*
X110808220Y-115786184D01*
X110709670Y-115863215D01*
X110628041Y-115957992D01*
X110566471Y-116066873D01*
X110527325Y-116185674D01*
X110515000Y-116293250D01*
X110673750Y-116452000D01*
X111373000Y-116452000D01*
X111373000Y-116403000D01*
X111627000Y-116403000D01*
X111627000Y-116452000D01*
X111647000Y-116452000D01*
X111647000Y-116648000D01*
X111627000Y-116648000D01*
X111627000Y-116697000D01*
X111373000Y-116697000D01*
X111373000Y-116648000D01*
X110673750Y-116648000D01*
X110515000Y-116806750D01*
X110527325Y-116914326D01*
X110566471Y-117033127D01*
X110628041Y-117142008D01*
X110709670Y-117236785D01*
X110808220Y-117313816D01*
X110919905Y-117370141D01*
X111040433Y-117403594D01*
X111165171Y-117412892D01*
X111214250Y-117410000D01*
X111372998Y-117251252D01*
X111372998Y-117389654D01*
X111249963Y-117512689D01*
X111230817Y-117528402D01*
X111215104Y-117547548D01*
X111215101Y-117547551D01*
X111168084Y-117604841D01*
X111121470Y-117692050D01*
X111092765Y-117786677D01*
X111083073Y-117885086D01*
X111085501Y-117909739D01*
X111085501Y-118946176D01*
X110724750Y-118946176D01*
X110602121Y-118958254D01*
X110484205Y-118994023D01*
X110375533Y-119052110D01*
X110327000Y-119091940D01*
X110327000Y-114840810D01*
X110820976Y-114840810D01*
X110800012Y-114880030D01*
G37*
%TD.AperFunction*%
D39*
X112964500Y-118373000D02*
X112984500Y-118373000D01*
X112984500Y-118627000D01*
X112964500Y-118627000D01*
X112964500Y-118647000D01*
X112710500Y-118647000D01*
X112710500Y-118627000D01*
X112690500Y-118627000D01*
X112690500Y-118373000D01*
X112710500Y-118373000D01*
X112710500Y-118353000D01*
X112964500Y-118353000D01*
X112964500Y-118373000D01*
%TA.AperFunction,Conductor*%
D40*
G36*
X112964500Y-118373000D02*
G01*
X112984500Y-118373000D01*
X112984500Y-118627000D01*
X112964500Y-118627000D01*
X112964500Y-118647000D01*
X112710500Y-118647000D01*
X112710500Y-118627000D01*
X112690500Y-118627000D01*
X112690500Y-118373000D01*
X112710500Y-118373000D01*
X112710500Y-118353000D01*
X112964500Y-118353000D01*
X112964500Y-118373000D01*
G37*
%TD.AperFunction*%
D39*
X122900621Y-104837553D02*
X122916330Y-104856694D01*
X122935470Y-104872402D01*
X122935478Y-104872410D01*
X122969063Y-104899972D01*
X122992769Y-104919427D01*
X123079978Y-104966041D01*
X123174605Y-104994746D01*
X123248361Y-105002010D01*
X123248371Y-105002010D01*
X123273014Y-105004437D01*
X123297657Y-105002010D01*
X124998001Y-105002010D01*
X124998000Y-105203155D01*
X124896464Y-105304691D01*
X124811431Y-105431952D01*
X124752859Y-105573357D01*
X124723000Y-105723472D01*
X124723000Y-105876528D01*
X124752859Y-106026643D01*
X124811431Y-106168048D01*
X124896464Y-106295309D01*
X125004691Y-106403536D01*
X125131952Y-106488569D01*
X125273357Y-106547141D01*
X125423472Y-106577000D01*
X125553549Y-106577000D01*
X125534661Y-106651411D01*
X125519389Y-106943531D01*
X125561401Y-107233019D01*
X125659081Y-107508747D01*
X125732528Y-107646157D01*
X125981603Y-107723792D01*
X126346073Y-107359323D01*
X126443750Y-107457000D01*
X126607605Y-107457000D01*
X126161208Y-107903397D01*
X126238843Y-108152472D01*
X126439308Y-108248057D01*
X126446095Y-108257259D01*
X126538555Y-108341503D01*
X126645674Y-108406091D01*
X126763335Y-108448540D01*
X126861250Y-108465000D01*
X126966496Y-108359754D01*
X127078531Y-108365611D01*
X127079256Y-108365506D01*
X127178750Y-108465000D01*
X127276665Y-108448540D01*
X127394326Y-108406091D01*
X127501445Y-108341503D01*
X127593905Y-108257259D01*
X127607567Y-108238736D01*
X127643747Y-108225919D01*
X127781157Y-108152472D01*
X127858792Y-107903397D01*
X127412395Y-107457000D01*
X127596250Y-107457000D01*
X127683928Y-107369323D01*
X128038397Y-107723792D01*
X128287472Y-107646157D01*
X128413371Y-107382117D01*
X128473001Y-107147197D01*
X128473001Y-115266216D01*
X128458599Y-115166981D01*
X128360919Y-114891253D01*
X128287472Y-114753843D01*
X128038397Y-114676208D01*
X127688928Y-115025678D01*
X127596250Y-114933000D01*
X127422395Y-114933000D01*
X127858792Y-114496603D01*
X127781157Y-114247528D01*
X127622919Y-114172077D01*
X127593905Y-114132741D01*
X127501445Y-114048497D01*
X127394326Y-113983909D01*
X127276665Y-113941460D01*
X127178750Y-113925000D01*
X127063007Y-114040743D01*
X126972248Y-114035998D01*
X126861250Y-113925000D01*
X126763335Y-113941460D01*
X126645674Y-113983909D01*
X126538555Y-114048497D01*
X126446095Y-114132741D01*
X126429523Y-114155210D01*
X126376253Y-114174081D01*
X126238843Y-114247528D01*
X126161208Y-114496603D01*
X126597605Y-114933000D01*
X126443750Y-114933000D01*
X126341073Y-115035678D01*
X125981603Y-114676208D01*
X125732528Y-114753843D01*
X125606629Y-115017883D01*
X125534661Y-115301411D01*
X125519389Y-115593531D01*
X125561401Y-115883019D01*
X125646417Y-116123000D01*
X125523472Y-116123000D01*
X125373357Y-116152859D01*
X125231952Y-116211431D01*
X125104691Y-116296464D01*
X124996464Y-116404691D01*
X124934117Y-116498000D01*
X123982608Y-116498000D01*
X123965415Y-116480807D01*
X124229814Y-116385044D01*
X124370704Y-116095429D01*
X124452384Y-115783892D01*
X124459537Y-115664951D01*
X124496091Y-115604326D01*
X124538540Y-115486665D01*
X124555000Y-115388750D01*
X124446776Y-115280526D01*
X124434589Y-115191661D01*
X124555000Y-115071250D01*
X124538540Y-114973335D01*
X124496091Y-114855674D01*
X124431503Y-114748555D01*
X124350373Y-114659512D01*
X124421503Y-114581445D01*
X124486091Y-114474326D01*
X124528540Y-114356665D01*
X124545000Y-114258750D01*
X124386250Y-114100000D01*
X124545000Y-113941250D01*
X124528540Y-113843335D01*
X124486091Y-113725674D01*
X124421503Y-113618555D01*
X124337259Y-113526095D01*
X124236595Y-113451847D01*
X124123380Y-113398664D01*
X124001965Y-113368590D01*
X123941750Y-113365000D01*
X123927285Y-113379465D01*
X123884106Y-113336286D01*
X123851811Y-113368581D01*
X123791750Y-113365000D01*
X123787002Y-113369748D01*
X123787002Y-113365000D01*
X123760015Y-113365000D01*
X123754425Y-113262237D01*
X123702000Y-113240407D01*
X123702000Y-109159743D01*
X123751351Y-109139408D01*
X123754425Y-109137763D01*
X123759471Y-109045000D01*
X123787002Y-109045000D01*
X123787002Y-109020252D01*
X123811750Y-109045000D01*
X123862374Y-109041982D01*
X123884106Y-109063714D01*
X123917751Y-109030069D01*
X123925019Y-109028269D01*
X123941750Y-109045000D01*
X124001965Y-109041410D01*
X124123380Y-109011336D01*
X124236595Y-108958153D01*
X124337259Y-108883905D01*
X124421503Y-108791445D01*
X124486091Y-108684326D01*
X124528540Y-108566665D01*
X124545000Y-108468750D01*
X124386250Y-108310000D01*
X124545000Y-108151250D01*
X124528540Y-108053335D01*
X124486091Y-107935674D01*
X124421503Y-107828555D01*
X124355003Y-107755569D01*
X124357259Y-107753905D01*
X124441503Y-107661445D01*
X124506091Y-107554326D01*
X124548540Y-107436665D01*
X124565000Y-107338750D01*
X124433223Y-107206973D01*
X124452384Y-107133892D01*
X124452386Y-107133864D01*
X124565000Y-107021250D01*
X124548540Y-106923335D01*
X124506091Y-106805674D01*
X124460404Y-106729902D01*
X124427961Y-106493325D01*
X124322795Y-106188912D01*
X124229814Y-106014956D01*
X123965413Y-105919192D01*
X123418928Y-106465678D01*
X123398250Y-106445000D01*
X123338035Y-106448590D01*
X123216620Y-106478664D01*
X123103405Y-106531847D01*
X123002741Y-106606095D01*
X122918497Y-106698555D01*
X122853909Y-106805674D01*
X122823665Y-106889505D01*
X122733082Y-106885293D01*
X122645613Y-106898503D01*
X122636253Y-106889143D01*
X122650395Y-106875000D01*
X121694587Y-105919192D01*
X121461368Y-106003662D01*
X121326643Y-105947857D01*
X121176528Y-105917998D01*
X121023472Y-105917998D01*
X120873357Y-105947857D01*
X120731952Y-106006429D01*
X120604691Y-106091462D01*
X120496464Y-106199689D01*
X120411431Y-106326950D01*
X120352859Y-106468355D01*
X120323000Y-106618470D01*
X120323000Y-106771526D01*
X120352859Y-106921641D01*
X120411431Y-107063046D01*
X120496464Y-107190307D01*
X120604691Y-107298534D01*
X120731952Y-107383567D01*
X120843000Y-107429565D01*
X120842999Y-108700356D01*
X120840572Y-108724999D01*
X120842658Y-108746176D01*
X120725000Y-108746176D01*
X120612077Y-108757298D01*
X120503494Y-108790236D01*
X120403423Y-108843725D01*
X120315710Y-108915710D01*
X120286049Y-108951851D01*
X120264502Y-108880820D01*
X120205537Y-108770506D01*
X120126185Y-108673815D01*
X120029494Y-108594463D01*
X119919180Y-108535498D01*
X119799482Y-108499188D01*
X119675000Y-108486928D01*
X119647174Y-108487676D01*
X119671248Y-108408316D01*
X119688072Y-108237500D01*
X119688072Y-107762500D01*
X119671248Y-107591684D01*
X119621423Y-107427433D01*
X119540512Y-107276058D01*
X119431623Y-107143377D01*
X119411244Y-107126653D01*
X119416982Y-107107739D01*
X119428824Y-106987500D01*
X119428824Y-106512500D01*
X119416982Y-106392261D01*
X119381909Y-106276643D01*
X119324955Y-106170089D01*
X119248307Y-106076693D01*
X119154911Y-106000045D01*
X119048357Y-105943091D01*
X118932739Y-105908018D01*
X118812500Y-105896176D01*
X118212500Y-105896176D01*
X118152000Y-105902134D01*
X118152000Y-105739587D01*
X121874192Y-105739587D01*
X122830000Y-106695395D01*
X123785808Y-105739587D01*
X123690044Y-105475186D01*
X123400429Y-105334296D01*
X123088892Y-105252616D01*
X122767405Y-105233282D01*
X122448325Y-105277039D01*
X122143912Y-105382205D01*
X121969956Y-105475186D01*
X121874192Y-105739587D01*
X118152000Y-105739587D01*
X118152000Y-105224141D01*
X118199550Y-105228824D01*
X119100450Y-105228824D01*
X119223040Y-105216750D01*
X119340918Y-105180992D01*
X119449556Y-105122924D01*
X119544778Y-105044778D01*
X119622924Y-104949556D01*
X119680992Y-104840918D01*
X119716750Y-104723040D01*
X119728824Y-104600450D01*
X119728824Y-103949550D01*
X119716750Y-103826960D01*
X119715172Y-103821758D01*
X120659933Y-102876998D01*
X120940068Y-102876998D01*
X122900621Y-104837553D01*
%TA.AperFunction,Conductor*%
D40*
G36*
X122900621Y-104837553D02*
G01*
X122916330Y-104856694D01*
X122935470Y-104872402D01*
X122935478Y-104872410D01*
X122969063Y-104899972D01*
X122992769Y-104919427D01*
X123079978Y-104966041D01*
X123174605Y-104994746D01*
X123248361Y-105002010D01*
X123248371Y-105002010D01*
X123273014Y-105004437D01*
X123297657Y-105002010D01*
X124998001Y-105002010D01*
X124998000Y-105203155D01*
X124896464Y-105304691D01*
X124811431Y-105431952D01*
X124752859Y-105573357D01*
X124723000Y-105723472D01*
X124723000Y-105876528D01*
X124752859Y-106026643D01*
X124811431Y-106168048D01*
X124896464Y-106295309D01*
X125004691Y-106403536D01*
X125131952Y-106488569D01*
X125273357Y-106547141D01*
X125423472Y-106577000D01*
X125553549Y-106577000D01*
X125534661Y-106651411D01*
X125519389Y-106943531D01*
X125561401Y-107233019D01*
X125659081Y-107508747D01*
X125732528Y-107646157D01*
X125981603Y-107723792D01*
X126346073Y-107359323D01*
X126443750Y-107457000D01*
X126607605Y-107457000D01*
X126161208Y-107903397D01*
X126238843Y-108152472D01*
X126439308Y-108248057D01*
X126446095Y-108257259D01*
X126538555Y-108341503D01*
X126645674Y-108406091D01*
X126763335Y-108448540D01*
X126861250Y-108465000D01*
X126966496Y-108359754D01*
X127078531Y-108365611D01*
X127079256Y-108365506D01*
X127178750Y-108465000D01*
X127276665Y-108448540D01*
X127394326Y-108406091D01*
X127501445Y-108341503D01*
X127593905Y-108257259D01*
X127607567Y-108238736D01*
X127643747Y-108225919D01*
X127781157Y-108152472D01*
X127858792Y-107903397D01*
X127412395Y-107457000D01*
X127596250Y-107457000D01*
X127683928Y-107369323D01*
X128038397Y-107723792D01*
X128287472Y-107646157D01*
X128413371Y-107382117D01*
X128473001Y-107147197D01*
X128473001Y-115266216D01*
X128458599Y-115166981D01*
X128360919Y-114891253D01*
X128287472Y-114753843D01*
X128038397Y-114676208D01*
X127688928Y-115025678D01*
X127596250Y-114933000D01*
X127422395Y-114933000D01*
X127858792Y-114496603D01*
X127781157Y-114247528D01*
X127622919Y-114172077D01*
X127593905Y-114132741D01*
X127501445Y-114048497D01*
X127394326Y-113983909D01*
X127276665Y-113941460D01*
X127178750Y-113925000D01*
X127063007Y-114040743D01*
X126972248Y-114035998D01*
X126861250Y-113925000D01*
X126763335Y-113941460D01*
X126645674Y-113983909D01*
X126538555Y-114048497D01*
X126446095Y-114132741D01*
X126429523Y-114155210D01*
X126376253Y-114174081D01*
X126238843Y-114247528D01*
X126161208Y-114496603D01*
X126597605Y-114933000D01*
X126443750Y-114933000D01*
X126341073Y-115035678D01*
X125981603Y-114676208D01*
X125732528Y-114753843D01*
X125606629Y-115017883D01*
X125534661Y-115301411D01*
X125519389Y-115593531D01*
X125561401Y-115883019D01*
X125646417Y-116123000D01*
X125523472Y-116123000D01*
X125373357Y-116152859D01*
X125231952Y-116211431D01*
X125104691Y-116296464D01*
X124996464Y-116404691D01*
X124934117Y-116498000D01*
X123982608Y-116498000D01*
X123965415Y-116480807D01*
X124229814Y-116385044D01*
X124370704Y-116095429D01*
X124452384Y-115783892D01*
X124459537Y-115664951D01*
X124496091Y-115604326D01*
X124538540Y-115486665D01*
X124555000Y-115388750D01*
X124446776Y-115280526D01*
X124434589Y-115191661D01*
X124555000Y-115071250D01*
X124538540Y-114973335D01*
X124496091Y-114855674D01*
X124431503Y-114748555D01*
X124350373Y-114659512D01*
X124421503Y-114581445D01*
X124486091Y-114474326D01*
X124528540Y-114356665D01*
X124545000Y-114258750D01*
X124386250Y-114100000D01*
X124545000Y-113941250D01*
X124528540Y-113843335D01*
X124486091Y-113725674D01*
X124421503Y-113618555D01*
X124337259Y-113526095D01*
X124236595Y-113451847D01*
X124123380Y-113398664D01*
X124001965Y-113368590D01*
X123941750Y-113365000D01*
X123927285Y-113379465D01*
X123884106Y-113336286D01*
X123851811Y-113368581D01*
X123791750Y-113365000D01*
X123787002Y-113369748D01*
X123787002Y-113365000D01*
X123760015Y-113365000D01*
X123754425Y-113262237D01*
X123702000Y-113240407D01*
X123702000Y-109159743D01*
X123751351Y-109139408D01*
X123754425Y-109137763D01*
X123759471Y-109045000D01*
X123787002Y-109045000D01*
X123787002Y-109020252D01*
X123811750Y-109045000D01*
X123862374Y-109041982D01*
X123884106Y-109063714D01*
X123917751Y-109030069D01*
X123925019Y-109028269D01*
X123941750Y-109045000D01*
X124001965Y-109041410D01*
X124123380Y-109011336D01*
X124236595Y-108958153D01*
X124337259Y-108883905D01*
X124421503Y-108791445D01*
X124486091Y-108684326D01*
X124528540Y-108566665D01*
X124545000Y-108468750D01*
X124386250Y-108310000D01*
X124545000Y-108151250D01*
X124528540Y-108053335D01*
X124486091Y-107935674D01*
X124421503Y-107828555D01*
X124355003Y-107755569D01*
X124357259Y-107753905D01*
X124441503Y-107661445D01*
X124506091Y-107554326D01*
X124548540Y-107436665D01*
X124565000Y-107338750D01*
X124433223Y-107206973D01*
X124452384Y-107133892D01*
X124452386Y-107133864D01*
X124565000Y-107021250D01*
X124548540Y-106923335D01*
X124506091Y-106805674D01*
X124460404Y-106729902D01*
X124427961Y-106493325D01*
X124322795Y-106188912D01*
X124229814Y-106014956D01*
X123965413Y-105919192D01*
X123418928Y-106465678D01*
X123398250Y-106445000D01*
X123338035Y-106448590D01*
X123216620Y-106478664D01*
X123103405Y-106531847D01*
X123002741Y-106606095D01*
X122918497Y-106698555D01*
X122853909Y-106805674D01*
X122823665Y-106889505D01*
X122733082Y-106885293D01*
X122645613Y-106898503D01*
X122636253Y-106889143D01*
X122650395Y-106875000D01*
X121694587Y-105919192D01*
X121461368Y-106003662D01*
X121326643Y-105947857D01*
X121176528Y-105917998D01*
X121023472Y-105917998D01*
X120873357Y-105947857D01*
X120731952Y-106006429D01*
X120604691Y-106091462D01*
X120496464Y-106199689D01*
X120411431Y-106326950D01*
X120352859Y-106468355D01*
X120323000Y-106618470D01*
X120323000Y-106771526D01*
X120352859Y-106921641D01*
X120411431Y-107063046D01*
X120496464Y-107190307D01*
X120604691Y-107298534D01*
X120731952Y-107383567D01*
X120843000Y-107429565D01*
X120842999Y-108700356D01*
X120840572Y-108724999D01*
X120842658Y-108746176D01*
X120725000Y-108746176D01*
X120612077Y-108757298D01*
X120503494Y-108790236D01*
X120403423Y-108843725D01*
X120315710Y-108915710D01*
X120286049Y-108951851D01*
X120264502Y-108880820D01*
X120205537Y-108770506D01*
X120126185Y-108673815D01*
X120029494Y-108594463D01*
X119919180Y-108535498D01*
X119799482Y-108499188D01*
X119675000Y-108486928D01*
X119647174Y-108487676D01*
X119671248Y-108408316D01*
X119688072Y-108237500D01*
X119688072Y-107762500D01*
X119671248Y-107591684D01*
X119621423Y-107427433D01*
X119540512Y-107276058D01*
X119431623Y-107143377D01*
X119411244Y-107126653D01*
X119416982Y-107107739D01*
X119428824Y-106987500D01*
X119428824Y-106512500D01*
X119416982Y-106392261D01*
X119381909Y-106276643D01*
X119324955Y-106170089D01*
X119248307Y-106076693D01*
X119154911Y-106000045D01*
X119048357Y-105943091D01*
X118932739Y-105908018D01*
X118812500Y-105896176D01*
X118212500Y-105896176D01*
X118152000Y-105902134D01*
X118152000Y-105739587D01*
X121874192Y-105739587D01*
X122830000Y-106695395D01*
X123785808Y-105739587D01*
X123690044Y-105475186D01*
X123400429Y-105334296D01*
X123088892Y-105252616D01*
X122767405Y-105233282D01*
X122448325Y-105277039D01*
X122143912Y-105382205D01*
X121969956Y-105475186D01*
X121874192Y-105739587D01*
X118152000Y-105739587D01*
X118152000Y-105224141D01*
X118199550Y-105228824D01*
X119100450Y-105228824D01*
X119223040Y-105216750D01*
X119340918Y-105180992D01*
X119449556Y-105122924D01*
X119544778Y-105044778D01*
X119622924Y-104949556D01*
X119680992Y-104840918D01*
X119716750Y-104723040D01*
X119728824Y-104600450D01*
X119728824Y-103949550D01*
X119716750Y-103826960D01*
X119715172Y-103821758D01*
X120659933Y-102876998D01*
X120940068Y-102876998D01*
X122900621Y-104837553D01*
G37*
%TD.AperFunction*%
D39*
X111309537Y-109089981D02*
X111375030Y-109124988D01*
X111446095Y-109146545D01*
X111520000Y-109153824D01*
X112909888Y-109153824D01*
X112944269Y-109196593D01*
X113040152Y-109276920D01*
X113149863Y-109336999D01*
X113179048Y-109346176D01*
X112825000Y-109346176D01*
X112712077Y-109357298D01*
X112603494Y-109390236D01*
X112503423Y-109443725D01*
X112415710Y-109515710D01*
X112343725Y-109603423D01*
X112290236Y-109703494D01*
X112257298Y-109812077D01*
X112246176Y-109925000D01*
X112246176Y-110475000D01*
X112257298Y-110587923D01*
X112290236Y-110696506D01*
X112343725Y-110796577D01*
X112415710Y-110884290D01*
X112503423Y-110956275D01*
X112565572Y-110989494D01*
X112494040Y-111096550D01*
X112435468Y-111237955D01*
X112405609Y-111388070D01*
X112405609Y-111541126D01*
X112435468Y-111691241D01*
X112494040Y-111832646D01*
X112579073Y-111959907D01*
X112687300Y-112068134D01*
X112771176Y-112124178D01*
X112771176Y-112325000D01*
X112778455Y-112398905D01*
X112800012Y-112469970D01*
X112835019Y-112535463D01*
X112882131Y-112592869D01*
X112939537Y-112639981D01*
X113005030Y-112674988D01*
X113076095Y-112696545D01*
X113150000Y-112703824D01*
X113850000Y-112703824D01*
X113923905Y-112696545D01*
X113994970Y-112674988D01*
X114060463Y-112639981D01*
X114117869Y-112592869D01*
X114164981Y-112535463D01*
X114199988Y-112469970D01*
X114221545Y-112398905D01*
X114228824Y-112325000D01*
X114228824Y-112195430D01*
X114247990Y-112214595D01*
X114247989Y-112552341D01*
X114245562Y-112576985D01*
X114247989Y-112601628D01*
X114247989Y-112601637D01*
X114255253Y-112675393D01*
X114283958Y-112770020D01*
X114330572Y-112857230D01*
X114393305Y-112933669D01*
X114412456Y-112949386D01*
X114486070Y-113023000D01*
X114423472Y-113023000D01*
X114273357Y-113052859D01*
X114131952Y-113111431D01*
X114004691Y-113196464D01*
X113896464Y-113304691D01*
X113811431Y-113431952D01*
X113769078Y-113534200D01*
X113759764Y-113503494D01*
X113706275Y-113403423D01*
X113634290Y-113315710D01*
X113546577Y-113243725D01*
X113446506Y-113190236D01*
X113337923Y-113157298D01*
X113225000Y-113146176D01*
X112825000Y-113146176D01*
X112712077Y-113157298D01*
X112603494Y-113190236D01*
X112503423Y-113243725D01*
X112415710Y-113315710D01*
X112343725Y-113403423D01*
X112290236Y-113503494D01*
X112257298Y-113612077D01*
X112246176Y-113725000D01*
X112246176Y-114275000D01*
X112257298Y-114387923D01*
X112290236Y-114496506D01*
X112322999Y-114557802D01*
X112323000Y-115901147D01*
X112290330Y-115863215D01*
X112191780Y-115786184D01*
X112113310Y-115746610D01*
X112117869Y-115742869D01*
X112164981Y-115685463D01*
X112199988Y-115619970D01*
X112221545Y-115548905D01*
X112228824Y-115475000D01*
X112228824Y-115025000D01*
X112221545Y-114951095D01*
X112199988Y-114880030D01*
X112164981Y-114814537D01*
X112117869Y-114757131D01*
X112060463Y-114710019D01*
X112002000Y-114678770D01*
X112002000Y-114662711D01*
X112056275Y-114596577D01*
X112109764Y-114496506D01*
X112142702Y-114387923D01*
X112153824Y-114275000D01*
X112153824Y-113725000D01*
X112142702Y-113612077D01*
X112123362Y-113548321D01*
X112191780Y-113513816D01*
X112290330Y-113436785D01*
X112371959Y-113342008D01*
X112433529Y-113233127D01*
X112472675Y-113114326D01*
X112485000Y-113006750D01*
X112326250Y-112848000D01*
X111627000Y-112848000D01*
X111627000Y-112897000D01*
X111373000Y-112897000D01*
X111373000Y-112848000D01*
X111353000Y-112848000D01*
X111353000Y-112652000D01*
X111373000Y-112652000D01*
X111373000Y-112603000D01*
X111627000Y-112603000D01*
X111627000Y-112652000D01*
X112326250Y-112652000D01*
X112485000Y-112493250D01*
X112472675Y-112385674D01*
X112433529Y-112266873D01*
X112371959Y-112157992D01*
X112290330Y-112063215D01*
X112191780Y-111986184D01*
X112113310Y-111946610D01*
X112117869Y-111942869D01*
X112164981Y-111885463D01*
X112199988Y-111819970D01*
X112221545Y-111748905D01*
X112228824Y-111675000D01*
X112228824Y-111225000D01*
X112221545Y-111151095D01*
X112199988Y-111080030D01*
X112164981Y-111014537D01*
X112117869Y-110957131D01*
X112060463Y-110910019D01*
X112002000Y-110878770D01*
X112002000Y-110862711D01*
X112056275Y-110796577D01*
X112109764Y-110696506D01*
X112142702Y-110587923D01*
X112153824Y-110475000D01*
X112153824Y-109925000D01*
X112142702Y-109812077D01*
X112109764Y-109703494D01*
X112056275Y-109603423D01*
X111984290Y-109515710D01*
X111896577Y-109443725D01*
X111796506Y-109390236D01*
X111687923Y-109357298D01*
X111575000Y-109346176D01*
X111257000Y-109346176D01*
X111257000Y-109046865D01*
X111309537Y-109089981D01*
%TA.AperFunction,Conductor*%
D40*
G36*
X111309537Y-109089981D02*
G01*
X111375030Y-109124988D01*
X111446095Y-109146545D01*
X111520000Y-109153824D01*
X112909888Y-109153824D01*
X112944269Y-109196593D01*
X113040152Y-109276920D01*
X113149863Y-109336999D01*
X113179048Y-109346176D01*
X112825000Y-109346176D01*
X112712077Y-109357298D01*
X112603494Y-109390236D01*
X112503423Y-109443725D01*
X112415710Y-109515710D01*
X112343725Y-109603423D01*
X112290236Y-109703494D01*
X112257298Y-109812077D01*
X112246176Y-109925000D01*
X112246176Y-110475000D01*
X112257298Y-110587923D01*
X112290236Y-110696506D01*
X112343725Y-110796577D01*
X112415710Y-110884290D01*
X112503423Y-110956275D01*
X112565572Y-110989494D01*
X112494040Y-111096550D01*
X112435468Y-111237955D01*
X112405609Y-111388070D01*
X112405609Y-111541126D01*
X112435468Y-111691241D01*
X112494040Y-111832646D01*
X112579073Y-111959907D01*
X112687300Y-112068134D01*
X112771176Y-112124178D01*
X112771176Y-112325000D01*
X112778455Y-112398905D01*
X112800012Y-112469970D01*
X112835019Y-112535463D01*
X112882131Y-112592869D01*
X112939537Y-112639981D01*
X113005030Y-112674988D01*
X113076095Y-112696545D01*
X113150000Y-112703824D01*
X113850000Y-112703824D01*
X113923905Y-112696545D01*
X113994970Y-112674988D01*
X114060463Y-112639981D01*
X114117869Y-112592869D01*
X114164981Y-112535463D01*
X114199988Y-112469970D01*
X114221545Y-112398905D01*
X114228824Y-112325000D01*
X114228824Y-112195430D01*
X114247990Y-112214595D01*
X114247989Y-112552341D01*
X114245562Y-112576985D01*
X114247989Y-112601628D01*
X114247989Y-112601637D01*
X114255253Y-112675393D01*
X114283958Y-112770020D01*
X114330572Y-112857230D01*
X114393305Y-112933669D01*
X114412456Y-112949386D01*
X114486070Y-113023000D01*
X114423472Y-113023000D01*
X114273357Y-113052859D01*
X114131952Y-113111431D01*
X114004691Y-113196464D01*
X113896464Y-113304691D01*
X113811431Y-113431952D01*
X113769078Y-113534200D01*
X113759764Y-113503494D01*
X113706275Y-113403423D01*
X113634290Y-113315710D01*
X113546577Y-113243725D01*
X113446506Y-113190236D01*
X113337923Y-113157298D01*
X113225000Y-113146176D01*
X112825000Y-113146176D01*
X112712077Y-113157298D01*
X112603494Y-113190236D01*
X112503423Y-113243725D01*
X112415710Y-113315710D01*
X112343725Y-113403423D01*
X112290236Y-113503494D01*
X112257298Y-113612077D01*
X112246176Y-113725000D01*
X112246176Y-114275000D01*
X112257298Y-114387923D01*
X112290236Y-114496506D01*
X112322999Y-114557802D01*
X112323000Y-115901147D01*
X112290330Y-115863215D01*
X112191780Y-115786184D01*
X112113310Y-115746610D01*
X112117869Y-115742869D01*
X112164981Y-115685463D01*
X112199988Y-115619970D01*
X112221545Y-115548905D01*
X112228824Y-115475000D01*
X112228824Y-115025000D01*
X112221545Y-114951095D01*
X112199988Y-114880030D01*
X112164981Y-114814537D01*
X112117869Y-114757131D01*
X112060463Y-114710019D01*
X112002000Y-114678770D01*
X112002000Y-114662711D01*
X112056275Y-114596577D01*
X112109764Y-114496506D01*
X112142702Y-114387923D01*
X112153824Y-114275000D01*
X112153824Y-113725000D01*
X112142702Y-113612077D01*
X112123362Y-113548321D01*
X112191780Y-113513816D01*
X112290330Y-113436785D01*
X112371959Y-113342008D01*
X112433529Y-113233127D01*
X112472675Y-113114326D01*
X112485000Y-113006750D01*
X112326250Y-112848000D01*
X111627000Y-112848000D01*
X111627000Y-112897000D01*
X111373000Y-112897000D01*
X111373000Y-112848000D01*
X111353000Y-112848000D01*
X111353000Y-112652000D01*
X111373000Y-112652000D01*
X111373000Y-112603000D01*
X111627000Y-112603000D01*
X111627000Y-112652000D01*
X112326250Y-112652000D01*
X112485000Y-112493250D01*
X112472675Y-112385674D01*
X112433529Y-112266873D01*
X112371959Y-112157992D01*
X112290330Y-112063215D01*
X112191780Y-111986184D01*
X112113310Y-111946610D01*
X112117869Y-111942869D01*
X112164981Y-111885463D01*
X112199988Y-111819970D01*
X112221545Y-111748905D01*
X112228824Y-111675000D01*
X112228824Y-111225000D01*
X112221545Y-111151095D01*
X112199988Y-111080030D01*
X112164981Y-111014537D01*
X112117869Y-110957131D01*
X112060463Y-110910019D01*
X112002000Y-110878770D01*
X112002000Y-110862711D01*
X112056275Y-110796577D01*
X112109764Y-110696506D01*
X112142702Y-110587923D01*
X112153824Y-110475000D01*
X112153824Y-109925000D01*
X112142702Y-109812077D01*
X112109764Y-109703494D01*
X112056275Y-109603423D01*
X111984290Y-109515710D01*
X111896577Y-109443725D01*
X111796506Y-109390236D01*
X111687923Y-109357298D01*
X111575000Y-109346176D01*
X111257000Y-109346176D01*
X111257000Y-109046865D01*
X111309537Y-109089981D01*
G37*
%TD.AperFunction*%
D39*
X122669401Y-115516028D02*
X122793082Y-115534707D01*
X122818368Y-115533531D01*
X122843909Y-115604326D01*
X122887037Y-115675853D01*
X122844143Y-115718748D01*
X122830000Y-115704605D01*
X122815858Y-115718748D01*
X122636253Y-115539143D01*
X122650395Y-115525000D01*
X122636253Y-115510858D01*
X122641241Y-115505869D01*
X122669401Y-115516028D01*
%TA.AperFunction,Conductor*%
D40*
G36*
X122669401Y-115516028D02*
G01*
X122793082Y-115534707D01*
X122818368Y-115533531D01*
X122843909Y-115604326D01*
X122887037Y-115675853D01*
X122844143Y-115718748D01*
X122830000Y-115704605D01*
X122815858Y-115718748D01*
X122636253Y-115539143D01*
X122650395Y-115525000D01*
X122636253Y-115510858D01*
X122641241Y-115505869D01*
X122669401Y-115516028D01*
G37*
%TD.AperFunction*%
D39*
X118236928Y-113175000D02*
X118249188Y-113299482D01*
X118285498Y-113419180D01*
X118344463Y-113529494D01*
X118423815Y-113626185D01*
X118473283Y-113666782D01*
X118243239Y-113896827D01*
X118183750Y-113890000D01*
X118025000Y-114048750D01*
X117866250Y-113890000D01*
X117762629Y-113901891D01*
X117643706Y-113940663D01*
X117534633Y-114001891D01*
X117439600Y-114083223D01*
X117383991Y-114153909D01*
X117376402Y-114154656D01*
X117293613Y-114179770D01*
X117275000Y-114189719D01*
X117256387Y-114179770D01*
X117173598Y-114154656D01*
X117087500Y-114146176D01*
X116962500Y-114146176D01*
X116876402Y-114154656D01*
X116793613Y-114179770D01*
X116717314Y-114220553D01*
X116650437Y-114275437D01*
X116611403Y-114323000D01*
X116370715Y-114323000D01*
X116373666Y-114293038D01*
X116377013Y-114259055D01*
X116377013Y-114259048D01*
X116379440Y-114234402D01*
X116377013Y-114209757D01*
X116377013Y-113541388D01*
X116465743Y-113559037D01*
X116618799Y-113559037D01*
X116768914Y-113529178D01*
X116910319Y-113470606D01*
X117037580Y-113385573D01*
X117139116Y-113284037D01*
X117793320Y-113284037D01*
X117817963Y-113286464D01*
X117842606Y-113284037D01*
X117842616Y-113284037D01*
X117916372Y-113276773D01*
X118010999Y-113248068D01*
X118098208Y-113201454D01*
X118174647Y-113138721D01*
X118190364Y-113119570D01*
X118238611Y-113071323D01*
X118236928Y-113175000D01*
%TA.AperFunction,Conductor*%
D40*
G36*
X118236928Y-113175000D02*
G01*
X118249188Y-113299482D01*
X118285498Y-113419180D01*
X118344463Y-113529494D01*
X118423815Y-113626185D01*
X118473283Y-113666782D01*
X118243239Y-113896827D01*
X118183750Y-113890000D01*
X118025000Y-114048750D01*
X117866250Y-113890000D01*
X117762629Y-113901891D01*
X117643706Y-113940663D01*
X117534633Y-114001891D01*
X117439600Y-114083223D01*
X117383991Y-114153909D01*
X117376402Y-114154656D01*
X117293613Y-114179770D01*
X117275000Y-114189719D01*
X117256387Y-114179770D01*
X117173598Y-114154656D01*
X117087500Y-114146176D01*
X116962500Y-114146176D01*
X116876402Y-114154656D01*
X116793613Y-114179770D01*
X116717314Y-114220553D01*
X116650437Y-114275437D01*
X116611403Y-114323000D01*
X116370715Y-114323000D01*
X116373666Y-114293038D01*
X116377013Y-114259055D01*
X116377013Y-114259048D01*
X116379440Y-114234402D01*
X116377013Y-114209757D01*
X116377013Y-113541388D01*
X116465743Y-113559037D01*
X116618799Y-113559037D01*
X116768914Y-113529178D01*
X116910319Y-113470606D01*
X117037580Y-113385573D01*
X117139116Y-113284037D01*
X117793320Y-113284037D01*
X117817963Y-113286464D01*
X117842606Y-113284037D01*
X117842616Y-113284037D01*
X117916372Y-113276773D01*
X118010999Y-113248068D01*
X118098208Y-113201454D01*
X118174647Y-113138721D01*
X118190364Y-113119570D01*
X118238611Y-113071323D01*
X118236928Y-113175000D01*
G37*
%TD.AperFunction*%
D39*
X119402000Y-112573000D02*
X119422000Y-112573000D01*
X119422000Y-112827000D01*
X119402000Y-112827000D01*
X119402000Y-112847000D01*
X119148000Y-112847000D01*
X119148000Y-112827000D01*
X119128000Y-112827000D01*
X119128000Y-112573000D01*
X119148000Y-112573000D01*
X119148000Y-112553000D01*
X119402000Y-112553000D01*
X119402000Y-112573000D01*
%TA.AperFunction,Conductor*%
D40*
G36*
X119402000Y-112573000D02*
G01*
X119422000Y-112573000D01*
X119422000Y-112827000D01*
X119402000Y-112827000D01*
X119402000Y-112847000D01*
X119148000Y-112847000D01*
X119148000Y-112827000D01*
X119128000Y-112827000D01*
X119128000Y-112573000D01*
X119148000Y-112573000D01*
X119148000Y-112553000D01*
X119402000Y-112553000D01*
X119402000Y-112573000D01*
G37*
%TD.AperFunction*%
D39*
X113773000Y-109226250D02*
X113931750Y-109385000D01*
X114030813Y-109374519D01*
X114150137Y-109336999D01*
X114259848Y-109276920D01*
X114355731Y-109196593D01*
X114390112Y-109153824D01*
X115780000Y-109153824D01*
X115853905Y-109146545D01*
X115924970Y-109124988D01*
X115990463Y-109089981D01*
X116047869Y-109042869D01*
X116091642Y-108989531D01*
X116115266Y-109046564D01*
X116200299Y-109173825D01*
X116308526Y-109282052D01*
X116435787Y-109367085D01*
X116577192Y-109425657D01*
X116727307Y-109455516D01*
X116880363Y-109455516D01*
X117030478Y-109425657D01*
X117171883Y-109367085D01*
X117299144Y-109282052D01*
X117407371Y-109173825D01*
X117492404Y-109046564D01*
X117550976Y-108905159D01*
X117567019Y-108824505D01*
X117593377Y-108856623D01*
X117726058Y-108965512D01*
X117877433Y-109046423D01*
X118041684Y-109096248D01*
X118212500Y-109113072D01*
X118238103Y-109113072D01*
X118236928Y-109125000D01*
X118240000Y-109314250D01*
X118398750Y-109473000D01*
X119148000Y-109473000D01*
X119148000Y-109453000D01*
X119402000Y-109453000D01*
X119402000Y-109473000D01*
X119422000Y-109473000D01*
X119422000Y-109727000D01*
X119402000Y-109727000D01*
X119402000Y-109747000D01*
X119148000Y-109747000D01*
X119148000Y-109727000D01*
X118398750Y-109727000D01*
X118240000Y-109885750D01*
X118238990Y-109948000D01*
X117723040Y-109948000D01*
X117615762Y-109840722D01*
X117488501Y-109755689D01*
X117347096Y-109697117D01*
X117196981Y-109667258D01*
X117043925Y-109667258D01*
X116893810Y-109697117D01*
X116752405Y-109755689D01*
X116625144Y-109840722D01*
X116516917Y-109948949D01*
X116431884Y-110076210D01*
X116373312Y-110217615D01*
X116343453Y-110367730D01*
X116343453Y-110520786D01*
X116373312Y-110670901D01*
X116425958Y-110798000D01*
X116424642Y-110798000D01*
X116399999Y-110795573D01*
X116375356Y-110798000D01*
X116375347Y-110798000D01*
X116301591Y-110805264D01*
X116206964Y-110833969D01*
X116119755Y-110880583D01*
X116043316Y-110943316D01*
X116027600Y-110962466D01*
X115804740Y-111185326D01*
X115785588Y-111201044D01*
X115722855Y-111277483D01*
X115718701Y-111285254D01*
X115700433Y-111225032D01*
X115653819Y-111137823D01*
X115619947Y-111096550D01*
X115606801Y-111080532D01*
X115606799Y-111080530D01*
X115591086Y-111061384D01*
X115571940Y-111045671D01*
X115180637Y-110654368D01*
X115180637Y-110510775D01*
X115150778Y-110360660D01*
X115092206Y-110219255D01*
X115007173Y-110091994D01*
X114898946Y-109983767D01*
X114771685Y-109898734D01*
X114630280Y-109840162D01*
X114480165Y-109810303D01*
X114327109Y-109810303D01*
X114176994Y-109840162D01*
X114035589Y-109898734D01*
X113908328Y-109983767D01*
X113803824Y-110088271D01*
X113803824Y-109925000D01*
X113792702Y-109812077D01*
X113759764Y-109703494D01*
X113706275Y-109603423D01*
X113634290Y-109515710D01*
X113546577Y-109443725D01*
X113446506Y-109390236D01*
X113382446Y-109370804D01*
X113527000Y-109226250D01*
X113527000Y-108388072D01*
X113773000Y-108388072D01*
X113773000Y-109226250D01*
%TA.AperFunction,Conductor*%
D40*
G36*
X113773000Y-109226250D02*
G01*
X113931750Y-109385000D01*
X114030813Y-109374519D01*
X114150137Y-109336999D01*
X114259848Y-109276920D01*
X114355731Y-109196593D01*
X114390112Y-109153824D01*
X115780000Y-109153824D01*
X115853905Y-109146545D01*
X115924970Y-109124988D01*
X115990463Y-109089981D01*
X116047869Y-109042869D01*
X116091642Y-108989531D01*
X116115266Y-109046564D01*
X116200299Y-109173825D01*
X116308526Y-109282052D01*
X116435787Y-109367085D01*
X116577192Y-109425657D01*
X116727307Y-109455516D01*
X116880363Y-109455516D01*
X117030478Y-109425657D01*
X117171883Y-109367085D01*
X117299144Y-109282052D01*
X117407371Y-109173825D01*
X117492404Y-109046564D01*
X117550976Y-108905159D01*
X117567019Y-108824505D01*
X117593377Y-108856623D01*
X117726058Y-108965512D01*
X117877433Y-109046423D01*
X118041684Y-109096248D01*
X118212500Y-109113072D01*
X118238103Y-109113072D01*
X118236928Y-109125000D01*
X118240000Y-109314250D01*
X118398750Y-109473000D01*
X119148000Y-109473000D01*
X119148000Y-109453000D01*
X119402000Y-109453000D01*
X119402000Y-109473000D01*
X119422000Y-109473000D01*
X119422000Y-109727000D01*
X119402000Y-109727000D01*
X119402000Y-109747000D01*
X119148000Y-109747000D01*
X119148000Y-109727000D01*
X118398750Y-109727000D01*
X118240000Y-109885750D01*
X118238990Y-109948000D01*
X117723040Y-109948000D01*
X117615762Y-109840722D01*
X117488501Y-109755689D01*
X117347096Y-109697117D01*
X117196981Y-109667258D01*
X117043925Y-109667258D01*
X116893810Y-109697117D01*
X116752405Y-109755689D01*
X116625144Y-109840722D01*
X116516917Y-109948949D01*
X116431884Y-110076210D01*
X116373312Y-110217615D01*
X116343453Y-110367730D01*
X116343453Y-110520786D01*
X116373312Y-110670901D01*
X116425958Y-110798000D01*
X116424642Y-110798000D01*
X116399999Y-110795573D01*
X116375356Y-110798000D01*
X116375347Y-110798000D01*
X116301591Y-110805264D01*
X116206964Y-110833969D01*
X116119755Y-110880583D01*
X116043316Y-110943316D01*
X116027600Y-110962466D01*
X115804740Y-111185326D01*
X115785588Y-111201044D01*
X115722855Y-111277483D01*
X115718701Y-111285254D01*
X115700433Y-111225032D01*
X115653819Y-111137823D01*
X115619947Y-111096550D01*
X115606801Y-111080532D01*
X115606799Y-111080530D01*
X115591086Y-111061384D01*
X115571940Y-111045671D01*
X115180637Y-110654368D01*
X115180637Y-110510775D01*
X115150778Y-110360660D01*
X115092206Y-110219255D01*
X115007173Y-110091994D01*
X114898946Y-109983767D01*
X114771685Y-109898734D01*
X114630280Y-109840162D01*
X114480165Y-109810303D01*
X114327109Y-109810303D01*
X114176994Y-109840162D01*
X114035589Y-109898734D01*
X113908328Y-109983767D01*
X113803824Y-110088271D01*
X113803824Y-109925000D01*
X113792702Y-109812077D01*
X113759764Y-109703494D01*
X113706275Y-109603423D01*
X113634290Y-109515710D01*
X113546577Y-109443725D01*
X113446506Y-109390236D01*
X113382446Y-109370804D01*
X113527000Y-109226250D01*
X113527000Y-108388072D01*
X113773000Y-108388072D01*
X113773000Y-109226250D01*
G37*
%TD.AperFunction*%
D39*
X128426339Y-101778745D02*
X128459290Y-101885193D01*
X128473001Y-102015638D01*
X128473001Y-106616218D01*
X128458599Y-106516981D01*
X128360919Y-106241253D01*
X128287472Y-106103843D01*
X128038397Y-106026208D01*
X127332868Y-106731737D01*
X127276665Y-106711460D01*
X127178750Y-106695000D01*
X127020000Y-106853750D01*
X126921680Y-106755430D01*
X126995858Y-106681253D01*
X127010000Y-106695395D01*
X127858792Y-105846603D01*
X127781157Y-105597528D01*
X127517117Y-105471629D01*
X127233589Y-105399661D01*
X126941469Y-105384389D01*
X126651981Y-105426401D01*
X126376253Y-105524081D01*
X126250689Y-105591196D01*
X126247141Y-105573357D01*
X126188569Y-105431952D01*
X126103536Y-105304691D01*
X126002000Y-105203155D01*
X126002000Y-105002010D01*
X126367825Y-105002010D01*
X126392468Y-105004437D01*
X126417111Y-105002010D01*
X126417121Y-105002010D01*
X126490877Y-104994746D01*
X126585504Y-104966041D01*
X126672713Y-104919427D01*
X126749152Y-104856694D01*
X126764870Y-104837542D01*
X127037532Y-104564880D01*
X127056684Y-104549162D01*
X127119417Y-104472723D01*
X127122701Y-104466579D01*
X127203494Y-104509764D01*
X127312077Y-104542702D01*
X127425000Y-104553824D01*
X127825000Y-104553824D01*
X127937923Y-104542702D01*
X128046506Y-104509764D01*
X128146577Y-104456275D01*
X128234290Y-104384290D01*
X128306275Y-104296577D01*
X128359764Y-104196506D01*
X128392702Y-104087923D01*
X128403824Y-103975000D01*
X128403824Y-103425000D01*
X128392702Y-103312077D01*
X128359764Y-103203494D01*
X128306275Y-103103423D01*
X128234290Y-103015710D01*
X128146577Y-102943725D01*
X128089500Y-102913217D01*
X128089500Y-102879169D01*
X128138244Y-102853115D01*
X128228799Y-102778799D01*
X128303115Y-102688244D01*
X128358336Y-102584932D01*
X128392342Y-102472831D01*
X128403824Y-102356250D01*
X128403824Y-101843750D01*
X128392342Y-101727169D01*
X128384532Y-101701425D01*
X128426339Y-101778745D01*
%TA.AperFunction,Conductor*%
D40*
G36*
X128426339Y-101778745D02*
G01*
X128459290Y-101885193D01*
X128473001Y-102015638D01*
X128473001Y-106616218D01*
X128458599Y-106516981D01*
X128360919Y-106241253D01*
X128287472Y-106103843D01*
X128038397Y-106026208D01*
X127332868Y-106731737D01*
X127276665Y-106711460D01*
X127178750Y-106695000D01*
X127020000Y-106853750D01*
X126921680Y-106755430D01*
X126995858Y-106681253D01*
X127010000Y-106695395D01*
X127858792Y-105846603D01*
X127781157Y-105597528D01*
X127517117Y-105471629D01*
X127233589Y-105399661D01*
X126941469Y-105384389D01*
X126651981Y-105426401D01*
X126376253Y-105524081D01*
X126250689Y-105591196D01*
X126247141Y-105573357D01*
X126188569Y-105431952D01*
X126103536Y-105304691D01*
X126002000Y-105203155D01*
X126002000Y-105002010D01*
X126367825Y-105002010D01*
X126392468Y-105004437D01*
X126417111Y-105002010D01*
X126417121Y-105002010D01*
X126490877Y-104994746D01*
X126585504Y-104966041D01*
X126672713Y-104919427D01*
X126749152Y-104856694D01*
X126764870Y-104837542D01*
X127037532Y-104564880D01*
X127056684Y-104549162D01*
X127119417Y-104472723D01*
X127122701Y-104466579D01*
X127203494Y-104509764D01*
X127312077Y-104542702D01*
X127425000Y-104553824D01*
X127825000Y-104553824D01*
X127937923Y-104542702D01*
X128046506Y-104509764D01*
X128146577Y-104456275D01*
X128234290Y-104384290D01*
X128306275Y-104296577D01*
X128359764Y-104196506D01*
X128392702Y-104087923D01*
X128403824Y-103975000D01*
X128403824Y-103425000D01*
X128392702Y-103312077D01*
X128359764Y-103203494D01*
X128306275Y-103103423D01*
X128234290Y-103015710D01*
X128146577Y-102943725D01*
X128089500Y-102913217D01*
X128089500Y-102879169D01*
X128138244Y-102853115D01*
X128228799Y-102778799D01*
X128303115Y-102688244D01*
X128358336Y-102584932D01*
X128392342Y-102472831D01*
X128403824Y-102356250D01*
X128403824Y-101843750D01*
X128392342Y-101727169D01*
X128384532Y-101701425D01*
X128426339Y-101778745D01*
G37*
%TD.AperFunction*%
D39*
X121993725Y-101503423D02*
X121940236Y-101603494D01*
X121907298Y-101712077D01*
X121896176Y-101825000D01*
X121896176Y-102375000D01*
X121900354Y-102417415D01*
X121520403Y-102037465D01*
X121504686Y-102018314D01*
X121428247Y-101955581D01*
X121341038Y-101908967D01*
X121246411Y-101880262D01*
X121172655Y-101872998D01*
X121172645Y-101872998D01*
X121148002Y-101870571D01*
X121123359Y-101872998D01*
X120476640Y-101872998D01*
X120451997Y-101870571D01*
X120427354Y-101872998D01*
X120427345Y-101872998D01*
X120353589Y-101880262D01*
X120258962Y-101908967D01*
X120171753Y-101955581D01*
X120171751Y-101955582D01*
X120171752Y-101955582D01*
X120115691Y-102001591D01*
X120095314Y-102018314D01*
X120079601Y-102037460D01*
X119988072Y-102128989D01*
X119988072Y-101899550D01*
X119971017Y-101726384D01*
X119920506Y-101559872D01*
X119849484Y-101427000D01*
X122056444Y-101427000D01*
X121993725Y-101503423D01*
%TA.AperFunction,Conductor*%
D40*
G36*
X121993725Y-101503423D02*
G01*
X121940236Y-101603494D01*
X121907298Y-101712077D01*
X121896176Y-101825000D01*
X121896176Y-102375000D01*
X121900354Y-102417415D01*
X121520403Y-102037465D01*
X121504686Y-102018314D01*
X121428247Y-101955581D01*
X121341038Y-101908967D01*
X121246411Y-101880262D01*
X121172655Y-101872998D01*
X121172645Y-101872998D01*
X121148002Y-101870571D01*
X121123359Y-101872998D01*
X120476640Y-101872998D01*
X120451997Y-101870571D01*
X120427354Y-101872998D01*
X120427345Y-101872998D01*
X120353589Y-101880262D01*
X120258962Y-101908967D01*
X120171753Y-101955581D01*
X120171751Y-101955582D01*
X120171752Y-101955582D01*
X120115691Y-102001591D01*
X120095314Y-102018314D01*
X120079601Y-102037460D01*
X119988072Y-102128989D01*
X119988072Y-101899550D01*
X119971017Y-101726384D01*
X119920506Y-101559872D01*
X119849484Y-101427000D01*
X122056444Y-101427000D01*
X121993725Y-101503423D01*
G37*
%TD.AperFunction*%
%TD*%
M02*
