M48
; DRILL file {KiCad (5.1.9-0-10_14)} date Saturday, March 06, 2021 at 02:32:39 PM
; FORMAT={-:-/ absolute / inch / decimal}
; #@! TF.CreationDate,2021-03-06T14:32:39+00:00
; #@! TF.GenerationSoftware,Kicad,Pcbnew,(5.1.9-0-10_14)
; #@! TF.FileFunction,Plated,1,2,PTH
FMAT,2
INCH
T1C0.0157
T2C0.0236
T3C0.0335
T4C0.0551
T5C0.0669
%
G90
G05
T1
X4.5545Y-4.6245
X4.6167Y-3.9789
X4.7295Y-4.5553
X4.7689Y-4.5553
X4.7807Y-4.407
X4.8474Y-4.348
X4.9045Y-4.3475
X4.9813Y-4.2087
X5.0123Y-4.4083
X5.0177Y-4.1729
X5.0306Y-4.1238
X5.046Y-4.3879
X5.1007Y-4.4159
X5.1132Y-4.3409
X5.1136Y-4.1253
X5.1142Y-3.9173
X5.1563Y-4.6339
X5.1574Y-4.1876
T2
X4.6925Y-4.1657
X4.6925Y-4.3933
T3
X4.6063Y-4.7402
X4.7047Y-4.7402
X4.8031Y-4.7402
X4.9016Y-4.7402
X5.0Y-4.7402
X5.0984Y-4.7402
T4
X4.5469Y-4.1093
X4.5469Y-4.4498
T5
X4.7114Y-4.1093
X4.7114Y-4.4498
T0
M30
