M48
; DRILL file {KiCad (5.1.9-0-10_14)} date Sunday, March 07, 2021 at 03:15:41 PM
; FORMAT={-:-/ absolute / inch / decimal}
; #@! TF.CreationDate,2021-03-07T15:15:41+00:00
; #@! TF.GenerationSoftware,Kicad,Pcbnew,(5.1.9-0-10_14)
; #@! TF.FileFunction,Plated,1,2,PTH
FMAT,2
INCH
T1C0.0157
T2C0.0236
T3C0.0300
T4C0.0335
T5C0.0551
T6C0.0669
%
G90
G05
T1
X4.7344Y-4.0876
X4.7454Y-4.3917
X4.773Y-4.5552
X4.7804Y-4.4096
X4.7844Y-4.3463
X4.8039Y-4.5278
X4.8269Y-4.4693
X4.8607Y-4.4356
X4.9143Y-4.5543
X5.018Y-4.3842
X5.0422Y-4.2607
X5.0501Y-4.1341
X5.0571Y-4.3888
X5.067Y-4.0573
X5.0723Y-4.4253
T2
X4.6514Y-4.2445
X4.6514Y-4.472
T3
X4.7468Y-3.9985
X4.8453Y-3.9812
X4.9437Y-3.9638
X5.0422Y-3.9464
T4
X4.5669Y-4.7402
X4.6654Y-4.7402
X4.7638Y-4.7402
X4.8622Y-4.7402
X4.9606Y-4.7402
X5.0591Y-4.7402
T5
X4.5057Y-4.188
X4.5057Y-4.5285
T6
X4.6703Y-4.188
X4.6703Y-4.5285
T0
M30
