M48
; DRILL file {KiCad (5.1.9-0-10_14)} date Friday, March 26, 2021 at 05:39:52 PM
; FORMAT={-:-/ absolute / inch / decimal}
; #@! TF.CreationDate,2021-03-26T17:39:52+00:00
; #@! TF.GenerationSoftware,Kicad,Pcbnew,(5.1.9-0-10_14)
; #@! TF.FileFunction,Plated,1,2,PTH
FMAT,2
INCH
T1C0.0157
T2C0.0236
T3C0.0300
T4C0.0335
T5C0.0394
T6C0.0472
T7C0.0591
%
G90
G05
T1
X4.5335Y-3.9291
X4.5378Y-4.5002
X4.5728Y-4.8799
X4.5845Y-4.502
X4.6123Y-4.5553
X4.6468Y-4.5363
X4.7037Y-4.502
X4.7391Y-4.374
X4.751Y-4.0685
X4.7909Y-4.064
X4.8687Y-4.0844
X4.9854Y-4.1202
X4.9902Y-3.9724
X5.0012Y-4.5484
X5.0151Y-4.068
X5.0183Y-4.4508
X5.0295Y-4.5079
X5.1083Y-4.626
T2
X4.6492Y-4.1657
X4.6492Y-4.3933
T3
X4.8563Y-4.5374
T4
X4.5563Y-4.7402
X4.6547Y-4.7402
X4.7531Y-4.7402
X4.8516Y-4.7402
X4.95Y-4.7402
X5.0484Y-4.7402
T5
X4.5157Y-4.8488
X4.5157Y-4.9488
X4.8252Y-4.376
X4.9252Y-4.376
X5.0252Y-4.376
T6
X4.5035Y-4.1093
X4.5035Y-4.4498
T7
X4.6681Y-4.1093
X4.6681Y-4.4498
T0
M30
