%TF.GenerationSoftware,KiCad,Pcbnew,(5.1.9-0-10_14)*%
%TF.CreationDate,2021-06-16T11:10:57+01:00*%
%TF.ProjectId,Generic,47656e65-7269-4632-9e6b-696361645f70,4*%
%TF.SameCoordinates,Original*%
%TF.FileFunction,Paste,Top*%
%TF.FilePolarity,Positive*%
%FSLAX46Y46*%
G04 Gerber Fmt 4.6, Leading zero omitted, Abs format (unit mm)*
G04 Created by KiCad (PCBNEW (5.1.9-0-10_14)) date 2021-06-16 11:10:57*
%MOMM*%
%LPD*%
G01*
G04 APERTURE LIST*
%ADD10R,0.650000X0.400000*%
%ADD11R,0.600000X1.100000*%
%ADD12R,1.425000X3.700000*%
%ADD13C,0.500000*%
%ADD14R,1.140000X0.600000*%
%ADD15R,1.140000X0.300000*%
G04 APERTURE END LIST*
%TO.C,R16*%
G36*
G01*
X126475000Y-103325000D02*
X126475000Y-103875000D01*
G75*
G02*
X126275000Y-104075000I-200000J0D01*
G01*
X125875000Y-104075000D01*
G75*
G02*
X125675000Y-103875000I0J200000D01*
G01*
X125675000Y-103325000D01*
G75*
G02*
X125875000Y-103125000I200000J0D01*
G01*
X126275000Y-103125000D01*
G75*
G02*
X126475000Y-103325000I0J-200000D01*
G01*
G37*
G36*
G01*
X128125000Y-103325000D02*
X128125000Y-103875000D01*
G75*
G02*
X127925000Y-104075000I-200000J0D01*
G01*
X127525000Y-104075000D01*
G75*
G02*
X127325000Y-103875000I0J200000D01*
G01*
X127325000Y-103325000D01*
G75*
G02*
X127525000Y-103125000I200000J0D01*
G01*
X127925000Y-103125000D01*
G75*
G02*
X128125000Y-103325000I0J-200000D01*
G01*
G37*
%TD*%
%TO.C,D6*%
G36*
G01*
X126575000Y-118425000D02*
X126575000Y-117175000D01*
G75*
G02*
X126825000Y-116925000I250000J0D01*
G01*
X127750000Y-116925000D01*
G75*
G02*
X128000000Y-117175000I0J-250000D01*
G01*
X128000000Y-118425000D01*
G75*
G02*
X127750000Y-118675000I-250000J0D01*
G01*
X126825000Y-118675000D01*
G75*
G02*
X126575000Y-118425000I0J250000D01*
G01*
G37*
G36*
G01*
X123600000Y-118425000D02*
X123600000Y-117175000D01*
G75*
G02*
X123850000Y-116925000I250000J0D01*
G01*
X124775000Y-116925000D01*
G75*
G02*
X125025000Y-117175000I0J-250000D01*
G01*
X125025000Y-118425000D01*
G75*
G02*
X124775000Y-118675000I-250000J0D01*
G01*
X123850000Y-118675000D01*
G75*
G02*
X123600000Y-118425000I0J250000D01*
G01*
G37*
%TD*%
%TO.C,D5*%
G36*
G01*
X126450000Y-101962500D02*
X126450000Y-102437500D01*
G75*
G02*
X126212500Y-102675000I-237500J0D01*
G01*
X125637500Y-102675000D01*
G75*
G02*
X125400000Y-102437500I0J237500D01*
G01*
X125400000Y-101962500D01*
G75*
G02*
X125637500Y-101725000I237500J0D01*
G01*
X126212500Y-101725000D01*
G75*
G02*
X126450000Y-101962500I0J-237500D01*
G01*
G37*
G36*
G01*
X128200000Y-101962500D02*
X128200000Y-102437500D01*
G75*
G02*
X127962500Y-102675000I-237500J0D01*
G01*
X127387500Y-102675000D01*
G75*
G02*
X127150000Y-102437500I0J237500D01*
G01*
X127150000Y-101962500D01*
G75*
G02*
X127387500Y-101725000I237500J0D01*
G01*
X127962500Y-101725000D01*
G75*
G02*
X128200000Y-101962500I0J-237500D01*
G01*
G37*
%TD*%
D10*
%TO.C,D3*%
X118100000Y-118250000D03*
X118100000Y-119550000D03*
X116200000Y-118900000D03*
X118100000Y-118900000D03*
X116200000Y-119550000D03*
X116200000Y-118250000D03*
%TD*%
%TO.C,D2*%
X122150000Y-118250000D03*
X122150000Y-119550000D03*
X120250000Y-118900000D03*
X122150000Y-118900000D03*
X120250000Y-119550000D03*
X120250000Y-118250000D03*
%TD*%
%TO.C,C2*%
G36*
G01*
X111475000Y-118100000D02*
X111475000Y-118600000D01*
G75*
G02*
X111250000Y-118825000I-225000J0D01*
G01*
X110800000Y-118825000D01*
G75*
G02*
X110575000Y-118600000I0J225000D01*
G01*
X110575000Y-118100000D01*
G75*
G02*
X110800000Y-117875000I225000J0D01*
G01*
X111250000Y-117875000D01*
G75*
G02*
X111475000Y-118100000I0J-225000D01*
G01*
G37*
G36*
G01*
X113025000Y-118100000D02*
X113025000Y-118600000D01*
G75*
G02*
X112800000Y-118825000I-225000J0D01*
G01*
X112350000Y-118825000D01*
G75*
G02*
X112125000Y-118600000I0J225000D01*
G01*
X112125000Y-118100000D01*
G75*
G02*
X112350000Y-117875000I225000J0D01*
G01*
X112800000Y-117875000D01*
G75*
G02*
X113025000Y-118100000I0J-225000D01*
G01*
G37*
%TD*%
D11*
%TO.C,Reg1*%
X113700000Y-102800000D03*
X111800000Y-102800000D03*
X112750000Y-102800000D03*
X111800000Y-105500000D03*
X112750000Y-105500000D03*
X113700000Y-105500000D03*
G36*
G01*
X117675000Y-106250000D02*
X118625000Y-106250000D01*
G75*
G02*
X118875000Y-106500000I0J-250000D01*
G01*
X118875000Y-107000000D01*
G75*
G02*
X118625000Y-107250000I-250000J0D01*
G01*
X117675000Y-107250000D01*
G75*
G02*
X117425000Y-107000000I0J250000D01*
G01*
X117425000Y-106500000D01*
G75*
G02*
X117675000Y-106250000I250000J0D01*
G01*
G37*
G36*
G01*
X117675000Y-108150000D02*
X118625000Y-108150000D01*
G75*
G02*
X118875000Y-108400000I0J-250000D01*
G01*
X118875000Y-108900000D01*
G75*
G02*
X118625000Y-109150000I-250000J0D01*
G01*
X117675000Y-109150000D01*
G75*
G02*
X117425000Y-108900000I0J250000D01*
G01*
X117425000Y-108400000D01*
G75*
G02*
X117675000Y-108150000I250000J0D01*
G01*
G37*
G36*
G01*
X111425000Y-108150000D02*
X112375000Y-108150000D01*
G75*
G02*
X112625000Y-108400000I0J-250000D01*
G01*
X112625000Y-108900000D01*
G75*
G02*
X112375000Y-109150000I-250000J0D01*
G01*
X111425000Y-109150000D01*
G75*
G02*
X111175000Y-108900000I0J250000D01*
G01*
X111175000Y-108400000D01*
G75*
G02*
X111425000Y-108150000I250000J0D01*
G01*
G37*
G36*
G01*
X111425000Y-106250000D02*
X112375000Y-106250000D01*
G75*
G02*
X112625000Y-106500000I0J-250000D01*
G01*
X112625000Y-107000000D01*
G75*
G02*
X112375000Y-107250000I-250000J0D01*
G01*
X111425000Y-107250000D01*
G75*
G02*
X111175000Y-107000000I0J250000D01*
G01*
X111175000Y-106500000D01*
G75*
G02*
X111425000Y-106250000I250000J0D01*
G01*
G37*
G36*
G01*
X110900000Y-103825000D02*
X110400000Y-103825000D01*
G75*
G02*
X110175000Y-103600000I0J225000D01*
G01*
X110175000Y-103150000D01*
G75*
G02*
X110400000Y-102925000I225000J0D01*
G01*
X110900000Y-102925000D01*
G75*
G02*
X111125000Y-103150000I0J-225000D01*
G01*
X111125000Y-103600000D01*
G75*
G02*
X110900000Y-103825000I-225000J0D01*
G01*
G37*
G36*
G01*
X110900000Y-105375000D02*
X110400000Y-105375000D01*
G75*
G02*
X110175000Y-105150000I0J225000D01*
G01*
X110175000Y-104700000D01*
G75*
G02*
X110400000Y-104475000I225000J0D01*
G01*
X110900000Y-104475000D01*
G75*
G02*
X111125000Y-104700000I0J-225000D01*
G01*
X111125000Y-105150000D01*
G75*
G02*
X110900000Y-105375000I-225000J0D01*
G01*
G37*
G36*
G01*
X112825000Y-107945626D02*
X112825000Y-106694374D01*
G75*
G02*
X113074374Y-106445000I249374J0D01*
G01*
X114000626Y-106445000D01*
G75*
G02*
X114250000Y-106694374I0J-249374D01*
G01*
X114250000Y-107945626D01*
G75*
G02*
X114000626Y-108195000I-249374J0D01*
G01*
X113074374Y-108195000D01*
G75*
G02*
X112825000Y-107945626I0J249374D01*
G01*
G37*
G36*
G01*
X115800000Y-107945626D02*
X115800000Y-106694374D01*
G75*
G02*
X116049374Y-106445000I249374J0D01*
G01*
X116975626Y-106445000D01*
G75*
G02*
X117225000Y-106694374I0J-249374D01*
G01*
X117225000Y-107945626D01*
G75*
G02*
X116975626Y-108195000I-249374J0D01*
G01*
X116049374Y-108195000D01*
G75*
G02*
X115800000Y-107945626I0J249374D01*
G01*
G37*
D12*
X118150000Y-104200000D03*
X115150000Y-104200000D03*
%TD*%
%TO.C,R8*%
G36*
G01*
X121675000Y-104825000D02*
X121675000Y-105375000D01*
G75*
G02*
X121475000Y-105575000I-200000J0D01*
G01*
X121075000Y-105575000D01*
G75*
G02*
X120875000Y-105375000I0J200000D01*
G01*
X120875000Y-104825000D01*
G75*
G02*
X121075000Y-104625000I200000J0D01*
G01*
X121475000Y-104625000D01*
G75*
G02*
X121675000Y-104825000I0J-200000D01*
G01*
G37*
G36*
G01*
X123325000Y-104825000D02*
X123325000Y-105375000D01*
G75*
G02*
X123125000Y-105575000I-200000J0D01*
G01*
X122725000Y-105575000D01*
G75*
G02*
X122525000Y-105375000I0J200000D01*
G01*
X122525000Y-104825000D01*
G75*
G02*
X122725000Y-104625000I200000J0D01*
G01*
X123125000Y-104625000D01*
G75*
G02*
X123325000Y-104825000I0J-200000D01*
G01*
G37*
%TD*%
%TO.C,R7*%
G36*
G01*
X122525000Y-104175000D02*
X122525000Y-103625000D01*
G75*
G02*
X122725000Y-103425000I200000J0D01*
G01*
X123125000Y-103425000D01*
G75*
G02*
X123325000Y-103625000I0J-200000D01*
G01*
X123325000Y-104175000D01*
G75*
G02*
X123125000Y-104375000I-200000J0D01*
G01*
X122725000Y-104375000D01*
G75*
G02*
X122525000Y-104175000I0J200000D01*
G01*
G37*
G36*
G01*
X120875000Y-104175000D02*
X120875000Y-103625000D01*
G75*
G02*
X121075000Y-103425000I200000J0D01*
G01*
X121475000Y-103425000D01*
G75*
G02*
X121675000Y-103625000I0J-200000D01*
G01*
X121675000Y-104175000D01*
G75*
G02*
X121475000Y-104375000I-200000J0D01*
G01*
X121075000Y-104375000D01*
G75*
G02*
X120875000Y-104175000I0J200000D01*
G01*
G37*
%TD*%
D13*
%TO.C,U2*%
X118600000Y-115300000D03*
G36*
G01*
X116475000Y-112611000D02*
X116475000Y-112989000D01*
G75*
G02*
X116289000Y-113175000I-186000J0D01*
G01*
X115911000Y-113175000D01*
G75*
G02*
X115725000Y-112989000I0J186000D01*
G01*
X115725000Y-112611000D01*
G75*
G02*
X115911000Y-112425000I186000J0D01*
G01*
X116289000Y-112425000D01*
G75*
G02*
X116475000Y-112611000I0J-186000D01*
G01*
G37*
G36*
G01*
X116475000Y-113611000D02*
X116475000Y-113989000D01*
G75*
G02*
X116289000Y-114175000I-186000J0D01*
G01*
X115911000Y-114175000D01*
G75*
G02*
X115725000Y-113989000I0J186000D01*
G01*
X115725000Y-113611000D01*
G75*
G02*
X115911000Y-113425000I186000J0D01*
G01*
X116289000Y-113425000D01*
G75*
G02*
X116475000Y-113611000I0J-186000D01*
G01*
G37*
G36*
G01*
X117475000Y-112611000D02*
X117475000Y-112989000D01*
G75*
G02*
X117289000Y-113175000I-186000J0D01*
G01*
X116911000Y-113175000D01*
G75*
G02*
X116725000Y-112989000I0J186000D01*
G01*
X116725000Y-112611000D01*
G75*
G02*
X116911000Y-112425000I186000J0D01*
G01*
X117289000Y-112425000D01*
G75*
G02*
X117475000Y-112611000I0J-186000D01*
G01*
G37*
G36*
G01*
X117475000Y-113611000D02*
X117475000Y-113989000D01*
G75*
G02*
X117289000Y-114175000I-186000J0D01*
G01*
X116911000Y-114175000D01*
G75*
G02*
X116725000Y-113989000I0J186000D01*
G01*
X116725000Y-113611000D01*
G75*
G02*
X116911000Y-113425000I186000J0D01*
G01*
X117289000Y-113425000D01*
G75*
G02*
X117475000Y-113611000I0J-186000D01*
G01*
G37*
G36*
G01*
X117725000Y-114862500D02*
X117725000Y-115737500D01*
G75*
G02*
X117662500Y-115800000I-62500J0D01*
G01*
X117537500Y-115800000D01*
G75*
G02*
X117475000Y-115737500I0J62500D01*
G01*
X117475000Y-114862500D01*
G75*
G02*
X117537500Y-114800000I62500J0D01*
G01*
X117662500Y-114800000D01*
G75*
G02*
X117725000Y-114862500I0J-62500D01*
G01*
G37*
G36*
G01*
X117225000Y-114862500D02*
X117225000Y-115737500D01*
G75*
G02*
X117162500Y-115800000I-62500J0D01*
G01*
X117037500Y-115800000D01*
G75*
G02*
X116975000Y-115737500I0J62500D01*
G01*
X116975000Y-114862500D01*
G75*
G02*
X117037500Y-114800000I62500J0D01*
G01*
X117162500Y-114800000D01*
G75*
G02*
X117225000Y-114862500I0J-62500D01*
G01*
G37*
G36*
G01*
X116725000Y-114862500D02*
X116725000Y-115737500D01*
G75*
G02*
X116662500Y-115800000I-62500J0D01*
G01*
X116537500Y-115800000D01*
G75*
G02*
X116475000Y-115737500I0J62500D01*
G01*
X116475000Y-114862500D01*
G75*
G02*
X116537500Y-114800000I62500J0D01*
G01*
X116662500Y-114800000D01*
G75*
G02*
X116725000Y-114862500I0J-62500D01*
G01*
G37*
G36*
G01*
X116225000Y-114862500D02*
X116225000Y-115737500D01*
G75*
G02*
X116162500Y-115800000I-62500J0D01*
G01*
X116037500Y-115800000D01*
G75*
G02*
X115975000Y-115737500I0J62500D01*
G01*
X115975000Y-114862500D01*
G75*
G02*
X116037500Y-114800000I62500J0D01*
G01*
X116162500Y-114800000D01*
G75*
G02*
X116225000Y-114862500I0J-62500D01*
G01*
G37*
G36*
G01*
X115725000Y-114862500D02*
X115725000Y-115737500D01*
G75*
G02*
X115662500Y-115800000I-62500J0D01*
G01*
X115537500Y-115800000D01*
G75*
G02*
X115475000Y-115737500I0J62500D01*
G01*
X115475000Y-114862500D01*
G75*
G02*
X115537500Y-114800000I62500J0D01*
G01*
X115662500Y-114800000D01*
G75*
G02*
X115725000Y-114862500I0J-62500D01*
G01*
G37*
G36*
G01*
X115100000Y-114237500D02*
X115100000Y-114362500D01*
G75*
G02*
X115037500Y-114425000I-62500J0D01*
G01*
X114162500Y-114425000D01*
G75*
G02*
X114100000Y-114362500I0J62500D01*
G01*
X114100000Y-114237500D01*
G75*
G02*
X114162500Y-114175000I62500J0D01*
G01*
X115037500Y-114175000D01*
G75*
G02*
X115100000Y-114237500I0J-62500D01*
G01*
G37*
G36*
G01*
X115100000Y-113737500D02*
X115100000Y-113862500D01*
G75*
G02*
X115037500Y-113925000I-62500J0D01*
G01*
X114162500Y-113925000D01*
G75*
G02*
X114100000Y-113862500I0J62500D01*
G01*
X114100000Y-113737500D01*
G75*
G02*
X114162500Y-113675000I62500J0D01*
G01*
X115037500Y-113675000D01*
G75*
G02*
X115100000Y-113737500I0J-62500D01*
G01*
G37*
G36*
G01*
X115100000Y-113237500D02*
X115100000Y-113362500D01*
G75*
G02*
X115037500Y-113425000I-62500J0D01*
G01*
X114162500Y-113425000D01*
G75*
G02*
X114100000Y-113362500I0J62500D01*
G01*
X114100000Y-113237500D01*
G75*
G02*
X114162500Y-113175000I62500J0D01*
G01*
X115037500Y-113175000D01*
G75*
G02*
X115100000Y-113237500I0J-62500D01*
G01*
G37*
G36*
G01*
X115100000Y-112737500D02*
X115100000Y-112862500D01*
G75*
G02*
X115037500Y-112925000I-62500J0D01*
G01*
X114162500Y-112925000D01*
G75*
G02*
X114100000Y-112862500I0J62500D01*
G01*
X114100000Y-112737500D01*
G75*
G02*
X114162500Y-112675000I62500J0D01*
G01*
X115037500Y-112675000D01*
G75*
G02*
X115100000Y-112737500I0J-62500D01*
G01*
G37*
G36*
G01*
X115100000Y-112237500D02*
X115100000Y-112362500D01*
G75*
G02*
X115037500Y-112425000I-62500J0D01*
G01*
X114162500Y-112425000D01*
G75*
G02*
X114100000Y-112362500I0J62500D01*
G01*
X114100000Y-112237500D01*
G75*
G02*
X114162500Y-112175000I62500J0D01*
G01*
X115037500Y-112175000D01*
G75*
G02*
X115100000Y-112237500I0J-62500D01*
G01*
G37*
G36*
G01*
X115725000Y-110862500D02*
X115725000Y-111737500D01*
G75*
G02*
X115662500Y-111800000I-62500J0D01*
G01*
X115537500Y-111800000D01*
G75*
G02*
X115475000Y-111737500I0J62500D01*
G01*
X115475000Y-110862500D01*
G75*
G02*
X115537500Y-110800000I62500J0D01*
G01*
X115662500Y-110800000D01*
G75*
G02*
X115725000Y-110862500I0J-62500D01*
G01*
G37*
G36*
G01*
X116225000Y-110862500D02*
X116225000Y-111737500D01*
G75*
G02*
X116162500Y-111800000I-62500J0D01*
G01*
X116037500Y-111800000D01*
G75*
G02*
X115975000Y-111737500I0J62500D01*
G01*
X115975000Y-110862500D01*
G75*
G02*
X116037500Y-110800000I62500J0D01*
G01*
X116162500Y-110800000D01*
G75*
G02*
X116225000Y-110862500I0J-62500D01*
G01*
G37*
G36*
G01*
X116725000Y-110862500D02*
X116725000Y-111737500D01*
G75*
G02*
X116662500Y-111800000I-62500J0D01*
G01*
X116537500Y-111800000D01*
G75*
G02*
X116475000Y-111737500I0J62500D01*
G01*
X116475000Y-110862500D01*
G75*
G02*
X116537500Y-110800000I62500J0D01*
G01*
X116662500Y-110800000D01*
G75*
G02*
X116725000Y-110862500I0J-62500D01*
G01*
G37*
G36*
G01*
X117225000Y-110862500D02*
X117225000Y-111737500D01*
G75*
G02*
X117162500Y-111800000I-62500J0D01*
G01*
X117037500Y-111800000D01*
G75*
G02*
X116975000Y-111737500I0J62500D01*
G01*
X116975000Y-110862500D01*
G75*
G02*
X117037500Y-110800000I62500J0D01*
G01*
X117162500Y-110800000D01*
G75*
G02*
X117225000Y-110862500I0J-62500D01*
G01*
G37*
G36*
G01*
X117725000Y-110862500D02*
X117725000Y-111737500D01*
G75*
G02*
X117662500Y-111800000I-62500J0D01*
G01*
X117537500Y-111800000D01*
G75*
G02*
X117475000Y-111737500I0J62500D01*
G01*
X117475000Y-110862500D01*
G75*
G02*
X117537500Y-110800000I62500J0D01*
G01*
X117662500Y-110800000D01*
G75*
G02*
X117725000Y-110862500I0J-62500D01*
G01*
G37*
G36*
G01*
X119100000Y-112237500D02*
X119100000Y-112362500D01*
G75*
G02*
X119037500Y-112425000I-62500J0D01*
G01*
X118162500Y-112425000D01*
G75*
G02*
X118100000Y-112362500I0J62500D01*
G01*
X118100000Y-112237500D01*
G75*
G02*
X118162500Y-112175000I62500J0D01*
G01*
X119037500Y-112175000D01*
G75*
G02*
X119100000Y-112237500I0J-62500D01*
G01*
G37*
G36*
G01*
X119100000Y-112737500D02*
X119100000Y-112862500D01*
G75*
G02*
X119037500Y-112925000I-62500J0D01*
G01*
X118162500Y-112925000D01*
G75*
G02*
X118100000Y-112862500I0J62500D01*
G01*
X118100000Y-112737500D01*
G75*
G02*
X118162500Y-112675000I62500J0D01*
G01*
X119037500Y-112675000D01*
G75*
G02*
X119100000Y-112737500I0J-62500D01*
G01*
G37*
G36*
G01*
X119100000Y-113237500D02*
X119100000Y-113362500D01*
G75*
G02*
X119037500Y-113425000I-62500J0D01*
G01*
X118162500Y-113425000D01*
G75*
G02*
X118100000Y-113362500I0J62500D01*
G01*
X118100000Y-113237500D01*
G75*
G02*
X118162500Y-113175000I62500J0D01*
G01*
X119037500Y-113175000D01*
G75*
G02*
X119100000Y-113237500I0J-62500D01*
G01*
G37*
G36*
G01*
X119100000Y-113737500D02*
X119100000Y-113862500D01*
G75*
G02*
X119037500Y-113925000I-62500J0D01*
G01*
X118162500Y-113925000D01*
G75*
G02*
X118100000Y-113862500I0J62500D01*
G01*
X118100000Y-113737500D01*
G75*
G02*
X118162500Y-113675000I62500J0D01*
G01*
X119037500Y-113675000D01*
G75*
G02*
X119100000Y-113737500I0J-62500D01*
G01*
G37*
G36*
G01*
X119100000Y-114237500D02*
X119100000Y-114362500D01*
G75*
G02*
X119037500Y-114425000I-62500J0D01*
G01*
X118162500Y-114425000D01*
G75*
G02*
X118100000Y-114362500I0J62500D01*
G01*
X118100000Y-114237500D01*
G75*
G02*
X118162500Y-114175000I62500J0D01*
G01*
X119037500Y-114175000D01*
G75*
G02*
X119100000Y-114237500I0J-62500D01*
G01*
G37*
%TD*%
%TO.C,J2*%
G36*
G01*
X126047500Y-112250000D02*
X125582500Y-112250000D01*
G75*
G02*
X125350000Y-112017500I0J232500D01*
G01*
X125350000Y-111552500D01*
G75*
G02*
X125582500Y-111320000I232500J0D01*
G01*
X126047500Y-111320000D01*
G75*
G02*
X126280000Y-111552500I0J-232500D01*
G01*
X126280000Y-112017500D01*
G75*
G02*
X126047500Y-112250000I-232500J0D01*
G01*
G37*
G36*
G01*
X127197500Y-112250000D02*
X126732500Y-112250000D01*
G75*
G02*
X126500000Y-112017500I0J232500D01*
G01*
X126500000Y-111552500D01*
G75*
G02*
X126732500Y-111320000I232500J0D01*
G01*
X127197500Y-111320000D01*
G75*
G02*
X127430000Y-111552500I0J-232500D01*
G01*
X127430000Y-112017500D01*
G75*
G02*
X127197500Y-112250000I-232500J0D01*
G01*
G37*
G36*
G01*
X128347500Y-112250000D02*
X127882500Y-112250000D01*
G75*
G02*
X127650000Y-112017500I0J232500D01*
G01*
X127650000Y-111552500D01*
G75*
G02*
X127882500Y-111320000I232500J0D01*
G01*
X128347500Y-111320000D01*
G75*
G02*
X128580000Y-111552500I0J-232500D01*
G01*
X128580000Y-112017500D01*
G75*
G02*
X128347500Y-112250000I-232500J0D01*
G01*
G37*
G36*
G01*
X124897500Y-111100000D02*
X124432500Y-111100000D01*
G75*
G02*
X124200000Y-110867500I0J232500D01*
G01*
X124200000Y-110402500D01*
G75*
G02*
X124432500Y-110170000I232500J0D01*
G01*
X124897500Y-110170000D01*
G75*
G02*
X125130000Y-110402500I0J-232500D01*
G01*
X125130000Y-110867500D01*
G75*
G02*
X124897500Y-111100000I-232500J0D01*
G01*
G37*
G36*
G01*
X126047500Y-111100000D02*
X125582500Y-111100000D01*
G75*
G02*
X125350000Y-110867500I0J232500D01*
G01*
X125350000Y-110402500D01*
G75*
G02*
X125582500Y-110170000I232500J0D01*
G01*
X126047500Y-110170000D01*
G75*
G02*
X126280000Y-110402500I0J-232500D01*
G01*
X126280000Y-110867500D01*
G75*
G02*
X126047500Y-111100000I-232500J0D01*
G01*
G37*
G36*
G01*
X127197500Y-111100000D02*
X126732500Y-111100000D01*
G75*
G02*
X126500000Y-110867500I0J232500D01*
G01*
X126500000Y-110402500D01*
G75*
G02*
X126732500Y-110170000I232500J0D01*
G01*
X127197500Y-110170000D01*
G75*
G02*
X127430000Y-110402500I0J-232500D01*
G01*
X127430000Y-110867500D01*
G75*
G02*
X127197500Y-111100000I-232500J0D01*
G01*
G37*
G36*
G01*
X128347500Y-111100000D02*
X127882500Y-111100000D01*
G75*
G02*
X127650000Y-110867500I0J232500D01*
G01*
X127650000Y-110402500D01*
G75*
G02*
X127882500Y-110170000I232500J0D01*
G01*
X128347500Y-110170000D01*
G75*
G02*
X128580000Y-110402500I0J-232500D01*
G01*
X128580000Y-110867500D01*
G75*
G02*
X128347500Y-111100000I-232500J0D01*
G01*
G37*
G36*
G01*
X124897500Y-109950000D02*
X124432500Y-109950000D01*
G75*
G02*
X124200000Y-109717500I0J232500D01*
G01*
X124200000Y-109252500D01*
G75*
G02*
X124432500Y-109020000I232500J0D01*
G01*
X124897500Y-109020000D01*
G75*
G02*
X125130000Y-109252500I0J-232500D01*
G01*
X125130000Y-109717500D01*
G75*
G02*
X124897500Y-109950000I-232500J0D01*
G01*
G37*
G36*
G01*
X126047500Y-109950000D02*
X125582500Y-109950000D01*
G75*
G02*
X125350000Y-109717500I0J232500D01*
G01*
X125350000Y-109252500D01*
G75*
G02*
X125582500Y-109020000I232500J0D01*
G01*
X126047500Y-109020000D01*
G75*
G02*
X126280000Y-109252500I0J-232500D01*
G01*
X126280000Y-109717500D01*
G75*
G02*
X126047500Y-109950000I-232500J0D01*
G01*
G37*
G36*
G01*
X127197500Y-109950000D02*
X126732500Y-109950000D01*
G75*
G02*
X126500000Y-109717500I0J232500D01*
G01*
X126500000Y-109252500D01*
G75*
G02*
X126732500Y-109020000I232500J0D01*
G01*
X127197500Y-109020000D01*
G75*
G02*
X127430000Y-109252500I0J-232500D01*
G01*
X127430000Y-109717500D01*
G75*
G02*
X127197500Y-109950000I-232500J0D01*
G01*
G37*
G36*
G01*
X128347500Y-109950000D02*
X127882500Y-109950000D01*
G75*
G02*
X127650000Y-109717500I0J232500D01*
G01*
X127650000Y-109252500D01*
G75*
G02*
X127882500Y-109020000I232500J0D01*
G01*
X128347500Y-109020000D01*
G75*
G02*
X128580000Y-109252500I0J-232500D01*
G01*
X128580000Y-109717500D01*
G75*
G02*
X128347500Y-109950000I-232500J0D01*
G01*
G37*
G36*
G01*
X124897500Y-113400000D02*
X124432500Y-113400000D01*
G75*
G02*
X124200000Y-113167500I0J232500D01*
G01*
X124200000Y-112702500D01*
G75*
G02*
X124432500Y-112470000I232500J0D01*
G01*
X124897500Y-112470000D01*
G75*
G02*
X125130000Y-112702500I0J-232500D01*
G01*
X125130000Y-113167500D01*
G75*
G02*
X124897500Y-113400000I-232500J0D01*
G01*
G37*
G36*
G01*
X126047500Y-113400000D02*
X125582500Y-113400000D01*
G75*
G02*
X125350000Y-113167500I0J232500D01*
G01*
X125350000Y-112702500D01*
G75*
G02*
X125582500Y-112470000I232500J0D01*
G01*
X126047500Y-112470000D01*
G75*
G02*
X126280000Y-112702500I0J-232500D01*
G01*
X126280000Y-113167500D01*
G75*
G02*
X126047500Y-113400000I-232500J0D01*
G01*
G37*
G36*
G01*
X127197500Y-113400000D02*
X126732500Y-113400000D01*
G75*
G02*
X126500000Y-113167500I0J232500D01*
G01*
X126500000Y-112702500D01*
G75*
G02*
X126732500Y-112470000I232500J0D01*
G01*
X127197500Y-112470000D01*
G75*
G02*
X127430000Y-112702500I0J-232500D01*
G01*
X127430000Y-113167500D01*
G75*
G02*
X127197500Y-113400000I-232500J0D01*
G01*
G37*
G36*
G01*
X128347500Y-113400000D02*
X127882500Y-113400000D01*
G75*
G02*
X127650000Y-113167500I0J232500D01*
G01*
X127650000Y-112702500D01*
G75*
G02*
X127882500Y-112470000I232500J0D01*
G01*
X128347500Y-112470000D01*
G75*
G02*
X128580000Y-112702500I0J-232500D01*
G01*
X128580000Y-113167500D01*
G75*
G02*
X128347500Y-113400000I-232500J0D01*
G01*
G37*
G36*
G01*
X124897500Y-112250000D02*
X124432500Y-112250000D01*
G75*
G02*
X124200000Y-112017500I0J232500D01*
G01*
X124200000Y-111552500D01*
G75*
G02*
X124432500Y-111320000I232500J0D01*
G01*
X124897500Y-111320000D01*
G75*
G02*
X125130000Y-111552500I0J-232500D01*
G01*
X125130000Y-112017500D01*
G75*
G02*
X124897500Y-112250000I-232500J0D01*
G01*
G37*
D14*
X122240000Y-113600000D03*
X122240000Y-108800000D03*
D15*
X122240000Y-110950000D03*
X122240000Y-111450000D03*
X122240000Y-110450000D03*
X122240000Y-111950000D03*
X122240000Y-109950000D03*
X122240000Y-112450000D03*
X122240000Y-109450000D03*
X122240000Y-112950000D03*
D14*
X122240000Y-108000000D03*
X122240000Y-114400000D03*
%TD*%
M02*
