M48
; DRILL file {KiCad (5.1.10-1-10_14)} date Tuesday, May 11, 2021 at 06:40:31 PM
; FORMAT={-:-/ absolute / inch / decimal}
; #@! TF.CreationDate,2021-05-11T18:40:31+01:00
; #@! TF.GenerationSoftware,Kicad,Pcbnew,(5.1.10-1-10_14)
; #@! TF.FileFunction,Plated,1,2,PTH
FMAT,2
INCH
T1C0.0098
T2C0.0157
T3C0.0236
T4C0.0394
T5C0.0472
T6C0.0591
%
G90
G05
T1
X4.7589Y-4.6073
T2
X4.4213Y-4.002
X4.4374Y-4.5967
X4.4736Y-4.9754
X4.4803Y-4.6183
X4.5133Y-4.03
X4.5624Y-4.6277
X4.6353Y-4.4655
X4.6693Y-4.3189
X4.6752Y-4.0846
X4.7047Y-4.4447
X4.7874Y-4.3602
X4.7874Y-4.4172
X4.8484Y-4.4217
X4.8858Y-4.5433
X4.8903Y-4.6515
X4.8976Y-4.3091
X4.9214Y-5.0522
X4.9336Y-4.6032
X4.9693Y-4.5704
X4.9744Y-4.5261
X4.9796Y-4.6461
T3
X4.5508Y-4.2642
X4.5508Y-4.4917
T4
X4.4173Y-4.9472
X4.4173Y-5.0472
X4.4549Y-4.8386
X4.5549Y-4.8386
X4.6549Y-4.8386
X4.7549Y-4.8386
X4.8549Y-4.8386
X4.9549Y-4.8386
T5
X4.4051Y-4.2077
X4.4051Y-4.5482
T6
X4.5697Y-4.2077
X4.5697Y-4.5482
T0
M30
