%TF.GenerationSoftware,KiCad,Pcbnew,(5.1.9-0-10_14)*%
%TF.CreationDate,2021-03-07T19:09:34+00:00*%
%TF.ProjectId,Generic,47656e65-7269-4632-9e6b-696361645f70,rev?*%
%TF.SameCoordinates,Original*%
%TF.FileFunction,Copper,L1,Top*%
%TF.FilePolarity,Positive*%
%FSLAX46Y46*%
G04 Gerber Fmt 4.6, Leading zero omitted, Abs format (unit mm)*
G04 Created by KiCad (PCBNEW (5.1.9-0-10_14)) date 2021-03-07 19:09:34*
%MOMM*%
%LPD*%
G01*
G04 APERTURE LIST*
%TA.AperFunction,NonConductor*%
%ADD10C,0.300000*%
%TD*%
%TA.AperFunction,ComponentPad*%
%ADD11C,1.524000*%
%TD*%
%TA.AperFunction,ComponentPad*%
%ADD12R,1.524000X1.524000*%
%TD*%
%TA.AperFunction,ComponentPad*%
%ADD13C,2.000000*%
%TD*%
%TA.AperFunction,ComponentPad*%
%ADD14C,0.600000*%
%TD*%
%TA.AperFunction,SMDPad,CuDef*%
%ADD15R,2.000000X0.900000*%
%TD*%
%TA.AperFunction,SMDPad,CuDef*%
%ADD16R,0.900000X2.000000*%
%TD*%
%TA.AperFunction,SMDPad,CuDef*%
%ADD17R,5.000000X5.000000*%
%TD*%
%TA.AperFunction,ComponentPad*%
%ADD18O,1.700000X1.850000*%
%TD*%
%TA.AperFunction,ViaPad*%
%ADD19C,0.800000*%
%TD*%
%TA.AperFunction,Conductor*%
%ADD20C,0.250000*%
%TD*%
%TA.AperFunction,Conductor*%
%ADD21C,0.254000*%
%TD*%
%TA.AperFunction,Conductor*%
%ADD22C,0.100000*%
%TD*%
G04 APERTURE END LIST*
D10*
X116314285Y-123678571D02*
X116600000Y-124678571D01*
X116885714Y-123964285D01*
X117171428Y-124678571D01*
X117457142Y-123678571D01*
X117885714Y-123678571D02*
X118171428Y-124678571D01*
X118457142Y-123964285D01*
X118742857Y-124678571D01*
X119028571Y-123678571D01*
X119457142Y-123678571D02*
X119742857Y-124678571D01*
X120028571Y-123964285D01*
X120314285Y-124678571D01*
X120600000Y-123678571D01*
X121171428Y-124535714D02*
X121242857Y-124607142D01*
X121171428Y-124678571D01*
X121100000Y-124607142D01*
X121171428Y-124535714D01*
X121171428Y-124678571D01*
X121885714Y-124678571D02*
X121885714Y-123678571D01*
X121885714Y-123821428D02*
X121957142Y-123750000D01*
X122100000Y-123678571D01*
X122314285Y-123678571D01*
X122457142Y-123750000D01*
X122528571Y-123892857D01*
X122528571Y-124678571D01*
X122528571Y-123892857D02*
X122600000Y-123750000D01*
X122742857Y-123678571D01*
X122957142Y-123678571D01*
X123100000Y-123750000D01*
X123171428Y-123892857D01*
X123171428Y-124678571D01*
X124457142Y-124607142D02*
X124314285Y-124678571D01*
X124028571Y-124678571D01*
X123885714Y-124607142D01*
X123814285Y-124464285D01*
X123814285Y-123892857D01*
X123885714Y-123750000D01*
X124028571Y-123678571D01*
X124314285Y-123678571D01*
X124457142Y-123750000D01*
X124528571Y-123892857D01*
X124528571Y-124035714D01*
X123814285Y-124178571D01*
X125171428Y-124535714D02*
X125242857Y-124607142D01*
X125171428Y-124678571D01*
X125100000Y-124607142D01*
X125171428Y-124535714D01*
X125171428Y-124678571D01*
X126528571Y-123678571D02*
X126528571Y-124678571D01*
X125885714Y-123678571D02*
X125885714Y-124464285D01*
X125957142Y-124607142D01*
X126100000Y-124678571D01*
X126314285Y-124678571D01*
X126457142Y-124607142D01*
X126528571Y-124535714D01*
X127242857Y-124678571D02*
X127242857Y-123178571D01*
X127385714Y-124107142D02*
X127814285Y-124678571D01*
X127814285Y-123678571D02*
X127242857Y-124250000D01*
D11*
%TO.P,M1,4*%
%TO.N,+3V3*%
X122560000Y-111150000D03*
D12*
%TO.P,M1,3*%
%TO.N,GND*%
X125100000Y-111150000D03*
D11*
%TO.P,M1,2*%
%TO.N,VBUS*%
X127640000Y-111150000D03*
%TD*%
D13*
%TO.P,J2,S1*%
%TO.N,GND*%
X114390000Y-104375000D03*
X114390000Y-113025000D03*
X118570000Y-104375000D03*
X118570000Y-113025000D03*
D14*
X118090000Y-105810000D03*
X118090000Y-111590000D03*
%TD*%
D15*
%TO.P,U1,38*%
%TO.N,GND*%
X130500000Y-99795000D03*
%TO.P,U1,37*%
%TO.N,Net-(U1-Pad37)*%
X130500000Y-101065000D03*
%TO.P,U1,36*%
%TO.N,Net-(U1-Pad36)*%
X130500000Y-102335000D03*
%TO.P,U1,35*%
%TO.N,O*%
X130500000Y-103605000D03*
%TO.P,U1,34*%
%TO.N,I*%
X130500000Y-104875000D03*
%TO.P,U1,33*%
%TO.N,Net-(U1-Pad33)*%
X130500000Y-106145000D03*
%TO.P,U1,32*%
%TO.N,Net-(U1-Pad32)*%
X130500000Y-107415000D03*
%TO.P,U1,31*%
%TO.N,Net-(U1-Pad31)*%
X130500000Y-108685000D03*
%TO.P,U1,30*%
%TO.N,Net-(U1-Pad30)*%
X130500000Y-109955000D03*
%TO.P,U1,29*%
%TO.N,CBUS1*%
X130500000Y-111225000D03*
%TO.P,U1,28*%
%TO.N,CBUS0*%
X130500000Y-112495000D03*
%TO.P,U1,27*%
%TO.N,IO4*%
X130500000Y-113765000D03*
%TO.P,U1,26*%
%TO.N,IO5*%
X130500000Y-115035000D03*
%TO.P,U1,25*%
%TO.N,CBUS3*%
X130500000Y-116305000D03*
D16*
%TO.P,U1,24*%
%TO.N,IO3*%
X127715000Y-117305000D03*
%TO.P,U1,23*%
%TO.N,IO2*%
X126445000Y-117305000D03*
%TO.P,U1,22*%
%TO.N,Net-(U1-Pad22)*%
X125175000Y-117305000D03*
%TO.P,U1,21*%
%TO.N,Net-(U1-Pad21)*%
X123905000Y-117305000D03*
%TO.P,U1,20*%
%TO.N,Net-(U1-Pad20)*%
X122635000Y-117305000D03*
%TO.P,U1,19*%
%TO.N,Net-(U1-Pad19)*%
X121365000Y-117305000D03*
%TO.P,U1,18*%
%TO.N,Net-(U1-Pad18)*%
X120095000Y-117305000D03*
%TO.P,U1,17*%
%TO.N,Net-(U1-Pad17)*%
X118825000Y-117305000D03*
%TO.P,U1,16*%
%TO.N,IO1*%
X117555000Y-117305000D03*
%TO.P,U1,15*%
%TO.N,GND*%
X116285000Y-117305000D03*
D15*
%TO.P,U1,14*%
%TO.N,Net-(U1-Pad14)*%
X113500000Y-116305000D03*
%TO.P,U1,13*%
%TO.N,CBUS2*%
X113500000Y-115035000D03*
%TO.P,U1,12*%
%TO.N,GND*%
X113500000Y-113765000D03*
%TO.P,U1,11*%
X113500000Y-112495000D03*
%TO.P,U1,10*%
%TO.N,Net-(U1-Pad10)*%
X113500000Y-111225000D03*
%TO.P,U1,9*%
%TO.N,Net-(U1-Pad9)*%
X113500000Y-109955000D03*
%TO.P,U1,8*%
%TO.N,Net-(U1-Pad8)*%
X113500000Y-108685000D03*
%TO.P,U1,7*%
%TO.N,GND*%
X113500000Y-107415000D03*
%TO.P,U1,6*%
X113500000Y-106145000D03*
%TO.P,U1,5*%
X113500000Y-104875000D03*
%TO.P,U1,4*%
X113500000Y-103605000D03*
%TO.P,U1,3*%
%TO.N,EN*%
X113500000Y-102335000D03*
%TO.P,U1,2*%
%TO.N,+3V3*%
X113500000Y-101065000D03*
%TO.P,U1,1*%
%TO.N,GND*%
X113500000Y-99795000D03*
D17*
%TO.P,U1,39*%
X121000000Y-107295000D03*
%TD*%
D18*
%TO.P,J1,6*%
%TO.N,IO5*%
X128500000Y-120400000D03*
%TO.P,J1,5*%
%TO.N,IO4*%
X126000000Y-120400000D03*
%TO.P,J1,4*%
%TO.N,IO3*%
X123500000Y-120400000D03*
%TO.P,J1,3*%
%TO.N,IO2*%
X121000000Y-120400000D03*
%TO.P,J1,2*%
%TO.N,IO1*%
X118500000Y-120400000D03*
%TO.P,J1,1*%
%TO.N,GND*%
%TA.AperFunction,ComponentPad*%
G36*
G01*
X115150000Y-121075000D02*
X115150000Y-119725000D01*
G75*
G02*
X115400000Y-119475000I250000J0D01*
G01*
X116600000Y-119475000D01*
G75*
G02*
X116850000Y-119725000I0J-250000D01*
G01*
X116850000Y-121075000D01*
G75*
G02*
X116600000Y-121325000I-250000J0D01*
G01*
X115400000Y-121325000D01*
G75*
G02*
X115150000Y-121075000I0J250000D01*
G01*
G37*
%TD.AperFunction*%
%TD*%
D19*
%TO.N,D+*%
X120579247Y-111802503D03*
X120581010Y-103693670D03*
%TO.N,GND*%
X115050000Y-99800000D03*
X128300000Y-99800000D03*
X125800000Y-113600000D03*
X124500000Y-105450000D03*
%TO.N,D-*%
X126628251Y-104652932D03*
X121772447Y-103083738D03*
X123664831Y-103744605D03*
%TO.N,+3V3*%
X126750000Y-100900000D03*
X116800000Y-125800000D03*
X127383573Y-103328155D03*
%TO.N,O*%
X118893429Y-115075011D03*
%TO.N,I*%
X127739571Y-115630549D03*
%TO.N,EN*%
X128450000Y-101850000D03*
X127882959Y-106132959D03*
X123320237Y-112280083D03*
X126633851Y-115704996D03*
X128355431Y-103563773D03*
%TO.N,CBUS3*%
X129864808Y-118040128D03*
%TO.N,CBUS0*%
X128910975Y-113200756D03*
%TO.N,CBUS1*%
X127950000Y-113650000D03*
%TO.N,CBUS2*%
X115040264Y-115594011D03*
%TD*%
D20*
%TO.N,D+*%
X117747599Y-102599988D02*
X119487328Y-102599988D01*
X119487328Y-102599988D02*
X120581010Y-103693670D01*
X120579247Y-111802503D02*
X119286090Y-111802503D01*
X116794988Y-103552599D02*
X117747599Y-102599988D01*
X116794988Y-109311401D02*
X116794988Y-103552599D01*
X119286090Y-111802503D02*
X116794988Y-109311401D01*
%TO.N,GND*%
X116285000Y-120115000D02*
X116000000Y-120400000D01*
X116285000Y-117305000D02*
X116285000Y-120115000D01*
X113890000Y-104875000D02*
X114390000Y-104375000D01*
X113500000Y-104875000D02*
X113890000Y-104875000D01*
X114030000Y-113025000D02*
X113500000Y-112495000D01*
X114390000Y-113025000D02*
X114030000Y-113025000D01*
X113650000Y-113765000D02*
X114390000Y-113025000D01*
X113500000Y-113765000D02*
X113650000Y-113765000D01*
X113620000Y-103605000D02*
X114390000Y-104375000D01*
X113500000Y-103605000D02*
X113620000Y-103605000D01*
X125100000Y-112900000D02*
X125100000Y-111150000D01*
X125800000Y-113600000D02*
X125100000Y-112900000D01*
X121000000Y-107295000D02*
X121000000Y-106805000D01*
X121000000Y-106805000D02*
X118570000Y-104375000D01*
%TO.N,D-*%
X121772447Y-103083738D02*
X122433314Y-103744605D01*
X122433314Y-103744605D02*
X123664831Y-103744605D01*
X126628251Y-104652932D02*
X125719924Y-103744605D01*
X125719924Y-103744605D02*
X123664831Y-103744605D01*
%TO.N,+3V3*%
X122560000Y-114840000D02*
X122560000Y-111150000D01*
X115874135Y-115800012D02*
X121599988Y-115800012D01*
X115509999Y-116164148D02*
X115874135Y-115800012D01*
X115509999Y-116330003D02*
X115509999Y-116164148D01*
X116800000Y-125800000D02*
X116000000Y-125800000D01*
X116000000Y-125800000D02*
X113200000Y-123000000D01*
X113200000Y-118640002D02*
X115509999Y-116330003D01*
X121599988Y-115800012D02*
X122560000Y-114840000D01*
X113200000Y-123000000D02*
X113200000Y-118640002D01*
X122560000Y-111150000D02*
X122730002Y-111150000D01*
X127150009Y-106729993D02*
X127150009Y-105840589D01*
X127803264Y-105187334D02*
X127803264Y-104118530D01*
X127150009Y-105840589D02*
X127803264Y-105187334D01*
X127803264Y-104118530D02*
X127383573Y-103698839D01*
X127383573Y-103698839D02*
X127383573Y-103328155D01*
X122730002Y-111150000D02*
X127150009Y-106729993D01*
X125200000Y-102450000D02*
X126750000Y-100900000D01*
X123200000Y-102450000D02*
X125200000Y-102450000D01*
X122449967Y-101699967D02*
X123200000Y-102450000D01*
X115349967Y-101699967D02*
X122449967Y-101699967D01*
X114715000Y-101065000D02*
X115349967Y-101699967D01*
X113500000Y-101065000D02*
X114715000Y-101065000D01*
%TO.N,IO5*%
X129250000Y-115035000D02*
X130500000Y-115035000D01*
X129139807Y-119760193D02*
X129139807Y-115145193D01*
X129139807Y-115145193D02*
X129250000Y-115035000D01*
X128500000Y-120400000D02*
X129139807Y-119760193D01*
%TO.N,IO4*%
X126000000Y-120400000D02*
X126655002Y-120400000D01*
X126655002Y-120400000D02*
X128689796Y-118365206D01*
X128689796Y-114810202D02*
X129734998Y-113765000D01*
X128689796Y-118365206D02*
X128689796Y-114810202D01*
X129734998Y-113765000D02*
X130500000Y-113765000D01*
%TO.N,IO3*%
X127715000Y-118555000D02*
X127715000Y-117305000D01*
X127120010Y-119149990D02*
X127715000Y-118555000D01*
X123500000Y-120400000D02*
X124750010Y-119149990D01*
X124750010Y-119149990D02*
X127120010Y-119149990D01*
%TO.N,IO2*%
X126300021Y-118699979D02*
X126445000Y-118555000D01*
X121000000Y-120400000D02*
X122700021Y-118699979D01*
X126445000Y-118555000D02*
X126445000Y-117305000D01*
X122700021Y-118699979D02*
X126300021Y-118699979D01*
%TO.N,IO1*%
X117555000Y-117305000D02*
X117555000Y-118555000D01*
X117555000Y-118555000D02*
X118500000Y-119500000D01*
X118500000Y-119500000D02*
X118500000Y-120400000D01*
%TO.N,O*%
X126280250Y-105377933D02*
X126377933Y-105377933D01*
X121472999Y-110628239D02*
X118748237Y-110628239D01*
X125372317Y-104469999D02*
X125976159Y-105073841D01*
X117244999Y-103738999D02*
X117933999Y-103049999D01*
X117244999Y-109125001D02*
X117244999Y-103738999D01*
X125976159Y-105073841D02*
X126280250Y-105377933D01*
X118748237Y-110628239D02*
X117244999Y-109125001D01*
X120277312Y-104469999D02*
X125372317Y-104469999D01*
X118893429Y-115075011D02*
X121074989Y-115075011D01*
X119206001Y-103049999D02*
X119856009Y-103700007D01*
X121074989Y-115075011D02*
X121472999Y-114677001D01*
X121472999Y-114677001D02*
X121472999Y-110628239D01*
X117933999Y-103049999D02*
X119206001Y-103049999D01*
X119856009Y-104048696D02*
X120277312Y-104469999D01*
X119856009Y-103700007D02*
X119856009Y-104048696D01*
X130500000Y-103605000D02*
X129428004Y-103605000D01*
X126976252Y-105377933D02*
X126280250Y-105377933D01*
X128398002Y-102574998D02*
X127111412Y-102574998D01*
X129428004Y-103605000D02*
X128398002Y-102574998D01*
X126539659Y-103927930D02*
X126976253Y-103927930D01*
X126976253Y-103927930D02*
X127353253Y-104304930D01*
X127353253Y-105000932D02*
X126976252Y-105377933D01*
X126539659Y-103146751D02*
X126539659Y-103927930D01*
X127353253Y-104304930D02*
X127353253Y-105000932D01*
X127111412Y-102574998D02*
X126539659Y-103146751D01*
%TO.N,I*%
X126675001Y-113775001D02*
X126675001Y-114565979D01*
X126675001Y-114565979D02*
X127739571Y-115630549D01*
X129174999Y-104950001D02*
X129174999Y-111225001D01*
X129174999Y-111225001D02*
X128786392Y-111613608D01*
X129250000Y-104875000D02*
X129174999Y-104950001D01*
X130500000Y-104875000D02*
X129250000Y-104875000D01*
X128786392Y-111613608D02*
X128786392Y-111663610D01*
X128786392Y-111663610D02*
X126675001Y-113775001D01*
%TO.N,EN*%
X123320237Y-112280083D02*
X126633851Y-115593697D01*
X126633851Y-115593697D02*
X126633851Y-115704996D01*
X113500000Y-102335000D02*
X117376176Y-102335000D01*
X117561199Y-102149978D02*
X121999978Y-102149978D01*
X117376176Y-102335000D02*
X117561199Y-102149978D01*
X124012832Y-103019604D02*
X124043228Y-103050000D01*
X121999978Y-102149978D02*
X122869604Y-103019604D01*
X122869604Y-103019604D02*
X124012832Y-103019604D01*
X127025011Y-102124989D02*
X127300000Y-101850000D01*
X126000000Y-103050000D02*
X126925011Y-102124989D01*
X124043228Y-103050000D02*
X126000000Y-103050000D01*
X128355431Y-105660487D02*
X128355431Y-103563773D01*
X127882959Y-106132959D02*
X128355431Y-105660487D01*
X127300000Y-101850000D02*
X128450000Y-101850000D01*
X126925011Y-102124989D02*
X127025011Y-102124989D01*
%TO.N,CBUS3*%
X130500000Y-117404936D02*
X129864808Y-118040128D01*
X130500000Y-116305000D02*
X130500000Y-117404936D01*
%TO.N,CBUS0*%
X129616731Y-112495000D02*
X128910975Y-113200756D01*
X130500000Y-112495000D02*
X129616731Y-112495000D01*
%TO.N,CBUS1*%
X127950000Y-113136412D02*
X129236401Y-111850011D01*
X127950000Y-113650000D02*
X127950000Y-113136412D01*
X129236401Y-111850011D02*
X129236401Y-111800009D01*
X129236401Y-111800009D02*
X129811410Y-111225000D01*
X129811410Y-111225000D02*
X130500000Y-111225000D01*
%TO.N,CBUS2*%
X114481253Y-115035000D02*
X115040264Y-115594011D01*
X113500000Y-115035000D02*
X114481253Y-115035000D01*
%TD*%
D21*
%TO.N,GND*%
X131073001Y-127073000D02*
X112927000Y-127073000D01*
X112927000Y-123436934D01*
X115627603Y-126137538D01*
X115643316Y-126156684D01*
X115719755Y-126219417D01*
X115806964Y-126266031D01*
X115901591Y-126294736D01*
X115975347Y-126302000D01*
X115975357Y-126302000D01*
X116000000Y-126304427D01*
X116024643Y-126302000D01*
X116203155Y-126302000D01*
X116304691Y-126403536D01*
X116431952Y-126488569D01*
X116573357Y-126547141D01*
X116723472Y-126577000D01*
X116876528Y-126577000D01*
X117026643Y-126547141D01*
X117168048Y-126488569D01*
X117295309Y-126403536D01*
X117403536Y-126295309D01*
X117488569Y-126168048D01*
X117547141Y-126026643D01*
X117577000Y-125876528D01*
X117577000Y-125772000D01*
X128627000Y-125772000D01*
X128627000Y-122468000D01*
X115573000Y-122468000D01*
X115573000Y-124663065D01*
X113702000Y-122792066D01*
X113702000Y-121325000D01*
X114511928Y-121325000D01*
X114524188Y-121449482D01*
X114560498Y-121569180D01*
X114619463Y-121679494D01*
X114698815Y-121776185D01*
X114795506Y-121855537D01*
X114905820Y-121914502D01*
X115025518Y-121950812D01*
X115150000Y-121963072D01*
X115714250Y-121960000D01*
X115873000Y-121801250D01*
X115873000Y-120527000D01*
X114673750Y-120527000D01*
X114515000Y-120685750D01*
X114511928Y-121325000D01*
X113702000Y-121325000D01*
X113702000Y-118847936D01*
X115200000Y-117349937D01*
X115200000Y-117432002D01*
X115358748Y-117432002D01*
X115200000Y-117590750D01*
X115196928Y-118305000D01*
X115209188Y-118429482D01*
X115245498Y-118549180D01*
X115304463Y-118659494D01*
X115383815Y-118756185D01*
X115480506Y-118835537D01*
X115486536Y-118838760D01*
X115150000Y-118836928D01*
X115025518Y-118849188D01*
X114905820Y-118885498D01*
X114795506Y-118944463D01*
X114698815Y-119023815D01*
X114619463Y-119120506D01*
X114560498Y-119230820D01*
X114524188Y-119350518D01*
X114511928Y-119475000D01*
X114515000Y-120114250D01*
X114673750Y-120273000D01*
X115873000Y-120273000D01*
X115873000Y-120253000D01*
X116127000Y-120253000D01*
X116127000Y-120273000D01*
X116147000Y-120273000D01*
X116147000Y-120527000D01*
X116127000Y-120527000D01*
X116127000Y-121801250D01*
X116285750Y-121960000D01*
X116850000Y-121963072D01*
X116974482Y-121950812D01*
X117094180Y-121914502D01*
X117204494Y-121855537D01*
X117301185Y-121776185D01*
X117380537Y-121679494D01*
X117439502Y-121569180D01*
X117475812Y-121449482D01*
X117488072Y-121325000D01*
X117487352Y-121175216D01*
X117628184Y-121346817D01*
X117815018Y-121500149D01*
X118028177Y-121614084D01*
X118259467Y-121684245D01*
X118500000Y-121707936D01*
X118740534Y-121684245D01*
X118971824Y-121614084D01*
X119184983Y-121500149D01*
X119371817Y-121346817D01*
X119525149Y-121159982D01*
X119639084Y-120946823D01*
X119709245Y-120715533D01*
X119727000Y-120535267D01*
X119727000Y-120264732D01*
X119709245Y-120084466D01*
X119639084Y-119853176D01*
X119525149Y-119640017D01*
X119371817Y-119453183D01*
X119184982Y-119299851D01*
X118971823Y-119185916D01*
X118865069Y-119153532D01*
X118856684Y-119143316D01*
X118837543Y-119127607D01*
X118393759Y-118683824D01*
X119275000Y-118683824D01*
X119348905Y-118676545D01*
X119419970Y-118654988D01*
X119460000Y-118633591D01*
X119500030Y-118654988D01*
X119571095Y-118676545D01*
X119645000Y-118683824D01*
X120545000Y-118683824D01*
X120618905Y-118676545D01*
X120689970Y-118654988D01*
X120730000Y-118633591D01*
X120770030Y-118654988D01*
X120841095Y-118676545D01*
X120915000Y-118683824D01*
X121815000Y-118683824D01*
X121888905Y-118676545D01*
X121959970Y-118654988D01*
X122000000Y-118633591D01*
X122036802Y-118653263D01*
X121492889Y-119197176D01*
X121471823Y-119185916D01*
X121240533Y-119115755D01*
X121000000Y-119092064D01*
X120759466Y-119115755D01*
X120528176Y-119185916D01*
X120315017Y-119299851D01*
X120128183Y-119453183D01*
X119974851Y-119640018D01*
X119860916Y-119853177D01*
X119790755Y-120084467D01*
X119773000Y-120264733D01*
X119773000Y-120535268D01*
X119790755Y-120715534D01*
X119860916Y-120946824D01*
X119974851Y-121159983D01*
X120128184Y-121346817D01*
X120315018Y-121500149D01*
X120528177Y-121614084D01*
X120759467Y-121684245D01*
X121000000Y-121707936D01*
X121240534Y-121684245D01*
X121471824Y-121614084D01*
X121684983Y-121500149D01*
X121871817Y-121346817D01*
X122025149Y-121159982D01*
X122139084Y-120946823D01*
X122209245Y-120715533D01*
X122227000Y-120535267D01*
X122227000Y-120264732D01*
X122209245Y-120084466D01*
X122166472Y-119943463D01*
X122497431Y-119612505D01*
X122474851Y-119640018D01*
X122360916Y-119853177D01*
X122290755Y-120084467D01*
X122273000Y-120264733D01*
X122273000Y-120535268D01*
X122290755Y-120715534D01*
X122360916Y-120946824D01*
X122474851Y-121159983D01*
X122628184Y-121346817D01*
X122815018Y-121500149D01*
X123028177Y-121614084D01*
X123259467Y-121684245D01*
X123500000Y-121707936D01*
X123740534Y-121684245D01*
X123971824Y-121614084D01*
X124184983Y-121500149D01*
X124371817Y-121346817D01*
X124525149Y-121159982D01*
X124639084Y-120946823D01*
X124709245Y-120715533D01*
X124727000Y-120535267D01*
X124727000Y-120264732D01*
X124709245Y-120084466D01*
X124666472Y-119943463D01*
X124957945Y-119651990D01*
X124968452Y-119651990D01*
X124860916Y-119853177D01*
X124790755Y-120084467D01*
X124773000Y-120264733D01*
X124773000Y-120535268D01*
X124790755Y-120715534D01*
X124860916Y-120946824D01*
X124974851Y-121159983D01*
X125128184Y-121346817D01*
X125315018Y-121500149D01*
X125528177Y-121614084D01*
X125759467Y-121684245D01*
X126000000Y-121707936D01*
X126240534Y-121684245D01*
X126471824Y-121614084D01*
X126684983Y-121500149D01*
X126871817Y-121346817D01*
X127025149Y-121159982D01*
X127139084Y-120946823D01*
X127209245Y-120715533D01*
X127226708Y-120538228D01*
X127273000Y-120491936D01*
X127273000Y-120535268D01*
X127290755Y-120715534D01*
X127360916Y-120946824D01*
X127474851Y-121159983D01*
X127628184Y-121346817D01*
X127815018Y-121500149D01*
X128028177Y-121614084D01*
X128259467Y-121684245D01*
X128500000Y-121707936D01*
X128740534Y-121684245D01*
X128971824Y-121614084D01*
X129184983Y-121500149D01*
X129371817Y-121346817D01*
X129525149Y-121159982D01*
X129639084Y-120946823D01*
X129709245Y-120715533D01*
X129727000Y-120535267D01*
X129727000Y-120264732D01*
X129709245Y-120084466D01*
X129639084Y-119853176D01*
X129635701Y-119846846D01*
X129641807Y-119784846D01*
X129641807Y-119784836D01*
X129644234Y-119760193D01*
X129641807Y-119735550D01*
X129641807Y-118787993D01*
X129788280Y-118817128D01*
X129941336Y-118817128D01*
X130091451Y-118787269D01*
X130232856Y-118728697D01*
X130360117Y-118643664D01*
X130468344Y-118535437D01*
X130553377Y-118408176D01*
X130611949Y-118266771D01*
X130641808Y-118116656D01*
X130641808Y-117973063D01*
X130837538Y-117777333D01*
X130856684Y-117761620D01*
X130919417Y-117685181D01*
X130966031Y-117597972D01*
X130994736Y-117503345D01*
X131002000Y-117429589D01*
X131002000Y-117429580D01*
X131004427Y-117404937D01*
X131002000Y-117380294D01*
X131002000Y-117133824D01*
X131073001Y-117133824D01*
X131073001Y-127073000D01*
%TA.AperFunction,Conductor*%
D22*
G36*
X131073001Y-127073000D02*
G01*
X112927000Y-127073000D01*
X112927000Y-123436934D01*
X115627603Y-126137538D01*
X115643316Y-126156684D01*
X115719755Y-126219417D01*
X115806964Y-126266031D01*
X115901591Y-126294736D01*
X115975347Y-126302000D01*
X115975357Y-126302000D01*
X116000000Y-126304427D01*
X116024643Y-126302000D01*
X116203155Y-126302000D01*
X116304691Y-126403536D01*
X116431952Y-126488569D01*
X116573357Y-126547141D01*
X116723472Y-126577000D01*
X116876528Y-126577000D01*
X117026643Y-126547141D01*
X117168048Y-126488569D01*
X117295309Y-126403536D01*
X117403536Y-126295309D01*
X117488569Y-126168048D01*
X117547141Y-126026643D01*
X117577000Y-125876528D01*
X117577000Y-125772000D01*
X128627000Y-125772000D01*
X128627000Y-122468000D01*
X115573000Y-122468000D01*
X115573000Y-124663065D01*
X113702000Y-122792066D01*
X113702000Y-121325000D01*
X114511928Y-121325000D01*
X114524188Y-121449482D01*
X114560498Y-121569180D01*
X114619463Y-121679494D01*
X114698815Y-121776185D01*
X114795506Y-121855537D01*
X114905820Y-121914502D01*
X115025518Y-121950812D01*
X115150000Y-121963072D01*
X115714250Y-121960000D01*
X115873000Y-121801250D01*
X115873000Y-120527000D01*
X114673750Y-120527000D01*
X114515000Y-120685750D01*
X114511928Y-121325000D01*
X113702000Y-121325000D01*
X113702000Y-118847936D01*
X115200000Y-117349937D01*
X115200000Y-117432002D01*
X115358748Y-117432002D01*
X115200000Y-117590750D01*
X115196928Y-118305000D01*
X115209188Y-118429482D01*
X115245498Y-118549180D01*
X115304463Y-118659494D01*
X115383815Y-118756185D01*
X115480506Y-118835537D01*
X115486536Y-118838760D01*
X115150000Y-118836928D01*
X115025518Y-118849188D01*
X114905820Y-118885498D01*
X114795506Y-118944463D01*
X114698815Y-119023815D01*
X114619463Y-119120506D01*
X114560498Y-119230820D01*
X114524188Y-119350518D01*
X114511928Y-119475000D01*
X114515000Y-120114250D01*
X114673750Y-120273000D01*
X115873000Y-120273000D01*
X115873000Y-120253000D01*
X116127000Y-120253000D01*
X116127000Y-120273000D01*
X116147000Y-120273000D01*
X116147000Y-120527000D01*
X116127000Y-120527000D01*
X116127000Y-121801250D01*
X116285750Y-121960000D01*
X116850000Y-121963072D01*
X116974482Y-121950812D01*
X117094180Y-121914502D01*
X117204494Y-121855537D01*
X117301185Y-121776185D01*
X117380537Y-121679494D01*
X117439502Y-121569180D01*
X117475812Y-121449482D01*
X117488072Y-121325000D01*
X117487352Y-121175216D01*
X117628184Y-121346817D01*
X117815018Y-121500149D01*
X118028177Y-121614084D01*
X118259467Y-121684245D01*
X118500000Y-121707936D01*
X118740534Y-121684245D01*
X118971824Y-121614084D01*
X119184983Y-121500149D01*
X119371817Y-121346817D01*
X119525149Y-121159982D01*
X119639084Y-120946823D01*
X119709245Y-120715533D01*
X119727000Y-120535267D01*
X119727000Y-120264732D01*
X119709245Y-120084466D01*
X119639084Y-119853176D01*
X119525149Y-119640017D01*
X119371817Y-119453183D01*
X119184982Y-119299851D01*
X118971823Y-119185916D01*
X118865069Y-119153532D01*
X118856684Y-119143316D01*
X118837543Y-119127607D01*
X118393759Y-118683824D01*
X119275000Y-118683824D01*
X119348905Y-118676545D01*
X119419970Y-118654988D01*
X119460000Y-118633591D01*
X119500030Y-118654988D01*
X119571095Y-118676545D01*
X119645000Y-118683824D01*
X120545000Y-118683824D01*
X120618905Y-118676545D01*
X120689970Y-118654988D01*
X120730000Y-118633591D01*
X120770030Y-118654988D01*
X120841095Y-118676545D01*
X120915000Y-118683824D01*
X121815000Y-118683824D01*
X121888905Y-118676545D01*
X121959970Y-118654988D01*
X122000000Y-118633591D01*
X122036802Y-118653263D01*
X121492889Y-119197176D01*
X121471823Y-119185916D01*
X121240533Y-119115755D01*
X121000000Y-119092064D01*
X120759466Y-119115755D01*
X120528176Y-119185916D01*
X120315017Y-119299851D01*
X120128183Y-119453183D01*
X119974851Y-119640018D01*
X119860916Y-119853177D01*
X119790755Y-120084467D01*
X119773000Y-120264733D01*
X119773000Y-120535268D01*
X119790755Y-120715534D01*
X119860916Y-120946824D01*
X119974851Y-121159983D01*
X120128184Y-121346817D01*
X120315018Y-121500149D01*
X120528177Y-121614084D01*
X120759467Y-121684245D01*
X121000000Y-121707936D01*
X121240534Y-121684245D01*
X121471824Y-121614084D01*
X121684983Y-121500149D01*
X121871817Y-121346817D01*
X122025149Y-121159982D01*
X122139084Y-120946823D01*
X122209245Y-120715533D01*
X122227000Y-120535267D01*
X122227000Y-120264732D01*
X122209245Y-120084466D01*
X122166472Y-119943463D01*
X122497431Y-119612505D01*
X122474851Y-119640018D01*
X122360916Y-119853177D01*
X122290755Y-120084467D01*
X122273000Y-120264733D01*
X122273000Y-120535268D01*
X122290755Y-120715534D01*
X122360916Y-120946824D01*
X122474851Y-121159983D01*
X122628184Y-121346817D01*
X122815018Y-121500149D01*
X123028177Y-121614084D01*
X123259467Y-121684245D01*
X123500000Y-121707936D01*
X123740534Y-121684245D01*
X123971824Y-121614084D01*
X124184983Y-121500149D01*
X124371817Y-121346817D01*
X124525149Y-121159982D01*
X124639084Y-120946823D01*
X124709245Y-120715533D01*
X124727000Y-120535267D01*
X124727000Y-120264732D01*
X124709245Y-120084466D01*
X124666472Y-119943463D01*
X124957945Y-119651990D01*
X124968452Y-119651990D01*
X124860916Y-119853177D01*
X124790755Y-120084467D01*
X124773000Y-120264733D01*
X124773000Y-120535268D01*
X124790755Y-120715534D01*
X124860916Y-120946824D01*
X124974851Y-121159983D01*
X125128184Y-121346817D01*
X125315018Y-121500149D01*
X125528177Y-121614084D01*
X125759467Y-121684245D01*
X126000000Y-121707936D01*
X126240534Y-121684245D01*
X126471824Y-121614084D01*
X126684983Y-121500149D01*
X126871817Y-121346817D01*
X127025149Y-121159982D01*
X127139084Y-120946823D01*
X127209245Y-120715533D01*
X127226708Y-120538228D01*
X127273000Y-120491936D01*
X127273000Y-120535268D01*
X127290755Y-120715534D01*
X127360916Y-120946824D01*
X127474851Y-121159983D01*
X127628184Y-121346817D01*
X127815018Y-121500149D01*
X128028177Y-121614084D01*
X128259467Y-121684245D01*
X128500000Y-121707936D01*
X128740534Y-121684245D01*
X128971824Y-121614084D01*
X129184983Y-121500149D01*
X129371817Y-121346817D01*
X129525149Y-121159982D01*
X129639084Y-120946823D01*
X129709245Y-120715533D01*
X129727000Y-120535267D01*
X129727000Y-120264732D01*
X129709245Y-120084466D01*
X129639084Y-119853176D01*
X129635701Y-119846846D01*
X129641807Y-119784846D01*
X129641807Y-119784836D01*
X129644234Y-119760193D01*
X129641807Y-119735550D01*
X129641807Y-118787993D01*
X129788280Y-118817128D01*
X129941336Y-118817128D01*
X130091451Y-118787269D01*
X130232856Y-118728697D01*
X130360117Y-118643664D01*
X130468344Y-118535437D01*
X130553377Y-118408176D01*
X130611949Y-118266771D01*
X130641808Y-118116656D01*
X130641808Y-117973063D01*
X130837538Y-117777333D01*
X130856684Y-117761620D01*
X130919417Y-117685181D01*
X130966031Y-117597972D01*
X130994736Y-117503345D01*
X131002000Y-117429589D01*
X131002000Y-117429580D01*
X131004427Y-117404937D01*
X131002000Y-117380294D01*
X131002000Y-117133824D01*
X131073001Y-117133824D01*
X131073001Y-127073000D01*
G37*
%TD.AperFunction*%
D21*
X116412000Y-117178000D02*
X116432000Y-117178000D01*
X116432000Y-117432000D01*
X116412000Y-117432000D01*
X116412000Y-117452000D01*
X116158000Y-117452000D01*
X116158000Y-117432000D01*
X116138000Y-117432000D01*
X116138000Y-117178000D01*
X116158000Y-117178000D01*
X116158000Y-117158000D01*
X116412000Y-117158000D01*
X116412000Y-117178000D01*
%TA.AperFunction,Conductor*%
D22*
G36*
X116412000Y-117178000D02*
G01*
X116432000Y-117178000D01*
X116432000Y-117432000D01*
X116412000Y-117432000D01*
X116412000Y-117452000D01*
X116158000Y-117452000D01*
X116158000Y-117432000D01*
X116138000Y-117432000D01*
X116138000Y-117178000D01*
X116158000Y-117178000D01*
X116158000Y-117158000D01*
X116412000Y-117158000D01*
X116412000Y-117178000D01*
G37*
%TD.AperFunction*%
D21*
X116457451Y-103180202D02*
X116438305Y-103195915D01*
X116422592Y-103215061D01*
X116422589Y-103215064D01*
X116375572Y-103272354D01*
X116328958Y-103359563D01*
X116300253Y-103454190D01*
X116290561Y-103552599D01*
X116292989Y-103577252D01*
X116292988Y-109286758D01*
X116290561Y-109311401D01*
X116292988Y-109336044D01*
X116292988Y-109336053D01*
X116300252Y-109409809D01*
X116328957Y-109504436D01*
X116375571Y-109591646D01*
X116438304Y-109668085D01*
X116457456Y-109683803D01*
X117639916Y-110866264D01*
X117635064Y-110955459D01*
X118090000Y-111410395D01*
X118104143Y-111396253D01*
X118148639Y-111440749D01*
X117883912Y-111532205D01*
X117863507Y-111543112D01*
X117455459Y-111135064D01*
X117262237Y-111145575D01*
X117191438Y-111315603D01*
X117155172Y-111496176D01*
X117154829Y-111680355D01*
X117190426Y-111861061D01*
X117260592Y-112031351D01*
X117262237Y-112034425D01*
X117407732Y-112042340D01*
X117432892Y-112067500D01*
X117429277Y-112071115D01*
X117170186Y-112164956D01*
X117029296Y-112454571D01*
X116947616Y-112766108D01*
X116928282Y-113087595D01*
X116972039Y-113406675D01*
X117077205Y-113711088D01*
X117170186Y-113885044D01*
X117434587Y-113980808D01*
X118390395Y-113025000D01*
X118376253Y-113010858D01*
X118555858Y-112831253D01*
X118570000Y-112845395D01*
X118584143Y-112831253D01*
X118763748Y-113010858D01*
X118749605Y-113025000D01*
X119705413Y-113980808D01*
X119969814Y-113885044D01*
X120110704Y-113595429D01*
X120192384Y-113283892D01*
X120211718Y-112962405D01*
X120167961Y-112643325D01*
X120086600Y-112407818D01*
X120211199Y-112491072D01*
X120352604Y-112549644D01*
X120502719Y-112579503D01*
X120655775Y-112579503D01*
X120805890Y-112549644D01*
X120947295Y-112491072D01*
X120971000Y-112475233D01*
X120970999Y-114469066D01*
X120867055Y-114573011D01*
X119490274Y-114573011D01*
X119388738Y-114471475D01*
X119368298Y-114457818D01*
X119430044Y-114424814D01*
X119525808Y-114160413D01*
X118570000Y-113204605D01*
X117614192Y-114160413D01*
X117709956Y-114424814D01*
X117999571Y-114565704D01*
X118254573Y-114632562D01*
X118204860Y-114706963D01*
X118146288Y-114848368D01*
X118116429Y-114998483D01*
X118116429Y-115151539D01*
X118145564Y-115298012D01*
X115898777Y-115298012D01*
X115874134Y-115295585D01*
X115849491Y-115298012D01*
X115849482Y-115298012D01*
X115775726Y-115305276D01*
X115763253Y-115309060D01*
X115728833Y-115225963D01*
X115643800Y-115098702D01*
X115535573Y-114990475D01*
X115408312Y-114905442D01*
X115266907Y-114846870D01*
X115116792Y-114817011D01*
X114973198Y-114817011D01*
X114880435Y-114724248D01*
X114951185Y-114666185D01*
X115030537Y-114569494D01*
X115054113Y-114525387D01*
X115076088Y-114517795D01*
X115250044Y-114424814D01*
X115345808Y-114160413D01*
X114823395Y-113638000D01*
X114976250Y-113638000D01*
X115079428Y-113534823D01*
X115525413Y-113980808D01*
X115789814Y-113885044D01*
X115930704Y-113595429D01*
X116012384Y-113283892D01*
X116031718Y-112962405D01*
X115987961Y-112643325D01*
X115882795Y-112338912D01*
X115789814Y-112164956D01*
X115525413Y-112069192D01*
X115135000Y-112459605D01*
X115135000Y-112367998D01*
X114976252Y-112367998D01*
X115135000Y-112209250D01*
X115137075Y-112098320D01*
X115345808Y-111889587D01*
X115250044Y-111625186D01*
X114960429Y-111484296D01*
X114878824Y-111462900D01*
X114878824Y-110775000D01*
X114871545Y-110701095D01*
X114849988Y-110630030D01*
X114828591Y-110590000D01*
X114849988Y-110549970D01*
X114871545Y-110478905D01*
X114878824Y-110405000D01*
X114878824Y-109505000D01*
X114871545Y-109431095D01*
X114849988Y-109360030D01*
X114828591Y-109320000D01*
X114849988Y-109279970D01*
X114871545Y-109208905D01*
X114878824Y-109135000D01*
X114878824Y-108375570D01*
X114951185Y-108316185D01*
X115030537Y-108219494D01*
X115089502Y-108109180D01*
X115125812Y-107989482D01*
X115138072Y-107865000D01*
X115135000Y-107700750D01*
X114976250Y-107542000D01*
X113627000Y-107542000D01*
X113627000Y-107562000D01*
X113373000Y-107562000D01*
X113373000Y-107542000D01*
X113353000Y-107542000D01*
X113353000Y-107288000D01*
X113373000Y-107288000D01*
X113373000Y-106272000D01*
X113627000Y-106272000D01*
X113627000Y-107288000D01*
X114976250Y-107288000D01*
X115135000Y-107129250D01*
X115138072Y-106965000D01*
X115125812Y-106840518D01*
X115107454Y-106780000D01*
X115125812Y-106719482D01*
X115138072Y-106595000D01*
X115135000Y-106430750D01*
X114976250Y-106272000D01*
X113627000Y-106272000D01*
X113373000Y-106272000D01*
X113353000Y-106272000D01*
X113353000Y-106018000D01*
X113373000Y-106018000D01*
X113373000Y-105998000D01*
X113627000Y-105998000D01*
X113627000Y-106018000D01*
X114976250Y-106018000D01*
X115135000Y-105859250D01*
X115135433Y-105836074D01*
X115250044Y-105774814D01*
X115345808Y-105510413D01*
X115137647Y-105302252D01*
X115135000Y-105160750D01*
X114976252Y-105002002D01*
X115135000Y-105002002D01*
X115135000Y-104940395D01*
X115525413Y-105330808D01*
X115789814Y-105235044D01*
X115930704Y-104945429D01*
X116012384Y-104633892D01*
X116031718Y-104312405D01*
X115987961Y-103993325D01*
X115882795Y-103688912D01*
X115789814Y-103514956D01*
X115525413Y-103419192D01*
X115094428Y-103850178D01*
X114976250Y-103732000D01*
X114853395Y-103732000D01*
X115345808Y-103239587D01*
X115250044Y-102975186D01*
X115079582Y-102892261D01*
X115050044Y-102837000D01*
X116800653Y-102837000D01*
X116457451Y-103180202D01*
%TA.AperFunction,Conductor*%
D22*
G36*
X116457451Y-103180202D02*
G01*
X116438305Y-103195915D01*
X116422592Y-103215061D01*
X116422589Y-103215064D01*
X116375572Y-103272354D01*
X116328958Y-103359563D01*
X116300253Y-103454190D01*
X116290561Y-103552599D01*
X116292989Y-103577252D01*
X116292988Y-109286758D01*
X116290561Y-109311401D01*
X116292988Y-109336044D01*
X116292988Y-109336053D01*
X116300252Y-109409809D01*
X116328957Y-109504436D01*
X116375571Y-109591646D01*
X116438304Y-109668085D01*
X116457456Y-109683803D01*
X117639916Y-110866264D01*
X117635064Y-110955459D01*
X118090000Y-111410395D01*
X118104143Y-111396253D01*
X118148639Y-111440749D01*
X117883912Y-111532205D01*
X117863507Y-111543112D01*
X117455459Y-111135064D01*
X117262237Y-111145575D01*
X117191438Y-111315603D01*
X117155172Y-111496176D01*
X117154829Y-111680355D01*
X117190426Y-111861061D01*
X117260592Y-112031351D01*
X117262237Y-112034425D01*
X117407732Y-112042340D01*
X117432892Y-112067500D01*
X117429277Y-112071115D01*
X117170186Y-112164956D01*
X117029296Y-112454571D01*
X116947616Y-112766108D01*
X116928282Y-113087595D01*
X116972039Y-113406675D01*
X117077205Y-113711088D01*
X117170186Y-113885044D01*
X117434587Y-113980808D01*
X118390395Y-113025000D01*
X118376253Y-113010858D01*
X118555858Y-112831253D01*
X118570000Y-112845395D01*
X118584143Y-112831253D01*
X118763748Y-113010858D01*
X118749605Y-113025000D01*
X119705413Y-113980808D01*
X119969814Y-113885044D01*
X120110704Y-113595429D01*
X120192384Y-113283892D01*
X120211718Y-112962405D01*
X120167961Y-112643325D01*
X120086600Y-112407818D01*
X120211199Y-112491072D01*
X120352604Y-112549644D01*
X120502719Y-112579503D01*
X120655775Y-112579503D01*
X120805890Y-112549644D01*
X120947295Y-112491072D01*
X120971000Y-112475233D01*
X120970999Y-114469066D01*
X120867055Y-114573011D01*
X119490274Y-114573011D01*
X119388738Y-114471475D01*
X119368298Y-114457818D01*
X119430044Y-114424814D01*
X119525808Y-114160413D01*
X118570000Y-113204605D01*
X117614192Y-114160413D01*
X117709956Y-114424814D01*
X117999571Y-114565704D01*
X118254573Y-114632562D01*
X118204860Y-114706963D01*
X118146288Y-114848368D01*
X118116429Y-114998483D01*
X118116429Y-115151539D01*
X118145564Y-115298012D01*
X115898777Y-115298012D01*
X115874134Y-115295585D01*
X115849491Y-115298012D01*
X115849482Y-115298012D01*
X115775726Y-115305276D01*
X115763253Y-115309060D01*
X115728833Y-115225963D01*
X115643800Y-115098702D01*
X115535573Y-114990475D01*
X115408312Y-114905442D01*
X115266907Y-114846870D01*
X115116792Y-114817011D01*
X114973198Y-114817011D01*
X114880435Y-114724248D01*
X114951185Y-114666185D01*
X115030537Y-114569494D01*
X115054113Y-114525387D01*
X115076088Y-114517795D01*
X115250044Y-114424814D01*
X115345808Y-114160413D01*
X114823395Y-113638000D01*
X114976250Y-113638000D01*
X115079428Y-113534823D01*
X115525413Y-113980808D01*
X115789814Y-113885044D01*
X115930704Y-113595429D01*
X116012384Y-113283892D01*
X116031718Y-112962405D01*
X115987961Y-112643325D01*
X115882795Y-112338912D01*
X115789814Y-112164956D01*
X115525413Y-112069192D01*
X115135000Y-112459605D01*
X115135000Y-112367998D01*
X114976252Y-112367998D01*
X115135000Y-112209250D01*
X115137075Y-112098320D01*
X115345808Y-111889587D01*
X115250044Y-111625186D01*
X114960429Y-111484296D01*
X114878824Y-111462900D01*
X114878824Y-110775000D01*
X114871545Y-110701095D01*
X114849988Y-110630030D01*
X114828591Y-110590000D01*
X114849988Y-110549970D01*
X114871545Y-110478905D01*
X114878824Y-110405000D01*
X114878824Y-109505000D01*
X114871545Y-109431095D01*
X114849988Y-109360030D01*
X114828591Y-109320000D01*
X114849988Y-109279970D01*
X114871545Y-109208905D01*
X114878824Y-109135000D01*
X114878824Y-108375570D01*
X114951185Y-108316185D01*
X115030537Y-108219494D01*
X115089502Y-108109180D01*
X115125812Y-107989482D01*
X115138072Y-107865000D01*
X115135000Y-107700750D01*
X114976250Y-107542000D01*
X113627000Y-107542000D01*
X113627000Y-107562000D01*
X113373000Y-107562000D01*
X113373000Y-107542000D01*
X113353000Y-107542000D01*
X113353000Y-107288000D01*
X113373000Y-107288000D01*
X113373000Y-106272000D01*
X113627000Y-106272000D01*
X113627000Y-107288000D01*
X114976250Y-107288000D01*
X115135000Y-107129250D01*
X115138072Y-106965000D01*
X115125812Y-106840518D01*
X115107454Y-106780000D01*
X115125812Y-106719482D01*
X115138072Y-106595000D01*
X115135000Y-106430750D01*
X114976250Y-106272000D01*
X113627000Y-106272000D01*
X113373000Y-106272000D01*
X113353000Y-106272000D01*
X113353000Y-106018000D01*
X113373000Y-106018000D01*
X113373000Y-105998000D01*
X113627000Y-105998000D01*
X113627000Y-106018000D01*
X114976250Y-106018000D01*
X115135000Y-105859250D01*
X115135433Y-105836074D01*
X115250044Y-105774814D01*
X115345808Y-105510413D01*
X115137647Y-105302252D01*
X115135000Y-105160750D01*
X114976252Y-105002002D01*
X115135000Y-105002002D01*
X115135000Y-104940395D01*
X115525413Y-105330808D01*
X115789814Y-105235044D01*
X115930704Y-104945429D01*
X116012384Y-104633892D01*
X116031718Y-104312405D01*
X115987961Y-103993325D01*
X115882795Y-103688912D01*
X115789814Y-103514956D01*
X115525413Y-103419192D01*
X115094428Y-103850178D01*
X114976250Y-103732000D01*
X114853395Y-103732000D01*
X115345808Y-103239587D01*
X115250044Y-102975186D01*
X115079582Y-102892261D01*
X115050044Y-102837000D01*
X116800653Y-102837000D01*
X116457451Y-103180202D01*
G37*
%TD.AperFunction*%
D21*
X128673000Y-110667531D02*
X128649369Y-110610481D01*
X128524719Y-110423930D01*
X128366070Y-110265281D01*
X128179519Y-110140631D01*
X127972234Y-110054771D01*
X127752182Y-110011000D01*
X127527818Y-110011000D01*
X127307766Y-110054771D01*
X127100481Y-110140631D01*
X126913930Y-110265281D01*
X126755281Y-110423930D01*
X126630631Y-110610481D01*
X126544771Y-110817766D01*
X126501000Y-111037818D01*
X126501000Y-111262182D01*
X126544771Y-111482234D01*
X126630631Y-111689519D01*
X126755281Y-111876070D01*
X126913930Y-112034719D01*
X127100481Y-112159369D01*
X127307766Y-112245229D01*
X127463801Y-112276266D01*
X126337468Y-113402600D01*
X126318317Y-113418317D01*
X126255584Y-113494756D01*
X126208970Y-113581966D01*
X126180265Y-113676593D01*
X126173001Y-113750349D01*
X126173001Y-113750358D01*
X126170574Y-113775001D01*
X126173001Y-113799644D01*
X126173002Y-114422912D01*
X124296026Y-112545938D01*
X124338000Y-112550072D01*
X124814250Y-112547000D01*
X124973000Y-112388250D01*
X124973000Y-111277000D01*
X125227000Y-111277000D01*
X125227000Y-112388250D01*
X125385750Y-112547000D01*
X125862000Y-112550072D01*
X125986482Y-112537812D01*
X126106180Y-112501502D01*
X126216494Y-112442537D01*
X126313185Y-112363185D01*
X126392537Y-112266494D01*
X126451502Y-112156180D01*
X126487812Y-112036482D01*
X126500072Y-111912000D01*
X126497000Y-111435750D01*
X126338250Y-111277000D01*
X125227000Y-111277000D01*
X124973000Y-111277000D01*
X123861750Y-111277000D01*
X123703000Y-111435750D01*
X123701936Y-111600636D01*
X123688285Y-111591514D01*
X123621434Y-111563823D01*
X123655229Y-111482234D01*
X123699000Y-111262182D01*
X123699000Y-111037818D01*
X123674631Y-110915305D01*
X123714343Y-110875593D01*
X123861750Y-111023000D01*
X124973000Y-111023000D01*
X124973000Y-109911750D01*
X125227000Y-109911750D01*
X125227000Y-111023000D01*
X126338250Y-111023000D01*
X126497000Y-110864250D01*
X126500072Y-110388000D01*
X126487812Y-110263518D01*
X126451502Y-110143820D01*
X126392537Y-110033506D01*
X126313185Y-109936815D01*
X126216494Y-109857463D01*
X126106180Y-109798498D01*
X125986482Y-109762188D01*
X125862000Y-109749928D01*
X125385750Y-109753000D01*
X125227000Y-109911750D01*
X124973000Y-109911750D01*
X124825593Y-109764343D01*
X127487552Y-107102385D01*
X127506693Y-107086677D01*
X127522401Y-107067537D01*
X127522409Y-107067529D01*
X127569425Y-107010239D01*
X127569954Y-107009250D01*
X127616040Y-106923029D01*
X127632105Y-106870071D01*
X127656316Y-106880100D01*
X127806431Y-106909959D01*
X127959487Y-106909959D01*
X128109602Y-106880100D01*
X128251007Y-106821528D01*
X128378268Y-106736495D01*
X128486495Y-106628268D01*
X128571528Y-106501007D01*
X128630100Y-106359602D01*
X128659959Y-106209487D01*
X128659959Y-106065894D01*
X128672999Y-106052854D01*
X128673000Y-110667531D01*
%TA.AperFunction,Conductor*%
D22*
G36*
X128673000Y-110667531D02*
G01*
X128649369Y-110610481D01*
X128524719Y-110423930D01*
X128366070Y-110265281D01*
X128179519Y-110140631D01*
X127972234Y-110054771D01*
X127752182Y-110011000D01*
X127527818Y-110011000D01*
X127307766Y-110054771D01*
X127100481Y-110140631D01*
X126913930Y-110265281D01*
X126755281Y-110423930D01*
X126630631Y-110610481D01*
X126544771Y-110817766D01*
X126501000Y-111037818D01*
X126501000Y-111262182D01*
X126544771Y-111482234D01*
X126630631Y-111689519D01*
X126755281Y-111876070D01*
X126913930Y-112034719D01*
X127100481Y-112159369D01*
X127307766Y-112245229D01*
X127463801Y-112276266D01*
X126337468Y-113402600D01*
X126318317Y-113418317D01*
X126255584Y-113494756D01*
X126208970Y-113581966D01*
X126180265Y-113676593D01*
X126173001Y-113750349D01*
X126173001Y-113750358D01*
X126170574Y-113775001D01*
X126173001Y-113799644D01*
X126173002Y-114422912D01*
X124296026Y-112545938D01*
X124338000Y-112550072D01*
X124814250Y-112547000D01*
X124973000Y-112388250D01*
X124973000Y-111277000D01*
X125227000Y-111277000D01*
X125227000Y-112388250D01*
X125385750Y-112547000D01*
X125862000Y-112550072D01*
X125986482Y-112537812D01*
X126106180Y-112501502D01*
X126216494Y-112442537D01*
X126313185Y-112363185D01*
X126392537Y-112266494D01*
X126451502Y-112156180D01*
X126487812Y-112036482D01*
X126500072Y-111912000D01*
X126497000Y-111435750D01*
X126338250Y-111277000D01*
X125227000Y-111277000D01*
X124973000Y-111277000D01*
X123861750Y-111277000D01*
X123703000Y-111435750D01*
X123701936Y-111600636D01*
X123688285Y-111591514D01*
X123621434Y-111563823D01*
X123655229Y-111482234D01*
X123699000Y-111262182D01*
X123699000Y-111037818D01*
X123674631Y-110915305D01*
X123714343Y-110875593D01*
X123861750Y-111023000D01*
X124973000Y-111023000D01*
X124973000Y-109911750D01*
X125227000Y-109911750D01*
X125227000Y-111023000D01*
X126338250Y-111023000D01*
X126497000Y-110864250D01*
X126500072Y-110388000D01*
X126487812Y-110263518D01*
X126451502Y-110143820D01*
X126392537Y-110033506D01*
X126313185Y-109936815D01*
X126216494Y-109857463D01*
X126106180Y-109798498D01*
X125986482Y-109762188D01*
X125862000Y-109749928D01*
X125385750Y-109753000D01*
X125227000Y-109911750D01*
X124973000Y-109911750D01*
X124825593Y-109764343D01*
X127487552Y-107102385D01*
X127506693Y-107086677D01*
X127522401Y-107067537D01*
X127522409Y-107067529D01*
X127569425Y-107010239D01*
X127569954Y-107009250D01*
X127616040Y-106923029D01*
X127632105Y-106870071D01*
X127656316Y-106880100D01*
X127806431Y-106909959D01*
X127959487Y-106909959D01*
X128109602Y-106880100D01*
X128251007Y-106821528D01*
X128378268Y-106736495D01*
X128486495Y-106628268D01*
X128571528Y-106501007D01*
X128630100Y-106359602D01*
X128659959Y-106209487D01*
X128659959Y-106065894D01*
X128672999Y-106052854D01*
X128673000Y-110667531D01*
G37*
%TD.AperFunction*%
D21*
X125638624Y-105446241D02*
X125638628Y-105446245D01*
X125907852Y-105715470D01*
X125923566Y-105734617D01*
X125942712Y-105750330D01*
X125942714Y-105750332D01*
X126000003Y-105797349D01*
X126034777Y-105815936D01*
X126087214Y-105843964D01*
X126181841Y-105872669D01*
X126255597Y-105879933D01*
X126255605Y-105879933D01*
X126280248Y-105882360D01*
X126304891Y-105879933D01*
X126648010Y-105879933D01*
X126648009Y-106522057D01*
X124137015Y-109033052D01*
X124135000Y-107580750D01*
X123976250Y-107422000D01*
X121127000Y-107422000D01*
X121127000Y-107442000D01*
X120873000Y-107442000D01*
X120873000Y-107422000D01*
X118023750Y-107422000D01*
X117865000Y-107580750D01*
X117862985Y-109033053D01*
X117746999Y-108917067D01*
X117746999Y-106679996D01*
X117815603Y-106708562D01*
X117864596Y-106718402D01*
X117865000Y-107009250D01*
X118023750Y-107168000D01*
X120873000Y-107168000D01*
X120873000Y-107148000D01*
X121127000Y-107148000D01*
X121127000Y-107168000D01*
X123976250Y-107168000D01*
X124135000Y-107009250D01*
X124137826Y-104971999D01*
X125164383Y-104971999D01*
X125638624Y-105446241D01*
%TA.AperFunction,Conductor*%
D22*
G36*
X125638624Y-105446241D02*
G01*
X125638628Y-105446245D01*
X125907852Y-105715470D01*
X125923566Y-105734617D01*
X125942712Y-105750330D01*
X125942714Y-105750332D01*
X126000003Y-105797349D01*
X126034777Y-105815936D01*
X126087214Y-105843964D01*
X126181841Y-105872669D01*
X126255597Y-105879933D01*
X126255605Y-105879933D01*
X126280248Y-105882360D01*
X126304891Y-105879933D01*
X126648010Y-105879933D01*
X126648009Y-106522057D01*
X124137015Y-109033052D01*
X124135000Y-107580750D01*
X123976250Y-107422000D01*
X121127000Y-107422000D01*
X121127000Y-107442000D01*
X120873000Y-107442000D01*
X120873000Y-107422000D01*
X118023750Y-107422000D01*
X117865000Y-107580750D01*
X117862985Y-109033053D01*
X117746999Y-108917067D01*
X117746999Y-106679996D01*
X117815603Y-106708562D01*
X117864596Y-106718402D01*
X117865000Y-107009250D01*
X118023750Y-107168000D01*
X120873000Y-107168000D01*
X120873000Y-107148000D01*
X121127000Y-107148000D01*
X121127000Y-107168000D01*
X123976250Y-107168000D01*
X124135000Y-107009250D01*
X124137826Y-104971999D01*
X125164383Y-104971999D01*
X125638624Y-105446241D01*
G37*
%TD.AperFunction*%
D21*
X129032236Y-98914017D02*
X128969463Y-98990506D01*
X128910498Y-99100820D01*
X128874188Y-99220518D01*
X128861928Y-99345000D01*
X128865000Y-99509250D01*
X129023750Y-99668000D01*
X130373000Y-99668000D01*
X130373000Y-99648000D01*
X130627000Y-99648000D01*
X130627000Y-99668000D01*
X130647000Y-99668000D01*
X130647000Y-99922000D01*
X130627000Y-99922000D01*
X130627000Y-99942000D01*
X130373000Y-99942000D01*
X130373000Y-99922000D01*
X129023750Y-99922000D01*
X128865000Y-100080750D01*
X128861928Y-100245000D01*
X128874188Y-100369482D01*
X128910498Y-100489180D01*
X128969463Y-100599494D01*
X129048815Y-100696185D01*
X129121176Y-100755570D01*
X129121176Y-101455922D01*
X129053536Y-101354691D01*
X128945309Y-101246464D01*
X128818048Y-101161431D01*
X128676643Y-101102859D01*
X128526528Y-101073000D01*
X128373472Y-101073000D01*
X128223357Y-101102859D01*
X128081952Y-101161431D01*
X127954691Y-101246464D01*
X127853155Y-101348000D01*
X127385147Y-101348000D01*
X127438569Y-101268048D01*
X127497141Y-101126643D01*
X127527000Y-100976528D01*
X127527000Y-100823472D01*
X127497141Y-100673357D01*
X127438569Y-100531952D01*
X127353536Y-100404691D01*
X127245309Y-100296464D01*
X127118048Y-100211431D01*
X126976643Y-100152859D01*
X126826528Y-100123000D01*
X126673472Y-100123000D01*
X126523357Y-100152859D01*
X126381952Y-100211431D01*
X126254691Y-100296464D01*
X126146464Y-100404691D01*
X126061431Y-100531952D01*
X126002859Y-100673357D01*
X125973000Y-100823472D01*
X125973000Y-100967065D01*
X124992066Y-101948000D01*
X123407936Y-101948000D01*
X122822368Y-101362434D01*
X122806651Y-101343283D01*
X122730212Y-101280550D01*
X122643003Y-101233936D01*
X122548376Y-101205231D01*
X122474620Y-101197967D01*
X122474610Y-101197967D01*
X122449967Y-101195540D01*
X122425324Y-101197967D01*
X115557902Y-101197967D01*
X115087401Y-100727467D01*
X115071684Y-100708316D01*
X114995245Y-100645583D01*
X114993485Y-100644642D01*
X115030537Y-100599494D01*
X115089502Y-100489180D01*
X115125812Y-100369482D01*
X115138072Y-100245000D01*
X115135000Y-100080750D01*
X114976250Y-99922000D01*
X113627000Y-99922000D01*
X113627000Y-99942000D01*
X113373000Y-99942000D01*
X113373000Y-99922000D01*
X113353000Y-99922000D01*
X113353000Y-99668000D01*
X113373000Y-99668000D01*
X113373000Y-99648000D01*
X113627000Y-99648000D01*
X113627000Y-99668000D01*
X114976250Y-99668000D01*
X115135000Y-99509250D01*
X115138072Y-99345000D01*
X115125812Y-99220518D01*
X115089502Y-99100820D01*
X115030537Y-98990506D01*
X114951185Y-98893815D01*
X114885073Y-98839558D01*
X129032236Y-98914017D01*
%TA.AperFunction,Conductor*%
D22*
G36*
X129032236Y-98914017D02*
G01*
X128969463Y-98990506D01*
X128910498Y-99100820D01*
X128874188Y-99220518D01*
X128861928Y-99345000D01*
X128865000Y-99509250D01*
X129023750Y-99668000D01*
X130373000Y-99668000D01*
X130373000Y-99648000D01*
X130627000Y-99648000D01*
X130627000Y-99668000D01*
X130647000Y-99668000D01*
X130647000Y-99922000D01*
X130627000Y-99922000D01*
X130627000Y-99942000D01*
X130373000Y-99942000D01*
X130373000Y-99922000D01*
X129023750Y-99922000D01*
X128865000Y-100080750D01*
X128861928Y-100245000D01*
X128874188Y-100369482D01*
X128910498Y-100489180D01*
X128969463Y-100599494D01*
X129048815Y-100696185D01*
X129121176Y-100755570D01*
X129121176Y-101455922D01*
X129053536Y-101354691D01*
X128945309Y-101246464D01*
X128818048Y-101161431D01*
X128676643Y-101102859D01*
X128526528Y-101073000D01*
X128373472Y-101073000D01*
X128223357Y-101102859D01*
X128081952Y-101161431D01*
X127954691Y-101246464D01*
X127853155Y-101348000D01*
X127385147Y-101348000D01*
X127438569Y-101268048D01*
X127497141Y-101126643D01*
X127527000Y-100976528D01*
X127527000Y-100823472D01*
X127497141Y-100673357D01*
X127438569Y-100531952D01*
X127353536Y-100404691D01*
X127245309Y-100296464D01*
X127118048Y-100211431D01*
X126976643Y-100152859D01*
X126826528Y-100123000D01*
X126673472Y-100123000D01*
X126523357Y-100152859D01*
X126381952Y-100211431D01*
X126254691Y-100296464D01*
X126146464Y-100404691D01*
X126061431Y-100531952D01*
X126002859Y-100673357D01*
X125973000Y-100823472D01*
X125973000Y-100967065D01*
X124992066Y-101948000D01*
X123407936Y-101948000D01*
X122822368Y-101362434D01*
X122806651Y-101343283D01*
X122730212Y-101280550D01*
X122643003Y-101233936D01*
X122548376Y-101205231D01*
X122474620Y-101197967D01*
X122474610Y-101197967D01*
X122449967Y-101195540D01*
X122425324Y-101197967D01*
X115557902Y-101197967D01*
X115087401Y-100727467D01*
X115071684Y-100708316D01*
X114995245Y-100645583D01*
X114993485Y-100644642D01*
X115030537Y-100599494D01*
X115089502Y-100489180D01*
X115125812Y-100369482D01*
X115138072Y-100245000D01*
X115135000Y-100080750D01*
X114976250Y-99922000D01*
X113627000Y-99922000D01*
X113627000Y-99942000D01*
X113373000Y-99942000D01*
X113373000Y-99922000D01*
X113353000Y-99922000D01*
X113353000Y-99668000D01*
X113373000Y-99668000D01*
X113373000Y-99648000D01*
X113627000Y-99648000D01*
X113627000Y-99668000D01*
X114976250Y-99668000D01*
X115135000Y-99509250D01*
X115138072Y-99345000D01*
X115125812Y-99220518D01*
X115089502Y-99100820D01*
X115030537Y-98990506D01*
X114951185Y-98893815D01*
X114885073Y-98839558D01*
X129032236Y-98914017D01*
G37*
%TD.AperFunction*%
%TD*%
M02*
