%TF.GenerationSoftware,KiCad,Pcbnew,(5.1.9-0-10_14)*%
%TF.CreationDate,2021-05-20T08:33:04+01:00*%
%TF.ProjectId,Generic,47656e65-7269-4632-9e6b-696361645f70,3*%
%TF.SameCoordinates,Original*%
%TF.FileFunction,Copper,L1,Top*%
%TF.FilePolarity,Positive*%
%FSLAX46Y46*%
G04 Gerber Fmt 4.6, Leading zero omitted, Abs format (unit mm)*
G04 Created by KiCad (PCBNEW (5.1.9-0-10_14)) date 2021-05-20 08:33:04*
%MOMM*%
%LPD*%
G01*
G04 APERTURE LIST*
%TA.AperFunction,NonConductor*%
%ADD10C,0.080000*%
%TD*%
%TA.AperFunction,EtchedComponent*%
%ADD11C,0.250000*%
%TD*%
%TA.AperFunction,EtchedComponent*%
%ADD12C,0.500000*%
%TD*%
%TA.AperFunction,ComponentPad*%
%ADD13R,1.700000X1.700000*%
%TD*%
%TA.AperFunction,ComponentPad*%
%ADD14O,1.700000X1.700000*%
%TD*%
%TA.AperFunction,SMDPad,CuDef*%
%ADD15C,0.100000*%
%TD*%
%TA.AperFunction,SMDPad,CuDef*%
%ADD16R,3.000000X0.500000*%
%TD*%
%TA.AperFunction,SMDPad,CuDef*%
%ADD17R,3.700000X1.100000*%
%TD*%
%TA.AperFunction,SMDPad,CuDef*%
%ADD18R,1.560000X0.650000*%
%TD*%
%TA.AperFunction,ComponentPad*%
%ADD19C,0.350000*%
%TD*%
%TA.AperFunction,SMDPad,CuDef*%
%ADD20R,0.200000X0.200000*%
%TD*%
%TA.AperFunction,SMDPad,CuDef*%
%ADD21C,0.500000*%
%TD*%
%TA.AperFunction,SMDPad,CuDef*%
%ADD22R,0.500000X0.200000*%
%TD*%
%TA.AperFunction,SMDPad,CuDef*%
%ADD23R,0.200000X0.500000*%
%TD*%
%TA.AperFunction,SMDPad,CuDef*%
%ADD24R,5.490000X8.340000*%
%TD*%
%TA.AperFunction,SMDPad,CuDef*%
%ADD25R,1.140000X0.600000*%
%TD*%
%TA.AperFunction,ComponentPad*%
%ADD26C,1.700000*%
%TD*%
%TA.AperFunction,ComponentPad*%
%ADD27C,2.000000*%
%TD*%
%TA.AperFunction,SMDPad,CuDef*%
%ADD28R,1.140000X0.300000*%
%TD*%
%TA.AperFunction,ComponentPad*%
%ADD29C,0.600000*%
%TD*%
%TA.AperFunction,ViaPad*%
%ADD30C,0.800000*%
%TD*%
%TA.AperFunction,Conductor*%
%ADD31C,0.250000*%
%TD*%
%TA.AperFunction,Conductor*%
%ADD32C,0.500000*%
%TD*%
%TA.AperFunction,Conductor*%
%ADD33C,0.254000*%
%TD*%
%TA.AperFunction,Conductor*%
%ADD34C,0.100000*%
%TD*%
G04 APERTURE END LIST*
D10*
X110726190Y-109471428D02*
X110750000Y-109495238D01*
X110773809Y-109542857D01*
X110773809Y-109661904D01*
X110750000Y-109709523D01*
X110726190Y-109733333D01*
X110678571Y-109757142D01*
X110630952Y-109757142D01*
X110559523Y-109733333D01*
X110273809Y-109447619D01*
X110273809Y-109757142D01*
X110773809Y-110066666D02*
X110773809Y-110114285D01*
X110750000Y-110161904D01*
X110726190Y-110185714D01*
X110678571Y-110209523D01*
X110583333Y-110233333D01*
X110464285Y-110233333D01*
X110369047Y-110209523D01*
X110321428Y-110185714D01*
X110297619Y-110161904D01*
X110273809Y-110114285D01*
X110273809Y-110066666D01*
X110297619Y-110019047D01*
X110321428Y-109995238D01*
X110369047Y-109971428D01*
X110464285Y-109947619D01*
X110583333Y-109947619D01*
X110678571Y-109971428D01*
X110726190Y-109995238D01*
X110750000Y-110019047D01*
X110773809Y-110066666D01*
X110726190Y-110423809D02*
X110750000Y-110447619D01*
X110773809Y-110495238D01*
X110773809Y-110614285D01*
X110750000Y-110661904D01*
X110726190Y-110685714D01*
X110678571Y-110709523D01*
X110630952Y-110709523D01*
X110559523Y-110685714D01*
X110273809Y-110400000D01*
X110273809Y-110709523D01*
X110273809Y-111185714D02*
X110273809Y-110900000D01*
X110273809Y-111042857D02*
X110773809Y-111042857D01*
X110702380Y-110995238D01*
X110654761Y-110947619D01*
X110630952Y-110900000D01*
X110464285Y-111400000D02*
X110464285Y-111780952D01*
X110773809Y-112114285D02*
X110773809Y-112161904D01*
X110750000Y-112209523D01*
X110726190Y-112233333D01*
X110678571Y-112257142D01*
X110583333Y-112280952D01*
X110464285Y-112280952D01*
X110369047Y-112257142D01*
X110321428Y-112233333D01*
X110297619Y-112209523D01*
X110273809Y-112161904D01*
X110273809Y-112114285D01*
X110297619Y-112066666D01*
X110321428Y-112042857D01*
X110369047Y-112019047D01*
X110464285Y-111995238D01*
X110583333Y-111995238D01*
X110678571Y-112019047D01*
X110726190Y-112042857D01*
X110750000Y-112066666D01*
X110773809Y-112114285D01*
X110773809Y-112733333D02*
X110773809Y-112495238D01*
X110535714Y-112471428D01*
X110559523Y-112495238D01*
X110583333Y-112542857D01*
X110583333Y-112661904D01*
X110559523Y-112709523D01*
X110535714Y-112733333D01*
X110488095Y-112757142D01*
X110369047Y-112757142D01*
X110321428Y-112733333D01*
X110297619Y-112709523D01*
X110273809Y-112661904D01*
X110273809Y-112542857D01*
X110297619Y-112495238D01*
X110321428Y-112471428D01*
X110464285Y-112971428D02*
X110464285Y-113352380D01*
X110273809Y-113852380D02*
X110273809Y-113566666D01*
X110273809Y-113709523D02*
X110773809Y-113709523D01*
X110702380Y-113661904D01*
X110654761Y-113614285D01*
X110630952Y-113566666D01*
X110273809Y-114328571D02*
X110273809Y-114042857D01*
X110273809Y-114185714D02*
X110773809Y-114185714D01*
X110702380Y-114138095D01*
X110654761Y-114090476D01*
X110630952Y-114042857D01*
D11*
%TO.C,Reg1*%
X111500000Y-108450000D02*
G75*
G02*
X110650000Y-107600000I0J850000D01*
G01*
X111850000Y-103300000D02*
G75*
G02*
X111500000Y-103650000I-350000J0D01*
G01*
X118000000Y-106750000D02*
G75*
G02*
X117650000Y-106400000I0J350000D01*
G01*
X117300000Y-104150000D02*
G75*
G02*
X117650000Y-104500000I0J-350000D01*
G01*
X111500000Y-106500000D02*
G75*
G02*
X111150000Y-106150000I0J350000D01*
G01*
X111150000Y-104500000D02*
G75*
G02*
X111500000Y-104150000I350000J0D01*
G01*
X110650000Y-104500000D02*
G75*
G02*
X111500000Y-103650000I850000J0D01*
G01*
X110650000Y-107550000D02*
X110650000Y-104500000D01*
X111150000Y-106150000D02*
X111150000Y-104500000D01*
X117300000Y-104150000D02*
X111550000Y-104150000D01*
X117650000Y-106400000D02*
X117650000Y-104500000D01*
X116750000Y-105250000D02*
X116750000Y-106750000D01*
D12*
X114650000Y-105250000D02*
X116650000Y-105250000D01*
X114650000Y-105100000D02*
X114650000Y-106500000D01*
D11*
X111850000Y-103300000D02*
X111850000Y-102800000D01*
%TD*%
%TO.P,D1,2*%
%TO.N,Net-(D1-Pad2)*%
%TA.AperFunction,SMDPad,CuDef*%
G36*
G01*
X128056250Y-102450000D02*
X127543750Y-102450000D01*
G75*
G02*
X127325000Y-102231250I0J218750D01*
G01*
X127325000Y-101793750D01*
G75*
G02*
X127543750Y-101575000I218750J0D01*
G01*
X128056250Y-101575000D01*
G75*
G02*
X128275000Y-101793750I0J-218750D01*
G01*
X128275000Y-102231250D01*
G75*
G02*
X128056250Y-102450000I-218750J0D01*
G01*
G37*
%TD.AperFunction*%
%TO.P,D1,1*%
%TO.N,Net-(D1-Pad1)*%
%TA.AperFunction,SMDPad,CuDef*%
G36*
G01*
X128056250Y-104025000D02*
X127543750Y-104025000D01*
G75*
G02*
X127325000Y-103806250I0J218750D01*
G01*
X127325000Y-103368750D01*
G75*
G02*
X127543750Y-103150000I218750J0D01*
G01*
X128056250Y-103150000D01*
G75*
G02*
X128275000Y-103368750I0J-218750D01*
G01*
X128275000Y-103806250D01*
G75*
G02*
X128056250Y-104025000I-218750J0D01*
G01*
G37*
%TD.AperFunction*%
%TD*%
%TO.P,R9,2*%
%TO.N,+3V3*%
%TA.AperFunction,SMDPad,CuDef*%
G36*
G01*
X124875000Y-101825000D02*
X124875000Y-102375000D01*
G75*
G02*
X124675000Y-102575000I-200000J0D01*
G01*
X124275000Y-102575000D01*
G75*
G02*
X124075000Y-102375000I0J200000D01*
G01*
X124075000Y-101825000D01*
G75*
G02*
X124275000Y-101625000I200000J0D01*
G01*
X124675000Y-101625000D01*
G75*
G02*
X124875000Y-101825000I0J-200000D01*
G01*
G37*
%TD.AperFunction*%
%TO.P,R9,1*%
%TO.N,Net-(D1-Pad2)*%
%TA.AperFunction,SMDPad,CuDef*%
G36*
G01*
X126525000Y-101825000D02*
X126525000Y-102375000D01*
G75*
G02*
X126325000Y-102575000I-200000J0D01*
G01*
X125925000Y-102575000D01*
G75*
G02*
X125725000Y-102375000I0J200000D01*
G01*
X125725000Y-101825000D01*
G75*
G02*
X125925000Y-101625000I200000J0D01*
G01*
X126325000Y-101625000D01*
G75*
G02*
X126525000Y-101825000I0J-200000D01*
G01*
G37*
%TD.AperFunction*%
%TD*%
%TO.P,R8,2*%
%TO.N,Net-(J2-PadB5)*%
%TA.AperFunction,SMDPad,CuDef*%
G36*
G01*
X122175000Y-104725000D02*
X122175000Y-105275000D01*
G75*
G02*
X121975000Y-105475000I-200000J0D01*
G01*
X121575000Y-105475000D01*
G75*
G02*
X121375000Y-105275000I0J200000D01*
G01*
X121375000Y-104725000D01*
G75*
G02*
X121575000Y-104525000I200000J0D01*
G01*
X121975000Y-104525000D01*
G75*
G02*
X122175000Y-104725000I0J-200000D01*
G01*
G37*
%TD.AperFunction*%
%TO.P,R8,1*%
%TO.N,GND*%
%TA.AperFunction,SMDPad,CuDef*%
G36*
G01*
X123825000Y-104725000D02*
X123825000Y-105275000D01*
G75*
G02*
X123625000Y-105475000I-200000J0D01*
G01*
X123225000Y-105475000D01*
G75*
G02*
X123025000Y-105275000I0J200000D01*
G01*
X123025000Y-104725000D01*
G75*
G02*
X123225000Y-104525000I200000J0D01*
G01*
X123625000Y-104525000D01*
G75*
G02*
X123825000Y-104725000I0J-200000D01*
G01*
G37*
%TD.AperFunction*%
%TD*%
%TO.P,R7,2*%
%TO.N,GND*%
%TA.AperFunction,SMDPad,CuDef*%
G36*
G01*
X126025000Y-105275000D02*
X126025000Y-104725000D01*
G75*
G02*
X126225000Y-104525000I200000J0D01*
G01*
X126625000Y-104525000D01*
G75*
G02*
X126825000Y-104725000I0J-200000D01*
G01*
X126825000Y-105275000D01*
G75*
G02*
X126625000Y-105475000I-200000J0D01*
G01*
X126225000Y-105475000D01*
G75*
G02*
X126025000Y-105275000I0J200000D01*
G01*
G37*
%TD.AperFunction*%
%TO.P,R7,1*%
%TO.N,Net-(J2-PadA5)*%
%TA.AperFunction,SMDPad,CuDef*%
G36*
G01*
X124375000Y-105275000D02*
X124375000Y-104725000D01*
G75*
G02*
X124575000Y-104525000I200000J0D01*
G01*
X124975000Y-104525000D01*
G75*
G02*
X125175000Y-104725000I0J-200000D01*
G01*
X125175000Y-105275000D01*
G75*
G02*
X124975000Y-105475000I-200000J0D01*
G01*
X124575000Y-105475000D01*
G75*
G02*
X124375000Y-105275000I0J200000D01*
G01*
G37*
%TD.AperFunction*%
%TD*%
%TO.P,R6,1*%
%TO.N,IO5*%
%TA.AperFunction,SMDPad,CuDef*%
G36*
G01*
X111075000Y-120649900D02*
X111075000Y-119750100D01*
G75*
G02*
X111325100Y-119500000I250100J0D01*
G01*
X111849900Y-119500000D01*
G75*
G02*
X112100000Y-119750100I0J-250100D01*
G01*
X112100000Y-120649900D01*
G75*
G02*
X111849900Y-120900000I-250100J0D01*
G01*
X111325100Y-120900000D01*
G75*
G02*
X111075000Y-120649900I0J250100D01*
G01*
G37*
%TD.AperFunction*%
%TO.P,R6,2*%
%TO.N,Net-(J1-Pad6)*%
%TA.AperFunction,SMDPad,CuDef*%
G36*
G01*
X112900000Y-120649900D02*
X112900000Y-119750100D01*
G75*
G02*
X113150100Y-119500000I250100J0D01*
G01*
X113674900Y-119500000D01*
G75*
G02*
X113925000Y-119750100I0J-250100D01*
G01*
X113925000Y-120649900D01*
G75*
G02*
X113674900Y-120900000I-250100J0D01*
G01*
X113150100Y-120900000D01*
G75*
G02*
X112900000Y-120649900I0J250100D01*
G01*
G37*
%TD.AperFunction*%
%TA.AperFunction,SMDPad,CuDef*%
G36*
G01*
X113400000Y-120825250D02*
X113400000Y-119574750D01*
G75*
G02*
X113649750Y-119325000I249750J0D01*
G01*
X114275250Y-119325000D01*
G75*
G02*
X114525000Y-119574750I0J-249750D01*
G01*
X114525000Y-120825250D01*
G75*
G02*
X114275250Y-121075000I-249750J0D01*
G01*
X113649750Y-121075000D01*
G75*
G02*
X113400000Y-120825250I0J249750D01*
G01*
G37*
%TD.AperFunction*%
%TO.P,R6,1*%
%TO.N,IO5*%
%TA.AperFunction,SMDPad,CuDef*%
G36*
G01*
X110475000Y-120825250D02*
X110475000Y-119574750D01*
G75*
G02*
X110724750Y-119325000I249750J0D01*
G01*
X111350250Y-119325000D01*
G75*
G02*
X111600000Y-119574750I0J-249750D01*
G01*
X111600000Y-120825250D01*
G75*
G02*
X111350250Y-121075000I-249750J0D01*
G01*
X110724750Y-121075000D01*
G75*
G02*
X110475000Y-120825250I0J249750D01*
G01*
G37*
%TD.AperFunction*%
%TD*%
%TO.P,R5,1*%
%TO.N,VBUS*%
%TA.AperFunction,SMDPad,CuDef*%
G36*
G01*
X112849900Y-128175000D02*
X111950100Y-128175000D01*
G75*
G02*
X111700000Y-127924900I0J250100D01*
G01*
X111700000Y-127400100D01*
G75*
G02*
X111950100Y-127150000I250100J0D01*
G01*
X112849900Y-127150000D01*
G75*
G02*
X113100000Y-127400100I0J-250100D01*
G01*
X113100000Y-127924900D01*
G75*
G02*
X112849900Y-128175000I-250100J0D01*
G01*
G37*
%TD.AperFunction*%
%TO.P,R5,2*%
%TO.N,Net-(J1-Pad6)*%
%TA.AperFunction,SMDPad,CuDef*%
G36*
G01*
X112849900Y-126350000D02*
X111950100Y-126350000D01*
G75*
G02*
X111700000Y-126099900I0J250100D01*
G01*
X111700000Y-125575100D01*
G75*
G02*
X111950100Y-125325000I250100J0D01*
G01*
X112849900Y-125325000D01*
G75*
G02*
X113100000Y-125575100I0J-250100D01*
G01*
X113100000Y-126099900D01*
G75*
G02*
X112849900Y-126350000I-250100J0D01*
G01*
G37*
%TD.AperFunction*%
%TA.AperFunction,SMDPad,CuDef*%
G36*
G01*
X113025250Y-125850000D02*
X111774750Y-125850000D01*
G75*
G02*
X111525000Y-125600250I0J249750D01*
G01*
X111525000Y-124974750D01*
G75*
G02*
X111774750Y-124725000I249750J0D01*
G01*
X113025250Y-124725000D01*
G75*
G02*
X113275000Y-124974750I0J-249750D01*
G01*
X113275000Y-125600250D01*
G75*
G02*
X113025250Y-125850000I-249750J0D01*
G01*
G37*
%TD.AperFunction*%
%TO.P,R5,1*%
%TO.N,VBUS*%
%TA.AperFunction,SMDPad,CuDef*%
G36*
G01*
X113025250Y-128775000D02*
X111774750Y-128775000D01*
G75*
G02*
X111525000Y-128525250I0J249750D01*
G01*
X111525000Y-127899750D01*
G75*
G02*
X111774750Y-127650000I249750J0D01*
G01*
X113025250Y-127650000D01*
G75*
G02*
X113275000Y-127899750I0J-249750D01*
G01*
X113275000Y-128525250D01*
G75*
G02*
X113025250Y-128775000I-249750J0D01*
G01*
G37*
%TD.AperFunction*%
%TD*%
%TO.P,R4,1*%
%TO.N,+3V3*%
%TA.AperFunction,SMDPad,CuDef*%
G36*
G01*
X116119900Y-128175000D02*
X115220100Y-128175000D01*
G75*
G02*
X114970000Y-127924900I0J250100D01*
G01*
X114970000Y-127400100D01*
G75*
G02*
X115220100Y-127150000I250100J0D01*
G01*
X116119900Y-127150000D01*
G75*
G02*
X116370000Y-127400100I0J-250100D01*
G01*
X116370000Y-127924900D01*
G75*
G02*
X116119900Y-128175000I-250100J0D01*
G01*
G37*
%TD.AperFunction*%
%TO.P,R4,2*%
%TO.N,IO4*%
%TA.AperFunction,SMDPad,CuDef*%
G36*
G01*
X116119900Y-126350000D02*
X115220100Y-126350000D01*
G75*
G02*
X114970000Y-126099900I0J250100D01*
G01*
X114970000Y-125575100D01*
G75*
G02*
X115220100Y-125325000I250100J0D01*
G01*
X116119900Y-125325000D01*
G75*
G02*
X116370000Y-125575100I0J-250100D01*
G01*
X116370000Y-126099900D01*
G75*
G02*
X116119900Y-126350000I-250100J0D01*
G01*
G37*
%TD.AperFunction*%
%TA.AperFunction,SMDPad,CuDef*%
G36*
G01*
X116295250Y-125850000D02*
X115044750Y-125850000D01*
G75*
G02*
X114795000Y-125600250I0J249750D01*
G01*
X114795000Y-124974750D01*
G75*
G02*
X115044750Y-124725000I249750J0D01*
G01*
X116295250Y-124725000D01*
G75*
G02*
X116545000Y-124974750I0J-249750D01*
G01*
X116545000Y-125600250D01*
G75*
G02*
X116295250Y-125850000I-249750J0D01*
G01*
G37*
%TD.AperFunction*%
%TO.P,R4,1*%
%TO.N,+3V3*%
%TA.AperFunction,SMDPad,CuDef*%
G36*
G01*
X116295250Y-128775000D02*
X115044750Y-128775000D01*
G75*
G02*
X114795000Y-128525250I0J249750D01*
G01*
X114795000Y-127899750D01*
G75*
G02*
X115044750Y-127650000I249750J0D01*
G01*
X116295250Y-127650000D01*
G75*
G02*
X116545000Y-127899750I0J-249750D01*
G01*
X116545000Y-128525250D01*
G75*
G02*
X116295250Y-128775000I-249750J0D01*
G01*
G37*
%TD.AperFunction*%
%TD*%
%TO.P,R3,1*%
%TO.N,+3V3*%
%TA.AperFunction,SMDPad,CuDef*%
G36*
G01*
X118619900Y-128175000D02*
X117720100Y-128175000D01*
G75*
G02*
X117470000Y-127924900I0J250100D01*
G01*
X117470000Y-127400100D01*
G75*
G02*
X117720100Y-127150000I250100J0D01*
G01*
X118619900Y-127150000D01*
G75*
G02*
X118870000Y-127400100I0J-250100D01*
G01*
X118870000Y-127924900D01*
G75*
G02*
X118619900Y-128175000I-250100J0D01*
G01*
G37*
%TD.AperFunction*%
%TO.P,R3,2*%
%TO.N,IO3*%
%TA.AperFunction,SMDPad,CuDef*%
G36*
G01*
X118619900Y-126350000D02*
X117720100Y-126350000D01*
G75*
G02*
X117470000Y-126099900I0J250100D01*
G01*
X117470000Y-125575100D01*
G75*
G02*
X117720100Y-125325000I250100J0D01*
G01*
X118619900Y-125325000D01*
G75*
G02*
X118870000Y-125575100I0J-250100D01*
G01*
X118870000Y-126099900D01*
G75*
G02*
X118619900Y-126350000I-250100J0D01*
G01*
G37*
%TD.AperFunction*%
%TA.AperFunction,SMDPad,CuDef*%
G36*
G01*
X118795250Y-125850000D02*
X117544750Y-125850000D01*
G75*
G02*
X117295000Y-125600250I0J249750D01*
G01*
X117295000Y-124974750D01*
G75*
G02*
X117544750Y-124725000I249750J0D01*
G01*
X118795250Y-124725000D01*
G75*
G02*
X119045000Y-124974750I0J-249750D01*
G01*
X119045000Y-125600250D01*
G75*
G02*
X118795250Y-125850000I-249750J0D01*
G01*
G37*
%TD.AperFunction*%
%TO.P,R3,1*%
%TO.N,+3V3*%
%TA.AperFunction,SMDPad,CuDef*%
G36*
G01*
X118795250Y-128775000D02*
X117544750Y-128775000D01*
G75*
G02*
X117295000Y-128525250I0J249750D01*
G01*
X117295000Y-127899750D01*
G75*
G02*
X117544750Y-127650000I249750J0D01*
G01*
X118795250Y-127650000D01*
G75*
G02*
X119045000Y-127899750I0J-249750D01*
G01*
X119045000Y-128525250D01*
G75*
G02*
X118795250Y-128775000I-249750J0D01*
G01*
G37*
%TD.AperFunction*%
%TD*%
%TO.P,R2,1*%
%TO.N,+3V3*%
%TA.AperFunction,SMDPad,CuDef*%
G36*
G01*
X121119900Y-128175000D02*
X120220100Y-128175000D01*
G75*
G02*
X119970000Y-127924900I0J250100D01*
G01*
X119970000Y-127400100D01*
G75*
G02*
X120220100Y-127150000I250100J0D01*
G01*
X121119900Y-127150000D01*
G75*
G02*
X121370000Y-127400100I0J-250100D01*
G01*
X121370000Y-127924900D01*
G75*
G02*
X121119900Y-128175000I-250100J0D01*
G01*
G37*
%TD.AperFunction*%
%TO.P,R2,2*%
%TO.N,IO2*%
%TA.AperFunction,SMDPad,CuDef*%
G36*
G01*
X121119900Y-126350000D02*
X120220100Y-126350000D01*
G75*
G02*
X119970000Y-126099900I0J250100D01*
G01*
X119970000Y-125575100D01*
G75*
G02*
X120220100Y-125325000I250100J0D01*
G01*
X121119900Y-125325000D01*
G75*
G02*
X121370000Y-125575100I0J-250100D01*
G01*
X121370000Y-126099900D01*
G75*
G02*
X121119900Y-126350000I-250100J0D01*
G01*
G37*
%TD.AperFunction*%
%TA.AperFunction,SMDPad,CuDef*%
G36*
G01*
X121295250Y-125850000D02*
X120044750Y-125850000D01*
G75*
G02*
X119795000Y-125600250I0J249750D01*
G01*
X119795000Y-124974750D01*
G75*
G02*
X120044750Y-124725000I249750J0D01*
G01*
X121295250Y-124725000D01*
G75*
G02*
X121545000Y-124974750I0J-249750D01*
G01*
X121545000Y-125600250D01*
G75*
G02*
X121295250Y-125850000I-249750J0D01*
G01*
G37*
%TD.AperFunction*%
%TO.P,R2,1*%
%TO.N,+3V3*%
%TA.AperFunction,SMDPad,CuDef*%
G36*
G01*
X121295250Y-128775000D02*
X120044750Y-128775000D01*
G75*
G02*
X119795000Y-128525250I0J249750D01*
G01*
X119795000Y-127899750D01*
G75*
G02*
X120044750Y-127650000I249750J0D01*
G01*
X121295250Y-127650000D01*
G75*
G02*
X121545000Y-127899750I0J-249750D01*
G01*
X121545000Y-128525250D01*
G75*
G02*
X121295250Y-128775000I-249750J0D01*
G01*
G37*
%TD.AperFunction*%
%TD*%
%TO.P,R1,1*%
%TO.N,+3V3*%
%TA.AperFunction,SMDPad,CuDef*%
G36*
G01*
X123619900Y-128175000D02*
X122720100Y-128175000D01*
G75*
G02*
X122470000Y-127924900I0J250100D01*
G01*
X122470000Y-127400100D01*
G75*
G02*
X122720100Y-127150000I250100J0D01*
G01*
X123619900Y-127150000D01*
G75*
G02*
X123870000Y-127400100I0J-250100D01*
G01*
X123870000Y-127924900D01*
G75*
G02*
X123619900Y-128175000I-250100J0D01*
G01*
G37*
%TD.AperFunction*%
%TO.P,R1,2*%
%TO.N,IO1*%
%TA.AperFunction,SMDPad,CuDef*%
G36*
G01*
X123619900Y-126350000D02*
X122720100Y-126350000D01*
G75*
G02*
X122470000Y-126099900I0J250100D01*
G01*
X122470000Y-125575100D01*
G75*
G02*
X122720100Y-125325000I250100J0D01*
G01*
X123619900Y-125325000D01*
G75*
G02*
X123870000Y-125575100I0J-250100D01*
G01*
X123870000Y-126099900D01*
G75*
G02*
X123619900Y-126350000I-250100J0D01*
G01*
G37*
%TD.AperFunction*%
%TA.AperFunction,SMDPad,CuDef*%
G36*
G01*
X123795250Y-125850000D02*
X122544750Y-125850000D01*
G75*
G02*
X122295000Y-125600250I0J249750D01*
G01*
X122295000Y-124974750D01*
G75*
G02*
X122544750Y-124725000I249750J0D01*
G01*
X123795250Y-124725000D01*
G75*
G02*
X124045000Y-124974750I0J-249750D01*
G01*
X124045000Y-125600250D01*
G75*
G02*
X123795250Y-125850000I-249750J0D01*
G01*
G37*
%TD.AperFunction*%
%TO.P,R1,1*%
%TO.N,+3V3*%
%TA.AperFunction,SMDPad,CuDef*%
G36*
G01*
X123795250Y-128775000D02*
X122544750Y-128775000D01*
G75*
G02*
X122295000Y-128525250I0J249750D01*
G01*
X122295000Y-127899750D01*
G75*
G02*
X122544750Y-127650000I249750J0D01*
G01*
X123795250Y-127650000D01*
G75*
G02*
X124045000Y-127899750I0J-249750D01*
G01*
X124045000Y-128525250D01*
G75*
G02*
X123795250Y-128775000I-249750J0D01*
G01*
G37*
%TD.AperFunction*%
%TD*%
%TO.P,C1,1*%
%TO.N,GND*%
%TA.AperFunction,SMDPad,CuDef*%
G36*
G01*
X127562500Y-119750100D02*
X127562500Y-120649900D01*
G75*
G02*
X127312400Y-120900000I-250100J0D01*
G01*
X126787600Y-120900000D01*
G75*
G02*
X126537500Y-120649900I0J250100D01*
G01*
X126537500Y-119750100D01*
G75*
G02*
X126787600Y-119500000I250100J0D01*
G01*
X127312400Y-119500000D01*
G75*
G02*
X127562500Y-119750100I0J-250100D01*
G01*
G37*
%TD.AperFunction*%
%TO.P,C1,2*%
%TO.N,IO1*%
%TA.AperFunction,SMDPad,CuDef*%
G36*
G01*
X125737500Y-119750100D02*
X125737500Y-120649900D01*
G75*
G02*
X125487400Y-120900000I-250100J0D01*
G01*
X124962600Y-120900000D01*
G75*
G02*
X124712500Y-120649900I0J250100D01*
G01*
X124712500Y-119750100D01*
G75*
G02*
X124962600Y-119500000I250100J0D01*
G01*
X125487400Y-119500000D01*
G75*
G02*
X125737500Y-119750100I0J-250100D01*
G01*
G37*
%TD.AperFunction*%
%TA.AperFunction,SMDPad,CuDef*%
G36*
G01*
X125237500Y-119574750D02*
X125237500Y-120825250D01*
G75*
G02*
X124987750Y-121075000I-249750J0D01*
G01*
X124362250Y-121075000D01*
G75*
G02*
X124112500Y-120825250I0J249750D01*
G01*
X124112500Y-119574750D01*
G75*
G02*
X124362250Y-119325000I249750J0D01*
G01*
X124987750Y-119325000D01*
G75*
G02*
X125237500Y-119574750I0J-249750D01*
G01*
G37*
%TD.AperFunction*%
%TO.P,C1,1*%
%TO.N,GND*%
%TA.AperFunction,SMDPad,CuDef*%
G36*
G01*
X128162500Y-119574750D02*
X128162500Y-120825250D01*
G75*
G02*
X127912750Y-121075000I-249750J0D01*
G01*
X127287250Y-121075000D01*
G75*
G02*
X127037500Y-120825250I0J249750D01*
G01*
X127037500Y-119574750D01*
G75*
G02*
X127287250Y-119325000I249750J0D01*
G01*
X127912750Y-119325000D01*
G75*
G02*
X128162500Y-119574750I0J-249750D01*
G01*
G37*
%TD.AperFunction*%
%TD*%
D13*
%TO.P,J1,1*%
%TO.N,GND*%
X125745000Y-122900000D03*
D14*
%TO.P,J1,2*%
%TO.N,IO1*%
X123205000Y-122900000D03*
%TO.P,J1,3*%
%TO.N,IO2*%
X120665000Y-122900000D03*
%TO.P,J1,4*%
%TO.N,IO3*%
X118125000Y-122900000D03*
%TO.P,J1,5*%
%TO.N,IO4*%
X115585000Y-122900000D03*
%TO.P,J1,6*%
%TO.N,Net-(J1-Pad6)*%
X113045000Y-122900000D03*
%TD*%
%TO.P,C2,2*%
%TO.N,GND*%
%TA.AperFunction,SMDPad,CuDef*%
G36*
G01*
X114137500Y-111675000D02*
X113662500Y-111675000D01*
G75*
G02*
X113425000Y-111437500I0J237500D01*
G01*
X113425000Y-110837500D01*
G75*
G02*
X113662500Y-110600000I237500J0D01*
G01*
X114137500Y-110600000D01*
G75*
G02*
X114375000Y-110837500I0J-237500D01*
G01*
X114375000Y-111437500D01*
G75*
G02*
X114137500Y-111675000I-237500J0D01*
G01*
G37*
%TD.AperFunction*%
%TO.P,C2,1*%
%TO.N,+3V3*%
%TA.AperFunction,SMDPad,CuDef*%
G36*
G01*
X114137500Y-113400000D02*
X113662500Y-113400000D01*
G75*
G02*
X113425000Y-113162500I0J237500D01*
G01*
X113425000Y-112562500D01*
G75*
G02*
X113662500Y-112325000I237500J0D01*
G01*
X114137500Y-112325000D01*
G75*
G02*
X114375000Y-112562500I0J-237500D01*
G01*
X114375000Y-113162500D01*
G75*
G02*
X114137500Y-113400000I-237500J0D01*
G01*
G37*
%TD.AperFunction*%
%TD*%
%TO.P,Reg1,3*%
%TO.N,GND*%
%TA.AperFunction,SMDPad,CuDef*%
G36*
G01*
X119300000Y-107749550D02*
X119300000Y-108650450D01*
G75*
G02*
X119050450Y-108900000I-249550J0D01*
G01*
X118399550Y-108900000D01*
G75*
G02*
X118150000Y-108650450I0J249550D01*
G01*
X118150000Y-107749550D01*
G75*
G02*
X118399550Y-107500000I249550J0D01*
G01*
X119050450Y-107500000D01*
G75*
G02*
X119300000Y-107749550I0J-249550D01*
G01*
G37*
%TD.AperFunction*%
%TO.P,Reg1,2*%
%TO.N,VBUS*%
%TA.AperFunction,SMDPad,CuDef*%
G36*
G01*
X117250000Y-107749550D02*
X117250000Y-108650450D01*
G75*
G02*
X117000450Y-108900000I-249550J0D01*
G01*
X116349550Y-108900000D01*
G75*
G02*
X116100000Y-108650450I0J249550D01*
G01*
X116100000Y-107749550D01*
G75*
G02*
X116349550Y-107500000I249550J0D01*
G01*
X117000450Y-107500000D01*
G75*
G02*
X117250000Y-107749550I0J-249550D01*
G01*
G37*
%TD.AperFunction*%
%TA.AperFunction,SMDPad,CuDef*%
D15*
G36*
X115750000Y-107250000D02*
G01*
X115750000Y-107255292D01*
X115761969Y-107255293D01*
X115859532Y-107260065D01*
X115859551Y-107260065D01*
X115859573Y-107260067D01*
X115862968Y-107260257D01*
X115873114Y-107261395D01*
X115883373Y-107262401D01*
X115980024Y-107276673D01*
X115983405Y-107277197D01*
X115993430Y-107279328D01*
X116003506Y-107281323D01*
X116098287Y-107304955D01*
X116098302Y-107304958D01*
X116098318Y-107304963D01*
X116101617Y-107305810D01*
X116111385Y-107308908D01*
X116121217Y-107311877D01*
X116213242Y-107344645D01*
X116213254Y-107344649D01*
X116213256Y-107344650D01*
X116216470Y-107345820D01*
X116225905Y-107349864D01*
X116235384Y-107353771D01*
X116323786Y-107395369D01*
X116326871Y-107396847D01*
X116335827Y-107401771D01*
X116344924Y-107406607D01*
X116428828Y-107456626D01*
X116428844Y-107456634D01*
X116428861Y-107456645D01*
X116431770Y-107458407D01*
X116440216Y-107464190D01*
X116448781Y-107469881D01*
X116527409Y-107527851D01*
X116527416Y-107527856D01*
X116527418Y-107527858D01*
X116530157Y-107529907D01*
X116538016Y-107536502D01*
X116545965Y-107542985D01*
X116618570Y-107608357D01*
X116621096Y-107610664D01*
X116628254Y-107617974D01*
X116635556Y-107625225D01*
X116701423Y-107697359D01*
X116701434Y-107697370D01*
X116701443Y-107697381D01*
X116703724Y-107699915D01*
X116710128Y-107707880D01*
X116716691Y-107715814D01*
X116742266Y-107750000D01*
X117000000Y-107750000D01*
X117000000Y-108500000D01*
X116250000Y-108500000D01*
X116250000Y-107935857D01*
X116226993Y-107915142D01*
X116167646Y-107871386D01*
X116104312Y-107833631D01*
X116037599Y-107802239D01*
X115968134Y-107777504D01*
X115896596Y-107759667D01*
X115823639Y-107748894D01*
X115750000Y-107745292D01*
X115750000Y-107750000D01*
X115250000Y-107750000D01*
X115250000Y-107250000D01*
X115750000Y-107250000D01*
G37*
%TD.AperFunction*%
D16*
%TO.P,Reg1,3*%
%TO.N,GND*%
X117650000Y-102250000D03*
%TA.AperFunction,SMDPad,CuDef*%
D15*
%TO.P,Reg1,4*%
%TO.N,+3V3*%
G36*
X113900000Y-102000000D02*
G01*
X113900000Y-102996296D01*
X113901667Y-103026103D01*
X113905398Y-103050207D01*
X113911466Y-103073840D01*
X113919810Y-103096764D01*
X113930348Y-103118759D01*
X113942992Y-103139636D01*
X113957598Y-103159161D01*
X113974054Y-103177182D01*
X113992183Y-103193505D01*
X114011813Y-103207979D01*
X114032767Y-103220470D01*
X114054849Y-103230861D01*
X114077830Y-103239044D01*
X114101503Y-103244947D01*
X114125627Y-103248509D01*
X114156117Y-103250000D01*
X117350000Y-103250000D01*
X117350000Y-103250298D01*
X117362213Y-103250298D01*
X117459776Y-103255071D01*
X117459795Y-103255071D01*
X117459817Y-103255073D01*
X117463282Y-103255266D01*
X117473698Y-103256434D01*
X117484103Y-103257455D01*
X117580754Y-103271727D01*
X117584204Y-103272261D01*
X117594436Y-103274436D01*
X117604715Y-103276471D01*
X117699513Y-103300107D01*
X117702894Y-103300975D01*
X117712859Y-103304137D01*
X117722894Y-103307166D01*
X117814932Y-103339939D01*
X117818213Y-103341133D01*
X117827844Y-103345261D01*
X117837513Y-103349246D01*
X117925915Y-103390844D01*
X117929064Y-103392353D01*
X117938264Y-103397411D01*
X117947484Y-103402313D01*
X118031404Y-103452340D01*
X118034390Y-103454148D01*
X118043062Y-103460086D01*
X118051748Y-103465857D01*
X118130371Y-103523824D01*
X118130382Y-103523831D01*
X118130393Y-103523840D01*
X118133181Y-103525924D01*
X118141207Y-103532659D01*
X118149311Y-103539269D01*
X118221908Y-103604635D01*
X118221917Y-103604643D01*
X118221927Y-103604653D01*
X118224494Y-103606995D01*
X118231849Y-103614506D01*
X118239248Y-103621854D01*
X118305117Y-103693990D01*
X118305126Y-103693999D01*
X118305135Y-103694010D01*
X118307463Y-103696595D01*
X118314009Y-103704737D01*
X118320695Y-103712819D01*
X118348510Y-103750000D01*
X119250000Y-103750000D01*
X119250000Y-104500000D01*
X118250000Y-104500000D01*
X118250000Y-104247457D01*
X118231720Y-104249507D01*
X118207297Y-104249847D01*
X118182958Y-104247803D01*
X118158935Y-104243395D01*
X118135456Y-104236661D01*
X118112747Y-104227670D01*
X118091023Y-104216505D01*
X118070492Y-104203274D01*
X118051351Y-104188102D01*
X118033781Y-104171135D01*
X118017951Y-104152534D01*
X118004012Y-104132478D01*
X117972577Y-104082171D01*
X117927653Y-104022121D01*
X117878264Y-103968032D01*
X117823835Y-103919025D01*
X117764873Y-103875555D01*
X117701969Y-103838056D01*
X117635689Y-103806867D01*
X117566687Y-103782297D01*
X117495613Y-103764576D01*
X117423155Y-103753877D01*
X117343898Y-103750000D01*
X114150000Y-103750000D01*
X114150000Y-103749702D01*
X114137789Y-103749702D01*
X114088998Y-103747316D01*
X114085513Y-103747121D01*
X114075115Y-103745955D01*
X114064689Y-103744932D01*
X114016363Y-103737796D01*
X114012913Y-103737263D01*
X114002648Y-103735081D01*
X113992402Y-103733052D01*
X113945003Y-103721234D01*
X113941622Y-103720366D01*
X113931670Y-103717209D01*
X113921619Y-103714174D01*
X113875600Y-103697787D01*
X113872319Y-103696593D01*
X113862674Y-103692459D01*
X113853022Y-103688481D01*
X113808821Y-103667682D01*
X113805672Y-103666174D01*
X113796437Y-103661097D01*
X113787254Y-103656214D01*
X113745294Y-103631201D01*
X113742307Y-103629393D01*
X113733633Y-103623453D01*
X113724948Y-103617683D01*
X113685643Y-103588704D01*
X113685629Y-103588695D01*
X113685614Y-103588683D01*
X113682833Y-103586603D01*
X113674815Y-103579875D01*
X113666701Y-103573257D01*
X113630398Y-103540570D01*
X113627820Y-103538216D01*
X113620487Y-103530727D01*
X113613071Y-103523363D01*
X113580131Y-103487290D01*
X113577795Y-103484696D01*
X113571215Y-103476512D01*
X113564559Y-103468466D01*
X113535305Y-103429360D01*
X113535297Y-103429351D01*
X113535289Y-103429339D01*
X113533225Y-103426541D01*
X113527498Y-103417788D01*
X113521639Y-103409102D01*
X113496334Y-103367318D01*
X113494546Y-103364319D01*
X113489674Y-103355000D01*
X113484720Y-103345837D01*
X113463611Y-103301783D01*
X113462125Y-103298624D01*
X113458204Y-103288920D01*
X113454144Y-103279260D01*
X113437440Y-103233365D01*
X113437437Y-103233356D01*
X113436265Y-103230067D01*
X113433302Y-103219998D01*
X113430216Y-103210029D01*
X113418067Y-103162714D01*
X113417222Y-103159327D01*
X113415252Y-103148999D01*
X113413155Y-103138784D01*
X113405684Y-103090521D01*
X113405682Y-103090512D01*
X113405681Y-103090502D01*
X113405171Y-103087055D01*
X113404219Y-103076593D01*
X113403129Y-103066220D01*
X113400402Y-103017447D01*
X113400231Y-103013961D01*
X113400265Y-103009157D01*
X113400013Y-103004350D01*
X113400001Y-103000859D01*
X113400004Y-103000000D01*
X113400000Y-103000000D01*
X113400000Y-102000000D01*
X113900000Y-102000000D01*
G37*
%TD.AperFunction*%
%TO.P,Reg1,~*%
%TO.N,N/C*%
%TA.AperFunction,SMDPad,CuDef*%
G36*
G01*
X117025626Y-105950000D02*
X115774374Y-105950000D01*
G75*
G02*
X115525000Y-105700626I0J249374D01*
G01*
X115525000Y-104774374D01*
G75*
G02*
X115774374Y-104525000I249374J0D01*
G01*
X117025626Y-104525000D01*
G75*
G02*
X117275000Y-104774374I0J-249374D01*
G01*
X117275000Y-105700626D01*
G75*
G02*
X117025626Y-105950000I-249374J0D01*
G01*
G37*
%TD.AperFunction*%
%TO.P,Reg1,3*%
%TO.N,GND*%
%TA.AperFunction,SMDPad,CuDef*%
G36*
G01*
X117025626Y-102975000D02*
X115774374Y-102975000D01*
G75*
G02*
X115525000Y-102725626I0J249374D01*
G01*
X115525000Y-101799374D01*
G75*
G02*
X115774374Y-101550000I249374J0D01*
G01*
X117025626Y-101550000D01*
G75*
G02*
X117275000Y-101799374I0J-249374D01*
G01*
X117275000Y-102725626D01*
G75*
G02*
X117025626Y-102975000I-249374J0D01*
G01*
G37*
%TD.AperFunction*%
%TA.AperFunction,SMDPad,CuDef*%
G36*
X113400000Y-107250000D02*
G01*
X113400000Y-106225000D01*
X113900000Y-106225000D01*
X113900000Y-108775000D01*
X113400000Y-108775000D01*
X113400000Y-107750000D01*
X112150000Y-107750000D01*
X112150000Y-107250000D01*
X113400000Y-107250000D01*
G37*
%TD.AperFunction*%
D17*
%TO.P,Reg1,4*%
%TO.N,+3V3*%
X113400000Y-102250000D03*
%TO.P,Reg1,~*%
%TO.N,N/C*%
X113400000Y-105250000D03*
%TO.P,Reg1,3*%
%TO.N,GND*%
%TA.AperFunction,SMDPad,CuDef*%
G36*
G01*
X119100450Y-102800000D02*
X118199550Y-102800000D01*
G75*
G02*
X117950000Y-102550450I0J249550D01*
G01*
X117950000Y-101899550D01*
G75*
G02*
X118199550Y-101650000I249550J0D01*
G01*
X119100450Y-101650000D01*
G75*
G02*
X119350000Y-101899550I0J-249550D01*
G01*
X119350000Y-102550450D01*
G75*
G02*
X119100450Y-102800000I-249550J0D01*
G01*
G37*
%TD.AperFunction*%
%TO.P,Reg1,4*%
%TO.N,+3V3*%
%TA.AperFunction,SMDPad,CuDef*%
G36*
G01*
X119100450Y-104850000D02*
X118199550Y-104850000D01*
G75*
G02*
X117950000Y-104600450I0J249550D01*
G01*
X117950000Y-103949550D01*
G75*
G02*
X118199550Y-103700000I249550J0D01*
G01*
X119100450Y-103700000D01*
G75*
G02*
X119350000Y-103949550I0J-249550D01*
G01*
X119350000Y-104600450D01*
G75*
G02*
X119100450Y-104850000I-249550J0D01*
G01*
G37*
%TD.AperFunction*%
%TO.P,Reg1,~*%
%TO.N,N/C*%
%TA.AperFunction,SMDPad,CuDef*%
G36*
G01*
X119050000Y-106512500D02*
X119050000Y-106987500D01*
G75*
G02*
X118812500Y-107225000I-237500J0D01*
G01*
X118212500Y-107225000D01*
G75*
G02*
X117975000Y-106987500I0J237500D01*
G01*
X117975000Y-106512500D01*
G75*
G02*
X118212500Y-106275000I237500J0D01*
G01*
X118812500Y-106275000D01*
G75*
G02*
X119050000Y-106512500I0J-237500D01*
G01*
G37*
%TD.AperFunction*%
%TA.AperFunction,SMDPad,CuDef*%
G36*
G01*
X117325000Y-106512500D02*
X117325000Y-106987500D01*
G75*
G02*
X117087500Y-107225000I-237500J0D01*
G01*
X116487500Y-107225000D01*
G75*
G02*
X116250000Y-106987500I0J237500D01*
G01*
X116250000Y-106512500D01*
G75*
G02*
X116487500Y-106275000I237500J0D01*
G01*
X117087500Y-106275000D01*
G75*
G02*
X117325000Y-106512500I0J-237500D01*
G01*
G37*
%TD.AperFunction*%
D18*
%TO.P,Reg1,1*%
%TO.N,VBUS*%
X115000000Y-108450000D03*
%TO.P,Reg1,2*%
X115000000Y-107500000D03*
%TO.P,Reg1,~*%
%TO.N,N/C*%
X115000000Y-106550000D03*
X112300000Y-106550000D03*
X112300000Y-108450000D03*
%TO.P,Reg1,3*%
%TO.N,GND*%
X112300000Y-107500000D03*
%TD*%
D19*
%TO.P,U2,21*%
%TO.N,GND*%
X118025000Y-117025000D03*
D20*
%TO.P,U2,~*%
%TO.N,N/C*%
X116025000Y-119025000D03*
X120025000Y-115025000D03*
X120025000Y-119025000D03*
X116025000Y-115025000D03*
D21*
X116025000Y-119025000D03*
%TA.AperFunction,SMDPad,CuDef*%
D15*
%TO.P,U2,21*%
%TO.N,GND*%
G36*
X119025000Y-116025000D02*
G01*
X119025000Y-118025000D01*
X117275000Y-118025000D01*
X117025000Y-117775000D01*
X117025000Y-116025000D01*
X119025000Y-116025000D01*
G37*
%TD.AperFunction*%
%TO.P,U2,20*%
%TO.N,+3V3*%
%TA.AperFunction,SMDPad,CuDef*%
G36*
G01*
X116462500Y-118150000D02*
X115587500Y-118150000D01*
G75*
G02*
X115525000Y-118087500I0J62500D01*
G01*
X115525000Y-117962500D01*
G75*
G02*
X115587500Y-117900000I62500J0D01*
G01*
X116462500Y-117900000D01*
G75*
G02*
X116525000Y-117962500I0J-62500D01*
G01*
X116525000Y-118087500D01*
G75*
G02*
X116462500Y-118150000I-62500J0D01*
G01*
G37*
%TD.AperFunction*%
%TO.P,U2,19*%
%TO.N,EN*%
%TA.AperFunction,SMDPad,CuDef*%
G36*
G01*
X116462500Y-117650000D02*
X115587500Y-117650000D01*
G75*
G02*
X115525000Y-117587500I0J62500D01*
G01*
X115525000Y-117462500D01*
G75*
G02*
X115587500Y-117400000I62500J0D01*
G01*
X116462500Y-117400000D01*
G75*
G02*
X116525000Y-117462500I0J-62500D01*
G01*
X116525000Y-117587500D01*
G75*
G02*
X116462500Y-117650000I-62500J0D01*
G01*
G37*
%TD.AperFunction*%
%TO.P,U2,18*%
%TO.N,GPIO0*%
%TA.AperFunction,SMDPad,CuDef*%
G36*
G01*
X116462500Y-117150000D02*
X115587500Y-117150000D01*
G75*
G02*
X115525000Y-117087500I0J62500D01*
G01*
X115525000Y-116962500D01*
G75*
G02*
X115587500Y-116900000I62500J0D01*
G01*
X116462500Y-116900000D01*
G75*
G02*
X116525000Y-116962500I0J-62500D01*
G01*
X116525000Y-117087500D01*
G75*
G02*
X116462500Y-117150000I-62500J0D01*
G01*
G37*
%TD.AperFunction*%
%TO.P,U2,17*%
%TO.N,I*%
%TA.AperFunction,SMDPad,CuDef*%
G36*
G01*
X116462500Y-116650000D02*
X115587500Y-116650000D01*
G75*
G02*
X115525000Y-116587500I0J62500D01*
G01*
X115525000Y-116462500D01*
G75*
G02*
X115587500Y-116400000I62500J0D01*
G01*
X116462500Y-116400000D01*
G75*
G02*
X116525000Y-116462500I0J-62500D01*
G01*
X116525000Y-116587500D01*
G75*
G02*
X116462500Y-116650000I-62500J0D01*
G01*
G37*
%TD.AperFunction*%
%TO.P,U2,16*%
%TO.N,Net-(U2-Pad16)*%
%TA.AperFunction,SMDPad,CuDef*%
G36*
G01*
X116462500Y-116150000D02*
X115587500Y-116150000D01*
G75*
G02*
X115525000Y-116087500I0J62500D01*
G01*
X115525000Y-115962500D01*
G75*
G02*
X115587500Y-115900000I62500J0D01*
G01*
X116462500Y-115900000D01*
G75*
G02*
X116525000Y-115962500I0J-62500D01*
G01*
X116525000Y-116087500D01*
G75*
G02*
X116462500Y-116150000I-62500J0D01*
G01*
G37*
%TD.AperFunction*%
%TO.P,U2,15*%
%TO.N,Net-(U2-Pad15)*%
%TA.AperFunction,SMDPad,CuDef*%
G36*
G01*
X117087500Y-115525000D02*
X116962500Y-115525000D01*
G75*
G02*
X116900000Y-115462500I0J62500D01*
G01*
X116900000Y-114587500D01*
G75*
G02*
X116962500Y-114525000I62500J0D01*
G01*
X117087500Y-114525000D01*
G75*
G02*
X117150000Y-114587500I0J-62500D01*
G01*
X117150000Y-115462500D01*
G75*
G02*
X117087500Y-115525000I-62500J0D01*
G01*
G37*
%TD.AperFunction*%
%TO.P,U2,14*%
%TO.N,Net-(U2-Pad14)*%
%TA.AperFunction,SMDPad,CuDef*%
G36*
G01*
X117587500Y-115525000D02*
X117462500Y-115525000D01*
G75*
G02*
X117400000Y-115462500I0J62500D01*
G01*
X117400000Y-114587500D01*
G75*
G02*
X117462500Y-114525000I62500J0D01*
G01*
X117587500Y-114525000D01*
G75*
G02*
X117650000Y-114587500I0J-62500D01*
G01*
X117650000Y-115462500D01*
G75*
G02*
X117587500Y-115525000I-62500J0D01*
G01*
G37*
%TD.AperFunction*%
%TO.P,U2,13*%
%TO.N,GND*%
%TA.AperFunction,SMDPad,CuDef*%
G36*
G01*
X118087500Y-115525000D02*
X117962500Y-115525000D01*
G75*
G02*
X117900000Y-115462500I0J62500D01*
G01*
X117900000Y-114587500D01*
G75*
G02*
X117962500Y-114525000I62500J0D01*
G01*
X118087500Y-114525000D01*
G75*
G02*
X118150000Y-114587500I0J-62500D01*
G01*
X118150000Y-115462500D01*
G75*
G02*
X118087500Y-115525000I-62500J0D01*
G01*
G37*
%TD.AperFunction*%
%TO.P,U2,12*%
%TO.N,+3V3*%
%TA.AperFunction,SMDPad,CuDef*%
G36*
G01*
X118587500Y-115525000D02*
X118462500Y-115525000D01*
G75*
G02*
X118400000Y-115462500I0J62500D01*
G01*
X118400000Y-114587500D01*
G75*
G02*
X118462500Y-114525000I62500J0D01*
G01*
X118587500Y-114525000D01*
G75*
G02*
X118650000Y-114587500I0J-62500D01*
G01*
X118650000Y-115462500D01*
G75*
G02*
X118587500Y-115525000I-62500J0D01*
G01*
G37*
%TD.AperFunction*%
%TO.P,U2,11*%
%TA.AperFunction,SMDPad,CuDef*%
G36*
G01*
X119087500Y-115525000D02*
X118962500Y-115525000D01*
G75*
G02*
X118900000Y-115462500I0J62500D01*
G01*
X118900000Y-114587500D01*
G75*
G02*
X118962500Y-114525000I62500J0D01*
G01*
X119087500Y-114525000D01*
G75*
G02*
X119150000Y-114587500I0J-62500D01*
G01*
X119150000Y-115462500D01*
G75*
G02*
X119087500Y-115525000I-62500J0D01*
G01*
G37*
%TD.AperFunction*%
%TO.P,U2,10*%
%TA.AperFunction,SMDPad,CuDef*%
G36*
G01*
X120462500Y-116150000D02*
X119587500Y-116150000D01*
G75*
G02*
X119525000Y-116087500I0J62500D01*
G01*
X119525000Y-115962500D01*
G75*
G02*
X119587500Y-115900000I62500J0D01*
G01*
X120462500Y-115900000D01*
G75*
G02*
X120525000Y-115962500I0J-62500D01*
G01*
X120525000Y-116087500D01*
G75*
G02*
X120462500Y-116150000I-62500J0D01*
G01*
G37*
%TD.AperFunction*%
%TO.P,U2,9*%
%TO.N,D-*%
%TA.AperFunction,SMDPad,CuDef*%
G36*
G01*
X120462500Y-116650000D02*
X119587500Y-116650000D01*
G75*
G02*
X119525000Y-116587500I0J62500D01*
G01*
X119525000Y-116462500D01*
G75*
G02*
X119587500Y-116400000I62500J0D01*
G01*
X120462500Y-116400000D01*
G75*
G02*
X120525000Y-116462500I0J-62500D01*
G01*
X120525000Y-116587500D01*
G75*
G02*
X120462500Y-116650000I-62500J0D01*
G01*
G37*
%TD.AperFunction*%
%TO.P,U2,8*%
%TO.N,D+*%
%TA.AperFunction,SMDPad,CuDef*%
G36*
G01*
X120462500Y-117150000D02*
X119587500Y-117150000D01*
G75*
G02*
X119525000Y-117087500I0J62500D01*
G01*
X119525000Y-116962500D01*
G75*
G02*
X119587500Y-116900000I62500J0D01*
G01*
X120462500Y-116900000D01*
G75*
G02*
X120525000Y-116962500I0J-62500D01*
G01*
X120525000Y-117087500D01*
G75*
G02*
X120462500Y-117150000I-62500J0D01*
G01*
G37*
%TD.AperFunction*%
%TO.P,U2,7*%
%TO.N,Net-(U2-Pad7)*%
%TA.AperFunction,SMDPad,CuDef*%
G36*
G01*
X120462500Y-117650000D02*
X119587500Y-117650000D01*
G75*
G02*
X119525000Y-117587500I0J62500D01*
G01*
X119525000Y-117462500D01*
G75*
G02*
X119587500Y-117400000I62500J0D01*
G01*
X120462500Y-117400000D01*
G75*
G02*
X120525000Y-117462500I0J-62500D01*
G01*
X120525000Y-117587500D01*
G75*
G02*
X120462500Y-117650000I-62500J0D01*
G01*
G37*
%TD.AperFunction*%
%TO.P,U2,6*%
%TO.N,GND*%
%TA.AperFunction,SMDPad,CuDef*%
G36*
G01*
X120462500Y-118150000D02*
X119587500Y-118150000D01*
G75*
G02*
X119525000Y-118087500I0J62500D01*
G01*
X119525000Y-117962500D01*
G75*
G02*
X119587500Y-117900000I62500J0D01*
G01*
X120462500Y-117900000D01*
G75*
G02*
X120525000Y-117962500I0J-62500D01*
G01*
X120525000Y-118087500D01*
G75*
G02*
X120462500Y-118150000I-62500J0D01*
G01*
G37*
%TD.AperFunction*%
%TO.P,U2,5*%
%TA.AperFunction,SMDPad,CuDef*%
G36*
G01*
X119087500Y-119525000D02*
X118962500Y-119525000D01*
G75*
G02*
X118900000Y-119462500I0J62500D01*
G01*
X118900000Y-118587500D01*
G75*
G02*
X118962500Y-118525000I62500J0D01*
G01*
X119087500Y-118525000D01*
G75*
G02*
X119150000Y-118587500I0J-62500D01*
G01*
X119150000Y-119462500D01*
G75*
G02*
X119087500Y-119525000I-62500J0D01*
G01*
G37*
%TD.AperFunction*%
%TO.P,U2,4*%
%TA.AperFunction,SMDPad,CuDef*%
G36*
G01*
X118587500Y-119525000D02*
X118462500Y-119525000D01*
G75*
G02*
X118400000Y-119462500I0J62500D01*
G01*
X118400000Y-118587500D01*
G75*
G02*
X118462500Y-118525000I62500J0D01*
G01*
X118587500Y-118525000D01*
G75*
G02*
X118650000Y-118587500I0J-62500D01*
G01*
X118650000Y-119462500D01*
G75*
G02*
X118587500Y-119525000I-62500J0D01*
G01*
G37*
%TD.AperFunction*%
%TO.P,U2,3*%
%TA.AperFunction,SMDPad,CuDef*%
G36*
G01*
X118087500Y-119525000D02*
X117962500Y-119525000D01*
G75*
G02*
X117900000Y-119462500I0J62500D01*
G01*
X117900000Y-118587500D01*
G75*
G02*
X117962500Y-118525000I62500J0D01*
G01*
X118087500Y-118525000D01*
G75*
G02*
X118150000Y-118587500I0J-62500D01*
G01*
X118150000Y-119462500D01*
G75*
G02*
X118087500Y-119525000I-62500J0D01*
G01*
G37*
%TD.AperFunction*%
%TO.P,U2,2*%
%TA.AperFunction,SMDPad,CuDef*%
G36*
G01*
X117587500Y-119525000D02*
X117462500Y-119525000D01*
G75*
G02*
X117400000Y-119462500I0J62500D01*
G01*
X117400000Y-118587500D01*
G75*
G02*
X117462500Y-118525000I62500J0D01*
G01*
X117587500Y-118525000D01*
G75*
G02*
X117650000Y-118587500I0J-62500D01*
G01*
X117650000Y-119462500D01*
G75*
G02*
X117587500Y-119525000I-62500J0D01*
G01*
G37*
%TD.AperFunction*%
%TO.P,U2,1*%
%TO.N,O*%
%TA.AperFunction,SMDPad,CuDef*%
G36*
G01*
X117087500Y-119525000D02*
X116962500Y-119525000D01*
G75*
G02*
X116900000Y-119462500I0J62500D01*
G01*
X116900000Y-118587500D01*
G75*
G02*
X116962500Y-118525000I62500J0D01*
G01*
X117087500Y-118525000D01*
G75*
G02*
X117150000Y-118587500I0J-62500D01*
G01*
X117150000Y-119462500D01*
G75*
G02*
X117087500Y-119525000I-62500J0D01*
G01*
G37*
%TD.AperFunction*%
%TD*%
D14*
%TO.P,J3,2*%
%TO.N,VBUS*%
X126700000Y-125660000D03*
D13*
%TO.P,J3,1*%
%TO.N,GND*%
X126700000Y-128200000D03*
%TD*%
D22*
%TO.P,J2,S1*%
%TO.N,GND*%
X123680000Y-107180000D03*
X123670000Y-115230000D03*
X123660000Y-108310000D03*
X123530000Y-108310000D03*
X123660000Y-114100000D03*
X123510000Y-114100000D03*
D23*
X127020000Y-114810000D03*
%TA.AperFunction,SMDPad,CuDef*%
D15*
G36*
X122412513Y-107876066D02*
G01*
X122766066Y-107522513D01*
X122907487Y-107663934D01*
X122553934Y-108017487D01*
X122412513Y-107876066D01*
G37*
%TD.AperFunction*%
%TA.AperFunction,SMDPad,CuDef*%
G36*
X122613934Y-114402513D02*
G01*
X122967487Y-114756066D01*
X122826066Y-114897487D01*
X122472513Y-114543934D01*
X122613934Y-114402513D01*
G37*
%TD.AperFunction*%
D23*
X127020000Y-107580000D03*
D24*
X126355000Y-111200000D03*
D25*
%TO.P,J2,A12*%
X122240000Y-108000000D03*
%TO.P,J2,A4*%
%TO.N,VBUS*%
X122240000Y-113600000D03*
%TO.P,J2,B12*%
%TO.N,GND*%
X122240000Y-114400000D03*
%TO.P,J2,B4*%
%TO.N,VBUS*%
X122240000Y-108800000D03*
D26*
%TO.P,J2,S1*%
%TO.N,GND*%
X127010000Y-106875000D03*
X127010000Y-115525000D03*
D27*
X122830000Y-106875000D03*
X122830000Y-115525000D03*
D28*
%TO.P,J2,A7*%
%TO.N,D-*%
X122240000Y-110950000D03*
%TO.P,J2,A6*%
%TO.N,D+*%
X122240000Y-111450000D03*
%TO.P,J2,B6*%
X122240000Y-110450000D03*
%TO.P,J2,B7*%
%TO.N,D-*%
X122240000Y-111950000D03*
%TO.P,J2,A8*%
%TO.N,Net-(J2-PadA8)*%
X122240000Y-109950000D03*
%TO.P,J2,A5*%
%TO.N,Net-(J2-PadA5)*%
X122240000Y-112450000D03*
%TO.P,J2,B5*%
%TO.N,Net-(J2-PadB5)*%
X122240000Y-109450000D03*
%TO.P,J2,B8*%
%TO.N,Net-(J2-PadB8)*%
X122240000Y-112950000D03*
D25*
%TO.P,J2,A9*%
%TO.N,VBUS*%
X122240000Y-108800000D03*
%TO.P,J2,B9*%
X122240000Y-113600000D03*
%TO.P,J2,B1*%
%TO.N,GND*%
X122240000Y-108000000D03*
D29*
%TO.P,J2,S1*%
X123310000Y-108310000D03*
X123310000Y-114090000D03*
D25*
%TO.P,J2,A1*%
X122240000Y-114400000D03*
%TD*%
D30*
%TO.N,GND*%
X120300000Y-109700000D03*
X114800000Y-115400000D03*
X117900000Y-108200000D03*
%TO.N,D-*%
X117300000Y-110747992D03*
X115751794Y-112312246D03*
X117299281Y-112198004D03*
%TO.N,+3V3*%
X125270084Y-126374388D03*
X112678843Y-116087612D03*
X114687349Y-118148151D03*
X124512957Y-103175105D03*
X119731760Y-103278208D03*
%TO.N,VBUS*%
X121164245Y-113422822D03*
X114500010Y-109451066D03*
X113897533Y-128324922D03*
%TO.N,IO5*%
X112418313Y-118011366D03*
%TO.N,IO4*%
X125100000Y-117304974D03*
%TO.N,O*%
X123014809Y-117544392D03*
%TO.N,I*%
X112549968Y-114962407D03*
%TO.N,EN*%
X126189798Y-116755063D03*
%TO.N,Net-(J2-PadA5)*%
X119400000Y-112895002D03*
X125100000Y-104000000D03*
%TO.N,GPIO0*%
X113585791Y-116920525D03*
%TO.N,Net-(D1-Pad1)*%
X125500000Y-106100000D03*
%TD*%
D31*
%TO.N,D+*%
X120250000Y-111450000D02*
X122240000Y-111450000D01*
X122240000Y-110450000D02*
X118100401Y-110450000D01*
X116574999Y-110361458D02*
X116574999Y-111248001D01*
X116936457Y-110000000D02*
X116574999Y-110361458D01*
X117650401Y-110000000D02*
X116936457Y-110000000D01*
X116574999Y-111248001D02*
X116800000Y-111473002D01*
X118100401Y-110450000D02*
X117650401Y-110000000D01*
X120226998Y-111473002D02*
X120250000Y-111450000D01*
X118026998Y-111473002D02*
X120226998Y-111473002D01*
X116800000Y-111473002D02*
X118026998Y-111473002D01*
X117200960Y-113125002D02*
X118470845Y-113125002D01*
X118470845Y-113125002D02*
X118965856Y-113620013D01*
X118965856Y-113620013D02*
X120256424Y-113620013D01*
X121325021Y-114688610D02*
X121325021Y-116434412D01*
X118026998Y-111473002D02*
X116968038Y-111473002D01*
X116476796Y-112400838D02*
X117200960Y-113125002D01*
X116968038Y-111473002D02*
X116476796Y-111964244D01*
X116476796Y-111964244D02*
X116476796Y-112400838D01*
X120256424Y-113620013D02*
X121325021Y-114688610D01*
X121325021Y-116434412D02*
X120734433Y-117025000D01*
X120734433Y-117025000D02*
X120050000Y-117025000D01*
%TO.N,GND*%
X122830000Y-115525000D02*
X126355000Y-112000000D01*
X122830000Y-106875000D02*
X126355000Y-110400000D01*
X127010000Y-115525000D02*
X127010000Y-111855000D01*
X118025000Y-115000000D02*
X118025000Y-117025000D01*
X117525000Y-117525000D02*
X118025000Y-117025000D01*
X117525000Y-119050000D02*
X117525000Y-117525000D01*
X118025000Y-119050000D02*
X118025000Y-117025000D01*
X118525000Y-117525000D02*
X118025000Y-117025000D01*
X118525000Y-119050000D02*
X118525000Y-117525000D01*
X119025000Y-119050000D02*
X119025000Y-118025000D01*
D32*
X120300000Y-109700000D02*
X120300000Y-104900000D01*
D31*
X127162500Y-106722500D02*
X127010000Y-106875000D01*
D32*
X118650000Y-102225000D02*
X119875000Y-102225000D01*
X113650000Y-110887500D02*
X113900000Y-111137500D01*
X113650000Y-107500000D02*
X113650000Y-110887500D01*
D31*
X119025000Y-118025000D02*
X118025000Y-117025000D01*
X120050000Y-118025000D02*
X119025000Y-118025000D01*
X121900000Y-118000000D02*
X121900000Y-117800000D01*
D32*
X127010000Y-115525000D02*
X128100000Y-116615000D01*
X128100000Y-116615000D02*
X128100000Y-117500000D01*
X127700000Y-117900000D02*
X127700000Y-120200000D01*
X128100000Y-117500000D02*
X127700000Y-117900000D01*
D31*
X120050000Y-118000000D02*
X121900000Y-118000000D01*
X121900000Y-116455000D02*
X122830000Y-115525000D01*
X121900000Y-118000000D02*
X121900000Y-116455000D01*
X125745000Y-122900000D02*
X125745000Y-124345000D01*
X125745000Y-124463190D02*
X124400000Y-125808190D01*
X125745000Y-124345000D02*
X125745000Y-124463190D01*
X124400000Y-125808190D02*
X124400000Y-125900000D01*
X121900000Y-125768190D02*
X121900000Y-124000000D01*
D32*
X127600000Y-120200000D02*
X127600000Y-122700000D01*
X127400000Y-122900000D02*
X125745000Y-122900000D01*
X127600000Y-122700000D02*
X127400000Y-122900000D01*
X118725000Y-108200000D02*
X117800000Y-108200000D01*
D31*
%TO.N,D-*%
X122240000Y-110950000D02*
X117502008Y-110950000D01*
X117502008Y-110950000D02*
X117300000Y-110747992D01*
X117547285Y-111950000D02*
X117299281Y-112198004D01*
X122240000Y-111950000D02*
X117547285Y-111950000D01*
X117014561Y-113575013D02*
X115751794Y-112312246D01*
X118284445Y-113575013D02*
X117014561Y-113575013D01*
X120875010Y-114875010D02*
X120070024Y-114070024D01*
X120875010Y-116248012D02*
X120875010Y-114875010D01*
X118779456Y-114070024D02*
X118284445Y-113575013D01*
X120050000Y-116525000D02*
X120598022Y-116525000D01*
X120070024Y-114070024D02*
X118779456Y-114070024D01*
X120598022Y-116525000D02*
X120875010Y-116248012D01*
%TO.N,+3V3*%
X123170000Y-128300000D02*
X120670000Y-128300000D01*
X120670000Y-128300000D02*
X118170000Y-128300000D01*
X118170000Y-128300000D02*
X115670000Y-128300000D01*
X123170000Y-128300000D02*
X123344472Y-128300000D01*
X123344472Y-128300000D02*
X125270084Y-126374388D01*
X114064769Y-112697731D02*
X113900000Y-112862500D01*
X115000023Y-112697731D02*
X114064769Y-112697731D01*
X115339539Y-113037247D02*
X115000023Y-112697731D01*
X116978128Y-114174990D02*
X115840385Y-113037247D01*
X118248012Y-114174990D02*
X116978128Y-114174990D01*
X118525000Y-114451978D02*
X118248012Y-114174990D01*
X118525000Y-115000000D02*
X118525000Y-114451978D01*
X119025000Y-115000000D02*
X118525000Y-115000000D01*
X115840385Y-113037247D02*
X115339539Y-113037247D01*
X120050000Y-116025000D02*
X119025000Y-115000000D01*
X116025000Y-118025000D02*
X114810500Y-118025000D01*
X114810500Y-118025000D02*
X114687349Y-118148151D01*
X113900000Y-112862500D02*
X113900000Y-114149980D01*
X112113158Y-116087612D02*
X112678843Y-116087612D01*
X113874990Y-114174990D02*
X112276160Y-114174990D01*
X113900000Y-114149980D02*
X113874990Y-114174990D01*
X111798179Y-114652971D02*
X111798179Y-115772633D01*
X112276160Y-114174990D02*
X111798179Y-114652971D01*
X111798179Y-115772633D02*
X112113158Y-116087612D01*
X124475000Y-103137148D02*
X124512957Y-103175105D01*
X124475000Y-102100000D02*
X124475000Y-103137148D01*
X118650000Y-104275000D02*
X118734968Y-104275000D01*
X118734968Y-104275000D02*
X119731760Y-103278208D01*
X119724990Y-105074990D02*
X118925000Y-104275000D01*
X116600024Y-109700024D02*
X116600024Y-109699976D01*
X119724990Y-108824990D02*
X119724990Y-105074990D01*
X115000023Y-111899977D02*
X115400000Y-111500000D01*
X117074990Y-109225010D02*
X119324970Y-109225010D01*
X116600024Y-109699976D02*
X117074990Y-109225010D01*
X116050024Y-110250024D02*
X116600024Y-109700024D01*
X118925000Y-104275000D02*
X118650000Y-104275000D01*
X119324970Y-109225010D02*
X119724990Y-108824990D01*
X116050024Y-111349976D02*
X116050024Y-110250024D01*
X115900000Y-111500000D02*
X116050024Y-111349976D01*
X115400000Y-111500000D02*
X115900000Y-111500000D01*
X115000023Y-112697731D02*
X115000023Y-111899977D01*
%TO.N,VBUS*%
X122895002Y-113600000D02*
X122240000Y-113600000D01*
X123135001Y-113360001D02*
X122895002Y-113600000D01*
X123135001Y-109039999D02*
X123135001Y-113360001D01*
X122895002Y-108800000D02*
X123135001Y-109039999D01*
X122240000Y-108800000D02*
X122895002Y-108800000D01*
X122240000Y-113600000D02*
X121350000Y-113600000D01*
X121341423Y-113600000D02*
X121164245Y-113422822D01*
X122240000Y-113600000D02*
X121341423Y-113600000D01*
X115000000Y-108450000D02*
X115000000Y-107500000D01*
X115000000Y-108951076D02*
X114500010Y-109451066D01*
X115000000Y-108450000D02*
X115000000Y-108951076D01*
X113872611Y-128300000D02*
X113897533Y-128324922D01*
X112400000Y-128300000D02*
X113872611Y-128300000D01*
%TO.N,IO5*%
X110950000Y-119479679D02*
X110950000Y-120200000D01*
X112418313Y-118011366D02*
X110950000Y-119479679D01*
%TO.N,IO4*%
X115400000Y-123170000D02*
X115670000Y-122900000D01*
X115585000Y-125115000D02*
X115670000Y-125200000D01*
X115585000Y-122900000D02*
X115585000Y-125115000D01*
X122300691Y-119899308D02*
X123600344Y-118599655D01*
X122100692Y-119899308D02*
X122300691Y-119899308D01*
X123805319Y-118599655D02*
X125100000Y-117304974D01*
X121442514Y-119899310D02*
X122100690Y-119899310D01*
X122100690Y-119899310D02*
X122100692Y-119899308D01*
X116629088Y-121070912D02*
X120270912Y-121070912D01*
X123600344Y-118599655D02*
X123805319Y-118599655D01*
X120270912Y-121070912D02*
X121442514Y-119899310D01*
X115585000Y-122115000D02*
X116629088Y-121070912D01*
X115585000Y-122900000D02*
X115585000Y-122115000D01*
%TO.N,IO3*%
X118125000Y-125155000D02*
X118170000Y-125200000D01*
X118125000Y-122900000D02*
X118125000Y-125155000D01*
%TO.N,IO2*%
X120665000Y-125195000D02*
X120670000Y-125200000D01*
X120665000Y-122900000D02*
X120665000Y-125195000D01*
%TO.N,IO1*%
X124575000Y-120200000D02*
X124575000Y-121495000D01*
X123205000Y-125165000D02*
X123170000Y-125200000D01*
X123205000Y-122900000D02*
X123205000Y-125165000D01*
X124575000Y-121530000D02*
X124575000Y-121495000D01*
X123205000Y-122900000D02*
X124575000Y-121530000D01*
%TO.N,O*%
X117025000Y-119573022D02*
X117601989Y-120150011D01*
X117601989Y-120150011D02*
X119918993Y-120150011D01*
X117025000Y-119025000D02*
X117025000Y-119573022D01*
X121069714Y-118999288D02*
X121559913Y-118999288D01*
X119918993Y-120150011D02*
X121069714Y-118999288D01*
X121559913Y-118999288D02*
X123014809Y-117544392D01*
%TO.N,I*%
X116000000Y-116525000D02*
X115570826Y-116525000D01*
X115570826Y-116525000D02*
X115520802Y-116474976D01*
X115520802Y-116474976D02*
X114628222Y-116474976D01*
X114628222Y-116474976D02*
X113115653Y-114962407D01*
X113115653Y-114962407D02*
X112549968Y-114962407D01*
%TO.N,EN*%
X125789799Y-116355064D02*
X126189798Y-116755063D01*
X121256114Y-119449299D02*
X122114290Y-119449299D01*
X123413945Y-118149644D02*
X123613945Y-118149644D01*
X116025000Y-117525000D02*
X115298004Y-117525000D01*
X115298004Y-117525000D02*
X115196144Y-117423141D01*
X115196144Y-117423141D02*
X114303855Y-117423141D01*
X120105392Y-120600022D02*
X121256114Y-119449299D01*
X114303855Y-117423141D02*
X113962339Y-117764659D01*
X113962339Y-118535343D02*
X114351998Y-118925002D01*
X113962339Y-117764659D02*
X113962339Y-118535343D01*
X123613945Y-118149644D02*
X124274999Y-117488590D01*
X114351998Y-118925002D02*
X114731394Y-118925002D01*
X116406414Y-120600022D02*
X120105392Y-120600022D01*
X122114290Y-119449299D02*
X123413945Y-118149644D01*
X114731394Y-118925002D02*
X116406414Y-120600022D01*
X124274999Y-117488590D02*
X124274999Y-116851999D01*
X124771934Y-116355064D02*
X125789799Y-116355064D01*
X124274999Y-116851999D02*
X124771934Y-116355064D01*
%TO.N,Net-(J2-PadA5)*%
X122240000Y-112450000D02*
X119845002Y-112450000D01*
X119845002Y-112450000D02*
X119400000Y-112895002D01*
X124775000Y-105000000D02*
X124775000Y-104744493D01*
X124775000Y-104325000D02*
X125100000Y-104000000D01*
X124775000Y-105000000D02*
X124775000Y-104325000D01*
%TO.N,Net-(J2-PadB5)*%
X120975010Y-105799990D02*
X121775000Y-105000000D01*
X120975010Y-109005010D02*
X120975010Y-105799990D01*
X121420000Y-109450000D02*
X120975010Y-109005010D01*
X122240000Y-109450000D02*
X121420000Y-109450000D01*
%TO.N,Net-(J1-Pad6)*%
X114050000Y-121895000D02*
X114050000Y-121600000D01*
X114050000Y-120200000D02*
X114050000Y-121600000D01*
X114050000Y-121895000D02*
X113045000Y-122900000D01*
X113045000Y-124555000D02*
X112400000Y-125200000D01*
X113045000Y-122900000D02*
X113045000Y-124555000D01*
%TO.N,GPIO0*%
X115434414Y-117025000D02*
X115382544Y-116973130D01*
X116025000Y-117025000D02*
X115434414Y-117025000D01*
X113638393Y-116973130D02*
X113926870Y-116973130D01*
X113638396Y-116973130D02*
X115073130Y-116973130D01*
X113585791Y-116920525D02*
X113638396Y-116973130D01*
X115073130Y-116973130D02*
X113638398Y-116973130D01*
X115382544Y-116973130D02*
X115073130Y-116973130D01*
%TO.N,Net-(D1-Pad2)*%
X127712500Y-102100000D02*
X127800000Y-102012500D01*
X126125000Y-102100000D02*
X127712500Y-102100000D01*
%TO.N,Net-(D1-Pad1)*%
X126620022Y-103587500D02*
X127800000Y-103587500D01*
X125500000Y-104707522D02*
X126620022Y-103587500D01*
X125500000Y-106100000D02*
X125500000Y-104707522D01*
%TD*%
D33*
%TO.N,GND*%
X111309537Y-109089981D02*
X111375030Y-109124988D01*
X111446095Y-109146545D01*
X111520000Y-109153824D01*
X112889430Y-109153824D01*
X112948815Y-109226185D01*
X113045506Y-109305537D01*
X113155820Y-109364502D01*
X113275518Y-109400812D01*
X113400000Y-109413072D01*
X113723010Y-109413072D01*
X113723010Y-109527594D01*
X113752869Y-109677709D01*
X113811441Y-109819114D01*
X113896474Y-109946375D01*
X114004701Y-110054602D01*
X114059519Y-110091231D01*
X114027000Y-110123750D01*
X114027000Y-111010500D01*
X114851250Y-111010500D01*
X115010000Y-110851750D01*
X115013072Y-110600000D01*
X115000812Y-110475518D01*
X114964502Y-110355820D01*
X114905537Y-110245506D01*
X114831185Y-110154908D01*
X114868058Y-110139635D01*
X114995319Y-110054602D01*
X115103546Y-109946375D01*
X115188579Y-109819114D01*
X115247151Y-109677709D01*
X115277010Y-109527594D01*
X115277010Y-109384002D01*
X115337543Y-109323469D01*
X115356684Y-109307760D01*
X115372392Y-109288620D01*
X115372400Y-109288612D01*
X115419417Y-109231322D01*
X115460840Y-109153824D01*
X115780000Y-109153824D01*
X115853905Y-109146545D01*
X115924970Y-109124988D01*
X115935303Y-109119465D01*
X116000444Y-109172924D01*
X116109082Y-109230992D01*
X116226960Y-109266750D01*
X116314677Y-109275389D01*
X116262491Y-109327575D01*
X116243340Y-109343292D01*
X116227407Y-109362706D01*
X115712487Y-109877627D01*
X115693341Y-109893340D01*
X115677628Y-109912486D01*
X115677625Y-109912489D01*
X115630608Y-109969779D01*
X115583994Y-110056988D01*
X115555289Y-110151615D01*
X115545597Y-110250024D01*
X115548025Y-110274677D01*
X115548024Y-110998000D01*
X115424643Y-110998000D01*
X115400000Y-110995573D01*
X115375357Y-110998000D01*
X115375347Y-110998000D01*
X115301591Y-111005264D01*
X115206964Y-111033969D01*
X115119755Y-111080583D01*
X115119753Y-111080584D01*
X115119754Y-111080584D01*
X115076213Y-111116318D01*
X115043316Y-111143316D01*
X115027603Y-111162462D01*
X114888408Y-111301658D01*
X114851250Y-111264500D01*
X114027000Y-111264500D01*
X114027000Y-111284500D01*
X113773000Y-111284500D01*
X113773000Y-111264500D01*
X112948750Y-111264500D01*
X112790000Y-111423250D01*
X112786928Y-111675000D01*
X112799188Y-111799482D01*
X112835498Y-111919180D01*
X112894463Y-112029494D01*
X112973815Y-112126185D01*
X113070506Y-112205537D01*
X113138420Y-112241838D01*
X113093091Y-112326643D01*
X113058018Y-112442261D01*
X113046176Y-112562500D01*
X113046176Y-113162500D01*
X113058018Y-113282739D01*
X113093091Y-113398357D01*
X113150045Y-113504911D01*
X113226693Y-113598307D01*
X113317695Y-113672990D01*
X112300802Y-113672990D01*
X112276159Y-113670563D01*
X112251516Y-113672990D01*
X112251507Y-113672990D01*
X112177751Y-113680254D01*
X112083124Y-113708959D01*
X111995915Y-113755573D01*
X111995913Y-113755574D01*
X111995914Y-113755574D01*
X111954236Y-113789779D01*
X111919476Y-113818306D01*
X111903763Y-113837452D01*
X111460646Y-114280570D01*
X111441495Y-114296287D01*
X111378762Y-114372726D01*
X111332148Y-114459936D01*
X111303443Y-114554563D01*
X111296179Y-114628319D01*
X111296179Y-114628328D01*
X111293752Y-114652971D01*
X111296179Y-114677614D01*
X111296180Y-115747980D01*
X111293752Y-115772633D01*
X111303444Y-115871042D01*
X111332149Y-115965669D01*
X111378763Y-116052878D01*
X111425780Y-116110168D01*
X111425783Y-116110171D01*
X111441496Y-116129317D01*
X111460642Y-116145030D01*
X111740756Y-116425144D01*
X111756474Y-116444296D01*
X111789171Y-116471130D01*
X111832912Y-116507029D01*
X111920121Y-116553643D01*
X112014748Y-116582348D01*
X112020567Y-116582921D01*
X112081287Y-116588901D01*
X112183534Y-116691148D01*
X112310795Y-116776181D01*
X112452200Y-116834753D01*
X112602315Y-116864612D01*
X112755371Y-116864612D01*
X112808791Y-116853986D01*
X112808791Y-116997053D01*
X112838650Y-117147168D01*
X112897222Y-117288573D01*
X112982255Y-117415834D01*
X113090482Y-117524061D01*
X113217743Y-117609094D01*
X113359148Y-117667666D01*
X113465383Y-117688797D01*
X113460339Y-117740007D01*
X113460339Y-117740015D01*
X113457912Y-117764660D01*
X113460339Y-117789303D01*
X113460340Y-118510691D01*
X113457912Y-118535343D01*
X113467604Y-118633752D01*
X113496309Y-118728379D01*
X113542923Y-118815588D01*
X113589940Y-118872878D01*
X113589943Y-118872881D01*
X113605656Y-118892027D01*
X113624802Y-118907740D01*
X113663238Y-118946176D01*
X113649750Y-118946176D01*
X113527121Y-118958254D01*
X113409205Y-118994023D01*
X113300533Y-119052110D01*
X113216376Y-119121176D01*
X113150100Y-119121176D01*
X113027403Y-119133261D01*
X112909421Y-119169050D01*
X112800689Y-119227169D01*
X112705384Y-119305384D01*
X112627169Y-119400689D01*
X112569050Y-119509421D01*
X112533261Y-119627403D01*
X112521176Y-119750100D01*
X112521176Y-120649900D01*
X112533261Y-120772597D01*
X112569050Y-120890579D01*
X112627169Y-120999311D01*
X112705384Y-121094616D01*
X112800689Y-121172831D01*
X112909421Y-121230950D01*
X113027403Y-121266739D01*
X113150100Y-121278824D01*
X113216376Y-121278824D01*
X113300533Y-121347890D01*
X113409205Y-121405977D01*
X113527121Y-121441746D01*
X113548001Y-121443803D01*
X113548001Y-121575337D01*
X113548000Y-121575347D01*
X113548000Y-121687064D01*
X113482105Y-121752960D01*
X113402903Y-121720153D01*
X113165849Y-121673000D01*
X112924151Y-121673000D01*
X112687097Y-121720153D01*
X112463798Y-121812647D01*
X112262833Y-121946927D01*
X112091927Y-122117833D01*
X111957647Y-122318798D01*
X111865153Y-122542097D01*
X111818000Y-122779151D01*
X111818000Y-123020849D01*
X111865153Y-123257903D01*
X111957647Y-123481202D01*
X112091927Y-123682167D01*
X112262833Y-123853073D01*
X112463798Y-123987353D01*
X112543001Y-124020160D01*
X112543001Y-124346176D01*
X111774750Y-124346176D01*
X111652121Y-124358254D01*
X111534205Y-124394023D01*
X111425533Y-124452110D01*
X111330281Y-124530281D01*
X111252110Y-124625533D01*
X111194023Y-124734205D01*
X111158254Y-124852121D01*
X111146176Y-124974750D01*
X111146176Y-125600250D01*
X111158254Y-125722879D01*
X111194023Y-125840795D01*
X111252110Y-125949467D01*
X111321176Y-126033624D01*
X111321176Y-126099900D01*
X111333261Y-126222597D01*
X111369050Y-126340579D01*
X111427169Y-126449311D01*
X111505384Y-126544616D01*
X111600689Y-126622831D01*
X111709421Y-126680950D01*
X111827403Y-126716739D01*
X111950100Y-126728824D01*
X112849900Y-126728824D01*
X112972597Y-126716739D01*
X113090579Y-126680950D01*
X113199311Y-126622831D01*
X113294616Y-126544616D01*
X113372831Y-126449311D01*
X113430950Y-126340579D01*
X113466739Y-126222597D01*
X113478824Y-126099900D01*
X113478824Y-126033624D01*
X113547890Y-125949467D01*
X113605977Y-125840795D01*
X113641746Y-125722879D01*
X113653824Y-125600250D01*
X113653824Y-124974750D01*
X113641746Y-124852121D01*
X113605977Y-124734205D01*
X113547890Y-124625533D01*
X113543061Y-124619649D01*
X113547000Y-124579653D01*
X113547000Y-124579643D01*
X113549427Y-124555000D01*
X113547000Y-124530357D01*
X113547000Y-124020160D01*
X113626202Y-123987353D01*
X113827167Y-123853073D01*
X113998073Y-123682167D01*
X114132353Y-123481202D01*
X114224847Y-123257903D01*
X114272000Y-123020849D01*
X114272000Y-122779151D01*
X114224847Y-122542097D01*
X114192040Y-122462895D01*
X114387543Y-122267393D01*
X114406684Y-122251684D01*
X114422392Y-122232544D01*
X114422400Y-122232536D01*
X114469417Y-122175246D01*
X114516031Y-122088037D01*
X114544736Y-121993410D01*
X114548353Y-121956684D01*
X114552000Y-121919653D01*
X114552000Y-121919646D01*
X114554427Y-121895000D01*
X114552000Y-121870355D01*
X114552000Y-121386625D01*
X114624467Y-121347890D01*
X114719719Y-121269719D01*
X114797890Y-121174467D01*
X114855977Y-121065795D01*
X114891746Y-120947879D01*
X114903824Y-120825250D01*
X114903824Y-119807366D01*
X116034017Y-120937560D01*
X116042351Y-120947714D01*
X115280544Y-121709522D01*
X115227097Y-121720153D01*
X115003798Y-121812647D01*
X114802833Y-121946927D01*
X114631927Y-122117833D01*
X114497647Y-122318798D01*
X114405153Y-122542097D01*
X114358000Y-122779151D01*
X114358000Y-123020849D01*
X114405153Y-123257903D01*
X114497647Y-123481202D01*
X114631927Y-123682167D01*
X114802833Y-123853073D01*
X115003798Y-123987353D01*
X115083001Y-124020160D01*
X115083001Y-124346176D01*
X115044750Y-124346176D01*
X114922121Y-124358254D01*
X114804205Y-124394023D01*
X114695533Y-124452110D01*
X114600281Y-124530281D01*
X114522110Y-124625533D01*
X114464023Y-124734205D01*
X114428254Y-124852121D01*
X114416176Y-124974750D01*
X114416176Y-125600250D01*
X114428254Y-125722879D01*
X114464023Y-125840795D01*
X114522110Y-125949467D01*
X114591176Y-126033624D01*
X114591176Y-126099900D01*
X114603261Y-126222597D01*
X114639050Y-126340579D01*
X114697169Y-126449311D01*
X114775384Y-126544616D01*
X114870689Y-126622831D01*
X114979421Y-126680950D01*
X115097403Y-126716739D01*
X115220100Y-126728824D01*
X116119900Y-126728824D01*
X116242597Y-126716739D01*
X116360579Y-126680950D01*
X116469311Y-126622831D01*
X116564616Y-126544616D01*
X116642831Y-126449311D01*
X116700950Y-126340579D01*
X116736739Y-126222597D01*
X116748824Y-126099900D01*
X116748824Y-126033624D01*
X116817890Y-125949467D01*
X116875977Y-125840795D01*
X116911746Y-125722879D01*
X116920000Y-125639075D01*
X116928254Y-125722879D01*
X116964023Y-125840795D01*
X117022110Y-125949467D01*
X117091176Y-126033624D01*
X117091176Y-126099900D01*
X117103261Y-126222597D01*
X117139050Y-126340579D01*
X117197169Y-126449311D01*
X117275384Y-126544616D01*
X117370689Y-126622831D01*
X117479421Y-126680950D01*
X117597403Y-126716739D01*
X117720100Y-126728824D01*
X118619900Y-126728824D01*
X118742597Y-126716739D01*
X118860579Y-126680950D01*
X118969311Y-126622831D01*
X119064616Y-126544616D01*
X119142831Y-126449311D01*
X119200950Y-126340579D01*
X119236739Y-126222597D01*
X119248824Y-126099900D01*
X119248824Y-126033624D01*
X119317890Y-125949467D01*
X119375977Y-125840795D01*
X119411746Y-125722879D01*
X119420000Y-125639075D01*
X119428254Y-125722879D01*
X119464023Y-125840795D01*
X119522110Y-125949467D01*
X119591176Y-126033624D01*
X119591176Y-126099900D01*
X119603261Y-126222597D01*
X119639050Y-126340579D01*
X119697169Y-126449311D01*
X119775384Y-126544616D01*
X119870689Y-126622831D01*
X119979421Y-126680950D01*
X120097403Y-126716739D01*
X120220100Y-126728824D01*
X121119900Y-126728824D01*
X121242597Y-126716739D01*
X121360579Y-126680950D01*
X121469311Y-126622831D01*
X121564616Y-126544616D01*
X121642831Y-126449311D01*
X121700950Y-126340579D01*
X121736739Y-126222597D01*
X121748824Y-126099900D01*
X121748824Y-126033624D01*
X121817890Y-125949467D01*
X121875977Y-125840795D01*
X121911746Y-125722879D01*
X121920000Y-125639075D01*
X121928254Y-125722879D01*
X121964023Y-125840795D01*
X122022110Y-125949467D01*
X122091176Y-126033624D01*
X122091176Y-126099900D01*
X122103261Y-126222597D01*
X122139050Y-126340579D01*
X122197169Y-126449311D01*
X122275384Y-126544616D01*
X122370689Y-126622831D01*
X122479421Y-126680950D01*
X122597403Y-126716739D01*
X122720100Y-126728824D01*
X123619900Y-126728824D01*
X123742597Y-126716739D01*
X123860579Y-126680950D01*
X123969311Y-126622831D01*
X124064616Y-126544616D01*
X124142831Y-126449311D01*
X124200950Y-126340579D01*
X124236739Y-126222597D01*
X124248824Y-126099900D01*
X124248824Y-126033624D01*
X124317890Y-125949467D01*
X124375977Y-125840795D01*
X124411746Y-125722879D01*
X124423824Y-125600250D01*
X124423824Y-124974750D01*
X124411746Y-124852121D01*
X124375977Y-124734205D01*
X124317890Y-124625533D01*
X124239719Y-124530281D01*
X124144467Y-124452110D01*
X124035795Y-124394023D01*
X123917879Y-124358254D01*
X123795250Y-124346176D01*
X123707000Y-124346176D01*
X123707000Y-124020160D01*
X123786202Y-123987353D01*
X123987167Y-123853073D01*
X124158073Y-123682167D01*
X124258112Y-123532447D01*
X124256928Y-123750000D01*
X124269188Y-123874482D01*
X124305498Y-123994180D01*
X124364463Y-124104494D01*
X124443815Y-124201185D01*
X124540506Y-124280537D01*
X124650820Y-124339502D01*
X124770518Y-124375812D01*
X124895000Y-124388072D01*
X125459250Y-124385000D01*
X125618000Y-124226250D01*
X125618000Y-123027000D01*
X125872000Y-123027000D01*
X125872000Y-124226250D01*
X126030750Y-124385000D01*
X126595000Y-124388072D01*
X126719482Y-124375812D01*
X126839180Y-124339502D01*
X126949494Y-124280537D01*
X127046185Y-124201185D01*
X127125537Y-124104494D01*
X127184502Y-123994180D01*
X127220812Y-123874482D01*
X127233072Y-123750000D01*
X127230000Y-123185750D01*
X127071250Y-123027000D01*
X125872000Y-123027000D01*
X125618000Y-123027000D01*
X125598000Y-123027000D01*
X125598000Y-122773000D01*
X125618000Y-122773000D01*
X125618000Y-121573750D01*
X125459250Y-121415000D01*
X125203146Y-121413606D01*
X125228295Y-121405977D01*
X125336967Y-121347890D01*
X125421124Y-121278824D01*
X125487400Y-121278824D01*
X125610097Y-121266739D01*
X125728079Y-121230950D01*
X125836811Y-121172831D01*
X125932116Y-121094616D01*
X125932734Y-121093863D01*
X125947998Y-121144180D01*
X126006963Y-121254494D01*
X126086315Y-121351185D01*
X126163195Y-121414279D01*
X126030750Y-121415000D01*
X125872000Y-121573750D01*
X125872000Y-122773000D01*
X127071250Y-122773000D01*
X127230000Y-122614250D01*
X127233072Y-122050000D01*
X127220812Y-121925518D01*
X127184502Y-121805820D01*
X127134352Y-121711997D01*
X127314250Y-121710000D01*
X127473000Y-121551250D01*
X127473000Y-121536859D01*
X127562500Y-121538072D01*
X127686982Y-121525812D01*
X127727000Y-121513673D01*
X127727000Y-121551250D01*
X127885750Y-121710000D01*
X128162500Y-121713072D01*
X128286982Y-121700812D01*
X128406680Y-121664502D01*
X128473000Y-121629053D01*
X128473000Y-128979117D01*
X128460078Y-129110899D01*
X128427873Y-129217570D01*
X128375558Y-129315961D01*
X128305130Y-129402313D01*
X128219270Y-129473343D01*
X128121255Y-129526339D01*
X128014807Y-129559290D01*
X127917983Y-129569467D01*
X128001185Y-129501185D01*
X128080537Y-129404494D01*
X128139502Y-129294180D01*
X128175812Y-129174482D01*
X128188072Y-129050000D01*
X128185000Y-128485750D01*
X128026250Y-128327000D01*
X126827000Y-128327000D01*
X126827000Y-128347000D01*
X126573000Y-128347000D01*
X126573000Y-128327000D01*
X125373750Y-128327000D01*
X125215000Y-128485750D01*
X125211928Y-129050000D01*
X125224188Y-129174482D01*
X125260498Y-129294180D01*
X125319463Y-129404494D01*
X125398815Y-129501185D01*
X125486322Y-129573000D01*
X110920883Y-129573000D01*
X110789101Y-129560078D01*
X110682430Y-129527873D01*
X110584039Y-129475558D01*
X110497687Y-129405130D01*
X110426657Y-129319270D01*
X110373661Y-129221255D01*
X110340710Y-129114807D01*
X110327000Y-128984371D01*
X110327000Y-127899750D01*
X111146176Y-127899750D01*
X111146176Y-128525250D01*
X111158254Y-128647879D01*
X111194023Y-128765795D01*
X111252110Y-128874467D01*
X111330281Y-128969719D01*
X111425533Y-129047890D01*
X111534205Y-129105977D01*
X111652121Y-129141746D01*
X111774750Y-129153824D01*
X113025250Y-129153824D01*
X113147879Y-129141746D01*
X113265795Y-129105977D01*
X113374467Y-129047890D01*
X113467141Y-128971834D01*
X113529485Y-129013491D01*
X113670890Y-129072063D01*
X113821005Y-129101922D01*
X113974061Y-129101922D01*
X114124176Y-129072063D01*
X114265581Y-129013491D01*
X114392842Y-128928458D01*
X114495889Y-128825411D01*
X114522110Y-128874467D01*
X114600281Y-128969719D01*
X114695533Y-129047890D01*
X114804205Y-129105977D01*
X114922121Y-129141746D01*
X115044750Y-129153824D01*
X116295250Y-129153824D01*
X116417879Y-129141746D01*
X116535795Y-129105977D01*
X116644467Y-129047890D01*
X116739719Y-128969719D01*
X116817890Y-128874467D01*
X116856625Y-128802000D01*
X116983375Y-128802000D01*
X117022110Y-128874467D01*
X117100281Y-128969719D01*
X117195533Y-129047890D01*
X117304205Y-129105977D01*
X117422121Y-129141746D01*
X117544750Y-129153824D01*
X118795250Y-129153824D01*
X118917879Y-129141746D01*
X119035795Y-129105977D01*
X119144467Y-129047890D01*
X119239719Y-128969719D01*
X119317890Y-128874467D01*
X119356625Y-128802000D01*
X119483375Y-128802000D01*
X119522110Y-128874467D01*
X119600281Y-128969719D01*
X119695533Y-129047890D01*
X119804205Y-129105977D01*
X119922121Y-129141746D01*
X120044750Y-129153824D01*
X121295250Y-129153824D01*
X121417879Y-129141746D01*
X121535795Y-129105977D01*
X121644467Y-129047890D01*
X121739719Y-128969719D01*
X121817890Y-128874467D01*
X121856625Y-128802000D01*
X121983375Y-128802000D01*
X122022110Y-128874467D01*
X122100281Y-128969719D01*
X122195533Y-129047890D01*
X122304205Y-129105977D01*
X122422121Y-129141746D01*
X122544750Y-129153824D01*
X123795250Y-129153824D01*
X123917879Y-129141746D01*
X124035795Y-129105977D01*
X124144467Y-129047890D01*
X124239719Y-128969719D01*
X124317890Y-128874467D01*
X124375977Y-128765795D01*
X124411746Y-128647879D01*
X124423824Y-128525250D01*
X124423824Y-127930583D01*
X125203020Y-127151388D01*
X125246675Y-127151388D01*
X125224188Y-127225518D01*
X125211928Y-127350000D01*
X125215000Y-127914250D01*
X125373750Y-128073000D01*
X126573000Y-128073000D01*
X126573000Y-128053000D01*
X126827000Y-128053000D01*
X126827000Y-128073000D01*
X128026250Y-128073000D01*
X128185000Y-127914250D01*
X128188072Y-127350000D01*
X128175812Y-127225518D01*
X128139502Y-127105820D01*
X128080537Y-126995506D01*
X128001185Y-126898815D01*
X127904494Y-126819463D01*
X127794180Y-126760498D01*
X127674482Y-126724188D01*
X127550000Y-126711928D01*
X127332447Y-126713112D01*
X127482167Y-126613073D01*
X127653073Y-126442167D01*
X127787353Y-126241202D01*
X127879847Y-126017903D01*
X127927000Y-125780849D01*
X127927000Y-125539151D01*
X127879847Y-125302097D01*
X127787353Y-125078798D01*
X127653073Y-124877833D01*
X127482167Y-124706927D01*
X127281202Y-124572647D01*
X127057903Y-124480153D01*
X126820849Y-124433000D01*
X126579151Y-124433000D01*
X126342097Y-124480153D01*
X126118798Y-124572647D01*
X125917833Y-124706927D01*
X125746927Y-124877833D01*
X125612647Y-125078798D01*
X125520153Y-125302097D01*
X125473000Y-125539151D01*
X125473000Y-125622528D01*
X125346612Y-125597388D01*
X125193556Y-125597388D01*
X125043441Y-125627247D01*
X124902036Y-125685819D01*
X124774775Y-125770852D01*
X124666548Y-125879079D01*
X124581515Y-126006340D01*
X124522943Y-126147745D01*
X124493084Y-126297860D01*
X124493084Y-126441452D01*
X124017676Y-126916861D01*
X123969311Y-126877169D01*
X123860579Y-126819050D01*
X123742597Y-126783261D01*
X123619900Y-126771176D01*
X122720100Y-126771176D01*
X122597403Y-126783261D01*
X122479421Y-126819050D01*
X122370689Y-126877169D01*
X122275384Y-126955384D01*
X122197169Y-127050689D01*
X122139050Y-127159421D01*
X122103261Y-127277403D01*
X122091176Y-127400100D01*
X122091176Y-127466376D01*
X122022110Y-127550533D01*
X121964023Y-127659205D01*
X121928254Y-127777121D01*
X121926198Y-127798000D01*
X121913802Y-127798000D01*
X121911746Y-127777121D01*
X121875977Y-127659205D01*
X121817890Y-127550533D01*
X121748824Y-127466376D01*
X121748824Y-127400100D01*
X121736739Y-127277403D01*
X121700950Y-127159421D01*
X121642831Y-127050689D01*
X121564616Y-126955384D01*
X121469311Y-126877169D01*
X121360579Y-126819050D01*
X121242597Y-126783261D01*
X121119900Y-126771176D01*
X120220100Y-126771176D01*
X120097403Y-126783261D01*
X119979421Y-126819050D01*
X119870689Y-126877169D01*
X119775384Y-126955384D01*
X119697169Y-127050689D01*
X119639050Y-127159421D01*
X119603261Y-127277403D01*
X119591176Y-127400100D01*
X119591176Y-127466376D01*
X119522110Y-127550533D01*
X119464023Y-127659205D01*
X119428254Y-127777121D01*
X119426198Y-127798000D01*
X119413802Y-127798000D01*
X119411746Y-127777121D01*
X119375977Y-127659205D01*
X119317890Y-127550533D01*
X119248824Y-127466376D01*
X119248824Y-127400100D01*
X119236739Y-127277403D01*
X119200950Y-127159421D01*
X119142831Y-127050689D01*
X119064616Y-126955384D01*
X118969311Y-126877169D01*
X118860579Y-126819050D01*
X118742597Y-126783261D01*
X118619900Y-126771176D01*
X117720100Y-126771176D01*
X117597403Y-126783261D01*
X117479421Y-126819050D01*
X117370689Y-126877169D01*
X117275384Y-126955384D01*
X117197169Y-127050689D01*
X117139050Y-127159421D01*
X117103261Y-127277403D01*
X117091176Y-127400100D01*
X117091176Y-127466376D01*
X117022110Y-127550533D01*
X116964023Y-127659205D01*
X116928254Y-127777121D01*
X116926198Y-127798000D01*
X116913802Y-127798000D01*
X116911746Y-127777121D01*
X116875977Y-127659205D01*
X116817890Y-127550533D01*
X116748824Y-127466376D01*
X116748824Y-127400100D01*
X116736739Y-127277403D01*
X116700950Y-127159421D01*
X116642831Y-127050689D01*
X116564616Y-126955384D01*
X116469311Y-126877169D01*
X116360579Y-126819050D01*
X116242597Y-126783261D01*
X116119900Y-126771176D01*
X115220100Y-126771176D01*
X115097403Y-126783261D01*
X114979421Y-126819050D01*
X114870689Y-126877169D01*
X114775384Y-126955384D01*
X114697169Y-127050689D01*
X114639050Y-127159421D01*
X114603261Y-127277403D01*
X114591176Y-127400100D01*
X114591176Y-127466376D01*
X114522110Y-127550533D01*
X114464023Y-127659205D01*
X114432984Y-127761528D01*
X114392842Y-127721386D01*
X114265581Y-127636353D01*
X114124176Y-127577781D01*
X113974061Y-127547922D01*
X113821005Y-127547922D01*
X113670890Y-127577781D01*
X113582111Y-127614555D01*
X113547890Y-127550533D01*
X113478824Y-127466376D01*
X113478824Y-127400100D01*
X113466739Y-127277403D01*
X113430950Y-127159421D01*
X113372831Y-127050689D01*
X113294616Y-126955384D01*
X113199311Y-126877169D01*
X113090579Y-126819050D01*
X112972597Y-126783261D01*
X112849900Y-126771176D01*
X111950100Y-126771176D01*
X111827403Y-126783261D01*
X111709421Y-126819050D01*
X111600689Y-126877169D01*
X111505384Y-126955384D01*
X111427169Y-127050689D01*
X111369050Y-127159421D01*
X111333261Y-127277403D01*
X111321176Y-127400100D01*
X111321176Y-127466376D01*
X111252110Y-127550533D01*
X111194023Y-127659205D01*
X111158254Y-127777121D01*
X111146176Y-127899750D01*
X110327000Y-127899750D01*
X110327000Y-121308060D01*
X110375533Y-121347890D01*
X110484205Y-121405977D01*
X110602121Y-121441746D01*
X110724750Y-121453824D01*
X111350250Y-121453824D01*
X111472879Y-121441746D01*
X111590795Y-121405977D01*
X111699467Y-121347890D01*
X111783624Y-121278824D01*
X111849900Y-121278824D01*
X111972597Y-121266739D01*
X112090579Y-121230950D01*
X112199311Y-121172831D01*
X112294616Y-121094616D01*
X112372831Y-120999311D01*
X112430950Y-120890579D01*
X112466739Y-120772597D01*
X112478824Y-120649900D01*
X112478824Y-119750100D01*
X112466739Y-119627403D01*
X112430950Y-119509421D01*
X112372831Y-119400689D01*
X112294616Y-119305384D01*
X112199311Y-119227169D01*
X112090579Y-119169050D01*
X111998496Y-119141117D01*
X112351248Y-118788366D01*
X112494841Y-118788366D01*
X112644956Y-118758507D01*
X112786361Y-118699935D01*
X112913622Y-118614902D01*
X113021849Y-118506675D01*
X113106882Y-118379414D01*
X113165454Y-118238009D01*
X113195313Y-118087894D01*
X113195313Y-117934838D01*
X113165454Y-117784723D01*
X113106882Y-117643318D01*
X113021849Y-117516057D01*
X112913622Y-117407830D01*
X112786361Y-117322797D01*
X112644956Y-117264225D01*
X112494841Y-117234366D01*
X112341785Y-117234366D01*
X112191670Y-117264225D01*
X112050265Y-117322797D01*
X111923004Y-117407830D01*
X111814777Y-117516057D01*
X111729744Y-117643318D01*
X111671172Y-117784723D01*
X111641313Y-117934838D01*
X111641313Y-118078431D01*
X110773569Y-118946176D01*
X110724750Y-118946176D01*
X110602121Y-118958254D01*
X110484205Y-118994023D01*
X110375533Y-119052110D01*
X110327000Y-119091940D01*
X110327000Y-114840810D01*
X111257000Y-114840810D01*
X111257000Y-110600000D01*
X112786928Y-110600000D01*
X112790000Y-110851750D01*
X112948750Y-111010500D01*
X113773000Y-111010500D01*
X113773000Y-110123750D01*
X113614250Y-109965000D01*
X113425000Y-109961928D01*
X113300518Y-109974188D01*
X113180820Y-110010498D01*
X113070506Y-110069463D01*
X112973815Y-110148815D01*
X112894463Y-110245506D01*
X112835498Y-110355820D01*
X112799188Y-110475518D01*
X112786928Y-110600000D01*
X111257000Y-110600000D01*
X111257000Y-109046865D01*
X111309537Y-109089981D01*
%TA.AperFunction,Conductor*%
D34*
G36*
X111309537Y-109089981D02*
G01*
X111375030Y-109124988D01*
X111446095Y-109146545D01*
X111520000Y-109153824D01*
X112889430Y-109153824D01*
X112948815Y-109226185D01*
X113045506Y-109305537D01*
X113155820Y-109364502D01*
X113275518Y-109400812D01*
X113400000Y-109413072D01*
X113723010Y-109413072D01*
X113723010Y-109527594D01*
X113752869Y-109677709D01*
X113811441Y-109819114D01*
X113896474Y-109946375D01*
X114004701Y-110054602D01*
X114059519Y-110091231D01*
X114027000Y-110123750D01*
X114027000Y-111010500D01*
X114851250Y-111010500D01*
X115010000Y-110851750D01*
X115013072Y-110600000D01*
X115000812Y-110475518D01*
X114964502Y-110355820D01*
X114905537Y-110245506D01*
X114831185Y-110154908D01*
X114868058Y-110139635D01*
X114995319Y-110054602D01*
X115103546Y-109946375D01*
X115188579Y-109819114D01*
X115247151Y-109677709D01*
X115277010Y-109527594D01*
X115277010Y-109384002D01*
X115337543Y-109323469D01*
X115356684Y-109307760D01*
X115372392Y-109288620D01*
X115372400Y-109288612D01*
X115419417Y-109231322D01*
X115460840Y-109153824D01*
X115780000Y-109153824D01*
X115853905Y-109146545D01*
X115924970Y-109124988D01*
X115935303Y-109119465D01*
X116000444Y-109172924D01*
X116109082Y-109230992D01*
X116226960Y-109266750D01*
X116314677Y-109275389D01*
X116262491Y-109327575D01*
X116243340Y-109343292D01*
X116227407Y-109362706D01*
X115712487Y-109877627D01*
X115693341Y-109893340D01*
X115677628Y-109912486D01*
X115677625Y-109912489D01*
X115630608Y-109969779D01*
X115583994Y-110056988D01*
X115555289Y-110151615D01*
X115545597Y-110250024D01*
X115548025Y-110274677D01*
X115548024Y-110998000D01*
X115424643Y-110998000D01*
X115400000Y-110995573D01*
X115375357Y-110998000D01*
X115375347Y-110998000D01*
X115301591Y-111005264D01*
X115206964Y-111033969D01*
X115119755Y-111080583D01*
X115119753Y-111080584D01*
X115119754Y-111080584D01*
X115076213Y-111116318D01*
X115043316Y-111143316D01*
X115027603Y-111162462D01*
X114888408Y-111301658D01*
X114851250Y-111264500D01*
X114027000Y-111264500D01*
X114027000Y-111284500D01*
X113773000Y-111284500D01*
X113773000Y-111264500D01*
X112948750Y-111264500D01*
X112790000Y-111423250D01*
X112786928Y-111675000D01*
X112799188Y-111799482D01*
X112835498Y-111919180D01*
X112894463Y-112029494D01*
X112973815Y-112126185D01*
X113070506Y-112205537D01*
X113138420Y-112241838D01*
X113093091Y-112326643D01*
X113058018Y-112442261D01*
X113046176Y-112562500D01*
X113046176Y-113162500D01*
X113058018Y-113282739D01*
X113093091Y-113398357D01*
X113150045Y-113504911D01*
X113226693Y-113598307D01*
X113317695Y-113672990D01*
X112300802Y-113672990D01*
X112276159Y-113670563D01*
X112251516Y-113672990D01*
X112251507Y-113672990D01*
X112177751Y-113680254D01*
X112083124Y-113708959D01*
X111995915Y-113755573D01*
X111995913Y-113755574D01*
X111995914Y-113755574D01*
X111954236Y-113789779D01*
X111919476Y-113818306D01*
X111903763Y-113837452D01*
X111460646Y-114280570D01*
X111441495Y-114296287D01*
X111378762Y-114372726D01*
X111332148Y-114459936D01*
X111303443Y-114554563D01*
X111296179Y-114628319D01*
X111296179Y-114628328D01*
X111293752Y-114652971D01*
X111296179Y-114677614D01*
X111296180Y-115747980D01*
X111293752Y-115772633D01*
X111303444Y-115871042D01*
X111332149Y-115965669D01*
X111378763Y-116052878D01*
X111425780Y-116110168D01*
X111425783Y-116110171D01*
X111441496Y-116129317D01*
X111460642Y-116145030D01*
X111740756Y-116425144D01*
X111756474Y-116444296D01*
X111789171Y-116471130D01*
X111832912Y-116507029D01*
X111920121Y-116553643D01*
X112014748Y-116582348D01*
X112020567Y-116582921D01*
X112081287Y-116588901D01*
X112183534Y-116691148D01*
X112310795Y-116776181D01*
X112452200Y-116834753D01*
X112602315Y-116864612D01*
X112755371Y-116864612D01*
X112808791Y-116853986D01*
X112808791Y-116997053D01*
X112838650Y-117147168D01*
X112897222Y-117288573D01*
X112982255Y-117415834D01*
X113090482Y-117524061D01*
X113217743Y-117609094D01*
X113359148Y-117667666D01*
X113465383Y-117688797D01*
X113460339Y-117740007D01*
X113460339Y-117740015D01*
X113457912Y-117764660D01*
X113460339Y-117789303D01*
X113460340Y-118510691D01*
X113457912Y-118535343D01*
X113467604Y-118633752D01*
X113496309Y-118728379D01*
X113542923Y-118815588D01*
X113589940Y-118872878D01*
X113589943Y-118872881D01*
X113605656Y-118892027D01*
X113624802Y-118907740D01*
X113663238Y-118946176D01*
X113649750Y-118946176D01*
X113527121Y-118958254D01*
X113409205Y-118994023D01*
X113300533Y-119052110D01*
X113216376Y-119121176D01*
X113150100Y-119121176D01*
X113027403Y-119133261D01*
X112909421Y-119169050D01*
X112800689Y-119227169D01*
X112705384Y-119305384D01*
X112627169Y-119400689D01*
X112569050Y-119509421D01*
X112533261Y-119627403D01*
X112521176Y-119750100D01*
X112521176Y-120649900D01*
X112533261Y-120772597D01*
X112569050Y-120890579D01*
X112627169Y-120999311D01*
X112705384Y-121094616D01*
X112800689Y-121172831D01*
X112909421Y-121230950D01*
X113027403Y-121266739D01*
X113150100Y-121278824D01*
X113216376Y-121278824D01*
X113300533Y-121347890D01*
X113409205Y-121405977D01*
X113527121Y-121441746D01*
X113548001Y-121443803D01*
X113548001Y-121575337D01*
X113548000Y-121575347D01*
X113548000Y-121687064D01*
X113482105Y-121752960D01*
X113402903Y-121720153D01*
X113165849Y-121673000D01*
X112924151Y-121673000D01*
X112687097Y-121720153D01*
X112463798Y-121812647D01*
X112262833Y-121946927D01*
X112091927Y-122117833D01*
X111957647Y-122318798D01*
X111865153Y-122542097D01*
X111818000Y-122779151D01*
X111818000Y-123020849D01*
X111865153Y-123257903D01*
X111957647Y-123481202D01*
X112091927Y-123682167D01*
X112262833Y-123853073D01*
X112463798Y-123987353D01*
X112543001Y-124020160D01*
X112543001Y-124346176D01*
X111774750Y-124346176D01*
X111652121Y-124358254D01*
X111534205Y-124394023D01*
X111425533Y-124452110D01*
X111330281Y-124530281D01*
X111252110Y-124625533D01*
X111194023Y-124734205D01*
X111158254Y-124852121D01*
X111146176Y-124974750D01*
X111146176Y-125600250D01*
X111158254Y-125722879D01*
X111194023Y-125840795D01*
X111252110Y-125949467D01*
X111321176Y-126033624D01*
X111321176Y-126099900D01*
X111333261Y-126222597D01*
X111369050Y-126340579D01*
X111427169Y-126449311D01*
X111505384Y-126544616D01*
X111600689Y-126622831D01*
X111709421Y-126680950D01*
X111827403Y-126716739D01*
X111950100Y-126728824D01*
X112849900Y-126728824D01*
X112972597Y-126716739D01*
X113090579Y-126680950D01*
X113199311Y-126622831D01*
X113294616Y-126544616D01*
X113372831Y-126449311D01*
X113430950Y-126340579D01*
X113466739Y-126222597D01*
X113478824Y-126099900D01*
X113478824Y-126033624D01*
X113547890Y-125949467D01*
X113605977Y-125840795D01*
X113641746Y-125722879D01*
X113653824Y-125600250D01*
X113653824Y-124974750D01*
X113641746Y-124852121D01*
X113605977Y-124734205D01*
X113547890Y-124625533D01*
X113543061Y-124619649D01*
X113547000Y-124579653D01*
X113547000Y-124579643D01*
X113549427Y-124555000D01*
X113547000Y-124530357D01*
X113547000Y-124020160D01*
X113626202Y-123987353D01*
X113827167Y-123853073D01*
X113998073Y-123682167D01*
X114132353Y-123481202D01*
X114224847Y-123257903D01*
X114272000Y-123020849D01*
X114272000Y-122779151D01*
X114224847Y-122542097D01*
X114192040Y-122462895D01*
X114387543Y-122267393D01*
X114406684Y-122251684D01*
X114422392Y-122232544D01*
X114422400Y-122232536D01*
X114469417Y-122175246D01*
X114516031Y-122088037D01*
X114544736Y-121993410D01*
X114548353Y-121956684D01*
X114552000Y-121919653D01*
X114552000Y-121919646D01*
X114554427Y-121895000D01*
X114552000Y-121870355D01*
X114552000Y-121386625D01*
X114624467Y-121347890D01*
X114719719Y-121269719D01*
X114797890Y-121174467D01*
X114855977Y-121065795D01*
X114891746Y-120947879D01*
X114903824Y-120825250D01*
X114903824Y-119807366D01*
X116034017Y-120937560D01*
X116042351Y-120947714D01*
X115280544Y-121709522D01*
X115227097Y-121720153D01*
X115003798Y-121812647D01*
X114802833Y-121946927D01*
X114631927Y-122117833D01*
X114497647Y-122318798D01*
X114405153Y-122542097D01*
X114358000Y-122779151D01*
X114358000Y-123020849D01*
X114405153Y-123257903D01*
X114497647Y-123481202D01*
X114631927Y-123682167D01*
X114802833Y-123853073D01*
X115003798Y-123987353D01*
X115083001Y-124020160D01*
X115083001Y-124346176D01*
X115044750Y-124346176D01*
X114922121Y-124358254D01*
X114804205Y-124394023D01*
X114695533Y-124452110D01*
X114600281Y-124530281D01*
X114522110Y-124625533D01*
X114464023Y-124734205D01*
X114428254Y-124852121D01*
X114416176Y-124974750D01*
X114416176Y-125600250D01*
X114428254Y-125722879D01*
X114464023Y-125840795D01*
X114522110Y-125949467D01*
X114591176Y-126033624D01*
X114591176Y-126099900D01*
X114603261Y-126222597D01*
X114639050Y-126340579D01*
X114697169Y-126449311D01*
X114775384Y-126544616D01*
X114870689Y-126622831D01*
X114979421Y-126680950D01*
X115097403Y-126716739D01*
X115220100Y-126728824D01*
X116119900Y-126728824D01*
X116242597Y-126716739D01*
X116360579Y-126680950D01*
X116469311Y-126622831D01*
X116564616Y-126544616D01*
X116642831Y-126449311D01*
X116700950Y-126340579D01*
X116736739Y-126222597D01*
X116748824Y-126099900D01*
X116748824Y-126033624D01*
X116817890Y-125949467D01*
X116875977Y-125840795D01*
X116911746Y-125722879D01*
X116920000Y-125639075D01*
X116928254Y-125722879D01*
X116964023Y-125840795D01*
X117022110Y-125949467D01*
X117091176Y-126033624D01*
X117091176Y-126099900D01*
X117103261Y-126222597D01*
X117139050Y-126340579D01*
X117197169Y-126449311D01*
X117275384Y-126544616D01*
X117370689Y-126622831D01*
X117479421Y-126680950D01*
X117597403Y-126716739D01*
X117720100Y-126728824D01*
X118619900Y-126728824D01*
X118742597Y-126716739D01*
X118860579Y-126680950D01*
X118969311Y-126622831D01*
X119064616Y-126544616D01*
X119142831Y-126449311D01*
X119200950Y-126340579D01*
X119236739Y-126222597D01*
X119248824Y-126099900D01*
X119248824Y-126033624D01*
X119317890Y-125949467D01*
X119375977Y-125840795D01*
X119411746Y-125722879D01*
X119420000Y-125639075D01*
X119428254Y-125722879D01*
X119464023Y-125840795D01*
X119522110Y-125949467D01*
X119591176Y-126033624D01*
X119591176Y-126099900D01*
X119603261Y-126222597D01*
X119639050Y-126340579D01*
X119697169Y-126449311D01*
X119775384Y-126544616D01*
X119870689Y-126622831D01*
X119979421Y-126680950D01*
X120097403Y-126716739D01*
X120220100Y-126728824D01*
X121119900Y-126728824D01*
X121242597Y-126716739D01*
X121360579Y-126680950D01*
X121469311Y-126622831D01*
X121564616Y-126544616D01*
X121642831Y-126449311D01*
X121700950Y-126340579D01*
X121736739Y-126222597D01*
X121748824Y-126099900D01*
X121748824Y-126033624D01*
X121817890Y-125949467D01*
X121875977Y-125840795D01*
X121911746Y-125722879D01*
X121920000Y-125639075D01*
X121928254Y-125722879D01*
X121964023Y-125840795D01*
X122022110Y-125949467D01*
X122091176Y-126033624D01*
X122091176Y-126099900D01*
X122103261Y-126222597D01*
X122139050Y-126340579D01*
X122197169Y-126449311D01*
X122275384Y-126544616D01*
X122370689Y-126622831D01*
X122479421Y-126680950D01*
X122597403Y-126716739D01*
X122720100Y-126728824D01*
X123619900Y-126728824D01*
X123742597Y-126716739D01*
X123860579Y-126680950D01*
X123969311Y-126622831D01*
X124064616Y-126544616D01*
X124142831Y-126449311D01*
X124200950Y-126340579D01*
X124236739Y-126222597D01*
X124248824Y-126099900D01*
X124248824Y-126033624D01*
X124317890Y-125949467D01*
X124375977Y-125840795D01*
X124411746Y-125722879D01*
X124423824Y-125600250D01*
X124423824Y-124974750D01*
X124411746Y-124852121D01*
X124375977Y-124734205D01*
X124317890Y-124625533D01*
X124239719Y-124530281D01*
X124144467Y-124452110D01*
X124035795Y-124394023D01*
X123917879Y-124358254D01*
X123795250Y-124346176D01*
X123707000Y-124346176D01*
X123707000Y-124020160D01*
X123786202Y-123987353D01*
X123987167Y-123853073D01*
X124158073Y-123682167D01*
X124258112Y-123532447D01*
X124256928Y-123750000D01*
X124269188Y-123874482D01*
X124305498Y-123994180D01*
X124364463Y-124104494D01*
X124443815Y-124201185D01*
X124540506Y-124280537D01*
X124650820Y-124339502D01*
X124770518Y-124375812D01*
X124895000Y-124388072D01*
X125459250Y-124385000D01*
X125618000Y-124226250D01*
X125618000Y-123027000D01*
X125872000Y-123027000D01*
X125872000Y-124226250D01*
X126030750Y-124385000D01*
X126595000Y-124388072D01*
X126719482Y-124375812D01*
X126839180Y-124339502D01*
X126949494Y-124280537D01*
X127046185Y-124201185D01*
X127125537Y-124104494D01*
X127184502Y-123994180D01*
X127220812Y-123874482D01*
X127233072Y-123750000D01*
X127230000Y-123185750D01*
X127071250Y-123027000D01*
X125872000Y-123027000D01*
X125618000Y-123027000D01*
X125598000Y-123027000D01*
X125598000Y-122773000D01*
X125618000Y-122773000D01*
X125618000Y-121573750D01*
X125459250Y-121415000D01*
X125203146Y-121413606D01*
X125228295Y-121405977D01*
X125336967Y-121347890D01*
X125421124Y-121278824D01*
X125487400Y-121278824D01*
X125610097Y-121266739D01*
X125728079Y-121230950D01*
X125836811Y-121172831D01*
X125932116Y-121094616D01*
X125932734Y-121093863D01*
X125947998Y-121144180D01*
X126006963Y-121254494D01*
X126086315Y-121351185D01*
X126163195Y-121414279D01*
X126030750Y-121415000D01*
X125872000Y-121573750D01*
X125872000Y-122773000D01*
X127071250Y-122773000D01*
X127230000Y-122614250D01*
X127233072Y-122050000D01*
X127220812Y-121925518D01*
X127184502Y-121805820D01*
X127134352Y-121711997D01*
X127314250Y-121710000D01*
X127473000Y-121551250D01*
X127473000Y-121536859D01*
X127562500Y-121538072D01*
X127686982Y-121525812D01*
X127727000Y-121513673D01*
X127727000Y-121551250D01*
X127885750Y-121710000D01*
X128162500Y-121713072D01*
X128286982Y-121700812D01*
X128406680Y-121664502D01*
X128473000Y-121629053D01*
X128473000Y-128979117D01*
X128460078Y-129110899D01*
X128427873Y-129217570D01*
X128375558Y-129315961D01*
X128305130Y-129402313D01*
X128219270Y-129473343D01*
X128121255Y-129526339D01*
X128014807Y-129559290D01*
X127917983Y-129569467D01*
X128001185Y-129501185D01*
X128080537Y-129404494D01*
X128139502Y-129294180D01*
X128175812Y-129174482D01*
X128188072Y-129050000D01*
X128185000Y-128485750D01*
X128026250Y-128327000D01*
X126827000Y-128327000D01*
X126827000Y-128347000D01*
X126573000Y-128347000D01*
X126573000Y-128327000D01*
X125373750Y-128327000D01*
X125215000Y-128485750D01*
X125211928Y-129050000D01*
X125224188Y-129174482D01*
X125260498Y-129294180D01*
X125319463Y-129404494D01*
X125398815Y-129501185D01*
X125486322Y-129573000D01*
X110920883Y-129573000D01*
X110789101Y-129560078D01*
X110682430Y-129527873D01*
X110584039Y-129475558D01*
X110497687Y-129405130D01*
X110426657Y-129319270D01*
X110373661Y-129221255D01*
X110340710Y-129114807D01*
X110327000Y-128984371D01*
X110327000Y-127899750D01*
X111146176Y-127899750D01*
X111146176Y-128525250D01*
X111158254Y-128647879D01*
X111194023Y-128765795D01*
X111252110Y-128874467D01*
X111330281Y-128969719D01*
X111425533Y-129047890D01*
X111534205Y-129105977D01*
X111652121Y-129141746D01*
X111774750Y-129153824D01*
X113025250Y-129153824D01*
X113147879Y-129141746D01*
X113265795Y-129105977D01*
X113374467Y-129047890D01*
X113467141Y-128971834D01*
X113529485Y-129013491D01*
X113670890Y-129072063D01*
X113821005Y-129101922D01*
X113974061Y-129101922D01*
X114124176Y-129072063D01*
X114265581Y-129013491D01*
X114392842Y-128928458D01*
X114495889Y-128825411D01*
X114522110Y-128874467D01*
X114600281Y-128969719D01*
X114695533Y-129047890D01*
X114804205Y-129105977D01*
X114922121Y-129141746D01*
X115044750Y-129153824D01*
X116295250Y-129153824D01*
X116417879Y-129141746D01*
X116535795Y-129105977D01*
X116644467Y-129047890D01*
X116739719Y-128969719D01*
X116817890Y-128874467D01*
X116856625Y-128802000D01*
X116983375Y-128802000D01*
X117022110Y-128874467D01*
X117100281Y-128969719D01*
X117195533Y-129047890D01*
X117304205Y-129105977D01*
X117422121Y-129141746D01*
X117544750Y-129153824D01*
X118795250Y-129153824D01*
X118917879Y-129141746D01*
X119035795Y-129105977D01*
X119144467Y-129047890D01*
X119239719Y-128969719D01*
X119317890Y-128874467D01*
X119356625Y-128802000D01*
X119483375Y-128802000D01*
X119522110Y-128874467D01*
X119600281Y-128969719D01*
X119695533Y-129047890D01*
X119804205Y-129105977D01*
X119922121Y-129141746D01*
X120044750Y-129153824D01*
X121295250Y-129153824D01*
X121417879Y-129141746D01*
X121535795Y-129105977D01*
X121644467Y-129047890D01*
X121739719Y-128969719D01*
X121817890Y-128874467D01*
X121856625Y-128802000D01*
X121983375Y-128802000D01*
X122022110Y-128874467D01*
X122100281Y-128969719D01*
X122195533Y-129047890D01*
X122304205Y-129105977D01*
X122422121Y-129141746D01*
X122544750Y-129153824D01*
X123795250Y-129153824D01*
X123917879Y-129141746D01*
X124035795Y-129105977D01*
X124144467Y-129047890D01*
X124239719Y-128969719D01*
X124317890Y-128874467D01*
X124375977Y-128765795D01*
X124411746Y-128647879D01*
X124423824Y-128525250D01*
X124423824Y-127930583D01*
X125203020Y-127151388D01*
X125246675Y-127151388D01*
X125224188Y-127225518D01*
X125211928Y-127350000D01*
X125215000Y-127914250D01*
X125373750Y-128073000D01*
X126573000Y-128073000D01*
X126573000Y-128053000D01*
X126827000Y-128053000D01*
X126827000Y-128073000D01*
X128026250Y-128073000D01*
X128185000Y-127914250D01*
X128188072Y-127350000D01*
X128175812Y-127225518D01*
X128139502Y-127105820D01*
X128080537Y-126995506D01*
X128001185Y-126898815D01*
X127904494Y-126819463D01*
X127794180Y-126760498D01*
X127674482Y-126724188D01*
X127550000Y-126711928D01*
X127332447Y-126713112D01*
X127482167Y-126613073D01*
X127653073Y-126442167D01*
X127787353Y-126241202D01*
X127879847Y-126017903D01*
X127927000Y-125780849D01*
X127927000Y-125539151D01*
X127879847Y-125302097D01*
X127787353Y-125078798D01*
X127653073Y-124877833D01*
X127482167Y-124706927D01*
X127281202Y-124572647D01*
X127057903Y-124480153D01*
X126820849Y-124433000D01*
X126579151Y-124433000D01*
X126342097Y-124480153D01*
X126118798Y-124572647D01*
X125917833Y-124706927D01*
X125746927Y-124877833D01*
X125612647Y-125078798D01*
X125520153Y-125302097D01*
X125473000Y-125539151D01*
X125473000Y-125622528D01*
X125346612Y-125597388D01*
X125193556Y-125597388D01*
X125043441Y-125627247D01*
X124902036Y-125685819D01*
X124774775Y-125770852D01*
X124666548Y-125879079D01*
X124581515Y-126006340D01*
X124522943Y-126147745D01*
X124493084Y-126297860D01*
X124493084Y-126441452D01*
X124017676Y-126916861D01*
X123969311Y-126877169D01*
X123860579Y-126819050D01*
X123742597Y-126783261D01*
X123619900Y-126771176D01*
X122720100Y-126771176D01*
X122597403Y-126783261D01*
X122479421Y-126819050D01*
X122370689Y-126877169D01*
X122275384Y-126955384D01*
X122197169Y-127050689D01*
X122139050Y-127159421D01*
X122103261Y-127277403D01*
X122091176Y-127400100D01*
X122091176Y-127466376D01*
X122022110Y-127550533D01*
X121964023Y-127659205D01*
X121928254Y-127777121D01*
X121926198Y-127798000D01*
X121913802Y-127798000D01*
X121911746Y-127777121D01*
X121875977Y-127659205D01*
X121817890Y-127550533D01*
X121748824Y-127466376D01*
X121748824Y-127400100D01*
X121736739Y-127277403D01*
X121700950Y-127159421D01*
X121642831Y-127050689D01*
X121564616Y-126955384D01*
X121469311Y-126877169D01*
X121360579Y-126819050D01*
X121242597Y-126783261D01*
X121119900Y-126771176D01*
X120220100Y-126771176D01*
X120097403Y-126783261D01*
X119979421Y-126819050D01*
X119870689Y-126877169D01*
X119775384Y-126955384D01*
X119697169Y-127050689D01*
X119639050Y-127159421D01*
X119603261Y-127277403D01*
X119591176Y-127400100D01*
X119591176Y-127466376D01*
X119522110Y-127550533D01*
X119464023Y-127659205D01*
X119428254Y-127777121D01*
X119426198Y-127798000D01*
X119413802Y-127798000D01*
X119411746Y-127777121D01*
X119375977Y-127659205D01*
X119317890Y-127550533D01*
X119248824Y-127466376D01*
X119248824Y-127400100D01*
X119236739Y-127277403D01*
X119200950Y-127159421D01*
X119142831Y-127050689D01*
X119064616Y-126955384D01*
X118969311Y-126877169D01*
X118860579Y-126819050D01*
X118742597Y-126783261D01*
X118619900Y-126771176D01*
X117720100Y-126771176D01*
X117597403Y-126783261D01*
X117479421Y-126819050D01*
X117370689Y-126877169D01*
X117275384Y-126955384D01*
X117197169Y-127050689D01*
X117139050Y-127159421D01*
X117103261Y-127277403D01*
X117091176Y-127400100D01*
X117091176Y-127466376D01*
X117022110Y-127550533D01*
X116964023Y-127659205D01*
X116928254Y-127777121D01*
X116926198Y-127798000D01*
X116913802Y-127798000D01*
X116911746Y-127777121D01*
X116875977Y-127659205D01*
X116817890Y-127550533D01*
X116748824Y-127466376D01*
X116748824Y-127400100D01*
X116736739Y-127277403D01*
X116700950Y-127159421D01*
X116642831Y-127050689D01*
X116564616Y-126955384D01*
X116469311Y-126877169D01*
X116360579Y-126819050D01*
X116242597Y-126783261D01*
X116119900Y-126771176D01*
X115220100Y-126771176D01*
X115097403Y-126783261D01*
X114979421Y-126819050D01*
X114870689Y-126877169D01*
X114775384Y-126955384D01*
X114697169Y-127050689D01*
X114639050Y-127159421D01*
X114603261Y-127277403D01*
X114591176Y-127400100D01*
X114591176Y-127466376D01*
X114522110Y-127550533D01*
X114464023Y-127659205D01*
X114432984Y-127761528D01*
X114392842Y-127721386D01*
X114265581Y-127636353D01*
X114124176Y-127577781D01*
X113974061Y-127547922D01*
X113821005Y-127547922D01*
X113670890Y-127577781D01*
X113582111Y-127614555D01*
X113547890Y-127550533D01*
X113478824Y-127466376D01*
X113478824Y-127400100D01*
X113466739Y-127277403D01*
X113430950Y-127159421D01*
X113372831Y-127050689D01*
X113294616Y-126955384D01*
X113199311Y-126877169D01*
X113090579Y-126819050D01*
X112972597Y-126783261D01*
X112849900Y-126771176D01*
X111950100Y-126771176D01*
X111827403Y-126783261D01*
X111709421Y-126819050D01*
X111600689Y-126877169D01*
X111505384Y-126955384D01*
X111427169Y-127050689D01*
X111369050Y-127159421D01*
X111333261Y-127277403D01*
X111321176Y-127400100D01*
X111321176Y-127466376D01*
X111252110Y-127550533D01*
X111194023Y-127659205D01*
X111158254Y-127777121D01*
X111146176Y-127899750D01*
X110327000Y-127899750D01*
X110327000Y-121308060D01*
X110375533Y-121347890D01*
X110484205Y-121405977D01*
X110602121Y-121441746D01*
X110724750Y-121453824D01*
X111350250Y-121453824D01*
X111472879Y-121441746D01*
X111590795Y-121405977D01*
X111699467Y-121347890D01*
X111783624Y-121278824D01*
X111849900Y-121278824D01*
X111972597Y-121266739D01*
X112090579Y-121230950D01*
X112199311Y-121172831D01*
X112294616Y-121094616D01*
X112372831Y-120999311D01*
X112430950Y-120890579D01*
X112466739Y-120772597D01*
X112478824Y-120649900D01*
X112478824Y-119750100D01*
X112466739Y-119627403D01*
X112430950Y-119509421D01*
X112372831Y-119400689D01*
X112294616Y-119305384D01*
X112199311Y-119227169D01*
X112090579Y-119169050D01*
X111998496Y-119141117D01*
X112351248Y-118788366D01*
X112494841Y-118788366D01*
X112644956Y-118758507D01*
X112786361Y-118699935D01*
X112913622Y-118614902D01*
X113021849Y-118506675D01*
X113106882Y-118379414D01*
X113165454Y-118238009D01*
X113195313Y-118087894D01*
X113195313Y-117934838D01*
X113165454Y-117784723D01*
X113106882Y-117643318D01*
X113021849Y-117516057D01*
X112913622Y-117407830D01*
X112786361Y-117322797D01*
X112644956Y-117264225D01*
X112494841Y-117234366D01*
X112341785Y-117234366D01*
X112191670Y-117264225D01*
X112050265Y-117322797D01*
X111923004Y-117407830D01*
X111814777Y-117516057D01*
X111729744Y-117643318D01*
X111671172Y-117784723D01*
X111641313Y-117934838D01*
X111641313Y-118078431D01*
X110773569Y-118946176D01*
X110724750Y-118946176D01*
X110602121Y-118958254D01*
X110484205Y-118994023D01*
X110375533Y-119052110D01*
X110327000Y-119091940D01*
X110327000Y-114840810D01*
X111257000Y-114840810D01*
X111257000Y-110600000D01*
X112786928Y-110600000D01*
X112790000Y-110851750D01*
X112948750Y-111010500D01*
X113773000Y-111010500D01*
X113773000Y-110123750D01*
X113614250Y-109965000D01*
X113425000Y-109961928D01*
X113300518Y-109974188D01*
X113180820Y-110010498D01*
X113070506Y-110069463D01*
X112973815Y-110148815D01*
X112894463Y-110245506D01*
X112835498Y-110355820D01*
X112799188Y-110475518D01*
X112786928Y-110600000D01*
X111257000Y-110600000D01*
X111257000Y-109046865D01*
X111309537Y-109089981D01*
G37*
%TD.AperFunction*%
D33*
X123917781Y-119130281D02*
X123839610Y-119225533D01*
X123781523Y-119334205D01*
X123745754Y-119452121D01*
X123733676Y-119574750D01*
X123733676Y-120825250D01*
X123745754Y-120947879D01*
X123781523Y-121065795D01*
X123839610Y-121174467D01*
X123917781Y-121269719D01*
X124013033Y-121347890D01*
X124035282Y-121359782D01*
X123642105Y-121752960D01*
X123562903Y-121720153D01*
X123325849Y-121673000D01*
X123084151Y-121673000D01*
X122847097Y-121720153D01*
X122623798Y-121812647D01*
X122422833Y-121946927D01*
X122251927Y-122117833D01*
X122117647Y-122318798D01*
X122025153Y-122542097D01*
X121978000Y-122779151D01*
X121978000Y-123020849D01*
X122025153Y-123257903D01*
X122117647Y-123481202D01*
X122251927Y-123682167D01*
X122422833Y-123853073D01*
X122623798Y-123987353D01*
X122703000Y-124020160D01*
X122703001Y-124346176D01*
X122544750Y-124346176D01*
X122422121Y-124358254D01*
X122304205Y-124394023D01*
X122195533Y-124452110D01*
X122100281Y-124530281D01*
X122022110Y-124625533D01*
X121964023Y-124734205D01*
X121928254Y-124852121D01*
X121920000Y-124935925D01*
X121911746Y-124852121D01*
X121875977Y-124734205D01*
X121817890Y-124625533D01*
X121739719Y-124530281D01*
X121644467Y-124452110D01*
X121535795Y-124394023D01*
X121417879Y-124358254D01*
X121295250Y-124346176D01*
X121167000Y-124346176D01*
X121167000Y-124020160D01*
X121246202Y-123987353D01*
X121447167Y-123853073D01*
X121618073Y-123682167D01*
X121752353Y-123481202D01*
X121844847Y-123257903D01*
X121892000Y-123020849D01*
X121892000Y-122779151D01*
X121844847Y-122542097D01*
X121752353Y-122318798D01*
X121618073Y-122117833D01*
X121447167Y-121946927D01*
X121246202Y-121812647D01*
X121022903Y-121720153D01*
X120785849Y-121673000D01*
X120544151Y-121673000D01*
X120307097Y-121720153D01*
X120083798Y-121812647D01*
X119882833Y-121946927D01*
X119711927Y-122117833D01*
X119577647Y-122318798D01*
X119485153Y-122542097D01*
X119438000Y-122779151D01*
X119438000Y-123020849D01*
X119485153Y-123257903D01*
X119577647Y-123481202D01*
X119711927Y-123682167D01*
X119882833Y-123853073D01*
X120083798Y-123987353D01*
X120163000Y-124020160D01*
X120163001Y-124346176D01*
X120044750Y-124346176D01*
X119922121Y-124358254D01*
X119804205Y-124394023D01*
X119695533Y-124452110D01*
X119600281Y-124530281D01*
X119522110Y-124625533D01*
X119464023Y-124734205D01*
X119428254Y-124852121D01*
X119420000Y-124935925D01*
X119411746Y-124852121D01*
X119375977Y-124734205D01*
X119317890Y-124625533D01*
X119239719Y-124530281D01*
X119144467Y-124452110D01*
X119035795Y-124394023D01*
X118917879Y-124358254D01*
X118795250Y-124346176D01*
X118627000Y-124346176D01*
X118627000Y-124020160D01*
X118706202Y-123987353D01*
X118907167Y-123853073D01*
X119078073Y-123682167D01*
X119212353Y-123481202D01*
X119304847Y-123257903D01*
X119352000Y-123020849D01*
X119352000Y-122779151D01*
X119304847Y-122542097D01*
X119212353Y-122318798D01*
X119078073Y-122117833D01*
X118907167Y-121946927D01*
X118706202Y-121812647D01*
X118482903Y-121720153D01*
X118245849Y-121673000D01*
X118004151Y-121673000D01*
X117767097Y-121720153D01*
X117543798Y-121812647D01*
X117342833Y-121946927D01*
X117171927Y-122117833D01*
X117037647Y-122318798D01*
X116945153Y-122542097D01*
X116898000Y-122779151D01*
X116898000Y-123020849D01*
X116945153Y-123257903D01*
X117037647Y-123481202D01*
X117171927Y-123682167D01*
X117342833Y-123853073D01*
X117543798Y-123987353D01*
X117623000Y-124020160D01*
X117623001Y-124346176D01*
X117544750Y-124346176D01*
X117422121Y-124358254D01*
X117304205Y-124394023D01*
X117195533Y-124452110D01*
X117100281Y-124530281D01*
X117022110Y-124625533D01*
X116964023Y-124734205D01*
X116928254Y-124852121D01*
X116920000Y-124935925D01*
X116911746Y-124852121D01*
X116875977Y-124734205D01*
X116817890Y-124625533D01*
X116739719Y-124530281D01*
X116644467Y-124452110D01*
X116535795Y-124394023D01*
X116417879Y-124358254D01*
X116295250Y-124346176D01*
X116087000Y-124346176D01*
X116087000Y-124020160D01*
X116166202Y-123987353D01*
X116367167Y-123853073D01*
X116538073Y-123682167D01*
X116672353Y-123481202D01*
X116764847Y-123257903D01*
X116812000Y-123020849D01*
X116812000Y-122779151D01*
X116764847Y-122542097D01*
X116672353Y-122318798D01*
X116538073Y-122117833D01*
X116415087Y-121994847D01*
X116837023Y-121572912D01*
X120246269Y-121572912D01*
X120270912Y-121575339D01*
X120295555Y-121572912D01*
X120295565Y-121572912D01*
X120369321Y-121565648D01*
X120463948Y-121536943D01*
X120551157Y-121490329D01*
X120627596Y-121427596D01*
X120643313Y-121408445D01*
X121650449Y-120401310D01*
X122076047Y-120401310D01*
X122100690Y-120403737D01*
X122125333Y-120401310D01*
X122125343Y-120401310D01*
X122125363Y-120401308D01*
X122276048Y-120401308D01*
X122300691Y-120403735D01*
X122325334Y-120401308D01*
X122325344Y-120401308D01*
X122399100Y-120394044D01*
X122493727Y-120365339D01*
X122580936Y-120318725D01*
X122657375Y-120255992D01*
X122673092Y-120236841D01*
X123805910Y-119104024D01*
X123829962Y-119101655D01*
X123829972Y-119101655D01*
X123903728Y-119094391D01*
X123995397Y-119066583D01*
X123917781Y-119130281D01*
%TA.AperFunction,Conductor*%
D34*
G36*
X123917781Y-119130281D02*
G01*
X123839610Y-119225533D01*
X123781523Y-119334205D01*
X123745754Y-119452121D01*
X123733676Y-119574750D01*
X123733676Y-120825250D01*
X123745754Y-120947879D01*
X123781523Y-121065795D01*
X123839610Y-121174467D01*
X123917781Y-121269719D01*
X124013033Y-121347890D01*
X124035282Y-121359782D01*
X123642105Y-121752960D01*
X123562903Y-121720153D01*
X123325849Y-121673000D01*
X123084151Y-121673000D01*
X122847097Y-121720153D01*
X122623798Y-121812647D01*
X122422833Y-121946927D01*
X122251927Y-122117833D01*
X122117647Y-122318798D01*
X122025153Y-122542097D01*
X121978000Y-122779151D01*
X121978000Y-123020849D01*
X122025153Y-123257903D01*
X122117647Y-123481202D01*
X122251927Y-123682167D01*
X122422833Y-123853073D01*
X122623798Y-123987353D01*
X122703000Y-124020160D01*
X122703001Y-124346176D01*
X122544750Y-124346176D01*
X122422121Y-124358254D01*
X122304205Y-124394023D01*
X122195533Y-124452110D01*
X122100281Y-124530281D01*
X122022110Y-124625533D01*
X121964023Y-124734205D01*
X121928254Y-124852121D01*
X121920000Y-124935925D01*
X121911746Y-124852121D01*
X121875977Y-124734205D01*
X121817890Y-124625533D01*
X121739719Y-124530281D01*
X121644467Y-124452110D01*
X121535795Y-124394023D01*
X121417879Y-124358254D01*
X121295250Y-124346176D01*
X121167000Y-124346176D01*
X121167000Y-124020160D01*
X121246202Y-123987353D01*
X121447167Y-123853073D01*
X121618073Y-123682167D01*
X121752353Y-123481202D01*
X121844847Y-123257903D01*
X121892000Y-123020849D01*
X121892000Y-122779151D01*
X121844847Y-122542097D01*
X121752353Y-122318798D01*
X121618073Y-122117833D01*
X121447167Y-121946927D01*
X121246202Y-121812647D01*
X121022903Y-121720153D01*
X120785849Y-121673000D01*
X120544151Y-121673000D01*
X120307097Y-121720153D01*
X120083798Y-121812647D01*
X119882833Y-121946927D01*
X119711927Y-122117833D01*
X119577647Y-122318798D01*
X119485153Y-122542097D01*
X119438000Y-122779151D01*
X119438000Y-123020849D01*
X119485153Y-123257903D01*
X119577647Y-123481202D01*
X119711927Y-123682167D01*
X119882833Y-123853073D01*
X120083798Y-123987353D01*
X120163000Y-124020160D01*
X120163001Y-124346176D01*
X120044750Y-124346176D01*
X119922121Y-124358254D01*
X119804205Y-124394023D01*
X119695533Y-124452110D01*
X119600281Y-124530281D01*
X119522110Y-124625533D01*
X119464023Y-124734205D01*
X119428254Y-124852121D01*
X119420000Y-124935925D01*
X119411746Y-124852121D01*
X119375977Y-124734205D01*
X119317890Y-124625533D01*
X119239719Y-124530281D01*
X119144467Y-124452110D01*
X119035795Y-124394023D01*
X118917879Y-124358254D01*
X118795250Y-124346176D01*
X118627000Y-124346176D01*
X118627000Y-124020160D01*
X118706202Y-123987353D01*
X118907167Y-123853073D01*
X119078073Y-123682167D01*
X119212353Y-123481202D01*
X119304847Y-123257903D01*
X119352000Y-123020849D01*
X119352000Y-122779151D01*
X119304847Y-122542097D01*
X119212353Y-122318798D01*
X119078073Y-122117833D01*
X118907167Y-121946927D01*
X118706202Y-121812647D01*
X118482903Y-121720153D01*
X118245849Y-121673000D01*
X118004151Y-121673000D01*
X117767097Y-121720153D01*
X117543798Y-121812647D01*
X117342833Y-121946927D01*
X117171927Y-122117833D01*
X117037647Y-122318798D01*
X116945153Y-122542097D01*
X116898000Y-122779151D01*
X116898000Y-123020849D01*
X116945153Y-123257903D01*
X117037647Y-123481202D01*
X117171927Y-123682167D01*
X117342833Y-123853073D01*
X117543798Y-123987353D01*
X117623000Y-124020160D01*
X117623001Y-124346176D01*
X117544750Y-124346176D01*
X117422121Y-124358254D01*
X117304205Y-124394023D01*
X117195533Y-124452110D01*
X117100281Y-124530281D01*
X117022110Y-124625533D01*
X116964023Y-124734205D01*
X116928254Y-124852121D01*
X116920000Y-124935925D01*
X116911746Y-124852121D01*
X116875977Y-124734205D01*
X116817890Y-124625533D01*
X116739719Y-124530281D01*
X116644467Y-124452110D01*
X116535795Y-124394023D01*
X116417879Y-124358254D01*
X116295250Y-124346176D01*
X116087000Y-124346176D01*
X116087000Y-124020160D01*
X116166202Y-123987353D01*
X116367167Y-123853073D01*
X116538073Y-123682167D01*
X116672353Y-123481202D01*
X116764847Y-123257903D01*
X116812000Y-123020849D01*
X116812000Y-122779151D01*
X116764847Y-122542097D01*
X116672353Y-122318798D01*
X116538073Y-122117833D01*
X116415087Y-121994847D01*
X116837023Y-121572912D01*
X120246269Y-121572912D01*
X120270912Y-121575339D01*
X120295555Y-121572912D01*
X120295565Y-121572912D01*
X120369321Y-121565648D01*
X120463948Y-121536943D01*
X120551157Y-121490329D01*
X120627596Y-121427596D01*
X120643313Y-121408445D01*
X121650449Y-120401310D01*
X122076047Y-120401310D01*
X122100690Y-120403737D01*
X122125333Y-120401310D01*
X122125343Y-120401310D01*
X122125363Y-120401308D01*
X122276048Y-120401308D01*
X122300691Y-120403735D01*
X122325334Y-120401308D01*
X122325344Y-120401308D01*
X122399100Y-120394044D01*
X122493727Y-120365339D01*
X122580936Y-120318725D01*
X122657375Y-120255992D01*
X122673092Y-120236841D01*
X123805910Y-119104024D01*
X123829962Y-119101655D01*
X123829972Y-119101655D01*
X123903728Y-119094391D01*
X123995397Y-119066583D01*
X123917781Y-119130281D01*
G37*
%TD.AperFunction*%
D33*
X127747000Y-120327000D02*
X126903000Y-120327000D01*
X126903000Y-120073000D01*
X127747000Y-120073000D01*
X127747000Y-120327000D01*
%TA.AperFunction,Conductor*%
D34*
G36*
X127747000Y-120327000D02*
G01*
X126903000Y-120327000D01*
X126903000Y-120073000D01*
X127747000Y-120073000D01*
X127747000Y-120327000D01*
G37*
%TD.AperFunction*%
D33*
X127178750Y-115695000D02*
X127276665Y-115678540D01*
X127325520Y-115660915D01*
X128038397Y-116373792D01*
X128287472Y-116296157D01*
X128413371Y-116032117D01*
X128473000Y-115797198D01*
X128473000Y-118770948D01*
X128406680Y-118735498D01*
X128286982Y-118699188D01*
X128162500Y-118686928D01*
X127885750Y-118690000D01*
X127727000Y-118848750D01*
X127727000Y-118886327D01*
X127686982Y-118874188D01*
X127562500Y-118861928D01*
X127473000Y-118863141D01*
X127473000Y-118848750D01*
X127314250Y-118690000D01*
X127037500Y-118686928D01*
X126913018Y-118699188D01*
X126793320Y-118735498D01*
X126683006Y-118794463D01*
X126599771Y-118862772D01*
X126537500Y-118861928D01*
X126413018Y-118874188D01*
X126293320Y-118910498D01*
X126183006Y-118969463D01*
X126086315Y-119048815D01*
X126006963Y-119145506D01*
X125947998Y-119255820D01*
X125932734Y-119306137D01*
X125932116Y-119305384D01*
X125836811Y-119227169D01*
X125728079Y-119169050D01*
X125610097Y-119133261D01*
X125487400Y-119121176D01*
X125421124Y-119121176D01*
X125336967Y-119052110D01*
X125228295Y-118994023D01*
X125110379Y-118958254D01*
X124987750Y-118946176D01*
X124362250Y-118946176D01*
X124239621Y-118958254D01*
X124121705Y-118994023D01*
X124105590Y-119002637D01*
X124162003Y-118956339D01*
X124177720Y-118937188D01*
X125032935Y-118081974D01*
X125176528Y-118081974D01*
X125326643Y-118052115D01*
X125468048Y-117993543D01*
X125595309Y-117908510D01*
X125703536Y-117800283D01*
X125788569Y-117673022D01*
X125847141Y-117531617D01*
X125861377Y-117460046D01*
X125963155Y-117502204D01*
X126113270Y-117532063D01*
X126266326Y-117532063D01*
X126416441Y-117502204D01*
X126557846Y-117443632D01*
X126685107Y-117358599D01*
X126793334Y-117250372D01*
X126878367Y-117123111D01*
X126926194Y-117007647D01*
X127078531Y-117015611D01*
X127368019Y-116973599D01*
X127643747Y-116875919D01*
X127781157Y-116802472D01*
X127858792Y-116553397D01*
X127010000Y-115704605D01*
X126995858Y-115718748D01*
X126916680Y-115639570D01*
X127020000Y-115536250D01*
X127178750Y-115695000D01*
%TA.AperFunction,Conductor*%
D34*
G36*
X127178750Y-115695000D02*
G01*
X127276665Y-115678540D01*
X127325520Y-115660915D01*
X128038397Y-116373792D01*
X128287472Y-116296157D01*
X128413371Y-116032117D01*
X128473000Y-115797198D01*
X128473000Y-118770948D01*
X128406680Y-118735498D01*
X128286982Y-118699188D01*
X128162500Y-118686928D01*
X127885750Y-118690000D01*
X127727000Y-118848750D01*
X127727000Y-118886327D01*
X127686982Y-118874188D01*
X127562500Y-118861928D01*
X127473000Y-118863141D01*
X127473000Y-118848750D01*
X127314250Y-118690000D01*
X127037500Y-118686928D01*
X126913018Y-118699188D01*
X126793320Y-118735498D01*
X126683006Y-118794463D01*
X126599771Y-118862772D01*
X126537500Y-118861928D01*
X126413018Y-118874188D01*
X126293320Y-118910498D01*
X126183006Y-118969463D01*
X126086315Y-119048815D01*
X126006963Y-119145506D01*
X125947998Y-119255820D01*
X125932734Y-119306137D01*
X125932116Y-119305384D01*
X125836811Y-119227169D01*
X125728079Y-119169050D01*
X125610097Y-119133261D01*
X125487400Y-119121176D01*
X125421124Y-119121176D01*
X125336967Y-119052110D01*
X125228295Y-118994023D01*
X125110379Y-118958254D01*
X124987750Y-118946176D01*
X124362250Y-118946176D01*
X124239621Y-118958254D01*
X124121705Y-118994023D01*
X124105590Y-119002637D01*
X124162003Y-118956339D01*
X124177720Y-118937188D01*
X125032935Y-118081974D01*
X125176528Y-118081974D01*
X125326643Y-118052115D01*
X125468048Y-117993543D01*
X125595309Y-117908510D01*
X125703536Y-117800283D01*
X125788569Y-117673022D01*
X125847141Y-117531617D01*
X125861377Y-117460046D01*
X125963155Y-117502204D01*
X126113270Y-117532063D01*
X126266326Y-117532063D01*
X126416441Y-117502204D01*
X126557846Y-117443632D01*
X126685107Y-117358599D01*
X126793334Y-117250372D01*
X126878367Y-117123111D01*
X126926194Y-117007647D01*
X127078531Y-117015611D01*
X127368019Y-116973599D01*
X127643747Y-116875919D01*
X127781157Y-116802472D01*
X127858792Y-116553397D01*
X127010000Y-115704605D01*
X126995858Y-115718748D01*
X126916680Y-115639570D01*
X127020000Y-115536250D01*
X127178750Y-115695000D01*
G37*
%TD.AperFunction*%
D33*
X121969956Y-116924814D02*
X122259571Y-117065704D01*
X122379208Y-117097071D01*
X122326240Y-117176344D01*
X122267668Y-117317749D01*
X122237809Y-117467864D01*
X122237809Y-117611457D01*
X121351979Y-118497288D01*
X121094359Y-118497288D01*
X121069713Y-118494861D01*
X121059029Y-118495913D01*
X121109337Y-118406294D01*
X121148109Y-118287371D01*
X121160000Y-118183750D01*
X121001250Y-118025000D01*
X121160000Y-117866250D01*
X121148109Y-117762629D01*
X121109337Y-117643706D01*
X121048109Y-117534633D01*
X120984640Y-117460472D01*
X121014678Y-117444417D01*
X121091117Y-117381684D01*
X121106834Y-117362533D01*
X121662559Y-116806809D01*
X121681705Y-116791096D01*
X121697418Y-116771950D01*
X121697421Y-116771947D01*
X121723100Y-116740658D01*
X121758525Y-116776083D01*
X121874193Y-116660415D01*
X121969956Y-116924814D01*
%TA.AperFunction,Conductor*%
D34*
G36*
X121969956Y-116924814D02*
G01*
X122259571Y-117065704D01*
X122379208Y-117097071D01*
X122326240Y-117176344D01*
X122267668Y-117317749D01*
X122237809Y-117467864D01*
X122237809Y-117611457D01*
X121351979Y-118497288D01*
X121094359Y-118497288D01*
X121069713Y-118494861D01*
X121059029Y-118495913D01*
X121109337Y-118406294D01*
X121148109Y-118287371D01*
X121160000Y-118183750D01*
X121001250Y-118025000D01*
X121160000Y-117866250D01*
X121148109Y-117762629D01*
X121109337Y-117643706D01*
X121048109Y-117534633D01*
X120984640Y-117460472D01*
X121014678Y-117444417D01*
X121091117Y-117381684D01*
X121106834Y-117362533D01*
X121662559Y-116806809D01*
X121681705Y-116791096D01*
X121697418Y-116771950D01*
X121697421Y-116771947D01*
X121723100Y-116740658D01*
X121758525Y-116776083D01*
X121874193Y-116660415D01*
X121969956Y-116924814D01*
G37*
%TD.AperFunction*%
D33*
X124462077Y-105842702D02*
X124575000Y-105853824D01*
X124760950Y-105853824D01*
X124752859Y-105873357D01*
X124723000Y-106023472D01*
X124723000Y-106176528D01*
X124752859Y-106326643D01*
X124811431Y-106468048D01*
X124896464Y-106595309D01*
X125004691Y-106703536D01*
X125131952Y-106788569D01*
X125273357Y-106847141D01*
X125423472Y-106877000D01*
X125522867Y-106877000D01*
X125519389Y-106943531D01*
X125561401Y-107233019D01*
X125659081Y-107508747D01*
X125732528Y-107646157D01*
X125981603Y-107723792D01*
X126346073Y-107359323D01*
X126443750Y-107457000D01*
X126607605Y-107457000D01*
X126161208Y-107903397D01*
X126238843Y-108152472D01*
X126439308Y-108248057D01*
X126446095Y-108257259D01*
X126538555Y-108341503D01*
X126645674Y-108406091D01*
X126763335Y-108448540D01*
X126861250Y-108465000D01*
X126966496Y-108359754D01*
X127078531Y-108365611D01*
X127079256Y-108365506D01*
X127178750Y-108465000D01*
X127276665Y-108448540D01*
X127394326Y-108406091D01*
X127501445Y-108341503D01*
X127593905Y-108257259D01*
X127607567Y-108238736D01*
X127643747Y-108225919D01*
X127781157Y-108152472D01*
X127858792Y-107903397D01*
X127412395Y-107457000D01*
X127596250Y-107457000D01*
X127683928Y-107369323D01*
X128038397Y-107723792D01*
X128287472Y-107646157D01*
X128413371Y-107382117D01*
X128473001Y-107147197D01*
X128473001Y-115266216D01*
X128458599Y-115166981D01*
X128360919Y-114891253D01*
X128287472Y-114753843D01*
X128038397Y-114676208D01*
X127688928Y-115025678D01*
X127596250Y-114933000D01*
X127422395Y-114933000D01*
X127858792Y-114496603D01*
X127781157Y-114247528D01*
X127622919Y-114172077D01*
X127593905Y-114132741D01*
X127501445Y-114048497D01*
X127394326Y-113983909D01*
X127276665Y-113941460D01*
X127178750Y-113925000D01*
X127063007Y-114040743D01*
X126972248Y-114035998D01*
X126861250Y-113925000D01*
X126763335Y-113941460D01*
X126645674Y-113983909D01*
X126538555Y-114048497D01*
X126446095Y-114132741D01*
X126429523Y-114155210D01*
X126376253Y-114174081D01*
X126238843Y-114247528D01*
X126161208Y-114496603D01*
X126597605Y-114933000D01*
X126443750Y-114933000D01*
X126341073Y-115035678D01*
X125981603Y-114676208D01*
X125732528Y-114753843D01*
X125606629Y-115017883D01*
X125534661Y-115301411D01*
X125519389Y-115593531D01*
X125557054Y-115853064D01*
X124796576Y-115853064D01*
X124771933Y-115850637D01*
X124747290Y-115853064D01*
X124747281Y-115853064D01*
X124673525Y-115860328D01*
X124578898Y-115889033D01*
X124491689Y-115935647D01*
X124491687Y-115935648D01*
X124491688Y-115935648D01*
X124449162Y-115970549D01*
X124415250Y-115998380D01*
X124399537Y-116017526D01*
X124388141Y-116028922D01*
X124452384Y-115783892D01*
X124459537Y-115664951D01*
X124496091Y-115604326D01*
X124538540Y-115486665D01*
X124555000Y-115388750D01*
X124446776Y-115280526D01*
X124434589Y-115191661D01*
X124555000Y-115071250D01*
X124538540Y-114973335D01*
X124496091Y-114855674D01*
X124431503Y-114748555D01*
X124350373Y-114659512D01*
X124421503Y-114581445D01*
X124486091Y-114474326D01*
X124528540Y-114356665D01*
X124545000Y-114258750D01*
X124386250Y-114100000D01*
X124545000Y-113941250D01*
X124528540Y-113843335D01*
X124486091Y-113725674D01*
X124421503Y-113618555D01*
X124337259Y-113526095D01*
X124236595Y-113451847D01*
X124123380Y-113398664D01*
X124001965Y-113368590D01*
X123941750Y-113365000D01*
X123927285Y-113379465D01*
X123884106Y-113336286D01*
X123851811Y-113368581D01*
X123791750Y-113365000D01*
X123787002Y-113369748D01*
X123787002Y-113365000D01*
X123760015Y-113365000D01*
X123754425Y-113262237D01*
X123637001Y-113213342D01*
X123637001Y-109186525D01*
X123751351Y-109139408D01*
X123754425Y-109137763D01*
X123759471Y-109045000D01*
X123787002Y-109045000D01*
X123787002Y-109020252D01*
X123811750Y-109045000D01*
X123862374Y-109041982D01*
X123884106Y-109063714D01*
X123917751Y-109030069D01*
X123925019Y-109028269D01*
X123941750Y-109045000D01*
X124001965Y-109041410D01*
X124123380Y-109011336D01*
X124236595Y-108958153D01*
X124337259Y-108883905D01*
X124421503Y-108791445D01*
X124486091Y-108684326D01*
X124528540Y-108566665D01*
X124545000Y-108468750D01*
X124386250Y-108310000D01*
X124545000Y-108151250D01*
X124528540Y-108053335D01*
X124486091Y-107935674D01*
X124421503Y-107828555D01*
X124355003Y-107755569D01*
X124357259Y-107753905D01*
X124441503Y-107661445D01*
X124506091Y-107554326D01*
X124548540Y-107436665D01*
X124565000Y-107338750D01*
X124433223Y-107206973D01*
X124452384Y-107133892D01*
X124452386Y-107133864D01*
X124565000Y-107021250D01*
X124548540Y-106923335D01*
X124506091Y-106805674D01*
X124460404Y-106729902D01*
X124427961Y-106493325D01*
X124322795Y-106188912D01*
X124229814Y-106014956D01*
X124186939Y-105999427D01*
X124276185Y-105926185D01*
X124355537Y-105829494D01*
X124364327Y-105813050D01*
X124462077Y-105842702D01*
%TA.AperFunction,Conductor*%
D34*
G36*
X124462077Y-105842702D02*
G01*
X124575000Y-105853824D01*
X124760950Y-105853824D01*
X124752859Y-105873357D01*
X124723000Y-106023472D01*
X124723000Y-106176528D01*
X124752859Y-106326643D01*
X124811431Y-106468048D01*
X124896464Y-106595309D01*
X125004691Y-106703536D01*
X125131952Y-106788569D01*
X125273357Y-106847141D01*
X125423472Y-106877000D01*
X125522867Y-106877000D01*
X125519389Y-106943531D01*
X125561401Y-107233019D01*
X125659081Y-107508747D01*
X125732528Y-107646157D01*
X125981603Y-107723792D01*
X126346073Y-107359323D01*
X126443750Y-107457000D01*
X126607605Y-107457000D01*
X126161208Y-107903397D01*
X126238843Y-108152472D01*
X126439308Y-108248057D01*
X126446095Y-108257259D01*
X126538555Y-108341503D01*
X126645674Y-108406091D01*
X126763335Y-108448540D01*
X126861250Y-108465000D01*
X126966496Y-108359754D01*
X127078531Y-108365611D01*
X127079256Y-108365506D01*
X127178750Y-108465000D01*
X127276665Y-108448540D01*
X127394326Y-108406091D01*
X127501445Y-108341503D01*
X127593905Y-108257259D01*
X127607567Y-108238736D01*
X127643747Y-108225919D01*
X127781157Y-108152472D01*
X127858792Y-107903397D01*
X127412395Y-107457000D01*
X127596250Y-107457000D01*
X127683928Y-107369323D01*
X128038397Y-107723792D01*
X128287472Y-107646157D01*
X128413371Y-107382117D01*
X128473001Y-107147197D01*
X128473001Y-115266216D01*
X128458599Y-115166981D01*
X128360919Y-114891253D01*
X128287472Y-114753843D01*
X128038397Y-114676208D01*
X127688928Y-115025678D01*
X127596250Y-114933000D01*
X127422395Y-114933000D01*
X127858792Y-114496603D01*
X127781157Y-114247528D01*
X127622919Y-114172077D01*
X127593905Y-114132741D01*
X127501445Y-114048497D01*
X127394326Y-113983909D01*
X127276665Y-113941460D01*
X127178750Y-113925000D01*
X127063007Y-114040743D01*
X126972248Y-114035998D01*
X126861250Y-113925000D01*
X126763335Y-113941460D01*
X126645674Y-113983909D01*
X126538555Y-114048497D01*
X126446095Y-114132741D01*
X126429523Y-114155210D01*
X126376253Y-114174081D01*
X126238843Y-114247528D01*
X126161208Y-114496603D01*
X126597605Y-114933000D01*
X126443750Y-114933000D01*
X126341073Y-115035678D01*
X125981603Y-114676208D01*
X125732528Y-114753843D01*
X125606629Y-115017883D01*
X125534661Y-115301411D01*
X125519389Y-115593531D01*
X125557054Y-115853064D01*
X124796576Y-115853064D01*
X124771933Y-115850637D01*
X124747290Y-115853064D01*
X124747281Y-115853064D01*
X124673525Y-115860328D01*
X124578898Y-115889033D01*
X124491689Y-115935647D01*
X124491687Y-115935648D01*
X124491688Y-115935648D01*
X124449162Y-115970549D01*
X124415250Y-115998380D01*
X124399537Y-116017526D01*
X124388141Y-116028922D01*
X124452384Y-115783892D01*
X124459537Y-115664951D01*
X124496091Y-115604326D01*
X124538540Y-115486665D01*
X124555000Y-115388750D01*
X124446776Y-115280526D01*
X124434589Y-115191661D01*
X124555000Y-115071250D01*
X124538540Y-114973335D01*
X124496091Y-114855674D01*
X124431503Y-114748555D01*
X124350373Y-114659512D01*
X124421503Y-114581445D01*
X124486091Y-114474326D01*
X124528540Y-114356665D01*
X124545000Y-114258750D01*
X124386250Y-114100000D01*
X124545000Y-113941250D01*
X124528540Y-113843335D01*
X124486091Y-113725674D01*
X124421503Y-113618555D01*
X124337259Y-113526095D01*
X124236595Y-113451847D01*
X124123380Y-113398664D01*
X124001965Y-113368590D01*
X123941750Y-113365000D01*
X123927285Y-113379465D01*
X123884106Y-113336286D01*
X123851811Y-113368581D01*
X123791750Y-113365000D01*
X123787002Y-113369748D01*
X123787002Y-113365000D01*
X123760015Y-113365000D01*
X123754425Y-113262237D01*
X123637001Y-113213342D01*
X123637001Y-109186525D01*
X123751351Y-109139408D01*
X123754425Y-109137763D01*
X123759471Y-109045000D01*
X123787002Y-109045000D01*
X123787002Y-109020252D01*
X123811750Y-109045000D01*
X123862374Y-109041982D01*
X123884106Y-109063714D01*
X123917751Y-109030069D01*
X123925019Y-109028269D01*
X123941750Y-109045000D01*
X124001965Y-109041410D01*
X124123380Y-109011336D01*
X124236595Y-108958153D01*
X124337259Y-108883905D01*
X124421503Y-108791445D01*
X124486091Y-108684326D01*
X124528540Y-108566665D01*
X124545000Y-108468750D01*
X124386250Y-108310000D01*
X124545000Y-108151250D01*
X124528540Y-108053335D01*
X124486091Y-107935674D01*
X124421503Y-107828555D01*
X124355003Y-107755569D01*
X124357259Y-107753905D01*
X124441503Y-107661445D01*
X124506091Y-107554326D01*
X124548540Y-107436665D01*
X124565000Y-107338750D01*
X124433223Y-107206973D01*
X124452384Y-107133892D01*
X124452386Y-107133864D01*
X124565000Y-107021250D01*
X124548540Y-106923335D01*
X124506091Y-106805674D01*
X124460404Y-106729902D01*
X124427961Y-106493325D01*
X124322795Y-106188912D01*
X124229814Y-106014956D01*
X124186939Y-105999427D01*
X124276185Y-105926185D01*
X124355537Y-105829494D01*
X124364327Y-105813050D01*
X124462077Y-105842702D01*
G37*
%TD.AperFunction*%
D33*
X114967142Y-113374784D02*
X114982855Y-113393931D01*
X115059294Y-113456664D01*
X115146503Y-113503278D01*
X115241130Y-113531983D01*
X115314886Y-113539247D01*
X115314895Y-113539247D01*
X115339538Y-113541674D01*
X115364181Y-113539247D01*
X115632451Y-113539247D01*
X116416202Y-114323000D01*
X115450000Y-114323000D01*
X115425224Y-114325440D01*
X115401399Y-114332667D01*
X115379443Y-114344403D01*
X115360197Y-114360197D01*
X115344403Y-114379443D01*
X115332667Y-114401399D01*
X115325440Y-114425224D01*
X115323000Y-114450000D01*
X115323000Y-115611403D01*
X115275437Y-115650437D01*
X115220553Y-115717314D01*
X115179770Y-115793613D01*
X115154656Y-115876402D01*
X115146176Y-115962500D01*
X115146176Y-115972976D01*
X114836158Y-115972976D01*
X113540170Y-114676990D01*
X113850347Y-114676990D01*
X113874990Y-114679417D01*
X113899633Y-114676990D01*
X113899643Y-114676990D01*
X113973399Y-114669726D01*
X114068026Y-114641021D01*
X114155235Y-114594407D01*
X114231674Y-114531674D01*
X114242947Y-114517937D01*
X114256684Y-114506664D01*
X114319417Y-114430225D01*
X114366031Y-114343016D01*
X114394736Y-114248389D01*
X114402000Y-114174633D01*
X114402000Y-114174624D01*
X114404427Y-114149981D01*
X114402000Y-114125338D01*
X114402000Y-113716599D01*
X114479911Y-113674955D01*
X114573307Y-113598307D01*
X114649955Y-113504911D01*
X114706909Y-113398357D01*
X114741982Y-113282739D01*
X114750157Y-113199731D01*
X114792089Y-113199731D01*
X114967142Y-113374784D01*
%TA.AperFunction,Conductor*%
D34*
G36*
X114967142Y-113374784D02*
G01*
X114982855Y-113393931D01*
X115059294Y-113456664D01*
X115146503Y-113503278D01*
X115241130Y-113531983D01*
X115314886Y-113539247D01*
X115314895Y-113539247D01*
X115339538Y-113541674D01*
X115364181Y-113539247D01*
X115632451Y-113539247D01*
X116416202Y-114323000D01*
X115450000Y-114323000D01*
X115425224Y-114325440D01*
X115401399Y-114332667D01*
X115379443Y-114344403D01*
X115360197Y-114360197D01*
X115344403Y-114379443D01*
X115332667Y-114401399D01*
X115325440Y-114425224D01*
X115323000Y-114450000D01*
X115323000Y-115611403D01*
X115275437Y-115650437D01*
X115220553Y-115717314D01*
X115179770Y-115793613D01*
X115154656Y-115876402D01*
X115146176Y-115962500D01*
X115146176Y-115972976D01*
X114836158Y-115972976D01*
X113540170Y-114676990D01*
X113850347Y-114676990D01*
X113874990Y-114679417D01*
X113899633Y-114676990D01*
X113899643Y-114676990D01*
X113973399Y-114669726D01*
X114068026Y-114641021D01*
X114155235Y-114594407D01*
X114231674Y-114531674D01*
X114242947Y-114517937D01*
X114256684Y-114506664D01*
X114319417Y-114430225D01*
X114366031Y-114343016D01*
X114394736Y-114248389D01*
X114402000Y-114174633D01*
X114402000Y-114174624D01*
X114404427Y-114149981D01*
X114402000Y-114125338D01*
X114402000Y-113716599D01*
X114479911Y-113674955D01*
X114573307Y-113598307D01*
X114649955Y-113504911D01*
X114706909Y-113398357D01*
X114741982Y-113282739D01*
X114750157Y-113199731D01*
X114792089Y-113199731D01*
X114967142Y-113374784D01*
G37*
%TD.AperFunction*%
D33*
X122669401Y-115516028D02*
X122793082Y-115534707D01*
X122818368Y-115533531D01*
X122843909Y-115604326D01*
X122887037Y-115675853D01*
X122844143Y-115718748D01*
X122830000Y-115704605D01*
X122815858Y-115718748D01*
X122636253Y-115539143D01*
X122650395Y-115525000D01*
X122636253Y-115510858D01*
X122641241Y-115505869D01*
X122669401Y-115516028D01*
%TA.AperFunction,Conductor*%
D34*
G36*
X122669401Y-115516028D02*
G01*
X122793082Y-115534707D01*
X122818368Y-115533531D01*
X122843909Y-115604326D01*
X122887037Y-115675853D01*
X122844143Y-115718748D01*
X122830000Y-115704605D01*
X122815858Y-115718748D01*
X122636253Y-115539143D01*
X122650395Y-115525000D01*
X122636253Y-115510858D01*
X122641241Y-115505869D01*
X122669401Y-115516028D01*
G37*
%TD.AperFunction*%
D33*
X123793725Y-101503423D02*
X123740236Y-101603494D01*
X123707298Y-101712077D01*
X123696176Y-101825000D01*
X123696176Y-102375000D01*
X123707298Y-102487923D01*
X123740236Y-102596506D01*
X123793725Y-102696577D01*
X123851318Y-102766753D01*
X123824388Y-102807057D01*
X123765816Y-102948462D01*
X123735957Y-103098577D01*
X123735957Y-103251633D01*
X123765816Y-103401748D01*
X123824388Y-103543153D01*
X123909421Y-103670414D01*
X124017648Y-103778641D01*
X124144909Y-103863674D01*
X124286314Y-103922246D01*
X124323000Y-103929543D01*
X124323000Y-104076528D01*
X124327231Y-104097800D01*
X124314861Y-104120942D01*
X124276185Y-104073815D01*
X124179494Y-103994463D01*
X124069180Y-103935498D01*
X123949482Y-103899188D01*
X123825000Y-103886928D01*
X123710750Y-103890000D01*
X123552000Y-104048750D01*
X123552000Y-104873000D01*
X123572000Y-104873000D01*
X123572000Y-105127000D01*
X123552000Y-105127000D01*
X123552000Y-105408031D01*
X123400429Y-105334296D01*
X123298000Y-105307441D01*
X123298000Y-105127000D01*
X123278000Y-105127000D01*
X123278000Y-104873000D01*
X123298000Y-104873000D01*
X123298000Y-104048750D01*
X123139250Y-103890000D01*
X123025000Y-103886928D01*
X122900518Y-103899188D01*
X122780820Y-103935498D01*
X122670506Y-103994463D01*
X122573815Y-104073815D01*
X122494463Y-104170506D01*
X122435498Y-104280820D01*
X122413951Y-104351851D01*
X122384290Y-104315710D01*
X122296577Y-104243725D01*
X122196506Y-104190236D01*
X122087923Y-104157298D01*
X121975000Y-104146176D01*
X121575000Y-104146176D01*
X121462077Y-104157298D01*
X121353494Y-104190236D01*
X121253423Y-104243725D01*
X121165710Y-104315710D01*
X121093725Y-104403423D01*
X121040236Y-104503494D01*
X121007298Y-104612077D01*
X120996176Y-104725000D01*
X120996176Y-105068889D01*
X120637473Y-105427593D01*
X120618327Y-105443306D01*
X120602614Y-105462452D01*
X120602611Y-105462455D01*
X120555594Y-105519745D01*
X120508980Y-105606954D01*
X120480275Y-105701581D01*
X120470583Y-105799990D01*
X120473011Y-105824643D01*
X120473010Y-108980367D01*
X120470583Y-109005010D01*
X120473010Y-109029653D01*
X120473010Y-109029662D01*
X120480274Y-109103418D01*
X120508979Y-109198045D01*
X120555593Y-109285255D01*
X120618326Y-109361694D01*
X120637477Y-109377411D01*
X121047603Y-109787538D01*
X121063316Y-109806684D01*
X121082462Y-109822397D01*
X121082464Y-109822399D01*
X121120652Y-109853739D01*
X121139755Y-109869417D01*
X121226964Y-109916031D01*
X121291176Y-109935510D01*
X121291176Y-109948000D01*
X118308336Y-109948000D01*
X118087345Y-109727010D01*
X119300327Y-109727010D01*
X119324970Y-109729437D01*
X119349613Y-109727010D01*
X119349623Y-109727010D01*
X119423379Y-109719746D01*
X119518006Y-109691041D01*
X119605215Y-109644427D01*
X119681654Y-109581694D01*
X119697371Y-109562543D01*
X120062533Y-109197383D01*
X120081674Y-109181674D01*
X120097382Y-109162534D01*
X120097390Y-109162526D01*
X120144407Y-109105236D01*
X120179276Y-109039999D01*
X120191021Y-109018026D01*
X120219726Y-108923399D01*
X120226990Y-108849643D01*
X120226990Y-108849633D01*
X120229417Y-108824990D01*
X120226990Y-108800347D01*
X120226990Y-105099633D01*
X120229417Y-105074990D01*
X120226990Y-105050347D01*
X120226990Y-105050337D01*
X120219726Y-104976581D01*
X120191021Y-104881954D01*
X120169087Y-104840918D01*
X120144407Y-104794744D01*
X120097390Y-104737454D01*
X120097382Y-104737446D01*
X120081674Y-104718306D01*
X120062533Y-104702597D01*
X119728824Y-104368889D01*
X119728824Y-104055208D01*
X119808288Y-104055208D01*
X119958403Y-104025349D01*
X120099808Y-103966777D01*
X120227069Y-103881744D01*
X120335296Y-103773517D01*
X120420329Y-103646256D01*
X120478901Y-103504851D01*
X120508760Y-103354736D01*
X120508760Y-103201680D01*
X120478901Y-103051565D01*
X120420329Y-102910160D01*
X120335296Y-102782899D01*
X120227069Y-102674672D01*
X120099808Y-102589639D01*
X119988072Y-102543356D01*
X119988072Y-101899550D01*
X119971017Y-101726384D01*
X119920506Y-101559872D01*
X119849484Y-101427000D01*
X123856444Y-101427000D01*
X123793725Y-101503423D01*
%TA.AperFunction,Conductor*%
D34*
G36*
X123793725Y-101503423D02*
G01*
X123740236Y-101603494D01*
X123707298Y-101712077D01*
X123696176Y-101825000D01*
X123696176Y-102375000D01*
X123707298Y-102487923D01*
X123740236Y-102596506D01*
X123793725Y-102696577D01*
X123851318Y-102766753D01*
X123824388Y-102807057D01*
X123765816Y-102948462D01*
X123735957Y-103098577D01*
X123735957Y-103251633D01*
X123765816Y-103401748D01*
X123824388Y-103543153D01*
X123909421Y-103670414D01*
X124017648Y-103778641D01*
X124144909Y-103863674D01*
X124286314Y-103922246D01*
X124323000Y-103929543D01*
X124323000Y-104076528D01*
X124327231Y-104097800D01*
X124314861Y-104120942D01*
X124276185Y-104073815D01*
X124179494Y-103994463D01*
X124069180Y-103935498D01*
X123949482Y-103899188D01*
X123825000Y-103886928D01*
X123710750Y-103890000D01*
X123552000Y-104048750D01*
X123552000Y-104873000D01*
X123572000Y-104873000D01*
X123572000Y-105127000D01*
X123552000Y-105127000D01*
X123552000Y-105408031D01*
X123400429Y-105334296D01*
X123298000Y-105307441D01*
X123298000Y-105127000D01*
X123278000Y-105127000D01*
X123278000Y-104873000D01*
X123298000Y-104873000D01*
X123298000Y-104048750D01*
X123139250Y-103890000D01*
X123025000Y-103886928D01*
X122900518Y-103899188D01*
X122780820Y-103935498D01*
X122670506Y-103994463D01*
X122573815Y-104073815D01*
X122494463Y-104170506D01*
X122435498Y-104280820D01*
X122413951Y-104351851D01*
X122384290Y-104315710D01*
X122296577Y-104243725D01*
X122196506Y-104190236D01*
X122087923Y-104157298D01*
X121975000Y-104146176D01*
X121575000Y-104146176D01*
X121462077Y-104157298D01*
X121353494Y-104190236D01*
X121253423Y-104243725D01*
X121165710Y-104315710D01*
X121093725Y-104403423D01*
X121040236Y-104503494D01*
X121007298Y-104612077D01*
X120996176Y-104725000D01*
X120996176Y-105068889D01*
X120637473Y-105427593D01*
X120618327Y-105443306D01*
X120602614Y-105462452D01*
X120602611Y-105462455D01*
X120555594Y-105519745D01*
X120508980Y-105606954D01*
X120480275Y-105701581D01*
X120470583Y-105799990D01*
X120473011Y-105824643D01*
X120473010Y-108980367D01*
X120470583Y-109005010D01*
X120473010Y-109029653D01*
X120473010Y-109029662D01*
X120480274Y-109103418D01*
X120508979Y-109198045D01*
X120555593Y-109285255D01*
X120618326Y-109361694D01*
X120637477Y-109377411D01*
X121047603Y-109787538D01*
X121063316Y-109806684D01*
X121082462Y-109822397D01*
X121082464Y-109822399D01*
X121120652Y-109853739D01*
X121139755Y-109869417D01*
X121226964Y-109916031D01*
X121291176Y-109935510D01*
X121291176Y-109948000D01*
X118308336Y-109948000D01*
X118087345Y-109727010D01*
X119300327Y-109727010D01*
X119324970Y-109729437D01*
X119349613Y-109727010D01*
X119349623Y-109727010D01*
X119423379Y-109719746D01*
X119518006Y-109691041D01*
X119605215Y-109644427D01*
X119681654Y-109581694D01*
X119697371Y-109562543D01*
X120062533Y-109197383D01*
X120081674Y-109181674D01*
X120097382Y-109162534D01*
X120097390Y-109162526D01*
X120144407Y-109105236D01*
X120179276Y-109039999D01*
X120191021Y-109018026D01*
X120219726Y-108923399D01*
X120226990Y-108849643D01*
X120226990Y-108849633D01*
X120229417Y-108824990D01*
X120226990Y-108800347D01*
X120226990Y-105099633D01*
X120229417Y-105074990D01*
X120226990Y-105050347D01*
X120226990Y-105050337D01*
X120219726Y-104976581D01*
X120191021Y-104881954D01*
X120169087Y-104840918D01*
X120144407Y-104794744D01*
X120097390Y-104737454D01*
X120097382Y-104737446D01*
X120081674Y-104718306D01*
X120062533Y-104702597D01*
X119728824Y-104368889D01*
X119728824Y-104055208D01*
X119808288Y-104055208D01*
X119958403Y-104025349D01*
X120099808Y-103966777D01*
X120227069Y-103881744D01*
X120335296Y-103773517D01*
X120420329Y-103646256D01*
X120478901Y-103504851D01*
X120508760Y-103354736D01*
X120508760Y-103201680D01*
X120478901Y-103051565D01*
X120420329Y-102910160D01*
X120335296Y-102782899D01*
X120227069Y-102674672D01*
X120099808Y-102589639D01*
X119988072Y-102543356D01*
X119988072Y-101899550D01*
X119971017Y-101726384D01*
X119920506Y-101559872D01*
X119849484Y-101427000D01*
X123856444Y-101427000D01*
X123793725Y-101503423D01*
G37*
%TD.AperFunction*%
D33*
X122897037Y-106734147D02*
X122853909Y-106805674D01*
X122823665Y-106889505D01*
X122733082Y-106885293D01*
X122623562Y-106901833D01*
X122650395Y-106875000D01*
X122636253Y-106860858D01*
X122815858Y-106681253D01*
X122830000Y-106695395D01*
X122844143Y-106681253D01*
X122897037Y-106734147D01*
%TA.AperFunction,Conductor*%
D34*
G36*
X122897037Y-106734147D02*
G01*
X122853909Y-106805674D01*
X122823665Y-106889505D01*
X122733082Y-106885293D01*
X122623562Y-106901833D01*
X122650395Y-106875000D01*
X122636253Y-106860858D01*
X122815858Y-106681253D01*
X122830000Y-106695395D01*
X122844143Y-106681253D01*
X122897037Y-106734147D01*
G37*
%TD.AperFunction*%
D33*
X128473001Y-106616218D02*
X128458599Y-106516981D01*
X128360919Y-106241253D01*
X128287472Y-106103843D01*
X128038397Y-106026208D01*
X127332868Y-106731737D01*
X127276665Y-106711460D01*
X127178750Y-106695000D01*
X127020000Y-106853750D01*
X126921680Y-106755430D01*
X126995858Y-106681253D01*
X127010000Y-106695395D01*
X127858792Y-105846603D01*
X127781157Y-105597528D01*
X127517117Y-105471629D01*
X127462793Y-105457840D01*
X127460000Y-105285750D01*
X127301250Y-105127000D01*
X126552000Y-105127000D01*
X126552000Y-105147000D01*
X126298000Y-105147000D01*
X126298000Y-105127000D01*
X126278000Y-105127000D01*
X126278000Y-104873000D01*
X126298000Y-104873000D01*
X126298000Y-104853000D01*
X126552000Y-104853000D01*
X126552000Y-104873000D01*
X127301250Y-104873000D01*
X127460000Y-104714250D01*
X127463072Y-104525000D01*
X127450812Y-104400518D01*
X127448984Y-104394491D01*
X127543750Y-104403824D01*
X128056250Y-104403824D01*
X128172831Y-104392342D01*
X128284932Y-104358336D01*
X128388244Y-104303115D01*
X128473001Y-104233557D01*
X128473001Y-106616218D01*
%TA.AperFunction,Conductor*%
D34*
G36*
X128473001Y-106616218D02*
G01*
X128458599Y-106516981D01*
X128360919Y-106241253D01*
X128287472Y-106103843D01*
X128038397Y-106026208D01*
X127332868Y-106731737D01*
X127276665Y-106711460D01*
X127178750Y-106695000D01*
X127020000Y-106853750D01*
X126921680Y-106755430D01*
X126995858Y-106681253D01*
X127010000Y-106695395D01*
X127858792Y-105846603D01*
X127781157Y-105597528D01*
X127517117Y-105471629D01*
X127462793Y-105457840D01*
X127460000Y-105285750D01*
X127301250Y-105127000D01*
X126552000Y-105127000D01*
X126552000Y-105147000D01*
X126298000Y-105147000D01*
X126298000Y-105127000D01*
X126278000Y-105127000D01*
X126278000Y-104873000D01*
X126298000Y-104873000D01*
X126298000Y-104853000D01*
X126552000Y-104853000D01*
X126552000Y-104873000D01*
X127301250Y-104873000D01*
X127460000Y-104714250D01*
X127463072Y-104525000D01*
X127450812Y-104400518D01*
X127448984Y-104394491D01*
X127543750Y-104403824D01*
X128056250Y-104403824D01*
X128172831Y-104392342D01*
X128284932Y-104358336D01*
X128388244Y-104303115D01*
X128473001Y-104233557D01*
X128473001Y-106616218D01*
G37*
%TD.AperFunction*%
%TD*%
M02*
