M48
; DRILL file {KiCad (5.1.9-0-10_14)} date Sunday, March 07, 2021 at 07:09:32 PM
; FORMAT={-:-/ absolute / inch / decimal}
; #@! TF.CreationDate,2021-03-07T19:09:32+00:00
; #@! TF.GenerationSoftware,Kicad,Pcbnew,(5.1.9-0-10_14)
; #@! TF.FileFunction,Plated,1,2,PTH
FMAT,2
INCH
T1C0.0157
T2C0.0236
T3C0.0300
T4C0.0335
T5C0.0551
T6C0.0669
%
G90
G05
T1
X4.5291Y-4.5509
X4.5295Y-3.9291
X4.5984Y-4.9528
X4.6808Y-4.5305
X4.7472Y-4.4017
X4.7473Y-4.0824
X4.7942Y-4.0584
X4.8551Y-4.4205
X4.8687Y-4.0844
X4.9016Y-4.1516
X4.9528Y-4.4724
X4.9854Y-4.1202
X4.9856Y-4.5553
X4.9902Y-3.9724
X5.0151Y-4.068
X5.0291Y-4.5524
X5.0348Y-4.1785
X5.0374Y-4.4744
X5.0512Y-3.9291
X5.0534Y-4.0773
X5.0571Y-4.0098
X5.0752Y-4.4567
X5.1128Y-4.6472
T2
X4.6492Y-4.1657
X4.6492Y-4.3933
T3
X4.8252Y-4.376
X4.9252Y-4.376
X5.0252Y-4.376
T4
X4.5669Y-4.7402
X4.6654Y-4.7402
X4.7638Y-4.7402
X4.8622Y-4.7402
X4.9606Y-4.7402
X5.0591Y-4.7402
T5
X4.5035Y-4.1093
X4.5035Y-4.4498
T6
X4.6681Y-4.1093
X4.6681Y-4.4498
T0
M30
