%TF.GenerationSoftware,KiCad,Pcbnew,(5.1.9-0-10_14)*%
%TF.CreationDate,2021-06-20T07:03:24+01:00*%
%TF.ProjectId,Generic,47656e65-7269-4632-9e6b-696361645f70,4*%
%TF.SameCoordinates,Original*%
%TF.FileFunction,Paste,Top*%
%TF.FilePolarity,Positive*%
%FSLAX46Y46*%
G04 Gerber Fmt 4.6, Leading zero omitted, Abs format (unit mm)*
G04 Created by KiCad (PCBNEW (5.1.9-0-10_14)) date 2021-06-20 07:03:24*
%MOMM*%
%LPD*%
G01*
G04 APERTURE LIST*
%ADD10R,0.500000X0.850000*%
%ADD11R,0.650000X0.400000*%
%ADD12R,0.600000X1.100000*%
%ADD13R,1.140000X0.600000*%
%ADD14R,1.140000X0.300000*%
G04 APERTURE END LIST*
%TO.C,R13*%
G36*
G01*
X112075000Y-114625000D02*
X112075000Y-115175000D01*
G75*
G02*
X111875000Y-115375000I-200000J0D01*
G01*
X111475000Y-115375000D01*
G75*
G02*
X111275000Y-115175000I0J200000D01*
G01*
X111275000Y-114625000D01*
G75*
G02*
X111475000Y-114425000I200000J0D01*
G01*
X111875000Y-114425000D01*
G75*
G02*
X112075000Y-114625000I0J-200000D01*
G01*
G37*
G36*
G01*
X113725000Y-114625000D02*
X113725000Y-115175000D01*
G75*
G02*
X113525000Y-115375000I-200000J0D01*
G01*
X113125000Y-115375000D01*
G75*
G02*
X112925000Y-115175000I0J200000D01*
G01*
X112925000Y-114625000D01*
G75*
G02*
X113125000Y-114425000I200000J0D01*
G01*
X113525000Y-114425000D01*
G75*
G02*
X113725000Y-114625000I0J-200000D01*
G01*
G37*
%TD*%
%TO.C,R12*%
G36*
G01*
X112075000Y-113425000D02*
X112075000Y-113975000D01*
G75*
G02*
X111875000Y-114175000I-200000J0D01*
G01*
X111475000Y-114175000D01*
G75*
G02*
X111275000Y-113975000I0J200000D01*
G01*
X111275000Y-113425000D01*
G75*
G02*
X111475000Y-113225000I200000J0D01*
G01*
X111875000Y-113225000D01*
G75*
G02*
X112075000Y-113425000I0J-200000D01*
G01*
G37*
G36*
G01*
X113725000Y-113425000D02*
X113725000Y-113975000D01*
G75*
G02*
X113525000Y-114175000I-200000J0D01*
G01*
X113125000Y-114175000D01*
G75*
G02*
X112925000Y-113975000I0J200000D01*
G01*
X112925000Y-113425000D01*
G75*
G02*
X113125000Y-113225000I200000J0D01*
G01*
X113525000Y-113225000D01*
G75*
G02*
X113725000Y-113425000I0J-200000D01*
G01*
G37*
%TD*%
D10*
%TO.C,D4*%
X115800000Y-115875000D03*
X115800000Y-114125000D03*
X114800000Y-114125000D03*
X114800000Y-115875000D03*
%TD*%
%TO.C,R9*%
G36*
G01*
X118675000Y-112925000D02*
X118675000Y-113475000D01*
G75*
G02*
X118475000Y-113675000I-200000J0D01*
G01*
X118075000Y-113675000D01*
G75*
G02*
X117875000Y-113475000I0J200000D01*
G01*
X117875000Y-112925000D01*
G75*
G02*
X118075000Y-112725000I200000J0D01*
G01*
X118475000Y-112725000D01*
G75*
G02*
X118675000Y-112925000I0J-200000D01*
G01*
G37*
G36*
G01*
X120325000Y-112925000D02*
X120325000Y-113475000D01*
G75*
G02*
X120125000Y-113675000I-200000J0D01*
G01*
X119725000Y-113675000D01*
G75*
G02*
X119525000Y-113475000I0J200000D01*
G01*
X119525000Y-112925000D01*
G75*
G02*
X119725000Y-112725000I200000J0D01*
G01*
X120125000Y-112725000D01*
G75*
G02*
X120325000Y-112925000I0J-200000D01*
G01*
G37*
%TD*%
%TO.C,R10*%
G36*
G01*
X119525000Y-115275000D02*
X119525000Y-114725000D01*
G75*
G02*
X119725000Y-114525000I200000J0D01*
G01*
X120125000Y-114525000D01*
G75*
G02*
X120325000Y-114725000I0J-200000D01*
G01*
X120325000Y-115275000D01*
G75*
G02*
X120125000Y-115475000I-200000J0D01*
G01*
X119725000Y-115475000D01*
G75*
G02*
X119525000Y-115275000I0J200000D01*
G01*
G37*
G36*
G01*
X117875000Y-115275000D02*
X117875000Y-114725000D01*
G75*
G02*
X118075000Y-114525000I200000J0D01*
G01*
X118475000Y-114525000D01*
G75*
G02*
X118675000Y-114725000I0J-200000D01*
G01*
X118675000Y-115275000D01*
G75*
G02*
X118475000Y-115475000I-200000J0D01*
G01*
X118075000Y-115475000D01*
G75*
G02*
X117875000Y-115275000I0J200000D01*
G01*
G37*
%TD*%
%TO.C,U2*%
G36*
G01*
X115625000Y-107561000D02*
X115625000Y-107939000D01*
G75*
G02*
X115439000Y-108125000I-186000J0D01*
G01*
X115061000Y-108125000D01*
G75*
G02*
X114875000Y-107939000I0J186000D01*
G01*
X114875000Y-107561000D01*
G75*
G02*
X115061000Y-107375000I186000J0D01*
G01*
X115439000Y-107375000D01*
G75*
G02*
X115625000Y-107561000I0J-186000D01*
G01*
G37*
G36*
G01*
X115625000Y-108561000D02*
X115625000Y-108939000D01*
G75*
G02*
X115439000Y-109125000I-186000J0D01*
G01*
X115061000Y-109125000D01*
G75*
G02*
X114875000Y-108939000I0J186000D01*
G01*
X114875000Y-108561000D01*
G75*
G02*
X115061000Y-108375000I186000J0D01*
G01*
X115439000Y-108375000D01*
G75*
G02*
X115625000Y-108561000I0J-186000D01*
G01*
G37*
G36*
G01*
X116625000Y-107561000D02*
X116625000Y-107939000D01*
G75*
G02*
X116439000Y-108125000I-186000J0D01*
G01*
X116061000Y-108125000D01*
G75*
G02*
X115875000Y-107939000I0J186000D01*
G01*
X115875000Y-107561000D01*
G75*
G02*
X116061000Y-107375000I186000J0D01*
G01*
X116439000Y-107375000D01*
G75*
G02*
X116625000Y-107561000I0J-186000D01*
G01*
G37*
G36*
G01*
X116625000Y-108561000D02*
X116625000Y-108939000D01*
G75*
G02*
X116439000Y-109125000I-186000J0D01*
G01*
X116061000Y-109125000D01*
G75*
G02*
X115875000Y-108939000I0J186000D01*
G01*
X115875000Y-108561000D01*
G75*
G02*
X116061000Y-108375000I186000J0D01*
G01*
X116439000Y-108375000D01*
G75*
G02*
X116625000Y-108561000I0J-186000D01*
G01*
G37*
G36*
G01*
X116875000Y-109862500D02*
X116875000Y-110437500D01*
G75*
G02*
X116812500Y-110500000I-62500J0D01*
G01*
X116687500Y-110500000D01*
G75*
G02*
X116625000Y-110437500I0J62500D01*
G01*
X116625000Y-109862500D01*
G75*
G02*
X116687500Y-109800000I62500J0D01*
G01*
X116812500Y-109800000D01*
G75*
G02*
X116875000Y-109862500I0J-62500D01*
G01*
G37*
G36*
G01*
X116375000Y-109862500D02*
X116375000Y-110437500D01*
G75*
G02*
X116312500Y-110500000I-62500J0D01*
G01*
X116187500Y-110500000D01*
G75*
G02*
X116125000Y-110437500I0J62500D01*
G01*
X116125000Y-109862500D01*
G75*
G02*
X116187500Y-109800000I62500J0D01*
G01*
X116312500Y-109800000D01*
G75*
G02*
X116375000Y-109862500I0J-62500D01*
G01*
G37*
G36*
G01*
X115875000Y-109862500D02*
X115875000Y-110437500D01*
G75*
G02*
X115812500Y-110500000I-62500J0D01*
G01*
X115687500Y-110500000D01*
G75*
G02*
X115625000Y-110437500I0J62500D01*
G01*
X115625000Y-109862500D01*
G75*
G02*
X115687500Y-109800000I62500J0D01*
G01*
X115812500Y-109800000D01*
G75*
G02*
X115875000Y-109862500I0J-62500D01*
G01*
G37*
G36*
G01*
X115375000Y-109862500D02*
X115375000Y-110437500D01*
G75*
G02*
X115312500Y-110500000I-62500J0D01*
G01*
X115187500Y-110500000D01*
G75*
G02*
X115125000Y-110437500I0J62500D01*
G01*
X115125000Y-109862500D01*
G75*
G02*
X115187500Y-109800000I62500J0D01*
G01*
X115312500Y-109800000D01*
G75*
G02*
X115375000Y-109862500I0J-62500D01*
G01*
G37*
G36*
G01*
X114875000Y-109862500D02*
X114875000Y-110437500D01*
G75*
G02*
X114812500Y-110500000I-62500J0D01*
G01*
X114687500Y-110500000D01*
G75*
G02*
X114625000Y-110437500I0J62500D01*
G01*
X114625000Y-109862500D01*
G75*
G02*
X114687500Y-109800000I62500J0D01*
G01*
X114812500Y-109800000D01*
G75*
G02*
X114875000Y-109862500I0J-62500D01*
G01*
G37*
G36*
G01*
X114200000Y-109187500D02*
X114200000Y-109312500D01*
G75*
G02*
X114137500Y-109375000I-62500J0D01*
G01*
X113562500Y-109375000D01*
G75*
G02*
X113500000Y-109312500I0J62500D01*
G01*
X113500000Y-109187500D01*
G75*
G02*
X113562500Y-109125000I62500J0D01*
G01*
X114137500Y-109125000D01*
G75*
G02*
X114200000Y-109187500I0J-62500D01*
G01*
G37*
G36*
G01*
X114200000Y-108687500D02*
X114200000Y-108812500D01*
G75*
G02*
X114137500Y-108875000I-62500J0D01*
G01*
X113562500Y-108875000D01*
G75*
G02*
X113500000Y-108812500I0J62500D01*
G01*
X113500000Y-108687500D01*
G75*
G02*
X113562500Y-108625000I62500J0D01*
G01*
X114137500Y-108625000D01*
G75*
G02*
X114200000Y-108687500I0J-62500D01*
G01*
G37*
G36*
G01*
X114200000Y-108187500D02*
X114200000Y-108312500D01*
G75*
G02*
X114137500Y-108375000I-62500J0D01*
G01*
X113562500Y-108375000D01*
G75*
G02*
X113500000Y-108312500I0J62500D01*
G01*
X113500000Y-108187500D01*
G75*
G02*
X113562500Y-108125000I62500J0D01*
G01*
X114137500Y-108125000D01*
G75*
G02*
X114200000Y-108187500I0J-62500D01*
G01*
G37*
G36*
G01*
X114200000Y-107687500D02*
X114200000Y-107812500D01*
G75*
G02*
X114137500Y-107875000I-62500J0D01*
G01*
X113562500Y-107875000D01*
G75*
G02*
X113500000Y-107812500I0J62500D01*
G01*
X113500000Y-107687500D01*
G75*
G02*
X113562500Y-107625000I62500J0D01*
G01*
X114137500Y-107625000D01*
G75*
G02*
X114200000Y-107687500I0J-62500D01*
G01*
G37*
G36*
G01*
X114200000Y-107187500D02*
X114200000Y-107312500D01*
G75*
G02*
X114137500Y-107375000I-62500J0D01*
G01*
X113562500Y-107375000D01*
G75*
G02*
X113500000Y-107312500I0J62500D01*
G01*
X113500000Y-107187500D01*
G75*
G02*
X113562500Y-107125000I62500J0D01*
G01*
X114137500Y-107125000D01*
G75*
G02*
X114200000Y-107187500I0J-62500D01*
G01*
G37*
G36*
G01*
X114875000Y-106062500D02*
X114875000Y-106637500D01*
G75*
G02*
X114812500Y-106700000I-62500J0D01*
G01*
X114687500Y-106700000D01*
G75*
G02*
X114625000Y-106637500I0J62500D01*
G01*
X114625000Y-106062500D01*
G75*
G02*
X114687500Y-106000000I62500J0D01*
G01*
X114812500Y-106000000D01*
G75*
G02*
X114875000Y-106062500I0J-62500D01*
G01*
G37*
G36*
G01*
X115375000Y-106062500D02*
X115375000Y-106637500D01*
G75*
G02*
X115312500Y-106700000I-62500J0D01*
G01*
X115187500Y-106700000D01*
G75*
G02*
X115125000Y-106637500I0J62500D01*
G01*
X115125000Y-106062500D01*
G75*
G02*
X115187500Y-106000000I62500J0D01*
G01*
X115312500Y-106000000D01*
G75*
G02*
X115375000Y-106062500I0J-62500D01*
G01*
G37*
G36*
G01*
X115875000Y-106062500D02*
X115875000Y-106637500D01*
G75*
G02*
X115812500Y-106700000I-62500J0D01*
G01*
X115687500Y-106700000D01*
G75*
G02*
X115625000Y-106637500I0J62500D01*
G01*
X115625000Y-106062500D01*
G75*
G02*
X115687500Y-106000000I62500J0D01*
G01*
X115812500Y-106000000D01*
G75*
G02*
X115875000Y-106062500I0J-62500D01*
G01*
G37*
G36*
G01*
X116375000Y-106062500D02*
X116375000Y-106637500D01*
G75*
G02*
X116312500Y-106700000I-62500J0D01*
G01*
X116187500Y-106700000D01*
G75*
G02*
X116125000Y-106637500I0J62500D01*
G01*
X116125000Y-106062500D01*
G75*
G02*
X116187500Y-106000000I62500J0D01*
G01*
X116312500Y-106000000D01*
G75*
G02*
X116375000Y-106062500I0J-62500D01*
G01*
G37*
G36*
G01*
X116875000Y-106062500D02*
X116875000Y-106637500D01*
G75*
G02*
X116812500Y-106700000I-62500J0D01*
G01*
X116687500Y-106700000D01*
G75*
G02*
X116625000Y-106637500I0J62500D01*
G01*
X116625000Y-106062500D01*
G75*
G02*
X116687500Y-106000000I62500J0D01*
G01*
X116812500Y-106000000D01*
G75*
G02*
X116875000Y-106062500I0J-62500D01*
G01*
G37*
G36*
G01*
X118000000Y-107187500D02*
X118000000Y-107312500D01*
G75*
G02*
X117937500Y-107375000I-62500J0D01*
G01*
X117362500Y-107375000D01*
G75*
G02*
X117300000Y-107312500I0J62500D01*
G01*
X117300000Y-107187500D01*
G75*
G02*
X117362500Y-107125000I62500J0D01*
G01*
X117937500Y-107125000D01*
G75*
G02*
X118000000Y-107187500I0J-62500D01*
G01*
G37*
G36*
G01*
X118000000Y-107687500D02*
X118000000Y-107812500D01*
G75*
G02*
X117937500Y-107875000I-62500J0D01*
G01*
X117362500Y-107875000D01*
G75*
G02*
X117300000Y-107812500I0J62500D01*
G01*
X117300000Y-107687500D01*
G75*
G02*
X117362500Y-107625000I62500J0D01*
G01*
X117937500Y-107625000D01*
G75*
G02*
X118000000Y-107687500I0J-62500D01*
G01*
G37*
G36*
G01*
X118000000Y-108187500D02*
X118000000Y-108312500D01*
G75*
G02*
X117937500Y-108375000I-62500J0D01*
G01*
X117362500Y-108375000D01*
G75*
G02*
X117300000Y-108312500I0J62500D01*
G01*
X117300000Y-108187500D01*
G75*
G02*
X117362500Y-108125000I62500J0D01*
G01*
X117937500Y-108125000D01*
G75*
G02*
X118000000Y-108187500I0J-62500D01*
G01*
G37*
G36*
G01*
X118000000Y-108687500D02*
X118000000Y-108812500D01*
G75*
G02*
X117937500Y-108875000I-62500J0D01*
G01*
X117362500Y-108875000D01*
G75*
G02*
X117300000Y-108812500I0J62500D01*
G01*
X117300000Y-108687500D01*
G75*
G02*
X117362500Y-108625000I62500J0D01*
G01*
X117937500Y-108625000D01*
G75*
G02*
X118000000Y-108687500I0J-62500D01*
G01*
G37*
G36*
G01*
X118000000Y-109187500D02*
X118000000Y-109312500D01*
G75*
G02*
X117937500Y-109375000I-62500J0D01*
G01*
X117362500Y-109375000D01*
G75*
G02*
X117300000Y-109312500I0J62500D01*
G01*
X117300000Y-109187500D01*
G75*
G02*
X117362500Y-109125000I62500J0D01*
G01*
X117937500Y-109125000D01*
G75*
G02*
X118000000Y-109187500I0J-62500D01*
G01*
G37*
%TD*%
%TO.C,R11*%
G36*
G01*
X112075000Y-115825000D02*
X112075000Y-116375000D01*
G75*
G02*
X111875000Y-116575000I-200000J0D01*
G01*
X111475000Y-116575000D01*
G75*
G02*
X111275000Y-116375000I0J200000D01*
G01*
X111275000Y-115825000D01*
G75*
G02*
X111475000Y-115625000I200000J0D01*
G01*
X111875000Y-115625000D01*
G75*
G02*
X112075000Y-115825000I0J-200000D01*
G01*
G37*
G36*
G01*
X113725000Y-115825000D02*
X113725000Y-116375000D01*
G75*
G02*
X113525000Y-116575000I-200000J0D01*
G01*
X113125000Y-116575000D01*
G75*
G02*
X112925000Y-116375000I0J200000D01*
G01*
X112925000Y-115825000D01*
G75*
G02*
X113125000Y-115625000I200000J0D01*
G01*
X113525000Y-115625000D01*
G75*
G02*
X113725000Y-115825000I0J-200000D01*
G01*
G37*
%TD*%
%TO.C,D3*%
G36*
G01*
X118925000Y-108975000D02*
X120175000Y-108975000D01*
G75*
G02*
X120425000Y-109225000I0J-250000D01*
G01*
X120425000Y-110150000D01*
G75*
G02*
X120175000Y-110400000I-250000J0D01*
G01*
X118925000Y-110400000D01*
G75*
G02*
X118675000Y-110150000I0J250000D01*
G01*
X118675000Y-109225000D01*
G75*
G02*
X118925000Y-108975000I250000J0D01*
G01*
G37*
G36*
G01*
X118925000Y-106000000D02*
X120175000Y-106000000D01*
G75*
G02*
X120425000Y-106250000I0J-250000D01*
G01*
X120425000Y-107175000D01*
G75*
G02*
X120175000Y-107425000I-250000J0D01*
G01*
X118925000Y-107425000D01*
G75*
G02*
X118675000Y-107175000I0J250000D01*
G01*
X118675000Y-106250000D01*
G75*
G02*
X118925000Y-106000000I250000J0D01*
G01*
G37*
%TD*%
D11*
%TO.C,D2*%
X117450000Y-119300000D03*
X117450000Y-120600000D03*
X115550000Y-119950000D03*
X117450000Y-119950000D03*
X115550000Y-120600000D03*
X115550000Y-119300000D03*
%TD*%
%TO.C,D1*%
X120950000Y-119300000D03*
X120950000Y-120600000D03*
X119050000Y-119950000D03*
X120950000Y-119950000D03*
X119050000Y-120600000D03*
X119050000Y-119300000D03*
%TD*%
%TO.C,C2*%
G36*
G01*
X112350000Y-108725000D02*
X112850000Y-108725000D01*
G75*
G02*
X113075000Y-108950000I0J-225000D01*
G01*
X113075000Y-109400000D01*
G75*
G02*
X112850000Y-109625000I-225000J0D01*
G01*
X112350000Y-109625000D01*
G75*
G02*
X112125000Y-109400000I0J225000D01*
G01*
X112125000Y-108950000D01*
G75*
G02*
X112350000Y-108725000I225000J0D01*
G01*
G37*
G36*
G01*
X112350000Y-107175000D02*
X112850000Y-107175000D01*
G75*
G02*
X113075000Y-107400000I0J-225000D01*
G01*
X113075000Y-107850000D01*
G75*
G02*
X112850000Y-108075000I-225000J0D01*
G01*
X112350000Y-108075000D01*
G75*
G02*
X112125000Y-107850000I0J225000D01*
G01*
X112125000Y-107400000D01*
G75*
G02*
X112350000Y-107175000I225000J0D01*
G01*
G37*
%TD*%
%TO.C,Reg1*%
G36*
G01*
X127600000Y-105500000D02*
X127600000Y-105000000D01*
G75*
G02*
X127850000Y-104750000I250000J0D01*
G01*
X128550000Y-104750000D01*
G75*
G02*
X128800000Y-105000000I0J-250000D01*
G01*
X128800000Y-105500000D01*
G75*
G02*
X128550000Y-105750000I-250000J0D01*
G01*
X127850000Y-105750000D01*
G75*
G02*
X127600000Y-105500000I0J250000D01*
G01*
G37*
G36*
G01*
X127600000Y-104350000D02*
X127600000Y-103850000D01*
G75*
G02*
X127850000Y-103600000I250000J0D01*
G01*
X128550000Y-103600000D01*
G75*
G02*
X128800000Y-103850000I0J-250000D01*
G01*
X128800000Y-104350000D01*
G75*
G02*
X128550000Y-104600000I-250000J0D01*
G01*
X127850000Y-104600000D01*
G75*
G02*
X127600000Y-104350000I0J250000D01*
G01*
G37*
G36*
G01*
X127600000Y-103200000D02*
X127600000Y-102700000D01*
G75*
G02*
X127850000Y-102450000I250000J0D01*
G01*
X128550000Y-102450000D01*
G75*
G02*
X128800000Y-102700000I0J-250000D01*
G01*
X128800000Y-103200000D01*
G75*
G02*
X128550000Y-103450000I-250000J0D01*
G01*
X127850000Y-103450000D01*
G75*
G02*
X127600000Y-103200000I0J250000D01*
G01*
G37*
G36*
G01*
X124600000Y-104350000D02*
X124600000Y-103850000D01*
G75*
G02*
X124850000Y-103600000I250000J0D01*
G01*
X125550000Y-103600000D01*
G75*
G02*
X125800000Y-103850000I0J-250000D01*
G01*
X125800000Y-104350000D01*
G75*
G02*
X125550000Y-104600000I-250000J0D01*
G01*
X124850000Y-104600000D01*
G75*
G02*
X124600000Y-104350000I0J250000D01*
G01*
G37*
G36*
G01*
X124600000Y-105500000D02*
X124600000Y-105000000D01*
G75*
G02*
X124850000Y-104750000I250000J0D01*
G01*
X125550000Y-104750000D01*
G75*
G02*
X125800000Y-105000000I0J-250000D01*
G01*
X125800000Y-105500000D01*
G75*
G02*
X125550000Y-105750000I-250000J0D01*
G01*
X124850000Y-105750000D01*
G75*
G02*
X124600000Y-105500000I0J250000D01*
G01*
G37*
G36*
G01*
X124600000Y-103200000D02*
X124600000Y-102700000D01*
G75*
G02*
X124850000Y-102450000I250000J0D01*
G01*
X125550000Y-102450000D01*
G75*
G02*
X125800000Y-102700000I0J-250000D01*
G01*
X125800000Y-103200000D01*
G75*
G02*
X125550000Y-103450000I-250000J0D01*
G01*
X124850000Y-103450000D01*
G75*
G02*
X124600000Y-103200000I0J250000D01*
G01*
G37*
D12*
X123750000Y-102700000D03*
X121850000Y-102700000D03*
X122800000Y-102700000D03*
X121850000Y-105400000D03*
X122800000Y-105400000D03*
X123750000Y-105400000D03*
G36*
G01*
X127725000Y-106150000D02*
X128675000Y-106150000D01*
G75*
G02*
X128925000Y-106400000I0J-250000D01*
G01*
X128925000Y-106900000D01*
G75*
G02*
X128675000Y-107150000I-250000J0D01*
G01*
X127725000Y-107150000D01*
G75*
G02*
X127475000Y-106900000I0J250000D01*
G01*
X127475000Y-106400000D01*
G75*
G02*
X127725000Y-106150000I250000J0D01*
G01*
G37*
G36*
G01*
X127725000Y-108050000D02*
X128675000Y-108050000D01*
G75*
G02*
X128925000Y-108300000I0J-250000D01*
G01*
X128925000Y-108800000D01*
G75*
G02*
X128675000Y-109050000I-250000J0D01*
G01*
X127725000Y-109050000D01*
G75*
G02*
X127475000Y-108800000I0J250000D01*
G01*
X127475000Y-108300000D01*
G75*
G02*
X127725000Y-108050000I250000J0D01*
G01*
G37*
G36*
G01*
X121475000Y-108050000D02*
X122425000Y-108050000D01*
G75*
G02*
X122675000Y-108300000I0J-250000D01*
G01*
X122675000Y-108800000D01*
G75*
G02*
X122425000Y-109050000I-250000J0D01*
G01*
X121475000Y-109050000D01*
G75*
G02*
X121225000Y-108800000I0J250000D01*
G01*
X121225000Y-108300000D01*
G75*
G02*
X121475000Y-108050000I250000J0D01*
G01*
G37*
G36*
G01*
X121475000Y-106150000D02*
X122425000Y-106150000D01*
G75*
G02*
X122675000Y-106400000I0J-250000D01*
G01*
X122675000Y-106900000D01*
G75*
G02*
X122425000Y-107150000I-250000J0D01*
G01*
X121475000Y-107150000D01*
G75*
G02*
X121225000Y-106900000I0J250000D01*
G01*
X121225000Y-106400000D01*
G75*
G02*
X121475000Y-106150000I250000J0D01*
G01*
G37*
G36*
G01*
X120950000Y-103725000D02*
X120450000Y-103725000D01*
G75*
G02*
X120225000Y-103500000I0J225000D01*
G01*
X120225000Y-103050000D01*
G75*
G02*
X120450000Y-102825000I225000J0D01*
G01*
X120950000Y-102825000D01*
G75*
G02*
X121175000Y-103050000I0J-225000D01*
G01*
X121175000Y-103500000D01*
G75*
G02*
X120950000Y-103725000I-225000J0D01*
G01*
G37*
G36*
G01*
X120950000Y-105275000D02*
X120450000Y-105275000D01*
G75*
G02*
X120225000Y-105050000I0J225000D01*
G01*
X120225000Y-104600000D01*
G75*
G02*
X120450000Y-104375000I225000J0D01*
G01*
X120950000Y-104375000D01*
G75*
G02*
X121175000Y-104600000I0J-225000D01*
G01*
X121175000Y-105050000D01*
G75*
G02*
X120950000Y-105275000I-225000J0D01*
G01*
G37*
G36*
G01*
X122875000Y-107845626D02*
X122875000Y-106594374D01*
G75*
G02*
X123124374Y-106345000I249374J0D01*
G01*
X124050626Y-106345000D01*
G75*
G02*
X124300000Y-106594374I0J-249374D01*
G01*
X124300000Y-107845626D01*
G75*
G02*
X124050626Y-108095000I-249374J0D01*
G01*
X123124374Y-108095000D01*
G75*
G02*
X122875000Y-107845626I0J249374D01*
G01*
G37*
G36*
G01*
X125850000Y-107845626D02*
X125850000Y-106594374D01*
G75*
G02*
X126099374Y-106345000I249374J0D01*
G01*
X127025626Y-106345000D01*
G75*
G02*
X127275000Y-106594374I0J-249374D01*
G01*
X127275000Y-107845626D01*
G75*
G02*
X127025626Y-108095000I-249374J0D01*
G01*
X126099374Y-108095000D01*
G75*
G02*
X125850000Y-107845626I0J249374D01*
G01*
G37*
%TD*%
%TO.C,R8*%
G36*
G01*
X119525000Y-111675000D02*
X119525000Y-111125000D01*
G75*
G02*
X119725000Y-110925000I200000J0D01*
G01*
X120125000Y-110925000D01*
G75*
G02*
X120325000Y-111125000I0J-200000D01*
G01*
X120325000Y-111675000D01*
G75*
G02*
X120125000Y-111875000I-200000J0D01*
G01*
X119725000Y-111875000D01*
G75*
G02*
X119525000Y-111675000I0J200000D01*
G01*
G37*
G36*
G01*
X117875000Y-111675000D02*
X117875000Y-111125000D01*
G75*
G02*
X118075000Y-110925000I200000J0D01*
G01*
X118475000Y-110925000D01*
G75*
G02*
X118675000Y-111125000I0J-200000D01*
G01*
X118675000Y-111675000D01*
G75*
G02*
X118475000Y-111875000I-200000J0D01*
G01*
X118075000Y-111875000D01*
G75*
G02*
X117875000Y-111675000I0J200000D01*
G01*
G37*
%TD*%
%TO.C,R7*%
G36*
G01*
X118675000Y-116525000D02*
X118675000Y-117075000D01*
G75*
G02*
X118475000Y-117275000I-200000J0D01*
G01*
X118075000Y-117275000D01*
G75*
G02*
X117875000Y-117075000I0J200000D01*
G01*
X117875000Y-116525000D01*
G75*
G02*
X118075000Y-116325000I200000J0D01*
G01*
X118475000Y-116325000D01*
G75*
G02*
X118675000Y-116525000I0J-200000D01*
G01*
G37*
G36*
G01*
X120325000Y-116525000D02*
X120325000Y-117075000D01*
G75*
G02*
X120125000Y-117275000I-200000J0D01*
G01*
X119725000Y-117275000D01*
G75*
G02*
X119525000Y-117075000I0J200000D01*
G01*
X119525000Y-116525000D01*
G75*
G02*
X119725000Y-116325000I200000J0D01*
G01*
X120125000Y-116325000D01*
G75*
G02*
X120325000Y-116525000I0J-200000D01*
G01*
G37*
%TD*%
%TO.C,J2*%
G36*
G01*
X125847500Y-114450000D02*
X125382500Y-114450000D01*
G75*
G02*
X125150000Y-114217500I0J232500D01*
G01*
X125150000Y-113752500D01*
G75*
G02*
X125382500Y-113520000I232500J0D01*
G01*
X125847500Y-113520000D01*
G75*
G02*
X126080000Y-113752500I0J-232500D01*
G01*
X126080000Y-114217500D01*
G75*
G02*
X125847500Y-114450000I-232500J0D01*
G01*
G37*
G36*
G01*
X126997500Y-114450000D02*
X126532500Y-114450000D01*
G75*
G02*
X126300000Y-114217500I0J232500D01*
G01*
X126300000Y-113752500D01*
G75*
G02*
X126532500Y-113520000I232500J0D01*
G01*
X126997500Y-113520000D01*
G75*
G02*
X127230000Y-113752500I0J-232500D01*
G01*
X127230000Y-114217500D01*
G75*
G02*
X126997500Y-114450000I-232500J0D01*
G01*
G37*
G36*
G01*
X128147500Y-114450000D02*
X127682500Y-114450000D01*
G75*
G02*
X127450000Y-114217500I0J232500D01*
G01*
X127450000Y-113752500D01*
G75*
G02*
X127682500Y-113520000I232500J0D01*
G01*
X128147500Y-113520000D01*
G75*
G02*
X128380000Y-113752500I0J-232500D01*
G01*
X128380000Y-114217500D01*
G75*
G02*
X128147500Y-114450000I-232500J0D01*
G01*
G37*
G36*
G01*
X124697500Y-113300000D02*
X124232500Y-113300000D01*
G75*
G02*
X124000000Y-113067500I0J232500D01*
G01*
X124000000Y-112602500D01*
G75*
G02*
X124232500Y-112370000I232500J0D01*
G01*
X124697500Y-112370000D01*
G75*
G02*
X124930000Y-112602500I0J-232500D01*
G01*
X124930000Y-113067500D01*
G75*
G02*
X124697500Y-113300000I-232500J0D01*
G01*
G37*
G36*
G01*
X125847500Y-113300000D02*
X125382500Y-113300000D01*
G75*
G02*
X125150000Y-113067500I0J232500D01*
G01*
X125150000Y-112602500D01*
G75*
G02*
X125382500Y-112370000I232500J0D01*
G01*
X125847500Y-112370000D01*
G75*
G02*
X126080000Y-112602500I0J-232500D01*
G01*
X126080000Y-113067500D01*
G75*
G02*
X125847500Y-113300000I-232500J0D01*
G01*
G37*
G36*
G01*
X126997500Y-113300000D02*
X126532500Y-113300000D01*
G75*
G02*
X126300000Y-113067500I0J232500D01*
G01*
X126300000Y-112602500D01*
G75*
G02*
X126532500Y-112370000I232500J0D01*
G01*
X126997500Y-112370000D01*
G75*
G02*
X127230000Y-112602500I0J-232500D01*
G01*
X127230000Y-113067500D01*
G75*
G02*
X126997500Y-113300000I-232500J0D01*
G01*
G37*
G36*
G01*
X128147500Y-113300000D02*
X127682500Y-113300000D01*
G75*
G02*
X127450000Y-113067500I0J232500D01*
G01*
X127450000Y-112602500D01*
G75*
G02*
X127682500Y-112370000I232500J0D01*
G01*
X128147500Y-112370000D01*
G75*
G02*
X128380000Y-112602500I0J-232500D01*
G01*
X128380000Y-113067500D01*
G75*
G02*
X128147500Y-113300000I-232500J0D01*
G01*
G37*
G36*
G01*
X124697500Y-112150000D02*
X124232500Y-112150000D01*
G75*
G02*
X124000000Y-111917500I0J232500D01*
G01*
X124000000Y-111452500D01*
G75*
G02*
X124232500Y-111220000I232500J0D01*
G01*
X124697500Y-111220000D01*
G75*
G02*
X124930000Y-111452500I0J-232500D01*
G01*
X124930000Y-111917500D01*
G75*
G02*
X124697500Y-112150000I-232500J0D01*
G01*
G37*
G36*
G01*
X125847500Y-112150000D02*
X125382500Y-112150000D01*
G75*
G02*
X125150000Y-111917500I0J232500D01*
G01*
X125150000Y-111452500D01*
G75*
G02*
X125382500Y-111220000I232500J0D01*
G01*
X125847500Y-111220000D01*
G75*
G02*
X126080000Y-111452500I0J-232500D01*
G01*
X126080000Y-111917500D01*
G75*
G02*
X125847500Y-112150000I-232500J0D01*
G01*
G37*
G36*
G01*
X126997500Y-112150000D02*
X126532500Y-112150000D01*
G75*
G02*
X126300000Y-111917500I0J232500D01*
G01*
X126300000Y-111452500D01*
G75*
G02*
X126532500Y-111220000I232500J0D01*
G01*
X126997500Y-111220000D01*
G75*
G02*
X127230000Y-111452500I0J-232500D01*
G01*
X127230000Y-111917500D01*
G75*
G02*
X126997500Y-112150000I-232500J0D01*
G01*
G37*
G36*
G01*
X128147500Y-112150000D02*
X127682500Y-112150000D01*
G75*
G02*
X127450000Y-111917500I0J232500D01*
G01*
X127450000Y-111452500D01*
G75*
G02*
X127682500Y-111220000I232500J0D01*
G01*
X128147500Y-111220000D01*
G75*
G02*
X128380000Y-111452500I0J-232500D01*
G01*
X128380000Y-111917500D01*
G75*
G02*
X128147500Y-112150000I-232500J0D01*
G01*
G37*
G36*
G01*
X124697500Y-115600000D02*
X124232500Y-115600000D01*
G75*
G02*
X124000000Y-115367500I0J232500D01*
G01*
X124000000Y-114902500D01*
G75*
G02*
X124232500Y-114670000I232500J0D01*
G01*
X124697500Y-114670000D01*
G75*
G02*
X124930000Y-114902500I0J-232500D01*
G01*
X124930000Y-115367500D01*
G75*
G02*
X124697500Y-115600000I-232500J0D01*
G01*
G37*
G36*
G01*
X125847500Y-115600000D02*
X125382500Y-115600000D01*
G75*
G02*
X125150000Y-115367500I0J232500D01*
G01*
X125150000Y-114902500D01*
G75*
G02*
X125382500Y-114670000I232500J0D01*
G01*
X125847500Y-114670000D01*
G75*
G02*
X126080000Y-114902500I0J-232500D01*
G01*
X126080000Y-115367500D01*
G75*
G02*
X125847500Y-115600000I-232500J0D01*
G01*
G37*
G36*
G01*
X126997500Y-115600000D02*
X126532500Y-115600000D01*
G75*
G02*
X126300000Y-115367500I0J232500D01*
G01*
X126300000Y-114902500D01*
G75*
G02*
X126532500Y-114670000I232500J0D01*
G01*
X126997500Y-114670000D01*
G75*
G02*
X127230000Y-114902500I0J-232500D01*
G01*
X127230000Y-115367500D01*
G75*
G02*
X126997500Y-115600000I-232500J0D01*
G01*
G37*
G36*
G01*
X128147500Y-115600000D02*
X127682500Y-115600000D01*
G75*
G02*
X127450000Y-115367500I0J232500D01*
G01*
X127450000Y-114902500D01*
G75*
G02*
X127682500Y-114670000I232500J0D01*
G01*
X128147500Y-114670000D01*
G75*
G02*
X128380000Y-114902500I0J-232500D01*
G01*
X128380000Y-115367500D01*
G75*
G02*
X128147500Y-115600000I-232500J0D01*
G01*
G37*
G36*
G01*
X124697500Y-114450000D02*
X124232500Y-114450000D01*
G75*
G02*
X124000000Y-114217500I0J232500D01*
G01*
X124000000Y-113752500D01*
G75*
G02*
X124232500Y-113520000I232500J0D01*
G01*
X124697500Y-113520000D01*
G75*
G02*
X124930000Y-113752500I0J-232500D01*
G01*
X124930000Y-114217500D01*
G75*
G02*
X124697500Y-114450000I-232500J0D01*
G01*
G37*
D13*
X122040000Y-115800000D03*
X122040000Y-111000000D03*
D14*
X122040000Y-113150000D03*
X122040000Y-113650000D03*
X122040000Y-112650000D03*
X122040000Y-114150000D03*
X122040000Y-112150000D03*
X122040000Y-114650000D03*
X122040000Y-111650000D03*
X122040000Y-115150000D03*
D13*
X122040000Y-110200000D03*
X122040000Y-116600000D03*
%TD*%
M02*
