M48
; DRILL file {KiCad (5.1.9-0-10_14)} date Saturday, June 19, 2021 at 09:47:37 AM
; FORMAT={-:-/ absolute / inch / decimal}
; #@! TF.CreationDate,2021-06-19T09:47:37+01:00
; #@! TF.GenerationSoftware,Kicad,Pcbnew,(5.1.9-0-10_14)
; #@! TF.FileFunction,Plated,1,2,PTH
FMAT,2
INCH
T1C0.0098
T2C0.0157
T3C0.0236
T4C0.0394
T5C0.0492
%
G90
G05
T1
X4.5571Y-4.2618
T2
X4.4011Y-4.4217
X4.4227Y-4.6434
X4.437Y-4.438
X4.4488Y-4.3543
X4.4882Y-5.0669
X4.492Y-4.3784
X4.4922Y-4.6053
X4.5118Y-4.0669
X4.5148Y-4.4185
X4.5679Y-4.3895
X4.609Y-4.1278
X4.6178Y-4.5673
X4.623Y-4.1645
X4.6243Y-4.6537
X4.6424Y-4.5365
X4.6644Y-4.4692
X4.689Y-4.563
X4.7094Y-4.0559
X4.7126Y-4.1535
X4.7514Y-4.4514
X4.9173Y-4.636
T3
X4.8469Y-4.3508
X4.8469Y-4.5783
T4
X4.4506Y-4.8386
X4.5506Y-4.8386
X4.6506Y-4.8386
X4.7506Y-4.8386
X4.8506Y-4.8386
X4.9506Y-4.8386
X4.9843Y-4.9394
X4.9843Y-5.0394
X4.9917Y-4.2945
X4.9917Y-4.6346
T5
X4.8276Y-4.2945
X4.8276Y-4.6346
T0
M30
