%TF.GenerationSoftware,KiCad,Pcbnew,(5.1.9-0-10_14)*%
%TF.CreationDate,2021-05-23T12:15:57+01:00*%
%TF.ProjectId,Generic,47656e65-7269-4632-9e6b-696361645f70,3*%
%TF.SameCoordinates,Original*%
%TF.FileFunction,Copper,L1,Top*%
%TF.FilePolarity,Positive*%
%FSLAX46Y46*%
G04 Gerber Fmt 4.6, Leading zero omitted, Abs format (unit mm)*
G04 Created by KiCad (PCBNEW (5.1.9-0-10_14)) date 2021-05-23 12:15:57*
%MOMM*%
%LPD*%
G01*
G04 APERTURE LIST*
%TA.AperFunction,NonConductor*%
%ADD10C,0.080000*%
%TD*%
%TA.AperFunction,EtchedComponent*%
%ADD11C,0.250000*%
%TD*%
%TA.AperFunction,EtchedComponent*%
%ADD12C,0.500000*%
%TD*%
%TA.AperFunction,SMDPad,CuDef*%
%ADD13C,0.100000*%
%TD*%
%TA.AperFunction,SMDPad,CuDef*%
%ADD14R,0.500000X4.000000*%
%TD*%
%TA.AperFunction,SMDPad,CuDef*%
%ADD15R,0.600000X1.100000*%
%TD*%
%TA.AperFunction,SMDPad,CuDef*%
%ADD16R,1.425000X3.700000*%
%TD*%
%TA.AperFunction,ComponentPad*%
%ADD17R,1.700000X1.700000*%
%TD*%
%TA.AperFunction,ComponentPad*%
%ADD18O,1.700000X1.700000*%
%TD*%
%TA.AperFunction,ComponentPad*%
%ADD19C,0.350000*%
%TD*%
%TA.AperFunction,SMDPad,CuDef*%
%ADD20R,0.200000X0.200000*%
%TD*%
%TA.AperFunction,SMDPad,CuDef*%
%ADD21C,0.500000*%
%TD*%
%TA.AperFunction,SMDPad,CuDef*%
%ADD22R,0.500000X0.200000*%
%TD*%
%TA.AperFunction,SMDPad,CuDef*%
%ADD23R,1.140000X0.600000*%
%TD*%
%TA.AperFunction,ComponentPad*%
%ADD24C,1.700000*%
%TD*%
%TA.AperFunction,ComponentPad*%
%ADD25C,2.000000*%
%TD*%
%TA.AperFunction,SMDPad,CuDef*%
%ADD26R,1.140000X0.300000*%
%TD*%
%TA.AperFunction,ComponentPad*%
%ADD27C,0.600000*%
%TD*%
%TA.AperFunction,ViaPad*%
%ADD28C,0.800000*%
%TD*%
%TA.AperFunction,Conductor*%
%ADD29C,0.250000*%
%TD*%
%TA.AperFunction,Conductor*%
%ADD30C,0.500000*%
%TD*%
%TA.AperFunction,Conductor*%
%ADD31C,0.254000*%
%TD*%
%TA.AperFunction,Conductor*%
%ADD32C,0.100000*%
%TD*%
G04 APERTURE END LIST*
D10*
X110626190Y-110521428D02*
X110650000Y-110545238D01*
X110673809Y-110592857D01*
X110673809Y-110711904D01*
X110650000Y-110759523D01*
X110626190Y-110783333D01*
X110578571Y-110807142D01*
X110530952Y-110807142D01*
X110459523Y-110783333D01*
X110173809Y-110497619D01*
X110173809Y-110807142D01*
X110673809Y-111116666D02*
X110673809Y-111164285D01*
X110650000Y-111211904D01*
X110626190Y-111235714D01*
X110578571Y-111259523D01*
X110483333Y-111283333D01*
X110364285Y-111283333D01*
X110269047Y-111259523D01*
X110221428Y-111235714D01*
X110197619Y-111211904D01*
X110173809Y-111164285D01*
X110173809Y-111116666D01*
X110197619Y-111069047D01*
X110221428Y-111045238D01*
X110269047Y-111021428D01*
X110364285Y-110997619D01*
X110483333Y-110997619D01*
X110578571Y-111021428D01*
X110626190Y-111045238D01*
X110650000Y-111069047D01*
X110673809Y-111116666D01*
X110626190Y-111473809D02*
X110650000Y-111497619D01*
X110673809Y-111545238D01*
X110673809Y-111664285D01*
X110650000Y-111711904D01*
X110626190Y-111735714D01*
X110578571Y-111759523D01*
X110530952Y-111759523D01*
X110459523Y-111735714D01*
X110173809Y-111450000D01*
X110173809Y-111759523D01*
X110173809Y-112235714D02*
X110173809Y-111950000D01*
X110173809Y-112092857D02*
X110673809Y-112092857D01*
X110602380Y-112045238D01*
X110554761Y-111997619D01*
X110530952Y-111950000D01*
X110364285Y-112450000D02*
X110364285Y-112830952D01*
X110673809Y-113164285D02*
X110673809Y-113211904D01*
X110650000Y-113259523D01*
X110626190Y-113283333D01*
X110578571Y-113307142D01*
X110483333Y-113330952D01*
X110364285Y-113330952D01*
X110269047Y-113307142D01*
X110221428Y-113283333D01*
X110197619Y-113259523D01*
X110173809Y-113211904D01*
X110173809Y-113164285D01*
X110197619Y-113116666D01*
X110221428Y-113092857D01*
X110269047Y-113069047D01*
X110364285Y-113045238D01*
X110483333Y-113045238D01*
X110578571Y-113069047D01*
X110626190Y-113092857D01*
X110650000Y-113116666D01*
X110673809Y-113164285D01*
X110673809Y-113783333D02*
X110673809Y-113545238D01*
X110435714Y-113521428D01*
X110459523Y-113545238D01*
X110483333Y-113592857D01*
X110483333Y-113711904D01*
X110459523Y-113759523D01*
X110435714Y-113783333D01*
X110388095Y-113807142D01*
X110269047Y-113807142D01*
X110221428Y-113783333D01*
X110197619Y-113759523D01*
X110173809Y-113711904D01*
X110173809Y-113592857D01*
X110197619Y-113545238D01*
X110221428Y-113521428D01*
X110364285Y-114021428D02*
X110364285Y-114402380D01*
X110173809Y-114902380D02*
X110173809Y-114616666D01*
X110173809Y-114759523D02*
X110673809Y-114759523D01*
X110602380Y-114711904D01*
X110554761Y-114664285D01*
X110530952Y-114616666D01*
X110173809Y-115378571D02*
X110173809Y-115092857D01*
X110173809Y-115235714D02*
X110673809Y-115235714D01*
X110602380Y-115188095D01*
X110554761Y-115140476D01*
X110530952Y-115092857D01*
D11*
%TO.C,Reg1*%
X113350000Y-104600000D02*
G75*
G02*
X113700000Y-104950000I0J-350000D01*
G01*
X113700000Y-103350000D02*
G75*
G02*
X113350000Y-103700000I-350000J0D01*
G01*
X111800000Y-102250000D02*
G75*
G02*
X112820000Y-101230000I1020000J0D01*
G01*
X116440000Y-101230043D02*
G75*
G02*
X117560000Y-102350000I0J-1120000D01*
G01*
X112820000Y-101230000D02*
X116440000Y-101230043D01*
X110750000Y-103700000D02*
X113350000Y-103700000D01*
X110850000Y-104600000D02*
X113350000Y-104600000D01*
D12*
X113700000Y-105500000D02*
X115200000Y-105500000D01*
X113700000Y-106700000D02*
X113700000Y-105500000D01*
%TD*%
%TA.AperFunction,SMDPad,CuDef*%
D13*
%TO.P,Reg1,2*%
%TO.N,VBUS*%
G36*
X112703956Y-105450389D02*
G01*
X112728247Y-105452943D01*
X112752173Y-105457854D01*
X112775506Y-105465076D01*
X112798022Y-105474542D01*
X112819508Y-105486159D01*
X112839756Y-105499818D01*
X112858576Y-105515387D01*
X112875787Y-105532717D01*
X112891224Y-105551646D01*
X112904740Y-105571990D01*
X112916207Y-105593556D01*
X112925515Y-105616137D01*
X112932574Y-105639520D01*
X112937318Y-105663480D01*
X112939702Y-105687788D01*
X112939702Y-105712213D01*
X112934929Y-105809776D01*
X112934929Y-105809795D01*
X112934927Y-105809817D01*
X112934734Y-105813282D01*
X112933566Y-105823698D01*
X112932545Y-105834103D01*
X112918273Y-105930754D01*
X112917739Y-105934204D01*
X112915564Y-105944436D01*
X112913529Y-105954715D01*
X112889893Y-106049513D01*
X112889025Y-106052894D01*
X112885863Y-106062859D01*
X112882834Y-106072894D01*
X112850061Y-106164932D01*
X112848867Y-106168213D01*
X112844739Y-106177844D01*
X112840754Y-106187513D01*
X112799156Y-106275915D01*
X112797647Y-106279064D01*
X112792589Y-106288264D01*
X112787687Y-106297484D01*
X112737660Y-106381404D01*
X112735852Y-106384390D01*
X112729914Y-106393062D01*
X112724143Y-106401748D01*
X112666176Y-106480371D01*
X112666169Y-106480382D01*
X112666160Y-106480393D01*
X112664076Y-106483181D01*
X112657341Y-106491207D01*
X112650731Y-106499311D01*
X112585365Y-106571908D01*
X112585357Y-106571917D01*
X112585347Y-106571927D01*
X112583005Y-106574494D01*
X112575494Y-106581849D01*
X112568146Y-106589248D01*
X112496010Y-106655117D01*
X112496001Y-106655126D01*
X112495990Y-106655135D01*
X112493405Y-106657463D01*
X112485263Y-106664009D01*
X112477181Y-106670695D01*
X112398950Y-106729220D01*
X112396140Y-106731292D01*
X112387368Y-106737032D01*
X112378700Y-106742879D01*
X112295140Y-106793484D01*
X112295131Y-106793490D01*
X112295120Y-106793496D01*
X112292132Y-106795278D01*
X112282842Y-106800134D01*
X112273645Y-106805107D01*
X112185553Y-106847313D01*
X112185537Y-106847322D01*
X112185517Y-106847330D01*
X112182378Y-106848808D01*
X112172671Y-106852730D01*
X112163020Y-106856786D01*
X112071219Y-106890198D01*
X112071213Y-106890201D01*
X112071205Y-106890203D01*
X112067923Y-106891373D01*
X112057875Y-106894330D01*
X112047880Y-106897424D01*
X111953251Y-106921721D01*
X111949864Y-106922566D01*
X111939553Y-106924533D01*
X111929325Y-106926632D01*
X111832775Y-106941579D01*
X111829322Y-106942089D01*
X111818875Y-106943040D01*
X111808484Y-106944132D01*
X111710937Y-106949586D01*
X111707450Y-106949757D01*
X111702646Y-106949723D01*
X111697840Y-106949975D01*
X111690859Y-106949999D01*
X111687368Y-106949987D01*
X111662987Y-106948536D01*
X111638863Y-106944714D01*
X111615228Y-106938556D01*
X111592306Y-106930121D01*
X111570316Y-106919490D01*
X111549468Y-106906762D01*
X111529962Y-106892062D01*
X111511984Y-106875529D01*
X111495706Y-106857320D01*
X111481281Y-106837609D01*
X111468848Y-106816585D01*
X111458527Y-106794448D01*
X111450416Y-106771409D01*
X111444590Y-106747689D01*
X111441108Y-106723514D01*
X111440001Y-106699114D01*
X111441282Y-106674723D01*
X111444935Y-106650573D01*
X111450927Y-106626894D01*
X111459202Y-106603914D01*
X111469681Y-106581851D01*
X111482262Y-106560915D01*
X111496825Y-106541307D01*
X111513232Y-106523214D01*
X111531328Y-106506808D01*
X111550937Y-106492247D01*
X111571874Y-106479668D01*
X111593938Y-106469192D01*
X111616920Y-106460920D01*
X111640598Y-106454929D01*
X111664749Y-106451278D01*
X111689141Y-106450001D01*
X111689580Y-106449999D01*
X111768362Y-106445595D01*
X111840744Y-106434389D01*
X111911700Y-106416171D01*
X111980527Y-106391119D01*
X112046585Y-106359469D01*
X112109224Y-106321534D01*
X112167879Y-106277653D01*
X112221968Y-106228264D01*
X112270975Y-106173835D01*
X112314445Y-106114873D01*
X112351944Y-106051969D01*
X112383133Y-105985689D01*
X112407703Y-105916687D01*
X112425424Y-105845613D01*
X112436123Y-105773155D01*
X112440299Y-105687786D01*
X112440493Y-105684301D01*
X112443216Y-105660029D01*
X112448294Y-105636137D01*
X112455680Y-105612856D01*
X112465302Y-105590406D01*
X112477068Y-105569003D01*
X112490869Y-105548849D01*
X112506568Y-105530139D01*
X112524019Y-105513050D01*
X112543054Y-105497745D01*
X112563492Y-105484371D01*
X112585138Y-105473055D01*
X112607784Y-105463905D01*
X112631216Y-105457010D01*
X112655208Y-105452432D01*
X112679532Y-105450219D01*
X112703956Y-105450389D01*
G37*
%TD.AperFunction*%
%TA.AperFunction,SMDPad,CuDef*%
%TO.P,Reg1,3*%
%TO.N,GND*%
G36*
X116203491Y-101550024D02*
G01*
X116207858Y-101550299D01*
X116212214Y-101550299D01*
X116256107Y-101552446D01*
X116256121Y-101552446D01*
X116256137Y-101552448D01*
X116259613Y-101552641D01*
X116270056Y-101553813D01*
X116280430Y-101554830D01*
X116323919Y-101561251D01*
X116323925Y-101561252D01*
X116323932Y-101561253D01*
X116327374Y-101561785D01*
X116337668Y-101563973D01*
X116347885Y-101565996D01*
X116390528Y-101576628D01*
X116390543Y-101576631D01*
X116390559Y-101576636D01*
X116393926Y-101577500D01*
X116403902Y-101580665D01*
X116413925Y-101583691D01*
X116455343Y-101598439D01*
X116455349Y-101598441D01*
X116455353Y-101598443D01*
X116458624Y-101599633D01*
X116468236Y-101603753D01*
X116477931Y-101607749D01*
X116517712Y-101626469D01*
X116520860Y-101627978D01*
X116530028Y-101633018D01*
X116539269Y-101637932D01*
X116577033Y-101660443D01*
X116580019Y-101662251D01*
X116588676Y-101668178D01*
X116597382Y-101673963D01*
X116632751Y-101700039D01*
X116632768Y-101700051D01*
X116632786Y-101700066D01*
X116635565Y-101702144D01*
X116643575Y-101708865D01*
X116651696Y-101715489D01*
X116684368Y-101744907D01*
X116686946Y-101747261D01*
X116694260Y-101754730D01*
X116701698Y-101762116D01*
X116731333Y-101794571D01*
X116731345Y-101794583D01*
X116731357Y-101794598D01*
X116733680Y-101797176D01*
X116740243Y-101805339D01*
X116746914Y-101813403D01*
X116773250Y-101848607D01*
X116775322Y-101851417D01*
X116781058Y-101860184D01*
X116786908Y-101868856D01*
X116809683Y-101906462D01*
X116811471Y-101909461D01*
X116816307Y-101918712D01*
X116821302Y-101927950D01*
X116840298Y-101967600D01*
X116841784Y-101970758D01*
X116845704Y-101980461D01*
X116849761Y-101990111D01*
X116864791Y-102031406D01*
X116864798Y-102031424D01*
X116864805Y-102031445D01*
X116865969Y-102034713D01*
X116868932Y-102044782D01*
X116872020Y-102054757D01*
X116882951Y-102097328D01*
X116882955Y-102097342D01*
X116882958Y-102097359D01*
X116883799Y-102100728D01*
X116885761Y-102111014D01*
X116887866Y-102121268D01*
X116894592Y-102164716D01*
X116895102Y-102168169D01*
X116896053Y-102178620D01*
X116897145Y-102189008D01*
X116899599Y-102232904D01*
X116899770Y-102236391D01*
X116899736Y-102241199D01*
X116899987Y-102245983D01*
X116899998Y-102249125D01*
X116899996Y-102249909D01*
X116900000Y-102250000D01*
X116900000Y-107050000D01*
X116899976Y-107053491D01*
X116898442Y-107077867D01*
X116894537Y-107101978D01*
X116888298Y-107125592D01*
X116879784Y-107148485D01*
X116869077Y-107170438D01*
X116856278Y-107191242D01*
X116841511Y-107210697D01*
X116824916Y-107228618D01*
X116806651Y-107244834D01*
X116786891Y-107259191D01*
X116765824Y-107271551D01*
X116762500Y-107273087D01*
X116762500Y-108400000D01*
X118250000Y-108400000D01*
X118253491Y-108400024D01*
X118277867Y-108401558D01*
X118301978Y-108405463D01*
X118325592Y-108411702D01*
X118348485Y-108420216D01*
X118370438Y-108430923D01*
X118391242Y-108443722D01*
X118410697Y-108458489D01*
X118428618Y-108475084D01*
X118444834Y-108493349D01*
X118459191Y-108513109D01*
X118471551Y-108534176D01*
X118481796Y-108556348D01*
X118489828Y-108579415D01*
X118495572Y-108603155D01*
X118498971Y-108627342D01*
X118499994Y-108651745D01*
X118498630Y-108676132D01*
X118494894Y-108700269D01*
X118488820Y-108723927D01*
X118480466Y-108746879D01*
X118469912Y-108768906D01*
X118457259Y-108789798D01*
X118442628Y-108809356D01*
X118426159Y-108827393D01*
X118408007Y-108843736D01*
X118388348Y-108858230D01*
X118367368Y-108870737D01*
X118345268Y-108881137D01*
X118322258Y-108889330D01*
X118298559Y-108895239D01*
X118274396Y-108898807D01*
X118250000Y-108900000D01*
X111650000Y-108900000D01*
X111646509Y-108899976D01*
X111622133Y-108898442D01*
X111598022Y-108894537D01*
X111574408Y-108888298D01*
X111551515Y-108879784D01*
X111529562Y-108869077D01*
X111508758Y-108856278D01*
X111489303Y-108841511D01*
X111471382Y-108824916D01*
X111455166Y-108806651D01*
X111440809Y-108786891D01*
X111428449Y-108765824D01*
X111418204Y-108743652D01*
X111410172Y-108720585D01*
X111404428Y-108696845D01*
X111401029Y-108672658D01*
X111400006Y-108648255D01*
X111401370Y-108623868D01*
X111405106Y-108599731D01*
X111411180Y-108576073D01*
X111419534Y-108553121D01*
X111430088Y-108531094D01*
X111442741Y-108510202D01*
X111457372Y-108490644D01*
X111473841Y-108472607D01*
X111491993Y-108456264D01*
X111511652Y-108441770D01*
X111532632Y-108429263D01*
X111554732Y-108418863D01*
X111577742Y-108410670D01*
X111601441Y-108404761D01*
X111625604Y-108401193D01*
X111650000Y-108400000D01*
X116262500Y-108400000D01*
X116262500Y-107050000D01*
X116262524Y-107046509D01*
X116264058Y-107022133D01*
X116267963Y-106998022D01*
X116274202Y-106974408D01*
X116282716Y-106951515D01*
X116293423Y-106929562D01*
X116306222Y-106908758D01*
X116320989Y-106889303D01*
X116337584Y-106871382D01*
X116355849Y-106855166D01*
X116375609Y-106840809D01*
X116396676Y-106828449D01*
X116400000Y-106826913D01*
X116400000Y-102254033D01*
X116398608Y-102229127D01*
X116395622Y-102209842D01*
X116390772Y-102190954D01*
X116384095Y-102172608D01*
X116375664Y-102155013D01*
X116365560Y-102138329D01*
X116353874Y-102122708D01*
X116340715Y-102108297D01*
X116326212Y-102095239D01*
X116310516Y-102083666D01*
X116293757Y-102073676D01*
X116276099Y-102065367D01*
X116257720Y-102058822D01*
X116238793Y-102054103D01*
X116219485Y-102051252D01*
X116193899Y-102050000D01*
X113204033Y-102050000D01*
X113179127Y-102051392D01*
X113159842Y-102054378D01*
X113140954Y-102059228D01*
X113122608Y-102065905D01*
X113105013Y-102074336D01*
X113088329Y-102084440D01*
X113072708Y-102096126D01*
X113058297Y-102109285D01*
X113045239Y-102123788D01*
X113033666Y-102139484D01*
X113023676Y-102156243D01*
X113015367Y-102173901D01*
X113008822Y-102192280D01*
X113004103Y-102211207D01*
X113001252Y-102230515D01*
X113000000Y-102256101D01*
X113000000Y-102750000D01*
X112999976Y-102753491D01*
X112998442Y-102777867D01*
X112994537Y-102801978D01*
X112988298Y-102825592D01*
X112979784Y-102848485D01*
X112969077Y-102870438D01*
X112956278Y-102891242D01*
X112941511Y-102910697D01*
X112924916Y-102928618D01*
X112906651Y-102944834D01*
X112886891Y-102959191D01*
X112865824Y-102971551D01*
X112843652Y-102981796D01*
X112820585Y-102989828D01*
X112796845Y-102995572D01*
X112772658Y-102998971D01*
X112748255Y-102999994D01*
X112723868Y-102998630D01*
X112699731Y-102994894D01*
X112676073Y-102988820D01*
X112653121Y-102980466D01*
X112631094Y-102969912D01*
X112610202Y-102957259D01*
X112590644Y-102942628D01*
X112572607Y-102926159D01*
X112556264Y-102908007D01*
X112541770Y-102888348D01*
X112529263Y-102867368D01*
X112518863Y-102845268D01*
X112510670Y-102822258D01*
X112504761Y-102798559D01*
X112501193Y-102774396D01*
X112500000Y-102750000D01*
X112500000Y-102250000D01*
X112500024Y-102246509D01*
X112500299Y-102242142D01*
X112500299Y-102237786D01*
X112502446Y-102193893D01*
X112502446Y-102193879D01*
X112502448Y-102193863D01*
X112502641Y-102190387D01*
X112503813Y-102179944D01*
X112504830Y-102169570D01*
X112511252Y-102126077D01*
X112511785Y-102122626D01*
X112513973Y-102112332D01*
X112515996Y-102102115D01*
X112526628Y-102059472D01*
X112526631Y-102059457D01*
X112526636Y-102059441D01*
X112527500Y-102056074D01*
X112530665Y-102046098D01*
X112533691Y-102036075D01*
X112548439Y-101994657D01*
X112549633Y-101991376D01*
X112553753Y-101981764D01*
X112557749Y-101972069D01*
X112576469Y-101932288D01*
X112577978Y-101929140D01*
X112583018Y-101919972D01*
X112587932Y-101910731D01*
X112610443Y-101872967D01*
X112612251Y-101869981D01*
X112618178Y-101861324D01*
X112623963Y-101852618D01*
X112650039Y-101817249D01*
X112650051Y-101817232D01*
X112650066Y-101817214D01*
X112652144Y-101814435D01*
X112658865Y-101806425D01*
X112665489Y-101798304D01*
X112694907Y-101765632D01*
X112697261Y-101763054D01*
X112704730Y-101755740D01*
X112712116Y-101748302D01*
X112744571Y-101718667D01*
X112744583Y-101718655D01*
X112744598Y-101718643D01*
X112747176Y-101716320D01*
X112755339Y-101709757D01*
X112763403Y-101703086D01*
X112798607Y-101676750D01*
X112801417Y-101674678D01*
X112810184Y-101668942D01*
X112818856Y-101663092D01*
X112856462Y-101640317D01*
X112859461Y-101638529D01*
X112868712Y-101633693D01*
X112877950Y-101628698D01*
X112917600Y-101609702D01*
X112920758Y-101608216D01*
X112930461Y-101604296D01*
X112940111Y-101600239D01*
X112981406Y-101585209D01*
X112981424Y-101585202D01*
X112981445Y-101585195D01*
X112984713Y-101584031D01*
X112994782Y-101581068D01*
X113004757Y-101577980D01*
X113047328Y-101567049D01*
X113047342Y-101567045D01*
X113047359Y-101567042D01*
X113050728Y-101566201D01*
X113061014Y-101564239D01*
X113071268Y-101562134D01*
X113114716Y-101555408D01*
X113118169Y-101554898D01*
X113128620Y-101553947D01*
X113139008Y-101552855D01*
X113182904Y-101550401D01*
X113186391Y-101550230D01*
X113191199Y-101550264D01*
X113195983Y-101550013D01*
X113199125Y-101550002D01*
X113199909Y-101550004D01*
X113200000Y-101550000D01*
X116200000Y-101550000D01*
X116203491Y-101550024D01*
G37*
%TD.AperFunction*%
D14*
%TO.P,Reg1,4*%
%TO.N,+3V3*%
X118150000Y-104950000D03*
D15*
%TO.P,Reg1,~*%
%TO.N,N/C*%
X113700000Y-102800000D03*
X111800000Y-102800000D03*
%TO.P,Reg1,3*%
%TO.N,GND*%
X112750000Y-102800000D03*
%TO.P,Reg1,1*%
%TO.N,VBUS*%
X111800000Y-105500000D03*
%TO.P,Reg1,2*%
X112750000Y-105500000D03*
%TO.P,Reg1,~*%
%TO.N,N/C*%
X113700000Y-105500000D03*
%TO.P,Reg1,4*%
%TO.N,+3V3*%
%TA.AperFunction,SMDPad,CuDef*%
G36*
G01*
X117675000Y-106250000D02*
X118625000Y-106250000D01*
G75*
G02*
X118875000Y-106500000I0J-250000D01*
G01*
X118875000Y-107000000D01*
G75*
G02*
X118625000Y-107250000I-250000J0D01*
G01*
X117675000Y-107250000D01*
G75*
G02*
X117425000Y-107000000I0J250000D01*
G01*
X117425000Y-106500000D01*
G75*
G02*
X117675000Y-106250000I250000J0D01*
G01*
G37*
%TD.AperFunction*%
%TO.P,Reg1,3*%
%TO.N,GND*%
%TA.AperFunction,SMDPad,CuDef*%
G36*
G01*
X117675000Y-108150000D02*
X118625000Y-108150000D01*
G75*
G02*
X118875000Y-108400000I0J-250000D01*
G01*
X118875000Y-108900000D01*
G75*
G02*
X118625000Y-109150000I-250000J0D01*
G01*
X117675000Y-109150000D01*
G75*
G02*
X117425000Y-108900000I0J250000D01*
G01*
X117425000Y-108400000D01*
G75*
G02*
X117675000Y-108150000I250000J0D01*
G01*
G37*
%TD.AperFunction*%
%TA.AperFunction,SMDPad,CuDef*%
G36*
G01*
X111425000Y-108150000D02*
X112375000Y-108150000D01*
G75*
G02*
X112625000Y-108400000I0J-250000D01*
G01*
X112625000Y-108900000D01*
G75*
G02*
X112375000Y-109150000I-250000J0D01*
G01*
X111425000Y-109150000D01*
G75*
G02*
X111175000Y-108900000I0J250000D01*
G01*
X111175000Y-108400000D01*
G75*
G02*
X111425000Y-108150000I250000J0D01*
G01*
G37*
%TD.AperFunction*%
%TO.P,Reg1,2*%
%TO.N,VBUS*%
%TA.AperFunction,SMDPad,CuDef*%
G36*
G01*
X111425000Y-106250000D02*
X112375000Y-106250000D01*
G75*
G02*
X112625000Y-106500000I0J-250000D01*
G01*
X112625000Y-107000000D01*
G75*
G02*
X112375000Y-107250000I-250000J0D01*
G01*
X111425000Y-107250000D01*
G75*
G02*
X111175000Y-107000000I0J250000D01*
G01*
X111175000Y-106500000D01*
G75*
G02*
X111425000Y-106250000I250000J0D01*
G01*
G37*
%TD.AperFunction*%
%TO.P,Reg1,~*%
%TO.N,N/C*%
%TA.AperFunction,SMDPad,CuDef*%
G36*
G01*
X110900000Y-103825000D02*
X110400000Y-103825000D01*
G75*
G02*
X110175000Y-103600000I0J225000D01*
G01*
X110175000Y-103150000D01*
G75*
G02*
X110400000Y-102925000I225000J0D01*
G01*
X110900000Y-102925000D01*
G75*
G02*
X111125000Y-103150000I0J-225000D01*
G01*
X111125000Y-103600000D01*
G75*
G02*
X110900000Y-103825000I-225000J0D01*
G01*
G37*
%TD.AperFunction*%
%TA.AperFunction,SMDPad,CuDef*%
G36*
G01*
X110900000Y-105375000D02*
X110400000Y-105375000D01*
G75*
G02*
X110175000Y-105150000I0J225000D01*
G01*
X110175000Y-104700000D01*
G75*
G02*
X110400000Y-104475000I225000J0D01*
G01*
X110900000Y-104475000D01*
G75*
G02*
X111125000Y-104700000I0J-225000D01*
G01*
X111125000Y-105150000D01*
G75*
G02*
X110900000Y-105375000I-225000J0D01*
G01*
G37*
%TD.AperFunction*%
%TA.AperFunction,SMDPad,CuDef*%
G36*
G01*
X112825000Y-107945626D02*
X112825000Y-106694374D01*
G75*
G02*
X113074374Y-106445000I249374J0D01*
G01*
X114000626Y-106445000D01*
G75*
G02*
X114250000Y-106694374I0J-249374D01*
G01*
X114250000Y-107945626D01*
G75*
G02*
X114000626Y-108195000I-249374J0D01*
G01*
X113074374Y-108195000D01*
G75*
G02*
X112825000Y-107945626I0J249374D01*
G01*
G37*
%TD.AperFunction*%
%TO.P,Reg1,3*%
%TO.N,GND*%
%TA.AperFunction,SMDPad,CuDef*%
G36*
G01*
X115800000Y-107945626D02*
X115800000Y-106694374D01*
G75*
G02*
X116049374Y-106445000I249374J0D01*
G01*
X116975626Y-106445000D01*
G75*
G02*
X117225000Y-106694374I0J-249374D01*
G01*
X117225000Y-107945626D01*
G75*
G02*
X116975626Y-108195000I-249374J0D01*
G01*
X116049374Y-108195000D01*
G75*
G02*
X115800000Y-107945626I0J249374D01*
G01*
G37*
%TD.AperFunction*%
D16*
%TO.P,Reg1,4*%
%TO.N,+3V3*%
X118150000Y-104200000D03*
%TO.P,Reg1,~*%
%TO.N,N/C*%
X115150000Y-104200000D03*
%TD*%
%TO.P,D1,2*%
%TO.N,Net-(D1-Pad2)*%
%TA.AperFunction,SMDPad,CuDef*%
G36*
G01*
X128056250Y-102450000D02*
X127543750Y-102450000D01*
G75*
G02*
X127325000Y-102231250I0J218750D01*
G01*
X127325000Y-101793750D01*
G75*
G02*
X127543750Y-101575000I218750J0D01*
G01*
X128056250Y-101575000D01*
G75*
G02*
X128275000Y-101793750I0J-218750D01*
G01*
X128275000Y-102231250D01*
G75*
G02*
X128056250Y-102450000I-218750J0D01*
G01*
G37*
%TD.AperFunction*%
%TO.P,D1,1*%
%TO.N,Net-(D1-Pad1)*%
%TA.AperFunction,SMDPad,CuDef*%
G36*
G01*
X128056250Y-104025000D02*
X127543750Y-104025000D01*
G75*
G02*
X127325000Y-103806250I0J218750D01*
G01*
X127325000Y-103368750D01*
G75*
G02*
X127543750Y-103150000I218750J0D01*
G01*
X128056250Y-103150000D01*
G75*
G02*
X128275000Y-103368750I0J-218750D01*
G01*
X128275000Y-103806250D01*
G75*
G02*
X128056250Y-104025000I-218750J0D01*
G01*
G37*
%TD.AperFunction*%
%TD*%
%TO.P,R9,2*%
%TO.N,+3V3*%
%TA.AperFunction,SMDPad,CuDef*%
G36*
G01*
X124875000Y-101825000D02*
X124875000Y-102375000D01*
G75*
G02*
X124675000Y-102575000I-200000J0D01*
G01*
X124275000Y-102575000D01*
G75*
G02*
X124075000Y-102375000I0J200000D01*
G01*
X124075000Y-101825000D01*
G75*
G02*
X124275000Y-101625000I200000J0D01*
G01*
X124675000Y-101625000D01*
G75*
G02*
X124875000Y-101825000I0J-200000D01*
G01*
G37*
%TD.AperFunction*%
%TO.P,R9,1*%
%TO.N,Net-(D1-Pad2)*%
%TA.AperFunction,SMDPad,CuDef*%
G36*
G01*
X126525000Y-101825000D02*
X126525000Y-102375000D01*
G75*
G02*
X126325000Y-102575000I-200000J0D01*
G01*
X125925000Y-102575000D01*
G75*
G02*
X125725000Y-102375000I0J200000D01*
G01*
X125725000Y-101825000D01*
G75*
G02*
X125925000Y-101625000I200000J0D01*
G01*
X126325000Y-101625000D01*
G75*
G02*
X126525000Y-101825000I0J-200000D01*
G01*
G37*
%TD.AperFunction*%
%TD*%
%TO.P,R8,2*%
%TO.N,Net-(J2-PadB5)*%
%TA.AperFunction,SMDPad,CuDef*%
G36*
G01*
X122175000Y-104725000D02*
X122175000Y-105275000D01*
G75*
G02*
X121975000Y-105475000I-200000J0D01*
G01*
X121575000Y-105475000D01*
G75*
G02*
X121375000Y-105275000I0J200000D01*
G01*
X121375000Y-104725000D01*
G75*
G02*
X121575000Y-104525000I200000J0D01*
G01*
X121975000Y-104525000D01*
G75*
G02*
X122175000Y-104725000I0J-200000D01*
G01*
G37*
%TD.AperFunction*%
%TO.P,R8,1*%
%TO.N,GND*%
%TA.AperFunction,SMDPad,CuDef*%
G36*
G01*
X123825000Y-104725000D02*
X123825000Y-105275000D01*
G75*
G02*
X123625000Y-105475000I-200000J0D01*
G01*
X123225000Y-105475000D01*
G75*
G02*
X123025000Y-105275000I0J200000D01*
G01*
X123025000Y-104725000D01*
G75*
G02*
X123225000Y-104525000I200000J0D01*
G01*
X123625000Y-104525000D01*
G75*
G02*
X123825000Y-104725000I0J-200000D01*
G01*
G37*
%TD.AperFunction*%
%TD*%
%TO.P,R7,2*%
%TO.N,GND*%
%TA.AperFunction,SMDPad,CuDef*%
G36*
G01*
X126025000Y-105275000D02*
X126025000Y-104725000D01*
G75*
G02*
X126225000Y-104525000I200000J0D01*
G01*
X126625000Y-104525000D01*
G75*
G02*
X126825000Y-104725000I0J-200000D01*
G01*
X126825000Y-105275000D01*
G75*
G02*
X126625000Y-105475000I-200000J0D01*
G01*
X126225000Y-105475000D01*
G75*
G02*
X126025000Y-105275000I0J200000D01*
G01*
G37*
%TD.AperFunction*%
%TO.P,R7,1*%
%TO.N,Net-(J2-PadA5)*%
%TA.AperFunction,SMDPad,CuDef*%
G36*
G01*
X124375000Y-105275000D02*
X124375000Y-104725000D01*
G75*
G02*
X124575000Y-104525000I200000J0D01*
G01*
X124975000Y-104525000D01*
G75*
G02*
X125175000Y-104725000I0J-200000D01*
G01*
X125175000Y-105275000D01*
G75*
G02*
X124975000Y-105475000I-200000J0D01*
G01*
X124575000Y-105475000D01*
G75*
G02*
X124375000Y-105275000I0J200000D01*
G01*
G37*
%TD.AperFunction*%
%TD*%
%TO.P,R6,1*%
%TO.N,IO5*%
%TA.AperFunction,SMDPad,CuDef*%
G36*
G01*
X111075000Y-120649900D02*
X111075000Y-119750100D01*
G75*
G02*
X111325100Y-119500000I250100J0D01*
G01*
X111849900Y-119500000D01*
G75*
G02*
X112100000Y-119750100I0J-250100D01*
G01*
X112100000Y-120649900D01*
G75*
G02*
X111849900Y-120900000I-250100J0D01*
G01*
X111325100Y-120900000D01*
G75*
G02*
X111075000Y-120649900I0J250100D01*
G01*
G37*
%TD.AperFunction*%
%TO.P,R6,2*%
%TO.N,Net-(J1-Pad6)*%
%TA.AperFunction,SMDPad,CuDef*%
G36*
G01*
X112900000Y-120649900D02*
X112900000Y-119750100D01*
G75*
G02*
X113150100Y-119500000I250100J0D01*
G01*
X113674900Y-119500000D01*
G75*
G02*
X113925000Y-119750100I0J-250100D01*
G01*
X113925000Y-120649900D01*
G75*
G02*
X113674900Y-120900000I-250100J0D01*
G01*
X113150100Y-120900000D01*
G75*
G02*
X112900000Y-120649900I0J250100D01*
G01*
G37*
%TD.AperFunction*%
%TA.AperFunction,SMDPad,CuDef*%
G36*
G01*
X113400000Y-120825250D02*
X113400000Y-119574750D01*
G75*
G02*
X113649750Y-119325000I249750J0D01*
G01*
X114275250Y-119325000D01*
G75*
G02*
X114525000Y-119574750I0J-249750D01*
G01*
X114525000Y-120825250D01*
G75*
G02*
X114275250Y-121075000I-249750J0D01*
G01*
X113649750Y-121075000D01*
G75*
G02*
X113400000Y-120825250I0J249750D01*
G01*
G37*
%TD.AperFunction*%
%TO.P,R6,1*%
%TO.N,IO5*%
%TA.AperFunction,SMDPad,CuDef*%
G36*
G01*
X110475000Y-120825250D02*
X110475000Y-119574750D01*
G75*
G02*
X110724750Y-119325000I249750J0D01*
G01*
X111350250Y-119325000D01*
G75*
G02*
X111600000Y-119574750I0J-249750D01*
G01*
X111600000Y-120825250D01*
G75*
G02*
X111350250Y-121075000I-249750J0D01*
G01*
X110724750Y-121075000D01*
G75*
G02*
X110475000Y-120825250I0J249750D01*
G01*
G37*
%TD.AperFunction*%
%TD*%
%TO.P,R5,1*%
%TO.N,VBUS*%
%TA.AperFunction,SMDPad,CuDef*%
G36*
G01*
X112849900Y-128175000D02*
X111950100Y-128175000D01*
G75*
G02*
X111700000Y-127924900I0J250100D01*
G01*
X111700000Y-127400100D01*
G75*
G02*
X111950100Y-127150000I250100J0D01*
G01*
X112849900Y-127150000D01*
G75*
G02*
X113100000Y-127400100I0J-250100D01*
G01*
X113100000Y-127924900D01*
G75*
G02*
X112849900Y-128175000I-250100J0D01*
G01*
G37*
%TD.AperFunction*%
%TO.P,R5,2*%
%TO.N,Net-(J1-Pad6)*%
%TA.AperFunction,SMDPad,CuDef*%
G36*
G01*
X112849900Y-126350000D02*
X111950100Y-126350000D01*
G75*
G02*
X111700000Y-126099900I0J250100D01*
G01*
X111700000Y-125575100D01*
G75*
G02*
X111950100Y-125325000I250100J0D01*
G01*
X112849900Y-125325000D01*
G75*
G02*
X113100000Y-125575100I0J-250100D01*
G01*
X113100000Y-126099900D01*
G75*
G02*
X112849900Y-126350000I-250100J0D01*
G01*
G37*
%TD.AperFunction*%
%TA.AperFunction,SMDPad,CuDef*%
G36*
G01*
X113025250Y-125850000D02*
X111774750Y-125850000D01*
G75*
G02*
X111525000Y-125600250I0J249750D01*
G01*
X111525000Y-124974750D01*
G75*
G02*
X111774750Y-124725000I249750J0D01*
G01*
X113025250Y-124725000D01*
G75*
G02*
X113275000Y-124974750I0J-249750D01*
G01*
X113275000Y-125600250D01*
G75*
G02*
X113025250Y-125850000I-249750J0D01*
G01*
G37*
%TD.AperFunction*%
%TO.P,R5,1*%
%TO.N,VBUS*%
%TA.AperFunction,SMDPad,CuDef*%
G36*
G01*
X113025250Y-128775000D02*
X111774750Y-128775000D01*
G75*
G02*
X111525000Y-128525250I0J249750D01*
G01*
X111525000Y-127899750D01*
G75*
G02*
X111774750Y-127650000I249750J0D01*
G01*
X113025250Y-127650000D01*
G75*
G02*
X113275000Y-127899750I0J-249750D01*
G01*
X113275000Y-128525250D01*
G75*
G02*
X113025250Y-128775000I-249750J0D01*
G01*
G37*
%TD.AperFunction*%
%TD*%
%TO.P,R4,1*%
%TO.N,+3V3*%
%TA.AperFunction,SMDPad,CuDef*%
G36*
G01*
X116119900Y-128175000D02*
X115220100Y-128175000D01*
G75*
G02*
X114970000Y-127924900I0J250100D01*
G01*
X114970000Y-127400100D01*
G75*
G02*
X115220100Y-127150000I250100J0D01*
G01*
X116119900Y-127150000D01*
G75*
G02*
X116370000Y-127400100I0J-250100D01*
G01*
X116370000Y-127924900D01*
G75*
G02*
X116119900Y-128175000I-250100J0D01*
G01*
G37*
%TD.AperFunction*%
%TO.P,R4,2*%
%TO.N,IO4*%
%TA.AperFunction,SMDPad,CuDef*%
G36*
G01*
X116119900Y-126350000D02*
X115220100Y-126350000D01*
G75*
G02*
X114970000Y-126099900I0J250100D01*
G01*
X114970000Y-125575100D01*
G75*
G02*
X115220100Y-125325000I250100J0D01*
G01*
X116119900Y-125325000D01*
G75*
G02*
X116370000Y-125575100I0J-250100D01*
G01*
X116370000Y-126099900D01*
G75*
G02*
X116119900Y-126350000I-250100J0D01*
G01*
G37*
%TD.AperFunction*%
%TA.AperFunction,SMDPad,CuDef*%
G36*
G01*
X116295250Y-125850000D02*
X115044750Y-125850000D01*
G75*
G02*
X114795000Y-125600250I0J249750D01*
G01*
X114795000Y-124974750D01*
G75*
G02*
X115044750Y-124725000I249750J0D01*
G01*
X116295250Y-124725000D01*
G75*
G02*
X116545000Y-124974750I0J-249750D01*
G01*
X116545000Y-125600250D01*
G75*
G02*
X116295250Y-125850000I-249750J0D01*
G01*
G37*
%TD.AperFunction*%
%TO.P,R4,1*%
%TO.N,+3V3*%
%TA.AperFunction,SMDPad,CuDef*%
G36*
G01*
X116295250Y-128775000D02*
X115044750Y-128775000D01*
G75*
G02*
X114795000Y-128525250I0J249750D01*
G01*
X114795000Y-127899750D01*
G75*
G02*
X115044750Y-127650000I249750J0D01*
G01*
X116295250Y-127650000D01*
G75*
G02*
X116545000Y-127899750I0J-249750D01*
G01*
X116545000Y-128525250D01*
G75*
G02*
X116295250Y-128775000I-249750J0D01*
G01*
G37*
%TD.AperFunction*%
%TD*%
%TO.P,R3,1*%
%TO.N,+3V3*%
%TA.AperFunction,SMDPad,CuDef*%
G36*
G01*
X118619900Y-128175000D02*
X117720100Y-128175000D01*
G75*
G02*
X117470000Y-127924900I0J250100D01*
G01*
X117470000Y-127400100D01*
G75*
G02*
X117720100Y-127150000I250100J0D01*
G01*
X118619900Y-127150000D01*
G75*
G02*
X118870000Y-127400100I0J-250100D01*
G01*
X118870000Y-127924900D01*
G75*
G02*
X118619900Y-128175000I-250100J0D01*
G01*
G37*
%TD.AperFunction*%
%TO.P,R3,2*%
%TO.N,IO3*%
%TA.AperFunction,SMDPad,CuDef*%
G36*
G01*
X118619900Y-126350000D02*
X117720100Y-126350000D01*
G75*
G02*
X117470000Y-126099900I0J250100D01*
G01*
X117470000Y-125575100D01*
G75*
G02*
X117720100Y-125325000I250100J0D01*
G01*
X118619900Y-125325000D01*
G75*
G02*
X118870000Y-125575100I0J-250100D01*
G01*
X118870000Y-126099900D01*
G75*
G02*
X118619900Y-126350000I-250100J0D01*
G01*
G37*
%TD.AperFunction*%
%TA.AperFunction,SMDPad,CuDef*%
G36*
G01*
X118795250Y-125850000D02*
X117544750Y-125850000D01*
G75*
G02*
X117295000Y-125600250I0J249750D01*
G01*
X117295000Y-124974750D01*
G75*
G02*
X117544750Y-124725000I249750J0D01*
G01*
X118795250Y-124725000D01*
G75*
G02*
X119045000Y-124974750I0J-249750D01*
G01*
X119045000Y-125600250D01*
G75*
G02*
X118795250Y-125850000I-249750J0D01*
G01*
G37*
%TD.AperFunction*%
%TO.P,R3,1*%
%TO.N,+3V3*%
%TA.AperFunction,SMDPad,CuDef*%
G36*
G01*
X118795250Y-128775000D02*
X117544750Y-128775000D01*
G75*
G02*
X117295000Y-128525250I0J249750D01*
G01*
X117295000Y-127899750D01*
G75*
G02*
X117544750Y-127650000I249750J0D01*
G01*
X118795250Y-127650000D01*
G75*
G02*
X119045000Y-127899750I0J-249750D01*
G01*
X119045000Y-128525250D01*
G75*
G02*
X118795250Y-128775000I-249750J0D01*
G01*
G37*
%TD.AperFunction*%
%TD*%
%TO.P,R2,1*%
%TO.N,+3V3*%
%TA.AperFunction,SMDPad,CuDef*%
G36*
G01*
X121119900Y-128175000D02*
X120220100Y-128175000D01*
G75*
G02*
X119970000Y-127924900I0J250100D01*
G01*
X119970000Y-127400100D01*
G75*
G02*
X120220100Y-127150000I250100J0D01*
G01*
X121119900Y-127150000D01*
G75*
G02*
X121370000Y-127400100I0J-250100D01*
G01*
X121370000Y-127924900D01*
G75*
G02*
X121119900Y-128175000I-250100J0D01*
G01*
G37*
%TD.AperFunction*%
%TO.P,R2,2*%
%TO.N,IO2*%
%TA.AperFunction,SMDPad,CuDef*%
G36*
G01*
X121119900Y-126350000D02*
X120220100Y-126350000D01*
G75*
G02*
X119970000Y-126099900I0J250100D01*
G01*
X119970000Y-125575100D01*
G75*
G02*
X120220100Y-125325000I250100J0D01*
G01*
X121119900Y-125325000D01*
G75*
G02*
X121370000Y-125575100I0J-250100D01*
G01*
X121370000Y-126099900D01*
G75*
G02*
X121119900Y-126350000I-250100J0D01*
G01*
G37*
%TD.AperFunction*%
%TA.AperFunction,SMDPad,CuDef*%
G36*
G01*
X121295250Y-125850000D02*
X120044750Y-125850000D01*
G75*
G02*
X119795000Y-125600250I0J249750D01*
G01*
X119795000Y-124974750D01*
G75*
G02*
X120044750Y-124725000I249750J0D01*
G01*
X121295250Y-124725000D01*
G75*
G02*
X121545000Y-124974750I0J-249750D01*
G01*
X121545000Y-125600250D01*
G75*
G02*
X121295250Y-125850000I-249750J0D01*
G01*
G37*
%TD.AperFunction*%
%TO.P,R2,1*%
%TO.N,+3V3*%
%TA.AperFunction,SMDPad,CuDef*%
G36*
G01*
X121295250Y-128775000D02*
X120044750Y-128775000D01*
G75*
G02*
X119795000Y-128525250I0J249750D01*
G01*
X119795000Y-127899750D01*
G75*
G02*
X120044750Y-127650000I249750J0D01*
G01*
X121295250Y-127650000D01*
G75*
G02*
X121545000Y-127899750I0J-249750D01*
G01*
X121545000Y-128525250D01*
G75*
G02*
X121295250Y-128775000I-249750J0D01*
G01*
G37*
%TD.AperFunction*%
%TD*%
%TO.P,R1,1*%
%TO.N,+3V3*%
%TA.AperFunction,SMDPad,CuDef*%
G36*
G01*
X123619900Y-128175000D02*
X122720100Y-128175000D01*
G75*
G02*
X122470000Y-127924900I0J250100D01*
G01*
X122470000Y-127400100D01*
G75*
G02*
X122720100Y-127150000I250100J0D01*
G01*
X123619900Y-127150000D01*
G75*
G02*
X123870000Y-127400100I0J-250100D01*
G01*
X123870000Y-127924900D01*
G75*
G02*
X123619900Y-128175000I-250100J0D01*
G01*
G37*
%TD.AperFunction*%
%TO.P,R1,2*%
%TO.N,IO1*%
%TA.AperFunction,SMDPad,CuDef*%
G36*
G01*
X123619900Y-126350000D02*
X122720100Y-126350000D01*
G75*
G02*
X122470000Y-126099900I0J250100D01*
G01*
X122470000Y-125575100D01*
G75*
G02*
X122720100Y-125325000I250100J0D01*
G01*
X123619900Y-125325000D01*
G75*
G02*
X123870000Y-125575100I0J-250100D01*
G01*
X123870000Y-126099900D01*
G75*
G02*
X123619900Y-126350000I-250100J0D01*
G01*
G37*
%TD.AperFunction*%
%TA.AperFunction,SMDPad,CuDef*%
G36*
G01*
X123795250Y-125850000D02*
X122544750Y-125850000D01*
G75*
G02*
X122295000Y-125600250I0J249750D01*
G01*
X122295000Y-124974750D01*
G75*
G02*
X122544750Y-124725000I249750J0D01*
G01*
X123795250Y-124725000D01*
G75*
G02*
X124045000Y-124974750I0J-249750D01*
G01*
X124045000Y-125600250D01*
G75*
G02*
X123795250Y-125850000I-249750J0D01*
G01*
G37*
%TD.AperFunction*%
%TO.P,R1,1*%
%TO.N,+3V3*%
%TA.AperFunction,SMDPad,CuDef*%
G36*
G01*
X123795250Y-128775000D02*
X122544750Y-128775000D01*
G75*
G02*
X122295000Y-128525250I0J249750D01*
G01*
X122295000Y-127899750D01*
G75*
G02*
X122544750Y-127650000I249750J0D01*
G01*
X123795250Y-127650000D01*
G75*
G02*
X124045000Y-127899750I0J-249750D01*
G01*
X124045000Y-128525250D01*
G75*
G02*
X123795250Y-128775000I-249750J0D01*
G01*
G37*
%TD.AperFunction*%
%TD*%
%TO.P,C1,1*%
%TO.N,GND*%
%TA.AperFunction,SMDPad,CuDef*%
G36*
G01*
X127562500Y-119750100D02*
X127562500Y-120649900D01*
G75*
G02*
X127312400Y-120900000I-250100J0D01*
G01*
X126787600Y-120900000D01*
G75*
G02*
X126537500Y-120649900I0J250100D01*
G01*
X126537500Y-119750100D01*
G75*
G02*
X126787600Y-119500000I250100J0D01*
G01*
X127312400Y-119500000D01*
G75*
G02*
X127562500Y-119750100I0J-250100D01*
G01*
G37*
%TD.AperFunction*%
%TO.P,C1,2*%
%TO.N,IO1*%
%TA.AperFunction,SMDPad,CuDef*%
G36*
G01*
X125737500Y-119750100D02*
X125737500Y-120649900D01*
G75*
G02*
X125487400Y-120900000I-250100J0D01*
G01*
X124962600Y-120900000D01*
G75*
G02*
X124712500Y-120649900I0J250100D01*
G01*
X124712500Y-119750100D01*
G75*
G02*
X124962600Y-119500000I250100J0D01*
G01*
X125487400Y-119500000D01*
G75*
G02*
X125737500Y-119750100I0J-250100D01*
G01*
G37*
%TD.AperFunction*%
%TA.AperFunction,SMDPad,CuDef*%
G36*
G01*
X125237500Y-119574750D02*
X125237500Y-120825250D01*
G75*
G02*
X124987750Y-121075000I-249750J0D01*
G01*
X124362250Y-121075000D01*
G75*
G02*
X124112500Y-120825250I0J249750D01*
G01*
X124112500Y-119574750D01*
G75*
G02*
X124362250Y-119325000I249750J0D01*
G01*
X124987750Y-119325000D01*
G75*
G02*
X125237500Y-119574750I0J-249750D01*
G01*
G37*
%TD.AperFunction*%
%TO.P,C1,1*%
%TO.N,GND*%
%TA.AperFunction,SMDPad,CuDef*%
G36*
G01*
X128162500Y-119574750D02*
X128162500Y-120825250D01*
G75*
G02*
X127912750Y-121075000I-249750J0D01*
G01*
X127287250Y-121075000D01*
G75*
G02*
X127037500Y-120825250I0J249750D01*
G01*
X127037500Y-119574750D01*
G75*
G02*
X127287250Y-119325000I249750J0D01*
G01*
X127912750Y-119325000D01*
G75*
G02*
X128162500Y-119574750I0J-249750D01*
G01*
G37*
%TD.AperFunction*%
%TD*%
D17*
%TO.P,J1,1*%
%TO.N,GND*%
X125745000Y-122900000D03*
D18*
%TO.P,J1,2*%
%TO.N,IO1*%
X123205000Y-122900000D03*
%TO.P,J1,3*%
%TO.N,IO2*%
X120665000Y-122900000D03*
%TO.P,J1,4*%
%TO.N,IO3*%
X118125000Y-122900000D03*
%TO.P,J1,5*%
%TO.N,IO4*%
X115585000Y-122900000D03*
%TO.P,J1,6*%
%TO.N,Net-(J1-Pad6)*%
X113045000Y-122900000D03*
%TD*%
%TO.P,C2,2*%
%TO.N,GND*%
%TA.AperFunction,SMDPad,CuDef*%
G36*
G01*
X114137500Y-111675000D02*
X113662500Y-111675000D01*
G75*
G02*
X113425000Y-111437500I0J237500D01*
G01*
X113425000Y-110837500D01*
G75*
G02*
X113662500Y-110600000I237500J0D01*
G01*
X114137500Y-110600000D01*
G75*
G02*
X114375000Y-110837500I0J-237500D01*
G01*
X114375000Y-111437500D01*
G75*
G02*
X114137500Y-111675000I-237500J0D01*
G01*
G37*
%TD.AperFunction*%
%TO.P,C2,1*%
%TO.N,+3V3*%
%TA.AperFunction,SMDPad,CuDef*%
G36*
G01*
X114137500Y-113400000D02*
X113662500Y-113400000D01*
G75*
G02*
X113425000Y-113162500I0J237500D01*
G01*
X113425000Y-112562500D01*
G75*
G02*
X113662500Y-112325000I237500J0D01*
G01*
X114137500Y-112325000D01*
G75*
G02*
X114375000Y-112562500I0J-237500D01*
G01*
X114375000Y-113162500D01*
G75*
G02*
X114137500Y-113400000I-237500J0D01*
G01*
G37*
%TD.AperFunction*%
%TD*%
D19*
%TO.P,U2,21*%
%TO.N,GND*%
X118025000Y-117025000D03*
D20*
%TO.P,U2,~*%
%TO.N,N/C*%
X116025000Y-119025000D03*
X120025000Y-115025000D03*
X120025000Y-119025000D03*
X116025000Y-115025000D03*
D21*
X116025000Y-119025000D03*
%TA.AperFunction,SMDPad,CuDef*%
D13*
%TO.P,U2,21*%
%TO.N,GND*%
G36*
X119025000Y-116025000D02*
G01*
X119025000Y-118025000D01*
X117275000Y-118025000D01*
X117025000Y-117775000D01*
X117025000Y-116025000D01*
X119025000Y-116025000D01*
G37*
%TD.AperFunction*%
%TO.P,U2,20*%
%TO.N,+3V3*%
%TA.AperFunction,SMDPad,CuDef*%
G36*
G01*
X116462500Y-118150000D02*
X115587500Y-118150000D01*
G75*
G02*
X115525000Y-118087500I0J62500D01*
G01*
X115525000Y-117962500D01*
G75*
G02*
X115587500Y-117900000I62500J0D01*
G01*
X116462500Y-117900000D01*
G75*
G02*
X116525000Y-117962500I0J-62500D01*
G01*
X116525000Y-118087500D01*
G75*
G02*
X116462500Y-118150000I-62500J0D01*
G01*
G37*
%TD.AperFunction*%
%TO.P,U2,19*%
%TO.N,EN*%
%TA.AperFunction,SMDPad,CuDef*%
G36*
G01*
X116462500Y-117650000D02*
X115587500Y-117650000D01*
G75*
G02*
X115525000Y-117587500I0J62500D01*
G01*
X115525000Y-117462500D01*
G75*
G02*
X115587500Y-117400000I62500J0D01*
G01*
X116462500Y-117400000D01*
G75*
G02*
X116525000Y-117462500I0J-62500D01*
G01*
X116525000Y-117587500D01*
G75*
G02*
X116462500Y-117650000I-62500J0D01*
G01*
G37*
%TD.AperFunction*%
%TO.P,U2,18*%
%TO.N,GPIO0*%
%TA.AperFunction,SMDPad,CuDef*%
G36*
G01*
X116462500Y-117150000D02*
X115587500Y-117150000D01*
G75*
G02*
X115525000Y-117087500I0J62500D01*
G01*
X115525000Y-116962500D01*
G75*
G02*
X115587500Y-116900000I62500J0D01*
G01*
X116462500Y-116900000D01*
G75*
G02*
X116525000Y-116962500I0J-62500D01*
G01*
X116525000Y-117087500D01*
G75*
G02*
X116462500Y-117150000I-62500J0D01*
G01*
G37*
%TD.AperFunction*%
%TO.P,U2,17*%
%TO.N,I*%
%TA.AperFunction,SMDPad,CuDef*%
G36*
G01*
X116462500Y-116650000D02*
X115587500Y-116650000D01*
G75*
G02*
X115525000Y-116587500I0J62500D01*
G01*
X115525000Y-116462500D01*
G75*
G02*
X115587500Y-116400000I62500J0D01*
G01*
X116462500Y-116400000D01*
G75*
G02*
X116525000Y-116462500I0J-62500D01*
G01*
X116525000Y-116587500D01*
G75*
G02*
X116462500Y-116650000I-62500J0D01*
G01*
G37*
%TD.AperFunction*%
%TO.P,U2,16*%
%TO.N,Net-(U2-Pad16)*%
%TA.AperFunction,SMDPad,CuDef*%
G36*
G01*
X116462500Y-116150000D02*
X115587500Y-116150000D01*
G75*
G02*
X115525000Y-116087500I0J62500D01*
G01*
X115525000Y-115962500D01*
G75*
G02*
X115587500Y-115900000I62500J0D01*
G01*
X116462500Y-115900000D01*
G75*
G02*
X116525000Y-115962500I0J-62500D01*
G01*
X116525000Y-116087500D01*
G75*
G02*
X116462500Y-116150000I-62500J0D01*
G01*
G37*
%TD.AperFunction*%
%TO.P,U2,15*%
%TO.N,Net-(U2-Pad15)*%
%TA.AperFunction,SMDPad,CuDef*%
G36*
G01*
X117087500Y-115525000D02*
X116962500Y-115525000D01*
G75*
G02*
X116900000Y-115462500I0J62500D01*
G01*
X116900000Y-114587500D01*
G75*
G02*
X116962500Y-114525000I62500J0D01*
G01*
X117087500Y-114525000D01*
G75*
G02*
X117150000Y-114587500I0J-62500D01*
G01*
X117150000Y-115462500D01*
G75*
G02*
X117087500Y-115525000I-62500J0D01*
G01*
G37*
%TD.AperFunction*%
%TO.P,U2,14*%
%TO.N,Net-(U2-Pad14)*%
%TA.AperFunction,SMDPad,CuDef*%
G36*
G01*
X117587500Y-115525000D02*
X117462500Y-115525000D01*
G75*
G02*
X117400000Y-115462500I0J62500D01*
G01*
X117400000Y-114587500D01*
G75*
G02*
X117462500Y-114525000I62500J0D01*
G01*
X117587500Y-114525000D01*
G75*
G02*
X117650000Y-114587500I0J-62500D01*
G01*
X117650000Y-115462500D01*
G75*
G02*
X117587500Y-115525000I-62500J0D01*
G01*
G37*
%TD.AperFunction*%
%TO.P,U2,13*%
%TO.N,GND*%
%TA.AperFunction,SMDPad,CuDef*%
G36*
G01*
X118087500Y-115525000D02*
X117962500Y-115525000D01*
G75*
G02*
X117900000Y-115462500I0J62500D01*
G01*
X117900000Y-114587500D01*
G75*
G02*
X117962500Y-114525000I62500J0D01*
G01*
X118087500Y-114525000D01*
G75*
G02*
X118150000Y-114587500I0J-62500D01*
G01*
X118150000Y-115462500D01*
G75*
G02*
X118087500Y-115525000I-62500J0D01*
G01*
G37*
%TD.AperFunction*%
%TO.P,U2,12*%
%TO.N,+3V3*%
%TA.AperFunction,SMDPad,CuDef*%
G36*
G01*
X118587500Y-115525000D02*
X118462500Y-115525000D01*
G75*
G02*
X118400000Y-115462500I0J62500D01*
G01*
X118400000Y-114587500D01*
G75*
G02*
X118462500Y-114525000I62500J0D01*
G01*
X118587500Y-114525000D01*
G75*
G02*
X118650000Y-114587500I0J-62500D01*
G01*
X118650000Y-115462500D01*
G75*
G02*
X118587500Y-115525000I-62500J0D01*
G01*
G37*
%TD.AperFunction*%
%TO.P,U2,11*%
%TA.AperFunction,SMDPad,CuDef*%
G36*
G01*
X119087500Y-115525000D02*
X118962500Y-115525000D01*
G75*
G02*
X118900000Y-115462500I0J62500D01*
G01*
X118900000Y-114587500D01*
G75*
G02*
X118962500Y-114525000I62500J0D01*
G01*
X119087500Y-114525000D01*
G75*
G02*
X119150000Y-114587500I0J-62500D01*
G01*
X119150000Y-115462500D01*
G75*
G02*
X119087500Y-115525000I-62500J0D01*
G01*
G37*
%TD.AperFunction*%
%TO.P,U2,10*%
%TA.AperFunction,SMDPad,CuDef*%
G36*
G01*
X120462500Y-116150000D02*
X119587500Y-116150000D01*
G75*
G02*
X119525000Y-116087500I0J62500D01*
G01*
X119525000Y-115962500D01*
G75*
G02*
X119587500Y-115900000I62500J0D01*
G01*
X120462500Y-115900000D01*
G75*
G02*
X120525000Y-115962500I0J-62500D01*
G01*
X120525000Y-116087500D01*
G75*
G02*
X120462500Y-116150000I-62500J0D01*
G01*
G37*
%TD.AperFunction*%
%TO.P,U2,9*%
%TO.N,D-*%
%TA.AperFunction,SMDPad,CuDef*%
G36*
G01*
X120462500Y-116650000D02*
X119587500Y-116650000D01*
G75*
G02*
X119525000Y-116587500I0J62500D01*
G01*
X119525000Y-116462500D01*
G75*
G02*
X119587500Y-116400000I62500J0D01*
G01*
X120462500Y-116400000D01*
G75*
G02*
X120525000Y-116462500I0J-62500D01*
G01*
X120525000Y-116587500D01*
G75*
G02*
X120462500Y-116650000I-62500J0D01*
G01*
G37*
%TD.AperFunction*%
%TO.P,U2,8*%
%TO.N,D+*%
%TA.AperFunction,SMDPad,CuDef*%
G36*
G01*
X120462500Y-117150000D02*
X119587500Y-117150000D01*
G75*
G02*
X119525000Y-117087500I0J62500D01*
G01*
X119525000Y-116962500D01*
G75*
G02*
X119587500Y-116900000I62500J0D01*
G01*
X120462500Y-116900000D01*
G75*
G02*
X120525000Y-116962500I0J-62500D01*
G01*
X120525000Y-117087500D01*
G75*
G02*
X120462500Y-117150000I-62500J0D01*
G01*
G37*
%TD.AperFunction*%
%TO.P,U2,7*%
%TO.N,Net-(U2-Pad7)*%
%TA.AperFunction,SMDPad,CuDef*%
G36*
G01*
X120462500Y-117650000D02*
X119587500Y-117650000D01*
G75*
G02*
X119525000Y-117587500I0J62500D01*
G01*
X119525000Y-117462500D01*
G75*
G02*
X119587500Y-117400000I62500J0D01*
G01*
X120462500Y-117400000D01*
G75*
G02*
X120525000Y-117462500I0J-62500D01*
G01*
X120525000Y-117587500D01*
G75*
G02*
X120462500Y-117650000I-62500J0D01*
G01*
G37*
%TD.AperFunction*%
%TO.P,U2,6*%
%TO.N,GND*%
%TA.AperFunction,SMDPad,CuDef*%
G36*
G01*
X120462500Y-118150000D02*
X119587500Y-118150000D01*
G75*
G02*
X119525000Y-118087500I0J62500D01*
G01*
X119525000Y-117962500D01*
G75*
G02*
X119587500Y-117900000I62500J0D01*
G01*
X120462500Y-117900000D01*
G75*
G02*
X120525000Y-117962500I0J-62500D01*
G01*
X120525000Y-118087500D01*
G75*
G02*
X120462500Y-118150000I-62500J0D01*
G01*
G37*
%TD.AperFunction*%
%TO.P,U2,5*%
%TA.AperFunction,SMDPad,CuDef*%
G36*
G01*
X119087500Y-119525000D02*
X118962500Y-119525000D01*
G75*
G02*
X118900000Y-119462500I0J62500D01*
G01*
X118900000Y-118587500D01*
G75*
G02*
X118962500Y-118525000I62500J0D01*
G01*
X119087500Y-118525000D01*
G75*
G02*
X119150000Y-118587500I0J-62500D01*
G01*
X119150000Y-119462500D01*
G75*
G02*
X119087500Y-119525000I-62500J0D01*
G01*
G37*
%TD.AperFunction*%
%TO.P,U2,4*%
%TA.AperFunction,SMDPad,CuDef*%
G36*
G01*
X118587500Y-119525000D02*
X118462500Y-119525000D01*
G75*
G02*
X118400000Y-119462500I0J62500D01*
G01*
X118400000Y-118587500D01*
G75*
G02*
X118462500Y-118525000I62500J0D01*
G01*
X118587500Y-118525000D01*
G75*
G02*
X118650000Y-118587500I0J-62500D01*
G01*
X118650000Y-119462500D01*
G75*
G02*
X118587500Y-119525000I-62500J0D01*
G01*
G37*
%TD.AperFunction*%
%TO.P,U2,3*%
%TA.AperFunction,SMDPad,CuDef*%
G36*
G01*
X118087500Y-119525000D02*
X117962500Y-119525000D01*
G75*
G02*
X117900000Y-119462500I0J62500D01*
G01*
X117900000Y-118587500D01*
G75*
G02*
X117962500Y-118525000I62500J0D01*
G01*
X118087500Y-118525000D01*
G75*
G02*
X118150000Y-118587500I0J-62500D01*
G01*
X118150000Y-119462500D01*
G75*
G02*
X118087500Y-119525000I-62500J0D01*
G01*
G37*
%TD.AperFunction*%
%TO.P,U2,2*%
%TA.AperFunction,SMDPad,CuDef*%
G36*
G01*
X117587500Y-119525000D02*
X117462500Y-119525000D01*
G75*
G02*
X117400000Y-119462500I0J62500D01*
G01*
X117400000Y-118587500D01*
G75*
G02*
X117462500Y-118525000I62500J0D01*
G01*
X117587500Y-118525000D01*
G75*
G02*
X117650000Y-118587500I0J-62500D01*
G01*
X117650000Y-119462500D01*
G75*
G02*
X117587500Y-119525000I-62500J0D01*
G01*
G37*
%TD.AperFunction*%
%TO.P,U2,1*%
%TO.N,O*%
%TA.AperFunction,SMDPad,CuDef*%
G36*
G01*
X117087500Y-119525000D02*
X116962500Y-119525000D01*
G75*
G02*
X116900000Y-119462500I0J62500D01*
G01*
X116900000Y-118587500D01*
G75*
G02*
X116962500Y-118525000I62500J0D01*
G01*
X117087500Y-118525000D01*
G75*
G02*
X117150000Y-118587500I0J-62500D01*
G01*
X117150000Y-119462500D01*
G75*
G02*
X117087500Y-119525000I-62500J0D01*
G01*
G37*
%TD.AperFunction*%
%TD*%
D18*
%TO.P,J3,2*%
%TO.N,VBUS*%
X126700000Y-125660000D03*
D17*
%TO.P,J3,1*%
%TO.N,GND*%
X126700000Y-128200000D03*
%TD*%
D22*
%TO.P,J2,S1*%
%TO.N,GND*%
X123680000Y-107180000D03*
%TA.AperFunction,SMDPad,CuDef*%
D13*
G36*
X122115684Y-114386936D02*
G01*
X122117553Y-114374868D01*
X122120589Y-114363040D01*
X122124766Y-114351563D01*
X122130043Y-114340550D01*
X122136369Y-114330103D01*
X122143684Y-114320325D01*
X122151919Y-114311306D01*
X122160995Y-114303134D01*
X122170824Y-114295886D01*
X122181314Y-114289634D01*
X122192364Y-114284433D01*
X122203868Y-114280336D01*
X122215718Y-114277381D01*
X122227800Y-114275597D01*
X122239998Y-114275000D01*
X122252195Y-114275597D01*
X122264277Y-114277380D01*
X122276127Y-114280335D01*
X122287631Y-114284431D01*
X122298682Y-114289631D01*
X122309172Y-114295884D01*
X122319002Y-114303131D01*
X122328077Y-114311303D01*
X122336312Y-114320320D01*
X122343628Y-114330099D01*
X122349954Y-114340545D01*
X122355232Y-114351558D01*
X122359409Y-114363034D01*
X122362446Y-114374863D01*
X122364315Y-114386932D01*
X122364997Y-114399125D01*
X122365082Y-114411210D01*
X122371318Y-114510337D01*
X122386779Y-114605799D01*
X122411485Y-114699306D01*
X122445193Y-114789942D01*
X122487585Y-114876861D01*
X122538261Y-114959234D01*
X122596731Y-115036265D01*
X122662437Y-115107221D01*
X122734760Y-115171431D01*
X122812991Y-115228269D01*
X122896404Y-115277208D01*
X122984191Y-115317772D01*
X123075523Y-115349577D01*
X123169522Y-115372318D01*
X123215977Y-115378847D01*
X123298150Y-115373677D01*
X123610000Y-115323168D01*
X123610000Y-114198629D01*
X123358200Y-114214471D01*
X123356458Y-114214569D01*
X123353835Y-114214569D01*
X123351225Y-114214715D01*
X123310874Y-114214997D01*
X123309129Y-114214997D01*
X123296934Y-114214315D01*
X123284866Y-114212447D01*
X123273038Y-114209410D01*
X123261561Y-114205233D01*
X123250548Y-114199956D01*
X123240102Y-114193630D01*
X123230323Y-114186315D01*
X123221304Y-114178080D01*
X123213133Y-114169004D01*
X123205885Y-114159174D01*
X123199632Y-114148685D01*
X123194432Y-114137635D01*
X123190336Y-114126130D01*
X123187381Y-114114281D01*
X123185596Y-114102199D01*
X123185000Y-114090001D01*
X123185597Y-114077803D01*
X123187380Y-114065721D01*
X123190335Y-114053871D01*
X123194431Y-114042367D01*
X123199631Y-114031317D01*
X123205884Y-114020827D01*
X123213132Y-114010997D01*
X123221303Y-114001922D01*
X123230321Y-113993686D01*
X123240100Y-113986371D01*
X123250546Y-113980045D01*
X123261560Y-113974768D01*
X123273036Y-113970590D01*
X123284865Y-113967554D01*
X123296933Y-113965685D01*
X123309126Y-113965003D01*
X123345993Y-113964745D01*
X123610000Y-113948135D01*
X123610000Y-108452804D01*
X123579804Y-108448345D01*
X123303894Y-108434851D01*
X123302151Y-108434754D01*
X123290014Y-108433392D01*
X123278069Y-108430852D01*
X123266429Y-108427160D01*
X123255203Y-108422349D01*
X123244502Y-108416466D01*
X123234425Y-108409566D01*
X123225070Y-108401717D01*
X123216525Y-108392991D01*
X123208873Y-108383473D01*
X123202185Y-108373254D01*
X123196528Y-108362431D01*
X123191953Y-108351108D01*
X123188505Y-108339393D01*
X123186216Y-108327397D01*
X123185109Y-108315234D01*
X123185195Y-108303022D01*
X123186472Y-108290877D01*
X123188927Y-108278913D01*
X123192538Y-108267247D01*
X123197271Y-108255990D01*
X123203080Y-108245247D01*
X123209908Y-108235122D01*
X123217693Y-108225712D01*
X123226359Y-108217107D01*
X123235822Y-108209388D01*
X123245995Y-108202630D01*
X123256778Y-108196897D01*
X123268069Y-108192243D01*
X123279760Y-108188713D01*
X123291740Y-108186341D01*
X123303894Y-108185150D01*
X123316106Y-108185149D01*
X123598121Y-108198942D01*
X123599864Y-108199039D01*
X123605118Y-108199629D01*
X123610000Y-108200107D01*
X123610000Y-107074855D01*
X123239837Y-107020194D01*
X123226039Y-107019519D01*
X123155967Y-107030366D01*
X123062290Y-107054419D01*
X122971416Y-107087494D01*
X122884204Y-107129279D01*
X122801485Y-107179375D01*
X122724049Y-107237304D01*
X122652633Y-107302517D01*
X122587918Y-107374388D01*
X122530530Y-107452229D01*
X122481010Y-107535300D01*
X122439835Y-107622803D01*
X122407398Y-107713899D01*
X122384001Y-107807739D01*
X122369873Y-107903406D01*
X122364851Y-108006106D01*
X122364754Y-108007848D01*
X122363392Y-108019985D01*
X122360853Y-108031930D01*
X122357161Y-108043571D01*
X122352350Y-108054796D01*
X122346466Y-108065498D01*
X122339566Y-108075575D01*
X122331717Y-108084929D01*
X122322991Y-108093474D01*
X122313473Y-108101127D01*
X122303254Y-108107814D01*
X122292432Y-108113472D01*
X122281109Y-108118047D01*
X122269394Y-108121495D01*
X122257397Y-108123784D01*
X122245235Y-108124891D01*
X122233022Y-108124805D01*
X122220877Y-108123528D01*
X122208914Y-108121073D01*
X122197247Y-108117462D01*
X122185990Y-108112729D01*
X122175247Y-108106921D01*
X122165123Y-108100092D01*
X122155713Y-108092307D01*
X122147108Y-108083641D01*
X122139389Y-108074178D01*
X122132630Y-108064006D01*
X122126897Y-108053223D01*
X122122243Y-108041932D01*
X122118713Y-108030241D01*
X122116341Y-108018261D01*
X122115150Y-108006107D01*
X122115149Y-107993894D01*
X122120470Y-107885089D01*
X122120567Y-107883347D01*
X122121155Y-107878103D01*
X122121662Y-107872934D01*
X122137576Y-107765168D01*
X122137843Y-107763443D01*
X122138934Y-107758311D01*
X122139948Y-107753188D01*
X122166302Y-107647489D01*
X122166736Y-107645799D01*
X122168324Y-107640793D01*
X122169832Y-107635799D01*
X122206374Y-107533176D01*
X122206970Y-107531536D01*
X122209038Y-107526712D01*
X122211027Y-107521885D01*
X122257409Y-107423318D01*
X122258163Y-107421744D01*
X122260680Y-107417166D01*
X122263143Y-107412533D01*
X122318923Y-107318963D01*
X122319827Y-107317470D01*
X122322784Y-107313151D01*
X122325681Y-107308791D01*
X122390325Y-107221110D01*
X122391371Y-107219712D01*
X122394746Y-107215690D01*
X122398044Y-107211645D01*
X122470936Y-107130691D01*
X122472113Y-107129402D01*
X122475873Y-107125720D01*
X122479541Y-107122026D01*
X122559984Y-107048572D01*
X122561280Y-107047404D01*
X122565400Y-107044092D01*
X122569394Y-107040787D01*
X122656622Y-106975532D01*
X122658026Y-106974496D01*
X122662414Y-106971625D01*
X122666747Y-106968702D01*
X122720944Y-106935879D01*
X122716529Y-106927432D01*
X122711953Y-106916109D01*
X122708506Y-106904393D01*
X122706217Y-106892397D01*
X122705110Y-106880235D01*
X122705195Y-106868022D01*
X122706472Y-106855877D01*
X122708927Y-106843914D01*
X122712539Y-106832247D01*
X122717271Y-106820990D01*
X122723080Y-106810247D01*
X122729909Y-106800122D01*
X122737694Y-106790712D01*
X122746359Y-106782107D01*
X122755823Y-106774388D01*
X122765995Y-106767630D01*
X122776778Y-106761897D01*
X122788069Y-106757243D01*
X122799760Y-106753713D01*
X122811740Y-106751341D01*
X122823894Y-106750150D01*
X122836107Y-106750149D01*
X123212891Y-106768576D01*
X123219327Y-106767580D01*
X123221053Y-106767324D01*
X123226303Y-106766847D01*
X123231473Y-106766303D01*
X123340238Y-106760222D01*
X123341981Y-106760136D01*
X123347257Y-106760173D01*
X123352450Y-106760137D01*
X123461290Y-106764699D01*
X123463033Y-106764784D01*
X123468232Y-106765331D01*
X123473452Y-106765806D01*
X123581327Y-106780967D01*
X123583053Y-106781221D01*
X123588226Y-106782283D01*
X123593323Y-106783255D01*
X123699203Y-106808870D01*
X123700897Y-106809292D01*
X123705911Y-106810844D01*
X123710920Y-106812318D01*
X123813794Y-106848143D01*
X123815438Y-106848728D01*
X123820277Y-106850762D01*
X123825118Y-106852718D01*
X123893199Y-106884176D01*
X124110303Y-106938306D01*
X124111993Y-106938740D01*
X124116988Y-106940324D01*
X124121994Y-106941836D01*
X124369587Y-107030000D01*
X126760000Y-107030000D01*
X126760000Y-106450000D01*
X127260000Y-106450000D01*
X127260000Y-107030000D01*
X129100000Y-107030000D01*
X129100000Y-115370000D01*
X127260000Y-115370000D01*
X127260000Y-115950000D01*
X126760000Y-115950000D01*
X126760000Y-115370000D01*
X124368766Y-115370000D01*
X124181322Y-115439710D01*
X124179682Y-115440307D01*
X124174675Y-115441819D01*
X124169681Y-115443403D01*
X123889421Y-115517450D01*
X123841091Y-115540606D01*
X123839512Y-115541349D01*
X123834651Y-115543313D01*
X123829833Y-115545338D01*
X123727466Y-115582597D01*
X123725822Y-115583182D01*
X123720796Y-115584661D01*
X123715800Y-115586208D01*
X123610288Y-115613299D01*
X123608595Y-115613721D01*
X123603433Y-115614706D01*
X123598325Y-115615755D01*
X123490673Y-115632420D01*
X123488946Y-115632676D01*
X123483704Y-115633153D01*
X123478527Y-115633697D01*
X123369762Y-115639778D01*
X123368019Y-115639864D01*
X123362743Y-115639827D01*
X123357549Y-115639863D01*
X123248710Y-115635301D01*
X123246967Y-115635216D01*
X123241747Y-115634667D01*
X123236548Y-115634194D01*
X123206330Y-115629947D01*
X122898235Y-115649331D01*
X122896492Y-115649429D01*
X122893869Y-115649429D01*
X122891259Y-115649575D01*
X122830874Y-115649997D01*
X122829128Y-115649997D01*
X122816934Y-115649315D01*
X122804866Y-115647447D01*
X122793038Y-115644410D01*
X122781561Y-115640233D01*
X122770548Y-115634956D01*
X122760101Y-115628630D01*
X122750323Y-115621315D01*
X122741304Y-115613080D01*
X122733133Y-115604004D01*
X122725885Y-115594174D01*
X122719632Y-115583685D01*
X122714432Y-115572635D01*
X122710336Y-115561130D01*
X122707381Y-115549280D01*
X122705596Y-115537199D01*
X122705000Y-115525001D01*
X122705597Y-115512803D01*
X122707380Y-115500721D01*
X122710335Y-115488871D01*
X122714431Y-115477367D01*
X122719631Y-115466317D01*
X122720943Y-115464116D01*
X122681213Y-115440806D01*
X122679714Y-115439913D01*
X122675358Y-115436975D01*
X122670994Y-115434119D01*
X122582864Y-115370089D01*
X122581459Y-115369054D01*
X122577412Y-115365706D01*
X122573346Y-115362437D01*
X122491884Y-115290112D01*
X122490587Y-115288944D01*
X122486868Y-115285199D01*
X122483159Y-115281567D01*
X122409144Y-115201638D01*
X122407967Y-115200350D01*
X122404641Y-115196272D01*
X122401294Y-115192283D01*
X122335432Y-115105513D01*
X122334386Y-115104116D01*
X122331467Y-115099722D01*
X122328532Y-115095436D01*
X122271452Y-115002653D01*
X122270548Y-115001160D01*
X122268068Y-114996496D01*
X122265569Y-114991951D01*
X122217819Y-114894050D01*
X122217815Y-114894042D01*
X122217811Y-114894033D01*
X122217061Y-114892468D01*
X122215072Y-114887641D01*
X122213004Y-114882817D01*
X122175032Y-114780714D01*
X122174435Y-114779074D01*
X122172923Y-114774067D01*
X122171339Y-114769073D01*
X122143512Y-114663753D01*
X122143078Y-114662063D01*
X122142058Y-114656910D01*
X122140973Y-114651806D01*
X122123557Y-114544273D01*
X122123290Y-114542548D01*
X122122778Y-114537324D01*
X122122196Y-114532137D01*
X122115356Y-114423417D01*
X122115258Y-114421674D01*
X122115258Y-114419053D01*
X122115112Y-114416443D01*
X122115003Y-114400876D01*
X122115003Y-114399131D01*
X122115684Y-114386936D01*
G37*
%TD.AperFunction*%
D23*
%TO.P,J2,A12*%
X122240000Y-108000000D03*
%TO.P,J2,A4*%
%TO.N,VBUS*%
X122240000Y-113600000D03*
%TO.P,J2,B12*%
%TO.N,GND*%
X122240000Y-114400000D03*
%TO.P,J2,B4*%
%TO.N,VBUS*%
X122240000Y-108800000D03*
D24*
%TO.P,J2,S1*%
%TO.N,GND*%
X127010000Y-106875000D03*
X127010000Y-115525000D03*
D25*
X122830000Y-106875000D03*
X122830000Y-115525000D03*
D26*
%TO.P,J2,A7*%
%TO.N,D-*%
X122240000Y-110950000D03*
%TO.P,J2,A6*%
%TO.N,D+*%
X122240000Y-111450000D03*
%TO.P,J2,B6*%
X122240000Y-110450000D03*
%TO.P,J2,B7*%
%TO.N,D-*%
X122240000Y-111950000D03*
%TO.P,J2,A8*%
%TO.N,Net-(J2-PadA8)*%
X122240000Y-109950000D03*
%TO.P,J2,A5*%
%TO.N,Net-(J2-PadA5)*%
X122240000Y-112450000D03*
%TO.P,J2,B5*%
%TO.N,Net-(J2-PadB5)*%
X122240000Y-109450000D03*
%TO.P,J2,B8*%
%TO.N,Net-(J2-PadB8)*%
X122240000Y-112950000D03*
D23*
%TO.P,J2,A9*%
%TO.N,VBUS*%
X122240000Y-108800000D03*
%TO.P,J2,B9*%
X122240000Y-113600000D03*
%TO.P,J2,B1*%
%TO.N,GND*%
X122240000Y-108000000D03*
D27*
%TO.P,J2,S1*%
X123310000Y-108310000D03*
X123310000Y-114090000D03*
D23*
%TO.P,J2,A1*%
X122240000Y-114400000D03*
%TD*%
D28*
%TO.N,GND*%
X120300000Y-109700000D03*
X114800000Y-115400000D03*
X115000000Y-107250000D03*
%TO.N,D-*%
X117300000Y-110747992D03*
X115751794Y-112312246D03*
X117299281Y-112198004D03*
%TO.N,+3V3*%
X125270084Y-126374388D03*
X112678843Y-116087612D03*
X114687349Y-118148151D03*
X124512957Y-103175105D03*
%TO.N,VBUS*%
X121164245Y-113422822D03*
X113897533Y-128324922D03*
X113500000Y-109500000D03*
%TO.N,IO5*%
X112418313Y-118011366D03*
%TO.N,IO4*%
X125100000Y-117304974D03*
%TO.N,O*%
X123014809Y-117544392D03*
%TO.N,I*%
X112549968Y-114962407D03*
%TO.N,EN*%
X126189798Y-116755063D03*
%TO.N,Net-(J2-PadA5)*%
X119400000Y-112895002D03*
X125100000Y-104000000D03*
%TO.N,GPIO0*%
X113585791Y-116920525D03*
%TO.N,Net-(D1-Pad1)*%
X125500000Y-106100000D03*
%TD*%
D29*
%TO.N,D+*%
X120250000Y-111450000D02*
X122240000Y-111450000D01*
X120226998Y-111473002D02*
X120250000Y-111450000D01*
X118026998Y-111473002D02*
X120226998Y-111473002D01*
X117200960Y-113125002D02*
X118470845Y-113125002D01*
X118470845Y-113125002D02*
X118965856Y-113620013D01*
X118965856Y-113620013D02*
X120256424Y-113620013D01*
X121325021Y-114688610D02*
X121325021Y-116434412D01*
X118026998Y-111473002D02*
X116968038Y-111473002D01*
X116476796Y-112400838D02*
X117200960Y-113125002D01*
X116968038Y-111473002D02*
X116476796Y-111964244D01*
X116476796Y-111964244D02*
X116476796Y-112400838D01*
X120256424Y-113620013D02*
X121325021Y-114688610D01*
X121325021Y-116434412D02*
X120734433Y-117025000D01*
X120734433Y-117025000D02*
X120050000Y-117025000D01*
X116574999Y-110361458D02*
X116574999Y-111248001D01*
X122240000Y-110450000D02*
X118063589Y-110450000D01*
X116800000Y-111473002D02*
X118026998Y-111473002D01*
X116574999Y-111248001D02*
X116800000Y-111473002D01*
X118063589Y-110450000D02*
X117613589Y-110000000D01*
X117613589Y-110000000D02*
X116936457Y-110000000D01*
X116936457Y-110000000D02*
X116574999Y-110361458D01*
%TO.N,GND*%
X122830000Y-115525000D02*
X126355000Y-112000000D01*
X122830000Y-106875000D02*
X126355000Y-110400000D01*
X127010000Y-115525000D02*
X127010000Y-111855000D01*
X118025000Y-115000000D02*
X118025000Y-117025000D01*
X117525000Y-117525000D02*
X118025000Y-117025000D01*
X117525000Y-119050000D02*
X117525000Y-117525000D01*
X118025000Y-119050000D02*
X118025000Y-117025000D01*
X118525000Y-117525000D02*
X118025000Y-117025000D01*
X118525000Y-119050000D02*
X118525000Y-117525000D01*
X119025000Y-119050000D02*
X119025000Y-118025000D01*
D30*
X120300000Y-109700000D02*
X120300000Y-104900000D01*
D29*
X127162500Y-106722500D02*
X127010000Y-106875000D01*
D30*
X113650000Y-110887500D02*
X113900000Y-111137500D01*
D29*
X119025000Y-118025000D02*
X118025000Y-117025000D01*
X120050000Y-118025000D02*
X119025000Y-118025000D01*
X121900000Y-118000000D02*
X121900000Y-117800000D01*
D30*
X127010000Y-115525000D02*
X128100000Y-116615000D01*
X128100000Y-116615000D02*
X128100000Y-117500000D01*
X127700000Y-117900000D02*
X127700000Y-120200000D01*
X128100000Y-117500000D02*
X127700000Y-117900000D01*
D29*
X120050000Y-118000000D02*
X121900000Y-118000000D01*
X121900000Y-116455000D02*
X122830000Y-115525000D01*
X121900000Y-118000000D02*
X121900000Y-116455000D01*
X125745000Y-122900000D02*
X125745000Y-124345000D01*
X125745000Y-124463190D02*
X124400000Y-125808190D01*
X125745000Y-124345000D02*
X125745000Y-124463190D01*
X124400000Y-125808190D02*
X124400000Y-125900000D01*
X121900000Y-125768190D02*
X121900000Y-124000000D01*
D30*
X127600000Y-120200000D02*
X127600000Y-122700000D01*
X127400000Y-122900000D02*
X125745000Y-122900000D01*
X127600000Y-122700000D02*
X127400000Y-122900000D01*
X115000000Y-107050000D02*
X115100000Y-107150000D01*
D29*
X123425000Y-105000000D02*
X123425000Y-104325000D01*
D30*
X116337500Y-107250000D02*
X116387500Y-107300000D01*
X115000000Y-107250000D02*
X116337500Y-107250000D01*
D29*
%TO.N,D-*%
X122240000Y-110950000D02*
X117502008Y-110950000D01*
X117502008Y-110950000D02*
X117300000Y-110747992D01*
X117547285Y-111950000D02*
X117299281Y-112198004D01*
X122240000Y-111950000D02*
X117547285Y-111950000D01*
X117014561Y-113575013D02*
X115751794Y-112312246D01*
X118284445Y-113575013D02*
X117014561Y-113575013D01*
X120875010Y-114875010D02*
X120070024Y-114070024D01*
X120875010Y-116248012D02*
X120875010Y-114875010D01*
X118779456Y-114070024D02*
X118284445Y-113575013D01*
X120050000Y-116525000D02*
X120598022Y-116525000D01*
X120070024Y-114070024D02*
X118779456Y-114070024D01*
X120598022Y-116525000D02*
X120875010Y-116248012D01*
%TO.N,+3V3*%
X123170000Y-128300000D02*
X120670000Y-128300000D01*
X120670000Y-128300000D02*
X118170000Y-128300000D01*
X118170000Y-128300000D02*
X115670000Y-128300000D01*
X123170000Y-128300000D02*
X123344472Y-128300000D01*
X123344472Y-128300000D02*
X125270084Y-126374388D01*
X114064769Y-112697731D02*
X113900000Y-112862500D01*
X115000023Y-112697731D02*
X114064769Y-112697731D01*
X115339539Y-113037247D02*
X115000023Y-112697731D01*
X116978128Y-114174990D02*
X115840385Y-113037247D01*
X118248012Y-114174990D02*
X116978128Y-114174990D01*
X118525000Y-114451978D02*
X118248012Y-114174990D01*
X118525000Y-115000000D02*
X118525000Y-114451978D01*
X119025000Y-115000000D02*
X118525000Y-115000000D01*
X115840385Y-113037247D02*
X115339539Y-113037247D01*
X120050000Y-116025000D02*
X119025000Y-115000000D01*
X116025000Y-118025000D02*
X114810500Y-118025000D01*
X114810500Y-118025000D02*
X114687349Y-118148151D01*
X113900000Y-112862500D02*
X113900000Y-114149980D01*
X112113158Y-116087612D02*
X112678843Y-116087612D01*
X113874990Y-114174990D02*
X112276160Y-114174990D01*
X113900000Y-114149980D02*
X113874990Y-114174990D01*
X111798179Y-114652971D02*
X111798179Y-115772633D01*
X112276160Y-114174990D02*
X111798179Y-114652971D01*
X111798179Y-115772633D02*
X112113158Y-116087612D01*
X124475000Y-103137148D02*
X124512957Y-103175105D01*
X124475000Y-102100000D02*
X124475000Y-103137148D01*
X124475000Y-102100000D02*
X124475000Y-101825000D01*
X124475000Y-101825000D02*
X124200000Y-101550000D01*
X124200000Y-101550000D02*
X119050000Y-101550000D01*
X118150000Y-102450000D02*
X118150000Y-104050000D01*
X119050000Y-101550000D02*
X118150000Y-102450000D01*
X115900000Y-111500000D02*
X115400000Y-111500000D01*
X116050024Y-110250023D02*
X116050024Y-111349976D01*
X116750057Y-109549990D02*
X116050024Y-110250023D01*
X115400000Y-111500000D02*
X115000023Y-111899977D01*
X117799989Y-109549990D02*
X116750057Y-109549990D01*
X119300000Y-107750000D02*
X119300000Y-109300000D01*
X116050024Y-111349976D02*
X115900000Y-111500000D01*
X115000023Y-111899977D02*
X115000023Y-112697731D01*
X118800000Y-109800000D02*
X118049999Y-109800000D01*
X118049999Y-109800000D02*
X117799989Y-109549990D01*
X119300000Y-109300000D02*
X118800000Y-109800000D01*
X118150000Y-106600000D02*
X119300000Y-107750000D01*
%TO.N,VBUS*%
X122895002Y-113600000D02*
X122240000Y-113600000D01*
X123135001Y-113360001D02*
X122895002Y-113600000D01*
X123135001Y-109039999D02*
X123135001Y-113360001D01*
X122895002Y-108800000D02*
X123135001Y-109039999D01*
X122240000Y-108800000D02*
X122895002Y-108800000D01*
X122240000Y-113600000D02*
X121350000Y-113600000D01*
X121341423Y-113600000D02*
X121164245Y-113422822D01*
X122240000Y-113600000D02*
X121341423Y-113600000D01*
X113872611Y-128300000D02*
X113897533Y-128324922D01*
X112400000Y-128300000D02*
X113872611Y-128300000D01*
X111800000Y-105500000D02*
X112750000Y-105500000D01*
X110849990Y-107800010D02*
X111900000Y-106750000D01*
X110970000Y-109500000D02*
X110849990Y-109379990D01*
X110849990Y-109379990D02*
X110849990Y-107800010D01*
X110970000Y-109500000D02*
X113500000Y-109500000D01*
%TO.N,IO5*%
X110950000Y-119479679D02*
X110950000Y-120200000D01*
X112418313Y-118011366D02*
X110950000Y-119479679D01*
%TO.N,IO4*%
X115400000Y-123170000D02*
X115670000Y-122900000D01*
X115585000Y-125115000D02*
X115670000Y-125200000D01*
X115585000Y-122900000D02*
X115585000Y-125115000D01*
X122300691Y-119899308D02*
X123600344Y-118599655D01*
X122100692Y-119899308D02*
X122300691Y-119899308D01*
X123805319Y-118599655D02*
X125100000Y-117304974D01*
X121442514Y-119899310D02*
X122100690Y-119899310D01*
X122100690Y-119899310D02*
X122100692Y-119899308D01*
X116629088Y-121070912D02*
X120270912Y-121070912D01*
X123600344Y-118599655D02*
X123805319Y-118599655D01*
X120270912Y-121070912D02*
X121442514Y-119899310D01*
X115585000Y-122115000D02*
X116629088Y-121070912D01*
X115585000Y-122900000D02*
X115585000Y-122115000D01*
%TO.N,IO3*%
X118125000Y-125155000D02*
X118170000Y-125200000D01*
X118125000Y-122900000D02*
X118125000Y-125155000D01*
%TO.N,IO2*%
X120665000Y-125195000D02*
X120670000Y-125200000D01*
X120665000Y-122900000D02*
X120665000Y-125195000D01*
%TO.N,IO1*%
X124575000Y-120200000D02*
X124575000Y-121495000D01*
X123205000Y-125165000D02*
X123170000Y-125200000D01*
X123205000Y-122900000D02*
X123205000Y-125165000D01*
X124575000Y-121530000D02*
X124575000Y-121495000D01*
X123205000Y-122900000D02*
X124575000Y-121530000D01*
%TO.N,O*%
X117025000Y-119573022D02*
X117601989Y-120150011D01*
X117601989Y-120150011D02*
X119918993Y-120150011D01*
X117025000Y-119025000D02*
X117025000Y-119573022D01*
X121069714Y-118999288D02*
X121559913Y-118999288D01*
X119918993Y-120150011D02*
X121069714Y-118999288D01*
X121559913Y-118999288D02*
X123014809Y-117544392D01*
%TO.N,I*%
X116000000Y-116525000D02*
X115570826Y-116525000D01*
X115570826Y-116525000D02*
X115520802Y-116474976D01*
X115520802Y-116474976D02*
X114628222Y-116474976D01*
X114628222Y-116474976D02*
X113115653Y-114962407D01*
X113115653Y-114962407D02*
X112549968Y-114962407D01*
%TO.N,EN*%
X125789799Y-116355064D02*
X126189798Y-116755063D01*
X121256114Y-119449299D02*
X122114290Y-119449299D01*
X123413945Y-118149644D02*
X123613945Y-118149644D01*
X116025000Y-117525000D02*
X115298004Y-117525000D01*
X115298004Y-117525000D02*
X115196144Y-117423141D01*
X115196144Y-117423141D02*
X114303855Y-117423141D01*
X120105392Y-120600022D02*
X121256114Y-119449299D01*
X114303855Y-117423141D02*
X113962339Y-117764659D01*
X113962339Y-118535343D02*
X114351998Y-118925002D01*
X113962339Y-117764659D02*
X113962339Y-118535343D01*
X123613945Y-118149644D02*
X124274999Y-117488590D01*
X114351998Y-118925002D02*
X114731394Y-118925002D01*
X116406414Y-120600022D02*
X120105392Y-120600022D01*
X122114290Y-119449299D02*
X123413945Y-118149644D01*
X114731394Y-118925002D02*
X116406414Y-120600022D01*
X124274999Y-117488590D02*
X124274999Y-116851999D01*
X124771934Y-116355064D02*
X125789799Y-116355064D01*
X124274999Y-116851999D02*
X124771934Y-116355064D01*
%TO.N,Net-(J2-PadA5)*%
X122240000Y-112450000D02*
X119845002Y-112450000D01*
X119845002Y-112450000D02*
X119400000Y-112895002D01*
X124775000Y-105000000D02*
X124775000Y-104744493D01*
X124775000Y-104325000D02*
X125100000Y-104000000D01*
X124775000Y-105000000D02*
X124775000Y-104325000D01*
%TO.N,Net-(J2-PadB5)*%
X120975010Y-105799990D02*
X121775000Y-105000000D01*
X120975010Y-109005010D02*
X120975010Y-105799990D01*
X121420000Y-109450000D02*
X120975010Y-109005010D01*
X122240000Y-109450000D02*
X121420000Y-109450000D01*
%TO.N,Net-(J1-Pad6)*%
X114050000Y-121895000D02*
X114050000Y-121600000D01*
X114050000Y-120200000D02*
X114050000Y-121600000D01*
X114050000Y-121895000D02*
X113045000Y-122900000D01*
X113045000Y-124555000D02*
X112400000Y-125200000D01*
X113045000Y-122900000D02*
X113045000Y-124555000D01*
%TO.N,GPIO0*%
X115434414Y-117025000D02*
X115382544Y-116973130D01*
X116025000Y-117025000D02*
X115434414Y-117025000D01*
X113638393Y-116973130D02*
X113926870Y-116973130D01*
X113638396Y-116973130D02*
X115073130Y-116973130D01*
X113585791Y-116920525D02*
X113638396Y-116973130D01*
X115073130Y-116973130D02*
X113638398Y-116973130D01*
X115382544Y-116973130D02*
X115073130Y-116973130D01*
%TO.N,Net-(D1-Pad2)*%
X127712500Y-102100000D02*
X127800000Y-102012500D01*
X126125000Y-102100000D02*
X127712500Y-102100000D01*
%TO.N,Net-(D1-Pad1)*%
X126620022Y-103587500D02*
X127800000Y-103587500D01*
X125500000Y-104707522D02*
X126620022Y-103587500D01*
X125500000Y-106100000D02*
X125500000Y-104707522D01*
%TD*%
D31*
%TO.N,GND*%
X111121176Y-105952814D02*
X111075644Y-105977152D01*
X110980354Y-106055354D01*
X110902152Y-106150644D01*
X110844042Y-106259359D01*
X110808259Y-106377323D01*
X110796176Y-106500000D01*
X110796176Y-107000000D01*
X110808259Y-107122677D01*
X110810384Y-107129682D01*
X110512453Y-107427613D01*
X110493307Y-107443326D01*
X110477594Y-107462472D01*
X110477591Y-107462475D01*
X110430574Y-107519765D01*
X110383960Y-107606974D01*
X110355255Y-107701601D01*
X110345563Y-107800010D01*
X110347991Y-107824663D01*
X110347990Y-109355347D01*
X110345563Y-109379990D01*
X110347990Y-109404633D01*
X110347990Y-109404642D01*
X110355254Y-109478398D01*
X110383959Y-109573025D01*
X110430573Y-109660235D01*
X110493306Y-109736674D01*
X110512456Y-109752391D01*
X110597602Y-109837537D01*
X110613316Y-109856684D01*
X110632462Y-109872397D01*
X110632465Y-109872400D01*
X110664157Y-109898409D01*
X110689755Y-109919417D01*
X110776964Y-109966031D01*
X110871591Y-109994736D01*
X110945347Y-110002000D01*
X110945357Y-110002000D01*
X110970000Y-110004427D01*
X110994643Y-110002000D01*
X112903155Y-110002000D01*
X113004691Y-110103536D01*
X113018084Y-110112485D01*
X112973815Y-110148815D01*
X112894463Y-110245506D01*
X112835498Y-110355820D01*
X112799188Y-110475518D01*
X112786928Y-110600000D01*
X112790000Y-110851750D01*
X112948750Y-111010500D01*
X113773000Y-111010500D01*
X113773000Y-110990500D01*
X114027000Y-110990500D01*
X114027000Y-111010500D01*
X114851250Y-111010500D01*
X115010000Y-110851750D01*
X115013072Y-110600000D01*
X115000812Y-110475518D01*
X114964502Y-110355820D01*
X114905537Y-110245506D01*
X114826185Y-110148815D01*
X114729494Y-110069463D01*
X114619180Y-110010498D01*
X114499482Y-109974188D01*
X114375000Y-109961928D01*
X114185750Y-109965000D01*
X114027002Y-110123748D01*
X114027002Y-110071843D01*
X114103536Y-109995309D01*
X114188569Y-109868048D01*
X114247141Y-109726643D01*
X114277000Y-109576528D01*
X114277000Y-109538072D01*
X116052040Y-109538072D01*
X115712491Y-109877622D01*
X115693340Y-109893339D01*
X115630607Y-109969778D01*
X115583993Y-110056988D01*
X115555288Y-110151615D01*
X115548024Y-110225371D01*
X115548024Y-110225380D01*
X115545597Y-110250023D01*
X115548024Y-110274666D01*
X115548025Y-110998000D01*
X115424643Y-110998000D01*
X115400000Y-110995573D01*
X115375357Y-110998000D01*
X115375347Y-110998000D01*
X115301591Y-111005264D01*
X115206964Y-111033969D01*
X115119755Y-111080583D01*
X115119753Y-111080584D01*
X115119754Y-111080584D01*
X115076213Y-111116318D01*
X115043316Y-111143316D01*
X115027603Y-111162462D01*
X114888408Y-111301658D01*
X114851250Y-111264500D01*
X114027000Y-111264500D01*
X114027000Y-111284500D01*
X113773000Y-111284500D01*
X113773000Y-111264500D01*
X112948750Y-111264500D01*
X112790000Y-111423250D01*
X112786928Y-111675000D01*
X112799188Y-111799482D01*
X112835498Y-111919180D01*
X112894463Y-112029494D01*
X112973815Y-112126185D01*
X113070506Y-112205537D01*
X113138420Y-112241838D01*
X113093091Y-112326643D01*
X113058018Y-112442261D01*
X113046176Y-112562500D01*
X113046176Y-113162500D01*
X113058018Y-113282739D01*
X113093091Y-113398357D01*
X113150045Y-113504911D01*
X113226693Y-113598307D01*
X113317695Y-113672990D01*
X112300802Y-113672990D01*
X112276159Y-113670563D01*
X112251516Y-113672990D01*
X112251507Y-113672990D01*
X112177751Y-113680254D01*
X112083124Y-113708959D01*
X111995915Y-113755573D01*
X111995913Y-113755574D01*
X111995914Y-113755574D01*
X111954236Y-113789779D01*
X111919476Y-113818306D01*
X111903763Y-113837452D01*
X111460646Y-114280570D01*
X111441495Y-114296287D01*
X111378762Y-114372726D01*
X111332148Y-114459936D01*
X111303443Y-114554563D01*
X111296179Y-114628319D01*
X111296179Y-114628328D01*
X111293752Y-114652971D01*
X111296179Y-114677614D01*
X111296180Y-115747980D01*
X111293752Y-115772633D01*
X111303444Y-115871042D01*
X111332149Y-115965669D01*
X111378763Y-116052878D01*
X111425780Y-116110168D01*
X111425783Y-116110171D01*
X111441496Y-116129317D01*
X111460642Y-116145030D01*
X111740756Y-116425144D01*
X111756474Y-116444296D01*
X111789171Y-116471130D01*
X111832912Y-116507029D01*
X111920121Y-116553643D01*
X112014748Y-116582348D01*
X112020567Y-116582921D01*
X112081287Y-116588901D01*
X112183534Y-116691148D01*
X112310795Y-116776181D01*
X112452200Y-116834753D01*
X112602315Y-116864612D01*
X112755371Y-116864612D01*
X112808791Y-116853986D01*
X112808791Y-116997053D01*
X112838650Y-117147168D01*
X112897222Y-117288573D01*
X112982255Y-117415834D01*
X113090482Y-117524061D01*
X113217743Y-117609094D01*
X113359148Y-117667666D01*
X113465383Y-117688797D01*
X113460339Y-117740007D01*
X113460339Y-117740015D01*
X113457912Y-117764660D01*
X113460339Y-117789303D01*
X113460340Y-118510691D01*
X113457912Y-118535343D01*
X113467604Y-118633752D01*
X113496309Y-118728379D01*
X113542923Y-118815588D01*
X113589940Y-118872878D01*
X113589943Y-118872881D01*
X113605656Y-118892027D01*
X113624802Y-118907740D01*
X113663238Y-118946176D01*
X113649750Y-118946176D01*
X113527121Y-118958254D01*
X113409205Y-118994023D01*
X113300533Y-119052110D01*
X113216376Y-119121176D01*
X113150100Y-119121176D01*
X113027403Y-119133261D01*
X112909421Y-119169050D01*
X112800689Y-119227169D01*
X112705384Y-119305384D01*
X112627169Y-119400689D01*
X112569050Y-119509421D01*
X112533261Y-119627403D01*
X112521176Y-119750100D01*
X112521176Y-120649900D01*
X112533261Y-120772597D01*
X112569050Y-120890579D01*
X112627169Y-120999311D01*
X112705384Y-121094616D01*
X112800689Y-121172831D01*
X112909421Y-121230950D01*
X113027403Y-121266739D01*
X113150100Y-121278824D01*
X113216376Y-121278824D01*
X113300533Y-121347890D01*
X113409205Y-121405977D01*
X113527121Y-121441746D01*
X113548001Y-121443803D01*
X113548001Y-121575337D01*
X113548000Y-121575347D01*
X113548000Y-121687064D01*
X113482105Y-121752960D01*
X113402903Y-121720153D01*
X113165849Y-121673000D01*
X112924151Y-121673000D01*
X112687097Y-121720153D01*
X112463798Y-121812647D01*
X112262833Y-121946927D01*
X112091927Y-122117833D01*
X111957647Y-122318798D01*
X111865153Y-122542097D01*
X111818000Y-122779151D01*
X111818000Y-123020849D01*
X111865153Y-123257903D01*
X111957647Y-123481202D01*
X112091927Y-123682167D01*
X112262833Y-123853073D01*
X112463798Y-123987353D01*
X112543001Y-124020160D01*
X112543001Y-124346176D01*
X111774750Y-124346176D01*
X111652121Y-124358254D01*
X111534205Y-124394023D01*
X111425533Y-124452110D01*
X111330281Y-124530281D01*
X111252110Y-124625533D01*
X111194023Y-124734205D01*
X111158254Y-124852121D01*
X111146176Y-124974750D01*
X111146176Y-125600250D01*
X111158254Y-125722879D01*
X111194023Y-125840795D01*
X111252110Y-125949467D01*
X111321176Y-126033624D01*
X111321176Y-126099900D01*
X111333261Y-126222597D01*
X111369050Y-126340579D01*
X111427169Y-126449311D01*
X111505384Y-126544616D01*
X111600689Y-126622831D01*
X111709421Y-126680950D01*
X111827403Y-126716739D01*
X111950100Y-126728824D01*
X112849900Y-126728824D01*
X112972597Y-126716739D01*
X113090579Y-126680950D01*
X113199311Y-126622831D01*
X113294616Y-126544616D01*
X113372831Y-126449311D01*
X113430950Y-126340579D01*
X113466739Y-126222597D01*
X113478824Y-126099900D01*
X113478824Y-126033624D01*
X113547890Y-125949467D01*
X113605977Y-125840795D01*
X113641746Y-125722879D01*
X113653824Y-125600250D01*
X113653824Y-124974750D01*
X113641746Y-124852121D01*
X113605977Y-124734205D01*
X113547890Y-124625533D01*
X113543061Y-124619649D01*
X113547000Y-124579653D01*
X113547000Y-124579643D01*
X113549427Y-124555000D01*
X113547000Y-124530357D01*
X113547000Y-124020160D01*
X113626202Y-123987353D01*
X113827167Y-123853073D01*
X113998073Y-123682167D01*
X114132353Y-123481202D01*
X114224847Y-123257903D01*
X114272000Y-123020849D01*
X114272000Y-122779151D01*
X114224847Y-122542097D01*
X114192040Y-122462895D01*
X114387543Y-122267393D01*
X114406684Y-122251684D01*
X114422392Y-122232544D01*
X114422400Y-122232536D01*
X114469417Y-122175246D01*
X114516031Y-122088037D01*
X114544736Y-121993410D01*
X114548353Y-121956684D01*
X114552000Y-121919653D01*
X114552000Y-121919646D01*
X114554427Y-121895000D01*
X114552000Y-121870355D01*
X114552000Y-121386625D01*
X114624467Y-121347890D01*
X114719719Y-121269719D01*
X114797890Y-121174467D01*
X114855977Y-121065795D01*
X114891746Y-120947879D01*
X114903824Y-120825250D01*
X114903824Y-119807366D01*
X116034017Y-120937560D01*
X116042351Y-120947714D01*
X115280544Y-121709522D01*
X115227097Y-121720153D01*
X115003798Y-121812647D01*
X114802833Y-121946927D01*
X114631927Y-122117833D01*
X114497647Y-122318798D01*
X114405153Y-122542097D01*
X114358000Y-122779151D01*
X114358000Y-123020849D01*
X114405153Y-123257903D01*
X114497647Y-123481202D01*
X114631927Y-123682167D01*
X114802833Y-123853073D01*
X115003798Y-123987353D01*
X115083001Y-124020160D01*
X115083001Y-124346176D01*
X115044750Y-124346176D01*
X114922121Y-124358254D01*
X114804205Y-124394023D01*
X114695533Y-124452110D01*
X114600281Y-124530281D01*
X114522110Y-124625533D01*
X114464023Y-124734205D01*
X114428254Y-124852121D01*
X114416176Y-124974750D01*
X114416176Y-125600250D01*
X114428254Y-125722879D01*
X114464023Y-125840795D01*
X114522110Y-125949467D01*
X114591176Y-126033624D01*
X114591176Y-126099900D01*
X114603261Y-126222597D01*
X114639050Y-126340579D01*
X114697169Y-126449311D01*
X114775384Y-126544616D01*
X114870689Y-126622831D01*
X114979421Y-126680950D01*
X115097403Y-126716739D01*
X115220100Y-126728824D01*
X116119900Y-126728824D01*
X116242597Y-126716739D01*
X116360579Y-126680950D01*
X116469311Y-126622831D01*
X116564616Y-126544616D01*
X116642831Y-126449311D01*
X116700950Y-126340579D01*
X116736739Y-126222597D01*
X116748824Y-126099900D01*
X116748824Y-126033624D01*
X116817890Y-125949467D01*
X116875977Y-125840795D01*
X116911746Y-125722879D01*
X116920000Y-125639075D01*
X116928254Y-125722879D01*
X116964023Y-125840795D01*
X117022110Y-125949467D01*
X117091176Y-126033624D01*
X117091176Y-126099900D01*
X117103261Y-126222597D01*
X117139050Y-126340579D01*
X117197169Y-126449311D01*
X117275384Y-126544616D01*
X117370689Y-126622831D01*
X117479421Y-126680950D01*
X117597403Y-126716739D01*
X117720100Y-126728824D01*
X118619900Y-126728824D01*
X118742597Y-126716739D01*
X118860579Y-126680950D01*
X118969311Y-126622831D01*
X119064616Y-126544616D01*
X119142831Y-126449311D01*
X119200950Y-126340579D01*
X119236739Y-126222597D01*
X119248824Y-126099900D01*
X119248824Y-126033624D01*
X119317890Y-125949467D01*
X119375977Y-125840795D01*
X119411746Y-125722879D01*
X119420000Y-125639075D01*
X119428254Y-125722879D01*
X119464023Y-125840795D01*
X119522110Y-125949467D01*
X119591176Y-126033624D01*
X119591176Y-126099900D01*
X119603261Y-126222597D01*
X119639050Y-126340579D01*
X119697169Y-126449311D01*
X119775384Y-126544616D01*
X119870689Y-126622831D01*
X119979421Y-126680950D01*
X120097403Y-126716739D01*
X120220100Y-126728824D01*
X121119900Y-126728824D01*
X121242597Y-126716739D01*
X121360579Y-126680950D01*
X121469311Y-126622831D01*
X121564616Y-126544616D01*
X121642831Y-126449311D01*
X121700950Y-126340579D01*
X121736739Y-126222597D01*
X121748824Y-126099900D01*
X121748824Y-126033624D01*
X121817890Y-125949467D01*
X121875977Y-125840795D01*
X121911746Y-125722879D01*
X121920000Y-125639075D01*
X121928254Y-125722879D01*
X121964023Y-125840795D01*
X122022110Y-125949467D01*
X122091176Y-126033624D01*
X122091176Y-126099900D01*
X122103261Y-126222597D01*
X122139050Y-126340579D01*
X122197169Y-126449311D01*
X122275384Y-126544616D01*
X122370689Y-126622831D01*
X122479421Y-126680950D01*
X122597403Y-126716739D01*
X122720100Y-126728824D01*
X123619900Y-126728824D01*
X123742597Y-126716739D01*
X123860579Y-126680950D01*
X123969311Y-126622831D01*
X124064616Y-126544616D01*
X124142831Y-126449311D01*
X124200950Y-126340579D01*
X124236739Y-126222597D01*
X124248824Y-126099900D01*
X124248824Y-126033624D01*
X124317890Y-125949467D01*
X124375977Y-125840795D01*
X124411746Y-125722879D01*
X124423824Y-125600250D01*
X124423824Y-124974750D01*
X124411746Y-124852121D01*
X124375977Y-124734205D01*
X124317890Y-124625533D01*
X124239719Y-124530281D01*
X124144467Y-124452110D01*
X124035795Y-124394023D01*
X123917879Y-124358254D01*
X123795250Y-124346176D01*
X123707000Y-124346176D01*
X123707000Y-124020160D01*
X123786202Y-123987353D01*
X123987167Y-123853073D01*
X124158073Y-123682167D01*
X124258112Y-123532447D01*
X124256928Y-123750000D01*
X124269188Y-123874482D01*
X124305498Y-123994180D01*
X124364463Y-124104494D01*
X124443815Y-124201185D01*
X124540506Y-124280537D01*
X124650820Y-124339502D01*
X124770518Y-124375812D01*
X124895000Y-124388072D01*
X125459250Y-124385000D01*
X125618000Y-124226250D01*
X125618000Y-123027000D01*
X125872000Y-123027000D01*
X125872000Y-124226250D01*
X126030750Y-124385000D01*
X126595000Y-124388072D01*
X126719482Y-124375812D01*
X126839180Y-124339502D01*
X126949494Y-124280537D01*
X127046185Y-124201185D01*
X127125537Y-124104494D01*
X127184502Y-123994180D01*
X127220812Y-123874482D01*
X127233072Y-123750000D01*
X127230000Y-123185750D01*
X127071250Y-123027000D01*
X125872000Y-123027000D01*
X125618000Y-123027000D01*
X125598000Y-123027000D01*
X125598000Y-122773000D01*
X125618000Y-122773000D01*
X125618000Y-121573750D01*
X125459250Y-121415000D01*
X125203146Y-121413606D01*
X125228295Y-121405977D01*
X125336967Y-121347890D01*
X125421124Y-121278824D01*
X125487400Y-121278824D01*
X125610097Y-121266739D01*
X125728079Y-121230950D01*
X125836811Y-121172831D01*
X125932116Y-121094616D01*
X125932734Y-121093863D01*
X125947998Y-121144180D01*
X126006963Y-121254494D01*
X126086315Y-121351185D01*
X126163195Y-121414279D01*
X126030750Y-121415000D01*
X125872000Y-121573750D01*
X125872000Y-122773000D01*
X127071250Y-122773000D01*
X127230000Y-122614250D01*
X127233072Y-122050000D01*
X127220812Y-121925518D01*
X127184502Y-121805820D01*
X127134352Y-121711997D01*
X127314250Y-121710000D01*
X127473000Y-121551250D01*
X127473000Y-121536859D01*
X127562500Y-121538072D01*
X127686982Y-121525812D01*
X127727000Y-121513673D01*
X127727000Y-121551250D01*
X127885750Y-121710000D01*
X128162500Y-121713072D01*
X128286982Y-121700812D01*
X128406680Y-121664502D01*
X128473000Y-121629053D01*
X128473000Y-128979117D01*
X128460078Y-129110899D01*
X128427873Y-129217570D01*
X128375558Y-129315961D01*
X128305130Y-129402313D01*
X128219270Y-129473343D01*
X128121255Y-129526339D01*
X128014807Y-129559290D01*
X127917983Y-129569467D01*
X128001185Y-129501185D01*
X128080537Y-129404494D01*
X128139502Y-129294180D01*
X128175812Y-129174482D01*
X128188072Y-129050000D01*
X128185000Y-128485750D01*
X128026250Y-128327000D01*
X126827000Y-128327000D01*
X126827000Y-128347000D01*
X126573000Y-128347000D01*
X126573000Y-128327000D01*
X125373750Y-128327000D01*
X125215000Y-128485750D01*
X125211928Y-129050000D01*
X125224188Y-129174482D01*
X125260498Y-129294180D01*
X125319463Y-129404494D01*
X125398815Y-129501185D01*
X125486322Y-129573000D01*
X110920883Y-129573000D01*
X110789101Y-129560078D01*
X110682430Y-129527873D01*
X110584039Y-129475558D01*
X110497687Y-129405130D01*
X110426657Y-129319270D01*
X110373661Y-129221255D01*
X110340710Y-129114807D01*
X110327000Y-128984371D01*
X110327000Y-127899750D01*
X111146176Y-127899750D01*
X111146176Y-128525250D01*
X111158254Y-128647879D01*
X111194023Y-128765795D01*
X111252110Y-128874467D01*
X111330281Y-128969719D01*
X111425533Y-129047890D01*
X111534205Y-129105977D01*
X111652121Y-129141746D01*
X111774750Y-129153824D01*
X113025250Y-129153824D01*
X113147879Y-129141746D01*
X113265795Y-129105977D01*
X113374467Y-129047890D01*
X113467141Y-128971834D01*
X113529485Y-129013491D01*
X113670890Y-129072063D01*
X113821005Y-129101922D01*
X113974061Y-129101922D01*
X114124176Y-129072063D01*
X114265581Y-129013491D01*
X114392842Y-128928458D01*
X114495889Y-128825411D01*
X114522110Y-128874467D01*
X114600281Y-128969719D01*
X114695533Y-129047890D01*
X114804205Y-129105977D01*
X114922121Y-129141746D01*
X115044750Y-129153824D01*
X116295250Y-129153824D01*
X116417879Y-129141746D01*
X116535795Y-129105977D01*
X116644467Y-129047890D01*
X116739719Y-128969719D01*
X116817890Y-128874467D01*
X116856625Y-128802000D01*
X116983375Y-128802000D01*
X117022110Y-128874467D01*
X117100281Y-128969719D01*
X117195533Y-129047890D01*
X117304205Y-129105977D01*
X117422121Y-129141746D01*
X117544750Y-129153824D01*
X118795250Y-129153824D01*
X118917879Y-129141746D01*
X119035795Y-129105977D01*
X119144467Y-129047890D01*
X119239719Y-128969719D01*
X119317890Y-128874467D01*
X119356625Y-128802000D01*
X119483375Y-128802000D01*
X119522110Y-128874467D01*
X119600281Y-128969719D01*
X119695533Y-129047890D01*
X119804205Y-129105977D01*
X119922121Y-129141746D01*
X120044750Y-129153824D01*
X121295250Y-129153824D01*
X121417879Y-129141746D01*
X121535795Y-129105977D01*
X121644467Y-129047890D01*
X121739719Y-128969719D01*
X121817890Y-128874467D01*
X121856625Y-128802000D01*
X121983375Y-128802000D01*
X122022110Y-128874467D01*
X122100281Y-128969719D01*
X122195533Y-129047890D01*
X122304205Y-129105977D01*
X122422121Y-129141746D01*
X122544750Y-129153824D01*
X123795250Y-129153824D01*
X123917879Y-129141746D01*
X124035795Y-129105977D01*
X124144467Y-129047890D01*
X124239719Y-128969719D01*
X124317890Y-128874467D01*
X124375977Y-128765795D01*
X124411746Y-128647879D01*
X124423824Y-128525250D01*
X124423824Y-127930583D01*
X125203020Y-127151388D01*
X125246675Y-127151388D01*
X125224188Y-127225518D01*
X125211928Y-127350000D01*
X125215000Y-127914250D01*
X125373750Y-128073000D01*
X126573000Y-128073000D01*
X126573000Y-128053000D01*
X126827000Y-128053000D01*
X126827000Y-128073000D01*
X128026250Y-128073000D01*
X128185000Y-127914250D01*
X128188072Y-127350000D01*
X128175812Y-127225518D01*
X128139502Y-127105820D01*
X128080537Y-126995506D01*
X128001185Y-126898815D01*
X127904494Y-126819463D01*
X127794180Y-126760498D01*
X127674482Y-126724188D01*
X127550000Y-126711928D01*
X127332447Y-126713112D01*
X127482167Y-126613073D01*
X127653073Y-126442167D01*
X127787353Y-126241202D01*
X127879847Y-126017903D01*
X127927000Y-125780849D01*
X127927000Y-125539151D01*
X127879847Y-125302097D01*
X127787353Y-125078798D01*
X127653073Y-124877833D01*
X127482167Y-124706927D01*
X127281202Y-124572647D01*
X127057903Y-124480153D01*
X126820849Y-124433000D01*
X126579151Y-124433000D01*
X126342097Y-124480153D01*
X126118798Y-124572647D01*
X125917833Y-124706927D01*
X125746927Y-124877833D01*
X125612647Y-125078798D01*
X125520153Y-125302097D01*
X125473000Y-125539151D01*
X125473000Y-125622528D01*
X125346612Y-125597388D01*
X125193556Y-125597388D01*
X125043441Y-125627247D01*
X124902036Y-125685819D01*
X124774775Y-125770852D01*
X124666548Y-125879079D01*
X124581515Y-126006340D01*
X124522943Y-126147745D01*
X124493084Y-126297860D01*
X124493084Y-126441452D01*
X124017676Y-126916861D01*
X123969311Y-126877169D01*
X123860579Y-126819050D01*
X123742597Y-126783261D01*
X123619900Y-126771176D01*
X122720100Y-126771176D01*
X122597403Y-126783261D01*
X122479421Y-126819050D01*
X122370689Y-126877169D01*
X122275384Y-126955384D01*
X122197169Y-127050689D01*
X122139050Y-127159421D01*
X122103261Y-127277403D01*
X122091176Y-127400100D01*
X122091176Y-127466376D01*
X122022110Y-127550533D01*
X121964023Y-127659205D01*
X121928254Y-127777121D01*
X121926198Y-127798000D01*
X121913802Y-127798000D01*
X121911746Y-127777121D01*
X121875977Y-127659205D01*
X121817890Y-127550533D01*
X121748824Y-127466376D01*
X121748824Y-127400100D01*
X121736739Y-127277403D01*
X121700950Y-127159421D01*
X121642831Y-127050689D01*
X121564616Y-126955384D01*
X121469311Y-126877169D01*
X121360579Y-126819050D01*
X121242597Y-126783261D01*
X121119900Y-126771176D01*
X120220100Y-126771176D01*
X120097403Y-126783261D01*
X119979421Y-126819050D01*
X119870689Y-126877169D01*
X119775384Y-126955384D01*
X119697169Y-127050689D01*
X119639050Y-127159421D01*
X119603261Y-127277403D01*
X119591176Y-127400100D01*
X119591176Y-127466376D01*
X119522110Y-127550533D01*
X119464023Y-127659205D01*
X119428254Y-127777121D01*
X119426198Y-127798000D01*
X119413802Y-127798000D01*
X119411746Y-127777121D01*
X119375977Y-127659205D01*
X119317890Y-127550533D01*
X119248824Y-127466376D01*
X119248824Y-127400100D01*
X119236739Y-127277403D01*
X119200950Y-127159421D01*
X119142831Y-127050689D01*
X119064616Y-126955384D01*
X118969311Y-126877169D01*
X118860579Y-126819050D01*
X118742597Y-126783261D01*
X118619900Y-126771176D01*
X117720100Y-126771176D01*
X117597403Y-126783261D01*
X117479421Y-126819050D01*
X117370689Y-126877169D01*
X117275384Y-126955384D01*
X117197169Y-127050689D01*
X117139050Y-127159421D01*
X117103261Y-127277403D01*
X117091176Y-127400100D01*
X117091176Y-127466376D01*
X117022110Y-127550533D01*
X116964023Y-127659205D01*
X116928254Y-127777121D01*
X116926198Y-127798000D01*
X116913802Y-127798000D01*
X116911746Y-127777121D01*
X116875977Y-127659205D01*
X116817890Y-127550533D01*
X116748824Y-127466376D01*
X116748824Y-127400100D01*
X116736739Y-127277403D01*
X116700950Y-127159421D01*
X116642831Y-127050689D01*
X116564616Y-126955384D01*
X116469311Y-126877169D01*
X116360579Y-126819050D01*
X116242597Y-126783261D01*
X116119900Y-126771176D01*
X115220100Y-126771176D01*
X115097403Y-126783261D01*
X114979421Y-126819050D01*
X114870689Y-126877169D01*
X114775384Y-126955384D01*
X114697169Y-127050689D01*
X114639050Y-127159421D01*
X114603261Y-127277403D01*
X114591176Y-127400100D01*
X114591176Y-127466376D01*
X114522110Y-127550533D01*
X114464023Y-127659205D01*
X114432984Y-127761528D01*
X114392842Y-127721386D01*
X114265581Y-127636353D01*
X114124176Y-127577781D01*
X113974061Y-127547922D01*
X113821005Y-127547922D01*
X113670890Y-127577781D01*
X113582111Y-127614555D01*
X113547890Y-127550533D01*
X113478824Y-127466376D01*
X113478824Y-127400100D01*
X113466739Y-127277403D01*
X113430950Y-127159421D01*
X113372831Y-127050689D01*
X113294616Y-126955384D01*
X113199311Y-126877169D01*
X113090579Y-126819050D01*
X112972597Y-126783261D01*
X112849900Y-126771176D01*
X111950100Y-126771176D01*
X111827403Y-126783261D01*
X111709421Y-126819050D01*
X111600689Y-126877169D01*
X111505384Y-126955384D01*
X111427169Y-127050689D01*
X111369050Y-127159421D01*
X111333261Y-127277403D01*
X111321176Y-127400100D01*
X111321176Y-127466376D01*
X111252110Y-127550533D01*
X111194023Y-127659205D01*
X111158254Y-127777121D01*
X111146176Y-127899750D01*
X110327000Y-127899750D01*
X110327000Y-121308060D01*
X110375533Y-121347890D01*
X110484205Y-121405977D01*
X110602121Y-121441746D01*
X110724750Y-121453824D01*
X111350250Y-121453824D01*
X111472879Y-121441746D01*
X111590795Y-121405977D01*
X111699467Y-121347890D01*
X111783624Y-121278824D01*
X111849900Y-121278824D01*
X111972597Y-121266739D01*
X112090579Y-121230950D01*
X112199311Y-121172831D01*
X112294616Y-121094616D01*
X112372831Y-120999311D01*
X112430950Y-120890579D01*
X112466739Y-120772597D01*
X112478824Y-120649900D01*
X112478824Y-119750100D01*
X112466739Y-119627403D01*
X112430950Y-119509421D01*
X112372831Y-119400689D01*
X112294616Y-119305384D01*
X112199311Y-119227169D01*
X112090579Y-119169050D01*
X111998496Y-119141117D01*
X112351248Y-118788366D01*
X112494841Y-118788366D01*
X112644956Y-118758507D01*
X112786361Y-118699935D01*
X112913622Y-118614902D01*
X113021849Y-118506675D01*
X113106882Y-118379414D01*
X113165454Y-118238009D01*
X113195313Y-118087894D01*
X113195313Y-117934838D01*
X113165454Y-117784723D01*
X113106882Y-117643318D01*
X113021849Y-117516057D01*
X112913622Y-117407830D01*
X112786361Y-117322797D01*
X112644956Y-117264225D01*
X112494841Y-117234366D01*
X112341785Y-117234366D01*
X112191670Y-117264225D01*
X112050265Y-117322797D01*
X111923004Y-117407830D01*
X111814777Y-117516057D01*
X111729744Y-117643318D01*
X111671172Y-117784723D01*
X111641313Y-117934838D01*
X111641313Y-118078431D01*
X110773569Y-118946176D01*
X110724750Y-118946176D01*
X110602121Y-118958254D01*
X110484205Y-118994023D01*
X110375533Y-119052110D01*
X110327000Y-119091940D01*
X110327000Y-115890810D01*
X111157000Y-115890810D01*
X111157000Y-110009191D01*
X110327000Y-110009191D01*
X110327000Y-105746634D01*
X110400000Y-105753824D01*
X110900000Y-105753824D01*
X111017800Y-105742222D01*
X111121176Y-105710863D01*
X111121176Y-105952814D01*
%TA.AperFunction,Conductor*%
D32*
G36*
X111121176Y-105952814D02*
G01*
X111075644Y-105977152D01*
X110980354Y-106055354D01*
X110902152Y-106150644D01*
X110844042Y-106259359D01*
X110808259Y-106377323D01*
X110796176Y-106500000D01*
X110796176Y-107000000D01*
X110808259Y-107122677D01*
X110810384Y-107129682D01*
X110512453Y-107427613D01*
X110493307Y-107443326D01*
X110477594Y-107462472D01*
X110477591Y-107462475D01*
X110430574Y-107519765D01*
X110383960Y-107606974D01*
X110355255Y-107701601D01*
X110345563Y-107800010D01*
X110347991Y-107824663D01*
X110347990Y-109355347D01*
X110345563Y-109379990D01*
X110347990Y-109404633D01*
X110347990Y-109404642D01*
X110355254Y-109478398D01*
X110383959Y-109573025D01*
X110430573Y-109660235D01*
X110493306Y-109736674D01*
X110512456Y-109752391D01*
X110597602Y-109837537D01*
X110613316Y-109856684D01*
X110632462Y-109872397D01*
X110632465Y-109872400D01*
X110664157Y-109898409D01*
X110689755Y-109919417D01*
X110776964Y-109966031D01*
X110871591Y-109994736D01*
X110945347Y-110002000D01*
X110945357Y-110002000D01*
X110970000Y-110004427D01*
X110994643Y-110002000D01*
X112903155Y-110002000D01*
X113004691Y-110103536D01*
X113018084Y-110112485D01*
X112973815Y-110148815D01*
X112894463Y-110245506D01*
X112835498Y-110355820D01*
X112799188Y-110475518D01*
X112786928Y-110600000D01*
X112790000Y-110851750D01*
X112948750Y-111010500D01*
X113773000Y-111010500D01*
X113773000Y-110990500D01*
X114027000Y-110990500D01*
X114027000Y-111010500D01*
X114851250Y-111010500D01*
X115010000Y-110851750D01*
X115013072Y-110600000D01*
X115000812Y-110475518D01*
X114964502Y-110355820D01*
X114905537Y-110245506D01*
X114826185Y-110148815D01*
X114729494Y-110069463D01*
X114619180Y-110010498D01*
X114499482Y-109974188D01*
X114375000Y-109961928D01*
X114185750Y-109965000D01*
X114027002Y-110123748D01*
X114027002Y-110071843D01*
X114103536Y-109995309D01*
X114188569Y-109868048D01*
X114247141Y-109726643D01*
X114277000Y-109576528D01*
X114277000Y-109538072D01*
X116052040Y-109538072D01*
X115712491Y-109877622D01*
X115693340Y-109893339D01*
X115630607Y-109969778D01*
X115583993Y-110056988D01*
X115555288Y-110151615D01*
X115548024Y-110225371D01*
X115548024Y-110225380D01*
X115545597Y-110250023D01*
X115548024Y-110274666D01*
X115548025Y-110998000D01*
X115424643Y-110998000D01*
X115400000Y-110995573D01*
X115375357Y-110998000D01*
X115375347Y-110998000D01*
X115301591Y-111005264D01*
X115206964Y-111033969D01*
X115119755Y-111080583D01*
X115119753Y-111080584D01*
X115119754Y-111080584D01*
X115076213Y-111116318D01*
X115043316Y-111143316D01*
X115027603Y-111162462D01*
X114888408Y-111301658D01*
X114851250Y-111264500D01*
X114027000Y-111264500D01*
X114027000Y-111284500D01*
X113773000Y-111284500D01*
X113773000Y-111264500D01*
X112948750Y-111264500D01*
X112790000Y-111423250D01*
X112786928Y-111675000D01*
X112799188Y-111799482D01*
X112835498Y-111919180D01*
X112894463Y-112029494D01*
X112973815Y-112126185D01*
X113070506Y-112205537D01*
X113138420Y-112241838D01*
X113093091Y-112326643D01*
X113058018Y-112442261D01*
X113046176Y-112562500D01*
X113046176Y-113162500D01*
X113058018Y-113282739D01*
X113093091Y-113398357D01*
X113150045Y-113504911D01*
X113226693Y-113598307D01*
X113317695Y-113672990D01*
X112300802Y-113672990D01*
X112276159Y-113670563D01*
X112251516Y-113672990D01*
X112251507Y-113672990D01*
X112177751Y-113680254D01*
X112083124Y-113708959D01*
X111995915Y-113755573D01*
X111995913Y-113755574D01*
X111995914Y-113755574D01*
X111954236Y-113789779D01*
X111919476Y-113818306D01*
X111903763Y-113837452D01*
X111460646Y-114280570D01*
X111441495Y-114296287D01*
X111378762Y-114372726D01*
X111332148Y-114459936D01*
X111303443Y-114554563D01*
X111296179Y-114628319D01*
X111296179Y-114628328D01*
X111293752Y-114652971D01*
X111296179Y-114677614D01*
X111296180Y-115747980D01*
X111293752Y-115772633D01*
X111303444Y-115871042D01*
X111332149Y-115965669D01*
X111378763Y-116052878D01*
X111425780Y-116110168D01*
X111425783Y-116110171D01*
X111441496Y-116129317D01*
X111460642Y-116145030D01*
X111740756Y-116425144D01*
X111756474Y-116444296D01*
X111789171Y-116471130D01*
X111832912Y-116507029D01*
X111920121Y-116553643D01*
X112014748Y-116582348D01*
X112020567Y-116582921D01*
X112081287Y-116588901D01*
X112183534Y-116691148D01*
X112310795Y-116776181D01*
X112452200Y-116834753D01*
X112602315Y-116864612D01*
X112755371Y-116864612D01*
X112808791Y-116853986D01*
X112808791Y-116997053D01*
X112838650Y-117147168D01*
X112897222Y-117288573D01*
X112982255Y-117415834D01*
X113090482Y-117524061D01*
X113217743Y-117609094D01*
X113359148Y-117667666D01*
X113465383Y-117688797D01*
X113460339Y-117740007D01*
X113460339Y-117740015D01*
X113457912Y-117764660D01*
X113460339Y-117789303D01*
X113460340Y-118510691D01*
X113457912Y-118535343D01*
X113467604Y-118633752D01*
X113496309Y-118728379D01*
X113542923Y-118815588D01*
X113589940Y-118872878D01*
X113589943Y-118872881D01*
X113605656Y-118892027D01*
X113624802Y-118907740D01*
X113663238Y-118946176D01*
X113649750Y-118946176D01*
X113527121Y-118958254D01*
X113409205Y-118994023D01*
X113300533Y-119052110D01*
X113216376Y-119121176D01*
X113150100Y-119121176D01*
X113027403Y-119133261D01*
X112909421Y-119169050D01*
X112800689Y-119227169D01*
X112705384Y-119305384D01*
X112627169Y-119400689D01*
X112569050Y-119509421D01*
X112533261Y-119627403D01*
X112521176Y-119750100D01*
X112521176Y-120649900D01*
X112533261Y-120772597D01*
X112569050Y-120890579D01*
X112627169Y-120999311D01*
X112705384Y-121094616D01*
X112800689Y-121172831D01*
X112909421Y-121230950D01*
X113027403Y-121266739D01*
X113150100Y-121278824D01*
X113216376Y-121278824D01*
X113300533Y-121347890D01*
X113409205Y-121405977D01*
X113527121Y-121441746D01*
X113548001Y-121443803D01*
X113548001Y-121575337D01*
X113548000Y-121575347D01*
X113548000Y-121687064D01*
X113482105Y-121752960D01*
X113402903Y-121720153D01*
X113165849Y-121673000D01*
X112924151Y-121673000D01*
X112687097Y-121720153D01*
X112463798Y-121812647D01*
X112262833Y-121946927D01*
X112091927Y-122117833D01*
X111957647Y-122318798D01*
X111865153Y-122542097D01*
X111818000Y-122779151D01*
X111818000Y-123020849D01*
X111865153Y-123257903D01*
X111957647Y-123481202D01*
X112091927Y-123682167D01*
X112262833Y-123853073D01*
X112463798Y-123987353D01*
X112543001Y-124020160D01*
X112543001Y-124346176D01*
X111774750Y-124346176D01*
X111652121Y-124358254D01*
X111534205Y-124394023D01*
X111425533Y-124452110D01*
X111330281Y-124530281D01*
X111252110Y-124625533D01*
X111194023Y-124734205D01*
X111158254Y-124852121D01*
X111146176Y-124974750D01*
X111146176Y-125600250D01*
X111158254Y-125722879D01*
X111194023Y-125840795D01*
X111252110Y-125949467D01*
X111321176Y-126033624D01*
X111321176Y-126099900D01*
X111333261Y-126222597D01*
X111369050Y-126340579D01*
X111427169Y-126449311D01*
X111505384Y-126544616D01*
X111600689Y-126622831D01*
X111709421Y-126680950D01*
X111827403Y-126716739D01*
X111950100Y-126728824D01*
X112849900Y-126728824D01*
X112972597Y-126716739D01*
X113090579Y-126680950D01*
X113199311Y-126622831D01*
X113294616Y-126544616D01*
X113372831Y-126449311D01*
X113430950Y-126340579D01*
X113466739Y-126222597D01*
X113478824Y-126099900D01*
X113478824Y-126033624D01*
X113547890Y-125949467D01*
X113605977Y-125840795D01*
X113641746Y-125722879D01*
X113653824Y-125600250D01*
X113653824Y-124974750D01*
X113641746Y-124852121D01*
X113605977Y-124734205D01*
X113547890Y-124625533D01*
X113543061Y-124619649D01*
X113547000Y-124579653D01*
X113547000Y-124579643D01*
X113549427Y-124555000D01*
X113547000Y-124530357D01*
X113547000Y-124020160D01*
X113626202Y-123987353D01*
X113827167Y-123853073D01*
X113998073Y-123682167D01*
X114132353Y-123481202D01*
X114224847Y-123257903D01*
X114272000Y-123020849D01*
X114272000Y-122779151D01*
X114224847Y-122542097D01*
X114192040Y-122462895D01*
X114387543Y-122267393D01*
X114406684Y-122251684D01*
X114422392Y-122232544D01*
X114422400Y-122232536D01*
X114469417Y-122175246D01*
X114516031Y-122088037D01*
X114544736Y-121993410D01*
X114548353Y-121956684D01*
X114552000Y-121919653D01*
X114552000Y-121919646D01*
X114554427Y-121895000D01*
X114552000Y-121870355D01*
X114552000Y-121386625D01*
X114624467Y-121347890D01*
X114719719Y-121269719D01*
X114797890Y-121174467D01*
X114855977Y-121065795D01*
X114891746Y-120947879D01*
X114903824Y-120825250D01*
X114903824Y-119807366D01*
X116034017Y-120937560D01*
X116042351Y-120947714D01*
X115280544Y-121709522D01*
X115227097Y-121720153D01*
X115003798Y-121812647D01*
X114802833Y-121946927D01*
X114631927Y-122117833D01*
X114497647Y-122318798D01*
X114405153Y-122542097D01*
X114358000Y-122779151D01*
X114358000Y-123020849D01*
X114405153Y-123257903D01*
X114497647Y-123481202D01*
X114631927Y-123682167D01*
X114802833Y-123853073D01*
X115003798Y-123987353D01*
X115083001Y-124020160D01*
X115083001Y-124346176D01*
X115044750Y-124346176D01*
X114922121Y-124358254D01*
X114804205Y-124394023D01*
X114695533Y-124452110D01*
X114600281Y-124530281D01*
X114522110Y-124625533D01*
X114464023Y-124734205D01*
X114428254Y-124852121D01*
X114416176Y-124974750D01*
X114416176Y-125600250D01*
X114428254Y-125722879D01*
X114464023Y-125840795D01*
X114522110Y-125949467D01*
X114591176Y-126033624D01*
X114591176Y-126099900D01*
X114603261Y-126222597D01*
X114639050Y-126340579D01*
X114697169Y-126449311D01*
X114775384Y-126544616D01*
X114870689Y-126622831D01*
X114979421Y-126680950D01*
X115097403Y-126716739D01*
X115220100Y-126728824D01*
X116119900Y-126728824D01*
X116242597Y-126716739D01*
X116360579Y-126680950D01*
X116469311Y-126622831D01*
X116564616Y-126544616D01*
X116642831Y-126449311D01*
X116700950Y-126340579D01*
X116736739Y-126222597D01*
X116748824Y-126099900D01*
X116748824Y-126033624D01*
X116817890Y-125949467D01*
X116875977Y-125840795D01*
X116911746Y-125722879D01*
X116920000Y-125639075D01*
X116928254Y-125722879D01*
X116964023Y-125840795D01*
X117022110Y-125949467D01*
X117091176Y-126033624D01*
X117091176Y-126099900D01*
X117103261Y-126222597D01*
X117139050Y-126340579D01*
X117197169Y-126449311D01*
X117275384Y-126544616D01*
X117370689Y-126622831D01*
X117479421Y-126680950D01*
X117597403Y-126716739D01*
X117720100Y-126728824D01*
X118619900Y-126728824D01*
X118742597Y-126716739D01*
X118860579Y-126680950D01*
X118969311Y-126622831D01*
X119064616Y-126544616D01*
X119142831Y-126449311D01*
X119200950Y-126340579D01*
X119236739Y-126222597D01*
X119248824Y-126099900D01*
X119248824Y-126033624D01*
X119317890Y-125949467D01*
X119375977Y-125840795D01*
X119411746Y-125722879D01*
X119420000Y-125639075D01*
X119428254Y-125722879D01*
X119464023Y-125840795D01*
X119522110Y-125949467D01*
X119591176Y-126033624D01*
X119591176Y-126099900D01*
X119603261Y-126222597D01*
X119639050Y-126340579D01*
X119697169Y-126449311D01*
X119775384Y-126544616D01*
X119870689Y-126622831D01*
X119979421Y-126680950D01*
X120097403Y-126716739D01*
X120220100Y-126728824D01*
X121119900Y-126728824D01*
X121242597Y-126716739D01*
X121360579Y-126680950D01*
X121469311Y-126622831D01*
X121564616Y-126544616D01*
X121642831Y-126449311D01*
X121700950Y-126340579D01*
X121736739Y-126222597D01*
X121748824Y-126099900D01*
X121748824Y-126033624D01*
X121817890Y-125949467D01*
X121875977Y-125840795D01*
X121911746Y-125722879D01*
X121920000Y-125639075D01*
X121928254Y-125722879D01*
X121964023Y-125840795D01*
X122022110Y-125949467D01*
X122091176Y-126033624D01*
X122091176Y-126099900D01*
X122103261Y-126222597D01*
X122139050Y-126340579D01*
X122197169Y-126449311D01*
X122275384Y-126544616D01*
X122370689Y-126622831D01*
X122479421Y-126680950D01*
X122597403Y-126716739D01*
X122720100Y-126728824D01*
X123619900Y-126728824D01*
X123742597Y-126716739D01*
X123860579Y-126680950D01*
X123969311Y-126622831D01*
X124064616Y-126544616D01*
X124142831Y-126449311D01*
X124200950Y-126340579D01*
X124236739Y-126222597D01*
X124248824Y-126099900D01*
X124248824Y-126033624D01*
X124317890Y-125949467D01*
X124375977Y-125840795D01*
X124411746Y-125722879D01*
X124423824Y-125600250D01*
X124423824Y-124974750D01*
X124411746Y-124852121D01*
X124375977Y-124734205D01*
X124317890Y-124625533D01*
X124239719Y-124530281D01*
X124144467Y-124452110D01*
X124035795Y-124394023D01*
X123917879Y-124358254D01*
X123795250Y-124346176D01*
X123707000Y-124346176D01*
X123707000Y-124020160D01*
X123786202Y-123987353D01*
X123987167Y-123853073D01*
X124158073Y-123682167D01*
X124258112Y-123532447D01*
X124256928Y-123750000D01*
X124269188Y-123874482D01*
X124305498Y-123994180D01*
X124364463Y-124104494D01*
X124443815Y-124201185D01*
X124540506Y-124280537D01*
X124650820Y-124339502D01*
X124770518Y-124375812D01*
X124895000Y-124388072D01*
X125459250Y-124385000D01*
X125618000Y-124226250D01*
X125618000Y-123027000D01*
X125872000Y-123027000D01*
X125872000Y-124226250D01*
X126030750Y-124385000D01*
X126595000Y-124388072D01*
X126719482Y-124375812D01*
X126839180Y-124339502D01*
X126949494Y-124280537D01*
X127046185Y-124201185D01*
X127125537Y-124104494D01*
X127184502Y-123994180D01*
X127220812Y-123874482D01*
X127233072Y-123750000D01*
X127230000Y-123185750D01*
X127071250Y-123027000D01*
X125872000Y-123027000D01*
X125618000Y-123027000D01*
X125598000Y-123027000D01*
X125598000Y-122773000D01*
X125618000Y-122773000D01*
X125618000Y-121573750D01*
X125459250Y-121415000D01*
X125203146Y-121413606D01*
X125228295Y-121405977D01*
X125336967Y-121347890D01*
X125421124Y-121278824D01*
X125487400Y-121278824D01*
X125610097Y-121266739D01*
X125728079Y-121230950D01*
X125836811Y-121172831D01*
X125932116Y-121094616D01*
X125932734Y-121093863D01*
X125947998Y-121144180D01*
X126006963Y-121254494D01*
X126086315Y-121351185D01*
X126163195Y-121414279D01*
X126030750Y-121415000D01*
X125872000Y-121573750D01*
X125872000Y-122773000D01*
X127071250Y-122773000D01*
X127230000Y-122614250D01*
X127233072Y-122050000D01*
X127220812Y-121925518D01*
X127184502Y-121805820D01*
X127134352Y-121711997D01*
X127314250Y-121710000D01*
X127473000Y-121551250D01*
X127473000Y-121536859D01*
X127562500Y-121538072D01*
X127686982Y-121525812D01*
X127727000Y-121513673D01*
X127727000Y-121551250D01*
X127885750Y-121710000D01*
X128162500Y-121713072D01*
X128286982Y-121700812D01*
X128406680Y-121664502D01*
X128473000Y-121629053D01*
X128473000Y-128979117D01*
X128460078Y-129110899D01*
X128427873Y-129217570D01*
X128375558Y-129315961D01*
X128305130Y-129402313D01*
X128219270Y-129473343D01*
X128121255Y-129526339D01*
X128014807Y-129559290D01*
X127917983Y-129569467D01*
X128001185Y-129501185D01*
X128080537Y-129404494D01*
X128139502Y-129294180D01*
X128175812Y-129174482D01*
X128188072Y-129050000D01*
X128185000Y-128485750D01*
X128026250Y-128327000D01*
X126827000Y-128327000D01*
X126827000Y-128347000D01*
X126573000Y-128347000D01*
X126573000Y-128327000D01*
X125373750Y-128327000D01*
X125215000Y-128485750D01*
X125211928Y-129050000D01*
X125224188Y-129174482D01*
X125260498Y-129294180D01*
X125319463Y-129404494D01*
X125398815Y-129501185D01*
X125486322Y-129573000D01*
X110920883Y-129573000D01*
X110789101Y-129560078D01*
X110682430Y-129527873D01*
X110584039Y-129475558D01*
X110497687Y-129405130D01*
X110426657Y-129319270D01*
X110373661Y-129221255D01*
X110340710Y-129114807D01*
X110327000Y-128984371D01*
X110327000Y-127899750D01*
X111146176Y-127899750D01*
X111146176Y-128525250D01*
X111158254Y-128647879D01*
X111194023Y-128765795D01*
X111252110Y-128874467D01*
X111330281Y-128969719D01*
X111425533Y-129047890D01*
X111534205Y-129105977D01*
X111652121Y-129141746D01*
X111774750Y-129153824D01*
X113025250Y-129153824D01*
X113147879Y-129141746D01*
X113265795Y-129105977D01*
X113374467Y-129047890D01*
X113467141Y-128971834D01*
X113529485Y-129013491D01*
X113670890Y-129072063D01*
X113821005Y-129101922D01*
X113974061Y-129101922D01*
X114124176Y-129072063D01*
X114265581Y-129013491D01*
X114392842Y-128928458D01*
X114495889Y-128825411D01*
X114522110Y-128874467D01*
X114600281Y-128969719D01*
X114695533Y-129047890D01*
X114804205Y-129105977D01*
X114922121Y-129141746D01*
X115044750Y-129153824D01*
X116295250Y-129153824D01*
X116417879Y-129141746D01*
X116535795Y-129105977D01*
X116644467Y-129047890D01*
X116739719Y-128969719D01*
X116817890Y-128874467D01*
X116856625Y-128802000D01*
X116983375Y-128802000D01*
X117022110Y-128874467D01*
X117100281Y-128969719D01*
X117195533Y-129047890D01*
X117304205Y-129105977D01*
X117422121Y-129141746D01*
X117544750Y-129153824D01*
X118795250Y-129153824D01*
X118917879Y-129141746D01*
X119035795Y-129105977D01*
X119144467Y-129047890D01*
X119239719Y-128969719D01*
X119317890Y-128874467D01*
X119356625Y-128802000D01*
X119483375Y-128802000D01*
X119522110Y-128874467D01*
X119600281Y-128969719D01*
X119695533Y-129047890D01*
X119804205Y-129105977D01*
X119922121Y-129141746D01*
X120044750Y-129153824D01*
X121295250Y-129153824D01*
X121417879Y-129141746D01*
X121535795Y-129105977D01*
X121644467Y-129047890D01*
X121739719Y-128969719D01*
X121817890Y-128874467D01*
X121856625Y-128802000D01*
X121983375Y-128802000D01*
X122022110Y-128874467D01*
X122100281Y-128969719D01*
X122195533Y-129047890D01*
X122304205Y-129105977D01*
X122422121Y-129141746D01*
X122544750Y-129153824D01*
X123795250Y-129153824D01*
X123917879Y-129141746D01*
X124035795Y-129105977D01*
X124144467Y-129047890D01*
X124239719Y-128969719D01*
X124317890Y-128874467D01*
X124375977Y-128765795D01*
X124411746Y-128647879D01*
X124423824Y-128525250D01*
X124423824Y-127930583D01*
X125203020Y-127151388D01*
X125246675Y-127151388D01*
X125224188Y-127225518D01*
X125211928Y-127350000D01*
X125215000Y-127914250D01*
X125373750Y-128073000D01*
X126573000Y-128073000D01*
X126573000Y-128053000D01*
X126827000Y-128053000D01*
X126827000Y-128073000D01*
X128026250Y-128073000D01*
X128185000Y-127914250D01*
X128188072Y-127350000D01*
X128175812Y-127225518D01*
X128139502Y-127105820D01*
X128080537Y-126995506D01*
X128001185Y-126898815D01*
X127904494Y-126819463D01*
X127794180Y-126760498D01*
X127674482Y-126724188D01*
X127550000Y-126711928D01*
X127332447Y-126713112D01*
X127482167Y-126613073D01*
X127653073Y-126442167D01*
X127787353Y-126241202D01*
X127879847Y-126017903D01*
X127927000Y-125780849D01*
X127927000Y-125539151D01*
X127879847Y-125302097D01*
X127787353Y-125078798D01*
X127653073Y-124877833D01*
X127482167Y-124706927D01*
X127281202Y-124572647D01*
X127057903Y-124480153D01*
X126820849Y-124433000D01*
X126579151Y-124433000D01*
X126342097Y-124480153D01*
X126118798Y-124572647D01*
X125917833Y-124706927D01*
X125746927Y-124877833D01*
X125612647Y-125078798D01*
X125520153Y-125302097D01*
X125473000Y-125539151D01*
X125473000Y-125622528D01*
X125346612Y-125597388D01*
X125193556Y-125597388D01*
X125043441Y-125627247D01*
X124902036Y-125685819D01*
X124774775Y-125770852D01*
X124666548Y-125879079D01*
X124581515Y-126006340D01*
X124522943Y-126147745D01*
X124493084Y-126297860D01*
X124493084Y-126441452D01*
X124017676Y-126916861D01*
X123969311Y-126877169D01*
X123860579Y-126819050D01*
X123742597Y-126783261D01*
X123619900Y-126771176D01*
X122720100Y-126771176D01*
X122597403Y-126783261D01*
X122479421Y-126819050D01*
X122370689Y-126877169D01*
X122275384Y-126955384D01*
X122197169Y-127050689D01*
X122139050Y-127159421D01*
X122103261Y-127277403D01*
X122091176Y-127400100D01*
X122091176Y-127466376D01*
X122022110Y-127550533D01*
X121964023Y-127659205D01*
X121928254Y-127777121D01*
X121926198Y-127798000D01*
X121913802Y-127798000D01*
X121911746Y-127777121D01*
X121875977Y-127659205D01*
X121817890Y-127550533D01*
X121748824Y-127466376D01*
X121748824Y-127400100D01*
X121736739Y-127277403D01*
X121700950Y-127159421D01*
X121642831Y-127050689D01*
X121564616Y-126955384D01*
X121469311Y-126877169D01*
X121360579Y-126819050D01*
X121242597Y-126783261D01*
X121119900Y-126771176D01*
X120220100Y-126771176D01*
X120097403Y-126783261D01*
X119979421Y-126819050D01*
X119870689Y-126877169D01*
X119775384Y-126955384D01*
X119697169Y-127050689D01*
X119639050Y-127159421D01*
X119603261Y-127277403D01*
X119591176Y-127400100D01*
X119591176Y-127466376D01*
X119522110Y-127550533D01*
X119464023Y-127659205D01*
X119428254Y-127777121D01*
X119426198Y-127798000D01*
X119413802Y-127798000D01*
X119411746Y-127777121D01*
X119375977Y-127659205D01*
X119317890Y-127550533D01*
X119248824Y-127466376D01*
X119248824Y-127400100D01*
X119236739Y-127277403D01*
X119200950Y-127159421D01*
X119142831Y-127050689D01*
X119064616Y-126955384D01*
X118969311Y-126877169D01*
X118860579Y-126819050D01*
X118742597Y-126783261D01*
X118619900Y-126771176D01*
X117720100Y-126771176D01*
X117597403Y-126783261D01*
X117479421Y-126819050D01*
X117370689Y-126877169D01*
X117275384Y-126955384D01*
X117197169Y-127050689D01*
X117139050Y-127159421D01*
X117103261Y-127277403D01*
X117091176Y-127400100D01*
X117091176Y-127466376D01*
X117022110Y-127550533D01*
X116964023Y-127659205D01*
X116928254Y-127777121D01*
X116926198Y-127798000D01*
X116913802Y-127798000D01*
X116911746Y-127777121D01*
X116875977Y-127659205D01*
X116817890Y-127550533D01*
X116748824Y-127466376D01*
X116748824Y-127400100D01*
X116736739Y-127277403D01*
X116700950Y-127159421D01*
X116642831Y-127050689D01*
X116564616Y-126955384D01*
X116469311Y-126877169D01*
X116360579Y-126819050D01*
X116242597Y-126783261D01*
X116119900Y-126771176D01*
X115220100Y-126771176D01*
X115097403Y-126783261D01*
X114979421Y-126819050D01*
X114870689Y-126877169D01*
X114775384Y-126955384D01*
X114697169Y-127050689D01*
X114639050Y-127159421D01*
X114603261Y-127277403D01*
X114591176Y-127400100D01*
X114591176Y-127466376D01*
X114522110Y-127550533D01*
X114464023Y-127659205D01*
X114432984Y-127761528D01*
X114392842Y-127721386D01*
X114265581Y-127636353D01*
X114124176Y-127577781D01*
X113974061Y-127547922D01*
X113821005Y-127547922D01*
X113670890Y-127577781D01*
X113582111Y-127614555D01*
X113547890Y-127550533D01*
X113478824Y-127466376D01*
X113478824Y-127400100D01*
X113466739Y-127277403D01*
X113430950Y-127159421D01*
X113372831Y-127050689D01*
X113294616Y-126955384D01*
X113199311Y-126877169D01*
X113090579Y-126819050D01*
X112972597Y-126783261D01*
X112849900Y-126771176D01*
X111950100Y-126771176D01*
X111827403Y-126783261D01*
X111709421Y-126819050D01*
X111600689Y-126877169D01*
X111505384Y-126955384D01*
X111427169Y-127050689D01*
X111369050Y-127159421D01*
X111333261Y-127277403D01*
X111321176Y-127400100D01*
X111321176Y-127466376D01*
X111252110Y-127550533D01*
X111194023Y-127659205D01*
X111158254Y-127777121D01*
X111146176Y-127899750D01*
X110327000Y-127899750D01*
X110327000Y-121308060D01*
X110375533Y-121347890D01*
X110484205Y-121405977D01*
X110602121Y-121441746D01*
X110724750Y-121453824D01*
X111350250Y-121453824D01*
X111472879Y-121441746D01*
X111590795Y-121405977D01*
X111699467Y-121347890D01*
X111783624Y-121278824D01*
X111849900Y-121278824D01*
X111972597Y-121266739D01*
X112090579Y-121230950D01*
X112199311Y-121172831D01*
X112294616Y-121094616D01*
X112372831Y-120999311D01*
X112430950Y-120890579D01*
X112466739Y-120772597D01*
X112478824Y-120649900D01*
X112478824Y-119750100D01*
X112466739Y-119627403D01*
X112430950Y-119509421D01*
X112372831Y-119400689D01*
X112294616Y-119305384D01*
X112199311Y-119227169D01*
X112090579Y-119169050D01*
X111998496Y-119141117D01*
X112351248Y-118788366D01*
X112494841Y-118788366D01*
X112644956Y-118758507D01*
X112786361Y-118699935D01*
X112913622Y-118614902D01*
X113021849Y-118506675D01*
X113106882Y-118379414D01*
X113165454Y-118238009D01*
X113195313Y-118087894D01*
X113195313Y-117934838D01*
X113165454Y-117784723D01*
X113106882Y-117643318D01*
X113021849Y-117516057D01*
X112913622Y-117407830D01*
X112786361Y-117322797D01*
X112644956Y-117264225D01*
X112494841Y-117234366D01*
X112341785Y-117234366D01*
X112191670Y-117264225D01*
X112050265Y-117322797D01*
X111923004Y-117407830D01*
X111814777Y-117516057D01*
X111729744Y-117643318D01*
X111671172Y-117784723D01*
X111641313Y-117934838D01*
X111641313Y-118078431D01*
X110773569Y-118946176D01*
X110724750Y-118946176D01*
X110602121Y-118958254D01*
X110484205Y-118994023D01*
X110375533Y-119052110D01*
X110327000Y-119091940D01*
X110327000Y-115890810D01*
X111157000Y-115890810D01*
X111157000Y-110009191D01*
X110327000Y-110009191D01*
X110327000Y-105746634D01*
X110400000Y-105753824D01*
X110900000Y-105753824D01*
X111017800Y-105742222D01*
X111121176Y-105710863D01*
X111121176Y-105952814D01*
G37*
%TD.AperFunction*%
D31*
X123917781Y-119130281D02*
X123839610Y-119225533D01*
X123781523Y-119334205D01*
X123745754Y-119452121D01*
X123733676Y-119574750D01*
X123733676Y-120825250D01*
X123745754Y-120947879D01*
X123781523Y-121065795D01*
X123839610Y-121174467D01*
X123917781Y-121269719D01*
X124013033Y-121347890D01*
X124035282Y-121359782D01*
X123642105Y-121752960D01*
X123562903Y-121720153D01*
X123325849Y-121673000D01*
X123084151Y-121673000D01*
X122847097Y-121720153D01*
X122623798Y-121812647D01*
X122422833Y-121946927D01*
X122251927Y-122117833D01*
X122117647Y-122318798D01*
X122025153Y-122542097D01*
X121978000Y-122779151D01*
X121978000Y-123020849D01*
X122025153Y-123257903D01*
X122117647Y-123481202D01*
X122251927Y-123682167D01*
X122422833Y-123853073D01*
X122623798Y-123987353D01*
X122703000Y-124020160D01*
X122703001Y-124346176D01*
X122544750Y-124346176D01*
X122422121Y-124358254D01*
X122304205Y-124394023D01*
X122195533Y-124452110D01*
X122100281Y-124530281D01*
X122022110Y-124625533D01*
X121964023Y-124734205D01*
X121928254Y-124852121D01*
X121920000Y-124935925D01*
X121911746Y-124852121D01*
X121875977Y-124734205D01*
X121817890Y-124625533D01*
X121739719Y-124530281D01*
X121644467Y-124452110D01*
X121535795Y-124394023D01*
X121417879Y-124358254D01*
X121295250Y-124346176D01*
X121167000Y-124346176D01*
X121167000Y-124020160D01*
X121246202Y-123987353D01*
X121447167Y-123853073D01*
X121618073Y-123682167D01*
X121752353Y-123481202D01*
X121844847Y-123257903D01*
X121892000Y-123020849D01*
X121892000Y-122779151D01*
X121844847Y-122542097D01*
X121752353Y-122318798D01*
X121618073Y-122117833D01*
X121447167Y-121946927D01*
X121246202Y-121812647D01*
X121022903Y-121720153D01*
X120785849Y-121673000D01*
X120544151Y-121673000D01*
X120307097Y-121720153D01*
X120083798Y-121812647D01*
X119882833Y-121946927D01*
X119711927Y-122117833D01*
X119577647Y-122318798D01*
X119485153Y-122542097D01*
X119438000Y-122779151D01*
X119438000Y-123020849D01*
X119485153Y-123257903D01*
X119577647Y-123481202D01*
X119711927Y-123682167D01*
X119882833Y-123853073D01*
X120083798Y-123987353D01*
X120163000Y-124020160D01*
X120163001Y-124346176D01*
X120044750Y-124346176D01*
X119922121Y-124358254D01*
X119804205Y-124394023D01*
X119695533Y-124452110D01*
X119600281Y-124530281D01*
X119522110Y-124625533D01*
X119464023Y-124734205D01*
X119428254Y-124852121D01*
X119420000Y-124935925D01*
X119411746Y-124852121D01*
X119375977Y-124734205D01*
X119317890Y-124625533D01*
X119239719Y-124530281D01*
X119144467Y-124452110D01*
X119035795Y-124394023D01*
X118917879Y-124358254D01*
X118795250Y-124346176D01*
X118627000Y-124346176D01*
X118627000Y-124020160D01*
X118706202Y-123987353D01*
X118907167Y-123853073D01*
X119078073Y-123682167D01*
X119212353Y-123481202D01*
X119304847Y-123257903D01*
X119352000Y-123020849D01*
X119352000Y-122779151D01*
X119304847Y-122542097D01*
X119212353Y-122318798D01*
X119078073Y-122117833D01*
X118907167Y-121946927D01*
X118706202Y-121812647D01*
X118482903Y-121720153D01*
X118245849Y-121673000D01*
X118004151Y-121673000D01*
X117767097Y-121720153D01*
X117543798Y-121812647D01*
X117342833Y-121946927D01*
X117171927Y-122117833D01*
X117037647Y-122318798D01*
X116945153Y-122542097D01*
X116898000Y-122779151D01*
X116898000Y-123020849D01*
X116945153Y-123257903D01*
X117037647Y-123481202D01*
X117171927Y-123682167D01*
X117342833Y-123853073D01*
X117543798Y-123987353D01*
X117623000Y-124020160D01*
X117623001Y-124346176D01*
X117544750Y-124346176D01*
X117422121Y-124358254D01*
X117304205Y-124394023D01*
X117195533Y-124452110D01*
X117100281Y-124530281D01*
X117022110Y-124625533D01*
X116964023Y-124734205D01*
X116928254Y-124852121D01*
X116920000Y-124935925D01*
X116911746Y-124852121D01*
X116875977Y-124734205D01*
X116817890Y-124625533D01*
X116739719Y-124530281D01*
X116644467Y-124452110D01*
X116535795Y-124394023D01*
X116417879Y-124358254D01*
X116295250Y-124346176D01*
X116087000Y-124346176D01*
X116087000Y-124020160D01*
X116166202Y-123987353D01*
X116367167Y-123853073D01*
X116538073Y-123682167D01*
X116672353Y-123481202D01*
X116764847Y-123257903D01*
X116812000Y-123020849D01*
X116812000Y-122779151D01*
X116764847Y-122542097D01*
X116672353Y-122318798D01*
X116538073Y-122117833D01*
X116415087Y-121994847D01*
X116837023Y-121572912D01*
X120246269Y-121572912D01*
X120270912Y-121575339D01*
X120295555Y-121572912D01*
X120295565Y-121572912D01*
X120369321Y-121565648D01*
X120463948Y-121536943D01*
X120551157Y-121490329D01*
X120627596Y-121427596D01*
X120643313Y-121408445D01*
X121650449Y-120401310D01*
X122076047Y-120401310D01*
X122100690Y-120403737D01*
X122125333Y-120401310D01*
X122125343Y-120401310D01*
X122125363Y-120401308D01*
X122276048Y-120401308D01*
X122300691Y-120403735D01*
X122325334Y-120401308D01*
X122325344Y-120401308D01*
X122399100Y-120394044D01*
X122493727Y-120365339D01*
X122580936Y-120318725D01*
X122657375Y-120255992D01*
X122673092Y-120236841D01*
X123805910Y-119104024D01*
X123829962Y-119101655D01*
X123829972Y-119101655D01*
X123903728Y-119094391D01*
X123995397Y-119066583D01*
X123917781Y-119130281D01*
%TA.AperFunction,Conductor*%
D32*
G36*
X123917781Y-119130281D02*
G01*
X123839610Y-119225533D01*
X123781523Y-119334205D01*
X123745754Y-119452121D01*
X123733676Y-119574750D01*
X123733676Y-120825250D01*
X123745754Y-120947879D01*
X123781523Y-121065795D01*
X123839610Y-121174467D01*
X123917781Y-121269719D01*
X124013033Y-121347890D01*
X124035282Y-121359782D01*
X123642105Y-121752960D01*
X123562903Y-121720153D01*
X123325849Y-121673000D01*
X123084151Y-121673000D01*
X122847097Y-121720153D01*
X122623798Y-121812647D01*
X122422833Y-121946927D01*
X122251927Y-122117833D01*
X122117647Y-122318798D01*
X122025153Y-122542097D01*
X121978000Y-122779151D01*
X121978000Y-123020849D01*
X122025153Y-123257903D01*
X122117647Y-123481202D01*
X122251927Y-123682167D01*
X122422833Y-123853073D01*
X122623798Y-123987353D01*
X122703000Y-124020160D01*
X122703001Y-124346176D01*
X122544750Y-124346176D01*
X122422121Y-124358254D01*
X122304205Y-124394023D01*
X122195533Y-124452110D01*
X122100281Y-124530281D01*
X122022110Y-124625533D01*
X121964023Y-124734205D01*
X121928254Y-124852121D01*
X121920000Y-124935925D01*
X121911746Y-124852121D01*
X121875977Y-124734205D01*
X121817890Y-124625533D01*
X121739719Y-124530281D01*
X121644467Y-124452110D01*
X121535795Y-124394023D01*
X121417879Y-124358254D01*
X121295250Y-124346176D01*
X121167000Y-124346176D01*
X121167000Y-124020160D01*
X121246202Y-123987353D01*
X121447167Y-123853073D01*
X121618073Y-123682167D01*
X121752353Y-123481202D01*
X121844847Y-123257903D01*
X121892000Y-123020849D01*
X121892000Y-122779151D01*
X121844847Y-122542097D01*
X121752353Y-122318798D01*
X121618073Y-122117833D01*
X121447167Y-121946927D01*
X121246202Y-121812647D01*
X121022903Y-121720153D01*
X120785849Y-121673000D01*
X120544151Y-121673000D01*
X120307097Y-121720153D01*
X120083798Y-121812647D01*
X119882833Y-121946927D01*
X119711927Y-122117833D01*
X119577647Y-122318798D01*
X119485153Y-122542097D01*
X119438000Y-122779151D01*
X119438000Y-123020849D01*
X119485153Y-123257903D01*
X119577647Y-123481202D01*
X119711927Y-123682167D01*
X119882833Y-123853073D01*
X120083798Y-123987353D01*
X120163000Y-124020160D01*
X120163001Y-124346176D01*
X120044750Y-124346176D01*
X119922121Y-124358254D01*
X119804205Y-124394023D01*
X119695533Y-124452110D01*
X119600281Y-124530281D01*
X119522110Y-124625533D01*
X119464023Y-124734205D01*
X119428254Y-124852121D01*
X119420000Y-124935925D01*
X119411746Y-124852121D01*
X119375977Y-124734205D01*
X119317890Y-124625533D01*
X119239719Y-124530281D01*
X119144467Y-124452110D01*
X119035795Y-124394023D01*
X118917879Y-124358254D01*
X118795250Y-124346176D01*
X118627000Y-124346176D01*
X118627000Y-124020160D01*
X118706202Y-123987353D01*
X118907167Y-123853073D01*
X119078073Y-123682167D01*
X119212353Y-123481202D01*
X119304847Y-123257903D01*
X119352000Y-123020849D01*
X119352000Y-122779151D01*
X119304847Y-122542097D01*
X119212353Y-122318798D01*
X119078073Y-122117833D01*
X118907167Y-121946927D01*
X118706202Y-121812647D01*
X118482903Y-121720153D01*
X118245849Y-121673000D01*
X118004151Y-121673000D01*
X117767097Y-121720153D01*
X117543798Y-121812647D01*
X117342833Y-121946927D01*
X117171927Y-122117833D01*
X117037647Y-122318798D01*
X116945153Y-122542097D01*
X116898000Y-122779151D01*
X116898000Y-123020849D01*
X116945153Y-123257903D01*
X117037647Y-123481202D01*
X117171927Y-123682167D01*
X117342833Y-123853073D01*
X117543798Y-123987353D01*
X117623000Y-124020160D01*
X117623001Y-124346176D01*
X117544750Y-124346176D01*
X117422121Y-124358254D01*
X117304205Y-124394023D01*
X117195533Y-124452110D01*
X117100281Y-124530281D01*
X117022110Y-124625533D01*
X116964023Y-124734205D01*
X116928254Y-124852121D01*
X116920000Y-124935925D01*
X116911746Y-124852121D01*
X116875977Y-124734205D01*
X116817890Y-124625533D01*
X116739719Y-124530281D01*
X116644467Y-124452110D01*
X116535795Y-124394023D01*
X116417879Y-124358254D01*
X116295250Y-124346176D01*
X116087000Y-124346176D01*
X116087000Y-124020160D01*
X116166202Y-123987353D01*
X116367167Y-123853073D01*
X116538073Y-123682167D01*
X116672353Y-123481202D01*
X116764847Y-123257903D01*
X116812000Y-123020849D01*
X116812000Y-122779151D01*
X116764847Y-122542097D01*
X116672353Y-122318798D01*
X116538073Y-122117833D01*
X116415087Y-121994847D01*
X116837023Y-121572912D01*
X120246269Y-121572912D01*
X120270912Y-121575339D01*
X120295555Y-121572912D01*
X120295565Y-121572912D01*
X120369321Y-121565648D01*
X120463948Y-121536943D01*
X120551157Y-121490329D01*
X120627596Y-121427596D01*
X120643313Y-121408445D01*
X121650449Y-120401310D01*
X122076047Y-120401310D01*
X122100690Y-120403737D01*
X122125333Y-120401310D01*
X122125343Y-120401310D01*
X122125363Y-120401308D01*
X122276048Y-120401308D01*
X122300691Y-120403735D01*
X122325334Y-120401308D01*
X122325344Y-120401308D01*
X122399100Y-120394044D01*
X122493727Y-120365339D01*
X122580936Y-120318725D01*
X122657375Y-120255992D01*
X122673092Y-120236841D01*
X123805910Y-119104024D01*
X123829962Y-119101655D01*
X123829972Y-119101655D01*
X123903728Y-119094391D01*
X123995397Y-119066583D01*
X123917781Y-119130281D01*
G37*
%TD.AperFunction*%
D31*
X127747000Y-120327000D02*
X126903000Y-120327000D01*
X126903000Y-120073000D01*
X127747000Y-120073000D01*
X127747000Y-120327000D01*
%TA.AperFunction,Conductor*%
D32*
G36*
X127747000Y-120327000D02*
G01*
X126903000Y-120327000D01*
X126903000Y-120073000D01*
X127747000Y-120073000D01*
X127747000Y-120327000D01*
G37*
%TD.AperFunction*%
D31*
X128473001Y-106616218D02*
X128458599Y-106516981D01*
X128360919Y-106241253D01*
X128287472Y-106103843D01*
X128038397Y-106026208D01*
X127189605Y-106875000D01*
X128038397Y-107723792D01*
X128287472Y-107646157D01*
X128413371Y-107382117D01*
X128473001Y-107147197D01*
X128473001Y-115266216D01*
X128458599Y-115166981D01*
X128360919Y-114891253D01*
X128287472Y-114753843D01*
X128038397Y-114676208D01*
X127189605Y-115525000D01*
X128038397Y-116373792D01*
X128287472Y-116296157D01*
X128413371Y-116032117D01*
X128473000Y-115797198D01*
X128473000Y-118770948D01*
X128406680Y-118735498D01*
X128286982Y-118699188D01*
X128162500Y-118686928D01*
X127885750Y-118690000D01*
X127727000Y-118848750D01*
X127727000Y-118886327D01*
X127686982Y-118874188D01*
X127562500Y-118861928D01*
X127473000Y-118863141D01*
X127473000Y-118848750D01*
X127314250Y-118690000D01*
X127037500Y-118686928D01*
X126913018Y-118699188D01*
X126793320Y-118735498D01*
X126683006Y-118794463D01*
X126599771Y-118862772D01*
X126537500Y-118861928D01*
X126413018Y-118874188D01*
X126293320Y-118910498D01*
X126183006Y-118969463D01*
X126086315Y-119048815D01*
X126006963Y-119145506D01*
X125947998Y-119255820D01*
X125932734Y-119306137D01*
X125932116Y-119305384D01*
X125836811Y-119227169D01*
X125728079Y-119169050D01*
X125610097Y-119133261D01*
X125487400Y-119121176D01*
X125421124Y-119121176D01*
X125336967Y-119052110D01*
X125228295Y-118994023D01*
X125110379Y-118958254D01*
X124987750Y-118946176D01*
X124362250Y-118946176D01*
X124239621Y-118958254D01*
X124121705Y-118994023D01*
X124105590Y-119002637D01*
X124162003Y-118956339D01*
X124177720Y-118937188D01*
X125032935Y-118081974D01*
X125176528Y-118081974D01*
X125326643Y-118052115D01*
X125468048Y-117993543D01*
X125595309Y-117908510D01*
X125703536Y-117800283D01*
X125788569Y-117673022D01*
X125847141Y-117531617D01*
X125861377Y-117460046D01*
X125963155Y-117502204D01*
X126113270Y-117532063D01*
X126266326Y-117532063D01*
X126416441Y-117502204D01*
X126557846Y-117443632D01*
X126685107Y-117358599D01*
X126793334Y-117250372D01*
X126878367Y-117123111D01*
X126926194Y-117007647D01*
X127078531Y-117015611D01*
X127368019Y-116973599D01*
X127643747Y-116875919D01*
X127781157Y-116802472D01*
X127858792Y-116553397D01*
X127010000Y-115704605D01*
X126995858Y-115718748D01*
X126816253Y-115539143D01*
X126830395Y-115525000D01*
X125981603Y-114676208D01*
X125732528Y-114753843D01*
X125606629Y-115017883D01*
X125534661Y-115301411D01*
X125519389Y-115593531D01*
X125557054Y-115853064D01*
X124796576Y-115853064D01*
X124771933Y-115850637D01*
X124747290Y-115853064D01*
X124747281Y-115853064D01*
X124673525Y-115860328D01*
X124578898Y-115889033D01*
X124491689Y-115935647D01*
X124491687Y-115935648D01*
X124491688Y-115935648D01*
X124449162Y-115970549D01*
X124415250Y-115998380D01*
X124399537Y-116017526D01*
X124388141Y-116028922D01*
X124452384Y-115783892D01*
X124471718Y-115462405D01*
X124427961Y-115143325D01*
X124322795Y-114838912D01*
X124229814Y-114664956D01*
X123965413Y-114569192D01*
X123009605Y-115525000D01*
X123023748Y-115539143D01*
X122844143Y-115718748D01*
X122830000Y-115704605D01*
X122815858Y-115718748D01*
X122636253Y-115539143D01*
X122650395Y-115525000D01*
X122636253Y-115510858D01*
X122809048Y-115338062D01*
X122810000Y-115338072D01*
X122821540Y-115336935D01*
X122830000Y-115345395D01*
X122840308Y-115335087D01*
X122934482Y-115325812D01*
X123054180Y-115289502D01*
X123164494Y-115230537D01*
X123261185Y-115151185D01*
X123340537Y-115054494D01*
X123399502Y-114944180D01*
X123435812Y-114824482D01*
X123445087Y-114730308D01*
X123678792Y-114496603D01*
X126161208Y-114496603D01*
X127010000Y-115345395D01*
X127858792Y-114496603D01*
X127781157Y-114247528D01*
X127517117Y-114121629D01*
X127233589Y-114049661D01*
X126941469Y-114034389D01*
X126651981Y-114076401D01*
X126376253Y-114174081D01*
X126238843Y-114247528D01*
X126161208Y-114496603D01*
X123678792Y-114496603D01*
X123785808Y-114389587D01*
X123690044Y-114125186D01*
X123438501Y-114002817D01*
X123435812Y-113975518D01*
X123399502Y-113855820D01*
X123381951Y-113822985D01*
X123472538Y-113732399D01*
X123491685Y-113716685D01*
X123507398Y-113697539D01*
X123507401Y-113697536D01*
X123523843Y-113677501D01*
X123554418Y-113640246D01*
X123601032Y-113553037D01*
X123629737Y-113458410D01*
X123637001Y-113384654D01*
X123637001Y-113384644D01*
X123639428Y-113360001D01*
X123637001Y-113335358D01*
X123637001Y-109064642D01*
X123639428Y-109039999D01*
X123637001Y-109015356D01*
X123637001Y-109015346D01*
X123629737Y-108941590D01*
X123601032Y-108846963D01*
X123554418Y-108759754D01*
X123520513Y-108718441D01*
X123507401Y-108702464D01*
X123507398Y-108702461D01*
X123491685Y-108683315D01*
X123472538Y-108667601D01*
X123381951Y-108577015D01*
X123399502Y-108544180D01*
X123435812Y-108424482D01*
X123438764Y-108394508D01*
X123516088Y-108367795D01*
X123690044Y-108274814D01*
X123785808Y-108010413D01*
X123690395Y-107915000D01*
X123807002Y-107915000D01*
X123807002Y-107760252D01*
X123961750Y-107915000D01*
X124021965Y-107911410D01*
X124054315Y-107903397D01*
X126161208Y-107903397D01*
X126238843Y-108152472D01*
X126502883Y-108278371D01*
X126786411Y-108350339D01*
X127078531Y-108365611D01*
X127368019Y-108323599D01*
X127643747Y-108225919D01*
X127781157Y-108152472D01*
X127858792Y-107903397D01*
X127010000Y-107054605D01*
X126161208Y-107903397D01*
X124054315Y-107903397D01*
X124143380Y-107881336D01*
X124256595Y-107828153D01*
X124357259Y-107753905D01*
X124441503Y-107661445D01*
X124506091Y-107554326D01*
X124548540Y-107436665D01*
X124565000Y-107338750D01*
X124433223Y-107206973D01*
X124452384Y-107133892D01*
X124452386Y-107133864D01*
X124565000Y-107021250D01*
X124548540Y-106923335D01*
X124506091Y-106805674D01*
X124460404Y-106729902D01*
X124427961Y-106493325D01*
X124322795Y-106188912D01*
X124229814Y-106014956D01*
X124186939Y-105999427D01*
X124276185Y-105926185D01*
X124355537Y-105829494D01*
X124364327Y-105813050D01*
X124462077Y-105842702D01*
X124575000Y-105853824D01*
X124760950Y-105853824D01*
X124752859Y-105873357D01*
X124723000Y-106023472D01*
X124723000Y-106176528D01*
X124752859Y-106326643D01*
X124811431Y-106468048D01*
X124896464Y-106595309D01*
X125004691Y-106703536D01*
X125131952Y-106788569D01*
X125273357Y-106847141D01*
X125423472Y-106877000D01*
X125522867Y-106877000D01*
X125519389Y-106943531D01*
X125561401Y-107233019D01*
X125659081Y-107508747D01*
X125732528Y-107646157D01*
X125981603Y-107723792D01*
X126830395Y-106875000D01*
X126816253Y-106860858D01*
X126995858Y-106681253D01*
X127010000Y-106695395D01*
X127858792Y-105846603D01*
X127781157Y-105597528D01*
X127517117Y-105471629D01*
X127462793Y-105457840D01*
X127460000Y-105285750D01*
X127301250Y-105127000D01*
X126552000Y-105127000D01*
X126552000Y-105147000D01*
X126298000Y-105147000D01*
X126298000Y-105127000D01*
X126278000Y-105127000D01*
X126278000Y-104873000D01*
X126298000Y-104873000D01*
X126298000Y-104853000D01*
X126552000Y-104853000D01*
X126552000Y-104873000D01*
X127301250Y-104873000D01*
X127460000Y-104714250D01*
X127463072Y-104525000D01*
X127450812Y-104400518D01*
X127448984Y-104394491D01*
X127543750Y-104403824D01*
X128056250Y-104403824D01*
X128172831Y-104392342D01*
X128284932Y-104358336D01*
X128388244Y-104303115D01*
X128473001Y-104233557D01*
X128473001Y-106616218D01*
%TA.AperFunction,Conductor*%
D32*
G36*
X128473001Y-106616218D02*
G01*
X128458599Y-106516981D01*
X128360919Y-106241253D01*
X128287472Y-106103843D01*
X128038397Y-106026208D01*
X127189605Y-106875000D01*
X128038397Y-107723792D01*
X128287472Y-107646157D01*
X128413371Y-107382117D01*
X128473001Y-107147197D01*
X128473001Y-115266216D01*
X128458599Y-115166981D01*
X128360919Y-114891253D01*
X128287472Y-114753843D01*
X128038397Y-114676208D01*
X127189605Y-115525000D01*
X128038397Y-116373792D01*
X128287472Y-116296157D01*
X128413371Y-116032117D01*
X128473000Y-115797198D01*
X128473000Y-118770948D01*
X128406680Y-118735498D01*
X128286982Y-118699188D01*
X128162500Y-118686928D01*
X127885750Y-118690000D01*
X127727000Y-118848750D01*
X127727000Y-118886327D01*
X127686982Y-118874188D01*
X127562500Y-118861928D01*
X127473000Y-118863141D01*
X127473000Y-118848750D01*
X127314250Y-118690000D01*
X127037500Y-118686928D01*
X126913018Y-118699188D01*
X126793320Y-118735498D01*
X126683006Y-118794463D01*
X126599771Y-118862772D01*
X126537500Y-118861928D01*
X126413018Y-118874188D01*
X126293320Y-118910498D01*
X126183006Y-118969463D01*
X126086315Y-119048815D01*
X126006963Y-119145506D01*
X125947998Y-119255820D01*
X125932734Y-119306137D01*
X125932116Y-119305384D01*
X125836811Y-119227169D01*
X125728079Y-119169050D01*
X125610097Y-119133261D01*
X125487400Y-119121176D01*
X125421124Y-119121176D01*
X125336967Y-119052110D01*
X125228295Y-118994023D01*
X125110379Y-118958254D01*
X124987750Y-118946176D01*
X124362250Y-118946176D01*
X124239621Y-118958254D01*
X124121705Y-118994023D01*
X124105590Y-119002637D01*
X124162003Y-118956339D01*
X124177720Y-118937188D01*
X125032935Y-118081974D01*
X125176528Y-118081974D01*
X125326643Y-118052115D01*
X125468048Y-117993543D01*
X125595309Y-117908510D01*
X125703536Y-117800283D01*
X125788569Y-117673022D01*
X125847141Y-117531617D01*
X125861377Y-117460046D01*
X125963155Y-117502204D01*
X126113270Y-117532063D01*
X126266326Y-117532063D01*
X126416441Y-117502204D01*
X126557846Y-117443632D01*
X126685107Y-117358599D01*
X126793334Y-117250372D01*
X126878367Y-117123111D01*
X126926194Y-117007647D01*
X127078531Y-117015611D01*
X127368019Y-116973599D01*
X127643747Y-116875919D01*
X127781157Y-116802472D01*
X127858792Y-116553397D01*
X127010000Y-115704605D01*
X126995858Y-115718748D01*
X126816253Y-115539143D01*
X126830395Y-115525000D01*
X125981603Y-114676208D01*
X125732528Y-114753843D01*
X125606629Y-115017883D01*
X125534661Y-115301411D01*
X125519389Y-115593531D01*
X125557054Y-115853064D01*
X124796576Y-115853064D01*
X124771933Y-115850637D01*
X124747290Y-115853064D01*
X124747281Y-115853064D01*
X124673525Y-115860328D01*
X124578898Y-115889033D01*
X124491689Y-115935647D01*
X124491687Y-115935648D01*
X124491688Y-115935648D01*
X124449162Y-115970549D01*
X124415250Y-115998380D01*
X124399537Y-116017526D01*
X124388141Y-116028922D01*
X124452384Y-115783892D01*
X124471718Y-115462405D01*
X124427961Y-115143325D01*
X124322795Y-114838912D01*
X124229814Y-114664956D01*
X123965413Y-114569192D01*
X123009605Y-115525000D01*
X123023748Y-115539143D01*
X122844143Y-115718748D01*
X122830000Y-115704605D01*
X122815858Y-115718748D01*
X122636253Y-115539143D01*
X122650395Y-115525000D01*
X122636253Y-115510858D01*
X122809048Y-115338062D01*
X122810000Y-115338072D01*
X122821540Y-115336935D01*
X122830000Y-115345395D01*
X122840308Y-115335087D01*
X122934482Y-115325812D01*
X123054180Y-115289502D01*
X123164494Y-115230537D01*
X123261185Y-115151185D01*
X123340537Y-115054494D01*
X123399502Y-114944180D01*
X123435812Y-114824482D01*
X123445087Y-114730308D01*
X123678792Y-114496603D01*
X126161208Y-114496603D01*
X127010000Y-115345395D01*
X127858792Y-114496603D01*
X127781157Y-114247528D01*
X127517117Y-114121629D01*
X127233589Y-114049661D01*
X126941469Y-114034389D01*
X126651981Y-114076401D01*
X126376253Y-114174081D01*
X126238843Y-114247528D01*
X126161208Y-114496603D01*
X123678792Y-114496603D01*
X123785808Y-114389587D01*
X123690044Y-114125186D01*
X123438501Y-114002817D01*
X123435812Y-113975518D01*
X123399502Y-113855820D01*
X123381951Y-113822985D01*
X123472538Y-113732399D01*
X123491685Y-113716685D01*
X123507398Y-113697539D01*
X123507401Y-113697536D01*
X123523843Y-113677501D01*
X123554418Y-113640246D01*
X123601032Y-113553037D01*
X123629737Y-113458410D01*
X123637001Y-113384654D01*
X123637001Y-113384644D01*
X123639428Y-113360001D01*
X123637001Y-113335358D01*
X123637001Y-109064642D01*
X123639428Y-109039999D01*
X123637001Y-109015356D01*
X123637001Y-109015346D01*
X123629737Y-108941590D01*
X123601032Y-108846963D01*
X123554418Y-108759754D01*
X123520513Y-108718441D01*
X123507401Y-108702464D01*
X123507398Y-108702461D01*
X123491685Y-108683315D01*
X123472538Y-108667601D01*
X123381951Y-108577015D01*
X123399502Y-108544180D01*
X123435812Y-108424482D01*
X123438764Y-108394508D01*
X123516088Y-108367795D01*
X123690044Y-108274814D01*
X123785808Y-108010413D01*
X123690395Y-107915000D01*
X123807002Y-107915000D01*
X123807002Y-107760252D01*
X123961750Y-107915000D01*
X124021965Y-107911410D01*
X124054315Y-107903397D01*
X126161208Y-107903397D01*
X126238843Y-108152472D01*
X126502883Y-108278371D01*
X126786411Y-108350339D01*
X127078531Y-108365611D01*
X127368019Y-108323599D01*
X127643747Y-108225919D01*
X127781157Y-108152472D01*
X127858792Y-107903397D01*
X127010000Y-107054605D01*
X126161208Y-107903397D01*
X124054315Y-107903397D01*
X124143380Y-107881336D01*
X124256595Y-107828153D01*
X124357259Y-107753905D01*
X124441503Y-107661445D01*
X124506091Y-107554326D01*
X124548540Y-107436665D01*
X124565000Y-107338750D01*
X124433223Y-107206973D01*
X124452384Y-107133892D01*
X124452386Y-107133864D01*
X124565000Y-107021250D01*
X124548540Y-106923335D01*
X124506091Y-106805674D01*
X124460404Y-106729902D01*
X124427961Y-106493325D01*
X124322795Y-106188912D01*
X124229814Y-106014956D01*
X124186939Y-105999427D01*
X124276185Y-105926185D01*
X124355537Y-105829494D01*
X124364327Y-105813050D01*
X124462077Y-105842702D01*
X124575000Y-105853824D01*
X124760950Y-105853824D01*
X124752859Y-105873357D01*
X124723000Y-106023472D01*
X124723000Y-106176528D01*
X124752859Y-106326643D01*
X124811431Y-106468048D01*
X124896464Y-106595309D01*
X125004691Y-106703536D01*
X125131952Y-106788569D01*
X125273357Y-106847141D01*
X125423472Y-106877000D01*
X125522867Y-106877000D01*
X125519389Y-106943531D01*
X125561401Y-107233019D01*
X125659081Y-107508747D01*
X125732528Y-107646157D01*
X125981603Y-107723792D01*
X126830395Y-106875000D01*
X126816253Y-106860858D01*
X126995858Y-106681253D01*
X127010000Y-106695395D01*
X127858792Y-105846603D01*
X127781157Y-105597528D01*
X127517117Y-105471629D01*
X127462793Y-105457840D01*
X127460000Y-105285750D01*
X127301250Y-105127000D01*
X126552000Y-105127000D01*
X126552000Y-105147000D01*
X126298000Y-105147000D01*
X126298000Y-105127000D01*
X126278000Y-105127000D01*
X126278000Y-104873000D01*
X126298000Y-104873000D01*
X126298000Y-104853000D01*
X126552000Y-104853000D01*
X126552000Y-104873000D01*
X127301250Y-104873000D01*
X127460000Y-104714250D01*
X127463072Y-104525000D01*
X127450812Y-104400518D01*
X127448984Y-104394491D01*
X127543750Y-104403824D01*
X128056250Y-104403824D01*
X128172831Y-104392342D01*
X128284932Y-104358336D01*
X128388244Y-104303115D01*
X128473001Y-104233557D01*
X128473001Y-106616218D01*
G37*
%TD.AperFunction*%
D31*
X121969956Y-116924814D02*
X122259571Y-117065704D01*
X122379208Y-117097071D01*
X122326240Y-117176344D01*
X122267668Y-117317749D01*
X122237809Y-117467864D01*
X122237809Y-117611457D01*
X121351979Y-118497288D01*
X121094359Y-118497288D01*
X121069713Y-118494861D01*
X121059029Y-118495913D01*
X121109337Y-118406294D01*
X121148109Y-118287371D01*
X121160000Y-118183750D01*
X121001250Y-118025000D01*
X121160000Y-117866250D01*
X121148109Y-117762629D01*
X121109337Y-117643706D01*
X121048109Y-117534633D01*
X120984640Y-117460472D01*
X121014678Y-117444417D01*
X121091117Y-117381684D01*
X121106834Y-117362533D01*
X121662559Y-116806809D01*
X121681705Y-116791096D01*
X121697418Y-116771950D01*
X121697421Y-116771947D01*
X121723100Y-116740658D01*
X121758525Y-116776083D01*
X121874193Y-116660415D01*
X121969956Y-116924814D01*
%TA.AperFunction,Conductor*%
D32*
G36*
X121969956Y-116924814D02*
G01*
X122259571Y-117065704D01*
X122379208Y-117097071D01*
X122326240Y-117176344D01*
X122267668Y-117317749D01*
X122237809Y-117467864D01*
X122237809Y-117611457D01*
X121351979Y-118497288D01*
X121094359Y-118497288D01*
X121069713Y-118494861D01*
X121059029Y-118495913D01*
X121109337Y-118406294D01*
X121148109Y-118287371D01*
X121160000Y-118183750D01*
X121001250Y-118025000D01*
X121160000Y-117866250D01*
X121148109Y-117762629D01*
X121109337Y-117643706D01*
X121048109Y-117534633D01*
X120984640Y-117460472D01*
X121014678Y-117444417D01*
X121091117Y-117381684D01*
X121106834Y-117362533D01*
X121662559Y-116806809D01*
X121681705Y-116791096D01*
X121697418Y-116771950D01*
X121697421Y-116771947D01*
X121723100Y-116740658D01*
X121758525Y-116776083D01*
X121874193Y-116660415D01*
X121969956Y-116924814D01*
G37*
%TD.AperFunction*%
D31*
X114967142Y-113374784D02*
X114982855Y-113393931D01*
X115059294Y-113456664D01*
X115146503Y-113503278D01*
X115241130Y-113531983D01*
X115314886Y-113539247D01*
X115314895Y-113539247D01*
X115339538Y-113541674D01*
X115364181Y-113539247D01*
X115632451Y-113539247D01*
X116416202Y-114323000D01*
X115450000Y-114323000D01*
X115425224Y-114325440D01*
X115401399Y-114332667D01*
X115379443Y-114344403D01*
X115360197Y-114360197D01*
X115344403Y-114379443D01*
X115332667Y-114401399D01*
X115325440Y-114425224D01*
X115323000Y-114450000D01*
X115323000Y-115611403D01*
X115275437Y-115650437D01*
X115220553Y-115717314D01*
X115179770Y-115793613D01*
X115154656Y-115876402D01*
X115146176Y-115962500D01*
X115146176Y-115972976D01*
X114836158Y-115972976D01*
X113540170Y-114676990D01*
X113850347Y-114676990D01*
X113874990Y-114679417D01*
X113899633Y-114676990D01*
X113899643Y-114676990D01*
X113973399Y-114669726D01*
X114068026Y-114641021D01*
X114155235Y-114594407D01*
X114231674Y-114531674D01*
X114242947Y-114517937D01*
X114256684Y-114506664D01*
X114319417Y-114430225D01*
X114366031Y-114343016D01*
X114394736Y-114248389D01*
X114402000Y-114174633D01*
X114402000Y-114174624D01*
X114404427Y-114149981D01*
X114402000Y-114125338D01*
X114402000Y-113716599D01*
X114479911Y-113674955D01*
X114573307Y-113598307D01*
X114649955Y-113504911D01*
X114706909Y-113398357D01*
X114741982Y-113282739D01*
X114750157Y-113199731D01*
X114792089Y-113199731D01*
X114967142Y-113374784D01*
%TA.AperFunction,Conductor*%
D32*
G36*
X114967142Y-113374784D02*
G01*
X114982855Y-113393931D01*
X115059294Y-113456664D01*
X115146503Y-113503278D01*
X115241130Y-113531983D01*
X115314886Y-113539247D01*
X115314895Y-113539247D01*
X115339538Y-113541674D01*
X115364181Y-113539247D01*
X115632451Y-113539247D01*
X116416202Y-114323000D01*
X115450000Y-114323000D01*
X115425224Y-114325440D01*
X115401399Y-114332667D01*
X115379443Y-114344403D01*
X115360197Y-114360197D01*
X115344403Y-114379443D01*
X115332667Y-114401399D01*
X115325440Y-114425224D01*
X115323000Y-114450000D01*
X115323000Y-115611403D01*
X115275437Y-115650437D01*
X115220553Y-115717314D01*
X115179770Y-115793613D01*
X115154656Y-115876402D01*
X115146176Y-115962500D01*
X115146176Y-115972976D01*
X114836158Y-115972976D01*
X113540170Y-114676990D01*
X113850347Y-114676990D01*
X113874990Y-114679417D01*
X113899633Y-114676990D01*
X113899643Y-114676990D01*
X113973399Y-114669726D01*
X114068026Y-114641021D01*
X114155235Y-114594407D01*
X114231674Y-114531674D01*
X114242947Y-114517937D01*
X114256684Y-114506664D01*
X114319417Y-114430225D01*
X114366031Y-114343016D01*
X114394736Y-114248389D01*
X114402000Y-114174633D01*
X114402000Y-114174624D01*
X114404427Y-114149981D01*
X114402000Y-114125338D01*
X114402000Y-113716599D01*
X114479911Y-113674955D01*
X114573307Y-113598307D01*
X114649955Y-113504911D01*
X114706909Y-113398357D01*
X114741982Y-113282739D01*
X114750157Y-113199731D01*
X114792089Y-113199731D01*
X114967142Y-113374784D01*
G37*
%TD.AperFunction*%
D31*
X123696176Y-102375000D02*
X123707298Y-102487923D01*
X123740236Y-102596506D01*
X123793725Y-102696577D01*
X123851318Y-102766753D01*
X123824388Y-102807057D01*
X123765816Y-102948462D01*
X123735957Y-103098577D01*
X123735957Y-103251633D01*
X123765816Y-103401748D01*
X123824388Y-103543153D01*
X123909421Y-103670414D01*
X124017648Y-103778641D01*
X124144909Y-103863674D01*
X124286314Y-103922246D01*
X124323000Y-103929543D01*
X124323000Y-104076528D01*
X124327231Y-104097800D01*
X124314861Y-104120942D01*
X124276185Y-104073815D01*
X124179494Y-103994463D01*
X124069180Y-103935498D01*
X123949482Y-103899188D01*
X123825000Y-103886928D01*
X123710750Y-103890000D01*
X123552000Y-104048750D01*
X123552000Y-104873000D01*
X123572000Y-104873000D01*
X123572000Y-105127000D01*
X123552000Y-105127000D01*
X123552000Y-105408031D01*
X123400429Y-105334296D01*
X123298000Y-105307441D01*
X123298000Y-105127000D01*
X123278000Y-105127000D01*
X123278000Y-104873000D01*
X123298000Y-104873000D01*
X123298000Y-104048750D01*
X123139250Y-103890000D01*
X123025000Y-103886928D01*
X122900518Y-103899188D01*
X122780820Y-103935498D01*
X122670506Y-103994463D01*
X122573815Y-104073815D01*
X122494463Y-104170506D01*
X122435498Y-104280820D01*
X122413951Y-104351851D01*
X122384290Y-104315710D01*
X122296577Y-104243725D01*
X122196506Y-104190236D01*
X122087923Y-104157298D01*
X121975000Y-104146176D01*
X121575000Y-104146176D01*
X121462077Y-104157298D01*
X121353494Y-104190236D01*
X121253423Y-104243725D01*
X121165710Y-104315710D01*
X121093725Y-104403423D01*
X121040236Y-104503494D01*
X121007298Y-104612077D01*
X120996176Y-104725000D01*
X120996176Y-105068889D01*
X120637473Y-105427593D01*
X120618327Y-105443306D01*
X120602614Y-105462452D01*
X120602611Y-105462455D01*
X120555594Y-105519745D01*
X120508980Y-105606954D01*
X120480275Y-105701581D01*
X120470583Y-105799990D01*
X120473011Y-105824643D01*
X120473010Y-108980367D01*
X120470583Y-109005010D01*
X120473010Y-109029653D01*
X120473010Y-109029662D01*
X120480274Y-109103418D01*
X120508979Y-109198045D01*
X120555593Y-109285255D01*
X120618326Y-109361694D01*
X120637477Y-109377411D01*
X121047603Y-109787538D01*
X121063316Y-109806684D01*
X121082462Y-109822397D01*
X121082464Y-109822399D01*
X121111247Y-109846021D01*
X121139755Y-109869417D01*
X121226964Y-109916031D01*
X121291176Y-109935510D01*
X121291176Y-109948000D01*
X119361935Y-109948000D01*
X119637543Y-109672393D01*
X119656684Y-109656684D01*
X119672392Y-109637544D01*
X119672400Y-109637536D01*
X119719417Y-109580246D01*
X119759495Y-109505264D01*
X119766031Y-109493036D01*
X119794736Y-109398409D01*
X119802000Y-109324653D01*
X119802000Y-109324643D01*
X119804427Y-109300000D01*
X119802000Y-109275357D01*
X119802000Y-107774645D01*
X119804427Y-107750000D01*
X119802000Y-107725354D01*
X119802000Y-107725347D01*
X119794736Y-107651591D01*
X119787830Y-107628824D01*
X119766031Y-107556963D01*
X119719417Y-107469754D01*
X119672400Y-107412464D01*
X119672392Y-107412456D01*
X119656684Y-107393316D01*
X119637543Y-107377607D01*
X119253824Y-106993889D01*
X119253824Y-106500000D01*
X119241741Y-106377323D01*
X119205958Y-106259359D01*
X119192015Y-106233273D01*
X119212488Y-106194970D01*
X119234045Y-106123905D01*
X119241324Y-106050000D01*
X119241324Y-102350000D01*
X119234045Y-102276095D01*
X119212488Y-102205030D01*
X119177481Y-102139537D01*
X119174288Y-102135647D01*
X119257935Y-102052000D01*
X123696176Y-102052000D01*
X123696176Y-102375000D01*
%TA.AperFunction,Conductor*%
D32*
G36*
X123696176Y-102375000D02*
G01*
X123707298Y-102487923D01*
X123740236Y-102596506D01*
X123793725Y-102696577D01*
X123851318Y-102766753D01*
X123824388Y-102807057D01*
X123765816Y-102948462D01*
X123735957Y-103098577D01*
X123735957Y-103251633D01*
X123765816Y-103401748D01*
X123824388Y-103543153D01*
X123909421Y-103670414D01*
X124017648Y-103778641D01*
X124144909Y-103863674D01*
X124286314Y-103922246D01*
X124323000Y-103929543D01*
X124323000Y-104076528D01*
X124327231Y-104097800D01*
X124314861Y-104120942D01*
X124276185Y-104073815D01*
X124179494Y-103994463D01*
X124069180Y-103935498D01*
X123949482Y-103899188D01*
X123825000Y-103886928D01*
X123710750Y-103890000D01*
X123552000Y-104048750D01*
X123552000Y-104873000D01*
X123572000Y-104873000D01*
X123572000Y-105127000D01*
X123552000Y-105127000D01*
X123552000Y-105408031D01*
X123400429Y-105334296D01*
X123298000Y-105307441D01*
X123298000Y-105127000D01*
X123278000Y-105127000D01*
X123278000Y-104873000D01*
X123298000Y-104873000D01*
X123298000Y-104048750D01*
X123139250Y-103890000D01*
X123025000Y-103886928D01*
X122900518Y-103899188D01*
X122780820Y-103935498D01*
X122670506Y-103994463D01*
X122573815Y-104073815D01*
X122494463Y-104170506D01*
X122435498Y-104280820D01*
X122413951Y-104351851D01*
X122384290Y-104315710D01*
X122296577Y-104243725D01*
X122196506Y-104190236D01*
X122087923Y-104157298D01*
X121975000Y-104146176D01*
X121575000Y-104146176D01*
X121462077Y-104157298D01*
X121353494Y-104190236D01*
X121253423Y-104243725D01*
X121165710Y-104315710D01*
X121093725Y-104403423D01*
X121040236Y-104503494D01*
X121007298Y-104612077D01*
X120996176Y-104725000D01*
X120996176Y-105068889D01*
X120637473Y-105427593D01*
X120618327Y-105443306D01*
X120602614Y-105462452D01*
X120602611Y-105462455D01*
X120555594Y-105519745D01*
X120508980Y-105606954D01*
X120480275Y-105701581D01*
X120470583Y-105799990D01*
X120473011Y-105824643D01*
X120473010Y-108980367D01*
X120470583Y-109005010D01*
X120473010Y-109029653D01*
X120473010Y-109029662D01*
X120480274Y-109103418D01*
X120508979Y-109198045D01*
X120555593Y-109285255D01*
X120618326Y-109361694D01*
X120637477Y-109377411D01*
X121047603Y-109787538D01*
X121063316Y-109806684D01*
X121082462Y-109822397D01*
X121082464Y-109822399D01*
X121111247Y-109846021D01*
X121139755Y-109869417D01*
X121226964Y-109916031D01*
X121291176Y-109935510D01*
X121291176Y-109948000D01*
X119361935Y-109948000D01*
X119637543Y-109672393D01*
X119656684Y-109656684D01*
X119672392Y-109637544D01*
X119672400Y-109637536D01*
X119719417Y-109580246D01*
X119759495Y-109505264D01*
X119766031Y-109493036D01*
X119794736Y-109398409D01*
X119802000Y-109324653D01*
X119802000Y-109324643D01*
X119804427Y-109300000D01*
X119802000Y-109275357D01*
X119802000Y-107774645D01*
X119804427Y-107750000D01*
X119802000Y-107725354D01*
X119802000Y-107725347D01*
X119794736Y-107651591D01*
X119787830Y-107628824D01*
X119766031Y-107556963D01*
X119719417Y-107469754D01*
X119672400Y-107412464D01*
X119672392Y-107412456D01*
X119656684Y-107393316D01*
X119637543Y-107377607D01*
X119253824Y-106993889D01*
X119253824Y-106500000D01*
X119241741Y-106377323D01*
X119205958Y-106259359D01*
X119192015Y-106233273D01*
X119212488Y-106194970D01*
X119234045Y-106123905D01*
X119241324Y-106050000D01*
X119241324Y-102350000D01*
X119234045Y-102276095D01*
X119212488Y-102205030D01*
X119177481Y-102139537D01*
X119174288Y-102135647D01*
X119257935Y-102052000D01*
X123696176Y-102052000D01*
X123696176Y-102375000D01*
G37*
%TD.AperFunction*%
D31*
X115178980Y-106521242D02*
X115161928Y-106694374D01*
X115161928Y-107761928D01*
X114628824Y-107761928D01*
X114628824Y-106694374D01*
X114616753Y-106571819D01*
X114581005Y-106453973D01*
X114567563Y-106428824D01*
X115207015Y-106428824D01*
X115178980Y-106521242D01*
%TA.AperFunction,Conductor*%
D32*
G36*
X115178980Y-106521242D02*
G01*
X115161928Y-106694374D01*
X115161928Y-107761928D01*
X114628824Y-107761928D01*
X114628824Y-106694374D01*
X114616753Y-106571819D01*
X114581005Y-106453973D01*
X114567563Y-106428824D01*
X115207015Y-106428824D01*
X115178980Y-106521242D01*
G37*
%TD.AperFunction*%
D31*
X122897037Y-106734147D02*
X122853909Y-106805674D01*
X122811460Y-106923335D01*
X122795000Y-107021250D01*
X122826748Y-107052998D01*
X122795000Y-107052998D01*
X122795000Y-107062090D01*
X122525750Y-107065000D01*
X122367002Y-107223748D01*
X122367002Y-107158393D01*
X122650395Y-106875000D01*
X122636253Y-106860858D01*
X122815858Y-106681253D01*
X122830000Y-106695395D01*
X122844143Y-106681253D01*
X122897037Y-106734147D01*
%TA.AperFunction,Conductor*%
D32*
G36*
X122897037Y-106734147D02*
G01*
X122853909Y-106805674D01*
X122811460Y-106923335D01*
X122795000Y-107021250D01*
X122826748Y-107052998D01*
X122795000Y-107052998D01*
X122795000Y-107062090D01*
X122525750Y-107065000D01*
X122367002Y-107223748D01*
X122367002Y-107158393D01*
X122650395Y-106875000D01*
X122636253Y-106860858D01*
X122815858Y-106681253D01*
X122830000Y-106695395D01*
X122844143Y-106681253D01*
X122897037Y-106734147D01*
G37*
%TD.AperFunction*%
%TD*%
M02*
