%TF.GenerationSoftware,KiCad,Pcbnew,(5.1.9-0-10_14)*%
%TF.CreationDate,2021-06-20T10:46:00+01:00*%
%TF.ProjectId,Generic,47656e65-7269-4632-9e6b-696361645f70,4*%
%TF.SameCoordinates,Original*%
%TF.FileFunction,Legend,Top*%
%TF.FilePolarity,Positive*%
%FSLAX46Y46*%
G04 Gerber Fmt 4.6, Leading zero omitted, Abs format (unit mm)*
G04 Created by KiCad (PCBNEW (5.1.9-0-10_14)) date 2021-06-20 10:46:00*
%MOMM*%
%LPD*%
G01*
G04 APERTURE LIST*
%ADD10C,0.080000*%
%ADD11C,0.100000*%
%ADD12C,0.150000*%
%ADD13C,0.120000*%
G04 APERTURE END LIST*
D10*
X128526190Y-125830952D02*
X128026190Y-125830952D01*
X128026190Y-125711904D01*
X128050000Y-125640476D01*
X128097619Y-125592857D01*
X128145238Y-125569047D01*
X128240476Y-125545238D01*
X128311904Y-125545238D01*
X128407142Y-125569047D01*
X128454761Y-125592857D01*
X128502380Y-125640476D01*
X128526190Y-125711904D01*
X128526190Y-125830952D01*
X128478571Y-125045238D02*
X128502380Y-125069047D01*
X128526190Y-125140476D01*
X128526190Y-125188095D01*
X128502380Y-125259523D01*
X128454761Y-125307142D01*
X128407142Y-125330952D01*
X128311904Y-125354761D01*
X128240476Y-125354761D01*
X128145238Y-125330952D01*
X128097619Y-125307142D01*
X128050000Y-125259523D01*
X128026190Y-125188095D01*
X128026190Y-125140476D01*
X128050000Y-125069047D01*
X128073809Y-125045238D01*
X111126190Y-128480952D02*
X110626190Y-128480952D01*
X110626190Y-128361904D01*
X110650000Y-128290476D01*
X110697619Y-128242857D01*
X110745238Y-128219047D01*
X110840476Y-128195238D01*
X110911904Y-128195238D01*
X111007142Y-128219047D01*
X111054761Y-128242857D01*
X111102380Y-128290476D01*
X111126190Y-128361904D01*
X111126190Y-128480952D01*
X111078571Y-127695238D02*
X111102380Y-127719047D01*
X111126190Y-127790476D01*
X111126190Y-127838095D01*
X111102380Y-127909523D01*
X111054761Y-127957142D01*
X111007142Y-127980952D01*
X110911904Y-128004761D01*
X110840476Y-128004761D01*
X110745238Y-127980952D01*
X110697619Y-127957142D01*
X110650000Y-127909523D01*
X110626190Y-127838095D01*
X110626190Y-127790476D01*
X110650000Y-127719047D01*
X110673809Y-127695238D01*
D11*
X110628571Y-112685714D02*
X111161904Y-112533333D01*
X110780952Y-112380952D01*
X111161904Y-112228571D01*
X110628571Y-112076190D01*
X110628571Y-111847619D02*
X111161904Y-111695238D01*
X110780952Y-111542857D01*
X111161904Y-111390476D01*
X110628571Y-111238095D01*
X110628571Y-111009523D02*
X111161904Y-110857142D01*
X110780952Y-110704761D01*
X111161904Y-110552380D01*
X110628571Y-110400000D01*
X111085714Y-110095238D02*
X111123809Y-110057142D01*
X111161904Y-110095238D01*
X111123809Y-110133333D01*
X111085714Y-110095238D01*
X111161904Y-110095238D01*
X111161904Y-109714285D02*
X110628571Y-109714285D01*
X110704761Y-109714285D02*
X110666666Y-109676190D01*
X110628571Y-109600000D01*
X110628571Y-109485714D01*
X110666666Y-109409523D01*
X110742857Y-109371428D01*
X111161904Y-109371428D01*
X110742857Y-109371428D02*
X110666666Y-109333333D01*
X110628571Y-109257142D01*
X110628571Y-109142857D01*
X110666666Y-109066666D01*
X110742857Y-109028571D01*
X111161904Y-109028571D01*
X111123809Y-108342857D02*
X111161904Y-108419047D01*
X111161904Y-108571428D01*
X111123809Y-108647619D01*
X111047619Y-108685714D01*
X110742857Y-108685714D01*
X110666666Y-108647619D01*
X110628571Y-108571428D01*
X110628571Y-108419047D01*
X110666666Y-108342857D01*
X110742857Y-108304761D01*
X110819047Y-108304761D01*
X110895238Y-108685714D01*
X111085714Y-107961904D02*
X111123809Y-107923809D01*
X111161904Y-107961904D01*
X111123809Y-108000000D01*
X111085714Y-107961904D01*
X111161904Y-107961904D01*
X110628571Y-107238095D02*
X111161904Y-107238095D01*
X110628571Y-107580952D02*
X111047619Y-107580952D01*
X111123809Y-107542857D01*
X111161904Y-107466666D01*
X111161904Y-107352380D01*
X111123809Y-107276190D01*
X111085714Y-107238095D01*
X111161904Y-106857142D02*
X110361904Y-106857142D01*
X110857142Y-106780952D02*
X111161904Y-106552380D01*
X110628571Y-106552380D02*
X110933333Y-106857142D01*
D12*
X117040476Y-102502380D02*
X117373809Y-103502380D01*
X117707142Y-102502380D01*
X118469047Y-102835714D02*
X118469047Y-103502380D01*
X118230952Y-102454761D02*
X117992857Y-103169047D01*
X118611904Y-103169047D01*
D13*
%TO.C,R13*%
X112640580Y-115410000D02*
X112359420Y-115410000D01*
X112640580Y-114390000D02*
X112359420Y-114390000D01*
%TO.C,R12*%
X112640580Y-114210000D02*
X112359420Y-114210000D01*
X112640580Y-113190000D02*
X112359420Y-113190000D01*
%TO.C,R9*%
X119240580Y-113710000D02*
X118959420Y-113710000D01*
X119240580Y-112690000D02*
X118959420Y-112690000D01*
%TO.C,R10*%
X118959420Y-114490000D02*
X119240580Y-114490000D01*
X118959420Y-115510000D02*
X119240580Y-115510000D01*
%TO.C,U2*%
X117135000Y-110360000D02*
X117860000Y-110360000D01*
X113640000Y-106140000D02*
X113640000Y-106865000D01*
X114365000Y-106140000D02*
X113640000Y-106140000D01*
X117860000Y-106140000D02*
X117860000Y-106865000D01*
X117135000Y-106140000D02*
X117860000Y-106140000D01*
X113640000Y-110360000D02*
X113640000Y-109635000D01*
X114365000Y-110360000D02*
X113640000Y-110360000D01*
%TO.C,R11*%
X112640580Y-116610000D02*
X112359420Y-116610000D01*
X112640580Y-115590000D02*
X112359420Y-115590000D01*
%TO.C,D3*%
X120685000Y-109800000D02*
X120685000Y-105740000D01*
X120685000Y-105740000D02*
X118415000Y-105740000D01*
X118415000Y-105740000D02*
X118415000Y-109800000D01*
%TO.C,D2*%
X117200000Y-118790000D02*
X115300000Y-118790000D01*
X115800000Y-121110000D02*
X117200000Y-121110000D01*
%TO.C,D1*%
X120700000Y-118790000D02*
X118800000Y-118790000D01*
X119300000Y-121110000D02*
X120700000Y-121110000D01*
%TO.C,C2*%
X113110000Y-108259420D02*
X113110000Y-108540580D01*
X112090000Y-108259420D02*
X112090000Y-108540580D01*
%TO.C,R8*%
X118959420Y-110890000D02*
X119240580Y-110890000D01*
X118959420Y-111910000D02*
X119240580Y-111910000D01*
%TO.C,R7*%
X119240580Y-117310000D02*
X118959420Y-117310000D01*
X119240580Y-116290000D02*
X118959420Y-116290000D01*
%TO.C,R6*%
X111772936Y-119290000D02*
X113227064Y-119290000D01*
X111772936Y-121110000D02*
X113227064Y-121110000D01*
%TO.C,R5*%
X111490000Y-127477064D02*
X111490000Y-126022936D01*
X113310000Y-127477064D02*
X113310000Y-126022936D01*
%TO.C,R4*%
X114760000Y-127477064D02*
X114760000Y-126022936D01*
X116580000Y-127477064D02*
X116580000Y-126022936D01*
%TO.C,R3*%
X117260000Y-127477064D02*
X117260000Y-126022936D01*
X119080000Y-127477064D02*
X119080000Y-126022936D01*
%TO.C,R2*%
X119760000Y-127477064D02*
X119760000Y-126022936D01*
X121580000Y-127477064D02*
X121580000Y-126022936D01*
%TO.C,R1*%
X122260000Y-127477064D02*
X122260000Y-126022936D01*
X124080000Y-127477064D02*
X124080000Y-126022936D01*
%TO.C,C1*%
X126864564Y-121110000D02*
X125410436Y-121110000D01*
X126864564Y-119290000D02*
X125410436Y-119290000D01*
%TO.C,R13*%
D10*
X114326190Y-115221428D02*
X114088095Y-115388095D01*
X114326190Y-115507142D02*
X113826190Y-115507142D01*
X113826190Y-115316666D01*
X113850000Y-115269047D01*
X113873809Y-115245238D01*
X113921428Y-115221428D01*
X113992857Y-115221428D01*
X114040476Y-115245238D01*
X114064285Y-115269047D01*
X114088095Y-115316666D01*
X114088095Y-115507142D01*
X114326190Y-114745238D02*
X114326190Y-115030952D01*
X114326190Y-114888095D02*
X113826190Y-114888095D01*
X113897619Y-114935714D01*
X113945238Y-114983333D01*
X113969047Y-115030952D01*
X113826190Y-114578571D02*
X113826190Y-114269047D01*
X114016666Y-114435714D01*
X114016666Y-114364285D01*
X114040476Y-114316666D01*
X114064285Y-114292857D01*
X114111904Y-114269047D01*
X114230952Y-114269047D01*
X114278571Y-114292857D01*
X114302380Y-114316666D01*
X114326190Y-114364285D01*
X114326190Y-114507142D01*
X114302380Y-114554761D01*
X114278571Y-114578571D01*
%TO.C,R12*%
X114326190Y-113721428D02*
X114088095Y-113888095D01*
X114326190Y-114007142D02*
X113826190Y-114007142D01*
X113826190Y-113816666D01*
X113850000Y-113769047D01*
X113873809Y-113745238D01*
X113921428Y-113721428D01*
X113992857Y-113721428D01*
X114040476Y-113745238D01*
X114064285Y-113769047D01*
X114088095Y-113816666D01*
X114088095Y-114007142D01*
X114326190Y-113245238D02*
X114326190Y-113530952D01*
X114326190Y-113388095D02*
X113826190Y-113388095D01*
X113897619Y-113435714D01*
X113945238Y-113483333D01*
X113969047Y-113530952D01*
X113873809Y-113054761D02*
X113850000Y-113030952D01*
X113826190Y-112983333D01*
X113826190Y-112864285D01*
X113850000Y-112816666D01*
X113873809Y-112792857D01*
X113921428Y-112769047D01*
X113969047Y-112769047D01*
X114040476Y-112792857D01*
X114326190Y-113078571D01*
X114326190Y-112769047D01*
%TO.C,D4*%
X114930952Y-113326190D02*
X114930952Y-112826190D01*
X115050000Y-112826190D01*
X115121428Y-112850000D01*
X115169047Y-112897619D01*
X115192857Y-112945238D01*
X115216666Y-113040476D01*
X115216666Y-113111904D01*
X115192857Y-113207142D01*
X115169047Y-113254761D01*
X115121428Y-113302380D01*
X115050000Y-113326190D01*
X114930952Y-113326190D01*
X115645238Y-112992857D02*
X115645238Y-113326190D01*
X115526190Y-112802380D02*
X115407142Y-113159523D01*
X115716666Y-113159523D01*
%TO.C,R9*%
X117526190Y-113283333D02*
X117288095Y-113450000D01*
X117526190Y-113569047D02*
X117026190Y-113569047D01*
X117026190Y-113378571D01*
X117050000Y-113330952D01*
X117073809Y-113307142D01*
X117121428Y-113283333D01*
X117192857Y-113283333D01*
X117240476Y-113307142D01*
X117264285Y-113330952D01*
X117288095Y-113378571D01*
X117288095Y-113569047D01*
X117526190Y-113045238D02*
X117526190Y-112950000D01*
X117502380Y-112902380D01*
X117478571Y-112878571D01*
X117407142Y-112830952D01*
X117311904Y-112807142D01*
X117121428Y-112807142D01*
X117073809Y-112830952D01*
X117050000Y-112854761D01*
X117026190Y-112902380D01*
X117026190Y-112997619D01*
X117050000Y-113045238D01*
X117073809Y-113069047D01*
X117121428Y-113092857D01*
X117240476Y-113092857D01*
X117288095Y-113069047D01*
X117311904Y-113045238D01*
X117335714Y-112997619D01*
X117335714Y-112902380D01*
X117311904Y-112854761D01*
X117288095Y-112830952D01*
X117240476Y-112807142D01*
%TO.C,R10*%
X117526190Y-115321428D02*
X117288095Y-115488095D01*
X117526190Y-115607142D02*
X117026190Y-115607142D01*
X117026190Y-115416666D01*
X117050000Y-115369047D01*
X117073809Y-115345238D01*
X117121428Y-115321428D01*
X117192857Y-115321428D01*
X117240476Y-115345238D01*
X117264285Y-115369047D01*
X117288095Y-115416666D01*
X117288095Y-115607142D01*
X117526190Y-114845238D02*
X117526190Y-115130952D01*
X117526190Y-114988095D02*
X117026190Y-114988095D01*
X117097619Y-115035714D01*
X117145238Y-115083333D01*
X117169047Y-115130952D01*
X117026190Y-114535714D02*
X117026190Y-114488095D01*
X117050000Y-114440476D01*
X117073809Y-114416666D01*
X117121428Y-114392857D01*
X117216666Y-114369047D01*
X117335714Y-114369047D01*
X117430952Y-114392857D01*
X117478571Y-114416666D01*
X117502380Y-114440476D01*
X117526190Y-114488095D01*
X117526190Y-114535714D01*
X117502380Y-114583333D01*
X117478571Y-114607142D01*
X117430952Y-114630952D01*
X117335714Y-114654761D01*
X117216666Y-114654761D01*
X117121428Y-114630952D01*
X117073809Y-114607142D01*
X117050000Y-114583333D01*
X117026190Y-114535714D01*
%TO.C,U2*%
X113619047Y-110576190D02*
X113619047Y-110980952D01*
X113642857Y-111028571D01*
X113666666Y-111052380D01*
X113714285Y-111076190D01*
X113809523Y-111076190D01*
X113857142Y-111052380D01*
X113880952Y-111028571D01*
X113904761Y-110980952D01*
X113904761Y-110576190D01*
X114119047Y-110623809D02*
X114142857Y-110600000D01*
X114190476Y-110576190D01*
X114309523Y-110576190D01*
X114357142Y-110600000D01*
X114380952Y-110623809D01*
X114404761Y-110671428D01*
X114404761Y-110719047D01*
X114380952Y-110790476D01*
X114095238Y-111076190D01*
X114404761Y-111076190D01*
%TO.C,R11*%
X114326190Y-116621428D02*
X114088095Y-116788095D01*
X114326190Y-116907142D02*
X113826190Y-116907142D01*
X113826190Y-116716666D01*
X113850000Y-116669047D01*
X113873809Y-116645238D01*
X113921428Y-116621428D01*
X113992857Y-116621428D01*
X114040476Y-116645238D01*
X114064285Y-116669047D01*
X114088095Y-116716666D01*
X114088095Y-116907142D01*
X114326190Y-116145238D02*
X114326190Y-116430952D01*
X114326190Y-116288095D02*
X113826190Y-116288095D01*
X113897619Y-116335714D01*
X113945238Y-116383333D01*
X113969047Y-116430952D01*
X114326190Y-115669047D02*
X114326190Y-115954761D01*
X114326190Y-115811904D02*
X113826190Y-115811904D01*
X113897619Y-115859523D01*
X113945238Y-115907142D01*
X113969047Y-115954761D01*
%TO.C,D3*%
X118480952Y-105376190D02*
X118480952Y-104876190D01*
X118600000Y-104876190D01*
X118671428Y-104900000D01*
X118719047Y-104947619D01*
X118742857Y-104995238D01*
X118766666Y-105090476D01*
X118766666Y-105161904D01*
X118742857Y-105257142D01*
X118719047Y-105304761D01*
X118671428Y-105352380D01*
X118600000Y-105376190D01*
X118480952Y-105376190D01*
X118933333Y-104876190D02*
X119242857Y-104876190D01*
X119076190Y-105066666D01*
X119147619Y-105066666D01*
X119195238Y-105090476D01*
X119219047Y-105114285D01*
X119242857Y-105161904D01*
X119242857Y-105280952D01*
X119219047Y-105328571D01*
X119195238Y-105352380D01*
X119147619Y-105376190D01*
X119004761Y-105376190D01*
X118957142Y-105352380D01*
X118933333Y-105328571D01*
%TO.C,D2*%
X116130952Y-118576190D02*
X116130952Y-118076190D01*
X116250000Y-118076190D01*
X116321428Y-118100000D01*
X116369047Y-118147619D01*
X116392857Y-118195238D01*
X116416666Y-118290476D01*
X116416666Y-118361904D01*
X116392857Y-118457142D01*
X116369047Y-118504761D01*
X116321428Y-118552380D01*
X116250000Y-118576190D01*
X116130952Y-118576190D01*
X116607142Y-118123809D02*
X116630952Y-118100000D01*
X116678571Y-118076190D01*
X116797619Y-118076190D01*
X116845238Y-118100000D01*
X116869047Y-118123809D01*
X116892857Y-118171428D01*
X116892857Y-118219047D01*
X116869047Y-118290476D01*
X116583333Y-118576190D01*
X116892857Y-118576190D01*
%TO.C,D1*%
X119630952Y-118576190D02*
X119630952Y-118076190D01*
X119750000Y-118076190D01*
X119821428Y-118100000D01*
X119869047Y-118147619D01*
X119892857Y-118195238D01*
X119916666Y-118290476D01*
X119916666Y-118361904D01*
X119892857Y-118457142D01*
X119869047Y-118504761D01*
X119821428Y-118552380D01*
X119750000Y-118576190D01*
X119630952Y-118576190D01*
X120392857Y-118576190D02*
X120107142Y-118576190D01*
X120250000Y-118576190D02*
X120250000Y-118076190D01*
X120202380Y-118147619D01*
X120154761Y-118195238D01*
X120107142Y-118219047D01*
%TO.C,C2*%
X112516666Y-110578571D02*
X112492857Y-110602380D01*
X112421428Y-110626190D01*
X112373809Y-110626190D01*
X112302380Y-110602380D01*
X112254761Y-110554761D01*
X112230952Y-110507142D01*
X112207142Y-110411904D01*
X112207142Y-110340476D01*
X112230952Y-110245238D01*
X112254761Y-110197619D01*
X112302380Y-110150000D01*
X112373809Y-110126190D01*
X112421428Y-110126190D01*
X112492857Y-110150000D01*
X112516666Y-110173809D01*
X112707142Y-110173809D02*
X112730952Y-110150000D01*
X112778571Y-110126190D01*
X112897619Y-110126190D01*
X112945238Y-110150000D01*
X112969047Y-110173809D01*
X112992857Y-110221428D01*
X112992857Y-110269047D01*
X112969047Y-110340476D01*
X112683333Y-110626190D01*
X112992857Y-110626190D01*
%TO.C,Reg1*%
D11*
X124276190Y-101726190D02*
X124109523Y-101488095D01*
X123990476Y-101726190D02*
X123990476Y-101226190D01*
X124180952Y-101226190D01*
X124228571Y-101250000D01*
X124252380Y-101273809D01*
X124276190Y-101321428D01*
X124276190Y-101392857D01*
X124252380Y-101440476D01*
X124228571Y-101464285D01*
X124180952Y-101488095D01*
X123990476Y-101488095D01*
X124680952Y-101702380D02*
X124633333Y-101726190D01*
X124538095Y-101726190D01*
X124490476Y-101702380D01*
X124466666Y-101654761D01*
X124466666Y-101464285D01*
X124490476Y-101416666D01*
X124538095Y-101392857D01*
X124633333Y-101392857D01*
X124680952Y-101416666D01*
X124704761Y-101464285D01*
X124704761Y-101511904D01*
X124466666Y-101559523D01*
X125133333Y-101392857D02*
X125133333Y-101797619D01*
X125109523Y-101845238D01*
X125085714Y-101869047D01*
X125038095Y-101892857D01*
X124966666Y-101892857D01*
X124919047Y-101869047D01*
X125133333Y-101702380D02*
X125085714Y-101726190D01*
X124990476Y-101726190D01*
X124942857Y-101702380D01*
X124919047Y-101678571D01*
X124895238Y-101630952D01*
X124895238Y-101488095D01*
X124919047Y-101440476D01*
X124942857Y-101416666D01*
X124990476Y-101392857D01*
X125085714Y-101392857D01*
X125133333Y-101416666D01*
X125633333Y-101726190D02*
X125347619Y-101726190D01*
X125490476Y-101726190D02*
X125490476Y-101226190D01*
X125442857Y-101297619D01*
X125395238Y-101345238D01*
X125347619Y-101369047D01*
%TO.C,R8*%
D10*
X117526190Y-111483333D02*
X117288095Y-111650000D01*
X117526190Y-111769047D02*
X117026190Y-111769047D01*
X117026190Y-111578571D01*
X117050000Y-111530952D01*
X117073809Y-111507142D01*
X117121428Y-111483333D01*
X117192857Y-111483333D01*
X117240476Y-111507142D01*
X117264285Y-111530952D01*
X117288095Y-111578571D01*
X117288095Y-111769047D01*
X117240476Y-111197619D02*
X117216666Y-111245238D01*
X117192857Y-111269047D01*
X117145238Y-111292857D01*
X117121428Y-111292857D01*
X117073809Y-111269047D01*
X117050000Y-111245238D01*
X117026190Y-111197619D01*
X117026190Y-111102380D01*
X117050000Y-111054761D01*
X117073809Y-111030952D01*
X117121428Y-111007142D01*
X117145238Y-111007142D01*
X117192857Y-111030952D01*
X117216666Y-111054761D01*
X117240476Y-111102380D01*
X117240476Y-111197619D01*
X117264285Y-111245238D01*
X117288095Y-111269047D01*
X117335714Y-111292857D01*
X117430952Y-111292857D01*
X117478571Y-111269047D01*
X117502380Y-111245238D01*
X117526190Y-111197619D01*
X117526190Y-111102380D01*
X117502380Y-111054761D01*
X117478571Y-111030952D01*
X117430952Y-111007142D01*
X117335714Y-111007142D01*
X117288095Y-111030952D01*
X117264285Y-111054761D01*
X117240476Y-111102380D01*
%TO.C,R7*%
X117526190Y-116933333D02*
X117288095Y-117100000D01*
X117526190Y-117219047D02*
X117026190Y-117219047D01*
X117026190Y-117028571D01*
X117050000Y-116980952D01*
X117073809Y-116957142D01*
X117121428Y-116933333D01*
X117192857Y-116933333D01*
X117240476Y-116957142D01*
X117264285Y-116980952D01*
X117288095Y-117028571D01*
X117288095Y-117219047D01*
X117026190Y-116766666D02*
X117026190Y-116433333D01*
X117526190Y-116647619D01*
%TO.C,R6*%
X112416666Y-119076190D02*
X112250000Y-118838095D01*
X112130952Y-119076190D02*
X112130952Y-118576190D01*
X112321428Y-118576190D01*
X112369047Y-118600000D01*
X112392857Y-118623809D01*
X112416666Y-118671428D01*
X112416666Y-118742857D01*
X112392857Y-118790476D01*
X112369047Y-118814285D01*
X112321428Y-118838095D01*
X112130952Y-118838095D01*
X112845238Y-118576190D02*
X112750000Y-118576190D01*
X112702380Y-118600000D01*
X112678571Y-118623809D01*
X112630952Y-118695238D01*
X112607142Y-118790476D01*
X112607142Y-118980952D01*
X112630952Y-119028571D01*
X112654761Y-119052380D01*
X112702380Y-119076190D01*
X112797619Y-119076190D01*
X112845238Y-119052380D01*
X112869047Y-119028571D01*
X112892857Y-118980952D01*
X112892857Y-118861904D01*
X112869047Y-118814285D01*
X112845238Y-118790476D01*
X112797619Y-118766666D01*
X112702380Y-118766666D01*
X112654761Y-118790476D01*
X112630952Y-118814285D01*
X112607142Y-118861904D01*
%TO.C,R5*%
X112316666Y-129576190D02*
X112150000Y-129338095D01*
X112030952Y-129576190D02*
X112030952Y-129076190D01*
X112221428Y-129076190D01*
X112269047Y-129100000D01*
X112292857Y-129123809D01*
X112316666Y-129171428D01*
X112316666Y-129242857D01*
X112292857Y-129290476D01*
X112269047Y-129314285D01*
X112221428Y-129338095D01*
X112030952Y-129338095D01*
X112769047Y-129076190D02*
X112530952Y-129076190D01*
X112507142Y-129314285D01*
X112530952Y-129290476D01*
X112578571Y-129266666D01*
X112697619Y-129266666D01*
X112745238Y-129290476D01*
X112769047Y-129314285D01*
X112792857Y-129361904D01*
X112792857Y-129480952D01*
X112769047Y-129528571D01*
X112745238Y-129552380D01*
X112697619Y-129576190D01*
X112578571Y-129576190D01*
X112530952Y-129552380D01*
X112507142Y-129528571D01*
%TO.C,R4*%
X115586666Y-129576190D02*
X115420000Y-129338095D01*
X115300952Y-129576190D02*
X115300952Y-129076190D01*
X115491428Y-129076190D01*
X115539047Y-129100000D01*
X115562857Y-129123809D01*
X115586666Y-129171428D01*
X115586666Y-129242857D01*
X115562857Y-129290476D01*
X115539047Y-129314285D01*
X115491428Y-129338095D01*
X115300952Y-129338095D01*
X116015238Y-129242857D02*
X116015238Y-129576190D01*
X115896190Y-129052380D02*
X115777142Y-129409523D01*
X116086666Y-129409523D01*
%TO.C,R3*%
X118086666Y-129576190D02*
X117920000Y-129338095D01*
X117800952Y-129576190D02*
X117800952Y-129076190D01*
X117991428Y-129076190D01*
X118039047Y-129100000D01*
X118062857Y-129123809D01*
X118086666Y-129171428D01*
X118086666Y-129242857D01*
X118062857Y-129290476D01*
X118039047Y-129314285D01*
X117991428Y-129338095D01*
X117800952Y-129338095D01*
X118253333Y-129076190D02*
X118562857Y-129076190D01*
X118396190Y-129266666D01*
X118467619Y-129266666D01*
X118515238Y-129290476D01*
X118539047Y-129314285D01*
X118562857Y-129361904D01*
X118562857Y-129480952D01*
X118539047Y-129528571D01*
X118515238Y-129552380D01*
X118467619Y-129576190D01*
X118324761Y-129576190D01*
X118277142Y-129552380D01*
X118253333Y-129528571D01*
%TO.C,R2*%
X120586666Y-129576190D02*
X120420000Y-129338095D01*
X120300952Y-129576190D02*
X120300952Y-129076190D01*
X120491428Y-129076190D01*
X120539047Y-129100000D01*
X120562857Y-129123809D01*
X120586666Y-129171428D01*
X120586666Y-129242857D01*
X120562857Y-129290476D01*
X120539047Y-129314285D01*
X120491428Y-129338095D01*
X120300952Y-129338095D01*
X120777142Y-129123809D02*
X120800952Y-129100000D01*
X120848571Y-129076190D01*
X120967619Y-129076190D01*
X121015238Y-129100000D01*
X121039047Y-129123809D01*
X121062857Y-129171428D01*
X121062857Y-129219047D01*
X121039047Y-129290476D01*
X120753333Y-129576190D01*
X121062857Y-129576190D01*
%TO.C,R1*%
X123086666Y-129576190D02*
X122920000Y-129338095D01*
X122800952Y-129576190D02*
X122800952Y-129076190D01*
X122991428Y-129076190D01*
X123039047Y-129100000D01*
X123062857Y-129123809D01*
X123086666Y-129171428D01*
X123086666Y-129242857D01*
X123062857Y-129290476D01*
X123039047Y-129314285D01*
X122991428Y-129338095D01*
X122800952Y-129338095D01*
X123562857Y-129576190D02*
X123277142Y-129576190D01*
X123420000Y-129576190D02*
X123420000Y-129076190D01*
X123372380Y-129147619D01*
X123324761Y-129195238D01*
X123277142Y-129219047D01*
%TO.C,C1*%
X126066666Y-118978571D02*
X126042857Y-119002380D01*
X125971428Y-119026190D01*
X125923809Y-119026190D01*
X125852380Y-119002380D01*
X125804761Y-118954761D01*
X125780952Y-118907142D01*
X125757142Y-118811904D01*
X125757142Y-118740476D01*
X125780952Y-118645238D01*
X125804761Y-118597619D01*
X125852380Y-118550000D01*
X125923809Y-118526190D01*
X125971428Y-118526190D01*
X126042857Y-118550000D01*
X126066666Y-118573809D01*
X126542857Y-119026190D02*
X126257142Y-119026190D01*
X126400000Y-119026190D02*
X126400000Y-118526190D01*
X126352380Y-118597619D01*
X126304761Y-118645238D01*
X126257142Y-118669047D01*
%TD*%
M02*
