%TF.GenerationSoftware,KiCad,Pcbnew,(5.1.9-0-10_14)*%
%TF.CreationDate,2021-03-27T09:43:21+00:00*%
%TF.ProjectId,Generic,47656e65-7269-4632-9e6b-696361645f70,2*%
%TF.SameCoordinates,Original*%
%TF.FileFunction,Legend,Bot*%
%TF.FilePolarity,Positive*%
%FSLAX46Y46*%
G04 Gerber Fmt 4.6, Leading zero omitted, Abs format (unit mm)*
G04 Created by KiCad (PCBNEW (5.1.9-0-10_14)) date 2021-03-27 09:43:21*
%MOMM*%
%LPD*%
G01*
G04 APERTURE LIST*
%ADD10C,0.150000*%
%ADD11C,0.120000*%
G04 APERTURE END LIST*
D10*
X115559523Y-116702380D02*
X115226190Y-117702380D01*
X114892857Y-116702380D01*
X114607142Y-116797619D02*
X114559523Y-116750000D01*
X114464285Y-116702380D01*
X114226190Y-116702380D01*
X114130952Y-116750000D01*
X114083333Y-116797619D01*
X114035714Y-116892857D01*
X114035714Y-116988095D01*
X114083333Y-117130952D01*
X114654761Y-117702380D01*
X114035714Y-117702380D01*
X125907142Y-118235714D02*
X125716666Y-118902380D01*
X125526190Y-118426190D01*
X125335714Y-118902380D01*
X125145238Y-118235714D01*
X124859523Y-118235714D02*
X124669047Y-118902380D01*
X124478571Y-118426190D01*
X124288095Y-118902380D01*
X124097619Y-118235714D01*
X123811904Y-118235714D02*
X123621428Y-118902380D01*
X123430952Y-118426190D01*
X123240476Y-118902380D01*
X123050000Y-118235714D01*
X122669047Y-118807142D02*
X122621428Y-118854761D01*
X122669047Y-118902380D01*
X122716666Y-118854761D01*
X122669047Y-118807142D01*
X122669047Y-118902380D01*
X122192857Y-118902380D02*
X122192857Y-118235714D01*
X122192857Y-118330952D02*
X122145238Y-118283333D01*
X122050000Y-118235714D01*
X121907142Y-118235714D01*
X121811904Y-118283333D01*
X121764285Y-118378571D01*
X121764285Y-118902380D01*
X121764285Y-118378571D02*
X121716666Y-118283333D01*
X121621428Y-118235714D01*
X121478571Y-118235714D01*
X121383333Y-118283333D01*
X121335714Y-118378571D01*
X121335714Y-118902380D01*
X120478571Y-118854761D02*
X120573809Y-118902380D01*
X120764285Y-118902380D01*
X120859523Y-118854761D01*
X120907142Y-118759523D01*
X120907142Y-118378571D01*
X120859523Y-118283333D01*
X120764285Y-118235714D01*
X120573809Y-118235714D01*
X120478571Y-118283333D01*
X120430952Y-118378571D01*
X120430952Y-118473809D01*
X120907142Y-118569047D01*
X120002380Y-118807142D02*
X119954761Y-118854761D01*
X120002380Y-118902380D01*
X120050000Y-118854761D01*
X120002380Y-118807142D01*
X120002380Y-118902380D01*
X119097619Y-118235714D02*
X119097619Y-118902380D01*
X119526190Y-118235714D02*
X119526190Y-118759523D01*
X119478571Y-118854761D01*
X119383333Y-118902380D01*
X119240476Y-118902380D01*
X119145238Y-118854761D01*
X119097619Y-118807142D01*
X118621428Y-118902380D02*
X118621428Y-117902380D01*
X118526190Y-118521428D02*
X118240476Y-118902380D01*
X118240476Y-118235714D02*
X118621428Y-118616666D01*
D11*
%TO.C,M1*%
X121220000Y-98500000D02*
X121220000Y-111200000D01*
X121220000Y-111200000D02*
X131380000Y-111200000D01*
X131380000Y-111200000D02*
X131380000Y-98500000D01*
X131380000Y-98500000D02*
X121220000Y-98500000D01*
%TO.C,U2*%
X125460000Y-113865000D02*
X125460000Y-113140000D01*
X125460000Y-113140000D02*
X124735000Y-113140000D01*
X121240000Y-116635000D02*
X121240000Y-117360000D01*
X121240000Y-117360000D02*
X121965000Y-117360000D01*
X121240000Y-113865000D02*
X121240000Y-113140000D01*
X121240000Y-113140000D02*
X121965000Y-113140000D01*
X125460000Y-116635000D02*
X125460000Y-117360000D01*
%TO.C,J3*%
X113370000Y-121830000D02*
X116030000Y-121830000D01*
X113370000Y-124430000D02*
X113370000Y-121830000D01*
X116030000Y-124430000D02*
X116030000Y-121830000D01*
X113370000Y-124430000D02*
X116030000Y-124430000D01*
X113370000Y-125700000D02*
X113370000Y-127030000D01*
X113370000Y-127030000D02*
X114700000Y-127030000D01*
%TO.C,R5*%
X129140000Y-124977064D02*
X129140000Y-123522936D01*
X127320000Y-124977064D02*
X127320000Y-123522936D01*
%TO.C,R4*%
X126640000Y-124977064D02*
X126640000Y-123522936D01*
X124820000Y-124977064D02*
X124820000Y-123522936D01*
%TO.C,R3*%
X124140000Y-124977064D02*
X124140000Y-123522936D01*
X122320000Y-124977064D02*
X122320000Y-123522936D01*
%TO.C,R2*%
X121640000Y-124977064D02*
X121640000Y-123522936D01*
X119820000Y-124977064D02*
X119820000Y-123522936D01*
%TO.C,R1*%
X119140000Y-124977064D02*
X119140000Y-123522936D01*
X117320000Y-124977064D02*
X117320000Y-123522936D01*
%TO.C,J2*%
X111810000Y-113170000D02*
X119160000Y-113170000D01*
X119160000Y-113170000D02*
X119160000Y-104230000D01*
X119160000Y-104230000D02*
X111810000Y-104230000D01*
X111810000Y-113170000D02*
X111810000Y-104230000D01*
%TO.C,R7*%
X114422936Y-103160000D02*
X115877064Y-103160000D01*
X114422936Y-101340000D02*
X115877064Y-101340000D01*
%TO.C,R6*%
X115877064Y-98890000D02*
X114422936Y-98890000D01*
X115877064Y-100710000D02*
X114422936Y-100710000D01*
%TO.C,M1*%
D10*
X127109523Y-106572380D02*
X127109523Y-105572380D01*
X126776190Y-106286666D01*
X126442857Y-105572380D01*
X126442857Y-106572380D01*
X125442857Y-106572380D02*
X126014285Y-106572380D01*
X125728571Y-106572380D02*
X125728571Y-105572380D01*
X125823809Y-105715238D01*
X125919047Y-105810476D01*
X126014285Y-105858095D01*
%TO.C,U2*%
X126122380Y-114488095D02*
X126931904Y-114488095D01*
X127027142Y-114535714D01*
X127074761Y-114583333D01*
X127122380Y-114678571D01*
X127122380Y-114869047D01*
X127074761Y-114964285D01*
X127027142Y-115011904D01*
X126931904Y-115059523D01*
X126122380Y-115059523D01*
X126217619Y-115488095D02*
X126170000Y-115535714D01*
X126122380Y-115630952D01*
X126122380Y-115869047D01*
X126170000Y-115964285D01*
X126217619Y-116011904D01*
X126312857Y-116059523D01*
X126408095Y-116059523D01*
X126550952Y-116011904D01*
X127122380Y-115440476D01*
X127122380Y-116059523D01*
%TO.C,J3*%
X114333333Y-120452380D02*
X114333333Y-121166666D01*
X114380952Y-121309523D01*
X114476190Y-121404761D01*
X114619047Y-121452380D01*
X114714285Y-121452380D01*
X113952380Y-120452380D02*
X113333333Y-120452380D01*
X113666666Y-120833333D01*
X113523809Y-120833333D01*
X113428571Y-120880952D01*
X113380952Y-120928571D01*
X113333333Y-121023809D01*
X113333333Y-121261904D01*
X113380952Y-121357142D01*
X113428571Y-121404761D01*
X113523809Y-121452380D01*
X113809523Y-121452380D01*
X113904761Y-121404761D01*
X113952380Y-121357142D01*
%TO.C,R5*%
X128782380Y-124133333D02*
X128306190Y-123800000D01*
X128782380Y-123561904D02*
X127782380Y-123561904D01*
X127782380Y-123942857D01*
X127830000Y-124038095D01*
X127877619Y-124085714D01*
X127972857Y-124133333D01*
X128115714Y-124133333D01*
X128210952Y-124085714D01*
X128258571Y-124038095D01*
X128306190Y-123942857D01*
X128306190Y-123561904D01*
X127782380Y-125038095D02*
X127782380Y-124561904D01*
X128258571Y-124514285D01*
X128210952Y-124561904D01*
X128163333Y-124657142D01*
X128163333Y-124895238D01*
X128210952Y-124990476D01*
X128258571Y-125038095D01*
X128353809Y-125085714D01*
X128591904Y-125085714D01*
X128687142Y-125038095D01*
X128734761Y-124990476D01*
X128782380Y-124895238D01*
X128782380Y-124657142D01*
X128734761Y-124561904D01*
X128687142Y-124514285D01*
%TO.C,R4*%
X126182380Y-124083333D02*
X125706190Y-123750000D01*
X126182380Y-123511904D02*
X125182380Y-123511904D01*
X125182380Y-123892857D01*
X125230000Y-123988095D01*
X125277619Y-124035714D01*
X125372857Y-124083333D01*
X125515714Y-124083333D01*
X125610952Y-124035714D01*
X125658571Y-123988095D01*
X125706190Y-123892857D01*
X125706190Y-123511904D01*
X125515714Y-124940476D02*
X126182380Y-124940476D01*
X125134761Y-124702380D02*
X125849047Y-124464285D01*
X125849047Y-125083333D01*
%TO.C,R3*%
X123682380Y-124033333D02*
X123206190Y-123700000D01*
X123682380Y-123461904D02*
X122682380Y-123461904D01*
X122682380Y-123842857D01*
X122730000Y-123938095D01*
X122777619Y-123985714D01*
X122872857Y-124033333D01*
X123015714Y-124033333D01*
X123110952Y-123985714D01*
X123158571Y-123938095D01*
X123206190Y-123842857D01*
X123206190Y-123461904D01*
X122682380Y-124366666D02*
X122682380Y-124985714D01*
X123063333Y-124652380D01*
X123063333Y-124795238D01*
X123110952Y-124890476D01*
X123158571Y-124938095D01*
X123253809Y-124985714D01*
X123491904Y-124985714D01*
X123587142Y-124938095D01*
X123634761Y-124890476D01*
X123682380Y-124795238D01*
X123682380Y-124509523D01*
X123634761Y-124414285D01*
X123587142Y-124366666D01*
%TO.C,R2*%
X121182380Y-124033333D02*
X120706190Y-123700000D01*
X121182380Y-123461904D02*
X120182380Y-123461904D01*
X120182380Y-123842857D01*
X120230000Y-123938095D01*
X120277619Y-123985714D01*
X120372857Y-124033333D01*
X120515714Y-124033333D01*
X120610952Y-123985714D01*
X120658571Y-123938095D01*
X120706190Y-123842857D01*
X120706190Y-123461904D01*
X120277619Y-124414285D02*
X120230000Y-124461904D01*
X120182380Y-124557142D01*
X120182380Y-124795238D01*
X120230000Y-124890476D01*
X120277619Y-124938095D01*
X120372857Y-124985714D01*
X120468095Y-124985714D01*
X120610952Y-124938095D01*
X121182380Y-124366666D01*
X121182380Y-124985714D01*
%TO.C,R1*%
X118682380Y-124033333D02*
X118206190Y-123700000D01*
X118682380Y-123461904D02*
X117682380Y-123461904D01*
X117682380Y-123842857D01*
X117730000Y-123938095D01*
X117777619Y-123985714D01*
X117872857Y-124033333D01*
X118015714Y-124033333D01*
X118110952Y-123985714D01*
X118158571Y-123938095D01*
X118206190Y-123842857D01*
X118206190Y-123461904D01*
X118682380Y-124985714D02*
X118682380Y-124414285D01*
X118682380Y-124700000D02*
X117682380Y-124700000D01*
X117825238Y-124604761D01*
X117920476Y-124509523D01*
X117968095Y-124414285D01*
%TO.C,J2*%
X115952380Y-114066666D02*
X116666666Y-114066666D01*
X116809523Y-114019047D01*
X116904761Y-113923809D01*
X116952380Y-113780952D01*
X116952380Y-113685714D01*
X116047619Y-114495238D02*
X116000000Y-114542857D01*
X115952380Y-114638095D01*
X115952380Y-114876190D01*
X116000000Y-114971428D01*
X116047619Y-115019047D01*
X116142857Y-115066666D01*
X116238095Y-115066666D01*
X116380952Y-115019047D01*
X116952380Y-114447619D01*
X116952380Y-115066666D01*
%TO.C,R7*%
X118866666Y-102752380D02*
X119200000Y-102276190D01*
X119438095Y-102752380D02*
X119438095Y-101752380D01*
X119057142Y-101752380D01*
X118961904Y-101800000D01*
X118914285Y-101847619D01*
X118866666Y-101942857D01*
X118866666Y-102085714D01*
X118914285Y-102180952D01*
X118961904Y-102228571D01*
X119057142Y-102276190D01*
X119438095Y-102276190D01*
X118533333Y-101752380D02*
X117866666Y-101752380D01*
X118295238Y-102752380D01*
%TO.C,R6*%
X118866666Y-100302380D02*
X119200000Y-99826190D01*
X119438095Y-100302380D02*
X119438095Y-99302380D01*
X119057142Y-99302380D01*
X118961904Y-99350000D01*
X118914285Y-99397619D01*
X118866666Y-99492857D01*
X118866666Y-99635714D01*
X118914285Y-99730952D01*
X118961904Y-99778571D01*
X119057142Y-99826190D01*
X119438095Y-99826190D01*
X118009523Y-99302380D02*
X118200000Y-99302380D01*
X118295238Y-99350000D01*
X118342857Y-99397619D01*
X118438095Y-99540476D01*
X118485714Y-99730952D01*
X118485714Y-100111904D01*
X118438095Y-100207142D01*
X118390476Y-100254761D01*
X118295238Y-100302380D01*
X118104761Y-100302380D01*
X118009523Y-100254761D01*
X117961904Y-100207142D01*
X117914285Y-100111904D01*
X117914285Y-99873809D01*
X117961904Y-99778571D01*
X118009523Y-99730952D01*
X118104761Y-99683333D01*
X118295238Y-99683333D01*
X118390476Y-99730952D01*
X118438095Y-99778571D01*
X118485714Y-99873809D01*
%TD*%
M02*
