%TF.GenerationSoftware,KiCad,Pcbnew,(5.1.9-0-10_14)*%
%TF.CreationDate,2021-06-18T11:16:48+01:00*%
%TF.ProjectId,Generic,47656e65-7269-4632-9e6b-696361645f70,4*%
%TF.SameCoordinates,Original*%
%TF.FileFunction,Copper,L2,Bot*%
%TF.FilePolarity,Positive*%
%FSLAX46Y46*%
G04 Gerber Fmt 4.6, Leading zero omitted, Abs format (unit mm)*
G04 Created by KiCad (PCBNEW (5.1.9-0-10_14)) date 2021-06-18 11:16:48*
%MOMM*%
%LPD*%
G01*
G04 APERTURE LIST*
%TA.AperFunction,NonConductor*%
%ADD10C,0.300000*%
%TD*%
%TA.AperFunction,ComponentPad*%
%ADD11C,0.350000*%
%TD*%
%TA.AperFunction,SMDPad,CuDef*%
%ADD12R,2.000000X0.900000*%
%TD*%
%TA.AperFunction,SMDPad,CuDef*%
%ADD13R,0.900000X2.000000*%
%TD*%
%TA.AperFunction,SMDPad,CuDef*%
%ADD14R,5.000000X5.000000*%
%TD*%
%TA.AperFunction,ComponentPad*%
%ADD15C,2.000000*%
%TD*%
%TA.AperFunction,ComponentPad*%
%ADD16R,2.000000X2.000000*%
%TD*%
%TA.AperFunction,ComponentPad*%
%ADD17R,1.700000X1.700000*%
%TD*%
%TA.AperFunction,ComponentPad*%
%ADD18O,1.700000X1.700000*%
%TD*%
%TA.AperFunction,ComponentPad*%
%ADD19C,1.500000*%
%TD*%
%TA.AperFunction,ComponentPad*%
%ADD20C,1.750000*%
%TD*%
%TA.AperFunction,ComponentPad*%
%ADD21C,0.600000*%
%TD*%
%TA.AperFunction,ViaPad*%
%ADD22C,0.800000*%
%TD*%
%TA.AperFunction,Conductor*%
%ADD23C,0.250000*%
%TD*%
%TA.AperFunction,Conductor*%
%ADD24C,0.500000*%
%TD*%
%TA.AperFunction,Conductor*%
%ADD25C,0.254000*%
%TD*%
%TA.AperFunction,Conductor*%
%ADD26C,0.100000*%
%TD*%
G04 APERTURE END LIST*
D10*
X124185714Y-126578571D02*
X123900000Y-127578571D01*
X123614285Y-126864285D01*
X123328571Y-127578571D01*
X123042857Y-126578571D01*
X122614285Y-126578571D02*
X122328571Y-127578571D01*
X122042857Y-126864285D01*
X121757142Y-127578571D01*
X121471428Y-126578571D01*
X121042857Y-126578571D02*
X120757142Y-127578571D01*
X120471428Y-126864285D01*
X120185714Y-127578571D01*
X119900000Y-126578571D01*
X119328571Y-127435714D02*
X119257142Y-127507142D01*
X119328571Y-127578571D01*
X119400000Y-127507142D01*
X119328571Y-127435714D01*
X119328571Y-127578571D01*
X118614285Y-127578571D02*
X118614285Y-126578571D01*
X118614285Y-126721428D02*
X118542857Y-126650000D01*
X118400000Y-126578571D01*
X118185714Y-126578571D01*
X118042857Y-126650000D01*
X117971428Y-126792857D01*
X117971428Y-127578571D01*
X117971428Y-126792857D02*
X117900000Y-126650000D01*
X117757142Y-126578571D01*
X117542857Y-126578571D01*
X117400000Y-126650000D01*
X117328571Y-126792857D01*
X117328571Y-127578571D01*
X116042857Y-127507142D02*
X116185714Y-127578571D01*
X116471428Y-127578571D01*
X116614285Y-127507142D01*
X116685714Y-127364285D01*
X116685714Y-126792857D01*
X116614285Y-126650000D01*
X116471428Y-126578571D01*
X116185714Y-126578571D01*
X116042857Y-126650000D01*
X115971428Y-126792857D01*
X115971428Y-126935714D01*
X116685714Y-127078571D01*
X115328571Y-127435714D02*
X115257142Y-127507142D01*
X115328571Y-127578571D01*
X115400000Y-127507142D01*
X115328571Y-127435714D01*
X115328571Y-127578571D01*
X113971428Y-126578571D02*
X113971428Y-127578571D01*
X114614285Y-126578571D02*
X114614285Y-127364285D01*
X114542857Y-127507142D01*
X114400000Y-127578571D01*
X114185714Y-127578571D01*
X114042857Y-127507142D01*
X113971428Y-127435714D01*
X113257142Y-127578571D02*
X113257142Y-126078571D01*
X113114285Y-127007142D02*
X112685714Y-127578571D01*
X112685714Y-126578571D02*
X113257142Y-127150000D01*
D11*
%TO.P,U2,21*%
%TO.N,GND*%
X116300000Y-113300000D03*
%TD*%
D12*
%TO.P,U1,38*%
%TO.N,GND*%
X110900000Y-102295000D03*
%TO.P,U1,37*%
%TO.N,Net-(U1-Pad37)*%
X110900000Y-103565000D03*
%TO.P,U1,36*%
%TO.N,Net-(U1-Pad36)*%
X110900000Y-104835000D03*
%TO.P,U1,35*%
%TO.N,O*%
X110900000Y-106105000D03*
%TO.P,U1,34*%
%TO.N,I*%
X110900000Y-107375000D03*
%TO.P,U1,33*%
%TO.N,Net-(U1-Pad33)*%
X110900000Y-108645000D03*
%TO.P,U1,32*%
%TO.N,Net-(U1-Pad32)*%
X110900000Y-109915000D03*
%TO.P,U1,31*%
%TO.N,Net-(U1-Pad31)*%
X110900000Y-111185000D03*
%TO.P,U1,30*%
%TO.N,Net-(U1-Pad30)*%
X110900000Y-112455000D03*
%TO.P,U1,29*%
%TO.N,Net-(U1-Pad29)*%
X110900000Y-113725000D03*
%TO.P,U1,28*%
%TO.N,Net-(U1-Pad28)*%
X110900000Y-114995000D03*
%TO.P,U1,27*%
%TO.N,Net-(U1-Pad27)*%
X110900000Y-116265000D03*
%TO.P,U1,26*%
%TO.N,IO5*%
X110900000Y-117535000D03*
%TO.P,U1,25*%
%TO.N,BOOT*%
X110900000Y-118805000D03*
D13*
%TO.P,U1,24*%
%TO.N,IO3*%
X113685000Y-119805000D03*
%TO.P,U1,23*%
%TO.N,IO2*%
X114955000Y-119805000D03*
%TO.P,U1,22*%
%TO.N,Net-(U1-Pad22)*%
X116225000Y-119805000D03*
%TO.P,U1,21*%
%TO.N,Net-(U1-Pad21)*%
X117495000Y-119805000D03*
%TO.P,U1,20*%
%TO.N,Net-(U1-Pad20)*%
X118765000Y-119805000D03*
%TO.P,U1,19*%
%TO.N,Net-(U1-Pad19)*%
X120035000Y-119805000D03*
%TO.P,U1,18*%
%TO.N,Net-(U1-Pad18)*%
X121305000Y-119805000D03*
%TO.P,U1,17*%
%TO.N,Net-(U1-Pad17)*%
X122575000Y-119805000D03*
%TO.P,U1,16*%
%TO.N,IO1*%
X123845000Y-119805000D03*
%TO.P,U1,15*%
%TO.N,GND*%
X125115000Y-119805000D03*
D12*
%TO.P,U1,14*%
%TO.N,Net-(U1-Pad14)*%
X127900000Y-118805000D03*
%TO.P,U1,13*%
%TO.N,IO4*%
X127900000Y-117535000D03*
%TO.P,U1,12*%
%TO.N,GND*%
X127900000Y-116265000D03*
%TO.P,U1,11*%
X127900000Y-114995000D03*
%TO.P,U1,10*%
%TO.N,LED*%
X127900000Y-113725000D03*
%TO.P,U1,9*%
%TO.N,Net-(U1-Pad9)*%
X127900000Y-112455000D03*
%TO.P,U1,8*%
%TO.N,Net-(U1-Pad8)*%
X127900000Y-111185000D03*
%TO.P,U1,7*%
%TO.N,Net-(U1-Pad7)*%
X127900000Y-109915000D03*
%TO.P,U1,6*%
%TO.N,Net-(U1-Pad6)*%
X127900000Y-108645000D03*
%TO.P,U1,5*%
%TO.N,GND*%
X127900000Y-107375000D03*
%TO.P,U1,4*%
X127900000Y-106105000D03*
%TO.P,U1,3*%
%TO.N,EN*%
X127900000Y-104835000D03*
%TO.P,U1,2*%
%TO.N,+3V3*%
X127900000Y-103565000D03*
%TO.P,U1,1*%
%TO.N,GND*%
X127900000Y-102295000D03*
D14*
%TO.P,U1,39*%
X120400000Y-109795000D03*
%TD*%
D15*
%TO.P,J3,2*%
%TO.N,+12V*%
X126600000Y-125460000D03*
D16*
%TO.P,J3,1*%
%TO.N,GND*%
X126600000Y-128000000D03*
%TD*%
D17*
%TO.P,J1,1*%
%TO.N,GND*%
X125745000Y-122900000D03*
D18*
%TO.P,J1,2*%
%TO.N,IO1*%
X123205000Y-122900000D03*
%TO.P,J1,3*%
%TO.N,IO2*%
X120665000Y-122900000D03*
%TO.P,J1,4*%
%TO.N,IO3*%
X118125000Y-122900000D03*
%TO.P,J1,5*%
%TO.N,IO4*%
X115585000Y-122900000D03*
%TO.P,J1,6*%
%TO.N,Net-(J1-Pad6)*%
X113045000Y-122900000D03*
%TD*%
D19*
%TO.P,J2,S1*%
%TO.N,GND*%
X126990000Y-106880000D03*
X126990000Y-115520000D03*
D20*
X122820000Y-106880000D03*
X122820000Y-115520000D03*
D21*
X123310000Y-108310000D03*
X123310000Y-114090000D03*
%TD*%
D22*
%TO.N,GND*%
X118600000Y-111200000D03*
X114800008Y-118100023D03*
X115425010Y-107056390D03*
X112500001Y-112825339D03*
%TO.N,+3V3*%
X125000000Y-102200000D03*
%TO.N,VBUS*%
X121000000Y-106400000D03*
X124500000Y-116100000D03*
%TO.N,IO5*%
X110900000Y-121800000D03*
%TO.N,O*%
X119273532Y-116363004D03*
%TO.N,I*%
X115000000Y-116200000D03*
%TO.N,EN*%
X117507039Y-116549978D03*
%TO.N,Net-(J2-PadA5)*%
X120967846Y-116412760D03*
X122663961Y-102620927D03*
%TO.N,+12V*%
X111350000Y-123150000D03*
%TO.N,LED*%
X126275019Y-105734872D03*
%TO.N,BOOT*%
X113102066Y-117311725D03*
%TO.N,Net-(J2-PadA7)*%
X120100000Y-115800000D03*
X121400000Y-102550033D03*
%TO.N,Net-(J2-PadA6)*%
X119549989Y-102417782D03*
X119903325Y-114671355D03*
X119146990Y-113167622D03*
%TD*%
D23*
%TO.N,GND*%
X127540000Y-114995000D02*
X127010000Y-115525000D01*
X127900000Y-114995000D02*
X127540000Y-114995000D01*
X127750000Y-116265000D02*
X127010000Y-115525000D01*
X127900000Y-116265000D02*
X127750000Y-116265000D01*
X127780000Y-106105000D02*
X127010000Y-106875000D01*
X127900000Y-106105000D02*
X127780000Y-106105000D01*
X127510000Y-107375000D02*
X127010000Y-106875000D01*
X127900000Y-107375000D02*
X127510000Y-107375000D01*
X114800031Y-118100000D02*
X114800008Y-118100023D01*
X120255000Y-118100000D02*
X114800031Y-118100000D01*
X116600000Y-116300031D02*
X114800008Y-118100023D01*
D24*
X117661390Y-107056390D02*
X115425010Y-107056390D01*
X120400000Y-109795000D02*
X117661390Y-107056390D01*
D23*
X118925530Y-117088006D02*
X118548530Y-116711006D01*
X120651999Y-117225001D02*
X120515004Y-117088006D01*
X122830000Y-115525000D02*
X122830000Y-115743002D01*
X117400031Y-115500000D02*
X114800008Y-118100023D01*
X120515004Y-117088006D02*
X118925530Y-117088006D01*
X121348001Y-117225001D02*
X120651999Y-117225001D01*
X118548530Y-116711006D02*
X118548530Y-116440781D01*
X118548530Y-116440781D02*
X117607749Y-115500000D01*
X122830000Y-115743002D02*
X121348001Y-117225001D01*
X114800008Y-117300009D02*
X112500001Y-115000002D01*
X114800008Y-118100023D02*
X114800008Y-117300009D01*
X112500001Y-115000002D02*
X112500001Y-112825339D01*
X114599999Y-109099999D02*
X114599999Y-109580002D01*
X112895000Y-102295000D02*
X112895000Y-107395000D01*
X110900000Y-102295000D02*
X112895000Y-102295000D01*
X112895000Y-107395000D02*
X114599999Y-109099999D01*
X115900001Y-110880004D02*
X115900001Y-111516413D01*
X114599999Y-109580002D02*
X115900001Y-110880004D01*
X115900001Y-111516413D02*
X116100000Y-111716412D01*
X116100000Y-113100000D02*
X116300000Y-113300000D01*
X116100000Y-111716412D02*
X116100000Y-113100000D01*
X120790587Y-101400000D02*
X120815577Y-101375010D01*
X112895000Y-102295000D02*
X113105000Y-102295000D01*
X113105000Y-102295000D02*
X114000000Y-101400000D01*
X114000000Y-101400000D02*
X120790587Y-101400000D01*
X120815577Y-101375010D02*
X124024990Y-101375010D01*
X124024990Y-103575010D02*
X124024990Y-103624990D01*
X124024990Y-101375010D02*
X124024990Y-103575010D01*
X124024990Y-103575010D02*
X124024990Y-103824990D01*
X126990000Y-115520000D02*
X126070000Y-114600000D01*
X126070000Y-114600000D02*
X126070000Y-113970000D01*
X127900000Y-102295000D02*
X126295000Y-102295000D01*
X126295000Y-102295000D02*
X125375010Y-101375010D01*
X125375010Y-101375010D02*
X125324990Y-101375010D01*
X124024990Y-101375010D02*
X125324990Y-101375010D01*
%TO.N,+3V3*%
X126365000Y-103565000D02*
X127900000Y-103565000D01*
X125000000Y-102200000D02*
X126365000Y-103565000D01*
%TO.N,VBUS*%
X120600001Y-102226997D02*
X121001977Y-101825021D01*
X123188611Y-101825021D02*
X123574979Y-102211389D01*
X120600001Y-106000001D02*
X120600001Y-102226997D01*
X125000020Y-115599980D02*
X124500000Y-116100000D01*
X121000000Y-106400000D02*
X120600001Y-106000001D01*
X125000020Y-105536431D02*
X125000020Y-115599980D01*
X121001977Y-101825021D02*
X123188611Y-101825021D01*
X123574979Y-104111390D02*
X125000020Y-105536431D01*
X123574979Y-102211389D02*
X123574979Y-104111390D01*
%TO.N,IO5*%
X112869669Y-116386400D02*
X113249989Y-116386400D01*
X110900000Y-117535000D02*
X111721069Y-117535000D01*
X111721069Y-117535000D02*
X112869669Y-116386400D01*
X113656795Y-116793205D02*
X113749989Y-116886400D01*
X113249989Y-116386400D02*
X113656795Y-116793205D01*
X111100000Y-119650000D02*
X110900000Y-119850000D01*
X112100000Y-119650000D02*
X111100000Y-119650000D01*
X110900000Y-119850000D02*
X110900000Y-121800000D01*
X112909999Y-118840001D02*
X112100000Y-119650000D01*
X113886400Y-117568598D02*
X112909999Y-118544999D01*
X112909999Y-118544999D02*
X112909999Y-118840001D01*
X113886400Y-117022810D02*
X113886400Y-117568598D01*
X113656795Y-116793205D02*
X113886400Y-117022810D01*
%TO.N,IO4*%
X125890001Y-121609999D02*
X125775001Y-121724999D01*
X127900000Y-117535000D02*
X126650000Y-117535000D01*
X125890001Y-118294999D02*
X125890001Y-121609999D01*
X116385998Y-122900000D02*
X115585000Y-122900000D01*
X126650000Y-117535000D02*
X125890001Y-118294999D01*
X125775001Y-121724999D02*
X124634999Y-121724999D01*
X124380001Y-121979997D02*
X124380001Y-123464001D01*
X124634999Y-121724999D02*
X124380001Y-121979997D01*
X124380001Y-123464001D02*
X123769001Y-124075001D01*
X123769001Y-124075001D02*
X117560999Y-124075001D01*
X117560999Y-124075001D02*
X116385998Y-122900000D01*
%TO.N,IO3*%
X116949999Y-121724999D02*
X118125000Y-122900000D01*
X114354999Y-121724999D02*
X116949999Y-121724999D01*
X113685000Y-121055000D02*
X114354999Y-121724999D01*
X113685000Y-119805000D02*
X113685000Y-121055000D01*
%TO.N,IO2*%
X118895001Y-121130001D02*
X120665000Y-122900000D01*
X115030001Y-121130001D02*
X118895001Y-121130001D01*
X114955000Y-121055000D02*
X115030001Y-121130001D01*
X114955000Y-119805000D02*
X114955000Y-121055000D01*
%TO.N,IO1*%
X123845000Y-122260000D02*
X123205000Y-122900000D01*
X123845000Y-119805000D02*
X123845000Y-122260000D01*
%TO.N,O*%
X114049989Y-111786400D02*
X116063590Y-113800001D01*
X116710529Y-113800001D02*
X119273532Y-116363004D01*
X112150000Y-106105000D02*
X112444989Y-106399989D01*
X112444989Y-107581400D02*
X114049989Y-109186400D01*
X112444989Y-106399989D02*
X112444989Y-107581400D01*
X116063590Y-113800001D02*
X116710529Y-113800001D01*
X114049989Y-109186400D02*
X114049989Y-111786400D01*
X110900000Y-106105000D02*
X112150000Y-106105000D01*
%TO.N,I*%
X111602179Y-107375000D02*
X113402868Y-109175689D01*
X113402868Y-109175689D02*
X113402868Y-114602868D01*
X113402868Y-114602868D02*
X114600001Y-115800001D01*
X110900000Y-107375000D02*
X111602179Y-107375000D01*
X114600001Y-115800001D02*
X115000000Y-116200000D01*
%TO.N,EN*%
X118507072Y-117550011D02*
X118949989Y-117550011D01*
X117507039Y-116549978D02*
X118507072Y-117550011D01*
X118949989Y-117550011D02*
X118613600Y-117550011D01*
X123997992Y-117675012D02*
X125450031Y-116222973D01*
X118974990Y-117575012D02*
X120365599Y-117575012D01*
X120365599Y-117575012D02*
X120465599Y-117675012D01*
X118949989Y-117550011D02*
X118974990Y-117575012D01*
X126083092Y-104835000D02*
X127900000Y-104835000D01*
X120465599Y-117675012D02*
X123997992Y-117675012D01*
X125450031Y-116222973D02*
X125450031Y-105468061D01*
X125450031Y-105468061D02*
X126083092Y-104835000D01*
%TO.N,Net-(J2-PadA5)*%
X124470012Y-112004984D02*
X121367845Y-115107152D01*
X121367845Y-116012761D02*
X120967846Y-116412760D01*
X124470012Y-105642834D02*
X124470012Y-112004984D01*
X121367845Y-115107152D02*
X121367845Y-116012761D01*
X122663961Y-103836783D02*
X124470012Y-105642834D01*
X122663961Y-102620927D02*
X122663961Y-103836783D01*
%TO.N,+12V*%
X116949588Y-124100000D02*
X117374599Y-124525012D01*
X112300000Y-124100000D02*
X116949588Y-124100000D01*
X117374599Y-124525012D02*
X125374988Y-124525012D01*
X112300000Y-124100000D02*
X111350000Y-123150000D01*
X126309976Y-125460000D02*
X126600000Y-125460000D01*
X125374988Y-124525012D02*
X126309976Y-125460000D01*
%TO.N,LED*%
X126650000Y-113725000D02*
X127900000Y-113725000D01*
X126512500Y-113587500D02*
X126650000Y-113725000D01*
X125914999Y-107514999D02*
X126512500Y-108112500D01*
X125914999Y-106363999D02*
X125914999Y-107514999D01*
X126275019Y-106003979D02*
X125914999Y-106363999D01*
X126512500Y-108112500D02*
X126512500Y-113587500D01*
X126275019Y-105734872D02*
X126275019Y-106003979D01*
%TO.N,BOOT*%
X111608791Y-118805000D02*
X113102066Y-117311725D01*
X110900000Y-118805000D02*
X111608791Y-118805000D01*
%TO.N,Net-(J2-PadA7)*%
X120100000Y-115738587D02*
X120100000Y-115800000D01*
X124020001Y-111818587D02*
X120100000Y-115738587D01*
X124020001Y-105829234D02*
X124020001Y-111818587D01*
X121400000Y-103209233D02*
X124020001Y-105829234D01*
X121400000Y-102550033D02*
X121400000Y-103209233D01*
%TO.N,Net-(J2-PadA6)*%
X119903325Y-114671355D02*
X119903325Y-113923957D01*
X119903325Y-113923957D02*
X119146990Y-113167622D01*
X119549989Y-102417782D02*
X118984304Y-102417782D01*
X118984304Y-102417782D02*
X114700000Y-106702086D01*
X114700000Y-106702086D02*
X114700000Y-107363590D01*
X116350011Y-109013601D02*
X116350011Y-111330013D01*
X118187620Y-113167622D02*
X119146990Y-113167622D01*
X116350011Y-111330013D02*
X118187620Y-113167622D01*
X114700000Y-107363590D02*
X116350011Y-109013601D01*
%TD*%
D25*
%TO.N,GND*%
X126521176Y-119255000D02*
X126528455Y-119328905D01*
X126550012Y-119399970D01*
X126585019Y-119465463D01*
X126632131Y-119522869D01*
X126689537Y-119569981D01*
X126755030Y-119604988D01*
X126826095Y-119626545D01*
X126900000Y-119633824D01*
X128473000Y-119633824D01*
X128473000Y-128979117D01*
X128460078Y-129110899D01*
X128427873Y-129217570D01*
X128375558Y-129315961D01*
X128305130Y-129402313D01*
X128219270Y-129473343D01*
X128121255Y-129526339D01*
X128014807Y-129559290D01*
X127884371Y-129573000D01*
X127875053Y-129573000D01*
X127954494Y-129530537D01*
X128051185Y-129451185D01*
X128130537Y-129354494D01*
X128189502Y-129244180D01*
X128225812Y-129124482D01*
X128238072Y-129000000D01*
X128235000Y-128285750D01*
X128076250Y-128127000D01*
X126727000Y-128127000D01*
X126727000Y-128147000D01*
X126473000Y-128147000D01*
X126473000Y-128127000D01*
X125123750Y-128127000D01*
X124965000Y-128285750D01*
X124961928Y-129000000D01*
X124974188Y-129124482D01*
X125010498Y-129244180D01*
X125069463Y-129354494D01*
X125148815Y-129451185D01*
X125245506Y-129530537D01*
X125324947Y-129573000D01*
X110920883Y-129573000D01*
X110789101Y-129560078D01*
X110682430Y-129527873D01*
X110584039Y-129475558D01*
X110497687Y-129405130D01*
X110426657Y-129319270D01*
X110373661Y-129221255D01*
X110340710Y-129114807D01*
X110327000Y-128984371D01*
X110327000Y-125368000D01*
X111873000Y-125368000D01*
X111873000Y-128672000D01*
X124927000Y-128672000D01*
X124927000Y-125368000D01*
X111873000Y-125368000D01*
X110327000Y-125368000D01*
X110327000Y-122325845D01*
X110404691Y-122403536D01*
X110531952Y-122488569D01*
X110673357Y-122547141D01*
X110823472Y-122577000D01*
X110824155Y-122577000D01*
X110746464Y-122654691D01*
X110661431Y-122781952D01*
X110602859Y-122923357D01*
X110573000Y-123073472D01*
X110573000Y-123226528D01*
X110602859Y-123376643D01*
X110661431Y-123518048D01*
X110746464Y-123645309D01*
X110854691Y-123753536D01*
X110981952Y-123838569D01*
X111123357Y-123897141D01*
X111273472Y-123927000D01*
X111417066Y-123927000D01*
X111927603Y-124437538D01*
X111943316Y-124456684D01*
X112019755Y-124519417D01*
X112106964Y-124566031D01*
X112201591Y-124594736D01*
X112275347Y-124602000D01*
X112275357Y-124602000D01*
X112300000Y-124604427D01*
X112324643Y-124602000D01*
X116741653Y-124602000D01*
X117002201Y-124862549D01*
X117017915Y-124881696D01*
X117037061Y-124897409D01*
X117037063Y-124897411D01*
X117094352Y-124944428D01*
X117094354Y-124944429D01*
X117181563Y-124991043D01*
X117276190Y-125019748D01*
X117349946Y-125027012D01*
X117349955Y-125027012D01*
X117374598Y-125029439D01*
X117399241Y-125027012D01*
X125167054Y-125027012D01*
X125263054Y-125123012D01*
X125223000Y-125324377D01*
X125223000Y-125595623D01*
X125275917Y-125861656D01*
X125379718Y-126112254D01*
X125530414Y-126337787D01*
X125558630Y-126366003D01*
X125475518Y-126374188D01*
X125355820Y-126410498D01*
X125245506Y-126469463D01*
X125148815Y-126548815D01*
X125069463Y-126645506D01*
X125010498Y-126755820D01*
X124974188Y-126875518D01*
X124961928Y-127000000D01*
X124965000Y-127714250D01*
X125123750Y-127873000D01*
X126473000Y-127873000D01*
X126473000Y-127853000D01*
X126727000Y-127853000D01*
X126727000Y-127873000D01*
X128076250Y-127873000D01*
X128235000Y-127714250D01*
X128238072Y-127000000D01*
X128225812Y-126875518D01*
X128189502Y-126755820D01*
X128130537Y-126645506D01*
X128051185Y-126548815D01*
X127954494Y-126469463D01*
X127844180Y-126410498D01*
X127724482Y-126374188D01*
X127641370Y-126366003D01*
X127669586Y-126337787D01*
X127820282Y-126112254D01*
X127924083Y-125861656D01*
X127977000Y-125595623D01*
X127977000Y-125324377D01*
X127924083Y-125058344D01*
X127820282Y-124807746D01*
X127669586Y-124582213D01*
X127477787Y-124390414D01*
X127252254Y-124239718D01*
X127074863Y-124166240D01*
X127125537Y-124104494D01*
X127184502Y-123994180D01*
X127220812Y-123874482D01*
X127233072Y-123750000D01*
X127230000Y-123185750D01*
X127071250Y-123027000D01*
X125872000Y-123027000D01*
X125872000Y-123047000D01*
X125618000Y-123047000D01*
X125618000Y-123027000D01*
X125598000Y-123027000D01*
X125598000Y-122773000D01*
X125618000Y-122773000D01*
X125618000Y-122753000D01*
X125872000Y-122753000D01*
X125872000Y-122773000D01*
X127071250Y-122773000D01*
X127230000Y-122614250D01*
X127233072Y-122050000D01*
X127220812Y-121925518D01*
X127184502Y-121805820D01*
X127125537Y-121695506D01*
X127046185Y-121598815D01*
X126949494Y-121519463D01*
X126839180Y-121460498D01*
X126719482Y-121424188D01*
X126595000Y-121411928D01*
X126392001Y-121413033D01*
X126392001Y-118502933D01*
X126521176Y-118373758D01*
X126521176Y-119255000D01*
%TA.AperFunction,Conductor*%
D26*
G36*
X126521176Y-119255000D02*
G01*
X126528455Y-119328905D01*
X126550012Y-119399970D01*
X126585019Y-119465463D01*
X126632131Y-119522869D01*
X126689537Y-119569981D01*
X126755030Y-119604988D01*
X126826095Y-119626545D01*
X126900000Y-119633824D01*
X128473000Y-119633824D01*
X128473000Y-128979117D01*
X128460078Y-129110899D01*
X128427873Y-129217570D01*
X128375558Y-129315961D01*
X128305130Y-129402313D01*
X128219270Y-129473343D01*
X128121255Y-129526339D01*
X128014807Y-129559290D01*
X127884371Y-129573000D01*
X127875053Y-129573000D01*
X127954494Y-129530537D01*
X128051185Y-129451185D01*
X128130537Y-129354494D01*
X128189502Y-129244180D01*
X128225812Y-129124482D01*
X128238072Y-129000000D01*
X128235000Y-128285750D01*
X128076250Y-128127000D01*
X126727000Y-128127000D01*
X126727000Y-128147000D01*
X126473000Y-128147000D01*
X126473000Y-128127000D01*
X125123750Y-128127000D01*
X124965000Y-128285750D01*
X124961928Y-129000000D01*
X124974188Y-129124482D01*
X125010498Y-129244180D01*
X125069463Y-129354494D01*
X125148815Y-129451185D01*
X125245506Y-129530537D01*
X125324947Y-129573000D01*
X110920883Y-129573000D01*
X110789101Y-129560078D01*
X110682430Y-129527873D01*
X110584039Y-129475558D01*
X110497687Y-129405130D01*
X110426657Y-129319270D01*
X110373661Y-129221255D01*
X110340710Y-129114807D01*
X110327000Y-128984371D01*
X110327000Y-125368000D01*
X111873000Y-125368000D01*
X111873000Y-128672000D01*
X124927000Y-128672000D01*
X124927000Y-125368000D01*
X111873000Y-125368000D01*
X110327000Y-125368000D01*
X110327000Y-122325845D01*
X110404691Y-122403536D01*
X110531952Y-122488569D01*
X110673357Y-122547141D01*
X110823472Y-122577000D01*
X110824155Y-122577000D01*
X110746464Y-122654691D01*
X110661431Y-122781952D01*
X110602859Y-122923357D01*
X110573000Y-123073472D01*
X110573000Y-123226528D01*
X110602859Y-123376643D01*
X110661431Y-123518048D01*
X110746464Y-123645309D01*
X110854691Y-123753536D01*
X110981952Y-123838569D01*
X111123357Y-123897141D01*
X111273472Y-123927000D01*
X111417066Y-123927000D01*
X111927603Y-124437538D01*
X111943316Y-124456684D01*
X112019755Y-124519417D01*
X112106964Y-124566031D01*
X112201591Y-124594736D01*
X112275347Y-124602000D01*
X112275357Y-124602000D01*
X112300000Y-124604427D01*
X112324643Y-124602000D01*
X116741653Y-124602000D01*
X117002201Y-124862549D01*
X117017915Y-124881696D01*
X117037061Y-124897409D01*
X117037063Y-124897411D01*
X117094352Y-124944428D01*
X117094354Y-124944429D01*
X117181563Y-124991043D01*
X117276190Y-125019748D01*
X117349946Y-125027012D01*
X117349955Y-125027012D01*
X117374598Y-125029439D01*
X117399241Y-125027012D01*
X125167054Y-125027012D01*
X125263054Y-125123012D01*
X125223000Y-125324377D01*
X125223000Y-125595623D01*
X125275917Y-125861656D01*
X125379718Y-126112254D01*
X125530414Y-126337787D01*
X125558630Y-126366003D01*
X125475518Y-126374188D01*
X125355820Y-126410498D01*
X125245506Y-126469463D01*
X125148815Y-126548815D01*
X125069463Y-126645506D01*
X125010498Y-126755820D01*
X124974188Y-126875518D01*
X124961928Y-127000000D01*
X124965000Y-127714250D01*
X125123750Y-127873000D01*
X126473000Y-127873000D01*
X126473000Y-127853000D01*
X126727000Y-127853000D01*
X126727000Y-127873000D01*
X128076250Y-127873000D01*
X128235000Y-127714250D01*
X128238072Y-127000000D01*
X128225812Y-126875518D01*
X128189502Y-126755820D01*
X128130537Y-126645506D01*
X128051185Y-126548815D01*
X127954494Y-126469463D01*
X127844180Y-126410498D01*
X127724482Y-126374188D01*
X127641370Y-126366003D01*
X127669586Y-126337787D01*
X127820282Y-126112254D01*
X127924083Y-125861656D01*
X127977000Y-125595623D01*
X127977000Y-125324377D01*
X127924083Y-125058344D01*
X127820282Y-124807746D01*
X127669586Y-124582213D01*
X127477787Y-124390414D01*
X127252254Y-124239718D01*
X127074863Y-124166240D01*
X127125537Y-124104494D01*
X127184502Y-123994180D01*
X127220812Y-123874482D01*
X127233072Y-123750000D01*
X127230000Y-123185750D01*
X127071250Y-123027000D01*
X125872000Y-123027000D01*
X125872000Y-123047000D01*
X125618000Y-123047000D01*
X125618000Y-123027000D01*
X125598000Y-123027000D01*
X125598000Y-122773000D01*
X125618000Y-122773000D01*
X125618000Y-122753000D01*
X125872000Y-122753000D01*
X125872000Y-122773000D01*
X127071250Y-122773000D01*
X127230000Y-122614250D01*
X127233072Y-122050000D01*
X127220812Y-121925518D01*
X127184502Y-121805820D01*
X127125537Y-121695506D01*
X127046185Y-121598815D01*
X126949494Y-121519463D01*
X126839180Y-121460498D01*
X126719482Y-121424188D01*
X126595000Y-121411928D01*
X126392001Y-121413033D01*
X126392001Y-118502933D01*
X126521176Y-118373758D01*
X126521176Y-119255000D01*
G37*
%TD.AperFunction*%
D25*
X112900868Y-109383625D02*
X112900869Y-114578215D01*
X112898441Y-114602868D01*
X112908133Y-114701277D01*
X112936838Y-114795904D01*
X112983452Y-114883113D01*
X113030469Y-114940403D01*
X113030472Y-114940406D01*
X113046185Y-114959552D01*
X113065331Y-114975265D01*
X114223000Y-116132936D01*
X114223000Y-116276528D01*
X114252859Y-116426643D01*
X114311431Y-116568048D01*
X114396464Y-116695309D01*
X114504691Y-116803536D01*
X114631952Y-116888569D01*
X114773357Y-116947141D01*
X114923472Y-116977000D01*
X115076528Y-116977000D01*
X115226643Y-116947141D01*
X115368048Y-116888569D01*
X115495309Y-116803536D01*
X115603536Y-116695309D01*
X115688569Y-116568048D01*
X115747141Y-116426643D01*
X115777000Y-116276528D01*
X115777000Y-116123472D01*
X115747141Y-115973357D01*
X115688569Y-115831952D01*
X115603536Y-115704691D01*
X115495309Y-115596464D01*
X115368048Y-115511431D01*
X115226643Y-115452859D01*
X115076528Y-115423000D01*
X114932936Y-115423000D01*
X113904868Y-114394934D01*
X113904868Y-112351213D01*
X115691197Y-114137544D01*
X115706906Y-114156685D01*
X115726046Y-114172393D01*
X115726054Y-114172401D01*
X115769725Y-114208240D01*
X115783345Y-114219418D01*
X115870554Y-114266032D01*
X115965181Y-114294737D01*
X116038937Y-114302001D01*
X116038947Y-114302001D01*
X116063590Y-114304428D01*
X116088233Y-114302001D01*
X116502595Y-114302001D01*
X118496532Y-116295940D01*
X118496532Y-116439532D01*
X118526391Y-116589647D01*
X118584963Y-116731052D01*
X118669996Y-116858313D01*
X118778223Y-116966540D01*
X118900153Y-117048011D01*
X118715007Y-117048011D01*
X118284039Y-116617044D01*
X118284039Y-116473450D01*
X118254180Y-116323335D01*
X118195608Y-116181930D01*
X118110575Y-116054669D01*
X118002348Y-115946442D01*
X117875087Y-115861409D01*
X117733682Y-115802837D01*
X117583567Y-115772978D01*
X117430511Y-115772978D01*
X117280396Y-115802837D01*
X117138991Y-115861409D01*
X117011730Y-115946442D01*
X116903503Y-116054669D01*
X116818470Y-116181930D01*
X116759898Y-116323335D01*
X116730039Y-116473450D01*
X116730039Y-116626506D01*
X116759898Y-116776621D01*
X116818470Y-116918026D01*
X116903503Y-117045287D01*
X117011730Y-117153514D01*
X117138991Y-117238547D01*
X117280396Y-117297119D01*
X117430511Y-117326978D01*
X117574105Y-117326978D01*
X118134675Y-117887549D01*
X118150388Y-117906695D01*
X118226827Y-117969428D01*
X118314036Y-118016042D01*
X118408663Y-118044747D01*
X118482419Y-118052011D01*
X118482428Y-118052011D01*
X118507071Y-118054438D01*
X118531714Y-118052011D01*
X118818110Y-118052011D01*
X118876581Y-118069748D01*
X118950337Y-118077012D01*
X118950347Y-118077012D01*
X118974990Y-118079439D01*
X118999633Y-118077012D01*
X120164132Y-118077012D01*
X120185354Y-118094429D01*
X120272563Y-118141043D01*
X120367190Y-118169748D01*
X120440946Y-118177012D01*
X120440955Y-118177012D01*
X120465598Y-118179439D01*
X120490241Y-118177012D01*
X123973349Y-118177012D01*
X123997992Y-118179439D01*
X124022635Y-118177012D01*
X124022645Y-118177012D01*
X124096401Y-118169748D01*
X124191028Y-118141043D01*
X124278237Y-118094429D01*
X124354676Y-118031696D01*
X124370393Y-118012545D01*
X125787569Y-116595370D01*
X125806715Y-116579657D01*
X125826098Y-116556040D01*
X125869447Y-116503219D01*
X125869448Y-116503218D01*
X125916062Y-116416009D01*
X125944767Y-116321382D01*
X125949389Y-116274450D01*
X126033007Y-116297388D01*
X126308073Y-116022323D01*
X126423750Y-116138000D01*
X126551605Y-116138000D01*
X126212612Y-116476993D01*
X126262948Y-116660488D01*
X126261928Y-116715000D01*
X126274188Y-116839482D01*
X126310498Y-116959180D01*
X126369463Y-117069494D01*
X126395843Y-117101639D01*
X126369755Y-117115583D01*
X126362888Y-117121219D01*
X126323537Y-117153514D01*
X126293316Y-117178316D01*
X126277603Y-117197462D01*
X125552468Y-117922598D01*
X125533317Y-117938315D01*
X125470584Y-118014754D01*
X125423970Y-118101964D01*
X125403346Y-118169951D01*
X125400750Y-118170000D01*
X125242000Y-118328750D01*
X125242000Y-119678000D01*
X125262000Y-119678000D01*
X125262000Y-119932000D01*
X125242000Y-119932000D01*
X125242000Y-119952000D01*
X124988000Y-119952000D01*
X124988000Y-119932000D01*
X124968000Y-119932000D01*
X124968000Y-119678000D01*
X124988000Y-119678000D01*
X124988000Y-118328750D01*
X124829250Y-118170000D01*
X124665000Y-118166928D01*
X124540518Y-118179188D01*
X124420820Y-118215498D01*
X124310506Y-118274463D01*
X124213815Y-118353815D01*
X124154430Y-118426176D01*
X123395000Y-118426176D01*
X123321095Y-118433455D01*
X123250030Y-118455012D01*
X123210000Y-118476409D01*
X123169970Y-118455012D01*
X123098905Y-118433455D01*
X123025000Y-118426176D01*
X122125000Y-118426176D01*
X122051095Y-118433455D01*
X121980030Y-118455012D01*
X121940000Y-118476409D01*
X121899970Y-118455012D01*
X121828905Y-118433455D01*
X121755000Y-118426176D01*
X120855000Y-118426176D01*
X120781095Y-118433455D01*
X120710030Y-118455012D01*
X120670000Y-118476409D01*
X120629970Y-118455012D01*
X120558905Y-118433455D01*
X120485000Y-118426176D01*
X119585000Y-118426176D01*
X119511095Y-118433455D01*
X119440030Y-118455012D01*
X119400000Y-118476409D01*
X119359970Y-118455012D01*
X119288905Y-118433455D01*
X119215000Y-118426176D01*
X118315000Y-118426176D01*
X118241095Y-118433455D01*
X118170030Y-118455012D01*
X118130000Y-118476409D01*
X118089970Y-118455012D01*
X118018905Y-118433455D01*
X117945000Y-118426176D01*
X117045000Y-118426176D01*
X116971095Y-118433455D01*
X116900030Y-118455012D01*
X116860000Y-118476409D01*
X116819970Y-118455012D01*
X116748905Y-118433455D01*
X116675000Y-118426176D01*
X115775000Y-118426176D01*
X115701095Y-118433455D01*
X115630030Y-118455012D01*
X115590000Y-118476409D01*
X115549970Y-118455012D01*
X115478905Y-118433455D01*
X115405000Y-118426176D01*
X114505000Y-118426176D01*
X114431095Y-118433455D01*
X114360030Y-118455012D01*
X114320000Y-118476409D01*
X114279970Y-118455012D01*
X114208905Y-118433455D01*
X114135000Y-118426176D01*
X113738756Y-118426176D01*
X114223938Y-117940995D01*
X114243084Y-117925282D01*
X114258797Y-117906136D01*
X114258800Y-117906133D01*
X114305817Y-117848844D01*
X114352431Y-117761635D01*
X114381136Y-117667008D01*
X114382884Y-117649261D01*
X114388400Y-117593251D01*
X114388400Y-117593244D01*
X114390827Y-117568598D01*
X114388400Y-117543953D01*
X114388400Y-117047455D01*
X114390827Y-117022810D01*
X114388400Y-116998164D01*
X114388400Y-116998157D01*
X114381136Y-116924401D01*
X114378948Y-116917187D01*
X114352431Y-116829773D01*
X114305817Y-116742565D01*
X114283900Y-116715860D01*
X114243084Y-116666126D01*
X114223932Y-116650408D01*
X114029199Y-116455675D01*
X114029194Y-116455669D01*
X113622390Y-116048867D01*
X113606673Y-116029716D01*
X113530234Y-115966983D01*
X113443025Y-115920369D01*
X113348398Y-115891664D01*
X113274642Y-115884400D01*
X113274632Y-115884400D01*
X113249989Y-115881973D01*
X113225346Y-115884400D01*
X112894312Y-115884400D01*
X112869669Y-115881973D01*
X112845026Y-115884400D01*
X112845016Y-115884400D01*
X112771260Y-115891664D01*
X112676633Y-115920369D01*
X112644553Y-115937516D01*
X112589423Y-115966983D01*
X112532133Y-116014000D01*
X112532125Y-116014008D01*
X112512985Y-116029716D01*
X112497276Y-116048857D01*
X112278824Y-116267309D01*
X112278824Y-115815000D01*
X112271545Y-115741095D01*
X112249988Y-115670030D01*
X112228591Y-115630000D01*
X112249988Y-115589970D01*
X112271545Y-115518905D01*
X112278824Y-115445000D01*
X112278824Y-114545000D01*
X112271545Y-114471095D01*
X112249988Y-114400030D01*
X112228591Y-114360000D01*
X112249988Y-114319970D01*
X112271545Y-114248905D01*
X112278824Y-114175000D01*
X112278824Y-113275000D01*
X112271545Y-113201095D01*
X112249988Y-113130030D01*
X112228591Y-113090000D01*
X112249988Y-113049970D01*
X112271545Y-112978905D01*
X112278824Y-112905000D01*
X112278824Y-112005000D01*
X112271545Y-111931095D01*
X112249988Y-111860030D01*
X112228591Y-111820000D01*
X112249988Y-111779970D01*
X112271545Y-111708905D01*
X112278824Y-111635000D01*
X112278824Y-110735000D01*
X112271545Y-110661095D01*
X112249988Y-110590030D01*
X112228591Y-110550000D01*
X112249988Y-110509970D01*
X112271545Y-110438905D01*
X112278824Y-110365000D01*
X112278824Y-109465000D01*
X112271545Y-109391095D01*
X112249988Y-109320030D01*
X112228591Y-109280000D01*
X112249988Y-109239970D01*
X112271545Y-109168905D01*
X112278824Y-109095000D01*
X112278824Y-108761580D01*
X112900868Y-109383625D01*
%TA.AperFunction,Conductor*%
D26*
G36*
X112900868Y-109383625D02*
G01*
X112900869Y-114578215D01*
X112898441Y-114602868D01*
X112908133Y-114701277D01*
X112936838Y-114795904D01*
X112983452Y-114883113D01*
X113030469Y-114940403D01*
X113030472Y-114940406D01*
X113046185Y-114959552D01*
X113065331Y-114975265D01*
X114223000Y-116132936D01*
X114223000Y-116276528D01*
X114252859Y-116426643D01*
X114311431Y-116568048D01*
X114396464Y-116695309D01*
X114504691Y-116803536D01*
X114631952Y-116888569D01*
X114773357Y-116947141D01*
X114923472Y-116977000D01*
X115076528Y-116977000D01*
X115226643Y-116947141D01*
X115368048Y-116888569D01*
X115495309Y-116803536D01*
X115603536Y-116695309D01*
X115688569Y-116568048D01*
X115747141Y-116426643D01*
X115777000Y-116276528D01*
X115777000Y-116123472D01*
X115747141Y-115973357D01*
X115688569Y-115831952D01*
X115603536Y-115704691D01*
X115495309Y-115596464D01*
X115368048Y-115511431D01*
X115226643Y-115452859D01*
X115076528Y-115423000D01*
X114932936Y-115423000D01*
X113904868Y-114394934D01*
X113904868Y-112351213D01*
X115691197Y-114137544D01*
X115706906Y-114156685D01*
X115726046Y-114172393D01*
X115726054Y-114172401D01*
X115769725Y-114208240D01*
X115783345Y-114219418D01*
X115870554Y-114266032D01*
X115965181Y-114294737D01*
X116038937Y-114302001D01*
X116038947Y-114302001D01*
X116063590Y-114304428D01*
X116088233Y-114302001D01*
X116502595Y-114302001D01*
X118496532Y-116295940D01*
X118496532Y-116439532D01*
X118526391Y-116589647D01*
X118584963Y-116731052D01*
X118669996Y-116858313D01*
X118778223Y-116966540D01*
X118900153Y-117048011D01*
X118715007Y-117048011D01*
X118284039Y-116617044D01*
X118284039Y-116473450D01*
X118254180Y-116323335D01*
X118195608Y-116181930D01*
X118110575Y-116054669D01*
X118002348Y-115946442D01*
X117875087Y-115861409D01*
X117733682Y-115802837D01*
X117583567Y-115772978D01*
X117430511Y-115772978D01*
X117280396Y-115802837D01*
X117138991Y-115861409D01*
X117011730Y-115946442D01*
X116903503Y-116054669D01*
X116818470Y-116181930D01*
X116759898Y-116323335D01*
X116730039Y-116473450D01*
X116730039Y-116626506D01*
X116759898Y-116776621D01*
X116818470Y-116918026D01*
X116903503Y-117045287D01*
X117011730Y-117153514D01*
X117138991Y-117238547D01*
X117280396Y-117297119D01*
X117430511Y-117326978D01*
X117574105Y-117326978D01*
X118134675Y-117887549D01*
X118150388Y-117906695D01*
X118226827Y-117969428D01*
X118314036Y-118016042D01*
X118408663Y-118044747D01*
X118482419Y-118052011D01*
X118482428Y-118052011D01*
X118507071Y-118054438D01*
X118531714Y-118052011D01*
X118818110Y-118052011D01*
X118876581Y-118069748D01*
X118950337Y-118077012D01*
X118950347Y-118077012D01*
X118974990Y-118079439D01*
X118999633Y-118077012D01*
X120164132Y-118077012D01*
X120185354Y-118094429D01*
X120272563Y-118141043D01*
X120367190Y-118169748D01*
X120440946Y-118177012D01*
X120440955Y-118177012D01*
X120465598Y-118179439D01*
X120490241Y-118177012D01*
X123973349Y-118177012D01*
X123997992Y-118179439D01*
X124022635Y-118177012D01*
X124022645Y-118177012D01*
X124096401Y-118169748D01*
X124191028Y-118141043D01*
X124278237Y-118094429D01*
X124354676Y-118031696D01*
X124370393Y-118012545D01*
X125787569Y-116595370D01*
X125806715Y-116579657D01*
X125826098Y-116556040D01*
X125869447Y-116503219D01*
X125869448Y-116503218D01*
X125916062Y-116416009D01*
X125944767Y-116321382D01*
X125949389Y-116274450D01*
X126033007Y-116297388D01*
X126308073Y-116022323D01*
X126423750Y-116138000D01*
X126551605Y-116138000D01*
X126212612Y-116476993D01*
X126262948Y-116660488D01*
X126261928Y-116715000D01*
X126274188Y-116839482D01*
X126310498Y-116959180D01*
X126369463Y-117069494D01*
X126395843Y-117101639D01*
X126369755Y-117115583D01*
X126362888Y-117121219D01*
X126323537Y-117153514D01*
X126293316Y-117178316D01*
X126277603Y-117197462D01*
X125552468Y-117922598D01*
X125533317Y-117938315D01*
X125470584Y-118014754D01*
X125423970Y-118101964D01*
X125403346Y-118169951D01*
X125400750Y-118170000D01*
X125242000Y-118328750D01*
X125242000Y-119678000D01*
X125262000Y-119678000D01*
X125262000Y-119932000D01*
X125242000Y-119932000D01*
X125242000Y-119952000D01*
X124988000Y-119952000D01*
X124988000Y-119932000D01*
X124968000Y-119932000D01*
X124968000Y-119678000D01*
X124988000Y-119678000D01*
X124988000Y-118328750D01*
X124829250Y-118170000D01*
X124665000Y-118166928D01*
X124540518Y-118179188D01*
X124420820Y-118215498D01*
X124310506Y-118274463D01*
X124213815Y-118353815D01*
X124154430Y-118426176D01*
X123395000Y-118426176D01*
X123321095Y-118433455D01*
X123250030Y-118455012D01*
X123210000Y-118476409D01*
X123169970Y-118455012D01*
X123098905Y-118433455D01*
X123025000Y-118426176D01*
X122125000Y-118426176D01*
X122051095Y-118433455D01*
X121980030Y-118455012D01*
X121940000Y-118476409D01*
X121899970Y-118455012D01*
X121828905Y-118433455D01*
X121755000Y-118426176D01*
X120855000Y-118426176D01*
X120781095Y-118433455D01*
X120710030Y-118455012D01*
X120670000Y-118476409D01*
X120629970Y-118455012D01*
X120558905Y-118433455D01*
X120485000Y-118426176D01*
X119585000Y-118426176D01*
X119511095Y-118433455D01*
X119440030Y-118455012D01*
X119400000Y-118476409D01*
X119359970Y-118455012D01*
X119288905Y-118433455D01*
X119215000Y-118426176D01*
X118315000Y-118426176D01*
X118241095Y-118433455D01*
X118170030Y-118455012D01*
X118130000Y-118476409D01*
X118089970Y-118455012D01*
X118018905Y-118433455D01*
X117945000Y-118426176D01*
X117045000Y-118426176D01*
X116971095Y-118433455D01*
X116900030Y-118455012D01*
X116860000Y-118476409D01*
X116819970Y-118455012D01*
X116748905Y-118433455D01*
X116675000Y-118426176D01*
X115775000Y-118426176D01*
X115701095Y-118433455D01*
X115630030Y-118455012D01*
X115590000Y-118476409D01*
X115549970Y-118455012D01*
X115478905Y-118433455D01*
X115405000Y-118426176D01*
X114505000Y-118426176D01*
X114431095Y-118433455D01*
X114360030Y-118455012D01*
X114320000Y-118476409D01*
X114279970Y-118455012D01*
X114208905Y-118433455D01*
X114135000Y-118426176D01*
X113738756Y-118426176D01*
X114223938Y-117940995D01*
X114243084Y-117925282D01*
X114258797Y-117906136D01*
X114258800Y-117906133D01*
X114305817Y-117848844D01*
X114352431Y-117761635D01*
X114381136Y-117667008D01*
X114382884Y-117649261D01*
X114388400Y-117593251D01*
X114388400Y-117593244D01*
X114390827Y-117568598D01*
X114388400Y-117543953D01*
X114388400Y-117047455D01*
X114390827Y-117022810D01*
X114388400Y-116998164D01*
X114388400Y-116998157D01*
X114381136Y-116924401D01*
X114378948Y-116917187D01*
X114352431Y-116829773D01*
X114305817Y-116742565D01*
X114283900Y-116715860D01*
X114243084Y-116666126D01*
X114223932Y-116650408D01*
X114029199Y-116455675D01*
X114029194Y-116455669D01*
X113622390Y-116048867D01*
X113606673Y-116029716D01*
X113530234Y-115966983D01*
X113443025Y-115920369D01*
X113348398Y-115891664D01*
X113274642Y-115884400D01*
X113274632Y-115884400D01*
X113249989Y-115881973D01*
X113225346Y-115884400D01*
X112894312Y-115884400D01*
X112869669Y-115881973D01*
X112845026Y-115884400D01*
X112845016Y-115884400D01*
X112771260Y-115891664D01*
X112676633Y-115920369D01*
X112644553Y-115937516D01*
X112589423Y-115966983D01*
X112532133Y-116014000D01*
X112532125Y-116014008D01*
X112512985Y-116029716D01*
X112497276Y-116048857D01*
X112278824Y-116267309D01*
X112278824Y-115815000D01*
X112271545Y-115741095D01*
X112249988Y-115670030D01*
X112228591Y-115630000D01*
X112249988Y-115589970D01*
X112271545Y-115518905D01*
X112278824Y-115445000D01*
X112278824Y-114545000D01*
X112271545Y-114471095D01*
X112249988Y-114400030D01*
X112228591Y-114360000D01*
X112249988Y-114319970D01*
X112271545Y-114248905D01*
X112278824Y-114175000D01*
X112278824Y-113275000D01*
X112271545Y-113201095D01*
X112249988Y-113130030D01*
X112228591Y-113090000D01*
X112249988Y-113049970D01*
X112271545Y-112978905D01*
X112278824Y-112905000D01*
X112278824Y-112005000D01*
X112271545Y-111931095D01*
X112249988Y-111860030D01*
X112228591Y-111820000D01*
X112249988Y-111779970D01*
X112271545Y-111708905D01*
X112278824Y-111635000D01*
X112278824Y-110735000D01*
X112271545Y-110661095D01*
X112249988Y-110590030D01*
X112228591Y-110550000D01*
X112249988Y-110509970D01*
X112271545Y-110438905D01*
X112278824Y-110365000D01*
X112278824Y-109465000D01*
X112271545Y-109391095D01*
X112249988Y-109320030D01*
X112228591Y-109280000D01*
X112249988Y-109239970D01*
X112271545Y-109168905D01*
X112278824Y-109095000D01*
X112278824Y-108761580D01*
X112900868Y-109383625D01*
G37*
%TD.AperFunction*%
D25*
X124498021Y-115323000D02*
X124423472Y-115323000D01*
X124320156Y-115343550D01*
X124293501Y-115158037D01*
X124194572Y-114877526D01*
X124117868Y-114734025D01*
X123866240Y-114653365D01*
X122999605Y-115520000D01*
X123739603Y-116259998D01*
X123752859Y-116326643D01*
X123811431Y-116468048D01*
X123896464Y-116595309D01*
X124004691Y-116703536D01*
X124131952Y-116788569D01*
X124162038Y-116801031D01*
X123790058Y-117173012D01*
X121128574Y-117173012D01*
X121194489Y-117159901D01*
X121335894Y-117101329D01*
X121463155Y-117016296D01*
X121571382Y-116908069D01*
X121656415Y-116780808D01*
X121714987Y-116639403D01*
X121729539Y-116566240D01*
X121953365Y-116566240D01*
X122034025Y-116817868D01*
X122302329Y-116946267D01*
X122590526Y-117019855D01*
X122887543Y-117035804D01*
X123181963Y-116993501D01*
X123462474Y-116894572D01*
X123605975Y-116817868D01*
X123686635Y-116566240D01*
X122820000Y-115699605D01*
X121953365Y-116566240D01*
X121729539Y-116566240D01*
X121744846Y-116489288D01*
X121744846Y-116377367D01*
X121773760Y-116386635D01*
X122640395Y-115520000D01*
X122626253Y-115505858D01*
X122805858Y-115326253D01*
X122820000Y-115340395D01*
X123686635Y-114473760D01*
X123605975Y-114222132D01*
X123337671Y-114093733D01*
X123141331Y-114043600D01*
X124498021Y-112686910D01*
X124498021Y-115323000D01*
%TA.AperFunction,Conductor*%
D26*
G36*
X124498021Y-115323000D02*
G01*
X124423472Y-115323000D01*
X124320156Y-115343550D01*
X124293501Y-115158037D01*
X124194572Y-114877526D01*
X124117868Y-114734025D01*
X123866240Y-114653365D01*
X122999605Y-115520000D01*
X123739603Y-116259998D01*
X123752859Y-116326643D01*
X123811431Y-116468048D01*
X123896464Y-116595309D01*
X124004691Y-116703536D01*
X124131952Y-116788569D01*
X124162038Y-116801031D01*
X123790058Y-117173012D01*
X121128574Y-117173012D01*
X121194489Y-117159901D01*
X121335894Y-117101329D01*
X121463155Y-117016296D01*
X121571382Y-116908069D01*
X121656415Y-116780808D01*
X121714987Y-116639403D01*
X121729539Y-116566240D01*
X121953365Y-116566240D01*
X122034025Y-116817868D01*
X122302329Y-116946267D01*
X122590526Y-117019855D01*
X122887543Y-117035804D01*
X123181963Y-116993501D01*
X123462474Y-116894572D01*
X123605975Y-116817868D01*
X123686635Y-116566240D01*
X122820000Y-115699605D01*
X121953365Y-116566240D01*
X121729539Y-116566240D01*
X121744846Y-116489288D01*
X121744846Y-116377367D01*
X121773760Y-116386635D01*
X122640395Y-115520000D01*
X122626253Y-115505858D01*
X122805858Y-115326253D01*
X122820000Y-115340395D01*
X123686635Y-114473760D01*
X123605975Y-114222132D01*
X123337671Y-114093733D01*
X123141331Y-114043600D01*
X124498021Y-112686910D01*
X124498021Y-115323000D01*
G37*
%TD.AperFunction*%
D25*
X120220705Y-116639403D02*
X120279277Y-116780808D01*
X120364310Y-116908069D01*
X120472537Y-117016296D01*
X120599798Y-117101329D01*
X120741203Y-117159901D01*
X120807118Y-117173012D01*
X120667066Y-117173012D01*
X120645844Y-117155595D01*
X120558635Y-117108981D01*
X120464008Y-117080276D01*
X120390252Y-117073012D01*
X120390242Y-117073012D01*
X120365599Y-117070585D01*
X120340956Y-117073012D01*
X119589822Y-117073012D01*
X119641580Y-117051573D01*
X119768841Y-116966540D01*
X119877068Y-116858313D01*
X119962101Y-116731052D01*
X120020673Y-116589647D01*
X120023199Y-116576946D01*
X120023472Y-116577000D01*
X120176528Y-116577000D01*
X120207084Y-116570922D01*
X120220705Y-116639403D01*
%TA.AperFunction,Conductor*%
D26*
G36*
X120220705Y-116639403D02*
G01*
X120279277Y-116780808D01*
X120364310Y-116908069D01*
X120472537Y-117016296D01*
X120599798Y-117101329D01*
X120741203Y-117159901D01*
X120807118Y-117173012D01*
X120667066Y-117173012D01*
X120645844Y-117155595D01*
X120558635Y-117108981D01*
X120464008Y-117080276D01*
X120390252Y-117073012D01*
X120390242Y-117073012D01*
X120365599Y-117070585D01*
X120340956Y-117073012D01*
X119589822Y-117073012D01*
X119641580Y-117051573D01*
X119768841Y-116966540D01*
X119877068Y-116858313D01*
X119962101Y-116731052D01*
X120020673Y-116589647D01*
X120023199Y-116576946D01*
X120023472Y-116577000D01*
X120176528Y-116577000D01*
X120207084Y-116570922D01*
X120220705Y-116639403D01*
G37*
%TD.AperFunction*%
D25*
X127946993Y-116297388D02*
X128047000Y-116269954D01*
X128047000Y-116392000D01*
X128027000Y-116392000D01*
X128027000Y-116412000D01*
X127773000Y-116412000D01*
X127773000Y-116392000D01*
X127682395Y-116392000D01*
X127428395Y-116138000D01*
X127773000Y-116138000D01*
X127773000Y-116123395D01*
X127946993Y-116297388D01*
%TA.AperFunction,Conductor*%
D26*
G36*
X127946993Y-116297388D02*
G01*
X128047000Y-116269954D01*
X128047000Y-116392000D01*
X128027000Y-116392000D01*
X128027000Y-116412000D01*
X127773000Y-116412000D01*
X127773000Y-116392000D01*
X127682395Y-116392000D01*
X127428395Y-116138000D01*
X127773000Y-116138000D01*
X127773000Y-116123395D01*
X127946993Y-116297388D01*
G37*
%TD.AperFunction*%
D25*
X120668079Y-101449637D02*
X120645293Y-101468337D01*
X120629580Y-101487483D01*
X120262464Y-101854600D01*
X120243318Y-101870313D01*
X120227605Y-101889459D01*
X120227602Y-101889462D01*
X120180585Y-101946752D01*
X120175769Y-101955763D01*
X120153525Y-101922473D01*
X120045298Y-101814246D01*
X119918037Y-101729213D01*
X119776632Y-101670641D01*
X119626517Y-101640782D01*
X119473461Y-101640782D01*
X119323346Y-101670641D01*
X119181941Y-101729213D01*
X119054680Y-101814246D01*
X118952433Y-101916493D01*
X118885895Y-101923046D01*
X118791268Y-101951751D01*
X118704059Y-101998365D01*
X118704057Y-101998366D01*
X118704058Y-101998366D01*
X118646768Y-102045382D01*
X118646760Y-102045390D01*
X118627620Y-102061098D01*
X118611914Y-102080236D01*
X114362467Y-106329684D01*
X114343316Y-106345402D01*
X114280583Y-106421841D01*
X114233969Y-106509051D01*
X114205264Y-106603678D01*
X114198000Y-106677434D01*
X114198000Y-106677443D01*
X114195573Y-106702086D01*
X114198000Y-106726730D01*
X114198001Y-107338938D01*
X114195573Y-107363590D01*
X114205265Y-107461999D01*
X114233970Y-107556626D01*
X114280584Y-107643835D01*
X114327601Y-107701125D01*
X114327604Y-107701128D01*
X114343317Y-107720274D01*
X114362463Y-107735987D01*
X115848011Y-109221536D01*
X115848012Y-111305360D01*
X115845584Y-111330013D01*
X115855276Y-111428422D01*
X115883981Y-111523049D01*
X115930595Y-111610258D01*
X115977612Y-111667548D01*
X115977615Y-111667551D01*
X115993328Y-111686697D01*
X116012474Y-111702410D01*
X117815223Y-113505160D01*
X117830936Y-113524306D01*
X117850082Y-113540019D01*
X117850085Y-113540022D01*
X117907374Y-113587039D01*
X117994583Y-113633653D01*
X118089210Y-113662358D01*
X118095029Y-113662931D01*
X118162967Y-113669622D01*
X118162974Y-113669622D01*
X118187620Y-113672049D01*
X118212265Y-113669622D01*
X118550145Y-113669622D01*
X118651681Y-113771158D01*
X118778942Y-113856191D01*
X118920347Y-113914763D01*
X119070462Y-113944622D01*
X119214055Y-113944622D01*
X119372634Y-114103201D01*
X119299789Y-114176046D01*
X119214756Y-114303307D01*
X119156184Y-114444712D01*
X119126325Y-114594827D01*
X119126325Y-114747883D01*
X119156184Y-114897998D01*
X119214756Y-115039403D01*
X119299789Y-115166664D01*
X119408016Y-115274891D01*
X119482930Y-115324947D01*
X119411431Y-115431952D01*
X119352859Y-115573357D01*
X119350333Y-115586058D01*
X119350060Y-115586004D01*
X119206468Y-115586004D01*
X117082930Y-113462468D01*
X117067213Y-113443317D01*
X116990774Y-113380584D01*
X116903565Y-113333970D01*
X116808938Y-113305265D01*
X116735182Y-113298001D01*
X116735172Y-113298001D01*
X116710529Y-113295574D01*
X116685886Y-113298001D01*
X116271526Y-113298001D01*
X114551989Y-111578466D01*
X114551989Y-109211043D01*
X114554416Y-109186400D01*
X114551989Y-109161757D01*
X114551989Y-109161747D01*
X114544725Y-109087991D01*
X114516020Y-108993364D01*
X114474237Y-108915193D01*
X114469406Y-108906154D01*
X114422389Y-108848864D01*
X114422381Y-108848856D01*
X114406673Y-108829716D01*
X114387532Y-108814007D01*
X112946989Y-107373466D01*
X112946989Y-106424631D01*
X112949416Y-106399988D01*
X112946989Y-106375345D01*
X112946989Y-106375336D01*
X112939725Y-106301580D01*
X112911020Y-106206953D01*
X112864406Y-106119744D01*
X112801673Y-106043305D01*
X112782521Y-106027587D01*
X112522402Y-105767468D01*
X112506684Y-105748316D01*
X112430245Y-105685583D01*
X112343036Y-105638969D01*
X112275219Y-105618397D01*
X112271545Y-105581095D01*
X112249988Y-105510030D01*
X112228591Y-105470000D01*
X112249988Y-105429970D01*
X112271545Y-105358905D01*
X112278824Y-105285000D01*
X112278824Y-104385000D01*
X112271545Y-104311095D01*
X112249988Y-104240030D01*
X112228591Y-104200000D01*
X112249988Y-104159970D01*
X112271545Y-104088905D01*
X112278824Y-104015000D01*
X112278824Y-103255570D01*
X112351185Y-103196185D01*
X112430537Y-103099494D01*
X112489502Y-102989180D01*
X112525812Y-102869482D01*
X112538072Y-102745000D01*
X112535000Y-102580750D01*
X112376250Y-102422000D01*
X111027000Y-102422000D01*
X111027000Y-102442000D01*
X110773000Y-102442000D01*
X110773000Y-102422000D01*
X110753000Y-102422000D01*
X110753000Y-102168000D01*
X110773000Y-102168000D01*
X110773000Y-102148000D01*
X111027000Y-102148000D01*
X111027000Y-102168000D01*
X112376250Y-102168000D01*
X112535000Y-102009250D01*
X112538072Y-101845000D01*
X112525812Y-101720518D01*
X112489502Y-101600820D01*
X112430537Y-101490506D01*
X112378419Y-101427000D01*
X120695661Y-101427000D01*
X120668079Y-101449637D01*
%TA.AperFunction,Conductor*%
D26*
G36*
X120668079Y-101449637D02*
G01*
X120645293Y-101468337D01*
X120629580Y-101487483D01*
X120262464Y-101854600D01*
X120243318Y-101870313D01*
X120227605Y-101889459D01*
X120227602Y-101889462D01*
X120180585Y-101946752D01*
X120175769Y-101955763D01*
X120153525Y-101922473D01*
X120045298Y-101814246D01*
X119918037Y-101729213D01*
X119776632Y-101670641D01*
X119626517Y-101640782D01*
X119473461Y-101640782D01*
X119323346Y-101670641D01*
X119181941Y-101729213D01*
X119054680Y-101814246D01*
X118952433Y-101916493D01*
X118885895Y-101923046D01*
X118791268Y-101951751D01*
X118704059Y-101998365D01*
X118704057Y-101998366D01*
X118704058Y-101998366D01*
X118646768Y-102045382D01*
X118646760Y-102045390D01*
X118627620Y-102061098D01*
X118611914Y-102080236D01*
X114362467Y-106329684D01*
X114343316Y-106345402D01*
X114280583Y-106421841D01*
X114233969Y-106509051D01*
X114205264Y-106603678D01*
X114198000Y-106677434D01*
X114198000Y-106677443D01*
X114195573Y-106702086D01*
X114198000Y-106726730D01*
X114198001Y-107338938D01*
X114195573Y-107363590D01*
X114205265Y-107461999D01*
X114233970Y-107556626D01*
X114280584Y-107643835D01*
X114327601Y-107701125D01*
X114327604Y-107701128D01*
X114343317Y-107720274D01*
X114362463Y-107735987D01*
X115848011Y-109221536D01*
X115848012Y-111305360D01*
X115845584Y-111330013D01*
X115855276Y-111428422D01*
X115883981Y-111523049D01*
X115930595Y-111610258D01*
X115977612Y-111667548D01*
X115977615Y-111667551D01*
X115993328Y-111686697D01*
X116012474Y-111702410D01*
X117815223Y-113505160D01*
X117830936Y-113524306D01*
X117850082Y-113540019D01*
X117850085Y-113540022D01*
X117907374Y-113587039D01*
X117994583Y-113633653D01*
X118089210Y-113662358D01*
X118095029Y-113662931D01*
X118162967Y-113669622D01*
X118162974Y-113669622D01*
X118187620Y-113672049D01*
X118212265Y-113669622D01*
X118550145Y-113669622D01*
X118651681Y-113771158D01*
X118778942Y-113856191D01*
X118920347Y-113914763D01*
X119070462Y-113944622D01*
X119214055Y-113944622D01*
X119372634Y-114103201D01*
X119299789Y-114176046D01*
X119214756Y-114303307D01*
X119156184Y-114444712D01*
X119126325Y-114594827D01*
X119126325Y-114747883D01*
X119156184Y-114897998D01*
X119214756Y-115039403D01*
X119299789Y-115166664D01*
X119408016Y-115274891D01*
X119482930Y-115324947D01*
X119411431Y-115431952D01*
X119352859Y-115573357D01*
X119350333Y-115586058D01*
X119350060Y-115586004D01*
X119206468Y-115586004D01*
X117082930Y-113462468D01*
X117067213Y-113443317D01*
X116990774Y-113380584D01*
X116903565Y-113333970D01*
X116808938Y-113305265D01*
X116735182Y-113298001D01*
X116735172Y-113298001D01*
X116710529Y-113295574D01*
X116685886Y-113298001D01*
X116271526Y-113298001D01*
X114551989Y-111578466D01*
X114551989Y-109211043D01*
X114554416Y-109186400D01*
X114551989Y-109161757D01*
X114551989Y-109161747D01*
X114544725Y-109087991D01*
X114516020Y-108993364D01*
X114474237Y-108915193D01*
X114469406Y-108906154D01*
X114422389Y-108848864D01*
X114422381Y-108848856D01*
X114406673Y-108829716D01*
X114387532Y-108814007D01*
X112946989Y-107373466D01*
X112946989Y-106424631D01*
X112949416Y-106399988D01*
X112946989Y-106375345D01*
X112946989Y-106375336D01*
X112939725Y-106301580D01*
X112911020Y-106206953D01*
X112864406Y-106119744D01*
X112801673Y-106043305D01*
X112782521Y-106027587D01*
X112522402Y-105767468D01*
X112506684Y-105748316D01*
X112430245Y-105685583D01*
X112343036Y-105638969D01*
X112275219Y-105618397D01*
X112271545Y-105581095D01*
X112249988Y-105510030D01*
X112228591Y-105470000D01*
X112249988Y-105429970D01*
X112271545Y-105358905D01*
X112278824Y-105285000D01*
X112278824Y-104385000D01*
X112271545Y-104311095D01*
X112249988Y-104240030D01*
X112228591Y-104200000D01*
X112249988Y-104159970D01*
X112271545Y-104088905D01*
X112278824Y-104015000D01*
X112278824Y-103255570D01*
X112351185Y-103196185D01*
X112430537Y-103099494D01*
X112489502Y-102989180D01*
X112525812Y-102869482D01*
X112538072Y-102745000D01*
X112535000Y-102580750D01*
X112376250Y-102422000D01*
X111027000Y-102422000D01*
X111027000Y-102442000D01*
X110773000Y-102442000D01*
X110773000Y-102422000D01*
X110753000Y-102422000D01*
X110753000Y-102168000D01*
X110773000Y-102168000D01*
X110773000Y-102148000D01*
X111027000Y-102148000D01*
X111027000Y-102168000D01*
X112376250Y-102168000D01*
X112535000Y-102009250D01*
X112538072Y-101845000D01*
X112525812Y-101720518D01*
X112489502Y-101600820D01*
X112430537Y-101490506D01*
X112378419Y-101427000D01*
X120695661Y-101427000D01*
X120668079Y-101449637D01*
G37*
%TD.AperFunction*%
D25*
X126010500Y-108320435D02*
X126010501Y-113562847D01*
X126008073Y-113587500D01*
X126017765Y-113685909D01*
X126046470Y-113780536D01*
X126093084Y-113867745D01*
X126140101Y-113925035D01*
X126140104Y-113925038D01*
X126155817Y-113944184D01*
X126174963Y-113959897D01*
X126277598Y-114062532D01*
X126293316Y-114081684D01*
X126369755Y-114144417D01*
X126395843Y-114158361D01*
X126369463Y-114190506D01*
X126310498Y-114300820D01*
X126308318Y-114308008D01*
X126278137Y-114324140D01*
X126212612Y-114563007D01*
X126263211Y-114613606D01*
X126265000Y-114709250D01*
X126423748Y-114867998D01*
X126265000Y-114867998D01*
X126265000Y-114974605D01*
X126033007Y-114742612D01*
X125952031Y-114764825D01*
X125952031Y-108261966D01*
X126010500Y-108320435D01*
%TA.AperFunction,Conductor*%
D26*
G36*
X126010500Y-108320435D02*
G01*
X126010501Y-113562847D01*
X126008073Y-113587500D01*
X126017765Y-113685909D01*
X126046470Y-113780536D01*
X126093084Y-113867745D01*
X126140101Y-113925035D01*
X126140104Y-113925038D01*
X126155817Y-113944184D01*
X126174963Y-113959897D01*
X126277598Y-114062532D01*
X126293316Y-114081684D01*
X126369755Y-114144417D01*
X126395843Y-114158361D01*
X126369463Y-114190506D01*
X126310498Y-114300820D01*
X126308318Y-114308008D01*
X126278137Y-114324140D01*
X126212612Y-114563007D01*
X126263211Y-114613606D01*
X126265000Y-114709250D01*
X126423748Y-114867998D01*
X126265000Y-114867998D01*
X126265000Y-114974605D01*
X126033007Y-114742612D01*
X125952031Y-114764825D01*
X125952031Y-108261966D01*
X126010500Y-108320435D01*
G37*
%TD.AperFunction*%
D25*
X120098001Y-105975358D02*
X120095574Y-106000001D01*
X120098001Y-106024644D01*
X120098001Y-106024653D01*
X120105265Y-106098409D01*
X120133970Y-106193036D01*
X120180584Y-106280246D01*
X120223000Y-106331929D01*
X120223000Y-106476528D01*
X120252859Y-106626643D01*
X120311431Y-106768048D01*
X120396464Y-106895309D01*
X120504691Y-107003536D01*
X120631952Y-107088569D01*
X120773357Y-107147141D01*
X120923472Y-107177000D01*
X121076528Y-107177000D01*
X121226643Y-107147141D01*
X121326907Y-107105610D01*
X121346499Y-107241963D01*
X121445428Y-107522474D01*
X121522132Y-107665975D01*
X121773760Y-107746635D01*
X122640395Y-106880000D01*
X121773760Y-106013365D01*
X121691758Y-106039651D01*
X121688569Y-106031952D01*
X121603536Y-105904691D01*
X121495309Y-105796464D01*
X121368048Y-105711431D01*
X121226643Y-105652859D01*
X121102001Y-105628067D01*
X121102001Y-103621168D01*
X122850281Y-105369449D01*
X122752457Y-105364196D01*
X122458037Y-105406499D01*
X122177526Y-105505428D01*
X122034025Y-105582132D01*
X121953365Y-105833760D01*
X122820000Y-106700395D01*
X122834143Y-106686253D01*
X123013748Y-106865858D01*
X122999605Y-106880000D01*
X123013748Y-106894143D01*
X122834143Y-107073748D01*
X122820000Y-107059605D01*
X121953365Y-107926240D01*
X122034025Y-108177868D01*
X122302329Y-108306267D01*
X122590526Y-108379855D01*
X122887543Y-108395804D01*
X123181963Y-108353501D01*
X123462474Y-108254572D01*
X123518001Y-108224892D01*
X123518002Y-111610650D01*
X120656020Y-114472633D01*
X120650466Y-114444712D01*
X120591894Y-114303307D01*
X120506861Y-114176046D01*
X120405325Y-114074510D01*
X120405325Y-113948599D01*
X120407752Y-113923956D01*
X120405325Y-113899313D01*
X120405325Y-113899304D01*
X120398061Y-113825548D01*
X120369356Y-113730921D01*
X120322742Y-113643712D01*
X120292583Y-113606964D01*
X120275724Y-113586421D01*
X120275722Y-113586419D01*
X120260009Y-113567273D01*
X120240863Y-113551560D01*
X119923990Y-113234687D01*
X119923990Y-113091094D01*
X119894131Y-112940979D01*
X119835559Y-112799574D01*
X119750526Y-112672313D01*
X119642299Y-112564086D01*
X119515038Y-112479053D01*
X119373633Y-112420481D01*
X119223518Y-112390622D01*
X119070462Y-112390622D01*
X118920347Y-112420481D01*
X118778942Y-112479053D01*
X118651681Y-112564086D01*
X118550145Y-112665622D01*
X118395555Y-112665622D01*
X116852011Y-111122079D01*
X116852011Y-109038244D01*
X116854438Y-109013601D01*
X116852011Y-108988958D01*
X116852011Y-108988948D01*
X116844747Y-108915192D01*
X116816042Y-108820565D01*
X116769428Y-108733356D01*
X116735212Y-108691664D01*
X116722410Y-108676065D01*
X116722408Y-108676063D01*
X116706695Y-108656917D01*
X116687549Y-108641204D01*
X115202000Y-107155656D01*
X115202000Y-106910020D01*
X119076275Y-103035747D01*
X119181941Y-103106351D01*
X119323346Y-103164923D01*
X119473461Y-103194782D01*
X119626517Y-103194782D01*
X119776632Y-103164923D01*
X119918037Y-103106351D01*
X120045298Y-103021318D01*
X120098002Y-102968614D01*
X120098001Y-105975358D01*
%TA.AperFunction,Conductor*%
D26*
G36*
X120098001Y-105975358D02*
G01*
X120095574Y-106000001D01*
X120098001Y-106024644D01*
X120098001Y-106024653D01*
X120105265Y-106098409D01*
X120133970Y-106193036D01*
X120180584Y-106280246D01*
X120223000Y-106331929D01*
X120223000Y-106476528D01*
X120252859Y-106626643D01*
X120311431Y-106768048D01*
X120396464Y-106895309D01*
X120504691Y-107003536D01*
X120631952Y-107088569D01*
X120773357Y-107147141D01*
X120923472Y-107177000D01*
X121076528Y-107177000D01*
X121226643Y-107147141D01*
X121326907Y-107105610D01*
X121346499Y-107241963D01*
X121445428Y-107522474D01*
X121522132Y-107665975D01*
X121773760Y-107746635D01*
X122640395Y-106880000D01*
X121773760Y-106013365D01*
X121691758Y-106039651D01*
X121688569Y-106031952D01*
X121603536Y-105904691D01*
X121495309Y-105796464D01*
X121368048Y-105711431D01*
X121226643Y-105652859D01*
X121102001Y-105628067D01*
X121102001Y-103621168D01*
X122850281Y-105369449D01*
X122752457Y-105364196D01*
X122458037Y-105406499D01*
X122177526Y-105505428D01*
X122034025Y-105582132D01*
X121953365Y-105833760D01*
X122820000Y-106700395D01*
X122834143Y-106686253D01*
X123013748Y-106865858D01*
X122999605Y-106880000D01*
X123013748Y-106894143D01*
X122834143Y-107073748D01*
X122820000Y-107059605D01*
X121953365Y-107926240D01*
X122034025Y-108177868D01*
X122302329Y-108306267D01*
X122590526Y-108379855D01*
X122887543Y-108395804D01*
X123181963Y-108353501D01*
X123462474Y-108254572D01*
X123518001Y-108224892D01*
X123518002Y-111610650D01*
X120656020Y-114472633D01*
X120650466Y-114444712D01*
X120591894Y-114303307D01*
X120506861Y-114176046D01*
X120405325Y-114074510D01*
X120405325Y-113948599D01*
X120407752Y-113923956D01*
X120405325Y-113899313D01*
X120405325Y-113899304D01*
X120398061Y-113825548D01*
X120369356Y-113730921D01*
X120322742Y-113643712D01*
X120292583Y-113606964D01*
X120275724Y-113586421D01*
X120275722Y-113586419D01*
X120260009Y-113567273D01*
X120240863Y-113551560D01*
X119923990Y-113234687D01*
X119923990Y-113091094D01*
X119894131Y-112940979D01*
X119835559Y-112799574D01*
X119750526Y-112672313D01*
X119642299Y-112564086D01*
X119515038Y-112479053D01*
X119373633Y-112420481D01*
X119223518Y-112390622D01*
X119070462Y-112390622D01*
X118920347Y-112420481D01*
X118778942Y-112479053D01*
X118651681Y-112564086D01*
X118550145Y-112665622D01*
X118395555Y-112665622D01*
X116852011Y-111122079D01*
X116852011Y-109038244D01*
X116854438Y-109013601D01*
X116852011Y-108988958D01*
X116852011Y-108988948D01*
X116844747Y-108915192D01*
X116816042Y-108820565D01*
X116769428Y-108733356D01*
X116735212Y-108691664D01*
X116722410Y-108676065D01*
X116722408Y-108676063D01*
X116706695Y-108656917D01*
X116687549Y-108641204D01*
X115202000Y-107155656D01*
X115202000Y-106910020D01*
X119076275Y-103035747D01*
X119181941Y-103106351D01*
X119323346Y-103164923D01*
X119473461Y-103194782D01*
X119626517Y-103194782D01*
X119776632Y-103164923D01*
X119918037Y-103106351D01*
X120045298Y-103021318D01*
X120098002Y-102968614D01*
X120098001Y-105975358D01*
G37*
%TD.AperFunction*%
D25*
X128027000Y-105978000D02*
X128047000Y-105978000D01*
X128047000Y-106130046D01*
X127946993Y-106102612D01*
X127797605Y-106252000D01*
X127773000Y-106252000D01*
X127773000Y-106232000D01*
X127753000Y-106232000D01*
X127753000Y-105978000D01*
X127773000Y-105978000D01*
X127773000Y-105958000D01*
X128027000Y-105958000D01*
X128027000Y-105978000D01*
%TA.AperFunction,Conductor*%
D26*
G36*
X128027000Y-105978000D02*
G01*
X128047000Y-105978000D01*
X128047000Y-106130046D01*
X127946993Y-106102612D01*
X127797605Y-106252000D01*
X127773000Y-106252000D01*
X127773000Y-106232000D01*
X127753000Y-106232000D01*
X127753000Y-105978000D01*
X127773000Y-105978000D01*
X127773000Y-105958000D01*
X128027000Y-105958000D01*
X128027000Y-105978000D01*
G37*
%TD.AperFunction*%
D25*
X124773357Y-101452859D02*
X124631952Y-101511431D01*
X124504691Y-101596464D01*
X124396464Y-101704691D01*
X124311431Y-101831952D01*
X124252859Y-101973357D01*
X124223000Y-102123472D01*
X124223000Y-102276528D01*
X124252859Y-102426643D01*
X124311431Y-102568048D01*
X124396464Y-102695309D01*
X124504691Y-102803536D01*
X124631952Y-102888569D01*
X124773357Y-102947141D01*
X124923472Y-102977000D01*
X125067066Y-102977000D01*
X125992603Y-103902538D01*
X126008316Y-103921684D01*
X126027462Y-103937397D01*
X126027465Y-103937400D01*
X126084754Y-103984417D01*
X126171963Y-104031031D01*
X126266590Y-104059736D01*
X126275432Y-104060607D01*
X126340347Y-104067000D01*
X126340354Y-104067000D01*
X126365000Y-104069427D01*
X126389645Y-104067000D01*
X126526298Y-104067000D01*
X126528455Y-104088905D01*
X126550012Y-104159970D01*
X126571409Y-104200000D01*
X126550012Y-104240030D01*
X126528455Y-104311095D01*
X126526298Y-104333000D01*
X126107734Y-104333000D01*
X126083091Y-104330573D01*
X126058448Y-104333000D01*
X126058439Y-104333000D01*
X125984683Y-104340264D01*
X125890056Y-104368969D01*
X125802847Y-104415583D01*
X125726408Y-104478316D01*
X125710695Y-104497462D01*
X125190841Y-105017317D01*
X124076979Y-103903456D01*
X124076979Y-102236032D01*
X124079406Y-102211389D01*
X124076979Y-102186746D01*
X124076979Y-102186736D01*
X124069715Y-102112980D01*
X124041010Y-102018353D01*
X123994396Y-101931144D01*
X123975928Y-101908641D01*
X123947379Y-101873853D01*
X123947371Y-101873845D01*
X123931663Y-101854705D01*
X123912522Y-101838996D01*
X123561012Y-101487488D01*
X123545295Y-101468337D01*
X123494927Y-101427000D01*
X124903362Y-101427000D01*
X124773357Y-101452859D01*
%TA.AperFunction,Conductor*%
D26*
G36*
X124773357Y-101452859D02*
G01*
X124631952Y-101511431D01*
X124504691Y-101596464D01*
X124396464Y-101704691D01*
X124311431Y-101831952D01*
X124252859Y-101973357D01*
X124223000Y-102123472D01*
X124223000Y-102276528D01*
X124252859Y-102426643D01*
X124311431Y-102568048D01*
X124396464Y-102695309D01*
X124504691Y-102803536D01*
X124631952Y-102888569D01*
X124773357Y-102947141D01*
X124923472Y-102977000D01*
X125067066Y-102977000D01*
X125992603Y-103902538D01*
X126008316Y-103921684D01*
X126027462Y-103937397D01*
X126027465Y-103937400D01*
X126084754Y-103984417D01*
X126171963Y-104031031D01*
X126266590Y-104059736D01*
X126275432Y-104060607D01*
X126340347Y-104067000D01*
X126340354Y-104067000D01*
X126365000Y-104069427D01*
X126389645Y-104067000D01*
X126526298Y-104067000D01*
X126528455Y-104088905D01*
X126550012Y-104159970D01*
X126571409Y-104200000D01*
X126550012Y-104240030D01*
X126528455Y-104311095D01*
X126526298Y-104333000D01*
X126107734Y-104333000D01*
X126083091Y-104330573D01*
X126058448Y-104333000D01*
X126058439Y-104333000D01*
X125984683Y-104340264D01*
X125890056Y-104368969D01*
X125802847Y-104415583D01*
X125726408Y-104478316D01*
X125710695Y-104497462D01*
X125190841Y-105017317D01*
X124076979Y-103903456D01*
X124076979Y-102236032D01*
X124079406Y-102211389D01*
X124076979Y-102186746D01*
X124076979Y-102186736D01*
X124069715Y-102112980D01*
X124041010Y-102018353D01*
X123994396Y-101931144D01*
X123975928Y-101908641D01*
X123947379Y-101873853D01*
X123947371Y-101873845D01*
X123931663Y-101854705D01*
X123912522Y-101838996D01*
X123561012Y-101487488D01*
X123545295Y-101468337D01*
X123494927Y-101427000D01*
X124903362Y-101427000D01*
X124773357Y-101452859D01*
G37*
%TD.AperFunction*%
D25*
X126369463Y-101490506D02*
X126310498Y-101600820D01*
X126274188Y-101720518D01*
X126261928Y-101845000D01*
X126265000Y-102009250D01*
X126423750Y-102168000D01*
X127773000Y-102168000D01*
X127773000Y-102148000D01*
X128027000Y-102148000D01*
X128027000Y-102168000D01*
X128047000Y-102168000D01*
X128047000Y-102422000D01*
X128027000Y-102422000D01*
X128027000Y-102442000D01*
X127773000Y-102442000D01*
X127773000Y-102422000D01*
X126423750Y-102422000D01*
X126265000Y-102580750D01*
X126261928Y-102745000D01*
X126262692Y-102752757D01*
X125777000Y-102267066D01*
X125777000Y-102123472D01*
X125747141Y-101973357D01*
X125688569Y-101831952D01*
X125603536Y-101704691D01*
X125495309Y-101596464D01*
X125368048Y-101511431D01*
X125226643Y-101452859D01*
X125096638Y-101427000D01*
X126421581Y-101427000D01*
X126369463Y-101490506D01*
%TA.AperFunction,Conductor*%
D26*
G36*
X126369463Y-101490506D02*
G01*
X126310498Y-101600820D01*
X126274188Y-101720518D01*
X126261928Y-101845000D01*
X126265000Y-102009250D01*
X126423750Y-102168000D01*
X127773000Y-102168000D01*
X127773000Y-102148000D01*
X128027000Y-102148000D01*
X128027000Y-102168000D01*
X128047000Y-102168000D01*
X128047000Y-102422000D01*
X128027000Y-102422000D01*
X128027000Y-102442000D01*
X127773000Y-102442000D01*
X127773000Y-102422000D01*
X126423750Y-102422000D01*
X126265000Y-102580750D01*
X126261928Y-102745000D01*
X126262692Y-102752757D01*
X125777000Y-102267066D01*
X125777000Y-102123472D01*
X125747141Y-101973357D01*
X125688569Y-101831952D01*
X125603536Y-101704691D01*
X125495309Y-101596464D01*
X125368048Y-101511431D01*
X125226643Y-101452859D01*
X125096638Y-101427000D01*
X126421581Y-101427000D01*
X126369463Y-101490506D01*
G37*
%TD.AperFunction*%
%TD*%
M02*
