%TF.GenerationSoftware,KiCad,Pcbnew,(5.1.9-0-10_14)*%
%TF.CreationDate,2021-06-19T10:33:12+01:00*%
%TF.ProjectId,Generic,47656e65-7269-4632-9e6b-696361645f70,4*%
%TF.SameCoordinates,Original*%
%TF.FileFunction,Copper,L1,Top*%
%TF.FilePolarity,Positive*%
%FSLAX46Y46*%
G04 Gerber Fmt 4.6, Leading zero omitted, Abs format (unit mm)*
G04 Created by KiCad (PCBNEW (5.1.9-0-10_14)) date 2021-06-19 10:33:12*
%MOMM*%
%LPD*%
G01*
G04 APERTURE LIST*
%TA.AperFunction,NonConductor*%
%ADD10C,0.080000*%
%TD*%
%TA.AperFunction,EtchedComponent*%
%ADD11C,0.250000*%
%TD*%
%TA.AperFunction,EtchedComponent*%
%ADD12C,0.500000*%
%TD*%
%TA.AperFunction,SMDPad,CuDef*%
%ADD13C,0.100000*%
%TD*%
%TA.AperFunction,SMDPad,CuDef*%
%ADD14R,0.500000X0.850000*%
%TD*%
%TA.AperFunction,ComponentPad*%
%ADD15C,0.350000*%
%TD*%
%TA.AperFunction,ComponentPad*%
%ADD16C,2.000000*%
%TD*%
%TA.AperFunction,ComponentPad*%
%ADD17R,2.000000X2.000000*%
%TD*%
%TA.AperFunction,SMDPad,CuDef*%
%ADD18R,0.650000X0.400000*%
%TD*%
%TA.AperFunction,SMDPad,CuDef*%
%ADD19R,0.500000X4.000000*%
%TD*%
%TA.AperFunction,SMDPad,CuDef*%
%ADD20R,0.600000X1.100000*%
%TD*%
%TA.AperFunction,SMDPad,CuDef*%
%ADD21R,1.425000X3.700000*%
%TD*%
%TA.AperFunction,ComponentPad*%
%ADD22R,1.700000X1.700000*%
%TD*%
%TA.AperFunction,ComponentPad*%
%ADD23O,1.700000X1.700000*%
%TD*%
%TA.AperFunction,SMDPad,CuDef*%
%ADD24R,5.490000X5.000000*%
%TD*%
%TA.AperFunction,SMDPad,CuDef*%
%ADD25R,1.140000X0.600000*%
%TD*%
%TA.AperFunction,ComponentPad*%
%ADD26C,1.500000*%
%TD*%
%TA.AperFunction,ComponentPad*%
%ADD27C,1.750000*%
%TD*%
%TA.AperFunction,SMDPad,CuDef*%
%ADD28R,1.140000X0.300000*%
%TD*%
%TA.AperFunction,ComponentPad*%
%ADD29C,0.600000*%
%TD*%
%TA.AperFunction,ViaPad*%
%ADD30C,0.800000*%
%TD*%
%TA.AperFunction,Conductor*%
%ADD31C,0.250000*%
%TD*%
%TA.AperFunction,Conductor*%
%ADD32C,0.254000*%
%TD*%
%TA.AperFunction,Conductor*%
%ADD33C,0.100000*%
%TD*%
G04 APERTURE END LIST*
D10*
X114721428Y-101273809D02*
X114745238Y-101250000D01*
X114792857Y-101226190D01*
X114911904Y-101226190D01*
X114959523Y-101250000D01*
X114983333Y-101273809D01*
X115007142Y-101321428D01*
X115007142Y-101369047D01*
X114983333Y-101440476D01*
X114697619Y-101726190D01*
X115007142Y-101726190D01*
X115316666Y-101226190D02*
X115364285Y-101226190D01*
X115411904Y-101250000D01*
X115435714Y-101273809D01*
X115459523Y-101321428D01*
X115483333Y-101416666D01*
X115483333Y-101535714D01*
X115459523Y-101630952D01*
X115435714Y-101678571D01*
X115411904Y-101702380D01*
X115364285Y-101726190D01*
X115316666Y-101726190D01*
X115269047Y-101702380D01*
X115245238Y-101678571D01*
X115221428Y-101630952D01*
X115197619Y-101535714D01*
X115197619Y-101416666D01*
X115221428Y-101321428D01*
X115245238Y-101273809D01*
X115269047Y-101250000D01*
X115316666Y-101226190D01*
X115673809Y-101273809D02*
X115697619Y-101250000D01*
X115745238Y-101226190D01*
X115864285Y-101226190D01*
X115911904Y-101250000D01*
X115935714Y-101273809D01*
X115959523Y-101321428D01*
X115959523Y-101369047D01*
X115935714Y-101440476D01*
X115650000Y-101726190D01*
X115959523Y-101726190D01*
X116435714Y-101726190D02*
X116150000Y-101726190D01*
X116292857Y-101726190D02*
X116292857Y-101226190D01*
X116245238Y-101297619D01*
X116197619Y-101345238D01*
X116150000Y-101369047D01*
X116650000Y-101535714D02*
X117030952Y-101535714D01*
X117364285Y-101226190D02*
X117411904Y-101226190D01*
X117459523Y-101250000D01*
X117483333Y-101273809D01*
X117507142Y-101321428D01*
X117530952Y-101416666D01*
X117530952Y-101535714D01*
X117507142Y-101630952D01*
X117483333Y-101678571D01*
X117459523Y-101702380D01*
X117411904Y-101726190D01*
X117364285Y-101726190D01*
X117316666Y-101702380D01*
X117292857Y-101678571D01*
X117269047Y-101630952D01*
X117245238Y-101535714D01*
X117245238Y-101416666D01*
X117269047Y-101321428D01*
X117292857Y-101273809D01*
X117316666Y-101250000D01*
X117364285Y-101226190D01*
X117983333Y-101226190D02*
X117745238Y-101226190D01*
X117721428Y-101464285D01*
X117745238Y-101440476D01*
X117792857Y-101416666D01*
X117911904Y-101416666D01*
X117959523Y-101440476D01*
X117983333Y-101464285D01*
X118007142Y-101511904D01*
X118007142Y-101630952D01*
X117983333Y-101678571D01*
X117959523Y-101702380D01*
X117911904Y-101726190D01*
X117792857Y-101726190D01*
X117745238Y-101702380D01*
X117721428Y-101678571D01*
X118221428Y-101535714D02*
X118602380Y-101535714D01*
X119102380Y-101726190D02*
X118816666Y-101726190D01*
X118959523Y-101726190D02*
X118959523Y-101226190D01*
X118911904Y-101297619D01*
X118864285Y-101345238D01*
X118816666Y-101369047D01*
X119340476Y-101726190D02*
X119435714Y-101726190D01*
X119483333Y-101702380D01*
X119507142Y-101678571D01*
X119554761Y-101607142D01*
X119578571Y-101511904D01*
X119578571Y-101321428D01*
X119554761Y-101273809D01*
X119530952Y-101250000D01*
X119483333Y-101226190D01*
X119388095Y-101226190D01*
X119340476Y-101250000D01*
X119316666Y-101273809D01*
X119292857Y-101321428D01*
X119292857Y-101440476D01*
X119316666Y-101488095D01*
X119340476Y-101511904D01*
X119388095Y-101535714D01*
X119483333Y-101535714D01*
X119530952Y-101511904D01*
X119554761Y-101488095D01*
X119578571Y-101440476D01*
D11*
%TO.C,Reg1*%
X120800000Y-103600000D02*
X123400000Y-103600000D01*
X120900000Y-104500000D02*
X123400000Y-104500000D01*
D12*
X123750000Y-105400000D02*
X125250000Y-105400000D01*
X123750000Y-106600000D02*
X123750000Y-105400000D01*
D11*
X123400000Y-104500000D02*
G75*
G02*
X123750000Y-104850000I0J-350000D01*
G01*
X123750000Y-103250000D02*
G75*
G02*
X123400000Y-103600000I-350000J0D01*
G01*
%TD*%
%TA.AperFunction,SMDPad,CuDef*%
D13*
%TO.P,Logo1,1*%
%TO.N,N/C*%
G36*
X112966826Y-101227059D02*
G01*
X113207450Y-101274922D01*
X113442225Y-101346140D01*
X113668888Y-101440027D01*
X113885257Y-101555678D01*
X114089248Y-101691981D01*
X114278897Y-101847622D01*
X114452378Y-102021103D01*
X114608019Y-102210752D01*
X114744322Y-102414743D01*
X114859973Y-102631112D01*
X114953860Y-102857775D01*
X115025078Y-103092550D01*
X115072941Y-103333174D01*
X115096989Y-103577331D01*
X115096989Y-103822669D01*
X115072941Y-104066826D01*
X115025078Y-104307450D01*
X114953860Y-104542225D01*
X114859973Y-104768888D01*
X114744322Y-104985257D01*
X114608019Y-105189248D01*
X114452378Y-105378897D01*
X114278897Y-105552378D01*
X114089248Y-105708019D01*
X113885257Y-105844322D01*
X113668888Y-105959973D01*
X113442225Y-106053860D01*
X113207450Y-106125078D01*
X112966826Y-106172941D01*
X112722669Y-106196989D01*
X112624344Y-106196989D01*
X112624298Y-106197003D01*
X112614673Y-106198918D01*
X112604907Y-106199880D01*
X112595093Y-106199880D01*
X112585327Y-106198918D01*
X112575702Y-106197003D01*
X112575656Y-106196989D01*
X112477331Y-106196989D01*
X112233174Y-106172941D01*
X111992550Y-106125078D01*
X111757775Y-106053860D01*
X111531112Y-105959973D01*
X111314743Y-105844322D01*
X111110752Y-105708019D01*
X110921103Y-105552378D01*
X110747622Y-105378897D01*
X110591981Y-105189248D01*
X110455678Y-104985257D01*
X110340027Y-104768888D01*
X110246140Y-104542225D01*
X110174922Y-104307450D01*
X110127059Y-104066826D01*
X110103011Y-103822669D01*
X110103011Y-103663199D01*
X110650903Y-103663199D01*
X110650903Y-103736801D01*
X110658118Y-103810048D01*
X110672477Y-103882235D01*
X110693842Y-103952667D01*
X110722008Y-104020666D01*
X110756704Y-104085577D01*
X110797594Y-104146774D01*
X110844287Y-104203669D01*
X110896331Y-104255713D01*
X110953226Y-104302406D01*
X111014423Y-104343296D01*
X111079334Y-104377992D01*
X111147333Y-104406158D01*
X111217765Y-104427523D01*
X111289952Y-104441882D01*
X111363199Y-104449097D01*
X111436801Y-104449097D01*
X111510048Y-104441882D01*
X111582235Y-104427523D01*
X111652667Y-104406158D01*
X111720666Y-104377992D01*
X111785577Y-104343296D01*
X111846774Y-104302406D01*
X111903669Y-104255713D01*
X111955713Y-104203669D01*
X112002406Y-104146774D01*
X112043296Y-104085577D01*
X112077992Y-104020666D01*
X112106158Y-103952667D01*
X112127523Y-103882235D01*
X112141882Y-103810048D01*
X112149097Y-103736801D01*
X112149097Y-103663199D01*
X112141882Y-103589952D01*
X112127523Y-103517765D01*
X112106158Y-103447333D01*
X112077992Y-103379334D01*
X112043296Y-103314423D01*
X112002406Y-103253226D01*
X111955713Y-103196331D01*
X111903669Y-103144287D01*
X111846774Y-103097594D01*
X111785577Y-103056704D01*
X111720666Y-103022008D01*
X111652667Y-102993842D01*
X111582235Y-102972477D01*
X111510048Y-102958118D01*
X111436801Y-102950903D01*
X111363199Y-102950903D01*
X111289952Y-102958118D01*
X111217765Y-102972477D01*
X111147333Y-102993842D01*
X111079334Y-103022008D01*
X111014423Y-103056704D01*
X110953226Y-103097594D01*
X110896331Y-103144287D01*
X110844287Y-103196331D01*
X110797594Y-103253226D01*
X110756704Y-103314423D01*
X110722008Y-103379334D01*
X110693842Y-103447333D01*
X110672477Y-103517765D01*
X110658118Y-103589952D01*
X110650903Y-103663199D01*
X110103011Y-103663199D01*
X110103011Y-103577331D01*
X110122594Y-103378501D01*
X110323320Y-103378501D01*
X110340763Y-103320999D01*
X110383012Y-103219001D01*
X110435055Y-103121634D01*
X110496392Y-103029838D01*
X110566430Y-102944496D01*
X110644496Y-102866430D01*
X110729838Y-102796392D01*
X110821634Y-102735055D01*
X110919001Y-102683012D01*
X111020999Y-102640763D01*
X111126647Y-102608715D01*
X111234928Y-102587176D01*
X111344799Y-102576355D01*
X111455201Y-102576355D01*
X111565072Y-102587176D01*
X111673353Y-102608715D01*
X111779001Y-102640763D01*
X111880999Y-102683012D01*
X111978366Y-102735055D01*
X112070162Y-102796392D01*
X112150000Y-102861913D01*
X112150000Y-102600000D01*
X112525000Y-102600000D01*
X112525000Y-104800000D01*
X112150000Y-104625000D01*
X112150000Y-104538087D01*
X112070162Y-104603608D01*
X111978366Y-104664945D01*
X111880999Y-104716988D01*
X111779001Y-104759237D01*
X111673353Y-104791285D01*
X111565072Y-104812824D01*
X111455201Y-104823645D01*
X111344799Y-104823645D01*
X111234928Y-104812824D01*
X111126647Y-104791285D01*
X111020999Y-104759237D01*
X110919001Y-104716988D01*
X110821634Y-104664945D01*
X110729838Y-104603608D01*
X110644496Y-104533570D01*
X110566430Y-104455504D01*
X110496392Y-104370162D01*
X110435055Y-104278366D01*
X110383012Y-104180999D01*
X110340763Y-104079001D01*
X110323320Y-104021499D01*
X110324894Y-104037480D01*
X110368928Y-104258854D01*
X110434449Y-104474847D01*
X110520825Y-104683377D01*
X110627224Y-104882436D01*
X110752623Y-105070108D01*
X110895812Y-105244586D01*
X111055414Y-105404188D01*
X111229892Y-105547377D01*
X111417564Y-105672776D01*
X111616623Y-105779175D01*
X111825153Y-105865551D01*
X112041146Y-105931072D01*
X112262520Y-105975106D01*
X112487144Y-105997230D01*
X112712856Y-105997230D01*
X112937480Y-105975106D01*
X113158854Y-105931072D01*
X113374847Y-105865551D01*
X113583377Y-105779175D01*
X113782436Y-105672776D01*
X113970108Y-105547377D01*
X114144586Y-105404188D01*
X114304188Y-105244586D01*
X114447377Y-105070108D01*
X114572776Y-104882436D01*
X114679175Y-104683377D01*
X114765551Y-104474847D01*
X114831072Y-104258854D01*
X114875106Y-104037480D01*
X114876680Y-104021499D01*
X114859237Y-104079001D01*
X114816988Y-104180999D01*
X114764945Y-104278366D01*
X114703608Y-104370162D01*
X114633570Y-104455504D01*
X114555504Y-104533570D01*
X114470162Y-104603608D01*
X114378366Y-104664945D01*
X114280999Y-104716988D01*
X114179001Y-104759237D01*
X114073353Y-104791285D01*
X113965072Y-104812824D01*
X113855201Y-104823645D01*
X113744799Y-104823645D01*
X113634928Y-104812824D01*
X113526647Y-104791285D01*
X113420999Y-104759237D01*
X113319001Y-104716988D01*
X113221634Y-104664945D01*
X113129838Y-104603608D01*
X113050000Y-104538087D01*
X113050000Y-104625000D01*
X112675000Y-104800000D01*
X112675000Y-103663199D01*
X113050903Y-103663199D01*
X113050903Y-103736801D01*
X113058118Y-103810048D01*
X113072477Y-103882235D01*
X113093842Y-103952667D01*
X113122008Y-104020666D01*
X113156704Y-104085577D01*
X113197594Y-104146774D01*
X113244287Y-104203669D01*
X113296331Y-104255713D01*
X113353226Y-104302406D01*
X113414423Y-104343296D01*
X113479334Y-104377992D01*
X113547333Y-104406158D01*
X113617765Y-104427523D01*
X113689952Y-104441882D01*
X113763199Y-104449097D01*
X113836801Y-104449097D01*
X113910048Y-104441882D01*
X113982235Y-104427523D01*
X114052667Y-104406158D01*
X114120666Y-104377992D01*
X114185577Y-104343296D01*
X114246774Y-104302406D01*
X114303669Y-104255713D01*
X114355713Y-104203669D01*
X114402406Y-104146774D01*
X114443296Y-104085577D01*
X114477992Y-104020666D01*
X114506158Y-103952667D01*
X114527523Y-103882235D01*
X114541882Y-103810048D01*
X114549097Y-103736801D01*
X114549097Y-103663199D01*
X114541882Y-103589952D01*
X114527523Y-103517765D01*
X114506158Y-103447333D01*
X114477992Y-103379334D01*
X114443296Y-103314423D01*
X114402406Y-103253226D01*
X114355713Y-103196331D01*
X114303669Y-103144287D01*
X114246774Y-103097594D01*
X114185577Y-103056704D01*
X114120666Y-103022008D01*
X114052667Y-102993842D01*
X113982235Y-102972477D01*
X113910048Y-102958118D01*
X113836801Y-102950903D01*
X113763199Y-102950903D01*
X113689952Y-102958118D01*
X113617765Y-102972477D01*
X113547333Y-102993842D01*
X113479334Y-103022008D01*
X113414423Y-103056704D01*
X113353226Y-103097594D01*
X113296331Y-103144287D01*
X113244287Y-103196331D01*
X113197594Y-103253226D01*
X113156704Y-103314423D01*
X113122008Y-103379334D01*
X113093842Y-103447333D01*
X113072477Y-103517765D01*
X113058118Y-103589952D01*
X113050903Y-103663199D01*
X112675000Y-103663199D01*
X112675000Y-102600000D01*
X113050000Y-102600000D01*
X113050000Y-102861913D01*
X113129838Y-102796392D01*
X113221634Y-102735055D01*
X113319001Y-102683012D01*
X113420999Y-102640763D01*
X113526647Y-102608715D01*
X113634928Y-102587176D01*
X113744799Y-102576355D01*
X113855201Y-102576355D01*
X113965072Y-102587176D01*
X114073353Y-102608715D01*
X114179001Y-102640763D01*
X114280999Y-102683012D01*
X114378366Y-102735055D01*
X114470162Y-102796392D01*
X114555504Y-102866430D01*
X114633570Y-102944496D01*
X114703608Y-103029838D01*
X114764945Y-103121634D01*
X114816988Y-103219001D01*
X114859237Y-103320999D01*
X114876680Y-103378501D01*
X114875106Y-103362520D01*
X114831072Y-103141146D01*
X114765551Y-102925153D01*
X114679175Y-102716623D01*
X114572776Y-102517564D01*
X114447377Y-102329892D01*
X114304188Y-102155414D01*
X114144586Y-101995812D01*
X113970108Y-101852623D01*
X113782436Y-101727224D01*
X113583377Y-101620825D01*
X113374847Y-101534449D01*
X113158854Y-101468928D01*
X112937480Y-101424894D01*
X112712856Y-101402770D01*
X112487144Y-101402770D01*
X112262520Y-101424894D01*
X112041146Y-101468928D01*
X111825153Y-101534449D01*
X111616623Y-101620825D01*
X111417564Y-101727224D01*
X111229892Y-101852623D01*
X111055414Y-101995812D01*
X110895812Y-102155414D01*
X110752623Y-102329892D01*
X110627224Y-102517564D01*
X110520825Y-102716623D01*
X110434449Y-102925153D01*
X110368928Y-103141146D01*
X110324894Y-103362520D01*
X110323320Y-103378501D01*
X110122594Y-103378501D01*
X110127059Y-103333174D01*
X110174922Y-103092550D01*
X110246140Y-102857775D01*
X110340027Y-102631112D01*
X110455678Y-102414743D01*
X110591981Y-102210752D01*
X110747622Y-102021103D01*
X110921103Y-101847622D01*
X111110752Y-101691981D01*
X111314743Y-101555678D01*
X111531112Y-101440027D01*
X111757775Y-101346140D01*
X111992550Y-101274922D01*
X112233174Y-101227059D01*
X112477331Y-101203011D01*
X112722669Y-101203011D01*
X112966826Y-101227059D01*
G37*
%TD.AperFunction*%
%TD*%
%TO.P,R12,2*%
%TO.N,B*%
%TA.AperFunction,SMDPad,CuDef*%
G36*
G01*
X112075000Y-114625000D02*
X112075000Y-115175000D01*
G75*
G02*
X111875000Y-115375000I-200000J0D01*
G01*
X111475000Y-115375000D01*
G75*
G02*
X111275000Y-115175000I0J200000D01*
G01*
X111275000Y-114625000D01*
G75*
G02*
X111475000Y-114425000I200000J0D01*
G01*
X111875000Y-114425000D01*
G75*
G02*
X112075000Y-114625000I0J-200000D01*
G01*
G37*
%TD.AperFunction*%
%TO.P,R12,1*%
%TO.N,Net-(D1-Pad3)*%
%TA.AperFunction,SMDPad,CuDef*%
G36*
G01*
X113725000Y-114625000D02*
X113725000Y-115175000D01*
G75*
G02*
X113525000Y-115375000I-200000J0D01*
G01*
X113125000Y-115375000D01*
G75*
G02*
X112925000Y-115175000I0J200000D01*
G01*
X112925000Y-114625000D01*
G75*
G02*
X113125000Y-114425000I200000J0D01*
G01*
X113525000Y-114425000D01*
G75*
G02*
X113725000Y-114625000I0J-200000D01*
G01*
G37*
%TD.AperFunction*%
%TD*%
%TO.P,R11,2*%
%TO.N,G*%
%TA.AperFunction,SMDPad,CuDef*%
G36*
G01*
X112075000Y-113425000D02*
X112075000Y-113975000D01*
G75*
G02*
X111875000Y-114175000I-200000J0D01*
G01*
X111475000Y-114175000D01*
G75*
G02*
X111275000Y-113975000I0J200000D01*
G01*
X111275000Y-113425000D01*
G75*
G02*
X111475000Y-113225000I200000J0D01*
G01*
X111875000Y-113225000D01*
G75*
G02*
X112075000Y-113425000I0J-200000D01*
G01*
G37*
%TD.AperFunction*%
%TO.P,R11,1*%
%TO.N,Net-(D1-Pad2)*%
%TA.AperFunction,SMDPad,CuDef*%
G36*
G01*
X113725000Y-113425000D02*
X113725000Y-113975000D01*
G75*
G02*
X113525000Y-114175000I-200000J0D01*
G01*
X113125000Y-114175000D01*
G75*
G02*
X112925000Y-113975000I0J200000D01*
G01*
X112925000Y-113425000D01*
G75*
G02*
X113125000Y-113225000I200000J0D01*
G01*
X113525000Y-113225000D01*
G75*
G02*
X113725000Y-113425000I0J-200000D01*
G01*
G37*
%TD.AperFunction*%
%TD*%
D14*
%TO.P,D1,4*%
%TO.N,+3V3*%
X115800000Y-115875000D03*
%TO.P,D1,3*%
%TO.N,Net-(D1-Pad3)*%
X115800000Y-114125000D03*
%TO.P,D1,2*%
%TO.N,Net-(D1-Pad2)*%
X114800000Y-114125000D03*
%TO.P,D1,1*%
%TO.N,Net-(D1-Pad1)*%
X114800000Y-115875000D03*
%TD*%
%TO.P,R9,2*%
%TO.N,D-*%
%TA.AperFunction,SMDPad,CuDef*%
G36*
G01*
X118675000Y-112925000D02*
X118675000Y-113475000D01*
G75*
G02*
X118475000Y-113675000I-200000J0D01*
G01*
X118075000Y-113675000D01*
G75*
G02*
X117875000Y-113475000I0J200000D01*
G01*
X117875000Y-112925000D01*
G75*
G02*
X118075000Y-112725000I200000J0D01*
G01*
X118475000Y-112725000D01*
G75*
G02*
X118675000Y-112925000I0J-200000D01*
G01*
G37*
%TD.AperFunction*%
%TO.P,R9,1*%
%TO.N,Net-(J2-PadA7)*%
%TA.AperFunction,SMDPad,CuDef*%
G36*
G01*
X120325000Y-112925000D02*
X120325000Y-113475000D01*
G75*
G02*
X120125000Y-113675000I-200000J0D01*
G01*
X119725000Y-113675000D01*
G75*
G02*
X119525000Y-113475000I0J200000D01*
G01*
X119525000Y-112925000D01*
G75*
G02*
X119725000Y-112725000I200000J0D01*
G01*
X120125000Y-112725000D01*
G75*
G02*
X120325000Y-112925000I0J-200000D01*
G01*
G37*
%TD.AperFunction*%
%TD*%
%TO.P,R10,2*%
%TO.N,Net-(J2-PadA6)*%
%TA.AperFunction,SMDPad,CuDef*%
G36*
G01*
X119525000Y-115275000D02*
X119525000Y-114725000D01*
G75*
G02*
X119725000Y-114525000I200000J0D01*
G01*
X120125000Y-114525000D01*
G75*
G02*
X120325000Y-114725000I0J-200000D01*
G01*
X120325000Y-115275000D01*
G75*
G02*
X120125000Y-115475000I-200000J0D01*
G01*
X119725000Y-115475000D01*
G75*
G02*
X119525000Y-115275000I0J200000D01*
G01*
G37*
%TD.AperFunction*%
%TO.P,R10,1*%
%TO.N,D+*%
%TA.AperFunction,SMDPad,CuDef*%
G36*
G01*
X117875000Y-115275000D02*
X117875000Y-114725000D01*
G75*
G02*
X118075000Y-114525000I200000J0D01*
G01*
X118475000Y-114525000D01*
G75*
G02*
X118675000Y-114725000I0J-200000D01*
G01*
X118675000Y-115275000D01*
G75*
G02*
X118475000Y-115475000I-200000J0D01*
G01*
X118075000Y-115475000D01*
G75*
G02*
X117875000Y-115275000I0J200000D01*
G01*
G37*
%TD.AperFunction*%
%TD*%
D15*
%TO.P,U2,21*%
%TO.N,GND*%
X115750000Y-108250000D03*
%TA.AperFunction,SMDPad,CuDef*%
D13*
G36*
X114750000Y-107250000D02*
G01*
X116750000Y-107250000D01*
X116750000Y-109000000D01*
X116500000Y-109250000D01*
X114750000Y-109250000D01*
X114750000Y-107250000D01*
G37*
%TD.AperFunction*%
%TO.P,U2,20*%
%TO.N,+3V3*%
%TA.AperFunction,SMDPad,CuDef*%
G36*
G01*
X116875000Y-109862500D02*
X116875000Y-110437500D01*
G75*
G02*
X116812500Y-110500000I-62500J0D01*
G01*
X116687500Y-110500000D01*
G75*
G02*
X116625000Y-110437500I0J62500D01*
G01*
X116625000Y-109862500D01*
G75*
G02*
X116687500Y-109800000I62500J0D01*
G01*
X116812500Y-109800000D01*
G75*
G02*
X116875000Y-109862500I0J-62500D01*
G01*
G37*
%TD.AperFunction*%
%TO.P,U2,19*%
%TO.N,EN*%
%TA.AperFunction,SMDPad,CuDef*%
G36*
G01*
X116375000Y-109862500D02*
X116375000Y-110437500D01*
G75*
G02*
X116312500Y-110500000I-62500J0D01*
G01*
X116187500Y-110500000D01*
G75*
G02*
X116125000Y-110437500I0J62500D01*
G01*
X116125000Y-109862500D01*
G75*
G02*
X116187500Y-109800000I62500J0D01*
G01*
X116312500Y-109800000D01*
G75*
G02*
X116375000Y-109862500I0J-62500D01*
G01*
G37*
%TD.AperFunction*%
%TO.P,U2,18*%
%TO.N,BOOT*%
%TA.AperFunction,SMDPad,CuDef*%
G36*
G01*
X115875000Y-109862500D02*
X115875000Y-110437500D01*
G75*
G02*
X115812500Y-110500000I-62500J0D01*
G01*
X115687500Y-110500000D01*
G75*
G02*
X115625000Y-110437500I0J62500D01*
G01*
X115625000Y-109862500D01*
G75*
G02*
X115687500Y-109800000I62500J0D01*
G01*
X115812500Y-109800000D01*
G75*
G02*
X115875000Y-109862500I0J-62500D01*
G01*
G37*
%TD.AperFunction*%
%TO.P,U2,17*%
%TO.N,I*%
%TA.AperFunction,SMDPad,CuDef*%
G36*
G01*
X115375000Y-109862500D02*
X115375000Y-110437500D01*
G75*
G02*
X115312500Y-110500000I-62500J0D01*
G01*
X115187500Y-110500000D01*
G75*
G02*
X115125000Y-110437500I0J62500D01*
G01*
X115125000Y-109862500D01*
G75*
G02*
X115187500Y-109800000I62500J0D01*
G01*
X115312500Y-109800000D01*
G75*
G02*
X115375000Y-109862500I0J-62500D01*
G01*
G37*
%TD.AperFunction*%
%TO.P,U2,16*%
%TO.N,Net-(U2-Pad16)*%
%TA.AperFunction,SMDPad,CuDef*%
G36*
G01*
X114875000Y-109862500D02*
X114875000Y-110437500D01*
G75*
G02*
X114812500Y-110500000I-62500J0D01*
G01*
X114687500Y-110500000D01*
G75*
G02*
X114625000Y-110437500I0J62500D01*
G01*
X114625000Y-109862500D01*
G75*
G02*
X114687500Y-109800000I62500J0D01*
G01*
X114812500Y-109800000D01*
G75*
G02*
X114875000Y-109862500I0J-62500D01*
G01*
G37*
%TD.AperFunction*%
%TO.P,U2,15*%
%TO.N,Net-(U2-Pad15)*%
%TA.AperFunction,SMDPad,CuDef*%
G36*
G01*
X114200000Y-109187500D02*
X114200000Y-109312500D01*
G75*
G02*
X114137500Y-109375000I-62500J0D01*
G01*
X113562500Y-109375000D01*
G75*
G02*
X113500000Y-109312500I0J62500D01*
G01*
X113500000Y-109187500D01*
G75*
G02*
X113562500Y-109125000I62500J0D01*
G01*
X114137500Y-109125000D01*
G75*
G02*
X114200000Y-109187500I0J-62500D01*
G01*
G37*
%TD.AperFunction*%
%TO.P,U2,14*%
%TO.N,Net-(U2-Pad14)*%
%TA.AperFunction,SMDPad,CuDef*%
G36*
G01*
X114200000Y-108687500D02*
X114200000Y-108812500D01*
G75*
G02*
X114137500Y-108875000I-62500J0D01*
G01*
X113562500Y-108875000D01*
G75*
G02*
X113500000Y-108812500I0J62500D01*
G01*
X113500000Y-108687500D01*
G75*
G02*
X113562500Y-108625000I62500J0D01*
G01*
X114137500Y-108625000D01*
G75*
G02*
X114200000Y-108687500I0J-62500D01*
G01*
G37*
%TD.AperFunction*%
%TO.P,U2,13*%
%TO.N,GND*%
%TA.AperFunction,SMDPad,CuDef*%
G36*
G01*
X114200000Y-108187500D02*
X114200000Y-108312500D01*
G75*
G02*
X114137500Y-108375000I-62500J0D01*
G01*
X113562500Y-108375000D01*
G75*
G02*
X113500000Y-108312500I0J62500D01*
G01*
X113500000Y-108187500D01*
G75*
G02*
X113562500Y-108125000I62500J0D01*
G01*
X114137500Y-108125000D01*
G75*
G02*
X114200000Y-108187500I0J-62500D01*
G01*
G37*
%TD.AperFunction*%
%TO.P,U2,12*%
%TO.N,+3V3*%
%TA.AperFunction,SMDPad,CuDef*%
G36*
G01*
X114200000Y-107687500D02*
X114200000Y-107812500D01*
G75*
G02*
X114137500Y-107875000I-62500J0D01*
G01*
X113562500Y-107875000D01*
G75*
G02*
X113500000Y-107812500I0J62500D01*
G01*
X113500000Y-107687500D01*
G75*
G02*
X113562500Y-107625000I62500J0D01*
G01*
X114137500Y-107625000D01*
G75*
G02*
X114200000Y-107687500I0J-62500D01*
G01*
G37*
%TD.AperFunction*%
%TO.P,U2,11*%
%TA.AperFunction,SMDPad,CuDef*%
G36*
G01*
X114200000Y-107187500D02*
X114200000Y-107312500D01*
G75*
G02*
X114137500Y-107375000I-62500J0D01*
G01*
X113562500Y-107375000D01*
G75*
G02*
X113500000Y-107312500I0J62500D01*
G01*
X113500000Y-107187500D01*
G75*
G02*
X113562500Y-107125000I62500J0D01*
G01*
X114137500Y-107125000D01*
G75*
G02*
X114200000Y-107187500I0J-62500D01*
G01*
G37*
%TD.AperFunction*%
%TO.P,U2,10*%
%TA.AperFunction,SMDPad,CuDef*%
G36*
G01*
X114875000Y-106062500D02*
X114875000Y-106637500D01*
G75*
G02*
X114812500Y-106700000I-62500J0D01*
G01*
X114687500Y-106700000D01*
G75*
G02*
X114625000Y-106637500I0J62500D01*
G01*
X114625000Y-106062500D01*
G75*
G02*
X114687500Y-106000000I62500J0D01*
G01*
X114812500Y-106000000D01*
G75*
G02*
X114875000Y-106062500I0J-62500D01*
G01*
G37*
%TD.AperFunction*%
%TO.P,U2,9*%
%TO.N,D-*%
%TA.AperFunction,SMDPad,CuDef*%
G36*
G01*
X115375000Y-106062500D02*
X115375000Y-106637500D01*
G75*
G02*
X115312500Y-106700000I-62500J0D01*
G01*
X115187500Y-106700000D01*
G75*
G02*
X115125000Y-106637500I0J62500D01*
G01*
X115125000Y-106062500D01*
G75*
G02*
X115187500Y-106000000I62500J0D01*
G01*
X115312500Y-106000000D01*
G75*
G02*
X115375000Y-106062500I0J-62500D01*
G01*
G37*
%TD.AperFunction*%
%TO.P,U2,8*%
%TO.N,D+*%
%TA.AperFunction,SMDPad,CuDef*%
G36*
G01*
X115875000Y-106062500D02*
X115875000Y-106637500D01*
G75*
G02*
X115812500Y-106700000I-62500J0D01*
G01*
X115687500Y-106700000D01*
G75*
G02*
X115625000Y-106637500I0J62500D01*
G01*
X115625000Y-106062500D01*
G75*
G02*
X115687500Y-106000000I62500J0D01*
G01*
X115812500Y-106000000D01*
G75*
G02*
X115875000Y-106062500I0J-62500D01*
G01*
G37*
%TD.AperFunction*%
%TO.P,U2,7*%
%TO.N,Net-(U2-Pad7)*%
%TA.AperFunction,SMDPad,CuDef*%
G36*
G01*
X116375000Y-106062500D02*
X116375000Y-106637500D01*
G75*
G02*
X116312500Y-106700000I-62500J0D01*
G01*
X116187500Y-106700000D01*
G75*
G02*
X116125000Y-106637500I0J62500D01*
G01*
X116125000Y-106062500D01*
G75*
G02*
X116187500Y-106000000I62500J0D01*
G01*
X116312500Y-106000000D01*
G75*
G02*
X116375000Y-106062500I0J-62500D01*
G01*
G37*
%TD.AperFunction*%
%TO.P,U2,6*%
%TO.N,GND*%
%TA.AperFunction,SMDPad,CuDef*%
G36*
G01*
X116875000Y-106062500D02*
X116875000Y-106637500D01*
G75*
G02*
X116812500Y-106700000I-62500J0D01*
G01*
X116687500Y-106700000D01*
G75*
G02*
X116625000Y-106637500I0J62500D01*
G01*
X116625000Y-106062500D01*
G75*
G02*
X116687500Y-106000000I62500J0D01*
G01*
X116812500Y-106000000D01*
G75*
G02*
X116875000Y-106062500I0J-62500D01*
G01*
G37*
%TD.AperFunction*%
%TO.P,U2,5*%
%TA.AperFunction,SMDPad,CuDef*%
G36*
G01*
X118000000Y-107187500D02*
X118000000Y-107312500D01*
G75*
G02*
X117937500Y-107375000I-62500J0D01*
G01*
X117362500Y-107375000D01*
G75*
G02*
X117300000Y-107312500I0J62500D01*
G01*
X117300000Y-107187500D01*
G75*
G02*
X117362500Y-107125000I62500J0D01*
G01*
X117937500Y-107125000D01*
G75*
G02*
X118000000Y-107187500I0J-62500D01*
G01*
G37*
%TD.AperFunction*%
%TO.P,U2,4*%
%TA.AperFunction,SMDPad,CuDef*%
G36*
G01*
X118000000Y-107687500D02*
X118000000Y-107812500D01*
G75*
G02*
X117937500Y-107875000I-62500J0D01*
G01*
X117362500Y-107875000D01*
G75*
G02*
X117300000Y-107812500I0J62500D01*
G01*
X117300000Y-107687500D01*
G75*
G02*
X117362500Y-107625000I62500J0D01*
G01*
X117937500Y-107625000D01*
G75*
G02*
X118000000Y-107687500I0J-62500D01*
G01*
G37*
%TD.AperFunction*%
%TO.P,U2,3*%
%TA.AperFunction,SMDPad,CuDef*%
G36*
G01*
X118000000Y-108187500D02*
X118000000Y-108312500D01*
G75*
G02*
X117937500Y-108375000I-62500J0D01*
G01*
X117362500Y-108375000D01*
G75*
G02*
X117300000Y-108312500I0J62500D01*
G01*
X117300000Y-108187500D01*
G75*
G02*
X117362500Y-108125000I62500J0D01*
G01*
X117937500Y-108125000D01*
G75*
G02*
X118000000Y-108187500I0J-62500D01*
G01*
G37*
%TD.AperFunction*%
%TO.P,U2,2*%
%TA.AperFunction,SMDPad,CuDef*%
G36*
G01*
X118000000Y-108687500D02*
X118000000Y-108812500D01*
G75*
G02*
X117937500Y-108875000I-62500J0D01*
G01*
X117362500Y-108875000D01*
G75*
G02*
X117300000Y-108812500I0J62500D01*
G01*
X117300000Y-108687500D01*
G75*
G02*
X117362500Y-108625000I62500J0D01*
G01*
X117937500Y-108625000D01*
G75*
G02*
X118000000Y-108687500I0J-62500D01*
G01*
G37*
%TD.AperFunction*%
%TO.P,U2,1*%
%TO.N,O*%
%TA.AperFunction,SMDPad,CuDef*%
G36*
G01*
X118000000Y-109187500D02*
X118000000Y-109312500D01*
G75*
G02*
X117937500Y-109375000I-62500J0D01*
G01*
X117362500Y-109375000D01*
G75*
G02*
X117300000Y-109312500I0J62500D01*
G01*
X117300000Y-109187500D01*
G75*
G02*
X117362500Y-109125000I62500J0D01*
G01*
X117937500Y-109125000D01*
G75*
G02*
X118000000Y-109187500I0J-62500D01*
G01*
G37*
%TD.AperFunction*%
%TD*%
D16*
%TO.P,J3,2*%
%TO.N,+12V*%
X126600000Y-125460000D03*
D17*
%TO.P,J3,1*%
%TO.N,GND*%
X126600000Y-128000000D03*
%TD*%
%TO.P,R16,2*%
%TO.N,R*%
%TA.AperFunction,SMDPad,CuDef*%
G36*
G01*
X112075000Y-115825000D02*
X112075000Y-116375000D01*
G75*
G02*
X111875000Y-116575000I-200000J0D01*
G01*
X111475000Y-116575000D01*
G75*
G02*
X111275000Y-116375000I0J200000D01*
G01*
X111275000Y-115825000D01*
G75*
G02*
X111475000Y-115625000I200000J0D01*
G01*
X111875000Y-115625000D01*
G75*
G02*
X112075000Y-115825000I0J-200000D01*
G01*
G37*
%TD.AperFunction*%
%TO.P,R16,1*%
%TO.N,Net-(D1-Pad1)*%
%TA.AperFunction,SMDPad,CuDef*%
G36*
G01*
X113725000Y-115825000D02*
X113725000Y-116375000D01*
G75*
G02*
X113525000Y-116575000I-200000J0D01*
G01*
X113125000Y-116575000D01*
G75*
G02*
X112925000Y-116375000I0J200000D01*
G01*
X112925000Y-115825000D01*
G75*
G02*
X113125000Y-115625000I200000J0D01*
G01*
X113525000Y-115625000D01*
G75*
G02*
X113725000Y-115825000I0J-200000D01*
G01*
G37*
%TD.AperFunction*%
%TD*%
%TO.P,D6,2*%
%TO.N,VBUS*%
%TA.AperFunction,SMDPad,CuDef*%
G36*
G01*
X118925000Y-108975000D02*
X120175000Y-108975000D01*
G75*
G02*
X120425000Y-109225000I0J-250000D01*
G01*
X120425000Y-110150000D01*
G75*
G02*
X120175000Y-110400000I-250000J0D01*
G01*
X118925000Y-110400000D01*
G75*
G02*
X118675000Y-110150000I0J250000D01*
G01*
X118675000Y-109225000D01*
G75*
G02*
X118925000Y-108975000I250000J0D01*
G01*
G37*
%TD.AperFunction*%
%TO.P,D6,1*%
%TO.N,+12V*%
%TA.AperFunction,SMDPad,CuDef*%
G36*
G01*
X118925000Y-106000000D02*
X120175000Y-106000000D01*
G75*
G02*
X120425000Y-106250000I0J-250000D01*
G01*
X120425000Y-107175000D01*
G75*
G02*
X120175000Y-107425000I-250000J0D01*
G01*
X118925000Y-107425000D01*
G75*
G02*
X118675000Y-107175000I0J250000D01*
G01*
X118675000Y-106250000D01*
G75*
G02*
X118925000Y-106000000I250000J0D01*
G01*
G37*
%TD.AperFunction*%
%TD*%
D18*
%TO.P,D3,6*%
%TO.N,IO3*%
X117450000Y-119300000D03*
%TO.P,D3,4*%
%TO.N,GND*%
X117450000Y-120600000D03*
%TO.P,D3,2*%
%TO.N,+3V3*%
X115550000Y-119950000D03*
%TO.P,D3,5*%
X117450000Y-119950000D03*
%TO.P,D3,3*%
%TO.N,IO4*%
X115550000Y-120600000D03*
%TO.P,D3,1*%
%TO.N,GND*%
X115550000Y-119300000D03*
%TD*%
%TO.P,D2,6*%
%TO.N,IO1*%
X120950000Y-119300000D03*
%TO.P,D2,4*%
%TO.N,GND*%
X120950000Y-120600000D03*
%TO.P,D2,2*%
%TO.N,+3V3*%
X119050000Y-119950000D03*
%TO.P,D2,5*%
X120950000Y-119950000D03*
%TO.P,D2,3*%
%TO.N,IO2*%
X119050000Y-120600000D03*
%TO.P,D2,1*%
%TO.N,GND*%
X119050000Y-119300000D03*
%TD*%
%TO.P,C2,2*%
%TO.N,GND*%
%TA.AperFunction,SMDPad,CuDef*%
G36*
G01*
X112350000Y-108725000D02*
X112850000Y-108725000D01*
G75*
G02*
X113075000Y-108950000I0J-225000D01*
G01*
X113075000Y-109400000D01*
G75*
G02*
X112850000Y-109625000I-225000J0D01*
G01*
X112350000Y-109625000D01*
G75*
G02*
X112125000Y-109400000I0J225000D01*
G01*
X112125000Y-108950000D01*
G75*
G02*
X112350000Y-108725000I225000J0D01*
G01*
G37*
%TD.AperFunction*%
%TO.P,C2,1*%
%TO.N,+3V3*%
%TA.AperFunction,SMDPad,CuDef*%
G36*
G01*
X112350000Y-107175000D02*
X112850000Y-107175000D01*
G75*
G02*
X113075000Y-107400000I0J-225000D01*
G01*
X113075000Y-107850000D01*
G75*
G02*
X112850000Y-108075000I-225000J0D01*
G01*
X112350000Y-108075000D01*
G75*
G02*
X112125000Y-107850000I0J225000D01*
G01*
X112125000Y-107400000D01*
G75*
G02*
X112350000Y-107175000I225000J0D01*
G01*
G37*
%TD.AperFunction*%
%TD*%
%TA.AperFunction,SMDPad,CuDef*%
D13*
%TO.P,Reg1,4*%
%TO.N,+3V3*%
G36*
X126491745Y-101000012D02*
G01*
X126493925Y-101000149D01*
X126496106Y-101000149D01*
X126605399Y-101005494D01*
X126607142Y-101005591D01*
X126612396Y-101006181D01*
X126617554Y-101006686D01*
X126725803Y-101022671D01*
X126727527Y-101022938D01*
X126732653Y-101024027D01*
X126737782Y-101025043D01*
X126843956Y-101051515D01*
X126845646Y-101051949D01*
X126850632Y-101053531D01*
X126855647Y-101055045D01*
X126958724Y-101091749D01*
X126958731Y-101091751D01*
X126958738Y-101091754D01*
X126960370Y-101092347D01*
X126965193Y-101094415D01*
X126970022Y-101096405D01*
X127069032Y-101142996D01*
X127070606Y-101143750D01*
X127075246Y-101146301D01*
X127079813Y-101148729D01*
X127173804Y-101204758D01*
X127175297Y-101205662D01*
X127179597Y-101208606D01*
X127183977Y-101211516D01*
X127272050Y-101276450D01*
X127273448Y-101277495D01*
X127277465Y-101280866D01*
X127281515Y-101284169D01*
X127362832Y-101357388D01*
X127364120Y-101358565D01*
X127367802Y-101362325D01*
X127371496Y-101365993D01*
X127445282Y-101446797D01*
X127446450Y-101448094D01*
X127449731Y-101452175D01*
X127453067Y-101456207D01*
X127518613Y-101543826D01*
X127519649Y-101545230D01*
X127522520Y-101549618D01*
X127525443Y-101553951D01*
X127582127Y-101647548D01*
X127583020Y-101649046D01*
X127585444Y-101653683D01*
X127587935Y-101658290D01*
X127635216Y-101756972D01*
X127635959Y-101758551D01*
X127637913Y-101763388D01*
X127639949Y-101768230D01*
X127677374Y-101871054D01*
X127677959Y-101872698D01*
X127679444Y-101877744D01*
X127680985Y-101882721D01*
X127708197Y-101988708D01*
X127708619Y-101990401D01*
X127709606Y-101995574D01*
X127710652Y-102000669D01*
X127727393Y-102108804D01*
X127727648Y-102110530D01*
X127728120Y-102115721D01*
X127728670Y-102120951D01*
X127734418Y-102223771D01*
X128319120Y-104062112D01*
X128319637Y-104063779D01*
X128322601Y-104075627D01*
X128324394Y-104087707D01*
X128325000Y-104099904D01*
X128324413Y-104112103D01*
X128322637Y-104124185D01*
X128319692Y-104136037D01*
X128315605Y-104147545D01*
X128310413Y-104158599D01*
X128304167Y-104169094D01*
X128296928Y-104178930D01*
X128288763Y-104188011D01*
X128279752Y-104196253D01*
X128269978Y-104203575D01*
X128259537Y-104209910D01*
X128248527Y-104215196D01*
X128237054Y-104219381D01*
X128225228Y-104222427D01*
X128213161Y-104224305D01*
X128200968Y-104224996D01*
X128188766Y-104224494D01*
X128176671Y-104222803D01*
X128164799Y-104219941D01*
X128153262Y-104215933D01*
X128142173Y-104210819D01*
X128131634Y-104204648D01*
X128121749Y-104197477D01*
X128112611Y-104189375D01*
X128104306Y-104180421D01*
X128096915Y-104170699D01*
X128090508Y-104160302D01*
X128085146Y-104149330D01*
X128080880Y-104137887D01*
X127490880Y-102282887D01*
X127490479Y-102281595D01*
X127490460Y-102281542D01*
X127490448Y-102281497D01*
X127490363Y-102281221D01*
X127488867Y-102275241D01*
X127487466Y-102269702D01*
X127487443Y-102269547D01*
X127487399Y-102269373D01*
X127486483Y-102263201D01*
X127485640Y-102257627D01*
X127485632Y-102257465D01*
X127485606Y-102257293D01*
X127485304Y-102251214D01*
X127485001Y-102245432D01*
X127484985Y-102240891D01*
X127479401Y-102141007D01*
X127464532Y-102044963D01*
X127440361Y-101950820D01*
X127407114Y-101859476D01*
X127365119Y-101771827D01*
X127314767Y-101688684D01*
X127256543Y-101610856D01*
X127191007Y-101539084D01*
X127118771Y-101474042D01*
X127040539Y-101416366D01*
X126957054Y-101366599D01*
X126869106Y-101325213D01*
X126777547Y-101292611D01*
X126683233Y-101269096D01*
X126587082Y-101254897D01*
X126486941Y-101250000D01*
X123145142Y-101250000D01*
X123140891Y-101250015D01*
X123041007Y-101255599D01*
X122944963Y-101270468D01*
X122850820Y-101294639D01*
X122759476Y-101327886D01*
X122671827Y-101369881D01*
X122588684Y-101420233D01*
X122510856Y-101478457D01*
X122439084Y-101543993D01*
X122374042Y-101616229D01*
X122316366Y-101694461D01*
X122266599Y-101777946D01*
X122225213Y-101865894D01*
X122192611Y-101957453D01*
X122169096Y-102051767D01*
X122154897Y-102147918D01*
X122150000Y-102248059D01*
X122150000Y-103250000D01*
X121550000Y-103250000D01*
X121550000Y-102150000D01*
X121904496Y-102150000D01*
X121905494Y-102129601D01*
X121905591Y-102127858D01*
X121906184Y-102122573D01*
X121906686Y-102117446D01*
X121922671Y-102009197D01*
X121922938Y-102007473D01*
X121924027Y-102002347D01*
X121925043Y-101997218D01*
X121951515Y-101891044D01*
X121951949Y-101889354D01*
X121953531Y-101884368D01*
X121955045Y-101879353D01*
X121991751Y-101776270D01*
X121992347Y-101774630D01*
X121994415Y-101769807D01*
X121996405Y-101764978D01*
X122042996Y-101665968D01*
X122043750Y-101664394D01*
X122046301Y-101659754D01*
X122048729Y-101655187D01*
X122104758Y-101561196D01*
X122105662Y-101559703D01*
X122108606Y-101555403D01*
X122111516Y-101551023D01*
X122176450Y-101462950D01*
X122177495Y-101461552D01*
X122180866Y-101457535D01*
X122184169Y-101453485D01*
X122257388Y-101372168D01*
X122258565Y-101370880D01*
X122262325Y-101367198D01*
X122265993Y-101363504D01*
X122346797Y-101289718D01*
X122348094Y-101288550D01*
X122352175Y-101285269D01*
X122356207Y-101281933D01*
X122443826Y-101216387D01*
X122445230Y-101215351D01*
X122449618Y-101212480D01*
X122453951Y-101209557D01*
X122547548Y-101152873D01*
X122549046Y-101151980D01*
X122553683Y-101149556D01*
X122558290Y-101147065D01*
X122656972Y-101099784D01*
X122658551Y-101099041D01*
X122663388Y-101097087D01*
X122668230Y-101095051D01*
X122771054Y-101057626D01*
X122772698Y-101057041D01*
X122777744Y-101055556D01*
X122782721Y-101054015D01*
X122888708Y-101026803D01*
X122890401Y-101026381D01*
X122895574Y-101025394D01*
X122900669Y-101024348D01*
X123008804Y-101007607D01*
X123010530Y-101007352D01*
X123015744Y-101006877D01*
X123020951Y-101006330D01*
X123130204Y-101000222D01*
X123131947Y-101000136D01*
X123134363Y-101000153D01*
X123136749Y-101000028D01*
X123144568Y-101000001D01*
X123144953Y-101000002D01*
X123145000Y-101000000D01*
X126490000Y-101000000D01*
X126491745Y-101000012D01*
G37*
%TD.AperFunction*%
%TA.AperFunction,SMDPad,CuDef*%
%TO.P,Reg1,2*%
%TO.N,+12V*%
G36*
X122753956Y-105350389D02*
G01*
X122778247Y-105352943D01*
X122802173Y-105357854D01*
X122825506Y-105365076D01*
X122848022Y-105374542D01*
X122869508Y-105386159D01*
X122889756Y-105399818D01*
X122908576Y-105415387D01*
X122925787Y-105432717D01*
X122941224Y-105451646D01*
X122954740Y-105471990D01*
X122966207Y-105493556D01*
X122975515Y-105516137D01*
X122982574Y-105539520D01*
X122987318Y-105563480D01*
X122989702Y-105587788D01*
X122989702Y-105612213D01*
X122984929Y-105709776D01*
X122984929Y-105709795D01*
X122984927Y-105709817D01*
X122984734Y-105713282D01*
X122983566Y-105723698D01*
X122982545Y-105734103D01*
X122968273Y-105830754D01*
X122967739Y-105834204D01*
X122965564Y-105844436D01*
X122963529Y-105854715D01*
X122939893Y-105949513D01*
X122939025Y-105952894D01*
X122935863Y-105962859D01*
X122932834Y-105972894D01*
X122900061Y-106064932D01*
X122898867Y-106068213D01*
X122894739Y-106077844D01*
X122890754Y-106087513D01*
X122849156Y-106175915D01*
X122847647Y-106179064D01*
X122842589Y-106188264D01*
X122837687Y-106197484D01*
X122787660Y-106281404D01*
X122785852Y-106284390D01*
X122779914Y-106293062D01*
X122774143Y-106301748D01*
X122716176Y-106380371D01*
X122716169Y-106380382D01*
X122716160Y-106380393D01*
X122714076Y-106383181D01*
X122707341Y-106391207D01*
X122700731Y-106399311D01*
X122635365Y-106471908D01*
X122635357Y-106471917D01*
X122635347Y-106471927D01*
X122633005Y-106474494D01*
X122625494Y-106481849D01*
X122618146Y-106489248D01*
X122546010Y-106555117D01*
X122546001Y-106555126D01*
X122545990Y-106555135D01*
X122543405Y-106557463D01*
X122535263Y-106564009D01*
X122527181Y-106570695D01*
X122448950Y-106629220D01*
X122446140Y-106631292D01*
X122437368Y-106637032D01*
X122428700Y-106642879D01*
X122345140Y-106693484D01*
X122345131Y-106693490D01*
X122345120Y-106693496D01*
X122342132Y-106695278D01*
X122332842Y-106700134D01*
X122323645Y-106705107D01*
X122235553Y-106747313D01*
X122235537Y-106747322D01*
X122235517Y-106747330D01*
X122232378Y-106748808D01*
X122222671Y-106752730D01*
X122213020Y-106756786D01*
X122121219Y-106790198D01*
X122121213Y-106790201D01*
X122121205Y-106790203D01*
X122117923Y-106791373D01*
X122107875Y-106794330D01*
X122097880Y-106797424D01*
X122003251Y-106821721D01*
X121999864Y-106822566D01*
X121989553Y-106824533D01*
X121979325Y-106826632D01*
X121882775Y-106841579D01*
X121879322Y-106842089D01*
X121868875Y-106843040D01*
X121858484Y-106844132D01*
X121760937Y-106849586D01*
X121757450Y-106849757D01*
X121752646Y-106849723D01*
X121747840Y-106849975D01*
X121740859Y-106849999D01*
X121737368Y-106849987D01*
X121712987Y-106848536D01*
X121688863Y-106844714D01*
X121665228Y-106838556D01*
X121642306Y-106830121D01*
X121620316Y-106819490D01*
X121599468Y-106806762D01*
X121579962Y-106792062D01*
X121561984Y-106775529D01*
X121545706Y-106757320D01*
X121531281Y-106737609D01*
X121518848Y-106716585D01*
X121508527Y-106694448D01*
X121500416Y-106671409D01*
X121494590Y-106647689D01*
X121491108Y-106623514D01*
X121490001Y-106599114D01*
X121491282Y-106574723D01*
X121494935Y-106550573D01*
X121500927Y-106526894D01*
X121509202Y-106503914D01*
X121519681Y-106481851D01*
X121532262Y-106460915D01*
X121546825Y-106441307D01*
X121563232Y-106423214D01*
X121581328Y-106406808D01*
X121600937Y-106392247D01*
X121621874Y-106379668D01*
X121643938Y-106369192D01*
X121666920Y-106360920D01*
X121690598Y-106354929D01*
X121714749Y-106351278D01*
X121739141Y-106350001D01*
X121739580Y-106349999D01*
X121818362Y-106345595D01*
X121890744Y-106334389D01*
X121961700Y-106316171D01*
X122030527Y-106291119D01*
X122096585Y-106259469D01*
X122159224Y-106221534D01*
X122217879Y-106177653D01*
X122271968Y-106128264D01*
X122320975Y-106073835D01*
X122364445Y-106014873D01*
X122401944Y-105951969D01*
X122433133Y-105885689D01*
X122457703Y-105816687D01*
X122475424Y-105745613D01*
X122486123Y-105673155D01*
X122490299Y-105587786D01*
X122490493Y-105584301D01*
X122493216Y-105560029D01*
X122498294Y-105536137D01*
X122505680Y-105512856D01*
X122515302Y-105490406D01*
X122527068Y-105469003D01*
X122540869Y-105448849D01*
X122556568Y-105430139D01*
X122574019Y-105413050D01*
X122593054Y-105397745D01*
X122613492Y-105384371D01*
X122635138Y-105373055D01*
X122657784Y-105363905D01*
X122681216Y-105357010D01*
X122705208Y-105352432D01*
X122729532Y-105350219D01*
X122753956Y-105350389D01*
G37*
%TD.AperFunction*%
%TA.AperFunction,SMDPad,CuDef*%
%TO.P,Reg1,3*%
%TO.N,GND*%
G36*
X126253491Y-101450024D02*
G01*
X126257858Y-101450299D01*
X126262214Y-101450299D01*
X126306107Y-101452446D01*
X126306121Y-101452446D01*
X126306137Y-101452448D01*
X126309613Y-101452641D01*
X126320056Y-101453813D01*
X126330430Y-101454830D01*
X126373919Y-101461251D01*
X126373925Y-101461252D01*
X126373932Y-101461253D01*
X126377374Y-101461785D01*
X126387668Y-101463973D01*
X126397885Y-101465996D01*
X126440528Y-101476628D01*
X126440543Y-101476631D01*
X126440559Y-101476636D01*
X126443926Y-101477500D01*
X126453902Y-101480665D01*
X126463925Y-101483691D01*
X126505343Y-101498439D01*
X126505349Y-101498441D01*
X126505353Y-101498443D01*
X126508624Y-101499633D01*
X126518236Y-101503753D01*
X126527931Y-101507749D01*
X126567712Y-101526469D01*
X126570860Y-101527978D01*
X126580028Y-101533018D01*
X126589269Y-101537932D01*
X126627033Y-101560443D01*
X126630019Y-101562251D01*
X126638676Y-101568178D01*
X126647382Y-101573963D01*
X126682751Y-101600039D01*
X126682768Y-101600051D01*
X126682786Y-101600066D01*
X126685565Y-101602144D01*
X126693575Y-101608865D01*
X126701696Y-101615489D01*
X126734368Y-101644907D01*
X126736946Y-101647261D01*
X126744260Y-101654730D01*
X126751698Y-101662116D01*
X126781333Y-101694571D01*
X126781345Y-101694583D01*
X126781357Y-101694598D01*
X126783680Y-101697176D01*
X126790243Y-101705339D01*
X126796914Y-101713403D01*
X126823250Y-101748607D01*
X126825322Y-101751417D01*
X126831058Y-101760184D01*
X126836908Y-101768856D01*
X126859683Y-101806462D01*
X126861471Y-101809461D01*
X126866307Y-101818712D01*
X126871302Y-101827950D01*
X126890298Y-101867600D01*
X126891784Y-101870758D01*
X126895704Y-101880461D01*
X126899761Y-101890111D01*
X126914791Y-101931406D01*
X126914798Y-101931424D01*
X126914805Y-101931445D01*
X126915969Y-101934713D01*
X126918932Y-101944782D01*
X126922020Y-101954757D01*
X126932951Y-101997328D01*
X126932955Y-101997342D01*
X126932958Y-101997359D01*
X126933799Y-102000728D01*
X126935761Y-102011014D01*
X126937866Y-102021268D01*
X126944592Y-102064716D01*
X126945102Y-102068169D01*
X126946053Y-102078620D01*
X126947145Y-102089008D01*
X126949599Y-102132904D01*
X126949770Y-102136391D01*
X126949736Y-102141199D01*
X126949987Y-102145983D01*
X126949998Y-102149125D01*
X126949996Y-102149909D01*
X126950000Y-102150000D01*
X126950000Y-106950000D01*
X126949976Y-106953491D01*
X126948442Y-106977867D01*
X126944537Y-107001978D01*
X126938298Y-107025592D01*
X126929784Y-107048485D01*
X126919077Y-107070438D01*
X126906278Y-107091242D01*
X126891511Y-107110697D01*
X126874916Y-107128618D01*
X126856651Y-107144834D01*
X126836891Y-107159191D01*
X126815824Y-107171551D01*
X126812500Y-107173087D01*
X126812500Y-108300000D01*
X128300000Y-108300000D01*
X128303491Y-108300024D01*
X128327867Y-108301558D01*
X128351978Y-108305463D01*
X128375592Y-108311702D01*
X128398485Y-108320216D01*
X128420438Y-108330923D01*
X128441242Y-108343722D01*
X128460697Y-108358489D01*
X128478618Y-108375084D01*
X128494834Y-108393349D01*
X128509191Y-108413109D01*
X128521551Y-108434176D01*
X128531796Y-108456348D01*
X128539828Y-108479415D01*
X128545572Y-108503155D01*
X128548971Y-108527342D01*
X128549994Y-108551745D01*
X128548630Y-108576132D01*
X128544894Y-108600269D01*
X128538820Y-108623927D01*
X128530466Y-108646879D01*
X128519912Y-108668906D01*
X128507259Y-108689798D01*
X128492628Y-108709356D01*
X128476159Y-108727393D01*
X128458007Y-108743736D01*
X128438348Y-108758230D01*
X128417368Y-108770737D01*
X128395268Y-108781137D01*
X128372258Y-108789330D01*
X128348559Y-108795239D01*
X128324396Y-108798807D01*
X128300000Y-108800000D01*
X121700000Y-108800000D01*
X121696509Y-108799976D01*
X121672133Y-108798442D01*
X121648022Y-108794537D01*
X121624408Y-108788298D01*
X121601515Y-108779784D01*
X121579562Y-108769077D01*
X121558758Y-108756278D01*
X121539303Y-108741511D01*
X121521382Y-108724916D01*
X121505166Y-108706651D01*
X121490809Y-108686891D01*
X121478449Y-108665824D01*
X121468204Y-108643652D01*
X121460172Y-108620585D01*
X121454428Y-108596845D01*
X121451029Y-108572658D01*
X121450006Y-108548255D01*
X121451370Y-108523868D01*
X121455106Y-108499731D01*
X121461180Y-108476073D01*
X121469534Y-108453121D01*
X121480088Y-108431094D01*
X121492741Y-108410202D01*
X121507372Y-108390644D01*
X121523841Y-108372607D01*
X121541993Y-108356264D01*
X121561652Y-108341770D01*
X121582632Y-108329263D01*
X121604732Y-108318863D01*
X121627742Y-108310670D01*
X121651441Y-108304761D01*
X121675604Y-108301193D01*
X121700000Y-108300000D01*
X126312500Y-108300000D01*
X126312500Y-106950000D01*
X126312524Y-106946509D01*
X126314058Y-106922133D01*
X126317963Y-106898022D01*
X126324202Y-106874408D01*
X126332716Y-106851515D01*
X126343423Y-106829562D01*
X126356222Y-106808758D01*
X126370989Y-106789303D01*
X126387584Y-106771382D01*
X126405849Y-106755166D01*
X126425609Y-106740809D01*
X126446676Y-106728449D01*
X126450000Y-106726913D01*
X126450000Y-102154033D01*
X126448608Y-102129127D01*
X126445622Y-102109842D01*
X126440772Y-102090954D01*
X126434095Y-102072608D01*
X126425664Y-102055013D01*
X126415560Y-102038329D01*
X126403874Y-102022708D01*
X126390715Y-102008297D01*
X126376212Y-101995239D01*
X126360516Y-101983666D01*
X126343757Y-101973676D01*
X126326099Y-101965367D01*
X126307720Y-101958822D01*
X126288793Y-101954103D01*
X126269485Y-101951252D01*
X126243899Y-101950000D01*
X123254033Y-101950000D01*
X123229127Y-101951392D01*
X123209842Y-101954378D01*
X123190954Y-101959228D01*
X123172608Y-101965905D01*
X123155013Y-101974336D01*
X123138329Y-101984440D01*
X123122708Y-101996126D01*
X123108297Y-102009285D01*
X123095239Y-102023788D01*
X123083666Y-102039484D01*
X123073676Y-102056243D01*
X123065367Y-102073901D01*
X123058822Y-102092280D01*
X123054103Y-102111207D01*
X123051252Y-102130515D01*
X123050000Y-102156101D01*
X123050000Y-102650000D01*
X123049976Y-102653491D01*
X123048442Y-102677867D01*
X123044537Y-102701978D01*
X123038298Y-102725592D01*
X123029784Y-102748485D01*
X123019077Y-102770438D01*
X123006278Y-102791242D01*
X122991511Y-102810697D01*
X122974916Y-102828618D01*
X122956651Y-102844834D01*
X122936891Y-102859191D01*
X122915824Y-102871551D01*
X122893652Y-102881796D01*
X122870585Y-102889828D01*
X122846845Y-102895572D01*
X122822658Y-102898971D01*
X122798255Y-102899994D01*
X122773868Y-102898630D01*
X122749731Y-102894894D01*
X122726073Y-102888820D01*
X122703121Y-102880466D01*
X122681094Y-102869912D01*
X122660202Y-102857259D01*
X122640644Y-102842628D01*
X122622607Y-102826159D01*
X122606264Y-102808007D01*
X122591770Y-102788348D01*
X122579263Y-102767368D01*
X122568863Y-102745268D01*
X122560670Y-102722258D01*
X122554761Y-102698559D01*
X122551193Y-102674396D01*
X122550000Y-102650000D01*
X122550000Y-102150000D01*
X122550024Y-102146509D01*
X122550299Y-102142142D01*
X122550299Y-102137786D01*
X122552446Y-102093893D01*
X122552446Y-102093879D01*
X122552448Y-102093863D01*
X122552641Y-102090387D01*
X122553813Y-102079944D01*
X122554830Y-102069570D01*
X122561252Y-102026077D01*
X122561785Y-102022626D01*
X122563973Y-102012332D01*
X122565996Y-102002115D01*
X122576628Y-101959472D01*
X122576631Y-101959457D01*
X122576636Y-101959441D01*
X122577500Y-101956074D01*
X122580665Y-101946098D01*
X122583691Y-101936075D01*
X122598439Y-101894657D01*
X122599633Y-101891376D01*
X122603753Y-101881764D01*
X122607749Y-101872069D01*
X122626469Y-101832288D01*
X122627978Y-101829140D01*
X122633018Y-101819972D01*
X122637932Y-101810731D01*
X122660443Y-101772967D01*
X122662251Y-101769981D01*
X122668178Y-101761324D01*
X122673963Y-101752618D01*
X122700039Y-101717249D01*
X122700051Y-101717232D01*
X122700066Y-101717214D01*
X122702144Y-101714435D01*
X122708865Y-101706425D01*
X122715489Y-101698304D01*
X122744907Y-101665632D01*
X122747261Y-101663054D01*
X122754730Y-101655740D01*
X122762116Y-101648302D01*
X122794571Y-101618667D01*
X122794583Y-101618655D01*
X122794598Y-101618643D01*
X122797176Y-101616320D01*
X122805339Y-101609757D01*
X122813403Y-101603086D01*
X122848607Y-101576750D01*
X122851417Y-101574678D01*
X122860184Y-101568942D01*
X122868856Y-101563092D01*
X122906462Y-101540317D01*
X122909461Y-101538529D01*
X122918712Y-101533693D01*
X122927950Y-101528698D01*
X122967600Y-101509702D01*
X122970758Y-101508216D01*
X122980461Y-101504296D01*
X122990111Y-101500239D01*
X123031406Y-101485209D01*
X123031424Y-101485202D01*
X123031445Y-101485195D01*
X123034713Y-101484031D01*
X123044782Y-101481068D01*
X123054757Y-101477980D01*
X123097328Y-101467049D01*
X123097342Y-101467045D01*
X123097359Y-101467042D01*
X123100728Y-101466201D01*
X123111014Y-101464239D01*
X123121268Y-101462134D01*
X123164716Y-101455408D01*
X123168169Y-101454898D01*
X123178620Y-101453947D01*
X123189008Y-101452855D01*
X123232904Y-101450401D01*
X123236391Y-101450230D01*
X123241199Y-101450264D01*
X123245983Y-101450013D01*
X123249125Y-101450002D01*
X123249909Y-101450004D01*
X123250000Y-101450000D01*
X126250000Y-101450000D01*
X126253491Y-101450024D01*
G37*
%TD.AperFunction*%
D19*
%TO.P,Reg1,4*%
%TO.N,+3V3*%
X128200000Y-104850000D03*
D20*
%TO.P,Reg1,~*%
%TO.N,N/C*%
X123750000Y-102700000D03*
%TO.P,Reg1,4*%
%TO.N,+3V3*%
X121850000Y-102700000D03*
%TO.P,Reg1,3*%
%TO.N,GND*%
X122800000Y-102700000D03*
%TO.P,Reg1,1*%
%TO.N,+12V*%
X121850000Y-105400000D03*
%TO.P,Reg1,2*%
X122800000Y-105400000D03*
%TO.P,Reg1,~*%
%TO.N,N/C*%
X123750000Y-105400000D03*
%TO.P,Reg1,4*%
%TO.N,+3V3*%
%TA.AperFunction,SMDPad,CuDef*%
G36*
G01*
X127725000Y-106150000D02*
X128675000Y-106150000D01*
G75*
G02*
X128925000Y-106400000I0J-250000D01*
G01*
X128925000Y-106900000D01*
G75*
G02*
X128675000Y-107150000I-250000J0D01*
G01*
X127725000Y-107150000D01*
G75*
G02*
X127475000Y-106900000I0J250000D01*
G01*
X127475000Y-106400000D01*
G75*
G02*
X127725000Y-106150000I250000J0D01*
G01*
G37*
%TD.AperFunction*%
%TO.P,Reg1,3*%
%TO.N,GND*%
%TA.AperFunction,SMDPad,CuDef*%
G36*
G01*
X127725000Y-108050000D02*
X128675000Y-108050000D01*
G75*
G02*
X128925000Y-108300000I0J-250000D01*
G01*
X128925000Y-108800000D01*
G75*
G02*
X128675000Y-109050000I-250000J0D01*
G01*
X127725000Y-109050000D01*
G75*
G02*
X127475000Y-108800000I0J250000D01*
G01*
X127475000Y-108300000D01*
G75*
G02*
X127725000Y-108050000I250000J0D01*
G01*
G37*
%TD.AperFunction*%
%TA.AperFunction,SMDPad,CuDef*%
G36*
G01*
X121475000Y-108050000D02*
X122425000Y-108050000D01*
G75*
G02*
X122675000Y-108300000I0J-250000D01*
G01*
X122675000Y-108800000D01*
G75*
G02*
X122425000Y-109050000I-250000J0D01*
G01*
X121475000Y-109050000D01*
G75*
G02*
X121225000Y-108800000I0J250000D01*
G01*
X121225000Y-108300000D01*
G75*
G02*
X121475000Y-108050000I250000J0D01*
G01*
G37*
%TD.AperFunction*%
%TO.P,Reg1,2*%
%TO.N,+12V*%
%TA.AperFunction,SMDPad,CuDef*%
G36*
G01*
X121475000Y-106150000D02*
X122425000Y-106150000D01*
G75*
G02*
X122675000Y-106400000I0J-250000D01*
G01*
X122675000Y-106900000D01*
G75*
G02*
X122425000Y-107150000I-250000J0D01*
G01*
X121475000Y-107150000D01*
G75*
G02*
X121225000Y-106900000I0J250000D01*
G01*
X121225000Y-106400000D01*
G75*
G02*
X121475000Y-106150000I250000J0D01*
G01*
G37*
%TD.AperFunction*%
%TO.P,Reg1,~*%
%TO.N,N/C*%
%TA.AperFunction,SMDPad,CuDef*%
G36*
G01*
X120950000Y-103725000D02*
X120450000Y-103725000D01*
G75*
G02*
X120225000Y-103500000I0J225000D01*
G01*
X120225000Y-103050000D01*
G75*
G02*
X120450000Y-102825000I225000J0D01*
G01*
X120950000Y-102825000D01*
G75*
G02*
X121175000Y-103050000I0J-225000D01*
G01*
X121175000Y-103500000D01*
G75*
G02*
X120950000Y-103725000I-225000J0D01*
G01*
G37*
%TD.AperFunction*%
%TA.AperFunction,SMDPad,CuDef*%
G36*
G01*
X120950000Y-105275000D02*
X120450000Y-105275000D01*
G75*
G02*
X120225000Y-105050000I0J225000D01*
G01*
X120225000Y-104600000D01*
G75*
G02*
X120450000Y-104375000I225000J0D01*
G01*
X120950000Y-104375000D01*
G75*
G02*
X121175000Y-104600000I0J-225000D01*
G01*
X121175000Y-105050000D01*
G75*
G02*
X120950000Y-105275000I-225000J0D01*
G01*
G37*
%TD.AperFunction*%
%TA.AperFunction,SMDPad,CuDef*%
G36*
G01*
X122875000Y-107845626D02*
X122875000Y-106594374D01*
G75*
G02*
X123124374Y-106345000I249374J0D01*
G01*
X124050626Y-106345000D01*
G75*
G02*
X124300000Y-106594374I0J-249374D01*
G01*
X124300000Y-107845626D01*
G75*
G02*
X124050626Y-108095000I-249374J0D01*
G01*
X123124374Y-108095000D01*
G75*
G02*
X122875000Y-107845626I0J249374D01*
G01*
G37*
%TD.AperFunction*%
%TO.P,Reg1,3*%
%TO.N,GND*%
%TA.AperFunction,SMDPad,CuDef*%
G36*
G01*
X125850000Y-107845626D02*
X125850000Y-106594374D01*
G75*
G02*
X126099374Y-106345000I249374J0D01*
G01*
X127025626Y-106345000D01*
G75*
G02*
X127275000Y-106594374I0J-249374D01*
G01*
X127275000Y-107845626D01*
G75*
G02*
X127025626Y-108095000I-249374J0D01*
G01*
X126099374Y-108095000D01*
G75*
G02*
X125850000Y-107845626I0J249374D01*
G01*
G37*
%TD.AperFunction*%
D21*
%TO.P,Reg1,4*%
%TO.N,+3V3*%
X128200000Y-104100000D03*
%TO.P,Reg1,~*%
%TO.N,N/C*%
X125200000Y-104100000D03*
%TD*%
%TO.P,R8,2*%
%TO.N,Net-(J2-PadB5)*%
%TA.AperFunction,SMDPad,CuDef*%
G36*
G01*
X119525000Y-111675000D02*
X119525000Y-111125000D01*
G75*
G02*
X119725000Y-110925000I200000J0D01*
G01*
X120125000Y-110925000D01*
G75*
G02*
X120325000Y-111125000I0J-200000D01*
G01*
X120325000Y-111675000D01*
G75*
G02*
X120125000Y-111875000I-200000J0D01*
G01*
X119725000Y-111875000D01*
G75*
G02*
X119525000Y-111675000I0J200000D01*
G01*
G37*
%TD.AperFunction*%
%TO.P,R8,1*%
%TO.N,GND*%
%TA.AperFunction,SMDPad,CuDef*%
G36*
G01*
X117875000Y-111675000D02*
X117875000Y-111125000D01*
G75*
G02*
X118075000Y-110925000I200000J0D01*
G01*
X118475000Y-110925000D01*
G75*
G02*
X118675000Y-111125000I0J-200000D01*
G01*
X118675000Y-111675000D01*
G75*
G02*
X118475000Y-111875000I-200000J0D01*
G01*
X118075000Y-111875000D01*
G75*
G02*
X117875000Y-111675000I0J200000D01*
G01*
G37*
%TD.AperFunction*%
%TD*%
%TO.P,R7,2*%
%TO.N,GND*%
%TA.AperFunction,SMDPad,CuDef*%
G36*
G01*
X118675000Y-116525000D02*
X118675000Y-117075000D01*
G75*
G02*
X118475000Y-117275000I-200000J0D01*
G01*
X118075000Y-117275000D01*
G75*
G02*
X117875000Y-117075000I0J200000D01*
G01*
X117875000Y-116525000D01*
G75*
G02*
X118075000Y-116325000I200000J0D01*
G01*
X118475000Y-116325000D01*
G75*
G02*
X118675000Y-116525000I0J-200000D01*
G01*
G37*
%TD.AperFunction*%
%TO.P,R7,1*%
%TO.N,Net-(J2-PadA5)*%
%TA.AperFunction,SMDPad,CuDef*%
G36*
G01*
X120325000Y-116525000D02*
X120325000Y-117075000D01*
G75*
G02*
X120125000Y-117275000I-200000J0D01*
G01*
X119725000Y-117275000D01*
G75*
G02*
X119525000Y-117075000I0J200000D01*
G01*
X119525000Y-116525000D01*
G75*
G02*
X119725000Y-116325000I200000J0D01*
G01*
X120125000Y-116325000D01*
G75*
G02*
X120325000Y-116525000I0J-200000D01*
G01*
G37*
%TD.AperFunction*%
%TD*%
%TO.P,R6,1*%
%TO.N,IO5*%
%TA.AperFunction,SMDPad,CuDef*%
G36*
G01*
X111075000Y-120649900D02*
X111075000Y-119750100D01*
G75*
G02*
X111325100Y-119500000I250100J0D01*
G01*
X111849900Y-119500000D01*
G75*
G02*
X112100000Y-119750100I0J-250100D01*
G01*
X112100000Y-120649900D01*
G75*
G02*
X111849900Y-120900000I-250100J0D01*
G01*
X111325100Y-120900000D01*
G75*
G02*
X111075000Y-120649900I0J250100D01*
G01*
G37*
%TD.AperFunction*%
%TO.P,R6,2*%
%TO.N,Net-(J1-Pad6)*%
%TA.AperFunction,SMDPad,CuDef*%
G36*
G01*
X112900000Y-120649900D02*
X112900000Y-119750100D01*
G75*
G02*
X113150100Y-119500000I250100J0D01*
G01*
X113674900Y-119500000D01*
G75*
G02*
X113925000Y-119750100I0J-250100D01*
G01*
X113925000Y-120649900D01*
G75*
G02*
X113674900Y-120900000I-250100J0D01*
G01*
X113150100Y-120900000D01*
G75*
G02*
X112900000Y-120649900I0J250100D01*
G01*
G37*
%TD.AperFunction*%
%TA.AperFunction,SMDPad,CuDef*%
G36*
G01*
X113400000Y-120825250D02*
X113400000Y-119574750D01*
G75*
G02*
X113649750Y-119325000I249750J0D01*
G01*
X114275250Y-119325000D01*
G75*
G02*
X114525000Y-119574750I0J-249750D01*
G01*
X114525000Y-120825250D01*
G75*
G02*
X114275250Y-121075000I-249750J0D01*
G01*
X113649750Y-121075000D01*
G75*
G02*
X113400000Y-120825250I0J249750D01*
G01*
G37*
%TD.AperFunction*%
%TO.P,R6,1*%
%TO.N,IO5*%
%TA.AperFunction,SMDPad,CuDef*%
G36*
G01*
X110475000Y-120825250D02*
X110475000Y-119574750D01*
G75*
G02*
X110724750Y-119325000I249750J0D01*
G01*
X111350250Y-119325000D01*
G75*
G02*
X111600000Y-119574750I0J-249750D01*
G01*
X111600000Y-120825250D01*
G75*
G02*
X111350250Y-121075000I-249750J0D01*
G01*
X110724750Y-121075000D01*
G75*
G02*
X110475000Y-120825250I0J249750D01*
G01*
G37*
%TD.AperFunction*%
%TD*%
%TO.P,R5,1*%
%TO.N,+12V*%
%TA.AperFunction,SMDPad,CuDef*%
G36*
G01*
X112849900Y-128175000D02*
X111950100Y-128175000D01*
G75*
G02*
X111700000Y-127924900I0J250100D01*
G01*
X111700000Y-127400100D01*
G75*
G02*
X111950100Y-127150000I250100J0D01*
G01*
X112849900Y-127150000D01*
G75*
G02*
X113100000Y-127400100I0J-250100D01*
G01*
X113100000Y-127924900D01*
G75*
G02*
X112849900Y-128175000I-250100J0D01*
G01*
G37*
%TD.AperFunction*%
%TO.P,R5,2*%
%TO.N,Net-(J1-Pad6)*%
%TA.AperFunction,SMDPad,CuDef*%
G36*
G01*
X112849900Y-126350000D02*
X111950100Y-126350000D01*
G75*
G02*
X111700000Y-126099900I0J250100D01*
G01*
X111700000Y-125575100D01*
G75*
G02*
X111950100Y-125325000I250100J0D01*
G01*
X112849900Y-125325000D01*
G75*
G02*
X113100000Y-125575100I0J-250100D01*
G01*
X113100000Y-126099900D01*
G75*
G02*
X112849900Y-126350000I-250100J0D01*
G01*
G37*
%TD.AperFunction*%
%TA.AperFunction,SMDPad,CuDef*%
G36*
G01*
X113025250Y-125850000D02*
X111774750Y-125850000D01*
G75*
G02*
X111525000Y-125600250I0J249750D01*
G01*
X111525000Y-124974750D01*
G75*
G02*
X111774750Y-124725000I249750J0D01*
G01*
X113025250Y-124725000D01*
G75*
G02*
X113275000Y-124974750I0J-249750D01*
G01*
X113275000Y-125600250D01*
G75*
G02*
X113025250Y-125850000I-249750J0D01*
G01*
G37*
%TD.AperFunction*%
%TO.P,R5,1*%
%TO.N,+12V*%
%TA.AperFunction,SMDPad,CuDef*%
G36*
G01*
X113025250Y-128775000D02*
X111774750Y-128775000D01*
G75*
G02*
X111525000Y-128525250I0J249750D01*
G01*
X111525000Y-127899750D01*
G75*
G02*
X111774750Y-127650000I249750J0D01*
G01*
X113025250Y-127650000D01*
G75*
G02*
X113275000Y-127899750I0J-249750D01*
G01*
X113275000Y-128525250D01*
G75*
G02*
X113025250Y-128775000I-249750J0D01*
G01*
G37*
%TD.AperFunction*%
%TD*%
%TO.P,R4,1*%
%TO.N,+3V3*%
%TA.AperFunction,SMDPad,CuDef*%
G36*
G01*
X116119900Y-128175000D02*
X115220100Y-128175000D01*
G75*
G02*
X114970000Y-127924900I0J250100D01*
G01*
X114970000Y-127400100D01*
G75*
G02*
X115220100Y-127150000I250100J0D01*
G01*
X116119900Y-127150000D01*
G75*
G02*
X116370000Y-127400100I0J-250100D01*
G01*
X116370000Y-127924900D01*
G75*
G02*
X116119900Y-128175000I-250100J0D01*
G01*
G37*
%TD.AperFunction*%
%TO.P,R4,2*%
%TO.N,IO4*%
%TA.AperFunction,SMDPad,CuDef*%
G36*
G01*
X116119900Y-126350000D02*
X115220100Y-126350000D01*
G75*
G02*
X114970000Y-126099900I0J250100D01*
G01*
X114970000Y-125575100D01*
G75*
G02*
X115220100Y-125325000I250100J0D01*
G01*
X116119900Y-125325000D01*
G75*
G02*
X116370000Y-125575100I0J-250100D01*
G01*
X116370000Y-126099900D01*
G75*
G02*
X116119900Y-126350000I-250100J0D01*
G01*
G37*
%TD.AperFunction*%
%TA.AperFunction,SMDPad,CuDef*%
G36*
G01*
X116295250Y-125850000D02*
X115044750Y-125850000D01*
G75*
G02*
X114795000Y-125600250I0J249750D01*
G01*
X114795000Y-124974750D01*
G75*
G02*
X115044750Y-124725000I249750J0D01*
G01*
X116295250Y-124725000D01*
G75*
G02*
X116545000Y-124974750I0J-249750D01*
G01*
X116545000Y-125600250D01*
G75*
G02*
X116295250Y-125850000I-249750J0D01*
G01*
G37*
%TD.AperFunction*%
%TO.P,R4,1*%
%TO.N,+3V3*%
%TA.AperFunction,SMDPad,CuDef*%
G36*
G01*
X116295250Y-128775000D02*
X115044750Y-128775000D01*
G75*
G02*
X114795000Y-128525250I0J249750D01*
G01*
X114795000Y-127899750D01*
G75*
G02*
X115044750Y-127650000I249750J0D01*
G01*
X116295250Y-127650000D01*
G75*
G02*
X116545000Y-127899750I0J-249750D01*
G01*
X116545000Y-128525250D01*
G75*
G02*
X116295250Y-128775000I-249750J0D01*
G01*
G37*
%TD.AperFunction*%
%TD*%
%TO.P,R3,1*%
%TO.N,+3V3*%
%TA.AperFunction,SMDPad,CuDef*%
G36*
G01*
X118619900Y-128175000D02*
X117720100Y-128175000D01*
G75*
G02*
X117470000Y-127924900I0J250100D01*
G01*
X117470000Y-127400100D01*
G75*
G02*
X117720100Y-127150000I250100J0D01*
G01*
X118619900Y-127150000D01*
G75*
G02*
X118870000Y-127400100I0J-250100D01*
G01*
X118870000Y-127924900D01*
G75*
G02*
X118619900Y-128175000I-250100J0D01*
G01*
G37*
%TD.AperFunction*%
%TO.P,R3,2*%
%TO.N,IO3*%
%TA.AperFunction,SMDPad,CuDef*%
G36*
G01*
X118619900Y-126350000D02*
X117720100Y-126350000D01*
G75*
G02*
X117470000Y-126099900I0J250100D01*
G01*
X117470000Y-125575100D01*
G75*
G02*
X117720100Y-125325000I250100J0D01*
G01*
X118619900Y-125325000D01*
G75*
G02*
X118870000Y-125575100I0J-250100D01*
G01*
X118870000Y-126099900D01*
G75*
G02*
X118619900Y-126350000I-250100J0D01*
G01*
G37*
%TD.AperFunction*%
%TA.AperFunction,SMDPad,CuDef*%
G36*
G01*
X118795250Y-125850000D02*
X117544750Y-125850000D01*
G75*
G02*
X117295000Y-125600250I0J249750D01*
G01*
X117295000Y-124974750D01*
G75*
G02*
X117544750Y-124725000I249750J0D01*
G01*
X118795250Y-124725000D01*
G75*
G02*
X119045000Y-124974750I0J-249750D01*
G01*
X119045000Y-125600250D01*
G75*
G02*
X118795250Y-125850000I-249750J0D01*
G01*
G37*
%TD.AperFunction*%
%TO.P,R3,1*%
%TO.N,+3V3*%
%TA.AperFunction,SMDPad,CuDef*%
G36*
G01*
X118795250Y-128775000D02*
X117544750Y-128775000D01*
G75*
G02*
X117295000Y-128525250I0J249750D01*
G01*
X117295000Y-127899750D01*
G75*
G02*
X117544750Y-127650000I249750J0D01*
G01*
X118795250Y-127650000D01*
G75*
G02*
X119045000Y-127899750I0J-249750D01*
G01*
X119045000Y-128525250D01*
G75*
G02*
X118795250Y-128775000I-249750J0D01*
G01*
G37*
%TD.AperFunction*%
%TD*%
%TO.P,R2,1*%
%TO.N,+3V3*%
%TA.AperFunction,SMDPad,CuDef*%
G36*
G01*
X121119900Y-128175000D02*
X120220100Y-128175000D01*
G75*
G02*
X119970000Y-127924900I0J250100D01*
G01*
X119970000Y-127400100D01*
G75*
G02*
X120220100Y-127150000I250100J0D01*
G01*
X121119900Y-127150000D01*
G75*
G02*
X121370000Y-127400100I0J-250100D01*
G01*
X121370000Y-127924900D01*
G75*
G02*
X121119900Y-128175000I-250100J0D01*
G01*
G37*
%TD.AperFunction*%
%TO.P,R2,2*%
%TO.N,IO2*%
%TA.AperFunction,SMDPad,CuDef*%
G36*
G01*
X121119900Y-126350000D02*
X120220100Y-126350000D01*
G75*
G02*
X119970000Y-126099900I0J250100D01*
G01*
X119970000Y-125575100D01*
G75*
G02*
X120220100Y-125325000I250100J0D01*
G01*
X121119900Y-125325000D01*
G75*
G02*
X121370000Y-125575100I0J-250100D01*
G01*
X121370000Y-126099900D01*
G75*
G02*
X121119900Y-126350000I-250100J0D01*
G01*
G37*
%TD.AperFunction*%
%TA.AperFunction,SMDPad,CuDef*%
G36*
G01*
X121295250Y-125850000D02*
X120044750Y-125850000D01*
G75*
G02*
X119795000Y-125600250I0J249750D01*
G01*
X119795000Y-124974750D01*
G75*
G02*
X120044750Y-124725000I249750J0D01*
G01*
X121295250Y-124725000D01*
G75*
G02*
X121545000Y-124974750I0J-249750D01*
G01*
X121545000Y-125600250D01*
G75*
G02*
X121295250Y-125850000I-249750J0D01*
G01*
G37*
%TD.AperFunction*%
%TO.P,R2,1*%
%TO.N,+3V3*%
%TA.AperFunction,SMDPad,CuDef*%
G36*
G01*
X121295250Y-128775000D02*
X120044750Y-128775000D01*
G75*
G02*
X119795000Y-128525250I0J249750D01*
G01*
X119795000Y-127899750D01*
G75*
G02*
X120044750Y-127650000I249750J0D01*
G01*
X121295250Y-127650000D01*
G75*
G02*
X121545000Y-127899750I0J-249750D01*
G01*
X121545000Y-128525250D01*
G75*
G02*
X121295250Y-128775000I-249750J0D01*
G01*
G37*
%TD.AperFunction*%
%TD*%
%TO.P,R1,1*%
%TO.N,+3V3*%
%TA.AperFunction,SMDPad,CuDef*%
G36*
G01*
X123619900Y-128175000D02*
X122720100Y-128175000D01*
G75*
G02*
X122470000Y-127924900I0J250100D01*
G01*
X122470000Y-127400100D01*
G75*
G02*
X122720100Y-127150000I250100J0D01*
G01*
X123619900Y-127150000D01*
G75*
G02*
X123870000Y-127400100I0J-250100D01*
G01*
X123870000Y-127924900D01*
G75*
G02*
X123619900Y-128175000I-250100J0D01*
G01*
G37*
%TD.AperFunction*%
%TO.P,R1,2*%
%TO.N,IO1*%
%TA.AperFunction,SMDPad,CuDef*%
G36*
G01*
X123619900Y-126350000D02*
X122720100Y-126350000D01*
G75*
G02*
X122470000Y-126099900I0J250100D01*
G01*
X122470000Y-125575100D01*
G75*
G02*
X122720100Y-125325000I250100J0D01*
G01*
X123619900Y-125325000D01*
G75*
G02*
X123870000Y-125575100I0J-250100D01*
G01*
X123870000Y-126099900D01*
G75*
G02*
X123619900Y-126350000I-250100J0D01*
G01*
G37*
%TD.AperFunction*%
%TA.AperFunction,SMDPad,CuDef*%
G36*
G01*
X123795250Y-125850000D02*
X122544750Y-125850000D01*
G75*
G02*
X122295000Y-125600250I0J249750D01*
G01*
X122295000Y-124974750D01*
G75*
G02*
X122544750Y-124725000I249750J0D01*
G01*
X123795250Y-124725000D01*
G75*
G02*
X124045000Y-124974750I0J-249750D01*
G01*
X124045000Y-125600250D01*
G75*
G02*
X123795250Y-125850000I-249750J0D01*
G01*
G37*
%TD.AperFunction*%
%TO.P,R1,1*%
%TO.N,+3V3*%
%TA.AperFunction,SMDPad,CuDef*%
G36*
G01*
X123795250Y-128775000D02*
X122544750Y-128775000D01*
G75*
G02*
X122295000Y-128525250I0J249750D01*
G01*
X122295000Y-127899750D01*
G75*
G02*
X122544750Y-127650000I249750J0D01*
G01*
X123795250Y-127650000D01*
G75*
G02*
X124045000Y-127899750I0J-249750D01*
G01*
X124045000Y-128525250D01*
G75*
G02*
X123795250Y-128775000I-249750J0D01*
G01*
G37*
%TD.AperFunction*%
%TD*%
%TO.P,C1,1*%
%TO.N,GND*%
%TA.AperFunction,SMDPad,CuDef*%
G36*
G01*
X127562500Y-119750100D02*
X127562500Y-120649900D01*
G75*
G02*
X127312400Y-120900000I-250100J0D01*
G01*
X126787600Y-120900000D01*
G75*
G02*
X126537500Y-120649900I0J250100D01*
G01*
X126537500Y-119750100D01*
G75*
G02*
X126787600Y-119500000I250100J0D01*
G01*
X127312400Y-119500000D01*
G75*
G02*
X127562500Y-119750100I0J-250100D01*
G01*
G37*
%TD.AperFunction*%
%TO.P,C1,2*%
%TO.N,IO1*%
%TA.AperFunction,SMDPad,CuDef*%
G36*
G01*
X125737500Y-119750100D02*
X125737500Y-120649900D01*
G75*
G02*
X125487400Y-120900000I-250100J0D01*
G01*
X124962600Y-120900000D01*
G75*
G02*
X124712500Y-120649900I0J250100D01*
G01*
X124712500Y-119750100D01*
G75*
G02*
X124962600Y-119500000I250100J0D01*
G01*
X125487400Y-119500000D01*
G75*
G02*
X125737500Y-119750100I0J-250100D01*
G01*
G37*
%TD.AperFunction*%
%TA.AperFunction,SMDPad,CuDef*%
G36*
G01*
X125237500Y-119574750D02*
X125237500Y-120825250D01*
G75*
G02*
X124987750Y-121075000I-249750J0D01*
G01*
X124362250Y-121075000D01*
G75*
G02*
X124112500Y-120825250I0J249750D01*
G01*
X124112500Y-119574750D01*
G75*
G02*
X124362250Y-119325000I249750J0D01*
G01*
X124987750Y-119325000D01*
G75*
G02*
X125237500Y-119574750I0J-249750D01*
G01*
G37*
%TD.AperFunction*%
%TO.P,C1,1*%
%TO.N,GND*%
%TA.AperFunction,SMDPad,CuDef*%
G36*
G01*
X128162500Y-119574750D02*
X128162500Y-120825250D01*
G75*
G02*
X127912750Y-121075000I-249750J0D01*
G01*
X127287250Y-121075000D01*
G75*
G02*
X127037500Y-120825250I0J249750D01*
G01*
X127037500Y-119574750D01*
G75*
G02*
X127287250Y-119325000I249750J0D01*
G01*
X127912750Y-119325000D01*
G75*
G02*
X128162500Y-119574750I0J-249750D01*
G01*
G37*
%TD.AperFunction*%
%TD*%
D22*
%TO.P,J1,1*%
%TO.N,GND*%
X125745000Y-122900000D03*
D23*
%TO.P,J1,2*%
%TO.N,IO1*%
X123205000Y-122900000D03*
%TO.P,J1,3*%
%TO.N,IO2*%
X120665000Y-122900000D03*
%TO.P,J1,4*%
%TO.N,IO3*%
X118125000Y-122900000D03*
%TO.P,J1,5*%
%TO.N,IO4*%
X115585000Y-122900000D03*
%TO.P,J1,6*%
%TO.N,Net-(J1-Pad6)*%
X113045000Y-122900000D03*
%TD*%
D24*
%TO.P,J2,S1*%
%TO.N,GND*%
X126155000Y-113400000D03*
%TA.AperFunction,SMDPad,CuDef*%
D13*
G36*
X121915685Y-116586929D02*
G01*
X121917555Y-116574861D01*
X121920591Y-116563032D01*
X121924769Y-116551556D01*
X121930047Y-116540543D01*
X121936373Y-116530097D01*
X121943688Y-116520319D01*
X121951924Y-116511301D01*
X121961001Y-116503129D01*
X121970830Y-116495882D01*
X121981320Y-116489630D01*
X121992371Y-116484430D01*
X122003875Y-116480334D01*
X122015725Y-116477380D01*
X122027807Y-116475596D01*
X122040005Y-116475000D01*
X122052203Y-116475598D01*
X122064284Y-116477382D01*
X122076134Y-116480337D01*
X122087638Y-116484434D01*
X122098688Y-116489634D01*
X122109178Y-116495888D01*
X122119007Y-116503135D01*
X122128082Y-116511308D01*
X122136317Y-116520326D01*
X122143632Y-116530105D01*
X122149958Y-116540551D01*
X122155235Y-116551565D01*
X122159411Y-116563041D01*
X122162447Y-116574871D01*
X122164315Y-116586939D01*
X122164997Y-116599132D01*
X122165052Y-116607023D01*
X122169448Y-116676893D01*
X122180224Y-116743427D01*
X122197443Y-116808595D01*
X122220934Y-116871762D01*
X122250477Y-116932335D01*
X122285792Y-116989739D01*
X122326541Y-117043424D01*
X122372337Y-117092880D01*
X122422737Y-117137627D01*
X122477269Y-117177246D01*
X122535392Y-117211347D01*
X122596580Y-117239619D01*
X122660228Y-117261784D01*
X122725739Y-117277632D01*
X122792476Y-117287012D01*
X122859813Y-117289834D01*
X122927106Y-117286071D01*
X122993718Y-117275760D01*
X123058998Y-117258999D01*
X123118729Y-117237258D01*
X123120691Y-117235888D01*
X123410000Y-116988715D01*
X123410000Y-116398629D01*
X123158200Y-116414471D01*
X123156458Y-116414569D01*
X123153835Y-116414569D01*
X123151225Y-116414715D01*
X123110874Y-116414997D01*
X123109129Y-116414997D01*
X123096934Y-116414315D01*
X123084866Y-116412447D01*
X123073038Y-116409410D01*
X123061561Y-116405233D01*
X123050548Y-116399956D01*
X123040102Y-116393630D01*
X123030323Y-116386315D01*
X123021304Y-116378080D01*
X123013133Y-116369004D01*
X123005885Y-116359174D01*
X122999632Y-116348685D01*
X122994432Y-116337635D01*
X122990336Y-116326130D01*
X122987381Y-116314281D01*
X122985596Y-116302199D01*
X122985000Y-116290001D01*
X122985597Y-116277803D01*
X122987380Y-116265721D01*
X122990335Y-116253871D01*
X122994431Y-116242367D01*
X122999631Y-116231317D01*
X123005884Y-116220827D01*
X123013132Y-116210997D01*
X123021303Y-116201922D01*
X123030321Y-116193686D01*
X123040100Y-116186371D01*
X123050546Y-116180045D01*
X123061560Y-116174768D01*
X123073036Y-116170590D01*
X123084865Y-116167554D01*
X123096933Y-116165685D01*
X123109126Y-116165003D01*
X123145993Y-116164745D01*
X123410000Y-116148135D01*
X123410000Y-110652804D01*
X123379804Y-110648345D01*
X123103894Y-110634851D01*
X123102151Y-110634754D01*
X123090014Y-110633392D01*
X123078069Y-110630852D01*
X123066429Y-110627160D01*
X123055203Y-110622349D01*
X123044502Y-110616466D01*
X123034425Y-110609566D01*
X123025070Y-110601717D01*
X123016525Y-110592991D01*
X123008873Y-110583473D01*
X123002185Y-110573254D01*
X122996528Y-110562431D01*
X122991953Y-110551108D01*
X122988505Y-110539393D01*
X122986216Y-110527397D01*
X122985109Y-110515234D01*
X122985195Y-110503022D01*
X122986472Y-110490877D01*
X122988927Y-110478913D01*
X122992538Y-110467247D01*
X122997271Y-110455990D01*
X123003080Y-110445247D01*
X123009908Y-110435122D01*
X123017693Y-110425712D01*
X123026359Y-110417107D01*
X123035822Y-110409388D01*
X123045995Y-110402630D01*
X123056778Y-110396897D01*
X123068069Y-110392243D01*
X123079760Y-110388713D01*
X123091740Y-110386341D01*
X123103894Y-110385150D01*
X123116106Y-110385149D01*
X123398121Y-110398942D01*
X123399864Y-110399039D01*
X123405118Y-110399629D01*
X123410000Y-110400107D01*
X123410000Y-109809791D01*
X123367229Y-109768066D01*
X123103671Y-109556986D01*
X123049774Y-109538217D01*
X122984261Y-109522368D01*
X122917524Y-109512988D01*
X122850187Y-109510166D01*
X122782894Y-109513929D01*
X122716286Y-109524240D01*
X122651002Y-109541002D01*
X122587677Y-109564051D01*
X122526888Y-109593175D01*
X122469239Y-109628088D01*
X122415276Y-109668458D01*
X122365504Y-109713907D01*
X122320402Y-109763997D01*
X122280408Y-109818244D01*
X122245899Y-109876134D01*
X122217200Y-109937121D01*
X122194594Y-110000608D01*
X122178288Y-110066007D01*
X122168442Y-110132681D01*
X122164851Y-110206107D01*
X122164754Y-110207849D01*
X122163392Y-110219986D01*
X122160852Y-110231931D01*
X122157160Y-110243572D01*
X122152349Y-110254797D01*
X122146465Y-110265498D01*
X122139566Y-110275575D01*
X122131716Y-110284930D01*
X122122990Y-110293475D01*
X122113472Y-110301127D01*
X122103253Y-110307815D01*
X122092431Y-110313472D01*
X122081108Y-110318047D01*
X122069393Y-110321495D01*
X122057396Y-110323784D01*
X122045234Y-110324891D01*
X122033021Y-110324805D01*
X122020876Y-110323528D01*
X122008913Y-110321073D01*
X121997246Y-110317462D01*
X121985989Y-110312729D01*
X121975246Y-110306920D01*
X121965122Y-110300091D01*
X121955712Y-110292306D01*
X121947107Y-110283641D01*
X121939388Y-110274177D01*
X121932630Y-110264005D01*
X121926897Y-110253222D01*
X121922243Y-110241931D01*
X121918713Y-110230240D01*
X121916341Y-110218260D01*
X121915150Y-110206106D01*
X121915149Y-110193893D01*
X121919039Y-110114363D01*
X121919136Y-110112621D01*
X121919726Y-110107367D01*
X121920231Y-110102209D01*
X121931863Y-110023439D01*
X121932130Y-110021714D01*
X121933219Y-110016588D01*
X121934235Y-110011459D01*
X121953498Y-109934199D01*
X121953932Y-109932509D01*
X121955516Y-109927514D01*
X121957028Y-109922508D01*
X121983738Y-109847496D01*
X121984335Y-109845857D01*
X121986396Y-109841047D01*
X121988392Y-109836205D01*
X122022295Y-109764159D01*
X122023049Y-109762585D01*
X122025587Y-109757967D01*
X122028028Y-109753376D01*
X122068799Y-109684981D01*
X122069702Y-109683489D01*
X122072680Y-109679139D01*
X122075557Y-109674809D01*
X122122808Y-109610719D01*
X122123853Y-109609322D01*
X122127217Y-109605313D01*
X122130527Y-109601254D01*
X122183807Y-109542082D01*
X122184983Y-109540793D01*
X122188729Y-109537126D01*
X122192412Y-109533416D01*
X122251211Y-109479725D01*
X122252507Y-109478558D01*
X122256612Y-109475258D01*
X122260621Y-109471941D01*
X122324380Y-109424243D01*
X122325784Y-109423207D01*
X122330181Y-109420330D01*
X122334504Y-109417414D01*
X122402612Y-109376166D01*
X122404111Y-109375272D01*
X122408753Y-109372846D01*
X122413357Y-109370356D01*
X122485166Y-109335952D01*
X122486744Y-109335209D01*
X122491656Y-109333225D01*
X122496422Y-109331221D01*
X122571244Y-109303987D01*
X122572888Y-109303401D01*
X122577945Y-109301913D01*
X122582912Y-109300375D01*
X122660035Y-109280573D01*
X122661728Y-109280151D01*
X122666874Y-109279169D01*
X122671999Y-109278117D01*
X122694668Y-109274608D01*
X122595484Y-109209973D01*
X122594029Y-109209010D01*
X122584235Y-109201713D01*
X122575202Y-109193495D01*
X122567013Y-109184435D01*
X122559747Y-109174619D01*
X122553474Y-109164141D01*
X122548253Y-109153101D01*
X122544134Y-109141605D01*
X122541157Y-109129760D01*
X122539351Y-109117682D01*
X122538730Y-109105485D01*
X122539304Y-109093286D01*
X122541064Y-109081202D01*
X122543996Y-109069347D01*
X122548071Y-109057834D01*
X122553250Y-109046773D01*
X122559483Y-109036271D01*
X122566712Y-109026428D01*
X122574866Y-109017337D01*
X122583869Y-109009084D01*
X122593633Y-109001751D01*
X122604068Y-108995404D01*
X122615071Y-108990107D01*
X122626539Y-108985908D01*
X122638362Y-108982849D01*
X122650427Y-108980957D01*
X122662619Y-108980252D01*
X122674822Y-108980740D01*
X122686918Y-108982417D01*
X122698794Y-108985266D01*
X122710335Y-108989261D01*
X122721430Y-108994362D01*
X122731976Y-109000521D01*
X123139097Y-109265827D01*
X123140552Y-109266790D01*
X123144779Y-109269940D01*
X123148991Y-109272987D01*
X123232904Y-109340192D01*
X123285018Y-109364272D01*
X123286597Y-109365015D01*
X123291220Y-109367515D01*
X123295840Y-109369930D01*
X123364518Y-109410223D01*
X123366017Y-109411116D01*
X123370386Y-109414063D01*
X123374738Y-109416911D01*
X123439156Y-109463713D01*
X123440560Y-109464749D01*
X123444614Y-109468103D01*
X123448672Y-109471365D01*
X123508216Y-109524230D01*
X123509513Y-109525397D01*
X123513213Y-109529123D01*
X123516943Y-109532775D01*
X123571042Y-109591198D01*
X123572219Y-109592487D01*
X123575514Y-109596527D01*
X123578892Y-109600552D01*
X123616425Y-109650000D01*
X126137838Y-109650000D01*
X126261232Y-109481403D01*
X126262272Y-109480002D01*
X126265624Y-109475979D01*
X126268918Y-109471911D01*
X126666762Y-109026947D01*
X126667934Y-109025654D01*
X126669645Y-109023967D01*
X126671250Y-109022184D01*
X126701305Y-108991920D01*
X126702543Y-108990690D01*
X126711676Y-108982581D01*
X126721556Y-108975404D01*
X126732089Y-108969224D01*
X126743176Y-108964101D01*
X126754709Y-108960085D01*
X126766579Y-108957214D01*
X126778672Y-108955514D01*
X126790874Y-108955003D01*
X126803068Y-108955685D01*
X126815137Y-108957553D01*
X126826965Y-108960591D01*
X126838441Y-108964767D01*
X126849454Y-108970044D01*
X126859900Y-108976370D01*
X126869680Y-108983686D01*
X126878698Y-108991921D01*
X126886869Y-109000997D01*
X126894116Y-109010827D01*
X126900370Y-109021317D01*
X126905569Y-109032367D01*
X126909666Y-109043872D01*
X126912620Y-109055721D01*
X126914404Y-109067803D01*
X126915000Y-109080001D01*
X126914404Y-109092198D01*
X126912619Y-109104280D01*
X126909665Y-109116129D01*
X126905568Y-109127634D01*
X126900368Y-109138685D01*
X126894114Y-109149174D01*
X126886867Y-109159004D01*
X126878696Y-109168080D01*
X126850954Y-109196016D01*
X126459363Y-109633985D01*
X126240000Y-109933707D01*
X126240000Y-110900000D01*
X127340000Y-110900000D01*
X127340000Y-109650000D01*
X128900000Y-109650000D01*
X128900000Y-117150000D01*
X127340000Y-117150000D01*
X127340000Y-115900000D01*
X126240000Y-115900000D01*
X126240000Y-116867463D01*
X126485769Y-117198390D01*
X126882601Y-117636035D01*
X126883764Y-117637336D01*
X126891383Y-117646881D01*
X126898034Y-117657123D01*
X126903655Y-117667965D01*
X126908190Y-117679304D01*
X126911597Y-117691032D01*
X126913843Y-117703036D01*
X126914908Y-117715201D01*
X126914780Y-117727413D01*
X126913461Y-117739555D01*
X126910964Y-117751509D01*
X126907311Y-117763162D01*
X126902540Y-117774404D01*
X126896694Y-117785126D01*
X126889830Y-117795227D01*
X126882012Y-117804610D01*
X126873316Y-117813185D01*
X126863826Y-117820870D01*
X126853630Y-117827593D01*
X126842827Y-117833289D01*
X126831520Y-117837903D01*
X126819817Y-117841392D01*
X126807829Y-117843722D01*
X126795670Y-117844871D01*
X126783458Y-117844828D01*
X126771308Y-117843595D01*
X126759337Y-117841181D01*
X126747658Y-117837610D01*
X126736383Y-117832917D01*
X126725620Y-117827146D01*
X126715472Y-117820352D01*
X126706035Y-117812600D01*
X126697399Y-117803965D01*
X126296459Y-117361789D01*
X126295296Y-117360488D01*
X126292006Y-117356367D01*
X126288708Y-117352352D01*
X126138428Y-117150000D01*
X123616152Y-117150000D01*
X123587192Y-117189281D01*
X123586147Y-117190679D01*
X123582776Y-117194696D01*
X123579473Y-117198746D01*
X123526193Y-117257919D01*
X123525016Y-117259207D01*
X123521292Y-117262854D01*
X123517588Y-117266584D01*
X123458789Y-117320275D01*
X123457492Y-117321443D01*
X123453384Y-117324746D01*
X123449379Y-117328059D01*
X123385620Y-117375757D01*
X123384216Y-117376793D01*
X123379819Y-117379670D01*
X123375496Y-117382586D01*
X123307388Y-117423834D01*
X123305889Y-117424728D01*
X123301235Y-117427161D01*
X123296643Y-117429644D01*
X123243209Y-117455244D01*
X122870276Y-117715496D01*
X122868838Y-117716484D01*
X122865845Y-117718304D01*
X122862950Y-117720236D01*
X122684209Y-117827248D01*
X122682706Y-117828134D01*
X122671854Y-117833737D01*
X122660508Y-117838254D01*
X122648775Y-117841643D01*
X122636767Y-117843871D01*
X122624600Y-117844915D01*
X122612388Y-117844768D01*
X122600250Y-117843430D01*
X122588299Y-117840913D01*
X122576651Y-117837242D01*
X122565417Y-117832453D01*
X122554705Y-117826590D01*
X122544615Y-117819710D01*
X122535245Y-117811878D01*
X122526683Y-117803169D01*
X122519012Y-117793665D01*
X122512306Y-117783459D01*
X122506628Y-117772647D01*
X122502031Y-117761332D01*
X122498561Y-117749623D01*
X122496250Y-117737632D01*
X122495120Y-117725472D01*
X122495182Y-117713260D01*
X122496435Y-117701112D01*
X122498869Y-117689144D01*
X122502457Y-117677471D01*
X122507169Y-117666204D01*
X122512957Y-117655450D01*
X122519766Y-117645313D01*
X122527533Y-117635888D01*
X122536183Y-117627266D01*
X122545632Y-117619530D01*
X122555791Y-117612752D01*
X122699923Y-117526460D01*
X122684887Y-117524347D01*
X122683160Y-117524093D01*
X122677980Y-117523030D01*
X122672891Y-117522059D01*
X122595499Y-117503336D01*
X122593806Y-117502914D01*
X122588801Y-117501364D01*
X122583784Y-117499888D01*
X122508588Y-117473702D01*
X122506944Y-117473117D01*
X122502105Y-117471083D01*
X122497264Y-117469127D01*
X122424983Y-117435728D01*
X122423404Y-117434985D01*
X122418797Y-117432494D01*
X122414160Y-117430070D01*
X122345482Y-117389777D01*
X122343983Y-117388884D01*
X122339628Y-117385947D01*
X122335262Y-117383090D01*
X122270845Y-117336287D01*
X122269440Y-117335252D01*
X122265377Y-117331890D01*
X122261328Y-117328635D01*
X122201784Y-117275770D01*
X122200487Y-117274603D01*
X122196767Y-117270857D01*
X122193058Y-117267225D01*
X122138958Y-117208802D01*
X122137781Y-117207514D01*
X122134453Y-117203433D01*
X122131108Y-117199447D01*
X122082966Y-117136023D01*
X122081921Y-117134626D01*
X122079020Y-117130260D01*
X122076066Y-117125946D01*
X122034344Y-117058127D01*
X122033440Y-117056634D01*
X122030967Y-117051983D01*
X122028461Y-117047425D01*
X121993556Y-116975860D01*
X121992802Y-116974286D01*
X121990802Y-116969433D01*
X121988745Y-116964634D01*
X121960989Y-116890002D01*
X121960392Y-116888362D01*
X121958876Y-116883339D01*
X121957297Y-116878362D01*
X121936957Y-116801379D01*
X121936523Y-116799689D01*
X121935502Y-116794530D01*
X121934418Y-116789434D01*
X121921687Y-116710833D01*
X121921420Y-116709109D01*
X121920906Y-116703872D01*
X121920326Y-116698696D01*
X121915326Y-116619228D01*
X121915228Y-116617486D01*
X121915228Y-116614857D01*
X121915082Y-116612247D01*
X121915003Y-116600868D01*
X121915003Y-116599123D01*
X121915685Y-116586929D01*
G37*
%TD.AperFunction*%
D25*
%TO.P,J2,A12*%
X122040000Y-110200000D03*
%TO.P,J2,A4*%
%TO.N,VBUS*%
X122040000Y-115800000D03*
%TO.P,J2,B12*%
%TO.N,GND*%
X122040000Y-116600000D03*
%TO.P,J2,B4*%
%TO.N,VBUS*%
X122040000Y-111000000D03*
D26*
%TO.P,J2,S1*%
%TO.N,GND*%
X126790000Y-109080000D03*
X126790000Y-117720000D03*
D27*
X122620000Y-109080000D03*
X122620000Y-117720000D03*
D28*
%TO.P,J2,A7*%
%TO.N,Net-(J2-PadA7)*%
X122040000Y-113150000D03*
%TO.P,J2,A6*%
%TO.N,Net-(J2-PadA6)*%
X122040000Y-113650000D03*
%TO.P,J2,B6*%
X122040000Y-112650000D03*
%TO.P,J2,B7*%
%TO.N,Net-(J2-PadA7)*%
X122040000Y-114150000D03*
%TO.P,J2,A8*%
%TO.N,Net-(J2-PadA8)*%
X122040000Y-112150000D03*
%TO.P,J2,A5*%
%TO.N,Net-(J2-PadA5)*%
X122040000Y-114650000D03*
%TO.P,J2,B5*%
%TO.N,Net-(J2-PadB5)*%
X122040000Y-111650000D03*
%TO.P,J2,B8*%
%TO.N,Net-(J2-PadB8)*%
X122040000Y-115150000D03*
D25*
%TO.P,J2,A9*%
%TO.N,VBUS*%
X122040000Y-111000000D03*
%TO.P,J2,B9*%
X122040000Y-115800000D03*
%TO.P,J2,B1*%
%TO.N,GND*%
X122040000Y-110200000D03*
D29*
%TO.P,J2,S1*%
X123110000Y-110510000D03*
X123110000Y-116290000D03*
D25*
%TO.P,J2,A1*%
X122040000Y-116600000D03*
%TD*%
D30*
%TO.N,D+*%
X117424921Y-105779276D03*
X117925020Y-115228434D03*
%TO.N,GND*%
X117457994Y-118204997D03*
X116100000Y-103250000D03*
X125050000Y-109650000D03*
X113845871Y-110120552D03*
X112650000Y-111000000D03*
%TO.N,D-*%
X118474980Y-113516667D03*
X117068681Y-104844878D03*
%TO.N,+3V3*%
X119619244Y-103020010D03*
%TO.N,IO1*%
X124900000Y-117754989D03*
%TO.N,O*%
X117291421Y-116008579D03*
%TO.N,I*%
X114381543Y-111067983D03*
%TO.N,IO5*%
X114900000Y-117100000D03*
%TO.N,EN*%
X116185309Y-111350882D03*
%TO.N,+12V*%
X119700000Y-105500000D03*
X114000000Y-128700000D03*
%TO.N,BOOT*%
X112185722Y-118512615D03*
X115978751Y-117100000D03*
X114992258Y-112270402D03*
%TO.N,Net-(J2-PadA7)*%
X119100000Y-115900000D03*
X120667594Y-113035846D03*
%TO.N,G*%
X112216463Y-112444948D03*
%TO.N,B*%
X113203783Y-112603764D03*
%TO.N,R*%
X113900069Y-117087310D03*
%TD*%
D31*
%TO.N,D+*%
X117320635Y-105674990D02*
X117424921Y-105779276D01*
X115750000Y-106350000D02*
X115750000Y-105951978D01*
X116026988Y-105674990D02*
X117320635Y-105674990D01*
X115750000Y-105951978D02*
X116026988Y-105674990D01*
X118275000Y-115000000D02*
X118153454Y-115000000D01*
X118153454Y-115000000D02*
X117925020Y-115228434D01*
%TO.N,GND*%
X127420000Y-108450000D02*
X126790000Y-109080000D01*
X128050000Y-108450000D02*
X127420000Y-108450000D01*
X121870010Y-126063140D02*
X122631860Y-126824990D01*
X122631860Y-126824990D02*
X122724990Y-126824990D01*
X116250000Y-107750000D02*
X115750000Y-108250000D01*
X117650000Y-107750000D02*
X116250000Y-107750000D01*
X117650000Y-107250000D02*
X116750000Y-107250000D01*
X116750000Y-107250000D02*
X115750000Y-108250000D01*
X116750000Y-106350000D02*
X116750000Y-107250000D01*
X117650000Y-108250000D02*
X115750000Y-108250000D01*
X116250000Y-108750000D02*
X115750000Y-108250000D01*
X117650000Y-108750000D02*
X116250000Y-108750000D01*
X113850000Y-108250000D02*
X115750000Y-108250000D01*
X113451978Y-108250000D02*
X113850000Y-108250000D01*
X112600000Y-109101978D02*
X113451978Y-108250000D01*
X112600000Y-109175000D02*
X112600000Y-109101978D01*
X122480000Y-109080000D02*
X121950000Y-108550000D01*
X122620000Y-109080000D02*
X122480000Y-109080000D01*
X127600000Y-120200000D02*
X127600000Y-122900000D01*
X127600000Y-122900000D02*
X125745000Y-122900000D01*
X126600000Y-128000000D02*
X124800000Y-128000000D01*
X124800000Y-128000000D02*
X124800000Y-126900000D01*
X124800000Y-126900000D02*
X124724990Y-126824990D01*
X122724990Y-126824990D02*
X124724990Y-126824990D01*
X118675000Y-116800000D02*
X120475000Y-118600000D01*
X118275000Y-116800000D02*
X118675000Y-116800000D01*
X121740000Y-118600000D02*
X122620000Y-117720000D01*
X120475000Y-118600000D02*
X121740000Y-118600000D01*
X126790000Y-117720000D02*
X127800000Y-118730000D01*
X127800000Y-120000000D02*
X127600000Y-120200000D01*
X127800000Y-118730000D02*
X127800000Y-120000000D01*
X116600000Y-119300000D02*
X115550000Y-119300000D01*
X116600000Y-119000000D02*
X116600000Y-119300000D01*
X116825001Y-118774999D02*
X116600000Y-119000000D01*
X118035001Y-118774999D02*
X116825001Y-118774999D01*
X118560002Y-119300000D02*
X118035001Y-118774999D01*
X119050000Y-119300000D02*
X118560002Y-119300000D01*
X116662991Y-119000000D02*
X117457994Y-118204997D01*
X116600000Y-119000000D02*
X116662991Y-119000000D01*
X117650000Y-108750000D02*
X118150000Y-108750000D01*
X118325010Y-111349990D02*
X118275000Y-111400000D01*
X118325010Y-108925010D02*
X118325010Y-111349990D01*
X118150000Y-108750000D02*
X118325010Y-108925010D01*
X121650000Y-108250000D02*
X121950000Y-108550000D01*
X119469990Y-126819970D02*
X119469990Y-124069990D01*
X119475010Y-126824990D02*
X119469990Y-126819970D01*
X119475010Y-126824990D02*
X122724990Y-126824990D01*
X120950000Y-120600000D02*
X122000000Y-120600000D01*
X122000000Y-120600000D02*
X122100000Y-120700000D01*
X122100000Y-122140020D02*
X121870010Y-122370010D01*
X122100000Y-120700000D02*
X122100000Y-122140020D01*
X121870010Y-122370010D02*
X121870010Y-126063140D01*
X117631860Y-126824990D02*
X119475010Y-126824990D01*
X116949999Y-122150001D02*
X116949999Y-126143129D01*
X116949999Y-126143129D02*
X117631860Y-126824990D01*
X117450000Y-121650000D02*
X116949999Y-122150001D01*
X117450000Y-120600000D02*
X117450000Y-121650000D01*
X124551999Y-117029988D02*
X125248001Y-117029988D01*
X124174999Y-117406988D02*
X124551999Y-117029988D01*
X124436005Y-118363996D02*
X124174999Y-118102990D01*
X123400000Y-119400000D02*
X124436005Y-118363996D01*
X124174999Y-118102990D02*
X124174999Y-117406988D01*
X122300000Y-119400000D02*
X123400000Y-119400000D01*
X121700000Y-118800000D02*
X122300000Y-119400000D01*
X121700000Y-118640000D02*
X121700000Y-118800000D01*
X122620000Y-117720000D02*
X121700000Y-118640000D01*
X118325010Y-108925010D02*
X118650020Y-108600000D01*
X121900000Y-108600000D02*
X121950000Y-108550000D01*
X118650020Y-108600000D02*
X121900000Y-108600000D01*
X115750000Y-108250000D02*
X113879448Y-110120552D01*
X113879448Y-110120552D02*
X113845871Y-110120552D01*
%TO.N,D-*%
X118275000Y-113316687D02*
X118474980Y-113516667D01*
X118275000Y-113200000D02*
X118275000Y-113316687D01*
X116220689Y-104844878D02*
X117068681Y-104844878D01*
X115250000Y-106350000D02*
X115250000Y-105815567D01*
X115250000Y-105815567D02*
X116220689Y-104844878D01*
%TO.N,+3V3*%
X115550000Y-119950000D02*
X117450000Y-119950000D01*
X120050000Y-119950000D02*
X120950000Y-119950000D01*
X119050000Y-119950000D02*
X120050000Y-119950000D01*
X114975000Y-119950000D02*
X115550000Y-119950000D01*
X114899999Y-119874999D02*
X114975000Y-119950000D01*
X115670000Y-128212500D02*
X118170000Y-128212500D01*
X118170000Y-128212500D02*
X120670000Y-128212500D01*
X123170000Y-128212500D02*
X120670000Y-128212500D01*
X112725000Y-107750000D02*
X112600000Y-107625000D01*
X113850000Y-107750000D02*
X112725000Y-107750000D01*
X112975000Y-107250000D02*
X112600000Y-107625000D01*
X113850000Y-107250000D02*
X112975000Y-107250000D01*
X113850000Y-107250000D02*
X114250000Y-107250000D01*
X114750000Y-106750000D02*
X114750000Y-106350000D01*
X114250000Y-107250000D02*
X114750000Y-106750000D01*
X114409999Y-122335999D02*
X114409999Y-126952499D01*
X114899999Y-121845999D02*
X114409999Y-122335999D01*
X114409999Y-126952499D02*
X115670000Y-128212500D01*
X114899999Y-119874999D02*
X114899999Y-121845999D01*
X120050000Y-119189998D02*
X120050000Y-119950000D01*
X117857532Y-117600010D02*
X118460012Y-117600010D01*
X118460012Y-117600010D02*
X120050000Y-119189998D01*
X116375001Y-116117479D02*
X116478761Y-116221239D01*
X115800000Y-115875000D02*
X116325000Y-115875000D01*
X116375001Y-115824999D02*
X116375001Y-116117479D01*
X116325000Y-115875000D02*
X116375001Y-115824999D01*
X116375001Y-115299999D02*
X116375001Y-115824999D01*
X121550000Y-102400000D02*
X120239254Y-102400000D01*
X120239254Y-102400000D02*
X119619244Y-103020010D01*
X121850000Y-102700000D02*
X121550000Y-102400000D01*
X114750000Y-105679156D02*
X114750000Y-106350000D01*
X116309279Y-104119877D02*
X114750000Y-105679156D01*
X119480123Y-104119877D02*
X116309279Y-104119877D01*
X119619244Y-103980756D02*
X119480123Y-104119877D01*
X119619244Y-103020010D02*
X119619244Y-103980756D01*
X116910310Y-110310310D02*
X116910310Y-111683356D01*
X116750000Y-110150000D02*
X116910310Y-110310310D01*
X116375001Y-112218665D02*
X116496833Y-112096833D01*
X116375001Y-113625001D02*
X116375001Y-112218665D01*
X116910310Y-111683356D02*
X116496833Y-112096833D01*
X116375001Y-113625001D02*
X116375001Y-115299999D01*
X114899999Y-118886411D02*
X114899999Y-119874999D01*
X116478761Y-116221239D02*
X116703761Y-116446239D01*
X116425000Y-117825000D02*
X115975000Y-117825000D01*
X116425000Y-117825000D02*
X116703761Y-117546239D01*
X114913589Y-118886411D02*
X114899999Y-118886411D01*
X115975000Y-117825000D02*
X114913589Y-118886411D01*
X116803761Y-117096239D02*
X116703761Y-117196239D01*
X117353761Y-117096239D02*
X117857532Y-117600010D01*
X117353761Y-117096239D02*
X116803761Y-117096239D01*
X116703761Y-117546239D02*
X116703761Y-117196239D01*
X116703761Y-117196239D02*
X116703761Y-116446239D01*
X116375001Y-113275001D02*
X116375001Y-113625001D01*
X112974999Y-110274999D02*
X113500000Y-110800000D01*
X113500000Y-111840334D02*
X114934667Y-113275001D01*
X112600000Y-107625000D02*
X111799990Y-108425010D01*
X113500000Y-110800000D02*
X113500000Y-111840334D01*
X111799990Y-108425010D02*
X111799990Y-109749990D01*
X112324999Y-110274999D02*
X112974999Y-110274999D01*
X114934667Y-113275001D02*
X116375001Y-113275001D01*
X111799990Y-109749990D02*
X112324999Y-110274999D01*
%TO.N,VBUS*%
X121220000Y-111000000D02*
X122040000Y-111000000D01*
X119907500Y-109687500D02*
X121220000Y-111000000D01*
X119550000Y-109687500D02*
X119907500Y-109687500D01*
X122695002Y-115800000D02*
X122040000Y-115800000D01*
X122935001Y-115560001D02*
X122695002Y-115800000D01*
X122935001Y-111239999D02*
X122935001Y-115560001D01*
X122695002Y-111000000D02*
X122935001Y-111239999D01*
X122040000Y-111000000D02*
X122695002Y-111000000D01*
%TO.N,IO4*%
X115550000Y-122865000D02*
X115585000Y-122900000D01*
X115550000Y-120600000D02*
X115550000Y-122865000D01*
X115585000Y-125202500D02*
X115670000Y-125287500D01*
X115585000Y-122900000D02*
X115585000Y-125202500D01*
%TO.N,IO3*%
X118125000Y-125242500D02*
X118170000Y-125287500D01*
X118125000Y-122900000D02*
X118125000Y-125242500D01*
X117450000Y-119300000D02*
X117923591Y-119300000D01*
X118125000Y-119501409D02*
X118125000Y-122900000D01*
X117923591Y-119300000D02*
X118125000Y-119501409D01*
%TO.N,IO2*%
X119050000Y-121285000D02*
X120665000Y-122900000D01*
X119050000Y-120600000D02*
X119050000Y-121285000D01*
X120665000Y-125282500D02*
X120670000Y-125287500D01*
X120665000Y-122900000D02*
X120665000Y-125282500D01*
%TO.N,IO1*%
X123205000Y-120980000D02*
X123205000Y-122900000D01*
X121525000Y-119300000D02*
X123205000Y-120980000D01*
X120950000Y-119300000D02*
X121525000Y-119300000D01*
X125225000Y-120880000D02*
X123205000Y-122900000D01*
X125225000Y-120200000D02*
X125225000Y-120880000D01*
X123205000Y-125252500D02*
X123170000Y-125287500D01*
X123205000Y-122900000D02*
X123205000Y-125252500D01*
X124900000Y-119975000D02*
X124675000Y-120200000D01*
X124900000Y-117754989D02*
X124900000Y-119975000D01*
%TO.N,O*%
X117360321Y-109539679D02*
X117360321Y-111885283D01*
X116891422Y-112354182D02*
X116891422Y-115608580D01*
X116891422Y-115608580D02*
X117291421Y-116008579D01*
X117360321Y-111885283D02*
X116891422Y-112354182D01*
X117650000Y-109250000D02*
X117360321Y-109539679D01*
%TO.N,I*%
X115250000Y-110150000D02*
X115250000Y-110548022D01*
X115250000Y-110548022D02*
X114730039Y-111067983D01*
X114730039Y-111067983D02*
X114381543Y-111067983D01*
%TO.N,IO5*%
X111730191Y-117630191D02*
X111037500Y-118322882D01*
X111037500Y-118322882D02*
X111037500Y-120200000D01*
X113369948Y-117630191D02*
X111730191Y-117630191D01*
X114248070Y-117812311D02*
X113552068Y-117812311D01*
X114900000Y-117160382D02*
X114248070Y-117812311D01*
X113552068Y-117812311D02*
X113369948Y-117630191D01*
X114900000Y-117100000D02*
X114900000Y-117160382D01*
%TO.N,EN*%
X116250000Y-110150000D02*
X116250000Y-111050000D01*
X116250000Y-111286191D02*
X116185309Y-111350882D01*
X116250000Y-110150000D02*
X116250000Y-111286191D01*
%TO.N,Net-(J2-PadA5)*%
X120325000Y-116800000D02*
X119925000Y-116800000D01*
X121100021Y-116024979D02*
X120325000Y-116800000D01*
X121100021Y-114875691D02*
X121100021Y-116024979D01*
X121325712Y-114650000D02*
X121100021Y-114875691D01*
X122040000Y-114650000D02*
X121325712Y-114650000D01*
%TO.N,Net-(J2-PadB5)*%
X120175000Y-111650000D02*
X119925000Y-111400000D01*
X122040000Y-111650000D02*
X120175000Y-111650000D01*
%TO.N,Net-(J1-Pad6)*%
X113962500Y-121982500D02*
X113045000Y-122900000D01*
X113962500Y-120200000D02*
X113962500Y-121982500D01*
X113045000Y-124642500D02*
X112400000Y-125287500D01*
X113045000Y-122900000D02*
X113045000Y-124642500D01*
%TO.N,+12V*%
X122650000Y-105300000D02*
X121700000Y-105300000D01*
X119712500Y-106550000D02*
X119550000Y-106712500D01*
X121800000Y-106550000D02*
X119712500Y-106550000D01*
X119550000Y-105650000D02*
X119700000Y-105500000D01*
X119550000Y-106712500D02*
X119550000Y-105650000D01*
X113437500Y-128700000D02*
X112400000Y-127662500D01*
X114000000Y-128700000D02*
X113437500Y-128700000D01*
%TO.N,BOOT*%
X115700010Y-110734424D02*
X115700010Y-110736400D01*
X115750000Y-110684434D02*
X115700010Y-110734424D01*
X115700010Y-110736400D02*
X115568205Y-110868205D01*
X115750000Y-110150000D02*
X115750000Y-110684434D01*
X112185722Y-118512615D02*
X114566136Y-118512615D01*
X114566136Y-118512615D02*
X115978751Y-117100000D01*
X115392257Y-111870403D02*
X114992258Y-112270402D01*
X115392257Y-111042176D02*
X115392257Y-111870403D01*
X115650021Y-110784412D02*
X115392257Y-111042176D01*
%TO.N,Net-(J2-PadA7)*%
X119975000Y-113150000D02*
X119925000Y-113200000D01*
X120850000Y-113150000D02*
X119975000Y-113150000D01*
X122040000Y-113150000D02*
X120850000Y-113150000D01*
X120781748Y-113150000D02*
X120667594Y-113035846D01*
X120850000Y-113150000D02*
X120781748Y-113150000D01*
X120650010Y-114689292D02*
X120650010Y-115492468D01*
X120242478Y-115900000D02*
X119100000Y-115900000D01*
X120650010Y-115492468D02*
X120242478Y-115900000D01*
X121189302Y-114150000D02*
X120650010Y-114689292D01*
X122040000Y-114150000D02*
X121189302Y-114150000D01*
%TO.N,Net-(J2-PadA6)*%
X119199990Y-114274990D02*
X119925000Y-115000000D01*
X120915323Y-112249978D02*
X119657544Y-112249978D01*
X119199990Y-112707532D02*
X119199990Y-114274990D01*
X119657544Y-112249978D02*
X119199990Y-112707532D01*
X122040000Y-112650000D02*
X121315345Y-112650000D01*
X121315345Y-112650000D02*
X120915323Y-112249978D01*
X119925000Y-114777892D02*
X119925000Y-115000000D01*
X121052892Y-113650000D02*
X119925000Y-114777892D01*
X122040000Y-113650000D02*
X121052892Y-113650000D01*
%TO.N,Net-(D1-Pad3)*%
X113325000Y-114900000D02*
X115473862Y-114900000D01*
X115473862Y-114900000D02*
X115800000Y-114573862D01*
X115800000Y-114573862D02*
X115800000Y-114125000D01*
%TO.N,Net-(D1-Pad2)*%
X114375000Y-113700000D02*
X114800000Y-114125000D01*
X113325000Y-113700000D02*
X114375000Y-113700000D01*
%TO.N,Net-(D1-Pad1)*%
X113325000Y-116100000D02*
X113550000Y-115875000D01*
X113550000Y-115875000D02*
X114800000Y-115875000D01*
%TO.N,G*%
X111675000Y-113700000D02*
X111675000Y-112986411D01*
X111675000Y-112986411D02*
X112216463Y-112444948D01*
%TO.N,B*%
X111675000Y-114900000D02*
X112075000Y-114900000D01*
X112599990Y-113207532D02*
X113203758Y-112603764D01*
X113203758Y-112603764D02*
X113203783Y-112603764D01*
X112599990Y-114375010D02*
X112599990Y-113207532D01*
X112075000Y-114900000D02*
X112599990Y-114375010D01*
%TO.N,R*%
X112107522Y-116100000D02*
X112907532Y-116900010D01*
X113712769Y-116900010D02*
X113900069Y-117087310D01*
X111675000Y-116100000D02*
X112107522Y-116100000D01*
X112907532Y-116900010D02*
X113712769Y-116900010D01*
%TD*%
D32*
%TO.N,GND*%
X113300533Y-119052110D02*
X113216376Y-119121176D01*
X113150100Y-119121176D01*
X113027403Y-119133261D01*
X112909421Y-119169050D01*
X112800689Y-119227169D01*
X112705384Y-119305384D01*
X112627169Y-119400689D01*
X112569050Y-119509421D01*
X112533261Y-119627403D01*
X112521176Y-119750100D01*
X112521176Y-120649900D01*
X112533261Y-120772597D01*
X112569050Y-120890579D01*
X112627169Y-120999311D01*
X112705384Y-121094616D01*
X112800689Y-121172831D01*
X112909421Y-121230950D01*
X113027403Y-121266739D01*
X113150100Y-121278824D01*
X113216376Y-121278824D01*
X113300533Y-121347890D01*
X113409205Y-121405977D01*
X113460501Y-121421537D01*
X113460501Y-121744011D01*
X113402903Y-121720153D01*
X113165849Y-121673000D01*
X112924151Y-121673000D01*
X112687097Y-121720153D01*
X112463798Y-121812647D01*
X112262833Y-121946927D01*
X112091927Y-122117833D01*
X111957647Y-122318798D01*
X111865153Y-122542097D01*
X111818000Y-122779151D01*
X111818000Y-123020849D01*
X111865153Y-123257903D01*
X111957647Y-123481202D01*
X112091927Y-123682167D01*
X112262833Y-123853073D01*
X112463798Y-123987353D01*
X112543001Y-124020160D01*
X112543001Y-124346176D01*
X111774750Y-124346176D01*
X111652121Y-124358254D01*
X111534205Y-124394023D01*
X111425533Y-124452110D01*
X111330281Y-124530281D01*
X111252110Y-124625533D01*
X111194023Y-124734205D01*
X111158254Y-124852121D01*
X111146176Y-124974750D01*
X111146176Y-125600250D01*
X111158254Y-125722879D01*
X111194023Y-125840795D01*
X111252110Y-125949467D01*
X111321176Y-126033624D01*
X111321176Y-126099900D01*
X111333261Y-126222597D01*
X111369050Y-126340579D01*
X111427169Y-126449311D01*
X111505384Y-126544616D01*
X111600689Y-126622831D01*
X111709421Y-126680950D01*
X111827403Y-126716739D01*
X111950100Y-126728824D01*
X112849900Y-126728824D01*
X112972597Y-126716739D01*
X113090579Y-126680950D01*
X113199311Y-126622831D01*
X113294616Y-126544616D01*
X113372831Y-126449311D01*
X113430950Y-126340579D01*
X113466739Y-126222597D01*
X113478824Y-126099900D01*
X113478824Y-126033624D01*
X113547890Y-125949467D01*
X113605977Y-125840795D01*
X113641746Y-125722879D01*
X113653824Y-125600250D01*
X113653824Y-124974750D01*
X113641746Y-124852121D01*
X113605977Y-124734205D01*
X113547890Y-124625533D01*
X113547738Y-124625347D01*
X113547000Y-124617857D01*
X113547000Y-124020160D01*
X113626202Y-123987353D01*
X113827167Y-123853073D01*
X113907999Y-123772241D01*
X113908000Y-126927846D01*
X113905572Y-126952499D01*
X113915264Y-127050908D01*
X113943969Y-127145535D01*
X113990583Y-127232744D01*
X114037600Y-127290034D01*
X114037603Y-127290037D01*
X114053316Y-127309183D01*
X114072462Y-127324896D01*
X114450698Y-127703132D01*
X114428254Y-127777121D01*
X114416176Y-127899750D01*
X114416176Y-128043589D01*
X114368048Y-128011431D01*
X114226643Y-127952859D01*
X114076528Y-127923000D01*
X113923472Y-127923000D01*
X113773357Y-127952859D01*
X113653824Y-128002371D01*
X113653824Y-127899750D01*
X113641746Y-127777121D01*
X113605977Y-127659205D01*
X113547890Y-127550533D01*
X113478824Y-127466376D01*
X113478824Y-127400100D01*
X113466739Y-127277403D01*
X113430950Y-127159421D01*
X113372831Y-127050689D01*
X113294616Y-126955384D01*
X113199311Y-126877169D01*
X113090579Y-126819050D01*
X112972597Y-126783261D01*
X112849900Y-126771176D01*
X111950100Y-126771176D01*
X111827403Y-126783261D01*
X111709421Y-126819050D01*
X111600689Y-126877169D01*
X111505384Y-126955384D01*
X111427169Y-127050689D01*
X111369050Y-127159421D01*
X111333261Y-127277403D01*
X111321176Y-127400100D01*
X111321176Y-127466376D01*
X111252110Y-127550533D01*
X111194023Y-127659205D01*
X111158254Y-127777121D01*
X111146176Y-127899750D01*
X111146176Y-128525250D01*
X111158254Y-128647879D01*
X111194023Y-128765795D01*
X111252110Y-128874467D01*
X111330281Y-128969719D01*
X111425533Y-129047890D01*
X111534205Y-129105977D01*
X111652121Y-129141746D01*
X111774750Y-129153824D01*
X113025250Y-129153824D01*
X113147879Y-129141746D01*
X113180510Y-129131848D01*
X113244463Y-129166031D01*
X113339090Y-129194736D01*
X113344909Y-129195309D01*
X113402096Y-129200941D01*
X113504691Y-129303536D01*
X113631952Y-129388569D01*
X113773357Y-129447141D01*
X113923472Y-129477000D01*
X114076528Y-129477000D01*
X114226643Y-129447141D01*
X114368048Y-129388569D01*
X114495309Y-129303536D01*
X114603536Y-129195309D01*
X114688569Y-129068048D01*
X114696668Y-129048496D01*
X114804205Y-129105977D01*
X114922121Y-129141746D01*
X115044750Y-129153824D01*
X116295250Y-129153824D01*
X116417879Y-129141746D01*
X116535795Y-129105977D01*
X116644467Y-129047890D01*
X116739719Y-128969719D01*
X116817890Y-128874467D01*
X116875977Y-128765795D01*
X116891537Y-128714500D01*
X116948463Y-128714500D01*
X116964023Y-128765795D01*
X117022110Y-128874467D01*
X117100281Y-128969719D01*
X117195533Y-129047890D01*
X117304205Y-129105977D01*
X117422121Y-129141746D01*
X117544750Y-129153824D01*
X118795250Y-129153824D01*
X118917879Y-129141746D01*
X119035795Y-129105977D01*
X119144467Y-129047890D01*
X119239719Y-128969719D01*
X119317890Y-128874467D01*
X119375977Y-128765795D01*
X119391537Y-128714500D01*
X119448463Y-128714500D01*
X119464023Y-128765795D01*
X119522110Y-128874467D01*
X119600281Y-128969719D01*
X119695533Y-129047890D01*
X119804205Y-129105977D01*
X119922121Y-129141746D01*
X120044750Y-129153824D01*
X121295250Y-129153824D01*
X121417879Y-129141746D01*
X121535795Y-129105977D01*
X121644467Y-129047890D01*
X121739719Y-128969719D01*
X121817890Y-128874467D01*
X121875977Y-128765795D01*
X121891537Y-128714500D01*
X121948463Y-128714500D01*
X121964023Y-128765795D01*
X122022110Y-128874467D01*
X122100281Y-128969719D01*
X122195533Y-129047890D01*
X122304205Y-129105977D01*
X122422121Y-129141746D01*
X122544750Y-129153824D01*
X123795250Y-129153824D01*
X123917879Y-129141746D01*
X124035795Y-129105977D01*
X124144467Y-129047890D01*
X124239719Y-128969719D01*
X124317890Y-128874467D01*
X124375977Y-128765795D01*
X124411746Y-128647879D01*
X124423824Y-128525250D01*
X124423824Y-127899750D01*
X124411746Y-127777121D01*
X124375977Y-127659205D01*
X124317890Y-127550533D01*
X124248824Y-127466376D01*
X124248824Y-127400100D01*
X124236739Y-127277403D01*
X124200950Y-127159421D01*
X124142831Y-127050689D01*
X124064616Y-126955384D01*
X123969311Y-126877169D01*
X123860579Y-126819050D01*
X123742597Y-126783261D01*
X123619900Y-126771176D01*
X122720100Y-126771176D01*
X122597403Y-126783261D01*
X122479421Y-126819050D01*
X122370689Y-126877169D01*
X122275384Y-126955384D01*
X122197169Y-127050689D01*
X122139050Y-127159421D01*
X122103261Y-127277403D01*
X122091176Y-127400100D01*
X122091176Y-127466376D01*
X122022110Y-127550533D01*
X121964023Y-127659205D01*
X121948463Y-127710500D01*
X121891537Y-127710500D01*
X121875977Y-127659205D01*
X121817890Y-127550533D01*
X121748824Y-127466376D01*
X121748824Y-127400100D01*
X121736739Y-127277403D01*
X121700950Y-127159421D01*
X121642831Y-127050689D01*
X121564616Y-126955384D01*
X121469311Y-126877169D01*
X121360579Y-126819050D01*
X121242597Y-126783261D01*
X121119900Y-126771176D01*
X120220100Y-126771176D01*
X120097403Y-126783261D01*
X119979421Y-126819050D01*
X119870689Y-126877169D01*
X119775384Y-126955384D01*
X119697169Y-127050689D01*
X119639050Y-127159421D01*
X119603261Y-127277403D01*
X119591176Y-127400100D01*
X119591176Y-127466376D01*
X119522110Y-127550533D01*
X119464023Y-127659205D01*
X119448463Y-127710500D01*
X119391537Y-127710500D01*
X119375977Y-127659205D01*
X119317890Y-127550533D01*
X119248824Y-127466376D01*
X119248824Y-127400100D01*
X119236739Y-127277403D01*
X119200950Y-127159421D01*
X119142831Y-127050689D01*
X119064616Y-126955384D01*
X118969311Y-126877169D01*
X118860579Y-126819050D01*
X118742597Y-126783261D01*
X118619900Y-126771176D01*
X117720100Y-126771176D01*
X117597403Y-126783261D01*
X117479421Y-126819050D01*
X117370689Y-126877169D01*
X117275384Y-126955384D01*
X117197169Y-127050689D01*
X117139050Y-127159421D01*
X117103261Y-127277403D01*
X117091176Y-127400100D01*
X117091176Y-127466376D01*
X117022110Y-127550533D01*
X116964023Y-127659205D01*
X116948463Y-127710500D01*
X116891537Y-127710500D01*
X116875977Y-127659205D01*
X116817890Y-127550533D01*
X116748824Y-127466376D01*
X116748824Y-127400100D01*
X116736739Y-127277403D01*
X116700950Y-127159421D01*
X116642831Y-127050689D01*
X116564616Y-126955384D01*
X116469311Y-126877169D01*
X116360579Y-126819050D01*
X116242597Y-126783261D01*
X116119900Y-126771176D01*
X115220100Y-126771176D01*
X115097403Y-126783261D01*
X114984840Y-126817406D01*
X114911999Y-126744565D01*
X114911999Y-126644912D01*
X114979421Y-126680950D01*
X115097403Y-126716739D01*
X115220100Y-126728824D01*
X116119900Y-126728824D01*
X116242597Y-126716739D01*
X116360579Y-126680950D01*
X116469311Y-126622831D01*
X116564616Y-126544616D01*
X116642831Y-126449311D01*
X116700950Y-126340579D01*
X116736739Y-126222597D01*
X116748824Y-126099900D01*
X116748824Y-126033624D01*
X116817890Y-125949467D01*
X116875977Y-125840795D01*
X116911746Y-125722879D01*
X116920000Y-125639075D01*
X116928254Y-125722879D01*
X116964023Y-125840795D01*
X117022110Y-125949467D01*
X117091176Y-126033624D01*
X117091176Y-126099900D01*
X117103261Y-126222597D01*
X117139050Y-126340579D01*
X117197169Y-126449311D01*
X117275384Y-126544616D01*
X117370689Y-126622831D01*
X117479421Y-126680950D01*
X117597403Y-126716739D01*
X117720100Y-126728824D01*
X118619900Y-126728824D01*
X118742597Y-126716739D01*
X118860579Y-126680950D01*
X118969311Y-126622831D01*
X119064616Y-126544616D01*
X119142831Y-126449311D01*
X119200950Y-126340579D01*
X119236739Y-126222597D01*
X119248824Y-126099900D01*
X119248824Y-126033624D01*
X119317890Y-125949467D01*
X119375977Y-125840795D01*
X119411746Y-125722879D01*
X119420000Y-125639075D01*
X119428254Y-125722879D01*
X119464023Y-125840795D01*
X119522110Y-125949467D01*
X119591176Y-126033624D01*
X119591176Y-126099900D01*
X119603261Y-126222597D01*
X119639050Y-126340579D01*
X119697169Y-126449311D01*
X119775384Y-126544616D01*
X119870689Y-126622831D01*
X119979421Y-126680950D01*
X120097403Y-126716739D01*
X120220100Y-126728824D01*
X121119900Y-126728824D01*
X121242597Y-126716739D01*
X121360579Y-126680950D01*
X121469311Y-126622831D01*
X121564616Y-126544616D01*
X121642831Y-126449311D01*
X121700950Y-126340579D01*
X121736739Y-126222597D01*
X121748824Y-126099900D01*
X121748824Y-126033624D01*
X121817890Y-125949467D01*
X121875977Y-125840795D01*
X121911746Y-125722879D01*
X121920000Y-125639075D01*
X121928254Y-125722879D01*
X121964023Y-125840795D01*
X122022110Y-125949467D01*
X122091176Y-126033624D01*
X122091176Y-126099900D01*
X122103261Y-126222597D01*
X122139050Y-126340579D01*
X122197169Y-126449311D01*
X122275384Y-126544616D01*
X122370689Y-126622831D01*
X122479421Y-126680950D01*
X122597403Y-126716739D01*
X122720100Y-126728824D01*
X123619900Y-126728824D01*
X123742597Y-126716739D01*
X123860579Y-126680950D01*
X123969311Y-126622831D01*
X124064616Y-126544616D01*
X124142831Y-126449311D01*
X124200950Y-126340579D01*
X124236739Y-126222597D01*
X124248824Y-126099900D01*
X124248824Y-126033624D01*
X124317890Y-125949467D01*
X124375977Y-125840795D01*
X124411746Y-125722879D01*
X124423824Y-125600250D01*
X124423824Y-124974750D01*
X124411746Y-124852121D01*
X124375977Y-124734205D01*
X124317890Y-124625533D01*
X124239719Y-124530281D01*
X124144467Y-124452110D01*
X124035795Y-124394023D01*
X123917879Y-124358254D01*
X123795250Y-124346176D01*
X123707000Y-124346176D01*
X123707000Y-124020160D01*
X123786202Y-123987353D01*
X123987167Y-123853073D01*
X124158073Y-123682167D01*
X124258112Y-123532447D01*
X124256928Y-123750000D01*
X124269188Y-123874482D01*
X124305498Y-123994180D01*
X124364463Y-124104494D01*
X124443815Y-124201185D01*
X124540506Y-124280537D01*
X124650820Y-124339502D01*
X124770518Y-124375812D01*
X124895000Y-124388072D01*
X125459250Y-124385000D01*
X125617998Y-124226252D01*
X125617998Y-124385000D01*
X125730316Y-124385000D01*
X125722213Y-124390414D01*
X125530414Y-124582213D01*
X125379718Y-124807746D01*
X125275917Y-125058344D01*
X125223000Y-125324377D01*
X125223000Y-125595623D01*
X125275917Y-125861656D01*
X125379718Y-126112254D01*
X125530414Y-126337787D01*
X125558630Y-126366003D01*
X125475518Y-126374188D01*
X125355820Y-126410498D01*
X125245506Y-126469463D01*
X125148815Y-126548815D01*
X125069463Y-126645506D01*
X125010498Y-126755820D01*
X124974188Y-126875518D01*
X124961928Y-127000000D01*
X124965000Y-127714250D01*
X125123750Y-127873000D01*
X126473000Y-127873000D01*
X126473000Y-127853000D01*
X126727000Y-127853000D01*
X126727000Y-127873000D01*
X128076250Y-127873000D01*
X128235000Y-127714250D01*
X128238072Y-127000000D01*
X128225812Y-126875518D01*
X128189502Y-126755820D01*
X128130537Y-126645506D01*
X128051185Y-126548815D01*
X127954494Y-126469463D01*
X127844180Y-126410498D01*
X127724482Y-126374188D01*
X127641370Y-126366003D01*
X127669586Y-126337787D01*
X127820282Y-126112254D01*
X127924083Y-125861656D01*
X127977000Y-125595623D01*
X127977000Y-125324377D01*
X127924083Y-125058344D01*
X127820282Y-124807746D01*
X127669586Y-124582213D01*
X127477787Y-124390414D01*
X127252254Y-124239718D01*
X127074863Y-124166240D01*
X127125537Y-124104494D01*
X127184502Y-123994180D01*
X127220812Y-123874482D01*
X127233072Y-123750000D01*
X127230000Y-123185750D01*
X127071250Y-123027000D01*
X125872000Y-123027000D01*
X125872000Y-123047000D01*
X125618000Y-123047000D01*
X125618000Y-123027000D01*
X125598000Y-123027000D01*
X125598000Y-122773000D01*
X125618000Y-122773000D01*
X125618000Y-121573750D01*
X125459250Y-121415000D01*
X125400256Y-121414679D01*
X125541433Y-121273502D01*
X125610097Y-121266739D01*
X125728079Y-121230950D01*
X125836811Y-121172831D01*
X125932116Y-121094616D01*
X125932734Y-121093863D01*
X125947998Y-121144180D01*
X126006963Y-121254494D01*
X126086315Y-121351185D01*
X126163195Y-121414279D01*
X126030750Y-121415000D01*
X125872000Y-121573750D01*
X125872000Y-122773000D01*
X127071250Y-122773000D01*
X127230000Y-122614250D01*
X127233072Y-122050000D01*
X127220812Y-121925518D01*
X127184502Y-121805820D01*
X127134352Y-121711997D01*
X127314250Y-121710000D01*
X127473000Y-121551250D01*
X127473000Y-121536859D01*
X127562500Y-121538072D01*
X127686982Y-121525812D01*
X127727000Y-121513673D01*
X127727000Y-121551250D01*
X127885750Y-121710000D01*
X128162500Y-121713072D01*
X128286982Y-121700812D01*
X128406680Y-121664502D01*
X128473000Y-121629053D01*
X128473000Y-128979117D01*
X128460078Y-129110899D01*
X128427873Y-129217570D01*
X128375558Y-129315961D01*
X128305130Y-129402313D01*
X128219270Y-129473343D01*
X128121255Y-129526339D01*
X128014807Y-129559290D01*
X127884371Y-129573000D01*
X127875053Y-129573000D01*
X127954494Y-129530537D01*
X128051185Y-129451185D01*
X128130537Y-129354494D01*
X128189502Y-129244180D01*
X128225812Y-129124482D01*
X128238072Y-129000000D01*
X128235000Y-128285750D01*
X128076250Y-128127000D01*
X126727000Y-128127000D01*
X126727000Y-128147000D01*
X126473000Y-128147000D01*
X126473000Y-128127000D01*
X125123750Y-128127000D01*
X124965000Y-128285750D01*
X124961928Y-129000000D01*
X124974188Y-129124482D01*
X125010498Y-129244180D01*
X125069463Y-129354494D01*
X125148815Y-129451185D01*
X125245506Y-129530537D01*
X125324947Y-129573000D01*
X110920883Y-129573000D01*
X110789101Y-129560078D01*
X110682430Y-129527873D01*
X110584039Y-129475558D01*
X110497687Y-129405130D01*
X110426657Y-129319270D01*
X110373661Y-129221255D01*
X110340710Y-129114807D01*
X110327000Y-128984371D01*
X110327000Y-121308060D01*
X110375533Y-121347890D01*
X110484205Y-121405977D01*
X110602121Y-121441746D01*
X110724750Y-121453824D01*
X111350250Y-121453824D01*
X111472879Y-121441746D01*
X111590795Y-121405977D01*
X111699467Y-121347890D01*
X111783624Y-121278824D01*
X111849900Y-121278824D01*
X111972597Y-121266739D01*
X112090579Y-121230950D01*
X112199311Y-121172831D01*
X112294616Y-121094616D01*
X112372831Y-120999311D01*
X112430950Y-120890579D01*
X112466739Y-120772597D01*
X112478824Y-120649900D01*
X112478824Y-119750100D01*
X112466739Y-119627403D01*
X112430950Y-119509421D01*
X112372831Y-119400689D01*
X112294616Y-119305384D01*
X112272836Y-119287509D01*
X112412365Y-119259756D01*
X112553770Y-119201184D01*
X112681031Y-119116151D01*
X112782567Y-119014615D01*
X113370680Y-119014615D01*
X113300533Y-119052110D01*
%TA.AperFunction,Conductor*%
D33*
G36*
X113300533Y-119052110D02*
G01*
X113216376Y-119121176D01*
X113150100Y-119121176D01*
X113027403Y-119133261D01*
X112909421Y-119169050D01*
X112800689Y-119227169D01*
X112705384Y-119305384D01*
X112627169Y-119400689D01*
X112569050Y-119509421D01*
X112533261Y-119627403D01*
X112521176Y-119750100D01*
X112521176Y-120649900D01*
X112533261Y-120772597D01*
X112569050Y-120890579D01*
X112627169Y-120999311D01*
X112705384Y-121094616D01*
X112800689Y-121172831D01*
X112909421Y-121230950D01*
X113027403Y-121266739D01*
X113150100Y-121278824D01*
X113216376Y-121278824D01*
X113300533Y-121347890D01*
X113409205Y-121405977D01*
X113460501Y-121421537D01*
X113460501Y-121744011D01*
X113402903Y-121720153D01*
X113165849Y-121673000D01*
X112924151Y-121673000D01*
X112687097Y-121720153D01*
X112463798Y-121812647D01*
X112262833Y-121946927D01*
X112091927Y-122117833D01*
X111957647Y-122318798D01*
X111865153Y-122542097D01*
X111818000Y-122779151D01*
X111818000Y-123020849D01*
X111865153Y-123257903D01*
X111957647Y-123481202D01*
X112091927Y-123682167D01*
X112262833Y-123853073D01*
X112463798Y-123987353D01*
X112543001Y-124020160D01*
X112543001Y-124346176D01*
X111774750Y-124346176D01*
X111652121Y-124358254D01*
X111534205Y-124394023D01*
X111425533Y-124452110D01*
X111330281Y-124530281D01*
X111252110Y-124625533D01*
X111194023Y-124734205D01*
X111158254Y-124852121D01*
X111146176Y-124974750D01*
X111146176Y-125600250D01*
X111158254Y-125722879D01*
X111194023Y-125840795D01*
X111252110Y-125949467D01*
X111321176Y-126033624D01*
X111321176Y-126099900D01*
X111333261Y-126222597D01*
X111369050Y-126340579D01*
X111427169Y-126449311D01*
X111505384Y-126544616D01*
X111600689Y-126622831D01*
X111709421Y-126680950D01*
X111827403Y-126716739D01*
X111950100Y-126728824D01*
X112849900Y-126728824D01*
X112972597Y-126716739D01*
X113090579Y-126680950D01*
X113199311Y-126622831D01*
X113294616Y-126544616D01*
X113372831Y-126449311D01*
X113430950Y-126340579D01*
X113466739Y-126222597D01*
X113478824Y-126099900D01*
X113478824Y-126033624D01*
X113547890Y-125949467D01*
X113605977Y-125840795D01*
X113641746Y-125722879D01*
X113653824Y-125600250D01*
X113653824Y-124974750D01*
X113641746Y-124852121D01*
X113605977Y-124734205D01*
X113547890Y-124625533D01*
X113547738Y-124625347D01*
X113547000Y-124617857D01*
X113547000Y-124020160D01*
X113626202Y-123987353D01*
X113827167Y-123853073D01*
X113907999Y-123772241D01*
X113908000Y-126927846D01*
X113905572Y-126952499D01*
X113915264Y-127050908D01*
X113943969Y-127145535D01*
X113990583Y-127232744D01*
X114037600Y-127290034D01*
X114037603Y-127290037D01*
X114053316Y-127309183D01*
X114072462Y-127324896D01*
X114450698Y-127703132D01*
X114428254Y-127777121D01*
X114416176Y-127899750D01*
X114416176Y-128043589D01*
X114368048Y-128011431D01*
X114226643Y-127952859D01*
X114076528Y-127923000D01*
X113923472Y-127923000D01*
X113773357Y-127952859D01*
X113653824Y-128002371D01*
X113653824Y-127899750D01*
X113641746Y-127777121D01*
X113605977Y-127659205D01*
X113547890Y-127550533D01*
X113478824Y-127466376D01*
X113478824Y-127400100D01*
X113466739Y-127277403D01*
X113430950Y-127159421D01*
X113372831Y-127050689D01*
X113294616Y-126955384D01*
X113199311Y-126877169D01*
X113090579Y-126819050D01*
X112972597Y-126783261D01*
X112849900Y-126771176D01*
X111950100Y-126771176D01*
X111827403Y-126783261D01*
X111709421Y-126819050D01*
X111600689Y-126877169D01*
X111505384Y-126955384D01*
X111427169Y-127050689D01*
X111369050Y-127159421D01*
X111333261Y-127277403D01*
X111321176Y-127400100D01*
X111321176Y-127466376D01*
X111252110Y-127550533D01*
X111194023Y-127659205D01*
X111158254Y-127777121D01*
X111146176Y-127899750D01*
X111146176Y-128525250D01*
X111158254Y-128647879D01*
X111194023Y-128765795D01*
X111252110Y-128874467D01*
X111330281Y-128969719D01*
X111425533Y-129047890D01*
X111534205Y-129105977D01*
X111652121Y-129141746D01*
X111774750Y-129153824D01*
X113025250Y-129153824D01*
X113147879Y-129141746D01*
X113180510Y-129131848D01*
X113244463Y-129166031D01*
X113339090Y-129194736D01*
X113344909Y-129195309D01*
X113402096Y-129200941D01*
X113504691Y-129303536D01*
X113631952Y-129388569D01*
X113773357Y-129447141D01*
X113923472Y-129477000D01*
X114076528Y-129477000D01*
X114226643Y-129447141D01*
X114368048Y-129388569D01*
X114495309Y-129303536D01*
X114603536Y-129195309D01*
X114688569Y-129068048D01*
X114696668Y-129048496D01*
X114804205Y-129105977D01*
X114922121Y-129141746D01*
X115044750Y-129153824D01*
X116295250Y-129153824D01*
X116417879Y-129141746D01*
X116535795Y-129105977D01*
X116644467Y-129047890D01*
X116739719Y-128969719D01*
X116817890Y-128874467D01*
X116875977Y-128765795D01*
X116891537Y-128714500D01*
X116948463Y-128714500D01*
X116964023Y-128765795D01*
X117022110Y-128874467D01*
X117100281Y-128969719D01*
X117195533Y-129047890D01*
X117304205Y-129105977D01*
X117422121Y-129141746D01*
X117544750Y-129153824D01*
X118795250Y-129153824D01*
X118917879Y-129141746D01*
X119035795Y-129105977D01*
X119144467Y-129047890D01*
X119239719Y-128969719D01*
X119317890Y-128874467D01*
X119375977Y-128765795D01*
X119391537Y-128714500D01*
X119448463Y-128714500D01*
X119464023Y-128765795D01*
X119522110Y-128874467D01*
X119600281Y-128969719D01*
X119695533Y-129047890D01*
X119804205Y-129105977D01*
X119922121Y-129141746D01*
X120044750Y-129153824D01*
X121295250Y-129153824D01*
X121417879Y-129141746D01*
X121535795Y-129105977D01*
X121644467Y-129047890D01*
X121739719Y-128969719D01*
X121817890Y-128874467D01*
X121875977Y-128765795D01*
X121891537Y-128714500D01*
X121948463Y-128714500D01*
X121964023Y-128765795D01*
X122022110Y-128874467D01*
X122100281Y-128969719D01*
X122195533Y-129047890D01*
X122304205Y-129105977D01*
X122422121Y-129141746D01*
X122544750Y-129153824D01*
X123795250Y-129153824D01*
X123917879Y-129141746D01*
X124035795Y-129105977D01*
X124144467Y-129047890D01*
X124239719Y-128969719D01*
X124317890Y-128874467D01*
X124375977Y-128765795D01*
X124411746Y-128647879D01*
X124423824Y-128525250D01*
X124423824Y-127899750D01*
X124411746Y-127777121D01*
X124375977Y-127659205D01*
X124317890Y-127550533D01*
X124248824Y-127466376D01*
X124248824Y-127400100D01*
X124236739Y-127277403D01*
X124200950Y-127159421D01*
X124142831Y-127050689D01*
X124064616Y-126955384D01*
X123969311Y-126877169D01*
X123860579Y-126819050D01*
X123742597Y-126783261D01*
X123619900Y-126771176D01*
X122720100Y-126771176D01*
X122597403Y-126783261D01*
X122479421Y-126819050D01*
X122370689Y-126877169D01*
X122275384Y-126955384D01*
X122197169Y-127050689D01*
X122139050Y-127159421D01*
X122103261Y-127277403D01*
X122091176Y-127400100D01*
X122091176Y-127466376D01*
X122022110Y-127550533D01*
X121964023Y-127659205D01*
X121948463Y-127710500D01*
X121891537Y-127710500D01*
X121875977Y-127659205D01*
X121817890Y-127550533D01*
X121748824Y-127466376D01*
X121748824Y-127400100D01*
X121736739Y-127277403D01*
X121700950Y-127159421D01*
X121642831Y-127050689D01*
X121564616Y-126955384D01*
X121469311Y-126877169D01*
X121360579Y-126819050D01*
X121242597Y-126783261D01*
X121119900Y-126771176D01*
X120220100Y-126771176D01*
X120097403Y-126783261D01*
X119979421Y-126819050D01*
X119870689Y-126877169D01*
X119775384Y-126955384D01*
X119697169Y-127050689D01*
X119639050Y-127159421D01*
X119603261Y-127277403D01*
X119591176Y-127400100D01*
X119591176Y-127466376D01*
X119522110Y-127550533D01*
X119464023Y-127659205D01*
X119448463Y-127710500D01*
X119391537Y-127710500D01*
X119375977Y-127659205D01*
X119317890Y-127550533D01*
X119248824Y-127466376D01*
X119248824Y-127400100D01*
X119236739Y-127277403D01*
X119200950Y-127159421D01*
X119142831Y-127050689D01*
X119064616Y-126955384D01*
X118969311Y-126877169D01*
X118860579Y-126819050D01*
X118742597Y-126783261D01*
X118619900Y-126771176D01*
X117720100Y-126771176D01*
X117597403Y-126783261D01*
X117479421Y-126819050D01*
X117370689Y-126877169D01*
X117275384Y-126955384D01*
X117197169Y-127050689D01*
X117139050Y-127159421D01*
X117103261Y-127277403D01*
X117091176Y-127400100D01*
X117091176Y-127466376D01*
X117022110Y-127550533D01*
X116964023Y-127659205D01*
X116948463Y-127710500D01*
X116891537Y-127710500D01*
X116875977Y-127659205D01*
X116817890Y-127550533D01*
X116748824Y-127466376D01*
X116748824Y-127400100D01*
X116736739Y-127277403D01*
X116700950Y-127159421D01*
X116642831Y-127050689D01*
X116564616Y-126955384D01*
X116469311Y-126877169D01*
X116360579Y-126819050D01*
X116242597Y-126783261D01*
X116119900Y-126771176D01*
X115220100Y-126771176D01*
X115097403Y-126783261D01*
X114984840Y-126817406D01*
X114911999Y-126744565D01*
X114911999Y-126644912D01*
X114979421Y-126680950D01*
X115097403Y-126716739D01*
X115220100Y-126728824D01*
X116119900Y-126728824D01*
X116242597Y-126716739D01*
X116360579Y-126680950D01*
X116469311Y-126622831D01*
X116564616Y-126544616D01*
X116642831Y-126449311D01*
X116700950Y-126340579D01*
X116736739Y-126222597D01*
X116748824Y-126099900D01*
X116748824Y-126033624D01*
X116817890Y-125949467D01*
X116875977Y-125840795D01*
X116911746Y-125722879D01*
X116920000Y-125639075D01*
X116928254Y-125722879D01*
X116964023Y-125840795D01*
X117022110Y-125949467D01*
X117091176Y-126033624D01*
X117091176Y-126099900D01*
X117103261Y-126222597D01*
X117139050Y-126340579D01*
X117197169Y-126449311D01*
X117275384Y-126544616D01*
X117370689Y-126622831D01*
X117479421Y-126680950D01*
X117597403Y-126716739D01*
X117720100Y-126728824D01*
X118619900Y-126728824D01*
X118742597Y-126716739D01*
X118860579Y-126680950D01*
X118969311Y-126622831D01*
X119064616Y-126544616D01*
X119142831Y-126449311D01*
X119200950Y-126340579D01*
X119236739Y-126222597D01*
X119248824Y-126099900D01*
X119248824Y-126033624D01*
X119317890Y-125949467D01*
X119375977Y-125840795D01*
X119411746Y-125722879D01*
X119420000Y-125639075D01*
X119428254Y-125722879D01*
X119464023Y-125840795D01*
X119522110Y-125949467D01*
X119591176Y-126033624D01*
X119591176Y-126099900D01*
X119603261Y-126222597D01*
X119639050Y-126340579D01*
X119697169Y-126449311D01*
X119775384Y-126544616D01*
X119870689Y-126622831D01*
X119979421Y-126680950D01*
X120097403Y-126716739D01*
X120220100Y-126728824D01*
X121119900Y-126728824D01*
X121242597Y-126716739D01*
X121360579Y-126680950D01*
X121469311Y-126622831D01*
X121564616Y-126544616D01*
X121642831Y-126449311D01*
X121700950Y-126340579D01*
X121736739Y-126222597D01*
X121748824Y-126099900D01*
X121748824Y-126033624D01*
X121817890Y-125949467D01*
X121875977Y-125840795D01*
X121911746Y-125722879D01*
X121920000Y-125639075D01*
X121928254Y-125722879D01*
X121964023Y-125840795D01*
X122022110Y-125949467D01*
X122091176Y-126033624D01*
X122091176Y-126099900D01*
X122103261Y-126222597D01*
X122139050Y-126340579D01*
X122197169Y-126449311D01*
X122275384Y-126544616D01*
X122370689Y-126622831D01*
X122479421Y-126680950D01*
X122597403Y-126716739D01*
X122720100Y-126728824D01*
X123619900Y-126728824D01*
X123742597Y-126716739D01*
X123860579Y-126680950D01*
X123969311Y-126622831D01*
X124064616Y-126544616D01*
X124142831Y-126449311D01*
X124200950Y-126340579D01*
X124236739Y-126222597D01*
X124248824Y-126099900D01*
X124248824Y-126033624D01*
X124317890Y-125949467D01*
X124375977Y-125840795D01*
X124411746Y-125722879D01*
X124423824Y-125600250D01*
X124423824Y-124974750D01*
X124411746Y-124852121D01*
X124375977Y-124734205D01*
X124317890Y-124625533D01*
X124239719Y-124530281D01*
X124144467Y-124452110D01*
X124035795Y-124394023D01*
X123917879Y-124358254D01*
X123795250Y-124346176D01*
X123707000Y-124346176D01*
X123707000Y-124020160D01*
X123786202Y-123987353D01*
X123987167Y-123853073D01*
X124158073Y-123682167D01*
X124258112Y-123532447D01*
X124256928Y-123750000D01*
X124269188Y-123874482D01*
X124305498Y-123994180D01*
X124364463Y-124104494D01*
X124443815Y-124201185D01*
X124540506Y-124280537D01*
X124650820Y-124339502D01*
X124770518Y-124375812D01*
X124895000Y-124388072D01*
X125459250Y-124385000D01*
X125617998Y-124226252D01*
X125617998Y-124385000D01*
X125730316Y-124385000D01*
X125722213Y-124390414D01*
X125530414Y-124582213D01*
X125379718Y-124807746D01*
X125275917Y-125058344D01*
X125223000Y-125324377D01*
X125223000Y-125595623D01*
X125275917Y-125861656D01*
X125379718Y-126112254D01*
X125530414Y-126337787D01*
X125558630Y-126366003D01*
X125475518Y-126374188D01*
X125355820Y-126410498D01*
X125245506Y-126469463D01*
X125148815Y-126548815D01*
X125069463Y-126645506D01*
X125010498Y-126755820D01*
X124974188Y-126875518D01*
X124961928Y-127000000D01*
X124965000Y-127714250D01*
X125123750Y-127873000D01*
X126473000Y-127873000D01*
X126473000Y-127853000D01*
X126727000Y-127853000D01*
X126727000Y-127873000D01*
X128076250Y-127873000D01*
X128235000Y-127714250D01*
X128238072Y-127000000D01*
X128225812Y-126875518D01*
X128189502Y-126755820D01*
X128130537Y-126645506D01*
X128051185Y-126548815D01*
X127954494Y-126469463D01*
X127844180Y-126410498D01*
X127724482Y-126374188D01*
X127641370Y-126366003D01*
X127669586Y-126337787D01*
X127820282Y-126112254D01*
X127924083Y-125861656D01*
X127977000Y-125595623D01*
X127977000Y-125324377D01*
X127924083Y-125058344D01*
X127820282Y-124807746D01*
X127669586Y-124582213D01*
X127477787Y-124390414D01*
X127252254Y-124239718D01*
X127074863Y-124166240D01*
X127125537Y-124104494D01*
X127184502Y-123994180D01*
X127220812Y-123874482D01*
X127233072Y-123750000D01*
X127230000Y-123185750D01*
X127071250Y-123027000D01*
X125872000Y-123027000D01*
X125872000Y-123047000D01*
X125618000Y-123047000D01*
X125618000Y-123027000D01*
X125598000Y-123027000D01*
X125598000Y-122773000D01*
X125618000Y-122773000D01*
X125618000Y-121573750D01*
X125459250Y-121415000D01*
X125400256Y-121414679D01*
X125541433Y-121273502D01*
X125610097Y-121266739D01*
X125728079Y-121230950D01*
X125836811Y-121172831D01*
X125932116Y-121094616D01*
X125932734Y-121093863D01*
X125947998Y-121144180D01*
X126006963Y-121254494D01*
X126086315Y-121351185D01*
X126163195Y-121414279D01*
X126030750Y-121415000D01*
X125872000Y-121573750D01*
X125872000Y-122773000D01*
X127071250Y-122773000D01*
X127230000Y-122614250D01*
X127233072Y-122050000D01*
X127220812Y-121925518D01*
X127184502Y-121805820D01*
X127134352Y-121711997D01*
X127314250Y-121710000D01*
X127473000Y-121551250D01*
X127473000Y-121536859D01*
X127562500Y-121538072D01*
X127686982Y-121525812D01*
X127727000Y-121513673D01*
X127727000Y-121551250D01*
X127885750Y-121710000D01*
X128162500Y-121713072D01*
X128286982Y-121700812D01*
X128406680Y-121664502D01*
X128473000Y-121629053D01*
X128473000Y-128979117D01*
X128460078Y-129110899D01*
X128427873Y-129217570D01*
X128375558Y-129315961D01*
X128305130Y-129402313D01*
X128219270Y-129473343D01*
X128121255Y-129526339D01*
X128014807Y-129559290D01*
X127884371Y-129573000D01*
X127875053Y-129573000D01*
X127954494Y-129530537D01*
X128051185Y-129451185D01*
X128130537Y-129354494D01*
X128189502Y-129244180D01*
X128225812Y-129124482D01*
X128238072Y-129000000D01*
X128235000Y-128285750D01*
X128076250Y-128127000D01*
X126727000Y-128127000D01*
X126727000Y-128147000D01*
X126473000Y-128147000D01*
X126473000Y-128127000D01*
X125123750Y-128127000D01*
X124965000Y-128285750D01*
X124961928Y-129000000D01*
X124974188Y-129124482D01*
X125010498Y-129244180D01*
X125069463Y-129354494D01*
X125148815Y-129451185D01*
X125245506Y-129530537D01*
X125324947Y-129573000D01*
X110920883Y-129573000D01*
X110789101Y-129560078D01*
X110682430Y-129527873D01*
X110584039Y-129475558D01*
X110497687Y-129405130D01*
X110426657Y-129319270D01*
X110373661Y-129221255D01*
X110340710Y-129114807D01*
X110327000Y-128984371D01*
X110327000Y-121308060D01*
X110375533Y-121347890D01*
X110484205Y-121405977D01*
X110602121Y-121441746D01*
X110724750Y-121453824D01*
X111350250Y-121453824D01*
X111472879Y-121441746D01*
X111590795Y-121405977D01*
X111699467Y-121347890D01*
X111783624Y-121278824D01*
X111849900Y-121278824D01*
X111972597Y-121266739D01*
X112090579Y-121230950D01*
X112199311Y-121172831D01*
X112294616Y-121094616D01*
X112372831Y-120999311D01*
X112430950Y-120890579D01*
X112466739Y-120772597D01*
X112478824Y-120649900D01*
X112478824Y-119750100D01*
X112466739Y-119627403D01*
X112430950Y-119509421D01*
X112372831Y-119400689D01*
X112294616Y-119305384D01*
X112272836Y-119287509D01*
X112412365Y-119259756D01*
X112553770Y-119201184D01*
X112681031Y-119116151D01*
X112782567Y-119014615D01*
X113370680Y-119014615D01*
X113300533Y-119052110D01*
G37*
%TD.AperFunction*%
D32*
X116648750Y-120527000D02*
X117106481Y-120527000D01*
X117125000Y-120528824D01*
X117597000Y-120528824D01*
X117597000Y-120673000D01*
X117577000Y-120673000D01*
X117577000Y-121276250D01*
X117623001Y-121322251D01*
X117623001Y-121779840D01*
X117543798Y-121812647D01*
X117342833Y-121946927D01*
X117171927Y-122117833D01*
X117037647Y-122318798D01*
X116945153Y-122542097D01*
X116898000Y-122779151D01*
X116898000Y-123020849D01*
X116945153Y-123257903D01*
X117037647Y-123481202D01*
X117171927Y-123682167D01*
X117342833Y-123853073D01*
X117543798Y-123987353D01*
X117623000Y-124020160D01*
X117623001Y-124346176D01*
X117544750Y-124346176D01*
X117422121Y-124358254D01*
X117304205Y-124394023D01*
X117195533Y-124452110D01*
X117100281Y-124530281D01*
X117022110Y-124625533D01*
X116964023Y-124734205D01*
X116928254Y-124852121D01*
X116920000Y-124935925D01*
X116911746Y-124852121D01*
X116875977Y-124734205D01*
X116817890Y-124625533D01*
X116739719Y-124530281D01*
X116644467Y-124452110D01*
X116535795Y-124394023D01*
X116417879Y-124358254D01*
X116295250Y-124346176D01*
X116087000Y-124346176D01*
X116087000Y-124020160D01*
X116166202Y-123987353D01*
X116367167Y-123853073D01*
X116538073Y-123682167D01*
X116672353Y-123481202D01*
X116764847Y-123257903D01*
X116812000Y-123020849D01*
X116812000Y-122779151D01*
X116764847Y-122542097D01*
X116672353Y-122318798D01*
X116538073Y-122117833D01*
X116367167Y-121946927D01*
X116166202Y-121812647D01*
X116052000Y-121765343D01*
X116052000Y-121132867D01*
X116085463Y-121114981D01*
X116142869Y-121067869D01*
X116189981Y-121010463D01*
X116224988Y-120944970D01*
X116246545Y-120873905D01*
X116250696Y-120831750D01*
X116490000Y-120831750D01*
X116502454Y-120939902D01*
X116541710Y-121058666D01*
X116603381Y-121167490D01*
X116685097Y-121262192D01*
X116783719Y-121339132D01*
X116895456Y-121395353D01*
X117016014Y-121428695D01*
X117140761Y-121437877D01*
X117164250Y-121435000D01*
X117323000Y-121276250D01*
X117323000Y-120673000D01*
X116648750Y-120673000D01*
X116490000Y-120831750D01*
X116250696Y-120831750D01*
X116253824Y-120800000D01*
X116253824Y-120452000D01*
X116573750Y-120452000D01*
X116648750Y-120527000D01*
%TA.AperFunction,Conductor*%
D33*
G36*
X116648750Y-120527000D02*
G01*
X117106481Y-120527000D01*
X117125000Y-120528824D01*
X117597000Y-120528824D01*
X117597000Y-120673000D01*
X117577000Y-120673000D01*
X117577000Y-121276250D01*
X117623001Y-121322251D01*
X117623001Y-121779840D01*
X117543798Y-121812647D01*
X117342833Y-121946927D01*
X117171927Y-122117833D01*
X117037647Y-122318798D01*
X116945153Y-122542097D01*
X116898000Y-122779151D01*
X116898000Y-123020849D01*
X116945153Y-123257903D01*
X117037647Y-123481202D01*
X117171927Y-123682167D01*
X117342833Y-123853073D01*
X117543798Y-123987353D01*
X117623000Y-124020160D01*
X117623001Y-124346176D01*
X117544750Y-124346176D01*
X117422121Y-124358254D01*
X117304205Y-124394023D01*
X117195533Y-124452110D01*
X117100281Y-124530281D01*
X117022110Y-124625533D01*
X116964023Y-124734205D01*
X116928254Y-124852121D01*
X116920000Y-124935925D01*
X116911746Y-124852121D01*
X116875977Y-124734205D01*
X116817890Y-124625533D01*
X116739719Y-124530281D01*
X116644467Y-124452110D01*
X116535795Y-124394023D01*
X116417879Y-124358254D01*
X116295250Y-124346176D01*
X116087000Y-124346176D01*
X116087000Y-124020160D01*
X116166202Y-123987353D01*
X116367167Y-123853073D01*
X116538073Y-123682167D01*
X116672353Y-123481202D01*
X116764847Y-123257903D01*
X116812000Y-123020849D01*
X116812000Y-122779151D01*
X116764847Y-122542097D01*
X116672353Y-122318798D01*
X116538073Y-122117833D01*
X116367167Y-121946927D01*
X116166202Y-121812647D01*
X116052000Y-121765343D01*
X116052000Y-121132867D01*
X116085463Y-121114981D01*
X116142869Y-121067869D01*
X116189981Y-121010463D01*
X116224988Y-120944970D01*
X116246545Y-120873905D01*
X116250696Y-120831750D01*
X116490000Y-120831750D01*
X116502454Y-120939902D01*
X116541710Y-121058666D01*
X116603381Y-121167490D01*
X116685097Y-121262192D01*
X116783719Y-121339132D01*
X116895456Y-121395353D01*
X117016014Y-121428695D01*
X117140761Y-121437877D01*
X117164250Y-121435000D01*
X117323000Y-121276250D01*
X117323000Y-120673000D01*
X116648750Y-120673000D01*
X116490000Y-120831750D01*
X116250696Y-120831750D01*
X116253824Y-120800000D01*
X116253824Y-120452000D01*
X116573750Y-120452000D01*
X116648750Y-120527000D01*
G37*
%TD.AperFunction*%
D32*
X118630584Y-121565245D02*
X118677601Y-121622535D01*
X118677604Y-121622538D01*
X118693317Y-121641684D01*
X118712463Y-121657397D01*
X119517960Y-122462894D01*
X119485153Y-122542097D01*
X119438000Y-122779151D01*
X119438000Y-123020849D01*
X119485153Y-123257903D01*
X119577647Y-123481202D01*
X119711927Y-123682167D01*
X119882833Y-123853073D01*
X120083798Y-123987353D01*
X120163000Y-124020160D01*
X120163001Y-124346176D01*
X120044750Y-124346176D01*
X119922121Y-124358254D01*
X119804205Y-124394023D01*
X119695533Y-124452110D01*
X119600281Y-124530281D01*
X119522110Y-124625533D01*
X119464023Y-124734205D01*
X119428254Y-124852121D01*
X119420000Y-124935925D01*
X119411746Y-124852121D01*
X119375977Y-124734205D01*
X119317890Y-124625533D01*
X119239719Y-124530281D01*
X119144467Y-124452110D01*
X119035795Y-124394023D01*
X118917879Y-124358254D01*
X118795250Y-124346176D01*
X118627000Y-124346176D01*
X118627000Y-124020160D01*
X118706202Y-123987353D01*
X118907167Y-123853073D01*
X119078073Y-123682167D01*
X119212353Y-123481202D01*
X119304847Y-123257903D01*
X119352000Y-123020849D01*
X119352000Y-122779151D01*
X119304847Y-122542097D01*
X119212353Y-122318798D01*
X119078073Y-122117833D01*
X118907167Y-121946927D01*
X118706202Y-121812647D01*
X118627000Y-121779840D01*
X118627000Y-121558540D01*
X118630584Y-121565245D01*
%TA.AperFunction,Conductor*%
D33*
G36*
X118630584Y-121565245D02*
G01*
X118677601Y-121622535D01*
X118677604Y-121622538D01*
X118693317Y-121641684D01*
X118712463Y-121657397D01*
X119517960Y-122462894D01*
X119485153Y-122542097D01*
X119438000Y-122779151D01*
X119438000Y-123020849D01*
X119485153Y-123257903D01*
X119577647Y-123481202D01*
X119711927Y-123682167D01*
X119882833Y-123853073D01*
X120083798Y-123987353D01*
X120163000Y-124020160D01*
X120163001Y-124346176D01*
X120044750Y-124346176D01*
X119922121Y-124358254D01*
X119804205Y-124394023D01*
X119695533Y-124452110D01*
X119600281Y-124530281D01*
X119522110Y-124625533D01*
X119464023Y-124734205D01*
X119428254Y-124852121D01*
X119420000Y-124935925D01*
X119411746Y-124852121D01*
X119375977Y-124734205D01*
X119317890Y-124625533D01*
X119239719Y-124530281D01*
X119144467Y-124452110D01*
X119035795Y-124394023D01*
X118917879Y-124358254D01*
X118795250Y-124346176D01*
X118627000Y-124346176D01*
X118627000Y-124020160D01*
X118706202Y-123987353D01*
X118907167Y-123853073D01*
X119078073Y-123682167D01*
X119212353Y-123481202D01*
X119304847Y-123257903D01*
X119352000Y-123020849D01*
X119352000Y-122779151D01*
X119304847Y-122542097D01*
X119212353Y-122318798D01*
X119078073Y-122117833D01*
X118907167Y-121946927D01*
X118706202Y-121812647D01*
X118627000Y-121779840D01*
X118627000Y-121558540D01*
X118630584Y-121565245D01*
G37*
%TD.AperFunction*%
D32*
X122703000Y-121187936D02*
X122703000Y-121779840D01*
X122623798Y-121812647D01*
X122422833Y-121946927D01*
X122251927Y-122117833D01*
X122117647Y-122318798D01*
X122025153Y-122542097D01*
X121978000Y-122779151D01*
X121978000Y-123020849D01*
X122025153Y-123257903D01*
X122117647Y-123481202D01*
X122251927Y-123682167D01*
X122422833Y-123853073D01*
X122623798Y-123987353D01*
X122703000Y-124020160D01*
X122703001Y-124346176D01*
X122544750Y-124346176D01*
X122422121Y-124358254D01*
X122304205Y-124394023D01*
X122195533Y-124452110D01*
X122100281Y-124530281D01*
X122022110Y-124625533D01*
X121964023Y-124734205D01*
X121928254Y-124852121D01*
X121920000Y-124935925D01*
X121911746Y-124852121D01*
X121875977Y-124734205D01*
X121817890Y-124625533D01*
X121739719Y-124530281D01*
X121644467Y-124452110D01*
X121535795Y-124394023D01*
X121417879Y-124358254D01*
X121295250Y-124346176D01*
X121167000Y-124346176D01*
X121167000Y-124020160D01*
X121246202Y-123987353D01*
X121447167Y-123853073D01*
X121618073Y-123682167D01*
X121752353Y-123481202D01*
X121844847Y-123257903D01*
X121892000Y-123020849D01*
X121892000Y-122779151D01*
X121844847Y-122542097D01*
X121752353Y-122318798D01*
X121618073Y-122117833D01*
X121447167Y-121946927D01*
X121246202Y-121812647D01*
X121022903Y-121720153D01*
X120785849Y-121673000D01*
X120544151Y-121673000D01*
X120307097Y-121720153D01*
X120227894Y-121752960D01*
X119587908Y-121112974D01*
X119642869Y-121067869D01*
X119689981Y-121010463D01*
X119724988Y-120944970D01*
X119746545Y-120873905D01*
X119750696Y-120831750D01*
X119990000Y-120831750D01*
X120002454Y-120939902D01*
X120041710Y-121058666D01*
X120103381Y-121167490D01*
X120185097Y-121262192D01*
X120283719Y-121339132D01*
X120395456Y-121395353D01*
X120516014Y-121428695D01*
X120640761Y-121437877D01*
X120664250Y-121435000D01*
X120823000Y-121276250D01*
X120823000Y-120673000D01*
X121077000Y-120673000D01*
X121077000Y-121276250D01*
X121235750Y-121435000D01*
X121259239Y-121437877D01*
X121383986Y-121428695D01*
X121504544Y-121395353D01*
X121616281Y-121339132D01*
X121714903Y-121262192D01*
X121796619Y-121167490D01*
X121858290Y-121058666D01*
X121897546Y-120939902D01*
X121910000Y-120831750D01*
X121751250Y-120673000D01*
X121077000Y-120673000D01*
X120823000Y-120673000D01*
X120148750Y-120673000D01*
X119990000Y-120831750D01*
X119750696Y-120831750D01*
X119753824Y-120800000D01*
X119753824Y-120452000D01*
X120025347Y-120452000D01*
X120050000Y-120454428D01*
X120073831Y-120452081D01*
X120148750Y-120527000D01*
X120606481Y-120527000D01*
X120625000Y-120528824D01*
X121275000Y-120528824D01*
X121293519Y-120527000D01*
X121751250Y-120527000D01*
X121896658Y-120381592D01*
X122703000Y-121187936D01*
%TA.AperFunction,Conductor*%
D33*
G36*
X122703000Y-121187936D02*
G01*
X122703000Y-121779840D01*
X122623798Y-121812647D01*
X122422833Y-121946927D01*
X122251927Y-122117833D01*
X122117647Y-122318798D01*
X122025153Y-122542097D01*
X121978000Y-122779151D01*
X121978000Y-123020849D01*
X122025153Y-123257903D01*
X122117647Y-123481202D01*
X122251927Y-123682167D01*
X122422833Y-123853073D01*
X122623798Y-123987353D01*
X122703000Y-124020160D01*
X122703001Y-124346176D01*
X122544750Y-124346176D01*
X122422121Y-124358254D01*
X122304205Y-124394023D01*
X122195533Y-124452110D01*
X122100281Y-124530281D01*
X122022110Y-124625533D01*
X121964023Y-124734205D01*
X121928254Y-124852121D01*
X121920000Y-124935925D01*
X121911746Y-124852121D01*
X121875977Y-124734205D01*
X121817890Y-124625533D01*
X121739719Y-124530281D01*
X121644467Y-124452110D01*
X121535795Y-124394023D01*
X121417879Y-124358254D01*
X121295250Y-124346176D01*
X121167000Y-124346176D01*
X121167000Y-124020160D01*
X121246202Y-123987353D01*
X121447167Y-123853073D01*
X121618073Y-123682167D01*
X121752353Y-123481202D01*
X121844847Y-123257903D01*
X121892000Y-123020849D01*
X121892000Y-122779151D01*
X121844847Y-122542097D01*
X121752353Y-122318798D01*
X121618073Y-122117833D01*
X121447167Y-121946927D01*
X121246202Y-121812647D01*
X121022903Y-121720153D01*
X120785849Y-121673000D01*
X120544151Y-121673000D01*
X120307097Y-121720153D01*
X120227894Y-121752960D01*
X119587908Y-121112974D01*
X119642869Y-121067869D01*
X119689981Y-121010463D01*
X119724988Y-120944970D01*
X119746545Y-120873905D01*
X119750696Y-120831750D01*
X119990000Y-120831750D01*
X120002454Y-120939902D01*
X120041710Y-121058666D01*
X120103381Y-121167490D01*
X120185097Y-121262192D01*
X120283719Y-121339132D01*
X120395456Y-121395353D01*
X120516014Y-121428695D01*
X120640761Y-121437877D01*
X120664250Y-121435000D01*
X120823000Y-121276250D01*
X120823000Y-120673000D01*
X121077000Y-120673000D01*
X121077000Y-121276250D01*
X121235750Y-121435000D01*
X121259239Y-121437877D01*
X121383986Y-121428695D01*
X121504544Y-121395353D01*
X121616281Y-121339132D01*
X121714903Y-121262192D01*
X121796619Y-121167490D01*
X121858290Y-121058666D01*
X121897546Y-120939902D01*
X121910000Y-120831750D01*
X121751250Y-120673000D01*
X121077000Y-120673000D01*
X120823000Y-120673000D01*
X120148750Y-120673000D01*
X119990000Y-120831750D01*
X119750696Y-120831750D01*
X119753824Y-120800000D01*
X119753824Y-120452000D01*
X120025347Y-120452000D01*
X120050000Y-120454428D01*
X120073831Y-120452081D01*
X120148750Y-120527000D01*
X120606481Y-120527000D01*
X120625000Y-120528824D01*
X121275000Y-120528824D01*
X121293519Y-120527000D01*
X121751250Y-120527000D01*
X121896658Y-120381592D01*
X122703000Y-121187936D01*
G37*
%TD.AperFunction*%
D32*
X123666240Y-109946635D02*
X123917868Y-109865975D01*
X124046267Y-109597671D01*
X124087019Y-109438072D01*
X125446755Y-109438072D01*
X125533723Y-109678832D01*
X125594140Y-109791863D01*
X125833007Y-109857388D01*
X126252323Y-109438072D01*
X126611533Y-109438072D01*
X126012612Y-110036993D01*
X126078137Y-110275860D01*
X126325116Y-110391760D01*
X126589960Y-110457250D01*
X126862492Y-110469812D01*
X127132238Y-110428965D01*
X127388832Y-110336277D01*
X127501863Y-110275860D01*
X127567388Y-110036993D01*
X126968467Y-109438072D01*
X127109357Y-109438072D01*
X127231614Y-109538405D01*
X127385150Y-109620472D01*
X127551746Y-109671008D01*
X127561582Y-109671977D01*
X127746993Y-109857388D01*
X127985860Y-109791863D01*
X128034566Y-109688072D01*
X128473001Y-109688072D01*
X128473000Y-118770948D01*
X128406680Y-118735498D01*
X128286982Y-118699188D01*
X128162500Y-118686928D01*
X127885750Y-118690000D01*
X127727000Y-118848750D01*
X127727000Y-118886327D01*
X127686982Y-118874188D01*
X127562500Y-118861928D01*
X127516486Y-118862551D01*
X127567388Y-118676993D01*
X126790000Y-117899605D01*
X126012612Y-118676993D01*
X126078137Y-118915860D01*
X126187380Y-118967125D01*
X126183006Y-118969463D01*
X126086315Y-119048815D01*
X126006963Y-119145506D01*
X125947998Y-119255820D01*
X125932734Y-119306137D01*
X125932116Y-119305384D01*
X125836811Y-119227169D01*
X125728079Y-119169050D01*
X125610097Y-119133261D01*
X125487400Y-119121176D01*
X125421124Y-119121176D01*
X125402000Y-119105481D01*
X125402000Y-118351834D01*
X125503536Y-118250298D01*
X125507061Y-118245022D01*
X125533723Y-118318832D01*
X125594140Y-118431863D01*
X125833007Y-118497388D01*
X126610395Y-117720000D01*
X126969605Y-117720000D01*
X127746993Y-118497388D01*
X127985860Y-118431863D01*
X128101760Y-118184884D01*
X128167250Y-117920040D01*
X128179812Y-117647508D01*
X128138965Y-117377762D01*
X128046277Y-117121168D01*
X127985860Y-117008137D01*
X127746993Y-116942612D01*
X126969605Y-117720000D01*
X126610395Y-117720000D01*
X125833007Y-116942612D01*
X125594140Y-117008137D01*
X125484862Y-117241006D01*
X125395309Y-117151453D01*
X125268048Y-117066420D01*
X125126643Y-117007848D01*
X124976528Y-116977989D01*
X124823472Y-116977989D01*
X124673357Y-117007848D01*
X124531952Y-117066420D01*
X124404691Y-117151453D01*
X124296464Y-117259680D01*
X124211431Y-117386941D01*
X124152859Y-117528346D01*
X124132603Y-117630181D01*
X124093501Y-117358037D01*
X123994572Y-117077526D01*
X123917868Y-116934025D01*
X123666240Y-116853365D01*
X122799605Y-117720000D01*
X123666240Y-118586635D01*
X123917868Y-118505975D01*
X124046267Y-118237671D01*
X124119855Y-117949474D01*
X124125511Y-117844141D01*
X124152859Y-117981632D01*
X124211431Y-118123037D01*
X124296464Y-118250298D01*
X124398000Y-118351834D01*
X124398001Y-118946176D01*
X124362250Y-118946176D01*
X124239621Y-118958254D01*
X124121705Y-118994023D01*
X124013033Y-119052110D01*
X123917781Y-119130281D01*
X123839610Y-119225533D01*
X123781523Y-119334205D01*
X123745754Y-119452121D01*
X123733676Y-119574750D01*
X123733676Y-120825250D01*
X123745754Y-120947879D01*
X123781523Y-121065795D01*
X123839610Y-121174467D01*
X123917781Y-121269719D01*
X124013033Y-121347890D01*
X124035283Y-121359783D01*
X123707000Y-121688066D01*
X123707000Y-121004643D01*
X123709427Y-120980000D01*
X123707000Y-120955357D01*
X123707000Y-120955347D01*
X123699736Y-120881591D01*
X123671031Y-120786964D01*
X123626915Y-120704428D01*
X123624417Y-120699754D01*
X123577400Y-120642464D01*
X123577392Y-120642456D01*
X123561684Y-120623316D01*
X123542543Y-120607607D01*
X122061811Y-119126877D01*
X122102329Y-119146267D01*
X122390526Y-119219855D01*
X122687543Y-119235804D01*
X122981963Y-119193501D01*
X123262474Y-119094572D01*
X123405975Y-119017868D01*
X123486635Y-118766240D01*
X122620000Y-117899605D01*
X121753365Y-118766240D01*
X121786870Y-118870761D01*
X121718036Y-118833969D01*
X121623409Y-118805264D01*
X121549653Y-118798000D01*
X121549643Y-118798000D01*
X121525000Y-118795573D01*
X121501181Y-118797919D01*
X121485463Y-118785019D01*
X121419970Y-118750012D01*
X121348905Y-118728455D01*
X121275000Y-118721176D01*
X120625000Y-118721176D01*
X120551095Y-118728455D01*
X120480030Y-118750012D01*
X120414537Y-118785019D01*
X120381813Y-118811875D01*
X119202784Y-117632848D01*
X119205537Y-117629494D01*
X119264502Y-117519180D01*
X119286049Y-117448149D01*
X119315710Y-117484290D01*
X119403423Y-117556275D01*
X119503494Y-117609764D01*
X119612077Y-117642702D01*
X119725000Y-117653824D01*
X120125000Y-117653824D01*
X120237923Y-117642702D01*
X120346506Y-117609764D01*
X120446577Y-117556275D01*
X120534290Y-117484290D01*
X120606275Y-117396577D01*
X120659764Y-117296506D01*
X120692702Y-117187923D01*
X120697694Y-117137240D01*
X120841163Y-116993771D01*
X120844188Y-117024482D01*
X120880498Y-117144180D01*
X120939463Y-117254494D01*
X121018815Y-117351185D01*
X121115506Y-117430537D01*
X121133066Y-117439923D01*
X121120145Y-117490526D01*
X121104196Y-117787543D01*
X121146499Y-118081963D01*
X121245428Y-118362474D01*
X121322132Y-118505975D01*
X121573760Y-118586635D01*
X122440395Y-117720000D01*
X122167002Y-117446607D01*
X122167002Y-117376252D01*
X122325750Y-117535000D01*
X122610000Y-117538072D01*
X122616989Y-117537384D01*
X122620000Y-117540395D01*
X122623669Y-117536726D01*
X122734482Y-117525812D01*
X122854180Y-117489502D01*
X122964494Y-117430537D01*
X123061185Y-117351185D01*
X123140537Y-117254494D01*
X123199502Y-117144180D01*
X123235812Y-117024482D01*
X123246726Y-116913669D01*
X123397388Y-116763007D01*
X126012612Y-116763007D01*
X126790000Y-117540395D01*
X127567388Y-116763007D01*
X127501863Y-116524140D01*
X127254884Y-116408240D01*
X126990040Y-116342750D01*
X126717508Y-116330188D01*
X126447762Y-116371035D01*
X126191168Y-116463723D01*
X126078137Y-116524140D01*
X126012612Y-116763007D01*
X123397388Y-116763007D01*
X123486635Y-116673760D01*
X123405975Y-116422132D01*
X123224138Y-116335112D01*
X123245000Y-116314250D01*
X123248072Y-116300000D01*
X123235812Y-116175518D01*
X123199502Y-116055820D01*
X123181951Y-116022985D01*
X123272538Y-115932399D01*
X123291685Y-115916685D01*
X123307398Y-115897539D01*
X123307401Y-115897536D01*
X123326868Y-115873815D01*
X123354418Y-115840246D01*
X123401032Y-115753037D01*
X123429737Y-115658410D01*
X123437001Y-115584654D01*
X123437001Y-115584644D01*
X123439428Y-115560001D01*
X123437001Y-115535358D01*
X123437001Y-111264642D01*
X123439428Y-111239999D01*
X123437001Y-111215356D01*
X123437001Y-111215346D01*
X123429737Y-111141590D01*
X123401032Y-111046963D01*
X123354418Y-110959754D01*
X123323843Y-110922499D01*
X123307401Y-110902464D01*
X123307398Y-110902461D01*
X123291685Y-110883315D01*
X123272538Y-110867601D01*
X123181951Y-110777015D01*
X123199502Y-110744180D01*
X123235812Y-110624482D01*
X123248072Y-110500000D01*
X123245000Y-110485750D01*
X123226507Y-110467257D01*
X123262474Y-110454572D01*
X123405975Y-110377868D01*
X123486635Y-110126240D01*
X123246726Y-109886331D01*
X123235812Y-109775518D01*
X123199502Y-109655820D01*
X123140537Y-109545506D01*
X123061185Y-109448815D01*
X123048095Y-109438072D01*
X123157677Y-109438072D01*
X123666240Y-109946635D01*
%TA.AperFunction,Conductor*%
D33*
G36*
X123666240Y-109946635D02*
G01*
X123917868Y-109865975D01*
X124046267Y-109597671D01*
X124087019Y-109438072D01*
X125446755Y-109438072D01*
X125533723Y-109678832D01*
X125594140Y-109791863D01*
X125833007Y-109857388D01*
X126252323Y-109438072D01*
X126611533Y-109438072D01*
X126012612Y-110036993D01*
X126078137Y-110275860D01*
X126325116Y-110391760D01*
X126589960Y-110457250D01*
X126862492Y-110469812D01*
X127132238Y-110428965D01*
X127388832Y-110336277D01*
X127501863Y-110275860D01*
X127567388Y-110036993D01*
X126968467Y-109438072D01*
X127109357Y-109438072D01*
X127231614Y-109538405D01*
X127385150Y-109620472D01*
X127551746Y-109671008D01*
X127561582Y-109671977D01*
X127746993Y-109857388D01*
X127985860Y-109791863D01*
X128034566Y-109688072D01*
X128473001Y-109688072D01*
X128473000Y-118770948D01*
X128406680Y-118735498D01*
X128286982Y-118699188D01*
X128162500Y-118686928D01*
X127885750Y-118690000D01*
X127727000Y-118848750D01*
X127727000Y-118886327D01*
X127686982Y-118874188D01*
X127562500Y-118861928D01*
X127516486Y-118862551D01*
X127567388Y-118676993D01*
X126790000Y-117899605D01*
X126012612Y-118676993D01*
X126078137Y-118915860D01*
X126187380Y-118967125D01*
X126183006Y-118969463D01*
X126086315Y-119048815D01*
X126006963Y-119145506D01*
X125947998Y-119255820D01*
X125932734Y-119306137D01*
X125932116Y-119305384D01*
X125836811Y-119227169D01*
X125728079Y-119169050D01*
X125610097Y-119133261D01*
X125487400Y-119121176D01*
X125421124Y-119121176D01*
X125402000Y-119105481D01*
X125402000Y-118351834D01*
X125503536Y-118250298D01*
X125507061Y-118245022D01*
X125533723Y-118318832D01*
X125594140Y-118431863D01*
X125833007Y-118497388D01*
X126610395Y-117720000D01*
X126969605Y-117720000D01*
X127746993Y-118497388D01*
X127985860Y-118431863D01*
X128101760Y-118184884D01*
X128167250Y-117920040D01*
X128179812Y-117647508D01*
X128138965Y-117377762D01*
X128046277Y-117121168D01*
X127985860Y-117008137D01*
X127746993Y-116942612D01*
X126969605Y-117720000D01*
X126610395Y-117720000D01*
X125833007Y-116942612D01*
X125594140Y-117008137D01*
X125484862Y-117241006D01*
X125395309Y-117151453D01*
X125268048Y-117066420D01*
X125126643Y-117007848D01*
X124976528Y-116977989D01*
X124823472Y-116977989D01*
X124673357Y-117007848D01*
X124531952Y-117066420D01*
X124404691Y-117151453D01*
X124296464Y-117259680D01*
X124211431Y-117386941D01*
X124152859Y-117528346D01*
X124132603Y-117630181D01*
X124093501Y-117358037D01*
X123994572Y-117077526D01*
X123917868Y-116934025D01*
X123666240Y-116853365D01*
X122799605Y-117720000D01*
X123666240Y-118586635D01*
X123917868Y-118505975D01*
X124046267Y-118237671D01*
X124119855Y-117949474D01*
X124125511Y-117844141D01*
X124152859Y-117981632D01*
X124211431Y-118123037D01*
X124296464Y-118250298D01*
X124398000Y-118351834D01*
X124398001Y-118946176D01*
X124362250Y-118946176D01*
X124239621Y-118958254D01*
X124121705Y-118994023D01*
X124013033Y-119052110D01*
X123917781Y-119130281D01*
X123839610Y-119225533D01*
X123781523Y-119334205D01*
X123745754Y-119452121D01*
X123733676Y-119574750D01*
X123733676Y-120825250D01*
X123745754Y-120947879D01*
X123781523Y-121065795D01*
X123839610Y-121174467D01*
X123917781Y-121269719D01*
X124013033Y-121347890D01*
X124035283Y-121359783D01*
X123707000Y-121688066D01*
X123707000Y-121004643D01*
X123709427Y-120980000D01*
X123707000Y-120955357D01*
X123707000Y-120955347D01*
X123699736Y-120881591D01*
X123671031Y-120786964D01*
X123626915Y-120704428D01*
X123624417Y-120699754D01*
X123577400Y-120642464D01*
X123577392Y-120642456D01*
X123561684Y-120623316D01*
X123542543Y-120607607D01*
X122061811Y-119126877D01*
X122102329Y-119146267D01*
X122390526Y-119219855D01*
X122687543Y-119235804D01*
X122981963Y-119193501D01*
X123262474Y-119094572D01*
X123405975Y-119017868D01*
X123486635Y-118766240D01*
X122620000Y-117899605D01*
X121753365Y-118766240D01*
X121786870Y-118870761D01*
X121718036Y-118833969D01*
X121623409Y-118805264D01*
X121549653Y-118798000D01*
X121549643Y-118798000D01*
X121525000Y-118795573D01*
X121501181Y-118797919D01*
X121485463Y-118785019D01*
X121419970Y-118750012D01*
X121348905Y-118728455D01*
X121275000Y-118721176D01*
X120625000Y-118721176D01*
X120551095Y-118728455D01*
X120480030Y-118750012D01*
X120414537Y-118785019D01*
X120381813Y-118811875D01*
X119202784Y-117632848D01*
X119205537Y-117629494D01*
X119264502Y-117519180D01*
X119286049Y-117448149D01*
X119315710Y-117484290D01*
X119403423Y-117556275D01*
X119503494Y-117609764D01*
X119612077Y-117642702D01*
X119725000Y-117653824D01*
X120125000Y-117653824D01*
X120237923Y-117642702D01*
X120346506Y-117609764D01*
X120446577Y-117556275D01*
X120534290Y-117484290D01*
X120606275Y-117396577D01*
X120659764Y-117296506D01*
X120692702Y-117187923D01*
X120697694Y-117137240D01*
X120841163Y-116993771D01*
X120844188Y-117024482D01*
X120880498Y-117144180D01*
X120939463Y-117254494D01*
X121018815Y-117351185D01*
X121115506Y-117430537D01*
X121133066Y-117439923D01*
X121120145Y-117490526D01*
X121104196Y-117787543D01*
X121146499Y-118081963D01*
X121245428Y-118362474D01*
X121322132Y-118505975D01*
X121573760Y-118586635D01*
X122440395Y-117720000D01*
X122167002Y-117446607D01*
X122167002Y-117376252D01*
X122325750Y-117535000D01*
X122610000Y-117538072D01*
X122616989Y-117537384D01*
X122620000Y-117540395D01*
X122623669Y-117536726D01*
X122734482Y-117525812D01*
X122854180Y-117489502D01*
X122964494Y-117430537D01*
X123061185Y-117351185D01*
X123140537Y-117254494D01*
X123199502Y-117144180D01*
X123235812Y-117024482D01*
X123246726Y-116913669D01*
X123397388Y-116763007D01*
X126012612Y-116763007D01*
X126790000Y-117540395D01*
X127567388Y-116763007D01*
X127501863Y-116524140D01*
X127254884Y-116408240D01*
X126990040Y-116342750D01*
X126717508Y-116330188D01*
X126447762Y-116371035D01*
X126191168Y-116463723D01*
X126078137Y-116524140D01*
X126012612Y-116763007D01*
X123397388Y-116763007D01*
X123486635Y-116673760D01*
X123405975Y-116422132D01*
X123224138Y-116335112D01*
X123245000Y-116314250D01*
X123248072Y-116300000D01*
X123235812Y-116175518D01*
X123199502Y-116055820D01*
X123181951Y-116022985D01*
X123272538Y-115932399D01*
X123291685Y-115916685D01*
X123307398Y-115897539D01*
X123307401Y-115897536D01*
X123326868Y-115873815D01*
X123354418Y-115840246D01*
X123401032Y-115753037D01*
X123429737Y-115658410D01*
X123437001Y-115584654D01*
X123437001Y-115584644D01*
X123439428Y-115560001D01*
X123437001Y-115535358D01*
X123437001Y-111264642D01*
X123439428Y-111239999D01*
X123437001Y-111215356D01*
X123437001Y-111215346D01*
X123429737Y-111141590D01*
X123401032Y-111046963D01*
X123354418Y-110959754D01*
X123323843Y-110922499D01*
X123307401Y-110902464D01*
X123307398Y-110902461D01*
X123291685Y-110883315D01*
X123272538Y-110867601D01*
X123181951Y-110777015D01*
X123199502Y-110744180D01*
X123235812Y-110624482D01*
X123248072Y-110500000D01*
X123245000Y-110485750D01*
X123226507Y-110467257D01*
X123262474Y-110454572D01*
X123405975Y-110377868D01*
X123486635Y-110126240D01*
X123246726Y-109886331D01*
X123235812Y-109775518D01*
X123199502Y-109655820D01*
X123140537Y-109545506D01*
X123061185Y-109448815D01*
X123048095Y-109438072D01*
X123157677Y-109438072D01*
X123666240Y-109946635D01*
G37*
%TD.AperFunction*%
D32*
X127747000Y-120327000D02*
X126903000Y-120327000D01*
X126903000Y-120073000D01*
X127747000Y-120073000D01*
X127747000Y-120327000D01*
%TA.AperFunction,Conductor*%
D33*
G36*
X127747000Y-120327000D02*
G01*
X126903000Y-120327000D01*
X126903000Y-120073000D01*
X127747000Y-120073000D01*
X127747000Y-120327000D01*
G37*
%TD.AperFunction*%
D32*
X117485139Y-117937553D02*
X117500848Y-117956694D01*
X117519988Y-117972402D01*
X117519996Y-117972410D01*
X117577286Y-118019427D01*
X117620710Y-118042637D01*
X117664496Y-118066041D01*
X117759123Y-118094746D01*
X117832879Y-118102010D01*
X117832889Y-118102010D01*
X117857532Y-118104437D01*
X117882175Y-118102010D01*
X118252078Y-118102010D01*
X118621005Y-118470938D01*
X118616014Y-118471305D01*
X118495456Y-118504647D01*
X118383719Y-118560868D01*
X118285097Y-118637808D01*
X118203381Y-118732510D01*
X118141710Y-118841334D01*
X118140013Y-118846469D01*
X118116627Y-118833969D01*
X118022000Y-118805264D01*
X118008513Y-118803936D01*
X117985463Y-118785019D01*
X117919970Y-118750012D01*
X117848905Y-118728455D01*
X117775000Y-118721176D01*
X117125000Y-118721176D01*
X117051095Y-118728455D01*
X116980030Y-118750012D01*
X116914537Y-118785019D01*
X116857131Y-118832131D01*
X116810019Y-118889537D01*
X116775012Y-118955030D01*
X116753455Y-119026095D01*
X116746176Y-119100000D01*
X116746176Y-119448000D01*
X116426250Y-119448000D01*
X116351250Y-119373000D01*
X115893519Y-119373000D01*
X115875000Y-119371176D01*
X115403000Y-119371176D01*
X115403000Y-119227000D01*
X115423000Y-119227000D01*
X115423000Y-119153000D01*
X115677000Y-119153000D01*
X115677000Y-119227000D01*
X116351250Y-119227000D01*
X116510000Y-119068250D01*
X116497546Y-118960098D01*
X116458290Y-118841334D01*
X116396619Y-118732510D01*
X116314903Y-118637808D01*
X116216281Y-118560868D01*
X116104544Y-118504647D01*
X116026792Y-118483144D01*
X116182936Y-118327000D01*
X116400357Y-118327000D01*
X116425000Y-118329427D01*
X116449643Y-118327000D01*
X116449653Y-118327000D01*
X116523409Y-118319736D01*
X116618036Y-118291031D01*
X116705245Y-118244417D01*
X116781684Y-118181684D01*
X116797401Y-118162533D01*
X117041298Y-117918637D01*
X117060445Y-117902923D01*
X117076158Y-117883777D01*
X117076161Y-117883774D01*
X117123178Y-117826484D01*
X117169792Y-117739276D01*
X117197040Y-117649453D01*
X117485139Y-117937553D01*
%TA.AperFunction,Conductor*%
D33*
G36*
X117485139Y-117937553D02*
G01*
X117500848Y-117956694D01*
X117519988Y-117972402D01*
X117519996Y-117972410D01*
X117577286Y-118019427D01*
X117620710Y-118042637D01*
X117664496Y-118066041D01*
X117759123Y-118094746D01*
X117832879Y-118102010D01*
X117832889Y-118102010D01*
X117857532Y-118104437D01*
X117882175Y-118102010D01*
X118252078Y-118102010D01*
X118621005Y-118470938D01*
X118616014Y-118471305D01*
X118495456Y-118504647D01*
X118383719Y-118560868D01*
X118285097Y-118637808D01*
X118203381Y-118732510D01*
X118141710Y-118841334D01*
X118140013Y-118846469D01*
X118116627Y-118833969D01*
X118022000Y-118805264D01*
X118008513Y-118803936D01*
X117985463Y-118785019D01*
X117919970Y-118750012D01*
X117848905Y-118728455D01*
X117775000Y-118721176D01*
X117125000Y-118721176D01*
X117051095Y-118728455D01*
X116980030Y-118750012D01*
X116914537Y-118785019D01*
X116857131Y-118832131D01*
X116810019Y-118889537D01*
X116775012Y-118955030D01*
X116753455Y-119026095D01*
X116746176Y-119100000D01*
X116746176Y-119448000D01*
X116426250Y-119448000D01*
X116351250Y-119373000D01*
X115893519Y-119373000D01*
X115875000Y-119371176D01*
X115403000Y-119371176D01*
X115403000Y-119227000D01*
X115423000Y-119227000D01*
X115423000Y-119153000D01*
X115677000Y-119153000D01*
X115677000Y-119227000D01*
X116351250Y-119227000D01*
X116510000Y-119068250D01*
X116497546Y-118960098D01*
X116458290Y-118841334D01*
X116396619Y-118732510D01*
X116314903Y-118637808D01*
X116216281Y-118560868D01*
X116104544Y-118504647D01*
X116026792Y-118483144D01*
X116182936Y-118327000D01*
X116400357Y-118327000D01*
X116425000Y-118329427D01*
X116449643Y-118327000D01*
X116449653Y-118327000D01*
X116523409Y-118319736D01*
X116618036Y-118291031D01*
X116705245Y-118244417D01*
X116781684Y-118181684D01*
X116797401Y-118162533D01*
X117041298Y-117918637D01*
X117060445Y-117902923D01*
X117076158Y-117883777D01*
X117076161Y-117883774D01*
X117123178Y-117826484D01*
X117169792Y-117739276D01*
X117197040Y-117649453D01*
X117485139Y-117937553D01*
G37*
%TD.AperFunction*%
D32*
X119177000Y-119227000D02*
X119197000Y-119227000D01*
X119197000Y-119371176D01*
X118903000Y-119371176D01*
X118903000Y-119227000D01*
X118923000Y-119227000D01*
X118923000Y-119153000D01*
X119177000Y-119153000D01*
X119177000Y-119227000D01*
%TA.AperFunction,Conductor*%
D33*
G36*
X119177000Y-119227000D02*
G01*
X119197000Y-119227000D01*
X119197000Y-119371176D01*
X118903000Y-119371176D01*
X118903000Y-119227000D01*
X118923000Y-119227000D01*
X118923000Y-119153000D01*
X119177000Y-119153000D01*
X119177000Y-119227000D01*
G37*
%TD.AperFunction*%
D32*
X110477417Y-105717339D02*
X110515664Y-105756833D01*
X110752812Y-105972206D01*
X110795800Y-106006488D01*
X111058544Y-106189766D01*
X111105559Y-106218266D01*
X111389582Y-106366441D01*
X111439858Y-106388697D01*
X111740497Y-106499335D01*
X111793206Y-106514979D01*
X112105525Y-106586263D01*
X112159799Y-106595037D01*
X112478670Y-106625799D01*
X112533625Y-106627561D01*
X112568465Y-106626444D01*
X112590198Y-106628584D01*
X112609802Y-106628584D01*
X112661980Y-106623445D01*
X112853810Y-106617294D01*
X112908537Y-106612014D01*
X113224781Y-106560886D01*
X113278383Y-106548652D01*
X113585494Y-106457503D01*
X113637092Y-106438514D01*
X113930025Y-106308841D01*
X113978770Y-106283411D01*
X114246176Y-106121309D01*
X114246176Y-106543889D01*
X114043889Y-106746176D01*
X113562500Y-106746176D01*
X113543981Y-106748000D01*
X112999642Y-106748000D01*
X112974999Y-106745573D01*
X112950356Y-106748000D01*
X112950347Y-106748000D01*
X112876591Y-106755264D01*
X112781964Y-106783969D01*
X112759126Y-106796176D01*
X112350000Y-106796176D01*
X112232200Y-106807778D01*
X112118927Y-106842139D01*
X112014533Y-106897939D01*
X111923032Y-106973032D01*
X111847939Y-107064533D01*
X111792139Y-107168927D01*
X111757778Y-107282200D01*
X111746176Y-107400000D01*
X111746176Y-107768890D01*
X111462457Y-108052609D01*
X111443306Y-108068326D01*
X111380573Y-108144765D01*
X111333959Y-108231975D01*
X111305254Y-108326602D01*
X111297990Y-108400358D01*
X111297990Y-108400367D01*
X111295563Y-108425010D01*
X111297990Y-108449653D01*
X111297991Y-109725337D01*
X111295563Y-109749990D01*
X111305255Y-109848399D01*
X111333960Y-109943026D01*
X111380574Y-110030235D01*
X111427591Y-110087525D01*
X111427594Y-110087528D01*
X111443307Y-110106674D01*
X111462452Y-110122386D01*
X111952606Y-110612542D01*
X111968315Y-110631683D01*
X111987455Y-110647391D01*
X111987463Y-110647399D01*
X112030461Y-110682686D01*
X112044754Y-110694416D01*
X112131963Y-110741030D01*
X112226590Y-110769735D01*
X112300346Y-110776999D01*
X112300356Y-110776999D01*
X112324999Y-110779426D01*
X112349642Y-110776999D01*
X112767065Y-110776999D01*
X112998000Y-111007935D01*
X112998001Y-111815681D01*
X112995573Y-111840334D01*
X112996792Y-111852714D01*
X112977140Y-111856623D01*
X112835735Y-111915195D01*
X112805654Y-111935294D01*
X112711772Y-111841412D01*
X112584511Y-111756379D01*
X112443106Y-111697807D01*
X112292991Y-111667948D01*
X112139935Y-111667948D01*
X111989820Y-111697807D01*
X111848415Y-111756379D01*
X111721154Y-111841412D01*
X111612927Y-111949639D01*
X111527894Y-112076900D01*
X111469322Y-112218305D01*
X111439463Y-112368420D01*
X111439463Y-112512014D01*
X111337463Y-112614014D01*
X111318317Y-112629727D01*
X111302604Y-112648873D01*
X111302601Y-112648876D01*
X111255584Y-112706166D01*
X111208970Y-112793375D01*
X111180265Y-112888002D01*
X111175964Y-112931677D01*
X111153423Y-112943725D01*
X111065710Y-113015710D01*
X110993725Y-113103423D01*
X110940236Y-113203494D01*
X110907298Y-113312077D01*
X110896176Y-113425000D01*
X110896176Y-113975000D01*
X110907298Y-114087923D01*
X110940236Y-114196506D01*
X110993725Y-114296577D01*
X110996534Y-114300000D01*
X110993725Y-114303423D01*
X110940236Y-114403494D01*
X110907298Y-114512077D01*
X110896176Y-114625000D01*
X110896176Y-115175000D01*
X110907298Y-115287923D01*
X110940236Y-115396506D01*
X110993725Y-115496577D01*
X110996534Y-115500000D01*
X110993725Y-115503423D01*
X110940236Y-115603494D01*
X110907298Y-115712077D01*
X110896176Y-115825000D01*
X110896176Y-116375000D01*
X110907298Y-116487923D01*
X110940236Y-116596506D01*
X110993725Y-116696577D01*
X111065710Y-116784290D01*
X111153423Y-116856275D01*
X111253494Y-116909764D01*
X111362077Y-116942702D01*
X111475000Y-116953824D01*
X111875000Y-116953824D01*
X111987923Y-116942702D01*
X112096506Y-116909764D01*
X112168741Y-116871154D01*
X112425778Y-117128191D01*
X111754833Y-117128191D01*
X111730190Y-117125764D01*
X111705547Y-117128191D01*
X111705538Y-117128191D01*
X111631782Y-117135455D01*
X111537155Y-117164160D01*
X111449946Y-117210774D01*
X111373507Y-117273507D01*
X111357794Y-117292653D01*
X110699967Y-117950481D01*
X110680816Y-117966198D01*
X110618083Y-118042637D01*
X110571469Y-118129847D01*
X110542764Y-118224474D01*
X110535500Y-118298230D01*
X110535500Y-118298239D01*
X110533073Y-118322882D01*
X110535500Y-118347525D01*
X110535500Y-118978463D01*
X110484205Y-118994023D01*
X110375533Y-119052110D01*
X110327000Y-119091940D01*
X110327000Y-105540651D01*
X110477417Y-105717339D01*
%TA.AperFunction,Conductor*%
D33*
G36*
X110477417Y-105717339D02*
G01*
X110515664Y-105756833D01*
X110752812Y-105972206D01*
X110795800Y-106006488D01*
X111058544Y-106189766D01*
X111105559Y-106218266D01*
X111389582Y-106366441D01*
X111439858Y-106388697D01*
X111740497Y-106499335D01*
X111793206Y-106514979D01*
X112105525Y-106586263D01*
X112159799Y-106595037D01*
X112478670Y-106625799D01*
X112533625Y-106627561D01*
X112568465Y-106626444D01*
X112590198Y-106628584D01*
X112609802Y-106628584D01*
X112661980Y-106623445D01*
X112853810Y-106617294D01*
X112908537Y-106612014D01*
X113224781Y-106560886D01*
X113278383Y-106548652D01*
X113585494Y-106457503D01*
X113637092Y-106438514D01*
X113930025Y-106308841D01*
X113978770Y-106283411D01*
X114246176Y-106121309D01*
X114246176Y-106543889D01*
X114043889Y-106746176D01*
X113562500Y-106746176D01*
X113543981Y-106748000D01*
X112999642Y-106748000D01*
X112974999Y-106745573D01*
X112950356Y-106748000D01*
X112950347Y-106748000D01*
X112876591Y-106755264D01*
X112781964Y-106783969D01*
X112759126Y-106796176D01*
X112350000Y-106796176D01*
X112232200Y-106807778D01*
X112118927Y-106842139D01*
X112014533Y-106897939D01*
X111923032Y-106973032D01*
X111847939Y-107064533D01*
X111792139Y-107168927D01*
X111757778Y-107282200D01*
X111746176Y-107400000D01*
X111746176Y-107768890D01*
X111462457Y-108052609D01*
X111443306Y-108068326D01*
X111380573Y-108144765D01*
X111333959Y-108231975D01*
X111305254Y-108326602D01*
X111297990Y-108400358D01*
X111297990Y-108400367D01*
X111295563Y-108425010D01*
X111297990Y-108449653D01*
X111297991Y-109725337D01*
X111295563Y-109749990D01*
X111305255Y-109848399D01*
X111333960Y-109943026D01*
X111380574Y-110030235D01*
X111427591Y-110087525D01*
X111427594Y-110087528D01*
X111443307Y-110106674D01*
X111462452Y-110122386D01*
X111952606Y-110612542D01*
X111968315Y-110631683D01*
X111987455Y-110647391D01*
X111987463Y-110647399D01*
X112030461Y-110682686D01*
X112044754Y-110694416D01*
X112131963Y-110741030D01*
X112226590Y-110769735D01*
X112300346Y-110776999D01*
X112300356Y-110776999D01*
X112324999Y-110779426D01*
X112349642Y-110776999D01*
X112767065Y-110776999D01*
X112998000Y-111007935D01*
X112998001Y-111815681D01*
X112995573Y-111840334D01*
X112996792Y-111852714D01*
X112977140Y-111856623D01*
X112835735Y-111915195D01*
X112805654Y-111935294D01*
X112711772Y-111841412D01*
X112584511Y-111756379D01*
X112443106Y-111697807D01*
X112292991Y-111667948D01*
X112139935Y-111667948D01*
X111989820Y-111697807D01*
X111848415Y-111756379D01*
X111721154Y-111841412D01*
X111612927Y-111949639D01*
X111527894Y-112076900D01*
X111469322Y-112218305D01*
X111439463Y-112368420D01*
X111439463Y-112512014D01*
X111337463Y-112614014D01*
X111318317Y-112629727D01*
X111302604Y-112648873D01*
X111302601Y-112648876D01*
X111255584Y-112706166D01*
X111208970Y-112793375D01*
X111180265Y-112888002D01*
X111175964Y-112931677D01*
X111153423Y-112943725D01*
X111065710Y-113015710D01*
X110993725Y-113103423D01*
X110940236Y-113203494D01*
X110907298Y-113312077D01*
X110896176Y-113425000D01*
X110896176Y-113975000D01*
X110907298Y-114087923D01*
X110940236Y-114196506D01*
X110993725Y-114296577D01*
X110996534Y-114300000D01*
X110993725Y-114303423D01*
X110940236Y-114403494D01*
X110907298Y-114512077D01*
X110896176Y-114625000D01*
X110896176Y-115175000D01*
X110907298Y-115287923D01*
X110940236Y-115396506D01*
X110993725Y-115496577D01*
X110996534Y-115500000D01*
X110993725Y-115503423D01*
X110940236Y-115603494D01*
X110907298Y-115712077D01*
X110896176Y-115825000D01*
X110896176Y-116375000D01*
X110907298Y-116487923D01*
X110940236Y-116596506D01*
X110993725Y-116696577D01*
X111065710Y-116784290D01*
X111153423Y-116856275D01*
X111253494Y-116909764D01*
X111362077Y-116942702D01*
X111475000Y-116953824D01*
X111875000Y-116953824D01*
X111987923Y-116942702D01*
X112096506Y-116909764D01*
X112168741Y-116871154D01*
X112425778Y-117128191D01*
X111754833Y-117128191D01*
X111730190Y-117125764D01*
X111705547Y-117128191D01*
X111705538Y-117128191D01*
X111631782Y-117135455D01*
X111537155Y-117164160D01*
X111449946Y-117210774D01*
X111373507Y-117273507D01*
X111357794Y-117292653D01*
X110699967Y-117950481D01*
X110680816Y-117966198D01*
X110618083Y-118042637D01*
X110571469Y-118129847D01*
X110542764Y-118224474D01*
X110535500Y-118298230D01*
X110535500Y-118298239D01*
X110533073Y-118322882D01*
X110535500Y-118347525D01*
X110535500Y-118978463D01*
X110484205Y-118994023D01*
X110375533Y-119052110D01*
X110327000Y-119091940D01*
X110327000Y-105540651D01*
X110477417Y-105717339D01*
G37*
%TD.AperFunction*%
D32*
X118402000Y-116673000D02*
X118422000Y-116673000D01*
X118422000Y-116927000D01*
X118402000Y-116927000D01*
X118402000Y-116947000D01*
X118148000Y-116947000D01*
X118148000Y-116927000D01*
X118128000Y-116927000D01*
X118128000Y-116673000D01*
X118148000Y-116673000D01*
X118148000Y-116653000D01*
X118402000Y-116653000D01*
X118402000Y-116673000D01*
%TA.AperFunction,Conductor*%
D33*
G36*
X118402000Y-116673000D02*
G01*
X118422000Y-116673000D01*
X118422000Y-116927000D01*
X118402000Y-116927000D01*
X118402000Y-116947000D01*
X118148000Y-116947000D01*
X118148000Y-116927000D01*
X118128000Y-116927000D01*
X118128000Y-116673000D01*
X118148000Y-116673000D01*
X118148000Y-116653000D01*
X118402000Y-116653000D01*
X118402000Y-116673000D01*
G37*
%TD.AperFunction*%
D32*
X118296176Y-110150000D02*
X118308259Y-110272677D01*
X118344042Y-110390641D01*
X118402000Y-110499072D01*
X118402000Y-111273000D01*
X118422000Y-111273000D01*
X118422000Y-111527000D01*
X118402000Y-111527000D01*
X118402000Y-111547000D01*
X118148000Y-111547000D01*
X118148000Y-111527000D01*
X118128000Y-111527000D01*
X118128000Y-111273000D01*
X118148000Y-111273000D01*
X118148000Y-110448750D01*
X117989250Y-110290000D01*
X117875000Y-110286928D01*
X117862321Y-110288177D01*
X117862321Y-109753824D01*
X117937500Y-109753824D01*
X118023598Y-109745344D01*
X118106387Y-109720230D01*
X118182686Y-109679447D01*
X118249563Y-109624563D01*
X118296176Y-109567764D01*
X118296176Y-110150000D01*
%TA.AperFunction,Conductor*%
D33*
G36*
X118296176Y-110150000D02*
G01*
X118308259Y-110272677D01*
X118344042Y-110390641D01*
X118402000Y-110499072D01*
X118402000Y-111273000D01*
X118422000Y-111273000D01*
X118422000Y-111527000D01*
X118402000Y-111527000D01*
X118402000Y-111547000D01*
X118148000Y-111547000D01*
X118148000Y-111527000D01*
X118128000Y-111527000D01*
X118128000Y-111273000D01*
X118148000Y-111273000D01*
X118148000Y-110448750D01*
X117989250Y-110290000D01*
X117875000Y-110286928D01*
X117862321Y-110288177D01*
X117862321Y-109753824D01*
X117937500Y-109753824D01*
X118023598Y-109745344D01*
X118106387Y-109720230D01*
X118182686Y-109679447D01*
X118249563Y-109624563D01*
X118296176Y-109567764D01*
X118296176Y-110150000D01*
G37*
%TD.AperFunction*%
D32*
X114254656Y-109776402D02*
X114246176Y-109862500D01*
X114246176Y-110302687D01*
X114154900Y-110320842D01*
X114013495Y-110379414D01*
X113886234Y-110464447D01*
X113879529Y-110471152D01*
X113872400Y-110462465D01*
X113872397Y-110462462D01*
X113856684Y-110443316D01*
X113837538Y-110427603D01*
X113504179Y-110094245D01*
X113526185Y-110076185D01*
X113605537Y-109979494D01*
X113664502Y-109869180D01*
X113699495Y-109753824D01*
X114137500Y-109753824D01*
X114223598Y-109745344D01*
X114268180Y-109731820D01*
X114254656Y-109776402D01*
%TA.AperFunction,Conductor*%
D33*
G36*
X114254656Y-109776402D02*
G01*
X114246176Y-109862500D01*
X114246176Y-110302687D01*
X114154900Y-110320842D01*
X114013495Y-110379414D01*
X113886234Y-110464447D01*
X113879529Y-110471152D01*
X113872400Y-110462465D01*
X113872397Y-110462462D01*
X113856684Y-110443316D01*
X113837538Y-110427603D01*
X113504179Y-110094245D01*
X113526185Y-110076185D01*
X113605537Y-109979494D01*
X113664502Y-109869180D01*
X113699495Y-109753824D01*
X114137500Y-109753824D01*
X114223598Y-109745344D01*
X114268180Y-109731820D01*
X114254656Y-109776402D01*
G37*
%TD.AperFunction*%
D32*
X112727000Y-109048000D02*
X112747000Y-109048000D01*
X112747000Y-109302000D01*
X112727000Y-109302000D01*
X112727000Y-109322000D01*
X112473000Y-109322000D01*
X112473000Y-109302000D01*
X112453000Y-109302000D01*
X112453000Y-109048000D01*
X112473000Y-109048000D01*
X112473000Y-109028000D01*
X112727000Y-109028000D01*
X112727000Y-109048000D01*
%TA.AperFunction,Conductor*%
D33*
G36*
X112727000Y-109048000D02*
G01*
X112747000Y-109048000D01*
X112747000Y-109302000D01*
X112727000Y-109302000D01*
X112727000Y-109322000D01*
X112473000Y-109322000D01*
X112473000Y-109302000D01*
X112453000Y-109302000D01*
X112453000Y-109048000D01*
X112473000Y-109048000D01*
X112473000Y-109028000D01*
X112727000Y-109028000D01*
X112727000Y-109048000D01*
G37*
%TD.AperFunction*%
D32*
X120894042Y-107140641D02*
X120952152Y-107249356D01*
X121030354Y-107344646D01*
X121125644Y-107422848D01*
X121196734Y-107460847D01*
X121135150Y-107479528D01*
X120981614Y-107561595D01*
X120847038Y-107672038D01*
X120736595Y-107806614D01*
X120654528Y-107960150D01*
X120603992Y-108126746D01*
X120586928Y-108300000D01*
X120586928Y-108753503D01*
X120524356Y-108702152D01*
X120415641Y-108644042D01*
X120297677Y-108608259D01*
X120175000Y-108596176D01*
X118925000Y-108596176D01*
X118802323Y-108608259D01*
X118684359Y-108644042D01*
X118635000Y-108670425D01*
X118635000Y-108622998D01*
X118603252Y-108622998D01*
X118635000Y-108591250D01*
X118624262Y-108500000D01*
X118635000Y-108408750D01*
X118571193Y-108344943D01*
X118521409Y-108257211D01*
X118515180Y-108250000D01*
X118521409Y-108242789D01*
X118571193Y-108155057D01*
X118635000Y-108091250D01*
X118624262Y-108000000D01*
X118635000Y-107908750D01*
X118571193Y-107844943D01*
X118521409Y-107757211D01*
X118515180Y-107750000D01*
X118521409Y-107742789D01*
X118556040Y-107681760D01*
X118575644Y-107697848D01*
X118684359Y-107755958D01*
X118802323Y-107791741D01*
X118925000Y-107803824D01*
X120175000Y-107803824D01*
X120297677Y-107791741D01*
X120415641Y-107755958D01*
X120524356Y-107697848D01*
X120619646Y-107619646D01*
X120697848Y-107524356D01*
X120755958Y-107415641D01*
X120791741Y-107297677D01*
X120803824Y-107175000D01*
X120803824Y-107052000D01*
X120867154Y-107052000D01*
X120894042Y-107140641D01*
%TA.AperFunction,Conductor*%
D33*
G36*
X120894042Y-107140641D02*
G01*
X120952152Y-107249356D01*
X121030354Y-107344646D01*
X121125644Y-107422848D01*
X121196734Y-107460847D01*
X121135150Y-107479528D01*
X120981614Y-107561595D01*
X120847038Y-107672038D01*
X120736595Y-107806614D01*
X120654528Y-107960150D01*
X120603992Y-108126746D01*
X120586928Y-108300000D01*
X120586928Y-108753503D01*
X120524356Y-108702152D01*
X120415641Y-108644042D01*
X120297677Y-108608259D01*
X120175000Y-108596176D01*
X118925000Y-108596176D01*
X118802323Y-108608259D01*
X118684359Y-108644042D01*
X118635000Y-108670425D01*
X118635000Y-108622998D01*
X118603252Y-108622998D01*
X118635000Y-108591250D01*
X118624262Y-108500000D01*
X118635000Y-108408750D01*
X118571193Y-108344943D01*
X118521409Y-108257211D01*
X118515180Y-108250000D01*
X118521409Y-108242789D01*
X118571193Y-108155057D01*
X118635000Y-108091250D01*
X118624262Y-108000000D01*
X118635000Y-107908750D01*
X118571193Y-107844943D01*
X118521409Y-107757211D01*
X118515180Y-107750000D01*
X118521409Y-107742789D01*
X118556040Y-107681760D01*
X118575644Y-107697848D01*
X118684359Y-107755958D01*
X118802323Y-107791741D01*
X118925000Y-107803824D01*
X120175000Y-107803824D01*
X120297677Y-107791741D01*
X120415641Y-107755958D01*
X120524356Y-107697848D01*
X120619646Y-107619646D01*
X120697848Y-107524356D01*
X120755958Y-107415641D01*
X120791741Y-107297677D01*
X120803824Y-107175000D01*
X120803824Y-107052000D01*
X120867154Y-107052000D01*
X120894042Y-107140641D01*
G37*
%TD.AperFunction*%
D32*
X119251196Y-102331441D02*
X119123935Y-102416474D01*
X119015708Y-102524701D01*
X118930675Y-102651962D01*
X118872103Y-102793367D01*
X118842244Y-102943482D01*
X118842244Y-103096538D01*
X118872103Y-103246653D01*
X118930675Y-103388058D01*
X119015708Y-103515319D01*
X119117245Y-103616856D01*
X119117245Y-103617877D01*
X116333924Y-103617877D01*
X116309279Y-103615450D01*
X116284633Y-103617877D01*
X116284626Y-103617877D01*
X116221724Y-103624072D01*
X116210869Y-103625141D01*
X116116242Y-103653846D01*
X116029033Y-103700460D01*
X115971744Y-103747477D01*
X115971741Y-103747480D01*
X115952595Y-103763193D01*
X115936882Y-103782339D01*
X115477744Y-104241477D01*
X115479441Y-104232764D01*
X115520406Y-103915043D01*
X115523929Y-103860176D01*
X115523929Y-103539824D01*
X115520406Y-103484957D01*
X115479441Y-103167236D01*
X115468931Y-103113268D01*
X115387672Y-102803394D01*
X115370347Y-102751215D01*
X115250130Y-102454277D01*
X115226275Y-102404741D01*
X115182492Y-102327000D01*
X119261917Y-102327000D01*
X119251196Y-102331441D01*
%TA.AperFunction,Conductor*%
D33*
G36*
X119251196Y-102331441D02*
G01*
X119123935Y-102416474D01*
X119015708Y-102524701D01*
X118930675Y-102651962D01*
X118872103Y-102793367D01*
X118842244Y-102943482D01*
X118842244Y-103096538D01*
X118872103Y-103246653D01*
X118930675Y-103388058D01*
X119015708Y-103515319D01*
X119117245Y-103616856D01*
X119117245Y-103617877D01*
X116333924Y-103617877D01*
X116309279Y-103615450D01*
X116284633Y-103617877D01*
X116284626Y-103617877D01*
X116221724Y-103624072D01*
X116210869Y-103625141D01*
X116116242Y-103653846D01*
X116029033Y-103700460D01*
X115971744Y-103747477D01*
X115971741Y-103747480D01*
X115952595Y-103763193D01*
X115936882Y-103782339D01*
X115477744Y-104241477D01*
X115479441Y-104232764D01*
X115520406Y-103915043D01*
X115523929Y-103860176D01*
X115523929Y-103539824D01*
X115520406Y-103484957D01*
X115479441Y-103167236D01*
X115468931Y-103113268D01*
X115387672Y-102803394D01*
X115370347Y-102751215D01*
X115250130Y-102454277D01*
X115226275Y-102404741D01*
X115182492Y-102327000D01*
X119261917Y-102327000D01*
X119251196Y-102331441D01*
G37*
%TD.AperFunction*%
%TD*%
M02*
