%TF.GenerationSoftware,KiCad,Pcbnew,(5.1.9-0-10_14)*%
%TF.CreationDate,2021-03-26T17:39:56+00:00*%
%TF.ProjectId,Generic,47656e65-7269-4632-9e6b-696361645f70,2*%
%TF.SameCoordinates,Original*%
%TF.FileFunction,Paste,Bot*%
%TF.FilePolarity,Positive*%
%FSLAX46Y46*%
G04 Gerber Fmt 4.6, Leading zero omitted, Abs format (unit mm)*
G04 Created by KiCad (PCBNEW (5.1.9-0-10_14)) date 2021-03-26 17:39:56*
%MOMM*%
%LPD*%
G01*
G04 APERTURE LIST*
%ADD10R,0.200000X0.200000*%
%ADD11C,0.500000*%
%ADD12R,1.000000X0.300000*%
%ADD13R,0.300000X1.000000*%
%ADD14C,1.700000*%
%ADD15R,1.140000X0.600000*%
%ADD16R,1.140000X0.300000*%
G04 APERTURE END LIST*
D10*
%TO.C,U2*%
X121350000Y-113250000D03*
X121350000Y-117250000D03*
X125350000Y-113250000D03*
D11*
X125350000Y-117250000D03*
G36*
G01*
X123037500Y-115150000D02*
X122612500Y-115150000D01*
G75*
G02*
X122400000Y-114937500I0J212500D01*
G01*
X122400000Y-114512500D01*
G75*
G02*
X122612500Y-114300000I212500J0D01*
G01*
X123037500Y-114300000D01*
G75*
G02*
X123250000Y-114512500I0J-212500D01*
G01*
X123250000Y-114937500D01*
G75*
G02*
X123037500Y-115150000I-212500J0D01*
G01*
G37*
G36*
G01*
X124087500Y-115150000D02*
X123662500Y-115150000D01*
G75*
G02*
X123450000Y-114937500I0J212500D01*
G01*
X123450000Y-114512500D01*
G75*
G02*
X123662500Y-114300000I212500J0D01*
G01*
X124087500Y-114300000D01*
G75*
G02*
X124300000Y-114512500I0J-212500D01*
G01*
X124300000Y-114937500D01*
G75*
G02*
X124087500Y-115150000I-212500J0D01*
G01*
G37*
G36*
G01*
X123037500Y-116200000D02*
X122612500Y-116200000D01*
G75*
G02*
X122400000Y-115987500I0J212500D01*
G01*
X122400000Y-115562500D01*
G75*
G02*
X122612500Y-115350000I212500J0D01*
G01*
X123037500Y-115350000D01*
G75*
G02*
X123250000Y-115562500I0J-212500D01*
G01*
X123250000Y-115987500D01*
G75*
G02*
X123037500Y-116200000I-212500J0D01*
G01*
G37*
G36*
G01*
X124087500Y-116200000D02*
X123662500Y-116200000D01*
G75*
G02*
X123450000Y-115987500I0J212500D01*
G01*
X123450000Y-115562500D01*
G75*
G02*
X123662500Y-115350000I212500J0D01*
G01*
X124087500Y-115350000D01*
G75*
G02*
X124300000Y-115562500I0J-212500D01*
G01*
X124300000Y-115987500D01*
G75*
G02*
X124087500Y-116200000I-212500J0D01*
G01*
G37*
D12*
X125400000Y-116225000D03*
X125400000Y-115575000D03*
X125400000Y-114925000D03*
X125400000Y-114275000D03*
D13*
X124325000Y-113200000D03*
X123675000Y-113200000D03*
X123025000Y-113200000D03*
X122375000Y-113200000D03*
D12*
X121300000Y-114275000D03*
X121300000Y-114925000D03*
X121300000Y-115575000D03*
X121300000Y-116225000D03*
D13*
X122375000Y-117300000D03*
X123025000Y-117300000D03*
X123675000Y-117300000D03*
X124325000Y-117300000D03*
%TD*%
D14*
%TO.C,M1*%
X130180000Y-111150000D03*
%TD*%
%TO.C,R5*%
G36*
G01*
X128855000Y-123350000D02*
X127605000Y-123350000D01*
G75*
G02*
X127355000Y-123100000I0J250000D01*
G01*
X127355000Y-122300000D01*
G75*
G02*
X127605000Y-122050000I250000J0D01*
G01*
X128855000Y-122050000D01*
G75*
G02*
X129105000Y-122300000I0J-250000D01*
G01*
X129105000Y-123100000D01*
G75*
G02*
X128855000Y-123350000I-250000J0D01*
G01*
G37*
G36*
G01*
X128855000Y-126450000D02*
X127605000Y-126450000D01*
G75*
G02*
X127355000Y-126200000I0J250000D01*
G01*
X127355000Y-125400000D01*
G75*
G02*
X127605000Y-125150000I250000J0D01*
G01*
X128855000Y-125150000D01*
G75*
G02*
X129105000Y-125400000I0J-250000D01*
G01*
X129105000Y-126200000D01*
G75*
G02*
X128855000Y-126450000I-250000J0D01*
G01*
G37*
%TD*%
%TO.C,R4*%
G36*
G01*
X126355000Y-123350000D02*
X125105000Y-123350000D01*
G75*
G02*
X124855000Y-123100000I0J250000D01*
G01*
X124855000Y-122300000D01*
G75*
G02*
X125105000Y-122050000I250000J0D01*
G01*
X126355000Y-122050000D01*
G75*
G02*
X126605000Y-122300000I0J-250000D01*
G01*
X126605000Y-123100000D01*
G75*
G02*
X126355000Y-123350000I-250000J0D01*
G01*
G37*
G36*
G01*
X126355000Y-126450000D02*
X125105000Y-126450000D01*
G75*
G02*
X124855000Y-126200000I0J250000D01*
G01*
X124855000Y-125400000D01*
G75*
G02*
X125105000Y-125150000I250000J0D01*
G01*
X126355000Y-125150000D01*
G75*
G02*
X126605000Y-125400000I0J-250000D01*
G01*
X126605000Y-126200000D01*
G75*
G02*
X126355000Y-126450000I-250000J0D01*
G01*
G37*
%TD*%
%TO.C,R3*%
G36*
G01*
X123855000Y-123350000D02*
X122605000Y-123350000D01*
G75*
G02*
X122355000Y-123100000I0J250000D01*
G01*
X122355000Y-122300000D01*
G75*
G02*
X122605000Y-122050000I250000J0D01*
G01*
X123855000Y-122050000D01*
G75*
G02*
X124105000Y-122300000I0J-250000D01*
G01*
X124105000Y-123100000D01*
G75*
G02*
X123855000Y-123350000I-250000J0D01*
G01*
G37*
G36*
G01*
X123855000Y-126450000D02*
X122605000Y-126450000D01*
G75*
G02*
X122355000Y-126200000I0J250000D01*
G01*
X122355000Y-125400000D01*
G75*
G02*
X122605000Y-125150000I250000J0D01*
G01*
X123855000Y-125150000D01*
G75*
G02*
X124105000Y-125400000I0J-250000D01*
G01*
X124105000Y-126200000D01*
G75*
G02*
X123855000Y-126450000I-250000J0D01*
G01*
G37*
%TD*%
%TO.C,R2*%
G36*
G01*
X121355000Y-123350000D02*
X120105000Y-123350000D01*
G75*
G02*
X119855000Y-123100000I0J250000D01*
G01*
X119855000Y-122300000D01*
G75*
G02*
X120105000Y-122050000I250000J0D01*
G01*
X121355000Y-122050000D01*
G75*
G02*
X121605000Y-122300000I0J-250000D01*
G01*
X121605000Y-123100000D01*
G75*
G02*
X121355000Y-123350000I-250000J0D01*
G01*
G37*
G36*
G01*
X121355000Y-126450000D02*
X120105000Y-126450000D01*
G75*
G02*
X119855000Y-126200000I0J250000D01*
G01*
X119855000Y-125400000D01*
G75*
G02*
X120105000Y-125150000I250000J0D01*
G01*
X121355000Y-125150000D01*
G75*
G02*
X121605000Y-125400000I0J-250000D01*
G01*
X121605000Y-126200000D01*
G75*
G02*
X121355000Y-126450000I-250000J0D01*
G01*
G37*
%TD*%
%TO.C,R1*%
G36*
G01*
X118855000Y-123350000D02*
X117605000Y-123350000D01*
G75*
G02*
X117355000Y-123100000I0J250000D01*
G01*
X117355000Y-122300000D01*
G75*
G02*
X117605000Y-122050000I250000J0D01*
G01*
X118855000Y-122050000D01*
G75*
G02*
X119105000Y-122300000I0J-250000D01*
G01*
X119105000Y-123100000D01*
G75*
G02*
X118855000Y-123350000I-250000J0D01*
G01*
G37*
G36*
G01*
X118855000Y-126450000D02*
X117605000Y-126450000D01*
G75*
G02*
X117355000Y-126200000I0J250000D01*
G01*
X117355000Y-125400000D01*
G75*
G02*
X117605000Y-125150000I250000J0D01*
G01*
X118855000Y-125150000D01*
G75*
G02*
X119105000Y-125400000I0J-250000D01*
G01*
X119105000Y-126200000D01*
G75*
G02*
X118855000Y-126450000I-250000J0D01*
G01*
G37*
%TD*%
D15*
%TO.C,J2*%
X119160000Y-105500000D03*
X119160000Y-111100000D03*
X119160000Y-111900000D03*
X119160000Y-106300000D03*
D16*
X119160000Y-108450000D03*
X119160000Y-108950000D03*
X119160000Y-107950000D03*
X119160000Y-109450000D03*
X119160000Y-107450000D03*
X119160000Y-109950000D03*
X119160000Y-106950000D03*
X119160000Y-110450000D03*
D15*
X119160000Y-106300000D03*
X119160000Y-111100000D03*
X119160000Y-105500000D03*
X119160000Y-111900000D03*
%TD*%
%TO.C,R7*%
G36*
G01*
X116050000Y-102875000D02*
X116050000Y-101625000D01*
G75*
G02*
X116300000Y-101375000I250000J0D01*
G01*
X117100000Y-101375000D01*
G75*
G02*
X117350000Y-101625000I0J-250000D01*
G01*
X117350000Y-102875000D01*
G75*
G02*
X117100000Y-103125000I-250000J0D01*
G01*
X116300000Y-103125000D01*
G75*
G02*
X116050000Y-102875000I0J250000D01*
G01*
G37*
G36*
G01*
X112950000Y-102875000D02*
X112950000Y-101625000D01*
G75*
G02*
X113200000Y-101375000I250000J0D01*
G01*
X114000000Y-101375000D01*
G75*
G02*
X114250000Y-101625000I0J-250000D01*
G01*
X114250000Y-102875000D01*
G75*
G02*
X114000000Y-103125000I-250000J0D01*
G01*
X113200000Y-103125000D01*
G75*
G02*
X112950000Y-102875000I0J250000D01*
G01*
G37*
%TD*%
%TO.C,R6*%
G36*
G01*
X114250000Y-99175000D02*
X114250000Y-100425000D01*
G75*
G02*
X114000000Y-100675000I-250000J0D01*
G01*
X113200000Y-100675000D01*
G75*
G02*
X112950000Y-100425000I0J250000D01*
G01*
X112950000Y-99175000D01*
G75*
G02*
X113200000Y-98925000I250000J0D01*
G01*
X114000000Y-98925000D01*
G75*
G02*
X114250000Y-99175000I0J-250000D01*
G01*
G37*
G36*
G01*
X117350000Y-99175000D02*
X117350000Y-100425000D01*
G75*
G02*
X117100000Y-100675000I-250000J0D01*
G01*
X116300000Y-100675000D01*
G75*
G02*
X116050000Y-100425000I0J250000D01*
G01*
X116050000Y-99175000D01*
G75*
G02*
X116300000Y-98925000I250000J0D01*
G01*
X117100000Y-98925000D01*
G75*
G02*
X117350000Y-99175000I0J-250000D01*
G01*
G37*
%TD*%
M02*
