%TF.GenerationSoftware,KiCad,Pcbnew,(5.1.9-0-10_14)*%
%TF.CreationDate,2021-06-18T11:16:48+01:00*%
%TF.ProjectId,Generic,47656e65-7269-4632-9e6b-696361645f70,4*%
%TF.SameCoordinates,Original*%
%TF.FileFunction,Soldermask,Top*%
%TF.FilePolarity,Negative*%
%FSLAX46Y46*%
G04 Gerber Fmt 4.6, Leading zero omitted, Abs format (unit mm)*
G04 Created by KiCad (PCBNEW (5.1.9-0-10_14)) date 2021-06-18 11:16:48*
%MOMM*%
%LPD*%
G01*
G04 APERTURE LIST*
%ADD10C,0.350000*%
%ADD11C,0.100000*%
%ADD12C,2.000000*%
%ADD13R,2.000000X2.000000*%
%ADD14R,0.650000X0.400000*%
%ADD15R,0.600000X1.100000*%
%ADD16R,1.425000X3.700000*%
%ADD17R,1.700000X1.700000*%
%ADD18O,1.700000X1.700000*%
%ADD19R,5.490000X5.000000*%
%ADD20R,1.140000X0.600000*%
%ADD21C,1.500000*%
%ADD22C,1.750000*%
%ADD23R,1.140000X0.300000*%
G04 APERTURE END LIST*
%TO.C,R9*%
G36*
G01*
X121125000Y-104525000D02*
X121675000Y-104525000D01*
G75*
G02*
X121875000Y-104725000I0J-200000D01*
G01*
X121875000Y-105125000D01*
G75*
G02*
X121675000Y-105325000I-200000J0D01*
G01*
X121125000Y-105325000D01*
G75*
G02*
X120925000Y-105125000I0J200000D01*
G01*
X120925000Y-104725000D01*
G75*
G02*
X121125000Y-104525000I200000J0D01*
G01*
G37*
G36*
G01*
X121125000Y-102875000D02*
X121675000Y-102875000D01*
G75*
G02*
X121875000Y-103075000I0J-200000D01*
G01*
X121875000Y-103475000D01*
G75*
G02*
X121675000Y-103675000I-200000J0D01*
G01*
X121125000Y-103675000D01*
G75*
G02*
X120925000Y-103475000I0J200000D01*
G01*
X120925000Y-103075000D01*
G75*
G02*
X121125000Y-102875000I200000J0D01*
G01*
G37*
%TD*%
%TO.C,R10*%
G36*
G01*
X120475000Y-103675000D02*
X119925000Y-103675000D01*
G75*
G02*
X119725000Y-103475000I0J200000D01*
G01*
X119725000Y-103075000D01*
G75*
G02*
X119925000Y-102875000I200000J0D01*
G01*
X120475000Y-102875000D01*
G75*
G02*
X120675000Y-103075000I0J-200000D01*
G01*
X120675000Y-103475000D01*
G75*
G02*
X120475000Y-103675000I-200000J0D01*
G01*
G37*
G36*
G01*
X120475000Y-105325000D02*
X119925000Y-105325000D01*
G75*
G02*
X119725000Y-105125000I0J200000D01*
G01*
X119725000Y-104725000D01*
G75*
G02*
X119925000Y-104525000I200000J0D01*
G01*
X120475000Y-104525000D01*
G75*
G02*
X120675000Y-104725000I0J-200000D01*
G01*
X120675000Y-105125000D01*
G75*
G02*
X120475000Y-105325000I-200000J0D01*
G01*
G37*
%TD*%
D10*
%TO.C,U2*%
X116300000Y-113300000D03*
D11*
G36*
X115300000Y-112300000D02*
G01*
X117300000Y-112300000D01*
X117300000Y-114050000D01*
X117050000Y-114300000D01*
X115300000Y-114300000D01*
X115300000Y-112300000D01*
G37*
G36*
G01*
X117425000Y-114912500D02*
X117425000Y-115487500D01*
G75*
G02*
X117362500Y-115550000I-62500J0D01*
G01*
X117237500Y-115550000D01*
G75*
G02*
X117175000Y-115487500I0J62500D01*
G01*
X117175000Y-114912500D01*
G75*
G02*
X117237500Y-114850000I62500J0D01*
G01*
X117362500Y-114850000D01*
G75*
G02*
X117425000Y-114912500I0J-62500D01*
G01*
G37*
G36*
G01*
X116925000Y-114912500D02*
X116925000Y-115487500D01*
G75*
G02*
X116862500Y-115550000I-62500J0D01*
G01*
X116737500Y-115550000D01*
G75*
G02*
X116675000Y-115487500I0J62500D01*
G01*
X116675000Y-114912500D01*
G75*
G02*
X116737500Y-114850000I62500J0D01*
G01*
X116862500Y-114850000D01*
G75*
G02*
X116925000Y-114912500I0J-62500D01*
G01*
G37*
G36*
G01*
X116425000Y-114912500D02*
X116425000Y-115487500D01*
G75*
G02*
X116362500Y-115550000I-62500J0D01*
G01*
X116237500Y-115550000D01*
G75*
G02*
X116175000Y-115487500I0J62500D01*
G01*
X116175000Y-114912500D01*
G75*
G02*
X116237500Y-114850000I62500J0D01*
G01*
X116362500Y-114850000D01*
G75*
G02*
X116425000Y-114912500I0J-62500D01*
G01*
G37*
G36*
G01*
X115925000Y-114912500D02*
X115925000Y-115487500D01*
G75*
G02*
X115862500Y-115550000I-62500J0D01*
G01*
X115737500Y-115550000D01*
G75*
G02*
X115675000Y-115487500I0J62500D01*
G01*
X115675000Y-114912500D01*
G75*
G02*
X115737500Y-114850000I62500J0D01*
G01*
X115862500Y-114850000D01*
G75*
G02*
X115925000Y-114912500I0J-62500D01*
G01*
G37*
G36*
G01*
X115425000Y-114912500D02*
X115425000Y-115487500D01*
G75*
G02*
X115362500Y-115550000I-62500J0D01*
G01*
X115237500Y-115550000D01*
G75*
G02*
X115175000Y-115487500I0J62500D01*
G01*
X115175000Y-114912500D01*
G75*
G02*
X115237500Y-114850000I62500J0D01*
G01*
X115362500Y-114850000D01*
G75*
G02*
X115425000Y-114912500I0J-62500D01*
G01*
G37*
G36*
G01*
X114750000Y-114237500D02*
X114750000Y-114362500D01*
G75*
G02*
X114687500Y-114425000I-62500J0D01*
G01*
X114112500Y-114425000D01*
G75*
G02*
X114050000Y-114362500I0J62500D01*
G01*
X114050000Y-114237500D01*
G75*
G02*
X114112500Y-114175000I62500J0D01*
G01*
X114687500Y-114175000D01*
G75*
G02*
X114750000Y-114237500I0J-62500D01*
G01*
G37*
G36*
G01*
X114750000Y-113737500D02*
X114750000Y-113862500D01*
G75*
G02*
X114687500Y-113925000I-62500J0D01*
G01*
X114112500Y-113925000D01*
G75*
G02*
X114050000Y-113862500I0J62500D01*
G01*
X114050000Y-113737500D01*
G75*
G02*
X114112500Y-113675000I62500J0D01*
G01*
X114687500Y-113675000D01*
G75*
G02*
X114750000Y-113737500I0J-62500D01*
G01*
G37*
G36*
G01*
X114750000Y-113237500D02*
X114750000Y-113362500D01*
G75*
G02*
X114687500Y-113425000I-62500J0D01*
G01*
X114112500Y-113425000D01*
G75*
G02*
X114050000Y-113362500I0J62500D01*
G01*
X114050000Y-113237500D01*
G75*
G02*
X114112500Y-113175000I62500J0D01*
G01*
X114687500Y-113175000D01*
G75*
G02*
X114750000Y-113237500I0J-62500D01*
G01*
G37*
G36*
G01*
X114750000Y-112737500D02*
X114750000Y-112862500D01*
G75*
G02*
X114687500Y-112925000I-62500J0D01*
G01*
X114112500Y-112925000D01*
G75*
G02*
X114050000Y-112862500I0J62500D01*
G01*
X114050000Y-112737500D01*
G75*
G02*
X114112500Y-112675000I62500J0D01*
G01*
X114687500Y-112675000D01*
G75*
G02*
X114750000Y-112737500I0J-62500D01*
G01*
G37*
G36*
G01*
X114750000Y-112237500D02*
X114750000Y-112362500D01*
G75*
G02*
X114687500Y-112425000I-62500J0D01*
G01*
X114112500Y-112425000D01*
G75*
G02*
X114050000Y-112362500I0J62500D01*
G01*
X114050000Y-112237500D01*
G75*
G02*
X114112500Y-112175000I62500J0D01*
G01*
X114687500Y-112175000D01*
G75*
G02*
X114750000Y-112237500I0J-62500D01*
G01*
G37*
G36*
G01*
X115425000Y-111112500D02*
X115425000Y-111687500D01*
G75*
G02*
X115362500Y-111750000I-62500J0D01*
G01*
X115237500Y-111750000D01*
G75*
G02*
X115175000Y-111687500I0J62500D01*
G01*
X115175000Y-111112500D01*
G75*
G02*
X115237500Y-111050000I62500J0D01*
G01*
X115362500Y-111050000D01*
G75*
G02*
X115425000Y-111112500I0J-62500D01*
G01*
G37*
G36*
G01*
X115925000Y-111112500D02*
X115925000Y-111687500D01*
G75*
G02*
X115862500Y-111750000I-62500J0D01*
G01*
X115737500Y-111750000D01*
G75*
G02*
X115675000Y-111687500I0J62500D01*
G01*
X115675000Y-111112500D01*
G75*
G02*
X115737500Y-111050000I62500J0D01*
G01*
X115862500Y-111050000D01*
G75*
G02*
X115925000Y-111112500I0J-62500D01*
G01*
G37*
G36*
G01*
X116425000Y-111112500D02*
X116425000Y-111687500D01*
G75*
G02*
X116362500Y-111750000I-62500J0D01*
G01*
X116237500Y-111750000D01*
G75*
G02*
X116175000Y-111687500I0J62500D01*
G01*
X116175000Y-111112500D01*
G75*
G02*
X116237500Y-111050000I62500J0D01*
G01*
X116362500Y-111050000D01*
G75*
G02*
X116425000Y-111112500I0J-62500D01*
G01*
G37*
G36*
G01*
X116925000Y-111112500D02*
X116925000Y-111687500D01*
G75*
G02*
X116862500Y-111750000I-62500J0D01*
G01*
X116737500Y-111750000D01*
G75*
G02*
X116675000Y-111687500I0J62500D01*
G01*
X116675000Y-111112500D01*
G75*
G02*
X116737500Y-111050000I62500J0D01*
G01*
X116862500Y-111050000D01*
G75*
G02*
X116925000Y-111112500I0J-62500D01*
G01*
G37*
G36*
G01*
X117425000Y-111112500D02*
X117425000Y-111687500D01*
G75*
G02*
X117362500Y-111750000I-62500J0D01*
G01*
X117237500Y-111750000D01*
G75*
G02*
X117175000Y-111687500I0J62500D01*
G01*
X117175000Y-111112500D01*
G75*
G02*
X117237500Y-111050000I62500J0D01*
G01*
X117362500Y-111050000D01*
G75*
G02*
X117425000Y-111112500I0J-62500D01*
G01*
G37*
G36*
G01*
X118550000Y-112237500D02*
X118550000Y-112362500D01*
G75*
G02*
X118487500Y-112425000I-62500J0D01*
G01*
X117912500Y-112425000D01*
G75*
G02*
X117850000Y-112362500I0J62500D01*
G01*
X117850000Y-112237500D01*
G75*
G02*
X117912500Y-112175000I62500J0D01*
G01*
X118487500Y-112175000D01*
G75*
G02*
X118550000Y-112237500I0J-62500D01*
G01*
G37*
G36*
G01*
X118550000Y-112737500D02*
X118550000Y-112862500D01*
G75*
G02*
X118487500Y-112925000I-62500J0D01*
G01*
X117912500Y-112925000D01*
G75*
G02*
X117850000Y-112862500I0J62500D01*
G01*
X117850000Y-112737500D01*
G75*
G02*
X117912500Y-112675000I62500J0D01*
G01*
X118487500Y-112675000D01*
G75*
G02*
X118550000Y-112737500I0J-62500D01*
G01*
G37*
G36*
G01*
X118550000Y-113237500D02*
X118550000Y-113362500D01*
G75*
G02*
X118487500Y-113425000I-62500J0D01*
G01*
X117912500Y-113425000D01*
G75*
G02*
X117850000Y-113362500I0J62500D01*
G01*
X117850000Y-113237500D01*
G75*
G02*
X117912500Y-113175000I62500J0D01*
G01*
X118487500Y-113175000D01*
G75*
G02*
X118550000Y-113237500I0J-62500D01*
G01*
G37*
G36*
G01*
X118550000Y-113737500D02*
X118550000Y-113862500D01*
G75*
G02*
X118487500Y-113925000I-62500J0D01*
G01*
X117912500Y-113925000D01*
G75*
G02*
X117850000Y-113862500I0J62500D01*
G01*
X117850000Y-113737500D01*
G75*
G02*
X117912500Y-113675000I62500J0D01*
G01*
X118487500Y-113675000D01*
G75*
G02*
X118550000Y-113737500I0J-62500D01*
G01*
G37*
G36*
G01*
X118550000Y-114237500D02*
X118550000Y-114362500D01*
G75*
G02*
X118487500Y-114425000I-62500J0D01*
G01*
X117912500Y-114425000D01*
G75*
G02*
X117850000Y-114362500I0J62500D01*
G01*
X117850000Y-114237500D01*
G75*
G02*
X117912500Y-114175000I62500J0D01*
G01*
X118487500Y-114175000D01*
G75*
G02*
X118550000Y-114237500I0J-62500D01*
G01*
G37*
%TD*%
D12*
%TO.C,J3*%
X126600000Y-125460000D03*
D13*
X126600000Y-128000000D03*
%TD*%
%TO.C,R16*%
G36*
G01*
X126475000Y-103325000D02*
X126475000Y-103875000D01*
G75*
G02*
X126275000Y-104075000I-200000J0D01*
G01*
X125875000Y-104075000D01*
G75*
G02*
X125675000Y-103875000I0J200000D01*
G01*
X125675000Y-103325000D01*
G75*
G02*
X125875000Y-103125000I200000J0D01*
G01*
X126275000Y-103125000D01*
G75*
G02*
X126475000Y-103325000I0J-200000D01*
G01*
G37*
G36*
G01*
X128125000Y-103325000D02*
X128125000Y-103875000D01*
G75*
G02*
X127925000Y-104075000I-200000J0D01*
G01*
X127525000Y-104075000D01*
G75*
G02*
X127325000Y-103875000I0J200000D01*
G01*
X127325000Y-103325000D01*
G75*
G02*
X127525000Y-103125000I200000J0D01*
G01*
X127925000Y-103125000D01*
G75*
G02*
X128125000Y-103325000I0J-200000D01*
G01*
G37*
%TD*%
%TO.C,D6*%
G36*
G01*
X126575000Y-118425000D02*
X126575000Y-117175000D01*
G75*
G02*
X126825000Y-116925000I250000J0D01*
G01*
X127750000Y-116925000D01*
G75*
G02*
X128000000Y-117175000I0J-250000D01*
G01*
X128000000Y-118425000D01*
G75*
G02*
X127750000Y-118675000I-250000J0D01*
G01*
X126825000Y-118675000D01*
G75*
G02*
X126575000Y-118425000I0J250000D01*
G01*
G37*
G36*
G01*
X123600000Y-118425000D02*
X123600000Y-117175000D01*
G75*
G02*
X123850000Y-116925000I250000J0D01*
G01*
X124775000Y-116925000D01*
G75*
G02*
X125025000Y-117175000I0J-250000D01*
G01*
X125025000Y-118425000D01*
G75*
G02*
X124775000Y-118675000I-250000J0D01*
G01*
X123850000Y-118675000D01*
G75*
G02*
X123600000Y-118425000I0J250000D01*
G01*
G37*
%TD*%
%TO.C,D5*%
G36*
G01*
X126450000Y-101962500D02*
X126450000Y-102437500D01*
G75*
G02*
X126212500Y-102675000I-237500J0D01*
G01*
X125637500Y-102675000D01*
G75*
G02*
X125400000Y-102437500I0J237500D01*
G01*
X125400000Y-101962500D01*
G75*
G02*
X125637500Y-101725000I237500J0D01*
G01*
X126212500Y-101725000D01*
G75*
G02*
X126450000Y-101962500I0J-237500D01*
G01*
G37*
G36*
G01*
X128200000Y-101962500D02*
X128200000Y-102437500D01*
G75*
G02*
X127962500Y-102675000I-237500J0D01*
G01*
X127387500Y-102675000D01*
G75*
G02*
X127150000Y-102437500I0J237500D01*
G01*
X127150000Y-101962500D01*
G75*
G02*
X127387500Y-101725000I237500J0D01*
G01*
X127962500Y-101725000D01*
G75*
G02*
X128200000Y-101962500I0J-237500D01*
G01*
G37*
%TD*%
D14*
%TO.C,D3*%
X118100000Y-118250000D03*
X118100000Y-119550000D03*
X116200000Y-118900000D03*
X118100000Y-118900000D03*
X116200000Y-119550000D03*
X116200000Y-118250000D03*
%TD*%
%TO.C,D2*%
X122150000Y-118250000D03*
X122150000Y-119550000D03*
X120250000Y-118900000D03*
X122150000Y-118900000D03*
X120250000Y-119550000D03*
X120250000Y-118250000D03*
%TD*%
%TO.C,C2*%
G36*
G01*
X111475000Y-118100000D02*
X111475000Y-118600000D01*
G75*
G02*
X111250000Y-118825000I-225000J0D01*
G01*
X110800000Y-118825000D01*
G75*
G02*
X110575000Y-118600000I0J225000D01*
G01*
X110575000Y-118100000D01*
G75*
G02*
X110800000Y-117875000I225000J0D01*
G01*
X111250000Y-117875000D01*
G75*
G02*
X111475000Y-118100000I0J-225000D01*
G01*
G37*
G36*
G01*
X113025000Y-118100000D02*
X113025000Y-118600000D01*
G75*
G02*
X112800000Y-118825000I-225000J0D01*
G01*
X112350000Y-118825000D01*
G75*
G02*
X112125000Y-118600000I0J225000D01*
G01*
X112125000Y-118100000D01*
G75*
G02*
X112350000Y-117875000I225000J0D01*
G01*
X112800000Y-117875000D01*
G75*
G02*
X113025000Y-118100000I0J-225000D01*
G01*
G37*
%TD*%
D15*
%TO.C,Reg1*%
X113700000Y-102800000D03*
X111800000Y-102800000D03*
X112750000Y-102800000D03*
X111800000Y-105500000D03*
X112750000Y-105500000D03*
X113700000Y-105500000D03*
G36*
G01*
X117675000Y-106250000D02*
X118625000Y-106250000D01*
G75*
G02*
X118875000Y-106500000I0J-250000D01*
G01*
X118875000Y-107000000D01*
G75*
G02*
X118625000Y-107250000I-250000J0D01*
G01*
X117675000Y-107250000D01*
G75*
G02*
X117425000Y-107000000I0J250000D01*
G01*
X117425000Y-106500000D01*
G75*
G02*
X117675000Y-106250000I250000J0D01*
G01*
G37*
G36*
G01*
X117675000Y-108150000D02*
X118625000Y-108150000D01*
G75*
G02*
X118875000Y-108400000I0J-250000D01*
G01*
X118875000Y-108900000D01*
G75*
G02*
X118625000Y-109150000I-250000J0D01*
G01*
X117675000Y-109150000D01*
G75*
G02*
X117425000Y-108900000I0J250000D01*
G01*
X117425000Y-108400000D01*
G75*
G02*
X117675000Y-108150000I250000J0D01*
G01*
G37*
G36*
G01*
X111425000Y-108150000D02*
X112375000Y-108150000D01*
G75*
G02*
X112625000Y-108400000I0J-250000D01*
G01*
X112625000Y-108900000D01*
G75*
G02*
X112375000Y-109150000I-250000J0D01*
G01*
X111425000Y-109150000D01*
G75*
G02*
X111175000Y-108900000I0J250000D01*
G01*
X111175000Y-108400000D01*
G75*
G02*
X111425000Y-108150000I250000J0D01*
G01*
G37*
G36*
G01*
X111425000Y-106250000D02*
X112375000Y-106250000D01*
G75*
G02*
X112625000Y-106500000I0J-250000D01*
G01*
X112625000Y-107000000D01*
G75*
G02*
X112375000Y-107250000I-250000J0D01*
G01*
X111425000Y-107250000D01*
G75*
G02*
X111175000Y-107000000I0J250000D01*
G01*
X111175000Y-106500000D01*
G75*
G02*
X111425000Y-106250000I250000J0D01*
G01*
G37*
G36*
G01*
X110900000Y-103825000D02*
X110400000Y-103825000D01*
G75*
G02*
X110175000Y-103600000I0J225000D01*
G01*
X110175000Y-103150000D01*
G75*
G02*
X110400000Y-102925000I225000J0D01*
G01*
X110900000Y-102925000D01*
G75*
G02*
X111125000Y-103150000I0J-225000D01*
G01*
X111125000Y-103600000D01*
G75*
G02*
X110900000Y-103825000I-225000J0D01*
G01*
G37*
G36*
G01*
X110900000Y-105375000D02*
X110400000Y-105375000D01*
G75*
G02*
X110175000Y-105150000I0J225000D01*
G01*
X110175000Y-104700000D01*
G75*
G02*
X110400000Y-104475000I225000J0D01*
G01*
X110900000Y-104475000D01*
G75*
G02*
X111125000Y-104700000I0J-225000D01*
G01*
X111125000Y-105150000D01*
G75*
G02*
X110900000Y-105375000I-225000J0D01*
G01*
G37*
G36*
G01*
X112825000Y-107945626D02*
X112825000Y-106694374D01*
G75*
G02*
X113074374Y-106445000I249374J0D01*
G01*
X114000626Y-106445000D01*
G75*
G02*
X114250000Y-106694374I0J-249374D01*
G01*
X114250000Y-107945626D01*
G75*
G02*
X114000626Y-108195000I-249374J0D01*
G01*
X113074374Y-108195000D01*
G75*
G02*
X112825000Y-107945626I0J249374D01*
G01*
G37*
G36*
G01*
X115800000Y-107945626D02*
X115800000Y-106694374D01*
G75*
G02*
X116049374Y-106445000I249374J0D01*
G01*
X116975626Y-106445000D01*
G75*
G02*
X117225000Y-106694374I0J-249374D01*
G01*
X117225000Y-107945626D01*
G75*
G02*
X116975626Y-108195000I-249374J0D01*
G01*
X116049374Y-108195000D01*
G75*
G02*
X115800000Y-107945626I0J249374D01*
G01*
G37*
D16*
X118150000Y-104200000D03*
X115150000Y-104200000D03*
%TD*%
%TO.C,R8*%
G36*
G01*
X122875000Y-104525000D02*
X122875000Y-105075000D01*
G75*
G02*
X122675000Y-105275000I-200000J0D01*
G01*
X122275000Y-105275000D01*
G75*
G02*
X122075000Y-105075000I0J200000D01*
G01*
X122075000Y-104525000D01*
G75*
G02*
X122275000Y-104325000I200000J0D01*
G01*
X122675000Y-104325000D01*
G75*
G02*
X122875000Y-104525000I0J-200000D01*
G01*
G37*
G36*
G01*
X124525000Y-104525000D02*
X124525000Y-105075000D01*
G75*
G02*
X124325000Y-105275000I-200000J0D01*
G01*
X123925000Y-105275000D01*
G75*
G02*
X123725000Y-105075000I0J200000D01*
G01*
X123725000Y-104525000D01*
G75*
G02*
X123925000Y-104325000I200000J0D01*
G01*
X124325000Y-104325000D01*
G75*
G02*
X124525000Y-104525000I0J-200000D01*
G01*
G37*
%TD*%
%TO.C,R7*%
G36*
G01*
X123725000Y-103875000D02*
X123725000Y-103325000D01*
G75*
G02*
X123925000Y-103125000I200000J0D01*
G01*
X124325000Y-103125000D01*
G75*
G02*
X124525000Y-103325000I0J-200000D01*
G01*
X124525000Y-103875000D01*
G75*
G02*
X124325000Y-104075000I-200000J0D01*
G01*
X123925000Y-104075000D01*
G75*
G02*
X123725000Y-103875000I0J200000D01*
G01*
G37*
G36*
G01*
X122075000Y-103875000D02*
X122075000Y-103325000D01*
G75*
G02*
X122275000Y-103125000I200000J0D01*
G01*
X122675000Y-103125000D01*
G75*
G02*
X122875000Y-103325000I0J-200000D01*
G01*
X122875000Y-103875000D01*
G75*
G02*
X122675000Y-104075000I-200000J0D01*
G01*
X122275000Y-104075000D01*
G75*
G02*
X122075000Y-103875000I0J200000D01*
G01*
G37*
%TD*%
%TO.C,R6*%
G36*
G01*
X111075000Y-120649900D02*
X111075000Y-119750100D01*
G75*
G02*
X111325100Y-119500000I250100J0D01*
G01*
X111849900Y-119500000D01*
G75*
G02*
X112100000Y-119750100I0J-250100D01*
G01*
X112100000Y-120649900D01*
G75*
G02*
X111849900Y-120900000I-250100J0D01*
G01*
X111325100Y-120900000D01*
G75*
G02*
X111075000Y-120649900I0J250100D01*
G01*
G37*
G36*
G01*
X112900000Y-120649900D02*
X112900000Y-119750100D01*
G75*
G02*
X113150100Y-119500000I250100J0D01*
G01*
X113674900Y-119500000D01*
G75*
G02*
X113925000Y-119750100I0J-250100D01*
G01*
X113925000Y-120649900D01*
G75*
G02*
X113674900Y-120900000I-250100J0D01*
G01*
X113150100Y-120900000D01*
G75*
G02*
X112900000Y-120649900I0J250100D01*
G01*
G37*
G36*
G01*
X113400000Y-120825250D02*
X113400000Y-119574750D01*
G75*
G02*
X113649750Y-119325000I249750J0D01*
G01*
X114275250Y-119325000D01*
G75*
G02*
X114525000Y-119574750I0J-249750D01*
G01*
X114525000Y-120825250D01*
G75*
G02*
X114275250Y-121075000I-249750J0D01*
G01*
X113649750Y-121075000D01*
G75*
G02*
X113400000Y-120825250I0J249750D01*
G01*
G37*
G36*
G01*
X110475000Y-120825250D02*
X110475000Y-119574750D01*
G75*
G02*
X110724750Y-119325000I249750J0D01*
G01*
X111350250Y-119325000D01*
G75*
G02*
X111600000Y-119574750I0J-249750D01*
G01*
X111600000Y-120825250D01*
G75*
G02*
X111350250Y-121075000I-249750J0D01*
G01*
X110724750Y-121075000D01*
G75*
G02*
X110475000Y-120825250I0J249750D01*
G01*
G37*
%TD*%
%TO.C,R5*%
G36*
G01*
X112849900Y-128175000D02*
X111950100Y-128175000D01*
G75*
G02*
X111700000Y-127924900I0J250100D01*
G01*
X111700000Y-127400100D01*
G75*
G02*
X111950100Y-127150000I250100J0D01*
G01*
X112849900Y-127150000D01*
G75*
G02*
X113100000Y-127400100I0J-250100D01*
G01*
X113100000Y-127924900D01*
G75*
G02*
X112849900Y-128175000I-250100J0D01*
G01*
G37*
G36*
G01*
X112849900Y-126350000D02*
X111950100Y-126350000D01*
G75*
G02*
X111700000Y-126099900I0J250100D01*
G01*
X111700000Y-125575100D01*
G75*
G02*
X111950100Y-125325000I250100J0D01*
G01*
X112849900Y-125325000D01*
G75*
G02*
X113100000Y-125575100I0J-250100D01*
G01*
X113100000Y-126099900D01*
G75*
G02*
X112849900Y-126350000I-250100J0D01*
G01*
G37*
G36*
G01*
X113025250Y-125850000D02*
X111774750Y-125850000D01*
G75*
G02*
X111525000Y-125600250I0J249750D01*
G01*
X111525000Y-124974750D01*
G75*
G02*
X111774750Y-124725000I249750J0D01*
G01*
X113025250Y-124725000D01*
G75*
G02*
X113275000Y-124974750I0J-249750D01*
G01*
X113275000Y-125600250D01*
G75*
G02*
X113025250Y-125850000I-249750J0D01*
G01*
G37*
G36*
G01*
X113025250Y-128775000D02*
X111774750Y-128775000D01*
G75*
G02*
X111525000Y-128525250I0J249750D01*
G01*
X111525000Y-127899750D01*
G75*
G02*
X111774750Y-127650000I249750J0D01*
G01*
X113025250Y-127650000D01*
G75*
G02*
X113275000Y-127899750I0J-249750D01*
G01*
X113275000Y-128525250D01*
G75*
G02*
X113025250Y-128775000I-249750J0D01*
G01*
G37*
%TD*%
%TO.C,R4*%
G36*
G01*
X116119900Y-128175000D02*
X115220100Y-128175000D01*
G75*
G02*
X114970000Y-127924900I0J250100D01*
G01*
X114970000Y-127400100D01*
G75*
G02*
X115220100Y-127150000I250100J0D01*
G01*
X116119900Y-127150000D01*
G75*
G02*
X116370000Y-127400100I0J-250100D01*
G01*
X116370000Y-127924900D01*
G75*
G02*
X116119900Y-128175000I-250100J0D01*
G01*
G37*
G36*
G01*
X116119900Y-126350000D02*
X115220100Y-126350000D01*
G75*
G02*
X114970000Y-126099900I0J250100D01*
G01*
X114970000Y-125575100D01*
G75*
G02*
X115220100Y-125325000I250100J0D01*
G01*
X116119900Y-125325000D01*
G75*
G02*
X116370000Y-125575100I0J-250100D01*
G01*
X116370000Y-126099900D01*
G75*
G02*
X116119900Y-126350000I-250100J0D01*
G01*
G37*
G36*
G01*
X116295250Y-125850000D02*
X115044750Y-125850000D01*
G75*
G02*
X114795000Y-125600250I0J249750D01*
G01*
X114795000Y-124974750D01*
G75*
G02*
X115044750Y-124725000I249750J0D01*
G01*
X116295250Y-124725000D01*
G75*
G02*
X116545000Y-124974750I0J-249750D01*
G01*
X116545000Y-125600250D01*
G75*
G02*
X116295250Y-125850000I-249750J0D01*
G01*
G37*
G36*
G01*
X116295250Y-128775000D02*
X115044750Y-128775000D01*
G75*
G02*
X114795000Y-128525250I0J249750D01*
G01*
X114795000Y-127899750D01*
G75*
G02*
X115044750Y-127650000I249750J0D01*
G01*
X116295250Y-127650000D01*
G75*
G02*
X116545000Y-127899750I0J-249750D01*
G01*
X116545000Y-128525250D01*
G75*
G02*
X116295250Y-128775000I-249750J0D01*
G01*
G37*
%TD*%
%TO.C,R3*%
G36*
G01*
X118619900Y-128175000D02*
X117720100Y-128175000D01*
G75*
G02*
X117470000Y-127924900I0J250100D01*
G01*
X117470000Y-127400100D01*
G75*
G02*
X117720100Y-127150000I250100J0D01*
G01*
X118619900Y-127150000D01*
G75*
G02*
X118870000Y-127400100I0J-250100D01*
G01*
X118870000Y-127924900D01*
G75*
G02*
X118619900Y-128175000I-250100J0D01*
G01*
G37*
G36*
G01*
X118619900Y-126350000D02*
X117720100Y-126350000D01*
G75*
G02*
X117470000Y-126099900I0J250100D01*
G01*
X117470000Y-125575100D01*
G75*
G02*
X117720100Y-125325000I250100J0D01*
G01*
X118619900Y-125325000D01*
G75*
G02*
X118870000Y-125575100I0J-250100D01*
G01*
X118870000Y-126099900D01*
G75*
G02*
X118619900Y-126350000I-250100J0D01*
G01*
G37*
G36*
G01*
X118795250Y-125850000D02*
X117544750Y-125850000D01*
G75*
G02*
X117295000Y-125600250I0J249750D01*
G01*
X117295000Y-124974750D01*
G75*
G02*
X117544750Y-124725000I249750J0D01*
G01*
X118795250Y-124725000D01*
G75*
G02*
X119045000Y-124974750I0J-249750D01*
G01*
X119045000Y-125600250D01*
G75*
G02*
X118795250Y-125850000I-249750J0D01*
G01*
G37*
G36*
G01*
X118795250Y-128775000D02*
X117544750Y-128775000D01*
G75*
G02*
X117295000Y-128525250I0J249750D01*
G01*
X117295000Y-127899750D01*
G75*
G02*
X117544750Y-127650000I249750J0D01*
G01*
X118795250Y-127650000D01*
G75*
G02*
X119045000Y-127899750I0J-249750D01*
G01*
X119045000Y-128525250D01*
G75*
G02*
X118795250Y-128775000I-249750J0D01*
G01*
G37*
%TD*%
%TO.C,R2*%
G36*
G01*
X121119900Y-128175000D02*
X120220100Y-128175000D01*
G75*
G02*
X119970000Y-127924900I0J250100D01*
G01*
X119970000Y-127400100D01*
G75*
G02*
X120220100Y-127150000I250100J0D01*
G01*
X121119900Y-127150000D01*
G75*
G02*
X121370000Y-127400100I0J-250100D01*
G01*
X121370000Y-127924900D01*
G75*
G02*
X121119900Y-128175000I-250100J0D01*
G01*
G37*
G36*
G01*
X121119900Y-126350000D02*
X120220100Y-126350000D01*
G75*
G02*
X119970000Y-126099900I0J250100D01*
G01*
X119970000Y-125575100D01*
G75*
G02*
X120220100Y-125325000I250100J0D01*
G01*
X121119900Y-125325000D01*
G75*
G02*
X121370000Y-125575100I0J-250100D01*
G01*
X121370000Y-126099900D01*
G75*
G02*
X121119900Y-126350000I-250100J0D01*
G01*
G37*
G36*
G01*
X121295250Y-125850000D02*
X120044750Y-125850000D01*
G75*
G02*
X119795000Y-125600250I0J249750D01*
G01*
X119795000Y-124974750D01*
G75*
G02*
X120044750Y-124725000I249750J0D01*
G01*
X121295250Y-124725000D01*
G75*
G02*
X121545000Y-124974750I0J-249750D01*
G01*
X121545000Y-125600250D01*
G75*
G02*
X121295250Y-125850000I-249750J0D01*
G01*
G37*
G36*
G01*
X121295250Y-128775000D02*
X120044750Y-128775000D01*
G75*
G02*
X119795000Y-128525250I0J249750D01*
G01*
X119795000Y-127899750D01*
G75*
G02*
X120044750Y-127650000I249750J0D01*
G01*
X121295250Y-127650000D01*
G75*
G02*
X121545000Y-127899750I0J-249750D01*
G01*
X121545000Y-128525250D01*
G75*
G02*
X121295250Y-128775000I-249750J0D01*
G01*
G37*
%TD*%
%TO.C,R1*%
G36*
G01*
X123619900Y-128175000D02*
X122720100Y-128175000D01*
G75*
G02*
X122470000Y-127924900I0J250100D01*
G01*
X122470000Y-127400100D01*
G75*
G02*
X122720100Y-127150000I250100J0D01*
G01*
X123619900Y-127150000D01*
G75*
G02*
X123870000Y-127400100I0J-250100D01*
G01*
X123870000Y-127924900D01*
G75*
G02*
X123619900Y-128175000I-250100J0D01*
G01*
G37*
G36*
G01*
X123619900Y-126350000D02*
X122720100Y-126350000D01*
G75*
G02*
X122470000Y-126099900I0J250100D01*
G01*
X122470000Y-125575100D01*
G75*
G02*
X122720100Y-125325000I250100J0D01*
G01*
X123619900Y-125325000D01*
G75*
G02*
X123870000Y-125575100I0J-250100D01*
G01*
X123870000Y-126099900D01*
G75*
G02*
X123619900Y-126350000I-250100J0D01*
G01*
G37*
G36*
G01*
X123795250Y-125850000D02*
X122544750Y-125850000D01*
G75*
G02*
X122295000Y-125600250I0J249750D01*
G01*
X122295000Y-124974750D01*
G75*
G02*
X122544750Y-124725000I249750J0D01*
G01*
X123795250Y-124725000D01*
G75*
G02*
X124045000Y-124974750I0J-249750D01*
G01*
X124045000Y-125600250D01*
G75*
G02*
X123795250Y-125850000I-249750J0D01*
G01*
G37*
G36*
G01*
X123795250Y-128775000D02*
X122544750Y-128775000D01*
G75*
G02*
X122295000Y-128525250I0J249750D01*
G01*
X122295000Y-127899750D01*
G75*
G02*
X122544750Y-127650000I249750J0D01*
G01*
X123795250Y-127650000D01*
G75*
G02*
X124045000Y-127899750I0J-249750D01*
G01*
X124045000Y-128525250D01*
G75*
G02*
X123795250Y-128775000I-249750J0D01*
G01*
G37*
%TD*%
%TO.C,C1*%
G36*
G01*
X127562500Y-119750100D02*
X127562500Y-120649900D01*
G75*
G02*
X127312400Y-120900000I-250100J0D01*
G01*
X126787600Y-120900000D01*
G75*
G02*
X126537500Y-120649900I0J250100D01*
G01*
X126537500Y-119750100D01*
G75*
G02*
X126787600Y-119500000I250100J0D01*
G01*
X127312400Y-119500000D01*
G75*
G02*
X127562500Y-119750100I0J-250100D01*
G01*
G37*
G36*
G01*
X125737500Y-119750100D02*
X125737500Y-120649900D01*
G75*
G02*
X125487400Y-120900000I-250100J0D01*
G01*
X124962600Y-120900000D01*
G75*
G02*
X124712500Y-120649900I0J250100D01*
G01*
X124712500Y-119750100D01*
G75*
G02*
X124962600Y-119500000I250100J0D01*
G01*
X125487400Y-119500000D01*
G75*
G02*
X125737500Y-119750100I0J-250100D01*
G01*
G37*
G36*
G01*
X125237500Y-119574750D02*
X125237500Y-120825250D01*
G75*
G02*
X124987750Y-121075000I-249750J0D01*
G01*
X124362250Y-121075000D01*
G75*
G02*
X124112500Y-120825250I0J249750D01*
G01*
X124112500Y-119574750D01*
G75*
G02*
X124362250Y-119325000I249750J0D01*
G01*
X124987750Y-119325000D01*
G75*
G02*
X125237500Y-119574750I0J-249750D01*
G01*
G37*
G36*
G01*
X128162500Y-119574750D02*
X128162500Y-120825250D01*
G75*
G02*
X127912750Y-121075000I-249750J0D01*
G01*
X127287250Y-121075000D01*
G75*
G02*
X127037500Y-120825250I0J249750D01*
G01*
X127037500Y-119574750D01*
G75*
G02*
X127287250Y-119325000I249750J0D01*
G01*
X127912750Y-119325000D01*
G75*
G02*
X128162500Y-119574750I0J-249750D01*
G01*
G37*
%TD*%
D17*
%TO.C,J1*%
X125745000Y-122900000D03*
D18*
X123205000Y-122900000D03*
X120665000Y-122900000D03*
X118125000Y-122900000D03*
X115585000Y-122900000D03*
X113045000Y-122900000D03*
%TD*%
D19*
%TO.C,J2*%
X126355000Y-111200000D03*
D20*
X122240000Y-113600000D03*
X122240000Y-108800000D03*
D21*
X126990000Y-106880000D03*
X126990000Y-115520000D03*
D22*
X122820000Y-106880000D03*
X122820000Y-115520000D03*
D23*
X122240000Y-110950000D03*
X122240000Y-111450000D03*
X122240000Y-110450000D03*
X122240000Y-111950000D03*
X122240000Y-109950000D03*
X122240000Y-112450000D03*
X122240000Y-109450000D03*
X122240000Y-112950000D03*
D20*
X122240000Y-108000000D03*
X122240000Y-114400000D03*
%TD*%
M02*
