M48
; DRILL file {KiCad (5.1.9-0-10_14)} date Sunday, May 02, 2021 at 12:57:29 PM
; FORMAT={-:-/ absolute / inch / decimal}
; #@! TF.CreationDate,2021-05-02T12:57:29+01:00
; #@! TF.GenerationSoftware,Kicad,Pcbnew,(5.1.9-0-10_14)
; #@! TF.FileFunction,Plated,1,2,PTH
FMAT,2
INCH
T1C0.0157
T2C0.0236
T3C0.0300
T4C0.0335
T5C0.0394
T6C0.0472
T7C0.0591
%
G90
G05
T1
X4.3701Y-4.5774
X4.374Y-4.0236
X4.4374Y-4.5967
X4.4736Y-4.9754
X4.4879Y-4.5681
X4.4961Y-4.0285
X4.6353Y-4.4655
X4.6693Y-4.3189
X4.7047Y-4.4447
X4.7451Y-4.0541
X4.7874Y-4.3602
X4.7875Y-4.4172
X4.8484Y-4.4217
X4.8693Y-4.6537
X4.8996Y-4.5754
X4.9094Y-4.3031
X4.9134Y-4.6533
X4.9739Y-4.5261
X4.9764Y-4.6417
X4.9803Y-5.0512
X5.0394Y-4.6274
T2
X4.5508Y-4.2642
X4.5508Y-4.4917
T3
X4.7589Y-4.6073
T4
X4.4579Y-4.8386
X4.5563Y-4.8386
X4.6547Y-4.8386
X4.7531Y-4.8386
X4.8516Y-4.8386
X4.95Y-4.8386
T5
X4.4173Y-4.9472
X4.4173Y-5.0472
T6
X4.4051Y-4.2077
X4.4051Y-4.5482
T7
X4.5697Y-4.2077
X4.5697Y-4.5482
T0
M30
