%TF.GenerationSoftware,KiCad,Pcbnew,(5.1.9-0-10_14)*%
%TF.CreationDate,2021-05-08T06:40:31+01:00*%
%TF.ProjectId,Generic,47656e65-7269-4632-9e6b-696361645f70,3*%
%TF.SameCoordinates,Original*%
%TF.FileFunction,Copper,L2,Bot*%
%TF.FilePolarity,Positive*%
%FSLAX46Y46*%
G04 Gerber Fmt 4.6, Leading zero omitted, Abs format (unit mm)*
G04 Created by KiCad (PCBNEW (5.1.9-0-10_14)) date 2021-05-08 06:40:31*
%MOMM*%
%LPD*%
G01*
G04 APERTURE LIST*
%TA.AperFunction,EtchedComponent*%
%ADD10C,0.250000*%
%TD*%
%TA.AperFunction,EtchedComponent*%
%ADD11C,0.500000*%
%TD*%
%TA.AperFunction,ComponentPad*%
%ADD12O,1.700000X1.850000*%
%TD*%
%TA.AperFunction,SMDPad,CuDef*%
%ADD13R,0.500000X1.000000*%
%TD*%
%TA.AperFunction,SMDPad,CuDef*%
%ADD14C,0.100000*%
%TD*%
%TA.AperFunction,SMDPad,CuDef*%
%ADD15R,1.000000X0.500000*%
%TD*%
%TA.AperFunction,SMDPad,CuDef*%
%ADD16R,0.800000X0.500000*%
%TD*%
%TA.AperFunction,SMDPad,CuDef*%
%ADD17R,3.650000X0.500000*%
%TD*%
%TA.AperFunction,SMDPad,CuDef*%
%ADD18R,0.500000X2.500000*%
%TD*%
%TA.AperFunction,SMDPad,CuDef*%
%ADD19R,3.700000X1.100000*%
%TD*%
%TA.AperFunction,SMDPad,CuDef*%
%ADD20R,1.560000X0.650000*%
%TD*%
%TA.AperFunction,SMDPad,CuDef*%
%ADD21R,1.750000X2.000000*%
%TD*%
%TA.AperFunction,ComponentPad*%
%ADD22C,1.000000*%
%TD*%
%TA.AperFunction,SMDPad,CuDef*%
%ADD23R,0.200000X0.200000*%
%TD*%
%TA.AperFunction,SMDPad,CuDef*%
%ADD24C,0.500000*%
%TD*%
%TA.AperFunction,SMDPad,CuDef*%
%ADD25R,2.000000X1.750000*%
%TD*%
%TA.AperFunction,ComponentPad*%
%ADD26O,1.700000X1.700000*%
%TD*%
%TA.AperFunction,ComponentPad*%
%ADD27R,1.700000X1.700000*%
%TD*%
%TA.AperFunction,SMDPad,CuDef*%
%ADD28R,0.500000X0.200000*%
%TD*%
%TA.AperFunction,SMDPad,CuDef*%
%ADD29R,0.200000X0.500000*%
%TD*%
%TA.AperFunction,SMDPad,CuDef*%
%ADD30R,5.490000X8.340000*%
%TD*%
%TA.AperFunction,SMDPad,CuDef*%
%ADD31R,1.140000X0.600000*%
%TD*%
%TA.AperFunction,ComponentPad*%
%ADD32C,1.700000*%
%TD*%
%TA.AperFunction,ComponentPad*%
%ADD33C,2.000000*%
%TD*%
%TA.AperFunction,SMDPad,CuDef*%
%ADD34R,1.140000X0.300000*%
%TD*%
%TA.AperFunction,ComponentPad*%
%ADD35C,0.600000*%
%TD*%
%TA.AperFunction,ViaPad*%
%ADD36C,0.800000*%
%TD*%
%TA.AperFunction,Conductor*%
%ADD37C,0.250000*%
%TD*%
%TA.AperFunction,Conductor*%
%ADD38C,0.500000*%
%TD*%
%TA.AperFunction,Conductor*%
%ADD39C,0.254000*%
%TD*%
%TA.AperFunction,Conductor*%
%ADD40C,0.100000*%
%TD*%
G04 APERTURE END LIST*
D10*
%TO.C,Reg1*%
X120500000Y-106750000D02*
X121250000Y-106750000D01*
X128250000Y-107000000D02*
X128250000Y-103650000D01*
X126550000Y-108450000D02*
X127750000Y-108450000D01*
X127750000Y-106500000D02*
X127750000Y-104150000D01*
X126550000Y-106500000D02*
X127750000Y-106500000D01*
X121250000Y-104150000D02*
X127750000Y-104150000D01*
X121250000Y-106750000D02*
X121250000Y-104150000D01*
X122250000Y-105250000D02*
X122250000Y-106750000D01*
D11*
X124250000Y-105250000D02*
X122250000Y-105250000D01*
X124250000Y-105100000D02*
X124250000Y-106500000D01*
D10*
X125500000Y-103650000D02*
X128250000Y-103650000D01*
X125500000Y-103650000D02*
X125500000Y-102800000D01*
X127750000Y-107000000D02*
X128250000Y-107000000D01*
X127750000Y-107000000D02*
X127750000Y-108450000D01*
%TD*%
%TO.P,C2,2*%
%TO.N,GND*%
%TA.AperFunction,SMDPad,CuDef*%
G36*
G01*
X125237500Y-111675000D02*
X124762500Y-111675000D01*
G75*
G02*
X124525000Y-111437500I0J237500D01*
G01*
X124525000Y-110837500D01*
G75*
G02*
X124762500Y-110600000I237500J0D01*
G01*
X125237500Y-110600000D01*
G75*
G02*
X125475000Y-110837500I0J-237500D01*
G01*
X125475000Y-111437500D01*
G75*
G02*
X125237500Y-111675000I-237500J0D01*
G01*
G37*
%TD.AperFunction*%
%TO.P,C2,1*%
%TO.N,+3V3*%
%TA.AperFunction,SMDPad,CuDef*%
G36*
G01*
X125237500Y-113400000D02*
X124762500Y-113400000D01*
G75*
G02*
X124525000Y-113162500I0J237500D01*
G01*
X124525000Y-112562500D01*
G75*
G02*
X124762500Y-112325000I237500J0D01*
G01*
X125237500Y-112325000D01*
G75*
G02*
X125475000Y-112562500I0J-237500D01*
G01*
X125475000Y-113162500D01*
G75*
G02*
X125237500Y-113400000I-237500J0D01*
G01*
G37*
%TD.AperFunction*%
%TD*%
D12*
%TO.P,J1,6*%
%TO.N,Net-(J1-Pad6)*%
X125730000Y-122900000D03*
%TO.P,J1,5*%
%TO.N,IO4*%
X123230000Y-122900000D03*
%TO.P,J1,4*%
%TO.N,IO3*%
X120730000Y-122900000D03*
%TO.P,J1,3*%
%TO.N,IO2*%
X118230000Y-122900000D03*
%TO.P,J1,2*%
%TO.N,IO1*%
X115730000Y-122900000D03*
%TO.P,J1,1*%
%TO.N,GND*%
%TA.AperFunction,ComponentPad*%
G36*
G01*
X112380000Y-123575000D02*
X112380000Y-122225000D01*
G75*
G02*
X112630000Y-121975000I250000J0D01*
G01*
X113830000Y-121975000D01*
G75*
G02*
X114080000Y-122225000I0J-250000D01*
G01*
X114080000Y-123575000D01*
G75*
G02*
X113830000Y-123825000I-250000J0D01*
G01*
X112630000Y-123825000D01*
G75*
G02*
X112380000Y-123575000I0J250000D01*
G01*
G37*
%TD.AperFunction*%
%TD*%
%TO.P,R8,2*%
%TO.N,Net-(J2-PadB5)*%
%TA.AperFunction,SMDPad,CuDef*%
G36*
G01*
X113075000Y-104987500D02*
X113075000Y-104512500D01*
G75*
G02*
X113312500Y-104275000I237500J0D01*
G01*
X113812500Y-104275000D01*
G75*
G02*
X114050000Y-104512500I0J-237500D01*
G01*
X114050000Y-104987500D01*
G75*
G02*
X113812500Y-105225000I-237500J0D01*
G01*
X113312500Y-105225000D01*
G75*
G02*
X113075000Y-104987500I0J237500D01*
G01*
G37*
%TD.AperFunction*%
%TO.P,R8,1*%
%TO.N,GND*%
%TA.AperFunction,SMDPad,CuDef*%
G36*
G01*
X111250000Y-104987500D02*
X111250000Y-104512500D01*
G75*
G02*
X111487500Y-104275000I237500J0D01*
G01*
X111987500Y-104275000D01*
G75*
G02*
X112225000Y-104512500I0J-237500D01*
G01*
X112225000Y-104987500D01*
G75*
G02*
X111987500Y-105225000I-237500J0D01*
G01*
X111487500Y-105225000D01*
G75*
G02*
X111250000Y-104987500I0J237500D01*
G01*
G37*
%TD.AperFunction*%
%TD*%
%TO.P,R7,2*%
%TO.N,GND*%
%TA.AperFunction,SMDPad,CuDef*%
G36*
G01*
X112225000Y-102062500D02*
X112225000Y-102537500D01*
G75*
G02*
X111987500Y-102775000I-237500J0D01*
G01*
X111487500Y-102775000D01*
G75*
G02*
X111250000Y-102537500I0J237500D01*
G01*
X111250000Y-102062500D01*
G75*
G02*
X111487500Y-101825000I237500J0D01*
G01*
X111987500Y-101825000D01*
G75*
G02*
X112225000Y-102062500I0J-237500D01*
G01*
G37*
%TD.AperFunction*%
%TO.P,R7,1*%
%TO.N,Net-(J2-PadA5)*%
%TA.AperFunction,SMDPad,CuDef*%
G36*
G01*
X114050000Y-102062500D02*
X114050000Y-102537500D01*
G75*
G02*
X113812500Y-102775000I-237500J0D01*
G01*
X113312500Y-102775000D01*
G75*
G02*
X113075000Y-102537500I0J237500D01*
G01*
X113075000Y-102062500D01*
G75*
G02*
X113312500Y-101825000I237500J0D01*
G01*
X113812500Y-101825000D01*
G75*
G02*
X114050000Y-102062500I0J-237500D01*
G01*
G37*
%TD.AperFunction*%
%TD*%
D13*
%TO.P,Reg1,4*%
%TO.N,+3V3*%
X124550000Y-102700000D03*
%TA.AperFunction,SMDPad,CuDef*%
G36*
G01*
X120684835Y-103461612D02*
X120861612Y-103284835D01*
G75*
G02*
X121038388Y-103284835I88388J-88388D01*
G01*
X121215165Y-103461612D01*
G75*
G02*
X121215165Y-103638388I-88388J-88388D01*
G01*
X121038388Y-103815165D01*
G75*
G02*
X120861612Y-103815165I-88388J88388D01*
G01*
X120684835Y-103638388D01*
G75*
G02*
X120684835Y-103461612I88388J88388D01*
G01*
G37*
%TD.AperFunction*%
%TA.AperFunction,SMDPad,CuDef*%
G36*
G01*
X121225000Y-103750000D02*
X120975000Y-103750000D01*
G75*
G02*
X120850000Y-103625000I0J125000D01*
G01*
X120850000Y-103375000D01*
G75*
G02*
X120975000Y-103250000I125000J0D01*
G01*
X121225000Y-103250000D01*
G75*
G02*
X121350000Y-103375000I0J-125000D01*
G01*
X121350000Y-103625000D01*
G75*
G02*
X121225000Y-103750000I-125000J0D01*
G01*
G37*
%TD.AperFunction*%
%TA.AperFunction,SMDPad,CuDef*%
D14*
G36*
X120169670Y-103976777D02*
G01*
X120876777Y-103269670D01*
X121230330Y-103623223D01*
X120523223Y-104330330D01*
X120169670Y-103976777D01*
G37*
%TD.AperFunction*%
%TO.P,Reg1,2*%
%TO.N,VBUS*%
%TA.AperFunction,SMDPad,CuDef*%
G36*
G01*
X123175000Y-107750000D02*
X122925000Y-107750000D01*
G75*
G02*
X122800000Y-107625000I0J125000D01*
G01*
X122800000Y-107375000D01*
G75*
G02*
X122925000Y-107250000I125000J0D01*
G01*
X123175000Y-107250000D01*
G75*
G02*
X123300000Y-107375000I0J-125000D01*
G01*
X123300000Y-107625000D01*
G75*
G02*
X123175000Y-107750000I-125000J0D01*
G01*
G37*
%TD.AperFunction*%
%TA.AperFunction,SMDPad,CuDef*%
G36*
G01*
X122634835Y-107461612D02*
X122811612Y-107284835D01*
G75*
G02*
X122988388Y-107284835I88388J-88388D01*
G01*
X123165165Y-107461612D01*
G75*
G02*
X123165165Y-107638388I-88388J-88388D01*
G01*
X122988388Y-107815165D01*
G75*
G02*
X122811612Y-107815165I-88388J88388D01*
G01*
X122634835Y-107638388D01*
G75*
G02*
X122634835Y-107461612I88388J88388D01*
G01*
G37*
%TD.AperFunction*%
D15*
X123400000Y-107500000D03*
%TA.AperFunction,SMDPad,CuDef*%
D14*
G36*
X122069670Y-108026777D02*
G01*
X122776777Y-107319670D01*
X123130330Y-107673223D01*
X122423223Y-108380330D01*
X122069670Y-108026777D01*
G37*
%TD.AperFunction*%
D15*
%TO.P,Reg1,3*%
%TO.N,GND*%
X120900000Y-102250000D03*
X121750000Y-102250000D03*
X126000000Y-107500000D03*
D16*
X125400000Y-107500000D03*
D15*
X121250000Y-102250000D03*
%TO.P,Reg1,4*%
%TO.N,+3V3*%
%TA.AperFunction,SMDPad,CuDef*%
G36*
G01*
X124675000Y-103750000D02*
X124425000Y-103750000D01*
G75*
G02*
X124300000Y-103625000I0J125000D01*
G01*
X124300000Y-103375000D01*
G75*
G02*
X124425000Y-103250000I125000J0D01*
G01*
X124675000Y-103250000D01*
G75*
G02*
X124800000Y-103375000I0J-125000D01*
G01*
X124800000Y-103625000D01*
G75*
G02*
X124675000Y-103750000I-125000J0D01*
G01*
G37*
%TD.AperFunction*%
D13*
X124550000Y-103100000D03*
D17*
X122850000Y-103500000D03*
%TO.P,Reg1,~*%
%TO.N,N/C*%
%TA.AperFunction,SMDPad,CuDef*%
G36*
G01*
X123125626Y-105950000D02*
X121874374Y-105950000D01*
G75*
G02*
X121625000Y-105700626I0J249374D01*
G01*
X121625000Y-104774374D01*
G75*
G02*
X121874374Y-104525000I249374J0D01*
G01*
X123125626Y-104525000D01*
G75*
G02*
X123375000Y-104774374I0J-249374D01*
G01*
X123375000Y-105700626D01*
G75*
G02*
X123125626Y-105950000I-249374J0D01*
G01*
G37*
%TD.AperFunction*%
%TO.P,Reg1,3*%
%TO.N,GND*%
%TA.AperFunction,SMDPad,CuDef*%
G36*
G01*
X123125626Y-102975000D02*
X121874374Y-102975000D01*
G75*
G02*
X121625000Y-102725626I0J249374D01*
G01*
X121625000Y-101799374D01*
G75*
G02*
X121874374Y-101550000I249374J0D01*
G01*
X123125626Y-101550000D01*
G75*
G02*
X123375000Y-101799374I0J-249374D01*
G01*
X123375000Y-102725626D01*
G75*
G02*
X123125626Y-102975000I-249374J0D01*
G01*
G37*
%TD.AperFunction*%
D18*
X125250000Y-107500000D03*
D16*
X125650000Y-107500000D03*
D19*
%TO.P,Reg1,4*%
%TO.N,+3V3*%
X125500000Y-102250000D03*
%TO.P,Reg1,~*%
%TO.N,N/C*%
X125500000Y-105250000D03*
%TO.P,Reg1,3*%
%TO.N,GND*%
%TA.AperFunction,SMDPad,CuDef*%
G36*
G01*
X120700450Y-102800000D02*
X119799550Y-102800000D01*
G75*
G02*
X119550000Y-102550450I0J249550D01*
G01*
X119550000Y-101899550D01*
G75*
G02*
X119799550Y-101650000I249550J0D01*
G01*
X120700450Y-101650000D01*
G75*
G02*
X120950000Y-101899550I0J-249550D01*
G01*
X120950000Y-102550450D01*
G75*
G02*
X120700450Y-102800000I-249550J0D01*
G01*
G37*
%TD.AperFunction*%
%TO.P,Reg1,4*%
%TO.N,+3V3*%
%TA.AperFunction,SMDPad,CuDef*%
G36*
G01*
X120700450Y-104850000D02*
X119799550Y-104850000D01*
G75*
G02*
X119550000Y-104600450I0J249550D01*
G01*
X119550000Y-103949550D01*
G75*
G02*
X119799550Y-103700000I249550J0D01*
G01*
X120700450Y-103700000D01*
G75*
G02*
X120950000Y-103949550I0J-249550D01*
G01*
X120950000Y-104600450D01*
G75*
G02*
X120700450Y-104850000I-249550J0D01*
G01*
G37*
%TD.AperFunction*%
%TO.P,Reg1,3*%
%TO.N,GND*%
%TA.AperFunction,SMDPad,CuDef*%
G36*
G01*
X119850000Y-108237500D02*
X119850000Y-107762500D01*
G75*
G02*
X120087500Y-107525000I237500J0D01*
G01*
X120687500Y-107525000D01*
G75*
G02*
X120925000Y-107762500I0J-237500D01*
G01*
X120925000Y-108237500D01*
G75*
G02*
X120687500Y-108475000I-237500J0D01*
G01*
X120087500Y-108475000D01*
G75*
G02*
X119850000Y-108237500I0J237500D01*
G01*
G37*
%TD.AperFunction*%
%TO.P,Reg1,2*%
%TO.N,VBUS*%
%TA.AperFunction,SMDPad,CuDef*%
G36*
G01*
X121575000Y-108237500D02*
X121575000Y-107762500D01*
G75*
G02*
X121812500Y-107525000I237500J0D01*
G01*
X122412500Y-107525000D01*
G75*
G02*
X122650000Y-107762500I0J-237500D01*
G01*
X122650000Y-108237500D01*
G75*
G02*
X122412500Y-108475000I-237500J0D01*
G01*
X121812500Y-108475000D01*
G75*
G02*
X121575000Y-108237500I0J237500D01*
G01*
G37*
%TD.AperFunction*%
%TO.P,Reg1,~*%
%TO.N,N/C*%
%TA.AperFunction,SMDPad,CuDef*%
G36*
G01*
X119850000Y-106987500D02*
X119850000Y-106512500D01*
G75*
G02*
X120087500Y-106275000I237500J0D01*
G01*
X120687500Y-106275000D01*
G75*
G02*
X120925000Y-106512500I0J-237500D01*
G01*
X120925000Y-106987500D01*
G75*
G02*
X120687500Y-107225000I-237500J0D01*
G01*
X120087500Y-107225000D01*
G75*
G02*
X119850000Y-106987500I0J237500D01*
G01*
G37*
%TD.AperFunction*%
%TA.AperFunction,SMDPad,CuDef*%
G36*
G01*
X121575000Y-106987500D02*
X121575000Y-106512500D01*
G75*
G02*
X121812500Y-106275000I237500J0D01*
G01*
X122412500Y-106275000D01*
G75*
G02*
X122650000Y-106512500I0J-237500D01*
G01*
X122650000Y-106987500D01*
G75*
G02*
X122412500Y-107225000I-237500J0D01*
G01*
X121812500Y-107225000D01*
G75*
G02*
X121575000Y-106987500I0J237500D01*
G01*
G37*
%TD.AperFunction*%
D20*
%TO.P,Reg1,1*%
%TO.N,VBUS*%
X123900000Y-108450000D03*
%TO.P,Reg1,2*%
X123900000Y-107500000D03*
%TO.P,Reg1,~*%
%TO.N,N/C*%
X123900000Y-106550000D03*
X126600000Y-106550000D03*
X126600000Y-108450000D03*
%TO.P,Reg1,3*%
%TO.N,GND*%
X126600000Y-107500000D03*
%TD*%
%TA.AperFunction,SMDPad,CuDef*%
D14*
%TO.P,U2,21*%
%TO.N,GND*%
G36*
X120125113Y-116024797D02*
G01*
X121875203Y-117774887D01*
X121624887Y-118025203D01*
X119874797Y-116275113D01*
X120125113Y-116024797D01*
G37*
%TD.AperFunction*%
D21*
X120750000Y-117025000D03*
D22*
X120875000Y-117025000D03*
D23*
%TO.P,U2,~*%
%TO.N,N/C*%
X122875000Y-119025000D03*
X118875000Y-115025000D03*
X118875000Y-119025000D03*
X122875000Y-115025000D03*
D24*
X122875000Y-119025000D03*
D25*
%TO.P,U2,21*%
%TO.N,GND*%
X120875000Y-116900000D03*
%TO.P,U2,20*%
%TO.N,+3V3*%
%TA.AperFunction,SMDPad,CuDef*%
G36*
G01*
X123312500Y-118150000D02*
X122437500Y-118150000D01*
G75*
G02*
X122375000Y-118087500I0J62500D01*
G01*
X122375000Y-117962500D01*
G75*
G02*
X122437500Y-117900000I62500J0D01*
G01*
X123312500Y-117900000D01*
G75*
G02*
X123375000Y-117962500I0J-62500D01*
G01*
X123375000Y-118087500D01*
G75*
G02*
X123312500Y-118150000I-62500J0D01*
G01*
G37*
%TD.AperFunction*%
%TO.P,U2,19*%
%TO.N,EN*%
%TA.AperFunction,SMDPad,CuDef*%
G36*
G01*
X123312500Y-117650000D02*
X122437500Y-117650000D01*
G75*
G02*
X122375000Y-117587500I0J62500D01*
G01*
X122375000Y-117462500D01*
G75*
G02*
X122437500Y-117400000I62500J0D01*
G01*
X123312500Y-117400000D01*
G75*
G02*
X123375000Y-117462500I0J-62500D01*
G01*
X123375000Y-117587500D01*
G75*
G02*
X123312500Y-117650000I-62500J0D01*
G01*
G37*
%TD.AperFunction*%
%TO.P,U2,18*%
%TO.N,GPIO0*%
%TA.AperFunction,SMDPad,CuDef*%
G36*
G01*
X123312500Y-117150000D02*
X122437500Y-117150000D01*
G75*
G02*
X122375000Y-117087500I0J62500D01*
G01*
X122375000Y-116962500D01*
G75*
G02*
X122437500Y-116900000I62500J0D01*
G01*
X123312500Y-116900000D01*
G75*
G02*
X123375000Y-116962500I0J-62500D01*
G01*
X123375000Y-117087500D01*
G75*
G02*
X123312500Y-117150000I-62500J0D01*
G01*
G37*
%TD.AperFunction*%
%TO.P,U2,17*%
%TO.N,I*%
%TA.AperFunction,SMDPad,CuDef*%
G36*
G01*
X123312500Y-116650000D02*
X122437500Y-116650000D01*
G75*
G02*
X122375000Y-116587500I0J62500D01*
G01*
X122375000Y-116462500D01*
G75*
G02*
X122437500Y-116400000I62500J0D01*
G01*
X123312500Y-116400000D01*
G75*
G02*
X123375000Y-116462500I0J-62500D01*
G01*
X123375000Y-116587500D01*
G75*
G02*
X123312500Y-116650000I-62500J0D01*
G01*
G37*
%TD.AperFunction*%
%TO.P,U2,16*%
%TO.N,Net-(U2-Pad16)*%
%TA.AperFunction,SMDPad,CuDef*%
G36*
G01*
X123312500Y-116150000D02*
X122437500Y-116150000D01*
G75*
G02*
X122375000Y-116087500I0J62500D01*
G01*
X122375000Y-115962500D01*
G75*
G02*
X122437500Y-115900000I62500J0D01*
G01*
X123312500Y-115900000D01*
G75*
G02*
X123375000Y-115962500I0J-62500D01*
G01*
X123375000Y-116087500D01*
G75*
G02*
X123312500Y-116150000I-62500J0D01*
G01*
G37*
%TD.AperFunction*%
%TO.P,U2,15*%
%TO.N,Net-(U2-Pad15)*%
%TA.AperFunction,SMDPad,CuDef*%
G36*
G01*
X121937500Y-115525000D02*
X121812500Y-115525000D01*
G75*
G02*
X121750000Y-115462500I0J62500D01*
G01*
X121750000Y-114587500D01*
G75*
G02*
X121812500Y-114525000I62500J0D01*
G01*
X121937500Y-114525000D01*
G75*
G02*
X122000000Y-114587500I0J-62500D01*
G01*
X122000000Y-115462500D01*
G75*
G02*
X121937500Y-115525000I-62500J0D01*
G01*
G37*
%TD.AperFunction*%
%TO.P,U2,14*%
%TO.N,Net-(U2-Pad14)*%
%TA.AperFunction,SMDPad,CuDef*%
G36*
G01*
X121437500Y-115525000D02*
X121312500Y-115525000D01*
G75*
G02*
X121250000Y-115462500I0J62500D01*
G01*
X121250000Y-114587500D01*
G75*
G02*
X121312500Y-114525000I62500J0D01*
G01*
X121437500Y-114525000D01*
G75*
G02*
X121500000Y-114587500I0J-62500D01*
G01*
X121500000Y-115462500D01*
G75*
G02*
X121437500Y-115525000I-62500J0D01*
G01*
G37*
%TD.AperFunction*%
%TO.P,U2,13*%
%TO.N,GND*%
%TA.AperFunction,SMDPad,CuDef*%
G36*
G01*
X120937500Y-115525000D02*
X120812500Y-115525000D01*
G75*
G02*
X120750000Y-115462500I0J62500D01*
G01*
X120750000Y-114587500D01*
G75*
G02*
X120812500Y-114525000I62500J0D01*
G01*
X120937500Y-114525000D01*
G75*
G02*
X121000000Y-114587500I0J-62500D01*
G01*
X121000000Y-115462500D01*
G75*
G02*
X120937500Y-115525000I-62500J0D01*
G01*
G37*
%TD.AperFunction*%
%TO.P,U2,12*%
%TO.N,+3V3*%
%TA.AperFunction,SMDPad,CuDef*%
G36*
G01*
X120437500Y-115525000D02*
X120312500Y-115525000D01*
G75*
G02*
X120250000Y-115462500I0J62500D01*
G01*
X120250000Y-114587500D01*
G75*
G02*
X120312500Y-114525000I62500J0D01*
G01*
X120437500Y-114525000D01*
G75*
G02*
X120500000Y-114587500I0J-62500D01*
G01*
X120500000Y-115462500D01*
G75*
G02*
X120437500Y-115525000I-62500J0D01*
G01*
G37*
%TD.AperFunction*%
%TO.P,U2,11*%
%TA.AperFunction,SMDPad,CuDef*%
G36*
G01*
X119937500Y-115525000D02*
X119812500Y-115525000D01*
G75*
G02*
X119750000Y-115462500I0J62500D01*
G01*
X119750000Y-114587500D01*
G75*
G02*
X119812500Y-114525000I62500J0D01*
G01*
X119937500Y-114525000D01*
G75*
G02*
X120000000Y-114587500I0J-62500D01*
G01*
X120000000Y-115462500D01*
G75*
G02*
X119937500Y-115525000I-62500J0D01*
G01*
G37*
%TD.AperFunction*%
%TO.P,U2,10*%
%TA.AperFunction,SMDPad,CuDef*%
G36*
G01*
X119312500Y-116150000D02*
X118437500Y-116150000D01*
G75*
G02*
X118375000Y-116087500I0J62500D01*
G01*
X118375000Y-115962500D01*
G75*
G02*
X118437500Y-115900000I62500J0D01*
G01*
X119312500Y-115900000D01*
G75*
G02*
X119375000Y-115962500I0J-62500D01*
G01*
X119375000Y-116087500D01*
G75*
G02*
X119312500Y-116150000I-62500J0D01*
G01*
G37*
%TD.AperFunction*%
%TO.P,U2,9*%
%TO.N,D-*%
%TA.AperFunction,SMDPad,CuDef*%
G36*
G01*
X119312500Y-116650000D02*
X118437500Y-116650000D01*
G75*
G02*
X118375000Y-116587500I0J62500D01*
G01*
X118375000Y-116462500D01*
G75*
G02*
X118437500Y-116400000I62500J0D01*
G01*
X119312500Y-116400000D01*
G75*
G02*
X119375000Y-116462500I0J-62500D01*
G01*
X119375000Y-116587500D01*
G75*
G02*
X119312500Y-116650000I-62500J0D01*
G01*
G37*
%TD.AperFunction*%
%TO.P,U2,8*%
%TO.N,D+*%
%TA.AperFunction,SMDPad,CuDef*%
G36*
G01*
X119312500Y-117150000D02*
X118437500Y-117150000D01*
G75*
G02*
X118375000Y-117087500I0J62500D01*
G01*
X118375000Y-116962500D01*
G75*
G02*
X118437500Y-116900000I62500J0D01*
G01*
X119312500Y-116900000D01*
G75*
G02*
X119375000Y-116962500I0J-62500D01*
G01*
X119375000Y-117087500D01*
G75*
G02*
X119312500Y-117150000I-62500J0D01*
G01*
G37*
%TD.AperFunction*%
%TO.P,U2,7*%
%TO.N,Net-(U2-Pad7)*%
%TA.AperFunction,SMDPad,CuDef*%
G36*
G01*
X119312500Y-117650000D02*
X118437500Y-117650000D01*
G75*
G02*
X118375000Y-117587500I0J62500D01*
G01*
X118375000Y-117462500D01*
G75*
G02*
X118437500Y-117400000I62500J0D01*
G01*
X119312500Y-117400000D01*
G75*
G02*
X119375000Y-117462500I0J-62500D01*
G01*
X119375000Y-117587500D01*
G75*
G02*
X119312500Y-117650000I-62500J0D01*
G01*
G37*
%TD.AperFunction*%
%TO.P,U2,6*%
%TO.N,GND*%
%TA.AperFunction,SMDPad,CuDef*%
G36*
G01*
X119312500Y-118150000D02*
X118437500Y-118150000D01*
G75*
G02*
X118375000Y-118087500I0J62500D01*
G01*
X118375000Y-117962500D01*
G75*
G02*
X118437500Y-117900000I62500J0D01*
G01*
X119312500Y-117900000D01*
G75*
G02*
X119375000Y-117962500I0J-62500D01*
G01*
X119375000Y-118087500D01*
G75*
G02*
X119312500Y-118150000I-62500J0D01*
G01*
G37*
%TD.AperFunction*%
%TO.P,U2,5*%
%TA.AperFunction,SMDPad,CuDef*%
G36*
G01*
X119937500Y-119525000D02*
X119812500Y-119525000D01*
G75*
G02*
X119750000Y-119462500I0J62500D01*
G01*
X119750000Y-118587500D01*
G75*
G02*
X119812500Y-118525000I62500J0D01*
G01*
X119937500Y-118525000D01*
G75*
G02*
X120000000Y-118587500I0J-62500D01*
G01*
X120000000Y-119462500D01*
G75*
G02*
X119937500Y-119525000I-62500J0D01*
G01*
G37*
%TD.AperFunction*%
%TO.P,U2,4*%
%TA.AperFunction,SMDPad,CuDef*%
G36*
G01*
X120437500Y-119525000D02*
X120312500Y-119525000D01*
G75*
G02*
X120250000Y-119462500I0J62500D01*
G01*
X120250000Y-118587500D01*
G75*
G02*
X120312500Y-118525000I62500J0D01*
G01*
X120437500Y-118525000D01*
G75*
G02*
X120500000Y-118587500I0J-62500D01*
G01*
X120500000Y-119462500D01*
G75*
G02*
X120437500Y-119525000I-62500J0D01*
G01*
G37*
%TD.AperFunction*%
%TO.P,U2,3*%
%TA.AperFunction,SMDPad,CuDef*%
G36*
G01*
X120937500Y-119525000D02*
X120812500Y-119525000D01*
G75*
G02*
X120750000Y-119462500I0J62500D01*
G01*
X120750000Y-118587500D01*
G75*
G02*
X120812500Y-118525000I62500J0D01*
G01*
X120937500Y-118525000D01*
G75*
G02*
X121000000Y-118587500I0J-62500D01*
G01*
X121000000Y-119462500D01*
G75*
G02*
X120937500Y-119525000I-62500J0D01*
G01*
G37*
%TD.AperFunction*%
%TO.P,U2,2*%
%TA.AperFunction,SMDPad,CuDef*%
G36*
G01*
X121437500Y-119525000D02*
X121312500Y-119525000D01*
G75*
G02*
X121250000Y-119462500I0J62500D01*
G01*
X121250000Y-118587500D01*
G75*
G02*
X121312500Y-118525000I62500J0D01*
G01*
X121437500Y-118525000D01*
G75*
G02*
X121500000Y-118587500I0J-62500D01*
G01*
X121500000Y-119462500D01*
G75*
G02*
X121437500Y-119525000I-62500J0D01*
G01*
G37*
%TD.AperFunction*%
%TO.P,U2,1*%
%TO.N,O*%
%TA.AperFunction,SMDPad,CuDef*%
G36*
G01*
X121937500Y-119525000D02*
X121812500Y-119525000D01*
G75*
G02*
X121750000Y-119462500I0J62500D01*
G01*
X121750000Y-118587500D01*
G75*
G02*
X121812500Y-118525000I62500J0D01*
G01*
X121937500Y-118525000D01*
G75*
G02*
X122000000Y-118587500I0J-62500D01*
G01*
X122000000Y-119462500D01*
G75*
G02*
X121937500Y-119525000I-62500J0D01*
G01*
G37*
%TD.AperFunction*%
%TD*%
%TO.P,C1,2*%
%TO.N,IO1*%
%TA.AperFunction,SMDPad,CuDef*%
G36*
G01*
X113662500Y-120850001D02*
X113662500Y-119549999D01*
G75*
G02*
X113912499Y-119300000I249999J0D01*
G01*
X114737501Y-119300000D01*
G75*
G02*
X114987500Y-119549999I0J-249999D01*
G01*
X114987500Y-120850001D01*
G75*
G02*
X114737501Y-121100000I-249999J0D01*
G01*
X113912499Y-121100000D01*
G75*
G02*
X113662500Y-120850001I0J249999D01*
G01*
G37*
%TD.AperFunction*%
%TO.P,C1,1*%
%TO.N,GND*%
%TA.AperFunction,SMDPad,CuDef*%
G36*
G01*
X110537500Y-120850001D02*
X110537500Y-119549999D01*
G75*
G02*
X110787499Y-119300000I249999J0D01*
G01*
X111612501Y-119300000D01*
G75*
G02*
X111862500Y-119549999I0J-249999D01*
G01*
X111862500Y-120850001D01*
G75*
G02*
X111612501Y-121100000I-249999J0D01*
G01*
X110787499Y-121100000D01*
G75*
G02*
X110537500Y-120850001I0J249999D01*
G01*
G37*
%TD.AperFunction*%
%TD*%
%TO.P,R6,2*%
%TO.N,Net-(J1-Pad6)*%
%TA.AperFunction,SMDPad,CuDef*%
G36*
G01*
X125500000Y-119575000D02*
X125500000Y-120825000D01*
G75*
G02*
X125250000Y-121075000I-250000J0D01*
G01*
X124450000Y-121075000D01*
G75*
G02*
X124200000Y-120825000I0J250000D01*
G01*
X124200000Y-119575000D01*
G75*
G02*
X124450000Y-119325000I250000J0D01*
G01*
X125250000Y-119325000D01*
G75*
G02*
X125500000Y-119575000I0J-250000D01*
G01*
G37*
%TD.AperFunction*%
%TO.P,R6,1*%
%TO.N,IO5*%
%TA.AperFunction,SMDPad,CuDef*%
G36*
G01*
X128600000Y-119575000D02*
X128600000Y-120825000D01*
G75*
G02*
X128350000Y-121075000I-250000J0D01*
G01*
X127550000Y-121075000D01*
G75*
G02*
X127300000Y-120825000I0J250000D01*
G01*
X127300000Y-119575000D01*
G75*
G02*
X127550000Y-119325000I250000J0D01*
G01*
X128350000Y-119325000D01*
G75*
G02*
X128600000Y-119575000I0J-250000D01*
G01*
G37*
%TD.AperFunction*%
%TD*%
D26*
%TO.P,J3,2*%
%TO.N,VBUS*%
X112200000Y-125660000D03*
D27*
%TO.P,J3,1*%
%TO.N,GND*%
X112200000Y-128200000D03*
%TD*%
%TO.P,R5,2*%
%TO.N,Net-(J1-Pad6)*%
%TA.AperFunction,SMDPad,CuDef*%
G36*
G01*
X127125000Y-125850000D02*
X125875000Y-125850000D01*
G75*
G02*
X125625000Y-125600000I0J250000D01*
G01*
X125625000Y-124800000D01*
G75*
G02*
X125875000Y-124550000I250000J0D01*
G01*
X127125000Y-124550000D01*
G75*
G02*
X127375000Y-124800000I0J-250000D01*
G01*
X127375000Y-125600000D01*
G75*
G02*
X127125000Y-125850000I-250000J0D01*
G01*
G37*
%TD.AperFunction*%
%TO.P,R5,1*%
%TO.N,VBUS*%
%TA.AperFunction,SMDPad,CuDef*%
G36*
G01*
X127125000Y-128950000D02*
X125875000Y-128950000D01*
G75*
G02*
X125625000Y-128700000I0J250000D01*
G01*
X125625000Y-127900000D01*
G75*
G02*
X125875000Y-127650000I250000J0D01*
G01*
X127125000Y-127650000D01*
G75*
G02*
X127375000Y-127900000I0J-250000D01*
G01*
X127375000Y-128700000D01*
G75*
G02*
X127125000Y-128950000I-250000J0D01*
G01*
G37*
%TD.AperFunction*%
%TD*%
%TO.P,R4,2*%
%TO.N,IO4*%
%TA.AperFunction,SMDPad,CuDef*%
G36*
G01*
X123855000Y-125850000D02*
X122605000Y-125850000D01*
G75*
G02*
X122355000Y-125600000I0J250000D01*
G01*
X122355000Y-124800000D01*
G75*
G02*
X122605000Y-124550000I250000J0D01*
G01*
X123855000Y-124550000D01*
G75*
G02*
X124105000Y-124800000I0J-250000D01*
G01*
X124105000Y-125600000D01*
G75*
G02*
X123855000Y-125850000I-250000J0D01*
G01*
G37*
%TD.AperFunction*%
%TO.P,R4,1*%
%TO.N,+3V3*%
%TA.AperFunction,SMDPad,CuDef*%
G36*
G01*
X123855000Y-128950000D02*
X122605000Y-128950000D01*
G75*
G02*
X122355000Y-128700000I0J250000D01*
G01*
X122355000Y-127900000D01*
G75*
G02*
X122605000Y-127650000I250000J0D01*
G01*
X123855000Y-127650000D01*
G75*
G02*
X124105000Y-127900000I0J-250000D01*
G01*
X124105000Y-128700000D01*
G75*
G02*
X123855000Y-128950000I-250000J0D01*
G01*
G37*
%TD.AperFunction*%
%TD*%
%TO.P,R3,2*%
%TO.N,IO3*%
%TA.AperFunction,SMDPad,CuDef*%
G36*
G01*
X121355000Y-125850000D02*
X120105000Y-125850000D01*
G75*
G02*
X119855000Y-125600000I0J250000D01*
G01*
X119855000Y-124800000D01*
G75*
G02*
X120105000Y-124550000I250000J0D01*
G01*
X121355000Y-124550000D01*
G75*
G02*
X121605000Y-124800000I0J-250000D01*
G01*
X121605000Y-125600000D01*
G75*
G02*
X121355000Y-125850000I-250000J0D01*
G01*
G37*
%TD.AperFunction*%
%TO.P,R3,1*%
%TO.N,+3V3*%
%TA.AperFunction,SMDPad,CuDef*%
G36*
G01*
X121355000Y-128950000D02*
X120105000Y-128950000D01*
G75*
G02*
X119855000Y-128700000I0J250000D01*
G01*
X119855000Y-127900000D01*
G75*
G02*
X120105000Y-127650000I250000J0D01*
G01*
X121355000Y-127650000D01*
G75*
G02*
X121605000Y-127900000I0J-250000D01*
G01*
X121605000Y-128700000D01*
G75*
G02*
X121355000Y-128950000I-250000J0D01*
G01*
G37*
%TD.AperFunction*%
%TD*%
%TO.P,R2,2*%
%TO.N,IO2*%
%TA.AperFunction,SMDPad,CuDef*%
G36*
G01*
X118855000Y-125850000D02*
X117605000Y-125850000D01*
G75*
G02*
X117355000Y-125600000I0J250000D01*
G01*
X117355000Y-124800000D01*
G75*
G02*
X117605000Y-124550000I250000J0D01*
G01*
X118855000Y-124550000D01*
G75*
G02*
X119105000Y-124800000I0J-250000D01*
G01*
X119105000Y-125600000D01*
G75*
G02*
X118855000Y-125850000I-250000J0D01*
G01*
G37*
%TD.AperFunction*%
%TO.P,R2,1*%
%TO.N,+3V3*%
%TA.AperFunction,SMDPad,CuDef*%
G36*
G01*
X118855000Y-128950000D02*
X117605000Y-128950000D01*
G75*
G02*
X117355000Y-128700000I0J250000D01*
G01*
X117355000Y-127900000D01*
G75*
G02*
X117605000Y-127650000I250000J0D01*
G01*
X118855000Y-127650000D01*
G75*
G02*
X119105000Y-127900000I0J-250000D01*
G01*
X119105000Y-128700000D01*
G75*
G02*
X118855000Y-128950000I-250000J0D01*
G01*
G37*
%TD.AperFunction*%
%TD*%
%TO.P,R1,2*%
%TO.N,IO1*%
%TA.AperFunction,SMDPad,CuDef*%
G36*
G01*
X116355000Y-125850000D02*
X115105000Y-125850000D01*
G75*
G02*
X114855000Y-125600000I0J250000D01*
G01*
X114855000Y-124800000D01*
G75*
G02*
X115105000Y-124550000I250000J0D01*
G01*
X116355000Y-124550000D01*
G75*
G02*
X116605000Y-124800000I0J-250000D01*
G01*
X116605000Y-125600000D01*
G75*
G02*
X116355000Y-125850000I-250000J0D01*
G01*
G37*
%TD.AperFunction*%
%TO.P,R1,1*%
%TO.N,+3V3*%
%TA.AperFunction,SMDPad,CuDef*%
G36*
G01*
X116355000Y-128950000D02*
X115105000Y-128950000D01*
G75*
G02*
X114855000Y-128700000I0J250000D01*
G01*
X114855000Y-127900000D01*
G75*
G02*
X115105000Y-127650000I250000J0D01*
G01*
X116355000Y-127650000D01*
G75*
G02*
X116605000Y-127900000I0J-250000D01*
G01*
X116605000Y-128700000D01*
G75*
G02*
X116355000Y-128950000I-250000J0D01*
G01*
G37*
%TD.AperFunction*%
%TD*%
D28*
%TO.P,J2,S1*%
%TO.N,GND*%
X115220000Y-107180000D03*
X115230000Y-115230000D03*
X115240000Y-108310000D03*
X115370000Y-108310000D03*
X115240000Y-114100000D03*
X115390000Y-114100000D03*
D29*
X111880000Y-114810000D03*
%TA.AperFunction,SMDPad,CuDef*%
D14*
G36*
X116133934Y-107522513D02*
G01*
X116487487Y-107876066D01*
X116346066Y-108017487D01*
X115992513Y-107663934D01*
X116133934Y-107522513D01*
G37*
%TD.AperFunction*%
%TA.AperFunction,SMDPad,CuDef*%
G36*
X115932513Y-114756066D02*
G01*
X116286066Y-114402513D01*
X116427487Y-114543934D01*
X116073934Y-114897487D01*
X115932513Y-114756066D01*
G37*
%TD.AperFunction*%
D29*
X111880000Y-107580000D03*
D30*
X112545000Y-111200000D03*
D31*
%TO.P,J2,A12*%
X116660000Y-108000000D03*
%TO.P,J2,A4*%
%TO.N,VBUS*%
X116660000Y-113600000D03*
%TO.P,J2,B12*%
%TO.N,GND*%
X116660000Y-114400000D03*
%TO.P,J2,B4*%
%TO.N,VBUS*%
X116660000Y-108800000D03*
D32*
%TO.P,J2,S1*%
%TO.N,GND*%
X111890000Y-106875000D03*
X111890000Y-115525000D03*
D33*
X116070000Y-106875000D03*
X116070000Y-115525000D03*
D34*
%TO.P,J2,A7*%
%TO.N,D-*%
X116660000Y-110950000D03*
%TO.P,J2,A6*%
%TO.N,D+*%
X116660000Y-111450000D03*
%TO.P,J2,B6*%
X116660000Y-110450000D03*
%TO.P,J2,B7*%
%TO.N,D-*%
X116660000Y-111950000D03*
%TO.P,J2,A8*%
%TO.N,Net-(J2-PadA8)*%
X116660000Y-109950000D03*
%TO.P,J2,A5*%
%TO.N,Net-(J2-PadA5)*%
X116660000Y-112450000D03*
%TO.P,J2,B5*%
%TO.N,Net-(J2-PadB5)*%
X116660000Y-109450000D03*
%TO.P,J2,B8*%
%TO.N,Net-(J2-PadB8)*%
X116660000Y-112950000D03*
D31*
%TO.P,J2,A9*%
%TO.N,VBUS*%
X116660000Y-108800000D03*
%TO.P,J2,B9*%
X116660000Y-113600000D03*
%TO.P,J2,B1*%
%TO.N,GND*%
X116660000Y-108000000D03*
D35*
%TO.P,J2,S1*%
X115590000Y-108310000D03*
X115590000Y-114090000D03*
D31*
%TO.P,J2,A1*%
X116660000Y-114400000D03*
%TD*%
D36*
%TO.N,GND*%
X118600000Y-109700000D03*
X111000000Y-102300000D03*
X111000000Y-116265000D03*
%TO.N,D-*%
X121600000Y-110747992D03*
X123149901Y-112311591D03*
X121601757Y-112198006D03*
%TO.N,+3V3*%
X113629916Y-126374388D03*
X123681288Y-118204641D03*
X124450020Y-116214630D03*
X118750000Y-103750000D03*
%TO.N,VBUS*%
X126500000Y-128300000D03*
X117735755Y-113422822D03*
X124399990Y-109451066D03*
%TO.N,IO5*%
X128000000Y-117535000D03*
%TO.N,O*%
X124800000Y-118192649D03*
%TO.N,I*%
X126338255Y-114962407D03*
%TO.N,EN*%
X112710202Y-116755063D03*
%TO.N,Net-(J2-PadA5)*%
X119500000Y-112895002D03*
X114175452Y-102325887D03*
%TO.N,GPIO0*%
X126400000Y-117900000D03*
%TO.N,Net-(U1-Pad13)*%
X113993381Y-116030053D03*
%TD*%
D37*
%TO.N,D+*%
X118650000Y-111450000D02*
X116660000Y-111450000D01*
X116660000Y-110450000D02*
X120799599Y-110450000D01*
X122325001Y-110361458D02*
X122325001Y-111248001D01*
X121963543Y-110000000D02*
X122325001Y-110361458D01*
X121249599Y-110000000D02*
X121963543Y-110000000D01*
X122325001Y-111248001D02*
X122100000Y-111473002D01*
X120799599Y-110450000D02*
X121249599Y-110000000D01*
X118673002Y-111473002D02*
X118650000Y-111450000D01*
X120873002Y-111473002D02*
X118673002Y-111473002D01*
X122100000Y-111473002D02*
X120873002Y-111473002D01*
X118165567Y-117025000D02*
X118850000Y-117025000D01*
X117574979Y-114688610D02*
X117574979Y-116434412D01*
X121934312Y-111473002D02*
X122424900Y-111963590D01*
X122424900Y-111963590D02*
X122424900Y-112400182D01*
X120873002Y-111473002D02*
X121934312Y-111473002D01*
X122424900Y-112400182D02*
X121700080Y-113125002D01*
X121700080Y-113125002D02*
X120429155Y-113125002D01*
X120429155Y-113125002D02*
X119934144Y-113620013D01*
X119934144Y-113620013D02*
X118643576Y-113620013D01*
X117574979Y-116434412D02*
X118165567Y-117025000D01*
X118643576Y-113620013D02*
X117574979Y-114688610D01*
%TO.N,GND*%
X116070000Y-115525000D02*
X112545000Y-112000000D01*
X116070000Y-106875000D02*
X112545000Y-110400000D01*
X111890000Y-115525000D02*
X111890000Y-111855000D01*
X120875000Y-115000000D02*
X120875000Y-117025000D01*
X121375000Y-117525000D02*
X120875000Y-117025000D01*
X121375000Y-119050000D02*
X121375000Y-117525000D01*
X120875000Y-119050000D02*
X120875000Y-117025000D01*
X120375000Y-117525000D02*
X120875000Y-117025000D01*
X120375000Y-119050000D02*
X120375000Y-117525000D01*
X119875000Y-119050000D02*
X119875000Y-118025000D01*
X119875000Y-118025000D02*
X120875000Y-117025000D01*
X118850000Y-118025000D02*
X119875000Y-118025000D01*
X116623861Y-116078861D02*
X116070000Y-115525000D01*
X116623861Y-116857723D02*
X116623861Y-116078861D01*
X117791138Y-118025000D02*
X116623861Y-116857723D01*
X118850000Y-118025000D02*
X117791138Y-118025000D01*
D38*
X118600000Y-109700000D02*
X118600000Y-104900000D01*
D37*
X111737500Y-106722500D02*
X111890000Y-106875000D01*
X111737500Y-104750000D02*
X111737500Y-106722500D01*
D38*
X120250000Y-102225000D02*
X119025000Y-102225000D01*
X125250000Y-110887500D02*
X125000000Y-111137500D01*
X125250000Y-107500000D02*
X125250000Y-110887500D01*
D37*
X120387500Y-108000000D02*
X120387500Y-108637500D01*
X124373863Y-111137500D02*
X125000000Y-111137500D01*
X122317947Y-109081585D02*
X124373863Y-111137500D01*
X120831584Y-109081584D02*
X122317947Y-109081585D01*
X120387500Y-108637500D02*
X120831584Y-109081584D01*
D38*
X120387500Y-108000000D02*
X120387500Y-109112500D01*
D37*
%TO.N,D-*%
X116660000Y-110950000D02*
X121397992Y-110950000D01*
X121397992Y-110950000D02*
X121600000Y-110747992D01*
X116660000Y-111950000D02*
X121353751Y-111950000D01*
X121886479Y-113575013D02*
X123149901Y-112311591D01*
X118850000Y-116525000D02*
X118301978Y-116525000D01*
X120120544Y-114070024D02*
X120615555Y-113575013D01*
X121353751Y-111950000D02*
X121601757Y-112198006D01*
X118024990Y-116248012D02*
X118024990Y-114875010D01*
X118301978Y-116525000D02*
X118024990Y-116248012D01*
X118024990Y-114875010D02*
X118829976Y-114070024D01*
X118829976Y-114070024D02*
X120120544Y-114070024D01*
X120615555Y-113575013D02*
X121886479Y-113575013D01*
%TO.N,+3V3*%
X115730000Y-128300000D02*
X118230000Y-128300000D01*
X118230000Y-128300000D02*
X120730000Y-128300000D01*
X120730000Y-128300000D02*
X123230000Y-128300000D01*
X115730000Y-128300000D02*
X115555528Y-128300000D01*
X115555528Y-128300000D02*
X113629916Y-126374388D01*
X119875000Y-115000000D02*
X118850000Y-116025000D01*
X119875000Y-115000000D02*
X120000000Y-115000000D01*
X120000000Y-115000000D02*
X120375000Y-115000000D01*
X120651988Y-114174990D02*
X120375000Y-114451978D01*
X120375000Y-114451978D02*
X120375000Y-115000000D01*
X122174990Y-114174990D02*
X120651988Y-114174990D01*
X122900000Y-118025000D02*
X123501647Y-118025000D01*
X123501647Y-118025000D02*
X123681288Y-118204641D01*
X122174990Y-114174990D02*
X122422718Y-114174990D01*
X124977233Y-115687417D02*
X124450020Y-116214630D01*
X127101821Y-115273012D02*
X126687417Y-115687417D01*
X127101821Y-114652971D02*
X127101821Y-115273012D01*
X126687417Y-115687417D02*
X124977233Y-115687417D01*
X125200000Y-114700000D02*
X125725010Y-114174990D01*
X122422718Y-114174990D02*
X123274990Y-114174990D01*
X123800000Y-114700000D02*
X125200000Y-114700000D01*
X125725010Y-114174990D02*
X126623840Y-114174990D01*
X126623840Y-114174990D02*
X127101821Y-114652971D01*
X123274990Y-114174990D02*
X123800000Y-114700000D01*
X122422718Y-114174990D02*
X123899977Y-112697731D01*
X124835231Y-112697731D02*
X125000000Y-112862500D01*
X123899977Y-112697731D02*
X124835231Y-112697731D01*
X119275000Y-104275000D02*
X118750000Y-103750000D01*
X120250000Y-104275000D02*
X119275000Y-104275000D01*
X123899977Y-111300024D02*
X123899977Y-112697731D01*
X121031594Y-109531594D02*
X122131546Y-109531594D01*
X120563188Y-110000000D02*
X121031594Y-109531594D01*
X122131546Y-109531594D02*
X123899977Y-111300024D01*
X120000000Y-110000000D02*
X120563188Y-110000000D01*
X119175010Y-109175010D02*
X120000000Y-110000000D01*
X119975000Y-104275000D02*
X119175010Y-105074990D01*
X119175010Y-105074990D02*
X119175010Y-109175010D01*
X120250000Y-104275000D02*
X119975000Y-104275000D01*
%TO.N,VBUS*%
X116004998Y-113600000D02*
X116660000Y-113600000D01*
X115764999Y-113360001D02*
X116004998Y-113600000D01*
X115764999Y-109039999D02*
X115764999Y-113360001D01*
X116004998Y-108800000D02*
X115764999Y-109039999D01*
X116660000Y-108800000D02*
X116004998Y-108800000D01*
X116660000Y-113600000D02*
X117550000Y-113600000D01*
X117558577Y-113600000D02*
X117735755Y-113422822D01*
X116660000Y-113600000D02*
X117558577Y-113600000D01*
X123900000Y-108450000D02*
X123900000Y-107500000D01*
X123900000Y-108951076D02*
X124399990Y-109451066D01*
X123900000Y-108450000D02*
X123900000Y-108951076D01*
%TO.N,IO5*%
X128000000Y-120150000D02*
X127950000Y-120200000D01*
X128000000Y-117535000D02*
X128000000Y-120150000D01*
%TO.N,IO4*%
X123500000Y-123170000D02*
X123230000Y-122900000D01*
X123230000Y-125200000D02*
X123230000Y-122900000D01*
%TO.N,IO3*%
X120730000Y-125200000D02*
X120730000Y-122900000D01*
%TO.N,IO2*%
X118500000Y-123170000D02*
X118230000Y-122900000D01*
X118230000Y-125200000D02*
X118230000Y-122900000D01*
%TO.N,IO1*%
X116000000Y-123170000D02*
X115730000Y-122900000D01*
X115730000Y-125200000D02*
X115730000Y-122900000D01*
X114325000Y-121495000D02*
X115730000Y-122900000D01*
X114325000Y-120200000D02*
X114325000Y-121495000D01*
%TO.N,O*%
X123167649Y-119825000D02*
X124800000Y-118192649D01*
X121875000Y-119050000D02*
X121875000Y-119575000D01*
X121875000Y-119575000D02*
X122125000Y-119825000D01*
X122125000Y-119825000D02*
X123167649Y-119825000D01*
%TO.N,I*%
X123725010Y-116374989D02*
X123574999Y-116525000D01*
X124376987Y-115150011D02*
X123725010Y-115801988D01*
X126338255Y-114962407D02*
X126150651Y-115150011D01*
X126150651Y-115150011D02*
X124376987Y-115150011D01*
X123725010Y-115801988D02*
X123725010Y-116374989D01*
X123574999Y-116525000D02*
X122900000Y-116525000D01*
%TO.N,EN*%
X122900000Y-117525000D02*
X123400000Y-117525000D01*
X123400000Y-117525000D02*
X123457361Y-117467639D01*
X125340643Y-117467639D02*
X125625002Y-117751998D01*
X123457361Y-117467639D02*
X125340643Y-117467639D01*
X125918205Y-121381795D02*
X125948510Y-121381795D01*
X125918205Y-118481795D02*
X125918205Y-121381795D01*
X125625002Y-117751998D02*
X125625002Y-118188591D01*
X124554990Y-123754990D02*
X124554990Y-122361400D01*
X125948510Y-121381795D02*
X126916705Y-122349990D01*
X125625002Y-118188591D02*
X125918205Y-118481795D01*
X126916705Y-122349990D02*
X126950010Y-122349990D01*
X126950010Y-122349990D02*
X126950010Y-123811820D01*
X126950010Y-123811820D02*
X127700010Y-124561820D01*
X127700010Y-124561820D02*
X127700010Y-125838180D01*
X117600000Y-120200000D02*
X114155063Y-116755063D01*
X125299990Y-124499990D02*
X124554990Y-123754990D01*
X124554990Y-122361400D02*
X122468601Y-120275011D01*
X127363180Y-126175010D02*
X125636820Y-126175010D01*
X125636820Y-126175010D02*
X125299990Y-125838180D01*
X127700010Y-125838180D02*
X127363180Y-126175010D01*
X125299990Y-125838180D02*
X125299990Y-124499990D01*
X121863589Y-120200000D02*
X117600000Y-120200000D01*
X122468601Y-120275011D02*
X121938600Y-120275011D01*
X114155063Y-116755063D02*
X112710202Y-116755063D01*
X121938600Y-120275011D02*
X121863589Y-120200000D01*
%TO.N,Net-(J2-PadA5)*%
X119054998Y-112450000D02*
X119500000Y-112895002D01*
X116660000Y-112450000D02*
X119054998Y-112450000D01*
X114149565Y-102300000D02*
X114175452Y-102325887D01*
X113562500Y-102300000D02*
X114149565Y-102300000D01*
%TO.N,Net-(J2-PadB5)*%
X117480000Y-109450000D02*
X116660000Y-109450000D01*
X117924990Y-106773414D02*
X117924990Y-109005010D01*
X117924990Y-109005010D02*
X117480000Y-109450000D01*
X115901576Y-104750000D02*
X117924990Y-106773414D01*
X113562500Y-104750000D02*
X115901576Y-104750000D01*
%TO.N,Net-(J1-Pad6)*%
X126000000Y-123170000D02*
X125730000Y-122900000D01*
X126500000Y-125200000D02*
X126500000Y-123670000D01*
X126500000Y-123670000D02*
X125730000Y-122900000D01*
X124850000Y-122020000D02*
X125730000Y-122900000D01*
X124850000Y-120200000D02*
X124850000Y-122020000D01*
%TO.N,GPIO0*%
X126400000Y-117334315D02*
X126400000Y-117900000D01*
X122900000Y-117025000D02*
X122907372Y-117017628D01*
X126083313Y-117017628D02*
X126400000Y-117334315D01*
X122907372Y-117017628D02*
X126083313Y-117017628D01*
%TD*%
D39*
%TO.N,GND*%
X128573001Y-117009156D02*
X128495309Y-116931464D01*
X128368048Y-116846431D01*
X128226643Y-116787859D01*
X128076528Y-116758000D01*
X127923472Y-116758000D01*
X127773357Y-116787859D01*
X127631952Y-116846431D01*
X127504691Y-116931464D01*
X127396464Y-117039691D01*
X127311431Y-117166952D01*
X127252859Y-117308357D01*
X127223000Y-117458472D01*
X127223000Y-117611528D01*
X127252859Y-117761643D01*
X127311431Y-117903048D01*
X127396464Y-118030309D01*
X127498000Y-118131845D01*
X127498001Y-118951298D01*
X127427323Y-118958259D01*
X127309359Y-118994042D01*
X127200644Y-119052152D01*
X127105354Y-119130354D01*
X127027152Y-119225644D01*
X126969042Y-119334359D01*
X126933259Y-119452323D01*
X126921176Y-119575000D01*
X126921176Y-120825000D01*
X126933259Y-120947677D01*
X126969042Y-121065641D01*
X127027152Y-121174356D01*
X127105354Y-121269646D01*
X127200644Y-121347848D01*
X127309359Y-121405958D01*
X127427323Y-121441741D01*
X127550000Y-121453824D01*
X128350000Y-121453824D01*
X128472677Y-121441741D01*
X128573001Y-121411309D01*
X128573001Y-128979107D01*
X128560078Y-129110899D01*
X128527873Y-129217570D01*
X128475558Y-129315961D01*
X128405130Y-129402313D01*
X128319270Y-129473343D01*
X128221255Y-129526339D01*
X128114807Y-129559290D01*
X127984371Y-129573000D01*
X113413678Y-129573000D01*
X113501185Y-129501185D01*
X113580537Y-129404494D01*
X113639502Y-129294180D01*
X113675812Y-129174482D01*
X113688072Y-129050000D01*
X113685000Y-128485750D01*
X113526250Y-128327000D01*
X112327000Y-128327000D01*
X112327000Y-128347000D01*
X112073000Y-128347000D01*
X112073000Y-128327000D01*
X110873750Y-128327000D01*
X110715000Y-128485750D01*
X110711928Y-129050000D01*
X110724188Y-129174482D01*
X110760498Y-129294180D01*
X110819463Y-129404494D01*
X110898815Y-129501185D01*
X110981633Y-129569151D01*
X110889101Y-129560078D01*
X110782430Y-129527873D01*
X110684039Y-129475558D01*
X110597687Y-129405130D01*
X110526657Y-129319270D01*
X110473661Y-129221255D01*
X110440710Y-129114807D01*
X110427000Y-128984371D01*
X110427000Y-127350000D01*
X110711928Y-127350000D01*
X110715000Y-127914250D01*
X110873750Y-128073000D01*
X112073000Y-128073000D01*
X112073000Y-128053000D01*
X112327000Y-128053000D01*
X112327000Y-128073000D01*
X113526250Y-128073000D01*
X113685000Y-127914250D01*
X113688072Y-127350000D01*
X113675812Y-127225518D01*
X113653325Y-127151388D01*
X113696982Y-127151388D01*
X114476176Y-127930583D01*
X114476176Y-128700000D01*
X114488259Y-128822677D01*
X114524042Y-128940641D01*
X114582152Y-129049356D01*
X114660354Y-129144646D01*
X114755644Y-129222848D01*
X114864359Y-129280958D01*
X114982323Y-129316741D01*
X115105000Y-129328824D01*
X116355000Y-129328824D01*
X116477677Y-129316741D01*
X116595641Y-129280958D01*
X116704356Y-129222848D01*
X116799646Y-129144646D01*
X116877848Y-129049356D01*
X116935958Y-128940641D01*
X116971741Y-128822677D01*
X116973778Y-128802000D01*
X116986222Y-128802000D01*
X116988259Y-128822677D01*
X117024042Y-128940641D01*
X117082152Y-129049356D01*
X117160354Y-129144646D01*
X117255644Y-129222848D01*
X117364359Y-129280958D01*
X117482323Y-129316741D01*
X117605000Y-129328824D01*
X118855000Y-129328824D01*
X118977677Y-129316741D01*
X119095641Y-129280958D01*
X119204356Y-129222848D01*
X119299646Y-129144646D01*
X119377848Y-129049356D01*
X119435958Y-128940641D01*
X119471741Y-128822677D01*
X119473778Y-128802000D01*
X119486222Y-128802000D01*
X119488259Y-128822677D01*
X119524042Y-128940641D01*
X119582152Y-129049356D01*
X119660354Y-129144646D01*
X119755644Y-129222848D01*
X119864359Y-129280958D01*
X119982323Y-129316741D01*
X120105000Y-129328824D01*
X121355000Y-129328824D01*
X121477677Y-129316741D01*
X121595641Y-129280958D01*
X121704356Y-129222848D01*
X121799646Y-129144646D01*
X121877848Y-129049356D01*
X121935958Y-128940641D01*
X121971741Y-128822677D01*
X121973778Y-128802000D01*
X121986222Y-128802000D01*
X121988259Y-128822677D01*
X122024042Y-128940641D01*
X122082152Y-129049356D01*
X122160354Y-129144646D01*
X122255644Y-129222848D01*
X122364359Y-129280958D01*
X122482323Y-129316741D01*
X122605000Y-129328824D01*
X123855000Y-129328824D01*
X123977677Y-129316741D01*
X124095641Y-129280958D01*
X124204356Y-129222848D01*
X124299646Y-129144646D01*
X124377848Y-129049356D01*
X124435958Y-128940641D01*
X124471741Y-128822677D01*
X124483824Y-128700000D01*
X124483824Y-127900000D01*
X125246176Y-127900000D01*
X125246176Y-128700000D01*
X125258259Y-128822677D01*
X125294042Y-128940641D01*
X125352152Y-129049356D01*
X125430354Y-129144646D01*
X125525644Y-129222848D01*
X125634359Y-129280958D01*
X125752323Y-129316741D01*
X125875000Y-129328824D01*
X127125000Y-129328824D01*
X127247677Y-129316741D01*
X127365641Y-129280958D01*
X127474356Y-129222848D01*
X127569646Y-129144646D01*
X127647848Y-129049356D01*
X127705958Y-128940641D01*
X127741741Y-128822677D01*
X127753824Y-128700000D01*
X127753824Y-127900000D01*
X127741741Y-127777323D01*
X127705958Y-127659359D01*
X127647848Y-127550644D01*
X127569646Y-127455354D01*
X127474356Y-127377152D01*
X127365641Y-127319042D01*
X127247677Y-127283259D01*
X127125000Y-127271176D01*
X125875000Y-127271176D01*
X125752323Y-127283259D01*
X125634359Y-127319042D01*
X125525644Y-127377152D01*
X125430354Y-127455354D01*
X125352152Y-127550644D01*
X125294042Y-127659359D01*
X125258259Y-127777323D01*
X125246176Y-127900000D01*
X124483824Y-127900000D01*
X124471741Y-127777323D01*
X124435958Y-127659359D01*
X124377848Y-127550644D01*
X124299646Y-127455354D01*
X124204356Y-127377152D01*
X124095641Y-127319042D01*
X123977677Y-127283259D01*
X123855000Y-127271176D01*
X122605000Y-127271176D01*
X122482323Y-127283259D01*
X122364359Y-127319042D01*
X122255644Y-127377152D01*
X122160354Y-127455354D01*
X122082152Y-127550644D01*
X122024042Y-127659359D01*
X121988259Y-127777323D01*
X121986222Y-127798000D01*
X121973778Y-127798000D01*
X121971741Y-127777323D01*
X121935958Y-127659359D01*
X121877848Y-127550644D01*
X121799646Y-127455354D01*
X121704356Y-127377152D01*
X121595641Y-127319042D01*
X121477677Y-127283259D01*
X121355000Y-127271176D01*
X120105000Y-127271176D01*
X119982323Y-127283259D01*
X119864359Y-127319042D01*
X119755644Y-127377152D01*
X119660354Y-127455354D01*
X119582152Y-127550644D01*
X119524042Y-127659359D01*
X119488259Y-127777323D01*
X119486222Y-127798000D01*
X119473778Y-127798000D01*
X119471741Y-127777323D01*
X119435958Y-127659359D01*
X119377848Y-127550644D01*
X119299646Y-127455354D01*
X119204356Y-127377152D01*
X119095641Y-127319042D01*
X118977677Y-127283259D01*
X118855000Y-127271176D01*
X117605000Y-127271176D01*
X117482323Y-127283259D01*
X117364359Y-127319042D01*
X117255644Y-127377152D01*
X117160354Y-127455354D01*
X117082152Y-127550644D01*
X117024042Y-127659359D01*
X116988259Y-127777323D01*
X116986222Y-127798000D01*
X116973778Y-127798000D01*
X116971741Y-127777323D01*
X116935958Y-127659359D01*
X116877848Y-127550644D01*
X116799646Y-127455354D01*
X116704356Y-127377152D01*
X116595641Y-127319042D01*
X116477677Y-127283259D01*
X116355000Y-127271176D01*
X115236639Y-127271176D01*
X114406916Y-126441454D01*
X114406916Y-126297860D01*
X114377057Y-126147745D01*
X114318485Y-126006340D01*
X114233452Y-125879079D01*
X114125225Y-125770852D01*
X113997964Y-125685819D01*
X113856559Y-125627247D01*
X113706444Y-125597388D01*
X113553388Y-125597388D01*
X113427000Y-125622528D01*
X113427000Y-125539151D01*
X113379847Y-125302097D01*
X113287353Y-125078798D01*
X113153073Y-124877833D01*
X112982167Y-124706927D01*
X112781202Y-124572647D01*
X112557903Y-124480153D01*
X112469579Y-124462584D01*
X112944250Y-124460000D01*
X113103000Y-124301250D01*
X113103000Y-123027000D01*
X111903750Y-123027000D01*
X111745000Y-123185750D01*
X111741928Y-123825000D01*
X111754188Y-123949482D01*
X111790498Y-124069180D01*
X111849463Y-124179494D01*
X111928815Y-124276185D01*
X112025506Y-124355537D01*
X112135820Y-124414502D01*
X112196800Y-124433000D01*
X112079151Y-124433000D01*
X111842097Y-124480153D01*
X111618798Y-124572647D01*
X111417833Y-124706927D01*
X111246927Y-124877833D01*
X111112647Y-125078798D01*
X111020153Y-125302097D01*
X110973000Y-125539151D01*
X110973000Y-125780849D01*
X111020153Y-126017903D01*
X111112647Y-126241202D01*
X111246927Y-126442167D01*
X111417833Y-126613073D01*
X111567553Y-126713112D01*
X111350000Y-126711928D01*
X111225518Y-126724188D01*
X111105820Y-126760498D01*
X110995506Y-126819463D01*
X110898815Y-126898815D01*
X110819463Y-126995506D01*
X110760498Y-127105820D01*
X110724188Y-127225518D01*
X110711928Y-127350000D01*
X110427000Y-127350000D01*
X110427000Y-121727189D01*
X110537500Y-121738072D01*
X110914250Y-121735000D01*
X111073000Y-121576250D01*
X111073000Y-120327000D01*
X111327000Y-120327000D01*
X111327000Y-121576250D01*
X111485750Y-121735000D01*
X111788481Y-121737468D01*
X111754188Y-121850518D01*
X111741928Y-121975000D01*
X111745000Y-122614250D01*
X111903750Y-122773000D01*
X113103000Y-122773000D01*
X113103000Y-121498750D01*
X112944250Y-121340000D01*
X112454080Y-121337331D01*
X112488312Y-121224482D01*
X112500572Y-121100000D01*
X112497500Y-120485750D01*
X112338750Y-120327000D01*
X111327000Y-120327000D01*
X111073000Y-120327000D01*
X111053000Y-120327000D01*
X111053000Y-120073000D01*
X111073000Y-120073000D01*
X111073000Y-118823750D01*
X111327000Y-118823750D01*
X111327000Y-120073000D01*
X112338750Y-120073000D01*
X112497500Y-119914250D01*
X112500572Y-119300000D01*
X112488312Y-119175518D01*
X112452002Y-119055820D01*
X112393037Y-118945506D01*
X112313685Y-118848815D01*
X112216994Y-118769463D01*
X112106680Y-118710498D01*
X111986982Y-118674188D01*
X111862500Y-118661928D01*
X111485750Y-118665000D01*
X111327000Y-118823750D01*
X111073000Y-118823750D01*
X110914250Y-118665000D01*
X110537500Y-118661928D01*
X110427000Y-118672811D01*
X110427000Y-116007289D01*
X110485399Y-116007216D01*
X110539081Y-116158747D01*
X110612528Y-116296157D01*
X110861603Y-116373792D01*
X111229108Y-116006287D01*
X111588767Y-116005838D01*
X111041208Y-116553397D01*
X111118843Y-116802472D01*
X111382883Y-116928371D01*
X111666411Y-117000339D01*
X111958531Y-117015611D01*
X111976052Y-117013068D01*
X112021633Y-117123111D01*
X112106666Y-117250372D01*
X112214893Y-117358599D01*
X112342154Y-117443632D01*
X112483559Y-117502204D01*
X112633674Y-117532063D01*
X112786730Y-117532063D01*
X112936845Y-117502204D01*
X113078250Y-117443632D01*
X113205511Y-117358599D01*
X113307047Y-117257063D01*
X113947129Y-117257063D01*
X117227607Y-120537543D01*
X117243316Y-120556684D01*
X117262456Y-120572392D01*
X117262464Y-120572400D01*
X117319754Y-120619417D01*
X117406963Y-120666031D01*
X117501590Y-120694736D01*
X117510432Y-120695607D01*
X117575347Y-120702000D01*
X117575354Y-120702000D01*
X117600000Y-120704427D01*
X117624645Y-120702000D01*
X121672521Y-120702000D01*
X121745564Y-120741042D01*
X121840191Y-120769747D01*
X121913947Y-120777011D01*
X121913955Y-120777011D01*
X121938600Y-120779438D01*
X121963245Y-120777011D01*
X122260667Y-120777011D01*
X123089552Y-121605897D01*
X122989466Y-121615755D01*
X122758176Y-121685916D01*
X122545017Y-121799851D01*
X122358183Y-121953183D01*
X122204851Y-122140018D01*
X122090916Y-122353177D01*
X122020755Y-122584467D01*
X122003000Y-122764733D01*
X122003000Y-123035268D01*
X122020755Y-123215534D01*
X122090916Y-123446824D01*
X122204851Y-123659983D01*
X122358184Y-123846817D01*
X122545018Y-124000149D01*
X122728000Y-124097954D01*
X122728000Y-124171176D01*
X122605000Y-124171176D01*
X122482323Y-124183259D01*
X122364359Y-124219042D01*
X122255644Y-124277152D01*
X122160354Y-124355354D01*
X122082152Y-124450644D01*
X122024042Y-124559359D01*
X121988259Y-124677323D01*
X121980000Y-124761175D01*
X121971741Y-124677323D01*
X121935958Y-124559359D01*
X121877848Y-124450644D01*
X121799646Y-124355354D01*
X121704356Y-124277152D01*
X121595641Y-124219042D01*
X121477677Y-124183259D01*
X121355000Y-124171176D01*
X121232000Y-124171176D01*
X121232000Y-124097955D01*
X121414983Y-124000149D01*
X121601817Y-123846817D01*
X121755149Y-123659982D01*
X121869084Y-123446823D01*
X121939245Y-123215533D01*
X121957000Y-123035267D01*
X121957000Y-122764732D01*
X121939245Y-122584466D01*
X121869084Y-122353176D01*
X121755149Y-122140017D01*
X121601817Y-121953183D01*
X121414982Y-121799851D01*
X121201823Y-121685916D01*
X120970533Y-121615755D01*
X120730000Y-121592064D01*
X120489466Y-121615755D01*
X120258176Y-121685916D01*
X120045017Y-121799851D01*
X119858183Y-121953183D01*
X119704851Y-122140018D01*
X119590916Y-122353177D01*
X119520755Y-122584467D01*
X119503000Y-122764733D01*
X119503000Y-123035268D01*
X119520755Y-123215534D01*
X119590916Y-123446824D01*
X119704851Y-123659983D01*
X119858184Y-123846817D01*
X120045018Y-124000149D01*
X120228000Y-124097954D01*
X120228000Y-124171176D01*
X120105000Y-124171176D01*
X119982323Y-124183259D01*
X119864359Y-124219042D01*
X119755644Y-124277152D01*
X119660354Y-124355354D01*
X119582152Y-124450644D01*
X119524042Y-124559359D01*
X119488259Y-124677323D01*
X119480000Y-124761175D01*
X119471741Y-124677323D01*
X119435958Y-124559359D01*
X119377848Y-124450644D01*
X119299646Y-124355354D01*
X119204356Y-124277152D01*
X119095641Y-124219042D01*
X118977677Y-124183259D01*
X118855000Y-124171176D01*
X118732000Y-124171176D01*
X118732000Y-124097955D01*
X118914983Y-124000149D01*
X119101817Y-123846817D01*
X119255149Y-123659982D01*
X119369084Y-123446823D01*
X119439245Y-123215533D01*
X119457000Y-123035267D01*
X119457000Y-122764732D01*
X119439245Y-122584466D01*
X119369084Y-122353176D01*
X119255149Y-122140017D01*
X119101817Y-121953183D01*
X118914982Y-121799851D01*
X118701823Y-121685916D01*
X118470533Y-121615755D01*
X118230000Y-121592064D01*
X117989466Y-121615755D01*
X117758176Y-121685916D01*
X117545017Y-121799851D01*
X117358183Y-121953183D01*
X117204851Y-122140018D01*
X117090916Y-122353177D01*
X117020755Y-122584467D01*
X117003000Y-122764733D01*
X117003000Y-123035268D01*
X117020755Y-123215534D01*
X117090916Y-123446824D01*
X117204851Y-123659983D01*
X117358184Y-123846817D01*
X117545018Y-124000149D01*
X117728000Y-124097954D01*
X117728000Y-124171176D01*
X117605000Y-124171176D01*
X117482323Y-124183259D01*
X117364359Y-124219042D01*
X117255644Y-124277152D01*
X117160354Y-124355354D01*
X117082152Y-124450644D01*
X117024042Y-124559359D01*
X116988259Y-124677323D01*
X116980000Y-124761175D01*
X116971741Y-124677323D01*
X116935958Y-124559359D01*
X116877848Y-124450644D01*
X116799646Y-124355354D01*
X116704356Y-124277152D01*
X116595641Y-124219042D01*
X116477677Y-124183259D01*
X116355000Y-124171176D01*
X116232000Y-124171176D01*
X116232000Y-124097955D01*
X116414983Y-124000149D01*
X116601817Y-123846817D01*
X116755149Y-123659982D01*
X116869084Y-123446823D01*
X116939245Y-123215533D01*
X116957000Y-123035267D01*
X116957000Y-122764732D01*
X116939245Y-122584466D01*
X116869084Y-122353176D01*
X116755149Y-122140017D01*
X116601817Y-121953183D01*
X116414982Y-121799851D01*
X116201823Y-121685916D01*
X115970533Y-121615755D01*
X115730000Y-121592064D01*
X115489466Y-121615755D01*
X115258176Y-121685916D01*
X115237110Y-121697176D01*
X114972579Y-121432645D01*
X114978141Y-121430958D01*
X115086856Y-121372848D01*
X115182146Y-121294646D01*
X115260348Y-121199356D01*
X115318458Y-121090641D01*
X115354241Y-120972678D01*
X115366324Y-120850001D01*
X115366324Y-119549999D01*
X115354241Y-119427322D01*
X115318458Y-119309359D01*
X115260348Y-119200644D01*
X115182146Y-119105354D01*
X115086856Y-119027152D01*
X114978141Y-118969042D01*
X114860178Y-118933259D01*
X114737501Y-118921176D01*
X113912499Y-118921176D01*
X113789822Y-118933259D01*
X113671859Y-118969042D01*
X113563144Y-119027152D01*
X113467854Y-119105354D01*
X113389652Y-119200644D01*
X113331542Y-119309359D01*
X113295759Y-119427322D01*
X113283676Y-119549999D01*
X113283676Y-120850001D01*
X113295759Y-120972678D01*
X113331542Y-121090641D01*
X113389652Y-121199356D01*
X113467854Y-121294646D01*
X113523070Y-121339960D01*
X113515750Y-121340000D01*
X113357000Y-121498750D01*
X113357000Y-122773000D01*
X113377000Y-122773000D01*
X113377000Y-123027000D01*
X113357000Y-123027000D01*
X113357000Y-124301250D01*
X113515750Y-124460000D01*
X114080000Y-124463072D01*
X114204482Y-124450812D01*
X114324180Y-124414502D01*
X114434494Y-124355537D01*
X114531185Y-124276185D01*
X114610537Y-124179494D01*
X114669502Y-124069180D01*
X114705812Y-123949482D01*
X114718072Y-123825000D01*
X114717352Y-123675216D01*
X114858184Y-123846817D01*
X115045018Y-124000149D01*
X115228000Y-124097954D01*
X115228000Y-124171176D01*
X115105000Y-124171176D01*
X114982323Y-124183259D01*
X114864359Y-124219042D01*
X114755644Y-124277152D01*
X114660354Y-124355354D01*
X114582152Y-124450644D01*
X114524042Y-124559359D01*
X114488259Y-124677323D01*
X114476176Y-124800000D01*
X114476176Y-125600000D01*
X114488259Y-125722677D01*
X114524042Y-125840641D01*
X114582152Y-125949356D01*
X114660354Y-126044646D01*
X114755644Y-126122848D01*
X114864359Y-126180958D01*
X114982323Y-126216741D01*
X115105000Y-126228824D01*
X116355000Y-126228824D01*
X116477677Y-126216741D01*
X116595641Y-126180958D01*
X116704356Y-126122848D01*
X116799646Y-126044646D01*
X116877848Y-125949356D01*
X116935958Y-125840641D01*
X116971741Y-125722677D01*
X116980000Y-125638825D01*
X116988259Y-125722677D01*
X117024042Y-125840641D01*
X117082152Y-125949356D01*
X117160354Y-126044646D01*
X117255644Y-126122848D01*
X117364359Y-126180958D01*
X117482323Y-126216741D01*
X117605000Y-126228824D01*
X118855000Y-126228824D01*
X118977677Y-126216741D01*
X119095641Y-126180958D01*
X119204356Y-126122848D01*
X119299646Y-126044646D01*
X119377848Y-125949356D01*
X119435958Y-125840641D01*
X119471741Y-125722677D01*
X119480000Y-125638825D01*
X119488259Y-125722677D01*
X119524042Y-125840641D01*
X119582152Y-125949356D01*
X119660354Y-126044646D01*
X119755644Y-126122848D01*
X119864359Y-126180958D01*
X119982323Y-126216741D01*
X120105000Y-126228824D01*
X121355000Y-126228824D01*
X121477677Y-126216741D01*
X121595641Y-126180958D01*
X121704356Y-126122848D01*
X121799646Y-126044646D01*
X121877848Y-125949356D01*
X121935958Y-125840641D01*
X121971741Y-125722677D01*
X121980000Y-125638825D01*
X121988259Y-125722677D01*
X122024042Y-125840641D01*
X122082152Y-125949356D01*
X122160354Y-126044646D01*
X122255644Y-126122848D01*
X122364359Y-126180958D01*
X122482323Y-126216741D01*
X122605000Y-126228824D01*
X123855000Y-126228824D01*
X123977677Y-126216741D01*
X124095641Y-126180958D01*
X124204356Y-126122848D01*
X124299646Y-126044646D01*
X124377848Y-125949356D01*
X124435958Y-125840641D01*
X124471741Y-125722677D01*
X124483824Y-125600000D01*
X124483824Y-124800000D01*
X124471741Y-124677323D01*
X124435958Y-124559359D01*
X124377848Y-124450644D01*
X124299646Y-124355354D01*
X124204356Y-124277152D01*
X124095641Y-124219042D01*
X123977677Y-124183259D01*
X123855000Y-124171176D01*
X123732000Y-124171176D01*
X123732000Y-124097955D01*
X123914983Y-124000149D01*
X124066940Y-123875440D01*
X124088959Y-123948025D01*
X124135573Y-124035235D01*
X124198306Y-124111674D01*
X124217457Y-124127391D01*
X124797991Y-124707926D01*
X124797990Y-125813537D01*
X124795563Y-125838180D01*
X124797990Y-125862823D01*
X124797990Y-125862832D01*
X124805254Y-125936588D01*
X124833959Y-126031215D01*
X124880573Y-126118425D01*
X124943306Y-126194864D01*
X124962458Y-126210582D01*
X125264418Y-126512542D01*
X125280136Y-126531694D01*
X125299286Y-126547410D01*
X125356574Y-126594427D01*
X125443783Y-126641041D01*
X125538410Y-126669746D01*
X125547252Y-126670617D01*
X125612167Y-126677010D01*
X125612174Y-126677010D01*
X125636820Y-126679437D01*
X125661465Y-126677010D01*
X127338537Y-126677010D01*
X127363180Y-126679437D01*
X127387823Y-126677010D01*
X127387833Y-126677010D01*
X127461589Y-126669746D01*
X127556216Y-126641041D01*
X127643425Y-126594427D01*
X127719864Y-126531694D01*
X127735582Y-126512542D01*
X128037542Y-126210582D01*
X128056694Y-126194864D01*
X128084463Y-126161028D01*
X128119427Y-126118426D01*
X128166041Y-126031217D01*
X128194746Y-125936590D01*
X128200353Y-125879653D01*
X128202010Y-125862833D01*
X128202010Y-125862826D01*
X128204437Y-125838180D01*
X128202010Y-125813535D01*
X128202010Y-124586462D01*
X128204437Y-124561819D01*
X128202010Y-124537176D01*
X128202010Y-124537167D01*
X128194746Y-124463411D01*
X128166041Y-124368784D01*
X128119427Y-124281575D01*
X128056694Y-124205136D01*
X128037548Y-124189423D01*
X127452010Y-123603886D01*
X127452010Y-122374643D01*
X127454438Y-122349990D01*
X127444746Y-122251581D01*
X127416041Y-122156954D01*
X127369427Y-122069745D01*
X127306694Y-121993306D01*
X127230255Y-121930573D01*
X127180776Y-121904126D01*
X126420205Y-121143556D01*
X126420205Y-118677000D01*
X126476528Y-118677000D01*
X126626643Y-118647141D01*
X126768048Y-118588569D01*
X126895309Y-118503536D01*
X127003536Y-118395309D01*
X127088569Y-118268048D01*
X127147141Y-118126643D01*
X127177000Y-117976528D01*
X127177000Y-117823472D01*
X127147141Y-117673357D01*
X127088569Y-117531952D01*
X127003536Y-117404691D01*
X126901289Y-117302444D01*
X126894736Y-117235906D01*
X126866031Y-117141279D01*
X126819417Y-117054070D01*
X126756684Y-116977631D01*
X126737532Y-116961913D01*
X126455715Y-116680096D01*
X126439997Y-116660944D01*
X126363558Y-116598211D01*
X126276349Y-116551597D01*
X126181722Y-116522892D01*
X126107966Y-116515628D01*
X126107956Y-116515628D01*
X126083313Y-116513201D01*
X126058670Y-116515628D01*
X125166362Y-116515628D01*
X125197161Y-116441273D01*
X125227020Y-116291158D01*
X125227020Y-116189417D01*
X126662774Y-116189417D01*
X126687417Y-116191844D01*
X126712060Y-116189417D01*
X126712070Y-116189417D01*
X126785826Y-116182153D01*
X126880453Y-116153448D01*
X126967662Y-116106834D01*
X127044101Y-116044101D01*
X127059819Y-116024949D01*
X127439359Y-115645409D01*
X127458505Y-115629696D01*
X127475530Y-115608952D01*
X127521237Y-115553258D01*
X127521238Y-115553257D01*
X127567852Y-115466048D01*
X127596557Y-115371421D01*
X127603821Y-115297665D01*
X127603821Y-115297655D01*
X127606248Y-115273012D01*
X127603821Y-115248369D01*
X127603821Y-114677613D01*
X127606248Y-114652970D01*
X127603821Y-114628327D01*
X127603821Y-114628318D01*
X127596557Y-114554562D01*
X127567852Y-114459935D01*
X127521238Y-114372726D01*
X127499813Y-114346620D01*
X127474220Y-114315435D01*
X127474218Y-114315433D01*
X127458505Y-114296287D01*
X127439359Y-114280574D01*
X126996239Y-113837455D01*
X126980524Y-113818306D01*
X126904085Y-113755573D01*
X126816876Y-113708959D01*
X126722249Y-113680254D01*
X126648493Y-113672990D01*
X126648483Y-113672990D01*
X126623840Y-113670563D01*
X126599197Y-113672990D01*
X125749652Y-113672990D01*
X125725009Y-113670563D01*
X125700366Y-113672990D01*
X125700357Y-113672990D01*
X125626601Y-113680254D01*
X125531974Y-113708959D01*
X125444765Y-113755573D01*
X125444763Y-113755574D01*
X125444764Y-113755574D01*
X125403086Y-113789779D01*
X125368326Y-113818306D01*
X125352613Y-113837452D01*
X124992066Y-114198000D01*
X124007935Y-114198000D01*
X123647389Y-113837455D01*
X123631674Y-113818306D01*
X123555235Y-113755573D01*
X123553172Y-113754471D01*
X124107913Y-113199731D01*
X124149843Y-113199731D01*
X124158018Y-113282739D01*
X124193091Y-113398357D01*
X124250045Y-113504911D01*
X124326693Y-113598307D01*
X124420089Y-113674955D01*
X124526643Y-113731909D01*
X124642261Y-113766982D01*
X124762500Y-113778824D01*
X125237500Y-113778824D01*
X125357739Y-113766982D01*
X125473357Y-113731909D01*
X125579911Y-113674955D01*
X125673307Y-113598307D01*
X125749955Y-113504911D01*
X125806909Y-113398357D01*
X125841982Y-113282739D01*
X125853824Y-113162500D01*
X125853824Y-112562500D01*
X125841982Y-112442261D01*
X125806909Y-112326643D01*
X125761580Y-112241838D01*
X125829494Y-112205537D01*
X125926185Y-112126185D01*
X126005537Y-112029494D01*
X126064502Y-111919180D01*
X126100812Y-111799482D01*
X126113072Y-111675000D01*
X126110000Y-111423250D01*
X125951250Y-111264500D01*
X125127000Y-111264500D01*
X125127000Y-111284500D01*
X124873000Y-111284500D01*
X124873000Y-111264500D01*
X124853000Y-111264500D01*
X124853000Y-111010500D01*
X124873000Y-111010500D01*
X124873000Y-110123750D01*
X125127000Y-110123750D01*
X125127000Y-111010500D01*
X125951250Y-111010500D01*
X126110000Y-110851750D01*
X126113072Y-110600000D01*
X126100812Y-110475518D01*
X126064502Y-110355820D01*
X126005537Y-110245506D01*
X125926185Y-110148815D01*
X125829494Y-110069463D01*
X125719180Y-110010498D01*
X125599482Y-109974188D01*
X125475000Y-109961928D01*
X125285750Y-109965000D01*
X125127000Y-110123750D01*
X124873000Y-110123750D01*
X124840481Y-110091231D01*
X124895299Y-110054602D01*
X125003526Y-109946375D01*
X125088559Y-109819114D01*
X125147131Y-109677709D01*
X125176990Y-109527594D01*
X125176990Y-109374538D01*
X125147131Y-109224423D01*
X125127000Y-109175823D01*
X125127000Y-108388072D01*
X125373000Y-108388072D01*
X125373000Y-109226250D01*
X125531750Y-109385000D01*
X125630813Y-109374519D01*
X125750137Y-109336999D01*
X125859848Y-109276920D01*
X125955731Y-109196593D01*
X125990112Y-109153824D01*
X127380000Y-109153824D01*
X127453905Y-109146545D01*
X127524970Y-109124988D01*
X127590463Y-109089981D01*
X127647869Y-109042869D01*
X127694981Y-108985463D01*
X127712867Y-108952000D01*
X127725347Y-108952000D01*
X127750000Y-108954428D01*
X127774653Y-108952000D01*
X127848409Y-108944736D01*
X127943036Y-108916031D01*
X128030245Y-108869417D01*
X128106684Y-108806684D01*
X128169417Y-108730245D01*
X128216031Y-108643036D01*
X128244736Y-108548409D01*
X128254428Y-108450000D01*
X128252000Y-108425347D01*
X128252000Y-107504231D01*
X128274653Y-107502000D01*
X128348409Y-107494736D01*
X128443036Y-107466031D01*
X128530245Y-107419417D01*
X128573000Y-107384328D01*
X128573001Y-117009156D01*
%TA.AperFunction,Conductor*%
D40*
G36*
X128573001Y-117009156D02*
G01*
X128495309Y-116931464D01*
X128368048Y-116846431D01*
X128226643Y-116787859D01*
X128076528Y-116758000D01*
X127923472Y-116758000D01*
X127773357Y-116787859D01*
X127631952Y-116846431D01*
X127504691Y-116931464D01*
X127396464Y-117039691D01*
X127311431Y-117166952D01*
X127252859Y-117308357D01*
X127223000Y-117458472D01*
X127223000Y-117611528D01*
X127252859Y-117761643D01*
X127311431Y-117903048D01*
X127396464Y-118030309D01*
X127498000Y-118131845D01*
X127498001Y-118951298D01*
X127427323Y-118958259D01*
X127309359Y-118994042D01*
X127200644Y-119052152D01*
X127105354Y-119130354D01*
X127027152Y-119225644D01*
X126969042Y-119334359D01*
X126933259Y-119452323D01*
X126921176Y-119575000D01*
X126921176Y-120825000D01*
X126933259Y-120947677D01*
X126969042Y-121065641D01*
X127027152Y-121174356D01*
X127105354Y-121269646D01*
X127200644Y-121347848D01*
X127309359Y-121405958D01*
X127427323Y-121441741D01*
X127550000Y-121453824D01*
X128350000Y-121453824D01*
X128472677Y-121441741D01*
X128573001Y-121411309D01*
X128573001Y-128979107D01*
X128560078Y-129110899D01*
X128527873Y-129217570D01*
X128475558Y-129315961D01*
X128405130Y-129402313D01*
X128319270Y-129473343D01*
X128221255Y-129526339D01*
X128114807Y-129559290D01*
X127984371Y-129573000D01*
X113413678Y-129573000D01*
X113501185Y-129501185D01*
X113580537Y-129404494D01*
X113639502Y-129294180D01*
X113675812Y-129174482D01*
X113688072Y-129050000D01*
X113685000Y-128485750D01*
X113526250Y-128327000D01*
X112327000Y-128327000D01*
X112327000Y-128347000D01*
X112073000Y-128347000D01*
X112073000Y-128327000D01*
X110873750Y-128327000D01*
X110715000Y-128485750D01*
X110711928Y-129050000D01*
X110724188Y-129174482D01*
X110760498Y-129294180D01*
X110819463Y-129404494D01*
X110898815Y-129501185D01*
X110981633Y-129569151D01*
X110889101Y-129560078D01*
X110782430Y-129527873D01*
X110684039Y-129475558D01*
X110597687Y-129405130D01*
X110526657Y-129319270D01*
X110473661Y-129221255D01*
X110440710Y-129114807D01*
X110427000Y-128984371D01*
X110427000Y-127350000D01*
X110711928Y-127350000D01*
X110715000Y-127914250D01*
X110873750Y-128073000D01*
X112073000Y-128073000D01*
X112073000Y-128053000D01*
X112327000Y-128053000D01*
X112327000Y-128073000D01*
X113526250Y-128073000D01*
X113685000Y-127914250D01*
X113688072Y-127350000D01*
X113675812Y-127225518D01*
X113653325Y-127151388D01*
X113696982Y-127151388D01*
X114476176Y-127930583D01*
X114476176Y-128700000D01*
X114488259Y-128822677D01*
X114524042Y-128940641D01*
X114582152Y-129049356D01*
X114660354Y-129144646D01*
X114755644Y-129222848D01*
X114864359Y-129280958D01*
X114982323Y-129316741D01*
X115105000Y-129328824D01*
X116355000Y-129328824D01*
X116477677Y-129316741D01*
X116595641Y-129280958D01*
X116704356Y-129222848D01*
X116799646Y-129144646D01*
X116877848Y-129049356D01*
X116935958Y-128940641D01*
X116971741Y-128822677D01*
X116973778Y-128802000D01*
X116986222Y-128802000D01*
X116988259Y-128822677D01*
X117024042Y-128940641D01*
X117082152Y-129049356D01*
X117160354Y-129144646D01*
X117255644Y-129222848D01*
X117364359Y-129280958D01*
X117482323Y-129316741D01*
X117605000Y-129328824D01*
X118855000Y-129328824D01*
X118977677Y-129316741D01*
X119095641Y-129280958D01*
X119204356Y-129222848D01*
X119299646Y-129144646D01*
X119377848Y-129049356D01*
X119435958Y-128940641D01*
X119471741Y-128822677D01*
X119473778Y-128802000D01*
X119486222Y-128802000D01*
X119488259Y-128822677D01*
X119524042Y-128940641D01*
X119582152Y-129049356D01*
X119660354Y-129144646D01*
X119755644Y-129222848D01*
X119864359Y-129280958D01*
X119982323Y-129316741D01*
X120105000Y-129328824D01*
X121355000Y-129328824D01*
X121477677Y-129316741D01*
X121595641Y-129280958D01*
X121704356Y-129222848D01*
X121799646Y-129144646D01*
X121877848Y-129049356D01*
X121935958Y-128940641D01*
X121971741Y-128822677D01*
X121973778Y-128802000D01*
X121986222Y-128802000D01*
X121988259Y-128822677D01*
X122024042Y-128940641D01*
X122082152Y-129049356D01*
X122160354Y-129144646D01*
X122255644Y-129222848D01*
X122364359Y-129280958D01*
X122482323Y-129316741D01*
X122605000Y-129328824D01*
X123855000Y-129328824D01*
X123977677Y-129316741D01*
X124095641Y-129280958D01*
X124204356Y-129222848D01*
X124299646Y-129144646D01*
X124377848Y-129049356D01*
X124435958Y-128940641D01*
X124471741Y-128822677D01*
X124483824Y-128700000D01*
X124483824Y-127900000D01*
X125246176Y-127900000D01*
X125246176Y-128700000D01*
X125258259Y-128822677D01*
X125294042Y-128940641D01*
X125352152Y-129049356D01*
X125430354Y-129144646D01*
X125525644Y-129222848D01*
X125634359Y-129280958D01*
X125752323Y-129316741D01*
X125875000Y-129328824D01*
X127125000Y-129328824D01*
X127247677Y-129316741D01*
X127365641Y-129280958D01*
X127474356Y-129222848D01*
X127569646Y-129144646D01*
X127647848Y-129049356D01*
X127705958Y-128940641D01*
X127741741Y-128822677D01*
X127753824Y-128700000D01*
X127753824Y-127900000D01*
X127741741Y-127777323D01*
X127705958Y-127659359D01*
X127647848Y-127550644D01*
X127569646Y-127455354D01*
X127474356Y-127377152D01*
X127365641Y-127319042D01*
X127247677Y-127283259D01*
X127125000Y-127271176D01*
X125875000Y-127271176D01*
X125752323Y-127283259D01*
X125634359Y-127319042D01*
X125525644Y-127377152D01*
X125430354Y-127455354D01*
X125352152Y-127550644D01*
X125294042Y-127659359D01*
X125258259Y-127777323D01*
X125246176Y-127900000D01*
X124483824Y-127900000D01*
X124471741Y-127777323D01*
X124435958Y-127659359D01*
X124377848Y-127550644D01*
X124299646Y-127455354D01*
X124204356Y-127377152D01*
X124095641Y-127319042D01*
X123977677Y-127283259D01*
X123855000Y-127271176D01*
X122605000Y-127271176D01*
X122482323Y-127283259D01*
X122364359Y-127319042D01*
X122255644Y-127377152D01*
X122160354Y-127455354D01*
X122082152Y-127550644D01*
X122024042Y-127659359D01*
X121988259Y-127777323D01*
X121986222Y-127798000D01*
X121973778Y-127798000D01*
X121971741Y-127777323D01*
X121935958Y-127659359D01*
X121877848Y-127550644D01*
X121799646Y-127455354D01*
X121704356Y-127377152D01*
X121595641Y-127319042D01*
X121477677Y-127283259D01*
X121355000Y-127271176D01*
X120105000Y-127271176D01*
X119982323Y-127283259D01*
X119864359Y-127319042D01*
X119755644Y-127377152D01*
X119660354Y-127455354D01*
X119582152Y-127550644D01*
X119524042Y-127659359D01*
X119488259Y-127777323D01*
X119486222Y-127798000D01*
X119473778Y-127798000D01*
X119471741Y-127777323D01*
X119435958Y-127659359D01*
X119377848Y-127550644D01*
X119299646Y-127455354D01*
X119204356Y-127377152D01*
X119095641Y-127319042D01*
X118977677Y-127283259D01*
X118855000Y-127271176D01*
X117605000Y-127271176D01*
X117482323Y-127283259D01*
X117364359Y-127319042D01*
X117255644Y-127377152D01*
X117160354Y-127455354D01*
X117082152Y-127550644D01*
X117024042Y-127659359D01*
X116988259Y-127777323D01*
X116986222Y-127798000D01*
X116973778Y-127798000D01*
X116971741Y-127777323D01*
X116935958Y-127659359D01*
X116877848Y-127550644D01*
X116799646Y-127455354D01*
X116704356Y-127377152D01*
X116595641Y-127319042D01*
X116477677Y-127283259D01*
X116355000Y-127271176D01*
X115236639Y-127271176D01*
X114406916Y-126441454D01*
X114406916Y-126297860D01*
X114377057Y-126147745D01*
X114318485Y-126006340D01*
X114233452Y-125879079D01*
X114125225Y-125770852D01*
X113997964Y-125685819D01*
X113856559Y-125627247D01*
X113706444Y-125597388D01*
X113553388Y-125597388D01*
X113427000Y-125622528D01*
X113427000Y-125539151D01*
X113379847Y-125302097D01*
X113287353Y-125078798D01*
X113153073Y-124877833D01*
X112982167Y-124706927D01*
X112781202Y-124572647D01*
X112557903Y-124480153D01*
X112469579Y-124462584D01*
X112944250Y-124460000D01*
X113103000Y-124301250D01*
X113103000Y-123027000D01*
X111903750Y-123027000D01*
X111745000Y-123185750D01*
X111741928Y-123825000D01*
X111754188Y-123949482D01*
X111790498Y-124069180D01*
X111849463Y-124179494D01*
X111928815Y-124276185D01*
X112025506Y-124355537D01*
X112135820Y-124414502D01*
X112196800Y-124433000D01*
X112079151Y-124433000D01*
X111842097Y-124480153D01*
X111618798Y-124572647D01*
X111417833Y-124706927D01*
X111246927Y-124877833D01*
X111112647Y-125078798D01*
X111020153Y-125302097D01*
X110973000Y-125539151D01*
X110973000Y-125780849D01*
X111020153Y-126017903D01*
X111112647Y-126241202D01*
X111246927Y-126442167D01*
X111417833Y-126613073D01*
X111567553Y-126713112D01*
X111350000Y-126711928D01*
X111225518Y-126724188D01*
X111105820Y-126760498D01*
X110995506Y-126819463D01*
X110898815Y-126898815D01*
X110819463Y-126995506D01*
X110760498Y-127105820D01*
X110724188Y-127225518D01*
X110711928Y-127350000D01*
X110427000Y-127350000D01*
X110427000Y-121727189D01*
X110537500Y-121738072D01*
X110914250Y-121735000D01*
X111073000Y-121576250D01*
X111073000Y-120327000D01*
X111327000Y-120327000D01*
X111327000Y-121576250D01*
X111485750Y-121735000D01*
X111788481Y-121737468D01*
X111754188Y-121850518D01*
X111741928Y-121975000D01*
X111745000Y-122614250D01*
X111903750Y-122773000D01*
X113103000Y-122773000D01*
X113103000Y-121498750D01*
X112944250Y-121340000D01*
X112454080Y-121337331D01*
X112488312Y-121224482D01*
X112500572Y-121100000D01*
X112497500Y-120485750D01*
X112338750Y-120327000D01*
X111327000Y-120327000D01*
X111073000Y-120327000D01*
X111053000Y-120327000D01*
X111053000Y-120073000D01*
X111073000Y-120073000D01*
X111073000Y-118823750D01*
X111327000Y-118823750D01*
X111327000Y-120073000D01*
X112338750Y-120073000D01*
X112497500Y-119914250D01*
X112500572Y-119300000D01*
X112488312Y-119175518D01*
X112452002Y-119055820D01*
X112393037Y-118945506D01*
X112313685Y-118848815D01*
X112216994Y-118769463D01*
X112106680Y-118710498D01*
X111986982Y-118674188D01*
X111862500Y-118661928D01*
X111485750Y-118665000D01*
X111327000Y-118823750D01*
X111073000Y-118823750D01*
X110914250Y-118665000D01*
X110537500Y-118661928D01*
X110427000Y-118672811D01*
X110427000Y-116007289D01*
X110485399Y-116007216D01*
X110539081Y-116158747D01*
X110612528Y-116296157D01*
X110861603Y-116373792D01*
X111229108Y-116006287D01*
X111588767Y-116005838D01*
X111041208Y-116553397D01*
X111118843Y-116802472D01*
X111382883Y-116928371D01*
X111666411Y-117000339D01*
X111958531Y-117015611D01*
X111976052Y-117013068D01*
X112021633Y-117123111D01*
X112106666Y-117250372D01*
X112214893Y-117358599D01*
X112342154Y-117443632D01*
X112483559Y-117502204D01*
X112633674Y-117532063D01*
X112786730Y-117532063D01*
X112936845Y-117502204D01*
X113078250Y-117443632D01*
X113205511Y-117358599D01*
X113307047Y-117257063D01*
X113947129Y-117257063D01*
X117227607Y-120537543D01*
X117243316Y-120556684D01*
X117262456Y-120572392D01*
X117262464Y-120572400D01*
X117319754Y-120619417D01*
X117406963Y-120666031D01*
X117501590Y-120694736D01*
X117510432Y-120695607D01*
X117575347Y-120702000D01*
X117575354Y-120702000D01*
X117600000Y-120704427D01*
X117624645Y-120702000D01*
X121672521Y-120702000D01*
X121745564Y-120741042D01*
X121840191Y-120769747D01*
X121913947Y-120777011D01*
X121913955Y-120777011D01*
X121938600Y-120779438D01*
X121963245Y-120777011D01*
X122260667Y-120777011D01*
X123089552Y-121605897D01*
X122989466Y-121615755D01*
X122758176Y-121685916D01*
X122545017Y-121799851D01*
X122358183Y-121953183D01*
X122204851Y-122140018D01*
X122090916Y-122353177D01*
X122020755Y-122584467D01*
X122003000Y-122764733D01*
X122003000Y-123035268D01*
X122020755Y-123215534D01*
X122090916Y-123446824D01*
X122204851Y-123659983D01*
X122358184Y-123846817D01*
X122545018Y-124000149D01*
X122728000Y-124097954D01*
X122728000Y-124171176D01*
X122605000Y-124171176D01*
X122482323Y-124183259D01*
X122364359Y-124219042D01*
X122255644Y-124277152D01*
X122160354Y-124355354D01*
X122082152Y-124450644D01*
X122024042Y-124559359D01*
X121988259Y-124677323D01*
X121980000Y-124761175D01*
X121971741Y-124677323D01*
X121935958Y-124559359D01*
X121877848Y-124450644D01*
X121799646Y-124355354D01*
X121704356Y-124277152D01*
X121595641Y-124219042D01*
X121477677Y-124183259D01*
X121355000Y-124171176D01*
X121232000Y-124171176D01*
X121232000Y-124097955D01*
X121414983Y-124000149D01*
X121601817Y-123846817D01*
X121755149Y-123659982D01*
X121869084Y-123446823D01*
X121939245Y-123215533D01*
X121957000Y-123035267D01*
X121957000Y-122764732D01*
X121939245Y-122584466D01*
X121869084Y-122353176D01*
X121755149Y-122140017D01*
X121601817Y-121953183D01*
X121414982Y-121799851D01*
X121201823Y-121685916D01*
X120970533Y-121615755D01*
X120730000Y-121592064D01*
X120489466Y-121615755D01*
X120258176Y-121685916D01*
X120045017Y-121799851D01*
X119858183Y-121953183D01*
X119704851Y-122140018D01*
X119590916Y-122353177D01*
X119520755Y-122584467D01*
X119503000Y-122764733D01*
X119503000Y-123035268D01*
X119520755Y-123215534D01*
X119590916Y-123446824D01*
X119704851Y-123659983D01*
X119858184Y-123846817D01*
X120045018Y-124000149D01*
X120228000Y-124097954D01*
X120228000Y-124171176D01*
X120105000Y-124171176D01*
X119982323Y-124183259D01*
X119864359Y-124219042D01*
X119755644Y-124277152D01*
X119660354Y-124355354D01*
X119582152Y-124450644D01*
X119524042Y-124559359D01*
X119488259Y-124677323D01*
X119480000Y-124761175D01*
X119471741Y-124677323D01*
X119435958Y-124559359D01*
X119377848Y-124450644D01*
X119299646Y-124355354D01*
X119204356Y-124277152D01*
X119095641Y-124219042D01*
X118977677Y-124183259D01*
X118855000Y-124171176D01*
X118732000Y-124171176D01*
X118732000Y-124097955D01*
X118914983Y-124000149D01*
X119101817Y-123846817D01*
X119255149Y-123659982D01*
X119369084Y-123446823D01*
X119439245Y-123215533D01*
X119457000Y-123035267D01*
X119457000Y-122764732D01*
X119439245Y-122584466D01*
X119369084Y-122353176D01*
X119255149Y-122140017D01*
X119101817Y-121953183D01*
X118914982Y-121799851D01*
X118701823Y-121685916D01*
X118470533Y-121615755D01*
X118230000Y-121592064D01*
X117989466Y-121615755D01*
X117758176Y-121685916D01*
X117545017Y-121799851D01*
X117358183Y-121953183D01*
X117204851Y-122140018D01*
X117090916Y-122353177D01*
X117020755Y-122584467D01*
X117003000Y-122764733D01*
X117003000Y-123035268D01*
X117020755Y-123215534D01*
X117090916Y-123446824D01*
X117204851Y-123659983D01*
X117358184Y-123846817D01*
X117545018Y-124000149D01*
X117728000Y-124097954D01*
X117728000Y-124171176D01*
X117605000Y-124171176D01*
X117482323Y-124183259D01*
X117364359Y-124219042D01*
X117255644Y-124277152D01*
X117160354Y-124355354D01*
X117082152Y-124450644D01*
X117024042Y-124559359D01*
X116988259Y-124677323D01*
X116980000Y-124761175D01*
X116971741Y-124677323D01*
X116935958Y-124559359D01*
X116877848Y-124450644D01*
X116799646Y-124355354D01*
X116704356Y-124277152D01*
X116595641Y-124219042D01*
X116477677Y-124183259D01*
X116355000Y-124171176D01*
X116232000Y-124171176D01*
X116232000Y-124097955D01*
X116414983Y-124000149D01*
X116601817Y-123846817D01*
X116755149Y-123659982D01*
X116869084Y-123446823D01*
X116939245Y-123215533D01*
X116957000Y-123035267D01*
X116957000Y-122764732D01*
X116939245Y-122584466D01*
X116869084Y-122353176D01*
X116755149Y-122140017D01*
X116601817Y-121953183D01*
X116414982Y-121799851D01*
X116201823Y-121685916D01*
X115970533Y-121615755D01*
X115730000Y-121592064D01*
X115489466Y-121615755D01*
X115258176Y-121685916D01*
X115237110Y-121697176D01*
X114972579Y-121432645D01*
X114978141Y-121430958D01*
X115086856Y-121372848D01*
X115182146Y-121294646D01*
X115260348Y-121199356D01*
X115318458Y-121090641D01*
X115354241Y-120972678D01*
X115366324Y-120850001D01*
X115366324Y-119549999D01*
X115354241Y-119427322D01*
X115318458Y-119309359D01*
X115260348Y-119200644D01*
X115182146Y-119105354D01*
X115086856Y-119027152D01*
X114978141Y-118969042D01*
X114860178Y-118933259D01*
X114737501Y-118921176D01*
X113912499Y-118921176D01*
X113789822Y-118933259D01*
X113671859Y-118969042D01*
X113563144Y-119027152D01*
X113467854Y-119105354D01*
X113389652Y-119200644D01*
X113331542Y-119309359D01*
X113295759Y-119427322D01*
X113283676Y-119549999D01*
X113283676Y-120850001D01*
X113295759Y-120972678D01*
X113331542Y-121090641D01*
X113389652Y-121199356D01*
X113467854Y-121294646D01*
X113523070Y-121339960D01*
X113515750Y-121340000D01*
X113357000Y-121498750D01*
X113357000Y-122773000D01*
X113377000Y-122773000D01*
X113377000Y-123027000D01*
X113357000Y-123027000D01*
X113357000Y-124301250D01*
X113515750Y-124460000D01*
X114080000Y-124463072D01*
X114204482Y-124450812D01*
X114324180Y-124414502D01*
X114434494Y-124355537D01*
X114531185Y-124276185D01*
X114610537Y-124179494D01*
X114669502Y-124069180D01*
X114705812Y-123949482D01*
X114718072Y-123825000D01*
X114717352Y-123675216D01*
X114858184Y-123846817D01*
X115045018Y-124000149D01*
X115228000Y-124097954D01*
X115228000Y-124171176D01*
X115105000Y-124171176D01*
X114982323Y-124183259D01*
X114864359Y-124219042D01*
X114755644Y-124277152D01*
X114660354Y-124355354D01*
X114582152Y-124450644D01*
X114524042Y-124559359D01*
X114488259Y-124677323D01*
X114476176Y-124800000D01*
X114476176Y-125600000D01*
X114488259Y-125722677D01*
X114524042Y-125840641D01*
X114582152Y-125949356D01*
X114660354Y-126044646D01*
X114755644Y-126122848D01*
X114864359Y-126180958D01*
X114982323Y-126216741D01*
X115105000Y-126228824D01*
X116355000Y-126228824D01*
X116477677Y-126216741D01*
X116595641Y-126180958D01*
X116704356Y-126122848D01*
X116799646Y-126044646D01*
X116877848Y-125949356D01*
X116935958Y-125840641D01*
X116971741Y-125722677D01*
X116980000Y-125638825D01*
X116988259Y-125722677D01*
X117024042Y-125840641D01*
X117082152Y-125949356D01*
X117160354Y-126044646D01*
X117255644Y-126122848D01*
X117364359Y-126180958D01*
X117482323Y-126216741D01*
X117605000Y-126228824D01*
X118855000Y-126228824D01*
X118977677Y-126216741D01*
X119095641Y-126180958D01*
X119204356Y-126122848D01*
X119299646Y-126044646D01*
X119377848Y-125949356D01*
X119435958Y-125840641D01*
X119471741Y-125722677D01*
X119480000Y-125638825D01*
X119488259Y-125722677D01*
X119524042Y-125840641D01*
X119582152Y-125949356D01*
X119660354Y-126044646D01*
X119755644Y-126122848D01*
X119864359Y-126180958D01*
X119982323Y-126216741D01*
X120105000Y-126228824D01*
X121355000Y-126228824D01*
X121477677Y-126216741D01*
X121595641Y-126180958D01*
X121704356Y-126122848D01*
X121799646Y-126044646D01*
X121877848Y-125949356D01*
X121935958Y-125840641D01*
X121971741Y-125722677D01*
X121980000Y-125638825D01*
X121988259Y-125722677D01*
X122024042Y-125840641D01*
X122082152Y-125949356D01*
X122160354Y-126044646D01*
X122255644Y-126122848D01*
X122364359Y-126180958D01*
X122482323Y-126216741D01*
X122605000Y-126228824D01*
X123855000Y-126228824D01*
X123977677Y-126216741D01*
X124095641Y-126180958D01*
X124204356Y-126122848D01*
X124299646Y-126044646D01*
X124377848Y-125949356D01*
X124435958Y-125840641D01*
X124471741Y-125722677D01*
X124483824Y-125600000D01*
X124483824Y-124800000D01*
X124471741Y-124677323D01*
X124435958Y-124559359D01*
X124377848Y-124450644D01*
X124299646Y-124355354D01*
X124204356Y-124277152D01*
X124095641Y-124219042D01*
X123977677Y-124183259D01*
X123855000Y-124171176D01*
X123732000Y-124171176D01*
X123732000Y-124097955D01*
X123914983Y-124000149D01*
X124066940Y-123875440D01*
X124088959Y-123948025D01*
X124135573Y-124035235D01*
X124198306Y-124111674D01*
X124217457Y-124127391D01*
X124797991Y-124707926D01*
X124797990Y-125813537D01*
X124795563Y-125838180D01*
X124797990Y-125862823D01*
X124797990Y-125862832D01*
X124805254Y-125936588D01*
X124833959Y-126031215D01*
X124880573Y-126118425D01*
X124943306Y-126194864D01*
X124962458Y-126210582D01*
X125264418Y-126512542D01*
X125280136Y-126531694D01*
X125299286Y-126547410D01*
X125356574Y-126594427D01*
X125443783Y-126641041D01*
X125538410Y-126669746D01*
X125547252Y-126670617D01*
X125612167Y-126677010D01*
X125612174Y-126677010D01*
X125636820Y-126679437D01*
X125661465Y-126677010D01*
X127338537Y-126677010D01*
X127363180Y-126679437D01*
X127387823Y-126677010D01*
X127387833Y-126677010D01*
X127461589Y-126669746D01*
X127556216Y-126641041D01*
X127643425Y-126594427D01*
X127719864Y-126531694D01*
X127735582Y-126512542D01*
X128037542Y-126210582D01*
X128056694Y-126194864D01*
X128084463Y-126161028D01*
X128119427Y-126118426D01*
X128166041Y-126031217D01*
X128194746Y-125936590D01*
X128200353Y-125879653D01*
X128202010Y-125862833D01*
X128202010Y-125862826D01*
X128204437Y-125838180D01*
X128202010Y-125813535D01*
X128202010Y-124586462D01*
X128204437Y-124561819D01*
X128202010Y-124537176D01*
X128202010Y-124537167D01*
X128194746Y-124463411D01*
X128166041Y-124368784D01*
X128119427Y-124281575D01*
X128056694Y-124205136D01*
X128037548Y-124189423D01*
X127452010Y-123603886D01*
X127452010Y-122374643D01*
X127454438Y-122349990D01*
X127444746Y-122251581D01*
X127416041Y-122156954D01*
X127369427Y-122069745D01*
X127306694Y-121993306D01*
X127230255Y-121930573D01*
X127180776Y-121904126D01*
X126420205Y-121143556D01*
X126420205Y-118677000D01*
X126476528Y-118677000D01*
X126626643Y-118647141D01*
X126768048Y-118588569D01*
X126895309Y-118503536D01*
X127003536Y-118395309D01*
X127088569Y-118268048D01*
X127147141Y-118126643D01*
X127177000Y-117976528D01*
X127177000Y-117823472D01*
X127147141Y-117673357D01*
X127088569Y-117531952D01*
X127003536Y-117404691D01*
X126901289Y-117302444D01*
X126894736Y-117235906D01*
X126866031Y-117141279D01*
X126819417Y-117054070D01*
X126756684Y-116977631D01*
X126737532Y-116961913D01*
X126455715Y-116680096D01*
X126439997Y-116660944D01*
X126363558Y-116598211D01*
X126276349Y-116551597D01*
X126181722Y-116522892D01*
X126107966Y-116515628D01*
X126107956Y-116515628D01*
X126083313Y-116513201D01*
X126058670Y-116515628D01*
X125166362Y-116515628D01*
X125197161Y-116441273D01*
X125227020Y-116291158D01*
X125227020Y-116189417D01*
X126662774Y-116189417D01*
X126687417Y-116191844D01*
X126712060Y-116189417D01*
X126712070Y-116189417D01*
X126785826Y-116182153D01*
X126880453Y-116153448D01*
X126967662Y-116106834D01*
X127044101Y-116044101D01*
X127059819Y-116024949D01*
X127439359Y-115645409D01*
X127458505Y-115629696D01*
X127475530Y-115608952D01*
X127521237Y-115553258D01*
X127521238Y-115553257D01*
X127567852Y-115466048D01*
X127596557Y-115371421D01*
X127603821Y-115297665D01*
X127603821Y-115297655D01*
X127606248Y-115273012D01*
X127603821Y-115248369D01*
X127603821Y-114677613D01*
X127606248Y-114652970D01*
X127603821Y-114628327D01*
X127603821Y-114628318D01*
X127596557Y-114554562D01*
X127567852Y-114459935D01*
X127521238Y-114372726D01*
X127499813Y-114346620D01*
X127474220Y-114315435D01*
X127474218Y-114315433D01*
X127458505Y-114296287D01*
X127439359Y-114280574D01*
X126996239Y-113837455D01*
X126980524Y-113818306D01*
X126904085Y-113755573D01*
X126816876Y-113708959D01*
X126722249Y-113680254D01*
X126648493Y-113672990D01*
X126648483Y-113672990D01*
X126623840Y-113670563D01*
X126599197Y-113672990D01*
X125749652Y-113672990D01*
X125725009Y-113670563D01*
X125700366Y-113672990D01*
X125700357Y-113672990D01*
X125626601Y-113680254D01*
X125531974Y-113708959D01*
X125444765Y-113755573D01*
X125444763Y-113755574D01*
X125444764Y-113755574D01*
X125403086Y-113789779D01*
X125368326Y-113818306D01*
X125352613Y-113837452D01*
X124992066Y-114198000D01*
X124007935Y-114198000D01*
X123647389Y-113837455D01*
X123631674Y-113818306D01*
X123555235Y-113755573D01*
X123553172Y-113754471D01*
X124107913Y-113199731D01*
X124149843Y-113199731D01*
X124158018Y-113282739D01*
X124193091Y-113398357D01*
X124250045Y-113504911D01*
X124326693Y-113598307D01*
X124420089Y-113674955D01*
X124526643Y-113731909D01*
X124642261Y-113766982D01*
X124762500Y-113778824D01*
X125237500Y-113778824D01*
X125357739Y-113766982D01*
X125473357Y-113731909D01*
X125579911Y-113674955D01*
X125673307Y-113598307D01*
X125749955Y-113504911D01*
X125806909Y-113398357D01*
X125841982Y-113282739D01*
X125853824Y-113162500D01*
X125853824Y-112562500D01*
X125841982Y-112442261D01*
X125806909Y-112326643D01*
X125761580Y-112241838D01*
X125829494Y-112205537D01*
X125926185Y-112126185D01*
X126005537Y-112029494D01*
X126064502Y-111919180D01*
X126100812Y-111799482D01*
X126113072Y-111675000D01*
X126110000Y-111423250D01*
X125951250Y-111264500D01*
X125127000Y-111264500D01*
X125127000Y-111284500D01*
X124873000Y-111284500D01*
X124873000Y-111264500D01*
X124853000Y-111264500D01*
X124853000Y-111010500D01*
X124873000Y-111010500D01*
X124873000Y-110123750D01*
X125127000Y-110123750D01*
X125127000Y-111010500D01*
X125951250Y-111010500D01*
X126110000Y-110851750D01*
X126113072Y-110600000D01*
X126100812Y-110475518D01*
X126064502Y-110355820D01*
X126005537Y-110245506D01*
X125926185Y-110148815D01*
X125829494Y-110069463D01*
X125719180Y-110010498D01*
X125599482Y-109974188D01*
X125475000Y-109961928D01*
X125285750Y-109965000D01*
X125127000Y-110123750D01*
X124873000Y-110123750D01*
X124840481Y-110091231D01*
X124895299Y-110054602D01*
X125003526Y-109946375D01*
X125088559Y-109819114D01*
X125147131Y-109677709D01*
X125176990Y-109527594D01*
X125176990Y-109374538D01*
X125147131Y-109224423D01*
X125127000Y-109175823D01*
X125127000Y-108388072D01*
X125373000Y-108388072D01*
X125373000Y-109226250D01*
X125531750Y-109385000D01*
X125630813Y-109374519D01*
X125750137Y-109336999D01*
X125859848Y-109276920D01*
X125955731Y-109196593D01*
X125990112Y-109153824D01*
X127380000Y-109153824D01*
X127453905Y-109146545D01*
X127524970Y-109124988D01*
X127590463Y-109089981D01*
X127647869Y-109042869D01*
X127694981Y-108985463D01*
X127712867Y-108952000D01*
X127725347Y-108952000D01*
X127750000Y-108954428D01*
X127774653Y-108952000D01*
X127848409Y-108944736D01*
X127943036Y-108916031D01*
X128030245Y-108869417D01*
X128106684Y-108806684D01*
X128169417Y-108730245D01*
X128216031Y-108643036D01*
X128244736Y-108548409D01*
X128254428Y-108450000D01*
X128252000Y-108425347D01*
X128252000Y-107504231D01*
X128274653Y-107502000D01*
X128348409Y-107494736D01*
X128443036Y-107466031D01*
X128530245Y-107419417D01*
X128573000Y-107384328D01*
X128573001Y-117009156D01*
G37*
%TD.AperFunction*%
D39*
X116263748Y-115510858D02*
X116249605Y-115525000D01*
X116263748Y-115539143D01*
X116084143Y-115718748D01*
X116070000Y-115704605D01*
X115114192Y-116660413D01*
X115209956Y-116924814D01*
X115499571Y-117065704D01*
X115811108Y-117147384D01*
X116132595Y-117166718D01*
X116451675Y-117122961D01*
X116756088Y-117017795D01*
X116930044Y-116924814D01*
X117025807Y-116660415D01*
X117141475Y-116776083D01*
X117176901Y-116740657D01*
X117202580Y-116771947D01*
X117202583Y-116771950D01*
X117218296Y-116791096D01*
X117237442Y-116806809D01*
X117793170Y-117362538D01*
X117808883Y-117381684D01*
X117828029Y-117397397D01*
X117828032Y-117397400D01*
X117885321Y-117444417D01*
X117915359Y-117460473D01*
X117851891Y-117534633D01*
X117790663Y-117643706D01*
X117751891Y-117762629D01*
X117740000Y-117866250D01*
X117898750Y-118025000D01*
X117740000Y-118183750D01*
X117751891Y-118287371D01*
X117790663Y-118406294D01*
X117851891Y-118515367D01*
X117933223Y-118610400D01*
X118031531Y-118687740D01*
X118143038Y-118744415D01*
X118173000Y-118752833D01*
X118173000Y-119600000D01*
X118175440Y-119624776D01*
X118182667Y-119648601D01*
X118194403Y-119670557D01*
X118210197Y-119689803D01*
X118220186Y-119698000D01*
X117807936Y-119698000D01*
X114612289Y-116502355D01*
X114681950Y-116398101D01*
X114685118Y-116390452D01*
X114934587Y-116480808D01*
X115421804Y-115993591D01*
X115517109Y-115964681D01*
X115571965Y-115961410D01*
X115693380Y-115931336D01*
X115806595Y-115878153D01*
X115907259Y-115803905D01*
X115991503Y-115711445D01*
X116056091Y-115604326D01*
X116081632Y-115533531D01*
X116106918Y-115534707D01*
X116230599Y-115516028D01*
X116258759Y-115505869D01*
X116263748Y-115510858D01*
%TA.AperFunction,Conductor*%
D40*
G36*
X116263748Y-115510858D02*
G01*
X116249605Y-115525000D01*
X116263748Y-115539143D01*
X116084143Y-115718748D01*
X116070000Y-115704605D01*
X115114192Y-116660413D01*
X115209956Y-116924814D01*
X115499571Y-117065704D01*
X115811108Y-117147384D01*
X116132595Y-117166718D01*
X116451675Y-117122961D01*
X116756088Y-117017795D01*
X116930044Y-116924814D01*
X117025807Y-116660415D01*
X117141475Y-116776083D01*
X117176901Y-116740657D01*
X117202580Y-116771947D01*
X117202583Y-116771950D01*
X117218296Y-116791096D01*
X117237442Y-116806809D01*
X117793170Y-117362538D01*
X117808883Y-117381684D01*
X117828029Y-117397397D01*
X117828032Y-117397400D01*
X117885321Y-117444417D01*
X117915359Y-117460473D01*
X117851891Y-117534633D01*
X117790663Y-117643706D01*
X117751891Y-117762629D01*
X117740000Y-117866250D01*
X117898750Y-118025000D01*
X117740000Y-118183750D01*
X117751891Y-118287371D01*
X117790663Y-118406294D01*
X117851891Y-118515367D01*
X117933223Y-118610400D01*
X118031531Y-118687740D01*
X118143038Y-118744415D01*
X118173000Y-118752833D01*
X118173000Y-119600000D01*
X118175440Y-119624776D01*
X118182667Y-119648601D01*
X118194403Y-119670557D01*
X118210197Y-119689803D01*
X118220186Y-119698000D01*
X117807936Y-119698000D01*
X114612289Y-116502355D01*
X114681950Y-116398101D01*
X114685118Y-116390452D01*
X114934587Y-116480808D01*
X115421804Y-115993591D01*
X115517109Y-115964681D01*
X115571965Y-115961410D01*
X115693380Y-115931336D01*
X115806595Y-115878153D01*
X115907259Y-115803905D01*
X115991503Y-115711445D01*
X116056091Y-115604326D01*
X116081632Y-115533531D01*
X116106918Y-115534707D01*
X116230599Y-115516028D01*
X116258759Y-115505869D01*
X116263748Y-115510858D01*
G37*
%TD.AperFunction*%
D39*
X112672000Y-111073000D02*
X112692000Y-111073000D01*
X112692000Y-111327000D01*
X112672000Y-111327000D01*
X112672000Y-111347000D01*
X112418000Y-111347000D01*
X112418000Y-111327000D01*
X112398000Y-111327000D01*
X112398000Y-111073000D01*
X112418000Y-111073000D01*
X112418000Y-108289973D01*
X112453905Y-108257259D01*
X112460493Y-108248328D01*
X112523747Y-108225919D01*
X112661157Y-108152472D01*
X112672000Y-108117685D01*
X112672000Y-111073000D01*
%TA.AperFunction,Conductor*%
D40*
G36*
X112672000Y-111073000D02*
G01*
X112692000Y-111073000D01*
X112692000Y-111327000D01*
X112672000Y-111327000D01*
X112672000Y-111347000D01*
X112418000Y-111347000D01*
X112418000Y-111327000D01*
X112398000Y-111327000D01*
X112398000Y-111073000D01*
X112418000Y-111073000D01*
X112418000Y-108289973D01*
X112453905Y-108257259D01*
X112460493Y-108248328D01*
X112523747Y-108225919D01*
X112661157Y-108152472D01*
X112672000Y-108117685D01*
X112672000Y-111073000D01*
G37*
%TD.AperFunction*%
D39*
X121470089Y-108749955D02*
X121576643Y-108806909D01*
X121692261Y-108841982D01*
X121812500Y-108853824D01*
X122412500Y-108853824D01*
X122532739Y-108841982D01*
X122648357Y-108806909D01*
X122741176Y-108757296D01*
X122741176Y-108775000D01*
X122748455Y-108848905D01*
X122770012Y-108919970D01*
X122805019Y-108985463D01*
X122852131Y-109042869D01*
X122909537Y-109089981D01*
X122975030Y-109124988D01*
X123046095Y-109146545D01*
X123120000Y-109153824D01*
X123439161Y-109153824D01*
X123480584Y-109231321D01*
X123527601Y-109288611D01*
X123527604Y-109288614D01*
X123543317Y-109307760D01*
X123562462Y-109323472D01*
X123622990Y-109384000D01*
X123622990Y-109527594D01*
X123652849Y-109677709D01*
X123711421Y-109819114D01*
X123796454Y-109946375D01*
X123904681Y-110054602D01*
X124031942Y-110139635D01*
X124068815Y-110154908D01*
X123994463Y-110245506D01*
X123935498Y-110355820D01*
X123899188Y-110475518D01*
X123888987Y-110579099D01*
X122503943Y-109194056D01*
X122488230Y-109174910D01*
X122469082Y-109159195D01*
X122469081Y-109159194D01*
X122442689Y-109137535D01*
X122411791Y-109112177D01*
X122324582Y-109065563D01*
X122229955Y-109036858D01*
X122156199Y-109029594D01*
X122156189Y-109029594D01*
X122131546Y-109027167D01*
X122106903Y-109029594D01*
X121056236Y-109029594D01*
X121054392Y-109029412D01*
X121173942Y-108965512D01*
X121306623Y-108856623D01*
X121415512Y-108723942D01*
X121422488Y-108710890D01*
X121470089Y-108749955D01*
%TA.AperFunction,Conductor*%
D40*
G36*
X121470089Y-108749955D02*
G01*
X121576643Y-108806909D01*
X121692261Y-108841982D01*
X121812500Y-108853824D01*
X122412500Y-108853824D01*
X122532739Y-108841982D01*
X122648357Y-108806909D01*
X122741176Y-108757296D01*
X122741176Y-108775000D01*
X122748455Y-108848905D01*
X122770012Y-108919970D01*
X122805019Y-108985463D01*
X122852131Y-109042869D01*
X122909537Y-109089981D01*
X122975030Y-109124988D01*
X123046095Y-109146545D01*
X123120000Y-109153824D01*
X123439161Y-109153824D01*
X123480584Y-109231321D01*
X123527601Y-109288611D01*
X123527604Y-109288614D01*
X123543317Y-109307760D01*
X123562462Y-109323472D01*
X123622990Y-109384000D01*
X123622990Y-109527594D01*
X123652849Y-109677709D01*
X123711421Y-109819114D01*
X123796454Y-109946375D01*
X123904681Y-110054602D01*
X124031942Y-110139635D01*
X124068815Y-110154908D01*
X123994463Y-110245506D01*
X123935498Y-110355820D01*
X123899188Y-110475518D01*
X123888987Y-110579099D01*
X122503943Y-109194056D01*
X122488230Y-109174910D01*
X122469082Y-109159195D01*
X122469081Y-109159194D01*
X122442689Y-109137535D01*
X122411791Y-109112177D01*
X122324582Y-109065563D01*
X122229955Y-109036858D01*
X122156199Y-109029594D01*
X122156189Y-109029594D01*
X122131546Y-109027167D01*
X122106903Y-109029594D01*
X121056236Y-109029594D01*
X121054392Y-109029412D01*
X121173942Y-108965512D01*
X121306623Y-108856623D01*
X121415512Y-108723942D01*
X121422488Y-108710890D01*
X121470089Y-108749955D01*
G37*
%TD.AperFunction*%
D39*
X118979494Y-101559872D02*
X118928983Y-101726384D01*
X118911928Y-101899550D01*
X118911928Y-102550450D01*
X118928983Y-102723616D01*
X118979494Y-102890128D01*
X119057695Y-103036432D01*
X118976643Y-103002859D01*
X118826528Y-102973000D01*
X118673472Y-102973000D01*
X118523357Y-103002859D01*
X118381952Y-103061431D01*
X118254691Y-103146464D01*
X118146464Y-103254691D01*
X118061431Y-103381952D01*
X118002859Y-103523357D01*
X117973000Y-103673472D01*
X117973000Y-103826528D01*
X118002859Y-103976643D01*
X118061431Y-104118048D01*
X118146464Y-104245309D01*
X118254691Y-104353536D01*
X118381952Y-104438569D01*
X118523357Y-104497141D01*
X118673472Y-104527000D01*
X118817065Y-104527000D01*
X118902601Y-104612536D01*
X118913838Y-104626228D01*
X118837477Y-104702589D01*
X118818326Y-104718306D01*
X118755593Y-104794745D01*
X118708979Y-104881955D01*
X118680274Y-104976582D01*
X118673010Y-105050338D01*
X118673010Y-105050347D01*
X118670583Y-105074990D01*
X118673010Y-105099633D01*
X118673011Y-109150357D01*
X118670583Y-109175010D01*
X118680275Y-109273419D01*
X118708980Y-109368046D01*
X118755594Y-109455255D01*
X118802611Y-109512545D01*
X118802614Y-109512548D01*
X118818327Y-109531694D01*
X118837473Y-109547407D01*
X119238065Y-109948000D01*
X117608824Y-109948000D01*
X117608824Y-109935510D01*
X117673036Y-109916031D01*
X117760245Y-109869417D01*
X117836684Y-109806684D01*
X117852401Y-109787533D01*
X118262528Y-109377407D01*
X118281674Y-109361694D01*
X118344407Y-109285255D01*
X118391021Y-109198046D01*
X118419726Y-109103419D01*
X118426990Y-109029663D01*
X118426990Y-109029653D01*
X118429417Y-109005010D01*
X118426990Y-108980367D01*
X118426990Y-106798059D01*
X118429417Y-106773414D01*
X118426990Y-106748768D01*
X118426990Y-106748761D01*
X118419726Y-106675005D01*
X118419726Y-106675004D01*
X118391021Y-106580377D01*
X118344407Y-106493168D01*
X118297390Y-106435879D01*
X118297387Y-106435876D01*
X118281674Y-106416730D01*
X118262528Y-106401017D01*
X116273978Y-104412467D01*
X116258260Y-104393316D01*
X116181821Y-104330583D01*
X116094612Y-104283969D01*
X115999985Y-104255264D01*
X115926229Y-104248000D01*
X115926219Y-104248000D01*
X115901576Y-104245573D01*
X115876933Y-104248000D01*
X114366599Y-104248000D01*
X114324955Y-104170089D01*
X114248307Y-104076693D01*
X114154911Y-104000045D01*
X114048357Y-103943091D01*
X113932739Y-103908018D01*
X113812500Y-103896176D01*
X113312500Y-103896176D01*
X113192261Y-103908018D01*
X113076643Y-103943091D01*
X112970089Y-104000045D01*
X112876693Y-104076693D01*
X112841446Y-104119642D01*
X112814502Y-104030820D01*
X112755537Y-103920506D01*
X112676185Y-103823815D01*
X112579494Y-103744463D01*
X112469180Y-103685498D01*
X112349482Y-103649188D01*
X112225000Y-103636928D01*
X112023250Y-103640000D01*
X111864500Y-103798750D01*
X111864500Y-104623000D01*
X111884500Y-104623000D01*
X111884500Y-104877000D01*
X111864500Y-104877000D01*
X111864500Y-104897000D01*
X111610500Y-104897000D01*
X111610500Y-104877000D01*
X110773750Y-104877000D01*
X110615000Y-105035750D01*
X110611928Y-105225000D01*
X110624188Y-105349482D01*
X110660498Y-105469180D01*
X110719463Y-105579494D01*
X110798815Y-105676185D01*
X110895506Y-105755537D01*
X111005820Y-105814502D01*
X111047292Y-105827083D01*
X111041208Y-105846603D01*
X111588767Y-106394162D01*
X111229108Y-106393713D01*
X110861603Y-106026208D01*
X110612528Y-106103843D01*
X110486629Y-106367883D01*
X110480310Y-106392778D01*
X110427000Y-106392711D01*
X110427000Y-104275000D01*
X110611928Y-104275000D01*
X110615000Y-104464250D01*
X110773750Y-104623000D01*
X111610500Y-104623000D01*
X111610500Y-103798750D01*
X111451750Y-103640000D01*
X111250000Y-103636928D01*
X111125518Y-103649188D01*
X111005820Y-103685498D01*
X110895506Y-103744463D01*
X110798815Y-103823815D01*
X110719463Y-103920506D01*
X110660498Y-104030820D01*
X110624188Y-104150518D01*
X110611928Y-104275000D01*
X110427000Y-104275000D01*
X110427000Y-102775000D01*
X110611928Y-102775000D01*
X110624188Y-102899482D01*
X110660498Y-103019180D01*
X110719463Y-103129494D01*
X110798815Y-103226185D01*
X110895506Y-103305537D01*
X111005820Y-103364502D01*
X111125518Y-103400812D01*
X111250000Y-103413072D01*
X111451750Y-103410000D01*
X111610500Y-103251250D01*
X111610500Y-102427000D01*
X110773750Y-102427000D01*
X110615000Y-102585750D01*
X110611928Y-102775000D01*
X110427000Y-102775000D01*
X110427000Y-102020883D01*
X110439922Y-101889100D01*
X110472129Y-101782427D01*
X110524442Y-101684039D01*
X110594868Y-101597689D01*
X110680728Y-101526658D01*
X110692993Y-101520026D01*
X110660498Y-101580820D01*
X110624188Y-101700518D01*
X110611928Y-101825000D01*
X110615000Y-102014250D01*
X110773750Y-102173000D01*
X111610500Y-102173000D01*
X111610500Y-102153000D01*
X111864500Y-102153000D01*
X111864500Y-102173000D01*
X111884500Y-102173000D01*
X111884500Y-102427000D01*
X111864500Y-102427000D01*
X111864500Y-103251250D01*
X112023250Y-103410000D01*
X112225000Y-103413072D01*
X112349482Y-103400812D01*
X112469180Y-103364502D01*
X112579494Y-103305537D01*
X112676185Y-103226185D01*
X112755537Y-103129494D01*
X112814502Y-103019180D01*
X112841446Y-102930358D01*
X112876693Y-102973307D01*
X112970089Y-103049955D01*
X113076643Y-103106909D01*
X113192261Y-103141982D01*
X113312500Y-103153824D01*
X113812500Y-103153824D01*
X113932739Y-103141982D01*
X114048357Y-103106909D01*
X114067555Y-103096647D01*
X114098924Y-103102887D01*
X114251980Y-103102887D01*
X114402095Y-103073028D01*
X114543500Y-103014456D01*
X114670761Y-102929423D01*
X114778988Y-102821196D01*
X114864021Y-102693935D01*
X114922593Y-102552530D01*
X114952452Y-102402415D01*
X114952452Y-102249359D01*
X114922593Y-102099244D01*
X114864021Y-101957839D01*
X114778988Y-101830578D01*
X114670761Y-101722351D01*
X114543500Y-101637318D01*
X114402095Y-101578746D01*
X114251980Y-101548887D01*
X114152745Y-101548887D01*
X114048357Y-101493091D01*
X113932739Y-101458018D01*
X113812500Y-101446176D01*
X113312500Y-101446176D01*
X113192261Y-101458018D01*
X113076643Y-101493091D01*
X112970089Y-101550045D01*
X112876693Y-101626693D01*
X112841446Y-101669642D01*
X112814502Y-101580820D01*
X112755537Y-101470506D01*
X112719833Y-101427000D01*
X119050516Y-101427000D01*
X118979494Y-101559872D01*
%TA.AperFunction,Conductor*%
D40*
G36*
X118979494Y-101559872D02*
G01*
X118928983Y-101726384D01*
X118911928Y-101899550D01*
X118911928Y-102550450D01*
X118928983Y-102723616D01*
X118979494Y-102890128D01*
X119057695Y-103036432D01*
X118976643Y-103002859D01*
X118826528Y-102973000D01*
X118673472Y-102973000D01*
X118523357Y-103002859D01*
X118381952Y-103061431D01*
X118254691Y-103146464D01*
X118146464Y-103254691D01*
X118061431Y-103381952D01*
X118002859Y-103523357D01*
X117973000Y-103673472D01*
X117973000Y-103826528D01*
X118002859Y-103976643D01*
X118061431Y-104118048D01*
X118146464Y-104245309D01*
X118254691Y-104353536D01*
X118381952Y-104438569D01*
X118523357Y-104497141D01*
X118673472Y-104527000D01*
X118817065Y-104527000D01*
X118902601Y-104612536D01*
X118913838Y-104626228D01*
X118837477Y-104702589D01*
X118818326Y-104718306D01*
X118755593Y-104794745D01*
X118708979Y-104881955D01*
X118680274Y-104976582D01*
X118673010Y-105050338D01*
X118673010Y-105050347D01*
X118670583Y-105074990D01*
X118673010Y-105099633D01*
X118673011Y-109150357D01*
X118670583Y-109175010D01*
X118680275Y-109273419D01*
X118708980Y-109368046D01*
X118755594Y-109455255D01*
X118802611Y-109512545D01*
X118802614Y-109512548D01*
X118818327Y-109531694D01*
X118837473Y-109547407D01*
X119238065Y-109948000D01*
X117608824Y-109948000D01*
X117608824Y-109935510D01*
X117673036Y-109916031D01*
X117760245Y-109869417D01*
X117836684Y-109806684D01*
X117852401Y-109787533D01*
X118262528Y-109377407D01*
X118281674Y-109361694D01*
X118344407Y-109285255D01*
X118391021Y-109198046D01*
X118419726Y-109103419D01*
X118426990Y-109029663D01*
X118426990Y-109029653D01*
X118429417Y-109005010D01*
X118426990Y-108980367D01*
X118426990Y-106798059D01*
X118429417Y-106773414D01*
X118426990Y-106748768D01*
X118426990Y-106748761D01*
X118419726Y-106675005D01*
X118419726Y-106675004D01*
X118391021Y-106580377D01*
X118344407Y-106493168D01*
X118297390Y-106435879D01*
X118297387Y-106435876D01*
X118281674Y-106416730D01*
X118262528Y-106401017D01*
X116273978Y-104412467D01*
X116258260Y-104393316D01*
X116181821Y-104330583D01*
X116094612Y-104283969D01*
X115999985Y-104255264D01*
X115926229Y-104248000D01*
X115926219Y-104248000D01*
X115901576Y-104245573D01*
X115876933Y-104248000D01*
X114366599Y-104248000D01*
X114324955Y-104170089D01*
X114248307Y-104076693D01*
X114154911Y-104000045D01*
X114048357Y-103943091D01*
X113932739Y-103908018D01*
X113812500Y-103896176D01*
X113312500Y-103896176D01*
X113192261Y-103908018D01*
X113076643Y-103943091D01*
X112970089Y-104000045D01*
X112876693Y-104076693D01*
X112841446Y-104119642D01*
X112814502Y-104030820D01*
X112755537Y-103920506D01*
X112676185Y-103823815D01*
X112579494Y-103744463D01*
X112469180Y-103685498D01*
X112349482Y-103649188D01*
X112225000Y-103636928D01*
X112023250Y-103640000D01*
X111864500Y-103798750D01*
X111864500Y-104623000D01*
X111884500Y-104623000D01*
X111884500Y-104877000D01*
X111864500Y-104877000D01*
X111864500Y-104897000D01*
X111610500Y-104897000D01*
X111610500Y-104877000D01*
X110773750Y-104877000D01*
X110615000Y-105035750D01*
X110611928Y-105225000D01*
X110624188Y-105349482D01*
X110660498Y-105469180D01*
X110719463Y-105579494D01*
X110798815Y-105676185D01*
X110895506Y-105755537D01*
X111005820Y-105814502D01*
X111047292Y-105827083D01*
X111041208Y-105846603D01*
X111588767Y-106394162D01*
X111229108Y-106393713D01*
X110861603Y-106026208D01*
X110612528Y-106103843D01*
X110486629Y-106367883D01*
X110480310Y-106392778D01*
X110427000Y-106392711D01*
X110427000Y-104275000D01*
X110611928Y-104275000D01*
X110615000Y-104464250D01*
X110773750Y-104623000D01*
X111610500Y-104623000D01*
X111610500Y-103798750D01*
X111451750Y-103640000D01*
X111250000Y-103636928D01*
X111125518Y-103649188D01*
X111005820Y-103685498D01*
X110895506Y-103744463D01*
X110798815Y-103823815D01*
X110719463Y-103920506D01*
X110660498Y-104030820D01*
X110624188Y-104150518D01*
X110611928Y-104275000D01*
X110427000Y-104275000D01*
X110427000Y-102775000D01*
X110611928Y-102775000D01*
X110624188Y-102899482D01*
X110660498Y-103019180D01*
X110719463Y-103129494D01*
X110798815Y-103226185D01*
X110895506Y-103305537D01*
X111005820Y-103364502D01*
X111125518Y-103400812D01*
X111250000Y-103413072D01*
X111451750Y-103410000D01*
X111610500Y-103251250D01*
X111610500Y-102427000D01*
X110773750Y-102427000D01*
X110615000Y-102585750D01*
X110611928Y-102775000D01*
X110427000Y-102775000D01*
X110427000Y-102020883D01*
X110439922Y-101889100D01*
X110472129Y-101782427D01*
X110524442Y-101684039D01*
X110594868Y-101597689D01*
X110680728Y-101526658D01*
X110692993Y-101520026D01*
X110660498Y-101580820D01*
X110624188Y-101700518D01*
X110611928Y-101825000D01*
X110615000Y-102014250D01*
X110773750Y-102173000D01*
X111610500Y-102173000D01*
X111610500Y-102153000D01*
X111864500Y-102153000D01*
X111864500Y-102173000D01*
X111884500Y-102173000D01*
X111884500Y-102427000D01*
X111864500Y-102427000D01*
X111864500Y-103251250D01*
X112023250Y-103410000D01*
X112225000Y-103413072D01*
X112349482Y-103400812D01*
X112469180Y-103364502D01*
X112579494Y-103305537D01*
X112676185Y-103226185D01*
X112755537Y-103129494D01*
X112814502Y-103019180D01*
X112841446Y-102930358D01*
X112876693Y-102973307D01*
X112970089Y-103049955D01*
X113076643Y-103106909D01*
X113192261Y-103141982D01*
X113312500Y-103153824D01*
X113812500Y-103153824D01*
X113932739Y-103141982D01*
X114048357Y-103106909D01*
X114067555Y-103096647D01*
X114098924Y-103102887D01*
X114251980Y-103102887D01*
X114402095Y-103073028D01*
X114543500Y-103014456D01*
X114670761Y-102929423D01*
X114778988Y-102821196D01*
X114864021Y-102693935D01*
X114922593Y-102552530D01*
X114952452Y-102402415D01*
X114952452Y-102249359D01*
X114922593Y-102099244D01*
X114864021Y-101957839D01*
X114778988Y-101830578D01*
X114670761Y-101722351D01*
X114543500Y-101637318D01*
X114402095Y-101578746D01*
X114251980Y-101548887D01*
X114152745Y-101548887D01*
X114048357Y-101493091D01*
X113932739Y-101458018D01*
X113812500Y-101446176D01*
X113312500Y-101446176D01*
X113192261Y-101458018D01*
X113076643Y-101493091D01*
X112970089Y-101550045D01*
X112876693Y-101626693D01*
X112841446Y-101669642D01*
X112814502Y-101580820D01*
X112755537Y-101470506D01*
X112719833Y-101427000D01*
X119050516Y-101427000D01*
X118979494Y-101559872D01*
G37*
%TD.AperFunction*%
D39*
X119916684Y-109096248D02*
X120087500Y-109113072D01*
X120687500Y-109113072D01*
X120763719Y-109105565D01*
X120751349Y-109112177D01*
X120735739Y-109124988D01*
X120694060Y-109159194D01*
X120674910Y-109174910D01*
X120659197Y-109194056D01*
X120355254Y-109498000D01*
X120207935Y-109498000D01*
X119758066Y-109048132D01*
X119916684Y-109096248D01*
%TA.AperFunction,Conductor*%
D40*
G36*
X119916684Y-109096248D02*
G01*
X120087500Y-109113072D01*
X120687500Y-109113072D01*
X120763719Y-109105565D01*
X120751349Y-109112177D01*
X120735739Y-109124988D01*
X120694060Y-109159194D01*
X120674910Y-109174910D01*
X120659197Y-109194056D01*
X120355254Y-109498000D01*
X120207935Y-109498000D01*
X119758066Y-109048132D01*
X119916684Y-109096248D01*
G37*
%TD.AperFunction*%
D39*
X115715020Y-105273378D02*
X115688325Y-105277039D01*
X115383912Y-105382205D01*
X115209956Y-105475186D01*
X115114192Y-105739587D01*
X116070000Y-106695395D01*
X116084143Y-106681253D01*
X116263748Y-106860858D01*
X116249605Y-106875000D01*
X116276438Y-106901833D01*
X116166918Y-106885293D01*
X116076335Y-106889505D01*
X116046091Y-106805674D01*
X115981503Y-106698555D01*
X115897259Y-106606095D01*
X115796595Y-106531847D01*
X115683380Y-106478664D01*
X115561965Y-106448590D01*
X115547731Y-106447741D01*
X115534180Y-106440498D01*
X115421804Y-106406409D01*
X114934587Y-105919192D01*
X114670186Y-106014956D01*
X114529296Y-106304571D01*
X114506136Y-106392907D01*
X113295180Y-106394420D01*
X113240919Y-106241253D01*
X113167472Y-106103843D01*
X112918397Y-106026208D01*
X112404428Y-106540178D01*
X112259250Y-106395000D01*
X112190481Y-106394914D01*
X112738792Y-105846603D01*
X112683062Y-105667805D01*
X112755537Y-105579494D01*
X112814502Y-105469180D01*
X112841446Y-105380358D01*
X112876693Y-105423307D01*
X112970089Y-105499955D01*
X113076643Y-105556909D01*
X113192261Y-105591982D01*
X113312500Y-105603824D01*
X113812500Y-105603824D01*
X113932739Y-105591982D01*
X114048357Y-105556909D01*
X114154911Y-105499955D01*
X114248307Y-105423307D01*
X114324955Y-105329911D01*
X114366599Y-105252000D01*
X115693642Y-105252000D01*
X115715020Y-105273378D01*
%TA.AperFunction,Conductor*%
D40*
G36*
X115715020Y-105273378D02*
G01*
X115688325Y-105277039D01*
X115383912Y-105382205D01*
X115209956Y-105475186D01*
X115114192Y-105739587D01*
X116070000Y-106695395D01*
X116084143Y-106681253D01*
X116263748Y-106860858D01*
X116249605Y-106875000D01*
X116276438Y-106901833D01*
X116166918Y-106885293D01*
X116076335Y-106889505D01*
X116046091Y-106805674D01*
X115981503Y-106698555D01*
X115897259Y-106606095D01*
X115796595Y-106531847D01*
X115683380Y-106478664D01*
X115561965Y-106448590D01*
X115547731Y-106447741D01*
X115534180Y-106440498D01*
X115421804Y-106406409D01*
X114934587Y-105919192D01*
X114670186Y-106014956D01*
X114529296Y-106304571D01*
X114506136Y-106392907D01*
X113295180Y-106394420D01*
X113240919Y-106241253D01*
X113167472Y-106103843D01*
X112918397Y-106026208D01*
X112404428Y-106540178D01*
X112259250Y-106395000D01*
X112190481Y-106394914D01*
X112738792Y-105846603D01*
X112683062Y-105667805D01*
X112755537Y-105579494D01*
X112814502Y-105469180D01*
X112841446Y-105380358D01*
X112876693Y-105423307D01*
X112970089Y-105499955D01*
X113076643Y-105556909D01*
X113192261Y-105591982D01*
X113312500Y-105603824D01*
X113812500Y-105603824D01*
X113932739Y-105591982D01*
X114048357Y-105556909D01*
X114154911Y-105499955D01*
X114248307Y-105423307D01*
X114324955Y-105329911D01*
X114366599Y-105252000D01*
X115693642Y-105252000D01*
X115715020Y-105273378D01*
G37*
%TD.AperFunction*%
%TD*%
M02*
