%TF.GenerationSoftware,KiCad,Pcbnew,(5.1.9-0-10_14)*%
%TF.CreationDate,2021-03-26T17:39:56+00:00*%
%TF.ProjectId,Generic,47656e65-7269-4632-9e6b-696361645f70,2*%
%TF.SameCoordinates,Original*%
%TF.FileFunction,Soldermask,Top*%
%TF.FilePolarity,Negative*%
%FSLAX46Y46*%
G04 Gerber Fmt 4.6, Leading zero omitted, Abs format (unit mm)*
G04 Created by KiCad (PCBNEW (5.1.9-0-10_14)) date 2021-03-26 17:39:56*
%MOMM*%
%LPD*%
G01*
G04 APERTURE LIST*
%ADD10C,1.524000*%
%ADD11O,1.700000X1.700000*%
%ADD12R,1.700000X1.700000*%
%ADD13C,1.700000*%
%ADD14R,1.524000X1.524000*%
%ADD15C,2.000000*%
%ADD16C,0.600000*%
%ADD17R,2.000000X0.900000*%
%ADD18R,0.900000X2.000000*%
%ADD19R,5.000000X5.000000*%
%ADD20O,1.700000X1.850000*%
G04 APERTURE END LIST*
D10*
%TO.C,U2*%
X123350000Y-115250000D03*
%TD*%
D11*
%TO.C,J3*%
X114700000Y-123160000D03*
D12*
X114700000Y-125700000D03*
%TD*%
D13*
%TO.C,M1*%
X122560000Y-111150000D03*
D14*
X125100000Y-111150000D03*
D13*
X127640000Y-111150000D03*
%TD*%
%TO.C,J2*%
X114390000Y-104375000D03*
X114390000Y-113025000D03*
D15*
X118570000Y-104375000D03*
X118570000Y-113025000D03*
D16*
X118090000Y-105810000D03*
X118090000Y-111590000D03*
%TD*%
D17*
%TO.C,U1*%
X130500000Y-99795000D03*
X130500000Y-101065000D03*
X130500000Y-102335000D03*
X130500000Y-103605000D03*
X130500000Y-104875000D03*
X130500000Y-106145000D03*
X130500000Y-107415000D03*
X130500000Y-108685000D03*
X130500000Y-109955000D03*
X130500000Y-111225000D03*
X130500000Y-112495000D03*
X130500000Y-113765000D03*
X130500000Y-115035000D03*
X130500000Y-116305000D03*
D18*
X127715000Y-117305000D03*
X126445000Y-117305000D03*
X125175000Y-117305000D03*
X123905000Y-117305000D03*
X122635000Y-117305000D03*
X121365000Y-117305000D03*
X120095000Y-117305000D03*
X118825000Y-117305000D03*
X117555000Y-117305000D03*
X116285000Y-117305000D03*
D17*
X113500000Y-116305000D03*
X113500000Y-115035000D03*
X113500000Y-113765000D03*
X113500000Y-112495000D03*
X113500000Y-111225000D03*
X113500000Y-109955000D03*
X113500000Y-108685000D03*
X113500000Y-107415000D03*
X113500000Y-106145000D03*
X113500000Y-104875000D03*
X113500000Y-103605000D03*
X113500000Y-102335000D03*
X113500000Y-101065000D03*
X113500000Y-99795000D03*
D19*
X121000000Y-107295000D03*
%TD*%
D20*
%TO.C,J1*%
X128230000Y-120400000D03*
X125730000Y-120400000D03*
X123230000Y-120400000D03*
X120730000Y-120400000D03*
X118230000Y-120400000D03*
G36*
G01*
X114880000Y-121075000D02*
X114880000Y-119725000D01*
G75*
G02*
X115130000Y-119475000I250000J0D01*
G01*
X116330000Y-119475000D01*
G75*
G02*
X116580000Y-119725000I0J-250000D01*
G01*
X116580000Y-121075000D01*
G75*
G02*
X116330000Y-121325000I-250000J0D01*
G01*
X115130000Y-121325000D01*
G75*
G02*
X114880000Y-121075000I0J250000D01*
G01*
G37*
%TD*%
M02*
