%TF.GenerationSoftware,KiCad,Pcbnew,(5.1.9-0-10_14)*%
%TF.CreationDate,2021-03-07T19:10:49+00:00*%
%TF.ProjectId,Generic,47656e65-7269-4632-9e6b-696361645f70,rev?*%
%TF.SameCoordinates,Original*%
%TF.FileFunction,Legend,Bot*%
%TF.FilePolarity,Positive*%
%FSLAX46Y46*%
G04 Gerber Fmt 4.6, Leading zero omitted, Abs format (unit mm)*
G04 Created by KiCad (PCBNEW (5.1.9-0-10_14)) date 2021-03-07 19:10:49*
%MOMM*%
%LPD*%
G01*
G04 APERTURE LIST*
%ADD10C,0.150000*%
%ADD11C,0.120000*%
G04 APERTURE END LIST*
D10*
X113635714Y-118692857D02*
X114302380Y-118883333D01*
X113826190Y-119073809D01*
X114302380Y-119264285D01*
X113635714Y-119454761D01*
X113635714Y-119740476D02*
X114302380Y-119930952D01*
X113826190Y-120121428D01*
X114302380Y-120311904D01*
X113635714Y-120502380D01*
X113635714Y-120788095D02*
X114302380Y-120978571D01*
X113826190Y-121169047D01*
X114302380Y-121359523D01*
X113635714Y-121550000D01*
X114207142Y-121930952D02*
X114254761Y-121978571D01*
X114302380Y-121930952D01*
X114254761Y-121883333D01*
X114207142Y-121930952D01*
X114302380Y-121930952D01*
X114302380Y-122407142D02*
X113635714Y-122407142D01*
X113730952Y-122407142D02*
X113683333Y-122454761D01*
X113635714Y-122550000D01*
X113635714Y-122692857D01*
X113683333Y-122788095D01*
X113778571Y-122835714D01*
X114302380Y-122835714D01*
X113778571Y-122835714D02*
X113683333Y-122883333D01*
X113635714Y-122978571D01*
X113635714Y-123121428D01*
X113683333Y-123216666D01*
X113778571Y-123264285D01*
X114302380Y-123264285D01*
X114254761Y-124121428D02*
X114302380Y-124026190D01*
X114302380Y-123835714D01*
X114254761Y-123740476D01*
X114159523Y-123692857D01*
X113778571Y-123692857D01*
X113683333Y-123740476D01*
X113635714Y-123835714D01*
X113635714Y-124026190D01*
X113683333Y-124121428D01*
X113778571Y-124169047D01*
X113873809Y-124169047D01*
X113969047Y-123692857D01*
X114207142Y-124597619D02*
X114254761Y-124645238D01*
X114302380Y-124597619D01*
X114254761Y-124550000D01*
X114207142Y-124597619D01*
X114302380Y-124597619D01*
X113635714Y-125502380D02*
X114302380Y-125502380D01*
X113635714Y-125073809D02*
X114159523Y-125073809D01*
X114254761Y-125121428D01*
X114302380Y-125216666D01*
X114302380Y-125359523D01*
X114254761Y-125454761D01*
X114207142Y-125502380D01*
X114302380Y-125978571D02*
X113302380Y-125978571D01*
X113921428Y-126073809D02*
X114302380Y-126359523D01*
X113635714Y-126359523D02*
X114016666Y-125978571D01*
D11*
%TO.C,M1*%
X121290000Y-112420000D02*
X131450000Y-112420000D01*
X121290000Y-99720000D02*
X121290000Y-112420000D01*
X131450000Y-99720000D02*
X121290000Y-99720000D01*
X131450000Y-112420000D02*
X131450000Y-99720000D01*
%TO.C,R5*%
X129410000Y-124977064D02*
X129410000Y-123522936D01*
X127590000Y-124977064D02*
X127590000Y-123522936D01*
%TO.C,R4*%
X126910000Y-124977064D02*
X126910000Y-123522936D01*
X125090000Y-124977064D02*
X125090000Y-123522936D01*
%TO.C,R3*%
X124410000Y-124977064D02*
X124410000Y-123522936D01*
X122590000Y-124977064D02*
X122590000Y-123522936D01*
%TO.C,R2*%
X121910000Y-124977064D02*
X121910000Y-123522936D01*
X120090000Y-124977064D02*
X120090000Y-123522936D01*
%TO.C,R1*%
X119410000Y-124977064D02*
X119410000Y-123522936D01*
X117590000Y-124977064D02*
X117590000Y-123522936D01*
%TO.C,J2*%
X111810000Y-113170000D02*
X111810000Y-104230000D01*
X119160000Y-104230000D02*
X111810000Y-104230000D01*
X119160000Y-113170000D02*
X119160000Y-104230000D01*
X111810000Y-113170000D02*
X119160000Y-113170000D01*
%TO.C,U2*%
X125460000Y-116635000D02*
X125460000Y-117360000D01*
X121240000Y-113140000D02*
X121965000Y-113140000D01*
X121240000Y-113865000D02*
X121240000Y-113140000D01*
X121240000Y-117360000D02*
X121965000Y-117360000D01*
X121240000Y-116635000D02*
X121240000Y-117360000D01*
X125460000Y-113140000D02*
X124735000Y-113140000D01*
X125460000Y-113865000D02*
X125460000Y-113140000D01*
%TO.C,R7*%
X114422936Y-101340000D02*
X115877064Y-101340000D01*
X114422936Y-103160000D02*
X115877064Y-103160000D01*
%TO.C,R6*%
X115877064Y-100710000D02*
X114422936Y-100710000D01*
X115877064Y-98890000D02*
X114422936Y-98890000D01*
%TO.C,M1*%
D10*
X130809523Y-113852380D02*
X130809523Y-112852380D01*
X130476190Y-113566666D01*
X130142857Y-112852380D01*
X130142857Y-113852380D01*
X129142857Y-113852380D02*
X129714285Y-113852380D01*
X129428571Y-113852380D02*
X129428571Y-112852380D01*
X129523809Y-112995238D01*
X129619047Y-113090476D01*
X129714285Y-113138095D01*
%TO.C,R5*%
X129052380Y-124133333D02*
X128576190Y-123800000D01*
X129052380Y-123561904D02*
X128052380Y-123561904D01*
X128052380Y-123942857D01*
X128100000Y-124038095D01*
X128147619Y-124085714D01*
X128242857Y-124133333D01*
X128385714Y-124133333D01*
X128480952Y-124085714D01*
X128528571Y-124038095D01*
X128576190Y-123942857D01*
X128576190Y-123561904D01*
X128052380Y-125038095D02*
X128052380Y-124561904D01*
X128528571Y-124514285D01*
X128480952Y-124561904D01*
X128433333Y-124657142D01*
X128433333Y-124895238D01*
X128480952Y-124990476D01*
X128528571Y-125038095D01*
X128623809Y-125085714D01*
X128861904Y-125085714D01*
X128957142Y-125038095D01*
X129004761Y-124990476D01*
X129052380Y-124895238D01*
X129052380Y-124657142D01*
X129004761Y-124561904D01*
X128957142Y-124514285D01*
%TO.C,R4*%
X126452380Y-124083333D02*
X125976190Y-123750000D01*
X126452380Y-123511904D02*
X125452380Y-123511904D01*
X125452380Y-123892857D01*
X125500000Y-123988095D01*
X125547619Y-124035714D01*
X125642857Y-124083333D01*
X125785714Y-124083333D01*
X125880952Y-124035714D01*
X125928571Y-123988095D01*
X125976190Y-123892857D01*
X125976190Y-123511904D01*
X125785714Y-124940476D02*
X126452380Y-124940476D01*
X125404761Y-124702380D02*
X126119047Y-124464285D01*
X126119047Y-125083333D01*
%TO.C,R3*%
X123952380Y-124033333D02*
X123476190Y-123700000D01*
X123952380Y-123461904D02*
X122952380Y-123461904D01*
X122952380Y-123842857D01*
X123000000Y-123938095D01*
X123047619Y-123985714D01*
X123142857Y-124033333D01*
X123285714Y-124033333D01*
X123380952Y-123985714D01*
X123428571Y-123938095D01*
X123476190Y-123842857D01*
X123476190Y-123461904D01*
X122952380Y-124366666D02*
X122952380Y-124985714D01*
X123333333Y-124652380D01*
X123333333Y-124795238D01*
X123380952Y-124890476D01*
X123428571Y-124938095D01*
X123523809Y-124985714D01*
X123761904Y-124985714D01*
X123857142Y-124938095D01*
X123904761Y-124890476D01*
X123952380Y-124795238D01*
X123952380Y-124509523D01*
X123904761Y-124414285D01*
X123857142Y-124366666D01*
%TO.C,R2*%
X121452380Y-124033333D02*
X120976190Y-123700000D01*
X121452380Y-123461904D02*
X120452380Y-123461904D01*
X120452380Y-123842857D01*
X120500000Y-123938095D01*
X120547619Y-123985714D01*
X120642857Y-124033333D01*
X120785714Y-124033333D01*
X120880952Y-123985714D01*
X120928571Y-123938095D01*
X120976190Y-123842857D01*
X120976190Y-123461904D01*
X120547619Y-124414285D02*
X120500000Y-124461904D01*
X120452380Y-124557142D01*
X120452380Y-124795238D01*
X120500000Y-124890476D01*
X120547619Y-124938095D01*
X120642857Y-124985714D01*
X120738095Y-124985714D01*
X120880952Y-124938095D01*
X121452380Y-124366666D01*
X121452380Y-124985714D01*
%TO.C,R1*%
X118952380Y-124033333D02*
X118476190Y-123700000D01*
X118952380Y-123461904D02*
X117952380Y-123461904D01*
X117952380Y-123842857D01*
X118000000Y-123938095D01*
X118047619Y-123985714D01*
X118142857Y-124033333D01*
X118285714Y-124033333D01*
X118380952Y-123985714D01*
X118428571Y-123938095D01*
X118476190Y-123842857D01*
X118476190Y-123461904D01*
X118952380Y-124985714D02*
X118952380Y-124414285D01*
X118952380Y-124700000D02*
X117952380Y-124700000D01*
X118095238Y-124604761D01*
X118190476Y-124509523D01*
X118238095Y-124414285D01*
%TO.C,J2*%
X115497380Y-102566666D02*
X116211666Y-102566666D01*
X116354523Y-102519047D01*
X116449761Y-102423809D01*
X116497380Y-102280952D01*
X116497380Y-102185714D01*
X115592619Y-102995238D02*
X115545000Y-103042857D01*
X115497380Y-103138095D01*
X115497380Y-103376190D01*
X115545000Y-103471428D01*
X115592619Y-103519047D01*
X115687857Y-103566666D01*
X115783095Y-103566666D01*
X115925952Y-103519047D01*
X116497380Y-102947619D01*
X116497380Y-103566666D01*
%TO.C,U2*%
X126202380Y-114788095D02*
X127011904Y-114788095D01*
X127107142Y-114835714D01*
X127154761Y-114883333D01*
X127202380Y-114978571D01*
X127202380Y-115169047D01*
X127154761Y-115264285D01*
X127107142Y-115311904D01*
X127011904Y-115359523D01*
X126202380Y-115359523D01*
X126297619Y-115788095D02*
X126250000Y-115835714D01*
X126202380Y-115930952D01*
X126202380Y-116169047D01*
X126250000Y-116264285D01*
X126297619Y-116311904D01*
X126392857Y-116359523D01*
X126488095Y-116359523D01*
X126630952Y-116311904D01*
X127202380Y-115740476D01*
X127202380Y-116359523D01*
%TO.C,R7*%
X118866666Y-102752380D02*
X119200000Y-102276190D01*
X119438095Y-102752380D02*
X119438095Y-101752380D01*
X119057142Y-101752380D01*
X118961904Y-101800000D01*
X118914285Y-101847619D01*
X118866666Y-101942857D01*
X118866666Y-102085714D01*
X118914285Y-102180952D01*
X118961904Y-102228571D01*
X119057142Y-102276190D01*
X119438095Y-102276190D01*
X118533333Y-101752380D02*
X117866666Y-101752380D01*
X118295238Y-102752380D01*
%TO.C,R6*%
X118866666Y-100302380D02*
X119200000Y-99826190D01*
X119438095Y-100302380D02*
X119438095Y-99302380D01*
X119057142Y-99302380D01*
X118961904Y-99350000D01*
X118914285Y-99397619D01*
X118866666Y-99492857D01*
X118866666Y-99635714D01*
X118914285Y-99730952D01*
X118961904Y-99778571D01*
X119057142Y-99826190D01*
X119438095Y-99826190D01*
X118009523Y-99302380D02*
X118200000Y-99302380D01*
X118295238Y-99350000D01*
X118342857Y-99397619D01*
X118438095Y-99540476D01*
X118485714Y-99730952D01*
X118485714Y-100111904D01*
X118438095Y-100207142D01*
X118390476Y-100254761D01*
X118295238Y-100302380D01*
X118104761Y-100302380D01*
X118009523Y-100254761D01*
X117961904Y-100207142D01*
X117914285Y-100111904D01*
X117914285Y-99873809D01*
X117961904Y-99778571D01*
X118009523Y-99730952D01*
X118104761Y-99683333D01*
X118295238Y-99683333D01*
X118390476Y-99730952D01*
X118438095Y-99778571D01*
X118485714Y-99873809D01*
%TD*%
M02*
