%TF.GenerationSoftware,KiCad,Pcbnew,(5.1.9-0-10_14)*%
%TF.CreationDate,2021-03-08T14:06:37+00:00*%
%TF.ProjectId,Generic,47656e65-7269-4632-9e6b-696361645f70,rev?*%
%TF.SameCoordinates,Original*%
%TF.FileFunction,Legend,Top*%
%TF.FilePolarity,Positive*%
%FSLAX46Y46*%
G04 Gerber Fmt 4.6, Leading zero omitted, Abs format (unit mm)*
G04 Created by KiCad (PCBNEW (5.1.9-0-10_14)) date 2021-03-08 14:06:37*
%MOMM*%
%LPD*%
G01*
G04 APERTURE LIST*
%ADD10C,0.120000*%
%ADD11C,0.150000*%
G04 APERTURE END LIST*
D10*
%TO.C,U1*%
X112880000Y-117150000D02*
X112880000Y-117930000D01*
X112880000Y-117930000D02*
X113880000Y-117930000D01*
X131120000Y-117150000D02*
X131120000Y-117930000D01*
X131120000Y-117930000D02*
X130120000Y-117930000D01*
X112880000Y-92185000D02*
X131120000Y-92185000D01*
X131120000Y-92185000D02*
X131120000Y-98605000D01*
X112880000Y-92185000D02*
X112880000Y-98605000D01*
X112880000Y-98605000D02*
X112500000Y-98605000D01*
%TO.C,J1*%
X113140000Y-118690000D02*
X115550000Y-118690000D01*
X113140000Y-121100000D02*
X113140000Y-118690000D01*
X131060000Y-118990000D02*
X113440000Y-118990000D01*
X131060000Y-127110000D02*
X131060000Y-118990000D01*
X113440000Y-127110000D02*
X131060000Y-127110000D01*
X113440000Y-118990000D02*
X113440000Y-127110000D01*
%TO.C,U1*%
D11*
X121138095Y-99002380D02*
X121138095Y-99811904D01*
X121185714Y-99907142D01*
X121233333Y-99954761D01*
X121328571Y-100002380D01*
X121519047Y-100002380D01*
X121614285Y-99954761D01*
X121661904Y-99907142D01*
X121709523Y-99811904D01*
X121709523Y-99002380D01*
X122709523Y-100002380D02*
X122138095Y-100002380D01*
X122423809Y-100002380D02*
X122423809Y-99002380D01*
X122328571Y-99145238D01*
X122233333Y-99240476D01*
X122138095Y-99288095D01*
%TO.C,J1*%
X129366666Y-125602380D02*
X129366666Y-126316666D01*
X129319047Y-126459523D01*
X129223809Y-126554761D01*
X129080952Y-126602380D01*
X128985714Y-126602380D01*
X130366666Y-126602380D02*
X129795238Y-126602380D01*
X130080952Y-126602380D02*
X130080952Y-125602380D01*
X129985714Y-125745238D01*
X129890476Y-125840476D01*
X129795238Y-125888095D01*
%TD*%
M02*
