%TF.GenerationSoftware,KiCad,Pcbnew,(5.1.9-0-10_14)*%
%TF.CreationDate,2021-06-19T10:17:34+01:00*%
%TF.ProjectId,Generic,47656e65-7269-4632-9e6b-696361645f70,4*%
%TF.SameCoordinates,Original*%
%TF.FileFunction,Soldermask,Bot*%
%TF.FilePolarity,Negative*%
%FSLAX46Y46*%
G04 Gerber Fmt 4.6, Leading zero omitted, Abs format (unit mm)*
G04 Created by KiCad (PCBNEW (5.1.9-0-10_14)) date 2021-06-19 10:17:34*
%MOMM*%
%LPD*%
G01*
G04 APERTURE LIST*
%ADD10C,0.350000*%
%ADD11R,2.000000X0.900000*%
%ADD12R,0.900000X2.000000*%
%ADD13R,5.000000X5.000000*%
%ADD14C,2.000000*%
%ADD15R,2.000000X2.000000*%
%ADD16R,1.700000X1.700000*%
%ADD17O,1.700000X1.700000*%
%ADD18C,1.500000*%
%ADD19C,1.750000*%
G04 APERTURE END LIST*
D10*
%TO.C,U2*%
X115750000Y-108250000D03*
%TD*%
D11*
%TO.C,U1*%
X110900000Y-102295000D03*
X110900000Y-103565000D03*
X110900000Y-104835000D03*
X110900000Y-106105000D03*
X110900000Y-107375000D03*
X110900000Y-108645000D03*
X110900000Y-109915000D03*
X110900000Y-111185000D03*
X110900000Y-112455000D03*
X110900000Y-113725000D03*
X110900000Y-114995000D03*
X110900000Y-116265000D03*
X110900000Y-117535000D03*
X110900000Y-118805000D03*
D12*
X113685000Y-119805000D03*
X114955000Y-119805000D03*
X116225000Y-119805000D03*
X117495000Y-119805000D03*
X118765000Y-119805000D03*
X120035000Y-119805000D03*
X121305000Y-119805000D03*
X122575000Y-119805000D03*
X123845000Y-119805000D03*
X125115000Y-119805000D03*
D11*
X127900000Y-118805000D03*
X127900000Y-117535000D03*
X127900000Y-116265000D03*
X127900000Y-114995000D03*
X127900000Y-113725000D03*
X127900000Y-112455000D03*
X127900000Y-111185000D03*
X127900000Y-109915000D03*
X127900000Y-108645000D03*
X127900000Y-107375000D03*
X127900000Y-106105000D03*
X127900000Y-104835000D03*
X127900000Y-103565000D03*
X127900000Y-102295000D03*
D13*
X120400000Y-109795000D03*
%TD*%
D14*
%TO.C,J3*%
X126600000Y-125460000D03*
D15*
X126600000Y-128000000D03*
%TD*%
D16*
%TO.C,J1*%
X125745000Y-122900000D03*
D17*
X123205000Y-122900000D03*
X120665000Y-122900000D03*
X118125000Y-122900000D03*
X115585000Y-122900000D03*
X113045000Y-122900000D03*
%TD*%
D18*
%TO.C,J2*%
X126790000Y-109080000D03*
X126790000Y-117720000D03*
D19*
X122620000Y-109080000D03*
X122620000Y-117720000D03*
%TD*%
M02*
