%TF.GenerationSoftware,KiCad,Pcbnew,(5.1.9-0-10_14)*%
%TF.CreationDate,2021-03-06T19:49:57+00:00*%
%TF.ProjectId,Generic,47656e65-7269-4632-9e6b-696361645f70,rev?*%
%TF.SameCoordinates,Original*%
%TF.FileFunction,Legend,Bot*%
%TF.FilePolarity,Positive*%
%FSLAX46Y46*%
G04 Gerber Fmt 4.6, Leading zero omitted, Abs format (unit mm)*
G04 Created by KiCad (PCBNEW (5.1.9-0-10_14)) date 2021-03-06 19:49:57*
%MOMM*%
%LPD*%
G01*
G04 APERTURE LIST*
%ADD10C,0.150000*%
%ADD11C,0.120000*%
G04 APERTURE END LIST*
D10*
X114085714Y-118442857D02*
X114752380Y-118633333D01*
X114276190Y-118823809D01*
X114752380Y-119014285D01*
X114085714Y-119204761D01*
X114085714Y-119490476D02*
X114752380Y-119680952D01*
X114276190Y-119871428D01*
X114752380Y-120061904D01*
X114085714Y-120252380D01*
X114085714Y-120538095D02*
X114752380Y-120728571D01*
X114276190Y-120919047D01*
X114752380Y-121109523D01*
X114085714Y-121300000D01*
X114657142Y-121680952D02*
X114704761Y-121728571D01*
X114752380Y-121680952D01*
X114704761Y-121633333D01*
X114657142Y-121680952D01*
X114752380Y-121680952D01*
X114752380Y-122157142D02*
X114085714Y-122157142D01*
X114180952Y-122157142D02*
X114133333Y-122204761D01*
X114085714Y-122300000D01*
X114085714Y-122442857D01*
X114133333Y-122538095D01*
X114228571Y-122585714D01*
X114752380Y-122585714D01*
X114228571Y-122585714D02*
X114133333Y-122633333D01*
X114085714Y-122728571D01*
X114085714Y-122871428D01*
X114133333Y-122966666D01*
X114228571Y-123014285D01*
X114752380Y-123014285D01*
X114704761Y-123871428D02*
X114752380Y-123776190D01*
X114752380Y-123585714D01*
X114704761Y-123490476D01*
X114609523Y-123442857D01*
X114228571Y-123442857D01*
X114133333Y-123490476D01*
X114085714Y-123585714D01*
X114085714Y-123776190D01*
X114133333Y-123871428D01*
X114228571Y-123919047D01*
X114323809Y-123919047D01*
X114419047Y-123442857D01*
X114657142Y-124347619D02*
X114704761Y-124395238D01*
X114752380Y-124347619D01*
X114704761Y-124300000D01*
X114657142Y-124347619D01*
X114752380Y-124347619D01*
X114085714Y-125252380D02*
X114752380Y-125252380D01*
X114085714Y-124823809D02*
X114609523Y-124823809D01*
X114704761Y-124871428D01*
X114752380Y-124966666D01*
X114752380Y-125109523D01*
X114704761Y-125204761D01*
X114657142Y-125252380D01*
X114752380Y-125728571D02*
X113752380Y-125728571D01*
X114371428Y-125823809D02*
X114752380Y-126109523D01*
X114085714Y-126109523D02*
X114466666Y-125728571D01*
D11*
%TO.C,U3*%
X112650000Y-105410000D02*
X118660000Y-105410000D01*
X114900000Y-98590000D02*
X118660000Y-98590000D01*
X118660000Y-105410000D02*
X118660000Y-104150000D01*
X118660000Y-98590000D02*
X118660000Y-99850000D01*
%TO.C,R5*%
X129410000Y-124977064D02*
X129410000Y-123522936D01*
X127590000Y-124977064D02*
X127590000Y-123522936D01*
%TO.C,R4*%
X126910000Y-124977064D02*
X126910000Y-123522936D01*
X125090000Y-124977064D02*
X125090000Y-123522936D01*
%TO.C,R3*%
X124410000Y-124977064D02*
X124410000Y-123522936D01*
X122590000Y-124977064D02*
X122590000Y-123522936D01*
%TO.C,R2*%
X121910000Y-124977064D02*
X121910000Y-123522936D01*
X120090000Y-124977064D02*
X120090000Y-123522936D01*
%TO.C,R1*%
X119410000Y-124977064D02*
X119410000Y-123522936D01*
X117590000Y-124977064D02*
X117590000Y-123522936D01*
%TO.C,J2*%
X111865000Y-115170000D02*
X111865000Y-106230000D01*
X119215000Y-106230000D02*
X111865000Y-106230000D01*
X119215000Y-115170000D02*
X119215000Y-106230000D01*
X111865000Y-115170000D02*
X119215000Y-115170000D01*
%TO.C,U2*%
X125390000Y-107315000D02*
X125390000Y-106590000D01*
X129610000Y-110810000D02*
X128885000Y-110810000D01*
X129610000Y-110085000D02*
X129610000Y-110810000D01*
X129610000Y-106590000D02*
X128885000Y-106590000D01*
X129610000Y-107315000D02*
X129610000Y-106590000D01*
X125390000Y-110810000D02*
X126115000Y-110810000D01*
X125390000Y-110085000D02*
X125390000Y-110810000D01*
%TO.C,R9*%
X125610000Y-100172936D02*
X125610000Y-101627064D01*
X123790000Y-100172936D02*
X123790000Y-101627064D01*
%TO.C,R8*%
X123310000Y-114672936D02*
X123310000Y-116127064D01*
X121490000Y-114672936D02*
X121490000Y-116127064D01*
%TO.C,R7*%
X129177064Y-100510000D02*
X127722936Y-100510000D01*
X129177064Y-98690000D02*
X127722936Y-98690000D01*
%TO.C,R6*%
X126927064Y-117610000D02*
X125472936Y-117610000D01*
X126927064Y-115790000D02*
X125472936Y-115790000D01*
%TO.C,C4*%
X123310000Y-100288748D02*
X123310000Y-101711252D01*
X121490000Y-100288748D02*
X121490000Y-101711252D01*
%TO.C,C3*%
X129148752Y-105510000D02*
X127726248Y-105510000D01*
X129148752Y-103690000D02*
X127726248Y-103690000D01*
%TO.C,C2*%
X125488748Y-113190000D02*
X126911252Y-113190000D01*
X125488748Y-115010000D02*
X126911252Y-115010000D01*
%TO.C,C1*%
X129211252Y-103110000D02*
X127788748Y-103110000D01*
X129211252Y-101290000D02*
X127788748Y-101290000D01*
%TO.C,U3*%
D10*
X120661904Y-104352380D02*
X120661904Y-105161904D01*
X120614285Y-105257142D01*
X120566666Y-105304761D01*
X120471428Y-105352380D01*
X120280952Y-105352380D01*
X120185714Y-105304761D01*
X120138095Y-105257142D01*
X120090476Y-105161904D01*
X120090476Y-104352380D01*
X119709523Y-104352380D02*
X119090476Y-104352380D01*
X119423809Y-104733333D01*
X119280952Y-104733333D01*
X119185714Y-104780952D01*
X119138095Y-104828571D01*
X119090476Y-104923809D01*
X119090476Y-105161904D01*
X119138095Y-105257142D01*
X119185714Y-105304761D01*
X119280952Y-105352380D01*
X119566666Y-105352380D01*
X119661904Y-105304761D01*
X119709523Y-105257142D01*
%TO.C,R5*%
X129052380Y-124133333D02*
X128576190Y-123800000D01*
X129052380Y-123561904D02*
X128052380Y-123561904D01*
X128052380Y-123942857D01*
X128100000Y-124038095D01*
X128147619Y-124085714D01*
X128242857Y-124133333D01*
X128385714Y-124133333D01*
X128480952Y-124085714D01*
X128528571Y-124038095D01*
X128576190Y-123942857D01*
X128576190Y-123561904D01*
X128052380Y-125038095D02*
X128052380Y-124561904D01*
X128528571Y-124514285D01*
X128480952Y-124561904D01*
X128433333Y-124657142D01*
X128433333Y-124895238D01*
X128480952Y-124990476D01*
X128528571Y-125038095D01*
X128623809Y-125085714D01*
X128861904Y-125085714D01*
X128957142Y-125038095D01*
X129004761Y-124990476D01*
X129052380Y-124895238D01*
X129052380Y-124657142D01*
X129004761Y-124561904D01*
X128957142Y-124514285D01*
%TO.C,R4*%
X126452380Y-124083333D02*
X125976190Y-123750000D01*
X126452380Y-123511904D02*
X125452380Y-123511904D01*
X125452380Y-123892857D01*
X125500000Y-123988095D01*
X125547619Y-124035714D01*
X125642857Y-124083333D01*
X125785714Y-124083333D01*
X125880952Y-124035714D01*
X125928571Y-123988095D01*
X125976190Y-123892857D01*
X125976190Y-123511904D01*
X125785714Y-124940476D02*
X126452380Y-124940476D01*
X125404761Y-124702380D02*
X126119047Y-124464285D01*
X126119047Y-125083333D01*
%TO.C,R3*%
X123952380Y-124033333D02*
X123476190Y-123700000D01*
X123952380Y-123461904D02*
X122952380Y-123461904D01*
X122952380Y-123842857D01*
X123000000Y-123938095D01*
X123047619Y-123985714D01*
X123142857Y-124033333D01*
X123285714Y-124033333D01*
X123380952Y-123985714D01*
X123428571Y-123938095D01*
X123476190Y-123842857D01*
X123476190Y-123461904D01*
X122952380Y-124366666D02*
X122952380Y-124985714D01*
X123333333Y-124652380D01*
X123333333Y-124795238D01*
X123380952Y-124890476D01*
X123428571Y-124938095D01*
X123523809Y-124985714D01*
X123761904Y-124985714D01*
X123857142Y-124938095D01*
X123904761Y-124890476D01*
X123952380Y-124795238D01*
X123952380Y-124509523D01*
X123904761Y-124414285D01*
X123857142Y-124366666D01*
%TO.C,R2*%
X121452380Y-124033333D02*
X120976190Y-123700000D01*
X121452380Y-123461904D02*
X120452380Y-123461904D01*
X120452380Y-123842857D01*
X120500000Y-123938095D01*
X120547619Y-123985714D01*
X120642857Y-124033333D01*
X120785714Y-124033333D01*
X120880952Y-123985714D01*
X120928571Y-123938095D01*
X120976190Y-123842857D01*
X120976190Y-123461904D01*
X120547619Y-124414285D02*
X120500000Y-124461904D01*
X120452380Y-124557142D01*
X120452380Y-124795238D01*
X120500000Y-124890476D01*
X120547619Y-124938095D01*
X120642857Y-124985714D01*
X120738095Y-124985714D01*
X120880952Y-124938095D01*
X121452380Y-124366666D01*
X121452380Y-124985714D01*
%TO.C,R1*%
X118952380Y-124033333D02*
X118476190Y-123700000D01*
X118952380Y-123461904D02*
X117952380Y-123461904D01*
X117952380Y-123842857D01*
X118000000Y-123938095D01*
X118047619Y-123985714D01*
X118142857Y-124033333D01*
X118285714Y-124033333D01*
X118380952Y-123985714D01*
X118428571Y-123938095D01*
X118476190Y-123842857D01*
X118476190Y-123461904D01*
X118952380Y-124985714D02*
X118952380Y-124414285D01*
X118952380Y-124700000D02*
X117952380Y-124700000D01*
X118095238Y-124604761D01*
X118190476Y-124509523D01*
X118238095Y-124414285D01*
%TO.C,J2*%
X120307380Y-110366666D02*
X121021666Y-110366666D01*
X121164523Y-110319047D01*
X121259761Y-110223809D01*
X121307380Y-110080952D01*
X121307380Y-109985714D01*
X120402619Y-110795238D02*
X120355000Y-110842857D01*
X120307380Y-110938095D01*
X120307380Y-111176190D01*
X120355000Y-111271428D01*
X120402619Y-111319047D01*
X120497857Y-111366666D01*
X120593095Y-111366666D01*
X120735952Y-111319047D01*
X121307380Y-110747619D01*
X121307380Y-111366666D01*
%TO.C,U2*%
X123552380Y-107638095D02*
X124361904Y-107638095D01*
X124457142Y-107685714D01*
X124504761Y-107733333D01*
X124552380Y-107828571D01*
X124552380Y-108019047D01*
X124504761Y-108114285D01*
X124457142Y-108161904D01*
X124361904Y-108209523D01*
X123552380Y-108209523D01*
X123647619Y-108638095D02*
X123600000Y-108685714D01*
X123552380Y-108780952D01*
X123552380Y-109019047D01*
X123600000Y-109114285D01*
X123647619Y-109161904D01*
X123742857Y-109209523D01*
X123838095Y-109209523D01*
X123980952Y-109161904D01*
X124552380Y-108590476D01*
X124552380Y-109209523D01*
%TO.C,R9*%
X125152380Y-100833333D02*
X124676190Y-100500000D01*
X125152380Y-100261904D02*
X124152380Y-100261904D01*
X124152380Y-100642857D01*
X124200000Y-100738095D01*
X124247619Y-100785714D01*
X124342857Y-100833333D01*
X124485714Y-100833333D01*
X124580952Y-100785714D01*
X124628571Y-100738095D01*
X124676190Y-100642857D01*
X124676190Y-100261904D01*
X125152380Y-101309523D02*
X125152380Y-101500000D01*
X125104761Y-101595238D01*
X125057142Y-101642857D01*
X124914285Y-101738095D01*
X124723809Y-101785714D01*
X124342857Y-101785714D01*
X124247619Y-101738095D01*
X124200000Y-101690476D01*
X124152380Y-101595238D01*
X124152380Y-101404761D01*
X124200000Y-101309523D01*
X124247619Y-101261904D01*
X124342857Y-101214285D01*
X124580952Y-101214285D01*
X124676190Y-101261904D01*
X124723809Y-101309523D01*
X124771428Y-101404761D01*
X124771428Y-101595238D01*
X124723809Y-101690476D01*
X124676190Y-101738095D01*
X124580952Y-101785714D01*
%TO.C,R8*%
X122852380Y-115133333D02*
X122376190Y-114800000D01*
X122852380Y-114561904D02*
X121852380Y-114561904D01*
X121852380Y-114942857D01*
X121900000Y-115038095D01*
X121947619Y-115085714D01*
X122042857Y-115133333D01*
X122185714Y-115133333D01*
X122280952Y-115085714D01*
X122328571Y-115038095D01*
X122376190Y-114942857D01*
X122376190Y-114561904D01*
X122280952Y-115704761D02*
X122233333Y-115609523D01*
X122185714Y-115561904D01*
X122090476Y-115514285D01*
X122042857Y-115514285D01*
X121947619Y-115561904D01*
X121900000Y-115609523D01*
X121852380Y-115704761D01*
X121852380Y-115895238D01*
X121900000Y-115990476D01*
X121947619Y-116038095D01*
X122042857Y-116085714D01*
X122090476Y-116085714D01*
X122185714Y-116038095D01*
X122233333Y-115990476D01*
X122280952Y-115895238D01*
X122280952Y-115704761D01*
X122328571Y-115609523D01*
X122376190Y-115561904D01*
X122471428Y-115514285D01*
X122661904Y-115514285D01*
X122757142Y-115561904D01*
X122804761Y-115609523D01*
X122852380Y-115704761D01*
X122852380Y-115895238D01*
X122804761Y-115990476D01*
X122757142Y-116038095D01*
X122661904Y-116085714D01*
X122471428Y-116085714D01*
X122376190Y-116038095D01*
X122328571Y-115990476D01*
X122280952Y-115895238D01*
%TO.C,R7*%
X128666666Y-100252380D02*
X129000000Y-99776190D01*
X129238095Y-100252380D02*
X129238095Y-99252380D01*
X128857142Y-99252380D01*
X128761904Y-99300000D01*
X128714285Y-99347619D01*
X128666666Y-99442857D01*
X128666666Y-99585714D01*
X128714285Y-99680952D01*
X128761904Y-99728571D01*
X128857142Y-99776190D01*
X129238095Y-99776190D01*
X128333333Y-99252380D02*
X127666666Y-99252380D01*
X128095238Y-100252380D01*
%TO.C,R6*%
X126466666Y-117152380D02*
X126800000Y-116676190D01*
X127038095Y-117152380D02*
X127038095Y-116152380D01*
X126657142Y-116152380D01*
X126561904Y-116200000D01*
X126514285Y-116247619D01*
X126466666Y-116342857D01*
X126466666Y-116485714D01*
X126514285Y-116580952D01*
X126561904Y-116628571D01*
X126657142Y-116676190D01*
X127038095Y-116676190D01*
X125609523Y-116152380D02*
X125800000Y-116152380D01*
X125895238Y-116200000D01*
X125942857Y-116247619D01*
X126038095Y-116390476D01*
X126085714Y-116580952D01*
X126085714Y-116961904D01*
X126038095Y-117057142D01*
X125990476Y-117104761D01*
X125895238Y-117152380D01*
X125704761Y-117152380D01*
X125609523Y-117104761D01*
X125561904Y-117057142D01*
X125514285Y-116961904D01*
X125514285Y-116723809D01*
X125561904Y-116628571D01*
X125609523Y-116580952D01*
X125704761Y-116533333D01*
X125895238Y-116533333D01*
X125990476Y-116580952D01*
X126038095Y-116628571D01*
X126085714Y-116723809D01*
%TO.C,C4*%
X122957142Y-100733333D02*
X123004761Y-100685714D01*
X123052380Y-100542857D01*
X123052380Y-100447619D01*
X123004761Y-100304761D01*
X122909523Y-100209523D01*
X122814285Y-100161904D01*
X122623809Y-100114285D01*
X122480952Y-100114285D01*
X122290476Y-100161904D01*
X122195238Y-100209523D01*
X122100000Y-100304761D01*
X122052380Y-100447619D01*
X122052380Y-100542857D01*
X122100000Y-100685714D01*
X122147619Y-100733333D01*
X122385714Y-101590476D02*
X123052380Y-101590476D01*
X122004761Y-101352380D02*
X122719047Y-101114285D01*
X122719047Y-101733333D01*
%TO.C,C3*%
X128566666Y-104957142D02*
X128614285Y-105004761D01*
X128757142Y-105052380D01*
X128852380Y-105052380D01*
X128995238Y-105004761D01*
X129090476Y-104909523D01*
X129138095Y-104814285D01*
X129185714Y-104623809D01*
X129185714Y-104480952D01*
X129138095Y-104290476D01*
X129090476Y-104195238D01*
X128995238Y-104100000D01*
X128852380Y-104052380D01*
X128757142Y-104052380D01*
X128614285Y-104100000D01*
X128566666Y-104147619D01*
X128233333Y-104052380D02*
X127614285Y-104052380D01*
X127947619Y-104433333D01*
X127804761Y-104433333D01*
X127709523Y-104480952D01*
X127661904Y-104528571D01*
X127614285Y-104623809D01*
X127614285Y-104861904D01*
X127661904Y-104957142D01*
X127709523Y-105004761D01*
X127804761Y-105052380D01*
X128090476Y-105052380D01*
X128185714Y-105004761D01*
X128233333Y-104957142D01*
%TO.C,C2*%
X126366666Y-114557142D02*
X126414285Y-114604761D01*
X126557142Y-114652380D01*
X126652380Y-114652380D01*
X126795238Y-114604761D01*
X126890476Y-114509523D01*
X126938095Y-114414285D01*
X126985714Y-114223809D01*
X126985714Y-114080952D01*
X126938095Y-113890476D01*
X126890476Y-113795238D01*
X126795238Y-113700000D01*
X126652380Y-113652380D01*
X126557142Y-113652380D01*
X126414285Y-113700000D01*
X126366666Y-113747619D01*
X125985714Y-113747619D02*
X125938095Y-113700000D01*
X125842857Y-113652380D01*
X125604761Y-113652380D01*
X125509523Y-113700000D01*
X125461904Y-113747619D01*
X125414285Y-113842857D01*
X125414285Y-113938095D01*
X125461904Y-114080952D01*
X126033333Y-114652380D01*
X125414285Y-114652380D01*
%TO.C,C1*%
X128566666Y-102657142D02*
X128614285Y-102704761D01*
X128757142Y-102752380D01*
X128852380Y-102752380D01*
X128995238Y-102704761D01*
X129090476Y-102609523D01*
X129138095Y-102514285D01*
X129185714Y-102323809D01*
X129185714Y-102180952D01*
X129138095Y-101990476D01*
X129090476Y-101895238D01*
X128995238Y-101800000D01*
X128852380Y-101752380D01*
X128757142Y-101752380D01*
X128614285Y-101800000D01*
X128566666Y-101847619D01*
X127614285Y-102752380D02*
X128185714Y-102752380D01*
X127900000Y-102752380D02*
X127900000Y-101752380D01*
X127995238Y-101895238D01*
X128090476Y-101990476D01*
X128185714Y-102038095D01*
%TD*%
M02*
