%TF.GenerationSoftware,KiCad,Pcbnew,(5.1.10-1-10_14)*%
%TF.CreationDate,2021-05-13T16:34:19+01:00*%
%TF.ProjectId,Generic,47656e65-7269-4632-9e6b-696361645f70,3*%
%TF.SameCoordinates,Original*%
%TF.FileFunction,Paste,Top*%
%TF.FilePolarity,Positive*%
%FSLAX46Y46*%
G04 Gerber Fmt 4.6, Leading zero omitted, Abs format (unit mm)*
G04 Created by KiCad (PCBNEW (5.1.10-1-10_14)) date 2021-05-13 16:34:19*
%MOMM*%
%LPD*%
G01*
G04 APERTURE LIST*
%ADD10R,0.700000X0.450000*%
%ADD11R,3.700000X1.100000*%
%ADD12R,1.560000X0.650000*%
%ADD13C,0.500000*%
%ADD14R,1.140000X0.600000*%
%ADD15R,1.140000X0.300000*%
G04 APERTURE END LIST*
%TO.C,D2*%
G36*
G01*
X122256250Y-119550000D02*
X121343750Y-119550000D01*
G75*
G02*
X121100000Y-119306250I0J243750D01*
G01*
X121100000Y-118818750D01*
G75*
G02*
X121343750Y-118575000I243750J0D01*
G01*
X122256250Y-118575000D01*
G75*
G02*
X122500000Y-118818750I0J-243750D01*
G01*
X122500000Y-119306250D01*
G75*
G02*
X122256250Y-119550000I-243750J0D01*
G01*
G37*
G36*
G01*
X122256250Y-121425000D02*
X121343750Y-121425000D01*
G75*
G02*
X121100000Y-121181250I0J243750D01*
G01*
X121100000Y-120693750D01*
G75*
G02*
X121343750Y-120450000I243750J0D01*
G01*
X122256250Y-120450000D01*
G75*
G02*
X122500000Y-120693750I0J-243750D01*
G01*
X122500000Y-121181250D01*
G75*
G02*
X122256250Y-121425000I-243750J0D01*
G01*
G37*
%TD*%
%TO.C,R9*%
G36*
G01*
X126375000Y-103425000D02*
X126375000Y-103975000D01*
G75*
G02*
X126175000Y-104175000I-200000J0D01*
G01*
X125775000Y-104175000D01*
G75*
G02*
X125575000Y-103975000I0J200000D01*
G01*
X125575000Y-103425000D01*
G75*
G02*
X125775000Y-103225000I200000J0D01*
G01*
X126175000Y-103225000D01*
G75*
G02*
X126375000Y-103425000I0J-200000D01*
G01*
G37*
G36*
G01*
X128025000Y-103425000D02*
X128025000Y-103975000D01*
G75*
G02*
X127825000Y-104175000I-200000J0D01*
G01*
X127425000Y-104175000D01*
G75*
G02*
X127225000Y-103975000I0J200000D01*
G01*
X127225000Y-103425000D01*
G75*
G02*
X127425000Y-103225000I200000J0D01*
G01*
X127825000Y-103225000D01*
G75*
G02*
X128025000Y-103425000I0J-200000D01*
G01*
G37*
%TD*%
%TO.C,D1*%
G36*
G01*
X126450000Y-101843750D02*
X126450000Y-102356250D01*
G75*
G02*
X126231250Y-102575000I-218750J0D01*
G01*
X125793750Y-102575000D01*
G75*
G02*
X125575000Y-102356250I0J218750D01*
G01*
X125575000Y-101843750D01*
G75*
G02*
X125793750Y-101625000I218750J0D01*
G01*
X126231250Y-101625000D01*
G75*
G02*
X126450000Y-101843750I0J-218750D01*
G01*
G37*
G36*
G01*
X128025000Y-101843750D02*
X128025000Y-102356250D01*
G75*
G02*
X127806250Y-102575000I-218750J0D01*
G01*
X127368750Y-102575000D01*
G75*
G02*
X127150000Y-102356250I0J218750D01*
G01*
X127150000Y-101843750D01*
G75*
G02*
X127368750Y-101625000I218750J0D01*
G01*
X127806250Y-101625000D01*
G75*
G02*
X128025000Y-101843750I0J-218750D01*
G01*
G37*
%TD*%
%TO.C,R8*%
G36*
G01*
X120525000Y-109875000D02*
X120525000Y-109325000D01*
G75*
G02*
X120725000Y-109125000I200000J0D01*
G01*
X121125000Y-109125000D01*
G75*
G02*
X121325000Y-109325000I0J-200000D01*
G01*
X121325000Y-109875000D01*
G75*
G02*
X121125000Y-110075000I-200000J0D01*
G01*
X120725000Y-110075000D01*
G75*
G02*
X120525000Y-109875000I0J200000D01*
G01*
G37*
G36*
G01*
X118875000Y-109875000D02*
X118875000Y-109325000D01*
G75*
G02*
X119075000Y-109125000I200000J0D01*
G01*
X119475000Y-109125000D01*
G75*
G02*
X119675000Y-109325000I0J-200000D01*
G01*
X119675000Y-109875000D01*
G75*
G02*
X119475000Y-110075000I-200000J0D01*
G01*
X119075000Y-110075000D01*
G75*
G02*
X118875000Y-109875000I0J200000D01*
G01*
G37*
%TD*%
%TO.C,R7*%
G36*
G01*
X119675000Y-112425000D02*
X119675000Y-112975000D01*
G75*
G02*
X119475000Y-113175000I-200000J0D01*
G01*
X119075000Y-113175000D01*
G75*
G02*
X118875000Y-112975000I0J200000D01*
G01*
X118875000Y-112425000D01*
G75*
G02*
X119075000Y-112225000I200000J0D01*
G01*
X119475000Y-112225000D01*
G75*
G02*
X119675000Y-112425000I0J-200000D01*
G01*
G37*
G36*
G01*
X121325000Y-112425000D02*
X121325000Y-112975000D01*
G75*
G02*
X121125000Y-113175000I-200000J0D01*
G01*
X120725000Y-113175000D01*
G75*
G02*
X120525000Y-112975000I0J200000D01*
G01*
X120525000Y-112425000D01*
G75*
G02*
X120725000Y-112225000I200000J0D01*
G01*
X121125000Y-112225000D01*
G75*
G02*
X121325000Y-112425000I0J-200000D01*
G01*
G37*
%TD*%
D10*
%TO.C,Q2*%
X113500000Y-112100000D03*
X111500000Y-112750000D03*
X111500000Y-111450000D03*
%TD*%
%TO.C,Q1*%
X113500000Y-115900000D03*
X111500000Y-116550000D03*
X111500000Y-115250000D03*
%TD*%
%TO.C,R11*%
G36*
G01*
X111775000Y-109925000D02*
X111775000Y-110475000D01*
G75*
G02*
X111575000Y-110675000I-200000J0D01*
G01*
X111175000Y-110675000D01*
G75*
G02*
X110975000Y-110475000I0J200000D01*
G01*
X110975000Y-109925000D01*
G75*
G02*
X111175000Y-109725000I200000J0D01*
G01*
X111575000Y-109725000D01*
G75*
G02*
X111775000Y-109925000I0J-200000D01*
G01*
G37*
G36*
G01*
X113425000Y-109925000D02*
X113425000Y-110475000D01*
G75*
G02*
X113225000Y-110675000I-200000J0D01*
G01*
X112825000Y-110675000D01*
G75*
G02*
X112625000Y-110475000I0J200000D01*
G01*
X112625000Y-109925000D01*
G75*
G02*
X112825000Y-109725000I200000J0D01*
G01*
X113225000Y-109725000D01*
G75*
G02*
X113425000Y-109925000I0J-200000D01*
G01*
G37*
%TD*%
%TO.C,R10*%
G36*
G01*
X112625000Y-114275000D02*
X112625000Y-113725000D01*
G75*
G02*
X112825000Y-113525000I200000J0D01*
G01*
X113225000Y-113525000D01*
G75*
G02*
X113425000Y-113725000I0J-200000D01*
G01*
X113425000Y-114275000D01*
G75*
G02*
X113225000Y-114475000I-200000J0D01*
G01*
X112825000Y-114475000D01*
G75*
G02*
X112625000Y-114275000I0J200000D01*
G01*
G37*
G36*
G01*
X110975000Y-114275000D02*
X110975000Y-113725000D01*
G75*
G02*
X111175000Y-113525000I200000J0D01*
G01*
X111575000Y-113525000D01*
G75*
G02*
X111775000Y-113725000I0J-200000D01*
G01*
X111775000Y-114275000D01*
G75*
G02*
X111575000Y-114475000I-200000J0D01*
G01*
X111175000Y-114475000D01*
G75*
G02*
X110975000Y-114275000I0J200000D01*
G01*
G37*
%TD*%
%TO.C,R12*%
G36*
G01*
X123075000Y-101825000D02*
X123075000Y-102375000D01*
G75*
G02*
X122875000Y-102575000I-200000J0D01*
G01*
X122475000Y-102575000D01*
G75*
G02*
X122275000Y-102375000I0J200000D01*
G01*
X122275000Y-101825000D01*
G75*
G02*
X122475000Y-101625000I200000J0D01*
G01*
X122875000Y-101625000D01*
G75*
G02*
X123075000Y-101825000I0J-200000D01*
G01*
G37*
G36*
G01*
X124725000Y-101825000D02*
X124725000Y-102375000D01*
G75*
G02*
X124525000Y-102575000I-200000J0D01*
G01*
X124125000Y-102575000D01*
G75*
G02*
X123925000Y-102375000I0J200000D01*
G01*
X123925000Y-101825000D01*
G75*
G02*
X124125000Y-101625000I200000J0D01*
G01*
X124525000Y-101625000D01*
G75*
G02*
X124725000Y-101825000I0J-200000D01*
G01*
G37*
%TD*%
%TO.C,C2*%
G36*
G01*
X113375000Y-118262500D02*
X113375000Y-118737500D01*
G75*
G02*
X113137500Y-118975000I-237500J0D01*
G01*
X112537500Y-118975000D01*
G75*
G02*
X112300000Y-118737500I0J237500D01*
G01*
X112300000Y-118262500D01*
G75*
G02*
X112537500Y-118025000I237500J0D01*
G01*
X113137500Y-118025000D01*
G75*
G02*
X113375000Y-118262500I0J-237500D01*
G01*
G37*
G36*
G01*
X115100000Y-118262500D02*
X115100000Y-118737500D01*
G75*
G02*
X114862500Y-118975000I-237500J0D01*
G01*
X114262500Y-118975000D01*
G75*
G02*
X114025000Y-118737500I0J237500D01*
G01*
X114025000Y-118262500D01*
G75*
G02*
X114262500Y-118025000I237500J0D01*
G01*
X114862500Y-118025000D01*
G75*
G02*
X115100000Y-118262500I0J-237500D01*
G01*
G37*
%TD*%
%TO.C,Reg1*%
G36*
G01*
X117025627Y-105950000D02*
X115774373Y-105950000D01*
G75*
G02*
X115525000Y-105700627I0J249373D01*
G01*
X115525000Y-104774373D01*
G75*
G02*
X115774373Y-104525000I249373J0D01*
G01*
X117025627Y-104525000D01*
G75*
G02*
X117275000Y-104774373I0J-249373D01*
G01*
X117275000Y-105700627D01*
G75*
G02*
X117025627Y-105950000I-249373J0D01*
G01*
G37*
G36*
G01*
X117025627Y-102975000D02*
X115774373Y-102975000D01*
G75*
G02*
X115525000Y-102725627I0J249373D01*
G01*
X115525000Y-101799373D01*
G75*
G02*
X115774373Y-101550000I249373J0D01*
G01*
X117025627Y-101550000D01*
G75*
G02*
X117275000Y-101799373I0J-249373D01*
G01*
X117275000Y-102725627D01*
G75*
G02*
X117025627Y-102975000I-249373J0D01*
G01*
G37*
D11*
X113400000Y-102250000D03*
X113400000Y-105250000D03*
G36*
G01*
X119100450Y-102800000D02*
X118199550Y-102800000D01*
G75*
G02*
X117950000Y-102550450I0J249550D01*
G01*
X117950000Y-101899550D01*
G75*
G02*
X118199550Y-101650000I249550J0D01*
G01*
X119100450Y-101650000D01*
G75*
G02*
X119350000Y-101899550I0J-249550D01*
G01*
X119350000Y-102550450D01*
G75*
G02*
X119100450Y-102800000I-249550J0D01*
G01*
G37*
G36*
G01*
X119100450Y-104850000D02*
X118199550Y-104850000D01*
G75*
G02*
X117950000Y-104600450I0J249550D01*
G01*
X117950000Y-103949550D01*
G75*
G02*
X118199550Y-103700000I249550J0D01*
G01*
X119100450Y-103700000D01*
G75*
G02*
X119350000Y-103949550I0J-249550D01*
G01*
X119350000Y-104600450D01*
G75*
G02*
X119100450Y-104850000I-249550J0D01*
G01*
G37*
G36*
G01*
X119050000Y-107762500D02*
X119050000Y-108237500D01*
G75*
G02*
X118812500Y-108475000I-237500J0D01*
G01*
X118212500Y-108475000D01*
G75*
G02*
X117975000Y-108237500I0J237500D01*
G01*
X117975000Y-107762500D01*
G75*
G02*
X118212500Y-107525000I237500J0D01*
G01*
X118812500Y-107525000D01*
G75*
G02*
X119050000Y-107762500I0J-237500D01*
G01*
G37*
G36*
G01*
X117325000Y-107762500D02*
X117325000Y-108237500D01*
G75*
G02*
X117087500Y-108475000I-237500J0D01*
G01*
X116487500Y-108475000D01*
G75*
G02*
X116250000Y-108237500I0J237500D01*
G01*
X116250000Y-107762500D01*
G75*
G02*
X116487500Y-107525000I237500J0D01*
G01*
X117087500Y-107525000D01*
G75*
G02*
X117325000Y-107762500I0J-237500D01*
G01*
G37*
G36*
G01*
X119050000Y-106512500D02*
X119050000Y-106987500D01*
G75*
G02*
X118812500Y-107225000I-237500J0D01*
G01*
X118212500Y-107225000D01*
G75*
G02*
X117975000Y-106987500I0J237500D01*
G01*
X117975000Y-106512500D01*
G75*
G02*
X118212500Y-106275000I237500J0D01*
G01*
X118812500Y-106275000D01*
G75*
G02*
X119050000Y-106512500I0J-237500D01*
G01*
G37*
G36*
G01*
X117325000Y-106512500D02*
X117325000Y-106987500D01*
G75*
G02*
X117087500Y-107225000I-237500J0D01*
G01*
X116487500Y-107225000D01*
G75*
G02*
X116250000Y-106987500I0J237500D01*
G01*
X116250000Y-106512500D01*
G75*
G02*
X116487500Y-106275000I237500J0D01*
G01*
X117087500Y-106275000D01*
G75*
G02*
X117325000Y-106512500I0J-237500D01*
G01*
G37*
D12*
X115000000Y-108450000D03*
X115000000Y-107500000D03*
X115000000Y-106550000D03*
X112300000Y-106550000D03*
X112300000Y-108450000D03*
X112300000Y-107500000D03*
%TD*%
D13*
%TO.C,U2*%
X116025000Y-119025000D03*
G36*
G01*
X118714000Y-116900000D02*
X118336000Y-116900000D01*
G75*
G02*
X118150000Y-116714000I0J186000D01*
G01*
X118150000Y-116336000D01*
G75*
G02*
X118336000Y-116150000I186000J0D01*
G01*
X118714000Y-116150000D01*
G75*
G02*
X118900000Y-116336000I0J-186000D01*
G01*
X118900000Y-116714000D01*
G75*
G02*
X118714000Y-116900000I-186000J0D01*
G01*
G37*
G36*
G01*
X117714000Y-116900000D02*
X117336000Y-116900000D01*
G75*
G02*
X117150000Y-116714000I0J186000D01*
G01*
X117150000Y-116336000D01*
G75*
G02*
X117336000Y-116150000I186000J0D01*
G01*
X117714000Y-116150000D01*
G75*
G02*
X117900000Y-116336000I0J-186000D01*
G01*
X117900000Y-116714000D01*
G75*
G02*
X117714000Y-116900000I-186000J0D01*
G01*
G37*
G36*
G01*
X118714000Y-117900000D02*
X118336000Y-117900000D01*
G75*
G02*
X118150000Y-117714000I0J186000D01*
G01*
X118150000Y-117336000D01*
G75*
G02*
X118336000Y-117150000I186000J0D01*
G01*
X118714000Y-117150000D01*
G75*
G02*
X118900000Y-117336000I0J-186000D01*
G01*
X118900000Y-117714000D01*
G75*
G02*
X118714000Y-117900000I-186000J0D01*
G01*
G37*
G36*
G01*
X117714000Y-117900000D02*
X117336000Y-117900000D01*
G75*
G02*
X117150000Y-117714000I0J186000D01*
G01*
X117150000Y-117336000D01*
G75*
G02*
X117336000Y-117150000I186000J0D01*
G01*
X117714000Y-117150000D01*
G75*
G02*
X117900000Y-117336000I0J-186000D01*
G01*
X117900000Y-117714000D01*
G75*
G02*
X117714000Y-117900000I-186000J0D01*
G01*
G37*
G36*
G01*
X116462500Y-118150000D02*
X115587500Y-118150000D01*
G75*
G02*
X115525000Y-118087500I0J62500D01*
G01*
X115525000Y-117962500D01*
G75*
G02*
X115587500Y-117900000I62500J0D01*
G01*
X116462500Y-117900000D01*
G75*
G02*
X116525000Y-117962500I0J-62500D01*
G01*
X116525000Y-118087500D01*
G75*
G02*
X116462500Y-118150000I-62500J0D01*
G01*
G37*
G36*
G01*
X116462500Y-117650000D02*
X115587500Y-117650000D01*
G75*
G02*
X115525000Y-117587500I0J62500D01*
G01*
X115525000Y-117462500D01*
G75*
G02*
X115587500Y-117400000I62500J0D01*
G01*
X116462500Y-117400000D01*
G75*
G02*
X116525000Y-117462500I0J-62500D01*
G01*
X116525000Y-117587500D01*
G75*
G02*
X116462500Y-117650000I-62500J0D01*
G01*
G37*
G36*
G01*
X116462500Y-117150000D02*
X115587500Y-117150000D01*
G75*
G02*
X115525000Y-117087500I0J62500D01*
G01*
X115525000Y-116962500D01*
G75*
G02*
X115587500Y-116900000I62500J0D01*
G01*
X116462500Y-116900000D01*
G75*
G02*
X116525000Y-116962500I0J-62500D01*
G01*
X116525000Y-117087500D01*
G75*
G02*
X116462500Y-117150000I-62500J0D01*
G01*
G37*
G36*
G01*
X116462500Y-116650000D02*
X115587500Y-116650000D01*
G75*
G02*
X115525000Y-116587500I0J62500D01*
G01*
X115525000Y-116462500D01*
G75*
G02*
X115587500Y-116400000I62500J0D01*
G01*
X116462500Y-116400000D01*
G75*
G02*
X116525000Y-116462500I0J-62500D01*
G01*
X116525000Y-116587500D01*
G75*
G02*
X116462500Y-116650000I-62500J0D01*
G01*
G37*
G36*
G01*
X116462500Y-116150000D02*
X115587500Y-116150000D01*
G75*
G02*
X115525000Y-116087500I0J62500D01*
G01*
X115525000Y-115962500D01*
G75*
G02*
X115587500Y-115900000I62500J0D01*
G01*
X116462500Y-115900000D01*
G75*
G02*
X116525000Y-115962500I0J-62500D01*
G01*
X116525000Y-116087500D01*
G75*
G02*
X116462500Y-116150000I-62500J0D01*
G01*
G37*
G36*
G01*
X117087500Y-115525000D02*
X116962500Y-115525000D01*
G75*
G02*
X116900000Y-115462500I0J62500D01*
G01*
X116900000Y-114587500D01*
G75*
G02*
X116962500Y-114525000I62500J0D01*
G01*
X117087500Y-114525000D01*
G75*
G02*
X117150000Y-114587500I0J-62500D01*
G01*
X117150000Y-115462500D01*
G75*
G02*
X117087500Y-115525000I-62500J0D01*
G01*
G37*
G36*
G01*
X117587500Y-115525000D02*
X117462500Y-115525000D01*
G75*
G02*
X117400000Y-115462500I0J62500D01*
G01*
X117400000Y-114587500D01*
G75*
G02*
X117462500Y-114525000I62500J0D01*
G01*
X117587500Y-114525000D01*
G75*
G02*
X117650000Y-114587500I0J-62500D01*
G01*
X117650000Y-115462500D01*
G75*
G02*
X117587500Y-115525000I-62500J0D01*
G01*
G37*
G36*
G01*
X118087500Y-115525000D02*
X117962500Y-115525000D01*
G75*
G02*
X117900000Y-115462500I0J62500D01*
G01*
X117900000Y-114587500D01*
G75*
G02*
X117962500Y-114525000I62500J0D01*
G01*
X118087500Y-114525000D01*
G75*
G02*
X118150000Y-114587500I0J-62500D01*
G01*
X118150000Y-115462500D01*
G75*
G02*
X118087500Y-115525000I-62500J0D01*
G01*
G37*
G36*
G01*
X118587500Y-115525000D02*
X118462500Y-115525000D01*
G75*
G02*
X118400000Y-115462500I0J62500D01*
G01*
X118400000Y-114587500D01*
G75*
G02*
X118462500Y-114525000I62500J0D01*
G01*
X118587500Y-114525000D01*
G75*
G02*
X118650000Y-114587500I0J-62500D01*
G01*
X118650000Y-115462500D01*
G75*
G02*
X118587500Y-115525000I-62500J0D01*
G01*
G37*
G36*
G01*
X119087500Y-115525000D02*
X118962500Y-115525000D01*
G75*
G02*
X118900000Y-115462500I0J62500D01*
G01*
X118900000Y-114587500D01*
G75*
G02*
X118962500Y-114525000I62500J0D01*
G01*
X119087500Y-114525000D01*
G75*
G02*
X119150000Y-114587500I0J-62500D01*
G01*
X119150000Y-115462500D01*
G75*
G02*
X119087500Y-115525000I-62500J0D01*
G01*
G37*
G36*
G01*
X120462500Y-116150000D02*
X119587500Y-116150000D01*
G75*
G02*
X119525000Y-116087500I0J62500D01*
G01*
X119525000Y-115962500D01*
G75*
G02*
X119587500Y-115900000I62500J0D01*
G01*
X120462500Y-115900000D01*
G75*
G02*
X120525000Y-115962500I0J-62500D01*
G01*
X120525000Y-116087500D01*
G75*
G02*
X120462500Y-116150000I-62500J0D01*
G01*
G37*
G36*
G01*
X120462500Y-116650000D02*
X119587500Y-116650000D01*
G75*
G02*
X119525000Y-116587500I0J62500D01*
G01*
X119525000Y-116462500D01*
G75*
G02*
X119587500Y-116400000I62500J0D01*
G01*
X120462500Y-116400000D01*
G75*
G02*
X120525000Y-116462500I0J-62500D01*
G01*
X120525000Y-116587500D01*
G75*
G02*
X120462500Y-116650000I-62500J0D01*
G01*
G37*
G36*
G01*
X120462500Y-117150000D02*
X119587500Y-117150000D01*
G75*
G02*
X119525000Y-117087500I0J62500D01*
G01*
X119525000Y-116962500D01*
G75*
G02*
X119587500Y-116900000I62500J0D01*
G01*
X120462500Y-116900000D01*
G75*
G02*
X120525000Y-116962500I0J-62500D01*
G01*
X120525000Y-117087500D01*
G75*
G02*
X120462500Y-117150000I-62500J0D01*
G01*
G37*
G36*
G01*
X120462500Y-117650000D02*
X119587500Y-117650000D01*
G75*
G02*
X119525000Y-117587500I0J62500D01*
G01*
X119525000Y-117462500D01*
G75*
G02*
X119587500Y-117400000I62500J0D01*
G01*
X120462500Y-117400000D01*
G75*
G02*
X120525000Y-117462500I0J-62500D01*
G01*
X120525000Y-117587500D01*
G75*
G02*
X120462500Y-117650000I-62500J0D01*
G01*
G37*
G36*
G01*
X120462500Y-118150000D02*
X119587500Y-118150000D01*
G75*
G02*
X119525000Y-118087500I0J62500D01*
G01*
X119525000Y-117962500D01*
G75*
G02*
X119587500Y-117900000I62500J0D01*
G01*
X120462500Y-117900000D01*
G75*
G02*
X120525000Y-117962500I0J-62500D01*
G01*
X120525000Y-118087500D01*
G75*
G02*
X120462500Y-118150000I-62500J0D01*
G01*
G37*
G36*
G01*
X119087500Y-119525000D02*
X118962500Y-119525000D01*
G75*
G02*
X118900000Y-119462500I0J62500D01*
G01*
X118900000Y-118587500D01*
G75*
G02*
X118962500Y-118525000I62500J0D01*
G01*
X119087500Y-118525000D01*
G75*
G02*
X119150000Y-118587500I0J-62500D01*
G01*
X119150000Y-119462500D01*
G75*
G02*
X119087500Y-119525000I-62500J0D01*
G01*
G37*
G36*
G01*
X118587500Y-119525000D02*
X118462500Y-119525000D01*
G75*
G02*
X118400000Y-119462500I0J62500D01*
G01*
X118400000Y-118587500D01*
G75*
G02*
X118462500Y-118525000I62500J0D01*
G01*
X118587500Y-118525000D01*
G75*
G02*
X118650000Y-118587500I0J-62500D01*
G01*
X118650000Y-119462500D01*
G75*
G02*
X118587500Y-119525000I-62500J0D01*
G01*
G37*
G36*
G01*
X118087500Y-119525000D02*
X117962500Y-119525000D01*
G75*
G02*
X117900000Y-119462500I0J62500D01*
G01*
X117900000Y-118587500D01*
G75*
G02*
X117962500Y-118525000I62500J0D01*
G01*
X118087500Y-118525000D01*
G75*
G02*
X118150000Y-118587500I0J-62500D01*
G01*
X118150000Y-119462500D01*
G75*
G02*
X118087500Y-119525000I-62500J0D01*
G01*
G37*
G36*
G01*
X117587500Y-119525000D02*
X117462500Y-119525000D01*
G75*
G02*
X117400000Y-119462500I0J62500D01*
G01*
X117400000Y-118587500D01*
G75*
G02*
X117462500Y-118525000I62500J0D01*
G01*
X117587500Y-118525000D01*
G75*
G02*
X117650000Y-118587500I0J-62500D01*
G01*
X117650000Y-119462500D01*
G75*
G02*
X117587500Y-119525000I-62500J0D01*
G01*
G37*
G36*
G01*
X117087500Y-119525000D02*
X116962500Y-119525000D01*
G75*
G02*
X116900000Y-119462500I0J62500D01*
G01*
X116900000Y-118587500D01*
G75*
G02*
X116962500Y-118525000I62500J0D01*
G01*
X117087500Y-118525000D01*
G75*
G02*
X117150000Y-118587500I0J-62500D01*
G01*
X117150000Y-119462500D01*
G75*
G02*
X117087500Y-119525000I-62500J0D01*
G01*
G37*
%TD*%
%TO.C,J2*%
G36*
G01*
X126047500Y-112250000D02*
X125582500Y-112250000D01*
G75*
G02*
X125350000Y-112017500I0J232500D01*
G01*
X125350000Y-111552500D01*
G75*
G02*
X125582500Y-111320000I232500J0D01*
G01*
X126047500Y-111320000D01*
G75*
G02*
X126280000Y-111552500I0J-232500D01*
G01*
X126280000Y-112017500D01*
G75*
G02*
X126047500Y-112250000I-232500J0D01*
G01*
G37*
G36*
G01*
X127197500Y-112250000D02*
X126732500Y-112250000D01*
G75*
G02*
X126500000Y-112017500I0J232500D01*
G01*
X126500000Y-111552500D01*
G75*
G02*
X126732500Y-111320000I232500J0D01*
G01*
X127197500Y-111320000D01*
G75*
G02*
X127430000Y-111552500I0J-232500D01*
G01*
X127430000Y-112017500D01*
G75*
G02*
X127197500Y-112250000I-232500J0D01*
G01*
G37*
G36*
G01*
X128347500Y-112250000D02*
X127882500Y-112250000D01*
G75*
G02*
X127650000Y-112017500I0J232500D01*
G01*
X127650000Y-111552500D01*
G75*
G02*
X127882500Y-111320000I232500J0D01*
G01*
X128347500Y-111320000D01*
G75*
G02*
X128580000Y-111552500I0J-232500D01*
G01*
X128580000Y-112017500D01*
G75*
G02*
X128347500Y-112250000I-232500J0D01*
G01*
G37*
G36*
G01*
X124897500Y-111100000D02*
X124432500Y-111100000D01*
G75*
G02*
X124200000Y-110867500I0J232500D01*
G01*
X124200000Y-110402500D01*
G75*
G02*
X124432500Y-110170000I232500J0D01*
G01*
X124897500Y-110170000D01*
G75*
G02*
X125130000Y-110402500I0J-232500D01*
G01*
X125130000Y-110867500D01*
G75*
G02*
X124897500Y-111100000I-232500J0D01*
G01*
G37*
G36*
G01*
X126047500Y-111100000D02*
X125582500Y-111100000D01*
G75*
G02*
X125350000Y-110867500I0J232500D01*
G01*
X125350000Y-110402500D01*
G75*
G02*
X125582500Y-110170000I232500J0D01*
G01*
X126047500Y-110170000D01*
G75*
G02*
X126280000Y-110402500I0J-232500D01*
G01*
X126280000Y-110867500D01*
G75*
G02*
X126047500Y-111100000I-232500J0D01*
G01*
G37*
G36*
G01*
X127197500Y-111100000D02*
X126732500Y-111100000D01*
G75*
G02*
X126500000Y-110867500I0J232500D01*
G01*
X126500000Y-110402500D01*
G75*
G02*
X126732500Y-110170000I232500J0D01*
G01*
X127197500Y-110170000D01*
G75*
G02*
X127430000Y-110402500I0J-232500D01*
G01*
X127430000Y-110867500D01*
G75*
G02*
X127197500Y-111100000I-232500J0D01*
G01*
G37*
G36*
G01*
X128347500Y-111100000D02*
X127882500Y-111100000D01*
G75*
G02*
X127650000Y-110867500I0J232500D01*
G01*
X127650000Y-110402500D01*
G75*
G02*
X127882500Y-110170000I232500J0D01*
G01*
X128347500Y-110170000D01*
G75*
G02*
X128580000Y-110402500I0J-232500D01*
G01*
X128580000Y-110867500D01*
G75*
G02*
X128347500Y-111100000I-232500J0D01*
G01*
G37*
G36*
G01*
X124897500Y-109950000D02*
X124432500Y-109950000D01*
G75*
G02*
X124200000Y-109717500I0J232500D01*
G01*
X124200000Y-109252500D01*
G75*
G02*
X124432500Y-109020000I232500J0D01*
G01*
X124897500Y-109020000D01*
G75*
G02*
X125130000Y-109252500I0J-232500D01*
G01*
X125130000Y-109717500D01*
G75*
G02*
X124897500Y-109950000I-232500J0D01*
G01*
G37*
G36*
G01*
X126047500Y-109950000D02*
X125582500Y-109950000D01*
G75*
G02*
X125350000Y-109717500I0J232500D01*
G01*
X125350000Y-109252500D01*
G75*
G02*
X125582500Y-109020000I232500J0D01*
G01*
X126047500Y-109020000D01*
G75*
G02*
X126280000Y-109252500I0J-232500D01*
G01*
X126280000Y-109717500D01*
G75*
G02*
X126047500Y-109950000I-232500J0D01*
G01*
G37*
G36*
G01*
X127197500Y-109950000D02*
X126732500Y-109950000D01*
G75*
G02*
X126500000Y-109717500I0J232500D01*
G01*
X126500000Y-109252500D01*
G75*
G02*
X126732500Y-109020000I232500J0D01*
G01*
X127197500Y-109020000D01*
G75*
G02*
X127430000Y-109252500I0J-232500D01*
G01*
X127430000Y-109717500D01*
G75*
G02*
X127197500Y-109950000I-232500J0D01*
G01*
G37*
G36*
G01*
X128347500Y-109950000D02*
X127882500Y-109950000D01*
G75*
G02*
X127650000Y-109717500I0J232500D01*
G01*
X127650000Y-109252500D01*
G75*
G02*
X127882500Y-109020000I232500J0D01*
G01*
X128347500Y-109020000D01*
G75*
G02*
X128580000Y-109252500I0J-232500D01*
G01*
X128580000Y-109717500D01*
G75*
G02*
X128347500Y-109950000I-232500J0D01*
G01*
G37*
G36*
G01*
X124897500Y-113400000D02*
X124432500Y-113400000D01*
G75*
G02*
X124200000Y-113167500I0J232500D01*
G01*
X124200000Y-112702500D01*
G75*
G02*
X124432500Y-112470000I232500J0D01*
G01*
X124897500Y-112470000D01*
G75*
G02*
X125130000Y-112702500I0J-232500D01*
G01*
X125130000Y-113167500D01*
G75*
G02*
X124897500Y-113400000I-232500J0D01*
G01*
G37*
G36*
G01*
X126047500Y-113400000D02*
X125582500Y-113400000D01*
G75*
G02*
X125350000Y-113167500I0J232500D01*
G01*
X125350000Y-112702500D01*
G75*
G02*
X125582500Y-112470000I232500J0D01*
G01*
X126047500Y-112470000D01*
G75*
G02*
X126280000Y-112702500I0J-232500D01*
G01*
X126280000Y-113167500D01*
G75*
G02*
X126047500Y-113400000I-232500J0D01*
G01*
G37*
G36*
G01*
X127197500Y-113400000D02*
X126732500Y-113400000D01*
G75*
G02*
X126500000Y-113167500I0J232500D01*
G01*
X126500000Y-112702500D01*
G75*
G02*
X126732500Y-112470000I232500J0D01*
G01*
X127197500Y-112470000D01*
G75*
G02*
X127430000Y-112702500I0J-232500D01*
G01*
X127430000Y-113167500D01*
G75*
G02*
X127197500Y-113400000I-232500J0D01*
G01*
G37*
G36*
G01*
X128347500Y-113400000D02*
X127882500Y-113400000D01*
G75*
G02*
X127650000Y-113167500I0J232500D01*
G01*
X127650000Y-112702500D01*
G75*
G02*
X127882500Y-112470000I232500J0D01*
G01*
X128347500Y-112470000D01*
G75*
G02*
X128580000Y-112702500I0J-232500D01*
G01*
X128580000Y-113167500D01*
G75*
G02*
X128347500Y-113400000I-232500J0D01*
G01*
G37*
G36*
G01*
X124897500Y-112250000D02*
X124432500Y-112250000D01*
G75*
G02*
X124200000Y-112017500I0J232500D01*
G01*
X124200000Y-111552500D01*
G75*
G02*
X124432500Y-111320000I232500J0D01*
G01*
X124897500Y-111320000D01*
G75*
G02*
X125130000Y-111552500I0J-232500D01*
G01*
X125130000Y-112017500D01*
G75*
G02*
X124897500Y-112250000I-232500J0D01*
G01*
G37*
D14*
X122240000Y-113600000D03*
X122240000Y-108800000D03*
D15*
X122240000Y-110950000D03*
X122240000Y-111450000D03*
X122240000Y-110450000D03*
X122240000Y-111950000D03*
X122240000Y-109950000D03*
X122240000Y-112450000D03*
X122240000Y-109450000D03*
X122240000Y-112950000D03*
D14*
X122240000Y-108000000D03*
X122240000Y-114400000D03*
%TD*%
M02*
