%TF.GenerationSoftware,KiCad,Pcbnew,(5.1.9-0-10_14)*%
%TF.CreationDate,2021-03-06T19:49:57+00:00*%
%TF.ProjectId,Generic,47656e65-7269-4632-9e6b-696361645f70,rev?*%
%TF.SameCoordinates,Original*%
%TF.FileFunction,Copper,L2,Bot*%
%TF.FilePolarity,Positive*%
%FSLAX46Y46*%
G04 Gerber Fmt 4.6, Leading zero omitted, Abs format (unit mm)*
G04 Created by KiCad (PCBNEW (5.1.9-0-10_14)) date 2021-03-06 19:49:57*
%MOMM*%
%LPD*%
G01*
G04 APERTURE LIST*
%TA.AperFunction,SMDPad,CuDef*%
%ADD10R,2.000000X1.500000*%
%TD*%
%TA.AperFunction,SMDPad,CuDef*%
%ADD11R,2.000000X3.800000*%
%TD*%
%TA.AperFunction,SMDPad,CuDef*%
%ADD12R,5.490000X8.340000*%
%TD*%
%TA.AperFunction,SMDPad,CuDef*%
%ADD13R,1.140000X0.600000*%
%TD*%
%TA.AperFunction,ComponentPad*%
%ADD14C,2.000000*%
%TD*%
%TA.AperFunction,SMDPad,CuDef*%
%ADD15R,1.140000X0.300000*%
%TD*%
%TA.AperFunction,ComponentPad*%
%ADD16C,0.600000*%
%TD*%
%TA.AperFunction,SMDPad,CuDef*%
%ADD17R,2.100000X2.100000*%
%TD*%
%TA.AperFunction,ComponentPad*%
%ADD18O,1.700000X1.850000*%
%TD*%
%TA.AperFunction,ViaPad*%
%ADD19C,0.800000*%
%TD*%
%TA.AperFunction,Conductor*%
%ADD20C,0.250000*%
%TD*%
%TA.AperFunction,Conductor*%
%ADD21C,0.254000*%
%TD*%
%TA.AperFunction,Conductor*%
%ADD22C,0.100000*%
%TD*%
G04 APERTURE END LIST*
D10*
%TO.P,U3,1*%
%TO.N,VBUS*%
X113600000Y-104300000D03*
%TO.P,U3,3*%
%TO.N,+3V3*%
X113600000Y-99700000D03*
%TO.P,U3,2*%
%TO.N,GND*%
X113600000Y-102000000D03*
D11*
X119900000Y-102000000D03*
%TD*%
%TO.P,R5,2*%
%TO.N,IO5*%
%TA.AperFunction,SMDPad,CuDef*%
G36*
G01*
X129125001Y-123350000D02*
X127874999Y-123350000D01*
G75*
G02*
X127625000Y-123100001I0J249999D01*
G01*
X127625000Y-122299999D01*
G75*
G02*
X127874999Y-122050000I249999J0D01*
G01*
X129125001Y-122050000D01*
G75*
G02*
X129375000Y-122299999I0J-249999D01*
G01*
X129375000Y-123100001D01*
G75*
G02*
X129125001Y-123350000I-249999J0D01*
G01*
G37*
%TD.AperFunction*%
%TO.P,R5,1*%
%TO.N,+3V3*%
%TA.AperFunction,SMDPad,CuDef*%
G36*
G01*
X129125001Y-126450000D02*
X127874999Y-126450000D01*
G75*
G02*
X127625000Y-126200001I0J249999D01*
G01*
X127625000Y-125399999D01*
G75*
G02*
X127874999Y-125150000I249999J0D01*
G01*
X129125001Y-125150000D01*
G75*
G02*
X129375000Y-125399999I0J-249999D01*
G01*
X129375000Y-126200001D01*
G75*
G02*
X129125001Y-126450000I-249999J0D01*
G01*
G37*
%TD.AperFunction*%
%TD*%
%TO.P,R4,2*%
%TO.N,IO4*%
%TA.AperFunction,SMDPad,CuDef*%
G36*
G01*
X126625001Y-123350000D02*
X125374999Y-123350000D01*
G75*
G02*
X125125000Y-123100001I0J249999D01*
G01*
X125125000Y-122299999D01*
G75*
G02*
X125374999Y-122050000I249999J0D01*
G01*
X126625001Y-122050000D01*
G75*
G02*
X126875000Y-122299999I0J-249999D01*
G01*
X126875000Y-123100001D01*
G75*
G02*
X126625001Y-123350000I-249999J0D01*
G01*
G37*
%TD.AperFunction*%
%TO.P,R4,1*%
%TO.N,+3V3*%
%TA.AperFunction,SMDPad,CuDef*%
G36*
G01*
X126625001Y-126450000D02*
X125374999Y-126450000D01*
G75*
G02*
X125125000Y-126200001I0J249999D01*
G01*
X125125000Y-125399999D01*
G75*
G02*
X125374999Y-125150000I249999J0D01*
G01*
X126625001Y-125150000D01*
G75*
G02*
X126875000Y-125399999I0J-249999D01*
G01*
X126875000Y-126200001D01*
G75*
G02*
X126625001Y-126450000I-249999J0D01*
G01*
G37*
%TD.AperFunction*%
%TD*%
%TO.P,R3,2*%
%TO.N,IO3*%
%TA.AperFunction,SMDPad,CuDef*%
G36*
G01*
X124125001Y-123350000D02*
X122874999Y-123350000D01*
G75*
G02*
X122625000Y-123100001I0J249999D01*
G01*
X122625000Y-122299999D01*
G75*
G02*
X122874999Y-122050000I249999J0D01*
G01*
X124125001Y-122050000D01*
G75*
G02*
X124375000Y-122299999I0J-249999D01*
G01*
X124375000Y-123100001D01*
G75*
G02*
X124125001Y-123350000I-249999J0D01*
G01*
G37*
%TD.AperFunction*%
%TO.P,R3,1*%
%TO.N,+3V3*%
%TA.AperFunction,SMDPad,CuDef*%
G36*
G01*
X124125001Y-126450000D02*
X122874999Y-126450000D01*
G75*
G02*
X122625000Y-126200001I0J249999D01*
G01*
X122625000Y-125399999D01*
G75*
G02*
X122874999Y-125150000I249999J0D01*
G01*
X124125001Y-125150000D01*
G75*
G02*
X124375000Y-125399999I0J-249999D01*
G01*
X124375000Y-126200001D01*
G75*
G02*
X124125001Y-126450000I-249999J0D01*
G01*
G37*
%TD.AperFunction*%
%TD*%
%TO.P,R2,2*%
%TO.N,IO2*%
%TA.AperFunction,SMDPad,CuDef*%
G36*
G01*
X121625001Y-123350000D02*
X120374999Y-123350000D01*
G75*
G02*
X120125000Y-123100001I0J249999D01*
G01*
X120125000Y-122299999D01*
G75*
G02*
X120374999Y-122050000I249999J0D01*
G01*
X121625001Y-122050000D01*
G75*
G02*
X121875000Y-122299999I0J-249999D01*
G01*
X121875000Y-123100001D01*
G75*
G02*
X121625001Y-123350000I-249999J0D01*
G01*
G37*
%TD.AperFunction*%
%TO.P,R2,1*%
%TO.N,+3V3*%
%TA.AperFunction,SMDPad,CuDef*%
G36*
G01*
X121625001Y-126450000D02*
X120374999Y-126450000D01*
G75*
G02*
X120125000Y-126200001I0J249999D01*
G01*
X120125000Y-125399999D01*
G75*
G02*
X120374999Y-125150000I249999J0D01*
G01*
X121625001Y-125150000D01*
G75*
G02*
X121875000Y-125399999I0J-249999D01*
G01*
X121875000Y-126200001D01*
G75*
G02*
X121625001Y-126450000I-249999J0D01*
G01*
G37*
%TD.AperFunction*%
%TD*%
%TO.P,R1,2*%
%TO.N,IO1*%
%TA.AperFunction,SMDPad,CuDef*%
G36*
G01*
X119125001Y-123350000D02*
X117874999Y-123350000D01*
G75*
G02*
X117625000Y-123100001I0J249999D01*
G01*
X117625000Y-122299999D01*
G75*
G02*
X117874999Y-122050000I249999J0D01*
G01*
X119125001Y-122050000D01*
G75*
G02*
X119375000Y-122299999I0J-249999D01*
G01*
X119375000Y-123100001D01*
G75*
G02*
X119125001Y-123350000I-249999J0D01*
G01*
G37*
%TD.AperFunction*%
%TO.P,R1,1*%
%TO.N,+3V3*%
%TA.AperFunction,SMDPad,CuDef*%
G36*
G01*
X119125001Y-126450000D02*
X117874999Y-126450000D01*
G75*
G02*
X117625000Y-126200001I0J249999D01*
G01*
X117625000Y-125399999D01*
G75*
G02*
X117874999Y-125150000I249999J0D01*
G01*
X119125001Y-125150000D01*
G75*
G02*
X119375000Y-125399999I0J-249999D01*
G01*
X119375000Y-126200001D01*
G75*
G02*
X119125001Y-126450000I-249999J0D01*
G01*
G37*
%TD.AperFunction*%
%TD*%
D12*
%TO.P,J2,S1*%
%TO.N,GND*%
X115100000Y-110700000D03*
D13*
%TO.P,J2,A12*%
X119215000Y-107500000D03*
%TO.P,J2,A4*%
%TO.N,VBUS*%
X119215000Y-113100000D03*
%TO.P,J2,B12*%
%TO.N,GND*%
X119215000Y-113900000D03*
%TO.P,J2,B4*%
%TO.N,VBUS*%
X119215000Y-108300000D03*
D14*
%TO.P,J2,S1*%
%TO.N,GND*%
X114445000Y-106375000D03*
X114445000Y-115025000D03*
X118625000Y-106375000D03*
X118625000Y-115025000D03*
D15*
%TO.P,J2,A7*%
%TO.N,D-*%
X119215000Y-110450000D03*
%TO.P,J2,A6*%
%TO.N,D+*%
X119215000Y-110950000D03*
%TO.P,J2,B6*%
X119215000Y-109950000D03*
%TO.P,J2,B7*%
%TO.N,D-*%
X119215000Y-111450000D03*
%TO.P,J2,A8*%
%TO.N,Net-(J2-PadA8)*%
X119215000Y-109450000D03*
%TO.P,J2,A5*%
%TO.N,Net-(J2-PadA5)*%
X119215000Y-111950000D03*
%TO.P,J2,B5*%
%TO.N,Net-(J2-PadB5)*%
X119215000Y-108950000D03*
%TO.P,J2,B8*%
%TO.N,Net-(J2-PadB8)*%
X119215000Y-112450000D03*
D13*
%TO.P,J2,A9*%
%TO.N,VBUS*%
X119215000Y-108300000D03*
%TO.P,J2,B9*%
X119215000Y-113100000D03*
%TO.P,J2,B1*%
%TO.N,GND*%
X119215000Y-107500000D03*
D16*
%TO.P,J2,S1*%
X118145000Y-107810000D03*
X118145000Y-113590000D03*
D13*
%TO.P,J2,A1*%
X119215000Y-113900000D03*
%TD*%
D17*
%TO.P,U2,17*%
%TO.N,GND*%
X127500000Y-108700000D03*
%TO.P,U2,16*%
%TO.N,EN*%
%TA.AperFunction,SMDPad,CuDef*%
G36*
G01*
X125200000Y-107575000D02*
X125900000Y-107575000D01*
G75*
G02*
X125975000Y-107650000I0J-75000D01*
G01*
X125975000Y-107800000D01*
G75*
G02*
X125900000Y-107875000I-75000J0D01*
G01*
X125200000Y-107875000D01*
G75*
G02*
X125125000Y-107800000I0J75000D01*
G01*
X125125000Y-107650000D01*
G75*
G02*
X125200000Y-107575000I75000J0D01*
G01*
G37*
%TD.AperFunction*%
%TO.P,U2,15*%
%TO.N,I*%
%TA.AperFunction,SMDPad,CuDef*%
G36*
G01*
X125200000Y-108225000D02*
X125900000Y-108225000D01*
G75*
G02*
X125975000Y-108300000I0J-75000D01*
G01*
X125975000Y-108450000D01*
G75*
G02*
X125900000Y-108525000I-75000J0D01*
G01*
X125200000Y-108525000D01*
G75*
G02*
X125125000Y-108450000I0J75000D01*
G01*
X125125000Y-108300000D01*
G75*
G02*
X125200000Y-108225000I75000J0D01*
G01*
G37*
%TD.AperFunction*%
%TO.P,U2,14*%
%TO.N,CBUS3*%
%TA.AperFunction,SMDPad,CuDef*%
G36*
G01*
X125200000Y-108875000D02*
X125900000Y-108875000D01*
G75*
G02*
X125975000Y-108950000I0J-75000D01*
G01*
X125975000Y-109100000D01*
G75*
G02*
X125900000Y-109175000I-75000J0D01*
G01*
X125200000Y-109175000D01*
G75*
G02*
X125125000Y-109100000I0J75000D01*
G01*
X125125000Y-108950000D01*
G75*
G02*
X125200000Y-108875000I75000J0D01*
G01*
G37*
%TD.AperFunction*%
%TO.P,U2,13*%
%TO.N,GND*%
%TA.AperFunction,SMDPad,CuDef*%
G36*
G01*
X125200000Y-109525000D02*
X125900000Y-109525000D01*
G75*
G02*
X125975000Y-109600000I0J-75000D01*
G01*
X125975000Y-109750000D01*
G75*
G02*
X125900000Y-109825000I-75000J0D01*
G01*
X125200000Y-109825000D01*
G75*
G02*
X125125000Y-109750000I0J75000D01*
G01*
X125125000Y-109600000D01*
G75*
G02*
X125200000Y-109525000I75000J0D01*
G01*
G37*
%TD.AperFunction*%
%TO.P,U2,12*%
%TO.N,CBUS0*%
%TA.AperFunction,SMDPad,CuDef*%
G36*
G01*
X126450000Y-110225000D02*
X126600000Y-110225000D01*
G75*
G02*
X126675000Y-110300000I0J-75000D01*
G01*
X126675000Y-111000000D01*
G75*
G02*
X126600000Y-111075000I-75000J0D01*
G01*
X126450000Y-111075000D01*
G75*
G02*
X126375000Y-111000000I0J75000D01*
G01*
X126375000Y-110300000D01*
G75*
G02*
X126450000Y-110225000I75000J0D01*
G01*
G37*
%TD.AperFunction*%
%TO.P,U2,11*%
%TO.N,CBUS1*%
%TA.AperFunction,SMDPad,CuDef*%
G36*
G01*
X127100000Y-110225000D02*
X127250000Y-110225000D01*
G75*
G02*
X127325000Y-110300000I0J-75000D01*
G01*
X127325000Y-111000000D01*
G75*
G02*
X127250000Y-111075000I-75000J0D01*
G01*
X127100000Y-111075000D01*
G75*
G02*
X127025000Y-111000000I0J75000D01*
G01*
X127025000Y-110300000D01*
G75*
G02*
X127100000Y-110225000I75000J0D01*
G01*
G37*
%TD.AperFunction*%
%TO.P,U2,10*%
%TO.N,VBUS*%
%TA.AperFunction,SMDPad,CuDef*%
G36*
G01*
X127750000Y-110225000D02*
X127900000Y-110225000D01*
G75*
G02*
X127975000Y-110300000I0J-75000D01*
G01*
X127975000Y-111000000D01*
G75*
G02*
X127900000Y-111075000I-75000J0D01*
G01*
X127750000Y-111075000D01*
G75*
G02*
X127675000Y-111000000I0J75000D01*
G01*
X127675000Y-110300000D01*
G75*
G02*
X127750000Y-110225000I75000J0D01*
G01*
G37*
%TD.AperFunction*%
%TO.P,U2,9*%
%TO.N,Net-(C3-Pad1)*%
%TA.AperFunction,SMDPad,CuDef*%
G36*
G01*
X128400000Y-110225000D02*
X128550000Y-110225000D01*
G75*
G02*
X128625000Y-110300000I0J-75000D01*
G01*
X128625000Y-111000000D01*
G75*
G02*
X128550000Y-111075000I-75000J0D01*
G01*
X128400000Y-111075000D01*
G75*
G02*
X128325000Y-111000000I0J75000D01*
G01*
X128325000Y-110300000D01*
G75*
G02*
X128400000Y-110225000I75000J0D01*
G01*
G37*
%TD.AperFunction*%
%TO.P,U2,8*%
%TA.AperFunction,SMDPad,CuDef*%
G36*
G01*
X129100000Y-109525000D02*
X129800000Y-109525000D01*
G75*
G02*
X129875000Y-109600000I0J-75000D01*
G01*
X129875000Y-109750000D01*
G75*
G02*
X129800000Y-109825000I-75000J0D01*
G01*
X129100000Y-109825000D01*
G75*
G02*
X129025000Y-109750000I0J75000D01*
G01*
X129025000Y-109600000D01*
G75*
G02*
X129100000Y-109525000I75000J0D01*
G01*
G37*
%TD.AperFunction*%
%TO.P,U2,7*%
%TO.N,Net-(R6-Pad1)*%
%TA.AperFunction,SMDPad,CuDef*%
G36*
G01*
X129100000Y-108875000D02*
X129800000Y-108875000D01*
G75*
G02*
X129875000Y-108950000I0J-75000D01*
G01*
X129875000Y-109100000D01*
G75*
G02*
X129800000Y-109175000I-75000J0D01*
G01*
X129100000Y-109175000D01*
G75*
G02*
X129025000Y-109100000I0J75000D01*
G01*
X129025000Y-108950000D01*
G75*
G02*
X129100000Y-108875000I75000J0D01*
G01*
G37*
%TD.AperFunction*%
%TO.P,U2,6*%
%TO.N,Net-(R7-Pad1)*%
%TA.AperFunction,SMDPad,CuDef*%
G36*
G01*
X129100000Y-108225000D02*
X129800000Y-108225000D01*
G75*
G02*
X129875000Y-108300000I0J-75000D01*
G01*
X129875000Y-108450000D01*
G75*
G02*
X129800000Y-108525000I-75000J0D01*
G01*
X129100000Y-108525000D01*
G75*
G02*
X129025000Y-108450000I0J75000D01*
G01*
X129025000Y-108300000D01*
G75*
G02*
X129100000Y-108225000I75000J0D01*
G01*
G37*
%TD.AperFunction*%
%TO.P,U2,5*%
%TO.N,CBUS2*%
%TA.AperFunction,SMDPad,CuDef*%
G36*
G01*
X129100000Y-107575000D02*
X129800000Y-107575000D01*
G75*
G02*
X129875000Y-107650000I0J-75000D01*
G01*
X129875000Y-107800000D01*
G75*
G02*
X129800000Y-107875000I-75000J0D01*
G01*
X129100000Y-107875000D01*
G75*
G02*
X129025000Y-107800000I0J75000D01*
G01*
X129025000Y-107650000D01*
G75*
G02*
X129100000Y-107575000I75000J0D01*
G01*
G37*
%TD.AperFunction*%
%TO.P,U2,4*%
%TO.N,Net-(U2-Pad4)*%
%TA.AperFunction,SMDPad,CuDef*%
G36*
G01*
X128400000Y-106325000D02*
X128550000Y-106325000D01*
G75*
G02*
X128625000Y-106400000I0J-75000D01*
G01*
X128625000Y-107100000D01*
G75*
G02*
X128550000Y-107175000I-75000J0D01*
G01*
X128400000Y-107175000D01*
G75*
G02*
X128325000Y-107100000I0J75000D01*
G01*
X128325000Y-106400000D01*
G75*
G02*
X128400000Y-106325000I75000J0D01*
G01*
G37*
%TD.AperFunction*%
%TO.P,U2,3*%
%TO.N,GND*%
%TA.AperFunction,SMDPad,CuDef*%
G36*
G01*
X127750000Y-106325000D02*
X127900000Y-106325000D01*
G75*
G02*
X127975000Y-106400000I0J-75000D01*
G01*
X127975000Y-107100000D01*
G75*
G02*
X127900000Y-107175000I-75000J0D01*
G01*
X127750000Y-107175000D01*
G75*
G02*
X127675000Y-107100000I0J75000D01*
G01*
X127675000Y-106400000D01*
G75*
G02*
X127750000Y-106325000I75000J0D01*
G01*
G37*
%TD.AperFunction*%
%TO.P,U2,2*%
%TO.N,O*%
%TA.AperFunction,SMDPad,CuDef*%
G36*
G01*
X127100000Y-106325000D02*
X127250000Y-106325000D01*
G75*
G02*
X127325000Y-106400000I0J-75000D01*
G01*
X127325000Y-107100000D01*
G75*
G02*
X127250000Y-107175000I-75000J0D01*
G01*
X127100000Y-107175000D01*
G75*
G02*
X127025000Y-107100000I0J75000D01*
G01*
X127025000Y-106400000D01*
G75*
G02*
X127100000Y-106325000I75000J0D01*
G01*
G37*
%TD.AperFunction*%
%TO.P,U2,1*%
%TO.N,Net-(C3-Pad1)*%
%TA.AperFunction,SMDPad,CuDef*%
G36*
G01*
X126450000Y-106325000D02*
X126600000Y-106325000D01*
G75*
G02*
X126675000Y-106400000I0J-75000D01*
G01*
X126675000Y-107100000D01*
G75*
G02*
X126600000Y-107175000I-75000J0D01*
G01*
X126450000Y-107175000D01*
G75*
G02*
X126375000Y-107100000I0J75000D01*
G01*
X126375000Y-106400000D01*
G75*
G02*
X126450000Y-106325000I75000J0D01*
G01*
G37*
%TD.AperFunction*%
%TD*%
%TO.P,R9,2*%
%TO.N,Net-(J2-PadB5)*%
%TA.AperFunction,SMDPad,CuDef*%
G36*
G01*
X124074999Y-101800000D02*
X125325001Y-101800000D01*
G75*
G02*
X125575000Y-102049999I0J-249999D01*
G01*
X125575000Y-102850001D01*
G75*
G02*
X125325001Y-103100000I-249999J0D01*
G01*
X124074999Y-103100000D01*
G75*
G02*
X123825000Y-102850001I0J249999D01*
G01*
X123825000Y-102049999D01*
G75*
G02*
X124074999Y-101800000I249999J0D01*
G01*
G37*
%TD.AperFunction*%
%TO.P,R9,1*%
%TO.N,GND*%
%TA.AperFunction,SMDPad,CuDef*%
G36*
G01*
X124074999Y-98700000D02*
X125325001Y-98700000D01*
G75*
G02*
X125575000Y-98949999I0J-249999D01*
G01*
X125575000Y-99750001D01*
G75*
G02*
X125325001Y-100000000I-249999J0D01*
G01*
X124074999Y-100000000D01*
G75*
G02*
X123825000Y-99750001I0J249999D01*
G01*
X123825000Y-98949999D01*
G75*
G02*
X124074999Y-98700000I249999J0D01*
G01*
G37*
%TD.AperFunction*%
%TD*%
%TO.P,R8,2*%
%TO.N,GND*%
%TA.AperFunction,SMDPad,CuDef*%
G36*
G01*
X121774999Y-116300000D02*
X123025001Y-116300000D01*
G75*
G02*
X123275000Y-116549999I0J-249999D01*
G01*
X123275000Y-117350001D01*
G75*
G02*
X123025001Y-117600000I-249999J0D01*
G01*
X121774999Y-117600000D01*
G75*
G02*
X121525000Y-117350001I0J249999D01*
G01*
X121525000Y-116549999D01*
G75*
G02*
X121774999Y-116300000I249999J0D01*
G01*
G37*
%TD.AperFunction*%
%TO.P,R8,1*%
%TO.N,Net-(J2-PadA5)*%
%TA.AperFunction,SMDPad,CuDef*%
G36*
G01*
X121774999Y-113200000D02*
X123025001Y-113200000D01*
G75*
G02*
X123275000Y-113449999I0J-249999D01*
G01*
X123275000Y-114250001D01*
G75*
G02*
X123025001Y-114500000I-249999J0D01*
G01*
X121774999Y-114500000D01*
G75*
G02*
X121525000Y-114250001I0J249999D01*
G01*
X121525000Y-113449999D01*
G75*
G02*
X121774999Y-113200000I249999J0D01*
G01*
G37*
%TD.AperFunction*%
%TD*%
%TO.P,R7,2*%
%TO.N,D+*%
%TA.AperFunction,SMDPad,CuDef*%
G36*
G01*
X127550000Y-98974999D02*
X127550000Y-100225001D01*
G75*
G02*
X127300001Y-100475000I-249999J0D01*
G01*
X126499999Y-100475000D01*
G75*
G02*
X126250000Y-100225001I0J249999D01*
G01*
X126250000Y-98974999D01*
G75*
G02*
X126499999Y-98725000I249999J0D01*
G01*
X127300001Y-98725000D01*
G75*
G02*
X127550000Y-98974999I0J-249999D01*
G01*
G37*
%TD.AperFunction*%
%TO.P,R7,1*%
%TO.N,Net-(R7-Pad1)*%
%TA.AperFunction,SMDPad,CuDef*%
G36*
G01*
X130650000Y-98974999D02*
X130650000Y-100225001D01*
G75*
G02*
X130400001Y-100475000I-249999J0D01*
G01*
X129599999Y-100475000D01*
G75*
G02*
X129350000Y-100225001I0J249999D01*
G01*
X129350000Y-98974999D01*
G75*
G02*
X129599999Y-98725000I249999J0D01*
G01*
X130400001Y-98725000D01*
G75*
G02*
X130650000Y-98974999I0J-249999D01*
G01*
G37*
%TD.AperFunction*%
%TD*%
%TO.P,R6,2*%
%TO.N,D-*%
%TA.AperFunction,SMDPad,CuDef*%
G36*
G01*
X125300000Y-116074999D02*
X125300000Y-117325001D01*
G75*
G02*
X125050001Y-117575000I-249999J0D01*
G01*
X124249999Y-117575000D01*
G75*
G02*
X124000000Y-117325001I0J249999D01*
G01*
X124000000Y-116074999D01*
G75*
G02*
X124249999Y-115825000I249999J0D01*
G01*
X125050001Y-115825000D01*
G75*
G02*
X125300000Y-116074999I0J-249999D01*
G01*
G37*
%TD.AperFunction*%
%TO.P,R6,1*%
%TO.N,Net-(R6-Pad1)*%
%TA.AperFunction,SMDPad,CuDef*%
G36*
G01*
X128400000Y-116074999D02*
X128400000Y-117325001D01*
G75*
G02*
X128150001Y-117575000I-249999J0D01*
G01*
X127349999Y-117575000D01*
G75*
G02*
X127100000Y-117325001I0J249999D01*
G01*
X127100000Y-116074999D01*
G75*
G02*
X127349999Y-115825000I249999J0D01*
G01*
X128150001Y-115825000D01*
G75*
G02*
X128400000Y-116074999I0J-249999D01*
G01*
G37*
%TD.AperFunction*%
%TD*%
D18*
%TO.P,J1,6*%
%TO.N,IO5*%
X128500000Y-120400000D03*
%TO.P,J1,5*%
%TO.N,IO4*%
X126000000Y-120400000D03*
%TO.P,J1,4*%
%TO.N,IO3*%
X123500000Y-120400000D03*
%TO.P,J1,3*%
%TO.N,IO2*%
X121000000Y-120400000D03*
%TO.P,J1,2*%
%TO.N,IO1*%
X118500000Y-120400000D03*
%TO.P,J1,1*%
%TO.N,GND*%
%TA.AperFunction,ComponentPad*%
G36*
G01*
X115150000Y-121075000D02*
X115150000Y-119725000D01*
G75*
G02*
X115400000Y-119475000I250000J0D01*
G01*
X116600000Y-119475000D01*
G75*
G02*
X116850000Y-119725000I0J-250000D01*
G01*
X116850000Y-121075000D01*
G75*
G02*
X116600000Y-121325000I-250000J0D01*
G01*
X115400000Y-121325000D01*
G75*
G02*
X115150000Y-121075000I0J250000D01*
G01*
G37*
%TD.AperFunction*%
%TD*%
%TO.P,C4,2*%
%TO.N,GND*%
%TA.AperFunction,SMDPad,CuDef*%
G36*
G01*
X121749997Y-101900000D02*
X123050003Y-101900000D01*
G75*
G02*
X123300000Y-102149997I0J-249997D01*
G01*
X123300000Y-102975003D01*
G75*
G02*
X123050003Y-103225000I-249997J0D01*
G01*
X121749997Y-103225000D01*
G75*
G02*
X121500000Y-102975003I0J249997D01*
G01*
X121500000Y-102149997D01*
G75*
G02*
X121749997Y-101900000I249997J0D01*
G01*
G37*
%TD.AperFunction*%
%TO.P,C4,1*%
%TO.N,VBUS*%
%TA.AperFunction,SMDPad,CuDef*%
G36*
G01*
X121749997Y-98775000D02*
X123050003Y-98775000D01*
G75*
G02*
X123300000Y-99024997I0J-249997D01*
G01*
X123300000Y-99850003D01*
G75*
G02*
X123050003Y-100100000I-249997J0D01*
G01*
X121749997Y-100100000D01*
G75*
G02*
X121500000Y-99850003I0J249997D01*
G01*
X121500000Y-99024997D01*
G75*
G02*
X121749997Y-98775000I249997J0D01*
G01*
G37*
%TD.AperFunction*%
%TD*%
%TO.P,C3,2*%
%TO.N,GND*%
%TA.AperFunction,SMDPad,CuDef*%
G36*
G01*
X127537500Y-103949997D02*
X127537500Y-105250003D01*
G75*
G02*
X127287503Y-105500000I-249997J0D01*
G01*
X126462497Y-105500000D01*
G75*
G02*
X126212500Y-105250003I0J249997D01*
G01*
X126212500Y-103949997D01*
G75*
G02*
X126462497Y-103700000I249997J0D01*
G01*
X127287503Y-103700000D01*
G75*
G02*
X127537500Y-103949997I0J-249997D01*
G01*
G37*
%TD.AperFunction*%
%TO.P,C3,1*%
%TO.N,Net-(C3-Pad1)*%
%TA.AperFunction,SMDPad,CuDef*%
G36*
G01*
X130662500Y-103949997D02*
X130662500Y-105250003D01*
G75*
G02*
X130412503Y-105500000I-249997J0D01*
G01*
X129587497Y-105500000D01*
G75*
G02*
X129337500Y-105250003I0J249997D01*
G01*
X129337500Y-103949997D01*
G75*
G02*
X129587497Y-103700000I249997J0D01*
G01*
X130412503Y-103700000D01*
G75*
G02*
X130662500Y-103949997I0J-249997D01*
G01*
G37*
%TD.AperFunction*%
%TD*%
%TO.P,C2,2*%
%TO.N,GND*%
%TA.AperFunction,SMDPad,CuDef*%
G36*
G01*
X127100000Y-114750003D02*
X127100000Y-113449997D01*
G75*
G02*
X127349997Y-113200000I249997J0D01*
G01*
X128175003Y-113200000D01*
G75*
G02*
X128425000Y-113449997I0J-249997D01*
G01*
X128425000Y-114750003D01*
G75*
G02*
X128175003Y-115000000I-249997J0D01*
G01*
X127349997Y-115000000D01*
G75*
G02*
X127100000Y-114750003I0J249997D01*
G01*
G37*
%TD.AperFunction*%
%TO.P,C2,1*%
%TO.N,D-*%
%TA.AperFunction,SMDPad,CuDef*%
G36*
G01*
X123975000Y-114750003D02*
X123975000Y-113449997D01*
G75*
G02*
X124224997Y-113200000I249997J0D01*
G01*
X125050003Y-113200000D01*
G75*
G02*
X125300000Y-113449997I0J-249997D01*
G01*
X125300000Y-114750003D01*
G75*
G02*
X125050003Y-115000000I-249997J0D01*
G01*
X124224997Y-115000000D01*
G75*
G02*
X123975000Y-114750003I0J249997D01*
G01*
G37*
%TD.AperFunction*%
%TD*%
%TO.P,C1,2*%
%TO.N,D+*%
%TA.AperFunction,SMDPad,CuDef*%
G36*
G01*
X127600000Y-101549997D02*
X127600000Y-102850003D01*
G75*
G02*
X127350003Y-103100000I-249997J0D01*
G01*
X126524997Y-103100000D01*
G75*
G02*
X126275000Y-102850003I0J249997D01*
G01*
X126275000Y-101549997D01*
G75*
G02*
X126524997Y-101300000I249997J0D01*
G01*
X127350003Y-101300000D01*
G75*
G02*
X127600000Y-101549997I0J-249997D01*
G01*
G37*
%TD.AperFunction*%
%TO.P,C1,1*%
%TO.N,GND*%
%TA.AperFunction,SMDPad,CuDef*%
G36*
G01*
X130725000Y-101549997D02*
X130725000Y-102850003D01*
G75*
G02*
X130475003Y-103100000I-249997J0D01*
G01*
X129649997Y-103100000D01*
G75*
G02*
X129400000Y-102850003I0J249997D01*
G01*
X129400000Y-101549997D01*
G75*
G02*
X129649997Y-101300000I249997J0D01*
G01*
X130475003Y-101300000D01*
G75*
G02*
X130725000Y-101549997I0J-249997D01*
G01*
G37*
%TD.AperFunction*%
%TD*%
D19*
%TO.N,D+*%
X120847537Y-110714954D03*
X124222872Y-107045475D03*
%TO.N,GND*%
X115200000Y-100200000D03*
X128400000Y-99800000D03*
X125500000Y-110750000D03*
X116500000Y-103250000D03*
X122500000Y-101000000D03*
%TO.N,+3V3*%
X114200000Y-118100000D03*
X115918236Y-99125678D03*
X117100023Y-100300008D03*
%TO.N,VBUS*%
X127630308Y-111669669D03*
X120126139Y-113098542D03*
%TO.N,IO3*%
X121098631Y-115704999D03*
%TO.N,IO2*%
X120073311Y-115705000D03*
%TO.N,O*%
X128750160Y-103738137D03*
%TO.N,I*%
X124650000Y-105900000D03*
%TO.N,EN*%
X124997281Y-104150020D03*
%TO.N,CBUS3*%
X125600000Y-115400000D03*
%TO.N,CBUS0*%
X129757503Y-112714502D03*
%TO.N,CBUS1*%
X128700000Y-112100000D03*
%TO.N,CBUS2*%
X129314316Y-106139037D03*
%TO.N,Net-(C3-Pad1)*%
X128781312Y-110993368D03*
X126448083Y-106217922D03*
X128899999Y-105206991D03*
%TD*%
D20*
%TO.N,D+*%
X126937500Y-99637500D02*
X126900000Y-99600000D01*
X126937500Y-102200000D02*
X126937500Y-99637500D01*
X126801677Y-102200000D02*
X126937500Y-102200000D01*
X120612491Y-110950000D02*
X120847537Y-110714954D01*
X119215000Y-110950000D02*
X120612491Y-110950000D01*
X124222872Y-109163538D02*
X124222872Y-107045475D01*
X120453057Y-109400022D02*
X123986388Y-109400022D01*
X119903079Y-109950000D02*
X120453057Y-109400022D01*
X123986388Y-109400022D02*
X124222872Y-109163538D01*
X119215000Y-109950000D02*
X119903079Y-109950000D01*
X123822873Y-106645476D02*
X124222872Y-107045475D01*
X123822873Y-105577127D02*
X123822873Y-106645476D01*
X124191610Y-105208390D02*
X123822873Y-105577127D01*
X124191610Y-103841610D02*
X124191610Y-105208390D01*
X124608210Y-103425010D02*
X124191610Y-103841610D01*
X125712490Y-103425010D02*
X124608210Y-103425010D01*
X126937500Y-102200000D02*
X125712490Y-103425010D01*
%TO.N,GND*%
X115100000Y-109900000D02*
X115100000Y-110700000D01*
X118625000Y-106375000D02*
X115100000Y-109900000D01*
X115100000Y-111500000D02*
X115100000Y-110700000D01*
X118625000Y-115025000D02*
X115100000Y-111500000D01*
X114445000Y-111355000D02*
X115100000Y-110700000D01*
X114445000Y-115025000D02*
X114445000Y-111355000D01*
X114445000Y-110045000D02*
X115100000Y-110700000D01*
X114445000Y-106375000D02*
X114445000Y-110045000D01*
X118145000Y-107810000D02*
X115255000Y-110700000D01*
X115255000Y-110700000D02*
X115100000Y-110700000D01*
X118145000Y-113590000D02*
X115255000Y-110700000D01*
X126525000Y-109675000D02*
X127500000Y-108700000D01*
X125550000Y-109675000D02*
X126525000Y-109675000D01*
X127825000Y-108375000D02*
X127500000Y-108700000D01*
X127825000Y-106750000D02*
X127825000Y-108375000D01*
X119215000Y-106965000D02*
X118625000Y-106375000D01*
X119215000Y-107500000D02*
X119215000Y-106965000D01*
X119215000Y-114435000D02*
X118625000Y-115025000D01*
X119215000Y-113900000D02*
X119215000Y-114435000D01*
X127762500Y-114100000D02*
X127700000Y-114100000D01*
X126875000Y-104540295D02*
X126875000Y-104600000D01*
X130062500Y-102200000D02*
X129215295Y-102200000D01*
X129215295Y-102200000D02*
X126875000Y-104540295D01*
X122400000Y-102562500D02*
X122400000Y-103400000D01*
X119900000Y-105052588D02*
X120847412Y-106000000D01*
X119900000Y-102000000D02*
X119900000Y-105052588D01*
X119215000Y-113900000D02*
X120511810Y-113900000D01*
X125550000Y-109675000D02*
X125550000Y-110700000D01*
X125550000Y-110700000D02*
X125500000Y-110750000D01*
X127762500Y-114100000D02*
X127350000Y-114100000D01*
X125500000Y-112250000D02*
X125500000Y-110750000D01*
X127350000Y-114100000D02*
X125500000Y-112250000D01*
X127762500Y-114100000D02*
X127762500Y-114237500D01*
X123000000Y-118750000D02*
X122400000Y-118150000D01*
X125750000Y-118750000D02*
X123000000Y-118750000D01*
X126000000Y-116250000D02*
X126000000Y-118500000D01*
X127762500Y-114100000D02*
X127762500Y-114487500D01*
X127762500Y-114487500D02*
X126000000Y-116250000D01*
X122400000Y-118150000D02*
X122400000Y-116950000D01*
X126000000Y-118500000D02*
X125750000Y-118750000D01*
%TO.N,D-*%
X124637500Y-116687500D02*
X124650000Y-116700000D01*
X124637500Y-114100000D02*
X124637500Y-116687500D01*
X119215000Y-111450000D02*
X121137811Y-111450000D01*
X119215000Y-110450000D02*
X120039489Y-110450000D01*
X121137811Y-111450000D02*
X121750000Y-110837811D01*
X120039489Y-110450000D02*
X120614491Y-109874998D01*
X121750000Y-110000000D02*
X121875002Y-109874998D01*
X121750000Y-110837811D02*
X121750000Y-110000000D01*
X120614491Y-109874998D02*
X121625002Y-109874998D01*
X121625002Y-109874998D02*
X121875002Y-109874998D01*
X124637500Y-114100000D02*
X124599978Y-114062478D01*
X124599978Y-111599978D02*
X124300011Y-111300011D01*
X124599978Y-114062478D02*
X124599978Y-111599978D01*
X124300011Y-110050011D02*
X124124998Y-109874998D01*
X124300011Y-111300011D02*
X124300011Y-110050011D01*
X124124998Y-109874998D02*
X121625002Y-109874998D01*
%TO.N,+3V3*%
X128500000Y-125800000D02*
X126000000Y-125800000D01*
X126000000Y-125800000D02*
X123500000Y-125800000D01*
X123500000Y-125800000D02*
X121000000Y-125800000D01*
X121000000Y-125800000D02*
X118500000Y-125800000D01*
X114200000Y-121500000D02*
X114200000Y-118100000D01*
X118500000Y-125800000D02*
X114200000Y-121500000D01*
X114174322Y-99125678D02*
X115918236Y-99125678D01*
X113600000Y-99700000D02*
X114174322Y-99125678D01*
X115918236Y-99125678D02*
X116975678Y-99125678D01*
X117100023Y-99250023D02*
X117100023Y-100300008D01*
X116975678Y-99125678D02*
X117100023Y-99250023D01*
%TO.N,VBUS*%
X113600000Y-104300000D02*
X113725001Y-104425001D01*
X113725001Y-104425001D02*
X116048001Y-104425001D01*
X118319999Y-112860001D02*
X118559998Y-113100000D01*
X118559998Y-113100000D02*
X119215000Y-113100000D01*
X118319999Y-108539999D02*
X118319999Y-112860001D01*
X118559998Y-108300000D02*
X118319999Y-108539999D01*
X119215000Y-108300000D02*
X118559998Y-108300000D01*
X120110001Y-105898999D02*
X118636003Y-104425001D01*
X120110001Y-108224999D02*
X120110001Y-105898999D01*
X120035000Y-108300000D02*
X120110001Y-108224999D01*
X119215000Y-108300000D02*
X120035000Y-108300000D01*
X116048001Y-104425001D02*
X116430955Y-104425001D01*
X127825000Y-110650000D02*
X127825000Y-111474977D01*
X127825000Y-111474977D02*
X127630308Y-111669669D01*
X117374999Y-104425001D02*
X116048001Y-104425001D01*
X118636003Y-104425001D02*
X117374999Y-104425001D01*
X120124681Y-113100000D02*
X120126139Y-113098542D01*
X119215000Y-113100000D02*
X120124681Y-113100000D01*
X121812500Y-98850000D02*
X122400000Y-99437500D01*
X118100000Y-98850000D02*
X121812500Y-98850000D01*
X117650000Y-99300000D02*
X118100000Y-98850000D01*
X117650000Y-99600000D02*
X117650000Y-99300000D01*
X117986501Y-100486501D02*
X117986501Y-99936501D01*
X117374999Y-101098003D02*
X117986501Y-100486501D01*
X117986501Y-99936501D02*
X117650000Y-99600000D01*
X117374999Y-104425001D02*
X117374999Y-101098003D01*
%TO.N,IO5*%
X128500000Y-122700000D02*
X128500000Y-120400000D01*
%TO.N,IO4*%
X126000000Y-122700000D02*
X126000000Y-120400000D01*
%TO.N,IO3*%
X123500000Y-122700000D02*
X123500000Y-120400000D01*
X121649991Y-119186401D02*
X121649991Y-118038182D01*
X123500000Y-120400000D02*
X122863590Y-120400000D01*
X122863590Y-120400000D02*
X121649991Y-119186401D01*
X121649991Y-118038182D02*
X121098631Y-117486822D01*
X121098631Y-117486822D02*
X121098631Y-115704999D01*
%TO.N,IO2*%
X121000000Y-122700000D02*
X121000000Y-120400000D01*
X121000000Y-118024601D02*
X121000000Y-120400000D01*
X120073311Y-115705000D02*
X120073311Y-117097912D01*
X120073311Y-117097912D02*
X121000000Y-118024601D01*
%TO.N,IO1*%
X118500000Y-122700000D02*
X118500000Y-120400000D01*
%TO.N,O*%
X127175000Y-106750000D02*
X127175000Y-106175690D01*
X127175000Y-106175690D02*
X128174986Y-105175704D01*
X128174986Y-104313311D02*
X128750160Y-103738137D01*
X128174986Y-105175704D02*
X128174986Y-104313311D01*
%TO.N,I*%
X124799990Y-108049990D02*
X124799990Y-107484308D01*
X124799990Y-107484308D02*
X125044771Y-107239527D01*
X125550000Y-108375000D02*
X125125000Y-108375000D01*
X125125000Y-108375000D02*
X124799990Y-108049990D01*
X124644772Y-106255230D02*
X125044771Y-106655229D01*
X125044771Y-107239527D02*
X125044771Y-106655229D01*
X124644772Y-105905228D02*
X124650000Y-105900000D01*
X124644772Y-106255230D02*
X124644772Y-105905228D01*
%TO.N,EN*%
X125398631Y-104551369D02*
X124997281Y-104150020D01*
X125398631Y-106148631D02*
X125398631Y-104551369D01*
X125550000Y-106300000D02*
X125398631Y-106148631D01*
X125550000Y-107725000D02*
X125550000Y-106300000D01*
%TO.N,CBUS3*%
X124774998Y-111138587D02*
X125049989Y-111413578D01*
X125550000Y-109025000D02*
X125125000Y-109025000D01*
X125125000Y-109025000D02*
X124774998Y-109375002D01*
X125999999Y-113499999D02*
X125999999Y-115000001D01*
X125049989Y-111413578D02*
X125049989Y-112549989D01*
X125049989Y-112549989D02*
X125999999Y-113499999D01*
X124774998Y-109375002D02*
X124774998Y-111138587D01*
X125999999Y-115000001D02*
X125600000Y-115400000D01*
%TO.N,CBUS0*%
X129597015Y-112874990D02*
X129757503Y-112714502D01*
X126525000Y-111075000D02*
X126374999Y-111225001D01*
X127173900Y-112874990D02*
X129597015Y-112874990D01*
X126374999Y-112076089D02*
X127173900Y-112874990D01*
X126374999Y-111225001D02*
X126374999Y-112076089D01*
X126525000Y-110650000D02*
X126525000Y-111075000D01*
%TO.N,CBUS1*%
X127360299Y-112424979D02*
X128375021Y-112424979D01*
X126874998Y-111939678D02*
X127360299Y-112424979D01*
X127175000Y-111075000D02*
X126874998Y-111375002D01*
X127175000Y-110650000D02*
X127175000Y-111075000D01*
X128375021Y-112424979D02*
X128700000Y-112100000D01*
X126874998Y-111375002D02*
X126874998Y-111939678D01*
%TO.N,CBUS2*%
X129450000Y-107725000D02*
X129450000Y-106274721D01*
X129450000Y-106274721D02*
X129314316Y-106139037D01*
%TO.N,Net-(J2-PadA5)*%
X119215000Y-111950000D02*
X119227513Y-111962513D01*
X123011810Y-113850000D02*
X122400000Y-113850000D01*
X124111810Y-112750000D02*
X123011810Y-113850000D01*
X124111810Y-111888190D02*
X124111810Y-112750000D01*
X124125000Y-111875000D02*
X124111810Y-111888190D01*
X122250000Y-110350000D02*
X123850000Y-110350000D01*
X122250000Y-111000000D02*
X122250000Y-110350000D01*
X123850000Y-111600000D02*
X124125000Y-111875000D01*
X119215000Y-111950000D02*
X121300000Y-111950000D01*
X121300000Y-111950000D02*
X122250000Y-111000000D01*
X123850000Y-110350000D02*
X123850000Y-111600000D01*
%TO.N,Net-(J2-PadB5)*%
X123700000Y-104500000D02*
X123700000Y-103450000D01*
X119215000Y-108950000D02*
X123600000Y-108950000D01*
X123300000Y-107195605D02*
X123300000Y-104900000D01*
X123300000Y-104900000D02*
X123700000Y-104500000D01*
X123700000Y-107595605D02*
X123300000Y-107195605D01*
X123700000Y-103450000D02*
X124700000Y-102450000D01*
X123700000Y-108850000D02*
X123700000Y-107595605D01*
X123600000Y-108950000D02*
X123700000Y-108850000D01*
%TO.N,Net-(R6-Pad1)*%
X130482505Y-114617495D02*
X128400000Y-116700000D01*
X129875000Y-109025000D02*
X130482505Y-109632505D01*
X129450000Y-109025000D02*
X129875000Y-109025000D01*
X130482505Y-109632505D02*
X130482505Y-114617495D01*
X128400000Y-116700000D02*
X127750000Y-116700000D01*
%TO.N,Net-(R7-Pad1)*%
X129875000Y-108375000D02*
X129450000Y-108375000D01*
X131050010Y-100650010D02*
X131050010Y-107199990D01*
X131050010Y-107199990D02*
X129875000Y-108375000D01*
X130000000Y-99600000D02*
X131050010Y-100650010D01*
%TO.N,Net-(C3-Pad1)*%
X128475000Y-110650000D02*
X129450000Y-109675000D01*
X128475000Y-110650000D02*
X128781312Y-110956312D01*
X128781312Y-110956312D02*
X128781312Y-110993368D01*
X126525000Y-106294839D02*
X126448083Y-106217922D01*
X126525000Y-106750000D02*
X126525000Y-106294839D01*
X130000000Y-104600000D02*
X129506990Y-104600000D01*
X129506990Y-104600000D02*
X128899999Y-105206991D01*
%TD*%
D21*
%TO.N,GND*%
X131073001Y-127073000D02*
X112927000Y-127073000D01*
X112927000Y-118023472D01*
X113423000Y-118023472D01*
X113423000Y-118176528D01*
X113452859Y-118326643D01*
X113511431Y-118468048D01*
X113596464Y-118595309D01*
X113698001Y-118696846D01*
X113698000Y-121475357D01*
X113695573Y-121500000D01*
X113698000Y-121524643D01*
X113698000Y-121524652D01*
X113705264Y-121598408D01*
X113733969Y-121693035D01*
X113780583Y-121780245D01*
X113843316Y-121856684D01*
X113862468Y-121872402D01*
X117260384Y-125270318D01*
X117258259Y-125277322D01*
X117246176Y-125399999D01*
X117246176Y-126200001D01*
X117258259Y-126322678D01*
X117294042Y-126440641D01*
X117352152Y-126549356D01*
X117430354Y-126644646D01*
X117525644Y-126722848D01*
X117634359Y-126780958D01*
X117752322Y-126816741D01*
X117874999Y-126828824D01*
X119125001Y-126828824D01*
X119247678Y-126816741D01*
X119365641Y-126780958D01*
X119474356Y-126722848D01*
X119569646Y-126644646D01*
X119647848Y-126549356D01*
X119705958Y-126440641D01*
X119741741Y-126322678D01*
X119743778Y-126302000D01*
X119756222Y-126302000D01*
X119758259Y-126322678D01*
X119794042Y-126440641D01*
X119852152Y-126549356D01*
X119930354Y-126644646D01*
X120025644Y-126722848D01*
X120134359Y-126780958D01*
X120252322Y-126816741D01*
X120374999Y-126828824D01*
X121625001Y-126828824D01*
X121747678Y-126816741D01*
X121865641Y-126780958D01*
X121974356Y-126722848D01*
X122069646Y-126644646D01*
X122147848Y-126549356D01*
X122205958Y-126440641D01*
X122241741Y-126322678D01*
X122243778Y-126302000D01*
X122256222Y-126302000D01*
X122258259Y-126322678D01*
X122294042Y-126440641D01*
X122352152Y-126549356D01*
X122430354Y-126644646D01*
X122525644Y-126722848D01*
X122634359Y-126780958D01*
X122752322Y-126816741D01*
X122874999Y-126828824D01*
X124125001Y-126828824D01*
X124247678Y-126816741D01*
X124365641Y-126780958D01*
X124474356Y-126722848D01*
X124569646Y-126644646D01*
X124647848Y-126549356D01*
X124705958Y-126440641D01*
X124741741Y-126322678D01*
X124743778Y-126302000D01*
X124756222Y-126302000D01*
X124758259Y-126322678D01*
X124794042Y-126440641D01*
X124852152Y-126549356D01*
X124930354Y-126644646D01*
X125025644Y-126722848D01*
X125134359Y-126780958D01*
X125252322Y-126816741D01*
X125374999Y-126828824D01*
X126625001Y-126828824D01*
X126747678Y-126816741D01*
X126865641Y-126780958D01*
X126974356Y-126722848D01*
X127069646Y-126644646D01*
X127147848Y-126549356D01*
X127205958Y-126440641D01*
X127241741Y-126322678D01*
X127243778Y-126302000D01*
X127256222Y-126302000D01*
X127258259Y-126322678D01*
X127294042Y-126440641D01*
X127352152Y-126549356D01*
X127430354Y-126644646D01*
X127525644Y-126722848D01*
X127634359Y-126780958D01*
X127752322Y-126816741D01*
X127874999Y-126828824D01*
X129125001Y-126828824D01*
X129247678Y-126816741D01*
X129365641Y-126780958D01*
X129474356Y-126722848D01*
X129569646Y-126644646D01*
X129647848Y-126549356D01*
X129705958Y-126440641D01*
X129741741Y-126322678D01*
X129753824Y-126200001D01*
X129753824Y-125399999D01*
X129741741Y-125277322D01*
X129705958Y-125159359D01*
X129647848Y-125050644D01*
X129569646Y-124955354D01*
X129474356Y-124877152D01*
X129365641Y-124819042D01*
X129247678Y-124783259D01*
X129125001Y-124771176D01*
X127874999Y-124771176D01*
X127752322Y-124783259D01*
X127634359Y-124819042D01*
X127525644Y-124877152D01*
X127430354Y-124955354D01*
X127352152Y-125050644D01*
X127294042Y-125159359D01*
X127258259Y-125277322D01*
X127256222Y-125298000D01*
X127243778Y-125298000D01*
X127241741Y-125277322D01*
X127205958Y-125159359D01*
X127147848Y-125050644D01*
X127069646Y-124955354D01*
X126974356Y-124877152D01*
X126865641Y-124819042D01*
X126747678Y-124783259D01*
X126625001Y-124771176D01*
X125374999Y-124771176D01*
X125252322Y-124783259D01*
X125134359Y-124819042D01*
X125025644Y-124877152D01*
X124930354Y-124955354D01*
X124852152Y-125050644D01*
X124794042Y-125159359D01*
X124758259Y-125277322D01*
X124756222Y-125298000D01*
X124743778Y-125298000D01*
X124741741Y-125277322D01*
X124705958Y-125159359D01*
X124647848Y-125050644D01*
X124569646Y-124955354D01*
X124474356Y-124877152D01*
X124365641Y-124819042D01*
X124247678Y-124783259D01*
X124125001Y-124771176D01*
X122874999Y-124771176D01*
X122752322Y-124783259D01*
X122634359Y-124819042D01*
X122525644Y-124877152D01*
X122430354Y-124955354D01*
X122352152Y-125050644D01*
X122294042Y-125159359D01*
X122258259Y-125277322D01*
X122256222Y-125298000D01*
X122243778Y-125298000D01*
X122241741Y-125277322D01*
X122205958Y-125159359D01*
X122147848Y-125050644D01*
X122069646Y-124955354D01*
X121974356Y-124877152D01*
X121865641Y-124819042D01*
X121747678Y-124783259D01*
X121625001Y-124771176D01*
X120374999Y-124771176D01*
X120252322Y-124783259D01*
X120134359Y-124819042D01*
X120025644Y-124877152D01*
X119930354Y-124955354D01*
X119852152Y-125050644D01*
X119794042Y-125159359D01*
X119758259Y-125277322D01*
X119756222Y-125298000D01*
X119743778Y-125298000D01*
X119741741Y-125277322D01*
X119705958Y-125159359D01*
X119647848Y-125050644D01*
X119569646Y-124955354D01*
X119474356Y-124877152D01*
X119365641Y-124819042D01*
X119247678Y-124783259D01*
X119125001Y-124771176D01*
X118181111Y-124771176D01*
X115371799Y-121961864D01*
X115714250Y-121960000D01*
X115873000Y-121801250D01*
X115873000Y-120527000D01*
X115853000Y-120527000D01*
X115853000Y-120273000D01*
X115873000Y-120273000D01*
X115873000Y-118998750D01*
X115714250Y-118840000D01*
X115150000Y-118836928D01*
X115025518Y-118849188D01*
X114905820Y-118885498D01*
X114795506Y-118944463D01*
X114702000Y-119021201D01*
X114702000Y-118696845D01*
X114803536Y-118595309D01*
X114888569Y-118468048D01*
X114947141Y-118326643D01*
X114977000Y-118176528D01*
X114977000Y-118023472D01*
X114947141Y-117873357D01*
X114888569Y-117731952D01*
X114803536Y-117604691D01*
X114695309Y-117496464D01*
X114568048Y-117411431D01*
X114426643Y-117352859D01*
X114276528Y-117323000D01*
X114123472Y-117323000D01*
X113973357Y-117352859D01*
X113831952Y-117411431D01*
X113704691Y-117496464D01*
X113596464Y-117604691D01*
X113511431Y-117731952D01*
X113452859Y-117873357D01*
X113423000Y-118023472D01*
X112927000Y-118023472D01*
X112927000Y-115638130D01*
X112952205Y-115711088D01*
X113045186Y-115885044D01*
X113309587Y-115980808D01*
X113784108Y-115506287D01*
X114143767Y-115505838D01*
X113489192Y-116160413D01*
X113584956Y-116424814D01*
X113874571Y-116565704D01*
X114186108Y-116647384D01*
X114507595Y-116666718D01*
X114826675Y-116622961D01*
X115131088Y-116517795D01*
X115305044Y-116424814D01*
X115400808Y-116160413D01*
X114745481Y-115505086D01*
X114814250Y-115505000D01*
X114959428Y-115359823D01*
X115580413Y-115980808D01*
X115844814Y-115885044D01*
X115985704Y-115595429D01*
X116009209Y-115505779D01*
X117061731Y-115507094D01*
X117132205Y-115711088D01*
X117225186Y-115885044D01*
X117489587Y-115980808D01*
X117976804Y-115493591D01*
X118089180Y-115459502D01*
X118199494Y-115400537D01*
X118296185Y-115321185D01*
X118375537Y-115224494D01*
X118434502Y-115114180D01*
X118470812Y-114994482D01*
X118473345Y-114968765D01*
X118607711Y-114834399D01*
X118614692Y-114835087D01*
X118625000Y-114845395D01*
X118633460Y-114836935D01*
X118645000Y-114838072D01*
X118929250Y-114835000D01*
X119087998Y-114676252D01*
X119087998Y-114741607D01*
X118804605Y-115025000D01*
X118818748Y-115039143D01*
X118639143Y-115218748D01*
X118625000Y-115204605D01*
X117669192Y-116160413D01*
X117764956Y-116424814D01*
X118054571Y-116565704D01*
X118366108Y-116647384D01*
X118687595Y-116666718D01*
X119006675Y-116622961D01*
X119311088Y-116517795D01*
X119485044Y-116424814D01*
X119540678Y-116271212D01*
X119571311Y-116301845D01*
X119571312Y-117073259D01*
X119568884Y-117097912D01*
X119578576Y-117196321D01*
X119607281Y-117290948D01*
X119653895Y-117378157D01*
X119700912Y-117435447D01*
X119700915Y-117435450D01*
X119716628Y-117454596D01*
X119735774Y-117470309D01*
X120498000Y-118232536D01*
X120498000Y-119202045D01*
X120315017Y-119299851D01*
X120128183Y-119453183D01*
X119974851Y-119640018D01*
X119860916Y-119853177D01*
X119790755Y-120084467D01*
X119773000Y-120264733D01*
X119773000Y-120535268D01*
X119790755Y-120715534D01*
X119860916Y-120946824D01*
X119974851Y-121159983D01*
X120128184Y-121346817D01*
X120315018Y-121500149D01*
X120498000Y-121597954D01*
X120498000Y-121671176D01*
X120374999Y-121671176D01*
X120252322Y-121683259D01*
X120134359Y-121719042D01*
X120025644Y-121777152D01*
X119930354Y-121855354D01*
X119852152Y-121950644D01*
X119794042Y-122059359D01*
X119758259Y-122177322D01*
X119750000Y-122261174D01*
X119741741Y-122177322D01*
X119705958Y-122059359D01*
X119647848Y-121950644D01*
X119569646Y-121855354D01*
X119474356Y-121777152D01*
X119365641Y-121719042D01*
X119247678Y-121683259D01*
X119125001Y-121671176D01*
X119002000Y-121671176D01*
X119002000Y-121597955D01*
X119184983Y-121500149D01*
X119371817Y-121346817D01*
X119525149Y-121159982D01*
X119639084Y-120946823D01*
X119709245Y-120715533D01*
X119727000Y-120535267D01*
X119727000Y-120264732D01*
X119709245Y-120084466D01*
X119639084Y-119853176D01*
X119525149Y-119640017D01*
X119371817Y-119453183D01*
X119184982Y-119299851D01*
X118971823Y-119185916D01*
X118740533Y-119115755D01*
X118500000Y-119092064D01*
X118259466Y-119115755D01*
X118028176Y-119185916D01*
X117815017Y-119299851D01*
X117628183Y-119453183D01*
X117487352Y-119624785D01*
X117488072Y-119475000D01*
X117475812Y-119350518D01*
X117439502Y-119230820D01*
X117380537Y-119120506D01*
X117301185Y-119023815D01*
X117204494Y-118944463D01*
X117094180Y-118885498D01*
X116974482Y-118849188D01*
X116850000Y-118836928D01*
X116285750Y-118840000D01*
X116127000Y-118998750D01*
X116127000Y-120273000D01*
X116147000Y-120273000D01*
X116147000Y-120527000D01*
X116127000Y-120527000D01*
X116127000Y-121801250D01*
X116285750Y-121960000D01*
X116850000Y-121963072D01*
X116974482Y-121950812D01*
X117094180Y-121914502D01*
X117204494Y-121855537D01*
X117301185Y-121776185D01*
X117380537Y-121679494D01*
X117439502Y-121569180D01*
X117475812Y-121449482D01*
X117488072Y-121325000D01*
X117487352Y-121175216D01*
X117628184Y-121346817D01*
X117815018Y-121500149D01*
X117998000Y-121597954D01*
X117998000Y-121671176D01*
X117874999Y-121671176D01*
X117752322Y-121683259D01*
X117634359Y-121719042D01*
X117525644Y-121777152D01*
X117430354Y-121855354D01*
X117352152Y-121950644D01*
X117294042Y-122059359D01*
X117258259Y-122177322D01*
X117246176Y-122299999D01*
X117246176Y-123100001D01*
X117258259Y-123222678D01*
X117294042Y-123340641D01*
X117352152Y-123449356D01*
X117430354Y-123544646D01*
X117525644Y-123622848D01*
X117634359Y-123680958D01*
X117752322Y-123716741D01*
X117874999Y-123728824D01*
X119125001Y-123728824D01*
X119247678Y-123716741D01*
X119365641Y-123680958D01*
X119474356Y-123622848D01*
X119569646Y-123544646D01*
X119647848Y-123449356D01*
X119705958Y-123340641D01*
X119741741Y-123222678D01*
X119750000Y-123138826D01*
X119758259Y-123222678D01*
X119794042Y-123340641D01*
X119852152Y-123449356D01*
X119930354Y-123544646D01*
X120025644Y-123622848D01*
X120134359Y-123680958D01*
X120252322Y-123716741D01*
X120374999Y-123728824D01*
X121625001Y-123728824D01*
X121747678Y-123716741D01*
X121865641Y-123680958D01*
X121974356Y-123622848D01*
X122069646Y-123544646D01*
X122147848Y-123449356D01*
X122205958Y-123340641D01*
X122241741Y-123222678D01*
X122250000Y-123138826D01*
X122258259Y-123222678D01*
X122294042Y-123340641D01*
X122352152Y-123449356D01*
X122430354Y-123544646D01*
X122525644Y-123622848D01*
X122634359Y-123680958D01*
X122752322Y-123716741D01*
X122874999Y-123728824D01*
X124125001Y-123728824D01*
X124247678Y-123716741D01*
X124365641Y-123680958D01*
X124474356Y-123622848D01*
X124569646Y-123544646D01*
X124647848Y-123449356D01*
X124705958Y-123340641D01*
X124741741Y-123222678D01*
X124750000Y-123138826D01*
X124758259Y-123222678D01*
X124794042Y-123340641D01*
X124852152Y-123449356D01*
X124930354Y-123544646D01*
X125025644Y-123622848D01*
X125134359Y-123680958D01*
X125252322Y-123716741D01*
X125374999Y-123728824D01*
X126625001Y-123728824D01*
X126747678Y-123716741D01*
X126865641Y-123680958D01*
X126974356Y-123622848D01*
X127069646Y-123544646D01*
X127147848Y-123449356D01*
X127205958Y-123340641D01*
X127241741Y-123222678D01*
X127250000Y-123138826D01*
X127258259Y-123222678D01*
X127294042Y-123340641D01*
X127352152Y-123449356D01*
X127430354Y-123544646D01*
X127525644Y-123622848D01*
X127634359Y-123680958D01*
X127752322Y-123716741D01*
X127874999Y-123728824D01*
X129125001Y-123728824D01*
X129247678Y-123716741D01*
X129365641Y-123680958D01*
X129474356Y-123622848D01*
X129569646Y-123544646D01*
X129647848Y-123449356D01*
X129705958Y-123340641D01*
X129741741Y-123222678D01*
X129753824Y-123100001D01*
X129753824Y-122299999D01*
X129741741Y-122177322D01*
X129705958Y-122059359D01*
X129647848Y-121950644D01*
X129569646Y-121855354D01*
X129474356Y-121777152D01*
X129365641Y-121719042D01*
X129247678Y-121683259D01*
X129125001Y-121671176D01*
X129002000Y-121671176D01*
X129002000Y-121597955D01*
X129184983Y-121500149D01*
X129371817Y-121346817D01*
X129525149Y-121159982D01*
X129639084Y-120946823D01*
X129709245Y-120715533D01*
X129727000Y-120535267D01*
X129727000Y-120264732D01*
X129709245Y-120084466D01*
X129639084Y-119853176D01*
X129525149Y-119640017D01*
X129371817Y-119453183D01*
X129184982Y-119299851D01*
X128971823Y-119185916D01*
X128740533Y-119115755D01*
X128500000Y-119092064D01*
X128259466Y-119115755D01*
X128028176Y-119185916D01*
X127815017Y-119299851D01*
X127628183Y-119453183D01*
X127474851Y-119640018D01*
X127360916Y-119853177D01*
X127290755Y-120084467D01*
X127273000Y-120264733D01*
X127273000Y-120535268D01*
X127290755Y-120715534D01*
X127360916Y-120946824D01*
X127474851Y-121159983D01*
X127628184Y-121346817D01*
X127815018Y-121500149D01*
X127998000Y-121597954D01*
X127998000Y-121671176D01*
X127874999Y-121671176D01*
X127752322Y-121683259D01*
X127634359Y-121719042D01*
X127525644Y-121777152D01*
X127430354Y-121855354D01*
X127352152Y-121950644D01*
X127294042Y-122059359D01*
X127258259Y-122177322D01*
X127250000Y-122261174D01*
X127241741Y-122177322D01*
X127205958Y-122059359D01*
X127147848Y-121950644D01*
X127069646Y-121855354D01*
X126974356Y-121777152D01*
X126865641Y-121719042D01*
X126747678Y-121683259D01*
X126625001Y-121671176D01*
X126502000Y-121671176D01*
X126502000Y-121597955D01*
X126684983Y-121500149D01*
X126871817Y-121346817D01*
X127025149Y-121159982D01*
X127139084Y-120946823D01*
X127209245Y-120715533D01*
X127227000Y-120535267D01*
X127227000Y-120264732D01*
X127209245Y-120084466D01*
X127139084Y-119853176D01*
X127025149Y-119640017D01*
X126871817Y-119453183D01*
X126684982Y-119299851D01*
X126471823Y-119185916D01*
X126240533Y-119115755D01*
X126000000Y-119092064D01*
X125759466Y-119115755D01*
X125528176Y-119185916D01*
X125315017Y-119299851D01*
X125128183Y-119453183D01*
X124974851Y-119640018D01*
X124860916Y-119853177D01*
X124790755Y-120084467D01*
X124773000Y-120264733D01*
X124773000Y-120535268D01*
X124790755Y-120715534D01*
X124860916Y-120946824D01*
X124974851Y-121159983D01*
X125128184Y-121346817D01*
X125315018Y-121500149D01*
X125498000Y-121597954D01*
X125498000Y-121671176D01*
X125374999Y-121671176D01*
X125252322Y-121683259D01*
X125134359Y-121719042D01*
X125025644Y-121777152D01*
X124930354Y-121855354D01*
X124852152Y-121950644D01*
X124794042Y-122059359D01*
X124758259Y-122177322D01*
X124750000Y-122261174D01*
X124741741Y-122177322D01*
X124705958Y-122059359D01*
X124647848Y-121950644D01*
X124569646Y-121855354D01*
X124474356Y-121777152D01*
X124365641Y-121719042D01*
X124247678Y-121683259D01*
X124125001Y-121671176D01*
X124002000Y-121671176D01*
X124002000Y-121597955D01*
X124184983Y-121500149D01*
X124371817Y-121346817D01*
X124525149Y-121159982D01*
X124639084Y-120946823D01*
X124709245Y-120715533D01*
X124727000Y-120535267D01*
X124727000Y-120264732D01*
X124709245Y-120084466D01*
X124639084Y-119853176D01*
X124525149Y-119640017D01*
X124371817Y-119453183D01*
X124184982Y-119299851D01*
X123971823Y-119185916D01*
X123740533Y-119115755D01*
X123500000Y-119092064D01*
X123259466Y-119115755D01*
X123028176Y-119185916D01*
X122815017Y-119299851D01*
X122628183Y-119453183D01*
X122627518Y-119453993D01*
X122151991Y-118978467D01*
X122151991Y-118197259D01*
X122273000Y-118076250D01*
X122273000Y-117077000D01*
X122253000Y-117077000D01*
X122253000Y-116823000D01*
X122273000Y-116823000D01*
X122273000Y-115823750D01*
X122114250Y-115665000D01*
X121875631Y-115663756D01*
X121875631Y-115628471D01*
X121845772Y-115478356D01*
X121787200Y-115336951D01*
X121702167Y-115209690D01*
X121593940Y-115101463D01*
X121466679Y-115016430D01*
X121325274Y-114957858D01*
X121175159Y-114927999D01*
X121022103Y-114927999D01*
X120871988Y-114957858D01*
X120730583Y-115016430D01*
X120603322Y-115101463D01*
X120585971Y-115118815D01*
X120568620Y-115101464D01*
X120441359Y-115016431D01*
X120299954Y-114957859D01*
X120265145Y-114950935D01*
X120225268Y-114660145D01*
X120236185Y-114651185D01*
X120315537Y-114554494D01*
X120374502Y-114444180D01*
X120410812Y-114324482D01*
X120423072Y-114200000D01*
X120420000Y-114185750D01*
X120261250Y-114027000D01*
X119443395Y-114027000D01*
X119580808Y-113889587D01*
X119540690Y-113778824D01*
X119745689Y-113778824D01*
X119758091Y-113787111D01*
X119899496Y-113845683D01*
X120049611Y-113875542D01*
X120202667Y-113875542D01*
X120352782Y-113845683D01*
X120494187Y-113787111D01*
X120621448Y-113702078D01*
X120729675Y-113593851D01*
X120814708Y-113466590D01*
X120873280Y-113325185D01*
X120903139Y-113175070D01*
X120903139Y-113022014D01*
X120873280Y-112871899D01*
X120814708Y-112730494D01*
X120729675Y-112603233D01*
X120621448Y-112495006D01*
X120557085Y-112452000D01*
X121275357Y-112452000D01*
X121300000Y-112454427D01*
X121324643Y-112452000D01*
X121324653Y-112452000D01*
X121398409Y-112444736D01*
X121493036Y-112416031D01*
X121580245Y-112369417D01*
X121656684Y-112306684D01*
X121672401Y-112287533D01*
X122587538Y-111372397D01*
X122606684Y-111356684D01*
X122627252Y-111331623D01*
X122669416Y-111280246D01*
X122671369Y-111276593D01*
X122716031Y-111193036D01*
X122744736Y-111098409D01*
X122752000Y-111024653D01*
X122752000Y-111024643D01*
X122754427Y-111000000D01*
X122752000Y-110975357D01*
X122752000Y-110852000D01*
X123348000Y-110852000D01*
X123348001Y-111575347D01*
X123345573Y-111600000D01*
X123355265Y-111698409D01*
X123383970Y-111793036D01*
X123430584Y-111880245D01*
X123477601Y-111937535D01*
X123477604Y-111937538D01*
X123493317Y-111956684D01*
X123512462Y-111972396D01*
X123609810Y-112069745D01*
X123609811Y-112542064D01*
X123276845Y-112875031D01*
X123265641Y-112869042D01*
X123147678Y-112833259D01*
X123025001Y-112821176D01*
X121774999Y-112821176D01*
X121652322Y-112833259D01*
X121534359Y-112869042D01*
X121425644Y-112927152D01*
X121330354Y-113005354D01*
X121252152Y-113100644D01*
X121194042Y-113209359D01*
X121158259Y-113327322D01*
X121146176Y-113449999D01*
X121146176Y-114250001D01*
X121158259Y-114372678D01*
X121194042Y-114490641D01*
X121252152Y-114599356D01*
X121330354Y-114694646D01*
X121425644Y-114772848D01*
X121534359Y-114830958D01*
X121652322Y-114866741D01*
X121774999Y-114878824D01*
X123025001Y-114878824D01*
X123147678Y-114866741D01*
X123265641Y-114830958D01*
X123374356Y-114772848D01*
X123469646Y-114694646D01*
X123547848Y-114599356D01*
X123596176Y-114508942D01*
X123596176Y-114750003D01*
X123608259Y-114872680D01*
X123644042Y-114990642D01*
X123702151Y-115099357D01*
X123780353Y-115194647D01*
X123875643Y-115272849D01*
X123984358Y-115330958D01*
X124102320Y-115366741D01*
X124135500Y-115370009D01*
X124135501Y-115457453D01*
X124127322Y-115458259D01*
X124009359Y-115494042D01*
X123900644Y-115552152D01*
X123805354Y-115630354D01*
X123727152Y-115725644D01*
X123681095Y-115811810D01*
X123629494Y-115769463D01*
X123519180Y-115710498D01*
X123399482Y-115674188D01*
X123275000Y-115661928D01*
X122685750Y-115665000D01*
X122527000Y-115823750D01*
X122527000Y-116823000D01*
X122547000Y-116823000D01*
X122547000Y-117077000D01*
X122527000Y-117077000D01*
X122527000Y-118076250D01*
X122685750Y-118235000D01*
X123275000Y-118238072D01*
X123399482Y-118225812D01*
X123519180Y-118189502D01*
X123629494Y-118130537D01*
X123726185Y-118051185D01*
X123805537Y-117954494D01*
X123864502Y-117844180D01*
X123870815Y-117823368D01*
X123900644Y-117847848D01*
X124009359Y-117905958D01*
X124127322Y-117941741D01*
X124249999Y-117953824D01*
X125050001Y-117953824D01*
X125172678Y-117941741D01*
X125290641Y-117905958D01*
X125399356Y-117847848D01*
X125494646Y-117769646D01*
X125572848Y-117674356D01*
X125630958Y-117565641D01*
X125666741Y-117447678D01*
X125678824Y-117325001D01*
X125678824Y-116176543D01*
X125826643Y-116147141D01*
X125968048Y-116088569D01*
X126095309Y-116003536D01*
X126203536Y-115895309D01*
X126288569Y-115768048D01*
X126347141Y-115626643D01*
X126377000Y-115476528D01*
X126377000Y-115331929D01*
X126419416Y-115280246D01*
X126466030Y-115193037D01*
X126480507Y-115145313D01*
X126510498Y-115244180D01*
X126569463Y-115354494D01*
X126648815Y-115451185D01*
X126745506Y-115530537D01*
X126855820Y-115589502D01*
X126928330Y-115611498D01*
X126905354Y-115630354D01*
X126827152Y-115725644D01*
X126769042Y-115834359D01*
X126733259Y-115952322D01*
X126721176Y-116074999D01*
X126721176Y-117325001D01*
X126733259Y-117447678D01*
X126769042Y-117565641D01*
X126827152Y-117674356D01*
X126905354Y-117769646D01*
X127000644Y-117847848D01*
X127109359Y-117905958D01*
X127227322Y-117941741D01*
X127349999Y-117953824D01*
X128150001Y-117953824D01*
X128272678Y-117941741D01*
X128390641Y-117905958D01*
X128499356Y-117847848D01*
X128594646Y-117769646D01*
X128672848Y-117674356D01*
X128730958Y-117565641D01*
X128766741Y-117447678D01*
X128778824Y-117325001D01*
X128778824Y-117031110D01*
X130820048Y-114989888D01*
X130839189Y-114974179D01*
X130854897Y-114955039D01*
X130854905Y-114955031D01*
X130901921Y-114897741D01*
X130901922Y-114897740D01*
X130948536Y-114810531D01*
X130977241Y-114715904D01*
X130984505Y-114642148D01*
X130984505Y-114642138D01*
X130986932Y-114617495D01*
X130984505Y-114592852D01*
X130984505Y-109657148D01*
X130986932Y-109632505D01*
X130984505Y-109607862D01*
X130984505Y-109607852D01*
X130977241Y-109534096D01*
X130948536Y-109439469D01*
X130901922Y-109352260D01*
X130895747Y-109344736D01*
X130854905Y-109294969D01*
X130854897Y-109294961D01*
X130839189Y-109275821D01*
X130820048Y-109260112D01*
X130259934Y-108700000D01*
X131073000Y-107886934D01*
X131073001Y-127073000D01*
%TA.AperFunction,Conductor*%
D22*
G36*
X131073001Y-127073000D02*
G01*
X112927000Y-127073000D01*
X112927000Y-118023472D01*
X113423000Y-118023472D01*
X113423000Y-118176528D01*
X113452859Y-118326643D01*
X113511431Y-118468048D01*
X113596464Y-118595309D01*
X113698001Y-118696846D01*
X113698000Y-121475357D01*
X113695573Y-121500000D01*
X113698000Y-121524643D01*
X113698000Y-121524652D01*
X113705264Y-121598408D01*
X113733969Y-121693035D01*
X113780583Y-121780245D01*
X113843316Y-121856684D01*
X113862468Y-121872402D01*
X117260384Y-125270318D01*
X117258259Y-125277322D01*
X117246176Y-125399999D01*
X117246176Y-126200001D01*
X117258259Y-126322678D01*
X117294042Y-126440641D01*
X117352152Y-126549356D01*
X117430354Y-126644646D01*
X117525644Y-126722848D01*
X117634359Y-126780958D01*
X117752322Y-126816741D01*
X117874999Y-126828824D01*
X119125001Y-126828824D01*
X119247678Y-126816741D01*
X119365641Y-126780958D01*
X119474356Y-126722848D01*
X119569646Y-126644646D01*
X119647848Y-126549356D01*
X119705958Y-126440641D01*
X119741741Y-126322678D01*
X119743778Y-126302000D01*
X119756222Y-126302000D01*
X119758259Y-126322678D01*
X119794042Y-126440641D01*
X119852152Y-126549356D01*
X119930354Y-126644646D01*
X120025644Y-126722848D01*
X120134359Y-126780958D01*
X120252322Y-126816741D01*
X120374999Y-126828824D01*
X121625001Y-126828824D01*
X121747678Y-126816741D01*
X121865641Y-126780958D01*
X121974356Y-126722848D01*
X122069646Y-126644646D01*
X122147848Y-126549356D01*
X122205958Y-126440641D01*
X122241741Y-126322678D01*
X122243778Y-126302000D01*
X122256222Y-126302000D01*
X122258259Y-126322678D01*
X122294042Y-126440641D01*
X122352152Y-126549356D01*
X122430354Y-126644646D01*
X122525644Y-126722848D01*
X122634359Y-126780958D01*
X122752322Y-126816741D01*
X122874999Y-126828824D01*
X124125001Y-126828824D01*
X124247678Y-126816741D01*
X124365641Y-126780958D01*
X124474356Y-126722848D01*
X124569646Y-126644646D01*
X124647848Y-126549356D01*
X124705958Y-126440641D01*
X124741741Y-126322678D01*
X124743778Y-126302000D01*
X124756222Y-126302000D01*
X124758259Y-126322678D01*
X124794042Y-126440641D01*
X124852152Y-126549356D01*
X124930354Y-126644646D01*
X125025644Y-126722848D01*
X125134359Y-126780958D01*
X125252322Y-126816741D01*
X125374999Y-126828824D01*
X126625001Y-126828824D01*
X126747678Y-126816741D01*
X126865641Y-126780958D01*
X126974356Y-126722848D01*
X127069646Y-126644646D01*
X127147848Y-126549356D01*
X127205958Y-126440641D01*
X127241741Y-126322678D01*
X127243778Y-126302000D01*
X127256222Y-126302000D01*
X127258259Y-126322678D01*
X127294042Y-126440641D01*
X127352152Y-126549356D01*
X127430354Y-126644646D01*
X127525644Y-126722848D01*
X127634359Y-126780958D01*
X127752322Y-126816741D01*
X127874999Y-126828824D01*
X129125001Y-126828824D01*
X129247678Y-126816741D01*
X129365641Y-126780958D01*
X129474356Y-126722848D01*
X129569646Y-126644646D01*
X129647848Y-126549356D01*
X129705958Y-126440641D01*
X129741741Y-126322678D01*
X129753824Y-126200001D01*
X129753824Y-125399999D01*
X129741741Y-125277322D01*
X129705958Y-125159359D01*
X129647848Y-125050644D01*
X129569646Y-124955354D01*
X129474356Y-124877152D01*
X129365641Y-124819042D01*
X129247678Y-124783259D01*
X129125001Y-124771176D01*
X127874999Y-124771176D01*
X127752322Y-124783259D01*
X127634359Y-124819042D01*
X127525644Y-124877152D01*
X127430354Y-124955354D01*
X127352152Y-125050644D01*
X127294042Y-125159359D01*
X127258259Y-125277322D01*
X127256222Y-125298000D01*
X127243778Y-125298000D01*
X127241741Y-125277322D01*
X127205958Y-125159359D01*
X127147848Y-125050644D01*
X127069646Y-124955354D01*
X126974356Y-124877152D01*
X126865641Y-124819042D01*
X126747678Y-124783259D01*
X126625001Y-124771176D01*
X125374999Y-124771176D01*
X125252322Y-124783259D01*
X125134359Y-124819042D01*
X125025644Y-124877152D01*
X124930354Y-124955354D01*
X124852152Y-125050644D01*
X124794042Y-125159359D01*
X124758259Y-125277322D01*
X124756222Y-125298000D01*
X124743778Y-125298000D01*
X124741741Y-125277322D01*
X124705958Y-125159359D01*
X124647848Y-125050644D01*
X124569646Y-124955354D01*
X124474356Y-124877152D01*
X124365641Y-124819042D01*
X124247678Y-124783259D01*
X124125001Y-124771176D01*
X122874999Y-124771176D01*
X122752322Y-124783259D01*
X122634359Y-124819042D01*
X122525644Y-124877152D01*
X122430354Y-124955354D01*
X122352152Y-125050644D01*
X122294042Y-125159359D01*
X122258259Y-125277322D01*
X122256222Y-125298000D01*
X122243778Y-125298000D01*
X122241741Y-125277322D01*
X122205958Y-125159359D01*
X122147848Y-125050644D01*
X122069646Y-124955354D01*
X121974356Y-124877152D01*
X121865641Y-124819042D01*
X121747678Y-124783259D01*
X121625001Y-124771176D01*
X120374999Y-124771176D01*
X120252322Y-124783259D01*
X120134359Y-124819042D01*
X120025644Y-124877152D01*
X119930354Y-124955354D01*
X119852152Y-125050644D01*
X119794042Y-125159359D01*
X119758259Y-125277322D01*
X119756222Y-125298000D01*
X119743778Y-125298000D01*
X119741741Y-125277322D01*
X119705958Y-125159359D01*
X119647848Y-125050644D01*
X119569646Y-124955354D01*
X119474356Y-124877152D01*
X119365641Y-124819042D01*
X119247678Y-124783259D01*
X119125001Y-124771176D01*
X118181111Y-124771176D01*
X115371799Y-121961864D01*
X115714250Y-121960000D01*
X115873000Y-121801250D01*
X115873000Y-120527000D01*
X115853000Y-120527000D01*
X115853000Y-120273000D01*
X115873000Y-120273000D01*
X115873000Y-118998750D01*
X115714250Y-118840000D01*
X115150000Y-118836928D01*
X115025518Y-118849188D01*
X114905820Y-118885498D01*
X114795506Y-118944463D01*
X114702000Y-119021201D01*
X114702000Y-118696845D01*
X114803536Y-118595309D01*
X114888569Y-118468048D01*
X114947141Y-118326643D01*
X114977000Y-118176528D01*
X114977000Y-118023472D01*
X114947141Y-117873357D01*
X114888569Y-117731952D01*
X114803536Y-117604691D01*
X114695309Y-117496464D01*
X114568048Y-117411431D01*
X114426643Y-117352859D01*
X114276528Y-117323000D01*
X114123472Y-117323000D01*
X113973357Y-117352859D01*
X113831952Y-117411431D01*
X113704691Y-117496464D01*
X113596464Y-117604691D01*
X113511431Y-117731952D01*
X113452859Y-117873357D01*
X113423000Y-118023472D01*
X112927000Y-118023472D01*
X112927000Y-115638130D01*
X112952205Y-115711088D01*
X113045186Y-115885044D01*
X113309587Y-115980808D01*
X113784108Y-115506287D01*
X114143767Y-115505838D01*
X113489192Y-116160413D01*
X113584956Y-116424814D01*
X113874571Y-116565704D01*
X114186108Y-116647384D01*
X114507595Y-116666718D01*
X114826675Y-116622961D01*
X115131088Y-116517795D01*
X115305044Y-116424814D01*
X115400808Y-116160413D01*
X114745481Y-115505086D01*
X114814250Y-115505000D01*
X114959428Y-115359823D01*
X115580413Y-115980808D01*
X115844814Y-115885044D01*
X115985704Y-115595429D01*
X116009209Y-115505779D01*
X117061731Y-115507094D01*
X117132205Y-115711088D01*
X117225186Y-115885044D01*
X117489587Y-115980808D01*
X117976804Y-115493591D01*
X118089180Y-115459502D01*
X118199494Y-115400537D01*
X118296185Y-115321185D01*
X118375537Y-115224494D01*
X118434502Y-115114180D01*
X118470812Y-114994482D01*
X118473345Y-114968765D01*
X118607711Y-114834399D01*
X118614692Y-114835087D01*
X118625000Y-114845395D01*
X118633460Y-114836935D01*
X118645000Y-114838072D01*
X118929250Y-114835000D01*
X119087998Y-114676252D01*
X119087998Y-114741607D01*
X118804605Y-115025000D01*
X118818748Y-115039143D01*
X118639143Y-115218748D01*
X118625000Y-115204605D01*
X117669192Y-116160413D01*
X117764956Y-116424814D01*
X118054571Y-116565704D01*
X118366108Y-116647384D01*
X118687595Y-116666718D01*
X119006675Y-116622961D01*
X119311088Y-116517795D01*
X119485044Y-116424814D01*
X119540678Y-116271212D01*
X119571311Y-116301845D01*
X119571312Y-117073259D01*
X119568884Y-117097912D01*
X119578576Y-117196321D01*
X119607281Y-117290948D01*
X119653895Y-117378157D01*
X119700912Y-117435447D01*
X119700915Y-117435450D01*
X119716628Y-117454596D01*
X119735774Y-117470309D01*
X120498000Y-118232536D01*
X120498000Y-119202045D01*
X120315017Y-119299851D01*
X120128183Y-119453183D01*
X119974851Y-119640018D01*
X119860916Y-119853177D01*
X119790755Y-120084467D01*
X119773000Y-120264733D01*
X119773000Y-120535268D01*
X119790755Y-120715534D01*
X119860916Y-120946824D01*
X119974851Y-121159983D01*
X120128184Y-121346817D01*
X120315018Y-121500149D01*
X120498000Y-121597954D01*
X120498000Y-121671176D01*
X120374999Y-121671176D01*
X120252322Y-121683259D01*
X120134359Y-121719042D01*
X120025644Y-121777152D01*
X119930354Y-121855354D01*
X119852152Y-121950644D01*
X119794042Y-122059359D01*
X119758259Y-122177322D01*
X119750000Y-122261174D01*
X119741741Y-122177322D01*
X119705958Y-122059359D01*
X119647848Y-121950644D01*
X119569646Y-121855354D01*
X119474356Y-121777152D01*
X119365641Y-121719042D01*
X119247678Y-121683259D01*
X119125001Y-121671176D01*
X119002000Y-121671176D01*
X119002000Y-121597955D01*
X119184983Y-121500149D01*
X119371817Y-121346817D01*
X119525149Y-121159982D01*
X119639084Y-120946823D01*
X119709245Y-120715533D01*
X119727000Y-120535267D01*
X119727000Y-120264732D01*
X119709245Y-120084466D01*
X119639084Y-119853176D01*
X119525149Y-119640017D01*
X119371817Y-119453183D01*
X119184982Y-119299851D01*
X118971823Y-119185916D01*
X118740533Y-119115755D01*
X118500000Y-119092064D01*
X118259466Y-119115755D01*
X118028176Y-119185916D01*
X117815017Y-119299851D01*
X117628183Y-119453183D01*
X117487352Y-119624785D01*
X117488072Y-119475000D01*
X117475812Y-119350518D01*
X117439502Y-119230820D01*
X117380537Y-119120506D01*
X117301185Y-119023815D01*
X117204494Y-118944463D01*
X117094180Y-118885498D01*
X116974482Y-118849188D01*
X116850000Y-118836928D01*
X116285750Y-118840000D01*
X116127000Y-118998750D01*
X116127000Y-120273000D01*
X116147000Y-120273000D01*
X116147000Y-120527000D01*
X116127000Y-120527000D01*
X116127000Y-121801250D01*
X116285750Y-121960000D01*
X116850000Y-121963072D01*
X116974482Y-121950812D01*
X117094180Y-121914502D01*
X117204494Y-121855537D01*
X117301185Y-121776185D01*
X117380537Y-121679494D01*
X117439502Y-121569180D01*
X117475812Y-121449482D01*
X117488072Y-121325000D01*
X117487352Y-121175216D01*
X117628184Y-121346817D01*
X117815018Y-121500149D01*
X117998000Y-121597954D01*
X117998000Y-121671176D01*
X117874999Y-121671176D01*
X117752322Y-121683259D01*
X117634359Y-121719042D01*
X117525644Y-121777152D01*
X117430354Y-121855354D01*
X117352152Y-121950644D01*
X117294042Y-122059359D01*
X117258259Y-122177322D01*
X117246176Y-122299999D01*
X117246176Y-123100001D01*
X117258259Y-123222678D01*
X117294042Y-123340641D01*
X117352152Y-123449356D01*
X117430354Y-123544646D01*
X117525644Y-123622848D01*
X117634359Y-123680958D01*
X117752322Y-123716741D01*
X117874999Y-123728824D01*
X119125001Y-123728824D01*
X119247678Y-123716741D01*
X119365641Y-123680958D01*
X119474356Y-123622848D01*
X119569646Y-123544646D01*
X119647848Y-123449356D01*
X119705958Y-123340641D01*
X119741741Y-123222678D01*
X119750000Y-123138826D01*
X119758259Y-123222678D01*
X119794042Y-123340641D01*
X119852152Y-123449356D01*
X119930354Y-123544646D01*
X120025644Y-123622848D01*
X120134359Y-123680958D01*
X120252322Y-123716741D01*
X120374999Y-123728824D01*
X121625001Y-123728824D01*
X121747678Y-123716741D01*
X121865641Y-123680958D01*
X121974356Y-123622848D01*
X122069646Y-123544646D01*
X122147848Y-123449356D01*
X122205958Y-123340641D01*
X122241741Y-123222678D01*
X122250000Y-123138826D01*
X122258259Y-123222678D01*
X122294042Y-123340641D01*
X122352152Y-123449356D01*
X122430354Y-123544646D01*
X122525644Y-123622848D01*
X122634359Y-123680958D01*
X122752322Y-123716741D01*
X122874999Y-123728824D01*
X124125001Y-123728824D01*
X124247678Y-123716741D01*
X124365641Y-123680958D01*
X124474356Y-123622848D01*
X124569646Y-123544646D01*
X124647848Y-123449356D01*
X124705958Y-123340641D01*
X124741741Y-123222678D01*
X124750000Y-123138826D01*
X124758259Y-123222678D01*
X124794042Y-123340641D01*
X124852152Y-123449356D01*
X124930354Y-123544646D01*
X125025644Y-123622848D01*
X125134359Y-123680958D01*
X125252322Y-123716741D01*
X125374999Y-123728824D01*
X126625001Y-123728824D01*
X126747678Y-123716741D01*
X126865641Y-123680958D01*
X126974356Y-123622848D01*
X127069646Y-123544646D01*
X127147848Y-123449356D01*
X127205958Y-123340641D01*
X127241741Y-123222678D01*
X127250000Y-123138826D01*
X127258259Y-123222678D01*
X127294042Y-123340641D01*
X127352152Y-123449356D01*
X127430354Y-123544646D01*
X127525644Y-123622848D01*
X127634359Y-123680958D01*
X127752322Y-123716741D01*
X127874999Y-123728824D01*
X129125001Y-123728824D01*
X129247678Y-123716741D01*
X129365641Y-123680958D01*
X129474356Y-123622848D01*
X129569646Y-123544646D01*
X129647848Y-123449356D01*
X129705958Y-123340641D01*
X129741741Y-123222678D01*
X129753824Y-123100001D01*
X129753824Y-122299999D01*
X129741741Y-122177322D01*
X129705958Y-122059359D01*
X129647848Y-121950644D01*
X129569646Y-121855354D01*
X129474356Y-121777152D01*
X129365641Y-121719042D01*
X129247678Y-121683259D01*
X129125001Y-121671176D01*
X129002000Y-121671176D01*
X129002000Y-121597955D01*
X129184983Y-121500149D01*
X129371817Y-121346817D01*
X129525149Y-121159982D01*
X129639084Y-120946823D01*
X129709245Y-120715533D01*
X129727000Y-120535267D01*
X129727000Y-120264732D01*
X129709245Y-120084466D01*
X129639084Y-119853176D01*
X129525149Y-119640017D01*
X129371817Y-119453183D01*
X129184982Y-119299851D01*
X128971823Y-119185916D01*
X128740533Y-119115755D01*
X128500000Y-119092064D01*
X128259466Y-119115755D01*
X128028176Y-119185916D01*
X127815017Y-119299851D01*
X127628183Y-119453183D01*
X127474851Y-119640018D01*
X127360916Y-119853177D01*
X127290755Y-120084467D01*
X127273000Y-120264733D01*
X127273000Y-120535268D01*
X127290755Y-120715534D01*
X127360916Y-120946824D01*
X127474851Y-121159983D01*
X127628184Y-121346817D01*
X127815018Y-121500149D01*
X127998000Y-121597954D01*
X127998000Y-121671176D01*
X127874999Y-121671176D01*
X127752322Y-121683259D01*
X127634359Y-121719042D01*
X127525644Y-121777152D01*
X127430354Y-121855354D01*
X127352152Y-121950644D01*
X127294042Y-122059359D01*
X127258259Y-122177322D01*
X127250000Y-122261174D01*
X127241741Y-122177322D01*
X127205958Y-122059359D01*
X127147848Y-121950644D01*
X127069646Y-121855354D01*
X126974356Y-121777152D01*
X126865641Y-121719042D01*
X126747678Y-121683259D01*
X126625001Y-121671176D01*
X126502000Y-121671176D01*
X126502000Y-121597955D01*
X126684983Y-121500149D01*
X126871817Y-121346817D01*
X127025149Y-121159982D01*
X127139084Y-120946823D01*
X127209245Y-120715533D01*
X127227000Y-120535267D01*
X127227000Y-120264732D01*
X127209245Y-120084466D01*
X127139084Y-119853176D01*
X127025149Y-119640017D01*
X126871817Y-119453183D01*
X126684982Y-119299851D01*
X126471823Y-119185916D01*
X126240533Y-119115755D01*
X126000000Y-119092064D01*
X125759466Y-119115755D01*
X125528176Y-119185916D01*
X125315017Y-119299851D01*
X125128183Y-119453183D01*
X124974851Y-119640018D01*
X124860916Y-119853177D01*
X124790755Y-120084467D01*
X124773000Y-120264733D01*
X124773000Y-120535268D01*
X124790755Y-120715534D01*
X124860916Y-120946824D01*
X124974851Y-121159983D01*
X125128184Y-121346817D01*
X125315018Y-121500149D01*
X125498000Y-121597954D01*
X125498000Y-121671176D01*
X125374999Y-121671176D01*
X125252322Y-121683259D01*
X125134359Y-121719042D01*
X125025644Y-121777152D01*
X124930354Y-121855354D01*
X124852152Y-121950644D01*
X124794042Y-122059359D01*
X124758259Y-122177322D01*
X124750000Y-122261174D01*
X124741741Y-122177322D01*
X124705958Y-122059359D01*
X124647848Y-121950644D01*
X124569646Y-121855354D01*
X124474356Y-121777152D01*
X124365641Y-121719042D01*
X124247678Y-121683259D01*
X124125001Y-121671176D01*
X124002000Y-121671176D01*
X124002000Y-121597955D01*
X124184983Y-121500149D01*
X124371817Y-121346817D01*
X124525149Y-121159982D01*
X124639084Y-120946823D01*
X124709245Y-120715533D01*
X124727000Y-120535267D01*
X124727000Y-120264732D01*
X124709245Y-120084466D01*
X124639084Y-119853176D01*
X124525149Y-119640017D01*
X124371817Y-119453183D01*
X124184982Y-119299851D01*
X123971823Y-119185916D01*
X123740533Y-119115755D01*
X123500000Y-119092064D01*
X123259466Y-119115755D01*
X123028176Y-119185916D01*
X122815017Y-119299851D01*
X122628183Y-119453183D01*
X122627518Y-119453993D01*
X122151991Y-118978467D01*
X122151991Y-118197259D01*
X122273000Y-118076250D01*
X122273000Y-117077000D01*
X122253000Y-117077000D01*
X122253000Y-116823000D01*
X122273000Y-116823000D01*
X122273000Y-115823750D01*
X122114250Y-115665000D01*
X121875631Y-115663756D01*
X121875631Y-115628471D01*
X121845772Y-115478356D01*
X121787200Y-115336951D01*
X121702167Y-115209690D01*
X121593940Y-115101463D01*
X121466679Y-115016430D01*
X121325274Y-114957858D01*
X121175159Y-114927999D01*
X121022103Y-114927999D01*
X120871988Y-114957858D01*
X120730583Y-115016430D01*
X120603322Y-115101463D01*
X120585971Y-115118815D01*
X120568620Y-115101464D01*
X120441359Y-115016431D01*
X120299954Y-114957859D01*
X120265145Y-114950935D01*
X120225268Y-114660145D01*
X120236185Y-114651185D01*
X120315537Y-114554494D01*
X120374502Y-114444180D01*
X120410812Y-114324482D01*
X120423072Y-114200000D01*
X120420000Y-114185750D01*
X120261250Y-114027000D01*
X119443395Y-114027000D01*
X119580808Y-113889587D01*
X119540690Y-113778824D01*
X119745689Y-113778824D01*
X119758091Y-113787111D01*
X119899496Y-113845683D01*
X120049611Y-113875542D01*
X120202667Y-113875542D01*
X120352782Y-113845683D01*
X120494187Y-113787111D01*
X120621448Y-113702078D01*
X120729675Y-113593851D01*
X120814708Y-113466590D01*
X120873280Y-113325185D01*
X120903139Y-113175070D01*
X120903139Y-113022014D01*
X120873280Y-112871899D01*
X120814708Y-112730494D01*
X120729675Y-112603233D01*
X120621448Y-112495006D01*
X120557085Y-112452000D01*
X121275357Y-112452000D01*
X121300000Y-112454427D01*
X121324643Y-112452000D01*
X121324653Y-112452000D01*
X121398409Y-112444736D01*
X121493036Y-112416031D01*
X121580245Y-112369417D01*
X121656684Y-112306684D01*
X121672401Y-112287533D01*
X122587538Y-111372397D01*
X122606684Y-111356684D01*
X122627252Y-111331623D01*
X122669416Y-111280246D01*
X122671369Y-111276593D01*
X122716031Y-111193036D01*
X122744736Y-111098409D01*
X122752000Y-111024653D01*
X122752000Y-111024643D01*
X122754427Y-111000000D01*
X122752000Y-110975357D01*
X122752000Y-110852000D01*
X123348000Y-110852000D01*
X123348001Y-111575347D01*
X123345573Y-111600000D01*
X123355265Y-111698409D01*
X123383970Y-111793036D01*
X123430584Y-111880245D01*
X123477601Y-111937535D01*
X123477604Y-111937538D01*
X123493317Y-111956684D01*
X123512462Y-111972396D01*
X123609810Y-112069745D01*
X123609811Y-112542064D01*
X123276845Y-112875031D01*
X123265641Y-112869042D01*
X123147678Y-112833259D01*
X123025001Y-112821176D01*
X121774999Y-112821176D01*
X121652322Y-112833259D01*
X121534359Y-112869042D01*
X121425644Y-112927152D01*
X121330354Y-113005354D01*
X121252152Y-113100644D01*
X121194042Y-113209359D01*
X121158259Y-113327322D01*
X121146176Y-113449999D01*
X121146176Y-114250001D01*
X121158259Y-114372678D01*
X121194042Y-114490641D01*
X121252152Y-114599356D01*
X121330354Y-114694646D01*
X121425644Y-114772848D01*
X121534359Y-114830958D01*
X121652322Y-114866741D01*
X121774999Y-114878824D01*
X123025001Y-114878824D01*
X123147678Y-114866741D01*
X123265641Y-114830958D01*
X123374356Y-114772848D01*
X123469646Y-114694646D01*
X123547848Y-114599356D01*
X123596176Y-114508942D01*
X123596176Y-114750003D01*
X123608259Y-114872680D01*
X123644042Y-114990642D01*
X123702151Y-115099357D01*
X123780353Y-115194647D01*
X123875643Y-115272849D01*
X123984358Y-115330958D01*
X124102320Y-115366741D01*
X124135500Y-115370009D01*
X124135501Y-115457453D01*
X124127322Y-115458259D01*
X124009359Y-115494042D01*
X123900644Y-115552152D01*
X123805354Y-115630354D01*
X123727152Y-115725644D01*
X123681095Y-115811810D01*
X123629494Y-115769463D01*
X123519180Y-115710498D01*
X123399482Y-115674188D01*
X123275000Y-115661928D01*
X122685750Y-115665000D01*
X122527000Y-115823750D01*
X122527000Y-116823000D01*
X122547000Y-116823000D01*
X122547000Y-117077000D01*
X122527000Y-117077000D01*
X122527000Y-118076250D01*
X122685750Y-118235000D01*
X123275000Y-118238072D01*
X123399482Y-118225812D01*
X123519180Y-118189502D01*
X123629494Y-118130537D01*
X123726185Y-118051185D01*
X123805537Y-117954494D01*
X123864502Y-117844180D01*
X123870815Y-117823368D01*
X123900644Y-117847848D01*
X124009359Y-117905958D01*
X124127322Y-117941741D01*
X124249999Y-117953824D01*
X125050001Y-117953824D01*
X125172678Y-117941741D01*
X125290641Y-117905958D01*
X125399356Y-117847848D01*
X125494646Y-117769646D01*
X125572848Y-117674356D01*
X125630958Y-117565641D01*
X125666741Y-117447678D01*
X125678824Y-117325001D01*
X125678824Y-116176543D01*
X125826643Y-116147141D01*
X125968048Y-116088569D01*
X126095309Y-116003536D01*
X126203536Y-115895309D01*
X126288569Y-115768048D01*
X126347141Y-115626643D01*
X126377000Y-115476528D01*
X126377000Y-115331929D01*
X126419416Y-115280246D01*
X126466030Y-115193037D01*
X126480507Y-115145313D01*
X126510498Y-115244180D01*
X126569463Y-115354494D01*
X126648815Y-115451185D01*
X126745506Y-115530537D01*
X126855820Y-115589502D01*
X126928330Y-115611498D01*
X126905354Y-115630354D01*
X126827152Y-115725644D01*
X126769042Y-115834359D01*
X126733259Y-115952322D01*
X126721176Y-116074999D01*
X126721176Y-117325001D01*
X126733259Y-117447678D01*
X126769042Y-117565641D01*
X126827152Y-117674356D01*
X126905354Y-117769646D01*
X127000644Y-117847848D01*
X127109359Y-117905958D01*
X127227322Y-117941741D01*
X127349999Y-117953824D01*
X128150001Y-117953824D01*
X128272678Y-117941741D01*
X128390641Y-117905958D01*
X128499356Y-117847848D01*
X128594646Y-117769646D01*
X128672848Y-117674356D01*
X128730958Y-117565641D01*
X128766741Y-117447678D01*
X128778824Y-117325001D01*
X128778824Y-117031110D01*
X130820048Y-114989888D01*
X130839189Y-114974179D01*
X130854897Y-114955039D01*
X130854905Y-114955031D01*
X130901921Y-114897741D01*
X130901922Y-114897740D01*
X130948536Y-114810531D01*
X130977241Y-114715904D01*
X130984505Y-114642148D01*
X130984505Y-114642138D01*
X130986932Y-114617495D01*
X130984505Y-114592852D01*
X130984505Y-109657148D01*
X130986932Y-109632505D01*
X130984505Y-109607862D01*
X130984505Y-109607852D01*
X130977241Y-109534096D01*
X130948536Y-109439469D01*
X130901922Y-109352260D01*
X130895747Y-109344736D01*
X130854905Y-109294969D01*
X130854897Y-109294961D01*
X130839189Y-109275821D01*
X130820048Y-109260112D01*
X130259934Y-108700000D01*
X131073000Y-107886934D01*
X131073001Y-127073000D01*
G37*
%TD.AperFunction*%
D21*
X129389455Y-113403071D02*
X129530860Y-113461643D01*
X129680975Y-113491502D01*
X129834031Y-113491502D01*
X129980506Y-113462367D01*
X129980506Y-114409558D01*
X128669050Y-115721016D01*
X128594646Y-115630354D01*
X128578416Y-115617035D01*
X128669180Y-115589502D01*
X128779494Y-115530537D01*
X128876185Y-115451185D01*
X128955537Y-115354494D01*
X129014502Y-115244180D01*
X129050812Y-115124482D01*
X129063072Y-115000000D01*
X129060000Y-114385750D01*
X128901250Y-114227000D01*
X127889500Y-114227000D01*
X127889500Y-114247000D01*
X127635500Y-114247000D01*
X127635500Y-114227000D01*
X127615500Y-114227000D01*
X127615500Y-113973000D01*
X127635500Y-113973000D01*
X127635500Y-113953000D01*
X127889500Y-113953000D01*
X127889500Y-113973000D01*
X128901250Y-113973000D01*
X129060000Y-113814250D01*
X129062187Y-113376990D01*
X129350422Y-113376990D01*
X129389455Y-113403071D01*
%TA.AperFunction,Conductor*%
D22*
G36*
X129389455Y-113403071D02*
G01*
X129530860Y-113461643D01*
X129680975Y-113491502D01*
X129834031Y-113491502D01*
X129980506Y-113462367D01*
X129980506Y-114409558D01*
X128669050Y-115721016D01*
X128594646Y-115630354D01*
X128578416Y-115617035D01*
X128669180Y-115589502D01*
X128779494Y-115530537D01*
X128876185Y-115451185D01*
X128955537Y-115354494D01*
X129014502Y-115244180D01*
X129050812Y-115124482D01*
X129063072Y-115000000D01*
X129060000Y-114385750D01*
X128901250Y-114227000D01*
X127889500Y-114227000D01*
X127889500Y-114247000D01*
X127635500Y-114247000D01*
X127635500Y-114227000D01*
X127615500Y-114227000D01*
X127615500Y-113973000D01*
X127635500Y-113973000D01*
X127635500Y-113953000D01*
X127889500Y-113953000D01*
X127889500Y-113973000D01*
X128901250Y-113973000D01*
X129060000Y-113814250D01*
X129062187Y-113376990D01*
X129350422Y-113376990D01*
X129389455Y-113403071D01*
G37*
%TD.AperFunction*%
D21*
X115227000Y-110573000D02*
X115247000Y-110573000D01*
X115247000Y-110827000D01*
X115227000Y-110827000D01*
X115227000Y-113587220D01*
X115015429Y-113484296D01*
X114973000Y-113473172D01*
X114973000Y-110827000D01*
X114953000Y-110827000D01*
X114953000Y-110573000D01*
X114973000Y-110573000D01*
X114973000Y-107922410D01*
X115131088Y-107867795D01*
X115227000Y-107816529D01*
X115227000Y-110573000D01*
%TA.AperFunction,Conductor*%
D22*
G36*
X115227000Y-110573000D02*
G01*
X115247000Y-110573000D01*
X115247000Y-110827000D01*
X115227000Y-110827000D01*
X115227000Y-113587220D01*
X115015429Y-113484296D01*
X114973000Y-113473172D01*
X114973000Y-110827000D01*
X114953000Y-110827000D01*
X114953000Y-110573000D01*
X114973000Y-110573000D01*
X114973000Y-107922410D01*
X115131088Y-107867795D01*
X115227000Y-107816529D01*
X115227000Y-110573000D01*
G37*
%TD.AperFunction*%
D21*
X125677000Y-109652000D02*
X125697000Y-109652000D01*
X125697000Y-109698000D01*
X125677000Y-109698000D01*
X125677000Y-110301250D01*
X125835750Y-110460000D01*
X125961361Y-110462926D01*
X125996176Y-110460247D01*
X125996176Y-110895293D01*
X125955582Y-110944756D01*
X125908968Y-111031966D01*
X125880263Y-111126593D01*
X125872999Y-111200349D01*
X125872999Y-111200358D01*
X125870572Y-111225001D01*
X125872999Y-111249644D01*
X125873000Y-112051437D01*
X125870572Y-112076089D01*
X125880264Y-112174498D01*
X125908969Y-112269125D01*
X125955583Y-112356334D01*
X126002600Y-112413624D01*
X126002603Y-112413627D01*
X126018316Y-112432773D01*
X126037462Y-112448486D01*
X126522445Y-112933470D01*
X126510498Y-112955820D01*
X126474188Y-113075518D01*
X126461928Y-113200000D01*
X126462429Y-113300226D01*
X126419416Y-113219754D01*
X126356683Y-113143315D01*
X126337537Y-113127602D01*
X125551989Y-112342055D01*
X125551989Y-111438220D01*
X125554416Y-111413577D01*
X125551989Y-111388934D01*
X125551989Y-111388925D01*
X125544725Y-111315169D01*
X125516020Y-111220542D01*
X125469406Y-111133333D01*
X125406673Y-111056894D01*
X125387521Y-111041176D01*
X125276998Y-110930653D01*
X125276998Y-110447252D01*
X125423000Y-110301250D01*
X125423000Y-109698000D01*
X125403000Y-109698000D01*
X125403000Y-109652000D01*
X125423000Y-109652000D01*
X125423000Y-109553824D01*
X125677000Y-109553824D01*
X125677000Y-109652000D01*
%TA.AperFunction,Conductor*%
D22*
G36*
X125677000Y-109652000D02*
G01*
X125697000Y-109652000D01*
X125697000Y-109698000D01*
X125677000Y-109698000D01*
X125677000Y-110301250D01*
X125835750Y-110460000D01*
X125961361Y-110462926D01*
X125996176Y-110460247D01*
X125996176Y-110895293D01*
X125955582Y-110944756D01*
X125908968Y-111031966D01*
X125880263Y-111126593D01*
X125872999Y-111200349D01*
X125872999Y-111200358D01*
X125870572Y-111225001D01*
X125872999Y-111249644D01*
X125873000Y-112051437D01*
X125870572Y-112076089D01*
X125880264Y-112174498D01*
X125908969Y-112269125D01*
X125955583Y-112356334D01*
X126002600Y-112413624D01*
X126002603Y-112413627D01*
X126018316Y-112432773D01*
X126037462Y-112448486D01*
X126522445Y-112933470D01*
X126510498Y-112955820D01*
X126474188Y-113075518D01*
X126461928Y-113200000D01*
X126462429Y-113300226D01*
X126419416Y-113219754D01*
X126356683Y-113143315D01*
X126337537Y-113127602D01*
X125551989Y-112342055D01*
X125551989Y-111438220D01*
X125554416Y-111413577D01*
X125551989Y-111388934D01*
X125551989Y-111388925D01*
X125544725Y-111315169D01*
X125516020Y-111220542D01*
X125469406Y-111133333D01*
X125406673Y-111056894D01*
X125387521Y-111041176D01*
X125276998Y-110930653D01*
X125276998Y-110447252D01*
X125423000Y-110301250D01*
X125423000Y-109698000D01*
X125403000Y-109698000D01*
X125403000Y-109652000D01*
X125423000Y-109652000D01*
X125423000Y-109553824D01*
X125677000Y-109553824D01*
X125677000Y-109652000D01*
G37*
%TD.AperFunction*%
D21*
X127627000Y-108573000D02*
X127647000Y-108573000D01*
X127647000Y-108827000D01*
X127627000Y-108827000D01*
X127627000Y-108847000D01*
X127373000Y-108847000D01*
X127373000Y-108827000D01*
X127353000Y-108827000D01*
X127353000Y-108573000D01*
X127373000Y-108573000D01*
X127373000Y-108553000D01*
X127627000Y-108553000D01*
X127627000Y-108573000D01*
%TA.AperFunction,Conductor*%
D22*
G36*
X127627000Y-108573000D02*
G01*
X127647000Y-108573000D01*
X127647000Y-108827000D01*
X127627000Y-108827000D01*
X127627000Y-108847000D01*
X127373000Y-108847000D01*
X127373000Y-108827000D01*
X127353000Y-108827000D01*
X127353000Y-108573000D01*
X127373000Y-108573000D01*
X127373000Y-108553000D01*
X127627000Y-108553000D01*
X127627000Y-108573000D01*
G37*
%TD.AperFunction*%
D21*
X124827000Y-99223000D02*
X124847000Y-99223000D01*
X124847000Y-99477000D01*
X124827000Y-99477000D01*
X124827000Y-100476250D01*
X124985750Y-100635000D01*
X125575000Y-100638072D01*
X125699482Y-100625812D01*
X125819180Y-100589502D01*
X125929494Y-100530537D01*
X125946340Y-100516712D01*
X125977152Y-100574356D01*
X126055354Y-100669646D01*
X126150644Y-100747848D01*
X126259359Y-100805958D01*
X126377322Y-100841741D01*
X126435501Y-100847471D01*
X126435500Y-100929991D01*
X126402320Y-100933259D01*
X126284358Y-100969042D01*
X126175643Y-101027151D01*
X126080353Y-101105353D01*
X126002151Y-101200643D01*
X125944042Y-101309358D01*
X125908259Y-101427320D01*
X125896176Y-101549997D01*
X125896176Y-101791058D01*
X125847848Y-101700644D01*
X125769646Y-101605354D01*
X125674356Y-101527152D01*
X125565641Y-101469042D01*
X125447678Y-101433259D01*
X125325001Y-101421176D01*
X124074999Y-101421176D01*
X123952322Y-101433259D01*
X123834359Y-101469042D01*
X123788084Y-101493777D01*
X123751185Y-101448815D01*
X123654494Y-101369463D01*
X123544180Y-101310498D01*
X123424482Y-101274188D01*
X123300000Y-101261928D01*
X122685750Y-101265000D01*
X122527000Y-101423750D01*
X122527000Y-102435500D01*
X122547000Y-102435500D01*
X122547000Y-102689500D01*
X122527000Y-102689500D01*
X122527000Y-103701250D01*
X122685750Y-103860000D01*
X123198001Y-103862562D01*
X123198000Y-104292065D01*
X122962463Y-104527603D01*
X122943317Y-104543316D01*
X122927604Y-104562462D01*
X122927601Y-104562465D01*
X122880584Y-104619755D01*
X122833970Y-104706964D01*
X122805265Y-104801591D01*
X122795573Y-104900000D01*
X122798001Y-104924653D01*
X122798000Y-107170962D01*
X122795573Y-107195605D01*
X122798000Y-107220248D01*
X122798000Y-107220257D01*
X122805264Y-107294013D01*
X122833969Y-107388640D01*
X122880583Y-107475850D01*
X122943316Y-107552289D01*
X122962467Y-107568006D01*
X123198001Y-107803540D01*
X123198000Y-108448000D01*
X120560015Y-108448000D01*
X120576032Y-108418035D01*
X120604737Y-108323408D01*
X120612001Y-108249652D01*
X120612001Y-108249643D01*
X120614428Y-108225000D01*
X120612001Y-108200357D01*
X120612001Y-105923642D01*
X120614428Y-105898999D01*
X120612001Y-105874356D01*
X120612001Y-105874346D01*
X120604737Y-105800590D01*
X120576032Y-105705963D01*
X120529418Y-105618754D01*
X120495255Y-105577127D01*
X120482400Y-105561463D01*
X120482398Y-105561461D01*
X120466685Y-105542315D01*
X120447539Y-105526602D01*
X119456614Y-104535678D01*
X119614250Y-104535000D01*
X119773000Y-104376250D01*
X119773000Y-102127000D01*
X118423750Y-102127000D01*
X118265000Y-102285750D01*
X118261928Y-103900000D01*
X118264193Y-103923001D01*
X117876999Y-103923001D01*
X117876999Y-101305937D01*
X118263487Y-100919449D01*
X118265000Y-101714250D01*
X118423750Y-101873000D01*
X119773000Y-101873000D01*
X119773000Y-99623750D01*
X119614250Y-99465000D01*
X118900000Y-99461928D01*
X118775518Y-99474188D01*
X118655820Y-99510498D01*
X118545506Y-99569463D01*
X118448815Y-99648815D01*
X118420429Y-99683404D01*
X118405918Y-99656256D01*
X118343185Y-99579817D01*
X118324033Y-99564099D01*
X118209934Y-99450000D01*
X118307935Y-99352000D01*
X121121176Y-99352000D01*
X121121176Y-99503520D01*
X121024482Y-99474188D01*
X120900000Y-99461928D01*
X120185750Y-99465000D01*
X120027000Y-99623750D01*
X120027000Y-101873000D01*
X120047000Y-101873000D01*
X120047000Y-102127000D01*
X120027000Y-102127000D01*
X120027000Y-104376250D01*
X120185750Y-104535000D01*
X120900000Y-104538072D01*
X121024482Y-104525812D01*
X121144180Y-104489502D01*
X121254494Y-104430537D01*
X121351185Y-104351185D01*
X121430537Y-104254494D01*
X121489502Y-104144180D01*
X121525812Y-104024482D01*
X121538072Y-103900000D01*
X121538001Y-103862882D01*
X122114250Y-103860000D01*
X122273000Y-103701250D01*
X122273000Y-102689500D01*
X122253000Y-102689500D01*
X122253000Y-102435500D01*
X122273000Y-102435500D01*
X122273000Y-101423750D01*
X122114250Y-101265000D01*
X121535860Y-101262107D01*
X121537426Y-100439472D01*
X121627320Y-100466741D01*
X121749997Y-100478824D01*
X123050003Y-100478824D01*
X123172680Y-100466741D01*
X123290642Y-100430958D01*
X123336917Y-100406224D01*
X123373815Y-100451185D01*
X123470506Y-100530537D01*
X123580820Y-100589502D01*
X123700518Y-100625812D01*
X123825000Y-100638072D01*
X124414250Y-100635000D01*
X124573000Y-100476250D01*
X124573000Y-99477000D01*
X124553000Y-99477000D01*
X124553000Y-99223000D01*
X124573000Y-99223000D01*
X124573000Y-99203000D01*
X124827000Y-99203000D01*
X124827000Y-99223000D01*
%TA.AperFunction,Conductor*%
D22*
G36*
X124827000Y-99223000D02*
G01*
X124847000Y-99223000D01*
X124847000Y-99477000D01*
X124827000Y-99477000D01*
X124827000Y-100476250D01*
X124985750Y-100635000D01*
X125575000Y-100638072D01*
X125699482Y-100625812D01*
X125819180Y-100589502D01*
X125929494Y-100530537D01*
X125946340Y-100516712D01*
X125977152Y-100574356D01*
X126055354Y-100669646D01*
X126150644Y-100747848D01*
X126259359Y-100805958D01*
X126377322Y-100841741D01*
X126435501Y-100847471D01*
X126435500Y-100929991D01*
X126402320Y-100933259D01*
X126284358Y-100969042D01*
X126175643Y-101027151D01*
X126080353Y-101105353D01*
X126002151Y-101200643D01*
X125944042Y-101309358D01*
X125908259Y-101427320D01*
X125896176Y-101549997D01*
X125896176Y-101791058D01*
X125847848Y-101700644D01*
X125769646Y-101605354D01*
X125674356Y-101527152D01*
X125565641Y-101469042D01*
X125447678Y-101433259D01*
X125325001Y-101421176D01*
X124074999Y-101421176D01*
X123952322Y-101433259D01*
X123834359Y-101469042D01*
X123788084Y-101493777D01*
X123751185Y-101448815D01*
X123654494Y-101369463D01*
X123544180Y-101310498D01*
X123424482Y-101274188D01*
X123300000Y-101261928D01*
X122685750Y-101265000D01*
X122527000Y-101423750D01*
X122527000Y-102435500D01*
X122547000Y-102435500D01*
X122547000Y-102689500D01*
X122527000Y-102689500D01*
X122527000Y-103701250D01*
X122685750Y-103860000D01*
X123198001Y-103862562D01*
X123198000Y-104292065D01*
X122962463Y-104527603D01*
X122943317Y-104543316D01*
X122927604Y-104562462D01*
X122927601Y-104562465D01*
X122880584Y-104619755D01*
X122833970Y-104706964D01*
X122805265Y-104801591D01*
X122795573Y-104900000D01*
X122798001Y-104924653D01*
X122798000Y-107170962D01*
X122795573Y-107195605D01*
X122798000Y-107220248D01*
X122798000Y-107220257D01*
X122805264Y-107294013D01*
X122833969Y-107388640D01*
X122880583Y-107475850D01*
X122943316Y-107552289D01*
X122962467Y-107568006D01*
X123198001Y-107803540D01*
X123198000Y-108448000D01*
X120560015Y-108448000D01*
X120576032Y-108418035D01*
X120604737Y-108323408D01*
X120612001Y-108249652D01*
X120612001Y-108249643D01*
X120614428Y-108225000D01*
X120612001Y-108200357D01*
X120612001Y-105923642D01*
X120614428Y-105898999D01*
X120612001Y-105874356D01*
X120612001Y-105874346D01*
X120604737Y-105800590D01*
X120576032Y-105705963D01*
X120529418Y-105618754D01*
X120495255Y-105577127D01*
X120482400Y-105561463D01*
X120482398Y-105561461D01*
X120466685Y-105542315D01*
X120447539Y-105526602D01*
X119456614Y-104535678D01*
X119614250Y-104535000D01*
X119773000Y-104376250D01*
X119773000Y-102127000D01*
X118423750Y-102127000D01*
X118265000Y-102285750D01*
X118261928Y-103900000D01*
X118264193Y-103923001D01*
X117876999Y-103923001D01*
X117876999Y-101305937D01*
X118263487Y-100919449D01*
X118265000Y-101714250D01*
X118423750Y-101873000D01*
X119773000Y-101873000D01*
X119773000Y-99623750D01*
X119614250Y-99465000D01*
X118900000Y-99461928D01*
X118775518Y-99474188D01*
X118655820Y-99510498D01*
X118545506Y-99569463D01*
X118448815Y-99648815D01*
X118420429Y-99683404D01*
X118405918Y-99656256D01*
X118343185Y-99579817D01*
X118324033Y-99564099D01*
X118209934Y-99450000D01*
X118307935Y-99352000D01*
X121121176Y-99352000D01*
X121121176Y-99503520D01*
X121024482Y-99474188D01*
X120900000Y-99461928D01*
X120185750Y-99465000D01*
X120027000Y-99623750D01*
X120027000Y-101873000D01*
X120047000Y-101873000D01*
X120047000Y-102127000D01*
X120027000Y-102127000D01*
X120027000Y-104376250D01*
X120185750Y-104535000D01*
X120900000Y-104538072D01*
X121024482Y-104525812D01*
X121144180Y-104489502D01*
X121254494Y-104430537D01*
X121351185Y-104351185D01*
X121430537Y-104254494D01*
X121489502Y-104144180D01*
X121525812Y-104024482D01*
X121538072Y-103900000D01*
X121538001Y-103862882D01*
X122114250Y-103860000D01*
X122273000Y-103701250D01*
X122273000Y-102689500D01*
X122253000Y-102689500D01*
X122253000Y-102435500D01*
X122273000Y-102435500D01*
X122273000Y-101423750D01*
X122114250Y-101265000D01*
X121535860Y-101262107D01*
X121537426Y-100439472D01*
X121627320Y-100466741D01*
X121749997Y-100478824D01*
X123050003Y-100478824D01*
X123172680Y-100466741D01*
X123290642Y-100430958D01*
X123336917Y-100406224D01*
X123373815Y-100451185D01*
X123470506Y-100530537D01*
X123580820Y-100589502D01*
X123700518Y-100625812D01*
X123825000Y-100638072D01*
X124414250Y-100635000D01*
X124573000Y-100476250D01*
X124573000Y-99477000D01*
X124553000Y-99477000D01*
X124553000Y-99223000D01*
X124573000Y-99223000D01*
X124573000Y-99203000D01*
X124827000Y-99203000D01*
X124827000Y-99223000D01*
G37*
%TD.AperFunction*%
D21*
X127848000Y-106623000D02*
X127946176Y-106623000D01*
X127946176Y-106877000D01*
X127848000Y-106877000D01*
X127848000Y-106897000D01*
X127802000Y-106897000D01*
X127802000Y-106877000D01*
X127703824Y-106877000D01*
X127703824Y-106623000D01*
X127802000Y-106623000D01*
X127802000Y-106603000D01*
X127848000Y-106603000D01*
X127848000Y-106623000D01*
%TA.AperFunction,Conductor*%
D22*
G36*
X127848000Y-106623000D02*
G01*
X127946176Y-106623000D01*
X127946176Y-106877000D01*
X127848000Y-106877000D01*
X127848000Y-106897000D01*
X127802000Y-106897000D01*
X127802000Y-106877000D01*
X127703824Y-106877000D01*
X127703824Y-106623000D01*
X127802000Y-106623000D01*
X127802000Y-106603000D01*
X127848000Y-106603000D01*
X127848000Y-106623000D01*
G37*
%TD.AperFunction*%
D21*
X117374999Y-104929429D02*
X117399652Y-104927001D01*
X117855104Y-104927001D01*
X117764956Y-104975186D01*
X117669192Y-105239587D01*
X118625000Y-106195395D01*
X118639143Y-106181253D01*
X118818748Y-106360858D01*
X118804605Y-106375000D01*
X118818748Y-106389143D01*
X118645952Y-106561938D01*
X118645000Y-106561928D01*
X118633460Y-106563065D01*
X118625000Y-106554605D01*
X118614692Y-106564913D01*
X118607711Y-106565601D01*
X118473345Y-106431235D01*
X118470812Y-106405518D01*
X118434502Y-106285820D01*
X118375537Y-106175506D01*
X118296185Y-106078815D01*
X118199494Y-105999463D01*
X118089180Y-105940498D01*
X117976804Y-105906409D01*
X117489587Y-105419192D01*
X117225186Y-105514956D01*
X117084296Y-105804571D01*
X117061136Y-105892907D01*
X116008724Y-105894222D01*
X115937795Y-105688912D01*
X115844814Y-105514956D01*
X115580413Y-105419192D01*
X114959428Y-106040178D01*
X114814250Y-105895000D01*
X114745481Y-105894914D01*
X115400808Y-105239587D01*
X115305044Y-104975186D01*
X115205994Y-104927001D01*
X117350346Y-104927001D01*
X117374999Y-104929429D01*
%TA.AperFunction,Conductor*%
D22*
G36*
X117374999Y-104929429D02*
G01*
X117399652Y-104927001D01*
X117855104Y-104927001D01*
X117764956Y-104975186D01*
X117669192Y-105239587D01*
X118625000Y-106195395D01*
X118639143Y-106181253D01*
X118818748Y-106360858D01*
X118804605Y-106375000D01*
X118818748Y-106389143D01*
X118645952Y-106561938D01*
X118645000Y-106561928D01*
X118633460Y-106563065D01*
X118625000Y-106554605D01*
X118614692Y-106564913D01*
X118607711Y-106565601D01*
X118473345Y-106431235D01*
X118470812Y-106405518D01*
X118434502Y-106285820D01*
X118375537Y-106175506D01*
X118296185Y-106078815D01*
X118199494Y-105999463D01*
X118089180Y-105940498D01*
X117976804Y-105906409D01*
X117489587Y-105419192D01*
X117225186Y-105514956D01*
X117084296Y-105804571D01*
X117061136Y-105892907D01*
X116008724Y-105894222D01*
X115937795Y-105688912D01*
X115844814Y-105514956D01*
X115580413Y-105419192D01*
X114959428Y-106040178D01*
X114814250Y-105895000D01*
X114745481Y-105894914D01*
X115400808Y-105239587D01*
X115305044Y-104975186D01*
X115205994Y-104927001D01*
X117350346Y-104927001D01*
X117374999Y-104929429D01*
G37*
%TD.AperFunction*%
D21*
X127002000Y-104473000D02*
X127022000Y-104473000D01*
X127022000Y-104727000D01*
X127002000Y-104727000D01*
X127002000Y-104747000D01*
X126748000Y-104747000D01*
X126748000Y-104727000D01*
X126728000Y-104727000D01*
X126728000Y-104473000D01*
X126748000Y-104473000D01*
X126748000Y-104453000D01*
X127002000Y-104453000D01*
X127002000Y-104473000D01*
%TA.AperFunction,Conductor*%
D22*
G36*
X127002000Y-104473000D02*
G01*
X127022000Y-104473000D01*
X127022000Y-104727000D01*
X127002000Y-104727000D01*
X127002000Y-104747000D01*
X126748000Y-104747000D01*
X126748000Y-104727000D01*
X126728000Y-104727000D01*
X126728000Y-104473000D01*
X126748000Y-104473000D01*
X126748000Y-104453000D01*
X127002000Y-104453000D01*
X127002000Y-104473000D01*
G37*
%TD.AperFunction*%
D21*
X115422927Y-99729214D02*
X115550188Y-99814247D01*
X115691593Y-99872819D01*
X115841708Y-99902678D01*
X115994764Y-99902678D01*
X116144879Y-99872819D01*
X116286284Y-99814247D01*
X116413545Y-99729214D01*
X116515081Y-99627678D01*
X116598023Y-99627678D01*
X116598023Y-99703163D01*
X116496487Y-99804699D01*
X116411454Y-99931960D01*
X116352882Y-100073365D01*
X116323023Y-100223480D01*
X116323023Y-100376536D01*
X116352882Y-100526651D01*
X116411454Y-100668056D01*
X116496487Y-100795317D01*
X116604714Y-100903544D01*
X116731975Y-100988577D01*
X116873380Y-101047149D01*
X116875538Y-101047578D01*
X116870572Y-101098003D01*
X116873000Y-101122656D01*
X116872999Y-103923001D01*
X114978824Y-103923001D01*
X114978824Y-103550000D01*
X114971545Y-103476095D01*
X114949988Y-103405030D01*
X114914981Y-103339537D01*
X114893373Y-103313207D01*
X114954494Y-103280537D01*
X115051185Y-103201185D01*
X115130537Y-103104494D01*
X115189502Y-102994180D01*
X115225812Y-102874482D01*
X115238072Y-102750000D01*
X115235000Y-102285750D01*
X115076250Y-102127000D01*
X113727000Y-102127000D01*
X113727000Y-102147000D01*
X113473000Y-102147000D01*
X113473000Y-102127000D01*
X113453000Y-102127000D01*
X113453000Y-101873000D01*
X113473000Y-101873000D01*
X113473000Y-101853000D01*
X113727000Y-101853000D01*
X113727000Y-101873000D01*
X115076250Y-101873000D01*
X115235000Y-101714250D01*
X115238072Y-101250000D01*
X115225812Y-101125518D01*
X115189502Y-101005820D01*
X115130537Y-100895506D01*
X115051185Y-100798815D01*
X114954494Y-100719463D01*
X114893373Y-100686793D01*
X114914981Y-100660463D01*
X114949988Y-100594970D01*
X114971545Y-100523905D01*
X114978824Y-100450000D01*
X114978824Y-99627678D01*
X115321391Y-99627678D01*
X115422927Y-99729214D01*
%TA.AperFunction,Conductor*%
D22*
G36*
X115422927Y-99729214D02*
G01*
X115550188Y-99814247D01*
X115691593Y-99872819D01*
X115841708Y-99902678D01*
X115994764Y-99902678D01*
X116144879Y-99872819D01*
X116286284Y-99814247D01*
X116413545Y-99729214D01*
X116515081Y-99627678D01*
X116598023Y-99627678D01*
X116598023Y-99703163D01*
X116496487Y-99804699D01*
X116411454Y-99931960D01*
X116352882Y-100073365D01*
X116323023Y-100223480D01*
X116323023Y-100376536D01*
X116352882Y-100526651D01*
X116411454Y-100668056D01*
X116496487Y-100795317D01*
X116604714Y-100903544D01*
X116731975Y-100988577D01*
X116873380Y-101047149D01*
X116875538Y-101047578D01*
X116870572Y-101098003D01*
X116873000Y-101122656D01*
X116872999Y-103923001D01*
X114978824Y-103923001D01*
X114978824Y-103550000D01*
X114971545Y-103476095D01*
X114949988Y-103405030D01*
X114914981Y-103339537D01*
X114893373Y-103313207D01*
X114954494Y-103280537D01*
X115051185Y-103201185D01*
X115130537Y-103104494D01*
X115189502Y-102994180D01*
X115225812Y-102874482D01*
X115238072Y-102750000D01*
X115235000Y-102285750D01*
X115076250Y-102127000D01*
X113727000Y-102127000D01*
X113727000Y-102147000D01*
X113473000Y-102147000D01*
X113473000Y-102127000D01*
X113453000Y-102127000D01*
X113453000Y-101873000D01*
X113473000Y-101873000D01*
X113473000Y-101853000D01*
X113727000Y-101853000D01*
X113727000Y-101873000D01*
X115076250Y-101873000D01*
X115235000Y-101714250D01*
X115238072Y-101250000D01*
X115225812Y-101125518D01*
X115189502Y-101005820D01*
X115130537Y-100895506D01*
X115051185Y-100798815D01*
X114954494Y-100719463D01*
X114893373Y-100686793D01*
X114914981Y-100660463D01*
X114949988Y-100594970D01*
X114971545Y-100523905D01*
X114978824Y-100450000D01*
X114978824Y-99627678D01*
X115321391Y-99627678D01*
X115422927Y-99729214D01*
G37*
%TD.AperFunction*%
D21*
X128977211Y-98913728D02*
X128971176Y-98974999D01*
X128971176Y-100225001D01*
X128983259Y-100347678D01*
X129019042Y-100465641D01*
X129077152Y-100574356D01*
X129155354Y-100669646D01*
X129191824Y-100699576D01*
X129155820Y-100710498D01*
X129045506Y-100769463D01*
X128948815Y-100848815D01*
X128869463Y-100945506D01*
X128810498Y-101055820D01*
X128774188Y-101175518D01*
X128761928Y-101300000D01*
X128765000Y-101914250D01*
X128923750Y-102073000D01*
X129935500Y-102073000D01*
X129935500Y-102053000D01*
X130189500Y-102053000D01*
X130189500Y-102073000D01*
X130209500Y-102073000D01*
X130209500Y-102327000D01*
X130189500Y-102327000D01*
X130189500Y-102347000D01*
X129935500Y-102347000D01*
X129935500Y-102327000D01*
X128923750Y-102327000D01*
X128765000Y-102485750D01*
X128762622Y-102961137D01*
X128673632Y-102961137D01*
X128523517Y-102990996D01*
X128382112Y-103049568D01*
X128254851Y-103134601D01*
X128146624Y-103242828D01*
X128072472Y-103353804D01*
X128068037Y-103345506D01*
X127988685Y-103248815D01*
X127891994Y-103169463D01*
X127889531Y-103168147D01*
X127930958Y-103090642D01*
X127966741Y-102972680D01*
X127978824Y-102850003D01*
X127978824Y-101549997D01*
X127966741Y-101427320D01*
X127930958Y-101309358D01*
X127872849Y-101200643D01*
X127794647Y-101105353D01*
X127699357Y-101027151D01*
X127590642Y-100969042D01*
X127472680Y-100933259D01*
X127439500Y-100929991D01*
X127439500Y-100836638D01*
X127540641Y-100805958D01*
X127649356Y-100747848D01*
X127744646Y-100669646D01*
X127822848Y-100574356D01*
X127880958Y-100465641D01*
X127916741Y-100347678D01*
X127928824Y-100225001D01*
X127928824Y-98974999D01*
X127922242Y-98908175D01*
X128977211Y-98913728D01*
%TA.AperFunction,Conductor*%
D22*
G36*
X128977211Y-98913728D02*
G01*
X128971176Y-98974999D01*
X128971176Y-100225001D01*
X128983259Y-100347678D01*
X129019042Y-100465641D01*
X129077152Y-100574356D01*
X129155354Y-100669646D01*
X129191824Y-100699576D01*
X129155820Y-100710498D01*
X129045506Y-100769463D01*
X128948815Y-100848815D01*
X128869463Y-100945506D01*
X128810498Y-101055820D01*
X128774188Y-101175518D01*
X128761928Y-101300000D01*
X128765000Y-101914250D01*
X128923750Y-102073000D01*
X129935500Y-102073000D01*
X129935500Y-102053000D01*
X130189500Y-102053000D01*
X130189500Y-102073000D01*
X130209500Y-102073000D01*
X130209500Y-102327000D01*
X130189500Y-102327000D01*
X130189500Y-102347000D01*
X129935500Y-102347000D01*
X129935500Y-102327000D01*
X128923750Y-102327000D01*
X128765000Y-102485750D01*
X128762622Y-102961137D01*
X128673632Y-102961137D01*
X128523517Y-102990996D01*
X128382112Y-103049568D01*
X128254851Y-103134601D01*
X128146624Y-103242828D01*
X128072472Y-103353804D01*
X128068037Y-103345506D01*
X127988685Y-103248815D01*
X127891994Y-103169463D01*
X127889531Y-103168147D01*
X127930958Y-103090642D01*
X127966741Y-102972680D01*
X127978824Y-102850003D01*
X127978824Y-101549997D01*
X127966741Y-101427320D01*
X127930958Y-101309358D01*
X127872849Y-101200643D01*
X127794647Y-101105353D01*
X127699357Y-101027151D01*
X127590642Y-100969042D01*
X127472680Y-100933259D01*
X127439500Y-100929991D01*
X127439500Y-100836638D01*
X127540641Y-100805958D01*
X127649356Y-100747848D01*
X127744646Y-100669646D01*
X127822848Y-100574356D01*
X127880958Y-100465641D01*
X127916741Y-100347678D01*
X127928824Y-100225001D01*
X127928824Y-98974999D01*
X127922242Y-98908175D01*
X128977211Y-98913728D01*
G37*
%TD.AperFunction*%
%TD*%
M02*
