%TF.GenerationSoftware,KiCad,Pcbnew,(5.1.9-0-10_14)*%
%TF.CreationDate,2021-06-17T09:58:53+01:00*%
%TF.ProjectId,Generic,47656e65-7269-4632-9e6b-696361645f70,4*%
%TF.SameCoordinates,Original*%
%TF.FileFunction,Copper,L1,Top*%
%TF.FilePolarity,Positive*%
%FSLAX46Y46*%
G04 Gerber Fmt 4.6, Leading zero omitted, Abs format (unit mm)*
G04 Created by KiCad (PCBNEW (5.1.9-0-10_14)) date 2021-06-17 09:58:53*
%MOMM*%
%LPD*%
G01*
G04 APERTURE LIST*
%TA.AperFunction,NonConductor*%
%ADD10C,0.080000*%
%TD*%
%TA.AperFunction,EtchedComponent*%
%ADD11C,0.500000*%
%TD*%
%TA.AperFunction,EtchedComponent*%
%ADD12C,0.250000*%
%TD*%
%TA.AperFunction,ComponentPad*%
%ADD13C,0.350000*%
%TD*%
%TA.AperFunction,SMDPad,CuDef*%
%ADD14C,0.100000*%
%TD*%
%TA.AperFunction,ComponentPad*%
%ADD15C,2.000000*%
%TD*%
%TA.AperFunction,ComponentPad*%
%ADD16R,2.000000X2.000000*%
%TD*%
%TA.AperFunction,SMDPad,CuDef*%
%ADD17R,0.650000X0.400000*%
%TD*%
%TA.AperFunction,SMDPad,CuDef*%
%ADD18R,0.500000X4.000000*%
%TD*%
%TA.AperFunction,SMDPad,CuDef*%
%ADD19R,0.600000X1.100000*%
%TD*%
%TA.AperFunction,SMDPad,CuDef*%
%ADD20R,1.425000X3.700000*%
%TD*%
%TA.AperFunction,ComponentPad*%
%ADD21R,1.700000X1.700000*%
%TD*%
%TA.AperFunction,ComponentPad*%
%ADD22O,1.700000X1.700000*%
%TD*%
%TA.AperFunction,SMDPad,CuDef*%
%ADD23R,0.500000X0.200000*%
%TD*%
%TA.AperFunction,SMDPad,CuDef*%
%ADD24R,1.140000X0.600000*%
%TD*%
%TA.AperFunction,ComponentPad*%
%ADD25C,1.700000*%
%TD*%
%TA.AperFunction,SMDPad,CuDef*%
%ADD26R,1.140000X0.300000*%
%TD*%
%TA.AperFunction,ComponentPad*%
%ADD27C,0.600000*%
%TD*%
%TA.AperFunction,ViaPad*%
%ADD28C,0.800000*%
%TD*%
%TA.AperFunction,Conductor*%
%ADD29C,0.250000*%
%TD*%
%TA.AperFunction,Conductor*%
%ADD30C,0.500000*%
%TD*%
%TA.AperFunction,Conductor*%
%ADD31C,0.254000*%
%TD*%
%TA.AperFunction,Conductor*%
%ADD32C,0.100000*%
%TD*%
G04 APERTURE END LIST*
D10*
X110626190Y-110521428D02*
X110650000Y-110545238D01*
X110673809Y-110592857D01*
X110673809Y-110711904D01*
X110650000Y-110759523D01*
X110626190Y-110783333D01*
X110578571Y-110807142D01*
X110530952Y-110807142D01*
X110459523Y-110783333D01*
X110173809Y-110497619D01*
X110173809Y-110807142D01*
X110673809Y-111116666D02*
X110673809Y-111164285D01*
X110650000Y-111211904D01*
X110626190Y-111235714D01*
X110578571Y-111259523D01*
X110483333Y-111283333D01*
X110364285Y-111283333D01*
X110269047Y-111259523D01*
X110221428Y-111235714D01*
X110197619Y-111211904D01*
X110173809Y-111164285D01*
X110173809Y-111116666D01*
X110197619Y-111069047D01*
X110221428Y-111045238D01*
X110269047Y-111021428D01*
X110364285Y-110997619D01*
X110483333Y-110997619D01*
X110578571Y-111021428D01*
X110626190Y-111045238D01*
X110650000Y-111069047D01*
X110673809Y-111116666D01*
X110626190Y-111473809D02*
X110650000Y-111497619D01*
X110673809Y-111545238D01*
X110673809Y-111664285D01*
X110650000Y-111711904D01*
X110626190Y-111735714D01*
X110578571Y-111759523D01*
X110530952Y-111759523D01*
X110459523Y-111735714D01*
X110173809Y-111450000D01*
X110173809Y-111759523D01*
X110173809Y-112235714D02*
X110173809Y-111950000D01*
X110173809Y-112092857D02*
X110673809Y-112092857D01*
X110602380Y-112045238D01*
X110554761Y-111997619D01*
X110530952Y-111950000D01*
X110364285Y-112450000D02*
X110364285Y-112830952D01*
X110673809Y-113164285D02*
X110673809Y-113211904D01*
X110650000Y-113259523D01*
X110626190Y-113283333D01*
X110578571Y-113307142D01*
X110483333Y-113330952D01*
X110364285Y-113330952D01*
X110269047Y-113307142D01*
X110221428Y-113283333D01*
X110197619Y-113259523D01*
X110173809Y-113211904D01*
X110173809Y-113164285D01*
X110197619Y-113116666D01*
X110221428Y-113092857D01*
X110269047Y-113069047D01*
X110364285Y-113045238D01*
X110483333Y-113045238D01*
X110578571Y-113069047D01*
X110626190Y-113092857D01*
X110650000Y-113116666D01*
X110673809Y-113164285D01*
X110673809Y-113783333D02*
X110673809Y-113545238D01*
X110435714Y-113521428D01*
X110459523Y-113545238D01*
X110483333Y-113592857D01*
X110483333Y-113711904D01*
X110459523Y-113759523D01*
X110435714Y-113783333D01*
X110388095Y-113807142D01*
X110269047Y-113807142D01*
X110221428Y-113783333D01*
X110197619Y-113759523D01*
X110173809Y-113711904D01*
X110173809Y-113592857D01*
X110197619Y-113545238D01*
X110221428Y-113521428D01*
X110364285Y-114021428D02*
X110364285Y-114402380D01*
X110173809Y-114902380D02*
X110173809Y-114616666D01*
X110173809Y-114759523D02*
X110673809Y-114759523D01*
X110602380Y-114711904D01*
X110554761Y-114664285D01*
X110530952Y-114616666D01*
X110673809Y-115330952D02*
X110673809Y-115235714D01*
X110650000Y-115188095D01*
X110626190Y-115164285D01*
X110554761Y-115116666D01*
X110459523Y-115092857D01*
X110269047Y-115092857D01*
X110221428Y-115116666D01*
X110197619Y-115140476D01*
X110173809Y-115188095D01*
X110173809Y-115283333D01*
X110197619Y-115330952D01*
X110221428Y-115354761D01*
X110269047Y-115378571D01*
X110388095Y-115378571D01*
X110435714Y-115354761D01*
X110459523Y-115330952D01*
X110483333Y-115283333D01*
X110483333Y-115188095D01*
X110459523Y-115140476D01*
X110435714Y-115116666D01*
X110388095Y-115092857D01*
D11*
%TO.C,Reg1*%
X113700000Y-106700000D02*
X113700000Y-105500000D01*
X113700000Y-105500000D02*
X115200000Y-105500000D01*
D12*
X110850000Y-104600000D02*
X113350000Y-104600000D01*
X110750000Y-103700000D02*
X113350000Y-103700000D01*
X112820000Y-101230000D02*
X116440000Y-101230043D01*
X113350000Y-104600000D02*
G75*
G02*
X113700000Y-104950000I0J-350000D01*
G01*
X113700000Y-103350000D02*
G75*
G02*
X113350000Y-103700000I-350000J0D01*
G01*
X111800000Y-102250000D02*
G75*
G02*
X112820000Y-101230000I1020000J0D01*
G01*
X116440000Y-101230043D02*
G75*
G02*
X117560000Y-102350000I0J-1120000D01*
G01*
%TD*%
D13*
%TO.P,U2,21*%
%TO.N,GND*%
X116600000Y-113300000D03*
%TA.AperFunction,SMDPad,CuDef*%
D14*
G36*
X115600000Y-112300000D02*
G01*
X117600000Y-112300000D01*
X117600000Y-114050000D01*
X117350000Y-114300000D01*
X115600000Y-114300000D01*
X115600000Y-112300000D01*
G37*
%TD.AperFunction*%
%TO.P,U2,20*%
%TO.N,+3V3*%
%TA.AperFunction,SMDPad,CuDef*%
G36*
G01*
X117725000Y-114912500D02*
X117725000Y-115487500D01*
G75*
G02*
X117662500Y-115550000I-62500J0D01*
G01*
X117537500Y-115550000D01*
G75*
G02*
X117475000Y-115487500I0J62500D01*
G01*
X117475000Y-114912500D01*
G75*
G02*
X117537500Y-114850000I62500J0D01*
G01*
X117662500Y-114850000D01*
G75*
G02*
X117725000Y-114912500I0J-62500D01*
G01*
G37*
%TD.AperFunction*%
%TO.P,U2,19*%
%TO.N,EN*%
%TA.AperFunction,SMDPad,CuDef*%
G36*
G01*
X117225000Y-114912500D02*
X117225000Y-115487500D01*
G75*
G02*
X117162500Y-115550000I-62500J0D01*
G01*
X117037500Y-115550000D01*
G75*
G02*
X116975000Y-115487500I0J62500D01*
G01*
X116975000Y-114912500D01*
G75*
G02*
X117037500Y-114850000I62500J0D01*
G01*
X117162500Y-114850000D01*
G75*
G02*
X117225000Y-114912500I0J-62500D01*
G01*
G37*
%TD.AperFunction*%
%TO.P,U2,18*%
%TO.N,BOOT*%
%TA.AperFunction,SMDPad,CuDef*%
G36*
G01*
X116725000Y-114912500D02*
X116725000Y-115487500D01*
G75*
G02*
X116662500Y-115550000I-62500J0D01*
G01*
X116537500Y-115550000D01*
G75*
G02*
X116475000Y-115487500I0J62500D01*
G01*
X116475000Y-114912500D01*
G75*
G02*
X116537500Y-114850000I62500J0D01*
G01*
X116662500Y-114850000D01*
G75*
G02*
X116725000Y-114912500I0J-62500D01*
G01*
G37*
%TD.AperFunction*%
%TO.P,U2,17*%
%TO.N,I*%
%TA.AperFunction,SMDPad,CuDef*%
G36*
G01*
X116225000Y-114912500D02*
X116225000Y-115487500D01*
G75*
G02*
X116162500Y-115550000I-62500J0D01*
G01*
X116037500Y-115550000D01*
G75*
G02*
X115975000Y-115487500I0J62500D01*
G01*
X115975000Y-114912500D01*
G75*
G02*
X116037500Y-114850000I62500J0D01*
G01*
X116162500Y-114850000D01*
G75*
G02*
X116225000Y-114912500I0J-62500D01*
G01*
G37*
%TD.AperFunction*%
%TO.P,U2,16*%
%TO.N,Net-(U2-Pad16)*%
%TA.AperFunction,SMDPad,CuDef*%
G36*
G01*
X115725000Y-114912500D02*
X115725000Y-115487500D01*
G75*
G02*
X115662500Y-115550000I-62500J0D01*
G01*
X115537500Y-115550000D01*
G75*
G02*
X115475000Y-115487500I0J62500D01*
G01*
X115475000Y-114912500D01*
G75*
G02*
X115537500Y-114850000I62500J0D01*
G01*
X115662500Y-114850000D01*
G75*
G02*
X115725000Y-114912500I0J-62500D01*
G01*
G37*
%TD.AperFunction*%
%TO.P,U2,15*%
%TO.N,Net-(U2-Pad15)*%
%TA.AperFunction,SMDPad,CuDef*%
G36*
G01*
X115050000Y-114237500D02*
X115050000Y-114362500D01*
G75*
G02*
X114987500Y-114425000I-62500J0D01*
G01*
X114412500Y-114425000D01*
G75*
G02*
X114350000Y-114362500I0J62500D01*
G01*
X114350000Y-114237500D01*
G75*
G02*
X114412500Y-114175000I62500J0D01*
G01*
X114987500Y-114175000D01*
G75*
G02*
X115050000Y-114237500I0J-62500D01*
G01*
G37*
%TD.AperFunction*%
%TO.P,U2,14*%
%TO.N,Net-(U2-Pad14)*%
%TA.AperFunction,SMDPad,CuDef*%
G36*
G01*
X115050000Y-113737500D02*
X115050000Y-113862500D01*
G75*
G02*
X114987500Y-113925000I-62500J0D01*
G01*
X114412500Y-113925000D01*
G75*
G02*
X114350000Y-113862500I0J62500D01*
G01*
X114350000Y-113737500D01*
G75*
G02*
X114412500Y-113675000I62500J0D01*
G01*
X114987500Y-113675000D01*
G75*
G02*
X115050000Y-113737500I0J-62500D01*
G01*
G37*
%TD.AperFunction*%
%TO.P,U2,13*%
%TO.N,GND*%
%TA.AperFunction,SMDPad,CuDef*%
G36*
G01*
X115050000Y-113237500D02*
X115050000Y-113362500D01*
G75*
G02*
X114987500Y-113425000I-62500J0D01*
G01*
X114412500Y-113425000D01*
G75*
G02*
X114350000Y-113362500I0J62500D01*
G01*
X114350000Y-113237500D01*
G75*
G02*
X114412500Y-113175000I62500J0D01*
G01*
X114987500Y-113175000D01*
G75*
G02*
X115050000Y-113237500I0J-62500D01*
G01*
G37*
%TD.AperFunction*%
%TO.P,U2,12*%
%TO.N,+3V3*%
%TA.AperFunction,SMDPad,CuDef*%
G36*
G01*
X115050000Y-112737500D02*
X115050000Y-112862500D01*
G75*
G02*
X114987500Y-112925000I-62500J0D01*
G01*
X114412500Y-112925000D01*
G75*
G02*
X114350000Y-112862500I0J62500D01*
G01*
X114350000Y-112737500D01*
G75*
G02*
X114412500Y-112675000I62500J0D01*
G01*
X114987500Y-112675000D01*
G75*
G02*
X115050000Y-112737500I0J-62500D01*
G01*
G37*
%TD.AperFunction*%
%TO.P,U2,11*%
%TA.AperFunction,SMDPad,CuDef*%
G36*
G01*
X115050000Y-112237500D02*
X115050000Y-112362500D01*
G75*
G02*
X114987500Y-112425000I-62500J0D01*
G01*
X114412500Y-112425000D01*
G75*
G02*
X114350000Y-112362500I0J62500D01*
G01*
X114350000Y-112237500D01*
G75*
G02*
X114412500Y-112175000I62500J0D01*
G01*
X114987500Y-112175000D01*
G75*
G02*
X115050000Y-112237500I0J-62500D01*
G01*
G37*
%TD.AperFunction*%
%TO.P,U2,10*%
%TA.AperFunction,SMDPad,CuDef*%
G36*
G01*
X115725000Y-111112500D02*
X115725000Y-111687500D01*
G75*
G02*
X115662500Y-111750000I-62500J0D01*
G01*
X115537500Y-111750000D01*
G75*
G02*
X115475000Y-111687500I0J62500D01*
G01*
X115475000Y-111112500D01*
G75*
G02*
X115537500Y-111050000I62500J0D01*
G01*
X115662500Y-111050000D01*
G75*
G02*
X115725000Y-111112500I0J-62500D01*
G01*
G37*
%TD.AperFunction*%
%TO.P,U2,9*%
%TO.N,D-*%
%TA.AperFunction,SMDPad,CuDef*%
G36*
G01*
X116225000Y-111112500D02*
X116225000Y-111687500D01*
G75*
G02*
X116162500Y-111750000I-62500J0D01*
G01*
X116037500Y-111750000D01*
G75*
G02*
X115975000Y-111687500I0J62500D01*
G01*
X115975000Y-111112500D01*
G75*
G02*
X116037500Y-111050000I62500J0D01*
G01*
X116162500Y-111050000D01*
G75*
G02*
X116225000Y-111112500I0J-62500D01*
G01*
G37*
%TD.AperFunction*%
%TO.P,U2,8*%
%TO.N,D+*%
%TA.AperFunction,SMDPad,CuDef*%
G36*
G01*
X116725000Y-111112500D02*
X116725000Y-111687500D01*
G75*
G02*
X116662500Y-111750000I-62500J0D01*
G01*
X116537500Y-111750000D01*
G75*
G02*
X116475000Y-111687500I0J62500D01*
G01*
X116475000Y-111112500D01*
G75*
G02*
X116537500Y-111050000I62500J0D01*
G01*
X116662500Y-111050000D01*
G75*
G02*
X116725000Y-111112500I0J-62500D01*
G01*
G37*
%TD.AperFunction*%
%TO.P,U2,7*%
%TO.N,Net-(U2-Pad7)*%
%TA.AperFunction,SMDPad,CuDef*%
G36*
G01*
X117225000Y-111112500D02*
X117225000Y-111687500D01*
G75*
G02*
X117162500Y-111750000I-62500J0D01*
G01*
X117037500Y-111750000D01*
G75*
G02*
X116975000Y-111687500I0J62500D01*
G01*
X116975000Y-111112500D01*
G75*
G02*
X117037500Y-111050000I62500J0D01*
G01*
X117162500Y-111050000D01*
G75*
G02*
X117225000Y-111112500I0J-62500D01*
G01*
G37*
%TD.AperFunction*%
%TO.P,U2,6*%
%TO.N,GND*%
%TA.AperFunction,SMDPad,CuDef*%
G36*
G01*
X117725000Y-111112500D02*
X117725000Y-111687500D01*
G75*
G02*
X117662500Y-111750000I-62500J0D01*
G01*
X117537500Y-111750000D01*
G75*
G02*
X117475000Y-111687500I0J62500D01*
G01*
X117475000Y-111112500D01*
G75*
G02*
X117537500Y-111050000I62500J0D01*
G01*
X117662500Y-111050000D01*
G75*
G02*
X117725000Y-111112500I0J-62500D01*
G01*
G37*
%TD.AperFunction*%
%TO.P,U2,5*%
%TA.AperFunction,SMDPad,CuDef*%
G36*
G01*
X118850000Y-112237500D02*
X118850000Y-112362500D01*
G75*
G02*
X118787500Y-112425000I-62500J0D01*
G01*
X118212500Y-112425000D01*
G75*
G02*
X118150000Y-112362500I0J62500D01*
G01*
X118150000Y-112237500D01*
G75*
G02*
X118212500Y-112175000I62500J0D01*
G01*
X118787500Y-112175000D01*
G75*
G02*
X118850000Y-112237500I0J-62500D01*
G01*
G37*
%TD.AperFunction*%
%TO.P,U2,4*%
%TA.AperFunction,SMDPad,CuDef*%
G36*
G01*
X118850000Y-112737500D02*
X118850000Y-112862500D01*
G75*
G02*
X118787500Y-112925000I-62500J0D01*
G01*
X118212500Y-112925000D01*
G75*
G02*
X118150000Y-112862500I0J62500D01*
G01*
X118150000Y-112737500D01*
G75*
G02*
X118212500Y-112675000I62500J0D01*
G01*
X118787500Y-112675000D01*
G75*
G02*
X118850000Y-112737500I0J-62500D01*
G01*
G37*
%TD.AperFunction*%
%TO.P,U2,3*%
%TA.AperFunction,SMDPad,CuDef*%
G36*
G01*
X118850000Y-113237500D02*
X118850000Y-113362500D01*
G75*
G02*
X118787500Y-113425000I-62500J0D01*
G01*
X118212500Y-113425000D01*
G75*
G02*
X118150000Y-113362500I0J62500D01*
G01*
X118150000Y-113237500D01*
G75*
G02*
X118212500Y-113175000I62500J0D01*
G01*
X118787500Y-113175000D01*
G75*
G02*
X118850000Y-113237500I0J-62500D01*
G01*
G37*
%TD.AperFunction*%
%TO.P,U2,2*%
%TA.AperFunction,SMDPad,CuDef*%
G36*
G01*
X118850000Y-113737500D02*
X118850000Y-113862500D01*
G75*
G02*
X118787500Y-113925000I-62500J0D01*
G01*
X118212500Y-113925000D01*
G75*
G02*
X118150000Y-113862500I0J62500D01*
G01*
X118150000Y-113737500D01*
G75*
G02*
X118212500Y-113675000I62500J0D01*
G01*
X118787500Y-113675000D01*
G75*
G02*
X118850000Y-113737500I0J-62500D01*
G01*
G37*
%TD.AperFunction*%
%TO.P,U2,1*%
%TO.N,O*%
%TA.AperFunction,SMDPad,CuDef*%
G36*
G01*
X118850000Y-114237500D02*
X118850000Y-114362500D01*
G75*
G02*
X118787500Y-114425000I-62500J0D01*
G01*
X118212500Y-114425000D01*
G75*
G02*
X118150000Y-114362500I0J62500D01*
G01*
X118150000Y-114237500D01*
G75*
G02*
X118212500Y-114175000I62500J0D01*
G01*
X118787500Y-114175000D01*
G75*
G02*
X118850000Y-114237500I0J-62500D01*
G01*
G37*
%TD.AperFunction*%
%TD*%
D15*
%TO.P,J3,2*%
%TO.N,+12V*%
X126600000Y-125460000D03*
D16*
%TO.P,J3,1*%
%TO.N,GND*%
X126600000Y-128000000D03*
%TD*%
%TO.P,R16,2*%
%TO.N,LED*%
%TA.AperFunction,SMDPad,CuDef*%
G36*
G01*
X126475000Y-103325000D02*
X126475000Y-103875000D01*
G75*
G02*
X126275000Y-104075000I-200000J0D01*
G01*
X125875000Y-104075000D01*
G75*
G02*
X125675000Y-103875000I0J200000D01*
G01*
X125675000Y-103325000D01*
G75*
G02*
X125875000Y-103125000I200000J0D01*
G01*
X126275000Y-103125000D01*
G75*
G02*
X126475000Y-103325000I0J-200000D01*
G01*
G37*
%TD.AperFunction*%
%TO.P,R16,1*%
%TO.N,Net-(D5-Pad1)*%
%TA.AperFunction,SMDPad,CuDef*%
G36*
G01*
X128125000Y-103325000D02*
X128125000Y-103875000D01*
G75*
G02*
X127925000Y-104075000I-200000J0D01*
G01*
X127525000Y-104075000D01*
G75*
G02*
X127325000Y-103875000I0J200000D01*
G01*
X127325000Y-103325000D01*
G75*
G02*
X127525000Y-103125000I200000J0D01*
G01*
X127925000Y-103125000D01*
G75*
G02*
X128125000Y-103325000I0J-200000D01*
G01*
G37*
%TD.AperFunction*%
%TD*%
%TO.P,D6,2*%
%TO.N,VBUS*%
%TA.AperFunction,SMDPad,CuDef*%
G36*
G01*
X126575000Y-118425000D02*
X126575000Y-117175000D01*
G75*
G02*
X126825000Y-116925000I250000J0D01*
G01*
X127750000Y-116925000D01*
G75*
G02*
X128000000Y-117175000I0J-250000D01*
G01*
X128000000Y-118425000D01*
G75*
G02*
X127750000Y-118675000I-250000J0D01*
G01*
X126825000Y-118675000D01*
G75*
G02*
X126575000Y-118425000I0J250000D01*
G01*
G37*
%TD.AperFunction*%
%TO.P,D6,1*%
%TO.N,+12V*%
%TA.AperFunction,SMDPad,CuDef*%
G36*
G01*
X123600000Y-118425000D02*
X123600000Y-117175000D01*
G75*
G02*
X123850000Y-116925000I250000J0D01*
G01*
X124775000Y-116925000D01*
G75*
G02*
X125025000Y-117175000I0J-250000D01*
G01*
X125025000Y-118425000D01*
G75*
G02*
X124775000Y-118675000I-250000J0D01*
G01*
X123850000Y-118675000D01*
G75*
G02*
X123600000Y-118425000I0J250000D01*
G01*
G37*
%TD.AperFunction*%
%TD*%
%TO.P,D5,2*%
%TO.N,+3V3*%
%TA.AperFunction,SMDPad,CuDef*%
G36*
G01*
X126450000Y-101962500D02*
X126450000Y-102437500D01*
G75*
G02*
X126212500Y-102675000I-237500J0D01*
G01*
X125637500Y-102675000D01*
G75*
G02*
X125400000Y-102437500I0J237500D01*
G01*
X125400000Y-101962500D01*
G75*
G02*
X125637500Y-101725000I237500J0D01*
G01*
X126212500Y-101725000D01*
G75*
G02*
X126450000Y-101962500I0J-237500D01*
G01*
G37*
%TD.AperFunction*%
%TO.P,D5,1*%
%TO.N,Net-(D5-Pad1)*%
%TA.AperFunction,SMDPad,CuDef*%
G36*
G01*
X128200000Y-101962500D02*
X128200000Y-102437500D01*
G75*
G02*
X127962500Y-102675000I-237500J0D01*
G01*
X127387500Y-102675000D01*
G75*
G02*
X127150000Y-102437500I0J237500D01*
G01*
X127150000Y-101962500D01*
G75*
G02*
X127387500Y-101725000I237500J0D01*
G01*
X127962500Y-101725000D01*
G75*
G02*
X128200000Y-101962500I0J-237500D01*
G01*
G37*
%TD.AperFunction*%
%TD*%
D17*
%TO.P,D3,6*%
%TO.N,IO3*%
X118100000Y-118250000D03*
%TO.P,D3,4*%
%TO.N,GND*%
X118100000Y-119550000D03*
%TO.P,D3,2*%
%TO.N,+3V3*%
X116200000Y-118900000D03*
%TO.P,D3,5*%
X118100000Y-118900000D03*
%TO.P,D3,3*%
%TO.N,IO4*%
X116200000Y-119550000D03*
%TO.P,D3,1*%
%TO.N,GND*%
X116200000Y-118250000D03*
%TD*%
%TO.P,D2,6*%
%TO.N,IO1*%
X122150000Y-118250000D03*
%TO.P,D2,4*%
%TO.N,GND*%
X122150000Y-119550000D03*
%TO.P,D2,2*%
%TO.N,+3V3*%
X120250000Y-118900000D03*
%TO.P,D2,5*%
X122150000Y-118900000D03*
%TO.P,D2,3*%
%TO.N,IO2*%
X120250000Y-119550000D03*
%TO.P,D2,1*%
%TO.N,GND*%
X120250000Y-118250000D03*
%TD*%
%TO.P,C2,2*%
%TO.N,GND*%
%TA.AperFunction,SMDPad,CuDef*%
G36*
G01*
X111475000Y-118100000D02*
X111475000Y-118600000D01*
G75*
G02*
X111250000Y-118825000I-225000J0D01*
G01*
X110800000Y-118825000D01*
G75*
G02*
X110575000Y-118600000I0J225000D01*
G01*
X110575000Y-118100000D01*
G75*
G02*
X110800000Y-117875000I225000J0D01*
G01*
X111250000Y-117875000D01*
G75*
G02*
X111475000Y-118100000I0J-225000D01*
G01*
G37*
%TD.AperFunction*%
%TO.P,C2,1*%
%TO.N,+3V3*%
%TA.AperFunction,SMDPad,CuDef*%
G36*
G01*
X113025000Y-118100000D02*
X113025000Y-118600000D01*
G75*
G02*
X112800000Y-118825000I-225000J0D01*
G01*
X112350000Y-118825000D01*
G75*
G02*
X112125000Y-118600000I0J225000D01*
G01*
X112125000Y-118100000D01*
G75*
G02*
X112350000Y-117875000I225000J0D01*
G01*
X112800000Y-117875000D01*
G75*
G02*
X113025000Y-118100000I0J-225000D01*
G01*
G37*
%TD.AperFunction*%
%TD*%
%TA.AperFunction,SMDPad,CuDef*%
D14*
%TO.P,Reg1,2*%
%TO.N,+12V*%
G36*
X112703956Y-105450389D02*
G01*
X112728247Y-105452943D01*
X112752173Y-105457854D01*
X112775506Y-105465076D01*
X112798022Y-105474542D01*
X112819508Y-105486159D01*
X112839756Y-105499818D01*
X112858576Y-105515387D01*
X112875787Y-105532717D01*
X112891224Y-105551646D01*
X112904740Y-105571990D01*
X112916207Y-105593556D01*
X112925515Y-105616137D01*
X112932574Y-105639520D01*
X112937318Y-105663480D01*
X112939702Y-105687788D01*
X112939702Y-105712213D01*
X112934929Y-105809776D01*
X112934929Y-105809795D01*
X112934927Y-105809817D01*
X112934734Y-105813282D01*
X112933566Y-105823698D01*
X112932545Y-105834103D01*
X112918273Y-105930754D01*
X112917739Y-105934204D01*
X112915564Y-105944436D01*
X112913529Y-105954715D01*
X112889893Y-106049513D01*
X112889025Y-106052894D01*
X112885863Y-106062859D01*
X112882834Y-106072894D01*
X112850061Y-106164932D01*
X112848867Y-106168213D01*
X112844739Y-106177844D01*
X112840754Y-106187513D01*
X112799156Y-106275915D01*
X112797647Y-106279064D01*
X112792589Y-106288264D01*
X112787687Y-106297484D01*
X112737660Y-106381404D01*
X112735852Y-106384390D01*
X112729914Y-106393062D01*
X112724143Y-106401748D01*
X112666176Y-106480371D01*
X112666169Y-106480382D01*
X112666160Y-106480393D01*
X112664076Y-106483181D01*
X112657341Y-106491207D01*
X112650731Y-106499311D01*
X112585365Y-106571908D01*
X112585357Y-106571917D01*
X112585347Y-106571927D01*
X112583005Y-106574494D01*
X112575494Y-106581849D01*
X112568146Y-106589248D01*
X112496010Y-106655117D01*
X112496001Y-106655126D01*
X112495990Y-106655135D01*
X112493405Y-106657463D01*
X112485263Y-106664009D01*
X112477181Y-106670695D01*
X112398950Y-106729220D01*
X112396140Y-106731292D01*
X112387368Y-106737032D01*
X112378700Y-106742879D01*
X112295140Y-106793484D01*
X112295131Y-106793490D01*
X112295120Y-106793496D01*
X112292132Y-106795278D01*
X112282842Y-106800134D01*
X112273645Y-106805107D01*
X112185553Y-106847313D01*
X112185537Y-106847322D01*
X112185517Y-106847330D01*
X112182378Y-106848808D01*
X112172671Y-106852730D01*
X112163020Y-106856786D01*
X112071219Y-106890198D01*
X112071213Y-106890201D01*
X112071205Y-106890203D01*
X112067923Y-106891373D01*
X112057875Y-106894330D01*
X112047880Y-106897424D01*
X111953251Y-106921721D01*
X111949864Y-106922566D01*
X111939553Y-106924533D01*
X111929325Y-106926632D01*
X111832775Y-106941579D01*
X111829322Y-106942089D01*
X111818875Y-106943040D01*
X111808484Y-106944132D01*
X111710937Y-106949586D01*
X111707450Y-106949757D01*
X111702646Y-106949723D01*
X111697840Y-106949975D01*
X111690859Y-106949999D01*
X111687368Y-106949987D01*
X111662987Y-106948536D01*
X111638863Y-106944714D01*
X111615228Y-106938556D01*
X111592306Y-106930121D01*
X111570316Y-106919490D01*
X111549468Y-106906762D01*
X111529962Y-106892062D01*
X111511984Y-106875529D01*
X111495706Y-106857320D01*
X111481281Y-106837609D01*
X111468848Y-106816585D01*
X111458527Y-106794448D01*
X111450416Y-106771409D01*
X111444590Y-106747689D01*
X111441108Y-106723514D01*
X111440001Y-106699114D01*
X111441282Y-106674723D01*
X111444935Y-106650573D01*
X111450927Y-106626894D01*
X111459202Y-106603914D01*
X111469681Y-106581851D01*
X111482262Y-106560915D01*
X111496825Y-106541307D01*
X111513232Y-106523214D01*
X111531328Y-106506808D01*
X111550937Y-106492247D01*
X111571874Y-106479668D01*
X111593938Y-106469192D01*
X111616920Y-106460920D01*
X111640598Y-106454929D01*
X111664749Y-106451278D01*
X111689141Y-106450001D01*
X111689580Y-106449999D01*
X111768362Y-106445595D01*
X111840744Y-106434389D01*
X111911700Y-106416171D01*
X111980527Y-106391119D01*
X112046585Y-106359469D01*
X112109224Y-106321534D01*
X112167879Y-106277653D01*
X112221968Y-106228264D01*
X112270975Y-106173835D01*
X112314445Y-106114873D01*
X112351944Y-106051969D01*
X112383133Y-105985689D01*
X112407703Y-105916687D01*
X112425424Y-105845613D01*
X112436123Y-105773155D01*
X112440299Y-105687786D01*
X112440493Y-105684301D01*
X112443216Y-105660029D01*
X112448294Y-105636137D01*
X112455680Y-105612856D01*
X112465302Y-105590406D01*
X112477068Y-105569003D01*
X112490869Y-105548849D01*
X112506568Y-105530139D01*
X112524019Y-105513050D01*
X112543054Y-105497745D01*
X112563492Y-105484371D01*
X112585138Y-105473055D01*
X112607784Y-105463905D01*
X112631216Y-105457010D01*
X112655208Y-105452432D01*
X112679532Y-105450219D01*
X112703956Y-105450389D01*
G37*
%TD.AperFunction*%
%TA.AperFunction,SMDPad,CuDef*%
%TO.P,Reg1,3*%
%TO.N,GND*%
G36*
X116203491Y-101550024D02*
G01*
X116207858Y-101550299D01*
X116212214Y-101550299D01*
X116256107Y-101552446D01*
X116256121Y-101552446D01*
X116256137Y-101552448D01*
X116259613Y-101552641D01*
X116270056Y-101553813D01*
X116280430Y-101554830D01*
X116323919Y-101561251D01*
X116323925Y-101561252D01*
X116323932Y-101561253D01*
X116327374Y-101561785D01*
X116337668Y-101563973D01*
X116347885Y-101565996D01*
X116390528Y-101576628D01*
X116390543Y-101576631D01*
X116390559Y-101576636D01*
X116393926Y-101577500D01*
X116403902Y-101580665D01*
X116413925Y-101583691D01*
X116455343Y-101598439D01*
X116455349Y-101598441D01*
X116455353Y-101598443D01*
X116458624Y-101599633D01*
X116468236Y-101603753D01*
X116477931Y-101607749D01*
X116517712Y-101626469D01*
X116520860Y-101627978D01*
X116530028Y-101633018D01*
X116539269Y-101637932D01*
X116577033Y-101660443D01*
X116580019Y-101662251D01*
X116588676Y-101668178D01*
X116597382Y-101673963D01*
X116632751Y-101700039D01*
X116632768Y-101700051D01*
X116632786Y-101700066D01*
X116635565Y-101702144D01*
X116643575Y-101708865D01*
X116651696Y-101715489D01*
X116684368Y-101744907D01*
X116686946Y-101747261D01*
X116694260Y-101754730D01*
X116701698Y-101762116D01*
X116731333Y-101794571D01*
X116731345Y-101794583D01*
X116731357Y-101794598D01*
X116733680Y-101797176D01*
X116740243Y-101805339D01*
X116746914Y-101813403D01*
X116773250Y-101848607D01*
X116775322Y-101851417D01*
X116781058Y-101860184D01*
X116786908Y-101868856D01*
X116809683Y-101906462D01*
X116811471Y-101909461D01*
X116816307Y-101918712D01*
X116821302Y-101927950D01*
X116840298Y-101967600D01*
X116841784Y-101970758D01*
X116845704Y-101980461D01*
X116849761Y-101990111D01*
X116864791Y-102031406D01*
X116864798Y-102031424D01*
X116864805Y-102031445D01*
X116865969Y-102034713D01*
X116868932Y-102044782D01*
X116872020Y-102054757D01*
X116882951Y-102097328D01*
X116882955Y-102097342D01*
X116882958Y-102097359D01*
X116883799Y-102100728D01*
X116885761Y-102111014D01*
X116887866Y-102121268D01*
X116894592Y-102164716D01*
X116895102Y-102168169D01*
X116896053Y-102178620D01*
X116897145Y-102189008D01*
X116899599Y-102232904D01*
X116899770Y-102236391D01*
X116899736Y-102241199D01*
X116899987Y-102245983D01*
X116899998Y-102249125D01*
X116899996Y-102249909D01*
X116900000Y-102250000D01*
X116900000Y-107050000D01*
X116899976Y-107053491D01*
X116898442Y-107077867D01*
X116894537Y-107101978D01*
X116888298Y-107125592D01*
X116879784Y-107148485D01*
X116869077Y-107170438D01*
X116856278Y-107191242D01*
X116841511Y-107210697D01*
X116824916Y-107228618D01*
X116806651Y-107244834D01*
X116786891Y-107259191D01*
X116765824Y-107271551D01*
X116762500Y-107273087D01*
X116762500Y-108400000D01*
X118250000Y-108400000D01*
X118253491Y-108400024D01*
X118277867Y-108401558D01*
X118301978Y-108405463D01*
X118325592Y-108411702D01*
X118348485Y-108420216D01*
X118370438Y-108430923D01*
X118391242Y-108443722D01*
X118410697Y-108458489D01*
X118428618Y-108475084D01*
X118444834Y-108493349D01*
X118459191Y-108513109D01*
X118471551Y-108534176D01*
X118481796Y-108556348D01*
X118489828Y-108579415D01*
X118495572Y-108603155D01*
X118498971Y-108627342D01*
X118499994Y-108651745D01*
X118498630Y-108676132D01*
X118494894Y-108700269D01*
X118488820Y-108723927D01*
X118480466Y-108746879D01*
X118469912Y-108768906D01*
X118457259Y-108789798D01*
X118442628Y-108809356D01*
X118426159Y-108827393D01*
X118408007Y-108843736D01*
X118388348Y-108858230D01*
X118367368Y-108870737D01*
X118345268Y-108881137D01*
X118322258Y-108889330D01*
X118298559Y-108895239D01*
X118274396Y-108898807D01*
X118250000Y-108900000D01*
X111650000Y-108900000D01*
X111646509Y-108899976D01*
X111622133Y-108898442D01*
X111598022Y-108894537D01*
X111574408Y-108888298D01*
X111551515Y-108879784D01*
X111529562Y-108869077D01*
X111508758Y-108856278D01*
X111489303Y-108841511D01*
X111471382Y-108824916D01*
X111455166Y-108806651D01*
X111440809Y-108786891D01*
X111428449Y-108765824D01*
X111418204Y-108743652D01*
X111410172Y-108720585D01*
X111404428Y-108696845D01*
X111401029Y-108672658D01*
X111400006Y-108648255D01*
X111401370Y-108623868D01*
X111405106Y-108599731D01*
X111411180Y-108576073D01*
X111419534Y-108553121D01*
X111430088Y-108531094D01*
X111442741Y-108510202D01*
X111457372Y-108490644D01*
X111473841Y-108472607D01*
X111491993Y-108456264D01*
X111511652Y-108441770D01*
X111532632Y-108429263D01*
X111554732Y-108418863D01*
X111577742Y-108410670D01*
X111601441Y-108404761D01*
X111625604Y-108401193D01*
X111650000Y-108400000D01*
X116262500Y-108400000D01*
X116262500Y-107050000D01*
X116262524Y-107046509D01*
X116264058Y-107022133D01*
X116267963Y-106998022D01*
X116274202Y-106974408D01*
X116282716Y-106951515D01*
X116293423Y-106929562D01*
X116306222Y-106908758D01*
X116320989Y-106889303D01*
X116337584Y-106871382D01*
X116355849Y-106855166D01*
X116375609Y-106840809D01*
X116396676Y-106828449D01*
X116400000Y-106826913D01*
X116400000Y-102254033D01*
X116398608Y-102229127D01*
X116395622Y-102209842D01*
X116390772Y-102190954D01*
X116384095Y-102172608D01*
X116375664Y-102155013D01*
X116365560Y-102138329D01*
X116353874Y-102122708D01*
X116340715Y-102108297D01*
X116326212Y-102095239D01*
X116310516Y-102083666D01*
X116293757Y-102073676D01*
X116276099Y-102065367D01*
X116257720Y-102058822D01*
X116238793Y-102054103D01*
X116219485Y-102051252D01*
X116193899Y-102050000D01*
X113204033Y-102050000D01*
X113179127Y-102051392D01*
X113159842Y-102054378D01*
X113140954Y-102059228D01*
X113122608Y-102065905D01*
X113105013Y-102074336D01*
X113088329Y-102084440D01*
X113072708Y-102096126D01*
X113058297Y-102109285D01*
X113045239Y-102123788D01*
X113033666Y-102139484D01*
X113023676Y-102156243D01*
X113015367Y-102173901D01*
X113008822Y-102192280D01*
X113004103Y-102211207D01*
X113001252Y-102230515D01*
X113000000Y-102256101D01*
X113000000Y-102750000D01*
X112999976Y-102753491D01*
X112998442Y-102777867D01*
X112994537Y-102801978D01*
X112988298Y-102825592D01*
X112979784Y-102848485D01*
X112969077Y-102870438D01*
X112956278Y-102891242D01*
X112941511Y-102910697D01*
X112924916Y-102928618D01*
X112906651Y-102944834D01*
X112886891Y-102959191D01*
X112865824Y-102971551D01*
X112843652Y-102981796D01*
X112820585Y-102989828D01*
X112796845Y-102995572D01*
X112772658Y-102998971D01*
X112748255Y-102999994D01*
X112723868Y-102998630D01*
X112699731Y-102994894D01*
X112676073Y-102988820D01*
X112653121Y-102980466D01*
X112631094Y-102969912D01*
X112610202Y-102957259D01*
X112590644Y-102942628D01*
X112572607Y-102926159D01*
X112556264Y-102908007D01*
X112541770Y-102888348D01*
X112529263Y-102867368D01*
X112518863Y-102845268D01*
X112510670Y-102822258D01*
X112504761Y-102798559D01*
X112501193Y-102774396D01*
X112500000Y-102750000D01*
X112500000Y-102250000D01*
X112500024Y-102246509D01*
X112500299Y-102242142D01*
X112500299Y-102237786D01*
X112502446Y-102193893D01*
X112502446Y-102193879D01*
X112502448Y-102193863D01*
X112502641Y-102190387D01*
X112503813Y-102179944D01*
X112504830Y-102169570D01*
X112511252Y-102126077D01*
X112511785Y-102122626D01*
X112513973Y-102112332D01*
X112515996Y-102102115D01*
X112526628Y-102059472D01*
X112526631Y-102059457D01*
X112526636Y-102059441D01*
X112527500Y-102056074D01*
X112530665Y-102046098D01*
X112533691Y-102036075D01*
X112548439Y-101994657D01*
X112549633Y-101991376D01*
X112553753Y-101981764D01*
X112557749Y-101972069D01*
X112576469Y-101932288D01*
X112577978Y-101929140D01*
X112583018Y-101919972D01*
X112587932Y-101910731D01*
X112610443Y-101872967D01*
X112612251Y-101869981D01*
X112618178Y-101861324D01*
X112623963Y-101852618D01*
X112650039Y-101817249D01*
X112650051Y-101817232D01*
X112650066Y-101817214D01*
X112652144Y-101814435D01*
X112658865Y-101806425D01*
X112665489Y-101798304D01*
X112694907Y-101765632D01*
X112697261Y-101763054D01*
X112704730Y-101755740D01*
X112712116Y-101748302D01*
X112744571Y-101718667D01*
X112744583Y-101718655D01*
X112744598Y-101718643D01*
X112747176Y-101716320D01*
X112755339Y-101709757D01*
X112763403Y-101703086D01*
X112798607Y-101676750D01*
X112801417Y-101674678D01*
X112810184Y-101668942D01*
X112818856Y-101663092D01*
X112856462Y-101640317D01*
X112859461Y-101638529D01*
X112868712Y-101633693D01*
X112877950Y-101628698D01*
X112917600Y-101609702D01*
X112920758Y-101608216D01*
X112930461Y-101604296D01*
X112940111Y-101600239D01*
X112981406Y-101585209D01*
X112981424Y-101585202D01*
X112981445Y-101585195D01*
X112984713Y-101584031D01*
X112994782Y-101581068D01*
X113004757Y-101577980D01*
X113047328Y-101567049D01*
X113047342Y-101567045D01*
X113047359Y-101567042D01*
X113050728Y-101566201D01*
X113061014Y-101564239D01*
X113071268Y-101562134D01*
X113114716Y-101555408D01*
X113118169Y-101554898D01*
X113128620Y-101553947D01*
X113139008Y-101552855D01*
X113182904Y-101550401D01*
X113186391Y-101550230D01*
X113191199Y-101550264D01*
X113195983Y-101550013D01*
X113199125Y-101550002D01*
X113199909Y-101550004D01*
X113200000Y-101550000D01*
X116200000Y-101550000D01*
X116203491Y-101550024D01*
G37*
%TD.AperFunction*%
D18*
%TO.P,Reg1,4*%
%TO.N,+3V3*%
X118150000Y-104950000D03*
D19*
%TO.P,Reg1,~*%
%TO.N,N/C*%
X113700000Y-102800000D03*
X111800000Y-102800000D03*
%TO.P,Reg1,3*%
%TO.N,GND*%
X112750000Y-102800000D03*
%TO.P,Reg1,1*%
%TO.N,+12V*%
X111800000Y-105500000D03*
%TO.P,Reg1,2*%
X112750000Y-105500000D03*
%TO.P,Reg1,~*%
%TO.N,N/C*%
X113700000Y-105500000D03*
%TO.P,Reg1,4*%
%TO.N,+3V3*%
%TA.AperFunction,SMDPad,CuDef*%
G36*
G01*
X117675000Y-106250000D02*
X118625000Y-106250000D01*
G75*
G02*
X118875000Y-106500000I0J-250000D01*
G01*
X118875000Y-107000000D01*
G75*
G02*
X118625000Y-107250000I-250000J0D01*
G01*
X117675000Y-107250000D01*
G75*
G02*
X117425000Y-107000000I0J250000D01*
G01*
X117425000Y-106500000D01*
G75*
G02*
X117675000Y-106250000I250000J0D01*
G01*
G37*
%TD.AperFunction*%
%TO.P,Reg1,3*%
%TO.N,GND*%
%TA.AperFunction,SMDPad,CuDef*%
G36*
G01*
X117675000Y-108150000D02*
X118625000Y-108150000D01*
G75*
G02*
X118875000Y-108400000I0J-250000D01*
G01*
X118875000Y-108900000D01*
G75*
G02*
X118625000Y-109150000I-250000J0D01*
G01*
X117675000Y-109150000D01*
G75*
G02*
X117425000Y-108900000I0J250000D01*
G01*
X117425000Y-108400000D01*
G75*
G02*
X117675000Y-108150000I250000J0D01*
G01*
G37*
%TD.AperFunction*%
%TA.AperFunction,SMDPad,CuDef*%
G36*
G01*
X111425000Y-108150000D02*
X112375000Y-108150000D01*
G75*
G02*
X112625000Y-108400000I0J-250000D01*
G01*
X112625000Y-108900000D01*
G75*
G02*
X112375000Y-109150000I-250000J0D01*
G01*
X111425000Y-109150000D01*
G75*
G02*
X111175000Y-108900000I0J250000D01*
G01*
X111175000Y-108400000D01*
G75*
G02*
X111425000Y-108150000I250000J0D01*
G01*
G37*
%TD.AperFunction*%
%TO.P,Reg1,2*%
%TO.N,+12V*%
%TA.AperFunction,SMDPad,CuDef*%
G36*
G01*
X111425000Y-106250000D02*
X112375000Y-106250000D01*
G75*
G02*
X112625000Y-106500000I0J-250000D01*
G01*
X112625000Y-107000000D01*
G75*
G02*
X112375000Y-107250000I-250000J0D01*
G01*
X111425000Y-107250000D01*
G75*
G02*
X111175000Y-107000000I0J250000D01*
G01*
X111175000Y-106500000D01*
G75*
G02*
X111425000Y-106250000I250000J0D01*
G01*
G37*
%TD.AperFunction*%
%TO.P,Reg1,~*%
%TO.N,N/C*%
%TA.AperFunction,SMDPad,CuDef*%
G36*
G01*
X110900000Y-103825000D02*
X110400000Y-103825000D01*
G75*
G02*
X110175000Y-103600000I0J225000D01*
G01*
X110175000Y-103150000D01*
G75*
G02*
X110400000Y-102925000I225000J0D01*
G01*
X110900000Y-102925000D01*
G75*
G02*
X111125000Y-103150000I0J-225000D01*
G01*
X111125000Y-103600000D01*
G75*
G02*
X110900000Y-103825000I-225000J0D01*
G01*
G37*
%TD.AperFunction*%
%TA.AperFunction,SMDPad,CuDef*%
G36*
G01*
X110900000Y-105375000D02*
X110400000Y-105375000D01*
G75*
G02*
X110175000Y-105150000I0J225000D01*
G01*
X110175000Y-104700000D01*
G75*
G02*
X110400000Y-104475000I225000J0D01*
G01*
X110900000Y-104475000D01*
G75*
G02*
X111125000Y-104700000I0J-225000D01*
G01*
X111125000Y-105150000D01*
G75*
G02*
X110900000Y-105375000I-225000J0D01*
G01*
G37*
%TD.AperFunction*%
%TA.AperFunction,SMDPad,CuDef*%
G36*
G01*
X112825000Y-107945627D02*
X112825000Y-106694373D01*
G75*
G02*
X113074373Y-106445000I249373J0D01*
G01*
X114000627Y-106445000D01*
G75*
G02*
X114250000Y-106694373I0J-249373D01*
G01*
X114250000Y-107945627D01*
G75*
G02*
X114000627Y-108195000I-249373J0D01*
G01*
X113074373Y-108195000D01*
G75*
G02*
X112825000Y-107945627I0J249373D01*
G01*
G37*
%TD.AperFunction*%
%TO.P,Reg1,3*%
%TO.N,GND*%
%TA.AperFunction,SMDPad,CuDef*%
G36*
G01*
X115800000Y-107945627D02*
X115800000Y-106694373D01*
G75*
G02*
X116049373Y-106445000I249373J0D01*
G01*
X116975627Y-106445000D01*
G75*
G02*
X117225000Y-106694373I0J-249373D01*
G01*
X117225000Y-107945627D01*
G75*
G02*
X116975627Y-108195000I-249373J0D01*
G01*
X116049373Y-108195000D01*
G75*
G02*
X115800000Y-107945627I0J249373D01*
G01*
G37*
%TD.AperFunction*%
D20*
%TO.P,Reg1,4*%
%TO.N,+3V3*%
X118150000Y-104200000D03*
%TO.P,Reg1,~*%
%TO.N,N/C*%
X115150000Y-104200000D03*
%TD*%
%TO.P,R8,2*%
%TO.N,Net-(J2-PadB5)*%
%TA.AperFunction,SMDPad,CuDef*%
G36*
G01*
X121675000Y-104825000D02*
X121675000Y-105375000D01*
G75*
G02*
X121475000Y-105575000I-200000J0D01*
G01*
X121075000Y-105575000D01*
G75*
G02*
X120875000Y-105375000I0J200000D01*
G01*
X120875000Y-104825000D01*
G75*
G02*
X121075000Y-104625000I200000J0D01*
G01*
X121475000Y-104625000D01*
G75*
G02*
X121675000Y-104825000I0J-200000D01*
G01*
G37*
%TD.AperFunction*%
%TO.P,R8,1*%
%TO.N,GND*%
%TA.AperFunction,SMDPad,CuDef*%
G36*
G01*
X123325000Y-104825000D02*
X123325000Y-105375000D01*
G75*
G02*
X123125000Y-105575000I-200000J0D01*
G01*
X122725000Y-105575000D01*
G75*
G02*
X122525000Y-105375000I0J200000D01*
G01*
X122525000Y-104825000D01*
G75*
G02*
X122725000Y-104625000I200000J0D01*
G01*
X123125000Y-104625000D01*
G75*
G02*
X123325000Y-104825000I0J-200000D01*
G01*
G37*
%TD.AperFunction*%
%TD*%
%TO.P,R7,2*%
%TO.N,GND*%
%TA.AperFunction,SMDPad,CuDef*%
G36*
G01*
X122525000Y-104175000D02*
X122525000Y-103625000D01*
G75*
G02*
X122725000Y-103425000I200000J0D01*
G01*
X123125000Y-103425000D01*
G75*
G02*
X123325000Y-103625000I0J-200000D01*
G01*
X123325000Y-104175000D01*
G75*
G02*
X123125000Y-104375000I-200000J0D01*
G01*
X122725000Y-104375000D01*
G75*
G02*
X122525000Y-104175000I0J200000D01*
G01*
G37*
%TD.AperFunction*%
%TO.P,R7,1*%
%TO.N,Net-(J2-PadA5)*%
%TA.AperFunction,SMDPad,CuDef*%
G36*
G01*
X120875000Y-104175000D02*
X120875000Y-103625000D01*
G75*
G02*
X121075000Y-103425000I200000J0D01*
G01*
X121475000Y-103425000D01*
G75*
G02*
X121675000Y-103625000I0J-200000D01*
G01*
X121675000Y-104175000D01*
G75*
G02*
X121475000Y-104375000I-200000J0D01*
G01*
X121075000Y-104375000D01*
G75*
G02*
X120875000Y-104175000I0J200000D01*
G01*
G37*
%TD.AperFunction*%
%TD*%
%TO.P,R6,1*%
%TO.N,IO5*%
%TA.AperFunction,SMDPad,CuDef*%
G36*
G01*
X111075000Y-120649900D02*
X111075000Y-119750100D01*
G75*
G02*
X111325100Y-119500000I250100J0D01*
G01*
X111849900Y-119500000D01*
G75*
G02*
X112100000Y-119750100I0J-250100D01*
G01*
X112100000Y-120649900D01*
G75*
G02*
X111849900Y-120900000I-250100J0D01*
G01*
X111325100Y-120900000D01*
G75*
G02*
X111075000Y-120649900I0J250100D01*
G01*
G37*
%TD.AperFunction*%
%TO.P,R6,2*%
%TO.N,Net-(J1-Pad6)*%
%TA.AperFunction,SMDPad,CuDef*%
G36*
G01*
X112900000Y-120649900D02*
X112900000Y-119750100D01*
G75*
G02*
X113150100Y-119500000I250100J0D01*
G01*
X113674900Y-119500000D01*
G75*
G02*
X113925000Y-119750100I0J-250100D01*
G01*
X113925000Y-120649900D01*
G75*
G02*
X113674900Y-120900000I-250100J0D01*
G01*
X113150100Y-120900000D01*
G75*
G02*
X112900000Y-120649900I0J250100D01*
G01*
G37*
%TD.AperFunction*%
%TA.AperFunction,SMDPad,CuDef*%
G36*
G01*
X113400000Y-120825250D02*
X113400000Y-119574750D01*
G75*
G02*
X113649750Y-119325000I249750J0D01*
G01*
X114275250Y-119325000D01*
G75*
G02*
X114525000Y-119574750I0J-249750D01*
G01*
X114525000Y-120825250D01*
G75*
G02*
X114275250Y-121075000I-249750J0D01*
G01*
X113649750Y-121075000D01*
G75*
G02*
X113400000Y-120825250I0J249750D01*
G01*
G37*
%TD.AperFunction*%
%TO.P,R6,1*%
%TO.N,IO5*%
%TA.AperFunction,SMDPad,CuDef*%
G36*
G01*
X110475000Y-120825250D02*
X110475000Y-119574750D01*
G75*
G02*
X110724750Y-119325000I249750J0D01*
G01*
X111350250Y-119325000D01*
G75*
G02*
X111600000Y-119574750I0J-249750D01*
G01*
X111600000Y-120825250D01*
G75*
G02*
X111350250Y-121075000I-249750J0D01*
G01*
X110724750Y-121075000D01*
G75*
G02*
X110475000Y-120825250I0J249750D01*
G01*
G37*
%TD.AperFunction*%
%TD*%
%TO.P,R5,1*%
%TO.N,+12V*%
%TA.AperFunction,SMDPad,CuDef*%
G36*
G01*
X112849900Y-128175000D02*
X111950100Y-128175000D01*
G75*
G02*
X111700000Y-127924900I0J250100D01*
G01*
X111700000Y-127400100D01*
G75*
G02*
X111950100Y-127150000I250100J0D01*
G01*
X112849900Y-127150000D01*
G75*
G02*
X113100000Y-127400100I0J-250100D01*
G01*
X113100000Y-127924900D01*
G75*
G02*
X112849900Y-128175000I-250100J0D01*
G01*
G37*
%TD.AperFunction*%
%TO.P,R5,2*%
%TO.N,Net-(J1-Pad6)*%
%TA.AperFunction,SMDPad,CuDef*%
G36*
G01*
X112849900Y-126350000D02*
X111950100Y-126350000D01*
G75*
G02*
X111700000Y-126099900I0J250100D01*
G01*
X111700000Y-125575100D01*
G75*
G02*
X111950100Y-125325000I250100J0D01*
G01*
X112849900Y-125325000D01*
G75*
G02*
X113100000Y-125575100I0J-250100D01*
G01*
X113100000Y-126099900D01*
G75*
G02*
X112849900Y-126350000I-250100J0D01*
G01*
G37*
%TD.AperFunction*%
%TA.AperFunction,SMDPad,CuDef*%
G36*
G01*
X113025250Y-125850000D02*
X111774750Y-125850000D01*
G75*
G02*
X111525000Y-125600250I0J249750D01*
G01*
X111525000Y-124974750D01*
G75*
G02*
X111774750Y-124725000I249750J0D01*
G01*
X113025250Y-124725000D01*
G75*
G02*
X113275000Y-124974750I0J-249750D01*
G01*
X113275000Y-125600250D01*
G75*
G02*
X113025250Y-125850000I-249750J0D01*
G01*
G37*
%TD.AperFunction*%
%TO.P,R5,1*%
%TO.N,+12V*%
%TA.AperFunction,SMDPad,CuDef*%
G36*
G01*
X113025250Y-128775000D02*
X111774750Y-128775000D01*
G75*
G02*
X111525000Y-128525250I0J249750D01*
G01*
X111525000Y-127899750D01*
G75*
G02*
X111774750Y-127650000I249750J0D01*
G01*
X113025250Y-127650000D01*
G75*
G02*
X113275000Y-127899750I0J-249750D01*
G01*
X113275000Y-128525250D01*
G75*
G02*
X113025250Y-128775000I-249750J0D01*
G01*
G37*
%TD.AperFunction*%
%TD*%
%TO.P,R4,1*%
%TO.N,+3V3*%
%TA.AperFunction,SMDPad,CuDef*%
G36*
G01*
X116119900Y-128175000D02*
X115220100Y-128175000D01*
G75*
G02*
X114970000Y-127924900I0J250100D01*
G01*
X114970000Y-127400100D01*
G75*
G02*
X115220100Y-127150000I250100J0D01*
G01*
X116119900Y-127150000D01*
G75*
G02*
X116370000Y-127400100I0J-250100D01*
G01*
X116370000Y-127924900D01*
G75*
G02*
X116119900Y-128175000I-250100J0D01*
G01*
G37*
%TD.AperFunction*%
%TO.P,R4,2*%
%TO.N,IO4*%
%TA.AperFunction,SMDPad,CuDef*%
G36*
G01*
X116119900Y-126350000D02*
X115220100Y-126350000D01*
G75*
G02*
X114970000Y-126099900I0J250100D01*
G01*
X114970000Y-125575100D01*
G75*
G02*
X115220100Y-125325000I250100J0D01*
G01*
X116119900Y-125325000D01*
G75*
G02*
X116370000Y-125575100I0J-250100D01*
G01*
X116370000Y-126099900D01*
G75*
G02*
X116119900Y-126350000I-250100J0D01*
G01*
G37*
%TD.AperFunction*%
%TA.AperFunction,SMDPad,CuDef*%
G36*
G01*
X116295250Y-125850000D02*
X115044750Y-125850000D01*
G75*
G02*
X114795000Y-125600250I0J249750D01*
G01*
X114795000Y-124974750D01*
G75*
G02*
X115044750Y-124725000I249750J0D01*
G01*
X116295250Y-124725000D01*
G75*
G02*
X116545000Y-124974750I0J-249750D01*
G01*
X116545000Y-125600250D01*
G75*
G02*
X116295250Y-125850000I-249750J0D01*
G01*
G37*
%TD.AperFunction*%
%TO.P,R4,1*%
%TO.N,+3V3*%
%TA.AperFunction,SMDPad,CuDef*%
G36*
G01*
X116295250Y-128775000D02*
X115044750Y-128775000D01*
G75*
G02*
X114795000Y-128525250I0J249750D01*
G01*
X114795000Y-127899750D01*
G75*
G02*
X115044750Y-127650000I249750J0D01*
G01*
X116295250Y-127650000D01*
G75*
G02*
X116545000Y-127899750I0J-249750D01*
G01*
X116545000Y-128525250D01*
G75*
G02*
X116295250Y-128775000I-249750J0D01*
G01*
G37*
%TD.AperFunction*%
%TD*%
%TO.P,R3,1*%
%TO.N,+3V3*%
%TA.AperFunction,SMDPad,CuDef*%
G36*
G01*
X118619900Y-128175000D02*
X117720100Y-128175000D01*
G75*
G02*
X117470000Y-127924900I0J250100D01*
G01*
X117470000Y-127400100D01*
G75*
G02*
X117720100Y-127150000I250100J0D01*
G01*
X118619900Y-127150000D01*
G75*
G02*
X118870000Y-127400100I0J-250100D01*
G01*
X118870000Y-127924900D01*
G75*
G02*
X118619900Y-128175000I-250100J0D01*
G01*
G37*
%TD.AperFunction*%
%TO.P,R3,2*%
%TO.N,IO3*%
%TA.AperFunction,SMDPad,CuDef*%
G36*
G01*
X118619900Y-126350000D02*
X117720100Y-126350000D01*
G75*
G02*
X117470000Y-126099900I0J250100D01*
G01*
X117470000Y-125575100D01*
G75*
G02*
X117720100Y-125325000I250100J0D01*
G01*
X118619900Y-125325000D01*
G75*
G02*
X118870000Y-125575100I0J-250100D01*
G01*
X118870000Y-126099900D01*
G75*
G02*
X118619900Y-126350000I-250100J0D01*
G01*
G37*
%TD.AperFunction*%
%TA.AperFunction,SMDPad,CuDef*%
G36*
G01*
X118795250Y-125850000D02*
X117544750Y-125850000D01*
G75*
G02*
X117295000Y-125600250I0J249750D01*
G01*
X117295000Y-124974750D01*
G75*
G02*
X117544750Y-124725000I249750J0D01*
G01*
X118795250Y-124725000D01*
G75*
G02*
X119045000Y-124974750I0J-249750D01*
G01*
X119045000Y-125600250D01*
G75*
G02*
X118795250Y-125850000I-249750J0D01*
G01*
G37*
%TD.AperFunction*%
%TO.P,R3,1*%
%TO.N,+3V3*%
%TA.AperFunction,SMDPad,CuDef*%
G36*
G01*
X118795250Y-128775000D02*
X117544750Y-128775000D01*
G75*
G02*
X117295000Y-128525250I0J249750D01*
G01*
X117295000Y-127899750D01*
G75*
G02*
X117544750Y-127650000I249750J0D01*
G01*
X118795250Y-127650000D01*
G75*
G02*
X119045000Y-127899750I0J-249750D01*
G01*
X119045000Y-128525250D01*
G75*
G02*
X118795250Y-128775000I-249750J0D01*
G01*
G37*
%TD.AperFunction*%
%TD*%
%TO.P,R2,1*%
%TO.N,+3V3*%
%TA.AperFunction,SMDPad,CuDef*%
G36*
G01*
X121119900Y-128175000D02*
X120220100Y-128175000D01*
G75*
G02*
X119970000Y-127924900I0J250100D01*
G01*
X119970000Y-127400100D01*
G75*
G02*
X120220100Y-127150000I250100J0D01*
G01*
X121119900Y-127150000D01*
G75*
G02*
X121370000Y-127400100I0J-250100D01*
G01*
X121370000Y-127924900D01*
G75*
G02*
X121119900Y-128175000I-250100J0D01*
G01*
G37*
%TD.AperFunction*%
%TO.P,R2,2*%
%TO.N,IO2*%
%TA.AperFunction,SMDPad,CuDef*%
G36*
G01*
X121119900Y-126350000D02*
X120220100Y-126350000D01*
G75*
G02*
X119970000Y-126099900I0J250100D01*
G01*
X119970000Y-125575100D01*
G75*
G02*
X120220100Y-125325000I250100J0D01*
G01*
X121119900Y-125325000D01*
G75*
G02*
X121370000Y-125575100I0J-250100D01*
G01*
X121370000Y-126099900D01*
G75*
G02*
X121119900Y-126350000I-250100J0D01*
G01*
G37*
%TD.AperFunction*%
%TA.AperFunction,SMDPad,CuDef*%
G36*
G01*
X121295250Y-125850000D02*
X120044750Y-125850000D01*
G75*
G02*
X119795000Y-125600250I0J249750D01*
G01*
X119795000Y-124974750D01*
G75*
G02*
X120044750Y-124725000I249750J0D01*
G01*
X121295250Y-124725000D01*
G75*
G02*
X121545000Y-124974750I0J-249750D01*
G01*
X121545000Y-125600250D01*
G75*
G02*
X121295250Y-125850000I-249750J0D01*
G01*
G37*
%TD.AperFunction*%
%TO.P,R2,1*%
%TO.N,+3V3*%
%TA.AperFunction,SMDPad,CuDef*%
G36*
G01*
X121295250Y-128775000D02*
X120044750Y-128775000D01*
G75*
G02*
X119795000Y-128525250I0J249750D01*
G01*
X119795000Y-127899750D01*
G75*
G02*
X120044750Y-127650000I249750J0D01*
G01*
X121295250Y-127650000D01*
G75*
G02*
X121545000Y-127899750I0J-249750D01*
G01*
X121545000Y-128525250D01*
G75*
G02*
X121295250Y-128775000I-249750J0D01*
G01*
G37*
%TD.AperFunction*%
%TD*%
%TO.P,R1,1*%
%TO.N,+3V3*%
%TA.AperFunction,SMDPad,CuDef*%
G36*
G01*
X123619900Y-128175000D02*
X122720100Y-128175000D01*
G75*
G02*
X122470000Y-127924900I0J250100D01*
G01*
X122470000Y-127400100D01*
G75*
G02*
X122720100Y-127150000I250100J0D01*
G01*
X123619900Y-127150000D01*
G75*
G02*
X123870000Y-127400100I0J-250100D01*
G01*
X123870000Y-127924900D01*
G75*
G02*
X123619900Y-128175000I-250100J0D01*
G01*
G37*
%TD.AperFunction*%
%TO.P,R1,2*%
%TO.N,IO1*%
%TA.AperFunction,SMDPad,CuDef*%
G36*
G01*
X123619900Y-126350000D02*
X122720100Y-126350000D01*
G75*
G02*
X122470000Y-126099900I0J250100D01*
G01*
X122470000Y-125575100D01*
G75*
G02*
X122720100Y-125325000I250100J0D01*
G01*
X123619900Y-125325000D01*
G75*
G02*
X123870000Y-125575100I0J-250100D01*
G01*
X123870000Y-126099900D01*
G75*
G02*
X123619900Y-126350000I-250100J0D01*
G01*
G37*
%TD.AperFunction*%
%TA.AperFunction,SMDPad,CuDef*%
G36*
G01*
X123795250Y-125850000D02*
X122544750Y-125850000D01*
G75*
G02*
X122295000Y-125600250I0J249750D01*
G01*
X122295000Y-124974750D01*
G75*
G02*
X122544750Y-124725000I249750J0D01*
G01*
X123795250Y-124725000D01*
G75*
G02*
X124045000Y-124974750I0J-249750D01*
G01*
X124045000Y-125600250D01*
G75*
G02*
X123795250Y-125850000I-249750J0D01*
G01*
G37*
%TD.AperFunction*%
%TO.P,R1,1*%
%TO.N,+3V3*%
%TA.AperFunction,SMDPad,CuDef*%
G36*
G01*
X123795250Y-128775000D02*
X122544750Y-128775000D01*
G75*
G02*
X122295000Y-128525250I0J249750D01*
G01*
X122295000Y-127899750D01*
G75*
G02*
X122544750Y-127650000I249750J0D01*
G01*
X123795250Y-127650000D01*
G75*
G02*
X124045000Y-127899750I0J-249750D01*
G01*
X124045000Y-128525250D01*
G75*
G02*
X123795250Y-128775000I-249750J0D01*
G01*
G37*
%TD.AperFunction*%
%TD*%
%TO.P,C1,1*%
%TO.N,GND*%
%TA.AperFunction,SMDPad,CuDef*%
G36*
G01*
X127562500Y-119750100D02*
X127562500Y-120649900D01*
G75*
G02*
X127312400Y-120900000I-250100J0D01*
G01*
X126787600Y-120900000D01*
G75*
G02*
X126537500Y-120649900I0J250100D01*
G01*
X126537500Y-119750100D01*
G75*
G02*
X126787600Y-119500000I250100J0D01*
G01*
X127312400Y-119500000D01*
G75*
G02*
X127562500Y-119750100I0J-250100D01*
G01*
G37*
%TD.AperFunction*%
%TO.P,C1,2*%
%TO.N,IO1*%
%TA.AperFunction,SMDPad,CuDef*%
G36*
G01*
X125737500Y-119750100D02*
X125737500Y-120649900D01*
G75*
G02*
X125487400Y-120900000I-250100J0D01*
G01*
X124962600Y-120900000D01*
G75*
G02*
X124712500Y-120649900I0J250100D01*
G01*
X124712500Y-119750100D01*
G75*
G02*
X124962600Y-119500000I250100J0D01*
G01*
X125487400Y-119500000D01*
G75*
G02*
X125737500Y-119750100I0J-250100D01*
G01*
G37*
%TD.AperFunction*%
%TA.AperFunction,SMDPad,CuDef*%
G36*
G01*
X125237500Y-119574750D02*
X125237500Y-120825250D01*
G75*
G02*
X124987750Y-121075000I-249750J0D01*
G01*
X124362250Y-121075000D01*
G75*
G02*
X124112500Y-120825250I0J249750D01*
G01*
X124112500Y-119574750D01*
G75*
G02*
X124362250Y-119325000I249750J0D01*
G01*
X124987750Y-119325000D01*
G75*
G02*
X125237500Y-119574750I0J-249750D01*
G01*
G37*
%TD.AperFunction*%
%TO.P,C1,1*%
%TO.N,GND*%
%TA.AperFunction,SMDPad,CuDef*%
G36*
G01*
X128162500Y-119574750D02*
X128162500Y-120825250D01*
G75*
G02*
X127912750Y-121075000I-249750J0D01*
G01*
X127287250Y-121075000D01*
G75*
G02*
X127037500Y-120825250I0J249750D01*
G01*
X127037500Y-119574750D01*
G75*
G02*
X127287250Y-119325000I249750J0D01*
G01*
X127912750Y-119325000D01*
G75*
G02*
X128162500Y-119574750I0J-249750D01*
G01*
G37*
%TD.AperFunction*%
%TD*%
D21*
%TO.P,J1,1*%
%TO.N,GND*%
X125745000Y-122900000D03*
D22*
%TO.P,J1,2*%
%TO.N,IO1*%
X123205000Y-122900000D03*
%TO.P,J1,3*%
%TO.N,IO2*%
X120665000Y-122900000D03*
%TO.P,J1,4*%
%TO.N,IO3*%
X118125000Y-122900000D03*
%TO.P,J1,5*%
%TO.N,IO4*%
X115585000Y-122900000D03*
%TO.P,J1,6*%
%TO.N,Net-(J1-Pad6)*%
X113045000Y-122900000D03*
%TD*%
D23*
%TO.P,J2,S1*%
%TO.N,GND*%
X123680000Y-107180000D03*
%TA.AperFunction,SMDPad,CuDef*%
D14*
G36*
X122115684Y-114386936D02*
G01*
X122117553Y-114374868D01*
X122120589Y-114363040D01*
X122124766Y-114351563D01*
X122130043Y-114340550D01*
X122136369Y-114330103D01*
X122143684Y-114320325D01*
X122151919Y-114311306D01*
X122160995Y-114303134D01*
X122170824Y-114295886D01*
X122181314Y-114289634D01*
X122192364Y-114284433D01*
X122203868Y-114280336D01*
X122215718Y-114277381D01*
X122227800Y-114275597D01*
X122239998Y-114275000D01*
X122252195Y-114275597D01*
X122264277Y-114277380D01*
X122276127Y-114280335D01*
X122287631Y-114284431D01*
X122298682Y-114289631D01*
X122309172Y-114295884D01*
X122319002Y-114303131D01*
X122328077Y-114311303D01*
X122336312Y-114320320D01*
X122343628Y-114330099D01*
X122349954Y-114340545D01*
X122355232Y-114351558D01*
X122359409Y-114363034D01*
X122362446Y-114374863D01*
X122364315Y-114386932D01*
X122364997Y-114399125D01*
X122365082Y-114411210D01*
X122371318Y-114510337D01*
X122386779Y-114605799D01*
X122411485Y-114699306D01*
X122445193Y-114789942D01*
X122487585Y-114876861D01*
X122538261Y-114959234D01*
X122596731Y-115036265D01*
X122662437Y-115107221D01*
X122734760Y-115171431D01*
X122812991Y-115228269D01*
X122896404Y-115277208D01*
X122984191Y-115317772D01*
X123075523Y-115349577D01*
X123169522Y-115372318D01*
X123215977Y-115378847D01*
X123298150Y-115373677D01*
X123610000Y-115323168D01*
X123610000Y-114198629D01*
X123358200Y-114214471D01*
X123356458Y-114214569D01*
X123353835Y-114214569D01*
X123351225Y-114214715D01*
X123310874Y-114214997D01*
X123309129Y-114214997D01*
X123296934Y-114214315D01*
X123284866Y-114212447D01*
X123273038Y-114209410D01*
X123261561Y-114205233D01*
X123250548Y-114199956D01*
X123240102Y-114193630D01*
X123230323Y-114186315D01*
X123221304Y-114178080D01*
X123213133Y-114169004D01*
X123205885Y-114159174D01*
X123199632Y-114148685D01*
X123194432Y-114137635D01*
X123190336Y-114126130D01*
X123187381Y-114114281D01*
X123185596Y-114102199D01*
X123185000Y-114090001D01*
X123185597Y-114077803D01*
X123187380Y-114065721D01*
X123190335Y-114053871D01*
X123194431Y-114042367D01*
X123199631Y-114031317D01*
X123205884Y-114020827D01*
X123213132Y-114010997D01*
X123221303Y-114001922D01*
X123230321Y-113993686D01*
X123240100Y-113986371D01*
X123250546Y-113980045D01*
X123261560Y-113974768D01*
X123273036Y-113970590D01*
X123284865Y-113967554D01*
X123296933Y-113965685D01*
X123309126Y-113965003D01*
X123345993Y-113964745D01*
X123610000Y-113948135D01*
X123610000Y-108452804D01*
X123579804Y-108448345D01*
X123303894Y-108434851D01*
X123302151Y-108434754D01*
X123290014Y-108433392D01*
X123278069Y-108430852D01*
X123266429Y-108427160D01*
X123255203Y-108422349D01*
X123244502Y-108416466D01*
X123234425Y-108409566D01*
X123225070Y-108401717D01*
X123216525Y-108392991D01*
X123208873Y-108383473D01*
X123202185Y-108373254D01*
X123196528Y-108362431D01*
X123191953Y-108351108D01*
X123188505Y-108339393D01*
X123186216Y-108327397D01*
X123185109Y-108315234D01*
X123185195Y-108303022D01*
X123186472Y-108290877D01*
X123188927Y-108278913D01*
X123192538Y-108267247D01*
X123197271Y-108255990D01*
X123203080Y-108245247D01*
X123209908Y-108235122D01*
X123217693Y-108225712D01*
X123226359Y-108217107D01*
X123235822Y-108209388D01*
X123245995Y-108202630D01*
X123256778Y-108196897D01*
X123268069Y-108192243D01*
X123279760Y-108188713D01*
X123291740Y-108186341D01*
X123303894Y-108185150D01*
X123316106Y-108185149D01*
X123598121Y-108198942D01*
X123599864Y-108199039D01*
X123605118Y-108199629D01*
X123610000Y-108200107D01*
X123610000Y-107074855D01*
X123239837Y-107020194D01*
X123226039Y-107019519D01*
X123155967Y-107030366D01*
X123062290Y-107054419D01*
X122971416Y-107087494D01*
X122884204Y-107129279D01*
X122801485Y-107179375D01*
X122724049Y-107237304D01*
X122652633Y-107302517D01*
X122587918Y-107374388D01*
X122530530Y-107452229D01*
X122481010Y-107535300D01*
X122439835Y-107622803D01*
X122407398Y-107713899D01*
X122384001Y-107807739D01*
X122369873Y-107903406D01*
X122364851Y-108006106D01*
X122364754Y-108007848D01*
X122363392Y-108019985D01*
X122360853Y-108031930D01*
X122357161Y-108043571D01*
X122352350Y-108054796D01*
X122346466Y-108065498D01*
X122339566Y-108075575D01*
X122331717Y-108084929D01*
X122322991Y-108093474D01*
X122313473Y-108101127D01*
X122303254Y-108107814D01*
X122292432Y-108113472D01*
X122281109Y-108118047D01*
X122269394Y-108121495D01*
X122257397Y-108123784D01*
X122245235Y-108124891D01*
X122233022Y-108124805D01*
X122220877Y-108123528D01*
X122208914Y-108121073D01*
X122197247Y-108117462D01*
X122185990Y-108112729D01*
X122175247Y-108106921D01*
X122165123Y-108100092D01*
X122155713Y-108092307D01*
X122147108Y-108083641D01*
X122139389Y-108074178D01*
X122132630Y-108064006D01*
X122126897Y-108053223D01*
X122122243Y-108041932D01*
X122118713Y-108030241D01*
X122116341Y-108018261D01*
X122115150Y-108006107D01*
X122115149Y-107993894D01*
X122120470Y-107885089D01*
X122120567Y-107883347D01*
X122121155Y-107878103D01*
X122121662Y-107872934D01*
X122137576Y-107765168D01*
X122137843Y-107763443D01*
X122138934Y-107758311D01*
X122139948Y-107753188D01*
X122166302Y-107647489D01*
X122166736Y-107645799D01*
X122168324Y-107640793D01*
X122169832Y-107635799D01*
X122206374Y-107533176D01*
X122206970Y-107531536D01*
X122209038Y-107526712D01*
X122211027Y-107521885D01*
X122257409Y-107423318D01*
X122258163Y-107421744D01*
X122260680Y-107417166D01*
X122263143Y-107412533D01*
X122318923Y-107318963D01*
X122319827Y-107317470D01*
X122322784Y-107313151D01*
X122325681Y-107308791D01*
X122390325Y-107221110D01*
X122391371Y-107219712D01*
X122394746Y-107215690D01*
X122398044Y-107211645D01*
X122470936Y-107130691D01*
X122472113Y-107129402D01*
X122475873Y-107125720D01*
X122479541Y-107122026D01*
X122559984Y-107048572D01*
X122561280Y-107047404D01*
X122565400Y-107044092D01*
X122569394Y-107040787D01*
X122656622Y-106975532D01*
X122658026Y-106974496D01*
X122662414Y-106971625D01*
X122666747Y-106968702D01*
X122720944Y-106935879D01*
X122716529Y-106927432D01*
X122711953Y-106916109D01*
X122708506Y-106904393D01*
X122706217Y-106892397D01*
X122705110Y-106880235D01*
X122705195Y-106868022D01*
X122706472Y-106855877D01*
X122708927Y-106843914D01*
X122712539Y-106832247D01*
X122717271Y-106820990D01*
X122723080Y-106810247D01*
X122729909Y-106800122D01*
X122737694Y-106790712D01*
X122746359Y-106782107D01*
X122755823Y-106774388D01*
X122765995Y-106767630D01*
X122776778Y-106761897D01*
X122788069Y-106757243D01*
X122799760Y-106753713D01*
X122811740Y-106751341D01*
X122823894Y-106750150D01*
X122836107Y-106750149D01*
X123212891Y-106768576D01*
X123219327Y-106767580D01*
X123221053Y-106767324D01*
X123226303Y-106766847D01*
X123231473Y-106766303D01*
X123340238Y-106760222D01*
X123341981Y-106760136D01*
X123347257Y-106760173D01*
X123352450Y-106760137D01*
X123461290Y-106764699D01*
X123463033Y-106764784D01*
X123468232Y-106765331D01*
X123473452Y-106765806D01*
X123581327Y-106780967D01*
X123583053Y-106781221D01*
X123588226Y-106782283D01*
X123593323Y-106783255D01*
X123699203Y-106808870D01*
X123700897Y-106809292D01*
X123705911Y-106810844D01*
X123710920Y-106812318D01*
X123813794Y-106848143D01*
X123815438Y-106848728D01*
X123820277Y-106850762D01*
X123825118Y-106852718D01*
X123893199Y-106884176D01*
X124110303Y-106938306D01*
X124111993Y-106938740D01*
X124116988Y-106940324D01*
X124121994Y-106941836D01*
X124369587Y-107030000D01*
X126760000Y-107030000D01*
X126760000Y-106450000D01*
X127260000Y-106450000D01*
X127260000Y-107030000D01*
X129100000Y-107030000D01*
X129100000Y-115370000D01*
X127260000Y-115370000D01*
X127260000Y-115950000D01*
X126760000Y-115950000D01*
X126760000Y-115370000D01*
X124368766Y-115370000D01*
X124181322Y-115439710D01*
X124179682Y-115440307D01*
X124174675Y-115441819D01*
X124169681Y-115443403D01*
X123889421Y-115517450D01*
X123841091Y-115540606D01*
X123839512Y-115541349D01*
X123834651Y-115543313D01*
X123829833Y-115545338D01*
X123727466Y-115582597D01*
X123725822Y-115583182D01*
X123720796Y-115584661D01*
X123715800Y-115586208D01*
X123610288Y-115613299D01*
X123608595Y-115613721D01*
X123603433Y-115614706D01*
X123598325Y-115615755D01*
X123490673Y-115632420D01*
X123488946Y-115632676D01*
X123483704Y-115633153D01*
X123478527Y-115633697D01*
X123369762Y-115639778D01*
X123368019Y-115639864D01*
X123362743Y-115639827D01*
X123357549Y-115639863D01*
X123248710Y-115635301D01*
X123246967Y-115635216D01*
X123241747Y-115634667D01*
X123236548Y-115634194D01*
X123206330Y-115629947D01*
X122898235Y-115649331D01*
X122896492Y-115649429D01*
X122893869Y-115649429D01*
X122891259Y-115649575D01*
X122830874Y-115649997D01*
X122829128Y-115649997D01*
X122816934Y-115649315D01*
X122804866Y-115647447D01*
X122793038Y-115644410D01*
X122781561Y-115640233D01*
X122770548Y-115634956D01*
X122760101Y-115628630D01*
X122750323Y-115621315D01*
X122741304Y-115613080D01*
X122733133Y-115604004D01*
X122725885Y-115594174D01*
X122719632Y-115583685D01*
X122714432Y-115572635D01*
X122710336Y-115561130D01*
X122707381Y-115549280D01*
X122705596Y-115537199D01*
X122705000Y-115525001D01*
X122705597Y-115512803D01*
X122707380Y-115500721D01*
X122710335Y-115488871D01*
X122714431Y-115477367D01*
X122719631Y-115466317D01*
X122720943Y-115464116D01*
X122681213Y-115440806D01*
X122679714Y-115439913D01*
X122675358Y-115436975D01*
X122670994Y-115434119D01*
X122582864Y-115370089D01*
X122581459Y-115369054D01*
X122577412Y-115365706D01*
X122573346Y-115362437D01*
X122491884Y-115290112D01*
X122490587Y-115288944D01*
X122486868Y-115285199D01*
X122483159Y-115281567D01*
X122409144Y-115201638D01*
X122407967Y-115200350D01*
X122404641Y-115196272D01*
X122401294Y-115192283D01*
X122335432Y-115105513D01*
X122334386Y-115104116D01*
X122331467Y-115099722D01*
X122328532Y-115095436D01*
X122271452Y-115002653D01*
X122270548Y-115001160D01*
X122268068Y-114996496D01*
X122265569Y-114991951D01*
X122217819Y-114894050D01*
X122217815Y-114894042D01*
X122217811Y-114894033D01*
X122217061Y-114892468D01*
X122215072Y-114887641D01*
X122213004Y-114882817D01*
X122175032Y-114780714D01*
X122174435Y-114779074D01*
X122172923Y-114774067D01*
X122171339Y-114769073D01*
X122143512Y-114663753D01*
X122143078Y-114662063D01*
X122142058Y-114656910D01*
X122140973Y-114651806D01*
X122123557Y-114544273D01*
X122123290Y-114542548D01*
X122122778Y-114537324D01*
X122122196Y-114532137D01*
X122115356Y-114423417D01*
X122115258Y-114421674D01*
X122115258Y-114419053D01*
X122115112Y-114416443D01*
X122115003Y-114400876D01*
X122115003Y-114399131D01*
X122115684Y-114386936D01*
G37*
%TD.AperFunction*%
D24*
%TO.P,J2,A12*%
X122240000Y-108000000D03*
%TO.P,J2,A4*%
%TO.N,VBUS*%
X122240000Y-113600000D03*
%TO.P,J2,B12*%
%TO.N,GND*%
X122240000Y-114400000D03*
%TO.P,J2,B4*%
%TO.N,VBUS*%
X122240000Y-108800000D03*
D25*
%TO.P,J2,S1*%
%TO.N,GND*%
X127010000Y-106875000D03*
X127010000Y-115525000D03*
D15*
X122830000Y-106875000D03*
X122830000Y-115525000D03*
D26*
%TO.P,J2,A7*%
%TO.N,D-*%
X122240000Y-110950000D03*
%TO.P,J2,A6*%
%TO.N,D+*%
X122240000Y-111450000D03*
%TO.P,J2,B6*%
X122240000Y-110450000D03*
%TO.P,J2,B7*%
%TO.N,D-*%
X122240000Y-111950000D03*
%TO.P,J2,A8*%
%TO.N,Net-(J2-PadA8)*%
X122240000Y-109950000D03*
%TO.P,J2,A5*%
%TO.N,Net-(J2-PadA5)*%
X122240000Y-112450000D03*
%TO.P,J2,B5*%
%TO.N,Net-(J2-PadB5)*%
X122240000Y-109450000D03*
%TO.P,J2,B8*%
%TO.N,Net-(J2-PadB8)*%
X122240000Y-112950000D03*
D24*
%TO.P,J2,A9*%
%TO.N,VBUS*%
X122240000Y-108800000D03*
%TO.P,J2,B9*%
X122240000Y-113600000D03*
%TO.P,J2,B1*%
%TO.N,GND*%
X122240000Y-108000000D03*
D27*
%TO.P,J2,S1*%
X123310000Y-108310000D03*
X123310000Y-114090000D03*
D24*
%TO.P,J2,A1*%
X122240000Y-114400000D03*
%TD*%
D28*
%TO.N,D+*%
X120619989Y-106694998D03*
X120000000Y-112895002D03*
%TO.N,GND*%
X115300000Y-107300000D03*
X114800008Y-118100023D03*
X112624981Y-112002892D03*
%TO.N,D-*%
X116100000Y-110000000D03*
X119871755Y-114246436D03*
%TO.N,+3V3*%
X124656599Y-102625010D03*
%TO.N,IO5*%
X110900000Y-121800000D03*
%TO.N,O*%
X119568405Y-116043086D03*
%TO.N,I*%
X115000000Y-116200000D03*
%TO.N,EN*%
X117507039Y-116549978D03*
%TO.N,Net-(J2-PadA5)*%
X120567316Y-115996171D03*
X120125010Y-103800000D03*
%TO.N,LED*%
X125780033Y-106074970D03*
%TO.N,BOOT*%
X113102066Y-117311725D03*
%TD*%
D29*
%TO.N,D+*%
X120619989Y-109649989D02*
X120619989Y-106694998D01*
X122240000Y-110450000D02*
X121420000Y-110450000D01*
X121420000Y-110450000D02*
X120619989Y-109649989D01*
X122240000Y-111450000D02*
X120111032Y-111450000D01*
X120111032Y-112783970D02*
X120000000Y-112895002D01*
X120111032Y-111450000D02*
X120111032Y-112783970D01*
X119136022Y-110474990D02*
X120111032Y-111450000D01*
X116876988Y-110474990D02*
X119136022Y-110474990D01*
X116600000Y-110751978D02*
X116876988Y-110474990D01*
X116600000Y-111400000D02*
X116600000Y-110751978D01*
%TO.N,GND*%
X125424990Y-126824990D02*
X126600000Y-128000000D01*
X121969990Y-119730010D02*
X121969990Y-126163120D01*
X122150000Y-119550000D02*
X121969990Y-119730010D01*
X116949999Y-126143129D02*
X117631860Y-126824990D01*
X122724990Y-126824990D02*
X125424990Y-126824990D01*
X121969990Y-126819970D02*
X121975010Y-126824990D01*
X121969990Y-126163120D02*
X121969990Y-126819970D01*
X121975010Y-126824990D02*
X122724990Y-126824990D01*
X119375001Y-126675001D02*
X119524990Y-126824990D01*
X119375001Y-117724999D02*
X119375001Y-126675001D01*
X117631860Y-126824990D02*
X119524990Y-126824990D01*
X119524990Y-126824990D02*
X121975010Y-126824990D01*
X122925000Y-106780000D02*
X122830000Y-106875000D01*
X122925000Y-105100000D02*
X122925000Y-106780000D01*
D30*
X115320000Y-107320000D02*
X115300000Y-107300000D01*
X116512500Y-107320000D02*
X115320000Y-107320000D01*
D29*
X127600000Y-120200000D02*
X127600000Y-122800000D01*
X127500000Y-122900000D02*
X125745000Y-122900000D01*
X127600000Y-122800000D02*
X127500000Y-122900000D01*
X119375001Y-117724999D02*
X119900002Y-118250000D01*
X119900002Y-118250000D02*
X120250000Y-118250000D01*
X116200000Y-118250000D02*
X114949985Y-118250000D01*
X114949985Y-118250000D02*
X114800008Y-118100023D01*
X116200000Y-118250000D02*
X116989998Y-118250000D01*
X116989998Y-118250000D02*
X117514999Y-117724999D01*
X117514999Y-117724999D02*
X119375001Y-117724999D01*
X118100000Y-119550000D02*
X118100000Y-121100000D01*
X118100000Y-121100000D02*
X117800000Y-121400000D01*
X117800000Y-121400000D02*
X117300000Y-121400000D01*
X117300000Y-121400000D02*
X116949999Y-121750001D01*
X116949999Y-121750001D02*
X116949999Y-126143129D01*
X112624981Y-114975019D02*
X112624981Y-112002892D01*
X111025000Y-116575000D02*
X112624981Y-114975019D01*
X111025000Y-118350000D02*
X111025000Y-116575000D01*
X122925000Y-103900000D02*
X122925000Y-102625000D01*
X122925000Y-102625000D02*
X122850000Y-102700000D01*
X122850000Y-102700000D02*
X119600000Y-102700000D01*
X119600000Y-102700000D02*
X119400000Y-102900000D01*
X119400000Y-102900000D02*
X119400000Y-105700000D01*
X117600000Y-111400000D02*
X117600000Y-112300000D01*
X117600000Y-112300000D02*
X116600000Y-113300000D01*
X118500000Y-112300000D02*
X117600000Y-112300000D01*
X117100000Y-112800000D02*
X116600000Y-113300000D01*
X118500000Y-112800000D02*
X117100000Y-112800000D01*
X118500000Y-113300000D02*
X116600000Y-113300000D01*
X117100000Y-113800000D02*
X116600000Y-113300000D01*
X118500000Y-113800000D02*
X117100000Y-113800000D01*
X114700000Y-113300000D02*
X116600000Y-113300000D01*
%TO.N,D-*%
X116124979Y-110024979D02*
X116100000Y-110000000D01*
X119580391Y-110024979D02*
X116124979Y-110024979D01*
X120505412Y-110950000D02*
X119580391Y-110024979D01*
X122240000Y-110950000D02*
X120505412Y-110950000D01*
X116100000Y-111400000D02*
X116100000Y-110000000D01*
X120725002Y-113243004D02*
X119871755Y-114096251D01*
X120725002Y-112523585D02*
X120725002Y-113243004D01*
X121298587Y-111950000D02*
X120725002Y-112523585D01*
X119871755Y-114096251D02*
X119871755Y-114246436D01*
X122240000Y-111950000D02*
X121298587Y-111950000D01*
%TO.N,+3V3*%
X116200000Y-118900000D02*
X118100000Y-118900000D01*
X115670000Y-128212500D02*
X118170000Y-128212500D01*
X118170000Y-128212500D02*
X120670000Y-128212500D01*
X120670000Y-128212500D02*
X123170000Y-128212500D01*
X112575000Y-118350000D02*
X113125000Y-118900000D01*
X113125000Y-118900000D02*
X114900000Y-118900000D01*
X121200000Y-118900000D02*
X122150000Y-118900000D01*
X120250000Y-118900000D02*
X121200000Y-118900000D01*
X115670000Y-128212500D02*
X114400000Y-126942500D01*
X114900000Y-121013334D02*
X114900000Y-118900000D01*
X114400000Y-121513334D02*
X114900000Y-121013334D01*
X114400000Y-126942500D02*
X114400000Y-121513334D01*
X125925000Y-102200000D02*
X125081609Y-102200000D01*
X123879827Y-101848238D02*
X124656599Y-102625010D01*
X125081609Y-102200000D02*
X124656599Y-102625010D01*
X118150000Y-104950000D02*
X118150000Y-102700000D01*
X119001762Y-101848238D02*
X123879827Y-101848238D01*
X118150000Y-102700000D02*
X119001762Y-101848238D01*
X121200000Y-118089998D02*
X121200000Y-118900000D01*
X120835001Y-117724999D02*
X121200000Y-118089998D01*
X119857510Y-117274988D02*
X120307521Y-117724999D01*
X120307521Y-117724999D02*
X120835001Y-117724999D01*
X118674988Y-117274988D02*
X119857510Y-117274988D01*
X114526996Y-118900000D02*
X114074998Y-118448002D01*
X114074998Y-118448002D02*
X114074998Y-117765613D01*
X114465598Y-117375013D02*
X117228574Y-117375013D01*
X114074998Y-117765613D02*
X114465598Y-117375013D01*
X117228574Y-117375013D02*
X117328599Y-117274988D01*
X117328599Y-117274988D02*
X118674988Y-117274988D01*
X118600000Y-117200000D02*
X118674988Y-117274988D01*
X118600000Y-116300000D02*
X118600000Y-117200000D01*
X113125000Y-118900000D02*
X116200000Y-118900000D01*
X115600000Y-111400000D02*
X114700000Y-112300000D01*
X117600000Y-115200000D02*
X117600000Y-115700000D01*
X118124977Y-115824977D02*
X118600000Y-116300000D01*
X117724977Y-115824977D02*
X118124977Y-115824977D01*
X117600000Y-115700000D02*
X117724977Y-115824977D01*
X114051978Y-112800000D02*
X114700000Y-112800000D01*
X113800000Y-109600000D02*
X113800000Y-112000000D01*
X114100000Y-112300000D02*
X114700000Y-112300000D01*
X114125002Y-109274998D02*
X113800000Y-109600000D01*
X116448002Y-109274998D02*
X114125002Y-109274998D01*
X116689186Y-109516182D02*
X116448002Y-109274998D01*
X113800000Y-112000000D02*
X114100000Y-112300000D01*
X118822008Y-109516182D02*
X116689186Y-109516182D01*
X119200010Y-109138180D02*
X118822008Y-109516182D01*
X119200010Y-107800010D02*
X119200010Y-109138180D01*
X118150000Y-106750000D02*
X119200010Y-107800010D01*
X114100000Y-112751978D02*
X114051978Y-112800000D01*
X114100000Y-112300000D02*
X114100000Y-112751978D01*
X112575000Y-118350000D02*
X112377065Y-118152065D01*
X112377065Y-118152065D02*
X112377065Y-116963724D01*
X113800002Y-115936409D02*
X113800002Y-113051976D01*
X112377065Y-116963724D02*
X112754065Y-116586724D01*
X112754065Y-116586724D02*
X113149687Y-116586724D01*
X113149687Y-116586724D02*
X113800002Y-115936409D01*
X113800002Y-113051976D02*
X114051978Y-112800000D01*
%TO.N,VBUS*%
X122895002Y-113600000D02*
X122240000Y-113600000D01*
X123135001Y-109039999D02*
X123135001Y-113360001D01*
X122895002Y-108800000D02*
X123135001Y-109039999D01*
X123135001Y-113360001D02*
X122895002Y-113600000D01*
X122240000Y-108800000D02*
X122895002Y-108800000D01*
X121344999Y-116001001D02*
X122193999Y-116850001D01*
X126087490Y-116599990D02*
X127287500Y-117800000D01*
X123361809Y-116850001D02*
X123611820Y-116599990D01*
X122193999Y-116850001D02*
X123361809Y-116850001D01*
X122240000Y-113600000D02*
X121640827Y-113600000D01*
X121640827Y-113600000D02*
X121344999Y-113895828D01*
X121344999Y-113895828D02*
X121344999Y-116001001D01*
X123611820Y-116599990D02*
X126087490Y-116599990D01*
%TO.N,IO5*%
X110900000Y-120887500D02*
X111587500Y-120200000D01*
X110900000Y-121800000D02*
X110900000Y-120887500D01*
%TO.N,IO4*%
X116200000Y-122285000D02*
X115585000Y-122900000D01*
X116200000Y-119550000D02*
X116200000Y-122285000D01*
X115585000Y-125202500D02*
X115670000Y-125287500D01*
X115585000Y-122900000D02*
X115585000Y-125202500D01*
%TO.N,IO3*%
X118125000Y-125792500D02*
X118170000Y-125837500D01*
X118125000Y-122900000D02*
X118125000Y-125792500D01*
X118100000Y-118250000D02*
X118675000Y-118250000D01*
X118675000Y-118250000D02*
X118924990Y-118499990D01*
X118924990Y-118499990D02*
X118924990Y-122100010D01*
X118924990Y-122100010D02*
X118125000Y-122900000D01*
%TO.N,IO2*%
X120250000Y-122485000D02*
X120665000Y-122900000D01*
X120250000Y-119550000D02*
X120250000Y-122485000D01*
X120665000Y-125832500D02*
X120670000Y-125837500D01*
X120665000Y-122900000D02*
X120665000Y-125832500D01*
%TO.N,IO1*%
X122725000Y-118250000D02*
X123205000Y-118730000D01*
X122150000Y-118250000D02*
X122725000Y-118250000D01*
X123210000Y-120200000D02*
X123205000Y-120195000D01*
X124675000Y-120200000D02*
X123210000Y-120200000D01*
X123205000Y-120195000D02*
X123205000Y-122900000D01*
X123205000Y-118730000D02*
X123205000Y-120195000D01*
X123205000Y-125802500D02*
X123170000Y-125837500D01*
X123205000Y-122900000D02*
X123205000Y-125802500D01*
%TO.N,O*%
X119568405Y-115268405D02*
X119568405Y-116043086D01*
X118500000Y-114300000D02*
X118900000Y-114300000D01*
X119568405Y-114968405D02*
X119568405Y-115268405D01*
X118900000Y-114300000D02*
X119568405Y-114968405D01*
%TO.N,I*%
X115748022Y-116200000D02*
X115000000Y-116200000D01*
X116100000Y-115848022D02*
X115748022Y-116200000D01*
X116100000Y-115200000D02*
X116100000Y-115848022D01*
%TO.N,EN*%
X117100000Y-116142939D02*
X117507039Y-116549978D01*
X117100000Y-115200000D02*
X117100000Y-116142939D01*
%TO.N,Net-(J2-PadA5)*%
X121275000Y-103900000D02*
X120225010Y-103900000D01*
X120225010Y-103900000D02*
X120125010Y-103800000D01*
X121434998Y-112450000D02*
X121175013Y-112709985D01*
X121175013Y-112709985D02*
X121175013Y-113429404D01*
X122240000Y-112450000D02*
X121434998Y-112450000D01*
X121175013Y-113429404D02*
X120596757Y-114007660D01*
X120596757Y-114007660D02*
X120596757Y-115966730D01*
X120596757Y-115966730D02*
X120567316Y-115996171D01*
%TO.N,Net-(J2-PadB5)*%
X121344999Y-105169999D02*
X121275000Y-105100000D01*
X121344999Y-109374999D02*
X121344999Y-105169999D01*
X121420000Y-109450000D02*
X121344999Y-109374999D01*
X122240000Y-109450000D02*
X121420000Y-109450000D01*
%TO.N,Net-(J1-Pad6)*%
X113045000Y-124642500D02*
X112400000Y-125287500D01*
X113045000Y-122900000D02*
X113045000Y-124642500D01*
X113045000Y-121117500D02*
X113045000Y-122900000D01*
X113962500Y-120200000D02*
X113045000Y-121117500D01*
%TO.N,Net-(D5-Pad1)*%
X127675000Y-103550000D02*
X127725000Y-103600000D01*
X127675000Y-102200000D02*
X127675000Y-103550000D01*
%TO.N,+12V*%
X125185787Y-125460000D02*
X126600000Y-125460000D01*
X124569999Y-124844212D02*
X125185787Y-125460000D01*
X124634999Y-121724999D02*
X124569999Y-121789999D01*
X124569999Y-121789999D02*
X124569999Y-124844212D01*
X125225631Y-121724999D02*
X124634999Y-121724999D01*
X126062510Y-118837510D02*
X126062510Y-120888120D01*
X126062510Y-120888120D02*
X125225631Y-121724999D01*
X125025000Y-117800000D02*
X126062510Y-118837510D01*
X124312500Y-117800000D02*
X125025000Y-117800000D01*
X127860001Y-129325001D02*
X113512501Y-129325001D01*
X113512501Y-129325001D02*
X112400000Y-128212500D01*
X127925001Y-129260001D02*
X127860001Y-129325001D01*
X127925001Y-126785001D02*
X127925001Y-129260001D01*
X126600000Y-125460000D02*
X127925001Y-126785001D01*
X111800000Y-105500000D02*
X112750000Y-105500000D01*
X111800000Y-116904378D02*
X112567665Y-116136714D01*
X112400000Y-128212500D02*
X111199990Y-127012490D01*
X111800000Y-118886870D02*
X111800000Y-116904378D01*
X112425010Y-121798022D02*
X112425010Y-119511880D01*
X111199990Y-123023042D02*
X112425010Y-121798022D01*
X112425010Y-119511880D02*
X111800000Y-118886870D01*
X111199990Y-127012490D02*
X111199990Y-123023042D01*
X110974990Y-109475010D02*
X113224990Y-109475010D01*
X110849990Y-109350010D02*
X110974990Y-109475010D01*
X110849990Y-107540010D02*
X110849990Y-109350010D01*
X113224990Y-109475010D02*
X113349991Y-109600011D01*
X113349991Y-109600011D02*
X113349991Y-115750009D01*
X111690000Y-106700000D02*
X110849990Y-107540010D01*
X112963286Y-116136714D02*
X113349991Y-115750009D01*
X112567665Y-116136714D02*
X112963286Y-116136714D01*
%TO.N,LED*%
X126075000Y-103600000D02*
X126075000Y-105780003D01*
X126075000Y-105780003D02*
X125780033Y-106074970D01*
%TO.N,BOOT*%
X116600000Y-115984433D02*
X115659431Y-116925002D01*
X115659431Y-116925002D02*
X114054474Y-116925002D01*
X114054474Y-116925002D02*
X113667751Y-117311725D01*
X113667751Y-117311725D02*
X113102066Y-117311725D01*
X116600000Y-115200000D02*
X116600000Y-115984433D01*
%TD*%
D31*
%TO.N,GND*%
X127727000Y-121551250D02*
X127885750Y-121710000D01*
X128162500Y-121713072D01*
X128286982Y-121700812D01*
X128406680Y-121664502D01*
X128473000Y-121629053D01*
X128473000Y-128979117D01*
X128460078Y-129110899D01*
X128427873Y-129217570D01*
X128427001Y-129219210D01*
X128427001Y-126809643D01*
X128429428Y-126785000D01*
X128427001Y-126760357D01*
X128427001Y-126760348D01*
X128419737Y-126686592D01*
X128391032Y-126591965D01*
X128344418Y-126504756D01*
X128281685Y-126428317D01*
X128262539Y-126412604D01*
X127861845Y-126011911D01*
X127924083Y-125861656D01*
X127977000Y-125595623D01*
X127977000Y-125324377D01*
X127924083Y-125058344D01*
X127820282Y-124807746D01*
X127669586Y-124582213D01*
X127477787Y-124390414D01*
X127252254Y-124239718D01*
X127074863Y-124166240D01*
X127125537Y-124104494D01*
X127184502Y-123994180D01*
X127220812Y-123874482D01*
X127233072Y-123750000D01*
X127230000Y-123185750D01*
X127071250Y-123027000D01*
X125872000Y-123027000D01*
X125872000Y-123047000D01*
X125618000Y-123047000D01*
X125618000Y-123027000D01*
X125598000Y-123027000D01*
X125598000Y-122773000D01*
X125618000Y-122773000D01*
X125618000Y-122753000D01*
X125872000Y-122753000D01*
X125872000Y-122773000D01*
X127071250Y-122773000D01*
X127230000Y-122614250D01*
X127233072Y-122050000D01*
X127220812Y-121925518D01*
X127184502Y-121805820D01*
X127134352Y-121711997D01*
X127314250Y-121710000D01*
X127473000Y-121551250D01*
X127473000Y-121536859D01*
X127562500Y-121538072D01*
X127686982Y-121525812D01*
X127727000Y-121513673D01*
X127727000Y-121551250D01*
%TA.AperFunction,Conductor*%
D32*
G36*
X127727000Y-121551250D02*
G01*
X127885750Y-121710000D01*
X128162500Y-121713072D01*
X128286982Y-121700812D01*
X128406680Y-121664502D01*
X128473000Y-121629053D01*
X128473000Y-128979117D01*
X128460078Y-129110899D01*
X128427873Y-129217570D01*
X128427001Y-129219210D01*
X128427001Y-126809643D01*
X128429428Y-126785000D01*
X128427001Y-126760357D01*
X128427001Y-126760348D01*
X128419737Y-126686592D01*
X128391032Y-126591965D01*
X128344418Y-126504756D01*
X128281685Y-126428317D01*
X128262539Y-126412604D01*
X127861845Y-126011911D01*
X127924083Y-125861656D01*
X127977000Y-125595623D01*
X127977000Y-125324377D01*
X127924083Y-125058344D01*
X127820282Y-124807746D01*
X127669586Y-124582213D01*
X127477787Y-124390414D01*
X127252254Y-124239718D01*
X127074863Y-124166240D01*
X127125537Y-124104494D01*
X127184502Y-123994180D01*
X127220812Y-123874482D01*
X127233072Y-123750000D01*
X127230000Y-123185750D01*
X127071250Y-123027000D01*
X125872000Y-123027000D01*
X125872000Y-123047000D01*
X125618000Y-123047000D01*
X125618000Y-123027000D01*
X125598000Y-123027000D01*
X125598000Y-122773000D01*
X125618000Y-122773000D01*
X125618000Y-122753000D01*
X125872000Y-122753000D01*
X125872000Y-122773000D01*
X127071250Y-122773000D01*
X127230000Y-122614250D01*
X127233072Y-122050000D01*
X127220812Y-121925518D01*
X127184502Y-121805820D01*
X127134352Y-121711997D01*
X127314250Y-121710000D01*
X127473000Y-121551250D01*
X127473000Y-121536859D01*
X127562500Y-121538072D01*
X127686982Y-121525812D01*
X127727000Y-121513673D01*
X127727000Y-121551250D01*
G37*
%TD.AperFunction*%
D31*
X124813394Y-125797543D02*
X124829103Y-125816684D01*
X124848243Y-125832392D01*
X124848251Y-125832400D01*
X124905541Y-125879417D01*
X124927042Y-125890909D01*
X124992751Y-125926031D01*
X125087378Y-125954736D01*
X125161134Y-125962000D01*
X125161144Y-125962000D01*
X125185787Y-125964427D01*
X125210430Y-125962000D01*
X125317481Y-125962000D01*
X125379718Y-126112254D01*
X125530414Y-126337787D01*
X125558630Y-126366003D01*
X125475518Y-126374188D01*
X125355820Y-126410498D01*
X125245506Y-126469463D01*
X125148815Y-126548815D01*
X125069463Y-126645506D01*
X125010498Y-126755820D01*
X124974188Y-126875518D01*
X124961928Y-127000000D01*
X124965000Y-127714250D01*
X125123750Y-127873000D01*
X126473000Y-127873000D01*
X126473000Y-127853000D01*
X126727000Y-127853000D01*
X126727000Y-127873000D01*
X126747000Y-127873000D01*
X126747000Y-128127000D01*
X126727000Y-128127000D01*
X126727000Y-128147000D01*
X126473000Y-128147000D01*
X126473000Y-128127000D01*
X125123750Y-128127000D01*
X124965000Y-128285750D01*
X124962689Y-128823001D01*
X124345399Y-128823001D01*
X124375977Y-128765795D01*
X124411746Y-128647879D01*
X124423824Y-128525250D01*
X124423824Y-127899750D01*
X124411746Y-127777121D01*
X124375977Y-127659205D01*
X124317890Y-127550533D01*
X124248824Y-127466376D01*
X124248824Y-127400100D01*
X124236739Y-127277403D01*
X124200950Y-127159421D01*
X124142831Y-127050689D01*
X124064616Y-126955384D01*
X123969311Y-126877169D01*
X123860579Y-126819050D01*
X123742597Y-126783261D01*
X123619900Y-126771176D01*
X122720100Y-126771176D01*
X122597403Y-126783261D01*
X122479421Y-126819050D01*
X122370689Y-126877169D01*
X122275384Y-126955384D01*
X122197169Y-127050689D01*
X122139050Y-127159421D01*
X122103261Y-127277403D01*
X122091176Y-127400100D01*
X122091176Y-127466376D01*
X122022110Y-127550533D01*
X121964023Y-127659205D01*
X121948463Y-127710500D01*
X121891537Y-127710500D01*
X121875977Y-127659205D01*
X121817890Y-127550533D01*
X121748824Y-127466376D01*
X121748824Y-127400100D01*
X121736739Y-127277403D01*
X121700950Y-127159421D01*
X121642831Y-127050689D01*
X121564616Y-126955384D01*
X121469311Y-126877169D01*
X121360579Y-126819050D01*
X121242597Y-126783261D01*
X121119900Y-126771176D01*
X120220100Y-126771176D01*
X120097403Y-126783261D01*
X119979421Y-126819050D01*
X119870689Y-126877169D01*
X119775384Y-126955384D01*
X119697169Y-127050689D01*
X119639050Y-127159421D01*
X119603261Y-127277403D01*
X119591176Y-127400100D01*
X119591176Y-127466376D01*
X119522110Y-127550533D01*
X119464023Y-127659205D01*
X119448463Y-127710500D01*
X119391537Y-127710500D01*
X119375977Y-127659205D01*
X119317890Y-127550533D01*
X119248824Y-127466376D01*
X119248824Y-127400100D01*
X119236739Y-127277403D01*
X119200950Y-127159421D01*
X119142831Y-127050689D01*
X119064616Y-126955384D01*
X118969311Y-126877169D01*
X118860579Y-126819050D01*
X118742597Y-126783261D01*
X118619900Y-126771176D01*
X117720100Y-126771176D01*
X117597403Y-126783261D01*
X117479421Y-126819050D01*
X117370689Y-126877169D01*
X117275384Y-126955384D01*
X117197169Y-127050689D01*
X117139050Y-127159421D01*
X117103261Y-127277403D01*
X117091176Y-127400100D01*
X117091176Y-127466376D01*
X117022110Y-127550533D01*
X116964023Y-127659205D01*
X116948463Y-127710500D01*
X116891537Y-127710500D01*
X116875977Y-127659205D01*
X116817890Y-127550533D01*
X116748824Y-127466376D01*
X116748824Y-127400100D01*
X116736739Y-127277403D01*
X116700950Y-127159421D01*
X116642831Y-127050689D01*
X116564616Y-126955384D01*
X116469311Y-126877169D01*
X116360579Y-126819050D01*
X116242597Y-126783261D01*
X116119900Y-126771176D01*
X115220100Y-126771176D01*
X115097403Y-126783261D01*
X114984840Y-126817406D01*
X114902000Y-126734566D01*
X114902000Y-126639567D01*
X114979421Y-126680950D01*
X115097403Y-126716739D01*
X115220100Y-126728824D01*
X116119900Y-126728824D01*
X116242597Y-126716739D01*
X116360579Y-126680950D01*
X116469311Y-126622831D01*
X116564616Y-126544616D01*
X116642831Y-126449311D01*
X116700950Y-126340579D01*
X116736739Y-126222597D01*
X116748824Y-126099900D01*
X116748824Y-126033624D01*
X116817890Y-125949467D01*
X116875977Y-125840795D01*
X116911746Y-125722879D01*
X116920000Y-125639075D01*
X116928254Y-125722879D01*
X116964023Y-125840795D01*
X117022110Y-125949467D01*
X117091176Y-126033624D01*
X117091176Y-126099900D01*
X117103261Y-126222597D01*
X117139050Y-126340579D01*
X117197169Y-126449311D01*
X117275384Y-126544616D01*
X117370689Y-126622831D01*
X117479421Y-126680950D01*
X117597403Y-126716739D01*
X117720100Y-126728824D01*
X118619900Y-126728824D01*
X118742597Y-126716739D01*
X118860579Y-126680950D01*
X118969311Y-126622831D01*
X119064616Y-126544616D01*
X119142831Y-126449311D01*
X119200950Y-126340579D01*
X119236739Y-126222597D01*
X119248824Y-126099900D01*
X119248824Y-126033624D01*
X119317890Y-125949467D01*
X119375977Y-125840795D01*
X119411746Y-125722879D01*
X119420000Y-125639075D01*
X119428254Y-125722879D01*
X119464023Y-125840795D01*
X119522110Y-125949467D01*
X119591176Y-126033624D01*
X119591176Y-126099900D01*
X119603261Y-126222597D01*
X119639050Y-126340579D01*
X119697169Y-126449311D01*
X119775384Y-126544616D01*
X119870689Y-126622831D01*
X119979421Y-126680950D01*
X120097403Y-126716739D01*
X120220100Y-126728824D01*
X121119900Y-126728824D01*
X121242597Y-126716739D01*
X121360579Y-126680950D01*
X121469311Y-126622831D01*
X121564616Y-126544616D01*
X121642831Y-126449311D01*
X121700950Y-126340579D01*
X121736739Y-126222597D01*
X121748824Y-126099900D01*
X121748824Y-126033624D01*
X121817890Y-125949467D01*
X121875977Y-125840795D01*
X121911746Y-125722879D01*
X121920000Y-125639075D01*
X121928254Y-125722879D01*
X121964023Y-125840795D01*
X122022110Y-125949467D01*
X122091176Y-126033624D01*
X122091176Y-126099900D01*
X122103261Y-126222597D01*
X122139050Y-126340579D01*
X122197169Y-126449311D01*
X122275384Y-126544616D01*
X122370689Y-126622831D01*
X122479421Y-126680950D01*
X122597403Y-126716739D01*
X122720100Y-126728824D01*
X123619900Y-126728824D01*
X123742597Y-126716739D01*
X123860579Y-126680950D01*
X123969311Y-126622831D01*
X124064616Y-126544616D01*
X124142831Y-126449311D01*
X124200950Y-126340579D01*
X124236739Y-126222597D01*
X124248824Y-126099900D01*
X124248824Y-126033624D01*
X124317890Y-125949467D01*
X124375977Y-125840795D01*
X124411746Y-125722879D01*
X124423824Y-125600250D01*
X124423824Y-125407972D01*
X124813394Y-125797543D01*
%TA.AperFunction,Conductor*%
D32*
G36*
X124813394Y-125797543D02*
G01*
X124829103Y-125816684D01*
X124848243Y-125832392D01*
X124848251Y-125832400D01*
X124905541Y-125879417D01*
X124927042Y-125890909D01*
X124992751Y-125926031D01*
X125087378Y-125954736D01*
X125161134Y-125962000D01*
X125161144Y-125962000D01*
X125185787Y-125964427D01*
X125210430Y-125962000D01*
X125317481Y-125962000D01*
X125379718Y-126112254D01*
X125530414Y-126337787D01*
X125558630Y-126366003D01*
X125475518Y-126374188D01*
X125355820Y-126410498D01*
X125245506Y-126469463D01*
X125148815Y-126548815D01*
X125069463Y-126645506D01*
X125010498Y-126755820D01*
X124974188Y-126875518D01*
X124961928Y-127000000D01*
X124965000Y-127714250D01*
X125123750Y-127873000D01*
X126473000Y-127873000D01*
X126473000Y-127853000D01*
X126727000Y-127853000D01*
X126727000Y-127873000D01*
X126747000Y-127873000D01*
X126747000Y-128127000D01*
X126727000Y-128127000D01*
X126727000Y-128147000D01*
X126473000Y-128147000D01*
X126473000Y-128127000D01*
X125123750Y-128127000D01*
X124965000Y-128285750D01*
X124962689Y-128823001D01*
X124345399Y-128823001D01*
X124375977Y-128765795D01*
X124411746Y-128647879D01*
X124423824Y-128525250D01*
X124423824Y-127899750D01*
X124411746Y-127777121D01*
X124375977Y-127659205D01*
X124317890Y-127550533D01*
X124248824Y-127466376D01*
X124248824Y-127400100D01*
X124236739Y-127277403D01*
X124200950Y-127159421D01*
X124142831Y-127050689D01*
X124064616Y-126955384D01*
X123969311Y-126877169D01*
X123860579Y-126819050D01*
X123742597Y-126783261D01*
X123619900Y-126771176D01*
X122720100Y-126771176D01*
X122597403Y-126783261D01*
X122479421Y-126819050D01*
X122370689Y-126877169D01*
X122275384Y-126955384D01*
X122197169Y-127050689D01*
X122139050Y-127159421D01*
X122103261Y-127277403D01*
X122091176Y-127400100D01*
X122091176Y-127466376D01*
X122022110Y-127550533D01*
X121964023Y-127659205D01*
X121948463Y-127710500D01*
X121891537Y-127710500D01*
X121875977Y-127659205D01*
X121817890Y-127550533D01*
X121748824Y-127466376D01*
X121748824Y-127400100D01*
X121736739Y-127277403D01*
X121700950Y-127159421D01*
X121642831Y-127050689D01*
X121564616Y-126955384D01*
X121469311Y-126877169D01*
X121360579Y-126819050D01*
X121242597Y-126783261D01*
X121119900Y-126771176D01*
X120220100Y-126771176D01*
X120097403Y-126783261D01*
X119979421Y-126819050D01*
X119870689Y-126877169D01*
X119775384Y-126955384D01*
X119697169Y-127050689D01*
X119639050Y-127159421D01*
X119603261Y-127277403D01*
X119591176Y-127400100D01*
X119591176Y-127466376D01*
X119522110Y-127550533D01*
X119464023Y-127659205D01*
X119448463Y-127710500D01*
X119391537Y-127710500D01*
X119375977Y-127659205D01*
X119317890Y-127550533D01*
X119248824Y-127466376D01*
X119248824Y-127400100D01*
X119236739Y-127277403D01*
X119200950Y-127159421D01*
X119142831Y-127050689D01*
X119064616Y-126955384D01*
X118969311Y-126877169D01*
X118860579Y-126819050D01*
X118742597Y-126783261D01*
X118619900Y-126771176D01*
X117720100Y-126771176D01*
X117597403Y-126783261D01*
X117479421Y-126819050D01*
X117370689Y-126877169D01*
X117275384Y-126955384D01*
X117197169Y-127050689D01*
X117139050Y-127159421D01*
X117103261Y-127277403D01*
X117091176Y-127400100D01*
X117091176Y-127466376D01*
X117022110Y-127550533D01*
X116964023Y-127659205D01*
X116948463Y-127710500D01*
X116891537Y-127710500D01*
X116875977Y-127659205D01*
X116817890Y-127550533D01*
X116748824Y-127466376D01*
X116748824Y-127400100D01*
X116736739Y-127277403D01*
X116700950Y-127159421D01*
X116642831Y-127050689D01*
X116564616Y-126955384D01*
X116469311Y-126877169D01*
X116360579Y-126819050D01*
X116242597Y-126783261D01*
X116119900Y-126771176D01*
X115220100Y-126771176D01*
X115097403Y-126783261D01*
X114984840Y-126817406D01*
X114902000Y-126734566D01*
X114902000Y-126639567D01*
X114979421Y-126680950D01*
X115097403Y-126716739D01*
X115220100Y-126728824D01*
X116119900Y-126728824D01*
X116242597Y-126716739D01*
X116360579Y-126680950D01*
X116469311Y-126622831D01*
X116564616Y-126544616D01*
X116642831Y-126449311D01*
X116700950Y-126340579D01*
X116736739Y-126222597D01*
X116748824Y-126099900D01*
X116748824Y-126033624D01*
X116817890Y-125949467D01*
X116875977Y-125840795D01*
X116911746Y-125722879D01*
X116920000Y-125639075D01*
X116928254Y-125722879D01*
X116964023Y-125840795D01*
X117022110Y-125949467D01*
X117091176Y-126033624D01*
X117091176Y-126099900D01*
X117103261Y-126222597D01*
X117139050Y-126340579D01*
X117197169Y-126449311D01*
X117275384Y-126544616D01*
X117370689Y-126622831D01*
X117479421Y-126680950D01*
X117597403Y-126716739D01*
X117720100Y-126728824D01*
X118619900Y-126728824D01*
X118742597Y-126716739D01*
X118860579Y-126680950D01*
X118969311Y-126622831D01*
X119064616Y-126544616D01*
X119142831Y-126449311D01*
X119200950Y-126340579D01*
X119236739Y-126222597D01*
X119248824Y-126099900D01*
X119248824Y-126033624D01*
X119317890Y-125949467D01*
X119375977Y-125840795D01*
X119411746Y-125722879D01*
X119420000Y-125639075D01*
X119428254Y-125722879D01*
X119464023Y-125840795D01*
X119522110Y-125949467D01*
X119591176Y-126033624D01*
X119591176Y-126099900D01*
X119603261Y-126222597D01*
X119639050Y-126340579D01*
X119697169Y-126449311D01*
X119775384Y-126544616D01*
X119870689Y-126622831D01*
X119979421Y-126680950D01*
X120097403Y-126716739D01*
X120220100Y-126728824D01*
X121119900Y-126728824D01*
X121242597Y-126716739D01*
X121360579Y-126680950D01*
X121469311Y-126622831D01*
X121564616Y-126544616D01*
X121642831Y-126449311D01*
X121700950Y-126340579D01*
X121736739Y-126222597D01*
X121748824Y-126099900D01*
X121748824Y-126033624D01*
X121817890Y-125949467D01*
X121875977Y-125840795D01*
X121911746Y-125722879D01*
X121920000Y-125639075D01*
X121928254Y-125722879D01*
X121964023Y-125840795D01*
X122022110Y-125949467D01*
X122091176Y-126033624D01*
X122091176Y-126099900D01*
X122103261Y-126222597D01*
X122139050Y-126340579D01*
X122197169Y-126449311D01*
X122275384Y-126544616D01*
X122370689Y-126622831D01*
X122479421Y-126680950D01*
X122597403Y-126716739D01*
X122720100Y-126728824D01*
X123619900Y-126728824D01*
X123742597Y-126716739D01*
X123860579Y-126680950D01*
X123969311Y-126622831D01*
X124064616Y-126544616D01*
X124142831Y-126449311D01*
X124200950Y-126340579D01*
X124236739Y-126222597D01*
X124248824Y-126099900D01*
X124248824Y-126033624D01*
X124317890Y-125949467D01*
X124375977Y-125840795D01*
X124411746Y-125722879D01*
X124423824Y-125600250D01*
X124423824Y-125407972D01*
X124813394Y-125797543D01*
G37*
%TD.AperFunction*%
D31*
X121200000Y-119404428D02*
X121224653Y-119402000D01*
X121273750Y-119402000D01*
X121348750Y-119477000D01*
X121806481Y-119477000D01*
X121825000Y-119478824D01*
X122297000Y-119478824D01*
X122297000Y-119623000D01*
X122277000Y-119623000D01*
X122277000Y-120226250D01*
X122435750Y-120385000D01*
X122459239Y-120387877D01*
X122583986Y-120378695D01*
X122703000Y-120345780D01*
X122703001Y-121779840D01*
X122623798Y-121812647D01*
X122422833Y-121946927D01*
X122251927Y-122117833D01*
X122117647Y-122318798D01*
X122025153Y-122542097D01*
X121978000Y-122779151D01*
X121978000Y-123020849D01*
X122025153Y-123257903D01*
X122117647Y-123481202D01*
X122251927Y-123682167D01*
X122422833Y-123853073D01*
X122623798Y-123987353D01*
X122703000Y-124020160D01*
X122703000Y-124346176D01*
X122544750Y-124346176D01*
X122422121Y-124358254D01*
X122304205Y-124394023D01*
X122195533Y-124452110D01*
X122100281Y-124530281D01*
X122022110Y-124625533D01*
X121964023Y-124734205D01*
X121928254Y-124852121D01*
X121920000Y-124935925D01*
X121911746Y-124852121D01*
X121875977Y-124734205D01*
X121817890Y-124625533D01*
X121739719Y-124530281D01*
X121644467Y-124452110D01*
X121535795Y-124394023D01*
X121417879Y-124358254D01*
X121295250Y-124346176D01*
X121167000Y-124346176D01*
X121167000Y-124020160D01*
X121246202Y-123987353D01*
X121447167Y-123853073D01*
X121618073Y-123682167D01*
X121752353Y-123481202D01*
X121844847Y-123257903D01*
X121892000Y-123020849D01*
X121892000Y-122779151D01*
X121844847Y-122542097D01*
X121752353Y-122318798D01*
X121618073Y-122117833D01*
X121447167Y-121946927D01*
X121246202Y-121812647D01*
X121022903Y-121720153D01*
X120785849Y-121673000D01*
X120752000Y-121673000D01*
X120752000Y-120082867D01*
X120785463Y-120064981D01*
X120842869Y-120017869D01*
X120889981Y-119960463D01*
X120924988Y-119894970D01*
X120946545Y-119823905D01*
X120950696Y-119781750D01*
X121190000Y-119781750D01*
X121202454Y-119889902D01*
X121241710Y-120008666D01*
X121303381Y-120117490D01*
X121385097Y-120212192D01*
X121483719Y-120289132D01*
X121595456Y-120345353D01*
X121716014Y-120378695D01*
X121840761Y-120387877D01*
X121864250Y-120385000D01*
X122023000Y-120226250D01*
X122023000Y-119623000D01*
X121348750Y-119623000D01*
X121190000Y-119781750D01*
X120950696Y-119781750D01*
X120953824Y-119750000D01*
X120953824Y-119402000D01*
X121175347Y-119402000D01*
X121200000Y-119404428D01*
%TA.AperFunction,Conductor*%
D32*
G36*
X121200000Y-119404428D02*
G01*
X121224653Y-119402000D01*
X121273750Y-119402000D01*
X121348750Y-119477000D01*
X121806481Y-119477000D01*
X121825000Y-119478824D01*
X122297000Y-119478824D01*
X122297000Y-119623000D01*
X122277000Y-119623000D01*
X122277000Y-120226250D01*
X122435750Y-120385000D01*
X122459239Y-120387877D01*
X122583986Y-120378695D01*
X122703000Y-120345780D01*
X122703001Y-121779840D01*
X122623798Y-121812647D01*
X122422833Y-121946927D01*
X122251927Y-122117833D01*
X122117647Y-122318798D01*
X122025153Y-122542097D01*
X121978000Y-122779151D01*
X121978000Y-123020849D01*
X122025153Y-123257903D01*
X122117647Y-123481202D01*
X122251927Y-123682167D01*
X122422833Y-123853073D01*
X122623798Y-123987353D01*
X122703000Y-124020160D01*
X122703000Y-124346176D01*
X122544750Y-124346176D01*
X122422121Y-124358254D01*
X122304205Y-124394023D01*
X122195533Y-124452110D01*
X122100281Y-124530281D01*
X122022110Y-124625533D01*
X121964023Y-124734205D01*
X121928254Y-124852121D01*
X121920000Y-124935925D01*
X121911746Y-124852121D01*
X121875977Y-124734205D01*
X121817890Y-124625533D01*
X121739719Y-124530281D01*
X121644467Y-124452110D01*
X121535795Y-124394023D01*
X121417879Y-124358254D01*
X121295250Y-124346176D01*
X121167000Y-124346176D01*
X121167000Y-124020160D01*
X121246202Y-123987353D01*
X121447167Y-123853073D01*
X121618073Y-123682167D01*
X121752353Y-123481202D01*
X121844847Y-123257903D01*
X121892000Y-123020849D01*
X121892000Y-122779151D01*
X121844847Y-122542097D01*
X121752353Y-122318798D01*
X121618073Y-122117833D01*
X121447167Y-121946927D01*
X121246202Y-121812647D01*
X121022903Y-121720153D01*
X120785849Y-121673000D01*
X120752000Y-121673000D01*
X120752000Y-120082867D01*
X120785463Y-120064981D01*
X120842869Y-120017869D01*
X120889981Y-119960463D01*
X120924988Y-119894970D01*
X120946545Y-119823905D01*
X120950696Y-119781750D01*
X121190000Y-119781750D01*
X121202454Y-119889902D01*
X121241710Y-120008666D01*
X121303381Y-120117490D01*
X121385097Y-120212192D01*
X121483719Y-120289132D01*
X121595456Y-120345353D01*
X121716014Y-120378695D01*
X121840761Y-120387877D01*
X121864250Y-120385000D01*
X122023000Y-120226250D01*
X122023000Y-119623000D01*
X121348750Y-119623000D01*
X121190000Y-119781750D01*
X120950696Y-119781750D01*
X120953824Y-119750000D01*
X120953824Y-119402000D01*
X121175347Y-119402000D01*
X121200000Y-119404428D01*
G37*
%TD.AperFunction*%
D31*
X117298750Y-119477000D02*
X117756481Y-119477000D01*
X117775000Y-119478824D01*
X118247000Y-119478824D01*
X118247000Y-119623000D01*
X118227000Y-119623000D01*
X118227000Y-120226250D01*
X118385750Y-120385000D01*
X118409239Y-120387877D01*
X118422991Y-120386865D01*
X118422991Y-121708236D01*
X118245849Y-121673000D01*
X118004151Y-121673000D01*
X117767097Y-121720153D01*
X117543798Y-121812647D01*
X117342833Y-121946927D01*
X117171927Y-122117833D01*
X117037647Y-122318798D01*
X116945153Y-122542097D01*
X116898000Y-122779151D01*
X116898000Y-123020849D01*
X116945153Y-123257903D01*
X117037647Y-123481202D01*
X117171927Y-123682167D01*
X117342833Y-123853073D01*
X117543798Y-123987353D01*
X117623000Y-124020160D01*
X117623000Y-124346176D01*
X117544750Y-124346176D01*
X117422121Y-124358254D01*
X117304205Y-124394023D01*
X117195533Y-124452110D01*
X117100281Y-124530281D01*
X117022110Y-124625533D01*
X116964023Y-124734205D01*
X116928254Y-124852121D01*
X116920000Y-124935925D01*
X116911746Y-124852121D01*
X116875977Y-124734205D01*
X116817890Y-124625533D01*
X116739719Y-124530281D01*
X116644467Y-124452110D01*
X116535795Y-124394023D01*
X116417879Y-124358254D01*
X116295250Y-124346176D01*
X116087000Y-124346176D01*
X116087000Y-124020160D01*
X116166202Y-123987353D01*
X116367167Y-123853073D01*
X116538073Y-123682167D01*
X116672353Y-123481202D01*
X116764847Y-123257903D01*
X116812000Y-123020849D01*
X116812000Y-122779151D01*
X116764847Y-122542097D01*
X116695577Y-122374866D01*
X116702000Y-122309653D01*
X116702000Y-122309644D01*
X116704427Y-122285001D01*
X116702000Y-122260358D01*
X116702000Y-120082867D01*
X116735463Y-120064981D01*
X116792869Y-120017869D01*
X116839981Y-119960463D01*
X116874988Y-119894970D01*
X116896545Y-119823905D01*
X116900696Y-119781750D01*
X117140000Y-119781750D01*
X117152454Y-119889902D01*
X117191710Y-120008666D01*
X117253381Y-120117490D01*
X117335097Y-120212192D01*
X117433719Y-120289132D01*
X117545456Y-120345353D01*
X117666014Y-120378695D01*
X117790761Y-120387877D01*
X117814250Y-120385000D01*
X117973000Y-120226250D01*
X117973000Y-119623000D01*
X117298750Y-119623000D01*
X117140000Y-119781750D01*
X116900696Y-119781750D01*
X116903824Y-119750000D01*
X116903824Y-119402000D01*
X117223750Y-119402000D01*
X117298750Y-119477000D01*
%TA.AperFunction,Conductor*%
D32*
G36*
X117298750Y-119477000D02*
G01*
X117756481Y-119477000D01*
X117775000Y-119478824D01*
X118247000Y-119478824D01*
X118247000Y-119623000D01*
X118227000Y-119623000D01*
X118227000Y-120226250D01*
X118385750Y-120385000D01*
X118409239Y-120387877D01*
X118422991Y-120386865D01*
X118422991Y-121708236D01*
X118245849Y-121673000D01*
X118004151Y-121673000D01*
X117767097Y-121720153D01*
X117543798Y-121812647D01*
X117342833Y-121946927D01*
X117171927Y-122117833D01*
X117037647Y-122318798D01*
X116945153Y-122542097D01*
X116898000Y-122779151D01*
X116898000Y-123020849D01*
X116945153Y-123257903D01*
X117037647Y-123481202D01*
X117171927Y-123682167D01*
X117342833Y-123853073D01*
X117543798Y-123987353D01*
X117623000Y-124020160D01*
X117623000Y-124346176D01*
X117544750Y-124346176D01*
X117422121Y-124358254D01*
X117304205Y-124394023D01*
X117195533Y-124452110D01*
X117100281Y-124530281D01*
X117022110Y-124625533D01*
X116964023Y-124734205D01*
X116928254Y-124852121D01*
X116920000Y-124935925D01*
X116911746Y-124852121D01*
X116875977Y-124734205D01*
X116817890Y-124625533D01*
X116739719Y-124530281D01*
X116644467Y-124452110D01*
X116535795Y-124394023D01*
X116417879Y-124358254D01*
X116295250Y-124346176D01*
X116087000Y-124346176D01*
X116087000Y-124020160D01*
X116166202Y-123987353D01*
X116367167Y-123853073D01*
X116538073Y-123682167D01*
X116672353Y-123481202D01*
X116764847Y-123257903D01*
X116812000Y-123020849D01*
X116812000Y-122779151D01*
X116764847Y-122542097D01*
X116695577Y-122374866D01*
X116702000Y-122309653D01*
X116702000Y-122309644D01*
X116704427Y-122285001D01*
X116702000Y-122260358D01*
X116702000Y-120082867D01*
X116735463Y-120064981D01*
X116792869Y-120017869D01*
X116839981Y-119960463D01*
X116874988Y-119894970D01*
X116896545Y-119823905D01*
X116900696Y-119781750D01*
X117140000Y-119781750D01*
X117152454Y-119889902D01*
X117191710Y-120008666D01*
X117253381Y-120117490D01*
X117335097Y-120212192D01*
X117433719Y-120289132D01*
X117545456Y-120345353D01*
X117666014Y-120378695D01*
X117790761Y-120387877D01*
X117814250Y-120385000D01*
X117973000Y-120226250D01*
X117973000Y-119623000D01*
X117298750Y-119623000D01*
X117140000Y-119781750D01*
X116900696Y-119781750D01*
X116903824Y-119750000D01*
X116903824Y-119402000D01*
X117223750Y-119402000D01*
X117298750Y-119477000D01*
G37*
%TD.AperFunction*%
D31*
X127747000Y-120327000D02*
X127453000Y-120327000D01*
X127453000Y-120073000D01*
X127747000Y-120073000D01*
X127747000Y-120327000D01*
%TA.AperFunction,Conductor*%
D32*
G36*
X127747000Y-120327000D02*
G01*
X127453000Y-120327000D01*
X127453000Y-120073000D01*
X127747000Y-120073000D01*
X127747000Y-120327000D01*
G37*
%TD.AperFunction*%
D31*
X123879599Y-102557944D02*
X123879599Y-102701538D01*
X123909458Y-102851653D01*
X123968030Y-102993058D01*
X124053063Y-103120319D01*
X124161290Y-103228546D01*
X124288551Y-103313579D01*
X124429956Y-103372151D01*
X124580071Y-103402010D01*
X124733127Y-103402010D01*
X124883242Y-103372151D01*
X125024647Y-103313579D01*
X125151908Y-103228546D01*
X125260135Y-103120319D01*
X125345168Y-102993058D01*
X125350708Y-102979684D01*
X125394151Y-103002904D01*
X125393725Y-103003423D01*
X125340236Y-103103494D01*
X125307298Y-103212077D01*
X125296176Y-103325000D01*
X125296176Y-103875000D01*
X125307298Y-103987923D01*
X125340236Y-104096506D01*
X125393725Y-104196577D01*
X125465710Y-104284290D01*
X125553423Y-104356275D01*
X125573000Y-104366739D01*
X125573001Y-105323928D01*
X125553390Y-105327829D01*
X125411985Y-105386401D01*
X125284724Y-105471434D01*
X125176497Y-105579661D01*
X125091464Y-105706922D01*
X125032892Y-105848327D01*
X125003033Y-105998442D01*
X125003033Y-106151498D01*
X125032892Y-106301613D01*
X125091464Y-106443018D01*
X125176497Y-106570279D01*
X125284724Y-106678506D01*
X125411985Y-106763539D01*
X125526323Y-106810899D01*
X125519389Y-106943531D01*
X125561401Y-107233019D01*
X125659081Y-107508747D01*
X125732528Y-107646157D01*
X125981603Y-107723792D01*
X126830395Y-106875000D01*
X126816253Y-106860858D01*
X126995858Y-106681253D01*
X127010000Y-106695395D01*
X127858792Y-105846603D01*
X127781157Y-105597528D01*
X127517117Y-105471629D01*
X127233589Y-105399661D01*
X126941469Y-105384389D01*
X126651981Y-105426401D01*
X126577000Y-105452964D01*
X126577000Y-104366739D01*
X126596577Y-104356275D01*
X126684290Y-104284290D01*
X126756275Y-104196577D01*
X126809764Y-104096506D01*
X126842702Y-103987923D01*
X126853824Y-103875000D01*
X126853824Y-103325000D01*
X126842702Y-103212077D01*
X126809764Y-103103494D01*
X126756275Y-103003423D01*
X126684290Y-102915710D01*
X126640465Y-102879743D01*
X126648307Y-102873307D01*
X126724955Y-102779911D01*
X126781909Y-102673357D01*
X126800000Y-102613720D01*
X126818091Y-102673357D01*
X126875045Y-102779911D01*
X126951693Y-102873307D01*
X127045089Y-102949955D01*
X127074642Y-102965751D01*
X127043725Y-103003423D01*
X126990236Y-103103494D01*
X126957298Y-103212077D01*
X126946176Y-103325000D01*
X126946176Y-103875000D01*
X126957298Y-103987923D01*
X126990236Y-104096506D01*
X127043725Y-104196577D01*
X127115710Y-104284290D01*
X127203423Y-104356275D01*
X127303494Y-104409764D01*
X127412077Y-104442702D01*
X127525000Y-104453824D01*
X127925000Y-104453824D01*
X128037923Y-104442702D01*
X128146506Y-104409764D01*
X128246577Y-104356275D01*
X128334290Y-104284290D01*
X128406275Y-104196577D01*
X128459764Y-104096506D01*
X128473001Y-104052869D01*
X128473001Y-106616218D01*
X128458599Y-106516981D01*
X128360919Y-106241253D01*
X128287472Y-106103843D01*
X128038397Y-106026208D01*
X127189605Y-106875000D01*
X128038397Y-107723792D01*
X128287472Y-107646157D01*
X128413371Y-107382117D01*
X128473001Y-107147197D01*
X128473001Y-115266216D01*
X128458599Y-115166981D01*
X128360919Y-114891253D01*
X128287472Y-114753843D01*
X128038397Y-114676208D01*
X127189605Y-115525000D01*
X128038397Y-116373792D01*
X128287472Y-116296157D01*
X128413371Y-116032117D01*
X128473000Y-115797198D01*
X128473000Y-118770948D01*
X128406680Y-118735498D01*
X128309393Y-118705986D01*
X128330958Y-118665641D01*
X128366741Y-118547677D01*
X128378824Y-118425000D01*
X128378824Y-117175000D01*
X128366741Y-117052323D01*
X128330958Y-116934359D01*
X128272848Y-116825644D01*
X128194646Y-116730354D01*
X128099356Y-116652152D01*
X127990641Y-116594042D01*
X127872677Y-116558259D01*
X127857735Y-116556787D01*
X127858792Y-116553397D01*
X127010000Y-115704605D01*
X126995858Y-115718748D01*
X126816253Y-115539143D01*
X126830395Y-115525000D01*
X125981603Y-114676208D01*
X125732528Y-114753843D01*
X125606629Y-115017883D01*
X125534661Y-115301411D01*
X125519389Y-115593531D01*
X125561401Y-115883019D01*
X125637557Y-116097990D01*
X124369458Y-116097990D01*
X124370704Y-116095429D01*
X124452384Y-115783892D01*
X124471718Y-115462405D01*
X124427961Y-115143325D01*
X124322795Y-114838912D01*
X124229814Y-114664956D01*
X123965413Y-114569192D01*
X123009605Y-115525000D01*
X123023748Y-115539143D01*
X122844143Y-115718748D01*
X122830000Y-115704605D01*
X122815858Y-115718748D01*
X122636253Y-115539143D01*
X122650395Y-115525000D01*
X122636253Y-115510858D01*
X122809048Y-115338062D01*
X122810000Y-115338072D01*
X122821540Y-115336935D01*
X122830000Y-115345395D01*
X122840308Y-115335087D01*
X122934482Y-115325812D01*
X123054180Y-115289502D01*
X123164494Y-115230537D01*
X123261185Y-115151185D01*
X123340537Y-115054494D01*
X123399502Y-114944180D01*
X123435812Y-114824482D01*
X123445087Y-114730308D01*
X123678792Y-114496603D01*
X126161208Y-114496603D01*
X127010000Y-115345395D01*
X127858792Y-114496603D01*
X127781157Y-114247528D01*
X127517117Y-114121629D01*
X127233589Y-114049661D01*
X126941469Y-114034389D01*
X126651981Y-114076401D01*
X126376253Y-114174081D01*
X126238843Y-114247528D01*
X126161208Y-114496603D01*
X123678792Y-114496603D01*
X123785808Y-114389587D01*
X123690044Y-114125186D01*
X123438501Y-114002817D01*
X123435812Y-113975518D01*
X123399502Y-113855820D01*
X123381951Y-113822985D01*
X123472538Y-113732399D01*
X123491685Y-113716685D01*
X123507398Y-113697539D01*
X123507401Y-113697536D01*
X123545262Y-113651402D01*
X123554418Y-113640246D01*
X123601032Y-113553037D01*
X123629737Y-113458410D01*
X123637001Y-113384654D01*
X123637001Y-113384644D01*
X123639428Y-113360001D01*
X123637001Y-113335358D01*
X123637001Y-109064642D01*
X123639428Y-109039999D01*
X123637001Y-109015356D01*
X123637001Y-109015346D01*
X123629737Y-108941590D01*
X123601032Y-108846963D01*
X123554418Y-108759754D01*
X123520513Y-108718441D01*
X123507401Y-108702464D01*
X123507398Y-108702461D01*
X123491685Y-108683315D01*
X123472538Y-108667601D01*
X123381951Y-108577015D01*
X123399502Y-108544180D01*
X123435812Y-108424482D01*
X123438764Y-108394508D01*
X123516088Y-108367795D01*
X123690044Y-108274814D01*
X123785808Y-108010413D01*
X123690395Y-107915000D01*
X123807002Y-107915000D01*
X123807002Y-107760252D01*
X123961750Y-107915000D01*
X124021965Y-107911410D01*
X124054315Y-107903397D01*
X126161208Y-107903397D01*
X126238843Y-108152472D01*
X126502883Y-108278371D01*
X126786411Y-108350339D01*
X127078531Y-108365611D01*
X127368019Y-108323599D01*
X127643747Y-108225919D01*
X127781157Y-108152472D01*
X127858792Y-107903397D01*
X127010000Y-107054605D01*
X126161208Y-107903397D01*
X124054315Y-107903397D01*
X124143380Y-107881336D01*
X124256595Y-107828153D01*
X124357259Y-107753905D01*
X124441503Y-107661445D01*
X124506091Y-107554326D01*
X124548540Y-107436665D01*
X124565000Y-107338750D01*
X124433223Y-107206973D01*
X124452384Y-107133892D01*
X124452386Y-107133864D01*
X124565000Y-107021250D01*
X124548540Y-106923335D01*
X124506091Y-106805674D01*
X124460404Y-106729902D01*
X124427961Y-106493325D01*
X124322795Y-106188912D01*
X124229814Y-106014956D01*
X123965413Y-105919192D01*
X123418928Y-106465678D01*
X123398250Y-106445000D01*
X123338035Y-106448590D01*
X123216620Y-106478664D01*
X123103405Y-106531847D01*
X123002741Y-106606095D01*
X122918497Y-106698555D01*
X122853909Y-106805674D01*
X122811460Y-106923335D01*
X122795000Y-107021250D01*
X122826748Y-107052998D01*
X122800108Y-107052998D01*
X122636253Y-106889143D01*
X122650395Y-106875000D01*
X122636253Y-106860858D01*
X122815858Y-106681253D01*
X122830000Y-106695395D01*
X123312655Y-106212740D01*
X123325000Y-106213072D01*
X123449482Y-106200812D01*
X123569180Y-106164502D01*
X123679494Y-106105537D01*
X123776185Y-106026185D01*
X123855537Y-105929494D01*
X123914502Y-105819180D01*
X123950812Y-105699482D01*
X123963072Y-105575000D01*
X123960000Y-105385750D01*
X123801250Y-105227000D01*
X123052000Y-105227000D01*
X123052000Y-105247000D01*
X122995513Y-105247000D01*
X122798000Y-105235122D01*
X122798000Y-105227000D01*
X122778000Y-105227000D01*
X122778000Y-104973000D01*
X122798000Y-104973000D01*
X122798000Y-104027000D01*
X123052000Y-104027000D01*
X123052000Y-104973000D01*
X123173750Y-104973000D01*
X123210750Y-105010000D01*
X123325000Y-105013072D01*
X123449482Y-105000812D01*
X123541166Y-104973000D01*
X123801250Y-104973000D01*
X123960000Y-104814250D01*
X123963072Y-104625000D01*
X123950812Y-104500518D01*
X123950655Y-104500000D01*
X123950812Y-104499482D01*
X123963072Y-104375000D01*
X123960000Y-104185750D01*
X123801250Y-104027000D01*
X123541166Y-104027000D01*
X123449482Y-103999188D01*
X123325000Y-103986928D01*
X123210750Y-103990000D01*
X123173750Y-104027000D01*
X123052000Y-104027000D01*
X122798000Y-104027000D01*
X122778000Y-104027000D01*
X122778000Y-103773000D01*
X122798000Y-103773000D01*
X122798000Y-102948750D01*
X123052000Y-102948750D01*
X123052000Y-103773000D01*
X123801250Y-103773000D01*
X123960000Y-103614250D01*
X123963072Y-103425000D01*
X123950812Y-103300518D01*
X123914502Y-103180820D01*
X123855537Y-103070506D01*
X123776185Y-102973815D01*
X123679494Y-102894463D01*
X123569180Y-102835498D01*
X123449482Y-102799188D01*
X123325000Y-102786928D01*
X123210750Y-102790000D01*
X123052000Y-102948750D01*
X122798000Y-102948750D01*
X122639250Y-102790000D01*
X122525000Y-102786928D01*
X122400518Y-102799188D01*
X122280820Y-102835498D01*
X122170506Y-102894463D01*
X122073815Y-102973815D01*
X121994463Y-103070506D01*
X121935498Y-103180820D01*
X121913951Y-103251851D01*
X121884290Y-103215710D01*
X121796577Y-103143725D01*
X121696506Y-103090236D01*
X121587923Y-103057298D01*
X121475000Y-103046176D01*
X121075000Y-103046176D01*
X120962077Y-103057298D01*
X120853494Y-103090236D01*
X120753423Y-103143725D01*
X120665710Y-103215710D01*
X120653925Y-103230070D01*
X120620319Y-103196464D01*
X120493058Y-103111431D01*
X120351653Y-103052859D01*
X120201538Y-103023000D01*
X120048482Y-103023000D01*
X119898367Y-103052859D01*
X119756962Y-103111431D01*
X119629701Y-103196464D01*
X119521474Y-103304691D01*
X119436441Y-103431952D01*
X119377869Y-103573357D01*
X119348010Y-103723472D01*
X119348010Y-103876528D01*
X119377869Y-104026643D01*
X119436441Y-104168048D01*
X119521474Y-104295309D01*
X119629701Y-104403536D01*
X119756962Y-104488569D01*
X119898367Y-104547141D01*
X120048482Y-104577000D01*
X120201538Y-104577000D01*
X120351653Y-104547141D01*
X120493058Y-104488569D01*
X120564079Y-104441114D01*
X120593725Y-104496577D01*
X120596534Y-104500000D01*
X120593725Y-104503423D01*
X120540236Y-104603494D01*
X120507298Y-104712077D01*
X120496176Y-104825000D01*
X120496176Y-105375000D01*
X120507298Y-105487923D01*
X120540236Y-105596506D01*
X120593725Y-105696577D01*
X120665710Y-105784290D01*
X120753423Y-105856275D01*
X120843000Y-105904155D01*
X120843000Y-105947135D01*
X120696517Y-105917998D01*
X120543461Y-105917998D01*
X120393346Y-105947857D01*
X120251941Y-106006429D01*
X120124680Y-106091462D01*
X120016453Y-106199689D01*
X119931420Y-106326950D01*
X119872848Y-106468355D01*
X119842989Y-106618470D01*
X119842989Y-106771526D01*
X119872848Y-106921641D01*
X119931420Y-107063046D01*
X120016453Y-107190307D01*
X120117990Y-107291844D01*
X120117989Y-109625346D01*
X120115562Y-109649989D01*
X120117989Y-109674632D01*
X120117989Y-109674641D01*
X120125253Y-109748397D01*
X120153958Y-109843024D01*
X120200572Y-109930234D01*
X120223419Y-109958073D01*
X119952790Y-109687444D01*
X119937075Y-109668295D01*
X119860636Y-109605562D01*
X119773427Y-109558948D01*
X119678800Y-109530243D01*
X119605044Y-109522979D01*
X119605034Y-109522979D01*
X119580391Y-109520552D01*
X119555748Y-109522979D01*
X119525146Y-109522979D01*
X119537548Y-109510577D01*
X119556694Y-109494864D01*
X119572407Y-109475718D01*
X119572410Y-109475715D01*
X119619427Y-109418426D01*
X119666041Y-109331217D01*
X119694746Y-109236590D01*
X119699929Y-109183959D01*
X119702010Y-109162833D01*
X119702010Y-109162826D01*
X119704437Y-109138180D01*
X119702010Y-109113535D01*
X119702010Y-107824652D01*
X119704437Y-107800009D01*
X119702010Y-107775366D01*
X119702010Y-107775357D01*
X119694746Y-107701601D01*
X119666041Y-107606974D01*
X119619427Y-107519765D01*
X119556694Y-107443326D01*
X119537548Y-107427613D01*
X119239616Y-107129682D01*
X119241741Y-107122677D01*
X119253824Y-107000000D01*
X119253824Y-106500000D01*
X119241741Y-106377323D01*
X119205958Y-106259359D01*
X119192015Y-106233273D01*
X119212488Y-106194970D01*
X119234045Y-106123905D01*
X119241324Y-106050000D01*
X119241324Y-102350238D01*
X123671893Y-102350238D01*
X123879599Y-102557944D01*
%TA.AperFunction,Conductor*%
D32*
G36*
X123879599Y-102557944D02*
G01*
X123879599Y-102701538D01*
X123909458Y-102851653D01*
X123968030Y-102993058D01*
X124053063Y-103120319D01*
X124161290Y-103228546D01*
X124288551Y-103313579D01*
X124429956Y-103372151D01*
X124580071Y-103402010D01*
X124733127Y-103402010D01*
X124883242Y-103372151D01*
X125024647Y-103313579D01*
X125151908Y-103228546D01*
X125260135Y-103120319D01*
X125345168Y-102993058D01*
X125350708Y-102979684D01*
X125394151Y-103002904D01*
X125393725Y-103003423D01*
X125340236Y-103103494D01*
X125307298Y-103212077D01*
X125296176Y-103325000D01*
X125296176Y-103875000D01*
X125307298Y-103987923D01*
X125340236Y-104096506D01*
X125393725Y-104196577D01*
X125465710Y-104284290D01*
X125553423Y-104356275D01*
X125573000Y-104366739D01*
X125573001Y-105323928D01*
X125553390Y-105327829D01*
X125411985Y-105386401D01*
X125284724Y-105471434D01*
X125176497Y-105579661D01*
X125091464Y-105706922D01*
X125032892Y-105848327D01*
X125003033Y-105998442D01*
X125003033Y-106151498D01*
X125032892Y-106301613D01*
X125091464Y-106443018D01*
X125176497Y-106570279D01*
X125284724Y-106678506D01*
X125411985Y-106763539D01*
X125526323Y-106810899D01*
X125519389Y-106943531D01*
X125561401Y-107233019D01*
X125659081Y-107508747D01*
X125732528Y-107646157D01*
X125981603Y-107723792D01*
X126830395Y-106875000D01*
X126816253Y-106860858D01*
X126995858Y-106681253D01*
X127010000Y-106695395D01*
X127858792Y-105846603D01*
X127781157Y-105597528D01*
X127517117Y-105471629D01*
X127233589Y-105399661D01*
X126941469Y-105384389D01*
X126651981Y-105426401D01*
X126577000Y-105452964D01*
X126577000Y-104366739D01*
X126596577Y-104356275D01*
X126684290Y-104284290D01*
X126756275Y-104196577D01*
X126809764Y-104096506D01*
X126842702Y-103987923D01*
X126853824Y-103875000D01*
X126853824Y-103325000D01*
X126842702Y-103212077D01*
X126809764Y-103103494D01*
X126756275Y-103003423D01*
X126684290Y-102915710D01*
X126640465Y-102879743D01*
X126648307Y-102873307D01*
X126724955Y-102779911D01*
X126781909Y-102673357D01*
X126800000Y-102613720D01*
X126818091Y-102673357D01*
X126875045Y-102779911D01*
X126951693Y-102873307D01*
X127045089Y-102949955D01*
X127074642Y-102965751D01*
X127043725Y-103003423D01*
X126990236Y-103103494D01*
X126957298Y-103212077D01*
X126946176Y-103325000D01*
X126946176Y-103875000D01*
X126957298Y-103987923D01*
X126990236Y-104096506D01*
X127043725Y-104196577D01*
X127115710Y-104284290D01*
X127203423Y-104356275D01*
X127303494Y-104409764D01*
X127412077Y-104442702D01*
X127525000Y-104453824D01*
X127925000Y-104453824D01*
X128037923Y-104442702D01*
X128146506Y-104409764D01*
X128246577Y-104356275D01*
X128334290Y-104284290D01*
X128406275Y-104196577D01*
X128459764Y-104096506D01*
X128473001Y-104052869D01*
X128473001Y-106616218D01*
X128458599Y-106516981D01*
X128360919Y-106241253D01*
X128287472Y-106103843D01*
X128038397Y-106026208D01*
X127189605Y-106875000D01*
X128038397Y-107723792D01*
X128287472Y-107646157D01*
X128413371Y-107382117D01*
X128473001Y-107147197D01*
X128473001Y-115266216D01*
X128458599Y-115166981D01*
X128360919Y-114891253D01*
X128287472Y-114753843D01*
X128038397Y-114676208D01*
X127189605Y-115525000D01*
X128038397Y-116373792D01*
X128287472Y-116296157D01*
X128413371Y-116032117D01*
X128473000Y-115797198D01*
X128473000Y-118770948D01*
X128406680Y-118735498D01*
X128309393Y-118705986D01*
X128330958Y-118665641D01*
X128366741Y-118547677D01*
X128378824Y-118425000D01*
X128378824Y-117175000D01*
X128366741Y-117052323D01*
X128330958Y-116934359D01*
X128272848Y-116825644D01*
X128194646Y-116730354D01*
X128099356Y-116652152D01*
X127990641Y-116594042D01*
X127872677Y-116558259D01*
X127857735Y-116556787D01*
X127858792Y-116553397D01*
X127010000Y-115704605D01*
X126995858Y-115718748D01*
X126816253Y-115539143D01*
X126830395Y-115525000D01*
X125981603Y-114676208D01*
X125732528Y-114753843D01*
X125606629Y-115017883D01*
X125534661Y-115301411D01*
X125519389Y-115593531D01*
X125561401Y-115883019D01*
X125637557Y-116097990D01*
X124369458Y-116097990D01*
X124370704Y-116095429D01*
X124452384Y-115783892D01*
X124471718Y-115462405D01*
X124427961Y-115143325D01*
X124322795Y-114838912D01*
X124229814Y-114664956D01*
X123965413Y-114569192D01*
X123009605Y-115525000D01*
X123023748Y-115539143D01*
X122844143Y-115718748D01*
X122830000Y-115704605D01*
X122815858Y-115718748D01*
X122636253Y-115539143D01*
X122650395Y-115525000D01*
X122636253Y-115510858D01*
X122809048Y-115338062D01*
X122810000Y-115338072D01*
X122821540Y-115336935D01*
X122830000Y-115345395D01*
X122840308Y-115335087D01*
X122934482Y-115325812D01*
X123054180Y-115289502D01*
X123164494Y-115230537D01*
X123261185Y-115151185D01*
X123340537Y-115054494D01*
X123399502Y-114944180D01*
X123435812Y-114824482D01*
X123445087Y-114730308D01*
X123678792Y-114496603D01*
X126161208Y-114496603D01*
X127010000Y-115345395D01*
X127858792Y-114496603D01*
X127781157Y-114247528D01*
X127517117Y-114121629D01*
X127233589Y-114049661D01*
X126941469Y-114034389D01*
X126651981Y-114076401D01*
X126376253Y-114174081D01*
X126238843Y-114247528D01*
X126161208Y-114496603D01*
X123678792Y-114496603D01*
X123785808Y-114389587D01*
X123690044Y-114125186D01*
X123438501Y-114002817D01*
X123435812Y-113975518D01*
X123399502Y-113855820D01*
X123381951Y-113822985D01*
X123472538Y-113732399D01*
X123491685Y-113716685D01*
X123507398Y-113697539D01*
X123507401Y-113697536D01*
X123545262Y-113651402D01*
X123554418Y-113640246D01*
X123601032Y-113553037D01*
X123629737Y-113458410D01*
X123637001Y-113384654D01*
X123637001Y-113384644D01*
X123639428Y-113360001D01*
X123637001Y-113335358D01*
X123637001Y-109064642D01*
X123639428Y-109039999D01*
X123637001Y-109015356D01*
X123637001Y-109015346D01*
X123629737Y-108941590D01*
X123601032Y-108846963D01*
X123554418Y-108759754D01*
X123520513Y-108718441D01*
X123507401Y-108702464D01*
X123507398Y-108702461D01*
X123491685Y-108683315D01*
X123472538Y-108667601D01*
X123381951Y-108577015D01*
X123399502Y-108544180D01*
X123435812Y-108424482D01*
X123438764Y-108394508D01*
X123516088Y-108367795D01*
X123690044Y-108274814D01*
X123785808Y-108010413D01*
X123690395Y-107915000D01*
X123807002Y-107915000D01*
X123807002Y-107760252D01*
X123961750Y-107915000D01*
X124021965Y-107911410D01*
X124054315Y-107903397D01*
X126161208Y-107903397D01*
X126238843Y-108152472D01*
X126502883Y-108278371D01*
X126786411Y-108350339D01*
X127078531Y-108365611D01*
X127368019Y-108323599D01*
X127643747Y-108225919D01*
X127781157Y-108152472D01*
X127858792Y-107903397D01*
X127010000Y-107054605D01*
X126161208Y-107903397D01*
X124054315Y-107903397D01*
X124143380Y-107881336D01*
X124256595Y-107828153D01*
X124357259Y-107753905D01*
X124441503Y-107661445D01*
X124506091Y-107554326D01*
X124548540Y-107436665D01*
X124565000Y-107338750D01*
X124433223Y-107206973D01*
X124452384Y-107133892D01*
X124452386Y-107133864D01*
X124565000Y-107021250D01*
X124548540Y-106923335D01*
X124506091Y-106805674D01*
X124460404Y-106729902D01*
X124427961Y-106493325D01*
X124322795Y-106188912D01*
X124229814Y-106014956D01*
X123965413Y-105919192D01*
X123418928Y-106465678D01*
X123398250Y-106445000D01*
X123338035Y-106448590D01*
X123216620Y-106478664D01*
X123103405Y-106531847D01*
X123002741Y-106606095D01*
X122918497Y-106698555D01*
X122853909Y-106805674D01*
X122811460Y-106923335D01*
X122795000Y-107021250D01*
X122826748Y-107052998D01*
X122800108Y-107052998D01*
X122636253Y-106889143D01*
X122650395Y-106875000D01*
X122636253Y-106860858D01*
X122815858Y-106681253D01*
X122830000Y-106695395D01*
X123312655Y-106212740D01*
X123325000Y-106213072D01*
X123449482Y-106200812D01*
X123569180Y-106164502D01*
X123679494Y-106105537D01*
X123776185Y-106026185D01*
X123855537Y-105929494D01*
X123914502Y-105819180D01*
X123950812Y-105699482D01*
X123963072Y-105575000D01*
X123960000Y-105385750D01*
X123801250Y-105227000D01*
X123052000Y-105227000D01*
X123052000Y-105247000D01*
X122995513Y-105247000D01*
X122798000Y-105235122D01*
X122798000Y-105227000D01*
X122778000Y-105227000D01*
X122778000Y-104973000D01*
X122798000Y-104973000D01*
X122798000Y-104027000D01*
X123052000Y-104027000D01*
X123052000Y-104973000D01*
X123173750Y-104973000D01*
X123210750Y-105010000D01*
X123325000Y-105013072D01*
X123449482Y-105000812D01*
X123541166Y-104973000D01*
X123801250Y-104973000D01*
X123960000Y-104814250D01*
X123963072Y-104625000D01*
X123950812Y-104500518D01*
X123950655Y-104500000D01*
X123950812Y-104499482D01*
X123963072Y-104375000D01*
X123960000Y-104185750D01*
X123801250Y-104027000D01*
X123541166Y-104027000D01*
X123449482Y-103999188D01*
X123325000Y-103986928D01*
X123210750Y-103990000D01*
X123173750Y-104027000D01*
X123052000Y-104027000D01*
X122798000Y-104027000D01*
X122778000Y-104027000D01*
X122778000Y-103773000D01*
X122798000Y-103773000D01*
X122798000Y-102948750D01*
X123052000Y-102948750D01*
X123052000Y-103773000D01*
X123801250Y-103773000D01*
X123960000Y-103614250D01*
X123963072Y-103425000D01*
X123950812Y-103300518D01*
X123914502Y-103180820D01*
X123855537Y-103070506D01*
X123776185Y-102973815D01*
X123679494Y-102894463D01*
X123569180Y-102835498D01*
X123449482Y-102799188D01*
X123325000Y-102786928D01*
X123210750Y-102790000D01*
X123052000Y-102948750D01*
X122798000Y-102948750D01*
X122639250Y-102790000D01*
X122525000Y-102786928D01*
X122400518Y-102799188D01*
X122280820Y-102835498D01*
X122170506Y-102894463D01*
X122073815Y-102973815D01*
X121994463Y-103070506D01*
X121935498Y-103180820D01*
X121913951Y-103251851D01*
X121884290Y-103215710D01*
X121796577Y-103143725D01*
X121696506Y-103090236D01*
X121587923Y-103057298D01*
X121475000Y-103046176D01*
X121075000Y-103046176D01*
X120962077Y-103057298D01*
X120853494Y-103090236D01*
X120753423Y-103143725D01*
X120665710Y-103215710D01*
X120653925Y-103230070D01*
X120620319Y-103196464D01*
X120493058Y-103111431D01*
X120351653Y-103052859D01*
X120201538Y-103023000D01*
X120048482Y-103023000D01*
X119898367Y-103052859D01*
X119756962Y-103111431D01*
X119629701Y-103196464D01*
X119521474Y-103304691D01*
X119436441Y-103431952D01*
X119377869Y-103573357D01*
X119348010Y-103723472D01*
X119348010Y-103876528D01*
X119377869Y-104026643D01*
X119436441Y-104168048D01*
X119521474Y-104295309D01*
X119629701Y-104403536D01*
X119756962Y-104488569D01*
X119898367Y-104547141D01*
X120048482Y-104577000D01*
X120201538Y-104577000D01*
X120351653Y-104547141D01*
X120493058Y-104488569D01*
X120564079Y-104441114D01*
X120593725Y-104496577D01*
X120596534Y-104500000D01*
X120593725Y-104503423D01*
X120540236Y-104603494D01*
X120507298Y-104712077D01*
X120496176Y-104825000D01*
X120496176Y-105375000D01*
X120507298Y-105487923D01*
X120540236Y-105596506D01*
X120593725Y-105696577D01*
X120665710Y-105784290D01*
X120753423Y-105856275D01*
X120843000Y-105904155D01*
X120843000Y-105947135D01*
X120696517Y-105917998D01*
X120543461Y-105917998D01*
X120393346Y-105947857D01*
X120251941Y-106006429D01*
X120124680Y-106091462D01*
X120016453Y-106199689D01*
X119931420Y-106326950D01*
X119872848Y-106468355D01*
X119842989Y-106618470D01*
X119842989Y-106771526D01*
X119872848Y-106921641D01*
X119931420Y-107063046D01*
X120016453Y-107190307D01*
X120117990Y-107291844D01*
X120117989Y-109625346D01*
X120115562Y-109649989D01*
X120117989Y-109674632D01*
X120117989Y-109674641D01*
X120125253Y-109748397D01*
X120153958Y-109843024D01*
X120200572Y-109930234D01*
X120223419Y-109958073D01*
X119952790Y-109687444D01*
X119937075Y-109668295D01*
X119860636Y-109605562D01*
X119773427Y-109558948D01*
X119678800Y-109530243D01*
X119605044Y-109522979D01*
X119605034Y-109522979D01*
X119580391Y-109520552D01*
X119555748Y-109522979D01*
X119525146Y-109522979D01*
X119537548Y-109510577D01*
X119556694Y-109494864D01*
X119572407Y-109475718D01*
X119572410Y-109475715D01*
X119619427Y-109418426D01*
X119666041Y-109331217D01*
X119694746Y-109236590D01*
X119699929Y-109183959D01*
X119702010Y-109162833D01*
X119702010Y-109162826D01*
X119704437Y-109138180D01*
X119702010Y-109113535D01*
X119702010Y-107824652D01*
X119704437Y-107800009D01*
X119702010Y-107775366D01*
X119702010Y-107775357D01*
X119694746Y-107701601D01*
X119666041Y-107606974D01*
X119619427Y-107519765D01*
X119556694Y-107443326D01*
X119537548Y-107427613D01*
X119239616Y-107129682D01*
X119241741Y-107122677D01*
X119253824Y-107000000D01*
X119253824Y-106500000D01*
X119241741Y-106377323D01*
X119205958Y-106259359D01*
X119192015Y-106233273D01*
X119212488Y-106194970D01*
X119234045Y-106123905D01*
X119241324Y-106050000D01*
X119241324Y-102350238D01*
X123671893Y-102350238D01*
X123879599Y-102557944D01*
G37*
%TD.AperFunction*%
D31*
X111121176Y-105952814D02*
X111075644Y-105977152D01*
X110980354Y-106055354D01*
X110902152Y-106150644D01*
X110844042Y-106259359D01*
X110808259Y-106377323D01*
X110796176Y-106500000D01*
X110796176Y-106883890D01*
X110512457Y-107167609D01*
X110493306Y-107183326D01*
X110430573Y-107259765D01*
X110383959Y-107346975D01*
X110355254Y-107441602D01*
X110347990Y-107515358D01*
X110347990Y-107515367D01*
X110345563Y-107540010D01*
X110347990Y-107564653D01*
X110347991Y-109325357D01*
X110345563Y-109350010D01*
X110355255Y-109448419D01*
X110383960Y-109543046D01*
X110430574Y-109630255D01*
X110477591Y-109687545D01*
X110477594Y-109687548D01*
X110493307Y-109706694D01*
X110512452Y-109722406D01*
X110602592Y-109812547D01*
X110618306Y-109831694D01*
X110637452Y-109847407D01*
X110637455Y-109847410D01*
X110664658Y-109869735D01*
X110694745Y-109894427D01*
X110781954Y-109941041D01*
X110876581Y-109969746D01*
X110950337Y-109977010D01*
X110950347Y-109977010D01*
X110974990Y-109979437D01*
X110999633Y-109977010D01*
X112847991Y-109977010D01*
X112847992Y-115542073D01*
X112755352Y-115634714D01*
X112592311Y-115634714D01*
X112567665Y-115632287D01*
X112543020Y-115634714D01*
X112543012Y-115634714D01*
X112469256Y-115641978D01*
X112374629Y-115670683D01*
X112287420Y-115717297D01*
X112230130Y-115764314D01*
X112230127Y-115764317D01*
X112210981Y-115780030D01*
X112195268Y-115799176D01*
X111462463Y-116531981D01*
X111443317Y-116547694D01*
X111427604Y-116566840D01*
X111427601Y-116566843D01*
X111380584Y-116624133D01*
X111333970Y-116711342D01*
X111305265Y-116805969D01*
X111295573Y-116904378D01*
X111298001Y-116929031D01*
X111298001Y-117252749D01*
X111152000Y-117398750D01*
X111152000Y-118223000D01*
X111172000Y-118223000D01*
X111172000Y-118477000D01*
X111152000Y-118477000D01*
X111152000Y-118497000D01*
X110898000Y-118497000D01*
X110898000Y-118477000D01*
X110878000Y-118477000D01*
X110878000Y-118223000D01*
X110898000Y-118223000D01*
X110898000Y-117398750D01*
X110739250Y-117240000D01*
X110575000Y-117236928D01*
X110450518Y-117249188D01*
X110330820Y-117285498D01*
X110327000Y-117287540D01*
X110327000Y-115890810D01*
X111157000Y-115890810D01*
X111157000Y-110009191D01*
X110327000Y-110009191D01*
X110327000Y-105746634D01*
X110400000Y-105753824D01*
X110900000Y-105753824D01*
X111017800Y-105742222D01*
X111121176Y-105710863D01*
X111121176Y-105952814D01*
%TA.AperFunction,Conductor*%
D32*
G36*
X111121176Y-105952814D02*
G01*
X111075644Y-105977152D01*
X110980354Y-106055354D01*
X110902152Y-106150644D01*
X110844042Y-106259359D01*
X110808259Y-106377323D01*
X110796176Y-106500000D01*
X110796176Y-106883890D01*
X110512457Y-107167609D01*
X110493306Y-107183326D01*
X110430573Y-107259765D01*
X110383959Y-107346975D01*
X110355254Y-107441602D01*
X110347990Y-107515358D01*
X110347990Y-107515367D01*
X110345563Y-107540010D01*
X110347990Y-107564653D01*
X110347991Y-109325357D01*
X110345563Y-109350010D01*
X110355255Y-109448419D01*
X110383960Y-109543046D01*
X110430574Y-109630255D01*
X110477591Y-109687545D01*
X110477594Y-109687548D01*
X110493307Y-109706694D01*
X110512452Y-109722406D01*
X110602592Y-109812547D01*
X110618306Y-109831694D01*
X110637452Y-109847407D01*
X110637455Y-109847410D01*
X110664658Y-109869735D01*
X110694745Y-109894427D01*
X110781954Y-109941041D01*
X110876581Y-109969746D01*
X110950337Y-109977010D01*
X110950347Y-109977010D01*
X110974990Y-109979437D01*
X110999633Y-109977010D01*
X112847991Y-109977010D01*
X112847992Y-115542073D01*
X112755352Y-115634714D01*
X112592311Y-115634714D01*
X112567665Y-115632287D01*
X112543020Y-115634714D01*
X112543012Y-115634714D01*
X112469256Y-115641978D01*
X112374629Y-115670683D01*
X112287420Y-115717297D01*
X112230130Y-115764314D01*
X112230127Y-115764317D01*
X112210981Y-115780030D01*
X112195268Y-115799176D01*
X111462463Y-116531981D01*
X111443317Y-116547694D01*
X111427604Y-116566840D01*
X111427601Y-116566843D01*
X111380584Y-116624133D01*
X111333970Y-116711342D01*
X111305265Y-116805969D01*
X111295573Y-116904378D01*
X111298001Y-116929031D01*
X111298001Y-117252749D01*
X111152000Y-117398750D01*
X111152000Y-118223000D01*
X111172000Y-118223000D01*
X111172000Y-118477000D01*
X111152000Y-118477000D01*
X111152000Y-118497000D01*
X110898000Y-118497000D01*
X110898000Y-118477000D01*
X110878000Y-118477000D01*
X110878000Y-118223000D01*
X110898000Y-118223000D01*
X110898000Y-117398750D01*
X110739250Y-117240000D01*
X110575000Y-117236928D01*
X110450518Y-117249188D01*
X110330820Y-117285498D01*
X110327000Y-117287540D01*
X110327000Y-115890810D01*
X111157000Y-115890810D01*
X111157000Y-110009191D01*
X110327000Y-110009191D01*
X110327000Y-105746634D01*
X110400000Y-105753824D01*
X110900000Y-105753824D01*
X111017800Y-105742222D01*
X111121176Y-105710863D01*
X111121176Y-105952814D01*
G37*
%TD.AperFunction*%
D31*
X117460019Y-117839537D02*
X117425012Y-117905030D01*
X117403455Y-117976095D01*
X117396176Y-118050000D01*
X117396176Y-118398000D01*
X117076250Y-118398000D01*
X117001250Y-118323000D01*
X116543519Y-118323000D01*
X116525000Y-118321176D01*
X115875000Y-118321176D01*
X115856481Y-118323000D01*
X115398750Y-118323000D01*
X115323750Y-118398000D01*
X114924653Y-118398000D01*
X114900000Y-118395572D01*
X114875347Y-118398000D01*
X114734931Y-118398000D01*
X114576998Y-118240067D01*
X114576998Y-117973548D01*
X114673533Y-117877013D01*
X115263390Y-117877013D01*
X115252454Y-117910098D01*
X115240000Y-118018250D01*
X115398750Y-118177000D01*
X116073000Y-118177000D01*
X116073000Y-118103000D01*
X116327000Y-118103000D01*
X116327000Y-118177000D01*
X117001250Y-118177000D01*
X117160000Y-118018250D01*
X117147546Y-117910098D01*
X117136610Y-117877013D01*
X117203931Y-117877013D01*
X117228574Y-117879440D01*
X117253217Y-117877013D01*
X117253227Y-117877013D01*
X117326983Y-117869749D01*
X117421610Y-117841044D01*
X117487831Y-117805648D01*
X117460019Y-117839537D01*
%TA.AperFunction,Conductor*%
D32*
G36*
X117460019Y-117839537D02*
G01*
X117425012Y-117905030D01*
X117403455Y-117976095D01*
X117396176Y-118050000D01*
X117396176Y-118398000D01*
X117076250Y-118398000D01*
X117001250Y-118323000D01*
X116543519Y-118323000D01*
X116525000Y-118321176D01*
X115875000Y-118321176D01*
X115856481Y-118323000D01*
X115398750Y-118323000D01*
X115323750Y-118398000D01*
X114924653Y-118398000D01*
X114900000Y-118395572D01*
X114875347Y-118398000D01*
X114734931Y-118398000D01*
X114576998Y-118240067D01*
X114576998Y-117973548D01*
X114673533Y-117877013D01*
X115263390Y-117877013D01*
X115252454Y-117910098D01*
X115240000Y-118018250D01*
X115398750Y-118177000D01*
X116073000Y-118177000D01*
X116073000Y-118103000D01*
X116327000Y-118103000D01*
X116327000Y-118177000D01*
X117001250Y-118177000D01*
X117160000Y-118018250D01*
X117147546Y-117910098D01*
X117136610Y-117877013D01*
X117203931Y-117877013D01*
X117228574Y-117879440D01*
X117253217Y-117877013D01*
X117253227Y-117877013D01*
X117326983Y-117869749D01*
X117421610Y-117841044D01*
X117487831Y-117805648D01*
X117460019Y-117839537D01*
G37*
%TD.AperFunction*%
D31*
X120114485Y-118191030D02*
X120209112Y-118219735D01*
X120282868Y-118226999D01*
X120282878Y-118226999D01*
X120307521Y-118229426D01*
X120332164Y-118226999D01*
X120397000Y-118226999D01*
X120397000Y-118321176D01*
X120103000Y-118321176D01*
X120103000Y-118184891D01*
X120114485Y-118191030D01*
%TA.AperFunction,Conductor*%
D32*
G36*
X120114485Y-118191030D02*
G01*
X120209112Y-118219735D01*
X120282868Y-118226999D01*
X120282878Y-118226999D01*
X120307521Y-118229426D01*
X120332164Y-118226999D01*
X120397000Y-118226999D01*
X120397000Y-118321176D01*
X120103000Y-118321176D01*
X120103000Y-118184891D01*
X120114485Y-118191030D01*
G37*
%TD.AperFunction*%
D31*
X119341710Y-117791334D02*
X119302454Y-117910098D01*
X119290000Y-118018250D01*
X119394748Y-118122998D01*
X119290000Y-118122998D01*
X119290000Y-118153451D01*
X119281674Y-118143306D01*
X119262522Y-118127588D01*
X119047402Y-117912468D01*
X119031684Y-117893316D01*
X118955245Y-117830583D01*
X118868036Y-117783969D01*
X118845023Y-117776988D01*
X119349840Y-117776988D01*
X119341710Y-117791334D01*
%TA.AperFunction,Conductor*%
D32*
G36*
X119341710Y-117791334D02*
G01*
X119302454Y-117910098D01*
X119290000Y-118018250D01*
X119394748Y-118122998D01*
X119290000Y-118122998D01*
X119290000Y-118153451D01*
X119281674Y-118143306D01*
X119262522Y-118127588D01*
X119047402Y-117912468D01*
X119031684Y-117893316D01*
X118955245Y-117830583D01*
X118868036Y-117783969D01*
X118845023Y-117776988D01*
X119349840Y-117776988D01*
X119341710Y-117791334D01*
G37*
%TD.AperFunction*%
%TD*%
M02*
