%TF.GenerationSoftware,KiCad,Pcbnew,(5.1.9-0-10_14)*%
%TF.CreationDate,2021-05-14T14:37:33+01:00*%
%TF.ProjectId,Generic,47656e65-7269-4632-9e6b-696361645f70,3*%
%TF.SameCoordinates,Original*%
%TF.FileFunction,Paste,Top*%
%TF.FilePolarity,Positive*%
%FSLAX46Y46*%
G04 Gerber Fmt 4.6, Leading zero omitted, Abs format (unit mm)*
G04 Created by KiCad (PCBNEW (5.1.9-0-10_14)) date 2021-05-14 14:37:33*
%MOMM*%
%LPD*%
G01*
G04 APERTURE LIST*
%ADD10R,2.000000X0.900000*%
%ADD11R,0.900000X2.000000*%
G04 APERTURE END LIST*
%TO.C,U1*%
G36*
G01*
X118600000Y-111495000D02*
X118600000Y-111095000D01*
G75*
G02*
X118800000Y-110895000I200000J0D01*
G01*
X119200000Y-110895000D01*
G75*
G02*
X119400000Y-111095000I0J-200000D01*
G01*
X119400000Y-111495000D01*
G75*
G02*
X119200000Y-111695000I-200000J0D01*
G01*
X118800000Y-111695000D01*
G75*
G02*
X118600000Y-111495000I0J200000D01*
G01*
G37*
G36*
G01*
X117600000Y-111495000D02*
X117600000Y-111095000D01*
G75*
G02*
X117800000Y-110895000I200000J0D01*
G01*
X118200000Y-110895000D01*
G75*
G02*
X118400000Y-111095000I0J-200000D01*
G01*
X118400000Y-111495000D01*
G75*
G02*
X118200000Y-111695000I-200000J0D01*
G01*
X117800000Y-111695000D01*
G75*
G02*
X117600000Y-111495000I0J200000D01*
G01*
G37*
G36*
G01*
X116600000Y-111495000D02*
X116600000Y-111095000D01*
G75*
G02*
X116800000Y-110895000I200000J0D01*
G01*
X117200000Y-110895000D01*
G75*
G02*
X117400000Y-111095000I0J-200000D01*
G01*
X117400000Y-111495000D01*
G75*
G02*
X117200000Y-111695000I-200000J0D01*
G01*
X116800000Y-111695000D01*
G75*
G02*
X116600000Y-111495000I0J200000D01*
G01*
G37*
G36*
G01*
X116600000Y-110495000D02*
X116600000Y-110095000D01*
G75*
G02*
X116800000Y-109895000I200000J0D01*
G01*
X117200000Y-109895000D01*
G75*
G02*
X117400000Y-110095000I0J-200000D01*
G01*
X117400000Y-110495000D01*
G75*
G02*
X117200000Y-110695000I-200000J0D01*
G01*
X116800000Y-110695000D01*
G75*
G02*
X116600000Y-110495000I0J200000D01*
G01*
G37*
G36*
G01*
X117600000Y-110495000D02*
X117600000Y-110095000D01*
G75*
G02*
X117800000Y-109895000I200000J0D01*
G01*
X118200000Y-109895000D01*
G75*
G02*
X118400000Y-110095000I0J-200000D01*
G01*
X118400000Y-110495000D01*
G75*
G02*
X118200000Y-110695000I-200000J0D01*
G01*
X117800000Y-110695000D01*
G75*
G02*
X117600000Y-110495000I0J200000D01*
G01*
G37*
G36*
G01*
X119600000Y-110495000D02*
X119600000Y-110095000D01*
G75*
G02*
X119800000Y-109895000I200000J0D01*
G01*
X120200000Y-109895000D01*
G75*
G02*
X120400000Y-110095000I0J-200000D01*
G01*
X120400000Y-110495000D01*
G75*
G02*
X120200000Y-110695000I-200000J0D01*
G01*
X119800000Y-110695000D01*
G75*
G02*
X119600000Y-110495000I0J200000D01*
G01*
G37*
G36*
G01*
X118600000Y-110495000D02*
X118600000Y-110095000D01*
G75*
G02*
X118800000Y-109895000I200000J0D01*
G01*
X119200000Y-109895000D01*
G75*
G02*
X119400000Y-110095000I0J-200000D01*
G01*
X119400000Y-110495000D01*
G75*
G02*
X119200000Y-110695000I-200000J0D01*
G01*
X118800000Y-110695000D01*
G75*
G02*
X118600000Y-110495000I0J200000D01*
G01*
G37*
G36*
G01*
X119600000Y-111495000D02*
X119600000Y-111095000D01*
G75*
G02*
X119800000Y-110895000I200000J0D01*
G01*
X120200000Y-110895000D01*
G75*
G02*
X120400000Y-111095000I0J-200000D01*
G01*
X120400000Y-111495000D01*
G75*
G02*
X120200000Y-111695000I-200000J0D01*
G01*
X119800000Y-111695000D01*
G75*
G02*
X119600000Y-111495000I0J200000D01*
G01*
G37*
G36*
G01*
X116600000Y-109495000D02*
X116600000Y-109095000D01*
G75*
G02*
X116800000Y-108895000I200000J0D01*
G01*
X117200000Y-108895000D01*
G75*
G02*
X117400000Y-109095000I0J-200000D01*
G01*
X117400000Y-109495000D01*
G75*
G02*
X117200000Y-109695000I-200000J0D01*
G01*
X116800000Y-109695000D01*
G75*
G02*
X116600000Y-109495000I0J200000D01*
G01*
G37*
G36*
G01*
X117600000Y-109495000D02*
X117600000Y-109095000D01*
G75*
G02*
X117800000Y-108895000I200000J0D01*
G01*
X118200000Y-108895000D01*
G75*
G02*
X118400000Y-109095000I0J-200000D01*
G01*
X118400000Y-109495000D01*
G75*
G02*
X118200000Y-109695000I-200000J0D01*
G01*
X117800000Y-109695000D01*
G75*
G02*
X117600000Y-109495000I0J200000D01*
G01*
G37*
G36*
G01*
X119600000Y-109495000D02*
X119600000Y-109095000D01*
G75*
G02*
X119800000Y-108895000I200000J0D01*
G01*
X120200000Y-108895000D01*
G75*
G02*
X120400000Y-109095000I0J-200000D01*
G01*
X120400000Y-109495000D01*
G75*
G02*
X120200000Y-109695000I-200000J0D01*
G01*
X119800000Y-109695000D01*
G75*
G02*
X119600000Y-109495000I0J200000D01*
G01*
G37*
G36*
G01*
X118600000Y-109495000D02*
X118600000Y-109095000D01*
G75*
G02*
X118800000Y-108895000I200000J0D01*
G01*
X119200000Y-108895000D01*
G75*
G02*
X119400000Y-109095000I0J-200000D01*
G01*
X119400000Y-109495000D01*
G75*
G02*
X119200000Y-109695000I-200000J0D01*
G01*
X118800000Y-109695000D01*
G75*
G02*
X118600000Y-109495000I0J200000D01*
G01*
G37*
G36*
G01*
X118600000Y-108495000D02*
X118600000Y-108095000D01*
G75*
G02*
X118800000Y-107895000I200000J0D01*
G01*
X119200000Y-107895000D01*
G75*
G02*
X119400000Y-108095000I0J-200000D01*
G01*
X119400000Y-108495000D01*
G75*
G02*
X119200000Y-108695000I-200000J0D01*
G01*
X118800000Y-108695000D01*
G75*
G02*
X118600000Y-108495000I0J200000D01*
G01*
G37*
G36*
G01*
X119600000Y-108495000D02*
X119600000Y-108095000D01*
G75*
G02*
X119800000Y-107895000I200000J0D01*
G01*
X120200000Y-107895000D01*
G75*
G02*
X120400000Y-108095000I0J-200000D01*
G01*
X120400000Y-108495000D01*
G75*
G02*
X120200000Y-108695000I-200000J0D01*
G01*
X119800000Y-108695000D01*
G75*
G02*
X119600000Y-108495000I0J200000D01*
G01*
G37*
G36*
G01*
X117600000Y-108495000D02*
X117600000Y-108095000D01*
G75*
G02*
X117800000Y-107895000I200000J0D01*
G01*
X118200000Y-107895000D01*
G75*
G02*
X118400000Y-108095000I0J-200000D01*
G01*
X118400000Y-108495000D01*
G75*
G02*
X118200000Y-108695000I-200000J0D01*
G01*
X117800000Y-108695000D01*
G75*
G02*
X117600000Y-108495000I0J200000D01*
G01*
G37*
G36*
G01*
X116600000Y-108495000D02*
X116600000Y-108095000D01*
G75*
G02*
X116800000Y-107895000I200000J0D01*
G01*
X117200000Y-107895000D01*
G75*
G02*
X117400000Y-108095000I0J-200000D01*
G01*
X117400000Y-108495000D01*
G75*
G02*
X117200000Y-108695000I-200000J0D01*
G01*
X116800000Y-108695000D01*
G75*
G02*
X116600000Y-108495000I0J200000D01*
G01*
G37*
D10*
X128000000Y-102295000D03*
X128000000Y-103565000D03*
X128000000Y-104835000D03*
X128000000Y-106105000D03*
X128000000Y-107375000D03*
X128000000Y-108645000D03*
X128000000Y-109915000D03*
X128000000Y-111185000D03*
X128000000Y-112455000D03*
X128000000Y-113725000D03*
X128000000Y-114995000D03*
X128000000Y-116265000D03*
X128000000Y-117535000D03*
X128000000Y-118805000D03*
D11*
X125215000Y-119805000D03*
X123945000Y-119805000D03*
X122675000Y-119805000D03*
X121405000Y-119805000D03*
X120135000Y-119805000D03*
X118865000Y-119805000D03*
X117595000Y-119805000D03*
X116325000Y-119805000D03*
X115055000Y-119805000D03*
X113785000Y-119805000D03*
D10*
X111000000Y-118805000D03*
X111000000Y-117535000D03*
X111000000Y-116265000D03*
X111000000Y-114995000D03*
X111000000Y-113725000D03*
X111000000Y-112455000D03*
X111000000Y-111185000D03*
X111000000Y-109915000D03*
X111000000Y-108645000D03*
X111000000Y-107375000D03*
X111000000Y-106105000D03*
X111000000Y-104835000D03*
X111000000Y-103565000D03*
X111000000Y-102295000D03*
%TD*%
M02*
