%TF.GenerationSoftware,KiCad,Pcbnew,(5.1.9-0-10_14)*%
%TF.CreationDate,2021-04-23T15:59:11+01:00*%
%TF.ProjectId,Generic,47656e65-7269-4632-9e6b-696361645f70,3*%
%TF.SameCoordinates,Original*%
%TF.FileFunction,Copper,L2,Bot*%
%TF.FilePolarity,Positive*%
%FSLAX46Y46*%
G04 Gerber Fmt 4.6, Leading zero omitted, Abs format (unit mm)*
G04 Created by KiCad (PCBNEW (5.1.9-0-10_14)) date 2021-04-23 15:59:11*
%MOMM*%
%LPD*%
G01*
G04 APERTURE LIST*
%TA.AperFunction,EtchedComponent*%
%ADD10C,0.200000*%
%TD*%
%TA.AperFunction,ComponentPad*%
%ADD11C,1.524000*%
%TD*%
%TA.AperFunction,SMDPad,CuDef*%
%ADD12R,0.200000X0.200000*%
%TD*%
%TA.AperFunction,SMDPad,CuDef*%
%ADD13C,0.500000*%
%TD*%
%TA.AperFunction,SMDPad,CuDef*%
%ADD14R,2.500000X2.500000*%
%TD*%
%TA.AperFunction,SMDPad,CuDef*%
%ADD15C,1.700000*%
%TD*%
%TA.AperFunction,ComponentPad*%
%ADD16R,1.524000X1.524000*%
%TD*%
%TA.AperFunction,ComponentPad*%
%ADD17O,1.700000X1.700000*%
%TD*%
%TA.AperFunction,ComponentPad*%
%ADD18R,1.700000X1.700000*%
%TD*%
%TA.AperFunction,SMDPad,CuDef*%
%ADD19R,5.490000X8.340000*%
%TD*%
%TA.AperFunction,SMDPad,CuDef*%
%ADD20R,1.140000X0.600000*%
%TD*%
%TA.AperFunction,ComponentPad*%
%ADD21C,1.700000*%
%TD*%
%TA.AperFunction,ComponentPad*%
%ADD22C,2.000000*%
%TD*%
%TA.AperFunction,SMDPad,CuDef*%
%ADD23R,1.140000X0.300000*%
%TD*%
%TA.AperFunction,ComponentPad*%
%ADD24C,0.600000*%
%TD*%
%TA.AperFunction,ComponentPad*%
%ADD25O,1.700000X1.850000*%
%TD*%
%TA.AperFunction,ViaPad*%
%ADD26C,0.800000*%
%TD*%
%TA.AperFunction,Conductor*%
%ADD27C,0.250000*%
%TD*%
%TA.AperFunction,Conductor*%
%ADD28C,0.254000*%
%TD*%
%TA.AperFunction,Conductor*%
%ADD29C,0.100000*%
%TD*%
G04 APERTURE END LIST*
D10*
%TO.C,AJK1*%
X128167650Y-108464120D02*
X124050000Y-111405300D01*
X128167650Y-111405300D02*
X128687579Y-111189938D01*
X124050000Y-111405300D02*
X128167650Y-111405300D01*
X128902940Y-110670006D02*
X128687579Y-110150074D01*
X128687579Y-111189938D02*
X128902940Y-110670006D01*
X128687579Y-110150074D02*
X128167650Y-109934712D01*
X126108820Y-111405290D02*
X128167650Y-113170000D01*
X126109000Y-111405300D02*
X126109000Y-109934700D01*
X124050000Y-113170000D02*
X126108820Y-111405290D01*
%TD*%
D11*
%TO.P,U2,21*%
%TO.N,GND*%
X120875000Y-117025000D03*
D12*
%TO.P,U2,~*%
%TO.N,N/C*%
X122875000Y-119025000D03*
X118875000Y-115025000D03*
X118875000Y-119025000D03*
X122875000Y-115025000D03*
D13*
X122875000Y-119025000D03*
D14*
%TO.P,U2,21*%
%TO.N,GND*%
X120875000Y-117025000D03*
%TO.P,U2,20*%
%TO.N,+3V3*%
%TA.AperFunction,SMDPad,CuDef*%
G36*
G01*
X123337500Y-118150000D02*
X122462500Y-118150000D01*
G75*
G02*
X122400000Y-118087500I0J62500D01*
G01*
X122400000Y-117962500D01*
G75*
G02*
X122462500Y-117900000I62500J0D01*
G01*
X123337500Y-117900000D01*
G75*
G02*
X123400000Y-117962500I0J-62500D01*
G01*
X123400000Y-118087500D01*
G75*
G02*
X123337500Y-118150000I-62500J0D01*
G01*
G37*
%TD.AperFunction*%
%TO.P,U2,19*%
%TO.N,EN*%
%TA.AperFunction,SMDPad,CuDef*%
G36*
G01*
X123337500Y-117650000D02*
X122462500Y-117650000D01*
G75*
G02*
X122400000Y-117587500I0J62500D01*
G01*
X122400000Y-117462500D01*
G75*
G02*
X122462500Y-117400000I62500J0D01*
G01*
X123337500Y-117400000D01*
G75*
G02*
X123400000Y-117462500I0J-62500D01*
G01*
X123400000Y-117587500D01*
G75*
G02*
X123337500Y-117650000I-62500J0D01*
G01*
G37*
%TD.AperFunction*%
%TO.P,U2,18*%
%TO.N,GPIO0*%
%TA.AperFunction,SMDPad,CuDef*%
G36*
G01*
X123337500Y-117150000D02*
X122462500Y-117150000D01*
G75*
G02*
X122400000Y-117087500I0J62500D01*
G01*
X122400000Y-116962500D01*
G75*
G02*
X122462500Y-116900000I62500J0D01*
G01*
X123337500Y-116900000D01*
G75*
G02*
X123400000Y-116962500I0J-62500D01*
G01*
X123400000Y-117087500D01*
G75*
G02*
X123337500Y-117150000I-62500J0D01*
G01*
G37*
%TD.AperFunction*%
%TO.P,U2,17*%
%TO.N,I*%
%TA.AperFunction,SMDPad,CuDef*%
G36*
G01*
X123337500Y-116650000D02*
X122462500Y-116650000D01*
G75*
G02*
X122400000Y-116587500I0J62500D01*
G01*
X122400000Y-116462500D01*
G75*
G02*
X122462500Y-116400000I62500J0D01*
G01*
X123337500Y-116400000D01*
G75*
G02*
X123400000Y-116462500I0J-62500D01*
G01*
X123400000Y-116587500D01*
G75*
G02*
X123337500Y-116650000I-62500J0D01*
G01*
G37*
%TD.AperFunction*%
%TO.P,U2,16*%
%TO.N,Net-(U2-Pad16)*%
%TA.AperFunction,SMDPad,CuDef*%
G36*
G01*
X123337500Y-116150000D02*
X122462500Y-116150000D01*
G75*
G02*
X122400000Y-116087500I0J62500D01*
G01*
X122400000Y-115962500D01*
G75*
G02*
X122462500Y-115900000I62500J0D01*
G01*
X123337500Y-115900000D01*
G75*
G02*
X123400000Y-115962500I0J-62500D01*
G01*
X123400000Y-116087500D01*
G75*
G02*
X123337500Y-116150000I-62500J0D01*
G01*
G37*
%TD.AperFunction*%
%TO.P,U2,15*%
%TO.N,Net-(U2-Pad15)*%
%TA.AperFunction,SMDPad,CuDef*%
G36*
G01*
X121937500Y-115500000D02*
X121812500Y-115500000D01*
G75*
G02*
X121750000Y-115437500I0J62500D01*
G01*
X121750000Y-114562500D01*
G75*
G02*
X121812500Y-114500000I62500J0D01*
G01*
X121937500Y-114500000D01*
G75*
G02*
X122000000Y-114562500I0J-62500D01*
G01*
X122000000Y-115437500D01*
G75*
G02*
X121937500Y-115500000I-62500J0D01*
G01*
G37*
%TD.AperFunction*%
%TO.P,U2,14*%
%TO.N,Net-(U2-Pad14)*%
%TA.AperFunction,SMDPad,CuDef*%
G36*
G01*
X121437500Y-115500000D02*
X121312500Y-115500000D01*
G75*
G02*
X121250000Y-115437500I0J62500D01*
G01*
X121250000Y-114562500D01*
G75*
G02*
X121312500Y-114500000I62500J0D01*
G01*
X121437500Y-114500000D01*
G75*
G02*
X121500000Y-114562500I0J-62500D01*
G01*
X121500000Y-115437500D01*
G75*
G02*
X121437500Y-115500000I-62500J0D01*
G01*
G37*
%TD.AperFunction*%
%TO.P,U2,13*%
%TO.N,GND*%
%TA.AperFunction,SMDPad,CuDef*%
G36*
G01*
X120937500Y-115500000D02*
X120812500Y-115500000D01*
G75*
G02*
X120750000Y-115437500I0J62500D01*
G01*
X120750000Y-114562500D01*
G75*
G02*
X120812500Y-114500000I62500J0D01*
G01*
X120937500Y-114500000D01*
G75*
G02*
X121000000Y-114562500I0J-62500D01*
G01*
X121000000Y-115437500D01*
G75*
G02*
X120937500Y-115500000I-62500J0D01*
G01*
G37*
%TD.AperFunction*%
%TO.P,U2,12*%
%TO.N,+3V3*%
%TA.AperFunction,SMDPad,CuDef*%
G36*
G01*
X120437500Y-115500000D02*
X120312500Y-115500000D01*
G75*
G02*
X120250000Y-115437500I0J62500D01*
G01*
X120250000Y-114562500D01*
G75*
G02*
X120312500Y-114500000I62500J0D01*
G01*
X120437500Y-114500000D01*
G75*
G02*
X120500000Y-114562500I0J-62500D01*
G01*
X120500000Y-115437500D01*
G75*
G02*
X120437500Y-115500000I-62500J0D01*
G01*
G37*
%TD.AperFunction*%
%TO.P,U2,11*%
%TA.AperFunction,SMDPad,CuDef*%
G36*
G01*
X119937500Y-115500000D02*
X119812500Y-115500000D01*
G75*
G02*
X119750000Y-115437500I0J62500D01*
G01*
X119750000Y-114562500D01*
G75*
G02*
X119812500Y-114500000I62500J0D01*
G01*
X119937500Y-114500000D01*
G75*
G02*
X120000000Y-114562500I0J-62500D01*
G01*
X120000000Y-115437500D01*
G75*
G02*
X119937500Y-115500000I-62500J0D01*
G01*
G37*
%TD.AperFunction*%
%TO.P,U2,10*%
%TA.AperFunction,SMDPad,CuDef*%
G36*
G01*
X119287500Y-116150000D02*
X118412500Y-116150000D01*
G75*
G02*
X118350000Y-116087500I0J62500D01*
G01*
X118350000Y-115962500D01*
G75*
G02*
X118412500Y-115900000I62500J0D01*
G01*
X119287500Y-115900000D01*
G75*
G02*
X119350000Y-115962500I0J-62500D01*
G01*
X119350000Y-116087500D01*
G75*
G02*
X119287500Y-116150000I-62500J0D01*
G01*
G37*
%TD.AperFunction*%
%TO.P,U2,9*%
%TO.N,D-*%
%TA.AperFunction,SMDPad,CuDef*%
G36*
G01*
X119287500Y-116650000D02*
X118412500Y-116650000D01*
G75*
G02*
X118350000Y-116587500I0J62500D01*
G01*
X118350000Y-116462500D01*
G75*
G02*
X118412500Y-116400000I62500J0D01*
G01*
X119287500Y-116400000D01*
G75*
G02*
X119350000Y-116462500I0J-62500D01*
G01*
X119350000Y-116587500D01*
G75*
G02*
X119287500Y-116650000I-62500J0D01*
G01*
G37*
%TD.AperFunction*%
%TO.P,U2,8*%
%TO.N,D+*%
%TA.AperFunction,SMDPad,CuDef*%
G36*
G01*
X119287500Y-117150000D02*
X118412500Y-117150000D01*
G75*
G02*
X118350000Y-117087500I0J62500D01*
G01*
X118350000Y-116962500D01*
G75*
G02*
X118412500Y-116900000I62500J0D01*
G01*
X119287500Y-116900000D01*
G75*
G02*
X119350000Y-116962500I0J-62500D01*
G01*
X119350000Y-117087500D01*
G75*
G02*
X119287500Y-117150000I-62500J0D01*
G01*
G37*
%TD.AperFunction*%
%TO.P,U2,7*%
%TO.N,Net-(U2-Pad7)*%
%TA.AperFunction,SMDPad,CuDef*%
G36*
G01*
X119287500Y-117650000D02*
X118412500Y-117650000D01*
G75*
G02*
X118350000Y-117587500I0J62500D01*
G01*
X118350000Y-117462500D01*
G75*
G02*
X118412500Y-117400000I62500J0D01*
G01*
X119287500Y-117400000D01*
G75*
G02*
X119350000Y-117462500I0J-62500D01*
G01*
X119350000Y-117587500D01*
G75*
G02*
X119287500Y-117650000I-62500J0D01*
G01*
G37*
%TD.AperFunction*%
%TO.P,U2,6*%
%TO.N,GND*%
%TA.AperFunction,SMDPad,CuDef*%
G36*
G01*
X119287500Y-118150000D02*
X118412500Y-118150000D01*
G75*
G02*
X118350000Y-118087500I0J62500D01*
G01*
X118350000Y-117962500D01*
G75*
G02*
X118412500Y-117900000I62500J0D01*
G01*
X119287500Y-117900000D01*
G75*
G02*
X119350000Y-117962500I0J-62500D01*
G01*
X119350000Y-118087500D01*
G75*
G02*
X119287500Y-118150000I-62500J0D01*
G01*
G37*
%TD.AperFunction*%
%TO.P,U2,5*%
%TA.AperFunction,SMDPad,CuDef*%
G36*
G01*
X119937500Y-119550000D02*
X119812500Y-119550000D01*
G75*
G02*
X119750000Y-119487500I0J62500D01*
G01*
X119750000Y-118612500D01*
G75*
G02*
X119812500Y-118550000I62500J0D01*
G01*
X119937500Y-118550000D01*
G75*
G02*
X120000000Y-118612500I0J-62500D01*
G01*
X120000000Y-119487500D01*
G75*
G02*
X119937500Y-119550000I-62500J0D01*
G01*
G37*
%TD.AperFunction*%
%TO.P,U2,4*%
%TA.AperFunction,SMDPad,CuDef*%
G36*
G01*
X120437500Y-119550000D02*
X120312500Y-119550000D01*
G75*
G02*
X120250000Y-119487500I0J62500D01*
G01*
X120250000Y-118612500D01*
G75*
G02*
X120312500Y-118550000I62500J0D01*
G01*
X120437500Y-118550000D01*
G75*
G02*
X120500000Y-118612500I0J-62500D01*
G01*
X120500000Y-119487500D01*
G75*
G02*
X120437500Y-119550000I-62500J0D01*
G01*
G37*
%TD.AperFunction*%
%TO.P,U2,3*%
%TA.AperFunction,SMDPad,CuDef*%
G36*
G01*
X120937500Y-119550000D02*
X120812500Y-119550000D01*
G75*
G02*
X120750000Y-119487500I0J62500D01*
G01*
X120750000Y-118612500D01*
G75*
G02*
X120812500Y-118550000I62500J0D01*
G01*
X120937500Y-118550000D01*
G75*
G02*
X121000000Y-118612500I0J-62500D01*
G01*
X121000000Y-119487500D01*
G75*
G02*
X120937500Y-119550000I-62500J0D01*
G01*
G37*
%TD.AperFunction*%
%TO.P,U2,2*%
%TA.AperFunction,SMDPad,CuDef*%
G36*
G01*
X121437500Y-119550000D02*
X121312500Y-119550000D01*
G75*
G02*
X121250000Y-119487500I0J62500D01*
G01*
X121250000Y-118612500D01*
G75*
G02*
X121312500Y-118550000I62500J0D01*
G01*
X121437500Y-118550000D01*
G75*
G02*
X121500000Y-118612500I0J-62500D01*
G01*
X121500000Y-119487500D01*
G75*
G02*
X121437500Y-119550000I-62500J0D01*
G01*
G37*
%TD.AperFunction*%
%TO.P,U2,1*%
%TO.N,O*%
%TA.AperFunction,SMDPad,CuDef*%
G36*
G01*
X121937500Y-119550000D02*
X121812500Y-119550000D01*
G75*
G02*
X121750000Y-119487500I0J62500D01*
G01*
X121750000Y-118612500D01*
G75*
G02*
X121812500Y-118550000I62500J0D01*
G01*
X121937500Y-118550000D01*
G75*
G02*
X122000000Y-118612500I0J-62500D01*
G01*
X122000000Y-119487500D01*
G75*
G02*
X121937500Y-119550000I-62500J0D01*
G01*
G37*
%TD.AperFunction*%
%TD*%
%TO.P,C1,2*%
%TO.N,IO1*%
%TA.AperFunction,SMDPad,CuDef*%
G36*
G01*
X113662500Y-120850003D02*
X113662500Y-119549997D01*
G75*
G02*
X113912497Y-119300000I249997J0D01*
G01*
X114737503Y-119300000D01*
G75*
G02*
X114987500Y-119549997I0J-249997D01*
G01*
X114987500Y-120850003D01*
G75*
G02*
X114737503Y-121100000I-249997J0D01*
G01*
X113912497Y-121100000D01*
G75*
G02*
X113662500Y-120850003I0J249997D01*
G01*
G37*
%TD.AperFunction*%
%TO.P,C1,1*%
%TO.N,GND*%
%TA.AperFunction,SMDPad,CuDef*%
G36*
G01*
X110537500Y-120850003D02*
X110537500Y-119549997D01*
G75*
G02*
X110787497Y-119300000I249997J0D01*
G01*
X111612503Y-119300000D01*
G75*
G02*
X111862500Y-119549997I0J-249997D01*
G01*
X111862500Y-120850003D01*
G75*
G02*
X111612503Y-121100000I-249997J0D01*
G01*
X110787497Y-121100000D01*
G75*
G02*
X110537500Y-120850003I0J249997D01*
G01*
G37*
%TD.AperFunction*%
%TD*%
%TO.P,R6,2*%
%TO.N,Net-(J1-Pad6)*%
%TA.AperFunction,SMDPad,CuDef*%
G36*
G01*
X125500000Y-119574999D02*
X125500000Y-120825001D01*
G75*
G02*
X125250001Y-121075000I-249999J0D01*
G01*
X124449999Y-121075000D01*
G75*
G02*
X124200000Y-120825001I0J249999D01*
G01*
X124200000Y-119574999D01*
G75*
G02*
X124449999Y-119325000I249999J0D01*
G01*
X125250001Y-119325000D01*
G75*
G02*
X125500000Y-119574999I0J-249999D01*
G01*
G37*
%TD.AperFunction*%
%TO.P,R6,1*%
%TO.N,IO5*%
%TA.AperFunction,SMDPad,CuDef*%
G36*
G01*
X128600000Y-119574999D02*
X128600000Y-120825001D01*
G75*
G02*
X128350001Y-121075000I-249999J0D01*
G01*
X127549999Y-121075000D01*
G75*
G02*
X127300000Y-120825001I0J249999D01*
G01*
X127300000Y-119574999D01*
G75*
G02*
X127549999Y-119325000I249999J0D01*
G01*
X128350001Y-119325000D01*
G75*
G02*
X128600000Y-119574999I0J-249999D01*
G01*
G37*
%TD.AperFunction*%
%TD*%
D15*
%TO.P,M1,1*%
%TO.N,Net-(M1-Pad1)*%
X119990000Y-102270000D03*
%TO.P,M1,4*%
%TO.N,+3V3*%
X127610000Y-102270000D03*
D16*
%TO.P,M1,3*%
%TO.N,GND*%
X125070000Y-102270000D03*
D15*
%TO.P,M1,2*%
%TO.N,VBUS*%
X122530000Y-102270000D03*
%TD*%
D17*
%TO.P,J3,2*%
%TO.N,VBUS*%
X112200000Y-125660000D03*
D18*
%TO.P,J3,1*%
%TO.N,GND*%
X112200000Y-128200000D03*
%TD*%
%TO.P,R5,2*%
%TO.N,Net-(J1-Pad6)*%
%TA.AperFunction,SMDPad,CuDef*%
G36*
G01*
X127125001Y-125850000D02*
X125874999Y-125850000D01*
G75*
G02*
X125625000Y-125600001I0J249999D01*
G01*
X125625000Y-124799999D01*
G75*
G02*
X125874999Y-124550000I249999J0D01*
G01*
X127125001Y-124550000D01*
G75*
G02*
X127375000Y-124799999I0J-249999D01*
G01*
X127375000Y-125600001D01*
G75*
G02*
X127125001Y-125850000I-249999J0D01*
G01*
G37*
%TD.AperFunction*%
%TO.P,R5,1*%
%TO.N,VBUS*%
%TA.AperFunction,SMDPad,CuDef*%
G36*
G01*
X127125001Y-128950000D02*
X125874999Y-128950000D01*
G75*
G02*
X125625000Y-128700001I0J249999D01*
G01*
X125625000Y-127899999D01*
G75*
G02*
X125874999Y-127650000I249999J0D01*
G01*
X127125001Y-127650000D01*
G75*
G02*
X127375000Y-127899999I0J-249999D01*
G01*
X127375000Y-128700001D01*
G75*
G02*
X127125001Y-128950000I-249999J0D01*
G01*
G37*
%TD.AperFunction*%
%TD*%
%TO.P,R4,2*%
%TO.N,IO4*%
%TA.AperFunction,SMDPad,CuDef*%
G36*
G01*
X123855001Y-125850000D02*
X122604999Y-125850000D01*
G75*
G02*
X122355000Y-125600001I0J249999D01*
G01*
X122355000Y-124799999D01*
G75*
G02*
X122604999Y-124550000I249999J0D01*
G01*
X123855001Y-124550000D01*
G75*
G02*
X124105000Y-124799999I0J-249999D01*
G01*
X124105000Y-125600001D01*
G75*
G02*
X123855001Y-125850000I-249999J0D01*
G01*
G37*
%TD.AperFunction*%
%TO.P,R4,1*%
%TO.N,+3V3*%
%TA.AperFunction,SMDPad,CuDef*%
G36*
G01*
X123855001Y-128950000D02*
X122604999Y-128950000D01*
G75*
G02*
X122355000Y-128700001I0J249999D01*
G01*
X122355000Y-127899999D01*
G75*
G02*
X122604999Y-127650000I249999J0D01*
G01*
X123855001Y-127650000D01*
G75*
G02*
X124105000Y-127899999I0J-249999D01*
G01*
X124105000Y-128700001D01*
G75*
G02*
X123855001Y-128950000I-249999J0D01*
G01*
G37*
%TD.AperFunction*%
%TD*%
%TO.P,R3,2*%
%TO.N,IO3*%
%TA.AperFunction,SMDPad,CuDef*%
G36*
G01*
X121355001Y-125850000D02*
X120104999Y-125850000D01*
G75*
G02*
X119855000Y-125600001I0J249999D01*
G01*
X119855000Y-124799999D01*
G75*
G02*
X120104999Y-124550000I249999J0D01*
G01*
X121355001Y-124550000D01*
G75*
G02*
X121605000Y-124799999I0J-249999D01*
G01*
X121605000Y-125600001D01*
G75*
G02*
X121355001Y-125850000I-249999J0D01*
G01*
G37*
%TD.AperFunction*%
%TO.P,R3,1*%
%TO.N,+3V3*%
%TA.AperFunction,SMDPad,CuDef*%
G36*
G01*
X121355001Y-128950000D02*
X120104999Y-128950000D01*
G75*
G02*
X119855000Y-128700001I0J249999D01*
G01*
X119855000Y-127899999D01*
G75*
G02*
X120104999Y-127650000I249999J0D01*
G01*
X121355001Y-127650000D01*
G75*
G02*
X121605000Y-127899999I0J-249999D01*
G01*
X121605000Y-128700001D01*
G75*
G02*
X121355001Y-128950000I-249999J0D01*
G01*
G37*
%TD.AperFunction*%
%TD*%
%TO.P,R2,2*%
%TO.N,IO2*%
%TA.AperFunction,SMDPad,CuDef*%
G36*
G01*
X118855001Y-125850000D02*
X117604999Y-125850000D01*
G75*
G02*
X117355000Y-125600001I0J249999D01*
G01*
X117355000Y-124799999D01*
G75*
G02*
X117604999Y-124550000I249999J0D01*
G01*
X118855001Y-124550000D01*
G75*
G02*
X119105000Y-124799999I0J-249999D01*
G01*
X119105000Y-125600001D01*
G75*
G02*
X118855001Y-125850000I-249999J0D01*
G01*
G37*
%TD.AperFunction*%
%TO.P,R2,1*%
%TO.N,+3V3*%
%TA.AperFunction,SMDPad,CuDef*%
G36*
G01*
X118855001Y-128950000D02*
X117604999Y-128950000D01*
G75*
G02*
X117355000Y-128700001I0J249999D01*
G01*
X117355000Y-127899999D01*
G75*
G02*
X117604999Y-127650000I249999J0D01*
G01*
X118855001Y-127650000D01*
G75*
G02*
X119105000Y-127899999I0J-249999D01*
G01*
X119105000Y-128700001D01*
G75*
G02*
X118855001Y-128950000I-249999J0D01*
G01*
G37*
%TD.AperFunction*%
%TD*%
%TO.P,R1,2*%
%TO.N,IO1*%
%TA.AperFunction,SMDPad,CuDef*%
G36*
G01*
X116355001Y-125850000D02*
X115104999Y-125850000D01*
G75*
G02*
X114855000Y-125600001I0J249999D01*
G01*
X114855000Y-124799999D01*
G75*
G02*
X115104999Y-124550000I249999J0D01*
G01*
X116355001Y-124550000D01*
G75*
G02*
X116605000Y-124799999I0J-249999D01*
G01*
X116605000Y-125600001D01*
G75*
G02*
X116355001Y-125850000I-249999J0D01*
G01*
G37*
%TD.AperFunction*%
%TO.P,R1,1*%
%TO.N,+3V3*%
%TA.AperFunction,SMDPad,CuDef*%
G36*
G01*
X116355001Y-128950000D02*
X115104999Y-128950000D01*
G75*
G02*
X114855000Y-128700001I0J249999D01*
G01*
X114855000Y-127899999D01*
G75*
G02*
X115104999Y-127650000I249999J0D01*
G01*
X116355001Y-127650000D01*
G75*
G02*
X116605000Y-127899999I0J-249999D01*
G01*
X116605000Y-128700001D01*
G75*
G02*
X116355001Y-128950000I-249999J0D01*
G01*
G37*
%TD.AperFunction*%
%TD*%
D19*
%TO.P,J2,S1*%
%TO.N,GND*%
X112545000Y-111200000D03*
D20*
%TO.P,J2,A12*%
X116660000Y-108000000D03*
%TO.P,J2,A4*%
%TO.N,VBUS*%
X116660000Y-113600000D03*
%TO.P,J2,B12*%
%TO.N,GND*%
X116660000Y-114400000D03*
%TO.P,J2,B4*%
%TO.N,VBUS*%
X116660000Y-108800000D03*
D21*
%TO.P,J2,S1*%
%TO.N,GND*%
X111890000Y-106875000D03*
X111890000Y-115525000D03*
D22*
X116070000Y-106875000D03*
X116070000Y-115525000D03*
D23*
%TO.P,J2,A7*%
%TO.N,D-*%
X116660000Y-110950000D03*
%TO.P,J2,A6*%
%TO.N,D+*%
X116660000Y-111450000D03*
%TO.P,J2,B6*%
X116660000Y-110450000D03*
%TO.P,J2,B7*%
%TO.N,D-*%
X116660000Y-111950000D03*
%TO.P,J2,A8*%
%TO.N,Net-(J2-PadA8)*%
X116660000Y-109950000D03*
%TO.P,J2,A5*%
%TO.N,Net-(J2-PadA5)*%
X116660000Y-112450000D03*
%TO.P,J2,B5*%
%TO.N,Net-(J2-PadB5)*%
X116660000Y-109450000D03*
%TO.P,J2,B8*%
%TO.N,Net-(J2-PadB8)*%
X116660000Y-112950000D03*
D20*
%TO.P,J2,A9*%
%TO.N,VBUS*%
X116660000Y-108800000D03*
%TO.P,J2,B9*%
X116660000Y-113600000D03*
%TO.P,J2,B1*%
%TO.N,GND*%
X116660000Y-108000000D03*
D24*
%TO.P,J2,S1*%
X115590000Y-108310000D03*
X115590000Y-114090000D03*
D20*
%TO.P,J2,A1*%
X116660000Y-114400000D03*
%TD*%
%TO.P,R8,2*%
%TO.N,Net-(J2-PadB5)*%
%TA.AperFunction,SMDPad,CuDef*%
G36*
G01*
X113550000Y-105375001D02*
X113550000Y-104124999D01*
G75*
G02*
X113799999Y-103875000I249999J0D01*
G01*
X114600001Y-103875000D01*
G75*
G02*
X114850000Y-104124999I0J-249999D01*
G01*
X114850000Y-105375001D01*
G75*
G02*
X114600001Y-105625000I-249999J0D01*
G01*
X113799999Y-105625000D01*
G75*
G02*
X113550000Y-105375001I0J249999D01*
G01*
G37*
%TD.AperFunction*%
%TO.P,R8,1*%
%TO.N,GND*%
%TA.AperFunction,SMDPad,CuDef*%
G36*
G01*
X110450000Y-105375001D02*
X110450000Y-104124999D01*
G75*
G02*
X110699999Y-103875000I249999J0D01*
G01*
X111500001Y-103875000D01*
G75*
G02*
X111750000Y-104124999I0J-249999D01*
G01*
X111750000Y-105375001D01*
G75*
G02*
X111500001Y-105625000I-249999J0D01*
G01*
X110699999Y-105625000D01*
G75*
G02*
X110450000Y-105375001I0J249999D01*
G01*
G37*
%TD.AperFunction*%
%TD*%
%TO.P,R7,2*%
%TO.N,GND*%
%TA.AperFunction,SMDPad,CuDef*%
G36*
G01*
X111750000Y-101674999D02*
X111750000Y-102925001D01*
G75*
G02*
X111500001Y-103175000I-249999J0D01*
G01*
X110699999Y-103175000D01*
G75*
G02*
X110450000Y-102925001I0J249999D01*
G01*
X110450000Y-101674999D01*
G75*
G02*
X110699999Y-101425000I249999J0D01*
G01*
X111500001Y-101425000D01*
G75*
G02*
X111750000Y-101674999I0J-249999D01*
G01*
G37*
%TD.AperFunction*%
%TO.P,R7,1*%
%TO.N,Net-(J2-PadA5)*%
%TA.AperFunction,SMDPad,CuDef*%
G36*
G01*
X114850000Y-101674999D02*
X114850000Y-102925001D01*
G75*
G02*
X114600001Y-103175000I-249999J0D01*
G01*
X113799999Y-103175000D01*
G75*
G02*
X113550000Y-102925001I0J249999D01*
G01*
X113550000Y-101674999D01*
G75*
G02*
X113799999Y-101425000I249999J0D01*
G01*
X114600001Y-101425000D01*
G75*
G02*
X114850000Y-101674999I0J-249999D01*
G01*
G37*
%TD.AperFunction*%
%TD*%
D25*
%TO.P,J1,6*%
%TO.N,Net-(J1-Pad6)*%
X125730000Y-122900000D03*
%TO.P,J1,5*%
%TO.N,IO4*%
X123230000Y-122900000D03*
%TO.P,J1,4*%
%TO.N,IO3*%
X120730000Y-122900000D03*
%TO.P,J1,3*%
%TO.N,IO2*%
X118230000Y-122900000D03*
%TO.P,J1,2*%
%TO.N,IO1*%
X115730000Y-122900000D03*
%TO.P,J1,1*%
%TO.N,GND*%
%TA.AperFunction,ComponentPad*%
G36*
G01*
X112380000Y-123575000D02*
X112380000Y-122225000D01*
G75*
G02*
X112630000Y-121975000I250000J0D01*
G01*
X113830000Y-121975000D01*
G75*
G02*
X114080000Y-122225000I0J-250000D01*
G01*
X114080000Y-123575000D01*
G75*
G02*
X113830000Y-123825000I-250000J0D01*
G01*
X112630000Y-123825000D01*
G75*
G02*
X112380000Y-123575000I0J250000D01*
G01*
G37*
%TD.AperFunction*%
%TD*%
D26*
%TO.N,D+*%
X118176034Y-105838698D03*
X117348862Y-116509722D03*
%TO.N,GND*%
X112650000Y-102300000D03*
X111000000Y-116265000D03*
%TO.N,D-*%
X121572067Y-106048231D03*
X124128243Y-107002005D03*
X119619324Y-105796038D03*
%TO.N,+3V3*%
X126000000Y-104300000D03*
X113629916Y-126374388D03*
X123800000Y-118204998D03*
X125622974Y-106870512D03*
%TO.N,VBUS*%
X126500000Y-128300000D03*
X118147812Y-113780212D03*
%TO.N,IO5*%
X128000000Y-117535000D03*
%TO.N,O*%
X115304100Y-117724645D03*
%TO.N,I*%
X126412660Y-107487340D03*
%TO.N,EN*%
X112710202Y-116755063D03*
%TO.N,GPIO0*%
X126400000Y-117900000D03*
%TO.N,Net-(U1-Pad13)*%
X113864025Y-116264025D03*
%TD*%
D27*
%TO.N,D+*%
X116660000Y-110450000D02*
X118286411Y-110450000D01*
X118286411Y-110450000D02*
X119150009Y-109586402D01*
X119150009Y-109586402D02*
X119150009Y-106812673D01*
X119150009Y-106812673D02*
X118176034Y-105838698D01*
X118850000Y-117025000D02*
X117864140Y-117025000D01*
X117864140Y-117025000D02*
X117348862Y-116509722D01*
X118176034Y-105112634D02*
X118176034Y-105838698D01*
X118344334Y-104944334D02*
X118176034Y-105112634D01*
X120550011Y-105150011D02*
X120344334Y-104944334D01*
X120550011Y-109467939D02*
X120550011Y-105150011D01*
X120344334Y-104944334D02*
X118344334Y-104944334D01*
X118567950Y-111450000D02*
X120550011Y-109467939D01*
X116660000Y-111450000D02*
X118567950Y-111450000D01*
%TO.N,GND*%
X112545000Y-112000000D02*
X112545000Y-111200000D01*
X116070000Y-115525000D02*
X112545000Y-112000000D01*
X116660000Y-114935000D02*
X116070000Y-115525000D01*
X116660000Y-114400000D02*
X116660000Y-114935000D01*
X115590000Y-114090000D02*
X112700000Y-111200000D01*
X111890000Y-110545000D02*
X112545000Y-111200000D01*
X111890000Y-106875000D02*
X111890000Y-110545000D01*
X112545000Y-110400000D02*
X112545000Y-111200000D01*
X116070000Y-106875000D02*
X112545000Y-110400000D01*
X112700000Y-111200000D02*
X112545000Y-111200000D01*
X115590000Y-108310000D02*
X112700000Y-111200000D01*
X116070000Y-107410000D02*
X116660000Y-108000000D01*
X116070000Y-106875000D02*
X116070000Y-107410000D01*
X111100000Y-106085000D02*
X111890000Y-106875000D01*
X111100000Y-104750000D02*
X111100000Y-106085000D01*
X111890000Y-115525000D02*
X111890000Y-111855000D01*
X111890000Y-111855000D02*
X112545000Y-111200000D01*
X112650000Y-102300000D02*
X112650000Y-103150000D01*
X113049990Y-103549990D02*
X116149990Y-103549990D01*
X112650000Y-103150000D02*
X113049990Y-103549990D01*
X116660000Y-108000000D02*
X118000000Y-108000000D01*
X120875000Y-115000000D02*
X120875000Y-117025000D01*
X121375000Y-117525000D02*
X120875000Y-117025000D01*
X121375000Y-119050000D02*
X121375000Y-117525000D01*
X120875000Y-119050000D02*
X120875000Y-117025000D01*
X120375000Y-117525000D02*
X120875000Y-117025000D01*
X120375000Y-119050000D02*
X120375000Y-117525000D01*
X119875000Y-119050000D02*
X119875000Y-118025000D01*
X119875000Y-118025000D02*
X120875000Y-117025000D01*
X118850000Y-118025000D02*
X119875000Y-118025000D01*
X116623861Y-116078861D02*
X116070000Y-115525000D01*
X116623861Y-116857723D02*
X116623861Y-116078861D01*
X117791138Y-118025000D02*
X116623861Y-116857723D01*
X118850000Y-118025000D02*
X117791138Y-118025000D01*
%TO.N,D-*%
X121572067Y-109082293D02*
X121572067Y-106048231D01*
X118704360Y-111950000D02*
X121572067Y-109082293D01*
X116660000Y-111950000D02*
X118704360Y-111950000D01*
X118872814Y-114128214D02*
X118872814Y-113690776D01*
X124128243Y-108435347D02*
X124128243Y-107002005D01*
X118850000Y-116525000D02*
X118301978Y-116525000D01*
X118024990Y-114976038D02*
X118872814Y-114128214D01*
X118301978Y-116525000D02*
X118024990Y-116248012D01*
X118024990Y-116248012D02*
X118024990Y-114976038D01*
X118872814Y-113690776D02*
X124128243Y-108435347D01*
X118431540Y-110950000D02*
X119619324Y-109762216D01*
X116660000Y-110950000D02*
X118431540Y-110950000D01*
X119619324Y-109762216D02*
X119619324Y-105796038D01*
%TO.N,+3V3*%
X115730000Y-128300000D02*
X118230000Y-128300000D01*
X118230000Y-128300000D02*
X120730000Y-128300000D01*
X120730000Y-128300000D02*
X123230000Y-128300000D01*
X127610000Y-102690000D02*
X127610000Y-102270000D01*
X126000000Y-104300000D02*
X127610000Y-102690000D01*
X115730000Y-128300000D02*
X115555528Y-128300000D01*
X115555528Y-128300000D02*
X113629916Y-126374388D01*
X119875000Y-115000000D02*
X119875000Y-113615588D01*
X122900000Y-118025000D02*
X123620002Y-118025000D01*
X123620002Y-118025000D02*
X123800000Y-118204998D01*
X127610000Y-102270000D02*
X127610000Y-104883486D01*
X127610000Y-104883486D02*
X125622974Y-106870512D01*
X119875000Y-115000000D02*
X118850000Y-116025000D01*
X125622974Y-107640616D02*
X125622974Y-106870512D01*
X125622974Y-107640616D02*
X125622974Y-107677026D01*
X119875000Y-113425000D02*
X119875000Y-113615588D01*
X120375000Y-112925000D02*
X120450000Y-112850000D01*
X120375000Y-115000000D02*
X120375000Y-112925000D01*
X120450000Y-112850000D02*
X119875000Y-113425000D01*
X125622974Y-107677026D02*
X120450000Y-112850000D01*
%TO.N,VBUS*%
X116004998Y-113600000D02*
X116660000Y-113600000D01*
X115764999Y-113360001D02*
X116004998Y-113600000D01*
X115764999Y-109039999D02*
X115764999Y-113360001D01*
X116004998Y-108800000D02*
X115764999Y-109039999D01*
X116660000Y-108800000D02*
X116004998Y-108800000D01*
X116660000Y-113600000D02*
X117550000Y-113600000D01*
X122530000Y-102270000D02*
X123379999Y-103119999D01*
X123379999Y-103119999D02*
X123379999Y-108547181D01*
X116660000Y-113600000D02*
X117967600Y-113600000D01*
X118147812Y-113779368D02*
X118147812Y-113780212D01*
X117967600Y-113600000D02*
X118147812Y-113780212D01*
X123379999Y-108547181D02*
X118147812Y-113779368D01*
%TO.N,IO5*%
X128000000Y-120150000D02*
X127950000Y-120200000D01*
X128000000Y-117535000D02*
X128000000Y-120150000D01*
%TO.N,IO4*%
X123500000Y-123170000D02*
X123230000Y-122900000D01*
X123230000Y-125200000D02*
X123230000Y-122900000D01*
%TO.N,IO3*%
X120730000Y-125200000D02*
X120730000Y-122900000D01*
%TO.N,IO2*%
X118500000Y-123170000D02*
X118230000Y-122900000D01*
X118230000Y-125200000D02*
X118230000Y-122900000D01*
%TO.N,IO1*%
X116000000Y-123170000D02*
X115730000Y-122900000D01*
X115730000Y-125200000D02*
X115730000Y-122900000D01*
X114325000Y-121495000D02*
X115730000Y-122900000D01*
X114325000Y-120200000D02*
X114325000Y-121495000D01*
%TO.N,O*%
X121849989Y-119075011D02*
X121849989Y-119850011D01*
X119477312Y-119700334D02*
X117279789Y-119700334D01*
X117279789Y-119700334D02*
X115304100Y-117724645D01*
X121849989Y-119850011D02*
X121824990Y-119875010D01*
X121824990Y-119875010D02*
X119651988Y-119875010D01*
X119651988Y-119875010D02*
X119477312Y-119700334D01*
X121875000Y-119050000D02*
X121849989Y-119075011D01*
%TO.N,I*%
X123725010Y-116248012D02*
X123725010Y-114856008D01*
X122900000Y-116525000D02*
X123448022Y-116525000D01*
X120900000Y-113800000D02*
X120900000Y-113565685D01*
X123448022Y-116525000D02*
X123725010Y-116248012D01*
X121200000Y-114100000D02*
X120900000Y-113800000D01*
X122969002Y-114100000D02*
X121200000Y-114100000D01*
X120900000Y-113565685D02*
X126412660Y-108053025D01*
X123725010Y-114856008D02*
X122969002Y-114100000D01*
X126412660Y-108053025D02*
X126412660Y-107487340D01*
%TO.N,EN*%
X122945004Y-117479996D02*
X122900000Y-117525000D01*
X124148002Y-117479996D02*
X122945004Y-117479996D01*
X124525002Y-117856996D02*
X124148002Y-117479996D01*
X124525002Y-118536808D02*
X124525002Y-117856996D01*
X122419095Y-119780905D02*
X123280905Y-119780905D01*
X122300000Y-119900000D02*
X122419095Y-119780905D01*
X113153341Y-118346659D02*
X114847349Y-118346659D01*
X112710202Y-117903521D02*
X113153341Y-118346659D01*
X112710202Y-116755063D02*
X112710202Y-117903521D01*
X123280905Y-119780905D02*
X124525002Y-118536808D01*
X122174979Y-120325021D02*
X122300000Y-120200000D01*
X119465588Y-120325021D02*
X122174979Y-120325021D01*
X119290912Y-120150345D02*
X119465588Y-120325021D01*
X122300000Y-120200000D02*
X122300000Y-119900000D01*
X114950345Y-118449655D02*
X115348965Y-118449655D01*
X114847349Y-118346659D02*
X114950345Y-118449655D01*
X117049655Y-120150345D02*
X119290912Y-120150345D01*
X115348965Y-118449655D02*
X117049655Y-120150345D01*
%TO.N,Net-(J2-PadA5)*%
X115450000Y-101700000D02*
X114850000Y-102300000D01*
X122297069Y-108993700D02*
X122297069Y-104497069D01*
X118514999Y-102978001D02*
X118514999Y-102278588D01*
X119336998Y-103800000D02*
X118514999Y-102978001D01*
X118840769Y-112450000D02*
X122297069Y-108993700D01*
X114850000Y-102300000D02*
X114200000Y-102300000D01*
X118514999Y-102278588D02*
X117936410Y-101700000D01*
X121600000Y-103800000D02*
X119336998Y-103800000D01*
X122297069Y-104497069D02*
X121600000Y-103800000D01*
X117936410Y-101700000D02*
X115450000Y-101700000D01*
X116660000Y-112450000D02*
X118840769Y-112450000D01*
%TO.N,Net-(J2-PadB5)*%
X118650000Y-107337984D02*
X118650000Y-109250000D01*
X118650000Y-109250000D02*
X118450000Y-109450000D01*
X116062016Y-104750000D02*
X118650000Y-107337984D01*
X118450000Y-109450000D02*
X116660000Y-109450000D01*
X114200000Y-104750000D02*
X116062016Y-104750000D01*
%TO.N,Net-(J1-Pad6)*%
X126000000Y-123170000D02*
X125730000Y-122900000D01*
X126500000Y-125200000D02*
X126500000Y-123670000D01*
X126500000Y-123670000D02*
X125730000Y-122900000D01*
X124850000Y-122020000D02*
X125730000Y-122900000D01*
X124850000Y-120200000D02*
X124850000Y-122020000D01*
%TO.N,GPIO0*%
X125525000Y-117025000D02*
X126400000Y-117900000D01*
X122900000Y-117025000D02*
X125525000Y-117025000D01*
%TD*%
D28*
%TO.N,GND*%
X123607178Y-111588723D02*
X123610717Y-111595344D01*
X123613116Y-111602447D01*
X123632823Y-111636702D01*
X123651471Y-111671589D01*
X123656232Y-111677390D01*
X123659972Y-111683891D01*
X123685985Y-111713644D01*
X123711079Y-111744221D01*
X123716882Y-111748983D01*
X123721817Y-111754628D01*
X123753127Y-111778729D01*
X123783711Y-111803829D01*
X123790332Y-111807368D01*
X123796274Y-111811942D01*
X123831684Y-111829471D01*
X123866577Y-111848122D01*
X123873763Y-111850302D01*
X123880482Y-111853628D01*
X123918638Y-111863914D01*
X123956492Y-111875397D01*
X123963961Y-111876133D01*
X123971203Y-111878085D01*
X124010635Y-111880730D01*
X124026577Y-111882300D01*
X124034045Y-111882300D01*
X124064952Y-111884373D01*
X124080886Y-111882300D01*
X124819359Y-111882300D01*
X123721788Y-112823079D01*
X123673068Y-112873931D01*
X123622550Y-112953156D01*
X123588459Y-113040714D01*
X123572106Y-113133240D01*
X123574116Y-113227178D01*
X123594415Y-113318920D01*
X123632223Y-113404939D01*
X123686084Y-113481929D01*
X123753931Y-113546932D01*
X123833156Y-113597450D01*
X123920714Y-113631541D01*
X124013240Y-113647894D01*
X124107178Y-113645884D01*
X124198920Y-113625585D01*
X124284939Y-113587777D01*
X124342644Y-113547408D01*
X126108821Y-112033537D01*
X127875006Y-113547408D01*
X127932711Y-113587778D01*
X128018730Y-113625585D01*
X128110472Y-113645884D01*
X128204411Y-113647894D01*
X128296937Y-113631540D01*
X128384495Y-113597449D01*
X128463719Y-113546931D01*
X128531566Y-113481928D01*
X128573000Y-113422702D01*
X128573001Y-117009156D01*
X128495309Y-116931464D01*
X128368048Y-116846431D01*
X128226643Y-116787859D01*
X128076528Y-116758000D01*
X127923472Y-116758000D01*
X127773357Y-116787859D01*
X127631952Y-116846431D01*
X127504691Y-116931464D01*
X127396464Y-117039691D01*
X127311431Y-117166952D01*
X127252859Y-117308357D01*
X127223000Y-117458472D01*
X127223000Y-117611528D01*
X127252859Y-117761643D01*
X127311431Y-117903048D01*
X127396464Y-118030309D01*
X127498000Y-118131845D01*
X127498001Y-118951298D01*
X127427322Y-118958259D01*
X127309359Y-118994042D01*
X127200644Y-119052152D01*
X127105354Y-119130354D01*
X127027152Y-119225644D01*
X126969042Y-119334359D01*
X126933259Y-119452322D01*
X126921176Y-119574999D01*
X126921176Y-120825001D01*
X126933259Y-120947678D01*
X126969042Y-121065641D01*
X127027152Y-121174356D01*
X127105354Y-121269646D01*
X127200644Y-121347848D01*
X127309359Y-121405958D01*
X127427322Y-121441741D01*
X127549999Y-121453824D01*
X128350001Y-121453824D01*
X128472678Y-121441741D01*
X128573001Y-121411309D01*
X128573001Y-128979107D01*
X128560078Y-129110899D01*
X128527873Y-129217570D01*
X128475558Y-129315961D01*
X128405130Y-129402313D01*
X128319270Y-129473343D01*
X128221255Y-129526339D01*
X128114807Y-129559290D01*
X127984371Y-129573000D01*
X113413678Y-129573000D01*
X113501185Y-129501185D01*
X113580537Y-129404494D01*
X113639502Y-129294180D01*
X113675812Y-129174482D01*
X113688072Y-129050000D01*
X113685000Y-128485750D01*
X113526250Y-128327000D01*
X112327000Y-128327000D01*
X112327000Y-128347000D01*
X112073000Y-128347000D01*
X112073000Y-128327000D01*
X110873750Y-128327000D01*
X110715000Y-128485750D01*
X110711928Y-129050000D01*
X110724188Y-129174482D01*
X110760498Y-129294180D01*
X110819463Y-129404494D01*
X110898815Y-129501185D01*
X110981633Y-129569151D01*
X110889101Y-129560078D01*
X110782430Y-129527873D01*
X110684039Y-129475558D01*
X110597687Y-129405130D01*
X110526657Y-129319270D01*
X110473661Y-129221255D01*
X110440710Y-129114807D01*
X110427000Y-128984371D01*
X110427000Y-127350000D01*
X110711928Y-127350000D01*
X110715000Y-127914250D01*
X110873750Y-128073000D01*
X112073000Y-128073000D01*
X112073000Y-128053000D01*
X112327000Y-128053000D01*
X112327000Y-128073000D01*
X113526250Y-128073000D01*
X113685000Y-127914250D01*
X113688072Y-127350000D01*
X113675812Y-127225518D01*
X113653325Y-127151388D01*
X113696982Y-127151388D01*
X114476176Y-127930583D01*
X114476176Y-128700001D01*
X114488259Y-128822678D01*
X114524042Y-128940641D01*
X114582152Y-129049356D01*
X114660354Y-129144646D01*
X114755644Y-129222848D01*
X114864359Y-129280958D01*
X114982322Y-129316741D01*
X115104999Y-129328824D01*
X116355001Y-129328824D01*
X116477678Y-129316741D01*
X116595641Y-129280958D01*
X116704356Y-129222848D01*
X116799646Y-129144646D01*
X116877848Y-129049356D01*
X116935958Y-128940641D01*
X116971741Y-128822678D01*
X116973778Y-128802000D01*
X116986222Y-128802000D01*
X116988259Y-128822678D01*
X117024042Y-128940641D01*
X117082152Y-129049356D01*
X117160354Y-129144646D01*
X117255644Y-129222848D01*
X117364359Y-129280958D01*
X117482322Y-129316741D01*
X117604999Y-129328824D01*
X118855001Y-129328824D01*
X118977678Y-129316741D01*
X119095641Y-129280958D01*
X119204356Y-129222848D01*
X119299646Y-129144646D01*
X119377848Y-129049356D01*
X119435958Y-128940641D01*
X119471741Y-128822678D01*
X119473778Y-128802000D01*
X119486222Y-128802000D01*
X119488259Y-128822678D01*
X119524042Y-128940641D01*
X119582152Y-129049356D01*
X119660354Y-129144646D01*
X119755644Y-129222848D01*
X119864359Y-129280958D01*
X119982322Y-129316741D01*
X120104999Y-129328824D01*
X121355001Y-129328824D01*
X121477678Y-129316741D01*
X121595641Y-129280958D01*
X121704356Y-129222848D01*
X121799646Y-129144646D01*
X121877848Y-129049356D01*
X121935958Y-128940641D01*
X121971741Y-128822678D01*
X121973778Y-128802000D01*
X121986222Y-128802000D01*
X121988259Y-128822678D01*
X122024042Y-128940641D01*
X122082152Y-129049356D01*
X122160354Y-129144646D01*
X122255644Y-129222848D01*
X122364359Y-129280958D01*
X122482322Y-129316741D01*
X122604999Y-129328824D01*
X123855001Y-129328824D01*
X123977678Y-129316741D01*
X124095641Y-129280958D01*
X124204356Y-129222848D01*
X124299646Y-129144646D01*
X124377848Y-129049356D01*
X124435958Y-128940641D01*
X124471741Y-128822678D01*
X124483824Y-128700001D01*
X124483824Y-127899999D01*
X125246176Y-127899999D01*
X125246176Y-128700001D01*
X125258259Y-128822678D01*
X125294042Y-128940641D01*
X125352152Y-129049356D01*
X125430354Y-129144646D01*
X125525644Y-129222848D01*
X125634359Y-129280958D01*
X125752322Y-129316741D01*
X125874999Y-129328824D01*
X127125001Y-129328824D01*
X127247678Y-129316741D01*
X127365641Y-129280958D01*
X127474356Y-129222848D01*
X127569646Y-129144646D01*
X127647848Y-129049356D01*
X127705958Y-128940641D01*
X127741741Y-128822678D01*
X127753824Y-128700001D01*
X127753824Y-127899999D01*
X127741741Y-127777322D01*
X127705958Y-127659359D01*
X127647848Y-127550644D01*
X127569646Y-127455354D01*
X127474356Y-127377152D01*
X127365641Y-127319042D01*
X127247678Y-127283259D01*
X127125001Y-127271176D01*
X125874999Y-127271176D01*
X125752322Y-127283259D01*
X125634359Y-127319042D01*
X125525644Y-127377152D01*
X125430354Y-127455354D01*
X125352152Y-127550644D01*
X125294042Y-127659359D01*
X125258259Y-127777322D01*
X125246176Y-127899999D01*
X124483824Y-127899999D01*
X124471741Y-127777322D01*
X124435958Y-127659359D01*
X124377848Y-127550644D01*
X124299646Y-127455354D01*
X124204356Y-127377152D01*
X124095641Y-127319042D01*
X123977678Y-127283259D01*
X123855001Y-127271176D01*
X122604999Y-127271176D01*
X122482322Y-127283259D01*
X122364359Y-127319042D01*
X122255644Y-127377152D01*
X122160354Y-127455354D01*
X122082152Y-127550644D01*
X122024042Y-127659359D01*
X121988259Y-127777322D01*
X121986222Y-127798000D01*
X121973778Y-127798000D01*
X121971741Y-127777322D01*
X121935958Y-127659359D01*
X121877848Y-127550644D01*
X121799646Y-127455354D01*
X121704356Y-127377152D01*
X121595641Y-127319042D01*
X121477678Y-127283259D01*
X121355001Y-127271176D01*
X120104999Y-127271176D01*
X119982322Y-127283259D01*
X119864359Y-127319042D01*
X119755644Y-127377152D01*
X119660354Y-127455354D01*
X119582152Y-127550644D01*
X119524042Y-127659359D01*
X119488259Y-127777322D01*
X119486222Y-127798000D01*
X119473778Y-127798000D01*
X119471741Y-127777322D01*
X119435958Y-127659359D01*
X119377848Y-127550644D01*
X119299646Y-127455354D01*
X119204356Y-127377152D01*
X119095641Y-127319042D01*
X118977678Y-127283259D01*
X118855001Y-127271176D01*
X117604999Y-127271176D01*
X117482322Y-127283259D01*
X117364359Y-127319042D01*
X117255644Y-127377152D01*
X117160354Y-127455354D01*
X117082152Y-127550644D01*
X117024042Y-127659359D01*
X116988259Y-127777322D01*
X116986222Y-127798000D01*
X116973778Y-127798000D01*
X116971741Y-127777322D01*
X116935958Y-127659359D01*
X116877848Y-127550644D01*
X116799646Y-127455354D01*
X116704356Y-127377152D01*
X116595641Y-127319042D01*
X116477678Y-127283259D01*
X116355001Y-127271176D01*
X115236639Y-127271176D01*
X114406916Y-126441454D01*
X114406916Y-126297860D01*
X114377057Y-126147745D01*
X114318485Y-126006340D01*
X114233452Y-125879079D01*
X114125225Y-125770852D01*
X113997964Y-125685819D01*
X113856559Y-125627247D01*
X113706444Y-125597388D01*
X113553388Y-125597388D01*
X113427000Y-125622528D01*
X113427000Y-125539151D01*
X113379847Y-125302097D01*
X113287353Y-125078798D01*
X113153073Y-124877833D01*
X112982167Y-124706927D01*
X112781202Y-124572647D01*
X112557903Y-124480153D01*
X112469579Y-124462584D01*
X112944250Y-124460000D01*
X113103000Y-124301250D01*
X113103000Y-123027000D01*
X111903750Y-123027000D01*
X111745000Y-123185750D01*
X111741928Y-123825000D01*
X111754188Y-123949482D01*
X111790498Y-124069180D01*
X111849463Y-124179494D01*
X111928815Y-124276185D01*
X112025506Y-124355537D01*
X112135820Y-124414502D01*
X112196800Y-124433000D01*
X112079151Y-124433000D01*
X111842097Y-124480153D01*
X111618798Y-124572647D01*
X111417833Y-124706927D01*
X111246927Y-124877833D01*
X111112647Y-125078798D01*
X111020153Y-125302097D01*
X110973000Y-125539151D01*
X110973000Y-125780849D01*
X111020153Y-126017903D01*
X111112647Y-126241202D01*
X111246927Y-126442167D01*
X111417833Y-126613073D01*
X111567553Y-126713112D01*
X111350000Y-126711928D01*
X111225518Y-126724188D01*
X111105820Y-126760498D01*
X110995506Y-126819463D01*
X110898815Y-126898815D01*
X110819463Y-126995506D01*
X110760498Y-127105820D01*
X110724188Y-127225518D01*
X110711928Y-127350000D01*
X110427000Y-127350000D01*
X110427000Y-121727189D01*
X110537500Y-121738072D01*
X110914250Y-121735000D01*
X111073000Y-121576250D01*
X111073000Y-120327000D01*
X111327000Y-120327000D01*
X111327000Y-121576250D01*
X111485750Y-121735000D01*
X111788481Y-121737468D01*
X111754188Y-121850518D01*
X111741928Y-121975000D01*
X111745000Y-122614250D01*
X111903750Y-122773000D01*
X113103000Y-122773000D01*
X113103000Y-121498750D01*
X112944250Y-121340000D01*
X112454080Y-121337331D01*
X112488312Y-121224482D01*
X112500572Y-121100000D01*
X112497500Y-120485750D01*
X112338750Y-120327000D01*
X111327000Y-120327000D01*
X111073000Y-120327000D01*
X111053000Y-120327000D01*
X111053000Y-120073000D01*
X111073000Y-120073000D01*
X111073000Y-118823750D01*
X111327000Y-118823750D01*
X111327000Y-120073000D01*
X112338750Y-120073000D01*
X112497500Y-119914250D01*
X112500572Y-119300000D01*
X112488312Y-119175518D01*
X112452002Y-119055820D01*
X112393037Y-118945506D01*
X112313685Y-118848815D01*
X112216994Y-118769463D01*
X112106680Y-118710498D01*
X111986982Y-118674188D01*
X111862500Y-118661928D01*
X111485750Y-118665000D01*
X111327000Y-118823750D01*
X111073000Y-118823750D01*
X110914250Y-118665000D01*
X110537500Y-118661928D01*
X110427000Y-118672811D01*
X110427000Y-116007289D01*
X110485399Y-116007216D01*
X110539081Y-116158747D01*
X110612528Y-116296157D01*
X110861603Y-116373792D01*
X111229108Y-116006287D01*
X111588767Y-116005838D01*
X111041208Y-116553397D01*
X111118843Y-116802472D01*
X111382883Y-116928371D01*
X111666411Y-117000339D01*
X111958531Y-117015611D01*
X111976052Y-117013068D01*
X112021633Y-117123111D01*
X112106666Y-117250372D01*
X112208203Y-117351909D01*
X112208203Y-117878869D01*
X112205775Y-117903521D01*
X112215467Y-118001931D01*
X112244172Y-118096558D01*
X112290786Y-118183766D01*
X112337803Y-118241056D01*
X112337806Y-118241059D01*
X112353519Y-118260205D01*
X112372665Y-118275918D01*
X112780944Y-118684197D01*
X112796657Y-118703343D01*
X112815803Y-118719056D01*
X112815805Y-118719058D01*
X112828948Y-118729844D01*
X112873096Y-118766076D01*
X112960305Y-118812690D01*
X113054932Y-118841395D01*
X113128688Y-118848659D01*
X113128698Y-118848659D01*
X113153341Y-118851086D01*
X113177984Y-118848659D01*
X114645227Y-118848659D01*
X114670100Y-118869072D01*
X114757309Y-118915686D01*
X114793631Y-118926704D01*
X114737503Y-118921176D01*
X113912497Y-118921176D01*
X113789820Y-118933259D01*
X113671858Y-118969042D01*
X113563143Y-119027151D01*
X113467853Y-119105353D01*
X113389651Y-119200643D01*
X113331542Y-119309358D01*
X113295759Y-119427320D01*
X113283676Y-119549997D01*
X113283676Y-120850003D01*
X113295759Y-120972680D01*
X113331542Y-121090642D01*
X113389651Y-121199357D01*
X113467853Y-121294647D01*
X113523068Y-121339960D01*
X113515750Y-121340000D01*
X113357000Y-121498750D01*
X113357000Y-122773000D01*
X113377000Y-122773000D01*
X113377000Y-123027000D01*
X113357000Y-123027000D01*
X113357000Y-124301250D01*
X113515750Y-124460000D01*
X114080000Y-124463072D01*
X114204482Y-124450812D01*
X114324180Y-124414502D01*
X114434494Y-124355537D01*
X114531185Y-124276185D01*
X114610537Y-124179494D01*
X114669502Y-124069180D01*
X114705812Y-123949482D01*
X114718072Y-123825000D01*
X114717352Y-123675216D01*
X114858184Y-123846817D01*
X115045018Y-124000149D01*
X115228000Y-124097954D01*
X115228000Y-124171176D01*
X115104999Y-124171176D01*
X114982322Y-124183259D01*
X114864359Y-124219042D01*
X114755644Y-124277152D01*
X114660354Y-124355354D01*
X114582152Y-124450644D01*
X114524042Y-124559359D01*
X114488259Y-124677322D01*
X114476176Y-124799999D01*
X114476176Y-125600001D01*
X114488259Y-125722678D01*
X114524042Y-125840641D01*
X114582152Y-125949356D01*
X114660354Y-126044646D01*
X114755644Y-126122848D01*
X114864359Y-126180958D01*
X114982322Y-126216741D01*
X115104999Y-126228824D01*
X116355001Y-126228824D01*
X116477678Y-126216741D01*
X116595641Y-126180958D01*
X116704356Y-126122848D01*
X116799646Y-126044646D01*
X116877848Y-125949356D01*
X116935958Y-125840641D01*
X116971741Y-125722678D01*
X116980000Y-125638826D01*
X116988259Y-125722678D01*
X117024042Y-125840641D01*
X117082152Y-125949356D01*
X117160354Y-126044646D01*
X117255644Y-126122848D01*
X117364359Y-126180958D01*
X117482322Y-126216741D01*
X117604999Y-126228824D01*
X118855001Y-126228824D01*
X118977678Y-126216741D01*
X119095641Y-126180958D01*
X119204356Y-126122848D01*
X119299646Y-126044646D01*
X119377848Y-125949356D01*
X119435958Y-125840641D01*
X119471741Y-125722678D01*
X119480000Y-125638826D01*
X119488259Y-125722678D01*
X119524042Y-125840641D01*
X119582152Y-125949356D01*
X119660354Y-126044646D01*
X119755644Y-126122848D01*
X119864359Y-126180958D01*
X119982322Y-126216741D01*
X120104999Y-126228824D01*
X121355001Y-126228824D01*
X121477678Y-126216741D01*
X121595641Y-126180958D01*
X121704356Y-126122848D01*
X121799646Y-126044646D01*
X121877848Y-125949356D01*
X121935958Y-125840641D01*
X121971741Y-125722678D01*
X121980000Y-125638826D01*
X121988259Y-125722678D01*
X122024042Y-125840641D01*
X122082152Y-125949356D01*
X122160354Y-126044646D01*
X122255644Y-126122848D01*
X122364359Y-126180958D01*
X122482322Y-126216741D01*
X122604999Y-126228824D01*
X123855001Y-126228824D01*
X123977678Y-126216741D01*
X124095641Y-126180958D01*
X124204356Y-126122848D01*
X124299646Y-126044646D01*
X124377848Y-125949356D01*
X124435958Y-125840641D01*
X124471741Y-125722678D01*
X124483824Y-125600001D01*
X124483824Y-124799999D01*
X124471741Y-124677322D01*
X124435958Y-124559359D01*
X124377848Y-124450644D01*
X124299646Y-124355354D01*
X124204356Y-124277152D01*
X124095641Y-124219042D01*
X123977678Y-124183259D01*
X123855001Y-124171176D01*
X123732000Y-124171176D01*
X123732000Y-124097955D01*
X123914983Y-124000149D01*
X124101817Y-123846817D01*
X124255149Y-123659982D01*
X124369084Y-123446823D01*
X124439245Y-123215533D01*
X124457000Y-123035267D01*
X124457000Y-122764732D01*
X124439245Y-122584466D01*
X124369084Y-122353176D01*
X124255149Y-122140017D01*
X124101817Y-121953183D01*
X123914982Y-121799851D01*
X123701823Y-121685916D01*
X123470533Y-121615755D01*
X123230000Y-121592064D01*
X122989466Y-121615755D01*
X122758176Y-121685916D01*
X122545017Y-121799851D01*
X122358183Y-121953183D01*
X122204851Y-122140018D01*
X122090916Y-122353177D01*
X122020755Y-122584467D01*
X122003000Y-122764733D01*
X122003000Y-123035268D01*
X122020755Y-123215534D01*
X122090916Y-123446824D01*
X122204851Y-123659983D01*
X122358184Y-123846817D01*
X122545018Y-124000149D01*
X122728000Y-124097954D01*
X122728000Y-124171176D01*
X122604999Y-124171176D01*
X122482322Y-124183259D01*
X122364359Y-124219042D01*
X122255644Y-124277152D01*
X122160354Y-124355354D01*
X122082152Y-124450644D01*
X122024042Y-124559359D01*
X121988259Y-124677322D01*
X121980000Y-124761174D01*
X121971741Y-124677322D01*
X121935958Y-124559359D01*
X121877848Y-124450644D01*
X121799646Y-124355354D01*
X121704356Y-124277152D01*
X121595641Y-124219042D01*
X121477678Y-124183259D01*
X121355001Y-124171176D01*
X121232000Y-124171176D01*
X121232000Y-124097955D01*
X121414983Y-124000149D01*
X121601817Y-123846817D01*
X121755149Y-123659982D01*
X121869084Y-123446823D01*
X121939245Y-123215533D01*
X121957000Y-123035267D01*
X121957000Y-122764732D01*
X121939245Y-122584466D01*
X121869084Y-122353176D01*
X121755149Y-122140017D01*
X121601817Y-121953183D01*
X121414982Y-121799851D01*
X121201823Y-121685916D01*
X120970533Y-121615755D01*
X120730000Y-121592064D01*
X120489466Y-121615755D01*
X120258176Y-121685916D01*
X120045017Y-121799851D01*
X119858183Y-121953183D01*
X119704851Y-122140018D01*
X119590916Y-122353177D01*
X119520755Y-122584467D01*
X119503000Y-122764733D01*
X119503000Y-123035268D01*
X119520755Y-123215534D01*
X119590916Y-123446824D01*
X119704851Y-123659983D01*
X119858184Y-123846817D01*
X120045018Y-124000149D01*
X120228000Y-124097954D01*
X120228000Y-124171176D01*
X120104999Y-124171176D01*
X119982322Y-124183259D01*
X119864359Y-124219042D01*
X119755644Y-124277152D01*
X119660354Y-124355354D01*
X119582152Y-124450644D01*
X119524042Y-124559359D01*
X119488259Y-124677322D01*
X119480000Y-124761174D01*
X119471741Y-124677322D01*
X119435958Y-124559359D01*
X119377848Y-124450644D01*
X119299646Y-124355354D01*
X119204356Y-124277152D01*
X119095641Y-124219042D01*
X118977678Y-124183259D01*
X118855001Y-124171176D01*
X118732000Y-124171176D01*
X118732000Y-124097955D01*
X118914983Y-124000149D01*
X119101817Y-123846817D01*
X119255149Y-123659982D01*
X119369084Y-123446823D01*
X119439245Y-123215533D01*
X119457000Y-123035267D01*
X119457000Y-122764732D01*
X119439245Y-122584466D01*
X119369084Y-122353176D01*
X119255149Y-122140017D01*
X119101817Y-121953183D01*
X118914982Y-121799851D01*
X118701823Y-121685916D01*
X118470533Y-121615755D01*
X118230000Y-121592064D01*
X117989466Y-121615755D01*
X117758176Y-121685916D01*
X117545017Y-121799851D01*
X117358183Y-121953183D01*
X117204851Y-122140018D01*
X117090916Y-122353177D01*
X117020755Y-122584467D01*
X117003000Y-122764733D01*
X117003000Y-123035268D01*
X117020755Y-123215534D01*
X117090916Y-123446824D01*
X117204851Y-123659983D01*
X117358184Y-123846817D01*
X117545018Y-124000149D01*
X117728000Y-124097954D01*
X117728000Y-124171176D01*
X117604999Y-124171176D01*
X117482322Y-124183259D01*
X117364359Y-124219042D01*
X117255644Y-124277152D01*
X117160354Y-124355354D01*
X117082152Y-124450644D01*
X117024042Y-124559359D01*
X116988259Y-124677322D01*
X116980000Y-124761174D01*
X116971741Y-124677322D01*
X116935958Y-124559359D01*
X116877848Y-124450644D01*
X116799646Y-124355354D01*
X116704356Y-124277152D01*
X116595641Y-124219042D01*
X116477678Y-124183259D01*
X116355001Y-124171176D01*
X116232000Y-124171176D01*
X116232000Y-124097955D01*
X116414983Y-124000149D01*
X116601817Y-123846817D01*
X116755149Y-123659982D01*
X116869084Y-123446823D01*
X116939245Y-123215533D01*
X116957000Y-123035267D01*
X116957000Y-122764732D01*
X116939245Y-122584466D01*
X116869084Y-122353176D01*
X116755149Y-122140017D01*
X116601817Y-121953183D01*
X116414982Y-121799851D01*
X116201823Y-121685916D01*
X115970533Y-121615755D01*
X115730000Y-121592064D01*
X115489466Y-121615755D01*
X115258176Y-121685916D01*
X115237110Y-121697176D01*
X114972580Y-121432645D01*
X114978142Y-121430958D01*
X115086857Y-121372849D01*
X115182147Y-121294647D01*
X115260349Y-121199357D01*
X115318458Y-121090642D01*
X115354241Y-120972680D01*
X115366324Y-120850003D01*
X115366324Y-119549997D01*
X115354241Y-119427320D01*
X115318458Y-119309358D01*
X115260349Y-119200643D01*
X115182147Y-119105353D01*
X115086857Y-119027151D01*
X114978142Y-118969042D01*
X114918484Y-118950945D01*
X114925692Y-118951655D01*
X114925701Y-118951655D01*
X114950344Y-118954082D01*
X114974987Y-118951655D01*
X115141031Y-118951655D01*
X116677262Y-120487888D01*
X116692971Y-120507029D01*
X116712111Y-120522737D01*
X116712119Y-120522745D01*
X116762729Y-120564279D01*
X116769410Y-120569762D01*
X116856619Y-120616376D01*
X116951246Y-120645081D01*
X117025002Y-120652345D01*
X117025012Y-120652345D01*
X117049655Y-120654772D01*
X117074298Y-120652345D01*
X119082978Y-120652345D01*
X119093186Y-120662553D01*
X119108904Y-120681705D01*
X119185343Y-120744438D01*
X119272552Y-120791052D01*
X119367179Y-120819757D01*
X119440935Y-120827021D01*
X119440944Y-120827021D01*
X119465587Y-120829448D01*
X119490230Y-120827021D01*
X122150336Y-120827021D01*
X122174979Y-120829448D01*
X122199622Y-120827021D01*
X122199632Y-120827021D01*
X122273388Y-120819757D01*
X122368015Y-120791052D01*
X122455224Y-120744438D01*
X122531663Y-120681705D01*
X122547381Y-120662553D01*
X122637532Y-120572402D01*
X122656684Y-120556684D01*
X122719417Y-120480245D01*
X122766031Y-120393036D01*
X122794736Y-120298409D01*
X122796263Y-120282905D01*
X123256262Y-120282905D01*
X123280905Y-120285332D01*
X123305548Y-120282905D01*
X123305558Y-120282905D01*
X123379314Y-120275641D01*
X123473941Y-120246936D01*
X123561150Y-120200322D01*
X123637589Y-120137589D01*
X123653306Y-120118438D01*
X123821176Y-119950568D01*
X123821176Y-120825001D01*
X123833259Y-120947678D01*
X123869042Y-121065641D01*
X123927152Y-121174356D01*
X124005354Y-121269646D01*
X124100644Y-121347848D01*
X124209359Y-121405958D01*
X124327322Y-121441741D01*
X124348001Y-121443778D01*
X124348001Y-121995347D01*
X124345573Y-122020000D01*
X124355265Y-122118409D01*
X124383970Y-122213036D01*
X124430584Y-122300245D01*
X124477601Y-122357535D01*
X124477604Y-122357538D01*
X124493317Y-122376684D01*
X124512463Y-122392397D01*
X124563528Y-122443462D01*
X124520755Y-122584467D01*
X124503000Y-122764733D01*
X124503000Y-123035268D01*
X124520755Y-123215534D01*
X124590916Y-123446824D01*
X124704851Y-123659983D01*
X124858184Y-123846817D01*
X125045018Y-124000149D01*
X125258177Y-124114084D01*
X125489467Y-124184245D01*
X125685440Y-124203547D01*
X125634359Y-124219042D01*
X125525644Y-124277152D01*
X125430354Y-124355354D01*
X125352152Y-124450644D01*
X125294042Y-124559359D01*
X125258259Y-124677322D01*
X125246176Y-124799999D01*
X125246176Y-125600001D01*
X125258259Y-125722678D01*
X125294042Y-125840641D01*
X125352152Y-125949356D01*
X125430354Y-126044646D01*
X125525644Y-126122848D01*
X125634359Y-126180958D01*
X125752322Y-126216741D01*
X125874999Y-126228824D01*
X127125001Y-126228824D01*
X127247678Y-126216741D01*
X127365641Y-126180958D01*
X127474356Y-126122848D01*
X127569646Y-126044646D01*
X127647848Y-125949356D01*
X127705958Y-125840641D01*
X127741741Y-125722678D01*
X127753824Y-125600001D01*
X127753824Y-124799999D01*
X127741741Y-124677322D01*
X127705958Y-124559359D01*
X127647848Y-124450644D01*
X127569646Y-124355354D01*
X127474356Y-124277152D01*
X127365641Y-124219042D01*
X127247678Y-124183259D01*
X127125001Y-124171176D01*
X127002000Y-124171176D01*
X127002000Y-123694642D01*
X127004427Y-123669999D01*
X127002000Y-123645356D01*
X127002000Y-123645347D01*
X126994736Y-123571591D01*
X126966031Y-123476964D01*
X126919417Y-123389755D01*
X126895307Y-123360377D01*
X126939245Y-123215533D01*
X126957000Y-123035267D01*
X126957000Y-122764732D01*
X126939245Y-122584466D01*
X126869084Y-122353176D01*
X126755149Y-122140017D01*
X126601817Y-121953183D01*
X126414982Y-121799851D01*
X126201823Y-121685916D01*
X125970533Y-121615755D01*
X125730000Y-121592064D01*
X125489466Y-121615755D01*
X125352000Y-121657455D01*
X125352000Y-121443778D01*
X125372678Y-121441741D01*
X125490641Y-121405958D01*
X125599356Y-121347848D01*
X125694646Y-121269646D01*
X125772848Y-121174356D01*
X125830958Y-121065641D01*
X125866741Y-120947678D01*
X125878824Y-120825001D01*
X125878824Y-119574999D01*
X125866741Y-119452322D01*
X125830958Y-119334359D01*
X125772848Y-119225644D01*
X125694646Y-119130354D01*
X125599356Y-119052152D01*
X125490641Y-118994042D01*
X125372678Y-118958259D01*
X125250001Y-118946176D01*
X124825570Y-118946176D01*
X124862545Y-118909201D01*
X124881686Y-118893492D01*
X124897394Y-118874352D01*
X124897402Y-118874344D01*
X124944418Y-118817054D01*
X124946751Y-118812690D01*
X124991033Y-118729844D01*
X125019738Y-118635217D01*
X125027002Y-118561461D01*
X125027002Y-118561451D01*
X125029429Y-118536808D01*
X125027002Y-118512165D01*
X125027002Y-117881641D01*
X125029429Y-117856996D01*
X125027002Y-117832350D01*
X125027002Y-117832343D01*
X125019738Y-117758587D01*
X125007218Y-117717314D01*
X124991033Y-117663959D01*
X124944419Y-117576750D01*
X124903589Y-117527000D01*
X125317066Y-117527000D01*
X125623000Y-117832935D01*
X125623000Y-117976528D01*
X125652859Y-118126643D01*
X125711431Y-118268048D01*
X125796464Y-118395309D01*
X125904691Y-118503536D01*
X126031952Y-118588569D01*
X126173357Y-118647141D01*
X126323472Y-118677000D01*
X126476528Y-118677000D01*
X126626643Y-118647141D01*
X126768048Y-118588569D01*
X126895309Y-118503536D01*
X127003536Y-118395309D01*
X127088569Y-118268048D01*
X127147141Y-118126643D01*
X127177000Y-117976528D01*
X127177000Y-117823472D01*
X127147141Y-117673357D01*
X127088569Y-117531952D01*
X127003536Y-117404691D01*
X126895309Y-117296464D01*
X126768048Y-117211431D01*
X126626643Y-117152859D01*
X126476528Y-117123000D01*
X126332935Y-117123000D01*
X125897401Y-116687467D01*
X125881684Y-116668316D01*
X125805245Y-116605583D01*
X125718036Y-116558969D01*
X125623409Y-116530264D01*
X125549653Y-116523000D01*
X125549643Y-116523000D01*
X125525000Y-116520573D01*
X125500357Y-116523000D01*
X124147237Y-116523000D01*
X124191041Y-116441048D01*
X124219746Y-116346421D01*
X124227010Y-116272665D01*
X124227010Y-116272656D01*
X124229437Y-116248013D01*
X124227010Y-116223370D01*
X124227010Y-114880651D01*
X124229437Y-114856008D01*
X124227010Y-114831365D01*
X124227010Y-114831355D01*
X124219746Y-114757599D01*
X124191041Y-114662972D01*
X124158451Y-114602000D01*
X124144427Y-114575762D01*
X124097410Y-114518472D01*
X124097402Y-114518464D01*
X124081694Y-114499324D01*
X124062553Y-114483615D01*
X123341401Y-113762465D01*
X123325686Y-113743316D01*
X123249247Y-113680583D01*
X123162038Y-113633969D01*
X123067411Y-113605264D01*
X122993655Y-113598000D01*
X122993645Y-113598000D01*
X122969002Y-113595573D01*
X122944359Y-113598000D01*
X121577619Y-113598000D01*
X123602458Y-111573162D01*
X123607178Y-111588723D01*
%TA.AperFunction,Conductor*%
D29*
G36*
X123607178Y-111588723D02*
G01*
X123610717Y-111595344D01*
X123613116Y-111602447D01*
X123632823Y-111636702D01*
X123651471Y-111671589D01*
X123656232Y-111677390D01*
X123659972Y-111683891D01*
X123685985Y-111713644D01*
X123711079Y-111744221D01*
X123716882Y-111748983D01*
X123721817Y-111754628D01*
X123753127Y-111778729D01*
X123783711Y-111803829D01*
X123790332Y-111807368D01*
X123796274Y-111811942D01*
X123831684Y-111829471D01*
X123866577Y-111848122D01*
X123873763Y-111850302D01*
X123880482Y-111853628D01*
X123918638Y-111863914D01*
X123956492Y-111875397D01*
X123963961Y-111876133D01*
X123971203Y-111878085D01*
X124010635Y-111880730D01*
X124026577Y-111882300D01*
X124034045Y-111882300D01*
X124064952Y-111884373D01*
X124080886Y-111882300D01*
X124819359Y-111882300D01*
X123721788Y-112823079D01*
X123673068Y-112873931D01*
X123622550Y-112953156D01*
X123588459Y-113040714D01*
X123572106Y-113133240D01*
X123574116Y-113227178D01*
X123594415Y-113318920D01*
X123632223Y-113404939D01*
X123686084Y-113481929D01*
X123753931Y-113546932D01*
X123833156Y-113597450D01*
X123920714Y-113631541D01*
X124013240Y-113647894D01*
X124107178Y-113645884D01*
X124198920Y-113625585D01*
X124284939Y-113587777D01*
X124342644Y-113547408D01*
X126108821Y-112033537D01*
X127875006Y-113547408D01*
X127932711Y-113587778D01*
X128018730Y-113625585D01*
X128110472Y-113645884D01*
X128204411Y-113647894D01*
X128296937Y-113631540D01*
X128384495Y-113597449D01*
X128463719Y-113546931D01*
X128531566Y-113481928D01*
X128573000Y-113422702D01*
X128573001Y-117009156D01*
X128495309Y-116931464D01*
X128368048Y-116846431D01*
X128226643Y-116787859D01*
X128076528Y-116758000D01*
X127923472Y-116758000D01*
X127773357Y-116787859D01*
X127631952Y-116846431D01*
X127504691Y-116931464D01*
X127396464Y-117039691D01*
X127311431Y-117166952D01*
X127252859Y-117308357D01*
X127223000Y-117458472D01*
X127223000Y-117611528D01*
X127252859Y-117761643D01*
X127311431Y-117903048D01*
X127396464Y-118030309D01*
X127498000Y-118131845D01*
X127498001Y-118951298D01*
X127427322Y-118958259D01*
X127309359Y-118994042D01*
X127200644Y-119052152D01*
X127105354Y-119130354D01*
X127027152Y-119225644D01*
X126969042Y-119334359D01*
X126933259Y-119452322D01*
X126921176Y-119574999D01*
X126921176Y-120825001D01*
X126933259Y-120947678D01*
X126969042Y-121065641D01*
X127027152Y-121174356D01*
X127105354Y-121269646D01*
X127200644Y-121347848D01*
X127309359Y-121405958D01*
X127427322Y-121441741D01*
X127549999Y-121453824D01*
X128350001Y-121453824D01*
X128472678Y-121441741D01*
X128573001Y-121411309D01*
X128573001Y-128979107D01*
X128560078Y-129110899D01*
X128527873Y-129217570D01*
X128475558Y-129315961D01*
X128405130Y-129402313D01*
X128319270Y-129473343D01*
X128221255Y-129526339D01*
X128114807Y-129559290D01*
X127984371Y-129573000D01*
X113413678Y-129573000D01*
X113501185Y-129501185D01*
X113580537Y-129404494D01*
X113639502Y-129294180D01*
X113675812Y-129174482D01*
X113688072Y-129050000D01*
X113685000Y-128485750D01*
X113526250Y-128327000D01*
X112327000Y-128327000D01*
X112327000Y-128347000D01*
X112073000Y-128347000D01*
X112073000Y-128327000D01*
X110873750Y-128327000D01*
X110715000Y-128485750D01*
X110711928Y-129050000D01*
X110724188Y-129174482D01*
X110760498Y-129294180D01*
X110819463Y-129404494D01*
X110898815Y-129501185D01*
X110981633Y-129569151D01*
X110889101Y-129560078D01*
X110782430Y-129527873D01*
X110684039Y-129475558D01*
X110597687Y-129405130D01*
X110526657Y-129319270D01*
X110473661Y-129221255D01*
X110440710Y-129114807D01*
X110427000Y-128984371D01*
X110427000Y-127350000D01*
X110711928Y-127350000D01*
X110715000Y-127914250D01*
X110873750Y-128073000D01*
X112073000Y-128073000D01*
X112073000Y-128053000D01*
X112327000Y-128053000D01*
X112327000Y-128073000D01*
X113526250Y-128073000D01*
X113685000Y-127914250D01*
X113688072Y-127350000D01*
X113675812Y-127225518D01*
X113653325Y-127151388D01*
X113696982Y-127151388D01*
X114476176Y-127930583D01*
X114476176Y-128700001D01*
X114488259Y-128822678D01*
X114524042Y-128940641D01*
X114582152Y-129049356D01*
X114660354Y-129144646D01*
X114755644Y-129222848D01*
X114864359Y-129280958D01*
X114982322Y-129316741D01*
X115104999Y-129328824D01*
X116355001Y-129328824D01*
X116477678Y-129316741D01*
X116595641Y-129280958D01*
X116704356Y-129222848D01*
X116799646Y-129144646D01*
X116877848Y-129049356D01*
X116935958Y-128940641D01*
X116971741Y-128822678D01*
X116973778Y-128802000D01*
X116986222Y-128802000D01*
X116988259Y-128822678D01*
X117024042Y-128940641D01*
X117082152Y-129049356D01*
X117160354Y-129144646D01*
X117255644Y-129222848D01*
X117364359Y-129280958D01*
X117482322Y-129316741D01*
X117604999Y-129328824D01*
X118855001Y-129328824D01*
X118977678Y-129316741D01*
X119095641Y-129280958D01*
X119204356Y-129222848D01*
X119299646Y-129144646D01*
X119377848Y-129049356D01*
X119435958Y-128940641D01*
X119471741Y-128822678D01*
X119473778Y-128802000D01*
X119486222Y-128802000D01*
X119488259Y-128822678D01*
X119524042Y-128940641D01*
X119582152Y-129049356D01*
X119660354Y-129144646D01*
X119755644Y-129222848D01*
X119864359Y-129280958D01*
X119982322Y-129316741D01*
X120104999Y-129328824D01*
X121355001Y-129328824D01*
X121477678Y-129316741D01*
X121595641Y-129280958D01*
X121704356Y-129222848D01*
X121799646Y-129144646D01*
X121877848Y-129049356D01*
X121935958Y-128940641D01*
X121971741Y-128822678D01*
X121973778Y-128802000D01*
X121986222Y-128802000D01*
X121988259Y-128822678D01*
X122024042Y-128940641D01*
X122082152Y-129049356D01*
X122160354Y-129144646D01*
X122255644Y-129222848D01*
X122364359Y-129280958D01*
X122482322Y-129316741D01*
X122604999Y-129328824D01*
X123855001Y-129328824D01*
X123977678Y-129316741D01*
X124095641Y-129280958D01*
X124204356Y-129222848D01*
X124299646Y-129144646D01*
X124377848Y-129049356D01*
X124435958Y-128940641D01*
X124471741Y-128822678D01*
X124483824Y-128700001D01*
X124483824Y-127899999D01*
X125246176Y-127899999D01*
X125246176Y-128700001D01*
X125258259Y-128822678D01*
X125294042Y-128940641D01*
X125352152Y-129049356D01*
X125430354Y-129144646D01*
X125525644Y-129222848D01*
X125634359Y-129280958D01*
X125752322Y-129316741D01*
X125874999Y-129328824D01*
X127125001Y-129328824D01*
X127247678Y-129316741D01*
X127365641Y-129280958D01*
X127474356Y-129222848D01*
X127569646Y-129144646D01*
X127647848Y-129049356D01*
X127705958Y-128940641D01*
X127741741Y-128822678D01*
X127753824Y-128700001D01*
X127753824Y-127899999D01*
X127741741Y-127777322D01*
X127705958Y-127659359D01*
X127647848Y-127550644D01*
X127569646Y-127455354D01*
X127474356Y-127377152D01*
X127365641Y-127319042D01*
X127247678Y-127283259D01*
X127125001Y-127271176D01*
X125874999Y-127271176D01*
X125752322Y-127283259D01*
X125634359Y-127319042D01*
X125525644Y-127377152D01*
X125430354Y-127455354D01*
X125352152Y-127550644D01*
X125294042Y-127659359D01*
X125258259Y-127777322D01*
X125246176Y-127899999D01*
X124483824Y-127899999D01*
X124471741Y-127777322D01*
X124435958Y-127659359D01*
X124377848Y-127550644D01*
X124299646Y-127455354D01*
X124204356Y-127377152D01*
X124095641Y-127319042D01*
X123977678Y-127283259D01*
X123855001Y-127271176D01*
X122604999Y-127271176D01*
X122482322Y-127283259D01*
X122364359Y-127319042D01*
X122255644Y-127377152D01*
X122160354Y-127455354D01*
X122082152Y-127550644D01*
X122024042Y-127659359D01*
X121988259Y-127777322D01*
X121986222Y-127798000D01*
X121973778Y-127798000D01*
X121971741Y-127777322D01*
X121935958Y-127659359D01*
X121877848Y-127550644D01*
X121799646Y-127455354D01*
X121704356Y-127377152D01*
X121595641Y-127319042D01*
X121477678Y-127283259D01*
X121355001Y-127271176D01*
X120104999Y-127271176D01*
X119982322Y-127283259D01*
X119864359Y-127319042D01*
X119755644Y-127377152D01*
X119660354Y-127455354D01*
X119582152Y-127550644D01*
X119524042Y-127659359D01*
X119488259Y-127777322D01*
X119486222Y-127798000D01*
X119473778Y-127798000D01*
X119471741Y-127777322D01*
X119435958Y-127659359D01*
X119377848Y-127550644D01*
X119299646Y-127455354D01*
X119204356Y-127377152D01*
X119095641Y-127319042D01*
X118977678Y-127283259D01*
X118855001Y-127271176D01*
X117604999Y-127271176D01*
X117482322Y-127283259D01*
X117364359Y-127319042D01*
X117255644Y-127377152D01*
X117160354Y-127455354D01*
X117082152Y-127550644D01*
X117024042Y-127659359D01*
X116988259Y-127777322D01*
X116986222Y-127798000D01*
X116973778Y-127798000D01*
X116971741Y-127777322D01*
X116935958Y-127659359D01*
X116877848Y-127550644D01*
X116799646Y-127455354D01*
X116704356Y-127377152D01*
X116595641Y-127319042D01*
X116477678Y-127283259D01*
X116355001Y-127271176D01*
X115236639Y-127271176D01*
X114406916Y-126441454D01*
X114406916Y-126297860D01*
X114377057Y-126147745D01*
X114318485Y-126006340D01*
X114233452Y-125879079D01*
X114125225Y-125770852D01*
X113997964Y-125685819D01*
X113856559Y-125627247D01*
X113706444Y-125597388D01*
X113553388Y-125597388D01*
X113427000Y-125622528D01*
X113427000Y-125539151D01*
X113379847Y-125302097D01*
X113287353Y-125078798D01*
X113153073Y-124877833D01*
X112982167Y-124706927D01*
X112781202Y-124572647D01*
X112557903Y-124480153D01*
X112469579Y-124462584D01*
X112944250Y-124460000D01*
X113103000Y-124301250D01*
X113103000Y-123027000D01*
X111903750Y-123027000D01*
X111745000Y-123185750D01*
X111741928Y-123825000D01*
X111754188Y-123949482D01*
X111790498Y-124069180D01*
X111849463Y-124179494D01*
X111928815Y-124276185D01*
X112025506Y-124355537D01*
X112135820Y-124414502D01*
X112196800Y-124433000D01*
X112079151Y-124433000D01*
X111842097Y-124480153D01*
X111618798Y-124572647D01*
X111417833Y-124706927D01*
X111246927Y-124877833D01*
X111112647Y-125078798D01*
X111020153Y-125302097D01*
X110973000Y-125539151D01*
X110973000Y-125780849D01*
X111020153Y-126017903D01*
X111112647Y-126241202D01*
X111246927Y-126442167D01*
X111417833Y-126613073D01*
X111567553Y-126713112D01*
X111350000Y-126711928D01*
X111225518Y-126724188D01*
X111105820Y-126760498D01*
X110995506Y-126819463D01*
X110898815Y-126898815D01*
X110819463Y-126995506D01*
X110760498Y-127105820D01*
X110724188Y-127225518D01*
X110711928Y-127350000D01*
X110427000Y-127350000D01*
X110427000Y-121727189D01*
X110537500Y-121738072D01*
X110914250Y-121735000D01*
X111073000Y-121576250D01*
X111073000Y-120327000D01*
X111327000Y-120327000D01*
X111327000Y-121576250D01*
X111485750Y-121735000D01*
X111788481Y-121737468D01*
X111754188Y-121850518D01*
X111741928Y-121975000D01*
X111745000Y-122614250D01*
X111903750Y-122773000D01*
X113103000Y-122773000D01*
X113103000Y-121498750D01*
X112944250Y-121340000D01*
X112454080Y-121337331D01*
X112488312Y-121224482D01*
X112500572Y-121100000D01*
X112497500Y-120485750D01*
X112338750Y-120327000D01*
X111327000Y-120327000D01*
X111073000Y-120327000D01*
X111053000Y-120327000D01*
X111053000Y-120073000D01*
X111073000Y-120073000D01*
X111073000Y-118823750D01*
X111327000Y-118823750D01*
X111327000Y-120073000D01*
X112338750Y-120073000D01*
X112497500Y-119914250D01*
X112500572Y-119300000D01*
X112488312Y-119175518D01*
X112452002Y-119055820D01*
X112393037Y-118945506D01*
X112313685Y-118848815D01*
X112216994Y-118769463D01*
X112106680Y-118710498D01*
X111986982Y-118674188D01*
X111862500Y-118661928D01*
X111485750Y-118665000D01*
X111327000Y-118823750D01*
X111073000Y-118823750D01*
X110914250Y-118665000D01*
X110537500Y-118661928D01*
X110427000Y-118672811D01*
X110427000Y-116007289D01*
X110485399Y-116007216D01*
X110539081Y-116158747D01*
X110612528Y-116296157D01*
X110861603Y-116373792D01*
X111229108Y-116006287D01*
X111588767Y-116005838D01*
X111041208Y-116553397D01*
X111118843Y-116802472D01*
X111382883Y-116928371D01*
X111666411Y-117000339D01*
X111958531Y-117015611D01*
X111976052Y-117013068D01*
X112021633Y-117123111D01*
X112106666Y-117250372D01*
X112208203Y-117351909D01*
X112208203Y-117878869D01*
X112205775Y-117903521D01*
X112215467Y-118001931D01*
X112244172Y-118096558D01*
X112290786Y-118183766D01*
X112337803Y-118241056D01*
X112337806Y-118241059D01*
X112353519Y-118260205D01*
X112372665Y-118275918D01*
X112780944Y-118684197D01*
X112796657Y-118703343D01*
X112815803Y-118719056D01*
X112815805Y-118719058D01*
X112828948Y-118729844D01*
X112873096Y-118766076D01*
X112960305Y-118812690D01*
X113054932Y-118841395D01*
X113128688Y-118848659D01*
X113128698Y-118848659D01*
X113153341Y-118851086D01*
X113177984Y-118848659D01*
X114645227Y-118848659D01*
X114670100Y-118869072D01*
X114757309Y-118915686D01*
X114793631Y-118926704D01*
X114737503Y-118921176D01*
X113912497Y-118921176D01*
X113789820Y-118933259D01*
X113671858Y-118969042D01*
X113563143Y-119027151D01*
X113467853Y-119105353D01*
X113389651Y-119200643D01*
X113331542Y-119309358D01*
X113295759Y-119427320D01*
X113283676Y-119549997D01*
X113283676Y-120850003D01*
X113295759Y-120972680D01*
X113331542Y-121090642D01*
X113389651Y-121199357D01*
X113467853Y-121294647D01*
X113523068Y-121339960D01*
X113515750Y-121340000D01*
X113357000Y-121498750D01*
X113357000Y-122773000D01*
X113377000Y-122773000D01*
X113377000Y-123027000D01*
X113357000Y-123027000D01*
X113357000Y-124301250D01*
X113515750Y-124460000D01*
X114080000Y-124463072D01*
X114204482Y-124450812D01*
X114324180Y-124414502D01*
X114434494Y-124355537D01*
X114531185Y-124276185D01*
X114610537Y-124179494D01*
X114669502Y-124069180D01*
X114705812Y-123949482D01*
X114718072Y-123825000D01*
X114717352Y-123675216D01*
X114858184Y-123846817D01*
X115045018Y-124000149D01*
X115228000Y-124097954D01*
X115228000Y-124171176D01*
X115104999Y-124171176D01*
X114982322Y-124183259D01*
X114864359Y-124219042D01*
X114755644Y-124277152D01*
X114660354Y-124355354D01*
X114582152Y-124450644D01*
X114524042Y-124559359D01*
X114488259Y-124677322D01*
X114476176Y-124799999D01*
X114476176Y-125600001D01*
X114488259Y-125722678D01*
X114524042Y-125840641D01*
X114582152Y-125949356D01*
X114660354Y-126044646D01*
X114755644Y-126122848D01*
X114864359Y-126180958D01*
X114982322Y-126216741D01*
X115104999Y-126228824D01*
X116355001Y-126228824D01*
X116477678Y-126216741D01*
X116595641Y-126180958D01*
X116704356Y-126122848D01*
X116799646Y-126044646D01*
X116877848Y-125949356D01*
X116935958Y-125840641D01*
X116971741Y-125722678D01*
X116980000Y-125638826D01*
X116988259Y-125722678D01*
X117024042Y-125840641D01*
X117082152Y-125949356D01*
X117160354Y-126044646D01*
X117255644Y-126122848D01*
X117364359Y-126180958D01*
X117482322Y-126216741D01*
X117604999Y-126228824D01*
X118855001Y-126228824D01*
X118977678Y-126216741D01*
X119095641Y-126180958D01*
X119204356Y-126122848D01*
X119299646Y-126044646D01*
X119377848Y-125949356D01*
X119435958Y-125840641D01*
X119471741Y-125722678D01*
X119480000Y-125638826D01*
X119488259Y-125722678D01*
X119524042Y-125840641D01*
X119582152Y-125949356D01*
X119660354Y-126044646D01*
X119755644Y-126122848D01*
X119864359Y-126180958D01*
X119982322Y-126216741D01*
X120104999Y-126228824D01*
X121355001Y-126228824D01*
X121477678Y-126216741D01*
X121595641Y-126180958D01*
X121704356Y-126122848D01*
X121799646Y-126044646D01*
X121877848Y-125949356D01*
X121935958Y-125840641D01*
X121971741Y-125722678D01*
X121980000Y-125638826D01*
X121988259Y-125722678D01*
X122024042Y-125840641D01*
X122082152Y-125949356D01*
X122160354Y-126044646D01*
X122255644Y-126122848D01*
X122364359Y-126180958D01*
X122482322Y-126216741D01*
X122604999Y-126228824D01*
X123855001Y-126228824D01*
X123977678Y-126216741D01*
X124095641Y-126180958D01*
X124204356Y-126122848D01*
X124299646Y-126044646D01*
X124377848Y-125949356D01*
X124435958Y-125840641D01*
X124471741Y-125722678D01*
X124483824Y-125600001D01*
X124483824Y-124799999D01*
X124471741Y-124677322D01*
X124435958Y-124559359D01*
X124377848Y-124450644D01*
X124299646Y-124355354D01*
X124204356Y-124277152D01*
X124095641Y-124219042D01*
X123977678Y-124183259D01*
X123855001Y-124171176D01*
X123732000Y-124171176D01*
X123732000Y-124097955D01*
X123914983Y-124000149D01*
X124101817Y-123846817D01*
X124255149Y-123659982D01*
X124369084Y-123446823D01*
X124439245Y-123215533D01*
X124457000Y-123035267D01*
X124457000Y-122764732D01*
X124439245Y-122584466D01*
X124369084Y-122353176D01*
X124255149Y-122140017D01*
X124101817Y-121953183D01*
X123914982Y-121799851D01*
X123701823Y-121685916D01*
X123470533Y-121615755D01*
X123230000Y-121592064D01*
X122989466Y-121615755D01*
X122758176Y-121685916D01*
X122545017Y-121799851D01*
X122358183Y-121953183D01*
X122204851Y-122140018D01*
X122090916Y-122353177D01*
X122020755Y-122584467D01*
X122003000Y-122764733D01*
X122003000Y-123035268D01*
X122020755Y-123215534D01*
X122090916Y-123446824D01*
X122204851Y-123659983D01*
X122358184Y-123846817D01*
X122545018Y-124000149D01*
X122728000Y-124097954D01*
X122728000Y-124171176D01*
X122604999Y-124171176D01*
X122482322Y-124183259D01*
X122364359Y-124219042D01*
X122255644Y-124277152D01*
X122160354Y-124355354D01*
X122082152Y-124450644D01*
X122024042Y-124559359D01*
X121988259Y-124677322D01*
X121980000Y-124761174D01*
X121971741Y-124677322D01*
X121935958Y-124559359D01*
X121877848Y-124450644D01*
X121799646Y-124355354D01*
X121704356Y-124277152D01*
X121595641Y-124219042D01*
X121477678Y-124183259D01*
X121355001Y-124171176D01*
X121232000Y-124171176D01*
X121232000Y-124097955D01*
X121414983Y-124000149D01*
X121601817Y-123846817D01*
X121755149Y-123659982D01*
X121869084Y-123446823D01*
X121939245Y-123215533D01*
X121957000Y-123035267D01*
X121957000Y-122764732D01*
X121939245Y-122584466D01*
X121869084Y-122353176D01*
X121755149Y-122140017D01*
X121601817Y-121953183D01*
X121414982Y-121799851D01*
X121201823Y-121685916D01*
X120970533Y-121615755D01*
X120730000Y-121592064D01*
X120489466Y-121615755D01*
X120258176Y-121685916D01*
X120045017Y-121799851D01*
X119858183Y-121953183D01*
X119704851Y-122140018D01*
X119590916Y-122353177D01*
X119520755Y-122584467D01*
X119503000Y-122764733D01*
X119503000Y-123035268D01*
X119520755Y-123215534D01*
X119590916Y-123446824D01*
X119704851Y-123659983D01*
X119858184Y-123846817D01*
X120045018Y-124000149D01*
X120228000Y-124097954D01*
X120228000Y-124171176D01*
X120104999Y-124171176D01*
X119982322Y-124183259D01*
X119864359Y-124219042D01*
X119755644Y-124277152D01*
X119660354Y-124355354D01*
X119582152Y-124450644D01*
X119524042Y-124559359D01*
X119488259Y-124677322D01*
X119480000Y-124761174D01*
X119471741Y-124677322D01*
X119435958Y-124559359D01*
X119377848Y-124450644D01*
X119299646Y-124355354D01*
X119204356Y-124277152D01*
X119095641Y-124219042D01*
X118977678Y-124183259D01*
X118855001Y-124171176D01*
X118732000Y-124171176D01*
X118732000Y-124097955D01*
X118914983Y-124000149D01*
X119101817Y-123846817D01*
X119255149Y-123659982D01*
X119369084Y-123446823D01*
X119439245Y-123215533D01*
X119457000Y-123035267D01*
X119457000Y-122764732D01*
X119439245Y-122584466D01*
X119369084Y-122353176D01*
X119255149Y-122140017D01*
X119101817Y-121953183D01*
X118914982Y-121799851D01*
X118701823Y-121685916D01*
X118470533Y-121615755D01*
X118230000Y-121592064D01*
X117989466Y-121615755D01*
X117758176Y-121685916D01*
X117545017Y-121799851D01*
X117358183Y-121953183D01*
X117204851Y-122140018D01*
X117090916Y-122353177D01*
X117020755Y-122584467D01*
X117003000Y-122764733D01*
X117003000Y-123035268D01*
X117020755Y-123215534D01*
X117090916Y-123446824D01*
X117204851Y-123659983D01*
X117358184Y-123846817D01*
X117545018Y-124000149D01*
X117728000Y-124097954D01*
X117728000Y-124171176D01*
X117604999Y-124171176D01*
X117482322Y-124183259D01*
X117364359Y-124219042D01*
X117255644Y-124277152D01*
X117160354Y-124355354D01*
X117082152Y-124450644D01*
X117024042Y-124559359D01*
X116988259Y-124677322D01*
X116980000Y-124761174D01*
X116971741Y-124677322D01*
X116935958Y-124559359D01*
X116877848Y-124450644D01*
X116799646Y-124355354D01*
X116704356Y-124277152D01*
X116595641Y-124219042D01*
X116477678Y-124183259D01*
X116355001Y-124171176D01*
X116232000Y-124171176D01*
X116232000Y-124097955D01*
X116414983Y-124000149D01*
X116601817Y-123846817D01*
X116755149Y-123659982D01*
X116869084Y-123446823D01*
X116939245Y-123215533D01*
X116957000Y-123035267D01*
X116957000Y-122764732D01*
X116939245Y-122584466D01*
X116869084Y-122353176D01*
X116755149Y-122140017D01*
X116601817Y-121953183D01*
X116414982Y-121799851D01*
X116201823Y-121685916D01*
X115970533Y-121615755D01*
X115730000Y-121592064D01*
X115489466Y-121615755D01*
X115258176Y-121685916D01*
X115237110Y-121697176D01*
X114972580Y-121432645D01*
X114978142Y-121430958D01*
X115086857Y-121372849D01*
X115182147Y-121294647D01*
X115260349Y-121199357D01*
X115318458Y-121090642D01*
X115354241Y-120972680D01*
X115366324Y-120850003D01*
X115366324Y-119549997D01*
X115354241Y-119427320D01*
X115318458Y-119309358D01*
X115260349Y-119200643D01*
X115182147Y-119105353D01*
X115086857Y-119027151D01*
X114978142Y-118969042D01*
X114918484Y-118950945D01*
X114925692Y-118951655D01*
X114925701Y-118951655D01*
X114950344Y-118954082D01*
X114974987Y-118951655D01*
X115141031Y-118951655D01*
X116677262Y-120487888D01*
X116692971Y-120507029D01*
X116712111Y-120522737D01*
X116712119Y-120522745D01*
X116762729Y-120564279D01*
X116769410Y-120569762D01*
X116856619Y-120616376D01*
X116951246Y-120645081D01*
X117025002Y-120652345D01*
X117025012Y-120652345D01*
X117049655Y-120654772D01*
X117074298Y-120652345D01*
X119082978Y-120652345D01*
X119093186Y-120662553D01*
X119108904Y-120681705D01*
X119185343Y-120744438D01*
X119272552Y-120791052D01*
X119367179Y-120819757D01*
X119440935Y-120827021D01*
X119440944Y-120827021D01*
X119465587Y-120829448D01*
X119490230Y-120827021D01*
X122150336Y-120827021D01*
X122174979Y-120829448D01*
X122199622Y-120827021D01*
X122199632Y-120827021D01*
X122273388Y-120819757D01*
X122368015Y-120791052D01*
X122455224Y-120744438D01*
X122531663Y-120681705D01*
X122547381Y-120662553D01*
X122637532Y-120572402D01*
X122656684Y-120556684D01*
X122719417Y-120480245D01*
X122766031Y-120393036D01*
X122794736Y-120298409D01*
X122796263Y-120282905D01*
X123256262Y-120282905D01*
X123280905Y-120285332D01*
X123305548Y-120282905D01*
X123305558Y-120282905D01*
X123379314Y-120275641D01*
X123473941Y-120246936D01*
X123561150Y-120200322D01*
X123637589Y-120137589D01*
X123653306Y-120118438D01*
X123821176Y-119950568D01*
X123821176Y-120825001D01*
X123833259Y-120947678D01*
X123869042Y-121065641D01*
X123927152Y-121174356D01*
X124005354Y-121269646D01*
X124100644Y-121347848D01*
X124209359Y-121405958D01*
X124327322Y-121441741D01*
X124348001Y-121443778D01*
X124348001Y-121995347D01*
X124345573Y-122020000D01*
X124355265Y-122118409D01*
X124383970Y-122213036D01*
X124430584Y-122300245D01*
X124477601Y-122357535D01*
X124477604Y-122357538D01*
X124493317Y-122376684D01*
X124512463Y-122392397D01*
X124563528Y-122443462D01*
X124520755Y-122584467D01*
X124503000Y-122764733D01*
X124503000Y-123035268D01*
X124520755Y-123215534D01*
X124590916Y-123446824D01*
X124704851Y-123659983D01*
X124858184Y-123846817D01*
X125045018Y-124000149D01*
X125258177Y-124114084D01*
X125489467Y-124184245D01*
X125685440Y-124203547D01*
X125634359Y-124219042D01*
X125525644Y-124277152D01*
X125430354Y-124355354D01*
X125352152Y-124450644D01*
X125294042Y-124559359D01*
X125258259Y-124677322D01*
X125246176Y-124799999D01*
X125246176Y-125600001D01*
X125258259Y-125722678D01*
X125294042Y-125840641D01*
X125352152Y-125949356D01*
X125430354Y-126044646D01*
X125525644Y-126122848D01*
X125634359Y-126180958D01*
X125752322Y-126216741D01*
X125874999Y-126228824D01*
X127125001Y-126228824D01*
X127247678Y-126216741D01*
X127365641Y-126180958D01*
X127474356Y-126122848D01*
X127569646Y-126044646D01*
X127647848Y-125949356D01*
X127705958Y-125840641D01*
X127741741Y-125722678D01*
X127753824Y-125600001D01*
X127753824Y-124799999D01*
X127741741Y-124677322D01*
X127705958Y-124559359D01*
X127647848Y-124450644D01*
X127569646Y-124355354D01*
X127474356Y-124277152D01*
X127365641Y-124219042D01*
X127247678Y-124183259D01*
X127125001Y-124171176D01*
X127002000Y-124171176D01*
X127002000Y-123694642D01*
X127004427Y-123669999D01*
X127002000Y-123645356D01*
X127002000Y-123645347D01*
X126994736Y-123571591D01*
X126966031Y-123476964D01*
X126919417Y-123389755D01*
X126895307Y-123360377D01*
X126939245Y-123215533D01*
X126957000Y-123035267D01*
X126957000Y-122764732D01*
X126939245Y-122584466D01*
X126869084Y-122353176D01*
X126755149Y-122140017D01*
X126601817Y-121953183D01*
X126414982Y-121799851D01*
X126201823Y-121685916D01*
X125970533Y-121615755D01*
X125730000Y-121592064D01*
X125489466Y-121615755D01*
X125352000Y-121657455D01*
X125352000Y-121443778D01*
X125372678Y-121441741D01*
X125490641Y-121405958D01*
X125599356Y-121347848D01*
X125694646Y-121269646D01*
X125772848Y-121174356D01*
X125830958Y-121065641D01*
X125866741Y-120947678D01*
X125878824Y-120825001D01*
X125878824Y-119574999D01*
X125866741Y-119452322D01*
X125830958Y-119334359D01*
X125772848Y-119225644D01*
X125694646Y-119130354D01*
X125599356Y-119052152D01*
X125490641Y-118994042D01*
X125372678Y-118958259D01*
X125250001Y-118946176D01*
X124825570Y-118946176D01*
X124862545Y-118909201D01*
X124881686Y-118893492D01*
X124897394Y-118874352D01*
X124897402Y-118874344D01*
X124944418Y-118817054D01*
X124946751Y-118812690D01*
X124991033Y-118729844D01*
X125019738Y-118635217D01*
X125027002Y-118561461D01*
X125027002Y-118561451D01*
X125029429Y-118536808D01*
X125027002Y-118512165D01*
X125027002Y-117881641D01*
X125029429Y-117856996D01*
X125027002Y-117832350D01*
X125027002Y-117832343D01*
X125019738Y-117758587D01*
X125007218Y-117717314D01*
X124991033Y-117663959D01*
X124944419Y-117576750D01*
X124903589Y-117527000D01*
X125317066Y-117527000D01*
X125623000Y-117832935D01*
X125623000Y-117976528D01*
X125652859Y-118126643D01*
X125711431Y-118268048D01*
X125796464Y-118395309D01*
X125904691Y-118503536D01*
X126031952Y-118588569D01*
X126173357Y-118647141D01*
X126323472Y-118677000D01*
X126476528Y-118677000D01*
X126626643Y-118647141D01*
X126768048Y-118588569D01*
X126895309Y-118503536D01*
X127003536Y-118395309D01*
X127088569Y-118268048D01*
X127147141Y-118126643D01*
X127177000Y-117976528D01*
X127177000Y-117823472D01*
X127147141Y-117673357D01*
X127088569Y-117531952D01*
X127003536Y-117404691D01*
X126895309Y-117296464D01*
X126768048Y-117211431D01*
X126626643Y-117152859D01*
X126476528Y-117123000D01*
X126332935Y-117123000D01*
X125897401Y-116687467D01*
X125881684Y-116668316D01*
X125805245Y-116605583D01*
X125718036Y-116558969D01*
X125623409Y-116530264D01*
X125549653Y-116523000D01*
X125549643Y-116523000D01*
X125525000Y-116520573D01*
X125500357Y-116523000D01*
X124147237Y-116523000D01*
X124191041Y-116441048D01*
X124219746Y-116346421D01*
X124227010Y-116272665D01*
X124227010Y-116272656D01*
X124229437Y-116248013D01*
X124227010Y-116223370D01*
X124227010Y-114880651D01*
X124229437Y-114856008D01*
X124227010Y-114831365D01*
X124227010Y-114831355D01*
X124219746Y-114757599D01*
X124191041Y-114662972D01*
X124158451Y-114602000D01*
X124144427Y-114575762D01*
X124097410Y-114518472D01*
X124097402Y-114518464D01*
X124081694Y-114499324D01*
X124062553Y-114483615D01*
X123341401Y-113762465D01*
X123325686Y-113743316D01*
X123249247Y-113680583D01*
X123162038Y-113633969D01*
X123067411Y-113605264D01*
X122993655Y-113598000D01*
X122993645Y-113598000D01*
X122969002Y-113595573D01*
X122944359Y-113598000D01*
X121577619Y-113598000D01*
X123602458Y-111573162D01*
X123607178Y-111588723D01*
G37*
%TD.AperFunction*%
D28*
X116853553Y-117113258D02*
X116980814Y-117198291D01*
X117122219Y-117256863D01*
X117272334Y-117286722D01*
X117415927Y-117286722D01*
X117491743Y-117362538D01*
X117507456Y-117381684D01*
X117526602Y-117397397D01*
X117526604Y-117397399D01*
X117540479Y-117408786D01*
X117583895Y-117444417D01*
X117671104Y-117491031D01*
X117765731Y-117519736D01*
X117833895Y-117526449D01*
X117826891Y-117534633D01*
X117765663Y-117643706D01*
X117726891Y-117762629D01*
X117715000Y-117866250D01*
X117873750Y-118025000D01*
X117715000Y-118183750D01*
X117726891Y-118287371D01*
X117765663Y-118406294D01*
X117826891Y-118515367D01*
X117908223Y-118610400D01*
X118006531Y-118687740D01*
X118118038Y-118744415D01*
X118173000Y-118759856D01*
X118173000Y-119198334D01*
X117487724Y-119198334D01*
X116081100Y-117791711D01*
X116081100Y-117648117D01*
X116051241Y-117498002D01*
X115992669Y-117356597D01*
X115907636Y-117229336D01*
X115826617Y-117148317D01*
X116132595Y-117166718D01*
X116451675Y-117122961D01*
X116756088Y-117017795D01*
X116757393Y-117017098D01*
X116853553Y-117113258D01*
%TA.AperFunction,Conductor*%
D29*
G36*
X116853553Y-117113258D02*
G01*
X116980814Y-117198291D01*
X117122219Y-117256863D01*
X117272334Y-117286722D01*
X117415927Y-117286722D01*
X117491743Y-117362538D01*
X117507456Y-117381684D01*
X117526602Y-117397397D01*
X117526604Y-117397399D01*
X117540479Y-117408786D01*
X117583895Y-117444417D01*
X117671104Y-117491031D01*
X117765731Y-117519736D01*
X117833895Y-117526449D01*
X117826891Y-117534633D01*
X117765663Y-117643706D01*
X117726891Y-117762629D01*
X117715000Y-117866250D01*
X117873750Y-118025000D01*
X117715000Y-118183750D01*
X117726891Y-118287371D01*
X117765663Y-118406294D01*
X117826891Y-118515367D01*
X117908223Y-118610400D01*
X118006531Y-118687740D01*
X118118038Y-118744415D01*
X118173000Y-118759856D01*
X118173000Y-119198334D01*
X117487724Y-119198334D01*
X116081100Y-117791711D01*
X116081100Y-117648117D01*
X116051241Y-117498002D01*
X115992669Y-117356597D01*
X115907636Y-117229336D01*
X115826617Y-117148317D01*
X116132595Y-117166718D01*
X116451675Y-117122961D01*
X116756088Y-117017795D01*
X116757393Y-117017098D01*
X116853553Y-117113258D01*
G37*
%TD.AperFunction*%
D28*
X116532998Y-115241607D02*
X116249605Y-115525000D01*
X116263748Y-115539143D01*
X116084143Y-115718748D01*
X116070000Y-115704605D01*
X115114192Y-116660413D01*
X115209956Y-116924814D01*
X115256888Y-116947645D01*
X115227572Y-116947645D01*
X115077457Y-116977504D01*
X114936052Y-117036076D01*
X114808791Y-117121109D01*
X114700564Y-117229336D01*
X114615531Y-117356597D01*
X114556959Y-117498002D01*
X114527100Y-117648117D01*
X114527100Y-117801173D01*
X114535750Y-117844659D01*
X113361276Y-117844659D01*
X113212202Y-117695586D01*
X113212202Y-117351908D01*
X113313738Y-117250372D01*
X113398771Y-117123111D01*
X113457343Y-116981706D01*
X113466987Y-116933223D01*
X113495977Y-116952594D01*
X113637382Y-117011166D01*
X113787497Y-117041025D01*
X113940553Y-117041025D01*
X114090668Y-117011166D01*
X114232073Y-116952594D01*
X114359334Y-116867561D01*
X114467561Y-116759334D01*
X114552594Y-116632073D01*
X114611166Y-116490668D01*
X114641025Y-116340553D01*
X114641025Y-116330487D01*
X114670186Y-116385044D01*
X114934587Y-116480808D01*
X115421804Y-115993591D01*
X115534180Y-115959502D01*
X115644494Y-115900537D01*
X115741185Y-115821185D01*
X115820537Y-115724494D01*
X115879502Y-115614180D01*
X115915812Y-115494482D01*
X115918345Y-115468765D01*
X116052711Y-115334399D01*
X116059692Y-115335087D01*
X116070000Y-115345395D01*
X116078460Y-115336935D01*
X116090000Y-115338072D01*
X116374250Y-115335000D01*
X116532998Y-115176252D01*
X116532998Y-115241607D01*
%TA.AperFunction,Conductor*%
D29*
G36*
X116532998Y-115241607D02*
G01*
X116249605Y-115525000D01*
X116263748Y-115539143D01*
X116084143Y-115718748D01*
X116070000Y-115704605D01*
X115114192Y-116660413D01*
X115209956Y-116924814D01*
X115256888Y-116947645D01*
X115227572Y-116947645D01*
X115077457Y-116977504D01*
X114936052Y-117036076D01*
X114808791Y-117121109D01*
X114700564Y-117229336D01*
X114615531Y-117356597D01*
X114556959Y-117498002D01*
X114527100Y-117648117D01*
X114527100Y-117801173D01*
X114535750Y-117844659D01*
X113361276Y-117844659D01*
X113212202Y-117695586D01*
X113212202Y-117351908D01*
X113313738Y-117250372D01*
X113398771Y-117123111D01*
X113457343Y-116981706D01*
X113466987Y-116933223D01*
X113495977Y-116952594D01*
X113637382Y-117011166D01*
X113787497Y-117041025D01*
X113940553Y-117041025D01*
X114090668Y-117011166D01*
X114232073Y-116952594D01*
X114359334Y-116867561D01*
X114467561Y-116759334D01*
X114552594Y-116632073D01*
X114611166Y-116490668D01*
X114641025Y-116340553D01*
X114641025Y-116330487D01*
X114670186Y-116385044D01*
X114934587Y-116480808D01*
X115421804Y-115993591D01*
X115534180Y-115959502D01*
X115644494Y-115900537D01*
X115741185Y-115821185D01*
X115820537Y-115724494D01*
X115879502Y-115614180D01*
X115915812Y-115494482D01*
X115918345Y-115468765D01*
X116052711Y-115334399D01*
X116059692Y-115335087D01*
X116070000Y-115345395D01*
X116078460Y-115336935D01*
X116090000Y-115338072D01*
X116374250Y-115335000D01*
X116532998Y-115176252D01*
X116532998Y-115241607D01*
G37*
%TD.AperFunction*%
D28*
X112672000Y-111073000D02*
X112692000Y-111073000D01*
X112692000Y-111327000D01*
X112672000Y-111327000D01*
X112672000Y-111347000D01*
X112418000Y-111347000D01*
X112418000Y-111327000D01*
X112398000Y-111327000D01*
X112398000Y-111073000D01*
X112418000Y-111073000D01*
X112418000Y-108263381D01*
X112523747Y-108225919D01*
X112661157Y-108152472D01*
X112672000Y-108117685D01*
X112672000Y-111073000D01*
%TA.AperFunction,Conductor*%
D29*
G36*
X112672000Y-111073000D02*
G01*
X112692000Y-111073000D01*
X112692000Y-111327000D01*
X112672000Y-111327000D01*
X112672000Y-111347000D01*
X112418000Y-111347000D01*
X112418000Y-111327000D01*
X112398000Y-111327000D01*
X112398000Y-111073000D01*
X112418000Y-111073000D01*
X112418000Y-108263381D01*
X112523747Y-108225919D01*
X112661157Y-108152472D01*
X112672000Y-108117685D01*
X112672000Y-111073000D01*
G37*
%TD.AperFunction*%
D28*
X118148000Y-107545919D02*
X118148001Y-108948000D01*
X117608824Y-108948000D01*
X117608824Y-108810570D01*
X117681185Y-108751185D01*
X117760537Y-108654494D01*
X117819502Y-108544180D01*
X117855812Y-108424482D01*
X117868072Y-108300000D01*
X117865000Y-108285750D01*
X117706250Y-108127000D01*
X117289132Y-108127000D01*
X117230000Y-108121176D01*
X116985690Y-108121176D01*
X117025808Y-108010413D01*
X116888395Y-107873000D01*
X117706250Y-107873000D01*
X117865000Y-107714250D01*
X117868072Y-107700000D01*
X117855812Y-107575518D01*
X117819502Y-107455820D01*
X117760537Y-107345506D01*
X117681185Y-107248815D01*
X117665605Y-107236029D01*
X117692384Y-107133892D01*
X117694857Y-107092775D01*
X118148000Y-107545919D01*
%TA.AperFunction,Conductor*%
D29*
G36*
X118148000Y-107545919D02*
G01*
X118148001Y-108948000D01*
X117608824Y-108948000D01*
X117608824Y-108810570D01*
X117681185Y-108751185D01*
X117760537Y-108654494D01*
X117819502Y-108544180D01*
X117855812Y-108424482D01*
X117868072Y-108300000D01*
X117865000Y-108285750D01*
X117706250Y-108127000D01*
X117289132Y-108127000D01*
X117230000Y-108121176D01*
X116985690Y-108121176D01*
X117025808Y-108010413D01*
X116888395Y-107873000D01*
X117706250Y-107873000D01*
X117865000Y-107714250D01*
X117868072Y-107700000D01*
X117855812Y-107575518D01*
X117819502Y-107455820D01*
X117760537Y-107345506D01*
X117681185Y-107248815D01*
X117665605Y-107236029D01*
X117692384Y-107133892D01*
X117694857Y-107092775D01*
X118148000Y-107545919D01*
G37*
%TD.AperFunction*%
D28*
X116263748Y-106860858D02*
X116249605Y-106875000D01*
X116532998Y-107158393D01*
X116532998Y-107223748D01*
X116374250Y-107065000D01*
X116090000Y-107061928D01*
X116078460Y-107063065D01*
X116070000Y-107054605D01*
X116059692Y-107064913D01*
X116052711Y-107065601D01*
X115918345Y-106931235D01*
X115915812Y-106905518D01*
X115896210Y-106840900D01*
X116055858Y-106681253D01*
X116070000Y-106695395D01*
X116084143Y-106681253D01*
X116263748Y-106860858D01*
%TA.AperFunction,Conductor*%
D29*
G36*
X116263748Y-106860858D02*
G01*
X116249605Y-106875000D01*
X116532998Y-107158393D01*
X116532998Y-107223748D01*
X116374250Y-107065000D01*
X116090000Y-107061928D01*
X116078460Y-107063065D01*
X116070000Y-107054605D01*
X116059692Y-107064913D01*
X116052711Y-107065601D01*
X115918345Y-106931235D01*
X115915812Y-106905518D01*
X115896210Y-106840900D01*
X116055858Y-106681253D01*
X116070000Y-106695395D01*
X116084143Y-106681253D01*
X116263748Y-106860858D01*
G37*
%TD.AperFunction*%
D28*
X125197000Y-102143000D02*
X125217000Y-102143000D01*
X125217000Y-102397000D01*
X125197000Y-102397000D01*
X125197000Y-103508250D01*
X125355750Y-103667000D01*
X125546941Y-103668233D01*
X125504691Y-103696464D01*
X125396464Y-103804691D01*
X125311431Y-103931952D01*
X125252859Y-104073357D01*
X125223000Y-104223472D01*
X125223000Y-104376528D01*
X125252859Y-104526643D01*
X125311431Y-104668048D01*
X125396464Y-104795309D01*
X125504691Y-104903536D01*
X125631952Y-104988569D01*
X125773357Y-105047141D01*
X125923472Y-105077000D01*
X126076528Y-105077000D01*
X126226643Y-105047141D01*
X126368048Y-104988569D01*
X126495309Y-104903536D01*
X126603536Y-104795309D01*
X126688569Y-104668048D01*
X126747141Y-104526643D01*
X126777000Y-104376528D01*
X126777000Y-104232935D01*
X127108001Y-103901934D01*
X127108001Y-104675550D01*
X125690040Y-106093512D01*
X125546446Y-106093512D01*
X125396331Y-106123371D01*
X125254926Y-106181943D01*
X125127665Y-106266976D01*
X125019438Y-106375203D01*
X124934405Y-106502464D01*
X124875833Y-106643869D01*
X124858018Y-106733436D01*
X124816812Y-106633957D01*
X124731779Y-106506696D01*
X124623552Y-106398469D01*
X124496291Y-106313436D01*
X124354886Y-106254864D01*
X124204771Y-106225005D01*
X124051715Y-106225005D01*
X123901600Y-106254864D01*
X123881999Y-106262983D01*
X123881999Y-103503853D01*
X123953506Y-103562537D01*
X124063820Y-103621502D01*
X124183518Y-103657812D01*
X124308000Y-103670072D01*
X124784250Y-103667000D01*
X124943000Y-103508250D01*
X124943000Y-102397000D01*
X124923000Y-102397000D01*
X124923000Y-102143000D01*
X124943000Y-102143000D01*
X124943000Y-102123000D01*
X125197000Y-102123000D01*
X125197000Y-102143000D01*
%TA.AperFunction,Conductor*%
D29*
G36*
X125197000Y-102143000D02*
G01*
X125217000Y-102143000D01*
X125217000Y-102397000D01*
X125197000Y-102397000D01*
X125197000Y-103508250D01*
X125355750Y-103667000D01*
X125546941Y-103668233D01*
X125504691Y-103696464D01*
X125396464Y-103804691D01*
X125311431Y-103931952D01*
X125252859Y-104073357D01*
X125223000Y-104223472D01*
X125223000Y-104376528D01*
X125252859Y-104526643D01*
X125311431Y-104668048D01*
X125396464Y-104795309D01*
X125504691Y-104903536D01*
X125631952Y-104988569D01*
X125773357Y-105047141D01*
X125923472Y-105077000D01*
X126076528Y-105077000D01*
X126226643Y-105047141D01*
X126368048Y-104988569D01*
X126495309Y-104903536D01*
X126603536Y-104795309D01*
X126688569Y-104668048D01*
X126747141Y-104526643D01*
X126777000Y-104376528D01*
X126777000Y-104232935D01*
X127108001Y-103901934D01*
X127108001Y-104675550D01*
X125690040Y-106093512D01*
X125546446Y-106093512D01*
X125396331Y-106123371D01*
X125254926Y-106181943D01*
X125127665Y-106266976D01*
X125019438Y-106375203D01*
X124934405Y-106502464D01*
X124875833Y-106643869D01*
X124858018Y-106733436D01*
X124816812Y-106633957D01*
X124731779Y-106506696D01*
X124623552Y-106398469D01*
X124496291Y-106313436D01*
X124354886Y-106254864D01*
X124204771Y-106225005D01*
X124051715Y-106225005D01*
X123901600Y-106254864D01*
X123881999Y-106262983D01*
X123881999Y-103503853D01*
X123953506Y-103562537D01*
X124063820Y-103621502D01*
X124183518Y-103657812D01*
X124308000Y-103670072D01*
X124784250Y-103667000D01*
X124943000Y-103508250D01*
X124943000Y-102397000D01*
X124923000Y-102397000D01*
X124923000Y-102143000D01*
X124943000Y-102143000D01*
X124943000Y-102123000D01*
X125197000Y-102123000D01*
X125197000Y-102143000D01*
G37*
%TD.AperFunction*%
D28*
X113219042Y-101434359D02*
X113183259Y-101552322D01*
X113171176Y-101674999D01*
X113171176Y-102925001D01*
X113183259Y-103047678D01*
X113219042Y-103165641D01*
X113277152Y-103274356D01*
X113355354Y-103369646D01*
X113450644Y-103447848D01*
X113559359Y-103505958D01*
X113622133Y-103525000D01*
X113559359Y-103544042D01*
X113450644Y-103602152D01*
X113355354Y-103680354D01*
X113277152Y-103775644D01*
X113219042Y-103884359D01*
X113183259Y-104002322D01*
X113171176Y-104124999D01*
X113171176Y-105375001D01*
X113183259Y-105497678D01*
X113219042Y-105615641D01*
X113277152Y-105724356D01*
X113355354Y-105819646D01*
X113450644Y-105897848D01*
X113559359Y-105955958D01*
X113677322Y-105991741D01*
X113799999Y-106003824D01*
X114600001Y-106003824D01*
X114722678Y-105991741D01*
X114794092Y-105970078D01*
X114670186Y-106014956D01*
X114529296Y-106304571D01*
X114506136Y-106392907D01*
X113295180Y-106394420D01*
X113240919Y-106241253D01*
X113167472Y-106103843D01*
X112918397Y-106026208D01*
X112404428Y-106540178D01*
X112259250Y-106395000D01*
X112190481Y-106394914D01*
X112738792Y-105846603D01*
X112661157Y-105597528D01*
X112397117Y-105471629D01*
X112387259Y-105469127D01*
X112385000Y-105035750D01*
X112226250Y-104877000D01*
X111227000Y-104877000D01*
X111227000Y-105539717D01*
X111118843Y-105597528D01*
X111041209Y-105846601D01*
X110973000Y-105778392D01*
X110973000Y-104877000D01*
X110953000Y-104877000D01*
X110953000Y-104623000D01*
X110973000Y-104623000D01*
X110973000Y-102427000D01*
X111227000Y-102427000D01*
X111227000Y-104623000D01*
X112226250Y-104623000D01*
X112385000Y-104464250D01*
X112388072Y-103875000D01*
X112375812Y-103750518D01*
X112339502Y-103630820D01*
X112282939Y-103525000D01*
X112339502Y-103419180D01*
X112375812Y-103299482D01*
X112388072Y-103175000D01*
X112385000Y-102585750D01*
X112226250Y-102427000D01*
X111227000Y-102427000D01*
X110973000Y-102427000D01*
X110953000Y-102427000D01*
X110953000Y-102173000D01*
X110973000Y-102173000D01*
X110973000Y-102153000D01*
X111227000Y-102153000D01*
X111227000Y-102173000D01*
X112226250Y-102173000D01*
X112385000Y-102014250D01*
X112388062Y-101427000D01*
X113222976Y-101427000D01*
X113219042Y-101434359D01*
%TA.AperFunction,Conductor*%
D29*
G36*
X113219042Y-101434359D02*
G01*
X113183259Y-101552322D01*
X113171176Y-101674999D01*
X113171176Y-102925001D01*
X113183259Y-103047678D01*
X113219042Y-103165641D01*
X113277152Y-103274356D01*
X113355354Y-103369646D01*
X113450644Y-103447848D01*
X113559359Y-103505958D01*
X113622133Y-103525000D01*
X113559359Y-103544042D01*
X113450644Y-103602152D01*
X113355354Y-103680354D01*
X113277152Y-103775644D01*
X113219042Y-103884359D01*
X113183259Y-104002322D01*
X113171176Y-104124999D01*
X113171176Y-105375001D01*
X113183259Y-105497678D01*
X113219042Y-105615641D01*
X113277152Y-105724356D01*
X113355354Y-105819646D01*
X113450644Y-105897848D01*
X113559359Y-105955958D01*
X113677322Y-105991741D01*
X113799999Y-106003824D01*
X114600001Y-106003824D01*
X114722678Y-105991741D01*
X114794092Y-105970078D01*
X114670186Y-106014956D01*
X114529296Y-106304571D01*
X114506136Y-106392907D01*
X113295180Y-106394420D01*
X113240919Y-106241253D01*
X113167472Y-106103843D01*
X112918397Y-106026208D01*
X112404428Y-106540178D01*
X112259250Y-106395000D01*
X112190481Y-106394914D01*
X112738792Y-105846603D01*
X112661157Y-105597528D01*
X112397117Y-105471629D01*
X112387259Y-105469127D01*
X112385000Y-105035750D01*
X112226250Y-104877000D01*
X111227000Y-104877000D01*
X111227000Y-105539717D01*
X111118843Y-105597528D01*
X111041209Y-105846601D01*
X110973000Y-105778392D01*
X110973000Y-104877000D01*
X110953000Y-104877000D01*
X110953000Y-104623000D01*
X110973000Y-104623000D01*
X110973000Y-102427000D01*
X111227000Y-102427000D01*
X111227000Y-104623000D01*
X112226250Y-104623000D01*
X112385000Y-104464250D01*
X112388072Y-103875000D01*
X112375812Y-103750518D01*
X112339502Y-103630820D01*
X112282939Y-103525000D01*
X112339502Y-103419180D01*
X112375812Y-103299482D01*
X112388072Y-103175000D01*
X112385000Y-102585750D01*
X112226250Y-102427000D01*
X111227000Y-102427000D01*
X110973000Y-102427000D01*
X110953000Y-102427000D01*
X110953000Y-102173000D01*
X110973000Y-102173000D01*
X110973000Y-102153000D01*
X111227000Y-102153000D01*
X111227000Y-102173000D01*
X112226250Y-102173000D01*
X112385000Y-102014250D01*
X112388062Y-101427000D01*
X113222976Y-101427000D01*
X113219042Y-101434359D01*
G37*
%TD.AperFunction*%
D28*
X118013000Y-102486524D02*
X118012999Y-102953357D01*
X118010572Y-102978001D01*
X118012999Y-103002644D01*
X118012999Y-103002653D01*
X118020263Y-103076409D01*
X118048968Y-103171036D01*
X118095582Y-103258246D01*
X118158315Y-103334685D01*
X118177466Y-103350402D01*
X118964601Y-104137538D01*
X118980314Y-104156684D01*
X119056753Y-104219417D01*
X119143962Y-104266031D01*
X119238589Y-104294736D01*
X119312345Y-104302000D01*
X119312354Y-104302000D01*
X119336997Y-104304427D01*
X119361640Y-104302000D01*
X121392066Y-104302000D01*
X121795070Y-104705005D01*
X121795070Y-105300366D01*
X121648595Y-105271231D01*
X121495539Y-105271231D01*
X121345424Y-105301090D01*
X121204019Y-105359662D01*
X121076758Y-105444695D01*
X121052011Y-105469442D01*
X121052011Y-105174653D01*
X121054438Y-105150010D01*
X121052011Y-105125367D01*
X121052011Y-105125358D01*
X121044747Y-105051602D01*
X121016042Y-104956975D01*
X120969428Y-104869766D01*
X120906695Y-104793327D01*
X120887543Y-104777609D01*
X120716736Y-104606802D01*
X120701018Y-104587650D01*
X120624579Y-104524917D01*
X120537370Y-104478303D01*
X120442743Y-104449598D01*
X120368987Y-104442334D01*
X120368977Y-104442334D01*
X120344334Y-104439907D01*
X120319691Y-104442334D01*
X118368976Y-104442334D01*
X118344333Y-104439907D01*
X118319690Y-104442334D01*
X118319681Y-104442334D01*
X118245925Y-104449598D01*
X118151298Y-104478303D01*
X118064089Y-104524917D01*
X117987650Y-104587650D01*
X117971932Y-104606802D01*
X117838502Y-104740232D01*
X117819350Y-104755950D01*
X117756617Y-104832389D01*
X117710003Y-104919599D01*
X117681298Y-105014226D01*
X117674034Y-105087982D01*
X117674034Y-105087991D01*
X117671607Y-105112634D01*
X117674034Y-105137278D01*
X117674034Y-105241853D01*
X117572498Y-105343389D01*
X117489522Y-105467572D01*
X116434418Y-104412468D01*
X116418700Y-104393316D01*
X116342261Y-104330583D01*
X116255052Y-104283969D01*
X116160425Y-104255264D01*
X116086669Y-104248000D01*
X116086659Y-104248000D01*
X116062016Y-104245573D01*
X116037373Y-104248000D01*
X115228824Y-104248000D01*
X115228824Y-104124999D01*
X115216741Y-104002322D01*
X115180958Y-103884359D01*
X115122848Y-103775644D01*
X115044646Y-103680354D01*
X114949356Y-103602152D01*
X114840641Y-103544042D01*
X114777867Y-103525000D01*
X114840641Y-103505958D01*
X114949356Y-103447848D01*
X115044646Y-103369646D01*
X115122848Y-103274356D01*
X115180958Y-103165641D01*
X115216741Y-103047678D01*
X115228824Y-102925001D01*
X115228824Y-102631110D01*
X115657935Y-102202000D01*
X117728476Y-102202000D01*
X118013000Y-102486524D01*
%TA.AperFunction,Conductor*%
D29*
G36*
X118013000Y-102486524D02*
G01*
X118012999Y-102953357D01*
X118010572Y-102978001D01*
X118012999Y-103002644D01*
X118012999Y-103002653D01*
X118020263Y-103076409D01*
X118048968Y-103171036D01*
X118095582Y-103258246D01*
X118158315Y-103334685D01*
X118177466Y-103350402D01*
X118964601Y-104137538D01*
X118980314Y-104156684D01*
X119056753Y-104219417D01*
X119143962Y-104266031D01*
X119238589Y-104294736D01*
X119312345Y-104302000D01*
X119312354Y-104302000D01*
X119336997Y-104304427D01*
X119361640Y-104302000D01*
X121392066Y-104302000D01*
X121795070Y-104705005D01*
X121795070Y-105300366D01*
X121648595Y-105271231D01*
X121495539Y-105271231D01*
X121345424Y-105301090D01*
X121204019Y-105359662D01*
X121076758Y-105444695D01*
X121052011Y-105469442D01*
X121052011Y-105174653D01*
X121054438Y-105150010D01*
X121052011Y-105125367D01*
X121052011Y-105125358D01*
X121044747Y-105051602D01*
X121016042Y-104956975D01*
X120969428Y-104869766D01*
X120906695Y-104793327D01*
X120887543Y-104777609D01*
X120716736Y-104606802D01*
X120701018Y-104587650D01*
X120624579Y-104524917D01*
X120537370Y-104478303D01*
X120442743Y-104449598D01*
X120368987Y-104442334D01*
X120368977Y-104442334D01*
X120344334Y-104439907D01*
X120319691Y-104442334D01*
X118368976Y-104442334D01*
X118344333Y-104439907D01*
X118319690Y-104442334D01*
X118319681Y-104442334D01*
X118245925Y-104449598D01*
X118151298Y-104478303D01*
X118064089Y-104524917D01*
X117987650Y-104587650D01*
X117971932Y-104606802D01*
X117838502Y-104740232D01*
X117819350Y-104755950D01*
X117756617Y-104832389D01*
X117710003Y-104919599D01*
X117681298Y-105014226D01*
X117674034Y-105087982D01*
X117674034Y-105087991D01*
X117671607Y-105112634D01*
X117674034Y-105137278D01*
X117674034Y-105241853D01*
X117572498Y-105343389D01*
X117489522Y-105467572D01*
X116434418Y-104412468D01*
X116418700Y-104393316D01*
X116342261Y-104330583D01*
X116255052Y-104283969D01*
X116160425Y-104255264D01*
X116086669Y-104248000D01*
X116086659Y-104248000D01*
X116062016Y-104245573D01*
X116037373Y-104248000D01*
X115228824Y-104248000D01*
X115228824Y-104124999D01*
X115216741Y-104002322D01*
X115180958Y-103884359D01*
X115122848Y-103775644D01*
X115044646Y-103680354D01*
X114949356Y-103602152D01*
X114840641Y-103544042D01*
X114777867Y-103525000D01*
X114840641Y-103505958D01*
X114949356Y-103447848D01*
X115044646Y-103369646D01*
X115122848Y-103274356D01*
X115180958Y-103165641D01*
X115216741Y-103047678D01*
X115228824Y-102925001D01*
X115228824Y-102631110D01*
X115657935Y-102202000D01*
X117728476Y-102202000D01*
X118013000Y-102486524D01*
G37*
%TD.AperFunction*%
%TD*%
M02*
