%TF.GenerationSoftware,KiCad,Pcbnew,(5.1.9-0-10_14)*%
%TF.CreationDate,2021-03-27T09:43:21+00:00*%
%TF.ProjectId,Generic,47656e65-7269-4632-9e6b-696361645f70,2*%
%TF.SameCoordinates,Original*%
%TF.FileFunction,Copper,L2,Bot*%
%TF.FilePolarity,Positive*%
%FSLAX46Y46*%
G04 Gerber Fmt 4.6, Leading zero omitted, Abs format (unit mm)*
G04 Created by KiCad (PCBNEW (5.1.9-0-10_14)) date 2021-03-27 09:43:21*
%MOMM*%
%LPD*%
G01*
G04 APERTURE LIST*
%TA.AperFunction,SMDPad,CuDef*%
%ADD10C,1.700000*%
%TD*%
%TA.AperFunction,ComponentPad*%
%ADD11R,1.524000X1.524000*%
%TD*%
%TA.AperFunction,SMDPad,CuDef*%
%ADD12R,0.200000X0.200000*%
%TD*%
%TA.AperFunction,SMDPad,CuDef*%
%ADD13C,0.500000*%
%TD*%
%TA.AperFunction,ComponentPad*%
%ADD14C,1.524000*%
%TD*%
%TA.AperFunction,SMDPad,CuDef*%
%ADD15R,2.100000X2.100000*%
%TD*%
%TA.AperFunction,SMDPad,CuDef*%
%ADD16R,1.000000X0.300000*%
%TD*%
%TA.AperFunction,SMDPad,CuDef*%
%ADD17R,0.300000X1.000000*%
%TD*%
%TA.AperFunction,ComponentPad*%
%ADD18O,1.700000X1.700000*%
%TD*%
%TA.AperFunction,ComponentPad*%
%ADD19R,1.700000X1.700000*%
%TD*%
%TA.AperFunction,SMDPad,CuDef*%
%ADD20R,5.490000X8.340000*%
%TD*%
%TA.AperFunction,SMDPad,CuDef*%
%ADD21R,1.140000X0.600000*%
%TD*%
%TA.AperFunction,ComponentPad*%
%ADD22C,1.700000*%
%TD*%
%TA.AperFunction,ComponentPad*%
%ADD23C,2.000000*%
%TD*%
%TA.AperFunction,SMDPad,CuDef*%
%ADD24R,1.140000X0.300000*%
%TD*%
%TA.AperFunction,ComponentPad*%
%ADD25C,0.600000*%
%TD*%
%TA.AperFunction,ComponentPad*%
%ADD26O,1.700000X1.850000*%
%TD*%
%TA.AperFunction,ViaPad*%
%ADD27C,0.800000*%
%TD*%
%TA.AperFunction,Conductor*%
%ADD28C,0.250000*%
%TD*%
%TA.AperFunction,Conductor*%
%ADD29C,0.254000*%
%TD*%
%TA.AperFunction,Conductor*%
%ADD30C,0.100000*%
%TD*%
G04 APERTURE END LIST*
D10*
%TO.P,M1,1*%
%TO.N,Net-(M1-Pad1)*%
X122490000Y-99770000D03*
%TO.P,M1,4*%
%TO.N,+3V3*%
X130110000Y-99770000D03*
D11*
%TO.P,M1,3*%
%TO.N,GND*%
X127570000Y-99770000D03*
D10*
%TO.P,M1,2*%
%TO.N,VBUS*%
X125030000Y-99770000D03*
%TD*%
D12*
%TO.P,U2,~*%
%TO.N,N/C*%
X121350000Y-113250000D03*
X121350000Y-117250000D03*
X125350000Y-113250000D03*
D13*
X125350000Y-117250000D03*
D14*
%TO.P,U2,17*%
%TO.N,GND*%
X123350000Y-115250000D03*
D15*
X123350000Y-115250000D03*
D16*
%TO.P,U2,16*%
%TO.N,EN*%
X125400000Y-116225000D03*
%TO.P,U2,15*%
%TO.N,I*%
X125400000Y-115575000D03*
%TO.P,U2,14*%
%TO.N,CBUS3*%
X125400000Y-114925000D03*
%TO.P,U2,13*%
%TO.N,GND*%
X125400000Y-114275000D03*
D17*
%TO.P,U2,12*%
%TO.N,CBUS0*%
X124325000Y-113200000D03*
%TO.P,U2,11*%
%TO.N,CBUS1*%
X123675000Y-113200000D03*
%TO.P,U2,10*%
%TO.N,+3V3*%
X123025000Y-113200000D03*
%TO.P,U2,9*%
X122375000Y-113200000D03*
D16*
%TO.P,U2,8*%
X121300000Y-114275000D03*
%TO.P,U2,7*%
%TO.N,D-*%
X121300000Y-114925000D03*
%TO.P,U2,6*%
%TO.N,D+*%
X121300000Y-115575000D03*
%TO.P,U2,5*%
%TO.N,CBUS2*%
X121300000Y-116225000D03*
D17*
%TO.P,U2,4*%
%TO.N,GND*%
X122375000Y-117300000D03*
%TO.P,U2,3*%
X123025000Y-117300000D03*
%TO.P,U2,2*%
%TO.N,O*%
X123675000Y-117300000D03*
%TO.P,U2,1*%
%TO.N,+3V3*%
X124325000Y-117300000D03*
%TD*%
D18*
%TO.P,J3,2*%
%TO.N,VBUS*%
X114700000Y-123160000D03*
D19*
%TO.P,J3,1*%
%TO.N,GND*%
X114700000Y-125700000D03*
%TD*%
%TO.P,R5,2*%
%TO.N,IO5*%
%TA.AperFunction,SMDPad,CuDef*%
G36*
G01*
X128855001Y-123350000D02*
X127604999Y-123350000D01*
G75*
G02*
X127355000Y-123100001I0J249999D01*
G01*
X127355000Y-122299999D01*
G75*
G02*
X127604999Y-122050000I249999J0D01*
G01*
X128855001Y-122050000D01*
G75*
G02*
X129105000Y-122299999I0J-249999D01*
G01*
X129105000Y-123100001D01*
G75*
G02*
X128855001Y-123350000I-249999J0D01*
G01*
G37*
%TD.AperFunction*%
%TO.P,R5,1*%
%TO.N,+3V3*%
%TA.AperFunction,SMDPad,CuDef*%
G36*
G01*
X128855001Y-126450000D02*
X127604999Y-126450000D01*
G75*
G02*
X127355000Y-126200001I0J249999D01*
G01*
X127355000Y-125399999D01*
G75*
G02*
X127604999Y-125150000I249999J0D01*
G01*
X128855001Y-125150000D01*
G75*
G02*
X129105000Y-125399999I0J-249999D01*
G01*
X129105000Y-126200001D01*
G75*
G02*
X128855001Y-126450000I-249999J0D01*
G01*
G37*
%TD.AperFunction*%
%TD*%
%TO.P,R4,2*%
%TO.N,IO4*%
%TA.AperFunction,SMDPad,CuDef*%
G36*
G01*
X126355001Y-123350000D02*
X125104999Y-123350000D01*
G75*
G02*
X124855000Y-123100001I0J249999D01*
G01*
X124855000Y-122299999D01*
G75*
G02*
X125104999Y-122050000I249999J0D01*
G01*
X126355001Y-122050000D01*
G75*
G02*
X126605000Y-122299999I0J-249999D01*
G01*
X126605000Y-123100001D01*
G75*
G02*
X126355001Y-123350000I-249999J0D01*
G01*
G37*
%TD.AperFunction*%
%TO.P,R4,1*%
%TO.N,+3V3*%
%TA.AperFunction,SMDPad,CuDef*%
G36*
G01*
X126355001Y-126450000D02*
X125104999Y-126450000D01*
G75*
G02*
X124855000Y-126200001I0J249999D01*
G01*
X124855000Y-125399999D01*
G75*
G02*
X125104999Y-125150000I249999J0D01*
G01*
X126355001Y-125150000D01*
G75*
G02*
X126605000Y-125399999I0J-249999D01*
G01*
X126605000Y-126200001D01*
G75*
G02*
X126355001Y-126450000I-249999J0D01*
G01*
G37*
%TD.AperFunction*%
%TD*%
%TO.P,R3,2*%
%TO.N,IO3*%
%TA.AperFunction,SMDPad,CuDef*%
G36*
G01*
X123855001Y-123350000D02*
X122604999Y-123350000D01*
G75*
G02*
X122355000Y-123100001I0J249999D01*
G01*
X122355000Y-122299999D01*
G75*
G02*
X122604999Y-122050000I249999J0D01*
G01*
X123855001Y-122050000D01*
G75*
G02*
X124105000Y-122299999I0J-249999D01*
G01*
X124105000Y-123100001D01*
G75*
G02*
X123855001Y-123350000I-249999J0D01*
G01*
G37*
%TD.AperFunction*%
%TO.P,R3,1*%
%TO.N,+3V3*%
%TA.AperFunction,SMDPad,CuDef*%
G36*
G01*
X123855001Y-126450000D02*
X122604999Y-126450000D01*
G75*
G02*
X122355000Y-126200001I0J249999D01*
G01*
X122355000Y-125399999D01*
G75*
G02*
X122604999Y-125150000I249999J0D01*
G01*
X123855001Y-125150000D01*
G75*
G02*
X124105000Y-125399999I0J-249999D01*
G01*
X124105000Y-126200001D01*
G75*
G02*
X123855001Y-126450000I-249999J0D01*
G01*
G37*
%TD.AperFunction*%
%TD*%
%TO.P,R2,2*%
%TO.N,IO2*%
%TA.AperFunction,SMDPad,CuDef*%
G36*
G01*
X121355001Y-123350000D02*
X120104999Y-123350000D01*
G75*
G02*
X119855000Y-123100001I0J249999D01*
G01*
X119855000Y-122299999D01*
G75*
G02*
X120104999Y-122050000I249999J0D01*
G01*
X121355001Y-122050000D01*
G75*
G02*
X121605000Y-122299999I0J-249999D01*
G01*
X121605000Y-123100001D01*
G75*
G02*
X121355001Y-123350000I-249999J0D01*
G01*
G37*
%TD.AperFunction*%
%TO.P,R2,1*%
%TO.N,+3V3*%
%TA.AperFunction,SMDPad,CuDef*%
G36*
G01*
X121355001Y-126450000D02*
X120104999Y-126450000D01*
G75*
G02*
X119855000Y-126200001I0J249999D01*
G01*
X119855000Y-125399999D01*
G75*
G02*
X120104999Y-125150000I249999J0D01*
G01*
X121355001Y-125150000D01*
G75*
G02*
X121605000Y-125399999I0J-249999D01*
G01*
X121605000Y-126200001D01*
G75*
G02*
X121355001Y-126450000I-249999J0D01*
G01*
G37*
%TD.AperFunction*%
%TD*%
%TO.P,R1,2*%
%TO.N,IO1*%
%TA.AperFunction,SMDPad,CuDef*%
G36*
G01*
X118855001Y-123350000D02*
X117604999Y-123350000D01*
G75*
G02*
X117355000Y-123100001I0J249999D01*
G01*
X117355000Y-122299999D01*
G75*
G02*
X117604999Y-122050000I249999J0D01*
G01*
X118855001Y-122050000D01*
G75*
G02*
X119105000Y-122299999I0J-249999D01*
G01*
X119105000Y-123100001D01*
G75*
G02*
X118855001Y-123350000I-249999J0D01*
G01*
G37*
%TD.AperFunction*%
%TO.P,R1,1*%
%TO.N,+3V3*%
%TA.AperFunction,SMDPad,CuDef*%
G36*
G01*
X118855001Y-126450000D02*
X117604999Y-126450000D01*
G75*
G02*
X117355000Y-126200001I0J249999D01*
G01*
X117355000Y-125399999D01*
G75*
G02*
X117604999Y-125150000I249999J0D01*
G01*
X118855001Y-125150000D01*
G75*
G02*
X119105000Y-125399999I0J-249999D01*
G01*
X119105000Y-126200001D01*
G75*
G02*
X118855001Y-126450000I-249999J0D01*
G01*
G37*
%TD.AperFunction*%
%TD*%
D20*
%TO.P,J2,S1*%
%TO.N,GND*%
X115045000Y-108700000D03*
D21*
%TO.P,J2,A12*%
X119160000Y-105500000D03*
%TO.P,J2,A4*%
%TO.N,VBUS*%
X119160000Y-111100000D03*
%TO.P,J2,B12*%
%TO.N,GND*%
X119160000Y-111900000D03*
%TO.P,J2,B4*%
%TO.N,VBUS*%
X119160000Y-106300000D03*
D22*
%TO.P,J2,S1*%
%TO.N,GND*%
X114390000Y-104375000D03*
X114390000Y-113025000D03*
D23*
X118570000Y-104375000D03*
X118570000Y-113025000D03*
D24*
%TO.P,J2,A7*%
%TO.N,D-*%
X119160000Y-108450000D03*
%TO.P,J2,A6*%
%TO.N,D+*%
X119160000Y-108950000D03*
%TO.P,J2,B6*%
X119160000Y-107950000D03*
%TO.P,J2,B7*%
%TO.N,D-*%
X119160000Y-109450000D03*
%TO.P,J2,A8*%
%TO.N,Net-(J2-PadA8)*%
X119160000Y-107450000D03*
%TO.P,J2,A5*%
%TO.N,Net-(J2-PadA5)*%
X119160000Y-109950000D03*
%TO.P,J2,B5*%
%TO.N,Net-(J2-PadB5)*%
X119160000Y-106950000D03*
%TO.P,J2,B8*%
%TO.N,Net-(J2-PadB8)*%
X119160000Y-110450000D03*
D21*
%TO.P,J2,A9*%
%TO.N,VBUS*%
X119160000Y-106300000D03*
%TO.P,J2,B9*%
X119160000Y-111100000D03*
%TO.P,J2,B1*%
%TO.N,GND*%
X119160000Y-105500000D03*
D25*
%TO.P,J2,S1*%
X118090000Y-105810000D03*
X118090000Y-111590000D03*
D21*
%TO.P,J2,A1*%
X119160000Y-111900000D03*
%TD*%
%TO.P,R7,2*%
%TO.N,Net-(J2-PadB5)*%
%TA.AperFunction,SMDPad,CuDef*%
G36*
G01*
X116050000Y-102875001D02*
X116050000Y-101624999D01*
G75*
G02*
X116299999Y-101375000I249999J0D01*
G01*
X117100001Y-101375000D01*
G75*
G02*
X117350000Y-101624999I0J-249999D01*
G01*
X117350000Y-102875001D01*
G75*
G02*
X117100001Y-103125000I-249999J0D01*
G01*
X116299999Y-103125000D01*
G75*
G02*
X116050000Y-102875001I0J249999D01*
G01*
G37*
%TD.AperFunction*%
%TO.P,R7,1*%
%TO.N,GND*%
%TA.AperFunction,SMDPad,CuDef*%
G36*
G01*
X112950000Y-102875001D02*
X112950000Y-101624999D01*
G75*
G02*
X113199999Y-101375000I249999J0D01*
G01*
X114000001Y-101375000D01*
G75*
G02*
X114250000Y-101624999I0J-249999D01*
G01*
X114250000Y-102875001D01*
G75*
G02*
X114000001Y-103125000I-249999J0D01*
G01*
X113199999Y-103125000D01*
G75*
G02*
X112950000Y-102875001I0J249999D01*
G01*
G37*
%TD.AperFunction*%
%TD*%
%TO.P,R6,2*%
%TO.N,GND*%
%TA.AperFunction,SMDPad,CuDef*%
G36*
G01*
X114250000Y-99174999D02*
X114250000Y-100425001D01*
G75*
G02*
X114000001Y-100675000I-249999J0D01*
G01*
X113199999Y-100675000D01*
G75*
G02*
X112950000Y-100425001I0J249999D01*
G01*
X112950000Y-99174999D01*
G75*
G02*
X113199999Y-98925000I249999J0D01*
G01*
X114000001Y-98925000D01*
G75*
G02*
X114250000Y-99174999I0J-249999D01*
G01*
G37*
%TD.AperFunction*%
%TO.P,R6,1*%
%TO.N,Net-(J2-PadA5)*%
%TA.AperFunction,SMDPad,CuDef*%
G36*
G01*
X117350000Y-99174999D02*
X117350000Y-100425001D01*
G75*
G02*
X117100001Y-100675000I-249999J0D01*
G01*
X116299999Y-100675000D01*
G75*
G02*
X116050000Y-100425001I0J249999D01*
G01*
X116050000Y-99174999D01*
G75*
G02*
X116299999Y-98925000I249999J0D01*
G01*
X117100001Y-98925000D01*
G75*
G02*
X117350000Y-99174999I0J-249999D01*
G01*
G37*
%TD.AperFunction*%
%TD*%
D26*
%TO.P,J1,6*%
%TO.N,IO5*%
X128230000Y-120400000D03*
%TO.P,J1,5*%
%TO.N,IO4*%
X125730000Y-120400000D03*
%TO.P,J1,4*%
%TO.N,IO3*%
X123230000Y-120400000D03*
%TO.P,J1,3*%
%TO.N,IO2*%
X120730000Y-120400000D03*
%TO.P,J1,2*%
%TO.N,IO1*%
X118230000Y-120400000D03*
%TO.P,J1,1*%
%TO.N,GND*%
%TA.AperFunction,ComponentPad*%
G36*
G01*
X114880000Y-121075000D02*
X114880000Y-119725000D01*
G75*
G02*
X115130000Y-119475000I250000J0D01*
G01*
X116330000Y-119475000D01*
G75*
G02*
X116580000Y-119725000I0J-250000D01*
G01*
X116580000Y-121075000D01*
G75*
G02*
X116330000Y-121325000I-250000J0D01*
G01*
X115130000Y-121325000D01*
G75*
G02*
X114880000Y-121075000I0J250000D01*
G01*
G37*
%TD.AperFunction*%
%TD*%
D27*
%TO.N,D+*%
X119474990Y-114352015D03*
X120676034Y-103338698D03*
%TO.N,GND*%
X115150000Y-99800000D03*
X127700000Y-108300000D03*
X113500000Y-113765000D03*
%TO.N,D-*%
X126628251Y-104652932D03*
X124072067Y-103548231D03*
X121747982Y-103082966D03*
%TO.N,+3V3*%
X116150000Y-123950000D03*
X117152738Y-115704998D03*
X128500000Y-101800000D03*
X128224149Y-104459354D03*
%TO.N,VBUS*%
X120372991Y-111100000D03*
%TO.N,O*%
X118028959Y-115223077D03*
%TO.N,I*%
X127029841Y-115529529D03*
%TO.N,EN*%
X115260481Y-114305342D03*
%TO.N,CBUS3*%
X127750000Y-114500026D03*
%TO.N,CBUS0*%
X129750000Y-117500000D03*
%TO.N,CBUS1*%
X127463633Y-113050011D03*
%TO.N,CBUS2*%
X116445927Y-114350001D03*
%TD*%
D28*
%TO.N,D+*%
X121300000Y-115575000D02*
X119575000Y-115575000D01*
X119575000Y-115575000D02*
X119474990Y-115474990D01*
X119474990Y-115474990D02*
X119474990Y-114352015D01*
X121222821Y-108950000D02*
X123050011Y-107122810D01*
X123050011Y-103311991D02*
X122095984Y-102357964D01*
X123050011Y-107122810D02*
X123050011Y-103311991D01*
X119160000Y-108950000D02*
X121222821Y-108950000D01*
X121091083Y-102357964D02*
X120676034Y-102773013D01*
X122095984Y-102357964D02*
X121091083Y-102357964D01*
X120676034Y-102773013D02*
X120676034Y-103338698D01*
X119160000Y-107950000D02*
X120950000Y-107950000D01*
X120975109Y-103338698D02*
X120676034Y-103338698D01*
X120950000Y-107950000D02*
X122100000Y-106800000D01*
X122100000Y-104463589D02*
X120975109Y-103338698D01*
X122100000Y-106800000D02*
X122100000Y-104463589D01*
%TO.N,GND*%
X115045000Y-109500000D02*
X115045000Y-108700000D01*
X118570000Y-113025000D02*
X115045000Y-109500000D01*
X119160000Y-112435000D02*
X118570000Y-113025000D01*
X119160000Y-111900000D02*
X119160000Y-112435000D01*
X118090000Y-111590000D02*
X115200000Y-108700000D01*
X114390000Y-108045000D02*
X115045000Y-108700000D01*
X114390000Y-104375000D02*
X114390000Y-108045000D01*
X115045000Y-107900000D02*
X115045000Y-108700000D01*
X118570000Y-104375000D02*
X115045000Y-107900000D01*
X115200000Y-108700000D02*
X115045000Y-108700000D01*
X118090000Y-105810000D02*
X115200000Y-108700000D01*
X118570000Y-104910000D02*
X119160000Y-105500000D01*
X118570000Y-104375000D02*
X118570000Y-104910000D01*
X124325000Y-114275000D02*
X123350000Y-115250000D01*
X125300000Y-114275000D02*
X124325000Y-114275000D01*
X123025000Y-115575000D02*
X123350000Y-115250000D01*
X123025000Y-117200000D02*
X123025000Y-115575000D01*
X113600000Y-103585000D02*
X114390000Y-104375000D01*
X113600000Y-102250000D02*
X113600000Y-103585000D01*
X114390000Y-113025000D02*
X114390000Y-109355000D01*
X114390000Y-109355000D02*
X115045000Y-108700000D01*
X122375000Y-116225000D02*
X123350000Y-115250000D01*
X122375000Y-117300000D02*
X122375000Y-116225000D01*
X115150000Y-99800000D02*
X115150000Y-100650000D01*
X115549990Y-101049990D02*
X118649990Y-101049990D01*
X115150000Y-100650000D02*
X115549990Y-101049990D01*
X119160000Y-105500000D02*
X120500000Y-105500000D01*
%TO.N,D-*%
X120550000Y-114925000D02*
X120249989Y-114624989D01*
X121300000Y-114925000D02*
X120550000Y-114925000D01*
X120249989Y-114624989D02*
X120249989Y-112486421D01*
X126628251Y-106108159D02*
X126628251Y-105218617D01*
X120249989Y-112486421D02*
X126628251Y-106108159D01*
X126628251Y-105218617D02*
X126628251Y-104652932D01*
X119160000Y-109450000D02*
X121359232Y-109450000D01*
X124072067Y-106737165D02*
X124072067Y-103548231D01*
X121359232Y-109450000D02*
X124072067Y-106737165D01*
X122600000Y-103934984D02*
X121747982Y-103082966D01*
X119160000Y-108450000D02*
X121086410Y-108450000D01*
X122600000Y-106936410D02*
X122600000Y-103934984D01*
X121086410Y-108450000D02*
X122600000Y-106936410D01*
%TO.N,+3V3*%
X122375000Y-111335000D02*
X122560000Y-111150000D01*
X122375000Y-113300000D02*
X122375000Y-111335000D01*
X117100000Y-125800000D02*
X118230000Y-125800000D01*
X116850000Y-124650000D02*
X116850000Y-125550000D01*
X116850000Y-125550000D02*
X117100000Y-125800000D01*
X116150000Y-123950000D02*
X116850000Y-124650000D01*
X118230000Y-125800000D02*
X120730000Y-125800000D01*
X120730000Y-125800000D02*
X123230000Y-125800000D01*
X123230000Y-125800000D02*
X125730000Y-125800000D01*
X125730000Y-125800000D02*
X128230000Y-125800000D01*
X124325000Y-118175001D02*
X123800022Y-118699979D01*
X123800022Y-118699979D02*
X120147719Y-118699979D01*
X124325000Y-117300000D02*
X124325000Y-118175001D01*
X119923870Y-118476130D02*
X119923870Y-117323870D01*
X120147719Y-118699979D02*
X119923870Y-118476130D01*
X119826130Y-117226130D02*
X118673870Y-117226130D01*
X119923870Y-117323870D02*
X119826130Y-117226130D01*
X118673870Y-117226130D02*
X117152738Y-115704998D01*
X130110000Y-100190000D02*
X130110000Y-99770000D01*
X128500000Y-101800000D02*
X130110000Y-100190000D01*
X130110000Y-102573503D02*
X128224149Y-104459354D01*
X130110000Y-99770000D02*
X130110000Y-102573503D01*
X128224149Y-105485851D02*
X128224149Y-104459354D01*
X122560000Y-111150000D02*
X128224149Y-105485851D01*
X120775000Y-114275000D02*
X120699999Y-114199999D01*
X121300000Y-114275000D02*
X120775000Y-114275000D01*
X120699999Y-114199999D02*
X120699999Y-112700001D01*
X122065000Y-111335000D02*
X122375000Y-111335000D01*
X120699999Y-112700001D02*
X122065000Y-111335000D01*
X123025000Y-111795000D02*
X122565000Y-111335000D01*
X122375000Y-111335000D02*
X122565000Y-111335000D01*
X123025000Y-113200000D02*
X123025000Y-112025000D01*
X123025000Y-112025000D02*
X123025000Y-111795000D01*
%TO.N,VBUS*%
X118504998Y-111100000D02*
X119160000Y-111100000D01*
X118264999Y-110860001D02*
X118504998Y-111100000D01*
X118264999Y-106539999D02*
X118264999Y-110860001D01*
X118504998Y-106300000D02*
X118264999Y-106539999D01*
X119160000Y-106300000D02*
X118504998Y-106300000D01*
X119160000Y-111100000D02*
X120050000Y-111100000D01*
X119160000Y-111100000D02*
X120372991Y-111100000D01*
X121000000Y-111100000D02*
X125879999Y-106220001D01*
X120372991Y-111100000D02*
X121000000Y-111100000D01*
X125879999Y-100619999D02*
X125030000Y-99770000D01*
X125879999Y-106220001D02*
X125879999Y-100619999D01*
%TO.N,IO5*%
X128500000Y-120670000D02*
X128230000Y-120400000D01*
X128230000Y-122700000D02*
X128230000Y-120400000D01*
%TO.N,IO4*%
X126000000Y-120670000D02*
X125730000Y-120400000D01*
X125730000Y-122700000D02*
X125730000Y-120400000D01*
%TO.N,IO3*%
X123230000Y-122700000D02*
X123230000Y-120400000D01*
%TO.N,IO2*%
X121000000Y-120670000D02*
X120730000Y-120400000D01*
X120730000Y-122700000D02*
X120730000Y-120400000D01*
%TO.N,IO1*%
X118500000Y-120670000D02*
X118230000Y-120400000D01*
X118230000Y-122700000D02*
X118230000Y-120400000D01*
%TO.N,O*%
X123613622Y-118249968D02*
X123675000Y-118188590D01*
X120650032Y-118249968D02*
X123613622Y-118249968D01*
X123675000Y-118188590D02*
X123675000Y-117300000D01*
X120490165Y-118090101D02*
X120650032Y-118249968D01*
X120490165Y-116890165D02*
X120490165Y-118090101D01*
X118970099Y-116729901D02*
X120329901Y-116729901D01*
X118028959Y-115788762D02*
X118970099Y-116729901D01*
X120329901Y-116729901D02*
X120490165Y-116890165D01*
X118028959Y-115223077D02*
X118028959Y-115788762D01*
%TO.N,I*%
X125300000Y-115575000D02*
X126984370Y-115575000D01*
X126984370Y-115575000D02*
X127029841Y-115529529D01*
%TO.N,EN*%
X115260481Y-114907462D02*
X115260481Y-114305342D01*
X119323490Y-117723490D02*
X118076510Y-117723490D01*
X119376510Y-117776510D02*
X119323490Y-117723490D01*
X118076510Y-117723490D02*
X115260481Y-114907462D01*
X119376510Y-118576510D02*
X119376510Y-117776510D01*
X119949990Y-119149990D02*
X119376510Y-118576510D01*
X126600000Y-118400000D02*
X124800000Y-118400000D01*
X124050010Y-119149990D02*
X119949990Y-119149990D01*
X125400000Y-116225000D02*
X126825000Y-116225000D01*
X126900000Y-118100000D02*
X126600000Y-118400000D01*
X124800000Y-118400000D02*
X124050010Y-119149990D01*
X126900000Y-116300000D02*
X126900000Y-118100000D01*
X126825000Y-116225000D02*
X126900000Y-116300000D01*
%TO.N,CBUS3*%
X126561368Y-114925000D02*
X126986342Y-114500026D01*
X126986342Y-114500026D02*
X127750000Y-114500026D01*
X125400000Y-114925000D02*
X126561368Y-114925000D01*
%TO.N,CBUS0*%
X127175016Y-113775016D02*
X128598020Y-113775016D01*
X128598020Y-113775016D02*
X129750000Y-114926996D01*
X127175013Y-113775013D02*
X127175016Y-113775016D01*
X126040619Y-112700001D02*
X127115631Y-113775013D01*
X129750000Y-114926996D02*
X129750000Y-117500000D01*
X124399999Y-112700001D02*
X126040619Y-112700001D01*
X124325000Y-112775000D02*
X124399999Y-112700001D01*
X127115631Y-113775013D02*
X127175013Y-113775013D01*
X124325000Y-113200000D02*
X124325000Y-112775000D01*
%TO.N,CBUS1*%
X123850009Y-112249991D02*
X126286402Y-112249991D01*
X127086422Y-113050011D02*
X127463633Y-113050011D01*
X123675000Y-113200000D02*
X123675000Y-112425000D01*
X123675000Y-112425000D02*
X123850009Y-112249991D01*
X126286402Y-112249991D02*
X127086422Y-113050011D01*
%TO.N,CBUS2*%
X118228885Y-114350001D02*
X116445927Y-114350001D01*
X119225000Y-116225000D02*
X121300000Y-116225000D01*
X118753960Y-115753960D02*
X119225000Y-116225000D01*
X118228885Y-114350001D02*
X118753960Y-114875076D01*
X118753960Y-114875076D02*
X118753960Y-115753960D01*
%TO.N,Net-(J2-PadA5)*%
X124100000Y-101300000D02*
X121836998Y-101300000D01*
X121014999Y-100478001D02*
X121014999Y-99778588D01*
X124797069Y-101997069D02*
X124100000Y-101300000D01*
X121836998Y-101300000D02*
X121014999Y-100478001D01*
X119160000Y-109950000D02*
X121495643Y-109950000D01*
X121014999Y-99778588D02*
X120436410Y-99200000D01*
X121495643Y-109950000D02*
X124797069Y-106648574D01*
X117350000Y-99800000D02*
X116700000Y-99800000D01*
X120436410Y-99200000D02*
X117950000Y-99200000D01*
X117950000Y-99200000D02*
X117350000Y-99800000D01*
X124797069Y-106648574D02*
X124797069Y-101997069D01*
%TO.N,Net-(J2-PadB5)*%
X118100000Y-102900000D02*
X117450000Y-102250000D01*
X117450000Y-102250000D02*
X116700000Y-102250000D01*
X119856008Y-103156008D02*
X119600000Y-102900000D01*
X119856008Y-103543992D02*
X119856008Y-103156008D01*
X120500000Y-104187984D02*
X119856008Y-103543992D01*
X121187984Y-104187984D02*
X120500000Y-104187984D01*
X121500000Y-104500000D02*
X121187984Y-104187984D01*
X119160000Y-106950000D02*
X121150000Y-106950000D01*
X119600000Y-102900000D02*
X118100000Y-102900000D01*
X121500000Y-106600000D02*
X121500000Y-104500000D01*
X121150000Y-106950000D02*
X121500000Y-106600000D01*
%TD*%
D29*
%TO.N,GND*%
X131073001Y-127073000D02*
X115913678Y-127073000D01*
X116001185Y-127001185D01*
X116080537Y-126904494D01*
X116139502Y-126794180D01*
X116175812Y-126674482D01*
X116188072Y-126550000D01*
X116185000Y-125985750D01*
X116026250Y-125827000D01*
X114827000Y-125827000D01*
X114827000Y-125847000D01*
X114573000Y-125847000D01*
X114573000Y-125827000D01*
X113373750Y-125827000D01*
X113215000Y-125985750D01*
X113211928Y-126550000D01*
X113224188Y-126674482D01*
X113260498Y-126794180D01*
X113319463Y-126904494D01*
X113398815Y-127001185D01*
X113486322Y-127073000D01*
X112927000Y-127073000D01*
X112927000Y-124850000D01*
X113211928Y-124850000D01*
X113215000Y-125414250D01*
X113373750Y-125573000D01*
X114573000Y-125573000D01*
X114573000Y-125553000D01*
X114827000Y-125553000D01*
X114827000Y-125573000D01*
X116026250Y-125573000D01*
X116185000Y-125414250D01*
X116188072Y-124850000D01*
X116175958Y-124727000D01*
X116217065Y-124727000D01*
X116348000Y-124857935D01*
X116348001Y-125525348D01*
X116345573Y-125550000D01*
X116355265Y-125648409D01*
X116383970Y-125743036D01*
X116430584Y-125830245D01*
X116477601Y-125887535D01*
X116477604Y-125887538D01*
X116493317Y-125906684D01*
X116512463Y-125922397D01*
X116727598Y-126137532D01*
X116743316Y-126156684D01*
X116819755Y-126219417D01*
X116906964Y-126266031D01*
X116985012Y-126289707D01*
X116988259Y-126322678D01*
X117024042Y-126440641D01*
X117082152Y-126549356D01*
X117160354Y-126644646D01*
X117255644Y-126722848D01*
X117364359Y-126780958D01*
X117482322Y-126816741D01*
X117604999Y-126828824D01*
X118855001Y-126828824D01*
X118977678Y-126816741D01*
X119095641Y-126780958D01*
X119204356Y-126722848D01*
X119299646Y-126644646D01*
X119377848Y-126549356D01*
X119435958Y-126440641D01*
X119471741Y-126322678D01*
X119473778Y-126302000D01*
X119486222Y-126302000D01*
X119488259Y-126322678D01*
X119524042Y-126440641D01*
X119582152Y-126549356D01*
X119660354Y-126644646D01*
X119755644Y-126722848D01*
X119864359Y-126780958D01*
X119982322Y-126816741D01*
X120104999Y-126828824D01*
X121355001Y-126828824D01*
X121477678Y-126816741D01*
X121595641Y-126780958D01*
X121704356Y-126722848D01*
X121799646Y-126644646D01*
X121877848Y-126549356D01*
X121935958Y-126440641D01*
X121971741Y-126322678D01*
X121973778Y-126302000D01*
X121986222Y-126302000D01*
X121988259Y-126322678D01*
X122024042Y-126440641D01*
X122082152Y-126549356D01*
X122160354Y-126644646D01*
X122255644Y-126722848D01*
X122364359Y-126780958D01*
X122482322Y-126816741D01*
X122604999Y-126828824D01*
X123855001Y-126828824D01*
X123977678Y-126816741D01*
X124095641Y-126780958D01*
X124204356Y-126722848D01*
X124299646Y-126644646D01*
X124377848Y-126549356D01*
X124435958Y-126440641D01*
X124471741Y-126322678D01*
X124473778Y-126302000D01*
X124486222Y-126302000D01*
X124488259Y-126322678D01*
X124524042Y-126440641D01*
X124582152Y-126549356D01*
X124660354Y-126644646D01*
X124755644Y-126722848D01*
X124864359Y-126780958D01*
X124982322Y-126816741D01*
X125104999Y-126828824D01*
X126355001Y-126828824D01*
X126477678Y-126816741D01*
X126595641Y-126780958D01*
X126704356Y-126722848D01*
X126799646Y-126644646D01*
X126877848Y-126549356D01*
X126935958Y-126440641D01*
X126971741Y-126322678D01*
X126973778Y-126302000D01*
X126986222Y-126302000D01*
X126988259Y-126322678D01*
X127024042Y-126440641D01*
X127082152Y-126549356D01*
X127160354Y-126644646D01*
X127255644Y-126722848D01*
X127364359Y-126780958D01*
X127482322Y-126816741D01*
X127604999Y-126828824D01*
X128855001Y-126828824D01*
X128977678Y-126816741D01*
X129095641Y-126780958D01*
X129204356Y-126722848D01*
X129299646Y-126644646D01*
X129377848Y-126549356D01*
X129435958Y-126440641D01*
X129471741Y-126322678D01*
X129483824Y-126200001D01*
X129483824Y-125399999D01*
X129471741Y-125277322D01*
X129435958Y-125159359D01*
X129377848Y-125050644D01*
X129299646Y-124955354D01*
X129204356Y-124877152D01*
X129095641Y-124819042D01*
X128977678Y-124783259D01*
X128855001Y-124771176D01*
X127604999Y-124771176D01*
X127482322Y-124783259D01*
X127364359Y-124819042D01*
X127255644Y-124877152D01*
X127160354Y-124955354D01*
X127082152Y-125050644D01*
X127024042Y-125159359D01*
X126988259Y-125277322D01*
X126986222Y-125298000D01*
X126973778Y-125298000D01*
X126971741Y-125277322D01*
X126935958Y-125159359D01*
X126877848Y-125050644D01*
X126799646Y-124955354D01*
X126704356Y-124877152D01*
X126595641Y-124819042D01*
X126477678Y-124783259D01*
X126355001Y-124771176D01*
X125104999Y-124771176D01*
X124982322Y-124783259D01*
X124864359Y-124819042D01*
X124755644Y-124877152D01*
X124660354Y-124955354D01*
X124582152Y-125050644D01*
X124524042Y-125159359D01*
X124488259Y-125277322D01*
X124486222Y-125298000D01*
X124473778Y-125298000D01*
X124471741Y-125277322D01*
X124435958Y-125159359D01*
X124377848Y-125050644D01*
X124299646Y-124955354D01*
X124204356Y-124877152D01*
X124095641Y-124819042D01*
X123977678Y-124783259D01*
X123855001Y-124771176D01*
X122604999Y-124771176D01*
X122482322Y-124783259D01*
X122364359Y-124819042D01*
X122255644Y-124877152D01*
X122160354Y-124955354D01*
X122082152Y-125050644D01*
X122024042Y-125159359D01*
X121988259Y-125277322D01*
X121986222Y-125298000D01*
X121973778Y-125298000D01*
X121971741Y-125277322D01*
X121935958Y-125159359D01*
X121877848Y-125050644D01*
X121799646Y-124955354D01*
X121704356Y-124877152D01*
X121595641Y-124819042D01*
X121477678Y-124783259D01*
X121355001Y-124771176D01*
X120104999Y-124771176D01*
X119982322Y-124783259D01*
X119864359Y-124819042D01*
X119755644Y-124877152D01*
X119660354Y-124955354D01*
X119582152Y-125050644D01*
X119524042Y-125159359D01*
X119488259Y-125277322D01*
X119486222Y-125298000D01*
X119473778Y-125298000D01*
X119471741Y-125277322D01*
X119435958Y-125159359D01*
X119377848Y-125050644D01*
X119299646Y-124955354D01*
X119204356Y-124877152D01*
X119095641Y-124819042D01*
X118977678Y-124783259D01*
X118855001Y-124771176D01*
X117604999Y-124771176D01*
X117482322Y-124783259D01*
X117364359Y-124819042D01*
X117352000Y-124825648D01*
X117352000Y-124674642D01*
X117354427Y-124649999D01*
X117352000Y-124625356D01*
X117352000Y-124625347D01*
X117344736Y-124551591D01*
X117316031Y-124456964D01*
X117269417Y-124369755D01*
X117228143Y-124319463D01*
X117222399Y-124312464D01*
X117222397Y-124312462D01*
X117206684Y-124293316D01*
X117187538Y-124277603D01*
X116927000Y-124017065D01*
X116927000Y-123873472D01*
X116897141Y-123723357D01*
X116838569Y-123581952D01*
X116753536Y-123454691D01*
X116645309Y-123346464D01*
X116518048Y-123261431D01*
X116376643Y-123202859D01*
X116226528Y-123173000D01*
X116073472Y-123173000D01*
X115927000Y-123202134D01*
X115927000Y-123039151D01*
X115879847Y-122802097D01*
X115787353Y-122578798D01*
X115653073Y-122377833D01*
X115482167Y-122206927D01*
X115281202Y-122072647D01*
X115057903Y-121980153D01*
X114969579Y-121962584D01*
X115444250Y-121960000D01*
X115603000Y-121801250D01*
X115603000Y-120527000D01*
X114403750Y-120527000D01*
X114245000Y-120685750D01*
X114241928Y-121325000D01*
X114254188Y-121449482D01*
X114290498Y-121569180D01*
X114349463Y-121679494D01*
X114428815Y-121776185D01*
X114525506Y-121855537D01*
X114635820Y-121914502D01*
X114696800Y-121933000D01*
X114579151Y-121933000D01*
X114342097Y-121980153D01*
X114118798Y-122072647D01*
X113917833Y-122206927D01*
X113746927Y-122377833D01*
X113612647Y-122578798D01*
X113520153Y-122802097D01*
X113473000Y-123039151D01*
X113473000Y-123280849D01*
X113520153Y-123517903D01*
X113612647Y-123741202D01*
X113746927Y-123942167D01*
X113917833Y-124113073D01*
X114067553Y-124213112D01*
X113850000Y-124211928D01*
X113725518Y-124224188D01*
X113605820Y-124260498D01*
X113495506Y-124319463D01*
X113398815Y-124398815D01*
X113319463Y-124495506D01*
X113260498Y-124605820D01*
X113224188Y-124725518D01*
X113211928Y-124850000D01*
X112927000Y-124850000D01*
X112927000Y-119475000D01*
X114241928Y-119475000D01*
X114245000Y-120114250D01*
X114403750Y-120273000D01*
X115603000Y-120273000D01*
X115603000Y-118998750D01*
X115444250Y-118840000D01*
X114880000Y-118836928D01*
X114755518Y-118849188D01*
X114635820Y-118885498D01*
X114525506Y-118944463D01*
X114428815Y-119023815D01*
X114349463Y-119120506D01*
X114290498Y-119230820D01*
X114254188Y-119350518D01*
X114241928Y-119475000D01*
X112927000Y-119475000D01*
X112927000Y-113507289D01*
X112985399Y-113507216D01*
X113039081Y-113658747D01*
X113112528Y-113796157D01*
X113361603Y-113873792D01*
X113729108Y-113506287D01*
X114088767Y-113505838D01*
X113541208Y-114053397D01*
X113618843Y-114302472D01*
X113882883Y-114428371D01*
X114166411Y-114500339D01*
X114458531Y-114515611D01*
X114508637Y-114508339D01*
X114513340Y-114531985D01*
X114571912Y-114673390D01*
X114656945Y-114800651D01*
X114756745Y-114900451D01*
X114756054Y-114907462D01*
X114758481Y-114932105D01*
X114758481Y-114932114D01*
X114765745Y-115005870D01*
X114794450Y-115100497D01*
X114841064Y-115187707D01*
X114903797Y-115264146D01*
X114922949Y-115279864D01*
X117704118Y-118061034D01*
X117719826Y-118080174D01*
X117738966Y-118095882D01*
X117738974Y-118095890D01*
X117796264Y-118142907D01*
X117822807Y-118157094D01*
X117883474Y-118189521D01*
X117978101Y-118218226D01*
X118051857Y-118225490D01*
X118051867Y-118225490D01*
X118076510Y-118227917D01*
X118101153Y-118225490D01*
X118874510Y-118225490D01*
X118874510Y-118551867D01*
X118872083Y-118576510D01*
X118874510Y-118601153D01*
X118874510Y-118601162D01*
X118881774Y-118674918D01*
X118910479Y-118769545D01*
X118957093Y-118856755D01*
X119019826Y-118933194D01*
X119038977Y-118948911D01*
X119577593Y-119487528D01*
X119593306Y-119506674D01*
X119669745Y-119569407D01*
X119734427Y-119603980D01*
X119704851Y-119640018D01*
X119590916Y-119853177D01*
X119520755Y-120084467D01*
X119503000Y-120264733D01*
X119503000Y-120535268D01*
X119520755Y-120715534D01*
X119590916Y-120946824D01*
X119704851Y-121159983D01*
X119858184Y-121346817D01*
X120045018Y-121500149D01*
X120228000Y-121597954D01*
X120228000Y-121671176D01*
X120104999Y-121671176D01*
X119982322Y-121683259D01*
X119864359Y-121719042D01*
X119755644Y-121777152D01*
X119660354Y-121855354D01*
X119582152Y-121950644D01*
X119524042Y-122059359D01*
X119488259Y-122177322D01*
X119480000Y-122261174D01*
X119471741Y-122177322D01*
X119435958Y-122059359D01*
X119377848Y-121950644D01*
X119299646Y-121855354D01*
X119204356Y-121777152D01*
X119095641Y-121719042D01*
X118977678Y-121683259D01*
X118855001Y-121671176D01*
X118732000Y-121671176D01*
X118732000Y-121597955D01*
X118914983Y-121500149D01*
X119101817Y-121346817D01*
X119255149Y-121159982D01*
X119369084Y-120946823D01*
X119439245Y-120715533D01*
X119457000Y-120535267D01*
X119457000Y-120264732D01*
X119439245Y-120084466D01*
X119369084Y-119853176D01*
X119255149Y-119640017D01*
X119101817Y-119453183D01*
X118914982Y-119299851D01*
X118701823Y-119185916D01*
X118470533Y-119115755D01*
X118230000Y-119092064D01*
X117989466Y-119115755D01*
X117758176Y-119185916D01*
X117545017Y-119299851D01*
X117358183Y-119453183D01*
X117217352Y-119624785D01*
X117218072Y-119475000D01*
X117205812Y-119350518D01*
X117169502Y-119230820D01*
X117110537Y-119120506D01*
X117031185Y-119023815D01*
X116934494Y-118944463D01*
X116824180Y-118885498D01*
X116704482Y-118849188D01*
X116580000Y-118836928D01*
X116015750Y-118840000D01*
X115857000Y-118998750D01*
X115857000Y-120273000D01*
X115877000Y-120273000D01*
X115877000Y-120527000D01*
X115857000Y-120527000D01*
X115857000Y-121801250D01*
X116015750Y-121960000D01*
X116580000Y-121963072D01*
X116704482Y-121950812D01*
X116824180Y-121914502D01*
X116934494Y-121855537D01*
X117031185Y-121776185D01*
X117110537Y-121679494D01*
X117169502Y-121569180D01*
X117205812Y-121449482D01*
X117218072Y-121325000D01*
X117217352Y-121175216D01*
X117358184Y-121346817D01*
X117545018Y-121500149D01*
X117728000Y-121597954D01*
X117728000Y-121671176D01*
X117604999Y-121671176D01*
X117482322Y-121683259D01*
X117364359Y-121719042D01*
X117255644Y-121777152D01*
X117160354Y-121855354D01*
X117082152Y-121950644D01*
X117024042Y-122059359D01*
X116988259Y-122177322D01*
X116976176Y-122299999D01*
X116976176Y-123100001D01*
X116988259Y-123222678D01*
X117024042Y-123340641D01*
X117082152Y-123449356D01*
X117160354Y-123544646D01*
X117255644Y-123622848D01*
X117364359Y-123680958D01*
X117482322Y-123716741D01*
X117604999Y-123728824D01*
X118855001Y-123728824D01*
X118977678Y-123716741D01*
X119095641Y-123680958D01*
X119204356Y-123622848D01*
X119299646Y-123544646D01*
X119377848Y-123449356D01*
X119435958Y-123340641D01*
X119471741Y-123222678D01*
X119480000Y-123138826D01*
X119488259Y-123222678D01*
X119524042Y-123340641D01*
X119582152Y-123449356D01*
X119660354Y-123544646D01*
X119755644Y-123622848D01*
X119864359Y-123680958D01*
X119982322Y-123716741D01*
X120104999Y-123728824D01*
X121355001Y-123728824D01*
X121477678Y-123716741D01*
X121595641Y-123680958D01*
X121704356Y-123622848D01*
X121799646Y-123544646D01*
X121877848Y-123449356D01*
X121935958Y-123340641D01*
X121971741Y-123222678D01*
X121980000Y-123138826D01*
X121988259Y-123222678D01*
X122024042Y-123340641D01*
X122082152Y-123449356D01*
X122160354Y-123544646D01*
X122255644Y-123622848D01*
X122364359Y-123680958D01*
X122482322Y-123716741D01*
X122604999Y-123728824D01*
X123855001Y-123728824D01*
X123977678Y-123716741D01*
X124095641Y-123680958D01*
X124204356Y-123622848D01*
X124299646Y-123544646D01*
X124377848Y-123449356D01*
X124435958Y-123340641D01*
X124471741Y-123222678D01*
X124480000Y-123138826D01*
X124488259Y-123222678D01*
X124524042Y-123340641D01*
X124582152Y-123449356D01*
X124660354Y-123544646D01*
X124755644Y-123622848D01*
X124864359Y-123680958D01*
X124982322Y-123716741D01*
X125104999Y-123728824D01*
X126355001Y-123728824D01*
X126477678Y-123716741D01*
X126595641Y-123680958D01*
X126704356Y-123622848D01*
X126799646Y-123544646D01*
X126877848Y-123449356D01*
X126935958Y-123340641D01*
X126971741Y-123222678D01*
X126980000Y-123138826D01*
X126988259Y-123222678D01*
X127024042Y-123340641D01*
X127082152Y-123449356D01*
X127160354Y-123544646D01*
X127255644Y-123622848D01*
X127364359Y-123680958D01*
X127482322Y-123716741D01*
X127604999Y-123728824D01*
X128855001Y-123728824D01*
X128977678Y-123716741D01*
X129095641Y-123680958D01*
X129204356Y-123622848D01*
X129299646Y-123544646D01*
X129377848Y-123449356D01*
X129435958Y-123340641D01*
X129471741Y-123222678D01*
X129483824Y-123100001D01*
X129483824Y-122299999D01*
X129471741Y-122177322D01*
X129435958Y-122059359D01*
X129377848Y-121950644D01*
X129299646Y-121855354D01*
X129204356Y-121777152D01*
X129095641Y-121719042D01*
X128977678Y-121683259D01*
X128855001Y-121671176D01*
X128732000Y-121671176D01*
X128732000Y-121597955D01*
X128914983Y-121500149D01*
X129101817Y-121346817D01*
X129255149Y-121159982D01*
X129369084Y-120946823D01*
X129439245Y-120715533D01*
X129457000Y-120535267D01*
X129457000Y-120264732D01*
X129439245Y-120084466D01*
X129369084Y-119853176D01*
X129255149Y-119640017D01*
X129101817Y-119453183D01*
X128914982Y-119299851D01*
X128701823Y-119185916D01*
X128470533Y-119115755D01*
X128230000Y-119092064D01*
X127989466Y-119115755D01*
X127758176Y-119185916D01*
X127545017Y-119299851D01*
X127358183Y-119453183D01*
X127204851Y-119640018D01*
X127090916Y-119853177D01*
X127020755Y-120084467D01*
X127003000Y-120264733D01*
X127003000Y-120535268D01*
X127020755Y-120715534D01*
X127090916Y-120946824D01*
X127204851Y-121159983D01*
X127358184Y-121346817D01*
X127545018Y-121500149D01*
X127728000Y-121597954D01*
X127728000Y-121671176D01*
X127604999Y-121671176D01*
X127482322Y-121683259D01*
X127364359Y-121719042D01*
X127255644Y-121777152D01*
X127160354Y-121855354D01*
X127082152Y-121950644D01*
X127024042Y-122059359D01*
X126988259Y-122177322D01*
X126980000Y-122261174D01*
X126971741Y-122177322D01*
X126935958Y-122059359D01*
X126877848Y-121950644D01*
X126799646Y-121855354D01*
X126704356Y-121777152D01*
X126595641Y-121719042D01*
X126477678Y-121683259D01*
X126355001Y-121671176D01*
X126232000Y-121671176D01*
X126232000Y-121597955D01*
X126414983Y-121500149D01*
X126601817Y-121346817D01*
X126755149Y-121159982D01*
X126869084Y-120946823D01*
X126939245Y-120715533D01*
X126957000Y-120535267D01*
X126957000Y-120264732D01*
X126939245Y-120084466D01*
X126869084Y-119853176D01*
X126755149Y-119640017D01*
X126601817Y-119453183D01*
X126414982Y-119299851D01*
X126201823Y-119185916D01*
X125970533Y-119115755D01*
X125730000Y-119092064D01*
X125489466Y-119115755D01*
X125258176Y-119185916D01*
X125045017Y-119299851D01*
X124858183Y-119453183D01*
X124704851Y-119640018D01*
X124590916Y-119853177D01*
X124520755Y-120084467D01*
X124503000Y-120264733D01*
X124503000Y-120535268D01*
X124520755Y-120715534D01*
X124590916Y-120946824D01*
X124704851Y-121159983D01*
X124858184Y-121346817D01*
X125045018Y-121500149D01*
X125228000Y-121597954D01*
X125228000Y-121671176D01*
X125104999Y-121671176D01*
X124982322Y-121683259D01*
X124864359Y-121719042D01*
X124755644Y-121777152D01*
X124660354Y-121855354D01*
X124582152Y-121950644D01*
X124524042Y-122059359D01*
X124488259Y-122177322D01*
X124480000Y-122261174D01*
X124471741Y-122177322D01*
X124435958Y-122059359D01*
X124377848Y-121950644D01*
X124299646Y-121855354D01*
X124204356Y-121777152D01*
X124095641Y-121719042D01*
X123977678Y-121683259D01*
X123855001Y-121671176D01*
X123732000Y-121671176D01*
X123732000Y-121597955D01*
X123914983Y-121500149D01*
X124101817Y-121346817D01*
X124255149Y-121159982D01*
X124369084Y-120946823D01*
X124439245Y-120715533D01*
X124457000Y-120535267D01*
X124457000Y-120264732D01*
X124439245Y-120084466D01*
X124369084Y-119853176D01*
X124255149Y-119640017D01*
X124236969Y-119617865D01*
X124243046Y-119616021D01*
X124330255Y-119569407D01*
X124406694Y-119506674D01*
X124422411Y-119487523D01*
X125007935Y-118902000D01*
X126575357Y-118902000D01*
X126600000Y-118904427D01*
X126624643Y-118902000D01*
X126624653Y-118902000D01*
X126698409Y-118894736D01*
X126793036Y-118866031D01*
X126880245Y-118819417D01*
X126956684Y-118756684D01*
X126972402Y-118737532D01*
X127237532Y-118472402D01*
X127256684Y-118456684D01*
X127319417Y-118380245D01*
X127366031Y-118293036D01*
X127394736Y-118198409D01*
X127402000Y-118124653D01*
X127402000Y-118124644D01*
X127404427Y-118100001D01*
X127402000Y-118075358D01*
X127402000Y-116324642D01*
X127404427Y-116299999D01*
X127402000Y-116275356D01*
X127402000Y-116275347D01*
X127396422Y-116218706D01*
X127397889Y-116218098D01*
X127525150Y-116133065D01*
X127633377Y-116024838D01*
X127718410Y-115897577D01*
X127776982Y-115756172D01*
X127806841Y-115606057D01*
X127806841Y-115453001D01*
X127776982Y-115302886D01*
X127766270Y-115277026D01*
X127826528Y-115277026D01*
X127976643Y-115247167D01*
X128118048Y-115188595D01*
X128245309Y-115103562D01*
X128353536Y-114995335D01*
X128438569Y-114868074D01*
X128497141Y-114726669D01*
X128527000Y-114576554D01*
X128527000Y-114423498D01*
X128524624Y-114411555D01*
X129248000Y-115134932D01*
X129248001Y-116903154D01*
X129146464Y-117004691D01*
X129061431Y-117131952D01*
X129002859Y-117273357D01*
X128973000Y-117423472D01*
X128973000Y-117576528D01*
X129002859Y-117726643D01*
X129061431Y-117868048D01*
X129146464Y-117995309D01*
X129254691Y-118103536D01*
X129381952Y-118188569D01*
X129523357Y-118247141D01*
X129673472Y-118277000D01*
X129826528Y-118277000D01*
X129976643Y-118247141D01*
X130118048Y-118188569D01*
X130245309Y-118103536D01*
X130353536Y-117995309D01*
X130438569Y-117868048D01*
X130497141Y-117726643D01*
X130527000Y-117576528D01*
X130527000Y-117423472D01*
X130497141Y-117273357D01*
X130438569Y-117131952D01*
X130353536Y-117004691D01*
X130252000Y-116903155D01*
X130252000Y-114951639D01*
X130254427Y-114926996D01*
X130252000Y-114902353D01*
X130252000Y-114902343D01*
X130244736Y-114828587D01*
X130216031Y-114733960D01*
X130188279Y-114682039D01*
X130169417Y-114646750D01*
X130122400Y-114589460D01*
X130122392Y-114589452D01*
X130106684Y-114570312D01*
X130087543Y-114554603D01*
X128970419Y-113437481D01*
X128954704Y-113418332D01*
X128878265Y-113355599D01*
X128791056Y-113308985D01*
X128696429Y-113280280D01*
X128622673Y-113273016D01*
X128622663Y-113273016D01*
X128598020Y-113270589D01*
X128573377Y-113273016D01*
X128211498Y-113273016D01*
X128240633Y-113126539D01*
X128240633Y-112973483D01*
X128210774Y-112823368D01*
X128152202Y-112681963D01*
X128067169Y-112554702D01*
X127958942Y-112446475D01*
X127831681Y-112361442D01*
X127690276Y-112302870D01*
X127540161Y-112273011D01*
X127387105Y-112273011D01*
X127236990Y-112302870D01*
X127104214Y-112357868D01*
X126658803Y-111912458D01*
X126643086Y-111893307D01*
X126566647Y-111830574D01*
X126479438Y-111783960D01*
X126384811Y-111755255D01*
X126311055Y-111747991D01*
X126311045Y-111747991D01*
X126286402Y-111745564D01*
X126261759Y-111747991D01*
X123874651Y-111747991D01*
X123850008Y-111745564D01*
X123825365Y-111747991D01*
X123825356Y-111747991D01*
X123751600Y-111755255D01*
X123656973Y-111783960D01*
X123569764Y-111830574D01*
X123527000Y-111865670D01*
X123527000Y-111819642D01*
X123529427Y-111794999D01*
X123527000Y-111770356D01*
X123527000Y-111770348D01*
X123519736Y-111696592D01*
X123491031Y-111601964D01*
X123444417Y-111514755D01*
X123422077Y-111487534D01*
X123397399Y-111457464D01*
X123397397Y-111457462D01*
X123381684Y-111438316D01*
X123362538Y-111422603D01*
X123179934Y-111240000D01*
X128561687Y-105858248D01*
X128580833Y-105842535D01*
X128619375Y-105795573D01*
X128643565Y-105766097D01*
X128643566Y-105766096D01*
X128690180Y-105678887D01*
X128718885Y-105584260D01*
X128726149Y-105510504D01*
X128726149Y-105510495D01*
X128728576Y-105485852D01*
X128726149Y-105461209D01*
X128726149Y-105056199D01*
X128827685Y-104954663D01*
X128912718Y-104827402D01*
X128971290Y-104685997D01*
X129001149Y-104535882D01*
X129001149Y-104392288D01*
X130447538Y-102945900D01*
X130466684Y-102930187D01*
X130491459Y-102900000D01*
X130514912Y-102871422D01*
X130529417Y-102853748D01*
X130576031Y-102766539D01*
X130604736Y-102671912D01*
X130612000Y-102598156D01*
X130612000Y-102598147D01*
X130614427Y-102573504D01*
X130612000Y-102548861D01*
X130612000Y-101160758D01*
X130809622Y-101078901D01*
X131051533Y-100917261D01*
X131073000Y-100895794D01*
X131073001Y-127073000D01*
%TA.AperFunction,Conductor*%
D30*
G36*
X131073001Y-127073000D02*
G01*
X115913678Y-127073000D01*
X116001185Y-127001185D01*
X116080537Y-126904494D01*
X116139502Y-126794180D01*
X116175812Y-126674482D01*
X116188072Y-126550000D01*
X116185000Y-125985750D01*
X116026250Y-125827000D01*
X114827000Y-125827000D01*
X114827000Y-125847000D01*
X114573000Y-125847000D01*
X114573000Y-125827000D01*
X113373750Y-125827000D01*
X113215000Y-125985750D01*
X113211928Y-126550000D01*
X113224188Y-126674482D01*
X113260498Y-126794180D01*
X113319463Y-126904494D01*
X113398815Y-127001185D01*
X113486322Y-127073000D01*
X112927000Y-127073000D01*
X112927000Y-124850000D01*
X113211928Y-124850000D01*
X113215000Y-125414250D01*
X113373750Y-125573000D01*
X114573000Y-125573000D01*
X114573000Y-125553000D01*
X114827000Y-125553000D01*
X114827000Y-125573000D01*
X116026250Y-125573000D01*
X116185000Y-125414250D01*
X116188072Y-124850000D01*
X116175958Y-124727000D01*
X116217065Y-124727000D01*
X116348000Y-124857935D01*
X116348001Y-125525348D01*
X116345573Y-125550000D01*
X116355265Y-125648409D01*
X116383970Y-125743036D01*
X116430584Y-125830245D01*
X116477601Y-125887535D01*
X116477604Y-125887538D01*
X116493317Y-125906684D01*
X116512463Y-125922397D01*
X116727598Y-126137532D01*
X116743316Y-126156684D01*
X116819755Y-126219417D01*
X116906964Y-126266031D01*
X116985012Y-126289707D01*
X116988259Y-126322678D01*
X117024042Y-126440641D01*
X117082152Y-126549356D01*
X117160354Y-126644646D01*
X117255644Y-126722848D01*
X117364359Y-126780958D01*
X117482322Y-126816741D01*
X117604999Y-126828824D01*
X118855001Y-126828824D01*
X118977678Y-126816741D01*
X119095641Y-126780958D01*
X119204356Y-126722848D01*
X119299646Y-126644646D01*
X119377848Y-126549356D01*
X119435958Y-126440641D01*
X119471741Y-126322678D01*
X119473778Y-126302000D01*
X119486222Y-126302000D01*
X119488259Y-126322678D01*
X119524042Y-126440641D01*
X119582152Y-126549356D01*
X119660354Y-126644646D01*
X119755644Y-126722848D01*
X119864359Y-126780958D01*
X119982322Y-126816741D01*
X120104999Y-126828824D01*
X121355001Y-126828824D01*
X121477678Y-126816741D01*
X121595641Y-126780958D01*
X121704356Y-126722848D01*
X121799646Y-126644646D01*
X121877848Y-126549356D01*
X121935958Y-126440641D01*
X121971741Y-126322678D01*
X121973778Y-126302000D01*
X121986222Y-126302000D01*
X121988259Y-126322678D01*
X122024042Y-126440641D01*
X122082152Y-126549356D01*
X122160354Y-126644646D01*
X122255644Y-126722848D01*
X122364359Y-126780958D01*
X122482322Y-126816741D01*
X122604999Y-126828824D01*
X123855001Y-126828824D01*
X123977678Y-126816741D01*
X124095641Y-126780958D01*
X124204356Y-126722848D01*
X124299646Y-126644646D01*
X124377848Y-126549356D01*
X124435958Y-126440641D01*
X124471741Y-126322678D01*
X124473778Y-126302000D01*
X124486222Y-126302000D01*
X124488259Y-126322678D01*
X124524042Y-126440641D01*
X124582152Y-126549356D01*
X124660354Y-126644646D01*
X124755644Y-126722848D01*
X124864359Y-126780958D01*
X124982322Y-126816741D01*
X125104999Y-126828824D01*
X126355001Y-126828824D01*
X126477678Y-126816741D01*
X126595641Y-126780958D01*
X126704356Y-126722848D01*
X126799646Y-126644646D01*
X126877848Y-126549356D01*
X126935958Y-126440641D01*
X126971741Y-126322678D01*
X126973778Y-126302000D01*
X126986222Y-126302000D01*
X126988259Y-126322678D01*
X127024042Y-126440641D01*
X127082152Y-126549356D01*
X127160354Y-126644646D01*
X127255644Y-126722848D01*
X127364359Y-126780958D01*
X127482322Y-126816741D01*
X127604999Y-126828824D01*
X128855001Y-126828824D01*
X128977678Y-126816741D01*
X129095641Y-126780958D01*
X129204356Y-126722848D01*
X129299646Y-126644646D01*
X129377848Y-126549356D01*
X129435958Y-126440641D01*
X129471741Y-126322678D01*
X129483824Y-126200001D01*
X129483824Y-125399999D01*
X129471741Y-125277322D01*
X129435958Y-125159359D01*
X129377848Y-125050644D01*
X129299646Y-124955354D01*
X129204356Y-124877152D01*
X129095641Y-124819042D01*
X128977678Y-124783259D01*
X128855001Y-124771176D01*
X127604999Y-124771176D01*
X127482322Y-124783259D01*
X127364359Y-124819042D01*
X127255644Y-124877152D01*
X127160354Y-124955354D01*
X127082152Y-125050644D01*
X127024042Y-125159359D01*
X126988259Y-125277322D01*
X126986222Y-125298000D01*
X126973778Y-125298000D01*
X126971741Y-125277322D01*
X126935958Y-125159359D01*
X126877848Y-125050644D01*
X126799646Y-124955354D01*
X126704356Y-124877152D01*
X126595641Y-124819042D01*
X126477678Y-124783259D01*
X126355001Y-124771176D01*
X125104999Y-124771176D01*
X124982322Y-124783259D01*
X124864359Y-124819042D01*
X124755644Y-124877152D01*
X124660354Y-124955354D01*
X124582152Y-125050644D01*
X124524042Y-125159359D01*
X124488259Y-125277322D01*
X124486222Y-125298000D01*
X124473778Y-125298000D01*
X124471741Y-125277322D01*
X124435958Y-125159359D01*
X124377848Y-125050644D01*
X124299646Y-124955354D01*
X124204356Y-124877152D01*
X124095641Y-124819042D01*
X123977678Y-124783259D01*
X123855001Y-124771176D01*
X122604999Y-124771176D01*
X122482322Y-124783259D01*
X122364359Y-124819042D01*
X122255644Y-124877152D01*
X122160354Y-124955354D01*
X122082152Y-125050644D01*
X122024042Y-125159359D01*
X121988259Y-125277322D01*
X121986222Y-125298000D01*
X121973778Y-125298000D01*
X121971741Y-125277322D01*
X121935958Y-125159359D01*
X121877848Y-125050644D01*
X121799646Y-124955354D01*
X121704356Y-124877152D01*
X121595641Y-124819042D01*
X121477678Y-124783259D01*
X121355001Y-124771176D01*
X120104999Y-124771176D01*
X119982322Y-124783259D01*
X119864359Y-124819042D01*
X119755644Y-124877152D01*
X119660354Y-124955354D01*
X119582152Y-125050644D01*
X119524042Y-125159359D01*
X119488259Y-125277322D01*
X119486222Y-125298000D01*
X119473778Y-125298000D01*
X119471741Y-125277322D01*
X119435958Y-125159359D01*
X119377848Y-125050644D01*
X119299646Y-124955354D01*
X119204356Y-124877152D01*
X119095641Y-124819042D01*
X118977678Y-124783259D01*
X118855001Y-124771176D01*
X117604999Y-124771176D01*
X117482322Y-124783259D01*
X117364359Y-124819042D01*
X117352000Y-124825648D01*
X117352000Y-124674642D01*
X117354427Y-124649999D01*
X117352000Y-124625356D01*
X117352000Y-124625347D01*
X117344736Y-124551591D01*
X117316031Y-124456964D01*
X117269417Y-124369755D01*
X117228143Y-124319463D01*
X117222399Y-124312464D01*
X117222397Y-124312462D01*
X117206684Y-124293316D01*
X117187538Y-124277603D01*
X116927000Y-124017065D01*
X116927000Y-123873472D01*
X116897141Y-123723357D01*
X116838569Y-123581952D01*
X116753536Y-123454691D01*
X116645309Y-123346464D01*
X116518048Y-123261431D01*
X116376643Y-123202859D01*
X116226528Y-123173000D01*
X116073472Y-123173000D01*
X115927000Y-123202134D01*
X115927000Y-123039151D01*
X115879847Y-122802097D01*
X115787353Y-122578798D01*
X115653073Y-122377833D01*
X115482167Y-122206927D01*
X115281202Y-122072647D01*
X115057903Y-121980153D01*
X114969579Y-121962584D01*
X115444250Y-121960000D01*
X115603000Y-121801250D01*
X115603000Y-120527000D01*
X114403750Y-120527000D01*
X114245000Y-120685750D01*
X114241928Y-121325000D01*
X114254188Y-121449482D01*
X114290498Y-121569180D01*
X114349463Y-121679494D01*
X114428815Y-121776185D01*
X114525506Y-121855537D01*
X114635820Y-121914502D01*
X114696800Y-121933000D01*
X114579151Y-121933000D01*
X114342097Y-121980153D01*
X114118798Y-122072647D01*
X113917833Y-122206927D01*
X113746927Y-122377833D01*
X113612647Y-122578798D01*
X113520153Y-122802097D01*
X113473000Y-123039151D01*
X113473000Y-123280849D01*
X113520153Y-123517903D01*
X113612647Y-123741202D01*
X113746927Y-123942167D01*
X113917833Y-124113073D01*
X114067553Y-124213112D01*
X113850000Y-124211928D01*
X113725518Y-124224188D01*
X113605820Y-124260498D01*
X113495506Y-124319463D01*
X113398815Y-124398815D01*
X113319463Y-124495506D01*
X113260498Y-124605820D01*
X113224188Y-124725518D01*
X113211928Y-124850000D01*
X112927000Y-124850000D01*
X112927000Y-119475000D01*
X114241928Y-119475000D01*
X114245000Y-120114250D01*
X114403750Y-120273000D01*
X115603000Y-120273000D01*
X115603000Y-118998750D01*
X115444250Y-118840000D01*
X114880000Y-118836928D01*
X114755518Y-118849188D01*
X114635820Y-118885498D01*
X114525506Y-118944463D01*
X114428815Y-119023815D01*
X114349463Y-119120506D01*
X114290498Y-119230820D01*
X114254188Y-119350518D01*
X114241928Y-119475000D01*
X112927000Y-119475000D01*
X112927000Y-113507289D01*
X112985399Y-113507216D01*
X113039081Y-113658747D01*
X113112528Y-113796157D01*
X113361603Y-113873792D01*
X113729108Y-113506287D01*
X114088767Y-113505838D01*
X113541208Y-114053397D01*
X113618843Y-114302472D01*
X113882883Y-114428371D01*
X114166411Y-114500339D01*
X114458531Y-114515611D01*
X114508637Y-114508339D01*
X114513340Y-114531985D01*
X114571912Y-114673390D01*
X114656945Y-114800651D01*
X114756745Y-114900451D01*
X114756054Y-114907462D01*
X114758481Y-114932105D01*
X114758481Y-114932114D01*
X114765745Y-115005870D01*
X114794450Y-115100497D01*
X114841064Y-115187707D01*
X114903797Y-115264146D01*
X114922949Y-115279864D01*
X117704118Y-118061034D01*
X117719826Y-118080174D01*
X117738966Y-118095882D01*
X117738974Y-118095890D01*
X117796264Y-118142907D01*
X117822807Y-118157094D01*
X117883474Y-118189521D01*
X117978101Y-118218226D01*
X118051857Y-118225490D01*
X118051867Y-118225490D01*
X118076510Y-118227917D01*
X118101153Y-118225490D01*
X118874510Y-118225490D01*
X118874510Y-118551867D01*
X118872083Y-118576510D01*
X118874510Y-118601153D01*
X118874510Y-118601162D01*
X118881774Y-118674918D01*
X118910479Y-118769545D01*
X118957093Y-118856755D01*
X119019826Y-118933194D01*
X119038977Y-118948911D01*
X119577593Y-119487528D01*
X119593306Y-119506674D01*
X119669745Y-119569407D01*
X119734427Y-119603980D01*
X119704851Y-119640018D01*
X119590916Y-119853177D01*
X119520755Y-120084467D01*
X119503000Y-120264733D01*
X119503000Y-120535268D01*
X119520755Y-120715534D01*
X119590916Y-120946824D01*
X119704851Y-121159983D01*
X119858184Y-121346817D01*
X120045018Y-121500149D01*
X120228000Y-121597954D01*
X120228000Y-121671176D01*
X120104999Y-121671176D01*
X119982322Y-121683259D01*
X119864359Y-121719042D01*
X119755644Y-121777152D01*
X119660354Y-121855354D01*
X119582152Y-121950644D01*
X119524042Y-122059359D01*
X119488259Y-122177322D01*
X119480000Y-122261174D01*
X119471741Y-122177322D01*
X119435958Y-122059359D01*
X119377848Y-121950644D01*
X119299646Y-121855354D01*
X119204356Y-121777152D01*
X119095641Y-121719042D01*
X118977678Y-121683259D01*
X118855001Y-121671176D01*
X118732000Y-121671176D01*
X118732000Y-121597955D01*
X118914983Y-121500149D01*
X119101817Y-121346817D01*
X119255149Y-121159982D01*
X119369084Y-120946823D01*
X119439245Y-120715533D01*
X119457000Y-120535267D01*
X119457000Y-120264732D01*
X119439245Y-120084466D01*
X119369084Y-119853176D01*
X119255149Y-119640017D01*
X119101817Y-119453183D01*
X118914982Y-119299851D01*
X118701823Y-119185916D01*
X118470533Y-119115755D01*
X118230000Y-119092064D01*
X117989466Y-119115755D01*
X117758176Y-119185916D01*
X117545017Y-119299851D01*
X117358183Y-119453183D01*
X117217352Y-119624785D01*
X117218072Y-119475000D01*
X117205812Y-119350518D01*
X117169502Y-119230820D01*
X117110537Y-119120506D01*
X117031185Y-119023815D01*
X116934494Y-118944463D01*
X116824180Y-118885498D01*
X116704482Y-118849188D01*
X116580000Y-118836928D01*
X116015750Y-118840000D01*
X115857000Y-118998750D01*
X115857000Y-120273000D01*
X115877000Y-120273000D01*
X115877000Y-120527000D01*
X115857000Y-120527000D01*
X115857000Y-121801250D01*
X116015750Y-121960000D01*
X116580000Y-121963072D01*
X116704482Y-121950812D01*
X116824180Y-121914502D01*
X116934494Y-121855537D01*
X117031185Y-121776185D01*
X117110537Y-121679494D01*
X117169502Y-121569180D01*
X117205812Y-121449482D01*
X117218072Y-121325000D01*
X117217352Y-121175216D01*
X117358184Y-121346817D01*
X117545018Y-121500149D01*
X117728000Y-121597954D01*
X117728000Y-121671176D01*
X117604999Y-121671176D01*
X117482322Y-121683259D01*
X117364359Y-121719042D01*
X117255644Y-121777152D01*
X117160354Y-121855354D01*
X117082152Y-121950644D01*
X117024042Y-122059359D01*
X116988259Y-122177322D01*
X116976176Y-122299999D01*
X116976176Y-123100001D01*
X116988259Y-123222678D01*
X117024042Y-123340641D01*
X117082152Y-123449356D01*
X117160354Y-123544646D01*
X117255644Y-123622848D01*
X117364359Y-123680958D01*
X117482322Y-123716741D01*
X117604999Y-123728824D01*
X118855001Y-123728824D01*
X118977678Y-123716741D01*
X119095641Y-123680958D01*
X119204356Y-123622848D01*
X119299646Y-123544646D01*
X119377848Y-123449356D01*
X119435958Y-123340641D01*
X119471741Y-123222678D01*
X119480000Y-123138826D01*
X119488259Y-123222678D01*
X119524042Y-123340641D01*
X119582152Y-123449356D01*
X119660354Y-123544646D01*
X119755644Y-123622848D01*
X119864359Y-123680958D01*
X119982322Y-123716741D01*
X120104999Y-123728824D01*
X121355001Y-123728824D01*
X121477678Y-123716741D01*
X121595641Y-123680958D01*
X121704356Y-123622848D01*
X121799646Y-123544646D01*
X121877848Y-123449356D01*
X121935958Y-123340641D01*
X121971741Y-123222678D01*
X121980000Y-123138826D01*
X121988259Y-123222678D01*
X122024042Y-123340641D01*
X122082152Y-123449356D01*
X122160354Y-123544646D01*
X122255644Y-123622848D01*
X122364359Y-123680958D01*
X122482322Y-123716741D01*
X122604999Y-123728824D01*
X123855001Y-123728824D01*
X123977678Y-123716741D01*
X124095641Y-123680958D01*
X124204356Y-123622848D01*
X124299646Y-123544646D01*
X124377848Y-123449356D01*
X124435958Y-123340641D01*
X124471741Y-123222678D01*
X124480000Y-123138826D01*
X124488259Y-123222678D01*
X124524042Y-123340641D01*
X124582152Y-123449356D01*
X124660354Y-123544646D01*
X124755644Y-123622848D01*
X124864359Y-123680958D01*
X124982322Y-123716741D01*
X125104999Y-123728824D01*
X126355001Y-123728824D01*
X126477678Y-123716741D01*
X126595641Y-123680958D01*
X126704356Y-123622848D01*
X126799646Y-123544646D01*
X126877848Y-123449356D01*
X126935958Y-123340641D01*
X126971741Y-123222678D01*
X126980000Y-123138826D01*
X126988259Y-123222678D01*
X127024042Y-123340641D01*
X127082152Y-123449356D01*
X127160354Y-123544646D01*
X127255644Y-123622848D01*
X127364359Y-123680958D01*
X127482322Y-123716741D01*
X127604999Y-123728824D01*
X128855001Y-123728824D01*
X128977678Y-123716741D01*
X129095641Y-123680958D01*
X129204356Y-123622848D01*
X129299646Y-123544646D01*
X129377848Y-123449356D01*
X129435958Y-123340641D01*
X129471741Y-123222678D01*
X129483824Y-123100001D01*
X129483824Y-122299999D01*
X129471741Y-122177322D01*
X129435958Y-122059359D01*
X129377848Y-121950644D01*
X129299646Y-121855354D01*
X129204356Y-121777152D01*
X129095641Y-121719042D01*
X128977678Y-121683259D01*
X128855001Y-121671176D01*
X128732000Y-121671176D01*
X128732000Y-121597955D01*
X128914983Y-121500149D01*
X129101817Y-121346817D01*
X129255149Y-121159982D01*
X129369084Y-120946823D01*
X129439245Y-120715533D01*
X129457000Y-120535267D01*
X129457000Y-120264732D01*
X129439245Y-120084466D01*
X129369084Y-119853176D01*
X129255149Y-119640017D01*
X129101817Y-119453183D01*
X128914982Y-119299851D01*
X128701823Y-119185916D01*
X128470533Y-119115755D01*
X128230000Y-119092064D01*
X127989466Y-119115755D01*
X127758176Y-119185916D01*
X127545017Y-119299851D01*
X127358183Y-119453183D01*
X127204851Y-119640018D01*
X127090916Y-119853177D01*
X127020755Y-120084467D01*
X127003000Y-120264733D01*
X127003000Y-120535268D01*
X127020755Y-120715534D01*
X127090916Y-120946824D01*
X127204851Y-121159983D01*
X127358184Y-121346817D01*
X127545018Y-121500149D01*
X127728000Y-121597954D01*
X127728000Y-121671176D01*
X127604999Y-121671176D01*
X127482322Y-121683259D01*
X127364359Y-121719042D01*
X127255644Y-121777152D01*
X127160354Y-121855354D01*
X127082152Y-121950644D01*
X127024042Y-122059359D01*
X126988259Y-122177322D01*
X126980000Y-122261174D01*
X126971741Y-122177322D01*
X126935958Y-122059359D01*
X126877848Y-121950644D01*
X126799646Y-121855354D01*
X126704356Y-121777152D01*
X126595641Y-121719042D01*
X126477678Y-121683259D01*
X126355001Y-121671176D01*
X126232000Y-121671176D01*
X126232000Y-121597955D01*
X126414983Y-121500149D01*
X126601817Y-121346817D01*
X126755149Y-121159982D01*
X126869084Y-120946823D01*
X126939245Y-120715533D01*
X126957000Y-120535267D01*
X126957000Y-120264732D01*
X126939245Y-120084466D01*
X126869084Y-119853176D01*
X126755149Y-119640017D01*
X126601817Y-119453183D01*
X126414982Y-119299851D01*
X126201823Y-119185916D01*
X125970533Y-119115755D01*
X125730000Y-119092064D01*
X125489466Y-119115755D01*
X125258176Y-119185916D01*
X125045017Y-119299851D01*
X124858183Y-119453183D01*
X124704851Y-119640018D01*
X124590916Y-119853177D01*
X124520755Y-120084467D01*
X124503000Y-120264733D01*
X124503000Y-120535268D01*
X124520755Y-120715534D01*
X124590916Y-120946824D01*
X124704851Y-121159983D01*
X124858184Y-121346817D01*
X125045018Y-121500149D01*
X125228000Y-121597954D01*
X125228000Y-121671176D01*
X125104999Y-121671176D01*
X124982322Y-121683259D01*
X124864359Y-121719042D01*
X124755644Y-121777152D01*
X124660354Y-121855354D01*
X124582152Y-121950644D01*
X124524042Y-122059359D01*
X124488259Y-122177322D01*
X124480000Y-122261174D01*
X124471741Y-122177322D01*
X124435958Y-122059359D01*
X124377848Y-121950644D01*
X124299646Y-121855354D01*
X124204356Y-121777152D01*
X124095641Y-121719042D01*
X123977678Y-121683259D01*
X123855001Y-121671176D01*
X123732000Y-121671176D01*
X123732000Y-121597955D01*
X123914983Y-121500149D01*
X124101817Y-121346817D01*
X124255149Y-121159982D01*
X124369084Y-120946823D01*
X124439245Y-120715533D01*
X124457000Y-120535267D01*
X124457000Y-120264732D01*
X124439245Y-120084466D01*
X124369084Y-119853176D01*
X124255149Y-119640017D01*
X124236969Y-119617865D01*
X124243046Y-119616021D01*
X124330255Y-119569407D01*
X124406694Y-119506674D01*
X124422411Y-119487523D01*
X125007935Y-118902000D01*
X126575357Y-118902000D01*
X126600000Y-118904427D01*
X126624643Y-118902000D01*
X126624653Y-118902000D01*
X126698409Y-118894736D01*
X126793036Y-118866031D01*
X126880245Y-118819417D01*
X126956684Y-118756684D01*
X126972402Y-118737532D01*
X127237532Y-118472402D01*
X127256684Y-118456684D01*
X127319417Y-118380245D01*
X127366031Y-118293036D01*
X127394736Y-118198409D01*
X127402000Y-118124653D01*
X127402000Y-118124644D01*
X127404427Y-118100001D01*
X127402000Y-118075358D01*
X127402000Y-116324642D01*
X127404427Y-116299999D01*
X127402000Y-116275356D01*
X127402000Y-116275347D01*
X127396422Y-116218706D01*
X127397889Y-116218098D01*
X127525150Y-116133065D01*
X127633377Y-116024838D01*
X127718410Y-115897577D01*
X127776982Y-115756172D01*
X127806841Y-115606057D01*
X127806841Y-115453001D01*
X127776982Y-115302886D01*
X127766270Y-115277026D01*
X127826528Y-115277026D01*
X127976643Y-115247167D01*
X128118048Y-115188595D01*
X128245309Y-115103562D01*
X128353536Y-114995335D01*
X128438569Y-114868074D01*
X128497141Y-114726669D01*
X128527000Y-114576554D01*
X128527000Y-114423498D01*
X128524624Y-114411555D01*
X129248000Y-115134932D01*
X129248001Y-116903154D01*
X129146464Y-117004691D01*
X129061431Y-117131952D01*
X129002859Y-117273357D01*
X128973000Y-117423472D01*
X128973000Y-117576528D01*
X129002859Y-117726643D01*
X129061431Y-117868048D01*
X129146464Y-117995309D01*
X129254691Y-118103536D01*
X129381952Y-118188569D01*
X129523357Y-118247141D01*
X129673472Y-118277000D01*
X129826528Y-118277000D01*
X129976643Y-118247141D01*
X130118048Y-118188569D01*
X130245309Y-118103536D01*
X130353536Y-117995309D01*
X130438569Y-117868048D01*
X130497141Y-117726643D01*
X130527000Y-117576528D01*
X130527000Y-117423472D01*
X130497141Y-117273357D01*
X130438569Y-117131952D01*
X130353536Y-117004691D01*
X130252000Y-116903155D01*
X130252000Y-114951639D01*
X130254427Y-114926996D01*
X130252000Y-114902353D01*
X130252000Y-114902343D01*
X130244736Y-114828587D01*
X130216031Y-114733960D01*
X130188279Y-114682039D01*
X130169417Y-114646750D01*
X130122400Y-114589460D01*
X130122392Y-114589452D01*
X130106684Y-114570312D01*
X130087543Y-114554603D01*
X128970419Y-113437481D01*
X128954704Y-113418332D01*
X128878265Y-113355599D01*
X128791056Y-113308985D01*
X128696429Y-113280280D01*
X128622673Y-113273016D01*
X128622663Y-113273016D01*
X128598020Y-113270589D01*
X128573377Y-113273016D01*
X128211498Y-113273016D01*
X128240633Y-113126539D01*
X128240633Y-112973483D01*
X128210774Y-112823368D01*
X128152202Y-112681963D01*
X128067169Y-112554702D01*
X127958942Y-112446475D01*
X127831681Y-112361442D01*
X127690276Y-112302870D01*
X127540161Y-112273011D01*
X127387105Y-112273011D01*
X127236990Y-112302870D01*
X127104214Y-112357868D01*
X126658803Y-111912458D01*
X126643086Y-111893307D01*
X126566647Y-111830574D01*
X126479438Y-111783960D01*
X126384811Y-111755255D01*
X126311055Y-111747991D01*
X126311045Y-111747991D01*
X126286402Y-111745564D01*
X126261759Y-111747991D01*
X123874651Y-111747991D01*
X123850008Y-111745564D01*
X123825365Y-111747991D01*
X123825356Y-111747991D01*
X123751600Y-111755255D01*
X123656973Y-111783960D01*
X123569764Y-111830574D01*
X123527000Y-111865670D01*
X123527000Y-111819642D01*
X123529427Y-111794999D01*
X123527000Y-111770356D01*
X123527000Y-111770348D01*
X123519736Y-111696592D01*
X123491031Y-111601964D01*
X123444417Y-111514755D01*
X123422077Y-111487534D01*
X123397399Y-111457464D01*
X123397397Y-111457462D01*
X123381684Y-111438316D01*
X123362538Y-111422603D01*
X123179934Y-111240000D01*
X128561687Y-105858248D01*
X128580833Y-105842535D01*
X128619375Y-105795573D01*
X128643565Y-105766097D01*
X128643566Y-105766096D01*
X128690180Y-105678887D01*
X128718885Y-105584260D01*
X128726149Y-105510504D01*
X128726149Y-105510495D01*
X128728576Y-105485852D01*
X128726149Y-105461209D01*
X128726149Y-105056199D01*
X128827685Y-104954663D01*
X128912718Y-104827402D01*
X128971290Y-104685997D01*
X129001149Y-104535882D01*
X129001149Y-104392288D01*
X130447538Y-102945900D01*
X130466684Y-102930187D01*
X130491459Y-102900000D01*
X130514912Y-102871422D01*
X130529417Y-102853748D01*
X130576031Y-102766539D01*
X130604736Y-102671912D01*
X130612000Y-102598156D01*
X130612000Y-102598147D01*
X130614427Y-102573504D01*
X130612000Y-102548861D01*
X130612000Y-101160758D01*
X130809622Y-101078901D01*
X131051533Y-100917261D01*
X131073000Y-100895794D01*
X131073001Y-127073000D01*
G37*
%TD.AperFunction*%
D29*
X122398000Y-117172250D02*
X122398000Y-117173000D01*
X122522000Y-117173000D01*
X122522000Y-117427000D01*
X122398000Y-117427000D01*
X122398000Y-117427750D01*
X122378750Y-117447000D01*
X122352000Y-117447000D01*
X122352000Y-117427000D01*
X122228000Y-117427000D01*
X122228000Y-117173000D01*
X122352000Y-117173000D01*
X122352000Y-117153000D01*
X122378750Y-117153000D01*
X122398000Y-117172250D01*
%TA.AperFunction,Conductor*%
D30*
G36*
X122398000Y-117172250D02*
G01*
X122398000Y-117173000D01*
X122522000Y-117173000D01*
X122522000Y-117427000D01*
X122398000Y-117427000D01*
X122398000Y-117427750D01*
X122378750Y-117447000D01*
X122352000Y-117447000D01*
X122352000Y-117427000D01*
X122228000Y-117427000D01*
X122228000Y-117173000D01*
X122352000Y-117173000D01*
X122352000Y-117153000D01*
X122378750Y-117153000D01*
X122398000Y-117172250D01*
G37*
%TD.AperFunction*%
D29*
X123048000Y-117172998D02*
X123002000Y-117172998D01*
X123002000Y-117172250D01*
X123021250Y-117153000D01*
X123048000Y-117153000D01*
X123048000Y-117172998D01*
%TA.AperFunction,Conductor*%
D30*
G36*
X123048000Y-117172998D02*
G01*
X123002000Y-117172998D01*
X123002000Y-117172250D01*
X123021250Y-117153000D01*
X123048000Y-117153000D01*
X123048000Y-117172998D01*
G37*
%TD.AperFunction*%
D29*
X123497000Y-115189110D02*
X123497000Y-115310890D01*
X123410890Y-115397000D01*
X123289110Y-115397000D01*
X123203000Y-115310890D01*
X123203000Y-115189110D01*
X123289110Y-115103000D01*
X123410890Y-115103000D01*
X123497000Y-115189110D01*
%TA.AperFunction,Conductor*%
D30*
G36*
X123497000Y-115189110D02*
G01*
X123497000Y-115310890D01*
X123410890Y-115397000D01*
X123289110Y-115397000D01*
X123203000Y-115310890D01*
X123203000Y-115189110D01*
X123289110Y-115103000D01*
X123410890Y-115103000D01*
X123497000Y-115189110D01*
G37*
%TD.AperFunction*%
D29*
X125527000Y-114252000D02*
X125547000Y-114252000D01*
X125547000Y-114298000D01*
X125527000Y-114298000D01*
X125527000Y-114396176D01*
X125273000Y-114396176D01*
X125273000Y-114298000D01*
X125253000Y-114298000D01*
X125253000Y-114252000D01*
X125273000Y-114252000D01*
X125273000Y-114128000D01*
X125527000Y-114128000D01*
X125527000Y-114252000D01*
%TA.AperFunction,Conductor*%
D30*
G36*
X125527000Y-114252000D02*
G01*
X125547000Y-114252000D01*
X125547000Y-114298000D01*
X125527000Y-114298000D01*
X125527000Y-114396176D01*
X125273000Y-114396176D01*
X125273000Y-114298000D01*
X125253000Y-114298000D01*
X125253000Y-114252000D01*
X125273000Y-114252000D01*
X125273000Y-114128000D01*
X125527000Y-114128000D01*
X125527000Y-114252000D01*
G37*
%TD.AperFunction*%
D29*
X119032998Y-112741607D02*
X118749605Y-113025000D01*
X118763748Y-113039143D01*
X118584143Y-113218748D01*
X118570000Y-113204605D01*
X118555858Y-113218748D01*
X118396210Y-113059100D01*
X118415812Y-112994482D01*
X118418345Y-112968765D01*
X118552711Y-112834399D01*
X118559692Y-112835087D01*
X118570000Y-112845395D01*
X118578460Y-112836935D01*
X118590000Y-112838072D01*
X118874250Y-112835000D01*
X119032998Y-112676252D01*
X119032998Y-112741607D01*
%TA.AperFunction,Conductor*%
D30*
G36*
X119032998Y-112741607D02*
G01*
X118749605Y-113025000D01*
X118763748Y-113039143D01*
X118584143Y-113218748D01*
X118570000Y-113204605D01*
X118555858Y-113218748D01*
X118396210Y-113059100D01*
X118415812Y-112994482D01*
X118418345Y-112968765D01*
X118552711Y-112834399D01*
X118559692Y-112835087D01*
X118570000Y-112845395D01*
X118578460Y-112836935D01*
X118590000Y-112838072D01*
X118874250Y-112835000D01*
X119032998Y-112676252D01*
X119032998Y-112741607D01*
G37*
%TD.AperFunction*%
D29*
X115172000Y-108573000D02*
X115192000Y-108573000D01*
X115192000Y-108827000D01*
X115172000Y-108827000D01*
X115172000Y-111782315D01*
X115161157Y-111747528D01*
X114918000Y-111631586D01*
X114918000Y-108827000D01*
X114898000Y-108827000D01*
X114898000Y-108573000D01*
X114918000Y-108573000D01*
X114918000Y-105763381D01*
X115023747Y-105725919D01*
X115161157Y-105652472D01*
X115172000Y-105617685D01*
X115172000Y-108573000D01*
%TA.AperFunction,Conductor*%
D30*
G36*
X115172000Y-108573000D02*
G01*
X115192000Y-108573000D01*
X115192000Y-108827000D01*
X115172000Y-108827000D01*
X115172000Y-111782315D01*
X115161157Y-111747528D01*
X114918000Y-111631586D01*
X114918000Y-108827000D01*
X114898000Y-108827000D01*
X114898000Y-108573000D01*
X114918000Y-108573000D01*
X114918000Y-105763381D01*
X115023747Y-105725919D01*
X115161157Y-105652472D01*
X115172000Y-105617685D01*
X115172000Y-108573000D01*
G37*
%TD.AperFunction*%
D29*
X120219755Y-104607401D02*
X120306964Y-104654015D01*
X120401591Y-104682720D01*
X120475347Y-104689984D01*
X120475356Y-104689984D01*
X120499999Y-104692411D01*
X120524642Y-104689984D01*
X120980050Y-104689984D01*
X120998001Y-104707935D01*
X120998000Y-106392065D01*
X120942065Y-106448000D01*
X120108824Y-106448000D01*
X120108824Y-106310570D01*
X120181185Y-106251185D01*
X120260537Y-106154494D01*
X120319502Y-106044180D01*
X120355812Y-105924482D01*
X120368072Y-105800000D01*
X120365000Y-105785750D01*
X120206250Y-105627000D01*
X119789132Y-105627000D01*
X119730000Y-105621176D01*
X119485690Y-105621176D01*
X119525808Y-105510413D01*
X119388395Y-105373000D01*
X120206250Y-105373000D01*
X120365000Y-105214250D01*
X120368072Y-105200000D01*
X120355812Y-105075518D01*
X120319502Y-104955820D01*
X120260537Y-104845506D01*
X120181185Y-104748815D01*
X120165605Y-104736029D01*
X120192384Y-104633892D01*
X120195190Y-104587240D01*
X120219755Y-104607401D01*
%TA.AperFunction,Conductor*%
D30*
G36*
X120219755Y-104607401D02*
G01*
X120306964Y-104654015D01*
X120401591Y-104682720D01*
X120475347Y-104689984D01*
X120475356Y-104689984D01*
X120499999Y-104692411D01*
X120524642Y-104689984D01*
X120980050Y-104689984D01*
X120998001Y-104707935D01*
X120998000Y-106392065D01*
X120942065Y-106448000D01*
X120108824Y-106448000D01*
X120108824Y-106310570D01*
X120181185Y-106251185D01*
X120260537Y-106154494D01*
X120319502Y-106044180D01*
X120355812Y-105924482D01*
X120368072Y-105800000D01*
X120365000Y-105785750D01*
X120206250Y-105627000D01*
X119789132Y-105627000D01*
X119730000Y-105621176D01*
X119485690Y-105621176D01*
X119525808Y-105510413D01*
X119388395Y-105373000D01*
X120206250Y-105373000D01*
X120365000Y-105214250D01*
X120368072Y-105200000D01*
X120355812Y-105075518D01*
X120319502Y-104955820D01*
X120260537Y-104845506D01*
X120181185Y-104748815D01*
X120165605Y-104736029D01*
X120192384Y-104633892D01*
X120195190Y-104587240D01*
X120219755Y-104607401D01*
G37*
%TD.AperFunction*%
D29*
X127697000Y-99643000D02*
X127717000Y-99643000D01*
X127717000Y-99897000D01*
X127697000Y-99897000D01*
X127697000Y-101008250D01*
X127855750Y-101167000D01*
X128046941Y-101168233D01*
X128004691Y-101196464D01*
X127896464Y-101304691D01*
X127811431Y-101431952D01*
X127752859Y-101573357D01*
X127723000Y-101723472D01*
X127723000Y-101876528D01*
X127752859Y-102026643D01*
X127811431Y-102168048D01*
X127896464Y-102295309D01*
X128004691Y-102403536D01*
X128131952Y-102488569D01*
X128273357Y-102547141D01*
X128423472Y-102577000D01*
X128576528Y-102577000D01*
X128726643Y-102547141D01*
X128868048Y-102488569D01*
X128995309Y-102403536D01*
X129103536Y-102295309D01*
X129188569Y-102168048D01*
X129247141Y-102026643D01*
X129277000Y-101876528D01*
X129277000Y-101732935D01*
X129608001Y-101401934D01*
X129608001Y-102365567D01*
X128291215Y-103682354D01*
X128147621Y-103682354D01*
X127997506Y-103712213D01*
X127856101Y-103770785D01*
X127728840Y-103855818D01*
X127620613Y-103964045D01*
X127535580Y-104091306D01*
X127477008Y-104232711D01*
X127447149Y-104382826D01*
X127447149Y-104535882D01*
X127477008Y-104685997D01*
X127535580Y-104827402D01*
X127620613Y-104954663D01*
X127722149Y-105056199D01*
X127722149Y-105277916D01*
X127130251Y-105869814D01*
X127130251Y-105249777D01*
X127231787Y-105148241D01*
X127316820Y-105020980D01*
X127375392Y-104879575D01*
X127405251Y-104729460D01*
X127405251Y-104576404D01*
X127375392Y-104426289D01*
X127316820Y-104284884D01*
X127231787Y-104157623D01*
X127123560Y-104049396D01*
X126996299Y-103964363D01*
X126854894Y-103905791D01*
X126704779Y-103875932D01*
X126551723Y-103875932D01*
X126401608Y-103905791D01*
X126381999Y-103913913D01*
X126381999Y-101003853D01*
X126453506Y-101062537D01*
X126563820Y-101121502D01*
X126683518Y-101157812D01*
X126808000Y-101170072D01*
X127284250Y-101167000D01*
X127443000Y-101008250D01*
X127443000Y-99897000D01*
X127423000Y-99897000D01*
X127423000Y-99643000D01*
X127443000Y-99643000D01*
X127443000Y-99623000D01*
X127697000Y-99623000D01*
X127697000Y-99643000D01*
%TA.AperFunction,Conductor*%
D30*
G36*
X127697000Y-99643000D02*
G01*
X127717000Y-99643000D01*
X127717000Y-99897000D01*
X127697000Y-99897000D01*
X127697000Y-101008250D01*
X127855750Y-101167000D01*
X128046941Y-101168233D01*
X128004691Y-101196464D01*
X127896464Y-101304691D01*
X127811431Y-101431952D01*
X127752859Y-101573357D01*
X127723000Y-101723472D01*
X127723000Y-101876528D01*
X127752859Y-102026643D01*
X127811431Y-102168048D01*
X127896464Y-102295309D01*
X128004691Y-102403536D01*
X128131952Y-102488569D01*
X128273357Y-102547141D01*
X128423472Y-102577000D01*
X128576528Y-102577000D01*
X128726643Y-102547141D01*
X128868048Y-102488569D01*
X128995309Y-102403536D01*
X129103536Y-102295309D01*
X129188569Y-102168048D01*
X129247141Y-102026643D01*
X129277000Y-101876528D01*
X129277000Y-101732935D01*
X129608001Y-101401934D01*
X129608001Y-102365567D01*
X128291215Y-103682354D01*
X128147621Y-103682354D01*
X127997506Y-103712213D01*
X127856101Y-103770785D01*
X127728840Y-103855818D01*
X127620613Y-103964045D01*
X127535580Y-104091306D01*
X127477008Y-104232711D01*
X127447149Y-104382826D01*
X127447149Y-104535882D01*
X127477008Y-104685997D01*
X127535580Y-104827402D01*
X127620613Y-104954663D01*
X127722149Y-105056199D01*
X127722149Y-105277916D01*
X127130251Y-105869814D01*
X127130251Y-105249777D01*
X127231787Y-105148241D01*
X127316820Y-105020980D01*
X127375392Y-104879575D01*
X127405251Y-104729460D01*
X127405251Y-104576404D01*
X127375392Y-104426289D01*
X127316820Y-104284884D01*
X127231787Y-104157623D01*
X127123560Y-104049396D01*
X126996299Y-103964363D01*
X126854894Y-103905791D01*
X126704779Y-103875932D01*
X126551723Y-103875932D01*
X126401608Y-103905791D01*
X126381999Y-103913913D01*
X126381999Y-101003853D01*
X126453506Y-101062537D01*
X126563820Y-101121502D01*
X126683518Y-101157812D01*
X126808000Y-101170072D01*
X127284250Y-101167000D01*
X127443000Y-101008250D01*
X127443000Y-99897000D01*
X127423000Y-99897000D01*
X127423000Y-99643000D01*
X127443000Y-99643000D01*
X127443000Y-99623000D01*
X127697000Y-99623000D01*
X127697000Y-99643000D01*
G37*
%TD.AperFunction*%
D29*
X118763748Y-104360858D02*
X118749605Y-104375000D01*
X119032998Y-104658393D01*
X119032998Y-104723748D01*
X118874250Y-104565000D01*
X118590000Y-104561928D01*
X118578460Y-104563065D01*
X118570000Y-104554605D01*
X118559692Y-104564913D01*
X118552711Y-104565601D01*
X118418345Y-104431235D01*
X118415812Y-104405518D01*
X118396210Y-104340900D01*
X118555858Y-104181253D01*
X118570000Y-104195395D01*
X118584143Y-104181253D01*
X118763748Y-104360858D01*
%TA.AperFunction,Conductor*%
D30*
G36*
X118763748Y-104360858D02*
G01*
X118749605Y-104375000D01*
X119032998Y-104658393D01*
X119032998Y-104723748D01*
X118874250Y-104565000D01*
X118590000Y-104561928D01*
X118578460Y-104563065D01*
X118570000Y-104554605D01*
X118559692Y-104564913D01*
X118552711Y-104565601D01*
X118418345Y-104431235D01*
X118415812Y-104405518D01*
X118396210Y-104340900D01*
X118555858Y-104181253D01*
X118570000Y-104195395D01*
X118584143Y-104181253D01*
X118763748Y-104360858D01*
G37*
%TD.AperFunction*%
D29*
X115767233Y-98844201D02*
X115719042Y-98934359D01*
X115683259Y-99052322D01*
X115671176Y-99174999D01*
X115671176Y-100425001D01*
X115683259Y-100547678D01*
X115719042Y-100665641D01*
X115777152Y-100774356D01*
X115855354Y-100869646D01*
X115950644Y-100947848D01*
X116059359Y-101005958D01*
X116122133Y-101025000D01*
X116059359Y-101044042D01*
X115950644Y-101102152D01*
X115855354Y-101180354D01*
X115777152Y-101275644D01*
X115719042Y-101384359D01*
X115683259Y-101502322D01*
X115671176Y-101624999D01*
X115671176Y-102875001D01*
X115683259Y-102997678D01*
X115719042Y-103115641D01*
X115777152Y-103224356D01*
X115855354Y-103319646D01*
X115950644Y-103397848D01*
X116059359Y-103455958D01*
X116177322Y-103491741D01*
X116299999Y-103503824D01*
X117100001Y-103503824D01*
X117222678Y-103491741D01*
X117294092Y-103470078D01*
X117170186Y-103514956D01*
X117029296Y-103804571D01*
X117006136Y-103892907D01*
X115795180Y-103894420D01*
X115740919Y-103741253D01*
X115667472Y-103603843D01*
X115418397Y-103526208D01*
X114904428Y-104040178D01*
X114759250Y-103895000D01*
X114690481Y-103894914D01*
X115238792Y-103346603D01*
X115161157Y-103097528D01*
X114897117Y-102971629D01*
X114887259Y-102969127D01*
X114885000Y-102535750D01*
X114726250Y-102377000D01*
X113727000Y-102377000D01*
X113727000Y-103039717D01*
X113618843Y-103097528D01*
X113541209Y-103346601D01*
X113473000Y-103278392D01*
X113473000Y-102377000D01*
X113453000Y-102377000D01*
X113453000Y-102123000D01*
X113473000Y-102123000D01*
X113473000Y-99927000D01*
X113727000Y-99927000D01*
X113727000Y-102123000D01*
X114726250Y-102123000D01*
X114885000Y-101964250D01*
X114888072Y-101375000D01*
X114875812Y-101250518D01*
X114839502Y-101130820D01*
X114782939Y-101025000D01*
X114839502Y-100919180D01*
X114875812Y-100799482D01*
X114888072Y-100675000D01*
X114885000Y-100085750D01*
X114726250Y-99927000D01*
X113727000Y-99927000D01*
X113473000Y-99927000D01*
X113453000Y-99927000D01*
X113453000Y-99673000D01*
X113473000Y-99673000D01*
X113473000Y-99653000D01*
X113727000Y-99653000D01*
X113727000Y-99673000D01*
X114726250Y-99673000D01*
X114885000Y-99514250D01*
X114888072Y-98925000D01*
X114879654Y-98839530D01*
X115767233Y-98844201D01*
%TA.AperFunction,Conductor*%
D30*
G36*
X115767233Y-98844201D02*
G01*
X115719042Y-98934359D01*
X115683259Y-99052322D01*
X115671176Y-99174999D01*
X115671176Y-100425001D01*
X115683259Y-100547678D01*
X115719042Y-100665641D01*
X115777152Y-100774356D01*
X115855354Y-100869646D01*
X115950644Y-100947848D01*
X116059359Y-101005958D01*
X116122133Y-101025000D01*
X116059359Y-101044042D01*
X115950644Y-101102152D01*
X115855354Y-101180354D01*
X115777152Y-101275644D01*
X115719042Y-101384359D01*
X115683259Y-101502322D01*
X115671176Y-101624999D01*
X115671176Y-102875001D01*
X115683259Y-102997678D01*
X115719042Y-103115641D01*
X115777152Y-103224356D01*
X115855354Y-103319646D01*
X115950644Y-103397848D01*
X116059359Y-103455958D01*
X116177322Y-103491741D01*
X116299999Y-103503824D01*
X117100001Y-103503824D01*
X117222678Y-103491741D01*
X117294092Y-103470078D01*
X117170186Y-103514956D01*
X117029296Y-103804571D01*
X117006136Y-103892907D01*
X115795180Y-103894420D01*
X115740919Y-103741253D01*
X115667472Y-103603843D01*
X115418397Y-103526208D01*
X114904428Y-104040178D01*
X114759250Y-103895000D01*
X114690481Y-103894914D01*
X115238792Y-103346603D01*
X115161157Y-103097528D01*
X114897117Y-102971629D01*
X114887259Y-102969127D01*
X114885000Y-102535750D01*
X114726250Y-102377000D01*
X113727000Y-102377000D01*
X113727000Y-103039717D01*
X113618843Y-103097528D01*
X113541209Y-103346601D01*
X113473000Y-103278392D01*
X113473000Y-102377000D01*
X113453000Y-102377000D01*
X113453000Y-102123000D01*
X113473000Y-102123000D01*
X113473000Y-99927000D01*
X113727000Y-99927000D01*
X113727000Y-102123000D01*
X114726250Y-102123000D01*
X114885000Y-101964250D01*
X114888072Y-101375000D01*
X114875812Y-101250518D01*
X114839502Y-101130820D01*
X114782939Y-101025000D01*
X114839502Y-100919180D01*
X114875812Y-100799482D01*
X114888072Y-100675000D01*
X114885000Y-100085750D01*
X114726250Y-99927000D01*
X113727000Y-99927000D01*
X113473000Y-99927000D01*
X113453000Y-99927000D01*
X113453000Y-99673000D01*
X113473000Y-99673000D01*
X113473000Y-99653000D01*
X113727000Y-99653000D01*
X113727000Y-99673000D01*
X114726250Y-99673000D01*
X114885000Y-99514250D01*
X114888072Y-98925000D01*
X114879654Y-98839530D01*
X115767233Y-98844201D01*
G37*
%TD.AperFunction*%
D29*
X120513000Y-99986524D02*
X120512999Y-100453357D01*
X120510572Y-100478001D01*
X120512999Y-100502644D01*
X120512999Y-100502653D01*
X120520263Y-100576409D01*
X120548968Y-100671036D01*
X120595582Y-100758246D01*
X120658315Y-100834685D01*
X120677466Y-100850402D01*
X121464601Y-101637538D01*
X121480314Y-101656684D01*
X121556753Y-101719417D01*
X121643962Y-101766031D01*
X121738589Y-101794736D01*
X121812345Y-101802000D01*
X121812354Y-101802000D01*
X121836997Y-101804427D01*
X121861640Y-101802000D01*
X123892066Y-101802000D01*
X124295070Y-102205005D01*
X124295070Y-102800366D01*
X124148595Y-102771231D01*
X123995539Y-102771231D01*
X123845424Y-102801090D01*
X123704019Y-102859662D01*
X123576758Y-102944695D01*
X123476492Y-103044961D01*
X123469428Y-103031746D01*
X123437564Y-102992920D01*
X123422410Y-102974455D01*
X123422408Y-102974453D01*
X123406695Y-102955307D01*
X123387549Y-102939594D01*
X122468385Y-102020431D01*
X122452668Y-102001280D01*
X122376229Y-101938547D01*
X122289020Y-101891933D01*
X122194393Y-101863228D01*
X122120637Y-101855964D01*
X122120627Y-101855964D01*
X122095984Y-101853537D01*
X122071341Y-101855964D01*
X121115726Y-101855964D01*
X121091083Y-101853537D01*
X121066440Y-101855964D01*
X121066430Y-101855964D01*
X120992674Y-101863228D01*
X120898047Y-101891933D01*
X120810838Y-101938547D01*
X120810836Y-101938548D01*
X120810837Y-101938548D01*
X120772812Y-101969755D01*
X120734399Y-102001280D01*
X120718686Y-102020426D01*
X120338501Y-102400612D01*
X120319350Y-102416329D01*
X120256617Y-102492768D01*
X120210003Y-102579978D01*
X120181298Y-102674605D01*
X120174745Y-102741142D01*
X120162911Y-102752977D01*
X119972402Y-102562468D01*
X119956684Y-102543316D01*
X119880245Y-102480583D01*
X119793036Y-102433969D01*
X119698409Y-102405264D01*
X119624653Y-102398000D01*
X119624643Y-102398000D01*
X119600000Y-102395573D01*
X119575357Y-102398000D01*
X118307936Y-102398000D01*
X117822401Y-101912467D01*
X117806684Y-101893316D01*
X117730245Y-101830583D01*
X117728824Y-101829823D01*
X117728824Y-101624999D01*
X117716741Y-101502322D01*
X117680958Y-101384359D01*
X117622848Y-101275644D01*
X117544646Y-101180354D01*
X117449356Y-101102152D01*
X117340641Y-101044042D01*
X117277867Y-101025000D01*
X117340641Y-101005958D01*
X117449356Y-100947848D01*
X117544646Y-100869646D01*
X117622848Y-100774356D01*
X117680958Y-100665641D01*
X117716741Y-100547678D01*
X117728824Y-100425001D01*
X117728824Y-100131110D01*
X118157935Y-99702000D01*
X120228476Y-99702000D01*
X120513000Y-99986524D01*
%TA.AperFunction,Conductor*%
D30*
G36*
X120513000Y-99986524D02*
G01*
X120512999Y-100453357D01*
X120510572Y-100478001D01*
X120512999Y-100502644D01*
X120512999Y-100502653D01*
X120520263Y-100576409D01*
X120548968Y-100671036D01*
X120595582Y-100758246D01*
X120658315Y-100834685D01*
X120677466Y-100850402D01*
X121464601Y-101637538D01*
X121480314Y-101656684D01*
X121556753Y-101719417D01*
X121643962Y-101766031D01*
X121738589Y-101794736D01*
X121812345Y-101802000D01*
X121812354Y-101802000D01*
X121836997Y-101804427D01*
X121861640Y-101802000D01*
X123892066Y-101802000D01*
X124295070Y-102205005D01*
X124295070Y-102800366D01*
X124148595Y-102771231D01*
X123995539Y-102771231D01*
X123845424Y-102801090D01*
X123704019Y-102859662D01*
X123576758Y-102944695D01*
X123476492Y-103044961D01*
X123469428Y-103031746D01*
X123437564Y-102992920D01*
X123422410Y-102974455D01*
X123422408Y-102974453D01*
X123406695Y-102955307D01*
X123387549Y-102939594D01*
X122468385Y-102020431D01*
X122452668Y-102001280D01*
X122376229Y-101938547D01*
X122289020Y-101891933D01*
X122194393Y-101863228D01*
X122120637Y-101855964D01*
X122120627Y-101855964D01*
X122095984Y-101853537D01*
X122071341Y-101855964D01*
X121115726Y-101855964D01*
X121091083Y-101853537D01*
X121066440Y-101855964D01*
X121066430Y-101855964D01*
X120992674Y-101863228D01*
X120898047Y-101891933D01*
X120810838Y-101938547D01*
X120810836Y-101938548D01*
X120810837Y-101938548D01*
X120772812Y-101969755D01*
X120734399Y-102001280D01*
X120718686Y-102020426D01*
X120338501Y-102400612D01*
X120319350Y-102416329D01*
X120256617Y-102492768D01*
X120210003Y-102579978D01*
X120181298Y-102674605D01*
X120174745Y-102741142D01*
X120162911Y-102752977D01*
X119972402Y-102562468D01*
X119956684Y-102543316D01*
X119880245Y-102480583D01*
X119793036Y-102433969D01*
X119698409Y-102405264D01*
X119624653Y-102398000D01*
X119624643Y-102398000D01*
X119600000Y-102395573D01*
X119575357Y-102398000D01*
X118307936Y-102398000D01*
X117822401Y-101912467D01*
X117806684Y-101893316D01*
X117730245Y-101830583D01*
X117728824Y-101829823D01*
X117728824Y-101624999D01*
X117716741Y-101502322D01*
X117680958Y-101384359D01*
X117622848Y-101275644D01*
X117544646Y-101180354D01*
X117449356Y-101102152D01*
X117340641Y-101044042D01*
X117277867Y-101025000D01*
X117340641Y-101005958D01*
X117449356Y-100947848D01*
X117544646Y-100869646D01*
X117622848Y-100774356D01*
X117680958Y-100665641D01*
X117716741Y-100547678D01*
X117728824Y-100425001D01*
X117728824Y-100131110D01*
X118157935Y-99702000D01*
X120228476Y-99702000D01*
X120513000Y-99986524D01*
G37*
%TD.AperFunction*%
%TD*%
M02*
