%TF.GenerationSoftware,KiCad,Pcbnew,(5.1.9-0-10_14)*%
%TF.CreationDate,2021-04-23T07:59:34+01:00*%
%TF.ProjectId,Shelly,5368656c-6c79-42e6-9b69-6361645f7063,rev?*%
%TF.SameCoordinates,Original*%
%TF.FileFunction,Copper,L2,Bot*%
%TF.FilePolarity,Positive*%
%FSLAX46Y46*%
G04 Gerber Fmt 4.6, Leading zero omitted, Abs format (unit mm)*
G04 Created by KiCad (PCBNEW (5.1.9-0-10_14)) date 2021-04-23 07:59:34*
%MOMM*%
%LPD*%
G01*
G04 APERTURE LIST*
%TA.AperFunction,NonConductor*%
%ADD10C,0.300000*%
%TD*%
%TA.AperFunction,ComponentPad*%
%ADD11O,1.000000X1.000000*%
%TD*%
%TA.AperFunction,ComponentPad*%
%ADD12R,1.000000X1.000000*%
%TD*%
%TA.AperFunction,SMDPad,CuDef*%
%ADD13C,1.700000*%
%TD*%
%TA.AperFunction,ComponentPad*%
%ADD14R,1.524000X1.524000*%
%TD*%
%TA.AperFunction,ComponentPad*%
%ADD15O,1.600000X1.600000*%
%TD*%
%TA.AperFunction,ComponentPad*%
%ADD16R,1.600000X1.600000*%
%TD*%
%TA.AperFunction,ComponentPad*%
%ADD17C,1.700000*%
%TD*%
%TA.AperFunction,ComponentPad*%
%ADD18C,2.000000*%
%TD*%
%TA.AperFunction,ComponentPad*%
%ADD19C,0.600000*%
%TD*%
%TA.AperFunction,ComponentPad*%
%ADD20C,1.524000*%
%TD*%
%TA.AperFunction,ComponentPad*%
%ADD21O,1.700000X1.700000*%
%TD*%
%TA.AperFunction,ComponentPad*%
%ADD22R,1.700000X1.700000*%
%TD*%
%TA.AperFunction,ViaPad*%
%ADD23C,0.800000*%
%TD*%
%TA.AperFunction,Conductor*%
%ADD24C,0.250000*%
%TD*%
%TA.AperFunction,Conductor*%
%ADD25C,0.254000*%
%TD*%
%TA.AperFunction,Conductor*%
%ADD26C,0.100000*%
%TD*%
G04 APERTURE END LIST*
D10*
X185321428Y-62014285D02*
X183821428Y-61514285D01*
X185321428Y-61014285D01*
X185178571Y-60585714D02*
X185250000Y-60514285D01*
X185321428Y-60371428D01*
X185321428Y-60014285D01*
X185250000Y-59871428D01*
X185178571Y-59800000D01*
X185035714Y-59728571D01*
X184892857Y-59728571D01*
X184678571Y-59800000D01*
X183821428Y-60657142D01*
X183821428Y-59728571D01*
D11*
%TO.P,J3,6*%
%TO.N,TXD*%
X174650000Y-62600000D03*
%TO.P,J3,5*%
%TO.N,RXD*%
X175920000Y-62600000D03*
%TO.P,J3,4*%
%TO.N,+3V3*%
X177190000Y-62600000D03*
%TO.P,J3,3*%
%TO.N,RST*%
X178460000Y-62600000D03*
%TO.P,J3,2*%
%TO.N,GPIO0*%
X179730000Y-62600000D03*
D12*
%TO.P,J3,1*%
%TO.N,GND*%
X181000000Y-62600000D03*
%TD*%
D13*
%TO.P,M1,1*%
%TO.N,Net-(M1-Pad1)*%
X172730000Y-72700000D03*
%TO.P,M1,4*%
%TO.N,+3V3*%
X172730000Y-65080000D03*
D14*
%TO.P,M1,3*%
%TO.N,GND*%
X172730000Y-67620000D03*
D13*
%TO.P,M1,2*%
%TO.N,VBUS*%
X172730000Y-70160000D03*
%TD*%
D15*
%TO.P,U2,6*%
%TO.N,+3V3*%
X179620000Y-75200000D03*
%TO.P,U2,3*%
%TO.N,Net-(U2-Pad3)*%
X172000000Y-80280000D03*
%TO.P,U2,5*%
%TO.N,Net-(U2-Pad5)*%
X179620000Y-77740000D03*
%TO.P,U2,2*%
%TO.N,GND*%
X172000000Y-77740000D03*
%TO.P,U2,4*%
%TO.N,Net-(J1-Pad3)*%
X179620000Y-80280000D03*
D16*
%TO.P,U2,1*%
%TO.N,Net-(R6-Pad1)*%
X172000000Y-75200000D03*
%TD*%
%TO.P,R6,2*%
%TO.N,RST*%
%TA.AperFunction,SMDPad,CuDef*%
G36*
G01*
X176650000Y-75825001D02*
X176650000Y-74574999D01*
G75*
G02*
X176899999Y-74325000I249999J0D01*
G01*
X177700001Y-74325000D01*
G75*
G02*
X177950000Y-74574999I0J-249999D01*
G01*
X177950000Y-75825001D01*
G75*
G02*
X177700001Y-76075000I-249999J0D01*
G01*
X176899999Y-76075000D01*
G75*
G02*
X176650000Y-75825001I0J249999D01*
G01*
G37*
%TD.AperFunction*%
%TO.P,R6,1*%
%TO.N,Net-(R6-Pad1)*%
%TA.AperFunction,SMDPad,CuDef*%
G36*
G01*
X173550000Y-75825001D02*
X173550000Y-74574999D01*
G75*
G02*
X173799999Y-74325000I249999J0D01*
G01*
X174600001Y-74325000D01*
G75*
G02*
X174850000Y-74574999I0J-249999D01*
G01*
X174850000Y-75825001D01*
G75*
G02*
X174600001Y-76075000I-249999J0D01*
G01*
X173799999Y-76075000D01*
G75*
G02*
X173550000Y-75825001I0J249999D01*
G01*
G37*
%TD.AperFunction*%
%TD*%
D17*
%TO.P,J4,S1*%
%TO.N,GND*%
X180325000Y-86910000D03*
X171675000Y-86910000D03*
D18*
X180325000Y-82730000D03*
X171675000Y-82730000D03*
D19*
X178890000Y-83210000D03*
X173110000Y-83210000D03*
%TD*%
%TO.P,R1,2*%
%TO.N,GND*%
%TA.AperFunction,SMDPad,CuDef*%
G36*
G01*
X174174999Y-86850000D02*
X175425001Y-86850000D01*
G75*
G02*
X175675000Y-87099999I0J-249999D01*
G01*
X175675000Y-87900001D01*
G75*
G02*
X175425001Y-88150000I-249999J0D01*
G01*
X174174999Y-88150000D01*
G75*
G02*
X173925000Y-87900001I0J249999D01*
G01*
X173925000Y-87099999D01*
G75*
G02*
X174174999Y-86850000I249999J0D01*
G01*
G37*
%TD.AperFunction*%
%TO.P,R1,1*%
%TO.N,Net-(J4-PadA5)*%
%TA.AperFunction,SMDPad,CuDef*%
G36*
G01*
X174174999Y-83750000D02*
X175425001Y-83750000D01*
G75*
G02*
X175675000Y-83999999I0J-249999D01*
G01*
X175675000Y-84800001D01*
G75*
G02*
X175425001Y-85050000I-249999J0D01*
G01*
X174174999Y-85050000D01*
G75*
G02*
X173925000Y-84800001I0J249999D01*
G01*
X173925000Y-83999999D01*
G75*
G02*
X174174999Y-83750000I249999J0D01*
G01*
G37*
%TD.AperFunction*%
%TD*%
D20*
%TO.P,U1,21*%
%TO.N,GND*%
X179075000Y-69125000D03*
%TD*%
D11*
%TO.P,J2,6*%
%TO.N,TXD*%
X174650000Y-60630000D03*
%TO.P,J2,5*%
%TO.N,RXD*%
X175920000Y-60630000D03*
%TO.P,J2,4*%
%TO.N,+3V3*%
X177190000Y-60630000D03*
%TO.P,J2,3*%
%TO.N,RST*%
X178460000Y-60630000D03*
%TO.P,J2,2*%
%TO.N,GPIO0*%
X179730000Y-60630000D03*
D12*
%TO.P,J2,1*%
%TO.N,GND*%
X181000000Y-60630000D03*
%TD*%
D21*
%TO.P,J1,5*%
%TO.N,TXD*%
X184000000Y-76840000D03*
%TO.P,J1,4*%
%TO.N,RXD*%
X184000000Y-79380000D03*
%TO.P,J1,3*%
%TO.N,Net-(J1-Pad3)*%
X184000000Y-81920000D03*
%TO.P,J1,2*%
%TO.N,GPIO0*%
X184000000Y-84460000D03*
D22*
%TO.P,J1,1*%
%TO.N,GND*%
X184000000Y-87000000D03*
%TD*%
%TO.P,R2,2*%
%TO.N,Net-(J4-PadB5)*%
%TA.AperFunction,SMDPad,CuDef*%
G36*
G01*
X178225001Y-85050000D02*
X176974999Y-85050000D01*
G75*
G02*
X176725000Y-84800001I0J249999D01*
G01*
X176725000Y-83999999D01*
G75*
G02*
X176974999Y-83750000I249999J0D01*
G01*
X178225001Y-83750000D01*
G75*
G02*
X178475000Y-83999999I0J-249999D01*
G01*
X178475000Y-84800001D01*
G75*
G02*
X178225001Y-85050000I-249999J0D01*
G01*
G37*
%TD.AperFunction*%
%TO.P,R2,1*%
%TO.N,GND*%
%TA.AperFunction,SMDPad,CuDef*%
G36*
G01*
X178225001Y-88150000D02*
X176974999Y-88150000D01*
G75*
G02*
X176725000Y-87900001I0J249999D01*
G01*
X176725000Y-87099999D01*
G75*
G02*
X176974999Y-86850000I249999J0D01*
G01*
X178225001Y-86850000D01*
G75*
G02*
X178475000Y-87099999I0J-249999D01*
G01*
X178475000Y-87900001D01*
G75*
G02*
X178225001Y-88150000I-249999J0D01*
G01*
G37*
%TD.AperFunction*%
%TD*%
D23*
%TO.N,VBUS*%
X177367282Y-65578118D03*
X172743401Y-70325010D03*
%TO.N,RXD*%
X176262664Y-64600022D03*
X175925010Y-68023022D03*
%TO.N,+3V3*%
X172700000Y-65100000D03*
X176126430Y-73371832D03*
%TO.N,GPIO0*%
X175471626Y-66453105D03*
%TO.N,TXD*%
X177685520Y-71746810D03*
%TO.N,RST*%
X182400000Y-70000000D03*
X177300000Y-75200000D03*
%TO.N,Net-(C1-Pad1)*%
X180000000Y-65800000D03*
X176306755Y-70493245D03*
%TO.N,Net-(J4-PadA7)*%
X174944906Y-80143496D03*
X176720267Y-80115644D03*
%TO.N,Net-(J4-PadA6)*%
X175419742Y-79263409D03*
X177667839Y-79516597D03*
%TO.N,Net-(J4-PadA5)*%
X174325010Y-80928195D03*
%TO.N,Net-(J4-PadB5)*%
X177943454Y-80990780D03*
%TD*%
D24*
%TO.N,GND*%
X171254999Y-62803999D02*
X171254999Y-67454999D01*
X174253999Y-59804999D02*
X171254999Y-62803999D01*
X180174999Y-59804999D02*
X174253999Y-59804999D01*
X181000000Y-60630000D02*
X180174999Y-59804999D01*
X171420000Y-67620000D02*
X172730000Y-67620000D01*
X171254999Y-67454999D02*
X171420000Y-67620000D01*
X172730000Y-67620000D02*
X171380000Y-67620000D01*
X170874999Y-76614999D02*
X172000000Y-77740000D01*
X170874999Y-68125001D02*
X170874999Y-76614999D01*
X171380000Y-67620000D02*
X170874999Y-68125001D01*
X170675001Y-81730001D02*
X171675000Y-82730000D01*
X170675001Y-79064999D02*
X170675001Y-81730001D01*
X172000000Y-77740000D02*
X170675001Y-79064999D01*
%TO.N,VBUS*%
X175728262Y-65775035D02*
X177170365Y-65775035D01*
X177170365Y-65775035D02*
X177367282Y-65578118D01*
X175152559Y-65649117D02*
X175602344Y-65649117D01*
X174199978Y-68690022D02*
X174199978Y-66601698D01*
X174199978Y-66601698D02*
X175152559Y-65649117D01*
X172730000Y-70160000D02*
X174199978Y-68690022D01*
X175602344Y-65649117D02*
X175728262Y-65775035D01*
%TO.N,RXD*%
X175920000Y-60630000D02*
X175920000Y-62600000D01*
X175920000Y-64257358D02*
X176262664Y-64600022D01*
X175920000Y-62600000D02*
X175920000Y-64257358D01*
X183620000Y-79000000D02*
X184000000Y-79380000D01*
X182000000Y-79000000D02*
X183620000Y-79000000D01*
X181564402Y-74435598D02*
X181564402Y-78564402D01*
X175400000Y-70872781D02*
X176999029Y-72471810D01*
X181564402Y-78564402D02*
X182000000Y-79000000D01*
X175400000Y-68600000D02*
X175400000Y-70872781D01*
X175925010Y-68074990D02*
X175400000Y-68600000D01*
X179600614Y-72471810D02*
X181564402Y-74435598D01*
X176999029Y-72471810D02*
X179600614Y-72471810D01*
X175925010Y-68023022D02*
X175925010Y-68074990D01*
%TO.N,+3V3*%
X177791832Y-73371832D02*
X179620000Y-75200000D01*
X176126430Y-73371832D02*
X177791832Y-73371832D01*
X177190000Y-60630000D02*
X177190000Y-62600000D01*
X177190000Y-64708324D02*
X177190000Y-62600000D01*
X176573300Y-65325024D02*
X177190000Y-64708324D01*
X175914662Y-65325024D02*
X176573300Y-65325024D01*
X175644819Y-65055181D02*
X172754819Y-65055181D01*
X172754819Y-65055181D02*
X172730000Y-65080000D01*
X175644819Y-65055181D02*
X175914662Y-65325024D01*
%TO.N,GPIO0*%
X179730000Y-60630000D02*
X179730000Y-62600000D01*
X184000000Y-84460000D02*
X185175001Y-83284999D01*
X183495612Y-80555001D02*
X182670305Y-79729695D01*
X185175001Y-83284999D02*
X185175001Y-81355999D01*
X185175001Y-81355999D02*
X184374003Y-80555001D01*
X182670305Y-79729695D02*
X181329695Y-79729695D01*
X184374003Y-80555001D02*
X183495612Y-80555001D01*
X181081795Y-79481795D02*
X181081795Y-74918205D01*
X181329695Y-79729695D02*
X181081795Y-79481795D01*
X181081795Y-74918205D02*
X179085411Y-72921821D01*
X174949989Y-66974742D02*
X175471626Y-66453105D01*
X179085411Y-72921821D02*
X176785429Y-72921821D01*
X176785429Y-72921821D02*
X174949989Y-71086381D01*
X174949989Y-71086381D02*
X174949989Y-66974742D01*
%TO.N,TXD*%
X179873806Y-71746810D02*
X177685520Y-71746810D01*
X182263498Y-74136502D02*
X182263498Y-76663498D01*
X182263498Y-74136502D02*
X179873806Y-71746810D01*
X182440000Y-76840000D02*
X184000000Y-76840000D01*
X182263498Y-76663498D02*
X182440000Y-76840000D01*
X174650000Y-60630000D02*
X174650000Y-62600000D01*
%TO.N,RST*%
X178460000Y-60630000D02*
X178460000Y-62600000D01*
X182400000Y-70000000D02*
X182400000Y-66540000D01*
X178460000Y-62600000D02*
X178460000Y-64860000D01*
X178570000Y-64970000D02*
X180830000Y-64970000D01*
X178460000Y-64860000D02*
X178570000Y-64970000D01*
X182400000Y-66540000D02*
X180830000Y-64970000D01*
%TO.N,Net-(C1-Pad1)*%
X176706754Y-70093246D02*
X176306755Y-70493245D01*
X180000000Y-65800000D02*
X179200000Y-66600000D01*
X179200000Y-66600000D02*
X177200000Y-66600000D01*
X177200000Y-66600000D02*
X176706754Y-67093246D01*
X176706754Y-67093246D02*
X176706754Y-70093246D01*
%TO.N,Net-(J4-PadA7)*%
X174944906Y-80143496D02*
X176692415Y-80143496D01*
X176692415Y-80143496D02*
X176720267Y-80115644D01*
%TO.N,Net-(J4-PadA6)*%
X177414651Y-79263409D02*
X177667839Y-79516597D01*
X175419742Y-79263409D02*
X177414651Y-79263409D01*
%TO.N,Net-(J4-PadA5)*%
X175800000Y-81200000D02*
X175800000Y-83400000D01*
X175800000Y-83400000D02*
X174800000Y-84400000D01*
X175528195Y-80928195D02*
X175800000Y-81200000D01*
X174325010Y-80928195D02*
X175528195Y-80928195D01*
%TO.N,Net-(J4-PadB5)*%
X177943454Y-84343454D02*
X178000000Y-84400000D01*
X176400000Y-83400000D02*
X177400000Y-84400000D01*
X177400000Y-84400000D02*
X177600000Y-84400000D01*
X176400000Y-81200000D02*
X176400000Y-83400000D01*
X176609220Y-80990780D02*
X176400000Y-81200000D01*
X177943454Y-80990780D02*
X176609220Y-80990780D01*
%TO.N,Net-(J1-Pad3)*%
X182360000Y-80280000D02*
X179620000Y-80280000D01*
X184000000Y-81920000D02*
X182360000Y-80280000D01*
%TO.N,Net-(R6-Pad1)*%
X172000000Y-75200000D02*
X174200000Y-75200000D01*
%TD*%
D25*
%TO.N,GND*%
X182558791Y-81553592D02*
X182515000Y-81773740D01*
X182515000Y-82066260D01*
X182572068Y-82353158D01*
X182684010Y-82623411D01*
X182846525Y-82866632D01*
X183053368Y-83073475D01*
X183227760Y-83190000D01*
X183053368Y-83306525D01*
X182846525Y-83513368D01*
X182684010Y-83756589D01*
X182572068Y-84026842D01*
X182515000Y-84313740D01*
X182515000Y-84606260D01*
X182572068Y-84893158D01*
X182684010Y-85163411D01*
X182846525Y-85406632D01*
X182978380Y-85538487D01*
X182905820Y-85560498D01*
X182795506Y-85619463D01*
X182698815Y-85698815D01*
X182619463Y-85795506D01*
X182560498Y-85905820D01*
X182524188Y-86025518D01*
X182511928Y-86150000D01*
X182515000Y-86714250D01*
X182673750Y-86873000D01*
X183873000Y-86873000D01*
X183873000Y-86853000D01*
X184127000Y-86853000D01*
X184127000Y-86873000D01*
X184147000Y-86873000D01*
X184147000Y-87127000D01*
X184127000Y-87127000D01*
X184127000Y-87147000D01*
X183873000Y-87147000D01*
X183873000Y-87127000D01*
X182673750Y-87127000D01*
X182515000Y-87285750D01*
X182511928Y-87850000D01*
X182524188Y-87974482D01*
X182560498Y-88094180D01*
X182619463Y-88204494D01*
X182698815Y-88301185D01*
X182715649Y-88315000D01*
X180806089Y-88315000D01*
X180958747Y-88260919D01*
X181096157Y-88187472D01*
X181173792Y-87938397D01*
X180325000Y-87089605D01*
X179476208Y-87938397D01*
X179553843Y-88187472D01*
X179817883Y-88313371D01*
X179824301Y-88315000D01*
X179088521Y-88315000D01*
X179100812Y-88274482D01*
X179113072Y-88150000D01*
X179110000Y-87785750D01*
X178951252Y-87627002D01*
X179018582Y-87627002D01*
X179047528Y-87681157D01*
X179296603Y-87758792D01*
X180145395Y-86910000D01*
X180504605Y-86910000D01*
X181353397Y-87758792D01*
X181602472Y-87681157D01*
X181728371Y-87417117D01*
X181800339Y-87133589D01*
X181815611Y-86841469D01*
X181773599Y-86551981D01*
X181675919Y-86276253D01*
X181602472Y-86138843D01*
X181353397Y-86061208D01*
X180504605Y-86910000D01*
X180145395Y-86910000D01*
X179296603Y-86061208D01*
X179047528Y-86138843D01*
X178924305Y-86397272D01*
X178829494Y-86319463D01*
X178719180Y-86260498D01*
X178599482Y-86224188D01*
X178475000Y-86211928D01*
X177885750Y-86215000D01*
X177727000Y-86373750D01*
X177727000Y-87373000D01*
X177747000Y-87373000D01*
X177747000Y-87627000D01*
X177727000Y-87627000D01*
X177727000Y-87647000D01*
X177473000Y-87647000D01*
X177473000Y-87627000D01*
X176248750Y-87627000D01*
X176200000Y-87675750D01*
X176151250Y-87627000D01*
X174927000Y-87627000D01*
X174927000Y-87647000D01*
X174673000Y-87647000D01*
X174673000Y-87627000D01*
X173448750Y-87627000D01*
X173290000Y-87785750D01*
X173286928Y-88150000D01*
X173299188Y-88274482D01*
X173311479Y-88315000D01*
X172156089Y-88315000D01*
X172308747Y-88260919D01*
X172446157Y-88187472D01*
X172523792Y-87938397D01*
X171675000Y-87089605D01*
X171660858Y-87103748D01*
X171481253Y-86924143D01*
X171495395Y-86910000D01*
X171854605Y-86910000D01*
X172703397Y-87758792D01*
X172952472Y-87681157D01*
X173078371Y-87417117D01*
X173150339Y-87133589D01*
X173165165Y-86850000D01*
X173286928Y-86850000D01*
X173290000Y-87214250D01*
X173448750Y-87373000D01*
X174673000Y-87373000D01*
X174673000Y-86373750D01*
X174927000Y-86373750D01*
X174927000Y-87373000D01*
X176151250Y-87373000D01*
X176200000Y-87324250D01*
X176248750Y-87373000D01*
X177473000Y-87373000D01*
X177473000Y-86373750D01*
X177314250Y-86215000D01*
X176725000Y-86211928D01*
X176600518Y-86224188D01*
X176480820Y-86260498D01*
X176370506Y-86319463D01*
X176273815Y-86398815D01*
X176200000Y-86488759D01*
X176126185Y-86398815D01*
X176029494Y-86319463D01*
X175919180Y-86260498D01*
X175799482Y-86224188D01*
X175675000Y-86211928D01*
X175085750Y-86215000D01*
X174927000Y-86373750D01*
X174673000Y-86373750D01*
X174514250Y-86215000D01*
X173925000Y-86211928D01*
X173800518Y-86224188D01*
X173680820Y-86260498D01*
X173570506Y-86319463D01*
X173473815Y-86398815D01*
X173394463Y-86495506D01*
X173335498Y-86605820D01*
X173299188Y-86725518D01*
X173286928Y-86850000D01*
X173165165Y-86850000D01*
X173165611Y-86841469D01*
X173123599Y-86551981D01*
X173025919Y-86276253D01*
X172952472Y-86138843D01*
X172703397Y-86061208D01*
X171854605Y-86910000D01*
X171495395Y-86910000D01*
X171481253Y-86895858D01*
X171660858Y-86716253D01*
X171675000Y-86730395D01*
X172523792Y-85881603D01*
X179476208Y-85881603D01*
X180325000Y-86730395D01*
X181173792Y-85881603D01*
X181096157Y-85632528D01*
X180832117Y-85506629D01*
X180548589Y-85434661D01*
X180256469Y-85419389D01*
X179966981Y-85461401D01*
X179691253Y-85559081D01*
X179553843Y-85632528D01*
X179476208Y-85881603D01*
X172523792Y-85881603D01*
X172446157Y-85632528D01*
X172182117Y-85506629D01*
X171898589Y-85434661D01*
X171606469Y-85419389D01*
X171316981Y-85461401D01*
X171041253Y-85559081D01*
X170903843Y-85632528D01*
X170826209Y-85881601D01*
X170710104Y-85765496D01*
X170685000Y-85790600D01*
X170685000Y-83899608D01*
X170719193Y-83865415D01*
X170814956Y-84129814D01*
X171104571Y-84270704D01*
X171416108Y-84352384D01*
X171737595Y-84371718D01*
X172056675Y-84327961D01*
X172361088Y-84222795D01*
X172535044Y-84129814D01*
X172628885Y-83870723D01*
X172632500Y-83867108D01*
X172657660Y-83892268D01*
X172665575Y-84037763D01*
X172835603Y-84108562D01*
X173016176Y-84144828D01*
X173200355Y-84145171D01*
X173286928Y-84128117D01*
X173286928Y-84800001D01*
X173303992Y-84973255D01*
X173354528Y-85139851D01*
X173436595Y-85293387D01*
X173547038Y-85427962D01*
X173681613Y-85538405D01*
X173835149Y-85620472D01*
X174001745Y-85671008D01*
X174174999Y-85688072D01*
X175425001Y-85688072D01*
X175598255Y-85671008D01*
X175764851Y-85620472D01*
X175918387Y-85538405D01*
X176052962Y-85427962D01*
X176163405Y-85293387D01*
X176200000Y-85224923D01*
X176236595Y-85293387D01*
X176347038Y-85427962D01*
X176481613Y-85538405D01*
X176635149Y-85620472D01*
X176801745Y-85671008D01*
X176974999Y-85688072D01*
X178225001Y-85688072D01*
X178398255Y-85671008D01*
X178564851Y-85620472D01*
X178718387Y-85538405D01*
X178852962Y-85427962D01*
X178963405Y-85293387D01*
X179045472Y-85139851D01*
X179096008Y-84973255D01*
X179113072Y-84800001D01*
X179113072Y-84119027D01*
X179161061Y-84109574D01*
X179331351Y-84039408D01*
X179334425Y-84037763D01*
X179342340Y-83892268D01*
X179367500Y-83867108D01*
X179371115Y-83870723D01*
X179464956Y-84129814D01*
X179754571Y-84270704D01*
X180066108Y-84352384D01*
X180387595Y-84371718D01*
X180706675Y-84327961D01*
X181011088Y-84222795D01*
X181185044Y-84129814D01*
X181280808Y-83865413D01*
X180325000Y-82909605D01*
X180310858Y-82923748D01*
X180131253Y-82744143D01*
X180145395Y-82730000D01*
X180504605Y-82730000D01*
X181460413Y-83685808D01*
X181724814Y-83590044D01*
X181865704Y-83300429D01*
X181947384Y-82988892D01*
X181966718Y-82667405D01*
X181922961Y-82348325D01*
X181817795Y-82043912D01*
X181724814Y-81869956D01*
X181460413Y-81774192D01*
X180504605Y-82730000D01*
X180145395Y-82730000D01*
X180131253Y-82715858D01*
X180310858Y-82536253D01*
X180325000Y-82550395D01*
X181280808Y-81594587D01*
X181185044Y-81330186D01*
X180895429Y-81189296D01*
X180761712Y-81154238D01*
X180838043Y-81040000D01*
X182045199Y-81040000D01*
X182558791Y-81553592D01*
%TA.AperFunction,Conductor*%
D26*
G36*
X182558791Y-81553592D02*
G01*
X182515000Y-81773740D01*
X182515000Y-82066260D01*
X182572068Y-82353158D01*
X182684010Y-82623411D01*
X182846525Y-82866632D01*
X183053368Y-83073475D01*
X183227760Y-83190000D01*
X183053368Y-83306525D01*
X182846525Y-83513368D01*
X182684010Y-83756589D01*
X182572068Y-84026842D01*
X182515000Y-84313740D01*
X182515000Y-84606260D01*
X182572068Y-84893158D01*
X182684010Y-85163411D01*
X182846525Y-85406632D01*
X182978380Y-85538487D01*
X182905820Y-85560498D01*
X182795506Y-85619463D01*
X182698815Y-85698815D01*
X182619463Y-85795506D01*
X182560498Y-85905820D01*
X182524188Y-86025518D01*
X182511928Y-86150000D01*
X182515000Y-86714250D01*
X182673750Y-86873000D01*
X183873000Y-86873000D01*
X183873000Y-86853000D01*
X184127000Y-86853000D01*
X184127000Y-86873000D01*
X184147000Y-86873000D01*
X184147000Y-87127000D01*
X184127000Y-87127000D01*
X184127000Y-87147000D01*
X183873000Y-87147000D01*
X183873000Y-87127000D01*
X182673750Y-87127000D01*
X182515000Y-87285750D01*
X182511928Y-87850000D01*
X182524188Y-87974482D01*
X182560498Y-88094180D01*
X182619463Y-88204494D01*
X182698815Y-88301185D01*
X182715649Y-88315000D01*
X180806089Y-88315000D01*
X180958747Y-88260919D01*
X181096157Y-88187472D01*
X181173792Y-87938397D01*
X180325000Y-87089605D01*
X179476208Y-87938397D01*
X179553843Y-88187472D01*
X179817883Y-88313371D01*
X179824301Y-88315000D01*
X179088521Y-88315000D01*
X179100812Y-88274482D01*
X179113072Y-88150000D01*
X179110000Y-87785750D01*
X178951252Y-87627002D01*
X179018582Y-87627002D01*
X179047528Y-87681157D01*
X179296603Y-87758792D01*
X180145395Y-86910000D01*
X180504605Y-86910000D01*
X181353397Y-87758792D01*
X181602472Y-87681157D01*
X181728371Y-87417117D01*
X181800339Y-87133589D01*
X181815611Y-86841469D01*
X181773599Y-86551981D01*
X181675919Y-86276253D01*
X181602472Y-86138843D01*
X181353397Y-86061208D01*
X180504605Y-86910000D01*
X180145395Y-86910000D01*
X179296603Y-86061208D01*
X179047528Y-86138843D01*
X178924305Y-86397272D01*
X178829494Y-86319463D01*
X178719180Y-86260498D01*
X178599482Y-86224188D01*
X178475000Y-86211928D01*
X177885750Y-86215000D01*
X177727000Y-86373750D01*
X177727000Y-87373000D01*
X177747000Y-87373000D01*
X177747000Y-87627000D01*
X177727000Y-87627000D01*
X177727000Y-87647000D01*
X177473000Y-87647000D01*
X177473000Y-87627000D01*
X176248750Y-87627000D01*
X176200000Y-87675750D01*
X176151250Y-87627000D01*
X174927000Y-87627000D01*
X174927000Y-87647000D01*
X174673000Y-87647000D01*
X174673000Y-87627000D01*
X173448750Y-87627000D01*
X173290000Y-87785750D01*
X173286928Y-88150000D01*
X173299188Y-88274482D01*
X173311479Y-88315000D01*
X172156089Y-88315000D01*
X172308747Y-88260919D01*
X172446157Y-88187472D01*
X172523792Y-87938397D01*
X171675000Y-87089605D01*
X171660858Y-87103748D01*
X171481253Y-86924143D01*
X171495395Y-86910000D01*
X171854605Y-86910000D01*
X172703397Y-87758792D01*
X172952472Y-87681157D01*
X173078371Y-87417117D01*
X173150339Y-87133589D01*
X173165165Y-86850000D01*
X173286928Y-86850000D01*
X173290000Y-87214250D01*
X173448750Y-87373000D01*
X174673000Y-87373000D01*
X174673000Y-86373750D01*
X174927000Y-86373750D01*
X174927000Y-87373000D01*
X176151250Y-87373000D01*
X176200000Y-87324250D01*
X176248750Y-87373000D01*
X177473000Y-87373000D01*
X177473000Y-86373750D01*
X177314250Y-86215000D01*
X176725000Y-86211928D01*
X176600518Y-86224188D01*
X176480820Y-86260498D01*
X176370506Y-86319463D01*
X176273815Y-86398815D01*
X176200000Y-86488759D01*
X176126185Y-86398815D01*
X176029494Y-86319463D01*
X175919180Y-86260498D01*
X175799482Y-86224188D01*
X175675000Y-86211928D01*
X175085750Y-86215000D01*
X174927000Y-86373750D01*
X174673000Y-86373750D01*
X174514250Y-86215000D01*
X173925000Y-86211928D01*
X173800518Y-86224188D01*
X173680820Y-86260498D01*
X173570506Y-86319463D01*
X173473815Y-86398815D01*
X173394463Y-86495506D01*
X173335498Y-86605820D01*
X173299188Y-86725518D01*
X173286928Y-86850000D01*
X173165165Y-86850000D01*
X173165611Y-86841469D01*
X173123599Y-86551981D01*
X173025919Y-86276253D01*
X172952472Y-86138843D01*
X172703397Y-86061208D01*
X171854605Y-86910000D01*
X171495395Y-86910000D01*
X171481253Y-86895858D01*
X171660858Y-86716253D01*
X171675000Y-86730395D01*
X172523792Y-85881603D01*
X179476208Y-85881603D01*
X180325000Y-86730395D01*
X181173792Y-85881603D01*
X181096157Y-85632528D01*
X180832117Y-85506629D01*
X180548589Y-85434661D01*
X180256469Y-85419389D01*
X179966981Y-85461401D01*
X179691253Y-85559081D01*
X179553843Y-85632528D01*
X179476208Y-85881603D01*
X172523792Y-85881603D01*
X172446157Y-85632528D01*
X172182117Y-85506629D01*
X171898589Y-85434661D01*
X171606469Y-85419389D01*
X171316981Y-85461401D01*
X171041253Y-85559081D01*
X170903843Y-85632528D01*
X170826209Y-85881601D01*
X170710104Y-85765496D01*
X170685000Y-85790600D01*
X170685000Y-83899608D01*
X170719193Y-83865415D01*
X170814956Y-84129814D01*
X171104571Y-84270704D01*
X171416108Y-84352384D01*
X171737595Y-84371718D01*
X172056675Y-84327961D01*
X172361088Y-84222795D01*
X172535044Y-84129814D01*
X172628885Y-83870723D01*
X172632500Y-83867108D01*
X172657660Y-83892268D01*
X172665575Y-84037763D01*
X172835603Y-84108562D01*
X173016176Y-84144828D01*
X173200355Y-84145171D01*
X173286928Y-84128117D01*
X173286928Y-84800001D01*
X173303992Y-84973255D01*
X173354528Y-85139851D01*
X173436595Y-85293387D01*
X173547038Y-85427962D01*
X173681613Y-85538405D01*
X173835149Y-85620472D01*
X174001745Y-85671008D01*
X174174999Y-85688072D01*
X175425001Y-85688072D01*
X175598255Y-85671008D01*
X175764851Y-85620472D01*
X175918387Y-85538405D01*
X176052962Y-85427962D01*
X176163405Y-85293387D01*
X176200000Y-85224923D01*
X176236595Y-85293387D01*
X176347038Y-85427962D01*
X176481613Y-85538405D01*
X176635149Y-85620472D01*
X176801745Y-85671008D01*
X176974999Y-85688072D01*
X178225001Y-85688072D01*
X178398255Y-85671008D01*
X178564851Y-85620472D01*
X178718387Y-85538405D01*
X178852962Y-85427962D01*
X178963405Y-85293387D01*
X179045472Y-85139851D01*
X179096008Y-84973255D01*
X179113072Y-84800001D01*
X179113072Y-84119027D01*
X179161061Y-84109574D01*
X179331351Y-84039408D01*
X179334425Y-84037763D01*
X179342340Y-83892268D01*
X179367500Y-83867108D01*
X179371115Y-83870723D01*
X179464956Y-84129814D01*
X179754571Y-84270704D01*
X180066108Y-84352384D01*
X180387595Y-84371718D01*
X180706675Y-84327961D01*
X181011088Y-84222795D01*
X181185044Y-84129814D01*
X181280808Y-83865413D01*
X180325000Y-82909605D01*
X180310858Y-82923748D01*
X180131253Y-82744143D01*
X180145395Y-82730000D01*
X180504605Y-82730000D01*
X181460413Y-83685808D01*
X181724814Y-83590044D01*
X181865704Y-83300429D01*
X181947384Y-82988892D01*
X181966718Y-82667405D01*
X181922961Y-82348325D01*
X181817795Y-82043912D01*
X181724814Y-81869956D01*
X181460413Y-81774192D01*
X180504605Y-82730000D01*
X180145395Y-82730000D01*
X180131253Y-82715858D01*
X180310858Y-82536253D01*
X180325000Y-82550395D01*
X181280808Y-81594587D01*
X181185044Y-81330186D01*
X180895429Y-81189296D01*
X180761712Y-81154238D01*
X180838043Y-81040000D01*
X182045199Y-81040000D01*
X182558791Y-81553592D01*
G37*
%TD.AperFunction*%
D25*
X178940273Y-81551680D02*
X179110324Y-81622118D01*
X179073917Y-81658525D01*
X179189585Y-81774193D01*
X178925186Y-81869956D01*
X178784296Y-82159571D01*
X178751596Y-82284294D01*
X178618939Y-82310426D01*
X178448649Y-82380592D01*
X178445575Y-82382237D01*
X178435064Y-82575459D01*
X178688222Y-82828617D01*
X178727039Y-83111675D01*
X178802651Y-83330541D01*
X178696253Y-83224143D01*
X178710395Y-83210000D01*
X178255459Y-82755064D01*
X178062237Y-82765575D01*
X177991438Y-82935603D01*
X177956025Y-83111928D01*
X177186729Y-83111928D01*
X177160000Y-83085199D01*
X177160000Y-81750780D01*
X177239743Y-81750780D01*
X177283680Y-81794717D01*
X177453198Y-81907985D01*
X177641556Y-81986006D01*
X177841515Y-82025780D01*
X178045393Y-82025780D01*
X178245352Y-81986006D01*
X178433710Y-81907985D01*
X178603228Y-81794717D01*
X178747391Y-81650554D01*
X178852599Y-81493098D01*
X178940273Y-81551680D01*
%TA.AperFunction,Conductor*%
D26*
G36*
X178940273Y-81551680D02*
G01*
X179110324Y-81622118D01*
X179073917Y-81658525D01*
X179189585Y-81774193D01*
X178925186Y-81869956D01*
X178784296Y-82159571D01*
X178751596Y-82284294D01*
X178618939Y-82310426D01*
X178448649Y-82380592D01*
X178445575Y-82382237D01*
X178435064Y-82575459D01*
X178688222Y-82828617D01*
X178727039Y-83111675D01*
X178802651Y-83330541D01*
X178696253Y-83224143D01*
X178710395Y-83210000D01*
X178255459Y-82755064D01*
X178062237Y-82765575D01*
X177991438Y-82935603D01*
X177956025Y-83111928D01*
X177186729Y-83111928D01*
X177160000Y-83085199D01*
X177160000Y-81750780D01*
X177239743Y-81750780D01*
X177283680Y-81794717D01*
X177453198Y-81907985D01*
X177641556Y-81986006D01*
X177841515Y-82025780D01*
X178045393Y-82025780D01*
X178245352Y-81986006D01*
X178433710Y-81907985D01*
X178603228Y-81794717D01*
X178747391Y-81650554D01*
X178852599Y-81493098D01*
X178940273Y-81551680D01*
G37*
%TD.AperFunction*%
D25*
X173290010Y-81030134D02*
X173329784Y-81230093D01*
X173407805Y-81418451D01*
X173521073Y-81587969D01*
X173665236Y-81732132D01*
X173834754Y-81845400D01*
X174023112Y-81923421D01*
X174223071Y-81963195D01*
X174426949Y-81963195D01*
X174626908Y-81923421D01*
X174815266Y-81845400D01*
X174984784Y-81732132D01*
X175028721Y-81688195D01*
X175040000Y-81688195D01*
X175040001Y-83085197D01*
X175013270Y-83111928D01*
X174174999Y-83111928D01*
X174045162Y-83124716D01*
X174045171Y-83119645D01*
X174009574Y-82938939D01*
X173939408Y-82768649D01*
X173937763Y-82765575D01*
X173744541Y-82755064D01*
X173289605Y-83210000D01*
X173303748Y-83224143D01*
X173204566Y-83323324D01*
X173215704Y-83300429D01*
X173297384Y-82988892D01*
X173306719Y-82833676D01*
X173564936Y-82575459D01*
X173554425Y-82382237D01*
X173384397Y-82311438D01*
X173250959Y-82284639D01*
X173167795Y-82043912D01*
X173074814Y-81869956D01*
X172810413Y-81774192D01*
X171854605Y-82730000D01*
X171868748Y-82744143D01*
X171689143Y-82923748D01*
X171675000Y-82909605D01*
X171660858Y-82923748D01*
X171481253Y-82744143D01*
X171495395Y-82730000D01*
X171481253Y-82715858D01*
X171660858Y-82536253D01*
X171675000Y-82550395D01*
X172630808Y-81594587D01*
X172623676Y-81574897D01*
X172679727Y-81551680D01*
X172914759Y-81394637D01*
X173114637Y-81194759D01*
X173271680Y-80959727D01*
X173290010Y-80915474D01*
X173290010Y-81030134D01*
%TA.AperFunction,Conductor*%
D26*
G36*
X173290010Y-81030134D02*
G01*
X173329784Y-81230093D01*
X173407805Y-81418451D01*
X173521073Y-81587969D01*
X173665236Y-81732132D01*
X173834754Y-81845400D01*
X174023112Y-81923421D01*
X174223071Y-81963195D01*
X174426949Y-81963195D01*
X174626908Y-81923421D01*
X174815266Y-81845400D01*
X174984784Y-81732132D01*
X175028721Y-81688195D01*
X175040000Y-81688195D01*
X175040001Y-83085197D01*
X175013270Y-83111928D01*
X174174999Y-83111928D01*
X174045162Y-83124716D01*
X174045171Y-83119645D01*
X174009574Y-82938939D01*
X173939408Y-82768649D01*
X173937763Y-82765575D01*
X173744541Y-82755064D01*
X173289605Y-83210000D01*
X173303748Y-83224143D01*
X173204566Y-83323324D01*
X173215704Y-83300429D01*
X173297384Y-82988892D01*
X173306719Y-82833676D01*
X173564936Y-82575459D01*
X173554425Y-82382237D01*
X173384397Y-82311438D01*
X173250959Y-82284639D01*
X173167795Y-82043912D01*
X173074814Y-81869956D01*
X172810413Y-81774192D01*
X171854605Y-82730000D01*
X171868748Y-82744143D01*
X171689143Y-82923748D01*
X171675000Y-82909605D01*
X171660858Y-82923748D01*
X171481253Y-82744143D01*
X171495395Y-82730000D01*
X171481253Y-82715858D01*
X171660858Y-82536253D01*
X171675000Y-82550395D01*
X172630808Y-81594587D01*
X172623676Y-81574897D01*
X172679727Y-81551680D01*
X172914759Y-81394637D01*
X173114637Y-81194759D01*
X173271680Y-80959727D01*
X173290010Y-80915474D01*
X173290010Y-81030134D01*
G37*
%TD.AperFunction*%
D25*
X174189989Y-71049058D02*
X174186313Y-71086381D01*
X174189989Y-71123703D01*
X174189989Y-71123713D01*
X174200986Y-71235366D01*
X174224680Y-71313475D01*
X174244443Y-71378627D01*
X174315015Y-71510657D01*
X174354860Y-71559207D01*
X174409988Y-71626382D01*
X174438992Y-71650185D01*
X175411679Y-72622872D01*
X175322493Y-72712058D01*
X175209225Y-72881576D01*
X175131204Y-73069934D01*
X175091430Y-73269893D01*
X175091430Y-73473771D01*
X175131204Y-73673730D01*
X175209225Y-73862088D01*
X175322493Y-74031606D01*
X175466656Y-74175769D01*
X175636174Y-74289037D01*
X175824532Y-74367058D01*
X176024491Y-74406832D01*
X176028491Y-74406832D01*
X176011928Y-74574999D01*
X176011928Y-75825001D01*
X176028992Y-75998255D01*
X176079528Y-76164851D01*
X176161595Y-76318387D01*
X176272038Y-76452962D01*
X176406613Y-76563405D01*
X176560149Y-76645472D01*
X176726745Y-76696008D01*
X176899999Y-76713072D01*
X177700001Y-76713072D01*
X177873255Y-76696008D01*
X178039851Y-76645472D01*
X178193387Y-76563405D01*
X178327962Y-76452962D01*
X178438405Y-76318387D01*
X178520472Y-76164851D01*
X178528614Y-76138010D01*
X178705241Y-76314637D01*
X178937759Y-76470000D01*
X178705241Y-76625363D01*
X178505363Y-76825241D01*
X178348320Y-77060273D01*
X178240147Y-77321426D01*
X178185000Y-77598665D01*
X178185000Y-77881335D01*
X178240147Y-78158574D01*
X178348320Y-78419727D01*
X178505363Y-78654759D01*
X178705241Y-78854637D01*
X178937759Y-79010000D01*
X178705241Y-79165363D01*
X178660968Y-79209636D01*
X178585044Y-79026341D01*
X178471776Y-78856823D01*
X178327613Y-78712660D01*
X178158095Y-78599392D01*
X177969737Y-78521371D01*
X177769778Y-78481597D01*
X177565900Y-78481597D01*
X177454832Y-78503690D01*
X177451984Y-78503409D01*
X177451973Y-78503409D01*
X177414651Y-78499733D01*
X177377329Y-78503409D01*
X176123453Y-78503409D01*
X176079516Y-78459472D01*
X175909998Y-78346204D01*
X175721640Y-78268183D01*
X175521681Y-78228409D01*
X175317803Y-78228409D01*
X175117844Y-78268183D01*
X174929486Y-78346204D01*
X174759968Y-78459472D01*
X174615805Y-78603635D01*
X174502537Y-78773153D01*
X174424516Y-78961511D01*
X174384742Y-79161470D01*
X174384742Y-79273002D01*
X174285132Y-79339559D01*
X174140969Y-79483722D01*
X174027701Y-79653240D01*
X173949680Y-79841598D01*
X173923280Y-79974321D01*
X173834754Y-80010990D01*
X173665236Y-80124258D01*
X173521073Y-80268421D01*
X173435000Y-80397239D01*
X173435000Y-80138665D01*
X173379853Y-79861426D01*
X173271680Y-79600273D01*
X173114637Y-79365241D01*
X172914759Y-79165363D01*
X172679727Y-79008320D01*
X172669135Y-79003933D01*
X172855131Y-78892385D01*
X173063519Y-78703414D01*
X173231037Y-78477420D01*
X173351246Y-78223087D01*
X173391904Y-78089039D01*
X173269915Y-77867000D01*
X172127000Y-77867000D01*
X172127000Y-77887000D01*
X171873000Y-77887000D01*
X171873000Y-77867000D01*
X171853000Y-77867000D01*
X171853000Y-77613000D01*
X171873000Y-77613000D01*
X171873000Y-77593000D01*
X172127000Y-77593000D01*
X172127000Y-77613000D01*
X173269915Y-77613000D01*
X173391904Y-77390961D01*
X173351246Y-77256913D01*
X173231037Y-77002580D01*
X173063519Y-76776586D01*
X172899920Y-76628231D01*
X172924482Y-76625812D01*
X173044180Y-76589502D01*
X173154494Y-76530537D01*
X173210529Y-76484551D01*
X173306613Y-76563405D01*
X173460149Y-76645472D01*
X173626745Y-76696008D01*
X173799999Y-76713072D01*
X174600001Y-76713072D01*
X174773255Y-76696008D01*
X174939851Y-76645472D01*
X175093387Y-76563405D01*
X175227962Y-76452962D01*
X175338405Y-76318387D01*
X175420472Y-76164851D01*
X175471008Y-75998255D01*
X175488072Y-75825001D01*
X175488072Y-74574999D01*
X175471008Y-74401745D01*
X175420472Y-74235149D01*
X175338405Y-74081613D01*
X175227962Y-73947038D01*
X175093387Y-73836595D01*
X174939851Y-73754528D01*
X174773255Y-73703992D01*
X174600001Y-73686928D01*
X173843179Y-73686928D01*
X173883475Y-73646632D01*
X174045990Y-73403411D01*
X174157932Y-73133158D01*
X174215000Y-72846260D01*
X174215000Y-72553740D01*
X174157932Y-72266842D01*
X174045990Y-71996589D01*
X173883475Y-71753368D01*
X173676632Y-71546525D01*
X173502240Y-71430000D01*
X173676632Y-71313475D01*
X173883475Y-71106632D01*
X174045990Y-70863411D01*
X174157932Y-70593158D01*
X174189989Y-70431997D01*
X174189989Y-71049058D01*
%TA.AperFunction,Conductor*%
D26*
G36*
X174189989Y-71049058D02*
G01*
X174186313Y-71086381D01*
X174189989Y-71123703D01*
X174189989Y-71123713D01*
X174200986Y-71235366D01*
X174224680Y-71313475D01*
X174244443Y-71378627D01*
X174315015Y-71510657D01*
X174354860Y-71559207D01*
X174409988Y-71626382D01*
X174438992Y-71650185D01*
X175411679Y-72622872D01*
X175322493Y-72712058D01*
X175209225Y-72881576D01*
X175131204Y-73069934D01*
X175091430Y-73269893D01*
X175091430Y-73473771D01*
X175131204Y-73673730D01*
X175209225Y-73862088D01*
X175322493Y-74031606D01*
X175466656Y-74175769D01*
X175636174Y-74289037D01*
X175824532Y-74367058D01*
X176024491Y-74406832D01*
X176028491Y-74406832D01*
X176011928Y-74574999D01*
X176011928Y-75825001D01*
X176028992Y-75998255D01*
X176079528Y-76164851D01*
X176161595Y-76318387D01*
X176272038Y-76452962D01*
X176406613Y-76563405D01*
X176560149Y-76645472D01*
X176726745Y-76696008D01*
X176899999Y-76713072D01*
X177700001Y-76713072D01*
X177873255Y-76696008D01*
X178039851Y-76645472D01*
X178193387Y-76563405D01*
X178327962Y-76452962D01*
X178438405Y-76318387D01*
X178520472Y-76164851D01*
X178528614Y-76138010D01*
X178705241Y-76314637D01*
X178937759Y-76470000D01*
X178705241Y-76625363D01*
X178505363Y-76825241D01*
X178348320Y-77060273D01*
X178240147Y-77321426D01*
X178185000Y-77598665D01*
X178185000Y-77881335D01*
X178240147Y-78158574D01*
X178348320Y-78419727D01*
X178505363Y-78654759D01*
X178705241Y-78854637D01*
X178937759Y-79010000D01*
X178705241Y-79165363D01*
X178660968Y-79209636D01*
X178585044Y-79026341D01*
X178471776Y-78856823D01*
X178327613Y-78712660D01*
X178158095Y-78599392D01*
X177969737Y-78521371D01*
X177769778Y-78481597D01*
X177565900Y-78481597D01*
X177454832Y-78503690D01*
X177451984Y-78503409D01*
X177451973Y-78503409D01*
X177414651Y-78499733D01*
X177377329Y-78503409D01*
X176123453Y-78503409D01*
X176079516Y-78459472D01*
X175909998Y-78346204D01*
X175721640Y-78268183D01*
X175521681Y-78228409D01*
X175317803Y-78228409D01*
X175117844Y-78268183D01*
X174929486Y-78346204D01*
X174759968Y-78459472D01*
X174615805Y-78603635D01*
X174502537Y-78773153D01*
X174424516Y-78961511D01*
X174384742Y-79161470D01*
X174384742Y-79273002D01*
X174285132Y-79339559D01*
X174140969Y-79483722D01*
X174027701Y-79653240D01*
X173949680Y-79841598D01*
X173923280Y-79974321D01*
X173834754Y-80010990D01*
X173665236Y-80124258D01*
X173521073Y-80268421D01*
X173435000Y-80397239D01*
X173435000Y-80138665D01*
X173379853Y-79861426D01*
X173271680Y-79600273D01*
X173114637Y-79365241D01*
X172914759Y-79165363D01*
X172679727Y-79008320D01*
X172669135Y-79003933D01*
X172855131Y-78892385D01*
X173063519Y-78703414D01*
X173231037Y-78477420D01*
X173351246Y-78223087D01*
X173391904Y-78089039D01*
X173269915Y-77867000D01*
X172127000Y-77867000D01*
X172127000Y-77887000D01*
X171873000Y-77887000D01*
X171873000Y-77867000D01*
X171853000Y-77867000D01*
X171853000Y-77613000D01*
X171873000Y-77613000D01*
X171873000Y-77593000D01*
X172127000Y-77593000D01*
X172127000Y-77613000D01*
X173269915Y-77613000D01*
X173391904Y-77390961D01*
X173351246Y-77256913D01*
X173231037Y-77002580D01*
X173063519Y-76776586D01*
X172899920Y-76628231D01*
X172924482Y-76625812D01*
X173044180Y-76589502D01*
X173154494Y-76530537D01*
X173210529Y-76484551D01*
X173306613Y-76563405D01*
X173460149Y-76645472D01*
X173626745Y-76696008D01*
X173799999Y-76713072D01*
X174600001Y-76713072D01*
X174773255Y-76696008D01*
X174939851Y-76645472D01*
X175093387Y-76563405D01*
X175227962Y-76452962D01*
X175338405Y-76318387D01*
X175420472Y-76164851D01*
X175471008Y-75998255D01*
X175488072Y-75825001D01*
X175488072Y-74574999D01*
X175471008Y-74401745D01*
X175420472Y-74235149D01*
X175338405Y-74081613D01*
X175227962Y-73947038D01*
X175093387Y-73836595D01*
X174939851Y-73754528D01*
X174773255Y-73703992D01*
X174600001Y-73686928D01*
X173843179Y-73686928D01*
X173883475Y-73646632D01*
X174045990Y-73403411D01*
X174157932Y-73133158D01*
X174215000Y-72846260D01*
X174215000Y-72553740D01*
X174157932Y-72266842D01*
X174045990Y-71996589D01*
X173883475Y-71753368D01*
X173676632Y-71546525D01*
X173502240Y-71430000D01*
X173676632Y-71313475D01*
X173883475Y-71106632D01*
X174045990Y-70863411D01*
X174157932Y-70593158D01*
X174189989Y-70431997D01*
X174189989Y-71049058D01*
G37*
%TD.AperFunction*%
D25*
X170768963Y-78477420D02*
X170936481Y-78703414D01*
X171144869Y-78892385D01*
X171330865Y-79003933D01*
X171320273Y-79008320D01*
X171085241Y-79165363D01*
X170885363Y-79365241D01*
X170728320Y-79600273D01*
X170685000Y-79704857D01*
X170685000Y-78299775D01*
X170768963Y-78477420D01*
%TA.AperFunction,Conductor*%
D26*
G36*
X170768963Y-78477420D02*
G01*
X170936481Y-78703414D01*
X171144869Y-78892385D01*
X171330865Y-79003933D01*
X171320273Y-79008320D01*
X171085241Y-79165363D01*
X170885363Y-79365241D01*
X170728320Y-79600273D01*
X170685000Y-79704857D01*
X170685000Y-78299775D01*
X170768963Y-78477420D01*
G37*
%TD.AperFunction*%
D25*
X170748815Y-76451185D02*
X170845506Y-76530537D01*
X170955820Y-76589502D01*
X171075518Y-76625812D01*
X171100080Y-76628231D01*
X170936481Y-76776586D01*
X170768963Y-77002580D01*
X170685000Y-77180225D01*
X170685000Y-76373426D01*
X170748815Y-76451185D01*
%TA.AperFunction,Conductor*%
D26*
G36*
X170748815Y-76451185D02*
G01*
X170845506Y-76530537D01*
X170955820Y-76589502D01*
X171075518Y-76625812D01*
X171100080Y-76628231D01*
X170936481Y-76776586D01*
X170768963Y-77002580D01*
X170685000Y-77180225D01*
X170685000Y-76373426D01*
X170748815Y-76451185D01*
G37*
%TD.AperFunction*%
D25*
X182470000Y-62942143D02*
X185315000Y-62942143D01*
X185315001Y-76135108D01*
X185153475Y-75893368D01*
X184946632Y-75686525D01*
X184703411Y-75524010D01*
X184433158Y-75412068D01*
X184146260Y-75355000D01*
X183853740Y-75355000D01*
X183566842Y-75412068D01*
X183296589Y-75524010D01*
X183053368Y-75686525D01*
X183023498Y-75716395D01*
X183023498Y-74173825D01*
X183027174Y-74136502D01*
X183023498Y-74099179D01*
X183023498Y-74099169D01*
X183012501Y-73987516D01*
X182969044Y-73844255D01*
X182898472Y-73712226D01*
X182803499Y-73596501D01*
X182774502Y-73572704D01*
X180437610Y-71235813D01*
X180413807Y-71206809D01*
X180298082Y-71111836D01*
X180166053Y-71041264D01*
X180022792Y-70997807D01*
X179911139Y-70986810D01*
X179911128Y-70986810D01*
X179873806Y-70983134D01*
X179836484Y-70986810D01*
X178389231Y-70986810D01*
X178345294Y-70942873D01*
X178175776Y-70829605D01*
X177987418Y-70751584D01*
X177787459Y-70711810D01*
X177583581Y-70711810D01*
X177383622Y-70751584D01*
X177304093Y-70784526D01*
X177341755Y-70595184D01*
X177341755Y-70517471D01*
X177412300Y-70385493D01*
X177455757Y-70242232D01*
X177466754Y-70130579D01*
X177466754Y-70130569D01*
X177470430Y-70093247D01*
X177470166Y-70090565D01*
X178289040Y-70090565D01*
X178356020Y-70330656D01*
X178605048Y-70447756D01*
X178872135Y-70514023D01*
X179147017Y-70526910D01*
X179419133Y-70485922D01*
X179678023Y-70392636D01*
X179793980Y-70330656D01*
X179860960Y-70090565D01*
X179075000Y-69304605D01*
X178289040Y-70090565D01*
X177470166Y-70090565D01*
X177466754Y-70055924D01*
X177466754Y-69197017D01*
X177673090Y-69197017D01*
X177714078Y-69469133D01*
X177807364Y-69728023D01*
X177869344Y-69843980D01*
X178109435Y-69910960D01*
X178895395Y-69125000D01*
X179254605Y-69125000D01*
X180040565Y-69910960D01*
X180280656Y-69843980D01*
X180397756Y-69594952D01*
X180464023Y-69327865D01*
X180476910Y-69052983D01*
X180435922Y-68780867D01*
X180342636Y-68521977D01*
X180280656Y-68406020D01*
X180040565Y-68339040D01*
X179254605Y-69125000D01*
X178895395Y-69125000D01*
X178109435Y-68339040D01*
X177869344Y-68406020D01*
X177752244Y-68655048D01*
X177685977Y-68922135D01*
X177673090Y-69197017D01*
X177466754Y-69197017D01*
X177466754Y-68159435D01*
X178289040Y-68159435D01*
X179075000Y-68945395D01*
X179860960Y-68159435D01*
X179793980Y-67919344D01*
X179544952Y-67802244D01*
X179277865Y-67735977D01*
X179002983Y-67723090D01*
X178730867Y-67764078D01*
X178471977Y-67857364D01*
X178356020Y-67919344D01*
X178289040Y-68159435D01*
X177466754Y-68159435D01*
X177466754Y-67408047D01*
X177514801Y-67360000D01*
X179162678Y-67360000D01*
X179200000Y-67363676D01*
X179237322Y-67360000D01*
X179237333Y-67360000D01*
X179348986Y-67349003D01*
X179492247Y-67305546D01*
X179624276Y-67234974D01*
X179740001Y-67140001D01*
X179763803Y-67110998D01*
X180039801Y-66835000D01*
X180101939Y-66835000D01*
X180301898Y-66795226D01*
X180490256Y-66717205D01*
X180659774Y-66603937D01*
X180803937Y-66459774D01*
X180917205Y-66290256D01*
X180963555Y-66178357D01*
X181640001Y-66854803D01*
X181640000Y-69296289D01*
X181596063Y-69340226D01*
X181482795Y-69509744D01*
X181404774Y-69698102D01*
X181365000Y-69898061D01*
X181365000Y-70101939D01*
X181404774Y-70301898D01*
X181482795Y-70490256D01*
X181596063Y-70659774D01*
X181740226Y-70803937D01*
X181909744Y-70917205D01*
X182098102Y-70995226D01*
X182298061Y-71035000D01*
X182501939Y-71035000D01*
X182701898Y-70995226D01*
X182890256Y-70917205D01*
X183059774Y-70803937D01*
X183203937Y-70659774D01*
X183317205Y-70490256D01*
X183395226Y-70301898D01*
X183435000Y-70101939D01*
X183435000Y-69898061D01*
X183395226Y-69698102D01*
X183317205Y-69509744D01*
X183203937Y-69340226D01*
X183160000Y-69296289D01*
X183160000Y-66577322D01*
X183163676Y-66539999D01*
X183160000Y-66502676D01*
X183160000Y-66502667D01*
X183149003Y-66391014D01*
X183105546Y-66247753D01*
X183034974Y-66115724D01*
X182940001Y-65999999D01*
X182911003Y-65976201D01*
X181393804Y-64459003D01*
X181370001Y-64429999D01*
X181254276Y-64335026D01*
X181122247Y-64264454D01*
X180978986Y-64220997D01*
X180867333Y-64210000D01*
X180867322Y-64210000D01*
X180830000Y-64206324D01*
X180792678Y-64210000D01*
X179220000Y-64210000D01*
X179220000Y-63617266D01*
X179398933Y-63691383D01*
X179618212Y-63735000D01*
X179841788Y-63735000D01*
X180061067Y-63691383D01*
X180172774Y-63645112D01*
X180255820Y-63689502D01*
X180375518Y-63725812D01*
X180500000Y-63738072D01*
X180714250Y-63735000D01*
X180873000Y-63576250D01*
X180873000Y-62727000D01*
X181127000Y-62727000D01*
X181127000Y-63576250D01*
X181285750Y-63735000D01*
X181500000Y-63738072D01*
X181624482Y-63725812D01*
X181744180Y-63689502D01*
X181854494Y-63630537D01*
X181951185Y-63551185D01*
X182030537Y-63454494D01*
X182089502Y-63344180D01*
X182125812Y-63224482D01*
X182138072Y-63100000D01*
X182135000Y-62885750D01*
X181976250Y-62727000D01*
X181127000Y-62727000D01*
X180873000Y-62727000D01*
X180861974Y-62727000D01*
X180865000Y-62711788D01*
X180865000Y-62488212D01*
X180861974Y-62473000D01*
X180873000Y-62473000D01*
X180873000Y-61623750D01*
X180864250Y-61615000D01*
X180873000Y-61606250D01*
X180873000Y-60757000D01*
X181127000Y-60757000D01*
X181127000Y-61606250D01*
X181135750Y-61615000D01*
X181127000Y-61623750D01*
X181127000Y-62473000D01*
X181976250Y-62473000D01*
X182135000Y-62314250D01*
X182138072Y-62100000D01*
X182125812Y-61975518D01*
X182089502Y-61855820D01*
X182030537Y-61745506D01*
X181951185Y-61648815D01*
X181909981Y-61615000D01*
X181951185Y-61581185D01*
X182030537Y-61484494D01*
X182089502Y-61374180D01*
X182125812Y-61254482D01*
X182138072Y-61130000D01*
X182135000Y-60915750D01*
X181976250Y-60757000D01*
X181127000Y-60757000D01*
X180873000Y-60757000D01*
X180861974Y-60757000D01*
X180865000Y-60741788D01*
X180865000Y-60518212D01*
X180861974Y-60503000D01*
X180873000Y-60503000D01*
X180873000Y-60483000D01*
X181127000Y-60483000D01*
X181127000Y-60503000D01*
X181976250Y-60503000D01*
X182135000Y-60344250D01*
X182138072Y-60130000D01*
X182125812Y-60005518D01*
X182089502Y-59885820D01*
X182030537Y-59775506D01*
X181956261Y-59685000D01*
X182470000Y-59685000D01*
X182470000Y-62942143D01*
%TA.AperFunction,Conductor*%
D26*
G36*
X182470000Y-62942143D02*
G01*
X185315000Y-62942143D01*
X185315001Y-76135108D01*
X185153475Y-75893368D01*
X184946632Y-75686525D01*
X184703411Y-75524010D01*
X184433158Y-75412068D01*
X184146260Y-75355000D01*
X183853740Y-75355000D01*
X183566842Y-75412068D01*
X183296589Y-75524010D01*
X183053368Y-75686525D01*
X183023498Y-75716395D01*
X183023498Y-74173825D01*
X183027174Y-74136502D01*
X183023498Y-74099179D01*
X183023498Y-74099169D01*
X183012501Y-73987516D01*
X182969044Y-73844255D01*
X182898472Y-73712226D01*
X182803499Y-73596501D01*
X182774502Y-73572704D01*
X180437610Y-71235813D01*
X180413807Y-71206809D01*
X180298082Y-71111836D01*
X180166053Y-71041264D01*
X180022792Y-70997807D01*
X179911139Y-70986810D01*
X179911128Y-70986810D01*
X179873806Y-70983134D01*
X179836484Y-70986810D01*
X178389231Y-70986810D01*
X178345294Y-70942873D01*
X178175776Y-70829605D01*
X177987418Y-70751584D01*
X177787459Y-70711810D01*
X177583581Y-70711810D01*
X177383622Y-70751584D01*
X177304093Y-70784526D01*
X177341755Y-70595184D01*
X177341755Y-70517471D01*
X177412300Y-70385493D01*
X177455757Y-70242232D01*
X177466754Y-70130579D01*
X177466754Y-70130569D01*
X177470430Y-70093247D01*
X177470166Y-70090565D01*
X178289040Y-70090565D01*
X178356020Y-70330656D01*
X178605048Y-70447756D01*
X178872135Y-70514023D01*
X179147017Y-70526910D01*
X179419133Y-70485922D01*
X179678023Y-70392636D01*
X179793980Y-70330656D01*
X179860960Y-70090565D01*
X179075000Y-69304605D01*
X178289040Y-70090565D01*
X177470166Y-70090565D01*
X177466754Y-70055924D01*
X177466754Y-69197017D01*
X177673090Y-69197017D01*
X177714078Y-69469133D01*
X177807364Y-69728023D01*
X177869344Y-69843980D01*
X178109435Y-69910960D01*
X178895395Y-69125000D01*
X179254605Y-69125000D01*
X180040565Y-69910960D01*
X180280656Y-69843980D01*
X180397756Y-69594952D01*
X180464023Y-69327865D01*
X180476910Y-69052983D01*
X180435922Y-68780867D01*
X180342636Y-68521977D01*
X180280656Y-68406020D01*
X180040565Y-68339040D01*
X179254605Y-69125000D01*
X178895395Y-69125000D01*
X178109435Y-68339040D01*
X177869344Y-68406020D01*
X177752244Y-68655048D01*
X177685977Y-68922135D01*
X177673090Y-69197017D01*
X177466754Y-69197017D01*
X177466754Y-68159435D01*
X178289040Y-68159435D01*
X179075000Y-68945395D01*
X179860960Y-68159435D01*
X179793980Y-67919344D01*
X179544952Y-67802244D01*
X179277865Y-67735977D01*
X179002983Y-67723090D01*
X178730867Y-67764078D01*
X178471977Y-67857364D01*
X178356020Y-67919344D01*
X178289040Y-68159435D01*
X177466754Y-68159435D01*
X177466754Y-67408047D01*
X177514801Y-67360000D01*
X179162678Y-67360000D01*
X179200000Y-67363676D01*
X179237322Y-67360000D01*
X179237333Y-67360000D01*
X179348986Y-67349003D01*
X179492247Y-67305546D01*
X179624276Y-67234974D01*
X179740001Y-67140001D01*
X179763803Y-67110998D01*
X180039801Y-66835000D01*
X180101939Y-66835000D01*
X180301898Y-66795226D01*
X180490256Y-66717205D01*
X180659774Y-66603937D01*
X180803937Y-66459774D01*
X180917205Y-66290256D01*
X180963555Y-66178357D01*
X181640001Y-66854803D01*
X181640000Y-69296289D01*
X181596063Y-69340226D01*
X181482795Y-69509744D01*
X181404774Y-69698102D01*
X181365000Y-69898061D01*
X181365000Y-70101939D01*
X181404774Y-70301898D01*
X181482795Y-70490256D01*
X181596063Y-70659774D01*
X181740226Y-70803937D01*
X181909744Y-70917205D01*
X182098102Y-70995226D01*
X182298061Y-71035000D01*
X182501939Y-71035000D01*
X182701898Y-70995226D01*
X182890256Y-70917205D01*
X183059774Y-70803937D01*
X183203937Y-70659774D01*
X183317205Y-70490256D01*
X183395226Y-70301898D01*
X183435000Y-70101939D01*
X183435000Y-69898061D01*
X183395226Y-69698102D01*
X183317205Y-69509744D01*
X183203937Y-69340226D01*
X183160000Y-69296289D01*
X183160000Y-66577322D01*
X183163676Y-66539999D01*
X183160000Y-66502676D01*
X183160000Y-66502667D01*
X183149003Y-66391014D01*
X183105546Y-66247753D01*
X183034974Y-66115724D01*
X182940001Y-65999999D01*
X182911003Y-65976201D01*
X181393804Y-64459003D01*
X181370001Y-64429999D01*
X181254276Y-64335026D01*
X181122247Y-64264454D01*
X180978986Y-64220997D01*
X180867333Y-64210000D01*
X180867322Y-64210000D01*
X180830000Y-64206324D01*
X180792678Y-64210000D01*
X179220000Y-64210000D01*
X179220000Y-63617266D01*
X179398933Y-63691383D01*
X179618212Y-63735000D01*
X179841788Y-63735000D01*
X180061067Y-63691383D01*
X180172774Y-63645112D01*
X180255820Y-63689502D01*
X180375518Y-63725812D01*
X180500000Y-63738072D01*
X180714250Y-63735000D01*
X180873000Y-63576250D01*
X180873000Y-62727000D01*
X181127000Y-62727000D01*
X181127000Y-63576250D01*
X181285750Y-63735000D01*
X181500000Y-63738072D01*
X181624482Y-63725812D01*
X181744180Y-63689502D01*
X181854494Y-63630537D01*
X181951185Y-63551185D01*
X182030537Y-63454494D01*
X182089502Y-63344180D01*
X182125812Y-63224482D01*
X182138072Y-63100000D01*
X182135000Y-62885750D01*
X181976250Y-62727000D01*
X181127000Y-62727000D01*
X180873000Y-62727000D01*
X180861974Y-62727000D01*
X180865000Y-62711788D01*
X180865000Y-62488212D01*
X180861974Y-62473000D01*
X180873000Y-62473000D01*
X180873000Y-61623750D01*
X180864250Y-61615000D01*
X180873000Y-61606250D01*
X180873000Y-60757000D01*
X181127000Y-60757000D01*
X181127000Y-61606250D01*
X181135750Y-61615000D01*
X181127000Y-61623750D01*
X181127000Y-62473000D01*
X181976250Y-62473000D01*
X182135000Y-62314250D01*
X182138072Y-62100000D01*
X182125812Y-61975518D01*
X182089502Y-61855820D01*
X182030537Y-61745506D01*
X181951185Y-61648815D01*
X181909981Y-61615000D01*
X181951185Y-61581185D01*
X182030537Y-61484494D01*
X182089502Y-61374180D01*
X182125812Y-61254482D01*
X182138072Y-61130000D01*
X182135000Y-60915750D01*
X181976250Y-60757000D01*
X181127000Y-60757000D01*
X180873000Y-60757000D01*
X180861974Y-60757000D01*
X180865000Y-60741788D01*
X180865000Y-60518212D01*
X180861974Y-60503000D01*
X180873000Y-60503000D01*
X180873000Y-60483000D01*
X181127000Y-60483000D01*
X181127000Y-60503000D01*
X181976250Y-60503000D01*
X182135000Y-60344250D01*
X182138072Y-60130000D01*
X182125812Y-60005518D01*
X182089502Y-59885820D01*
X182030537Y-59775506D01*
X181956261Y-59685000D01*
X182470000Y-59685000D01*
X182470000Y-62942143D01*
G37*
%TD.AperFunction*%
D25*
X173926480Y-59748388D02*
X173768388Y-59906480D01*
X173644176Y-60092376D01*
X173558617Y-60298933D01*
X173515000Y-60518212D01*
X173515000Y-60741788D01*
X173558617Y-60961067D01*
X173644176Y-61167624D01*
X173768388Y-61353520D01*
X173890000Y-61475132D01*
X173890001Y-61754867D01*
X173768388Y-61876480D01*
X173644176Y-62062376D01*
X173558617Y-62268933D01*
X173515000Y-62488212D01*
X173515000Y-62711788D01*
X173558617Y-62931067D01*
X173644176Y-63137624D01*
X173768388Y-63323520D01*
X173926480Y-63481612D01*
X174112376Y-63605824D01*
X174318933Y-63691383D01*
X174538212Y-63735000D01*
X174761788Y-63735000D01*
X174981067Y-63691383D01*
X175160001Y-63617266D01*
X175160001Y-64220026D01*
X175156324Y-64257358D01*
X175160001Y-64294691D01*
X175160049Y-64295181D01*
X173991595Y-64295181D01*
X173883475Y-64133368D01*
X173676632Y-63926525D01*
X173433411Y-63764010D01*
X173163158Y-63652068D01*
X172876260Y-63595000D01*
X172583740Y-63595000D01*
X172296842Y-63652068D01*
X172026589Y-63764010D01*
X171783368Y-63926525D01*
X171576525Y-64133368D01*
X171414010Y-64376589D01*
X171302068Y-64646842D01*
X171245000Y-64933740D01*
X171245000Y-65226260D01*
X171302068Y-65513158D01*
X171414010Y-65783411D01*
X171576525Y-66026632D01*
X171783368Y-66233475D01*
X171800824Y-66245139D01*
X171723820Y-66268498D01*
X171613506Y-66327463D01*
X171516815Y-66406815D01*
X171437463Y-66503506D01*
X171378498Y-66613820D01*
X171342188Y-66733518D01*
X171329928Y-66858000D01*
X171333000Y-67334250D01*
X171491750Y-67493000D01*
X172603000Y-67493000D01*
X172603000Y-67473000D01*
X172857000Y-67473000D01*
X172857000Y-67493000D01*
X172877000Y-67493000D01*
X172877000Y-67747000D01*
X172857000Y-67747000D01*
X172857000Y-67767000D01*
X172603000Y-67767000D01*
X172603000Y-67747000D01*
X171491750Y-67747000D01*
X171333000Y-67905750D01*
X171329928Y-68382000D01*
X171342188Y-68506482D01*
X171378498Y-68626180D01*
X171437463Y-68736494D01*
X171516815Y-68833185D01*
X171613506Y-68912537D01*
X171723820Y-68971502D01*
X171800824Y-68994861D01*
X171783368Y-69006525D01*
X171576525Y-69213368D01*
X171414010Y-69456589D01*
X171302068Y-69726842D01*
X171245000Y-70013740D01*
X171245000Y-70306260D01*
X171302068Y-70593158D01*
X171414010Y-70863411D01*
X171576525Y-71106632D01*
X171783368Y-71313475D01*
X171957760Y-71430000D01*
X171783368Y-71546525D01*
X171576525Y-71753368D01*
X171414010Y-71996589D01*
X171302068Y-72266842D01*
X171245000Y-72553740D01*
X171245000Y-72846260D01*
X171302068Y-73133158D01*
X171414010Y-73403411D01*
X171576525Y-73646632D01*
X171691821Y-73761928D01*
X171200000Y-73761928D01*
X171075518Y-73774188D01*
X170955820Y-73810498D01*
X170845506Y-73869463D01*
X170748815Y-73948815D01*
X170685000Y-74026574D01*
X170685000Y-60033505D01*
X170694222Y-59939453D01*
X170711805Y-59881214D01*
X170740366Y-59827499D01*
X170778816Y-59780354D01*
X170825691Y-59741576D01*
X170879204Y-59712642D01*
X170937323Y-59694651D01*
X171029145Y-59685000D01*
X174021347Y-59685000D01*
X173926480Y-59748388D01*
%TA.AperFunction,Conductor*%
D26*
G36*
X173926480Y-59748388D02*
G01*
X173768388Y-59906480D01*
X173644176Y-60092376D01*
X173558617Y-60298933D01*
X173515000Y-60518212D01*
X173515000Y-60741788D01*
X173558617Y-60961067D01*
X173644176Y-61167624D01*
X173768388Y-61353520D01*
X173890000Y-61475132D01*
X173890001Y-61754867D01*
X173768388Y-61876480D01*
X173644176Y-62062376D01*
X173558617Y-62268933D01*
X173515000Y-62488212D01*
X173515000Y-62711788D01*
X173558617Y-62931067D01*
X173644176Y-63137624D01*
X173768388Y-63323520D01*
X173926480Y-63481612D01*
X174112376Y-63605824D01*
X174318933Y-63691383D01*
X174538212Y-63735000D01*
X174761788Y-63735000D01*
X174981067Y-63691383D01*
X175160001Y-63617266D01*
X175160001Y-64220026D01*
X175156324Y-64257358D01*
X175160001Y-64294691D01*
X175160049Y-64295181D01*
X173991595Y-64295181D01*
X173883475Y-64133368D01*
X173676632Y-63926525D01*
X173433411Y-63764010D01*
X173163158Y-63652068D01*
X172876260Y-63595000D01*
X172583740Y-63595000D01*
X172296842Y-63652068D01*
X172026589Y-63764010D01*
X171783368Y-63926525D01*
X171576525Y-64133368D01*
X171414010Y-64376589D01*
X171302068Y-64646842D01*
X171245000Y-64933740D01*
X171245000Y-65226260D01*
X171302068Y-65513158D01*
X171414010Y-65783411D01*
X171576525Y-66026632D01*
X171783368Y-66233475D01*
X171800824Y-66245139D01*
X171723820Y-66268498D01*
X171613506Y-66327463D01*
X171516815Y-66406815D01*
X171437463Y-66503506D01*
X171378498Y-66613820D01*
X171342188Y-66733518D01*
X171329928Y-66858000D01*
X171333000Y-67334250D01*
X171491750Y-67493000D01*
X172603000Y-67493000D01*
X172603000Y-67473000D01*
X172857000Y-67473000D01*
X172857000Y-67493000D01*
X172877000Y-67493000D01*
X172877000Y-67747000D01*
X172857000Y-67747000D01*
X172857000Y-67767000D01*
X172603000Y-67767000D01*
X172603000Y-67747000D01*
X171491750Y-67747000D01*
X171333000Y-67905750D01*
X171329928Y-68382000D01*
X171342188Y-68506482D01*
X171378498Y-68626180D01*
X171437463Y-68736494D01*
X171516815Y-68833185D01*
X171613506Y-68912537D01*
X171723820Y-68971502D01*
X171800824Y-68994861D01*
X171783368Y-69006525D01*
X171576525Y-69213368D01*
X171414010Y-69456589D01*
X171302068Y-69726842D01*
X171245000Y-70013740D01*
X171245000Y-70306260D01*
X171302068Y-70593158D01*
X171414010Y-70863411D01*
X171576525Y-71106632D01*
X171783368Y-71313475D01*
X171957760Y-71430000D01*
X171783368Y-71546525D01*
X171576525Y-71753368D01*
X171414010Y-71996589D01*
X171302068Y-72266842D01*
X171245000Y-72553740D01*
X171245000Y-72846260D01*
X171302068Y-73133158D01*
X171414010Y-73403411D01*
X171576525Y-73646632D01*
X171691821Y-73761928D01*
X171200000Y-73761928D01*
X171075518Y-73774188D01*
X170955820Y-73810498D01*
X170845506Y-73869463D01*
X170748815Y-73948815D01*
X170685000Y-74026574D01*
X170685000Y-60033505D01*
X170694222Y-59939453D01*
X170711805Y-59881214D01*
X170740366Y-59827499D01*
X170778816Y-59780354D01*
X170825691Y-59741576D01*
X170879204Y-59712642D01*
X170937323Y-59694651D01*
X171029145Y-59685000D01*
X174021347Y-59685000D01*
X173926480Y-59748388D01*
G37*
%TD.AperFunction*%
%TD*%
M02*
