%TF.GenerationSoftware,KiCad,Pcbnew,(5.1.9-0-10_14)*%
%TF.CreationDate,2021-04-17T10:06:41+01:00*%
%TF.ProjectId,Shelly,5368656c-6c79-42e6-9b69-6361645f7063,rev?*%
%TF.SameCoordinates,Original*%
%TF.FileFunction,Copper,L1,Top*%
%TF.FilePolarity,Positive*%
%FSLAX46Y46*%
G04 Gerber Fmt 4.6, Leading zero omitted, Abs format (unit mm)*
G04 Created by KiCad (PCBNEW (5.1.9-0-10_14)) date 2021-04-17 10:06:41*
%MOMM*%
%LPD*%
G01*
G04 APERTURE LIST*
%TA.AperFunction,ComponentPad*%
%ADD10O,1.000000X1.000000*%
%TD*%
%TA.AperFunction,ComponentPad*%
%ADD11R,1.000000X1.000000*%
%TD*%
%TA.AperFunction,ComponentPad*%
%ADD12O,1.700000X1.700000*%
%TD*%
%TA.AperFunction,ComponentPad*%
%ADD13R,1.700000X1.700000*%
%TD*%
%TA.AperFunction,ComponentPad*%
%ADD14C,2.000000*%
%TD*%
%TA.AperFunction,SMDPad,CuDef*%
%ADD15R,0.200000X0.200000*%
%TD*%
%TA.AperFunction,SMDPad,CuDef*%
%ADD16C,0.500000*%
%TD*%
%TA.AperFunction,ComponentPad*%
%ADD17C,1.524000*%
%TD*%
%TA.AperFunction,SMDPad,CuDef*%
%ADD18R,2.100000X2.100000*%
%TD*%
%TA.AperFunction,SMDPad,CuDef*%
%ADD19R,1.000000X0.300000*%
%TD*%
%TA.AperFunction,SMDPad,CuDef*%
%ADD20R,0.300000X1.000000*%
%TD*%
%TA.AperFunction,ComponentPad*%
%ADD21R,1.524000X1.524000*%
%TD*%
%TA.AperFunction,SMDPad,CuDef*%
%ADD22R,8.340000X5.490000*%
%TD*%
%TA.AperFunction,SMDPad,CuDef*%
%ADD23R,0.600000X1.140000*%
%TD*%
%TA.AperFunction,ComponentPad*%
%ADD24C,1.700000*%
%TD*%
%TA.AperFunction,SMDPad,CuDef*%
%ADD25R,0.300000X1.140000*%
%TD*%
%TA.AperFunction,ComponentPad*%
%ADD26C,0.600000*%
%TD*%
%TA.AperFunction,ViaPad*%
%ADD27C,0.800000*%
%TD*%
%TA.AperFunction,Conductor*%
%ADD28C,0.250000*%
%TD*%
%TA.AperFunction,Conductor*%
%ADD29C,0.254000*%
%TD*%
%TA.AperFunction,Conductor*%
%ADD30C,0.100000*%
%TD*%
G04 APERTURE END LIST*
D10*
%TO.P,J2,6*%
%TO.N,TXD*%
X174650000Y-62000000D03*
%TO.P,J2,5*%
%TO.N,RXD*%
X175920000Y-62000000D03*
%TO.P,J2,4*%
%TO.N,+3V3*%
X177190000Y-62000000D03*
%TO.P,J2,3*%
%TO.N,RST*%
X178460000Y-62000000D03*
%TO.P,J2,2*%
%TO.N,GPIO0*%
X179730000Y-62000000D03*
D11*
%TO.P,J2,1*%
%TO.N,GND*%
X181000000Y-62000000D03*
%TD*%
D10*
%TO.P,J4,6*%
%TO.N,TXD*%
X174650000Y-60630000D03*
%TO.P,J4,5*%
%TO.N,RXD*%
X175920000Y-60630000D03*
%TO.P,J4,4*%
%TO.N,+3V3*%
X177190000Y-60630000D03*
%TO.P,J4,3*%
%TO.N,RST*%
X178460000Y-60630000D03*
%TO.P,J4,2*%
%TO.N,GPIO0*%
X179730000Y-60630000D03*
D11*
%TO.P,J4,1*%
%TO.N,GND*%
X181000000Y-60630000D03*
%TD*%
D12*
%TO.P,J3,5*%
%TO.N,TXD*%
X184000000Y-76840000D03*
%TO.P,J3,4*%
%TO.N,RXD*%
X184000000Y-79380000D03*
%TO.P,J3,3*%
%TO.N,+3V3*%
X184000000Y-81920000D03*
%TO.P,J3,2*%
%TO.N,GPIO0*%
X184000000Y-84460000D03*
D13*
%TO.P,J3,1*%
%TO.N,GND*%
X184000000Y-87000000D03*
%TD*%
D14*
%TO.P,SW1,1*%
%TO.N,GND*%
X172960000Y-80290000D03*
%TO.P,SW1,2*%
%TO.N,GPIO0*%
X172960000Y-75790000D03*
%TO.P,SW1,1*%
%TO.N,GND*%
X179460000Y-80290000D03*
%TO.P,SW1,2*%
%TO.N,GPIO0*%
X179460000Y-75790000D03*
%TD*%
D15*
%TO.P,U1,~*%
%TO.N,N/C*%
X176100000Y-70700000D03*
X180100000Y-66700000D03*
X180100000Y-70700000D03*
X176100000Y-66700000D03*
D16*
X176100000Y-70700000D03*
D17*
%TO.P,U1,17*%
%TO.N,GND*%
X178100000Y-68700000D03*
D18*
X178100000Y-68700000D03*
D19*
%TO.P,U1,16*%
%TO.N,RST*%
X176050000Y-69675000D03*
%TO.P,U1,15*%
%TO.N,RXD*%
X176050000Y-69025000D03*
%TO.P,U1,14*%
%TO.N,Net-(U1-Pad14)*%
X176050000Y-68375000D03*
%TO.P,U1,13*%
%TO.N,GND*%
X176050000Y-67725000D03*
D20*
%TO.P,U1,12*%
%TO.N,GPIO0*%
X177125000Y-66650000D03*
%TO.P,U1,11*%
%TO.N,Net-(U1-Pad11)*%
X177775000Y-66650000D03*
%TO.P,U1,10*%
%TO.N,+3V3*%
X178425000Y-66650000D03*
%TO.P,U1,9*%
X179075000Y-66650000D03*
D19*
%TO.P,U1,8*%
X180150000Y-67725000D03*
%TO.P,U1,7*%
%TO.N,D-*%
X180150000Y-68375000D03*
%TO.P,U1,6*%
%TO.N,D+*%
X180150000Y-69025000D03*
%TO.P,U1,5*%
%TO.N,Net-(U1-Pad5)*%
X180150000Y-69675000D03*
D20*
%TO.P,U1,4*%
%TO.N,GND*%
X179075000Y-70750000D03*
%TO.P,U1,3*%
X178425000Y-70750000D03*
%TO.P,U1,2*%
%TO.N,TXD*%
X177775000Y-70750000D03*
%TO.P,U1,1*%
%TO.N,+3V3*%
X177125000Y-70750000D03*
%TD*%
%TO.P,R4,2*%
%TO.N,D+*%
%TA.AperFunction,SMDPad,CuDef*%
G36*
G01*
X184625001Y-70550000D02*
X183374999Y-70550000D01*
G75*
G02*
X183125000Y-70300001I0J249999D01*
G01*
X183125000Y-69499999D01*
G75*
G02*
X183374999Y-69250000I249999J0D01*
G01*
X184625001Y-69250000D01*
G75*
G02*
X184875000Y-69499999I0J-249999D01*
G01*
X184875000Y-70300001D01*
G75*
G02*
X184625001Y-70550000I-249999J0D01*
G01*
G37*
%TD.AperFunction*%
%TO.P,R4,1*%
%TO.N,Net-(J1-PadA6)*%
%TA.AperFunction,SMDPad,CuDef*%
G36*
G01*
X184625001Y-73650000D02*
X183374999Y-73650000D01*
G75*
G02*
X183125000Y-73400001I0J249999D01*
G01*
X183125000Y-72599999D01*
G75*
G02*
X183374999Y-72350000I249999J0D01*
G01*
X184625001Y-72350000D01*
G75*
G02*
X184875000Y-72599999I0J-249999D01*
G01*
X184875000Y-73400001D01*
G75*
G02*
X184625001Y-73650000I-249999J0D01*
G01*
G37*
%TD.AperFunction*%
%TD*%
%TO.P,R3,2*%
%TO.N,D-*%
%TA.AperFunction,SMDPad,CuDef*%
G36*
G01*
X183374999Y-67350000D02*
X184625001Y-67350000D01*
G75*
G02*
X184875000Y-67599999I0J-249999D01*
G01*
X184875000Y-68400001D01*
G75*
G02*
X184625001Y-68650000I-249999J0D01*
G01*
X183374999Y-68650000D01*
G75*
G02*
X183125000Y-68400001I0J249999D01*
G01*
X183125000Y-67599999D01*
G75*
G02*
X183374999Y-67350000I249999J0D01*
G01*
G37*
%TD.AperFunction*%
%TO.P,R3,1*%
%TO.N,Net-(J1-PadA7)*%
%TA.AperFunction,SMDPad,CuDef*%
G36*
G01*
X183374999Y-64250000D02*
X184625001Y-64250000D01*
G75*
G02*
X184875000Y-64499999I0J-249999D01*
G01*
X184875000Y-65300001D01*
G75*
G02*
X184625001Y-65550000I-249999J0D01*
G01*
X183374999Y-65550000D01*
G75*
G02*
X183125000Y-65300001I0J249999D01*
G01*
X183125000Y-64499999D01*
G75*
G02*
X183374999Y-64250000I249999J0D01*
G01*
G37*
%TD.AperFunction*%
%TD*%
D21*
%TO.P,M1,3*%
%TO.N,GND*%
X172730000Y-67620000D03*
%TD*%
D22*
%TO.P,J1,S1*%
%TO.N,GND*%
X176370000Y-87255000D03*
D23*
%TO.P,J1,A12*%
X179570000Y-83140000D03*
%TO.P,J1,A4*%
%TO.N,VBUS*%
X173970000Y-83140000D03*
%TO.P,J1,B12*%
%TO.N,GND*%
X173170000Y-83140000D03*
%TO.P,J1,B4*%
%TO.N,VBUS*%
X178770000Y-83140000D03*
D24*
%TO.P,J1,S1*%
%TO.N,GND*%
X180695000Y-87910000D03*
X172045000Y-87910000D03*
D14*
X180695000Y-83730000D03*
X172045000Y-83730000D03*
D25*
%TO.P,J1,A7*%
%TO.N,Net-(J1-PadA7)*%
X176620000Y-83140000D03*
%TO.P,J1,A6*%
%TO.N,Net-(J1-PadA6)*%
X176120000Y-83140000D03*
%TO.P,J1,B6*%
X177120000Y-83140000D03*
%TO.P,J1,B7*%
%TO.N,Net-(J1-PadA7)*%
X175620000Y-83140000D03*
%TO.P,J1,A8*%
%TO.N,Net-(J1-PadA8)*%
X177620000Y-83140000D03*
%TO.P,J1,A5*%
%TO.N,Net-(J1-PadA5)*%
X175120000Y-83140000D03*
%TO.P,J1,B5*%
%TO.N,Net-(J1-PadB5)*%
X178120000Y-83140000D03*
%TO.P,J1,B8*%
%TO.N,Net-(J1-PadB8)*%
X174620000Y-83140000D03*
D23*
%TO.P,J1,A9*%
%TO.N,VBUS*%
X178770000Y-83140000D03*
%TO.P,J1,B9*%
X173970000Y-83140000D03*
%TO.P,J1,B1*%
%TO.N,GND*%
X179570000Y-83140000D03*
D26*
%TO.P,J1,S1*%
X179260000Y-84210000D03*
X173480000Y-84210000D03*
D23*
%TO.P,J1,A1*%
X173170000Y-83140000D03*
%TD*%
D27*
%TO.N,VBUS*%
X173000000Y-81900000D03*
%TO.N,Net-(J1-PadA7)*%
X175588028Y-81307745D03*
X177038039Y-81450651D03*
%TO.N,Net-(J1-PadA6)*%
X177913558Y-80875007D03*
X176500000Y-80300000D03*
%TO.N,Net-(J1-PadA5)*%
X174758737Y-81866582D03*
%TO.N,Net-(J1-PadB5)*%
X178800000Y-81969998D03*
%TO.N,RXD*%
X175276854Y-66064218D03*
X175982559Y-63550013D03*
%TO.N,+3V3*%
X176359256Y-64999446D03*
X174930011Y-72091907D03*
%TO.N,TXD*%
X176956096Y-72816908D03*
%TD*%
D28*
%TO.N,GND*%
X180105000Y-83140000D02*
X180695000Y-83730000D01*
X179570000Y-83140000D02*
X180105000Y-83140000D01*
X172635000Y-83140000D02*
X172045000Y-83730000D01*
X173170000Y-83140000D02*
X172635000Y-83140000D01*
X172525000Y-84210000D02*
X172045000Y-83730000D01*
X173480000Y-84210000D02*
X172525000Y-84210000D01*
X175570000Y-87255000D02*
X176370000Y-87255000D01*
X172045000Y-83730000D02*
X175570000Y-87255000D01*
X175715000Y-87910000D02*
X176370000Y-87255000D01*
X172045000Y-87910000D02*
X175715000Y-87910000D01*
X176370000Y-87255000D02*
X176745000Y-87255000D01*
X180215000Y-84210000D02*
X180695000Y-83730000D01*
X179260000Y-84210000D02*
X180215000Y-84210000D01*
X177025000Y-87910000D02*
X176370000Y-87255000D01*
X180695000Y-87910000D02*
X177025000Y-87910000D01*
X177170000Y-87255000D02*
X176370000Y-87255000D01*
X180695000Y-83730000D02*
X177170000Y-87255000D01*
X180695000Y-81525000D02*
X179460000Y-80290000D01*
X180695000Y-83730000D02*
X180695000Y-81525000D01*
X172045000Y-81205000D02*
X172960000Y-80290000D01*
X172045000Y-83730000D02*
X172045000Y-81205000D01*
X181000000Y-60630000D02*
X181000000Y-62000000D01*
X178425000Y-69025000D02*
X178100000Y-68700000D01*
X178425000Y-70750000D02*
X178425000Y-69025000D01*
X179075000Y-69675000D02*
X178100000Y-68700000D01*
X179075000Y-70750000D02*
X179075000Y-69675000D01*
X177125000Y-67725000D02*
X178100000Y-68700000D01*
X176050000Y-67725000D02*
X177125000Y-67725000D01*
%TO.N,VBUS*%
X178770000Y-83795002D02*
X178770000Y-83140000D01*
X174209999Y-84035001D02*
X178530001Y-84035001D01*
X173970000Y-83795002D02*
X174209999Y-84035001D01*
X178530001Y-84035001D02*
X178770000Y-83795002D01*
X173970000Y-83140000D02*
X173970000Y-83795002D01*
X173730001Y-82244999D02*
X173344999Y-82244999D01*
X173795001Y-82309999D02*
X173730001Y-82244999D01*
X173795001Y-82965001D02*
X173795001Y-82309999D01*
X173970000Y-83140000D02*
X173795001Y-82965001D01*
X173344999Y-82244999D02*
X173000000Y-81900000D01*
%TO.N,Net-(J1-PadA7)*%
X176620000Y-81985186D02*
X177038039Y-81567147D01*
X177038039Y-81567147D02*
X177038039Y-81450651D01*
X175620000Y-83140000D02*
X175620000Y-81339717D01*
X175620000Y-81339717D02*
X175588028Y-81307745D01*
X176620000Y-83140000D02*
X176620000Y-81985186D01*
X177225002Y-80648002D02*
X177038039Y-80834965D01*
X179817299Y-78767158D02*
X178867158Y-78767158D01*
X178867158Y-78767158D02*
X177225002Y-80409314D01*
X184000000Y-64900000D02*
X185200010Y-66100010D01*
X185200010Y-66100010D02*
X185200010Y-73638180D01*
X185200010Y-73638180D02*
X185175001Y-73663189D01*
X185175001Y-73663189D02*
X185175001Y-79944001D01*
X177038039Y-80834965D02*
X177038039Y-81450651D01*
X185175001Y-79944001D02*
X184564001Y-80555001D01*
X184564001Y-80555001D02*
X181605142Y-80555001D01*
X181605142Y-80555001D02*
X179817299Y-78767158D01*
X177225002Y-80409314D02*
X177225002Y-80648002D01*
%TO.N,Net-(J1-PadA6)*%
X176120000Y-83140000D02*
X176120000Y-81848775D01*
X183125000Y-73000000D02*
X182824999Y-73300001D01*
X176120000Y-81848775D02*
X176313029Y-81655746D01*
X176313029Y-81655746D02*
X176313029Y-80876525D01*
X182824999Y-73300001D02*
X182824999Y-78869607D01*
X181514246Y-79467194D02*
X180253776Y-78206724D01*
X182824999Y-78869607D02*
X182227412Y-79467194D01*
X182227412Y-79467194D02*
X181514246Y-79467194D01*
X184000000Y-73000000D02*
X183125000Y-73000000D01*
X176313029Y-80486971D02*
X176500000Y-80300000D01*
X176313029Y-80876525D02*
X176313029Y-80486971D01*
X177120000Y-82441224D02*
X177913558Y-81647666D01*
X177120000Y-83140000D02*
X177120000Y-82441224D01*
X177913558Y-81647666D02*
X177913558Y-80875007D01*
X179393276Y-78206724D02*
X178593276Y-78206724D01*
X180253776Y-78206724D02*
X179393276Y-78206724D01*
X178593276Y-78206724D02*
X176500000Y-80300000D01*
%TO.N,Net-(J1-PadA5)*%
X175120000Y-82227845D02*
X174758737Y-81866582D01*
X175120000Y-83140000D02*
X175120000Y-82227845D01*
%TO.N,Net-(J1-PadB5)*%
X178470002Y-81969998D02*
X178800000Y-81969998D01*
X178120000Y-82320000D02*
X178470002Y-81969998D01*
X178120000Y-83140000D02*
X178120000Y-82320000D01*
%TO.N,RXD*%
X175920000Y-60630000D02*
X175920000Y-62000000D01*
X175300000Y-69025000D02*
X175209658Y-68934658D01*
X175209658Y-66131414D02*
X175276854Y-66064218D01*
X175209658Y-68934658D02*
X175209658Y-66131414D01*
X176050000Y-69025000D02*
X175300000Y-69025000D01*
X174875592Y-65662956D02*
X174875592Y-64656980D01*
X174875592Y-64656980D02*
X175982559Y-63550013D01*
X175276854Y-66064218D02*
X174875592Y-65662956D01*
%TO.N,+3V3*%
X177190000Y-60630000D02*
X177190000Y-62000000D01*
X179800000Y-67725000D02*
X180150000Y-67725000D01*
X179075000Y-67000000D02*
X179800000Y-67725000D01*
X179075000Y-66650000D02*
X179075000Y-67000000D01*
X179075000Y-66650000D02*
X179075000Y-65375000D01*
X179075000Y-65375000D02*
X178900000Y-65200000D01*
X178600000Y-65200000D02*
X178425000Y-65375000D01*
X178800000Y-65200000D02*
X178600000Y-65200000D01*
X178900000Y-65200000D02*
X178800000Y-65200000D01*
X178425000Y-65525000D02*
X178425000Y-66650000D01*
X178425000Y-65375000D02*
X178425000Y-65525000D01*
X177899446Y-64999446D02*
X176359256Y-64999446D01*
X178425000Y-65525000D02*
X177899446Y-64999446D01*
X176533093Y-72091907D02*
X174930011Y-72091907D01*
X177125000Y-71500000D02*
X176533093Y-72091907D01*
X177125000Y-70750000D02*
X177125000Y-71500000D01*
%TO.N,GPIO0*%
X172960000Y-75790000D02*
X179460000Y-75790000D01*
X179730000Y-60630000D02*
X179730000Y-62000000D01*
X176330560Y-64275014D02*
X176007772Y-64275014D01*
X176331201Y-64274373D02*
X176330560Y-64275014D01*
X179730000Y-62000000D02*
X177455627Y-64274373D01*
X177455627Y-64274373D02*
X176331201Y-64274373D01*
X175551983Y-64730803D02*
X175551983Y-65269229D01*
X176007772Y-64275014D02*
X175551983Y-64730803D01*
X176725000Y-65900000D02*
X177125000Y-66300000D01*
X176182754Y-65900000D02*
X176725000Y-65900000D01*
X175551983Y-65269229D02*
X176182754Y-65900000D01*
X177125000Y-66300000D02*
X177125000Y-66650000D01*
%TO.N,TXD*%
X174650000Y-60630000D02*
X174650000Y-62000000D01*
X177775000Y-70750000D02*
X177775000Y-71998004D01*
X174117001Y-66624740D02*
X174117001Y-66398143D01*
X174526989Y-72816908D02*
X174150001Y-72439920D01*
X173951857Y-62698143D02*
X174650000Y-62000000D01*
X176956096Y-72816908D02*
X174526989Y-72816908D01*
X174117001Y-66398143D02*
X173951857Y-66232999D01*
X177775000Y-71998004D02*
X176956096Y-72816908D01*
X174150001Y-72439920D02*
X174150001Y-66657740D01*
X174150001Y-66657740D02*
X174117001Y-66624740D01*
X173951857Y-66232999D02*
X173951857Y-62698143D01*
%TO.N,RST*%
X178460000Y-60630000D02*
X178460000Y-62000000D01*
X175523999Y-62825001D02*
X177634999Y-62825001D01*
X176050000Y-69675000D02*
X175300000Y-69675000D01*
X174567011Y-66211743D02*
X174401868Y-66046600D01*
X174753995Y-69128995D02*
X174753995Y-66625323D01*
X175300000Y-69675000D02*
X174753995Y-69128995D01*
X174753995Y-66625323D02*
X174567011Y-66438339D01*
X174401868Y-66046600D02*
X174401868Y-63947132D01*
X174401868Y-63947132D02*
X175523999Y-62825001D01*
X174567011Y-66438339D02*
X174567011Y-66211743D01*
X177634999Y-62825001D02*
X178460000Y-62000000D01*
%TO.N,D-*%
X183625000Y-68375000D02*
X184000000Y-68000000D01*
X180150000Y-68375000D02*
X183625000Y-68375000D01*
%TO.N,D+*%
X183125000Y-69025000D02*
X184000000Y-69900000D01*
X180150000Y-69025000D02*
X183125000Y-69025000D01*
%TD*%
D29*
%TO.N,GND*%
X179653748Y-80275858D02*
X179639605Y-80290000D01*
X180595413Y-81245808D01*
X180859814Y-81150044D01*
X180946726Y-80971387D01*
X181041343Y-81066004D01*
X181065141Y-81095002D01*
X181180866Y-81189975D01*
X181312895Y-81260547D01*
X181456156Y-81304004D01*
X181567809Y-81315001D01*
X181567819Y-81315001D01*
X181605142Y-81318677D01*
X181642465Y-81315001D01*
X182643247Y-81315001D01*
X182572068Y-81486842D01*
X182515000Y-81773740D01*
X182515000Y-82066260D01*
X182572068Y-82353158D01*
X182684010Y-82623411D01*
X182846525Y-82866632D01*
X183053368Y-83073475D01*
X183227760Y-83190000D01*
X183053368Y-83306525D01*
X182846525Y-83513368D01*
X182684010Y-83756589D01*
X182572068Y-84026842D01*
X182515000Y-84313740D01*
X182515000Y-84606260D01*
X182572068Y-84893158D01*
X182684010Y-85163411D01*
X182846525Y-85406632D01*
X182978380Y-85538487D01*
X182905820Y-85560498D01*
X182795506Y-85619463D01*
X182698815Y-85698815D01*
X182619463Y-85795506D01*
X182560498Y-85905820D01*
X182524188Y-86025518D01*
X182511928Y-86150000D01*
X182515000Y-86714250D01*
X182673750Y-86873000D01*
X183873000Y-86873000D01*
X183873000Y-86853000D01*
X184127000Y-86853000D01*
X184127000Y-86873000D01*
X184147000Y-86873000D01*
X184147000Y-87127000D01*
X184127000Y-87127000D01*
X184127000Y-88326250D01*
X184285750Y-88485000D01*
X184850000Y-88488072D01*
X184974482Y-88475812D01*
X185094180Y-88439502D01*
X185204494Y-88380537D01*
X185301185Y-88301185D01*
X185315001Y-88284350D01*
X185315001Y-88966485D01*
X185305778Y-89060546D01*
X185288194Y-89118787D01*
X185259635Y-89172500D01*
X185221183Y-89219646D01*
X185174310Y-89258423D01*
X185120796Y-89287358D01*
X185062677Y-89305349D01*
X184970855Y-89315000D01*
X181177216Y-89315000D01*
X181177216Y-89314601D01*
X181328747Y-89260919D01*
X181466157Y-89187472D01*
X181543792Y-88938397D01*
X181176287Y-88570892D01*
X181175838Y-88211233D01*
X181723397Y-88758792D01*
X181972472Y-88681157D01*
X182098371Y-88417117D01*
X182170339Y-88133589D01*
X182185165Y-87850000D01*
X182511928Y-87850000D01*
X182524188Y-87974482D01*
X182560498Y-88094180D01*
X182619463Y-88204494D01*
X182698815Y-88301185D01*
X182795506Y-88380537D01*
X182905820Y-88439502D01*
X183025518Y-88475812D01*
X183150000Y-88488072D01*
X183714250Y-88485000D01*
X183873000Y-88326250D01*
X183873000Y-87127000D01*
X182673750Y-87127000D01*
X182515000Y-87285750D01*
X182511928Y-87850000D01*
X182185165Y-87850000D01*
X182185611Y-87841469D01*
X182143599Y-87551981D01*
X182045919Y-87276253D01*
X181972472Y-87138843D01*
X181723397Y-87061208D01*
X181175086Y-87609519D01*
X181175000Y-87540750D01*
X181029823Y-87395573D01*
X181543792Y-86881603D01*
X181466157Y-86632528D01*
X181202117Y-86506629D01*
X181175586Y-86499895D01*
X181177094Y-85293269D01*
X181381088Y-85222795D01*
X181555044Y-85129814D01*
X181650808Y-84865413D01*
X181163591Y-84378196D01*
X181129502Y-84265820D01*
X181070537Y-84155506D01*
X180991185Y-84058815D01*
X180894494Y-83979463D01*
X180784180Y-83920498D01*
X180664482Y-83884188D01*
X180638765Y-83881655D01*
X180504399Y-83747289D01*
X180505087Y-83740308D01*
X180515395Y-83730000D01*
X180874605Y-83730000D01*
X181830413Y-84685808D01*
X182094814Y-84590044D01*
X182235704Y-84300429D01*
X182317384Y-83988892D01*
X182336718Y-83667405D01*
X182292961Y-83348325D01*
X182187795Y-83043912D01*
X182094814Y-82869956D01*
X181830413Y-82774192D01*
X180874605Y-83730000D01*
X180515395Y-83730000D01*
X180506935Y-83721540D01*
X180508072Y-83710000D01*
X180508062Y-83709048D01*
X180680858Y-83536253D01*
X180695000Y-83550395D01*
X181650808Y-82594587D01*
X181555044Y-82330186D01*
X181265429Y-82189296D01*
X180953892Y-82107616D01*
X180632405Y-82088282D01*
X180330145Y-82129732D01*
X180321185Y-82118815D01*
X180224494Y-82039463D01*
X180114180Y-81980498D01*
X179994482Y-81944188D01*
X179870000Y-81931928D01*
X179855750Y-81935000D01*
X179835000Y-81955750D01*
X179835000Y-81888876D01*
X179841675Y-81887961D01*
X180146088Y-81782795D01*
X180320044Y-81689814D01*
X180415808Y-81425413D01*
X179460000Y-80469605D01*
X179445858Y-80483748D01*
X179266253Y-80304143D01*
X179280395Y-80290000D01*
X179266253Y-80275858D01*
X179445858Y-80096253D01*
X179460000Y-80110395D01*
X179474143Y-80096253D01*
X179653748Y-80275858D01*
%TA.AperFunction,Conductor*%
D30*
G36*
X179653748Y-80275858D02*
G01*
X179639605Y-80290000D01*
X180595413Y-81245808D01*
X180859814Y-81150044D01*
X180946726Y-80971387D01*
X181041343Y-81066004D01*
X181065141Y-81095002D01*
X181180866Y-81189975D01*
X181312895Y-81260547D01*
X181456156Y-81304004D01*
X181567809Y-81315001D01*
X181567819Y-81315001D01*
X181605142Y-81318677D01*
X181642465Y-81315001D01*
X182643247Y-81315001D01*
X182572068Y-81486842D01*
X182515000Y-81773740D01*
X182515000Y-82066260D01*
X182572068Y-82353158D01*
X182684010Y-82623411D01*
X182846525Y-82866632D01*
X183053368Y-83073475D01*
X183227760Y-83190000D01*
X183053368Y-83306525D01*
X182846525Y-83513368D01*
X182684010Y-83756589D01*
X182572068Y-84026842D01*
X182515000Y-84313740D01*
X182515000Y-84606260D01*
X182572068Y-84893158D01*
X182684010Y-85163411D01*
X182846525Y-85406632D01*
X182978380Y-85538487D01*
X182905820Y-85560498D01*
X182795506Y-85619463D01*
X182698815Y-85698815D01*
X182619463Y-85795506D01*
X182560498Y-85905820D01*
X182524188Y-86025518D01*
X182511928Y-86150000D01*
X182515000Y-86714250D01*
X182673750Y-86873000D01*
X183873000Y-86873000D01*
X183873000Y-86853000D01*
X184127000Y-86853000D01*
X184127000Y-86873000D01*
X184147000Y-86873000D01*
X184147000Y-87127000D01*
X184127000Y-87127000D01*
X184127000Y-88326250D01*
X184285750Y-88485000D01*
X184850000Y-88488072D01*
X184974482Y-88475812D01*
X185094180Y-88439502D01*
X185204494Y-88380537D01*
X185301185Y-88301185D01*
X185315001Y-88284350D01*
X185315001Y-88966485D01*
X185305778Y-89060546D01*
X185288194Y-89118787D01*
X185259635Y-89172500D01*
X185221183Y-89219646D01*
X185174310Y-89258423D01*
X185120796Y-89287358D01*
X185062677Y-89305349D01*
X184970855Y-89315000D01*
X181177216Y-89315000D01*
X181177216Y-89314601D01*
X181328747Y-89260919D01*
X181466157Y-89187472D01*
X181543792Y-88938397D01*
X181176287Y-88570892D01*
X181175838Y-88211233D01*
X181723397Y-88758792D01*
X181972472Y-88681157D01*
X182098371Y-88417117D01*
X182170339Y-88133589D01*
X182185165Y-87850000D01*
X182511928Y-87850000D01*
X182524188Y-87974482D01*
X182560498Y-88094180D01*
X182619463Y-88204494D01*
X182698815Y-88301185D01*
X182795506Y-88380537D01*
X182905820Y-88439502D01*
X183025518Y-88475812D01*
X183150000Y-88488072D01*
X183714250Y-88485000D01*
X183873000Y-88326250D01*
X183873000Y-87127000D01*
X182673750Y-87127000D01*
X182515000Y-87285750D01*
X182511928Y-87850000D01*
X182185165Y-87850000D01*
X182185611Y-87841469D01*
X182143599Y-87551981D01*
X182045919Y-87276253D01*
X181972472Y-87138843D01*
X181723397Y-87061208D01*
X181175086Y-87609519D01*
X181175000Y-87540750D01*
X181029823Y-87395573D01*
X181543792Y-86881603D01*
X181466157Y-86632528D01*
X181202117Y-86506629D01*
X181175586Y-86499895D01*
X181177094Y-85293269D01*
X181381088Y-85222795D01*
X181555044Y-85129814D01*
X181650808Y-84865413D01*
X181163591Y-84378196D01*
X181129502Y-84265820D01*
X181070537Y-84155506D01*
X180991185Y-84058815D01*
X180894494Y-83979463D01*
X180784180Y-83920498D01*
X180664482Y-83884188D01*
X180638765Y-83881655D01*
X180504399Y-83747289D01*
X180505087Y-83740308D01*
X180515395Y-83730000D01*
X180874605Y-83730000D01*
X181830413Y-84685808D01*
X182094814Y-84590044D01*
X182235704Y-84300429D01*
X182317384Y-83988892D01*
X182336718Y-83667405D01*
X182292961Y-83348325D01*
X182187795Y-83043912D01*
X182094814Y-82869956D01*
X181830413Y-82774192D01*
X180874605Y-83730000D01*
X180515395Y-83730000D01*
X180506935Y-83721540D01*
X180508072Y-83710000D01*
X180508062Y-83709048D01*
X180680858Y-83536253D01*
X180695000Y-83550395D01*
X181650808Y-82594587D01*
X181555044Y-82330186D01*
X181265429Y-82189296D01*
X180953892Y-82107616D01*
X180632405Y-82088282D01*
X180330145Y-82129732D01*
X180321185Y-82118815D01*
X180224494Y-82039463D01*
X180114180Y-81980498D01*
X179994482Y-81944188D01*
X179870000Y-81931928D01*
X179855750Y-81935000D01*
X179835000Y-81955750D01*
X179835000Y-81888876D01*
X179841675Y-81887961D01*
X180146088Y-81782795D01*
X180320044Y-81689814D01*
X180415808Y-81425413D01*
X179460000Y-80469605D01*
X179445858Y-80483748D01*
X179266253Y-80304143D01*
X179280395Y-80290000D01*
X179266253Y-80275858D01*
X179445858Y-80096253D01*
X179460000Y-80110395D01*
X179474143Y-80096253D01*
X179653748Y-80275858D01*
G37*
%TD.AperFunction*%
D29*
X173926480Y-59748388D02*
X173768388Y-59906480D01*
X173644176Y-60092376D01*
X173558617Y-60298933D01*
X173515000Y-60518212D01*
X173515000Y-60741788D01*
X173558617Y-60961067D01*
X173644176Y-61167624D01*
X173742650Y-61315000D01*
X173644176Y-61462376D01*
X173558617Y-61668933D01*
X173515000Y-61888212D01*
X173515000Y-62060199D01*
X173440855Y-62134344D01*
X173411857Y-62158142D01*
X173388059Y-62187140D01*
X173388058Y-62187141D01*
X173316883Y-62273867D01*
X173246311Y-62405897D01*
X173240736Y-62424277D01*
X173202855Y-62549157D01*
X173195436Y-62624482D01*
X173188181Y-62698143D01*
X173191858Y-62735475D01*
X173191857Y-66195676D01*
X173189276Y-66221881D01*
X173015750Y-66223000D01*
X172857000Y-66381750D01*
X172857000Y-67493000D01*
X172877000Y-67493000D01*
X172877000Y-67747000D01*
X172857000Y-67747000D01*
X172857000Y-68858250D01*
X173015750Y-69017000D01*
X173390002Y-69019414D01*
X173390001Y-72402597D01*
X173386325Y-72439920D01*
X173390001Y-72477242D01*
X173390001Y-72477252D01*
X173400998Y-72588905D01*
X173442852Y-72726881D01*
X173444455Y-72732166D01*
X173515027Y-72864196D01*
X173554872Y-72912746D01*
X173610000Y-72979921D01*
X173639004Y-73003724D01*
X173963185Y-73327905D01*
X173986988Y-73356909D01*
X174102713Y-73451882D01*
X174172520Y-73489195D01*
X174234742Y-73522454D01*
X174378003Y-73565911D01*
X174526989Y-73580585D01*
X174564322Y-73576908D01*
X176252385Y-73576908D01*
X176296322Y-73620845D01*
X176465840Y-73734113D01*
X176654198Y-73812134D01*
X176854157Y-73851908D01*
X177058035Y-73851908D01*
X177257994Y-73812134D01*
X177446352Y-73734113D01*
X177615870Y-73620845D01*
X177760033Y-73476682D01*
X177873301Y-73307164D01*
X177951322Y-73118806D01*
X177991096Y-72918847D01*
X177991096Y-72856710D01*
X178286002Y-72561803D01*
X178315001Y-72538005D01*
X178379019Y-72459999D01*
X178409974Y-72422281D01*
X178480546Y-72290251D01*
X178495518Y-72240893D01*
X178524003Y-72146990D01*
X178535000Y-72035337D01*
X178535000Y-72035328D01*
X178538676Y-71998005D01*
X178535000Y-71960682D01*
X178535000Y-71885000D01*
X178552002Y-71885000D01*
X178552002Y-71830252D01*
X178606750Y-71885000D01*
X178711609Y-71873277D01*
X178750000Y-71860812D01*
X178788391Y-71873277D01*
X178893250Y-71885000D01*
X179052000Y-71726250D01*
X179052000Y-71670608D01*
X179098000Y-71612283D01*
X179098000Y-71726250D01*
X179256750Y-71885000D01*
X179361609Y-71873277D01*
X179480579Y-71834650D01*
X179589728Y-71773555D01*
X179684860Y-71692340D01*
X179762320Y-71594126D01*
X179819131Y-71482688D01*
X179838367Y-71414542D01*
X179875518Y-71425812D01*
X180000000Y-71438072D01*
X180200000Y-71438072D01*
X180324482Y-71425812D01*
X180444180Y-71389502D01*
X180554494Y-71330537D01*
X180651185Y-71251185D01*
X180730537Y-71154494D01*
X180789502Y-71044180D01*
X180825812Y-70924482D01*
X180838072Y-70800000D01*
X180838072Y-70600000D01*
X180825812Y-70475518D01*
X180814624Y-70438635D01*
X180894180Y-70414502D01*
X181004494Y-70355537D01*
X181101185Y-70276185D01*
X181180537Y-70179494D01*
X181239502Y-70069180D01*
X181275812Y-69949482D01*
X181288072Y-69825000D01*
X181288072Y-69785000D01*
X182486928Y-69785000D01*
X182486928Y-70300001D01*
X182503992Y-70473255D01*
X182554528Y-70639851D01*
X182636595Y-70793387D01*
X182747038Y-70927962D01*
X182881613Y-71038405D01*
X183035149Y-71120472D01*
X183201745Y-71171008D01*
X183374999Y-71188072D01*
X184440011Y-71188072D01*
X184440011Y-71711928D01*
X183374999Y-71711928D01*
X183201745Y-71728992D01*
X183035149Y-71779528D01*
X182881613Y-71861595D01*
X182747038Y-71972038D01*
X182636595Y-72106613D01*
X182554528Y-72260149D01*
X182503992Y-72426745D01*
X182490941Y-72559258D01*
X182314001Y-72736198D01*
X182284998Y-72760000D01*
X182238295Y-72816908D01*
X182190025Y-72875725D01*
X182149831Y-72950922D01*
X182119453Y-73007755D01*
X182075996Y-73151016D01*
X182064999Y-73262669D01*
X182064999Y-73262679D01*
X182061323Y-73300001D01*
X182064999Y-73337324D01*
X182065000Y-78554804D01*
X181912611Y-78707194D01*
X181829048Y-78707194D01*
X180817580Y-77695727D01*
X180793777Y-77666723D01*
X180678052Y-77571750D01*
X180546023Y-77501178D01*
X180402762Y-77457721D01*
X180291109Y-77446724D01*
X180291098Y-77446724D01*
X180253776Y-77443048D01*
X180216454Y-77446724D01*
X178630598Y-77446724D01*
X178593275Y-77443048D01*
X178555952Y-77446724D01*
X178555943Y-77446724D01*
X178444290Y-77457721D01*
X178301029Y-77501178D01*
X178169000Y-77571750D01*
X178053275Y-77666723D01*
X178029477Y-77695721D01*
X176460199Y-79265000D01*
X176398061Y-79265000D01*
X176198102Y-79304774D01*
X176009744Y-79382795D01*
X175840226Y-79496063D01*
X175696063Y-79640226D01*
X175582795Y-79809744D01*
X175504774Y-79998102D01*
X175465000Y-80198061D01*
X175465000Y-80276940D01*
X175286130Y-80312519D01*
X175097772Y-80390540D01*
X174928254Y-80503808D01*
X174784091Y-80647971D01*
X174670823Y-80817489D01*
X174664985Y-80831582D01*
X174656798Y-80831582D01*
X174499518Y-80862867D01*
X174500704Y-80860429D01*
X174582384Y-80548892D01*
X174601718Y-80227405D01*
X174557961Y-79908325D01*
X174452795Y-79603912D01*
X174359814Y-79429956D01*
X174095413Y-79334192D01*
X173139605Y-80290000D01*
X173153748Y-80304143D01*
X172974143Y-80483748D01*
X172960000Y-80469605D01*
X172004192Y-81425413D01*
X172037832Y-81518293D01*
X172004774Y-81598102D01*
X171965000Y-81798061D01*
X171965000Y-82001939D01*
X171982181Y-82088313D01*
X171663325Y-82132039D01*
X171358912Y-82237205D01*
X171184956Y-82330186D01*
X171089192Y-82594587D01*
X172045000Y-83550395D01*
X172059143Y-83536253D01*
X172231938Y-83709048D01*
X172231928Y-83710000D01*
X172233065Y-83721540D01*
X172224605Y-83730000D01*
X172234913Y-83740308D01*
X172235601Y-83747289D01*
X172101235Y-83881655D01*
X172075518Y-83884188D01*
X171955820Y-83920498D01*
X171845506Y-83979463D01*
X171748815Y-84058815D01*
X171669463Y-84155506D01*
X171610498Y-84265820D01*
X171576409Y-84378196D01*
X171089192Y-84865413D01*
X171184956Y-85129814D01*
X171474571Y-85270704D01*
X171562907Y-85293864D01*
X171564420Y-86504820D01*
X171411253Y-86559081D01*
X171273843Y-86632528D01*
X171196208Y-86881603D01*
X171710178Y-87395573D01*
X171565000Y-87540750D01*
X171564914Y-87609519D01*
X171016603Y-87061208D01*
X170767528Y-87138843D01*
X170685000Y-87311924D01*
X170685000Y-84604464D01*
X170909587Y-84685808D01*
X171865395Y-83730000D01*
X170909587Y-82774192D01*
X170685000Y-82855536D01*
X170685000Y-80352595D01*
X171318282Y-80352595D01*
X171362039Y-80671675D01*
X171467205Y-80976088D01*
X171560186Y-81150044D01*
X171824587Y-81245808D01*
X172780395Y-80290000D01*
X171824587Y-79334192D01*
X171560186Y-79429956D01*
X171419296Y-79719571D01*
X171337616Y-80031108D01*
X171318282Y-80352595D01*
X170685000Y-80352595D01*
X170685000Y-79154587D01*
X172004192Y-79154587D01*
X172960000Y-80110395D01*
X173915808Y-79154587D01*
X173820044Y-78890186D01*
X173530429Y-78749296D01*
X173218892Y-78667616D01*
X172897405Y-78648282D01*
X172578325Y-78692039D01*
X172273912Y-78797205D01*
X172099956Y-78890186D01*
X172004192Y-79154587D01*
X170685000Y-79154587D01*
X170685000Y-75628967D01*
X171325000Y-75628967D01*
X171325000Y-75951033D01*
X171387832Y-76266912D01*
X171511082Y-76564463D01*
X171690013Y-76832252D01*
X171917748Y-77059987D01*
X172185537Y-77238918D01*
X172483088Y-77362168D01*
X172798967Y-77425000D01*
X173121033Y-77425000D01*
X173436912Y-77362168D01*
X173734463Y-77238918D01*
X174002252Y-77059987D01*
X174229987Y-76832252D01*
X174408918Y-76564463D01*
X174414909Y-76550000D01*
X178005091Y-76550000D01*
X178011082Y-76564463D01*
X178190013Y-76832252D01*
X178417748Y-77059987D01*
X178685537Y-77238918D01*
X178983088Y-77362168D01*
X179298967Y-77425000D01*
X179621033Y-77425000D01*
X179936912Y-77362168D01*
X180234463Y-77238918D01*
X180502252Y-77059987D01*
X180729987Y-76832252D01*
X180908918Y-76564463D01*
X181032168Y-76266912D01*
X181095000Y-75951033D01*
X181095000Y-75628967D01*
X181032168Y-75313088D01*
X180908918Y-75015537D01*
X180729987Y-74747748D01*
X180502252Y-74520013D01*
X180234463Y-74341082D01*
X179936912Y-74217832D01*
X179621033Y-74155000D01*
X179298967Y-74155000D01*
X178983088Y-74217832D01*
X178685537Y-74341082D01*
X178417748Y-74520013D01*
X178190013Y-74747748D01*
X178011082Y-75015537D01*
X178005091Y-75030000D01*
X174414909Y-75030000D01*
X174408918Y-75015537D01*
X174229987Y-74747748D01*
X174002252Y-74520013D01*
X173734463Y-74341082D01*
X173436912Y-74217832D01*
X173121033Y-74155000D01*
X172798967Y-74155000D01*
X172483088Y-74217832D01*
X172185537Y-74341082D01*
X171917748Y-74520013D01*
X171690013Y-74747748D01*
X171511082Y-75015537D01*
X171387832Y-75313088D01*
X171325000Y-75628967D01*
X170685000Y-75628967D01*
X170685000Y-68382000D01*
X171329928Y-68382000D01*
X171342188Y-68506482D01*
X171378498Y-68626180D01*
X171437463Y-68736494D01*
X171516815Y-68833185D01*
X171613506Y-68912537D01*
X171723820Y-68971502D01*
X171843518Y-69007812D01*
X171968000Y-69020072D01*
X172444250Y-69017000D01*
X172603000Y-68858250D01*
X172603000Y-67747000D01*
X171491750Y-67747000D01*
X171333000Y-67905750D01*
X171329928Y-68382000D01*
X170685000Y-68382000D01*
X170685000Y-66858000D01*
X171329928Y-66858000D01*
X171333000Y-67334250D01*
X171491750Y-67493000D01*
X172603000Y-67493000D01*
X172603000Y-66381750D01*
X172444250Y-66223000D01*
X171968000Y-66219928D01*
X171843518Y-66232188D01*
X171723820Y-66268498D01*
X171613506Y-66327463D01*
X171516815Y-66406815D01*
X171437463Y-66503506D01*
X171378498Y-66613820D01*
X171342188Y-66733518D01*
X171329928Y-66858000D01*
X170685000Y-66858000D01*
X170685000Y-60033505D01*
X170694222Y-59939453D01*
X170711805Y-59881214D01*
X170740366Y-59827499D01*
X170778816Y-59780354D01*
X170825691Y-59741576D01*
X170879204Y-59712642D01*
X170937323Y-59694651D01*
X171029145Y-59685000D01*
X174021347Y-59685000D01*
X173926480Y-59748388D01*
%TA.AperFunction,Conductor*%
D30*
G36*
X173926480Y-59748388D02*
G01*
X173768388Y-59906480D01*
X173644176Y-60092376D01*
X173558617Y-60298933D01*
X173515000Y-60518212D01*
X173515000Y-60741788D01*
X173558617Y-60961067D01*
X173644176Y-61167624D01*
X173742650Y-61315000D01*
X173644176Y-61462376D01*
X173558617Y-61668933D01*
X173515000Y-61888212D01*
X173515000Y-62060199D01*
X173440855Y-62134344D01*
X173411857Y-62158142D01*
X173388059Y-62187140D01*
X173388058Y-62187141D01*
X173316883Y-62273867D01*
X173246311Y-62405897D01*
X173240736Y-62424277D01*
X173202855Y-62549157D01*
X173195436Y-62624482D01*
X173188181Y-62698143D01*
X173191858Y-62735475D01*
X173191857Y-66195676D01*
X173189276Y-66221881D01*
X173015750Y-66223000D01*
X172857000Y-66381750D01*
X172857000Y-67493000D01*
X172877000Y-67493000D01*
X172877000Y-67747000D01*
X172857000Y-67747000D01*
X172857000Y-68858250D01*
X173015750Y-69017000D01*
X173390002Y-69019414D01*
X173390001Y-72402597D01*
X173386325Y-72439920D01*
X173390001Y-72477242D01*
X173390001Y-72477252D01*
X173400998Y-72588905D01*
X173442852Y-72726881D01*
X173444455Y-72732166D01*
X173515027Y-72864196D01*
X173554872Y-72912746D01*
X173610000Y-72979921D01*
X173639004Y-73003724D01*
X173963185Y-73327905D01*
X173986988Y-73356909D01*
X174102713Y-73451882D01*
X174172520Y-73489195D01*
X174234742Y-73522454D01*
X174378003Y-73565911D01*
X174526989Y-73580585D01*
X174564322Y-73576908D01*
X176252385Y-73576908D01*
X176296322Y-73620845D01*
X176465840Y-73734113D01*
X176654198Y-73812134D01*
X176854157Y-73851908D01*
X177058035Y-73851908D01*
X177257994Y-73812134D01*
X177446352Y-73734113D01*
X177615870Y-73620845D01*
X177760033Y-73476682D01*
X177873301Y-73307164D01*
X177951322Y-73118806D01*
X177991096Y-72918847D01*
X177991096Y-72856710D01*
X178286002Y-72561803D01*
X178315001Y-72538005D01*
X178379019Y-72459999D01*
X178409974Y-72422281D01*
X178480546Y-72290251D01*
X178495518Y-72240893D01*
X178524003Y-72146990D01*
X178535000Y-72035337D01*
X178535000Y-72035328D01*
X178538676Y-71998005D01*
X178535000Y-71960682D01*
X178535000Y-71885000D01*
X178552002Y-71885000D01*
X178552002Y-71830252D01*
X178606750Y-71885000D01*
X178711609Y-71873277D01*
X178750000Y-71860812D01*
X178788391Y-71873277D01*
X178893250Y-71885000D01*
X179052000Y-71726250D01*
X179052000Y-71670608D01*
X179098000Y-71612283D01*
X179098000Y-71726250D01*
X179256750Y-71885000D01*
X179361609Y-71873277D01*
X179480579Y-71834650D01*
X179589728Y-71773555D01*
X179684860Y-71692340D01*
X179762320Y-71594126D01*
X179819131Y-71482688D01*
X179838367Y-71414542D01*
X179875518Y-71425812D01*
X180000000Y-71438072D01*
X180200000Y-71438072D01*
X180324482Y-71425812D01*
X180444180Y-71389502D01*
X180554494Y-71330537D01*
X180651185Y-71251185D01*
X180730537Y-71154494D01*
X180789502Y-71044180D01*
X180825812Y-70924482D01*
X180838072Y-70800000D01*
X180838072Y-70600000D01*
X180825812Y-70475518D01*
X180814624Y-70438635D01*
X180894180Y-70414502D01*
X181004494Y-70355537D01*
X181101185Y-70276185D01*
X181180537Y-70179494D01*
X181239502Y-70069180D01*
X181275812Y-69949482D01*
X181288072Y-69825000D01*
X181288072Y-69785000D01*
X182486928Y-69785000D01*
X182486928Y-70300001D01*
X182503992Y-70473255D01*
X182554528Y-70639851D01*
X182636595Y-70793387D01*
X182747038Y-70927962D01*
X182881613Y-71038405D01*
X183035149Y-71120472D01*
X183201745Y-71171008D01*
X183374999Y-71188072D01*
X184440011Y-71188072D01*
X184440011Y-71711928D01*
X183374999Y-71711928D01*
X183201745Y-71728992D01*
X183035149Y-71779528D01*
X182881613Y-71861595D01*
X182747038Y-71972038D01*
X182636595Y-72106613D01*
X182554528Y-72260149D01*
X182503992Y-72426745D01*
X182490941Y-72559258D01*
X182314001Y-72736198D01*
X182284998Y-72760000D01*
X182238295Y-72816908D01*
X182190025Y-72875725D01*
X182149831Y-72950922D01*
X182119453Y-73007755D01*
X182075996Y-73151016D01*
X182064999Y-73262669D01*
X182064999Y-73262679D01*
X182061323Y-73300001D01*
X182064999Y-73337324D01*
X182065000Y-78554804D01*
X181912611Y-78707194D01*
X181829048Y-78707194D01*
X180817580Y-77695727D01*
X180793777Y-77666723D01*
X180678052Y-77571750D01*
X180546023Y-77501178D01*
X180402762Y-77457721D01*
X180291109Y-77446724D01*
X180291098Y-77446724D01*
X180253776Y-77443048D01*
X180216454Y-77446724D01*
X178630598Y-77446724D01*
X178593275Y-77443048D01*
X178555952Y-77446724D01*
X178555943Y-77446724D01*
X178444290Y-77457721D01*
X178301029Y-77501178D01*
X178169000Y-77571750D01*
X178053275Y-77666723D01*
X178029477Y-77695721D01*
X176460199Y-79265000D01*
X176398061Y-79265000D01*
X176198102Y-79304774D01*
X176009744Y-79382795D01*
X175840226Y-79496063D01*
X175696063Y-79640226D01*
X175582795Y-79809744D01*
X175504774Y-79998102D01*
X175465000Y-80198061D01*
X175465000Y-80276940D01*
X175286130Y-80312519D01*
X175097772Y-80390540D01*
X174928254Y-80503808D01*
X174784091Y-80647971D01*
X174670823Y-80817489D01*
X174664985Y-80831582D01*
X174656798Y-80831582D01*
X174499518Y-80862867D01*
X174500704Y-80860429D01*
X174582384Y-80548892D01*
X174601718Y-80227405D01*
X174557961Y-79908325D01*
X174452795Y-79603912D01*
X174359814Y-79429956D01*
X174095413Y-79334192D01*
X173139605Y-80290000D01*
X173153748Y-80304143D01*
X172974143Y-80483748D01*
X172960000Y-80469605D01*
X172004192Y-81425413D01*
X172037832Y-81518293D01*
X172004774Y-81598102D01*
X171965000Y-81798061D01*
X171965000Y-82001939D01*
X171982181Y-82088313D01*
X171663325Y-82132039D01*
X171358912Y-82237205D01*
X171184956Y-82330186D01*
X171089192Y-82594587D01*
X172045000Y-83550395D01*
X172059143Y-83536253D01*
X172231938Y-83709048D01*
X172231928Y-83710000D01*
X172233065Y-83721540D01*
X172224605Y-83730000D01*
X172234913Y-83740308D01*
X172235601Y-83747289D01*
X172101235Y-83881655D01*
X172075518Y-83884188D01*
X171955820Y-83920498D01*
X171845506Y-83979463D01*
X171748815Y-84058815D01*
X171669463Y-84155506D01*
X171610498Y-84265820D01*
X171576409Y-84378196D01*
X171089192Y-84865413D01*
X171184956Y-85129814D01*
X171474571Y-85270704D01*
X171562907Y-85293864D01*
X171564420Y-86504820D01*
X171411253Y-86559081D01*
X171273843Y-86632528D01*
X171196208Y-86881603D01*
X171710178Y-87395573D01*
X171565000Y-87540750D01*
X171564914Y-87609519D01*
X171016603Y-87061208D01*
X170767528Y-87138843D01*
X170685000Y-87311924D01*
X170685000Y-84604464D01*
X170909587Y-84685808D01*
X171865395Y-83730000D01*
X170909587Y-82774192D01*
X170685000Y-82855536D01*
X170685000Y-80352595D01*
X171318282Y-80352595D01*
X171362039Y-80671675D01*
X171467205Y-80976088D01*
X171560186Y-81150044D01*
X171824587Y-81245808D01*
X172780395Y-80290000D01*
X171824587Y-79334192D01*
X171560186Y-79429956D01*
X171419296Y-79719571D01*
X171337616Y-80031108D01*
X171318282Y-80352595D01*
X170685000Y-80352595D01*
X170685000Y-79154587D01*
X172004192Y-79154587D01*
X172960000Y-80110395D01*
X173915808Y-79154587D01*
X173820044Y-78890186D01*
X173530429Y-78749296D01*
X173218892Y-78667616D01*
X172897405Y-78648282D01*
X172578325Y-78692039D01*
X172273912Y-78797205D01*
X172099956Y-78890186D01*
X172004192Y-79154587D01*
X170685000Y-79154587D01*
X170685000Y-75628967D01*
X171325000Y-75628967D01*
X171325000Y-75951033D01*
X171387832Y-76266912D01*
X171511082Y-76564463D01*
X171690013Y-76832252D01*
X171917748Y-77059987D01*
X172185537Y-77238918D01*
X172483088Y-77362168D01*
X172798967Y-77425000D01*
X173121033Y-77425000D01*
X173436912Y-77362168D01*
X173734463Y-77238918D01*
X174002252Y-77059987D01*
X174229987Y-76832252D01*
X174408918Y-76564463D01*
X174414909Y-76550000D01*
X178005091Y-76550000D01*
X178011082Y-76564463D01*
X178190013Y-76832252D01*
X178417748Y-77059987D01*
X178685537Y-77238918D01*
X178983088Y-77362168D01*
X179298967Y-77425000D01*
X179621033Y-77425000D01*
X179936912Y-77362168D01*
X180234463Y-77238918D01*
X180502252Y-77059987D01*
X180729987Y-76832252D01*
X180908918Y-76564463D01*
X181032168Y-76266912D01*
X181095000Y-75951033D01*
X181095000Y-75628967D01*
X181032168Y-75313088D01*
X180908918Y-75015537D01*
X180729987Y-74747748D01*
X180502252Y-74520013D01*
X180234463Y-74341082D01*
X179936912Y-74217832D01*
X179621033Y-74155000D01*
X179298967Y-74155000D01*
X178983088Y-74217832D01*
X178685537Y-74341082D01*
X178417748Y-74520013D01*
X178190013Y-74747748D01*
X178011082Y-75015537D01*
X178005091Y-75030000D01*
X174414909Y-75030000D01*
X174408918Y-75015537D01*
X174229987Y-74747748D01*
X174002252Y-74520013D01*
X173734463Y-74341082D01*
X173436912Y-74217832D01*
X173121033Y-74155000D01*
X172798967Y-74155000D01*
X172483088Y-74217832D01*
X172185537Y-74341082D01*
X171917748Y-74520013D01*
X171690013Y-74747748D01*
X171511082Y-75015537D01*
X171387832Y-75313088D01*
X171325000Y-75628967D01*
X170685000Y-75628967D01*
X170685000Y-68382000D01*
X171329928Y-68382000D01*
X171342188Y-68506482D01*
X171378498Y-68626180D01*
X171437463Y-68736494D01*
X171516815Y-68833185D01*
X171613506Y-68912537D01*
X171723820Y-68971502D01*
X171843518Y-69007812D01*
X171968000Y-69020072D01*
X172444250Y-69017000D01*
X172603000Y-68858250D01*
X172603000Y-67747000D01*
X171491750Y-67747000D01*
X171333000Y-67905750D01*
X171329928Y-68382000D01*
X170685000Y-68382000D01*
X170685000Y-66858000D01*
X171329928Y-66858000D01*
X171333000Y-67334250D01*
X171491750Y-67493000D01*
X172603000Y-67493000D01*
X172603000Y-66381750D01*
X172444250Y-66223000D01*
X171968000Y-66219928D01*
X171843518Y-66232188D01*
X171723820Y-66268498D01*
X171613506Y-66327463D01*
X171516815Y-66406815D01*
X171437463Y-66503506D01*
X171378498Y-66613820D01*
X171342188Y-66733518D01*
X171329928Y-66858000D01*
X170685000Y-66858000D01*
X170685000Y-60033505D01*
X170694222Y-59939453D01*
X170711805Y-59881214D01*
X170740366Y-59827499D01*
X170778816Y-59780354D01*
X170825691Y-59741576D01*
X170879204Y-59712642D01*
X170937323Y-59694651D01*
X171029145Y-59685000D01*
X174021347Y-59685000D01*
X173926480Y-59748388D01*
G37*
%TD.AperFunction*%
D29*
X176497000Y-87128000D02*
X179452315Y-87128000D01*
X179417528Y-87138843D01*
X179301586Y-87382000D01*
X176497000Y-87382000D01*
X176497000Y-87402000D01*
X176243000Y-87402000D01*
X176243000Y-87382000D01*
X173433381Y-87382000D01*
X173395919Y-87276253D01*
X173322472Y-87138843D01*
X173287685Y-87128000D01*
X176243000Y-87128000D01*
X176243000Y-87108000D01*
X176497000Y-87108000D01*
X176497000Y-87128000D01*
%TA.AperFunction,Conductor*%
D30*
G36*
X176497000Y-87128000D02*
G01*
X179452315Y-87128000D01*
X179417528Y-87138843D01*
X179301586Y-87382000D01*
X176497000Y-87382000D01*
X176497000Y-87402000D01*
X176243000Y-87402000D01*
X176243000Y-87382000D01*
X173433381Y-87382000D01*
X173395919Y-87276253D01*
X173322472Y-87138843D01*
X173287685Y-87128000D01*
X176243000Y-87128000D01*
X176243000Y-87108000D01*
X176497000Y-87108000D01*
X176497000Y-87128000D01*
G37*
%TD.AperFunction*%
D29*
X179098000Y-70623000D02*
X179222000Y-70623000D01*
X179222000Y-70877000D01*
X179098000Y-70877000D01*
X179098000Y-70923750D01*
X179052000Y-70877750D01*
X179052000Y-70877000D01*
X178928000Y-70877000D01*
X178928000Y-70623000D01*
X179052000Y-70623000D01*
X179052000Y-70622250D01*
X179071250Y-70603000D01*
X179098000Y-70603000D01*
X179098000Y-70623000D01*
%TA.AperFunction,Conductor*%
D30*
G36*
X179098000Y-70623000D02*
G01*
X179222000Y-70623000D01*
X179222000Y-70877000D01*
X179098000Y-70877000D01*
X179098000Y-70923750D01*
X179052000Y-70877750D01*
X179052000Y-70877000D01*
X178928000Y-70877000D01*
X178928000Y-70623000D01*
X179052000Y-70623000D01*
X179052000Y-70622250D01*
X179071250Y-70603000D01*
X179098000Y-70603000D01*
X179098000Y-70623000D01*
G37*
%TD.AperFunction*%
D29*
X178247000Y-68639110D02*
X178247000Y-68760890D01*
X178160890Y-68847000D01*
X178039110Y-68847000D01*
X177953000Y-68760890D01*
X177953000Y-68639110D01*
X178039110Y-68553000D01*
X178160890Y-68553000D01*
X178247000Y-68639110D01*
%TA.AperFunction,Conductor*%
D30*
G36*
X178247000Y-68639110D02*
G01*
X178247000Y-68760890D01*
X178160890Y-68847000D01*
X178039110Y-68847000D01*
X177953000Y-68760890D01*
X177953000Y-68639110D01*
X178039110Y-68553000D01*
X178160890Y-68553000D01*
X178247000Y-68639110D01*
G37*
%TD.AperFunction*%
D29*
X185060547Y-59694222D02*
X185118786Y-59711805D01*
X185172501Y-59740366D01*
X185219646Y-59778816D01*
X185258424Y-59825691D01*
X185287358Y-59879204D01*
X185305349Y-59937323D01*
X185315000Y-60029145D01*
X185315000Y-63947632D01*
X185252962Y-63872038D01*
X185118387Y-63761595D01*
X184964851Y-63679528D01*
X184798255Y-63628992D01*
X184625001Y-63611928D01*
X183374999Y-63611928D01*
X183201745Y-63628992D01*
X183035149Y-63679528D01*
X182881613Y-63761595D01*
X182747038Y-63872038D01*
X182636595Y-64006613D01*
X182554528Y-64160149D01*
X182503992Y-64326745D01*
X182486928Y-64499999D01*
X182486928Y-65300001D01*
X182503992Y-65473255D01*
X182554528Y-65639851D01*
X182636595Y-65793387D01*
X182747038Y-65927962D01*
X182881613Y-66038405D01*
X183035149Y-66120472D01*
X183201745Y-66171008D01*
X183374999Y-66188072D01*
X184213270Y-66188072D01*
X184440010Y-66414813D01*
X184440010Y-66711928D01*
X183374999Y-66711928D01*
X183201745Y-66728992D01*
X183035149Y-66779528D01*
X182881613Y-66861595D01*
X182747038Y-66972038D01*
X182636595Y-67106613D01*
X182554528Y-67260149D01*
X182503992Y-67426745D01*
X182486928Y-67599999D01*
X182486928Y-67615000D01*
X181288072Y-67615000D01*
X181288072Y-67575000D01*
X181275812Y-67450518D01*
X181239502Y-67330820D01*
X181180537Y-67220506D01*
X181101185Y-67123815D01*
X181004494Y-67044463D01*
X180894180Y-66985498D01*
X180814624Y-66961365D01*
X180825812Y-66924482D01*
X180838072Y-66800000D01*
X180838072Y-66600000D01*
X180825812Y-66475518D01*
X180789502Y-66355820D01*
X180730537Y-66245506D01*
X180651185Y-66148815D01*
X180554494Y-66069463D01*
X180444180Y-66010498D01*
X180324482Y-65974188D01*
X180200000Y-65961928D01*
X180000000Y-65961928D01*
X179875518Y-65974188D01*
X179838635Y-65985376D01*
X179835000Y-65973393D01*
X179835000Y-65412322D01*
X179838676Y-65374999D01*
X179835000Y-65337676D01*
X179835000Y-65337667D01*
X179824003Y-65226014D01*
X179780546Y-65082753D01*
X179709974Y-64950724D01*
X179615001Y-64834999D01*
X179586002Y-64811200D01*
X179463803Y-64689001D01*
X179440001Y-64659999D01*
X179324276Y-64565026D01*
X179192247Y-64494454D01*
X179048986Y-64450997D01*
X178937333Y-64440000D01*
X178937322Y-64440000D01*
X178900000Y-64436324D01*
X178862678Y-64440000D01*
X178637322Y-64440000D01*
X178599999Y-64436324D01*
X178562676Y-64440000D01*
X178562667Y-64440000D01*
X178451014Y-64450997D01*
X178435053Y-64455839D01*
X178387768Y-64417033D01*
X179669802Y-63135000D01*
X179841788Y-63135000D01*
X180061067Y-63091383D01*
X180172774Y-63045112D01*
X180255820Y-63089502D01*
X180375518Y-63125812D01*
X180500000Y-63138072D01*
X180714250Y-63135000D01*
X180873000Y-62976250D01*
X180873000Y-62127000D01*
X181127000Y-62127000D01*
X181127000Y-62976250D01*
X181285750Y-63135000D01*
X181500000Y-63138072D01*
X181624482Y-63125812D01*
X181744180Y-63089502D01*
X181854494Y-63030537D01*
X181951185Y-62951185D01*
X182030537Y-62854494D01*
X182089502Y-62744180D01*
X182125812Y-62624482D01*
X182138072Y-62500000D01*
X182135000Y-62285750D01*
X181976250Y-62127000D01*
X181127000Y-62127000D01*
X180873000Y-62127000D01*
X180861974Y-62127000D01*
X180865000Y-62111788D01*
X180865000Y-61888212D01*
X180861974Y-61873000D01*
X180873000Y-61873000D01*
X180873000Y-60757000D01*
X181127000Y-60757000D01*
X181127000Y-61873000D01*
X181976250Y-61873000D01*
X182135000Y-61714250D01*
X182138072Y-61500000D01*
X182125812Y-61375518D01*
X182107454Y-61315000D01*
X182125812Y-61254482D01*
X182138072Y-61130000D01*
X182135000Y-60915750D01*
X181976250Y-60757000D01*
X181127000Y-60757000D01*
X180873000Y-60757000D01*
X180861974Y-60757000D01*
X180865000Y-60741788D01*
X180865000Y-60518212D01*
X180861974Y-60503000D01*
X180873000Y-60503000D01*
X180873000Y-60483000D01*
X181127000Y-60483000D01*
X181127000Y-60503000D01*
X181976250Y-60503000D01*
X182135000Y-60344250D01*
X182138072Y-60130000D01*
X182125812Y-60005518D01*
X182089502Y-59885820D01*
X182030537Y-59775506D01*
X181956261Y-59685000D01*
X184966495Y-59685000D01*
X185060547Y-59694222D01*
%TA.AperFunction,Conductor*%
D30*
G36*
X185060547Y-59694222D02*
G01*
X185118786Y-59711805D01*
X185172501Y-59740366D01*
X185219646Y-59778816D01*
X185258424Y-59825691D01*
X185287358Y-59879204D01*
X185305349Y-59937323D01*
X185315000Y-60029145D01*
X185315000Y-63947632D01*
X185252962Y-63872038D01*
X185118387Y-63761595D01*
X184964851Y-63679528D01*
X184798255Y-63628992D01*
X184625001Y-63611928D01*
X183374999Y-63611928D01*
X183201745Y-63628992D01*
X183035149Y-63679528D01*
X182881613Y-63761595D01*
X182747038Y-63872038D01*
X182636595Y-64006613D01*
X182554528Y-64160149D01*
X182503992Y-64326745D01*
X182486928Y-64499999D01*
X182486928Y-65300001D01*
X182503992Y-65473255D01*
X182554528Y-65639851D01*
X182636595Y-65793387D01*
X182747038Y-65927962D01*
X182881613Y-66038405D01*
X183035149Y-66120472D01*
X183201745Y-66171008D01*
X183374999Y-66188072D01*
X184213270Y-66188072D01*
X184440010Y-66414813D01*
X184440010Y-66711928D01*
X183374999Y-66711928D01*
X183201745Y-66728992D01*
X183035149Y-66779528D01*
X182881613Y-66861595D01*
X182747038Y-66972038D01*
X182636595Y-67106613D01*
X182554528Y-67260149D01*
X182503992Y-67426745D01*
X182486928Y-67599999D01*
X182486928Y-67615000D01*
X181288072Y-67615000D01*
X181288072Y-67575000D01*
X181275812Y-67450518D01*
X181239502Y-67330820D01*
X181180537Y-67220506D01*
X181101185Y-67123815D01*
X181004494Y-67044463D01*
X180894180Y-66985498D01*
X180814624Y-66961365D01*
X180825812Y-66924482D01*
X180838072Y-66800000D01*
X180838072Y-66600000D01*
X180825812Y-66475518D01*
X180789502Y-66355820D01*
X180730537Y-66245506D01*
X180651185Y-66148815D01*
X180554494Y-66069463D01*
X180444180Y-66010498D01*
X180324482Y-65974188D01*
X180200000Y-65961928D01*
X180000000Y-65961928D01*
X179875518Y-65974188D01*
X179838635Y-65985376D01*
X179835000Y-65973393D01*
X179835000Y-65412322D01*
X179838676Y-65374999D01*
X179835000Y-65337676D01*
X179835000Y-65337667D01*
X179824003Y-65226014D01*
X179780546Y-65082753D01*
X179709974Y-64950724D01*
X179615001Y-64834999D01*
X179586002Y-64811200D01*
X179463803Y-64689001D01*
X179440001Y-64659999D01*
X179324276Y-64565026D01*
X179192247Y-64494454D01*
X179048986Y-64450997D01*
X178937333Y-64440000D01*
X178937322Y-64440000D01*
X178900000Y-64436324D01*
X178862678Y-64440000D01*
X178637322Y-64440000D01*
X178599999Y-64436324D01*
X178562676Y-64440000D01*
X178562667Y-64440000D01*
X178451014Y-64450997D01*
X178435053Y-64455839D01*
X178387768Y-64417033D01*
X179669802Y-63135000D01*
X179841788Y-63135000D01*
X180061067Y-63091383D01*
X180172774Y-63045112D01*
X180255820Y-63089502D01*
X180375518Y-63125812D01*
X180500000Y-63138072D01*
X180714250Y-63135000D01*
X180873000Y-62976250D01*
X180873000Y-62127000D01*
X181127000Y-62127000D01*
X181127000Y-62976250D01*
X181285750Y-63135000D01*
X181500000Y-63138072D01*
X181624482Y-63125812D01*
X181744180Y-63089502D01*
X181854494Y-63030537D01*
X181951185Y-62951185D01*
X182030537Y-62854494D01*
X182089502Y-62744180D01*
X182125812Y-62624482D01*
X182138072Y-62500000D01*
X182135000Y-62285750D01*
X181976250Y-62127000D01*
X181127000Y-62127000D01*
X180873000Y-62127000D01*
X180861974Y-62127000D01*
X180865000Y-62111788D01*
X180865000Y-61888212D01*
X180861974Y-61873000D01*
X180873000Y-61873000D01*
X180873000Y-60757000D01*
X181127000Y-60757000D01*
X181127000Y-61873000D01*
X181976250Y-61873000D01*
X182135000Y-61714250D01*
X182138072Y-61500000D01*
X182125812Y-61375518D01*
X182107454Y-61315000D01*
X182125812Y-61254482D01*
X182138072Y-61130000D01*
X182135000Y-60915750D01*
X181976250Y-60757000D01*
X181127000Y-60757000D01*
X180873000Y-60757000D01*
X180861974Y-60757000D01*
X180865000Y-60741788D01*
X180865000Y-60518212D01*
X180861974Y-60503000D01*
X180873000Y-60503000D01*
X180873000Y-60483000D01*
X181127000Y-60483000D01*
X181127000Y-60503000D01*
X181976250Y-60503000D01*
X182135000Y-60344250D01*
X182138072Y-60130000D01*
X182125812Y-60005518D01*
X182089502Y-59885820D01*
X182030537Y-59775506D01*
X181956261Y-59685000D01*
X184966495Y-59685000D01*
X185060547Y-59694222D01*
G37*
%TD.AperFunction*%
%TD*%
M02*
