%TF.GenerationSoftware,KiCad,Pcbnew,(5.1.9-0-10_14)*%
%TF.CreationDate,2021-04-19T09:47:37+01:00*%
%TF.ProjectId,Shelly,5368656c-6c79-42e6-9b69-6361645f7063,rev?*%
%TF.SameCoordinates,Original*%
%TF.FileFunction,Copper,L2,Bot*%
%TF.FilePolarity,Positive*%
%FSLAX46Y46*%
G04 Gerber Fmt 4.6, Leading zero omitted, Abs format (unit mm)*
G04 Created by KiCad (PCBNEW (5.1.9-0-10_14)) date 2021-04-19 09:47:37*
%MOMM*%
%LPD*%
G01*
G04 APERTURE LIST*
%TA.AperFunction,ComponentPad*%
%ADD10C,1.700000*%
%TD*%
%TA.AperFunction,ComponentPad*%
%ADD11C,2.000000*%
%TD*%
%TA.AperFunction,ComponentPad*%
%ADD12C,0.600000*%
%TD*%
%TA.AperFunction,ComponentPad*%
%ADD13C,1.524000*%
%TD*%
%TA.AperFunction,ComponentPad*%
%ADD14O,1.000000X1.000000*%
%TD*%
%TA.AperFunction,ComponentPad*%
%ADD15R,1.000000X1.000000*%
%TD*%
%TA.AperFunction,ComponentPad*%
%ADD16O,1.700000X1.700000*%
%TD*%
%TA.AperFunction,ComponentPad*%
%ADD17R,1.700000X1.700000*%
%TD*%
%TA.AperFunction,SMDPad,CuDef*%
%ADD18C,1.700000*%
%TD*%
%TA.AperFunction,ComponentPad*%
%ADD19R,1.524000X1.524000*%
%TD*%
%TA.AperFunction,ViaPad*%
%ADD20C,0.800000*%
%TD*%
%TA.AperFunction,Conductor*%
%ADD21C,0.250000*%
%TD*%
%TA.AperFunction,Conductor*%
%ADD22C,0.254000*%
%TD*%
%TA.AperFunction,Conductor*%
%ADD23C,0.100000*%
%TD*%
G04 APERTURE END LIST*
D10*
%TO.P,J4,S1*%
%TO.N,GND*%
X180325000Y-87910000D03*
X171675000Y-87910000D03*
D11*
X180325000Y-83730000D03*
X171675000Y-83730000D03*
D12*
X178890000Y-84210000D03*
X173110000Y-84210000D03*
%TD*%
%TO.P,R1,2*%
%TO.N,GND*%
%TA.AperFunction,SMDPad,CuDef*%
G36*
G01*
X174375000Y-87850000D02*
X175625000Y-87850000D01*
G75*
G02*
X175875000Y-88100000I0J-250000D01*
G01*
X175875000Y-88900000D01*
G75*
G02*
X175625000Y-89150000I-250000J0D01*
G01*
X174375000Y-89150000D01*
G75*
G02*
X174125000Y-88900000I0J250000D01*
G01*
X174125000Y-88100000D01*
G75*
G02*
X174375000Y-87850000I250000J0D01*
G01*
G37*
%TD.AperFunction*%
%TO.P,R1,1*%
%TO.N,Net-(J4-PadA5)*%
%TA.AperFunction,SMDPad,CuDef*%
G36*
G01*
X174375000Y-84750000D02*
X175625000Y-84750000D01*
G75*
G02*
X175875000Y-85000000I0J-250000D01*
G01*
X175875000Y-85800000D01*
G75*
G02*
X175625000Y-86050000I-250000J0D01*
G01*
X174375000Y-86050000D01*
G75*
G02*
X174125000Y-85800000I0J250000D01*
G01*
X174125000Y-85000000D01*
G75*
G02*
X174375000Y-84750000I250000J0D01*
G01*
G37*
%TD.AperFunction*%
%TD*%
D13*
%TO.P,U1,21*%
%TO.N,GND*%
X179075000Y-69125000D03*
%TD*%
D11*
%TO.P,SW1,1*%
%TO.N,SHDN*%
X179400000Y-75800000D03*
%TO.P,SW1,2*%
%TO.N,GND*%
X179400000Y-80300000D03*
%TO.P,SW1,1*%
%TO.N,SHDN*%
X172900000Y-75800000D03*
%TO.P,SW1,2*%
%TO.N,GND*%
X172900000Y-80300000D03*
%TD*%
D14*
%TO.P,J3,6*%
%TO.N,TXD*%
X174650000Y-62000000D03*
%TO.P,J3,5*%
%TO.N,RXD*%
X175920000Y-62000000D03*
%TO.P,J3,4*%
%TO.N,+3V3*%
X177190000Y-62000000D03*
%TO.P,J3,3*%
%TO.N,RST*%
X178460000Y-62000000D03*
%TO.P,J3,2*%
%TO.N,GPIO0*%
X179730000Y-62000000D03*
D15*
%TO.P,J3,1*%
%TO.N,GND*%
X181000000Y-62000000D03*
%TD*%
D14*
%TO.P,J2,6*%
%TO.N,TXD*%
X174650000Y-60630000D03*
%TO.P,J2,5*%
%TO.N,RXD*%
X175920000Y-60630000D03*
%TO.P,J2,4*%
%TO.N,+3V3*%
X177190000Y-60630000D03*
%TO.P,J2,3*%
%TO.N,RST*%
X178460000Y-60630000D03*
%TO.P,J2,2*%
%TO.N,GPIO0*%
X179730000Y-60630000D03*
D15*
%TO.P,J2,1*%
%TO.N,GND*%
X181000000Y-60630000D03*
%TD*%
D16*
%TO.P,J1,5*%
%TO.N,TXD*%
X184000000Y-76840000D03*
%TO.P,J1,4*%
%TO.N,RXD*%
X184000000Y-79380000D03*
%TO.P,J1,3*%
%TO.N,+3V3*%
X184000000Y-81920000D03*
%TO.P,J1,2*%
%TO.N,GPIO0*%
X184000000Y-84460000D03*
D17*
%TO.P,J1,1*%
%TO.N,GND*%
X184000000Y-87000000D03*
%TD*%
%TO.P,R2,2*%
%TO.N,Net-(J4-PadB5)*%
%TA.AperFunction,SMDPad,CuDef*%
G36*
G01*
X178625000Y-86050000D02*
X177375000Y-86050000D01*
G75*
G02*
X177125000Y-85800000I0J250000D01*
G01*
X177125000Y-85000000D01*
G75*
G02*
X177375000Y-84750000I250000J0D01*
G01*
X178625000Y-84750000D01*
G75*
G02*
X178875000Y-85000000I0J-250000D01*
G01*
X178875000Y-85800000D01*
G75*
G02*
X178625000Y-86050000I-250000J0D01*
G01*
G37*
%TD.AperFunction*%
%TO.P,R2,1*%
%TO.N,GND*%
%TA.AperFunction,SMDPad,CuDef*%
G36*
G01*
X178625000Y-89150000D02*
X177375000Y-89150000D01*
G75*
G02*
X177125000Y-88900000I0J250000D01*
G01*
X177125000Y-88100000D01*
G75*
G02*
X177375000Y-87850000I250000J0D01*
G01*
X178625000Y-87850000D01*
G75*
G02*
X178875000Y-88100000I0J-250000D01*
G01*
X178875000Y-88900000D01*
G75*
G02*
X178625000Y-89150000I-250000J0D01*
G01*
G37*
%TD.AperFunction*%
%TD*%
D18*
%TO.P,M1,1*%
%TO.N,SHDN*%
X172730000Y-72700000D03*
%TO.P,M1,4*%
%TO.N,+3V3*%
X172730000Y-65080000D03*
D19*
%TO.P,M1,3*%
%TO.N,GND*%
X172730000Y-67620000D03*
D18*
%TO.P,M1,2*%
%TO.N,VBUS*%
X172730000Y-70160000D03*
%TD*%
D20*
%TO.N,GND*%
X181900000Y-64800000D03*
%TO.N,VBUS*%
X173748442Y-71276878D03*
X177424320Y-65769746D03*
%TO.N,RXD*%
X175925010Y-68023022D03*
X175900000Y-64200000D03*
%TO.N,+3V3*%
X179100000Y-72500000D03*
%TO.N,GPIO0*%
X175500561Y-66374119D03*
%TO.N,TXD*%
X177715426Y-72140745D03*
%TO.N,Net-(C1-Pad1)*%
X175925984Y-70300000D03*
X178800160Y-64825160D03*
%TO.N,Net-(J4-PadA7)*%
X176800000Y-81200000D03*
X174944906Y-81143496D03*
%TO.N,Net-(J4-PadA6)*%
X177667839Y-80300000D03*
X175419742Y-80263409D03*
%TO.N,Net-(J4-PadA5)*%
X174325010Y-81928195D03*
%TO.N,Net-(J4-PadB5)*%
X178600000Y-81714998D03*
%TD*%
D21*
%TO.N,GND*%
X181000000Y-62000000D02*
X181000000Y-60630000D01*
X171254999Y-62803999D02*
X171254999Y-67454999D01*
X174253999Y-59804999D02*
X171254999Y-62803999D01*
X180174999Y-59804999D02*
X174253999Y-59804999D01*
X181000000Y-60630000D02*
X180174999Y-59804999D01*
X171420000Y-67620000D02*
X172730000Y-67620000D01*
X171254999Y-67454999D02*
X171420000Y-67620000D01*
%TO.N,VBUS*%
X172730000Y-70160000D02*
X173748442Y-71178442D01*
X173748442Y-71178442D02*
X173748442Y-71276878D01*
X174199978Y-66601698D02*
X175152559Y-65649117D01*
X174199978Y-68690022D02*
X174199978Y-66601698D01*
X172730000Y-70160000D02*
X174199978Y-68690022D01*
X175152559Y-65649117D02*
X177303691Y-65649117D01*
X177303691Y-65649117D02*
X177424320Y-65769746D01*
%TO.N,RXD*%
X175920000Y-62000000D02*
X175920000Y-60630000D01*
X177099978Y-73799978D02*
X176650994Y-73350994D01*
X184000000Y-79380000D02*
X182350011Y-77730011D01*
X176650994Y-73350994D02*
X176650994Y-68749006D01*
X180236389Y-73799978D02*
X177099978Y-73799978D01*
X182350011Y-75913600D02*
X180236389Y-73799978D01*
X176650994Y-68749006D02*
X175925010Y-68023022D01*
X182350011Y-77730011D02*
X182350011Y-75913600D01*
X175900000Y-62020000D02*
X175920000Y-62000000D01*
X175900000Y-64200000D02*
X175900000Y-62020000D01*
%TO.N,+3V3*%
X177190000Y-62000000D02*
X177190000Y-60630000D01*
X177190000Y-62000000D02*
X177190000Y-63990000D01*
X179100000Y-72500000D02*
X180600000Y-72500000D01*
X184664999Y-75664999D02*
X185175001Y-76175001D01*
X180600000Y-72500000D02*
X183764999Y-75664999D01*
X183764999Y-75664999D02*
X184664999Y-75664999D01*
X185175001Y-80744999D02*
X184000000Y-81920000D01*
X185175001Y-76175001D02*
X185175001Y-80744999D01*
X177190000Y-64510000D02*
X177110000Y-64590000D01*
X177190000Y-63990000D02*
X177190000Y-64510000D01*
X172730000Y-65080000D02*
X176100000Y-65080000D01*
X176100000Y-65080000D02*
X176590000Y-64590000D01*
X176590000Y-64590000D02*
X177110000Y-64590000D01*
X177110000Y-64590000D02*
X177710000Y-63990000D01*
X177710000Y-63990000D02*
X179290000Y-63990000D01*
X179525162Y-64225162D02*
X179525162Y-65378317D01*
X179290000Y-63990000D02*
X179525162Y-64225162D01*
X179525162Y-65378317D02*
X177300000Y-67603479D01*
X177300000Y-70700000D02*
X179100000Y-72500000D01*
X177300000Y-67603479D02*
X177300000Y-70700000D01*
%TO.N,GPIO0*%
X179730000Y-62000000D02*
X179730000Y-60630000D01*
X175149989Y-74249989D02*
X180049989Y-74249989D01*
X182600000Y-79040000D02*
X182600000Y-83060000D01*
X181900000Y-78340000D02*
X182600000Y-79040000D01*
X182600000Y-83060000D02*
X184000000Y-84460000D01*
X175500561Y-66374119D02*
X174649989Y-67224691D01*
X181900000Y-76100000D02*
X181900000Y-78340000D01*
X180049989Y-74249989D02*
X181900000Y-76100000D01*
X174649989Y-67224691D02*
X174649989Y-73749989D01*
X174649989Y-73749989D02*
X175149989Y-74249989D01*
%TO.N,TXD*%
X174650000Y-62000000D02*
X174650000Y-60630000D01*
X178799682Y-73225001D02*
X177715426Y-72140745D01*
X184000000Y-76840000D02*
X180385001Y-73225001D01*
X180385001Y-73225001D02*
X178799682Y-73225001D01*
%TO.N,RST*%
X178460000Y-62000000D02*
X178460000Y-60630000D01*
%TO.N,Net-(C1-Pad1)*%
X178800160Y-65466908D02*
X178800160Y-64825160D01*
X176969047Y-67298021D02*
X178800160Y-65466908D01*
X175100000Y-69474016D02*
X175100000Y-67775030D01*
X175100000Y-67775030D02*
X175577009Y-67298021D01*
X175577009Y-67298021D02*
X176969047Y-67298021D01*
X175925984Y-70300000D02*
X175100000Y-69474016D01*
%TO.N,Net-(J4-PadA7)*%
X176800000Y-81200000D02*
X175001410Y-81200000D01*
X175001410Y-81200000D02*
X174944906Y-81143496D01*
%TO.N,Net-(J4-PadA6)*%
X175456333Y-80300000D02*
X175419742Y-80263409D01*
X177667839Y-80300000D02*
X175456333Y-80300000D01*
%TO.N,Net-(J4-PadA5)*%
X175000000Y-85400000D02*
X175000000Y-82603185D01*
X175000000Y-82603185D02*
X174325010Y-81928195D01*
%TO.N,Net-(J4-PadB5)*%
X178200001Y-82114997D02*
X178200001Y-85199999D01*
X178200001Y-85199999D02*
X178000000Y-85400000D01*
X178600000Y-81714998D02*
X178200001Y-82114997D01*
%TO.N,SHDN*%
X172730000Y-75630000D02*
X172900000Y-75800000D01*
X172730000Y-72700000D02*
X172730000Y-75630000D01*
X172900000Y-75800000D02*
X173400000Y-75800000D01*
X173400000Y-75800000D02*
X174500000Y-74700000D01*
X178300000Y-74700000D02*
X179400000Y-75800000D01*
X174500000Y-74700000D02*
X178300000Y-74700000D01*
%TD*%
D22*
%TO.N,GND*%
X173926480Y-59748388D02*
X173768388Y-59906480D01*
X173644176Y-60092376D01*
X173558617Y-60298933D01*
X173515000Y-60518212D01*
X173515000Y-60741788D01*
X173558617Y-60961067D01*
X173644176Y-61167624D01*
X173742650Y-61315000D01*
X173644176Y-61462376D01*
X173558617Y-61668933D01*
X173515000Y-61888212D01*
X173515000Y-62111788D01*
X173558617Y-62331067D01*
X173644176Y-62537624D01*
X173768388Y-62723520D01*
X173926480Y-62881612D01*
X174112376Y-63005824D01*
X174318933Y-63091383D01*
X174538212Y-63135000D01*
X174761788Y-63135000D01*
X174981067Y-63091383D01*
X175140001Y-63025550D01*
X175140000Y-63496289D01*
X175096063Y-63540226D01*
X174982795Y-63709744D01*
X174904774Y-63898102D01*
X174865000Y-64098061D01*
X174865000Y-64301939D01*
X174868593Y-64320000D01*
X174008178Y-64320000D01*
X173883475Y-64133368D01*
X173676632Y-63926525D01*
X173433411Y-63764010D01*
X173163158Y-63652068D01*
X172876260Y-63595000D01*
X172583740Y-63595000D01*
X172296842Y-63652068D01*
X172026589Y-63764010D01*
X171783368Y-63926525D01*
X171576525Y-64133368D01*
X171414010Y-64376589D01*
X171302068Y-64646842D01*
X171245000Y-64933740D01*
X171245000Y-65226260D01*
X171302068Y-65513158D01*
X171414010Y-65783411D01*
X171576525Y-66026632D01*
X171783368Y-66233475D01*
X171800824Y-66245139D01*
X171723820Y-66268498D01*
X171613506Y-66327463D01*
X171516815Y-66406815D01*
X171437463Y-66503506D01*
X171378498Y-66613820D01*
X171342188Y-66733518D01*
X171329928Y-66858000D01*
X171333000Y-67334250D01*
X171491750Y-67493000D01*
X172603000Y-67493000D01*
X172603000Y-67473000D01*
X172857000Y-67473000D01*
X172857000Y-67493000D01*
X172877000Y-67493000D01*
X172877000Y-67747000D01*
X172857000Y-67747000D01*
X172857000Y-67767000D01*
X172603000Y-67767000D01*
X172603000Y-67747000D01*
X171491750Y-67747000D01*
X171333000Y-67905750D01*
X171329928Y-68382000D01*
X171342188Y-68506482D01*
X171378498Y-68626180D01*
X171437463Y-68736494D01*
X171516815Y-68833185D01*
X171613506Y-68912537D01*
X171723820Y-68971502D01*
X171800824Y-68994861D01*
X171783368Y-69006525D01*
X171576525Y-69213368D01*
X171414010Y-69456589D01*
X171302068Y-69726842D01*
X171245000Y-70013740D01*
X171245000Y-70306260D01*
X171302068Y-70593158D01*
X171414010Y-70863411D01*
X171576525Y-71106632D01*
X171783368Y-71313475D01*
X171957760Y-71430000D01*
X171783368Y-71546525D01*
X171576525Y-71753368D01*
X171414010Y-71996589D01*
X171302068Y-72266842D01*
X171245000Y-72553740D01*
X171245000Y-72846260D01*
X171302068Y-73133158D01*
X171414010Y-73403411D01*
X171576525Y-73646632D01*
X171783368Y-73853475D01*
X171970000Y-73978179D01*
X171970001Y-74455008D01*
X171857748Y-74530013D01*
X171630013Y-74757748D01*
X171451082Y-75025537D01*
X171327832Y-75323088D01*
X171265000Y-75638967D01*
X171265000Y-75961033D01*
X171327832Y-76276912D01*
X171451082Y-76574463D01*
X171630013Y-76842252D01*
X171857748Y-77069987D01*
X172125537Y-77248918D01*
X172423088Y-77372168D01*
X172738967Y-77435000D01*
X173061033Y-77435000D01*
X173376912Y-77372168D01*
X173674463Y-77248918D01*
X173942252Y-77069987D01*
X174169987Y-76842252D01*
X174348918Y-76574463D01*
X174472168Y-76276912D01*
X174535000Y-75961033D01*
X174535000Y-75739802D01*
X174814802Y-75460000D01*
X177800599Y-75460000D01*
X177765000Y-75638967D01*
X177765000Y-75961033D01*
X177827832Y-76276912D01*
X177951082Y-76574463D01*
X178130013Y-76842252D01*
X178357748Y-77069987D01*
X178625537Y-77248918D01*
X178923088Y-77372168D01*
X179238967Y-77435000D01*
X179561033Y-77435000D01*
X179876912Y-77372168D01*
X180174463Y-77248918D01*
X180442252Y-77069987D01*
X180669987Y-76842252D01*
X180848918Y-76574463D01*
X180972168Y-76276912D01*
X180977136Y-76251938D01*
X181140000Y-76414802D01*
X181140001Y-78302668D01*
X181136324Y-78340000D01*
X181140001Y-78377333D01*
X181150998Y-78488986D01*
X181154339Y-78499999D01*
X181194454Y-78632246D01*
X181265026Y-78764276D01*
X181336201Y-78851002D01*
X181360000Y-78880001D01*
X181388997Y-78903799D01*
X181840000Y-79354802D01*
X181840001Y-83022668D01*
X181836324Y-83060000D01*
X181840001Y-83097333D01*
X181841497Y-83112519D01*
X181817795Y-83043912D01*
X181724814Y-82869956D01*
X181460413Y-82774192D01*
X180504605Y-83730000D01*
X181460413Y-84685808D01*
X181724814Y-84590044D01*
X181865704Y-84300429D01*
X181947384Y-83988892D01*
X181966718Y-83667405D01*
X181933522Y-83425337D01*
X181965026Y-83484276D01*
X182019289Y-83550395D01*
X182060000Y-83600001D01*
X182088998Y-83623799D01*
X182558791Y-84093592D01*
X182515000Y-84313740D01*
X182515000Y-84606260D01*
X182572068Y-84893158D01*
X182684010Y-85163411D01*
X182846525Y-85406632D01*
X182978380Y-85538487D01*
X182905820Y-85560498D01*
X182795506Y-85619463D01*
X182698815Y-85698815D01*
X182619463Y-85795506D01*
X182560498Y-85905820D01*
X182524188Y-86025518D01*
X182511928Y-86150000D01*
X182515000Y-86714250D01*
X182673750Y-86873000D01*
X183873000Y-86873000D01*
X183873000Y-86853000D01*
X184127000Y-86853000D01*
X184127000Y-86873000D01*
X184147000Y-86873000D01*
X184147000Y-87127000D01*
X184127000Y-87127000D01*
X184127000Y-88326250D01*
X184285750Y-88485000D01*
X184850000Y-88488072D01*
X184974482Y-88475812D01*
X185094180Y-88439502D01*
X185204494Y-88380537D01*
X185301185Y-88301185D01*
X185315001Y-88284350D01*
X185315001Y-88966485D01*
X185305778Y-89060546D01*
X185288194Y-89118787D01*
X185259635Y-89172500D01*
X185221183Y-89219646D01*
X185174310Y-89258423D01*
X185120796Y-89287358D01*
X185062677Y-89305349D01*
X184970855Y-89315000D01*
X180806089Y-89315000D01*
X180958747Y-89260919D01*
X181096157Y-89187472D01*
X181173792Y-88938397D01*
X180325000Y-88089605D01*
X180310858Y-88103748D01*
X180131253Y-87924143D01*
X180145395Y-87910000D01*
X180504605Y-87910000D01*
X181353397Y-88758792D01*
X181602472Y-88681157D01*
X181728371Y-88417117D01*
X181800339Y-88133589D01*
X181815165Y-87850000D01*
X182511928Y-87850000D01*
X182524188Y-87974482D01*
X182560498Y-88094180D01*
X182619463Y-88204494D01*
X182698815Y-88301185D01*
X182795506Y-88380537D01*
X182905820Y-88439502D01*
X183025518Y-88475812D01*
X183150000Y-88488072D01*
X183714250Y-88485000D01*
X183873000Y-88326250D01*
X183873000Y-87127000D01*
X182673750Y-87127000D01*
X182515000Y-87285750D01*
X182511928Y-87850000D01*
X181815165Y-87850000D01*
X181815611Y-87841469D01*
X181773599Y-87551981D01*
X181675919Y-87276253D01*
X181602472Y-87138843D01*
X181353397Y-87061208D01*
X180504605Y-87910000D01*
X180145395Y-87910000D01*
X179296603Y-87061208D01*
X179047528Y-87138843D01*
X179005905Y-87226136D01*
X178999482Y-87224188D01*
X178875000Y-87211928D01*
X178285750Y-87215000D01*
X178127000Y-87373750D01*
X178127000Y-88373000D01*
X178147000Y-88373000D01*
X178147000Y-88627000D01*
X178127000Y-88627000D01*
X178127000Y-88647000D01*
X177873000Y-88647000D01*
X177873000Y-88627000D01*
X176648750Y-88627000D01*
X176500000Y-88775750D01*
X176351250Y-88627000D01*
X175127000Y-88627000D01*
X175127000Y-88647000D01*
X174873000Y-88647000D01*
X174873000Y-88627000D01*
X173648750Y-88627000D01*
X173490000Y-88785750D01*
X173486928Y-89150000D01*
X173499188Y-89274482D01*
X173511479Y-89315000D01*
X172156089Y-89315000D01*
X172308747Y-89260919D01*
X172446157Y-89187472D01*
X172523792Y-88938397D01*
X171675000Y-88089605D01*
X171660858Y-88103748D01*
X171481253Y-87924143D01*
X171495395Y-87910000D01*
X171854605Y-87910000D01*
X172703397Y-88758792D01*
X172952472Y-88681157D01*
X173078371Y-88417117D01*
X173150339Y-88133589D01*
X173165165Y-87850000D01*
X173486928Y-87850000D01*
X173490000Y-88214250D01*
X173648750Y-88373000D01*
X174873000Y-88373000D01*
X174873000Y-87373750D01*
X175127000Y-87373750D01*
X175127000Y-88373000D01*
X176351250Y-88373000D01*
X176500000Y-88224250D01*
X176648750Y-88373000D01*
X177873000Y-88373000D01*
X177873000Y-87373750D01*
X177714250Y-87215000D01*
X177125000Y-87211928D01*
X177000518Y-87224188D01*
X176880820Y-87260498D01*
X176770506Y-87319463D01*
X176673815Y-87398815D01*
X176594463Y-87495506D01*
X176535498Y-87605820D01*
X176500000Y-87722841D01*
X176464502Y-87605820D01*
X176405537Y-87495506D01*
X176326185Y-87398815D01*
X176229494Y-87319463D01*
X176119180Y-87260498D01*
X175999482Y-87224188D01*
X175875000Y-87211928D01*
X175285750Y-87215000D01*
X175127000Y-87373750D01*
X174873000Y-87373750D01*
X174714250Y-87215000D01*
X174125000Y-87211928D01*
X174000518Y-87224188D01*
X173880820Y-87260498D01*
X173770506Y-87319463D01*
X173673815Y-87398815D01*
X173594463Y-87495506D01*
X173535498Y-87605820D01*
X173499188Y-87725518D01*
X173486928Y-87850000D01*
X173165165Y-87850000D01*
X173165611Y-87841469D01*
X173123599Y-87551981D01*
X173025919Y-87276253D01*
X172952472Y-87138843D01*
X172703397Y-87061208D01*
X171854605Y-87910000D01*
X171495395Y-87910000D01*
X171481253Y-87895858D01*
X171660858Y-87716253D01*
X171675000Y-87730395D01*
X172523792Y-86881603D01*
X179476208Y-86881603D01*
X180325000Y-87730395D01*
X181173792Y-86881603D01*
X181096157Y-86632528D01*
X180832117Y-86506629D01*
X180548589Y-86434661D01*
X180256469Y-86419389D01*
X179966981Y-86461401D01*
X179691253Y-86559081D01*
X179553843Y-86632528D01*
X179476208Y-86881603D01*
X172523792Y-86881603D01*
X172446157Y-86632528D01*
X172182117Y-86506629D01*
X171898589Y-86434661D01*
X171606469Y-86419389D01*
X171316981Y-86461401D01*
X171041253Y-86559081D01*
X170903843Y-86632528D01*
X170826209Y-86881601D01*
X170710104Y-86765496D01*
X170685000Y-86790600D01*
X170685000Y-84899608D01*
X170719193Y-84865415D01*
X170814956Y-85129814D01*
X171104571Y-85270704D01*
X171416108Y-85352384D01*
X171737595Y-85371718D01*
X172056675Y-85327961D01*
X172361088Y-85222795D01*
X172535044Y-85129814D01*
X172628885Y-84870723D01*
X172632500Y-84867108D01*
X172657660Y-84892268D01*
X172665575Y-85037763D01*
X172835603Y-85108562D01*
X173016176Y-85144828D01*
X173200355Y-85145171D01*
X173381061Y-85109574D01*
X173486928Y-85065953D01*
X173486928Y-85800000D01*
X173503992Y-85973254D01*
X173554528Y-86139850D01*
X173636595Y-86293386D01*
X173747038Y-86427962D01*
X173881614Y-86538405D01*
X174035150Y-86620472D01*
X174201746Y-86671008D01*
X174375000Y-86688072D01*
X175625000Y-86688072D01*
X175798254Y-86671008D01*
X175964850Y-86620472D01*
X176118386Y-86538405D01*
X176252962Y-86427962D01*
X176363405Y-86293386D01*
X176445472Y-86139850D01*
X176496008Y-85973254D01*
X176500000Y-85932722D01*
X176503992Y-85973254D01*
X176554528Y-86139850D01*
X176636595Y-86293386D01*
X176747038Y-86427962D01*
X176881614Y-86538405D01*
X177035150Y-86620472D01*
X177201746Y-86671008D01*
X177375000Y-86688072D01*
X178625000Y-86688072D01*
X178798254Y-86671008D01*
X178964850Y-86620472D01*
X179118386Y-86538405D01*
X179252962Y-86427962D01*
X179363405Y-86293386D01*
X179445472Y-86139850D01*
X179496008Y-85973254D01*
X179513072Y-85800000D01*
X179513072Y-85153221D01*
X179754571Y-85270704D01*
X180066108Y-85352384D01*
X180387595Y-85371718D01*
X180706675Y-85327961D01*
X181011088Y-85222795D01*
X181185044Y-85129814D01*
X181280808Y-84865413D01*
X180325000Y-83909605D01*
X180310858Y-83923748D01*
X180131253Y-83744143D01*
X180145395Y-83730000D01*
X180131253Y-83715858D01*
X180310858Y-83536253D01*
X180325000Y-83550395D01*
X181280808Y-82594587D01*
X181185044Y-82330186D01*
X180895429Y-82189296D01*
X180583892Y-82107616D01*
X180262405Y-82088282D01*
X179943325Y-82132039D01*
X179638912Y-82237205D01*
X179464956Y-82330186D01*
X179369193Y-82594585D01*
X179276659Y-82502051D01*
X179403937Y-82374772D01*
X179517205Y-82205254D01*
X179595226Y-82016896D01*
X179614318Y-81920911D01*
X179781675Y-81897961D01*
X180086088Y-81792795D01*
X180260044Y-81699814D01*
X180355808Y-81435413D01*
X179400000Y-80479605D01*
X179385858Y-80493748D01*
X179206253Y-80314143D01*
X179220395Y-80300000D01*
X179579605Y-80300000D01*
X180535413Y-81255808D01*
X180799814Y-81160044D01*
X180940704Y-80870429D01*
X181022384Y-80558892D01*
X181041718Y-80237405D01*
X180997961Y-79918325D01*
X180892795Y-79613912D01*
X180799814Y-79439956D01*
X180535413Y-79344192D01*
X179579605Y-80300000D01*
X179220395Y-80300000D01*
X178264587Y-79344192D01*
X178158053Y-79382778D01*
X177969737Y-79304774D01*
X177769778Y-79265000D01*
X177565900Y-79265000D01*
X177365941Y-79304774D01*
X177177583Y-79382795D01*
X177008065Y-79496063D01*
X176964128Y-79540000D01*
X176160044Y-79540000D01*
X176079516Y-79459472D01*
X175909998Y-79346204D01*
X175721640Y-79268183D01*
X175521681Y-79228409D01*
X175317803Y-79228409D01*
X175117844Y-79268183D01*
X174929486Y-79346204D01*
X174759968Y-79459472D01*
X174615805Y-79603635D01*
X174502537Y-79773153D01*
X174472696Y-79845194D01*
X174392795Y-79613912D01*
X174299814Y-79439956D01*
X174035413Y-79344192D01*
X173079605Y-80300000D01*
X173093748Y-80314143D01*
X172914143Y-80493748D01*
X172900000Y-80479605D01*
X171944192Y-81435413D01*
X172039956Y-81699814D01*
X172329571Y-81840704D01*
X172641108Y-81922384D01*
X172962595Y-81941718D01*
X173281675Y-81897961D01*
X173290010Y-81895081D01*
X173290010Y-82030134D01*
X173329784Y-82230093D01*
X173407805Y-82418451D01*
X173521073Y-82587969D01*
X173665236Y-82732132D01*
X173834754Y-82845400D01*
X174023112Y-82923421D01*
X174223071Y-82963195D01*
X174240001Y-82963195D01*
X174240000Y-84125224D01*
X174201746Y-84128992D01*
X174045065Y-84176520D01*
X174045171Y-84119645D01*
X174009574Y-83938939D01*
X173939408Y-83768649D01*
X173937763Y-83765575D01*
X173744541Y-83755064D01*
X173289605Y-84210000D01*
X173303748Y-84224143D01*
X173204566Y-84323324D01*
X173215704Y-84300429D01*
X173297384Y-83988892D01*
X173306719Y-83833676D01*
X173564936Y-83575459D01*
X173554425Y-83382237D01*
X173384397Y-83311438D01*
X173250959Y-83284639D01*
X173167795Y-83043912D01*
X173074814Y-82869956D01*
X172810413Y-82774192D01*
X171854605Y-83730000D01*
X171868748Y-83744143D01*
X171689143Y-83923748D01*
X171675000Y-83909605D01*
X171660858Y-83923748D01*
X171481253Y-83744143D01*
X171495395Y-83730000D01*
X171481253Y-83715858D01*
X171660858Y-83536253D01*
X171675000Y-83550395D01*
X172630808Y-82594587D01*
X172535044Y-82330186D01*
X172245429Y-82189296D01*
X171933892Y-82107616D01*
X171612405Y-82088282D01*
X171293325Y-82132039D01*
X170988912Y-82237205D01*
X170814956Y-82330186D01*
X170719193Y-82594585D01*
X170685000Y-82560392D01*
X170685000Y-80362595D01*
X171258282Y-80362595D01*
X171302039Y-80681675D01*
X171407205Y-80986088D01*
X171500186Y-81160044D01*
X171764587Y-81255808D01*
X172720395Y-80300000D01*
X171764587Y-79344192D01*
X171500186Y-79439956D01*
X171359296Y-79729571D01*
X171277616Y-80041108D01*
X171258282Y-80362595D01*
X170685000Y-80362595D01*
X170685000Y-79164587D01*
X171944192Y-79164587D01*
X172900000Y-80120395D01*
X173855808Y-79164587D01*
X178444192Y-79164587D01*
X179400000Y-80120395D01*
X180355808Y-79164587D01*
X180260044Y-78900186D01*
X179970429Y-78759296D01*
X179658892Y-78677616D01*
X179337405Y-78658282D01*
X179018325Y-78702039D01*
X178713912Y-78807205D01*
X178539956Y-78900186D01*
X178444192Y-79164587D01*
X173855808Y-79164587D01*
X173760044Y-78900186D01*
X173470429Y-78759296D01*
X173158892Y-78677616D01*
X172837405Y-78658282D01*
X172518325Y-78702039D01*
X172213912Y-78807205D01*
X172039956Y-78900186D01*
X171944192Y-79164587D01*
X170685000Y-79164587D01*
X170685000Y-60033505D01*
X170694222Y-59939453D01*
X170711805Y-59881214D01*
X170740366Y-59827499D01*
X170778816Y-59780354D01*
X170825691Y-59741576D01*
X170879204Y-59712642D01*
X170937323Y-59694651D01*
X171029145Y-59685000D01*
X174021347Y-59685000D01*
X173926480Y-59748388D01*
%TA.AperFunction,Conductor*%
D23*
G36*
X173926480Y-59748388D02*
G01*
X173768388Y-59906480D01*
X173644176Y-60092376D01*
X173558617Y-60298933D01*
X173515000Y-60518212D01*
X173515000Y-60741788D01*
X173558617Y-60961067D01*
X173644176Y-61167624D01*
X173742650Y-61315000D01*
X173644176Y-61462376D01*
X173558617Y-61668933D01*
X173515000Y-61888212D01*
X173515000Y-62111788D01*
X173558617Y-62331067D01*
X173644176Y-62537624D01*
X173768388Y-62723520D01*
X173926480Y-62881612D01*
X174112376Y-63005824D01*
X174318933Y-63091383D01*
X174538212Y-63135000D01*
X174761788Y-63135000D01*
X174981067Y-63091383D01*
X175140001Y-63025550D01*
X175140000Y-63496289D01*
X175096063Y-63540226D01*
X174982795Y-63709744D01*
X174904774Y-63898102D01*
X174865000Y-64098061D01*
X174865000Y-64301939D01*
X174868593Y-64320000D01*
X174008178Y-64320000D01*
X173883475Y-64133368D01*
X173676632Y-63926525D01*
X173433411Y-63764010D01*
X173163158Y-63652068D01*
X172876260Y-63595000D01*
X172583740Y-63595000D01*
X172296842Y-63652068D01*
X172026589Y-63764010D01*
X171783368Y-63926525D01*
X171576525Y-64133368D01*
X171414010Y-64376589D01*
X171302068Y-64646842D01*
X171245000Y-64933740D01*
X171245000Y-65226260D01*
X171302068Y-65513158D01*
X171414010Y-65783411D01*
X171576525Y-66026632D01*
X171783368Y-66233475D01*
X171800824Y-66245139D01*
X171723820Y-66268498D01*
X171613506Y-66327463D01*
X171516815Y-66406815D01*
X171437463Y-66503506D01*
X171378498Y-66613820D01*
X171342188Y-66733518D01*
X171329928Y-66858000D01*
X171333000Y-67334250D01*
X171491750Y-67493000D01*
X172603000Y-67493000D01*
X172603000Y-67473000D01*
X172857000Y-67473000D01*
X172857000Y-67493000D01*
X172877000Y-67493000D01*
X172877000Y-67747000D01*
X172857000Y-67747000D01*
X172857000Y-67767000D01*
X172603000Y-67767000D01*
X172603000Y-67747000D01*
X171491750Y-67747000D01*
X171333000Y-67905750D01*
X171329928Y-68382000D01*
X171342188Y-68506482D01*
X171378498Y-68626180D01*
X171437463Y-68736494D01*
X171516815Y-68833185D01*
X171613506Y-68912537D01*
X171723820Y-68971502D01*
X171800824Y-68994861D01*
X171783368Y-69006525D01*
X171576525Y-69213368D01*
X171414010Y-69456589D01*
X171302068Y-69726842D01*
X171245000Y-70013740D01*
X171245000Y-70306260D01*
X171302068Y-70593158D01*
X171414010Y-70863411D01*
X171576525Y-71106632D01*
X171783368Y-71313475D01*
X171957760Y-71430000D01*
X171783368Y-71546525D01*
X171576525Y-71753368D01*
X171414010Y-71996589D01*
X171302068Y-72266842D01*
X171245000Y-72553740D01*
X171245000Y-72846260D01*
X171302068Y-73133158D01*
X171414010Y-73403411D01*
X171576525Y-73646632D01*
X171783368Y-73853475D01*
X171970000Y-73978179D01*
X171970001Y-74455008D01*
X171857748Y-74530013D01*
X171630013Y-74757748D01*
X171451082Y-75025537D01*
X171327832Y-75323088D01*
X171265000Y-75638967D01*
X171265000Y-75961033D01*
X171327832Y-76276912D01*
X171451082Y-76574463D01*
X171630013Y-76842252D01*
X171857748Y-77069987D01*
X172125537Y-77248918D01*
X172423088Y-77372168D01*
X172738967Y-77435000D01*
X173061033Y-77435000D01*
X173376912Y-77372168D01*
X173674463Y-77248918D01*
X173942252Y-77069987D01*
X174169987Y-76842252D01*
X174348918Y-76574463D01*
X174472168Y-76276912D01*
X174535000Y-75961033D01*
X174535000Y-75739802D01*
X174814802Y-75460000D01*
X177800599Y-75460000D01*
X177765000Y-75638967D01*
X177765000Y-75961033D01*
X177827832Y-76276912D01*
X177951082Y-76574463D01*
X178130013Y-76842252D01*
X178357748Y-77069987D01*
X178625537Y-77248918D01*
X178923088Y-77372168D01*
X179238967Y-77435000D01*
X179561033Y-77435000D01*
X179876912Y-77372168D01*
X180174463Y-77248918D01*
X180442252Y-77069987D01*
X180669987Y-76842252D01*
X180848918Y-76574463D01*
X180972168Y-76276912D01*
X180977136Y-76251938D01*
X181140000Y-76414802D01*
X181140001Y-78302668D01*
X181136324Y-78340000D01*
X181140001Y-78377333D01*
X181150998Y-78488986D01*
X181154339Y-78499999D01*
X181194454Y-78632246D01*
X181265026Y-78764276D01*
X181336201Y-78851002D01*
X181360000Y-78880001D01*
X181388997Y-78903799D01*
X181840000Y-79354802D01*
X181840001Y-83022668D01*
X181836324Y-83060000D01*
X181840001Y-83097333D01*
X181841497Y-83112519D01*
X181817795Y-83043912D01*
X181724814Y-82869956D01*
X181460413Y-82774192D01*
X180504605Y-83730000D01*
X181460413Y-84685808D01*
X181724814Y-84590044D01*
X181865704Y-84300429D01*
X181947384Y-83988892D01*
X181966718Y-83667405D01*
X181933522Y-83425337D01*
X181965026Y-83484276D01*
X182019289Y-83550395D01*
X182060000Y-83600001D01*
X182088998Y-83623799D01*
X182558791Y-84093592D01*
X182515000Y-84313740D01*
X182515000Y-84606260D01*
X182572068Y-84893158D01*
X182684010Y-85163411D01*
X182846525Y-85406632D01*
X182978380Y-85538487D01*
X182905820Y-85560498D01*
X182795506Y-85619463D01*
X182698815Y-85698815D01*
X182619463Y-85795506D01*
X182560498Y-85905820D01*
X182524188Y-86025518D01*
X182511928Y-86150000D01*
X182515000Y-86714250D01*
X182673750Y-86873000D01*
X183873000Y-86873000D01*
X183873000Y-86853000D01*
X184127000Y-86853000D01*
X184127000Y-86873000D01*
X184147000Y-86873000D01*
X184147000Y-87127000D01*
X184127000Y-87127000D01*
X184127000Y-88326250D01*
X184285750Y-88485000D01*
X184850000Y-88488072D01*
X184974482Y-88475812D01*
X185094180Y-88439502D01*
X185204494Y-88380537D01*
X185301185Y-88301185D01*
X185315001Y-88284350D01*
X185315001Y-88966485D01*
X185305778Y-89060546D01*
X185288194Y-89118787D01*
X185259635Y-89172500D01*
X185221183Y-89219646D01*
X185174310Y-89258423D01*
X185120796Y-89287358D01*
X185062677Y-89305349D01*
X184970855Y-89315000D01*
X180806089Y-89315000D01*
X180958747Y-89260919D01*
X181096157Y-89187472D01*
X181173792Y-88938397D01*
X180325000Y-88089605D01*
X180310858Y-88103748D01*
X180131253Y-87924143D01*
X180145395Y-87910000D01*
X180504605Y-87910000D01*
X181353397Y-88758792D01*
X181602472Y-88681157D01*
X181728371Y-88417117D01*
X181800339Y-88133589D01*
X181815165Y-87850000D01*
X182511928Y-87850000D01*
X182524188Y-87974482D01*
X182560498Y-88094180D01*
X182619463Y-88204494D01*
X182698815Y-88301185D01*
X182795506Y-88380537D01*
X182905820Y-88439502D01*
X183025518Y-88475812D01*
X183150000Y-88488072D01*
X183714250Y-88485000D01*
X183873000Y-88326250D01*
X183873000Y-87127000D01*
X182673750Y-87127000D01*
X182515000Y-87285750D01*
X182511928Y-87850000D01*
X181815165Y-87850000D01*
X181815611Y-87841469D01*
X181773599Y-87551981D01*
X181675919Y-87276253D01*
X181602472Y-87138843D01*
X181353397Y-87061208D01*
X180504605Y-87910000D01*
X180145395Y-87910000D01*
X179296603Y-87061208D01*
X179047528Y-87138843D01*
X179005905Y-87226136D01*
X178999482Y-87224188D01*
X178875000Y-87211928D01*
X178285750Y-87215000D01*
X178127000Y-87373750D01*
X178127000Y-88373000D01*
X178147000Y-88373000D01*
X178147000Y-88627000D01*
X178127000Y-88627000D01*
X178127000Y-88647000D01*
X177873000Y-88647000D01*
X177873000Y-88627000D01*
X176648750Y-88627000D01*
X176500000Y-88775750D01*
X176351250Y-88627000D01*
X175127000Y-88627000D01*
X175127000Y-88647000D01*
X174873000Y-88647000D01*
X174873000Y-88627000D01*
X173648750Y-88627000D01*
X173490000Y-88785750D01*
X173486928Y-89150000D01*
X173499188Y-89274482D01*
X173511479Y-89315000D01*
X172156089Y-89315000D01*
X172308747Y-89260919D01*
X172446157Y-89187472D01*
X172523792Y-88938397D01*
X171675000Y-88089605D01*
X171660858Y-88103748D01*
X171481253Y-87924143D01*
X171495395Y-87910000D01*
X171854605Y-87910000D01*
X172703397Y-88758792D01*
X172952472Y-88681157D01*
X173078371Y-88417117D01*
X173150339Y-88133589D01*
X173165165Y-87850000D01*
X173486928Y-87850000D01*
X173490000Y-88214250D01*
X173648750Y-88373000D01*
X174873000Y-88373000D01*
X174873000Y-87373750D01*
X175127000Y-87373750D01*
X175127000Y-88373000D01*
X176351250Y-88373000D01*
X176500000Y-88224250D01*
X176648750Y-88373000D01*
X177873000Y-88373000D01*
X177873000Y-87373750D01*
X177714250Y-87215000D01*
X177125000Y-87211928D01*
X177000518Y-87224188D01*
X176880820Y-87260498D01*
X176770506Y-87319463D01*
X176673815Y-87398815D01*
X176594463Y-87495506D01*
X176535498Y-87605820D01*
X176500000Y-87722841D01*
X176464502Y-87605820D01*
X176405537Y-87495506D01*
X176326185Y-87398815D01*
X176229494Y-87319463D01*
X176119180Y-87260498D01*
X175999482Y-87224188D01*
X175875000Y-87211928D01*
X175285750Y-87215000D01*
X175127000Y-87373750D01*
X174873000Y-87373750D01*
X174714250Y-87215000D01*
X174125000Y-87211928D01*
X174000518Y-87224188D01*
X173880820Y-87260498D01*
X173770506Y-87319463D01*
X173673815Y-87398815D01*
X173594463Y-87495506D01*
X173535498Y-87605820D01*
X173499188Y-87725518D01*
X173486928Y-87850000D01*
X173165165Y-87850000D01*
X173165611Y-87841469D01*
X173123599Y-87551981D01*
X173025919Y-87276253D01*
X172952472Y-87138843D01*
X172703397Y-87061208D01*
X171854605Y-87910000D01*
X171495395Y-87910000D01*
X171481253Y-87895858D01*
X171660858Y-87716253D01*
X171675000Y-87730395D01*
X172523792Y-86881603D01*
X179476208Y-86881603D01*
X180325000Y-87730395D01*
X181173792Y-86881603D01*
X181096157Y-86632528D01*
X180832117Y-86506629D01*
X180548589Y-86434661D01*
X180256469Y-86419389D01*
X179966981Y-86461401D01*
X179691253Y-86559081D01*
X179553843Y-86632528D01*
X179476208Y-86881603D01*
X172523792Y-86881603D01*
X172446157Y-86632528D01*
X172182117Y-86506629D01*
X171898589Y-86434661D01*
X171606469Y-86419389D01*
X171316981Y-86461401D01*
X171041253Y-86559081D01*
X170903843Y-86632528D01*
X170826209Y-86881601D01*
X170710104Y-86765496D01*
X170685000Y-86790600D01*
X170685000Y-84899608D01*
X170719193Y-84865415D01*
X170814956Y-85129814D01*
X171104571Y-85270704D01*
X171416108Y-85352384D01*
X171737595Y-85371718D01*
X172056675Y-85327961D01*
X172361088Y-85222795D01*
X172535044Y-85129814D01*
X172628885Y-84870723D01*
X172632500Y-84867108D01*
X172657660Y-84892268D01*
X172665575Y-85037763D01*
X172835603Y-85108562D01*
X173016176Y-85144828D01*
X173200355Y-85145171D01*
X173381061Y-85109574D01*
X173486928Y-85065953D01*
X173486928Y-85800000D01*
X173503992Y-85973254D01*
X173554528Y-86139850D01*
X173636595Y-86293386D01*
X173747038Y-86427962D01*
X173881614Y-86538405D01*
X174035150Y-86620472D01*
X174201746Y-86671008D01*
X174375000Y-86688072D01*
X175625000Y-86688072D01*
X175798254Y-86671008D01*
X175964850Y-86620472D01*
X176118386Y-86538405D01*
X176252962Y-86427962D01*
X176363405Y-86293386D01*
X176445472Y-86139850D01*
X176496008Y-85973254D01*
X176500000Y-85932722D01*
X176503992Y-85973254D01*
X176554528Y-86139850D01*
X176636595Y-86293386D01*
X176747038Y-86427962D01*
X176881614Y-86538405D01*
X177035150Y-86620472D01*
X177201746Y-86671008D01*
X177375000Y-86688072D01*
X178625000Y-86688072D01*
X178798254Y-86671008D01*
X178964850Y-86620472D01*
X179118386Y-86538405D01*
X179252962Y-86427962D01*
X179363405Y-86293386D01*
X179445472Y-86139850D01*
X179496008Y-85973254D01*
X179513072Y-85800000D01*
X179513072Y-85153221D01*
X179754571Y-85270704D01*
X180066108Y-85352384D01*
X180387595Y-85371718D01*
X180706675Y-85327961D01*
X181011088Y-85222795D01*
X181185044Y-85129814D01*
X181280808Y-84865413D01*
X180325000Y-83909605D01*
X180310858Y-83923748D01*
X180131253Y-83744143D01*
X180145395Y-83730000D01*
X180131253Y-83715858D01*
X180310858Y-83536253D01*
X180325000Y-83550395D01*
X181280808Y-82594587D01*
X181185044Y-82330186D01*
X180895429Y-82189296D01*
X180583892Y-82107616D01*
X180262405Y-82088282D01*
X179943325Y-82132039D01*
X179638912Y-82237205D01*
X179464956Y-82330186D01*
X179369193Y-82594585D01*
X179276659Y-82502051D01*
X179403937Y-82374772D01*
X179517205Y-82205254D01*
X179595226Y-82016896D01*
X179614318Y-81920911D01*
X179781675Y-81897961D01*
X180086088Y-81792795D01*
X180260044Y-81699814D01*
X180355808Y-81435413D01*
X179400000Y-80479605D01*
X179385858Y-80493748D01*
X179206253Y-80314143D01*
X179220395Y-80300000D01*
X179579605Y-80300000D01*
X180535413Y-81255808D01*
X180799814Y-81160044D01*
X180940704Y-80870429D01*
X181022384Y-80558892D01*
X181041718Y-80237405D01*
X180997961Y-79918325D01*
X180892795Y-79613912D01*
X180799814Y-79439956D01*
X180535413Y-79344192D01*
X179579605Y-80300000D01*
X179220395Y-80300000D01*
X178264587Y-79344192D01*
X178158053Y-79382778D01*
X177969737Y-79304774D01*
X177769778Y-79265000D01*
X177565900Y-79265000D01*
X177365941Y-79304774D01*
X177177583Y-79382795D01*
X177008065Y-79496063D01*
X176964128Y-79540000D01*
X176160044Y-79540000D01*
X176079516Y-79459472D01*
X175909998Y-79346204D01*
X175721640Y-79268183D01*
X175521681Y-79228409D01*
X175317803Y-79228409D01*
X175117844Y-79268183D01*
X174929486Y-79346204D01*
X174759968Y-79459472D01*
X174615805Y-79603635D01*
X174502537Y-79773153D01*
X174472696Y-79845194D01*
X174392795Y-79613912D01*
X174299814Y-79439956D01*
X174035413Y-79344192D01*
X173079605Y-80300000D01*
X173093748Y-80314143D01*
X172914143Y-80493748D01*
X172900000Y-80479605D01*
X171944192Y-81435413D01*
X172039956Y-81699814D01*
X172329571Y-81840704D01*
X172641108Y-81922384D01*
X172962595Y-81941718D01*
X173281675Y-81897961D01*
X173290010Y-81895081D01*
X173290010Y-82030134D01*
X173329784Y-82230093D01*
X173407805Y-82418451D01*
X173521073Y-82587969D01*
X173665236Y-82732132D01*
X173834754Y-82845400D01*
X174023112Y-82923421D01*
X174223071Y-82963195D01*
X174240001Y-82963195D01*
X174240000Y-84125224D01*
X174201746Y-84128992D01*
X174045065Y-84176520D01*
X174045171Y-84119645D01*
X174009574Y-83938939D01*
X173939408Y-83768649D01*
X173937763Y-83765575D01*
X173744541Y-83755064D01*
X173289605Y-84210000D01*
X173303748Y-84224143D01*
X173204566Y-84323324D01*
X173215704Y-84300429D01*
X173297384Y-83988892D01*
X173306719Y-83833676D01*
X173564936Y-83575459D01*
X173554425Y-83382237D01*
X173384397Y-83311438D01*
X173250959Y-83284639D01*
X173167795Y-83043912D01*
X173074814Y-82869956D01*
X172810413Y-82774192D01*
X171854605Y-83730000D01*
X171868748Y-83744143D01*
X171689143Y-83923748D01*
X171675000Y-83909605D01*
X171660858Y-83923748D01*
X171481253Y-83744143D01*
X171495395Y-83730000D01*
X171481253Y-83715858D01*
X171660858Y-83536253D01*
X171675000Y-83550395D01*
X172630808Y-82594587D01*
X172535044Y-82330186D01*
X172245429Y-82189296D01*
X171933892Y-82107616D01*
X171612405Y-82088282D01*
X171293325Y-82132039D01*
X170988912Y-82237205D01*
X170814956Y-82330186D01*
X170719193Y-82594585D01*
X170685000Y-82560392D01*
X170685000Y-80362595D01*
X171258282Y-80362595D01*
X171302039Y-80681675D01*
X171407205Y-80986088D01*
X171500186Y-81160044D01*
X171764587Y-81255808D01*
X172720395Y-80300000D01*
X171764587Y-79344192D01*
X171500186Y-79439956D01*
X171359296Y-79729571D01*
X171277616Y-80041108D01*
X171258282Y-80362595D01*
X170685000Y-80362595D01*
X170685000Y-79164587D01*
X171944192Y-79164587D01*
X172900000Y-80120395D01*
X173855808Y-79164587D01*
X178444192Y-79164587D01*
X179400000Y-80120395D01*
X180355808Y-79164587D01*
X180260044Y-78900186D01*
X179970429Y-78759296D01*
X179658892Y-78677616D01*
X179337405Y-78658282D01*
X179018325Y-78702039D01*
X178713912Y-78807205D01*
X178539956Y-78900186D01*
X178444192Y-79164587D01*
X173855808Y-79164587D01*
X173760044Y-78900186D01*
X173470429Y-78759296D01*
X173158892Y-78677616D01*
X172837405Y-78658282D01*
X172518325Y-78702039D01*
X172213912Y-78807205D01*
X172039956Y-78900186D01*
X171944192Y-79164587D01*
X170685000Y-79164587D01*
X170685000Y-60033505D01*
X170694222Y-59939453D01*
X170711805Y-59881214D01*
X170740366Y-59827499D01*
X170778816Y-59780354D01*
X170825691Y-59741576D01*
X170879204Y-59712642D01*
X170937323Y-59694651D01*
X171029145Y-59685000D01*
X174021347Y-59685000D01*
X173926480Y-59748388D01*
G37*
%TD.AperFunction*%
D22*
X185060547Y-59694222D02*
X185118786Y-59711805D01*
X185172501Y-59740366D01*
X185219646Y-59778816D01*
X185258424Y-59825691D01*
X185287358Y-59879204D01*
X185305349Y-59937323D01*
X185315000Y-60029145D01*
X185315001Y-75240200D01*
X185228803Y-75154002D01*
X185205000Y-75124998D01*
X185089275Y-75030025D01*
X184957246Y-74959453D01*
X184813985Y-74915996D01*
X184702332Y-74904999D01*
X184702321Y-74904999D01*
X184664999Y-74901323D01*
X184627677Y-74904999D01*
X184079801Y-74904999D01*
X181163804Y-71989003D01*
X181140001Y-71959999D01*
X181024276Y-71865026D01*
X180892247Y-71794454D01*
X180748986Y-71750997D01*
X180637333Y-71740000D01*
X180637322Y-71740000D01*
X180600000Y-71736324D01*
X180562678Y-71740000D01*
X179803711Y-71740000D01*
X179759774Y-71696063D01*
X179590256Y-71582795D01*
X179401898Y-71504774D01*
X179201939Y-71465000D01*
X179139802Y-71465000D01*
X178060000Y-70385199D01*
X178060000Y-70090565D01*
X178289040Y-70090565D01*
X178356020Y-70330656D01*
X178605048Y-70447756D01*
X178872135Y-70514023D01*
X179147017Y-70526910D01*
X179419133Y-70485922D01*
X179678023Y-70392636D01*
X179793980Y-70330656D01*
X179860960Y-70090565D01*
X179075000Y-69304605D01*
X178289040Y-70090565D01*
X178060000Y-70090565D01*
X178060000Y-69897169D01*
X178109435Y-69910960D01*
X178895395Y-69125000D01*
X179254605Y-69125000D01*
X180040565Y-69910960D01*
X180280656Y-69843980D01*
X180397756Y-69594952D01*
X180464023Y-69327865D01*
X180476910Y-69052983D01*
X180435922Y-68780867D01*
X180342636Y-68521977D01*
X180280656Y-68406020D01*
X180040565Y-68339040D01*
X179254605Y-69125000D01*
X178895395Y-69125000D01*
X178109435Y-68339040D01*
X178060000Y-68352831D01*
X178060000Y-68159435D01*
X178289040Y-68159435D01*
X179075000Y-68945395D01*
X179860960Y-68159435D01*
X179793980Y-67919344D01*
X179544952Y-67802244D01*
X179277865Y-67735977D01*
X179002983Y-67723090D01*
X178730867Y-67764078D01*
X178471977Y-67857364D01*
X178356020Y-67919344D01*
X178289040Y-68159435D01*
X178060000Y-68159435D01*
X178060000Y-67918280D01*
X180036165Y-65942116D01*
X180065163Y-65918318D01*
X180160136Y-65802593D01*
X180230708Y-65670564D01*
X180274165Y-65527303D01*
X180285162Y-65415650D01*
X180285162Y-65415641D01*
X180288838Y-65378318D01*
X180285162Y-65340995D01*
X180285162Y-64262484D01*
X180288838Y-64225161D01*
X180285162Y-64187838D01*
X180285162Y-64187829D01*
X180274165Y-64076176D01*
X180230708Y-63932915D01*
X180160136Y-63800886D01*
X180065163Y-63685161D01*
X180036160Y-63661359D01*
X179853804Y-63479003D01*
X179830001Y-63449999D01*
X179714276Y-63355026D01*
X179582247Y-63284454D01*
X179438986Y-63240997D01*
X179327333Y-63230000D01*
X179327322Y-63230000D01*
X179290000Y-63226324D01*
X179252678Y-63230000D01*
X177950000Y-63230000D01*
X177950000Y-63017266D01*
X178128933Y-63091383D01*
X178348212Y-63135000D01*
X178571788Y-63135000D01*
X178791067Y-63091383D01*
X178997624Y-63005824D01*
X179095000Y-62940759D01*
X179192376Y-63005824D01*
X179398933Y-63091383D01*
X179618212Y-63135000D01*
X179841788Y-63135000D01*
X180061067Y-63091383D01*
X180172774Y-63045112D01*
X180255820Y-63089502D01*
X180375518Y-63125812D01*
X180500000Y-63138072D01*
X180714250Y-63135000D01*
X180873000Y-62976250D01*
X180873000Y-62127000D01*
X181127000Y-62127000D01*
X181127000Y-62976250D01*
X181285750Y-63135000D01*
X181500000Y-63138072D01*
X181624482Y-63125812D01*
X181744180Y-63089502D01*
X181854494Y-63030537D01*
X181951185Y-62951185D01*
X182030537Y-62854494D01*
X182089502Y-62744180D01*
X182125812Y-62624482D01*
X182138072Y-62500000D01*
X182135000Y-62285750D01*
X181976250Y-62127000D01*
X181127000Y-62127000D01*
X180873000Y-62127000D01*
X180861974Y-62127000D01*
X180865000Y-62111788D01*
X180865000Y-61888212D01*
X180861974Y-61873000D01*
X180873000Y-61873000D01*
X180873000Y-60757000D01*
X181127000Y-60757000D01*
X181127000Y-61873000D01*
X181976250Y-61873000D01*
X182135000Y-61714250D01*
X182138072Y-61500000D01*
X182125812Y-61375518D01*
X182107454Y-61315000D01*
X182125812Y-61254482D01*
X182138072Y-61130000D01*
X182135000Y-60915750D01*
X181976250Y-60757000D01*
X181127000Y-60757000D01*
X180873000Y-60757000D01*
X180861974Y-60757000D01*
X180865000Y-60741788D01*
X180865000Y-60518212D01*
X180861974Y-60503000D01*
X180873000Y-60503000D01*
X180873000Y-60483000D01*
X181127000Y-60483000D01*
X181127000Y-60503000D01*
X181976250Y-60503000D01*
X182135000Y-60344250D01*
X182138072Y-60130000D01*
X182125812Y-60005518D01*
X182089502Y-59885820D01*
X182030537Y-59775506D01*
X181956261Y-59685000D01*
X184966495Y-59685000D01*
X185060547Y-59694222D01*
%TA.AperFunction,Conductor*%
D23*
G36*
X185060547Y-59694222D02*
G01*
X185118786Y-59711805D01*
X185172501Y-59740366D01*
X185219646Y-59778816D01*
X185258424Y-59825691D01*
X185287358Y-59879204D01*
X185305349Y-59937323D01*
X185315000Y-60029145D01*
X185315001Y-75240200D01*
X185228803Y-75154002D01*
X185205000Y-75124998D01*
X185089275Y-75030025D01*
X184957246Y-74959453D01*
X184813985Y-74915996D01*
X184702332Y-74904999D01*
X184702321Y-74904999D01*
X184664999Y-74901323D01*
X184627677Y-74904999D01*
X184079801Y-74904999D01*
X181163804Y-71989003D01*
X181140001Y-71959999D01*
X181024276Y-71865026D01*
X180892247Y-71794454D01*
X180748986Y-71750997D01*
X180637333Y-71740000D01*
X180637322Y-71740000D01*
X180600000Y-71736324D01*
X180562678Y-71740000D01*
X179803711Y-71740000D01*
X179759774Y-71696063D01*
X179590256Y-71582795D01*
X179401898Y-71504774D01*
X179201939Y-71465000D01*
X179139802Y-71465000D01*
X178060000Y-70385199D01*
X178060000Y-70090565D01*
X178289040Y-70090565D01*
X178356020Y-70330656D01*
X178605048Y-70447756D01*
X178872135Y-70514023D01*
X179147017Y-70526910D01*
X179419133Y-70485922D01*
X179678023Y-70392636D01*
X179793980Y-70330656D01*
X179860960Y-70090565D01*
X179075000Y-69304605D01*
X178289040Y-70090565D01*
X178060000Y-70090565D01*
X178060000Y-69897169D01*
X178109435Y-69910960D01*
X178895395Y-69125000D01*
X179254605Y-69125000D01*
X180040565Y-69910960D01*
X180280656Y-69843980D01*
X180397756Y-69594952D01*
X180464023Y-69327865D01*
X180476910Y-69052983D01*
X180435922Y-68780867D01*
X180342636Y-68521977D01*
X180280656Y-68406020D01*
X180040565Y-68339040D01*
X179254605Y-69125000D01*
X178895395Y-69125000D01*
X178109435Y-68339040D01*
X178060000Y-68352831D01*
X178060000Y-68159435D01*
X178289040Y-68159435D01*
X179075000Y-68945395D01*
X179860960Y-68159435D01*
X179793980Y-67919344D01*
X179544952Y-67802244D01*
X179277865Y-67735977D01*
X179002983Y-67723090D01*
X178730867Y-67764078D01*
X178471977Y-67857364D01*
X178356020Y-67919344D01*
X178289040Y-68159435D01*
X178060000Y-68159435D01*
X178060000Y-67918280D01*
X180036165Y-65942116D01*
X180065163Y-65918318D01*
X180160136Y-65802593D01*
X180230708Y-65670564D01*
X180274165Y-65527303D01*
X180285162Y-65415650D01*
X180285162Y-65415641D01*
X180288838Y-65378318D01*
X180285162Y-65340995D01*
X180285162Y-64262484D01*
X180288838Y-64225161D01*
X180285162Y-64187838D01*
X180285162Y-64187829D01*
X180274165Y-64076176D01*
X180230708Y-63932915D01*
X180160136Y-63800886D01*
X180065163Y-63685161D01*
X180036160Y-63661359D01*
X179853804Y-63479003D01*
X179830001Y-63449999D01*
X179714276Y-63355026D01*
X179582247Y-63284454D01*
X179438986Y-63240997D01*
X179327333Y-63230000D01*
X179327322Y-63230000D01*
X179290000Y-63226324D01*
X179252678Y-63230000D01*
X177950000Y-63230000D01*
X177950000Y-63017266D01*
X178128933Y-63091383D01*
X178348212Y-63135000D01*
X178571788Y-63135000D01*
X178791067Y-63091383D01*
X178997624Y-63005824D01*
X179095000Y-62940759D01*
X179192376Y-63005824D01*
X179398933Y-63091383D01*
X179618212Y-63135000D01*
X179841788Y-63135000D01*
X180061067Y-63091383D01*
X180172774Y-63045112D01*
X180255820Y-63089502D01*
X180375518Y-63125812D01*
X180500000Y-63138072D01*
X180714250Y-63135000D01*
X180873000Y-62976250D01*
X180873000Y-62127000D01*
X181127000Y-62127000D01*
X181127000Y-62976250D01*
X181285750Y-63135000D01*
X181500000Y-63138072D01*
X181624482Y-63125812D01*
X181744180Y-63089502D01*
X181854494Y-63030537D01*
X181951185Y-62951185D01*
X182030537Y-62854494D01*
X182089502Y-62744180D01*
X182125812Y-62624482D01*
X182138072Y-62500000D01*
X182135000Y-62285750D01*
X181976250Y-62127000D01*
X181127000Y-62127000D01*
X180873000Y-62127000D01*
X180861974Y-62127000D01*
X180865000Y-62111788D01*
X180865000Y-61888212D01*
X180861974Y-61873000D01*
X180873000Y-61873000D01*
X180873000Y-60757000D01*
X181127000Y-60757000D01*
X181127000Y-61873000D01*
X181976250Y-61873000D01*
X182135000Y-61714250D01*
X182138072Y-61500000D01*
X182125812Y-61375518D01*
X182107454Y-61315000D01*
X182125812Y-61254482D01*
X182138072Y-61130000D01*
X182135000Y-60915750D01*
X181976250Y-60757000D01*
X181127000Y-60757000D01*
X180873000Y-60757000D01*
X180861974Y-60757000D01*
X180865000Y-60741788D01*
X180865000Y-60518212D01*
X180861974Y-60503000D01*
X180873000Y-60503000D01*
X180873000Y-60483000D01*
X181127000Y-60483000D01*
X181127000Y-60503000D01*
X181976250Y-60503000D01*
X182135000Y-60344250D01*
X182138072Y-60130000D01*
X182125812Y-60005518D01*
X182089502Y-59885820D01*
X182030537Y-59775506D01*
X181956261Y-59685000D01*
X184966495Y-59685000D01*
X185060547Y-59694222D01*
G37*
%TD.AperFunction*%
%TD*%
M02*
