M48
; DRILL file {KiCad (5.1.9-0-10_14)} date Saturday, April 17, 2021 at 10:06:38 AM
; FORMAT={-:-/ absolute / inch / decimal}
; #@! TF.CreationDate,2021-04-17T10:06:38+01:00
; #@! TF.GenerationSoftware,Kicad,Pcbnew,(5.1.9-0-10_14)
; #@! TF.FileFunction,Plated,1,2,PTH
FMAT,2
INCH
T1C0.0157
T2C0.0236
T3C0.0256
T4C0.0300
T5C0.0394
T6C0.0433
T7C0.0472
T8C0.0591
%
G90
G05
T1
X6.811Y-3.2244
X6.8803Y-3.2231
X6.887Y-2.8383
X6.9007Y-2.601
X6.9129Y-3.2011
X6.9284Y-2.502
X6.9433Y-2.559
X6.9488Y-3.1614
X6.9668Y-2.8668
X6.97Y-3.2067
X7.0045Y-3.1841
X7.0394Y-3.2272
T2
X6.8299Y-3.3154
X7.0575Y-3.3154
T3
X6.876Y-2.387
X6.876Y-2.4409
X6.926Y-2.387
X6.926Y-2.4409
X6.976Y-2.387
X6.976Y-2.4409
X7.026Y-2.387
X7.026Y-2.4409
X7.076Y-2.387
X7.076Y-2.4409
X7.126Y-2.387
X7.126Y-2.4409
T4
X7.0118Y-2.7047
T5
X6.8004Y-2.6622
X7.2441Y-3.0252
X7.2441Y-3.1252
X7.2441Y-3.2252
X7.2441Y-3.3252
X7.2441Y-3.4252
T6
X6.8094Y-2.9839
X6.8094Y-3.161
X7.0654Y-2.9839
X7.0654Y-3.161
T7
X6.7734Y-3.461
X7.114Y-3.461
T8
X6.7734Y-3.2965
X7.114Y-3.2965
T0
M30
