M48
; DRILL file {KiCad (5.1.9-0-10_14)} date Tuesday, April 20, 2021 at 11:58:28 AM
; FORMAT={-:-/ absolute / inch / decimal}
; #@! TF.CreationDate,2021-04-20T11:58:28+01:00
; #@! TF.GenerationSoftware,Kicad,Pcbnew,(5.1.9-0-10_14)
; #@! TF.FileFunction,Plated,1,2,PTH
FMAT,2
INCH
T1C0.0157
T2C0.0236
T3C0.0256
T4C0.0300
T5C0.0315
T6C0.0394
T7C0.0472
T8C0.0591
%
G90
G05
T1
X6.7874Y-2.7795
X6.7992Y-2.563
X6.8632Y-3.1861
X6.8876Y-3.1553
X6.9063Y-3.1206
X6.9083Y-2.6163
X6.9262Y-2.6781
X6.9341Y-2.8887
X6.937Y-2.7795
X6.9395Y-2.5433
X6.9575Y-3.1542
X6.9803Y-2.9606
X6.9848Y-2.589
X6.9948Y-3.1306
X6.9955Y-2.8247
X7.0056Y-3.1886
X7.0866Y-2.5906
X7.1811Y-2.7559
T2
X6.8154Y-3.276
X7.0429Y-3.276
T3
X6.876Y-2.387
X6.876Y-2.4646
X6.926Y-2.387
X6.926Y-2.4646
X6.976Y-2.387
X6.976Y-2.4646
X7.026Y-2.387
X7.026Y-2.4646
X7.076Y-2.387
X7.076Y-2.4646
X7.126Y-2.387
X7.126Y-2.4646
T4
X7.0502Y-2.7215
T5
X6.7717Y-2.9606
X6.7717Y-3.0606
X6.7717Y-3.1606
X7.0717Y-2.9606
X7.0717Y-3.0606
X7.0717Y-3.1606
T6
X6.8004Y-2.6622
X7.2441Y-3.0252
X7.2441Y-3.1252
X7.2441Y-3.2252
X7.2441Y-3.3252
X7.2441Y-3.4252
T7
X6.7589Y-3.4217
X7.0994Y-3.4217
T8
X6.7589Y-3.2571
X7.0994Y-3.2571
T0
M30
