%TF.GenerationSoftware,KiCad,Pcbnew,(5.1.9-0-10_14)*%
%TF.CreationDate,2021-04-20T10:35:47+01:00*%
%TF.ProjectId,Shelly,5368656c-6c79-42e6-9b69-6361645f7063,rev?*%
%TF.SameCoordinates,Original*%
%TF.FileFunction,Soldermask,Bot*%
%TF.FilePolarity,Negative*%
%FSLAX46Y46*%
G04 Gerber Fmt 4.6, Leading zero omitted, Abs format (unit mm)*
G04 Created by KiCad (PCBNEW (5.1.9-0-10_14)) date 2021-04-20 10:35:47*
%MOMM*%
%LPD*%
G01*
G04 APERTURE LIST*
%ADD10C,1.700000*%
%ADD11R,1.524000X1.524000*%
%ADD12O,1.600000X1.600000*%
%ADD13R,1.600000X1.600000*%
%ADD14C,2.000000*%
%ADD15C,1.524000*%
%ADD16O,1.000000X1.000000*%
%ADD17R,1.000000X1.000000*%
%ADD18O,1.700000X1.700000*%
%ADD19R,1.700000X1.700000*%
G04 APERTURE END LIST*
D10*
%TO.C,M1*%
X172730000Y-72700000D03*
X172730000Y-65080000D03*
D11*
X172730000Y-67620000D03*
D10*
X172730000Y-70160000D03*
%TD*%
D12*
%TO.C,U2*%
X179620000Y-75200000D03*
X172000000Y-80280000D03*
X179620000Y-77740000D03*
X172000000Y-77740000D03*
X179620000Y-80280000D03*
D13*
X172000000Y-75200000D03*
%TD*%
%TO.C,R6*%
G36*
G01*
X176650000Y-75825000D02*
X176650000Y-74575000D01*
G75*
G02*
X176900000Y-74325000I250000J0D01*
G01*
X177700000Y-74325000D01*
G75*
G02*
X177950000Y-74575000I0J-250000D01*
G01*
X177950000Y-75825000D01*
G75*
G02*
X177700000Y-76075000I-250000J0D01*
G01*
X176900000Y-76075000D01*
G75*
G02*
X176650000Y-75825000I0J250000D01*
G01*
G37*
G36*
G01*
X173550000Y-75825000D02*
X173550000Y-74575000D01*
G75*
G02*
X173800000Y-74325000I250000J0D01*
G01*
X174600000Y-74325000D01*
G75*
G02*
X174850000Y-74575000I0J-250000D01*
G01*
X174850000Y-75825000D01*
G75*
G02*
X174600000Y-76075000I-250000J0D01*
G01*
X173800000Y-76075000D01*
G75*
G02*
X173550000Y-75825000I0J250000D01*
G01*
G37*
%TD*%
D10*
%TO.C,J4*%
X180325000Y-86910000D03*
X171675000Y-86910000D03*
D14*
X180325000Y-82730000D03*
X171675000Y-82730000D03*
%TD*%
%TO.C,R1*%
G36*
G01*
X174175000Y-86850000D02*
X175425000Y-86850000D01*
G75*
G02*
X175675000Y-87100000I0J-250000D01*
G01*
X175675000Y-87900000D01*
G75*
G02*
X175425000Y-88150000I-250000J0D01*
G01*
X174175000Y-88150000D01*
G75*
G02*
X173925000Y-87900000I0J250000D01*
G01*
X173925000Y-87100000D01*
G75*
G02*
X174175000Y-86850000I250000J0D01*
G01*
G37*
G36*
G01*
X174175000Y-83750000D02*
X175425000Y-83750000D01*
G75*
G02*
X175675000Y-84000000I0J-250000D01*
G01*
X175675000Y-84800000D01*
G75*
G02*
X175425000Y-85050000I-250000J0D01*
G01*
X174175000Y-85050000D01*
G75*
G02*
X173925000Y-84800000I0J250000D01*
G01*
X173925000Y-84000000D01*
G75*
G02*
X174175000Y-83750000I250000J0D01*
G01*
G37*
%TD*%
D15*
%TO.C,U1*%
X179075000Y-69125000D03*
%TD*%
D16*
%TO.C,J3*%
X174650000Y-62000000D03*
X175920000Y-62000000D03*
X177190000Y-62000000D03*
X178460000Y-62000000D03*
X179730000Y-62000000D03*
D17*
X181000000Y-62000000D03*
%TD*%
D16*
%TO.C,J2*%
X174650000Y-60630000D03*
X175920000Y-60630000D03*
X177190000Y-60630000D03*
X178460000Y-60630000D03*
X179730000Y-60630000D03*
D17*
X181000000Y-60630000D03*
%TD*%
D18*
%TO.C,J1*%
X184000000Y-76840000D03*
X184000000Y-79380000D03*
X184000000Y-81920000D03*
X184000000Y-84460000D03*
D19*
X184000000Y-87000000D03*
%TD*%
%TO.C,R2*%
G36*
G01*
X178225000Y-85050000D02*
X176975000Y-85050000D01*
G75*
G02*
X176725000Y-84800000I0J250000D01*
G01*
X176725000Y-84000000D01*
G75*
G02*
X176975000Y-83750000I250000J0D01*
G01*
X178225000Y-83750000D01*
G75*
G02*
X178475000Y-84000000I0J-250000D01*
G01*
X178475000Y-84800000D01*
G75*
G02*
X178225000Y-85050000I-250000J0D01*
G01*
G37*
G36*
G01*
X178225000Y-88150000D02*
X176975000Y-88150000D01*
G75*
G02*
X176725000Y-87900000I0J250000D01*
G01*
X176725000Y-87100000D01*
G75*
G02*
X176975000Y-86850000I250000J0D01*
G01*
X178225000Y-86850000D01*
G75*
G02*
X178475000Y-87100000I0J-250000D01*
G01*
X178475000Y-87900000D01*
G75*
G02*
X178225000Y-88150000I-250000J0D01*
G01*
G37*
%TD*%
M02*
