%TF.GenerationSoftware,KiCad,Pcbnew,(5.1.9-0-10_14)*%
%TF.CreationDate,2021-05-02T11:52:11+01:00*%
%TF.ProjectId,Shelly,5368656c-6c79-42e6-9b69-6361645f7063,rev?*%
%TF.SameCoordinates,Original*%
%TF.FileFunction,Legend,Bot*%
%TF.FilePolarity,Positive*%
%FSLAX46Y46*%
G04 Gerber Fmt 4.6, Leading zero omitted, Abs format (unit mm)*
G04 Created by KiCad (PCBNEW (5.1.9-0-10_14)) date 2021-05-02 11:52:11*
%MOMM*%
%LPD*%
G01*
G04 APERTURE LIST*
%ADD10C,0.120000*%
%ADD11C,0.150000*%
G04 APERTURE END LIST*
D10*
%TO.C,Reg1*%
X171100000Y-78100000D02*
X179100000Y-78100000D01*
X179100000Y-78100000D02*
X179100000Y-69100000D01*
X179100000Y-69100000D02*
X171100000Y-69100000D01*
X171100000Y-69100000D02*
X171100000Y-78100000D01*
%TO.C,R1*%
X173890000Y-85222936D02*
X173890000Y-86677064D01*
X175710000Y-85222936D02*
X175710000Y-86677064D01*
%TO.C,J2*%
X173455000Y-61740000D02*
X173455000Y-60937530D01*
X173455000Y-60322470D02*
X173455000Y-59520000D01*
X179740000Y-61740000D02*
X173455000Y-61740000D01*
X179740000Y-59520000D02*
X173455000Y-59520000D01*
X179740000Y-61740000D02*
X179740000Y-61193471D01*
X179740000Y-60066529D02*
X179740000Y-59520000D01*
X180500000Y-61740000D02*
X181260000Y-61740000D01*
X181260000Y-61740000D02*
X181260000Y-60630000D01*
%TO.C,J1*%
X181670000Y-75510000D02*
X184330000Y-75510000D01*
X181670000Y-85730000D02*
X181670000Y-75510000D01*
X184330000Y-85730000D02*
X184330000Y-75510000D01*
X181670000Y-85730000D02*
X184330000Y-85730000D01*
X181670000Y-87000000D02*
X181670000Y-88330000D01*
X181670000Y-88330000D02*
X183000000Y-88330000D01*
%TO.C,R2*%
X178510000Y-86677064D02*
X178510000Y-85222936D01*
X176690000Y-86677064D02*
X176690000Y-85222936D01*
%TO.C,Reg1*%
D11*
X178147619Y-70052380D02*
X178480952Y-69576190D01*
X178719047Y-70052380D02*
X178719047Y-69052380D01*
X178338095Y-69052380D01*
X178242857Y-69100000D01*
X178195238Y-69147619D01*
X178147619Y-69242857D01*
X178147619Y-69385714D01*
X178195238Y-69480952D01*
X178242857Y-69528571D01*
X178338095Y-69576190D01*
X178719047Y-69576190D01*
X177338095Y-70004761D02*
X177433333Y-70052380D01*
X177623809Y-70052380D01*
X177719047Y-70004761D01*
X177766666Y-69909523D01*
X177766666Y-69528571D01*
X177719047Y-69433333D01*
X177623809Y-69385714D01*
X177433333Y-69385714D01*
X177338095Y-69433333D01*
X177290476Y-69528571D01*
X177290476Y-69623809D01*
X177766666Y-69719047D01*
X176433333Y-69385714D02*
X176433333Y-70195238D01*
X176480952Y-70290476D01*
X176528571Y-70338095D01*
X176623809Y-70385714D01*
X176766666Y-70385714D01*
X176861904Y-70338095D01*
X176433333Y-70004761D02*
X176528571Y-70052380D01*
X176719047Y-70052380D01*
X176814285Y-70004761D01*
X176861904Y-69957142D01*
X176909523Y-69861904D01*
X176909523Y-69576190D01*
X176861904Y-69480952D01*
X176814285Y-69433333D01*
X176719047Y-69385714D01*
X176528571Y-69385714D01*
X176433333Y-69433333D01*
X175433333Y-70052380D02*
X176004761Y-70052380D01*
X175719047Y-70052380D02*
X175719047Y-69052380D01*
X175814285Y-69195238D01*
X175909523Y-69290476D01*
X176004761Y-69338095D01*
%TO.C,J3*%
X171852380Y-62166666D02*
X172566666Y-62166666D01*
X172709523Y-62119047D01*
X172804761Y-62023809D01*
X172852380Y-61880952D01*
X172852380Y-61785714D01*
X171852380Y-62547619D02*
X171852380Y-63166666D01*
X172233333Y-62833333D01*
X172233333Y-62976190D01*
X172280952Y-63071428D01*
X172328571Y-63119047D01*
X172423809Y-63166666D01*
X172661904Y-63166666D01*
X172757142Y-63119047D01*
X172804761Y-63071428D01*
X172852380Y-62976190D01*
X172852380Y-62690476D01*
X172804761Y-62595238D01*
X172757142Y-62547619D01*
%TO.C,R1*%
X175252380Y-82433333D02*
X174776190Y-82100000D01*
X175252380Y-81861904D02*
X174252380Y-81861904D01*
X174252380Y-82242857D01*
X174300000Y-82338095D01*
X174347619Y-82385714D01*
X174442857Y-82433333D01*
X174585714Y-82433333D01*
X174680952Y-82385714D01*
X174728571Y-82338095D01*
X174776190Y-82242857D01*
X174776190Y-81861904D01*
X175252380Y-83385714D02*
X175252380Y-82814285D01*
X175252380Y-83100000D02*
X174252380Y-83100000D01*
X174395238Y-83004761D01*
X174490476Y-82909523D01*
X174538095Y-82814285D01*
%TO.C,J2*%
X171852380Y-60266666D02*
X172566666Y-60266666D01*
X172709523Y-60219047D01*
X172804761Y-60123809D01*
X172852380Y-59980952D01*
X172852380Y-59885714D01*
X171947619Y-60695238D02*
X171900000Y-60742857D01*
X171852380Y-60838095D01*
X171852380Y-61076190D01*
X171900000Y-61171428D01*
X171947619Y-61219047D01*
X172042857Y-61266666D01*
X172138095Y-61266666D01*
X172280952Y-61219047D01*
X172852380Y-60647619D01*
X172852380Y-61266666D01*
%TO.C,J1*%
X183233333Y-74252380D02*
X183233333Y-74966666D01*
X183280952Y-75109523D01*
X183376190Y-75204761D01*
X183519047Y-75252380D01*
X183614285Y-75252380D01*
X182233333Y-75252380D02*
X182804761Y-75252380D01*
X182519047Y-75252380D02*
X182519047Y-74252380D01*
X182614285Y-74395238D01*
X182709523Y-74490476D01*
X182804761Y-74538095D01*
%TO.C,R2*%
X178152380Y-82433333D02*
X177676190Y-82100000D01*
X178152380Y-81861904D02*
X177152380Y-81861904D01*
X177152380Y-82242857D01*
X177200000Y-82338095D01*
X177247619Y-82385714D01*
X177342857Y-82433333D01*
X177485714Y-82433333D01*
X177580952Y-82385714D01*
X177628571Y-82338095D01*
X177676190Y-82242857D01*
X177676190Y-81861904D01*
X177247619Y-82814285D02*
X177200000Y-82861904D01*
X177152380Y-82957142D01*
X177152380Y-83195238D01*
X177200000Y-83290476D01*
X177247619Y-83338095D01*
X177342857Y-83385714D01*
X177438095Y-83385714D01*
X177580952Y-83338095D01*
X178152380Y-82766666D01*
X178152380Y-83385714D01*
%TD*%
M02*
