%TF.GenerationSoftware,KiCad,Pcbnew,(5.1.9-0-10_14)*%
%TF.CreationDate,2021-04-20T10:35:47+01:00*%
%TF.ProjectId,Shelly,5368656c-6c79-42e6-9b69-6361645f7063,rev?*%
%TF.SameCoordinates,Original*%
%TF.FileFunction,Copper,L1,Top*%
%TF.FilePolarity,Positive*%
%FSLAX46Y46*%
G04 Gerber Fmt 4.6, Leading zero omitted, Abs format (unit mm)*
G04 Created by KiCad (PCBNEW (5.1.9-0-10_14)) date 2021-04-20 10:35:47*
%MOMM*%
%LPD*%
G01*
G04 APERTURE LIST*
%TA.AperFunction,NonConductor*%
%ADD10C,0.300000*%
%TD*%
%TA.AperFunction,ComponentPad*%
%ADD11R,1.524000X1.524000*%
%TD*%
%TA.AperFunction,ComponentPad*%
%ADD12O,1.600000X1.600000*%
%TD*%
%TA.AperFunction,ComponentPad*%
%ADD13R,1.600000X1.600000*%
%TD*%
%TA.AperFunction,SMDPad,CuDef*%
%ADD14R,8.340000X5.490000*%
%TD*%
%TA.AperFunction,SMDPad,CuDef*%
%ADD15R,0.600000X1.140000*%
%TD*%
%TA.AperFunction,ComponentPad*%
%ADD16C,1.700000*%
%TD*%
%TA.AperFunction,ComponentPad*%
%ADD17C,2.000000*%
%TD*%
%TA.AperFunction,SMDPad,CuDef*%
%ADD18R,0.300000X1.140000*%
%TD*%
%TA.AperFunction,ComponentPad*%
%ADD19C,0.600000*%
%TD*%
%TA.AperFunction,ComponentPad*%
%ADD20C,1.524000*%
%TD*%
%TA.AperFunction,SMDPad,CuDef*%
%ADD21R,0.200000X0.200000*%
%TD*%
%TA.AperFunction,SMDPad,CuDef*%
%ADD22C,0.500000*%
%TD*%
%TA.AperFunction,SMDPad,CuDef*%
%ADD23R,2.500000X2.500000*%
%TD*%
%TA.AperFunction,ComponentPad*%
%ADD24O,1.000000X1.000000*%
%TD*%
%TA.AperFunction,ComponentPad*%
%ADD25R,1.000000X1.000000*%
%TD*%
%TA.AperFunction,ComponentPad*%
%ADD26O,1.700000X1.700000*%
%TD*%
%TA.AperFunction,ComponentPad*%
%ADD27R,1.700000X1.700000*%
%TD*%
%TA.AperFunction,ViaPad*%
%ADD28C,0.800000*%
%TD*%
%TA.AperFunction,Conductor*%
%ADD29C,0.250000*%
%TD*%
%TA.AperFunction,Conductor*%
%ADD30C,0.254000*%
%TD*%
%TA.AperFunction,Conductor*%
%ADD31C,0.100000*%
%TD*%
G04 APERTURE END LIST*
D10*
X183778571Y-62014285D02*
X185278571Y-61514285D01*
X183778571Y-61014285D01*
X183921428Y-60585714D02*
X183850000Y-60514285D01*
X183778571Y-60371428D01*
X183778571Y-60014285D01*
X183850000Y-59871428D01*
X183921428Y-59800000D01*
X184064285Y-59728571D01*
X184207142Y-59728571D01*
X184421428Y-59800000D01*
X185278571Y-60657142D01*
X185278571Y-59728571D01*
D11*
%TO.P,M1,3*%
%TO.N,GND*%
X172730000Y-67620000D03*
%TD*%
D12*
%TO.P,U2,6*%
%TO.N,+3V3*%
X179620000Y-75200000D03*
%TO.P,U2,3*%
%TO.N,Net-(U2-Pad3)*%
X172000000Y-80280000D03*
%TO.P,U2,5*%
%TO.N,Net-(U2-Pad5)*%
X179620000Y-77740000D03*
%TO.P,U2,2*%
%TO.N,GND*%
X172000000Y-77740000D03*
%TO.P,U2,4*%
%TO.N,Net-(J1-Pad3)*%
X179620000Y-80280000D03*
D13*
%TO.P,U2,1*%
%TO.N,Net-(R6-Pad1)*%
X172000000Y-75200000D03*
%TD*%
%TO.P,R3,2*%
%TO.N,Net-(D1-Pad2)*%
%TA.AperFunction,SMDPad,CuDef*%
G36*
G01*
X174150000Y-73025000D02*
X174150000Y-71775000D01*
G75*
G02*
X174400000Y-71525000I250000J0D01*
G01*
X175200000Y-71525000D01*
G75*
G02*
X175450000Y-71775000I0J-250000D01*
G01*
X175450000Y-73025000D01*
G75*
G02*
X175200000Y-73275000I-250000J0D01*
G01*
X174400000Y-73275000D01*
G75*
G02*
X174150000Y-73025000I0J250000D01*
G01*
G37*
%TD.AperFunction*%
%TO.P,R3,1*%
%TO.N,+3V3*%
%TA.AperFunction,SMDPad,CuDef*%
G36*
G01*
X171050000Y-73025000D02*
X171050000Y-71775000D01*
G75*
G02*
X171300000Y-71525000I250000J0D01*
G01*
X172100000Y-71525000D01*
G75*
G02*
X172350000Y-71775000I0J-250000D01*
G01*
X172350000Y-73025000D01*
G75*
G02*
X172100000Y-73275000I-250000J0D01*
G01*
X171300000Y-73275000D01*
G75*
G02*
X171050000Y-73025000I0J250000D01*
G01*
G37*
%TD.AperFunction*%
%TD*%
%TO.P,D1,2*%
%TO.N,Net-(D1-Pad2)*%
%TA.AperFunction,SMDPad,CuDef*%
G36*
G01*
X171100000Y-61800000D02*
X171900000Y-61800000D01*
G75*
G02*
X172150000Y-62050000I0J-250000D01*
G01*
X172150000Y-62875000D01*
G75*
G02*
X171900000Y-63125000I-250000J0D01*
G01*
X171100000Y-63125000D01*
G75*
G02*
X170850000Y-62875000I0J250000D01*
G01*
X170850000Y-62050000D01*
G75*
G02*
X171100000Y-61800000I250000J0D01*
G01*
G37*
%TD.AperFunction*%
%TO.P,D1,1*%
%TO.N,Net-(D1-Pad1)*%
%TA.AperFunction,SMDPad,CuDef*%
G36*
G01*
X171100000Y-59875000D02*
X171900000Y-59875000D01*
G75*
G02*
X172150000Y-60125000I0J-250000D01*
G01*
X172150000Y-60950000D01*
G75*
G02*
X171900000Y-61200000I-250000J0D01*
G01*
X171100000Y-61200000D01*
G75*
G02*
X170850000Y-60950000I0J250000D01*
G01*
X170850000Y-60125000D01*
G75*
G02*
X171100000Y-59875000I250000J0D01*
G01*
G37*
%TD.AperFunction*%
%TD*%
D14*
%TO.P,J4,S1*%
%TO.N,GND*%
X176000000Y-86255000D03*
D15*
%TO.P,J4,A12*%
X179200000Y-82140000D03*
%TO.P,J4,A4*%
%TO.N,VBUS*%
X173600000Y-82140000D03*
%TO.P,J4,B12*%
%TO.N,GND*%
X172800000Y-82140000D03*
%TO.P,J4,B4*%
%TO.N,VBUS*%
X178400000Y-82140000D03*
D16*
%TO.P,J4,S1*%
%TO.N,GND*%
X180325000Y-86910000D03*
X171675000Y-86910000D03*
D17*
X180325000Y-82730000D03*
X171675000Y-82730000D03*
D18*
%TO.P,J4,A7*%
%TO.N,Net-(J4-PadA7)*%
X176250000Y-82140000D03*
%TO.P,J4,A6*%
%TO.N,Net-(J4-PadA6)*%
X175750000Y-82140000D03*
%TO.P,J4,B6*%
X176750000Y-82140000D03*
%TO.P,J4,B7*%
%TO.N,Net-(J4-PadA7)*%
X175250000Y-82140000D03*
%TO.P,J4,A8*%
%TO.N,Net-(J4-PadA8)*%
X177250000Y-82140000D03*
%TO.P,J4,A5*%
%TO.N,Net-(J4-PadA5)*%
X174750000Y-82140000D03*
%TO.P,J4,B5*%
%TO.N,Net-(J4-PadB5)*%
X177750000Y-82140000D03*
%TO.P,J4,B8*%
%TO.N,Net-(J4-PadB8)*%
X174250000Y-82140000D03*
D15*
%TO.P,J4,A9*%
%TO.N,VBUS*%
X178400000Y-82140000D03*
%TO.P,J4,B9*%
X173600000Y-82140000D03*
%TO.P,J4,B1*%
%TO.N,GND*%
X179200000Y-82140000D03*
D19*
%TO.P,J4,S1*%
X178890000Y-83210000D03*
X173110000Y-83210000D03*
D15*
%TO.P,J4,A1*%
X172800000Y-82140000D03*
%TD*%
D20*
%TO.P,U1,21*%
%TO.N,GND*%
X179075000Y-69125000D03*
D21*
%TO.P,U1,~*%
%TO.N,N/C*%
X177075000Y-71125000D03*
X181075000Y-67125000D03*
X181075000Y-71125000D03*
X177075000Y-67125000D03*
D22*
X177075000Y-71125000D03*
D23*
%TO.P,U1,21*%
%TO.N,GND*%
X179075000Y-69125000D03*
%TO.P,U1,20*%
%TO.N,Net-(C1-Pad1)*%
%TA.AperFunction,SMDPad,CuDef*%
G36*
G01*
X177487500Y-70250000D02*
X176612500Y-70250000D01*
G75*
G02*
X176550000Y-70187500I0J62500D01*
G01*
X176550000Y-70062500D01*
G75*
G02*
X176612500Y-70000000I62500J0D01*
G01*
X177487500Y-70000000D01*
G75*
G02*
X177550000Y-70062500I0J-62500D01*
G01*
X177550000Y-70187500D01*
G75*
G02*
X177487500Y-70250000I-62500J0D01*
G01*
G37*
%TD.AperFunction*%
%TO.P,U1,19*%
%TO.N,RST*%
%TA.AperFunction,SMDPad,CuDef*%
G36*
G01*
X177487500Y-69750000D02*
X176612500Y-69750000D01*
G75*
G02*
X176550000Y-69687500I0J62500D01*
G01*
X176550000Y-69562500D01*
G75*
G02*
X176612500Y-69500000I62500J0D01*
G01*
X177487500Y-69500000D01*
G75*
G02*
X177550000Y-69562500I0J-62500D01*
G01*
X177550000Y-69687500D01*
G75*
G02*
X177487500Y-69750000I-62500J0D01*
G01*
G37*
%TD.AperFunction*%
%TO.P,U1,18*%
%TO.N,GPIO0*%
%TA.AperFunction,SMDPad,CuDef*%
G36*
G01*
X177487500Y-69250000D02*
X176612500Y-69250000D01*
G75*
G02*
X176550000Y-69187500I0J62500D01*
G01*
X176550000Y-69062500D01*
G75*
G02*
X176612500Y-69000000I62500J0D01*
G01*
X177487500Y-69000000D01*
G75*
G02*
X177550000Y-69062500I0J-62500D01*
G01*
X177550000Y-69187500D01*
G75*
G02*
X177487500Y-69250000I-62500J0D01*
G01*
G37*
%TD.AperFunction*%
%TO.P,U1,17*%
%TO.N,RXD*%
%TA.AperFunction,SMDPad,CuDef*%
G36*
G01*
X177487500Y-68750000D02*
X176612500Y-68750000D01*
G75*
G02*
X176550000Y-68687500I0J62500D01*
G01*
X176550000Y-68562500D01*
G75*
G02*
X176612500Y-68500000I62500J0D01*
G01*
X177487500Y-68500000D01*
G75*
G02*
X177550000Y-68562500I0J-62500D01*
G01*
X177550000Y-68687500D01*
G75*
G02*
X177487500Y-68750000I-62500J0D01*
G01*
G37*
%TD.AperFunction*%
%TO.P,U1,16*%
%TO.N,Net-(U1-Pad16)*%
%TA.AperFunction,SMDPad,CuDef*%
G36*
G01*
X177487500Y-68250000D02*
X176612500Y-68250000D01*
G75*
G02*
X176550000Y-68187500I0J62500D01*
G01*
X176550000Y-68062500D01*
G75*
G02*
X176612500Y-68000000I62500J0D01*
G01*
X177487500Y-68000000D01*
G75*
G02*
X177550000Y-68062500I0J-62500D01*
G01*
X177550000Y-68187500D01*
G75*
G02*
X177487500Y-68250000I-62500J0D01*
G01*
G37*
%TD.AperFunction*%
%TO.P,U1,15*%
%TO.N,Net-(D1-Pad1)*%
%TA.AperFunction,SMDPad,CuDef*%
G36*
G01*
X178137500Y-67600000D02*
X178012500Y-67600000D01*
G75*
G02*
X177950000Y-67537500I0J62500D01*
G01*
X177950000Y-66662500D01*
G75*
G02*
X178012500Y-66600000I62500J0D01*
G01*
X178137500Y-66600000D01*
G75*
G02*
X178200000Y-66662500I0J-62500D01*
G01*
X178200000Y-67537500D01*
G75*
G02*
X178137500Y-67600000I-62500J0D01*
G01*
G37*
%TD.AperFunction*%
%TO.P,U1,14*%
%TO.N,Net-(U1-Pad14)*%
%TA.AperFunction,SMDPad,CuDef*%
G36*
G01*
X178637500Y-67600000D02*
X178512500Y-67600000D01*
G75*
G02*
X178450000Y-67537500I0J62500D01*
G01*
X178450000Y-66662500D01*
G75*
G02*
X178512500Y-66600000I62500J0D01*
G01*
X178637500Y-66600000D01*
G75*
G02*
X178700000Y-66662500I0J-62500D01*
G01*
X178700000Y-67537500D01*
G75*
G02*
X178637500Y-67600000I-62500J0D01*
G01*
G37*
%TD.AperFunction*%
%TO.P,U1,13*%
%TO.N,GND*%
%TA.AperFunction,SMDPad,CuDef*%
G36*
G01*
X179137500Y-67600000D02*
X179012500Y-67600000D01*
G75*
G02*
X178950000Y-67537500I0J62500D01*
G01*
X178950000Y-66662500D01*
G75*
G02*
X179012500Y-66600000I62500J0D01*
G01*
X179137500Y-66600000D01*
G75*
G02*
X179200000Y-66662500I0J-62500D01*
G01*
X179200000Y-67537500D01*
G75*
G02*
X179137500Y-67600000I-62500J0D01*
G01*
G37*
%TD.AperFunction*%
%TO.P,U1,12*%
%TO.N,VBUS*%
%TA.AperFunction,SMDPad,CuDef*%
G36*
G01*
X179637500Y-67600000D02*
X179512500Y-67600000D01*
G75*
G02*
X179450000Y-67537500I0J62500D01*
G01*
X179450000Y-66662500D01*
G75*
G02*
X179512500Y-66600000I62500J0D01*
G01*
X179637500Y-66600000D01*
G75*
G02*
X179700000Y-66662500I0J-62500D01*
G01*
X179700000Y-67537500D01*
G75*
G02*
X179637500Y-67600000I-62500J0D01*
G01*
G37*
%TD.AperFunction*%
%TO.P,U1,11*%
%TO.N,Net-(C1-Pad1)*%
%TA.AperFunction,SMDPad,CuDef*%
G36*
G01*
X180137500Y-67600000D02*
X180012500Y-67600000D01*
G75*
G02*
X179950000Y-67537500I0J62500D01*
G01*
X179950000Y-66662500D01*
G75*
G02*
X180012500Y-66600000I62500J0D01*
G01*
X180137500Y-66600000D01*
G75*
G02*
X180200000Y-66662500I0J-62500D01*
G01*
X180200000Y-67537500D01*
G75*
G02*
X180137500Y-67600000I-62500J0D01*
G01*
G37*
%TD.AperFunction*%
%TO.P,U1,10*%
%TA.AperFunction,SMDPad,CuDef*%
G36*
G01*
X181537500Y-68250000D02*
X180662500Y-68250000D01*
G75*
G02*
X180600000Y-68187500I0J62500D01*
G01*
X180600000Y-68062500D01*
G75*
G02*
X180662500Y-68000000I62500J0D01*
G01*
X181537500Y-68000000D01*
G75*
G02*
X181600000Y-68062500I0J-62500D01*
G01*
X181600000Y-68187500D01*
G75*
G02*
X181537500Y-68250000I-62500J0D01*
G01*
G37*
%TD.AperFunction*%
%TO.P,U1,9*%
%TO.N,D-*%
%TA.AperFunction,SMDPad,CuDef*%
G36*
G01*
X181537500Y-68750000D02*
X180662500Y-68750000D01*
G75*
G02*
X180600000Y-68687500I0J62500D01*
G01*
X180600000Y-68562500D01*
G75*
G02*
X180662500Y-68500000I62500J0D01*
G01*
X181537500Y-68500000D01*
G75*
G02*
X181600000Y-68562500I0J-62500D01*
G01*
X181600000Y-68687500D01*
G75*
G02*
X181537500Y-68750000I-62500J0D01*
G01*
G37*
%TD.AperFunction*%
%TO.P,U1,8*%
%TO.N,D+*%
%TA.AperFunction,SMDPad,CuDef*%
G36*
G01*
X181537500Y-69250000D02*
X180662500Y-69250000D01*
G75*
G02*
X180600000Y-69187500I0J62500D01*
G01*
X180600000Y-69062500D01*
G75*
G02*
X180662500Y-69000000I62500J0D01*
G01*
X181537500Y-69000000D01*
G75*
G02*
X181600000Y-69062500I0J-62500D01*
G01*
X181600000Y-69187500D01*
G75*
G02*
X181537500Y-69250000I-62500J0D01*
G01*
G37*
%TD.AperFunction*%
%TO.P,U1,7*%
%TO.N,Net-(U1-Pad7)*%
%TA.AperFunction,SMDPad,CuDef*%
G36*
G01*
X181537500Y-69750000D02*
X180662500Y-69750000D01*
G75*
G02*
X180600000Y-69687500I0J62500D01*
G01*
X180600000Y-69562500D01*
G75*
G02*
X180662500Y-69500000I62500J0D01*
G01*
X181537500Y-69500000D01*
G75*
G02*
X181600000Y-69562500I0J-62500D01*
G01*
X181600000Y-69687500D01*
G75*
G02*
X181537500Y-69750000I-62500J0D01*
G01*
G37*
%TD.AperFunction*%
%TO.P,U1,6*%
%TO.N,GND*%
%TA.AperFunction,SMDPad,CuDef*%
G36*
G01*
X181537500Y-70250000D02*
X180662500Y-70250000D01*
G75*
G02*
X180600000Y-70187500I0J62500D01*
G01*
X180600000Y-70062500D01*
G75*
G02*
X180662500Y-70000000I62500J0D01*
G01*
X181537500Y-70000000D01*
G75*
G02*
X181600000Y-70062500I0J-62500D01*
G01*
X181600000Y-70187500D01*
G75*
G02*
X181537500Y-70250000I-62500J0D01*
G01*
G37*
%TD.AperFunction*%
%TO.P,U1,5*%
%TA.AperFunction,SMDPad,CuDef*%
G36*
G01*
X180137500Y-71650000D02*
X180012500Y-71650000D01*
G75*
G02*
X179950000Y-71587500I0J62500D01*
G01*
X179950000Y-70712500D01*
G75*
G02*
X180012500Y-70650000I62500J0D01*
G01*
X180137500Y-70650000D01*
G75*
G02*
X180200000Y-70712500I0J-62500D01*
G01*
X180200000Y-71587500D01*
G75*
G02*
X180137500Y-71650000I-62500J0D01*
G01*
G37*
%TD.AperFunction*%
%TO.P,U1,4*%
%TA.AperFunction,SMDPad,CuDef*%
G36*
G01*
X179637500Y-71650000D02*
X179512500Y-71650000D01*
G75*
G02*
X179450000Y-71587500I0J62500D01*
G01*
X179450000Y-70712500D01*
G75*
G02*
X179512500Y-70650000I62500J0D01*
G01*
X179637500Y-70650000D01*
G75*
G02*
X179700000Y-70712500I0J-62500D01*
G01*
X179700000Y-71587500D01*
G75*
G02*
X179637500Y-71650000I-62500J0D01*
G01*
G37*
%TD.AperFunction*%
%TO.P,U1,3*%
%TA.AperFunction,SMDPad,CuDef*%
G36*
G01*
X179137500Y-71650000D02*
X179012500Y-71650000D01*
G75*
G02*
X178950000Y-71587500I0J62500D01*
G01*
X178950000Y-70712500D01*
G75*
G02*
X179012500Y-70650000I62500J0D01*
G01*
X179137500Y-70650000D01*
G75*
G02*
X179200000Y-70712500I0J-62500D01*
G01*
X179200000Y-71587500D01*
G75*
G02*
X179137500Y-71650000I-62500J0D01*
G01*
G37*
%TD.AperFunction*%
%TO.P,U1,2*%
%TO.N,Net-(U1-Pad2)*%
%TA.AperFunction,SMDPad,CuDef*%
G36*
G01*
X178637500Y-71650000D02*
X178512500Y-71650000D01*
G75*
G02*
X178450000Y-71587500I0J62500D01*
G01*
X178450000Y-70712500D01*
G75*
G02*
X178512500Y-70650000I62500J0D01*
G01*
X178637500Y-70650000D01*
G75*
G02*
X178700000Y-70712500I0J-62500D01*
G01*
X178700000Y-71587500D01*
G75*
G02*
X178637500Y-71650000I-62500J0D01*
G01*
G37*
%TD.AperFunction*%
%TO.P,U1,1*%
%TO.N,TXD*%
%TA.AperFunction,SMDPad,CuDef*%
G36*
G01*
X178137500Y-71650000D02*
X178012500Y-71650000D01*
G75*
G02*
X177950000Y-71587500I0J62500D01*
G01*
X177950000Y-70712500D01*
G75*
G02*
X178012500Y-70650000I62500J0D01*
G01*
X178137500Y-70650000D01*
G75*
G02*
X178200000Y-70712500I0J-62500D01*
G01*
X178200000Y-71587500D01*
G75*
G02*
X178137500Y-71650000I-62500J0D01*
G01*
G37*
%TD.AperFunction*%
%TD*%
%TO.P,C1,2*%
%TO.N,GND*%
%TA.AperFunction,SMDPad,CuDef*%
G36*
G01*
X181237500Y-65450001D02*
X181237500Y-64149999D01*
G75*
G02*
X181487499Y-63900000I249999J0D01*
G01*
X182312501Y-63900000D01*
G75*
G02*
X182562500Y-64149999I0J-249999D01*
G01*
X182562500Y-65450001D01*
G75*
G02*
X182312501Y-65700000I-249999J0D01*
G01*
X181487499Y-65700000D01*
G75*
G02*
X181237500Y-65450001I0J249999D01*
G01*
G37*
%TD.AperFunction*%
%TO.P,C1,1*%
%TO.N,Net-(C1-Pad1)*%
%TA.AperFunction,SMDPad,CuDef*%
G36*
G01*
X178112500Y-65450001D02*
X178112500Y-64149999D01*
G75*
G02*
X178362499Y-63900000I249999J0D01*
G01*
X179187501Y-63900000D01*
G75*
G02*
X179437500Y-64149999I0J-249999D01*
G01*
X179437500Y-65450001D01*
G75*
G02*
X179187501Y-65700000I-249999J0D01*
G01*
X178362499Y-65700000D01*
G75*
G02*
X178112500Y-65450001I0J249999D01*
G01*
G37*
%TD.AperFunction*%
%TD*%
D24*
%TO.P,J3,6*%
%TO.N,TXD*%
X174650000Y-62000000D03*
%TO.P,J3,5*%
%TO.N,RXD*%
X175920000Y-62000000D03*
%TO.P,J3,4*%
%TO.N,+3V3*%
X177190000Y-62000000D03*
%TO.P,J3,3*%
%TO.N,RST*%
X178460000Y-62000000D03*
%TO.P,J3,2*%
%TO.N,GPIO0*%
X179730000Y-62000000D03*
D25*
%TO.P,J3,1*%
%TO.N,GND*%
X181000000Y-62000000D03*
%TD*%
D24*
%TO.P,J2,6*%
%TO.N,TXD*%
X174650000Y-60630000D03*
%TO.P,J2,5*%
%TO.N,RXD*%
X175920000Y-60630000D03*
%TO.P,J2,4*%
%TO.N,+3V3*%
X177190000Y-60630000D03*
%TO.P,J2,3*%
%TO.N,RST*%
X178460000Y-60630000D03*
%TO.P,J2,2*%
%TO.N,GPIO0*%
X179730000Y-60630000D03*
D25*
%TO.P,J2,1*%
%TO.N,GND*%
X181000000Y-60630000D03*
%TD*%
D26*
%TO.P,J1,5*%
%TO.N,TXD*%
X184000000Y-76840000D03*
%TO.P,J1,4*%
%TO.N,RXD*%
X184000000Y-79380000D03*
%TO.P,J1,3*%
%TO.N,Net-(J1-Pad3)*%
X184000000Y-81920000D03*
%TO.P,J1,2*%
%TO.N,GPIO0*%
X184000000Y-84460000D03*
D27*
%TO.P,J1,1*%
%TO.N,GND*%
X184000000Y-87000000D03*
%TD*%
%TO.P,R5,2*%
%TO.N,D+*%
%TA.AperFunction,SMDPad,CuDef*%
G36*
G01*
X184625000Y-70550000D02*
X183375000Y-70550000D01*
G75*
G02*
X183125000Y-70300000I0J250000D01*
G01*
X183125000Y-69500000D01*
G75*
G02*
X183375000Y-69250000I250000J0D01*
G01*
X184625000Y-69250000D01*
G75*
G02*
X184875000Y-69500000I0J-250000D01*
G01*
X184875000Y-70300000D01*
G75*
G02*
X184625000Y-70550000I-250000J0D01*
G01*
G37*
%TD.AperFunction*%
%TO.P,R5,1*%
%TO.N,Net-(J4-PadA6)*%
%TA.AperFunction,SMDPad,CuDef*%
G36*
G01*
X184625000Y-73650000D02*
X183375000Y-73650000D01*
G75*
G02*
X183125000Y-73400000I0J250000D01*
G01*
X183125000Y-72600000D01*
G75*
G02*
X183375000Y-72350000I250000J0D01*
G01*
X184625000Y-72350000D01*
G75*
G02*
X184875000Y-72600000I0J-250000D01*
G01*
X184875000Y-73400000D01*
G75*
G02*
X184625000Y-73650000I-250000J0D01*
G01*
G37*
%TD.AperFunction*%
%TD*%
%TO.P,R4,2*%
%TO.N,D-*%
%TA.AperFunction,SMDPad,CuDef*%
G36*
G01*
X183375000Y-67350000D02*
X184625000Y-67350000D01*
G75*
G02*
X184875000Y-67600000I0J-250000D01*
G01*
X184875000Y-68400000D01*
G75*
G02*
X184625000Y-68650000I-250000J0D01*
G01*
X183375000Y-68650000D01*
G75*
G02*
X183125000Y-68400000I0J250000D01*
G01*
X183125000Y-67600000D01*
G75*
G02*
X183375000Y-67350000I250000J0D01*
G01*
G37*
%TD.AperFunction*%
%TO.P,R4,1*%
%TO.N,Net-(J4-PadA7)*%
%TA.AperFunction,SMDPad,CuDef*%
G36*
G01*
X183375000Y-64250000D02*
X184625000Y-64250000D01*
G75*
G02*
X184875000Y-64500000I0J-250000D01*
G01*
X184875000Y-65300000D01*
G75*
G02*
X184625000Y-65550000I-250000J0D01*
G01*
X183375000Y-65550000D01*
G75*
G02*
X183125000Y-65300000I0J250000D01*
G01*
X183125000Y-64500000D01*
G75*
G02*
X183375000Y-64250000I250000J0D01*
G01*
G37*
%TD.AperFunction*%
%TD*%
D28*
%TO.N,GND*%
X181880769Y-64800000D03*
%TO.N,VBUS*%
X172400000Y-70600000D03*
X177424320Y-65769746D03*
%TO.N,RXD*%
X175925010Y-68023022D03*
X175900000Y-64200000D03*
%TO.N,+3V3*%
X172112340Y-64462340D03*
X176126430Y-73371832D03*
%TO.N,GPIO0*%
X175500561Y-66374119D03*
%TO.N,TXD*%
X177685520Y-71746810D03*
%TO.N,RST*%
X177300000Y-75200000D03*
X182400000Y-70000000D03*
%TO.N,Net-(C1-Pad1)*%
X178800160Y-64825160D03*
X176027612Y-70272292D03*
%TO.N,Net-(J4-PadA7)*%
X174944906Y-80143496D03*
X176720267Y-80115644D03*
%TO.N,Net-(J4-PadA6)*%
X175419742Y-79263409D03*
X177667839Y-79516597D03*
%TO.N,Net-(J4-PadA5)*%
X174325010Y-80928195D03*
%TO.N,Net-(J4-PadB5)*%
X177943454Y-80990780D03*
%TD*%
D29*
%TO.N,GND*%
X181100000Y-70125000D02*
X180075000Y-70125000D01*
X180075000Y-70125000D02*
X179075000Y-69125000D01*
X180075000Y-71150000D02*
X180075000Y-70125000D01*
X179575000Y-69625000D02*
X179075000Y-69125000D01*
X179575000Y-71150000D02*
X179575000Y-69625000D01*
X179075000Y-71150000D02*
X179075000Y-69125000D01*
X179075000Y-67100000D02*
X179075000Y-69125000D01*
X179735000Y-82140000D02*
X180325000Y-82730000D01*
X179200000Y-82140000D02*
X179735000Y-82140000D01*
X172265000Y-82140000D02*
X171675000Y-82730000D01*
X172800000Y-82140000D02*
X172265000Y-82140000D01*
X179845000Y-83210000D02*
X180325000Y-82730000D01*
X178890000Y-83210000D02*
X179845000Y-83210000D01*
X172155000Y-83210000D02*
X171675000Y-82730000D01*
X173110000Y-83210000D02*
X172155000Y-83210000D01*
X175345000Y-86910000D02*
X176000000Y-86255000D01*
X171675000Y-86910000D02*
X175345000Y-86910000D01*
X175200000Y-86255000D02*
X176000000Y-86255000D01*
X171675000Y-82730000D02*
X175200000Y-86255000D01*
X176800000Y-86255000D02*
X176000000Y-86255000D01*
X180325000Y-82730000D02*
X176800000Y-86255000D01*
X173485000Y-77740000D02*
X172000000Y-77740000D01*
X180075000Y-71150000D02*
X173485000Y-77740000D01*
%TO.N,VBUS*%
X178160001Y-83035001D02*
X178400000Y-82795002D01*
X173839999Y-83035001D02*
X178160001Y-83035001D01*
X173600000Y-82795002D02*
X173839999Y-83035001D01*
X178400000Y-82795002D02*
X178400000Y-82140000D01*
X173600000Y-82140000D02*
X173600000Y-82795002D01*
X179575000Y-67100000D02*
X179575000Y-66551978D01*
X179575000Y-66551978D02*
X179192767Y-66169745D01*
X179192767Y-66169745D02*
X177824319Y-66169745D01*
X177824319Y-66169745D02*
X177424320Y-65769746D01*
X172250003Y-78865001D02*
X173600000Y-80214998D01*
X171459999Y-78865001D02*
X172250003Y-78865001D01*
X170724990Y-78129992D02*
X171459999Y-78865001D01*
X173600000Y-80214998D02*
X173600000Y-82140000D01*
X170724990Y-71536820D02*
X170724990Y-78129992D01*
X171661810Y-70600000D02*
X170724990Y-71536820D01*
X172400000Y-70600000D02*
X171661810Y-70600000D01*
%TO.N,RXD*%
X175925010Y-68048032D02*
X175925010Y-68023022D01*
X176501978Y-68625000D02*
X175925010Y-68048032D01*
X177050000Y-68625000D02*
X176501978Y-68625000D01*
X175900000Y-64200000D02*
X176249299Y-64549299D01*
X176249299Y-64549299D02*
X176249299Y-67698733D01*
X176249299Y-67698733D02*
X175925010Y-68023022D01*
%TO.N,+3V3*%
X173000000Y-72400000D02*
X171700000Y-72400000D01*
X173000000Y-69600000D02*
X173400000Y-70000000D01*
X171424587Y-69600000D02*
X173000000Y-69600000D01*
X173400000Y-72000000D02*
X173000000Y-72400000D01*
X173400000Y-70000000D02*
X173400000Y-72000000D01*
X170892988Y-69068401D02*
X171424587Y-69600000D01*
X170892988Y-65681692D02*
X170892988Y-69068401D01*
X172112340Y-64462340D02*
X170892988Y-65681692D01*
X173000000Y-72400000D02*
X173000000Y-73400000D01*
X175726431Y-73771831D02*
X176126430Y-73371832D01*
X173371831Y-73771831D02*
X175726431Y-73771831D01*
X173000000Y-73400000D02*
X173371831Y-73771831D01*
%TO.N,GPIO0*%
X175174998Y-66048556D02*
X175500561Y-66374119D01*
X175174998Y-65874998D02*
X175174998Y-66048556D01*
X175174998Y-65874998D02*
X175174998Y-63851998D01*
X175551998Y-63474998D02*
X177587902Y-63474998D01*
X175174998Y-63851998D02*
X175551998Y-63474998D01*
X177587902Y-63474998D02*
X178012911Y-63049989D01*
X178680011Y-63049989D02*
X179730000Y-62000000D01*
X178012911Y-63049989D02*
X178680011Y-63049989D01*
X177050000Y-69125000D02*
X177022280Y-69097280D01*
X175901257Y-69097280D02*
X175174998Y-68371021D01*
X177022280Y-69097280D02*
X175901257Y-69097280D01*
X175174998Y-68371021D02*
X175174998Y-65874998D01*
%TO.N,TXD*%
X174650000Y-62000000D02*
X174150001Y-62499999D01*
X175340734Y-70740734D02*
X176346810Y-71746810D01*
X174150001Y-62499999D02*
X174150001Y-69313590D01*
X177685520Y-71539480D02*
X177685520Y-71746810D01*
X175340734Y-70504323D02*
X175340734Y-70740734D01*
X174150001Y-69313590D02*
X175340734Y-70504323D01*
X178075000Y-71150000D02*
X177685520Y-71539480D01*
X176346810Y-71746810D02*
X177685520Y-71746810D01*
%TO.N,RST*%
X175365598Y-63024987D02*
X177401501Y-63024987D01*
X175714858Y-69547291D02*
X174724987Y-68557420D01*
X178426488Y-62000000D02*
X178460000Y-62000000D01*
X177401501Y-63024987D02*
X178426488Y-62000000D01*
X176453322Y-69625000D02*
X176375613Y-69547291D01*
X174724987Y-63665598D02*
X175365598Y-63024987D01*
X176375613Y-69547291D02*
X175714858Y-69547291D01*
X177050000Y-69625000D02*
X176453322Y-69625000D01*
X174724987Y-68557420D02*
X174724987Y-63665598D01*
X178650000Y-73850000D02*
X180450000Y-73850000D01*
X178650000Y-73850000D02*
X177300000Y-75200000D01*
X180450000Y-73850000D02*
X181400000Y-74800000D01*
X181400000Y-74800000D02*
X181800000Y-74800000D01*
X181800000Y-74800000D02*
X182600000Y-74000000D01*
X182600000Y-70200000D02*
X182400000Y-70000000D01*
X182600000Y-74000000D02*
X182600000Y-70200000D01*
%TO.N,D-*%
X183375000Y-68625000D02*
X184000000Y-68000000D01*
X181100000Y-68625000D02*
X183375000Y-68625000D01*
%TO.N,D+*%
X183225000Y-69125000D02*
X184000000Y-69900000D01*
X181100000Y-69125000D02*
X183225000Y-69125000D01*
%TO.N,Net-(C1-Pad1)*%
X180075000Y-67100000D02*
X181100000Y-68125000D01*
X180075000Y-66100000D02*
X178800160Y-64825160D01*
X180075000Y-67100000D02*
X180075000Y-66100000D01*
X176174904Y-70125000D02*
X176027612Y-70272292D01*
X177050000Y-70125000D02*
X176174904Y-70125000D01*
%TO.N,Net-(J4-PadA7)*%
X175250000Y-82140000D02*
X175250000Y-80448590D01*
X175250000Y-80448590D02*
X174944906Y-80143496D01*
X176250000Y-80585911D02*
X176720267Y-80115644D01*
X176250000Y-82140000D02*
X176250000Y-80585911D01*
X182650000Y-76188190D02*
X185200010Y-73638180D01*
X176720267Y-79179733D02*
X177108413Y-78791587D01*
X185200010Y-73638180D02*
X185200010Y-66100010D01*
X185200010Y-66100010D02*
X184000000Y-64900000D01*
X176720267Y-80115644D02*
X176720267Y-79179733D01*
X179006585Y-78791587D02*
X179079999Y-78865001D01*
X182650000Y-76923002D02*
X182650000Y-76188190D01*
X179079999Y-78865001D02*
X180708001Y-78865001D01*
X180708001Y-78865001D02*
X182650000Y-76923002D01*
X177108413Y-78791587D02*
X179006585Y-78791587D01*
%TO.N,Net-(J4-PadA6)*%
X175750000Y-82140000D02*
X175750000Y-79593667D01*
X175750000Y-79593667D02*
X175419742Y-79263409D01*
X178200000Y-77000000D02*
X178200000Y-78000000D01*
X184000000Y-73000000D02*
X184000000Y-73873002D01*
X181258003Y-76614999D02*
X178585001Y-76614999D01*
X184000000Y-73873002D02*
X181258003Y-76614999D01*
X177667839Y-80193391D02*
X177667839Y-79516597D01*
X178200000Y-78000000D02*
X177858424Y-78341576D01*
X176750000Y-82140000D02*
X176750000Y-81111230D01*
X176750000Y-81111230D02*
X177667839Y-80193391D01*
X176341576Y-78341576D02*
X175419742Y-79263409D01*
X178585001Y-76614999D02*
X178200000Y-77000000D01*
X177858424Y-78341576D02*
X176341576Y-78341576D01*
%TO.N,Net-(J4-PadA5)*%
X174750000Y-81123004D02*
X174555191Y-80928195D01*
X174555191Y-80928195D02*
X174325010Y-80928195D01*
X174750000Y-82140000D02*
X174750000Y-81123004D01*
%TO.N,Net-(J4-PadB5)*%
X177750000Y-82140000D02*
X177750000Y-81184234D01*
X177750000Y-81184234D02*
X177943454Y-80990780D01*
%TO.N,Net-(D1-Pad2)*%
X171342999Y-66257001D02*
X171342999Y-68706589D01*
X172150000Y-62462500D02*
X173000000Y-63312500D01*
X173000000Y-63312500D02*
X173000000Y-64600000D01*
X171786399Y-69149989D02*
X173186400Y-69149989D01*
X171342999Y-68706589D02*
X171786399Y-69149989D01*
X171500000Y-62462500D02*
X172150000Y-62462500D01*
X173186400Y-69149989D02*
X174800000Y-70763589D01*
X173000000Y-64600000D02*
X171342999Y-66257001D01*
X174800000Y-70763589D02*
X174800000Y-72400000D01*
%TO.N,Net-(D1-Pad1)*%
X171500000Y-60537500D02*
X171500000Y-60500000D01*
X171500000Y-60500000D02*
X172500000Y-59500000D01*
X181455002Y-59500000D02*
X182000000Y-60044998D01*
X172500000Y-59500000D02*
X181455002Y-59500000D01*
X182000000Y-62585002D02*
X181010012Y-63574990D01*
X178124320Y-63574990D02*
X176699310Y-65000000D01*
X182000000Y-60044998D02*
X182000000Y-62585002D01*
X181010012Y-63574990D02*
X178124320Y-63574990D01*
X177469747Y-66494747D02*
X178075000Y-67100000D01*
X176699310Y-66117738D02*
X177076319Y-66494747D01*
X176699310Y-65000000D02*
X176699310Y-66117738D01*
X177076319Y-66494747D02*
X177469747Y-66494747D01*
%TD*%
D30*
%TO.N,GND*%
X183053368Y-77993475D02*
X183227760Y-78110000D01*
X183053368Y-78226525D01*
X182846525Y-78433368D01*
X182684010Y-78676589D01*
X182572068Y-78946842D01*
X182515000Y-79233740D01*
X182515000Y-79526260D01*
X182572068Y-79813158D01*
X182684010Y-80083411D01*
X182846525Y-80326632D01*
X183053368Y-80533475D01*
X183227760Y-80650000D01*
X183053368Y-80766525D01*
X182846525Y-80973368D01*
X182684010Y-81216589D01*
X182572068Y-81486842D01*
X182515000Y-81773740D01*
X182515000Y-82066260D01*
X182572068Y-82353158D01*
X182684010Y-82623411D01*
X182846525Y-82866632D01*
X183053368Y-83073475D01*
X183227760Y-83190000D01*
X183053368Y-83306525D01*
X182846525Y-83513368D01*
X182684010Y-83756589D01*
X182572068Y-84026842D01*
X182515000Y-84313740D01*
X182515000Y-84606260D01*
X182572068Y-84893158D01*
X182684010Y-85163411D01*
X182846525Y-85406632D01*
X182978380Y-85538487D01*
X182905820Y-85560498D01*
X182795506Y-85619463D01*
X182698815Y-85698815D01*
X182619463Y-85795506D01*
X182560498Y-85905820D01*
X182524188Y-86025518D01*
X182511928Y-86150000D01*
X182515000Y-86714250D01*
X182673750Y-86873000D01*
X183873000Y-86873000D01*
X183873000Y-86853000D01*
X184127000Y-86853000D01*
X184127000Y-86873000D01*
X184147000Y-86873000D01*
X184147000Y-87127000D01*
X184127000Y-87127000D01*
X184127000Y-87147000D01*
X183873000Y-87147000D01*
X183873000Y-87127000D01*
X182673750Y-87127000D01*
X182515000Y-87285750D01*
X182511928Y-87850000D01*
X182524188Y-87974482D01*
X182560498Y-88094180D01*
X182619463Y-88204494D01*
X182698815Y-88301185D01*
X182715649Y-88315000D01*
X180807216Y-88315000D01*
X180807216Y-88314601D01*
X180958747Y-88260919D01*
X181096157Y-88187472D01*
X181173792Y-87938397D01*
X180806287Y-87570892D01*
X180805838Y-87211233D01*
X181353397Y-87758792D01*
X181602472Y-87681157D01*
X181728371Y-87417117D01*
X181800339Y-87133589D01*
X181815611Y-86841469D01*
X181773599Y-86551981D01*
X181675919Y-86276253D01*
X181602472Y-86138843D01*
X181353397Y-86061208D01*
X180805086Y-86609519D01*
X180805000Y-86540750D01*
X180659823Y-86395573D01*
X181173792Y-85881603D01*
X181096157Y-85632528D01*
X180832117Y-85506629D01*
X180805586Y-85499895D01*
X180807094Y-84293269D01*
X181011088Y-84222795D01*
X181185044Y-84129814D01*
X181280808Y-83865413D01*
X180793591Y-83378196D01*
X180759502Y-83265820D01*
X180700537Y-83155506D01*
X180621185Y-83058815D01*
X180524494Y-82979463D01*
X180414180Y-82920498D01*
X180294482Y-82884188D01*
X180268765Y-82881655D01*
X180134399Y-82747289D01*
X180135087Y-82740308D01*
X180145395Y-82730000D01*
X180504605Y-82730000D01*
X181460413Y-83685808D01*
X181724814Y-83590044D01*
X181865704Y-83300429D01*
X181947384Y-82988892D01*
X181966718Y-82667405D01*
X181922961Y-82348325D01*
X181817795Y-82043912D01*
X181724814Y-81869956D01*
X181460413Y-81774192D01*
X180504605Y-82730000D01*
X180145395Y-82730000D01*
X180136935Y-82721540D01*
X180138072Y-82710000D01*
X180138062Y-82709048D01*
X180310858Y-82536253D01*
X180325000Y-82550395D01*
X181280808Y-81594587D01*
X181185044Y-81330186D01*
X180895429Y-81189296D01*
X180761712Y-81154238D01*
X180891680Y-80959727D01*
X180999853Y-80698574D01*
X181055000Y-80421335D01*
X181055000Y-80138665D01*
X180999853Y-79861426D01*
X180892860Y-79603122D01*
X181000248Y-79570547D01*
X181132277Y-79499975D01*
X181248002Y-79405002D01*
X181271805Y-79375998D01*
X182853848Y-77793955D01*
X183053368Y-77993475D01*
%TA.AperFunction,Conductor*%
D31*
G36*
X183053368Y-77993475D02*
G01*
X183227760Y-78110000D01*
X183053368Y-78226525D01*
X182846525Y-78433368D01*
X182684010Y-78676589D01*
X182572068Y-78946842D01*
X182515000Y-79233740D01*
X182515000Y-79526260D01*
X182572068Y-79813158D01*
X182684010Y-80083411D01*
X182846525Y-80326632D01*
X183053368Y-80533475D01*
X183227760Y-80650000D01*
X183053368Y-80766525D01*
X182846525Y-80973368D01*
X182684010Y-81216589D01*
X182572068Y-81486842D01*
X182515000Y-81773740D01*
X182515000Y-82066260D01*
X182572068Y-82353158D01*
X182684010Y-82623411D01*
X182846525Y-82866632D01*
X183053368Y-83073475D01*
X183227760Y-83190000D01*
X183053368Y-83306525D01*
X182846525Y-83513368D01*
X182684010Y-83756589D01*
X182572068Y-84026842D01*
X182515000Y-84313740D01*
X182515000Y-84606260D01*
X182572068Y-84893158D01*
X182684010Y-85163411D01*
X182846525Y-85406632D01*
X182978380Y-85538487D01*
X182905820Y-85560498D01*
X182795506Y-85619463D01*
X182698815Y-85698815D01*
X182619463Y-85795506D01*
X182560498Y-85905820D01*
X182524188Y-86025518D01*
X182511928Y-86150000D01*
X182515000Y-86714250D01*
X182673750Y-86873000D01*
X183873000Y-86873000D01*
X183873000Y-86853000D01*
X184127000Y-86853000D01*
X184127000Y-86873000D01*
X184147000Y-86873000D01*
X184147000Y-87127000D01*
X184127000Y-87127000D01*
X184127000Y-87147000D01*
X183873000Y-87147000D01*
X183873000Y-87127000D01*
X182673750Y-87127000D01*
X182515000Y-87285750D01*
X182511928Y-87850000D01*
X182524188Y-87974482D01*
X182560498Y-88094180D01*
X182619463Y-88204494D01*
X182698815Y-88301185D01*
X182715649Y-88315000D01*
X180807216Y-88315000D01*
X180807216Y-88314601D01*
X180958747Y-88260919D01*
X181096157Y-88187472D01*
X181173792Y-87938397D01*
X180806287Y-87570892D01*
X180805838Y-87211233D01*
X181353397Y-87758792D01*
X181602472Y-87681157D01*
X181728371Y-87417117D01*
X181800339Y-87133589D01*
X181815611Y-86841469D01*
X181773599Y-86551981D01*
X181675919Y-86276253D01*
X181602472Y-86138843D01*
X181353397Y-86061208D01*
X180805086Y-86609519D01*
X180805000Y-86540750D01*
X180659823Y-86395573D01*
X181173792Y-85881603D01*
X181096157Y-85632528D01*
X180832117Y-85506629D01*
X180805586Y-85499895D01*
X180807094Y-84293269D01*
X181011088Y-84222795D01*
X181185044Y-84129814D01*
X181280808Y-83865413D01*
X180793591Y-83378196D01*
X180759502Y-83265820D01*
X180700537Y-83155506D01*
X180621185Y-83058815D01*
X180524494Y-82979463D01*
X180414180Y-82920498D01*
X180294482Y-82884188D01*
X180268765Y-82881655D01*
X180134399Y-82747289D01*
X180135087Y-82740308D01*
X180145395Y-82730000D01*
X180504605Y-82730000D01*
X181460413Y-83685808D01*
X181724814Y-83590044D01*
X181865704Y-83300429D01*
X181947384Y-82988892D01*
X181966718Y-82667405D01*
X181922961Y-82348325D01*
X181817795Y-82043912D01*
X181724814Y-81869956D01*
X181460413Y-81774192D01*
X180504605Y-82730000D01*
X180145395Y-82730000D01*
X180136935Y-82721540D01*
X180138072Y-82710000D01*
X180138062Y-82709048D01*
X180310858Y-82536253D01*
X180325000Y-82550395D01*
X181280808Y-81594587D01*
X181185044Y-81330186D01*
X180895429Y-81189296D01*
X180761712Y-81154238D01*
X180891680Y-80959727D01*
X180999853Y-80698574D01*
X181055000Y-80421335D01*
X181055000Y-80138665D01*
X180999853Y-79861426D01*
X180892860Y-79603122D01*
X181000248Y-79570547D01*
X181132277Y-79499975D01*
X181248002Y-79405002D01*
X181271805Y-79375998D01*
X182853848Y-77793955D01*
X183053368Y-77993475D01*
G37*
%TD.AperFunction*%
D30*
X176127000Y-86128000D02*
X179082315Y-86128000D01*
X179047528Y-86138843D01*
X178931586Y-86382000D01*
X176127000Y-86382000D01*
X176127000Y-86402000D01*
X175873000Y-86402000D01*
X175873000Y-86382000D01*
X173063381Y-86382000D01*
X173025919Y-86276253D01*
X172952472Y-86138843D01*
X172917685Y-86128000D01*
X175873000Y-86128000D01*
X175873000Y-86108000D01*
X176127000Y-86108000D01*
X176127000Y-86128000D01*
%TA.AperFunction,Conductor*%
D31*
G36*
X176127000Y-86128000D02*
G01*
X179082315Y-86128000D01*
X179047528Y-86138843D01*
X178931586Y-86382000D01*
X176127000Y-86382000D01*
X176127000Y-86402000D01*
X175873000Y-86402000D01*
X175873000Y-86382000D01*
X173063381Y-86382000D01*
X173025919Y-86276253D01*
X172952472Y-86138843D01*
X172917685Y-86128000D01*
X175873000Y-86128000D01*
X175873000Y-86108000D01*
X176127000Y-86108000D01*
X176127000Y-86128000D01*
G37*
%TD.AperFunction*%
D30*
X171861938Y-82709048D02*
X171861928Y-82710000D01*
X171863065Y-82721540D01*
X171854605Y-82730000D01*
X171864913Y-82740308D01*
X171865601Y-82747289D01*
X171731235Y-82881655D01*
X171705518Y-82884188D01*
X171640900Y-82903790D01*
X171481253Y-82744143D01*
X171495395Y-82730000D01*
X171481253Y-82715858D01*
X171660858Y-82536253D01*
X171675000Y-82550395D01*
X171689143Y-82536253D01*
X171861938Y-82709048D01*
%TA.AperFunction,Conductor*%
D31*
G36*
X171861938Y-82709048D02*
G01*
X171861928Y-82710000D01*
X171863065Y-82721540D01*
X171854605Y-82730000D01*
X171864913Y-82740308D01*
X171865601Y-82747289D01*
X171731235Y-82881655D01*
X171705518Y-82884188D01*
X171640900Y-82903790D01*
X171481253Y-82744143D01*
X171495395Y-82730000D01*
X171481253Y-82715858D01*
X171660858Y-82536253D01*
X171675000Y-82550395D01*
X171689143Y-82536253D01*
X171861938Y-82709048D01*
G37*
%TD.AperFunction*%
D30*
X181840001Y-70870604D02*
X181840000Y-73685198D01*
X181600000Y-73925198D01*
X181013804Y-73339002D01*
X180990001Y-73309999D01*
X180874276Y-73215026D01*
X180742247Y-73144454D01*
X180598986Y-73100997D01*
X180487333Y-73090000D01*
X180487322Y-73090000D01*
X180450000Y-73086324D01*
X180412678Y-73090000D01*
X178687322Y-73090000D01*
X178649999Y-73086324D01*
X178612676Y-73090000D01*
X178612667Y-73090000D01*
X178501014Y-73100997D01*
X178357753Y-73144454D01*
X178225724Y-73215026D01*
X178109999Y-73309999D01*
X178086201Y-73338997D01*
X177260199Y-74165000D01*
X177198061Y-74165000D01*
X176998102Y-74204774D01*
X176809744Y-74282795D01*
X176640226Y-74396063D01*
X176496063Y-74540226D01*
X176382795Y-74709744D01*
X176304774Y-74898102D01*
X176265000Y-75098061D01*
X176265000Y-75301939D01*
X176304774Y-75501898D01*
X176382795Y-75690256D01*
X176496063Y-75859774D01*
X176640226Y-76003937D01*
X176809744Y-76117205D01*
X176998102Y-76195226D01*
X177198061Y-76235000D01*
X177401939Y-76235000D01*
X177601898Y-76195226D01*
X177790256Y-76117205D01*
X177959774Y-76003937D01*
X178103937Y-75859774D01*
X178217205Y-75690256D01*
X178243522Y-75626722D01*
X178348320Y-75879727D01*
X178355470Y-75890428D01*
X178292754Y-75909453D01*
X178160725Y-75980025D01*
X178045000Y-76074998D01*
X178021197Y-76104002D01*
X177689003Y-76436196D01*
X177659999Y-76459999D01*
X177604871Y-76527174D01*
X177565026Y-76575724D01*
X177535611Y-76630756D01*
X177494454Y-76707754D01*
X177450997Y-76851015D01*
X177440000Y-76962668D01*
X177440000Y-76962678D01*
X177436324Y-77000000D01*
X177440000Y-77037323D01*
X177440001Y-77581576D01*
X176378899Y-77581576D01*
X176341576Y-77577900D01*
X176304253Y-77581576D01*
X176304243Y-77581576D01*
X176192590Y-77592573D01*
X176052810Y-77634974D01*
X176049329Y-77636030D01*
X175917299Y-77706602D01*
X175865635Y-77749002D01*
X175801575Y-77801575D01*
X175777777Y-77830573D01*
X175379941Y-78228409D01*
X175317803Y-78228409D01*
X175117844Y-78268183D01*
X174929486Y-78346204D01*
X174759968Y-78459472D01*
X174615805Y-78603635D01*
X174502537Y-78773153D01*
X174424516Y-78961511D01*
X174384742Y-79161470D01*
X174384742Y-79273002D01*
X174285132Y-79339559D01*
X174140969Y-79483722D01*
X174061885Y-79602081D01*
X173105961Y-78646157D01*
X173231037Y-78477420D01*
X173351246Y-78223087D01*
X173391904Y-78089039D01*
X173269915Y-77867000D01*
X172127000Y-77867000D01*
X172127000Y-77887000D01*
X171873000Y-77887000D01*
X171873000Y-77867000D01*
X171853000Y-77867000D01*
X171853000Y-77613000D01*
X171873000Y-77613000D01*
X171873000Y-77593000D01*
X172127000Y-77593000D01*
X172127000Y-77613000D01*
X173269915Y-77613000D01*
X173391904Y-77390961D01*
X173351246Y-77256913D01*
X173231037Y-77002580D01*
X173063519Y-76776586D01*
X172899920Y-76628231D01*
X172924482Y-76625812D01*
X173044180Y-76589502D01*
X173154494Y-76530537D01*
X173251185Y-76451185D01*
X173330537Y-76354494D01*
X173389502Y-76244180D01*
X173425812Y-76124482D01*
X173438072Y-76000000D01*
X173438072Y-74531831D01*
X175689109Y-74531831D01*
X175726431Y-74535507D01*
X175763753Y-74531831D01*
X175763764Y-74531831D01*
X175875417Y-74520834D01*
X176018678Y-74477377D01*
X176150656Y-74406832D01*
X176228369Y-74406832D01*
X176428328Y-74367058D01*
X176616686Y-74289037D01*
X176786204Y-74175769D01*
X176930367Y-74031606D01*
X177043635Y-73862088D01*
X177121656Y-73673730D01*
X177161430Y-73473771D01*
X177161430Y-73269893D01*
X177121656Y-73069934D01*
X177043635Y-72881576D01*
X176930367Y-72712058D01*
X176786204Y-72567895D01*
X176694784Y-72506810D01*
X176981809Y-72506810D01*
X177025746Y-72550747D01*
X177195264Y-72664015D01*
X177383622Y-72742036D01*
X177583581Y-72781810D01*
X177787459Y-72781810D01*
X177987418Y-72742036D01*
X178175776Y-72664015D01*
X178345294Y-72550747D01*
X178489457Y-72406584D01*
X178568644Y-72288072D01*
X178637500Y-72288072D01*
X178774175Y-72274611D01*
X178796481Y-72267844D01*
X178812629Y-72273109D01*
X178916250Y-72285000D01*
X179051973Y-72149277D01*
X179054430Y-72147260D01*
X179084633Y-72173109D01*
X179169498Y-72220748D01*
X179233750Y-72285000D01*
X179325000Y-72274529D01*
X179416250Y-72285000D01*
X179480502Y-72220748D01*
X179565367Y-72173109D01*
X179575000Y-72164865D01*
X179584633Y-72173109D01*
X179669498Y-72220748D01*
X179733750Y-72285000D01*
X179825000Y-72274529D01*
X179916250Y-72285000D01*
X179980502Y-72220748D01*
X180065367Y-72173109D01*
X180095807Y-72147057D01*
X180233750Y-72285000D01*
X180337371Y-72273109D01*
X180456294Y-72234337D01*
X180565367Y-72173109D01*
X180660400Y-72091777D01*
X180737740Y-71993469D01*
X180794415Y-71881962D01*
X180806885Y-71837576D01*
X180850518Y-71850812D01*
X180975000Y-71863072D01*
X181175000Y-71863072D01*
X181299482Y-71850812D01*
X181419180Y-71814502D01*
X181529494Y-71755537D01*
X181626185Y-71676185D01*
X181705537Y-71579494D01*
X181764502Y-71469180D01*
X181800812Y-71349482D01*
X181813072Y-71225000D01*
X181813072Y-71025000D01*
X181800812Y-70900518D01*
X181787576Y-70856885D01*
X181810028Y-70850577D01*
X181840001Y-70870604D01*
%TA.AperFunction,Conductor*%
D31*
G36*
X181840001Y-70870604D02*
G01*
X181840000Y-73685198D01*
X181600000Y-73925198D01*
X181013804Y-73339002D01*
X180990001Y-73309999D01*
X180874276Y-73215026D01*
X180742247Y-73144454D01*
X180598986Y-73100997D01*
X180487333Y-73090000D01*
X180487322Y-73090000D01*
X180450000Y-73086324D01*
X180412678Y-73090000D01*
X178687322Y-73090000D01*
X178649999Y-73086324D01*
X178612676Y-73090000D01*
X178612667Y-73090000D01*
X178501014Y-73100997D01*
X178357753Y-73144454D01*
X178225724Y-73215026D01*
X178109999Y-73309999D01*
X178086201Y-73338997D01*
X177260199Y-74165000D01*
X177198061Y-74165000D01*
X176998102Y-74204774D01*
X176809744Y-74282795D01*
X176640226Y-74396063D01*
X176496063Y-74540226D01*
X176382795Y-74709744D01*
X176304774Y-74898102D01*
X176265000Y-75098061D01*
X176265000Y-75301939D01*
X176304774Y-75501898D01*
X176382795Y-75690256D01*
X176496063Y-75859774D01*
X176640226Y-76003937D01*
X176809744Y-76117205D01*
X176998102Y-76195226D01*
X177198061Y-76235000D01*
X177401939Y-76235000D01*
X177601898Y-76195226D01*
X177790256Y-76117205D01*
X177959774Y-76003937D01*
X178103937Y-75859774D01*
X178217205Y-75690256D01*
X178243522Y-75626722D01*
X178348320Y-75879727D01*
X178355470Y-75890428D01*
X178292754Y-75909453D01*
X178160725Y-75980025D01*
X178045000Y-76074998D01*
X178021197Y-76104002D01*
X177689003Y-76436196D01*
X177659999Y-76459999D01*
X177604871Y-76527174D01*
X177565026Y-76575724D01*
X177535611Y-76630756D01*
X177494454Y-76707754D01*
X177450997Y-76851015D01*
X177440000Y-76962668D01*
X177440000Y-76962678D01*
X177436324Y-77000000D01*
X177440000Y-77037323D01*
X177440001Y-77581576D01*
X176378899Y-77581576D01*
X176341576Y-77577900D01*
X176304253Y-77581576D01*
X176304243Y-77581576D01*
X176192590Y-77592573D01*
X176052810Y-77634974D01*
X176049329Y-77636030D01*
X175917299Y-77706602D01*
X175865635Y-77749002D01*
X175801575Y-77801575D01*
X175777777Y-77830573D01*
X175379941Y-78228409D01*
X175317803Y-78228409D01*
X175117844Y-78268183D01*
X174929486Y-78346204D01*
X174759968Y-78459472D01*
X174615805Y-78603635D01*
X174502537Y-78773153D01*
X174424516Y-78961511D01*
X174384742Y-79161470D01*
X174384742Y-79273002D01*
X174285132Y-79339559D01*
X174140969Y-79483722D01*
X174061885Y-79602081D01*
X173105961Y-78646157D01*
X173231037Y-78477420D01*
X173351246Y-78223087D01*
X173391904Y-78089039D01*
X173269915Y-77867000D01*
X172127000Y-77867000D01*
X172127000Y-77887000D01*
X171873000Y-77887000D01*
X171873000Y-77867000D01*
X171853000Y-77867000D01*
X171853000Y-77613000D01*
X171873000Y-77613000D01*
X171873000Y-77593000D01*
X172127000Y-77593000D01*
X172127000Y-77613000D01*
X173269915Y-77613000D01*
X173391904Y-77390961D01*
X173351246Y-77256913D01*
X173231037Y-77002580D01*
X173063519Y-76776586D01*
X172899920Y-76628231D01*
X172924482Y-76625812D01*
X173044180Y-76589502D01*
X173154494Y-76530537D01*
X173251185Y-76451185D01*
X173330537Y-76354494D01*
X173389502Y-76244180D01*
X173425812Y-76124482D01*
X173438072Y-76000000D01*
X173438072Y-74531831D01*
X175689109Y-74531831D01*
X175726431Y-74535507D01*
X175763753Y-74531831D01*
X175763764Y-74531831D01*
X175875417Y-74520834D01*
X176018678Y-74477377D01*
X176150656Y-74406832D01*
X176228369Y-74406832D01*
X176428328Y-74367058D01*
X176616686Y-74289037D01*
X176786204Y-74175769D01*
X176930367Y-74031606D01*
X177043635Y-73862088D01*
X177121656Y-73673730D01*
X177161430Y-73473771D01*
X177161430Y-73269893D01*
X177121656Y-73069934D01*
X177043635Y-72881576D01*
X176930367Y-72712058D01*
X176786204Y-72567895D01*
X176694784Y-72506810D01*
X176981809Y-72506810D01*
X177025746Y-72550747D01*
X177195264Y-72664015D01*
X177383622Y-72742036D01*
X177583581Y-72781810D01*
X177787459Y-72781810D01*
X177987418Y-72742036D01*
X178175776Y-72664015D01*
X178345294Y-72550747D01*
X178489457Y-72406584D01*
X178568644Y-72288072D01*
X178637500Y-72288072D01*
X178774175Y-72274611D01*
X178796481Y-72267844D01*
X178812629Y-72273109D01*
X178916250Y-72285000D01*
X179051973Y-72149277D01*
X179054430Y-72147260D01*
X179084633Y-72173109D01*
X179169498Y-72220748D01*
X179233750Y-72285000D01*
X179325000Y-72274529D01*
X179416250Y-72285000D01*
X179480502Y-72220748D01*
X179565367Y-72173109D01*
X179575000Y-72164865D01*
X179584633Y-72173109D01*
X179669498Y-72220748D01*
X179733750Y-72285000D01*
X179825000Y-72274529D01*
X179916250Y-72285000D01*
X179980502Y-72220748D01*
X180065367Y-72173109D01*
X180095807Y-72147057D01*
X180233750Y-72285000D01*
X180337371Y-72273109D01*
X180456294Y-72234337D01*
X180565367Y-72173109D01*
X180660400Y-72091777D01*
X180737740Y-71993469D01*
X180794415Y-71881962D01*
X180806885Y-71837576D01*
X180850518Y-71850812D01*
X180975000Y-71863072D01*
X181175000Y-71863072D01*
X181299482Y-71850812D01*
X181419180Y-71814502D01*
X181529494Y-71755537D01*
X181626185Y-71676185D01*
X181705537Y-71579494D01*
X181764502Y-71469180D01*
X181800812Y-71349482D01*
X181813072Y-71225000D01*
X181813072Y-71025000D01*
X181800812Y-70900518D01*
X181787576Y-70856885D01*
X181810028Y-70850577D01*
X181840001Y-70870604D01*
G37*
%TD.AperFunction*%
D30*
X180200000Y-71277000D02*
X179950000Y-71277000D01*
X179950000Y-71023000D01*
X180200000Y-71023000D01*
X180200000Y-71277000D01*
%TA.AperFunction,Conductor*%
D31*
G36*
X180200000Y-71277000D02*
G01*
X179950000Y-71277000D01*
X179950000Y-71023000D01*
X180200000Y-71023000D01*
X180200000Y-71277000D01*
G37*
%TD.AperFunction*%
D30*
X179222000Y-69064110D02*
X179222000Y-69185890D01*
X179135890Y-69272000D01*
X179014110Y-69272000D01*
X178928000Y-69185890D01*
X178928000Y-69064110D01*
X179014110Y-68978000D01*
X179135890Y-68978000D01*
X179222000Y-69064110D01*
%TA.AperFunction,Conductor*%
D31*
G36*
X179222000Y-69064110D02*
G01*
X179222000Y-69185890D01*
X179135890Y-69272000D01*
X179014110Y-69272000D01*
X178928000Y-69185890D01*
X178928000Y-69064110D01*
X179014110Y-68978000D01*
X179135890Y-68978000D01*
X179222000Y-69064110D01*
G37*
%TD.AperFunction*%
D30*
X180602500Y-64514250D02*
X180761250Y-64673000D01*
X181773000Y-64673000D01*
X181773000Y-64653000D01*
X182027000Y-64653000D01*
X182027000Y-64673000D01*
X182047000Y-64673000D01*
X182047000Y-64927000D01*
X182027000Y-64927000D01*
X182027000Y-66176250D01*
X182185750Y-66335000D01*
X182562500Y-66338072D01*
X182686982Y-66325812D01*
X182806680Y-66289502D01*
X182916994Y-66230537D01*
X183013685Y-66151185D01*
X183038145Y-66121380D01*
X183201746Y-66171008D01*
X183375000Y-66188072D01*
X184213270Y-66188072D01*
X184440011Y-66414814D01*
X184440011Y-66711928D01*
X183375000Y-66711928D01*
X183201746Y-66728992D01*
X183035150Y-66779528D01*
X182881614Y-66861595D01*
X182747038Y-66972038D01*
X182636595Y-67106614D01*
X182554528Y-67260150D01*
X182503992Y-67426746D01*
X182486928Y-67600000D01*
X182486928Y-67865000D01*
X182206160Y-67865000D01*
X182184744Y-67794403D01*
X182120004Y-67673283D01*
X182032879Y-67567121D01*
X181926717Y-67479996D01*
X181805597Y-67415256D01*
X181782944Y-67408384D01*
X181800812Y-67349482D01*
X181813072Y-67225000D01*
X181813072Y-67025000D01*
X181800812Y-66900518D01*
X181764502Y-66780820D01*
X181705537Y-66670506D01*
X181626185Y-66573815D01*
X181529494Y-66494463D01*
X181419180Y-66435498D01*
X181299482Y-66399188D01*
X181175000Y-66386928D01*
X180975000Y-66386928D01*
X180850518Y-66399188D01*
X180835000Y-66403895D01*
X180835000Y-66191140D01*
X180883006Y-66230537D01*
X180993320Y-66289502D01*
X181113018Y-66325812D01*
X181237500Y-66338072D01*
X181614250Y-66335000D01*
X181773000Y-66176250D01*
X181773000Y-64927000D01*
X180761250Y-64927000D01*
X180602500Y-65085750D01*
X180600189Y-65547843D01*
X180586003Y-65536201D01*
X180075572Y-65025770D01*
X180075572Y-64334990D01*
X180601603Y-64334990D01*
X180602500Y-64514250D01*
%TA.AperFunction,Conductor*%
D31*
G36*
X180602500Y-64514250D02*
G01*
X180761250Y-64673000D01*
X181773000Y-64673000D01*
X181773000Y-64653000D01*
X182027000Y-64653000D01*
X182027000Y-64673000D01*
X182047000Y-64673000D01*
X182047000Y-64927000D01*
X182027000Y-64927000D01*
X182027000Y-66176250D01*
X182185750Y-66335000D01*
X182562500Y-66338072D01*
X182686982Y-66325812D01*
X182806680Y-66289502D01*
X182916994Y-66230537D01*
X183013685Y-66151185D01*
X183038145Y-66121380D01*
X183201746Y-66171008D01*
X183375000Y-66188072D01*
X184213270Y-66188072D01*
X184440011Y-66414814D01*
X184440011Y-66711928D01*
X183375000Y-66711928D01*
X183201746Y-66728992D01*
X183035150Y-66779528D01*
X182881614Y-66861595D01*
X182747038Y-66972038D01*
X182636595Y-67106614D01*
X182554528Y-67260150D01*
X182503992Y-67426746D01*
X182486928Y-67600000D01*
X182486928Y-67865000D01*
X182206160Y-67865000D01*
X182184744Y-67794403D01*
X182120004Y-67673283D01*
X182032879Y-67567121D01*
X181926717Y-67479996D01*
X181805597Y-67415256D01*
X181782944Y-67408384D01*
X181800812Y-67349482D01*
X181813072Y-67225000D01*
X181813072Y-67025000D01*
X181800812Y-66900518D01*
X181764502Y-66780820D01*
X181705537Y-66670506D01*
X181626185Y-66573815D01*
X181529494Y-66494463D01*
X181419180Y-66435498D01*
X181299482Y-66399188D01*
X181175000Y-66386928D01*
X180975000Y-66386928D01*
X180850518Y-66399188D01*
X180835000Y-66403895D01*
X180835000Y-66191140D01*
X180883006Y-66230537D01*
X180993320Y-66289502D01*
X181113018Y-66325812D01*
X181237500Y-66338072D01*
X181614250Y-66335000D01*
X181773000Y-66176250D01*
X181773000Y-64927000D01*
X180761250Y-64927000D01*
X180602500Y-65085750D01*
X180600189Y-65547843D01*
X180586003Y-65536201D01*
X180075572Y-65025770D01*
X180075572Y-64334990D01*
X180601603Y-64334990D01*
X180602500Y-64514250D01*
G37*
%TD.AperFunction*%
D30*
X173390002Y-66220586D02*
X173015750Y-66223000D01*
X172857000Y-66381750D01*
X172857000Y-67493000D01*
X172877000Y-67493000D01*
X172877000Y-67747000D01*
X172857000Y-67747000D01*
X172857000Y-67767000D01*
X172603000Y-67767000D01*
X172603000Y-67747000D01*
X172583000Y-67747000D01*
X172583000Y-67493000D01*
X172603000Y-67493000D01*
X172603000Y-66381750D01*
X172448026Y-66226776D01*
X173390001Y-65284800D01*
X173390002Y-66220586D01*
%TA.AperFunction,Conductor*%
D31*
G36*
X173390002Y-66220586D02*
G01*
X173015750Y-66223000D01*
X172857000Y-66381750D01*
X172857000Y-67493000D01*
X172877000Y-67493000D01*
X172877000Y-67747000D01*
X172857000Y-67747000D01*
X172857000Y-67767000D01*
X172603000Y-67767000D01*
X172603000Y-67747000D01*
X172583000Y-67747000D01*
X172583000Y-67493000D01*
X172603000Y-67493000D01*
X172603000Y-66381750D01*
X172448026Y-66226776D01*
X173390001Y-65284800D01*
X173390002Y-66220586D01*
G37*
%TD.AperFunction*%
D30*
X181127000Y-60503000D02*
X181147000Y-60503000D01*
X181147000Y-60757000D01*
X181127000Y-60757000D01*
X181127000Y-61873000D01*
X181147000Y-61873000D01*
X181147000Y-62127000D01*
X181127000Y-62127000D01*
X181127000Y-62147000D01*
X180873000Y-62147000D01*
X180873000Y-62127000D01*
X180861974Y-62127000D01*
X180865000Y-62111788D01*
X180865000Y-61888212D01*
X180861974Y-61873000D01*
X180873000Y-61873000D01*
X180873000Y-60757000D01*
X180861974Y-60757000D01*
X180865000Y-60741788D01*
X180865000Y-60518212D01*
X180861974Y-60503000D01*
X180873000Y-60503000D01*
X180873000Y-60483000D01*
X181127000Y-60483000D01*
X181127000Y-60503000D01*
%TA.AperFunction,Conductor*%
D31*
G36*
X181127000Y-60503000D02*
G01*
X181147000Y-60503000D01*
X181147000Y-60757000D01*
X181127000Y-60757000D01*
X181127000Y-61873000D01*
X181147000Y-61873000D01*
X181147000Y-62127000D01*
X181127000Y-62127000D01*
X181127000Y-62147000D01*
X180873000Y-62147000D01*
X180873000Y-62127000D01*
X180861974Y-62127000D01*
X180865000Y-62111788D01*
X180865000Y-61888212D01*
X180861974Y-61873000D01*
X180873000Y-61873000D01*
X180873000Y-60757000D01*
X180861974Y-60757000D01*
X180865000Y-60741788D01*
X180865000Y-60518212D01*
X180861974Y-60503000D01*
X180873000Y-60503000D01*
X180873000Y-60483000D01*
X181127000Y-60483000D01*
X181127000Y-60503000D01*
G37*
%TD.AperFunction*%
%TD*%
M02*
