%TF.GenerationSoftware,KiCad,Pcbnew,(5.1.9-0-10_14)*%
%TF.CreationDate,2021-04-23T16:02:44+01:00*%
%TF.ProjectId,Shelly,5368656c-6c79-42e6-9b69-6361645f7063,rev?*%
%TF.SameCoordinates,Original*%
%TF.FileFunction,Soldermask,Bot*%
%TF.FilePolarity,Negative*%
%FSLAX46Y46*%
G04 Gerber Fmt 4.6, Leading zero omitted, Abs format (unit mm)*
G04 Created by KiCad (PCBNEW (5.1.9-0-10_14)) date 2021-04-23 16:02:44*
%MOMM*%
%LPD*%
G01*
G04 APERTURE LIST*
%ADD10O,1.000000X1.000000*%
%ADD11R,1.000000X1.000000*%
%ADD12C,1.700000*%
%ADD13R,1.524000X1.524000*%
%ADD14C,2.000000*%
%ADD15C,1.524000*%
%ADD16O,1.700000X1.700000*%
%ADD17R,1.700000X1.700000*%
G04 APERTURE END LIST*
D10*
%TO.C,J3*%
X174150000Y-62500000D03*
X175420000Y-62500000D03*
X176690000Y-62500000D03*
X177960000Y-62500000D03*
X179230000Y-62500000D03*
D11*
X180500000Y-62500000D03*
%TD*%
D12*
%TO.C,M1*%
X172000000Y-72540000D03*
X172000000Y-64920000D03*
D13*
X172000000Y-67460000D03*
D12*
X172000000Y-70000000D03*
%TD*%
%TO.C,J4*%
X180325000Y-86910000D03*
X171675000Y-86910000D03*
D14*
X180325000Y-82730000D03*
X171675000Y-82730000D03*
%TD*%
%TO.C,R1*%
G36*
G01*
X174175000Y-86850000D02*
X175425000Y-86850000D01*
G75*
G02*
X175675000Y-87100000I0J-250000D01*
G01*
X175675000Y-87900000D01*
G75*
G02*
X175425000Y-88150000I-250000J0D01*
G01*
X174175000Y-88150000D01*
G75*
G02*
X173925000Y-87900000I0J250000D01*
G01*
X173925000Y-87100000D01*
G75*
G02*
X174175000Y-86850000I250000J0D01*
G01*
G37*
G36*
G01*
X174175000Y-83750000D02*
X175425000Y-83750000D01*
G75*
G02*
X175675000Y-84000000I0J-250000D01*
G01*
X175675000Y-84800000D01*
G75*
G02*
X175425000Y-85050000I-250000J0D01*
G01*
X174175000Y-85050000D01*
G75*
G02*
X173925000Y-84800000I0J250000D01*
G01*
X173925000Y-84000000D01*
G75*
G02*
X174175000Y-83750000I250000J0D01*
G01*
G37*
%TD*%
D15*
%TO.C,U1*%
X178375000Y-68875000D03*
%TD*%
D10*
%TO.C,J2*%
X174150000Y-60630000D03*
X175420000Y-60630000D03*
X176690000Y-60630000D03*
X177960000Y-60630000D03*
X179230000Y-60630000D03*
D11*
X180500000Y-60630000D03*
%TD*%
D16*
%TO.C,J1*%
X183000000Y-76840000D03*
X183000000Y-79380000D03*
X183000000Y-81920000D03*
X183000000Y-84460000D03*
D17*
X183000000Y-87000000D03*
%TD*%
%TO.C,R2*%
G36*
G01*
X178225000Y-85050000D02*
X176975000Y-85050000D01*
G75*
G02*
X176725000Y-84800000I0J250000D01*
G01*
X176725000Y-84000000D01*
G75*
G02*
X176975000Y-83750000I250000J0D01*
G01*
X178225000Y-83750000D01*
G75*
G02*
X178475000Y-84000000I0J-250000D01*
G01*
X178475000Y-84800000D01*
G75*
G02*
X178225000Y-85050000I-250000J0D01*
G01*
G37*
G36*
G01*
X178225000Y-88150000D02*
X176975000Y-88150000D01*
G75*
G02*
X176725000Y-87900000I0J250000D01*
G01*
X176725000Y-87100000D01*
G75*
G02*
X176975000Y-86850000I250000J0D01*
G01*
X178225000Y-86850000D01*
G75*
G02*
X178475000Y-87100000I0J-250000D01*
G01*
X178475000Y-87900000D01*
G75*
G02*
X178225000Y-88150000I-250000J0D01*
G01*
G37*
%TD*%
M02*
