%TF.GenerationSoftware,KiCad,Pcbnew,(5.1.9-0-10_14)*%
%TF.CreationDate,2021-05-02T11:52:11+01:00*%
%TF.ProjectId,Shelly,5368656c-6c79-42e6-9b69-6361645f7063,rev?*%
%TF.SameCoordinates,Original*%
%TF.FileFunction,Copper,L2,Bot*%
%TF.FilePolarity,Positive*%
%FSLAX46Y46*%
G04 Gerber Fmt 4.6, Leading zero omitted, Abs format (unit mm)*
G04 Created by KiCad (PCBNEW (5.1.9-0-10_14)) date 2021-05-02 11:52:11*
%MOMM*%
%LPD*%
G01*
G04 APERTURE LIST*
%TA.AperFunction,NonConductor*%
%ADD10C,0.300000*%
%TD*%
%TA.AperFunction,EtchedComponent*%
%ADD11C,0.500000*%
%TD*%
%TA.AperFunction,EtchedComponent*%
%ADD12C,0.250000*%
%TD*%
%TA.AperFunction,SMDPad,CuDef*%
%ADD13C,0.100000*%
%TD*%
%TA.AperFunction,SMDPad,CuDef*%
%ADD14R,1.000000X0.800000*%
%TD*%
%TA.AperFunction,SMDPad,CuDef*%
%ADD15R,2.500000X0.500000*%
%TD*%
%TA.AperFunction,SMDPad,CuDef*%
%ADD16R,0.500000X1.000000*%
%TD*%
%TA.AperFunction,SMDPad,CuDef*%
%ADD17R,1.100000X3.700000*%
%TD*%
%TA.AperFunction,SMDPad,CuDef*%
%ADD18R,0.650000X1.560000*%
%TD*%
%TA.AperFunction,ComponentPad*%
%ADD19O,1.000000X1.000000*%
%TD*%
%TA.AperFunction,ComponentPad*%
%ADD20R,1.000000X1.000000*%
%TD*%
%TA.AperFunction,ComponentPad*%
%ADD21C,1.700000*%
%TD*%
%TA.AperFunction,ComponentPad*%
%ADD22C,2.000000*%
%TD*%
%TA.AperFunction,ComponentPad*%
%ADD23C,0.600000*%
%TD*%
%TA.AperFunction,ComponentPad*%
%ADD24C,1.524000*%
%TD*%
%TA.AperFunction,ComponentPad*%
%ADD25O,1.700000X1.700000*%
%TD*%
%TA.AperFunction,ComponentPad*%
%ADD26R,1.700000X1.700000*%
%TD*%
%TA.AperFunction,ViaPad*%
%ADD27C,0.800000*%
%TD*%
%TA.AperFunction,Conductor*%
%ADD28C,0.250000*%
%TD*%
%TA.AperFunction,Conductor*%
%ADD29C,0.500000*%
%TD*%
%TA.AperFunction,Conductor*%
%ADD30C,0.254000*%
%TD*%
%TA.AperFunction,Conductor*%
%ADD31C,0.100000*%
%TD*%
G04 APERTURE END LIST*
D10*
X182778571Y-59785714D02*
X184278571Y-60285714D01*
X182778571Y-60785714D01*
X183278571Y-61928571D02*
X184278571Y-61928571D01*
X182707142Y-61571428D02*
X183778571Y-61214285D01*
X183778571Y-62142857D01*
D11*
%TO.C,Reg1*%
X173600000Y-72200000D02*
X175100000Y-72200000D01*
X173700000Y-76600000D02*
X174700000Y-76600000D01*
D12*
X178100000Y-76700000D02*
X178100000Y-75400000D01*
X171650000Y-77600000D02*
X177200000Y-77600000D01*
X171650000Y-75900000D02*
X171650000Y-77600000D01*
D11*
X173600000Y-73800000D02*
X175100000Y-73800000D01*
X176500000Y-76600000D02*
X175100000Y-75400000D01*
X173600000Y-72100000D02*
X173600000Y-73800000D01*
X173600000Y-73400000D02*
X175100000Y-73400000D01*
X173600000Y-73000000D02*
X175100000Y-73000000D01*
X173600000Y-72700000D02*
X175100000Y-72700000D01*
D12*
X177200000Y-77600000D02*
X178100000Y-76700000D01*
%TD*%
%TA.AperFunction,SMDPad,CuDef*%
D13*
%TO.P,Reg1,4*%
%TO.N,+3V3*%
G36*
X177352513Y-70686827D02*
G01*
X178413173Y-71747487D01*
X177847487Y-72313173D01*
X176786827Y-71252513D01*
X177352513Y-70686827D01*
G37*
%TD.AperFunction*%
%TA.AperFunction,SMDPad,CuDef*%
%TO.P,Reg1,3*%
%TO.N,GND*%
G36*
X174152513Y-69586827D02*
G01*
X175213173Y-70647487D01*
X174647487Y-71213173D01*
X173586827Y-70152513D01*
X174152513Y-69586827D01*
G37*
%TD.AperFunction*%
D14*
X172600000Y-70200000D03*
%TA.AperFunction,SMDPad,CuDef*%
D13*
%TO.P,Reg1,2*%
%TO.N,VBUS*%
G36*
X172433494Y-73308013D02*
G01*
X171933494Y-72441987D01*
X172366506Y-72191987D01*
X172866506Y-73058013D01*
X172433494Y-73308013D01*
G37*
%TD.AperFunction*%
D15*
%TO.P,Reg1,3*%
%TO.N,GND*%
X172600000Y-75100000D03*
D16*
X172600000Y-75500000D03*
D17*
%TO.P,Reg1,4*%
%TO.N,+3V3*%
X178100000Y-73600000D03*
%TO.P,Reg1,~*%
%TO.N,N/C*%
X175100000Y-73600000D03*
%TO.P,Reg1,3*%
%TO.N,GND*%
%TA.AperFunction,SMDPad,CuDef*%
G36*
G01*
X175650000Y-70149550D02*
X175650000Y-71050450D01*
G75*
G02*
X175400450Y-71300000I-249550J0D01*
G01*
X174749550Y-71300000D01*
G75*
G02*
X174500000Y-71050450I0J249550D01*
G01*
X174500000Y-70149550D01*
G75*
G02*
X174749550Y-69900000I249550J0D01*
G01*
X175400450Y-69900000D01*
G75*
G02*
X175650000Y-70149550I0J-249550D01*
G01*
G37*
%TD.AperFunction*%
%TO.P,Reg1,4*%
%TO.N,+3V3*%
%TA.AperFunction,SMDPad,CuDef*%
G36*
G01*
X177700000Y-70149550D02*
X177700000Y-71050450D01*
G75*
G02*
X177450450Y-71300000I-249550J0D01*
G01*
X176799550Y-71300000D01*
G75*
G02*
X176550000Y-71050450I0J249550D01*
G01*
X176550000Y-70149550D01*
G75*
G02*
X176799550Y-69900000I249550J0D01*
G01*
X177450450Y-69900000D01*
G75*
G02*
X177700000Y-70149550I0J-249550D01*
G01*
G37*
%TD.AperFunction*%
%TO.P,Reg1,3*%
%TO.N,GND*%
%TA.AperFunction,SMDPad,CuDef*%
G36*
G01*
X171862500Y-69700000D02*
X172337500Y-69700000D01*
G75*
G02*
X172575000Y-69937500I0J-237500D01*
G01*
X172575000Y-70537500D01*
G75*
G02*
X172337500Y-70775000I-237500J0D01*
G01*
X171862500Y-70775000D01*
G75*
G02*
X171625000Y-70537500I0J237500D01*
G01*
X171625000Y-69937500D01*
G75*
G02*
X171862500Y-69700000I237500J0D01*
G01*
G37*
%TD.AperFunction*%
%TO.P,Reg1,2*%
%TO.N,VBUS*%
%TA.AperFunction,SMDPad,CuDef*%
G36*
G01*
X171862500Y-71425000D02*
X172337500Y-71425000D01*
G75*
G02*
X172575000Y-71662500I0J-237500D01*
G01*
X172575000Y-72262500D01*
G75*
G02*
X172337500Y-72500000I-237500J0D01*
G01*
X171862500Y-72500000D01*
G75*
G02*
X171625000Y-72262500I0J237500D01*
G01*
X171625000Y-71662500D01*
G75*
G02*
X171862500Y-71425000I237500J0D01*
G01*
G37*
%TD.AperFunction*%
%TO.P,Reg1,~*%
%TO.N,N/C*%
%TA.AperFunction,SMDPad,CuDef*%
G36*
G01*
X174200000Y-76837500D02*
X174200000Y-76362500D01*
G75*
G02*
X174437500Y-76125000I237500J0D01*
G01*
X175037500Y-76125000D01*
G75*
G02*
X175275000Y-76362500I0J-237500D01*
G01*
X175275000Y-76837500D01*
G75*
G02*
X175037500Y-77075000I-237500J0D01*
G01*
X174437500Y-77075000D01*
G75*
G02*
X174200000Y-76837500I0J237500D01*
G01*
G37*
%TD.AperFunction*%
%TA.AperFunction,SMDPad,CuDef*%
G36*
G01*
X175925000Y-76837500D02*
X175925000Y-76362500D01*
G75*
G02*
X176162500Y-76125000I237500J0D01*
G01*
X176762500Y-76125000D01*
G75*
G02*
X177000000Y-76362500I0J-237500D01*
G01*
X177000000Y-76837500D01*
G75*
G02*
X176762500Y-77075000I-237500J0D01*
G01*
X176162500Y-77075000D01*
G75*
G02*
X175925000Y-76837500I0J237500D01*
G01*
G37*
%TD.AperFunction*%
%TO.P,Reg1,3*%
%TO.N,GND*%
%TA.AperFunction,SMDPad,CuDef*%
G36*
G01*
X173125275Y-69475000D02*
X174074725Y-69475000D01*
G75*
G02*
X174325000Y-69725275I0J-250275D01*
G01*
X174325000Y-70399725D01*
G75*
G02*
X174074725Y-70650000I-250275J0D01*
G01*
X173125275Y-70650000D01*
G75*
G02*
X172875000Y-70399725I0J250275D01*
G01*
X172875000Y-69725275D01*
G75*
G02*
X173125275Y-69475000I250275J0D01*
G01*
G37*
%TD.AperFunction*%
%TO.P,Reg1,~*%
%TO.N,N/C*%
%TA.AperFunction,SMDPad,CuDef*%
G36*
G01*
X173125275Y-71550000D02*
X174074725Y-71550000D01*
G75*
G02*
X174325000Y-71800275I0J-250275D01*
G01*
X174325000Y-72474725D01*
G75*
G02*
X174074725Y-72725000I-250275J0D01*
G01*
X173125275Y-72725000D01*
G75*
G02*
X172875000Y-72474725I0J250275D01*
G01*
X172875000Y-71800275D01*
G75*
G02*
X173125275Y-71550000I250275J0D01*
G01*
G37*
%TD.AperFunction*%
D18*
%TO.P,Reg1,1*%
%TO.N,VBUS*%
X171650000Y-73750000D03*
%TO.P,Reg1,2*%
X172600000Y-73750000D03*
%TO.P,Reg1,~*%
%TO.N,N/C*%
X173550000Y-73750000D03*
X173550000Y-76450000D03*
X171650000Y-76450000D03*
%TO.P,Reg1,3*%
%TO.N,GND*%
X172600000Y-76450000D03*
%TD*%
D19*
%TO.P,J3,6*%
%TO.N,TXD*%
X174150000Y-62500000D03*
%TO.P,J3,5*%
%TO.N,RXD*%
X175420000Y-62500000D03*
%TO.P,J3,4*%
%TO.N,+3V3*%
X176690000Y-62500000D03*
%TO.P,J3,3*%
%TO.N,RST*%
X177960000Y-62500000D03*
%TO.P,J3,2*%
%TO.N,GPIO0*%
X179230000Y-62500000D03*
D20*
%TO.P,J3,1*%
%TO.N,GND*%
X180500000Y-62500000D03*
%TD*%
D21*
%TO.P,J4,S1*%
%TO.N,GND*%
X180325000Y-86910000D03*
X171675000Y-86910000D03*
D22*
X180325000Y-82730000D03*
X171675000Y-82730000D03*
D23*
X178890000Y-83210000D03*
X173110000Y-83210000D03*
%TD*%
%TO.P,R1,2*%
%TO.N,GND*%
%TA.AperFunction,SMDPad,CuDef*%
G36*
G01*
X174175000Y-86850000D02*
X175425000Y-86850000D01*
G75*
G02*
X175675000Y-87100000I0J-250000D01*
G01*
X175675000Y-87900000D01*
G75*
G02*
X175425000Y-88150000I-250000J0D01*
G01*
X174175000Y-88150000D01*
G75*
G02*
X173925000Y-87900000I0J250000D01*
G01*
X173925000Y-87100000D01*
G75*
G02*
X174175000Y-86850000I250000J0D01*
G01*
G37*
%TD.AperFunction*%
%TO.P,R1,1*%
%TO.N,Net-(J4-PadA5)*%
%TA.AperFunction,SMDPad,CuDef*%
G36*
G01*
X174175000Y-83750000D02*
X175425000Y-83750000D01*
G75*
G02*
X175675000Y-84000000I0J-250000D01*
G01*
X175675000Y-84800000D01*
G75*
G02*
X175425000Y-85050000I-250000J0D01*
G01*
X174175000Y-85050000D01*
G75*
G02*
X173925000Y-84800000I0J250000D01*
G01*
X173925000Y-84000000D01*
G75*
G02*
X174175000Y-83750000I250000J0D01*
G01*
G37*
%TD.AperFunction*%
%TD*%
D24*
%TO.P,U1,21*%
%TO.N,GND*%
X178375000Y-68875000D03*
%TD*%
D19*
%TO.P,J2,6*%
%TO.N,TXD*%
X174150000Y-60630000D03*
%TO.P,J2,5*%
%TO.N,RXD*%
X175420000Y-60630000D03*
%TO.P,J2,4*%
%TO.N,+3V3*%
X176690000Y-60630000D03*
%TO.P,J2,3*%
%TO.N,RST*%
X177960000Y-60630000D03*
%TO.P,J2,2*%
%TO.N,GPIO0*%
X179230000Y-60630000D03*
D20*
%TO.P,J2,1*%
%TO.N,GND*%
X180500000Y-60630000D03*
%TD*%
D25*
%TO.P,J1,5*%
%TO.N,TXD*%
X183000000Y-76840000D03*
%TO.P,J1,4*%
%TO.N,RXD*%
X183000000Y-79380000D03*
%TO.P,J1,3*%
%TO.N,Net-(J1-Pad3)*%
X183000000Y-81920000D03*
%TO.P,J1,2*%
%TO.N,GPIO0*%
X183000000Y-84460000D03*
D26*
%TO.P,J1,1*%
%TO.N,GND*%
X183000000Y-87000000D03*
%TD*%
%TO.P,R2,2*%
%TO.N,Net-(J4-PadB5)*%
%TA.AperFunction,SMDPad,CuDef*%
G36*
G01*
X178225000Y-85050000D02*
X176975000Y-85050000D01*
G75*
G02*
X176725000Y-84800000I0J250000D01*
G01*
X176725000Y-84000000D01*
G75*
G02*
X176975000Y-83750000I250000J0D01*
G01*
X178225000Y-83750000D01*
G75*
G02*
X178475000Y-84000000I0J-250000D01*
G01*
X178475000Y-84800000D01*
G75*
G02*
X178225000Y-85050000I-250000J0D01*
G01*
G37*
%TD.AperFunction*%
%TO.P,R2,1*%
%TO.N,GND*%
%TA.AperFunction,SMDPad,CuDef*%
G36*
G01*
X178225000Y-88150000D02*
X176975000Y-88150000D01*
G75*
G02*
X176725000Y-87900000I0J250000D01*
G01*
X176725000Y-87100000D01*
G75*
G02*
X176975000Y-86850000I250000J0D01*
G01*
X178225000Y-86850000D01*
G75*
G02*
X178475000Y-87100000I0J-250000D01*
G01*
X178475000Y-87900000D01*
G75*
G02*
X178225000Y-88150000I-250000J0D01*
G01*
G37*
%TD.AperFunction*%
%TD*%
D27*
%TO.N,VBUS*%
X171100020Y-70925010D03*
X171900000Y-65900000D03*
X179146007Y-65262947D03*
%TO.N,RXD*%
X176067344Y-64498904D03*
X175430086Y-67300000D03*
%TO.N,+3V3*%
X181494239Y-70647025D03*
X180062073Y-75312053D03*
%TO.N,GPIO0*%
X174705084Y-68500000D03*
%TO.N,TXD*%
X172530062Y-67468262D03*
%TO.N,RST*%
X179671741Y-72726163D03*
X173980074Y-67588245D03*
%TO.N,Net-(C1-Pad1)*%
X181060920Y-66339569D03*
X173800023Y-65869664D03*
%TO.N,Net-(J4-PadA7)*%
X176400309Y-80213274D03*
X174632705Y-79942617D03*
%TO.N,Net-(J4-PadA6)*%
X177273018Y-79725010D03*
X175749943Y-79150010D03*
%TO.N,Net-(J4-PadA5)*%
X174500009Y-80969998D03*
%TO.N,Net-(J4-PadB5)*%
X179451041Y-80969998D03*
%TO.N,Net-(D1-Pad1)*%
X172368220Y-64449988D03*
X177355182Y-64812945D03*
%TD*%
D28*
%TO.N,GND*%
X180500000Y-60630000D02*
X180500000Y-62500000D01*
D29*
X172899990Y-75100000D02*
X170800000Y-75100000D01*
D28*
X173462500Y-70200000D02*
X173600000Y-70062500D01*
X172600000Y-70200000D02*
X173462500Y-70200000D01*
X174062500Y-70062500D02*
X174400000Y-70400000D01*
X173600000Y-70062500D02*
X174062500Y-70062500D01*
X174875000Y-70400000D02*
X175075000Y-70600000D01*
X174400000Y-70400000D02*
X174875000Y-70400000D01*
X172600000Y-76450000D02*
X172600000Y-75500000D01*
X172600000Y-75500000D02*
X172600000Y-75100000D01*
X172600000Y-75100000D02*
X170800000Y-75100000D01*
D29*
X175359772Y-70600000D02*
X175075000Y-70600000D01*
X177084772Y-68875000D02*
X175359772Y-70600000D01*
X178375000Y-68875000D02*
X177084772Y-68875000D01*
D28*
X172600000Y-70200000D02*
X170375010Y-70200000D01*
X170375010Y-70200000D02*
X170375010Y-71675010D01*
X170375010Y-71675010D02*
X170800000Y-72100000D01*
X170800000Y-72100000D02*
X170800000Y-75100000D01*
D29*
X171675000Y-82730000D02*
X173400000Y-81005000D01*
X173400000Y-81005000D02*
X173400000Y-78700000D01*
X173400000Y-78700000D02*
X173800000Y-78300000D01*
X173800000Y-78300000D02*
X179400000Y-78300000D01*
X180325000Y-79225000D02*
X180325000Y-82730000D01*
X179400000Y-78300000D02*
X180325000Y-79225000D01*
X180500000Y-60630000D02*
X180500000Y-60100000D01*
X180079999Y-59679999D02*
X172320001Y-59679999D01*
X180500000Y-60100000D02*
X180079999Y-59679999D01*
X172320001Y-59679999D02*
X171100000Y-60900000D01*
D28*
%TO.N,VBUS*%
X172100000Y-72450000D02*
X172400000Y-72750000D01*
X172100000Y-71962500D02*
X172100000Y-72450000D01*
X172600000Y-72950000D02*
X172400000Y-72750000D01*
X172600000Y-73750000D02*
X172600000Y-72950000D01*
X171100020Y-70962520D02*
X171100020Y-70925010D01*
X172100000Y-71962500D02*
X171100020Y-70962520D01*
X171650000Y-73750000D02*
X172600000Y-73750000D01*
X172676073Y-65123927D02*
X174314760Y-65123927D01*
X174864750Y-65673917D02*
X176785266Y-65673917D01*
X176785266Y-65673917D02*
X176921237Y-65537946D01*
X178871008Y-65537946D02*
X179146007Y-65262947D01*
X171900000Y-65900000D02*
X172676073Y-65123927D01*
X174314760Y-65123927D02*
X174864750Y-65673917D01*
X176921237Y-65537946D02*
X178871008Y-65537946D01*
%TO.N,RXD*%
X175420000Y-60630000D02*
X175420000Y-62500000D01*
X175420000Y-62500000D02*
X175420000Y-63851560D01*
X175420000Y-63851560D02*
X176067344Y-64498904D01*
X180319226Y-69959323D02*
X180489169Y-69789380D01*
X177480438Y-66887978D02*
X177068415Y-67300000D01*
X183000000Y-79380000D02*
X183000000Y-78579003D01*
X183000000Y-78579003D02*
X181237094Y-76816097D01*
X181237094Y-76816097D02*
X181237094Y-72573505D01*
X181237094Y-72573505D02*
X180319226Y-71655637D01*
X180319226Y-71655637D02*
X180319226Y-69959323D01*
X177068415Y-67300000D02*
X175430086Y-67300000D01*
X180489169Y-69789380D02*
X180489169Y-68107585D01*
X179269561Y-66887977D02*
X177480438Y-66887978D01*
X180489169Y-68107585D02*
X179269561Y-66887977D01*
%TO.N,+3V3*%
X176690000Y-60630000D02*
X176690000Y-62500000D01*
X177125000Y-71025000D02*
X177600000Y-71500000D01*
X177125000Y-70600000D02*
X177125000Y-71025000D01*
X178100000Y-72000000D02*
X177600000Y-71500000D01*
X178100000Y-73600000D02*
X178100000Y-72000000D01*
X178350020Y-73600000D02*
X180062073Y-75312053D01*
X178100000Y-73600000D02*
X178350020Y-73600000D01*
X181494239Y-67105761D02*
X181494239Y-70647025D01*
X179494008Y-64537946D02*
X180156062Y-65200000D01*
X181785930Y-66814070D02*
X181494239Y-67105761D01*
X178337946Y-64537946D02*
X179494008Y-64537946D01*
X181785930Y-65885930D02*
X181785930Y-66814070D01*
X181100000Y-65200000D02*
X181785930Y-65885930D01*
X177887935Y-64087935D02*
X178337946Y-64537946D01*
X180156062Y-65200000D02*
X181100000Y-65200000D01*
X176887935Y-64087935D02*
X177887935Y-64087935D01*
X176690000Y-63890000D02*
X176887935Y-64087935D01*
X176690000Y-62500000D02*
X176690000Y-63890000D01*
%TO.N,GPIO0*%
X179230000Y-60630000D02*
X179230000Y-62500000D01*
X177154848Y-67849978D02*
X175920791Y-67849978D01*
X179869215Y-69772923D02*
X180039158Y-69602980D01*
X181824999Y-83284999D02*
X181824999Y-78040412D01*
X181824999Y-78040412D02*
X180787083Y-77002496D01*
X175920791Y-67849978D02*
X175270769Y-68500000D01*
X180039158Y-69602980D02*
X180039158Y-68293985D01*
X175270769Y-68500000D02*
X174705084Y-68500000D01*
X180787083Y-77002496D02*
X180787083Y-72759905D01*
X177666839Y-67337988D02*
X177154848Y-67849978D01*
X179083161Y-67337988D02*
X177666839Y-67337988D01*
X179869215Y-71842037D02*
X179869215Y-69772923D01*
X180787083Y-72759905D02*
X179869215Y-71842037D01*
X183000000Y-84460000D02*
X181824999Y-83284999D01*
X180039158Y-68293985D02*
X179083161Y-67337988D01*
%TO.N,TXD*%
X174150000Y-60630000D02*
X174150000Y-62500000D01*
X180939180Y-69975780D02*
X180939180Y-67921185D01*
X177294037Y-66437968D02*
X177158065Y-66573939D01*
X179455960Y-66437967D02*
X177294037Y-66437968D01*
X177158065Y-66573939D02*
X174168752Y-66573939D01*
X180769237Y-70145723D02*
X180939180Y-69975780D01*
X180939180Y-67921185D02*
X179455960Y-66437967D01*
X174148025Y-66594666D02*
X173403658Y-66594666D01*
X173403658Y-66594666D02*
X172530062Y-67468262D01*
X174168752Y-66573939D02*
X174148025Y-66594666D01*
X180769237Y-70995027D02*
X180769237Y-70145723D01*
X181687105Y-75527105D02*
X183000000Y-76840000D01*
X181687105Y-71912895D02*
X181687105Y-75527105D01*
X181687105Y-71912895D02*
X180769237Y-70995027D01*
%TO.N,RST*%
X177960000Y-60630000D02*
X177960000Y-62500000D01*
X179271742Y-69733985D02*
X179589147Y-69416580D01*
X177853239Y-67787999D02*
X177341248Y-68299989D01*
X175724991Y-69313599D02*
X174476625Y-69313599D01*
X179589147Y-68480385D02*
X178896761Y-67787999D01*
X177341248Y-68299989D02*
X176738601Y-68299989D01*
X176738601Y-68299989D02*
X175724991Y-69313599D01*
X174476625Y-69313599D02*
X173980074Y-68817048D01*
X173980074Y-68817048D02*
X173980074Y-67588245D01*
X179671741Y-72726163D02*
X179271742Y-72326164D01*
X179271742Y-72326164D02*
X179271742Y-69733985D01*
X178896761Y-67787999D02*
X177853239Y-67787999D01*
X179589147Y-69416580D02*
X179589147Y-68480385D01*
%TO.N,Net-(C1-Pad1)*%
X174054287Y-66123928D02*
X173800023Y-65869664D01*
X181060920Y-66339569D02*
X180709308Y-65987957D01*
X176971666Y-66123928D02*
X174054287Y-66123928D01*
X180709308Y-65987957D02*
X177107637Y-65987957D01*
X177107637Y-65987957D02*
X176971666Y-66123928D01*
%TO.N,Net-(J4-PadA7)*%
X176400309Y-80213274D02*
X174903362Y-80213274D01*
X174903362Y-80213274D02*
X174632705Y-79942617D01*
%TO.N,Net-(J4-PadA6)*%
X177273018Y-79725010D02*
X176698018Y-79150010D01*
X176698018Y-79150010D02*
X175749943Y-79150010D01*
%TO.N,Net-(J4-PadA5)*%
X174800000Y-84400000D02*
X174800000Y-81269989D01*
X174800000Y-81269989D02*
X174500009Y-80969998D01*
%TO.N,Net-(J4-PadB5)*%
X177600000Y-82821039D02*
X177600000Y-84400000D01*
X179451041Y-80969998D02*
X177600000Y-82821039D01*
%TO.N,Net-(D1-Pad1)*%
X176378536Y-65223906D02*
X176789497Y-64812945D01*
X176789497Y-64812945D02*
X177355182Y-64812945D01*
X174944647Y-64449988D02*
X175718565Y-65223906D01*
X172368220Y-64449988D02*
X174944647Y-64449988D01*
X175718565Y-65223906D02*
X176378536Y-65223906D01*
%TD*%
D30*
%TO.N,GND*%
X181396475Y-83981083D02*
X181421379Y-83956180D01*
X181558791Y-84093592D01*
X181515000Y-84313740D01*
X181515000Y-84606260D01*
X181572068Y-84893158D01*
X181684010Y-85163411D01*
X181846525Y-85406632D01*
X181978380Y-85538487D01*
X181905820Y-85560498D01*
X181795506Y-85619463D01*
X181698815Y-85698815D01*
X181619463Y-85795506D01*
X181560498Y-85905820D01*
X181524188Y-86025518D01*
X181515691Y-86111794D01*
X181353397Y-86061208D01*
X180504605Y-86910000D01*
X181353397Y-87758792D01*
X181512695Y-87709140D01*
X181511928Y-87850000D01*
X181524188Y-87974482D01*
X181560498Y-88094180D01*
X181619463Y-88204494D01*
X181698815Y-88301185D01*
X181715649Y-88315000D01*
X180806089Y-88315000D01*
X180958747Y-88260919D01*
X181096157Y-88187472D01*
X181173792Y-87938397D01*
X180325000Y-87089605D01*
X179476208Y-87938397D01*
X179553843Y-88187472D01*
X179817883Y-88313371D01*
X179824301Y-88315000D01*
X179088521Y-88315000D01*
X179100812Y-88274482D01*
X179113072Y-88150000D01*
X179110000Y-87785750D01*
X178951252Y-87627002D01*
X179018582Y-87627002D01*
X179047528Y-87681157D01*
X179296603Y-87758792D01*
X180145395Y-86910000D01*
X179296603Y-86061208D01*
X179047528Y-86138843D01*
X178924305Y-86397272D01*
X178829494Y-86319463D01*
X178719180Y-86260498D01*
X178599482Y-86224188D01*
X178475000Y-86211928D01*
X177885750Y-86215000D01*
X177727000Y-86373750D01*
X177727000Y-87373000D01*
X177747000Y-87373000D01*
X177747000Y-87627000D01*
X177727000Y-87627000D01*
X177727000Y-87647000D01*
X177473000Y-87647000D01*
X177473000Y-87627000D01*
X176248750Y-87627000D01*
X176200000Y-87675750D01*
X176151250Y-87627000D01*
X174927000Y-87627000D01*
X174927000Y-87647000D01*
X174673000Y-87647000D01*
X174673000Y-87627000D01*
X173448750Y-87627000D01*
X173290000Y-87785750D01*
X173286928Y-88150000D01*
X173299188Y-88274482D01*
X173311479Y-88315000D01*
X172156089Y-88315000D01*
X172308747Y-88260919D01*
X172446157Y-88187472D01*
X172523792Y-87938397D01*
X171675000Y-87089605D01*
X171660858Y-87103748D01*
X171481253Y-86924143D01*
X171495395Y-86910000D01*
X171854605Y-86910000D01*
X172703397Y-87758792D01*
X172952472Y-87681157D01*
X173078371Y-87417117D01*
X173150339Y-87133589D01*
X173165165Y-86850000D01*
X173286928Y-86850000D01*
X173290000Y-87214250D01*
X173448750Y-87373000D01*
X174673000Y-87373000D01*
X174673000Y-86373750D01*
X174927000Y-86373750D01*
X174927000Y-87373000D01*
X176151250Y-87373000D01*
X176200000Y-87324250D01*
X176248750Y-87373000D01*
X177473000Y-87373000D01*
X177473000Y-86373750D01*
X177314250Y-86215000D01*
X176725000Y-86211928D01*
X176600518Y-86224188D01*
X176480820Y-86260498D01*
X176370506Y-86319463D01*
X176273815Y-86398815D01*
X176200000Y-86488759D01*
X176126185Y-86398815D01*
X176029494Y-86319463D01*
X175919180Y-86260498D01*
X175799482Y-86224188D01*
X175675000Y-86211928D01*
X175085750Y-86215000D01*
X174927000Y-86373750D01*
X174673000Y-86373750D01*
X174514250Y-86215000D01*
X173925000Y-86211928D01*
X173800518Y-86224188D01*
X173680820Y-86260498D01*
X173570506Y-86319463D01*
X173473815Y-86398815D01*
X173394463Y-86495506D01*
X173335498Y-86605820D01*
X173299188Y-86725518D01*
X173286928Y-86850000D01*
X173165165Y-86850000D01*
X173165611Y-86841469D01*
X173123599Y-86551981D01*
X173025919Y-86276253D01*
X172952472Y-86138843D01*
X172703397Y-86061208D01*
X171854605Y-86910000D01*
X171495395Y-86910000D01*
X171481253Y-86895858D01*
X171660858Y-86716253D01*
X171675000Y-86730395D01*
X172523792Y-85881603D01*
X179476208Y-85881603D01*
X180325000Y-86730395D01*
X181173792Y-85881603D01*
X181096157Y-85632528D01*
X180832117Y-85506629D01*
X180548589Y-85434661D01*
X180256469Y-85419389D01*
X179966981Y-85461401D01*
X179691253Y-85559081D01*
X179553843Y-85632528D01*
X179476208Y-85881603D01*
X172523792Y-85881603D01*
X172446157Y-85632528D01*
X172182117Y-85506629D01*
X171898589Y-85434661D01*
X171606469Y-85419389D01*
X171316981Y-85461401D01*
X171041253Y-85559081D01*
X170903843Y-85632528D01*
X170826209Y-85881601D01*
X170710104Y-85765496D01*
X170685000Y-85790600D01*
X170685000Y-83899608D01*
X170719193Y-83865415D01*
X170814956Y-84129814D01*
X171104571Y-84270704D01*
X171416108Y-84352384D01*
X171737595Y-84371718D01*
X172056675Y-84327961D01*
X172361088Y-84222795D01*
X172535044Y-84129814D01*
X172628885Y-83870723D01*
X172632500Y-83867108D01*
X172657660Y-83892268D01*
X172665575Y-84037763D01*
X172835603Y-84108562D01*
X173016176Y-84144828D01*
X173200355Y-84145171D01*
X173286928Y-84128117D01*
X173286928Y-84800000D01*
X173303992Y-84973254D01*
X173354528Y-85139850D01*
X173436595Y-85293386D01*
X173547038Y-85427962D01*
X173681614Y-85538405D01*
X173835150Y-85620472D01*
X174001746Y-85671008D01*
X174175000Y-85688072D01*
X175425000Y-85688072D01*
X175598254Y-85671008D01*
X175764850Y-85620472D01*
X175918386Y-85538405D01*
X176052962Y-85427962D01*
X176163405Y-85293386D01*
X176200000Y-85224922D01*
X176236595Y-85293386D01*
X176347038Y-85427962D01*
X176481614Y-85538405D01*
X176635150Y-85620472D01*
X176801746Y-85671008D01*
X176975000Y-85688072D01*
X178225000Y-85688072D01*
X178398254Y-85671008D01*
X178564850Y-85620472D01*
X178718386Y-85538405D01*
X178852962Y-85427962D01*
X178963405Y-85293386D01*
X179045472Y-85139850D01*
X179096008Y-84973254D01*
X179113072Y-84800000D01*
X179113072Y-84119027D01*
X179161061Y-84109574D01*
X179331351Y-84039408D01*
X179334425Y-84037763D01*
X179342340Y-83892268D01*
X179367500Y-83867108D01*
X179371115Y-83870723D01*
X179464956Y-84129814D01*
X179754571Y-84270704D01*
X180066108Y-84352384D01*
X180387595Y-84371718D01*
X180706675Y-84327961D01*
X181011088Y-84222795D01*
X181185044Y-84129814D01*
X181280807Y-83865415D01*
X181396475Y-83981083D01*
%TA.AperFunction,Conductor*%
D31*
G36*
X181396475Y-83981083D02*
G01*
X181421379Y-83956180D01*
X181558791Y-84093592D01*
X181515000Y-84313740D01*
X181515000Y-84606260D01*
X181572068Y-84893158D01*
X181684010Y-85163411D01*
X181846525Y-85406632D01*
X181978380Y-85538487D01*
X181905820Y-85560498D01*
X181795506Y-85619463D01*
X181698815Y-85698815D01*
X181619463Y-85795506D01*
X181560498Y-85905820D01*
X181524188Y-86025518D01*
X181515691Y-86111794D01*
X181353397Y-86061208D01*
X180504605Y-86910000D01*
X181353397Y-87758792D01*
X181512695Y-87709140D01*
X181511928Y-87850000D01*
X181524188Y-87974482D01*
X181560498Y-88094180D01*
X181619463Y-88204494D01*
X181698815Y-88301185D01*
X181715649Y-88315000D01*
X180806089Y-88315000D01*
X180958747Y-88260919D01*
X181096157Y-88187472D01*
X181173792Y-87938397D01*
X180325000Y-87089605D01*
X179476208Y-87938397D01*
X179553843Y-88187472D01*
X179817883Y-88313371D01*
X179824301Y-88315000D01*
X179088521Y-88315000D01*
X179100812Y-88274482D01*
X179113072Y-88150000D01*
X179110000Y-87785750D01*
X178951252Y-87627002D01*
X179018582Y-87627002D01*
X179047528Y-87681157D01*
X179296603Y-87758792D01*
X180145395Y-86910000D01*
X179296603Y-86061208D01*
X179047528Y-86138843D01*
X178924305Y-86397272D01*
X178829494Y-86319463D01*
X178719180Y-86260498D01*
X178599482Y-86224188D01*
X178475000Y-86211928D01*
X177885750Y-86215000D01*
X177727000Y-86373750D01*
X177727000Y-87373000D01*
X177747000Y-87373000D01*
X177747000Y-87627000D01*
X177727000Y-87627000D01*
X177727000Y-87647000D01*
X177473000Y-87647000D01*
X177473000Y-87627000D01*
X176248750Y-87627000D01*
X176200000Y-87675750D01*
X176151250Y-87627000D01*
X174927000Y-87627000D01*
X174927000Y-87647000D01*
X174673000Y-87647000D01*
X174673000Y-87627000D01*
X173448750Y-87627000D01*
X173290000Y-87785750D01*
X173286928Y-88150000D01*
X173299188Y-88274482D01*
X173311479Y-88315000D01*
X172156089Y-88315000D01*
X172308747Y-88260919D01*
X172446157Y-88187472D01*
X172523792Y-87938397D01*
X171675000Y-87089605D01*
X171660858Y-87103748D01*
X171481253Y-86924143D01*
X171495395Y-86910000D01*
X171854605Y-86910000D01*
X172703397Y-87758792D01*
X172952472Y-87681157D01*
X173078371Y-87417117D01*
X173150339Y-87133589D01*
X173165165Y-86850000D01*
X173286928Y-86850000D01*
X173290000Y-87214250D01*
X173448750Y-87373000D01*
X174673000Y-87373000D01*
X174673000Y-86373750D01*
X174927000Y-86373750D01*
X174927000Y-87373000D01*
X176151250Y-87373000D01*
X176200000Y-87324250D01*
X176248750Y-87373000D01*
X177473000Y-87373000D01*
X177473000Y-86373750D01*
X177314250Y-86215000D01*
X176725000Y-86211928D01*
X176600518Y-86224188D01*
X176480820Y-86260498D01*
X176370506Y-86319463D01*
X176273815Y-86398815D01*
X176200000Y-86488759D01*
X176126185Y-86398815D01*
X176029494Y-86319463D01*
X175919180Y-86260498D01*
X175799482Y-86224188D01*
X175675000Y-86211928D01*
X175085750Y-86215000D01*
X174927000Y-86373750D01*
X174673000Y-86373750D01*
X174514250Y-86215000D01*
X173925000Y-86211928D01*
X173800518Y-86224188D01*
X173680820Y-86260498D01*
X173570506Y-86319463D01*
X173473815Y-86398815D01*
X173394463Y-86495506D01*
X173335498Y-86605820D01*
X173299188Y-86725518D01*
X173286928Y-86850000D01*
X173165165Y-86850000D01*
X173165611Y-86841469D01*
X173123599Y-86551981D01*
X173025919Y-86276253D01*
X172952472Y-86138843D01*
X172703397Y-86061208D01*
X171854605Y-86910000D01*
X171495395Y-86910000D01*
X171481253Y-86895858D01*
X171660858Y-86716253D01*
X171675000Y-86730395D01*
X172523792Y-85881603D01*
X179476208Y-85881603D01*
X180325000Y-86730395D01*
X181173792Y-85881603D01*
X181096157Y-85632528D01*
X180832117Y-85506629D01*
X180548589Y-85434661D01*
X180256469Y-85419389D01*
X179966981Y-85461401D01*
X179691253Y-85559081D01*
X179553843Y-85632528D01*
X179476208Y-85881603D01*
X172523792Y-85881603D01*
X172446157Y-85632528D01*
X172182117Y-85506629D01*
X171898589Y-85434661D01*
X171606469Y-85419389D01*
X171316981Y-85461401D01*
X171041253Y-85559081D01*
X170903843Y-85632528D01*
X170826209Y-85881601D01*
X170710104Y-85765496D01*
X170685000Y-85790600D01*
X170685000Y-83899608D01*
X170719193Y-83865415D01*
X170814956Y-84129814D01*
X171104571Y-84270704D01*
X171416108Y-84352384D01*
X171737595Y-84371718D01*
X172056675Y-84327961D01*
X172361088Y-84222795D01*
X172535044Y-84129814D01*
X172628885Y-83870723D01*
X172632500Y-83867108D01*
X172657660Y-83892268D01*
X172665575Y-84037763D01*
X172835603Y-84108562D01*
X173016176Y-84144828D01*
X173200355Y-84145171D01*
X173286928Y-84128117D01*
X173286928Y-84800000D01*
X173303992Y-84973254D01*
X173354528Y-85139850D01*
X173436595Y-85293386D01*
X173547038Y-85427962D01*
X173681614Y-85538405D01*
X173835150Y-85620472D01*
X174001746Y-85671008D01*
X174175000Y-85688072D01*
X175425000Y-85688072D01*
X175598254Y-85671008D01*
X175764850Y-85620472D01*
X175918386Y-85538405D01*
X176052962Y-85427962D01*
X176163405Y-85293386D01*
X176200000Y-85224922D01*
X176236595Y-85293386D01*
X176347038Y-85427962D01*
X176481614Y-85538405D01*
X176635150Y-85620472D01*
X176801746Y-85671008D01*
X176975000Y-85688072D01*
X178225000Y-85688072D01*
X178398254Y-85671008D01*
X178564850Y-85620472D01*
X178718386Y-85538405D01*
X178852962Y-85427962D01*
X178963405Y-85293386D01*
X179045472Y-85139850D01*
X179096008Y-84973254D01*
X179113072Y-84800000D01*
X179113072Y-84119027D01*
X179161061Y-84109574D01*
X179331351Y-84039408D01*
X179334425Y-84037763D01*
X179342340Y-83892268D01*
X179367500Y-83867108D01*
X179371115Y-83870723D01*
X179464956Y-84129814D01*
X179754571Y-84270704D01*
X180066108Y-84352384D01*
X180387595Y-84371718D01*
X180706675Y-84327961D01*
X181011088Y-84222795D01*
X181185044Y-84129814D01*
X181280807Y-83865415D01*
X181396475Y-83981083D01*
G37*
%TD.AperFunction*%
D30*
X183127000Y-86873000D02*
X183147000Y-86873000D01*
X183147000Y-87127000D01*
X183127000Y-87127000D01*
X183127000Y-87147000D01*
X182873000Y-87147000D01*
X182873000Y-87127000D01*
X182853000Y-87127000D01*
X182853000Y-86873000D01*
X182873000Y-86873000D01*
X182873000Y-86853000D01*
X183127000Y-86853000D01*
X183127000Y-86873000D01*
%TA.AperFunction,Conductor*%
D31*
G36*
X183127000Y-86873000D02*
G01*
X183147000Y-86873000D01*
X183147000Y-87127000D01*
X183127000Y-87127000D01*
X183127000Y-87147000D01*
X182873000Y-87147000D01*
X182873000Y-87127000D01*
X182853000Y-87127000D01*
X182853000Y-86873000D01*
X182873000Y-86873000D01*
X182873000Y-86853000D01*
X183127000Y-86853000D01*
X183127000Y-86873000D01*
G37*
%TD.AperFunction*%
D30*
X179258136Y-75971827D02*
X179402299Y-76115990D01*
X179571817Y-76229258D01*
X179760175Y-76307279D01*
X179960134Y-76347053D01*
X180027083Y-76347053D01*
X180027083Y-76965173D01*
X180023407Y-77002496D01*
X180027083Y-77039818D01*
X180027083Y-77039828D01*
X180038080Y-77151481D01*
X180074990Y-77273158D01*
X180081537Y-77294742D01*
X180152109Y-77426772D01*
X180189387Y-77472195D01*
X180247082Y-77542497D01*
X180276085Y-77566300D01*
X181065000Y-78355215D01*
X181064999Y-81271787D01*
X180895429Y-81189296D01*
X180583892Y-81107616D01*
X180480185Y-81101379D01*
X180486041Y-81071937D01*
X180486041Y-80868059D01*
X180446267Y-80668100D01*
X180368246Y-80479742D01*
X180254978Y-80310224D01*
X180110815Y-80166061D01*
X179941297Y-80052793D01*
X179752939Y-79974772D01*
X179552980Y-79934998D01*
X179349102Y-79934998D01*
X179149143Y-79974772D01*
X178960785Y-80052793D01*
X178791267Y-80166061D01*
X178647104Y-80310224D01*
X178533836Y-80479742D01*
X178455815Y-80668100D01*
X178416041Y-80868059D01*
X178416041Y-80930196D01*
X177089003Y-82257235D01*
X177059999Y-82281038D01*
X177035051Y-82311438D01*
X176965026Y-82396763D01*
X176898447Y-82521323D01*
X176894454Y-82528793D01*
X176850997Y-82672054D01*
X176840000Y-82783707D01*
X176840000Y-82783717D01*
X176836324Y-82821039D01*
X176840000Y-82858362D01*
X176840000Y-83125224D01*
X176801746Y-83128992D01*
X176635150Y-83179528D01*
X176481614Y-83261595D01*
X176347038Y-83372038D01*
X176236595Y-83506614D01*
X176200000Y-83575078D01*
X176163405Y-83506614D01*
X176052962Y-83372038D01*
X175918386Y-83261595D01*
X175764850Y-83179528D01*
X175598254Y-83128992D01*
X175560000Y-83125224D01*
X175560000Y-81307311D01*
X175563676Y-81269988D01*
X175560000Y-81232665D01*
X175560000Y-81232656D01*
X175549003Y-81121003D01*
X175534657Y-81073709D01*
X175535009Y-81071937D01*
X175535009Y-80973274D01*
X175696598Y-80973274D01*
X175740535Y-81017211D01*
X175910053Y-81130479D01*
X176098411Y-81208500D01*
X176298370Y-81248274D01*
X176502248Y-81248274D01*
X176702207Y-81208500D01*
X176890565Y-81130479D01*
X177060083Y-81017211D01*
X177204246Y-80873048D01*
X177279775Y-80760010D01*
X177374957Y-80760010D01*
X177574916Y-80720236D01*
X177763274Y-80642215D01*
X177932792Y-80528947D01*
X178076955Y-80384784D01*
X178190223Y-80215266D01*
X178268244Y-80026908D01*
X178308018Y-79826949D01*
X178308018Y-79623071D01*
X178268244Y-79423112D01*
X178190223Y-79234754D01*
X178076955Y-79065236D01*
X177932792Y-78921073D01*
X177763274Y-78807805D01*
X177574916Y-78729784D01*
X177374957Y-78690010D01*
X177312819Y-78690010D01*
X177261821Y-78639012D01*
X177238019Y-78610009D01*
X177122294Y-78515036D01*
X176990265Y-78444464D01*
X176847004Y-78401007D01*
X176735351Y-78390010D01*
X176735340Y-78390010D01*
X176698018Y-78386334D01*
X176660696Y-78390010D01*
X176453654Y-78390010D01*
X176423644Y-78360000D01*
X177162678Y-78360000D01*
X177200000Y-78363676D01*
X177237322Y-78360000D01*
X177237333Y-78360000D01*
X177348986Y-78349003D01*
X177492247Y-78305546D01*
X177624276Y-78234974D01*
X177740001Y-78140001D01*
X177763803Y-78110998D01*
X178611004Y-77263798D01*
X178640001Y-77240001D01*
X178734974Y-77124276D01*
X178805546Y-76992247D01*
X178849003Y-76848986D01*
X178860000Y-76737333D01*
X178860000Y-76737324D01*
X178863676Y-76700001D01*
X178860000Y-76662678D01*
X178860000Y-76049870D01*
X178894180Y-76039502D01*
X179004494Y-75980537D01*
X179101185Y-75901185D01*
X179161681Y-75827471D01*
X179258136Y-75971827D01*
%TA.AperFunction,Conductor*%
D31*
G36*
X179258136Y-75971827D02*
G01*
X179402299Y-76115990D01*
X179571817Y-76229258D01*
X179760175Y-76307279D01*
X179960134Y-76347053D01*
X180027083Y-76347053D01*
X180027083Y-76965173D01*
X180023407Y-77002496D01*
X180027083Y-77039818D01*
X180027083Y-77039828D01*
X180038080Y-77151481D01*
X180074990Y-77273158D01*
X180081537Y-77294742D01*
X180152109Y-77426772D01*
X180189387Y-77472195D01*
X180247082Y-77542497D01*
X180276085Y-77566300D01*
X181065000Y-78355215D01*
X181064999Y-81271787D01*
X180895429Y-81189296D01*
X180583892Y-81107616D01*
X180480185Y-81101379D01*
X180486041Y-81071937D01*
X180486041Y-80868059D01*
X180446267Y-80668100D01*
X180368246Y-80479742D01*
X180254978Y-80310224D01*
X180110815Y-80166061D01*
X179941297Y-80052793D01*
X179752939Y-79974772D01*
X179552980Y-79934998D01*
X179349102Y-79934998D01*
X179149143Y-79974772D01*
X178960785Y-80052793D01*
X178791267Y-80166061D01*
X178647104Y-80310224D01*
X178533836Y-80479742D01*
X178455815Y-80668100D01*
X178416041Y-80868059D01*
X178416041Y-80930196D01*
X177089003Y-82257235D01*
X177059999Y-82281038D01*
X177035051Y-82311438D01*
X176965026Y-82396763D01*
X176898447Y-82521323D01*
X176894454Y-82528793D01*
X176850997Y-82672054D01*
X176840000Y-82783707D01*
X176840000Y-82783717D01*
X176836324Y-82821039D01*
X176840000Y-82858362D01*
X176840000Y-83125224D01*
X176801746Y-83128992D01*
X176635150Y-83179528D01*
X176481614Y-83261595D01*
X176347038Y-83372038D01*
X176236595Y-83506614D01*
X176200000Y-83575078D01*
X176163405Y-83506614D01*
X176052962Y-83372038D01*
X175918386Y-83261595D01*
X175764850Y-83179528D01*
X175598254Y-83128992D01*
X175560000Y-83125224D01*
X175560000Y-81307311D01*
X175563676Y-81269988D01*
X175560000Y-81232665D01*
X175560000Y-81232656D01*
X175549003Y-81121003D01*
X175534657Y-81073709D01*
X175535009Y-81071937D01*
X175535009Y-80973274D01*
X175696598Y-80973274D01*
X175740535Y-81017211D01*
X175910053Y-81130479D01*
X176098411Y-81208500D01*
X176298370Y-81248274D01*
X176502248Y-81248274D01*
X176702207Y-81208500D01*
X176890565Y-81130479D01*
X177060083Y-81017211D01*
X177204246Y-80873048D01*
X177279775Y-80760010D01*
X177374957Y-80760010D01*
X177574916Y-80720236D01*
X177763274Y-80642215D01*
X177932792Y-80528947D01*
X178076955Y-80384784D01*
X178190223Y-80215266D01*
X178268244Y-80026908D01*
X178308018Y-79826949D01*
X178308018Y-79623071D01*
X178268244Y-79423112D01*
X178190223Y-79234754D01*
X178076955Y-79065236D01*
X177932792Y-78921073D01*
X177763274Y-78807805D01*
X177574916Y-78729784D01*
X177374957Y-78690010D01*
X177312819Y-78690010D01*
X177261821Y-78639012D01*
X177238019Y-78610009D01*
X177122294Y-78515036D01*
X176990265Y-78444464D01*
X176847004Y-78401007D01*
X176735351Y-78390010D01*
X176735340Y-78390010D01*
X176698018Y-78386334D01*
X176660696Y-78390010D01*
X176453654Y-78390010D01*
X176423644Y-78360000D01*
X177162678Y-78360000D01*
X177200000Y-78363676D01*
X177237322Y-78360000D01*
X177237333Y-78360000D01*
X177348986Y-78349003D01*
X177492247Y-78305546D01*
X177624276Y-78234974D01*
X177740001Y-78140001D01*
X177763803Y-78110998D01*
X178611004Y-77263798D01*
X178640001Y-77240001D01*
X178734974Y-77124276D01*
X178805546Y-76992247D01*
X178849003Y-76848986D01*
X178860000Y-76737333D01*
X178860000Y-76737324D01*
X178863676Y-76700001D01*
X178860000Y-76662678D01*
X178860000Y-76049870D01*
X178894180Y-76039502D01*
X179004494Y-75980537D01*
X179101185Y-75901185D01*
X179161681Y-75827471D01*
X179258136Y-75971827D01*
G37*
%TD.AperFunction*%
D30*
X178802651Y-83330541D02*
X178696253Y-83224143D01*
X178710395Y-83210000D01*
X178696253Y-83195858D01*
X178740749Y-83151361D01*
X178802651Y-83330541D01*
%TA.AperFunction,Conductor*%
D31*
G36*
X178802651Y-83330541D02*
G01*
X178696253Y-83224143D01*
X178710395Y-83210000D01*
X178696253Y-83195858D01*
X178740749Y-83151361D01*
X178802651Y-83330541D01*
G37*
%TD.AperFunction*%
D30*
X170798122Y-71920236D02*
X170986928Y-71957792D01*
X170986928Y-72262500D01*
X171002664Y-72422274D01*
X170970506Y-72439463D01*
X170873815Y-72518815D01*
X170794463Y-72615506D01*
X170735498Y-72725820D01*
X170699188Y-72845518D01*
X170686928Y-72970000D01*
X170686928Y-74530000D01*
X170699188Y-74654482D01*
X170723758Y-74735477D01*
X170715000Y-74818250D01*
X170854960Y-74958210D01*
X170873815Y-74981185D01*
X170970506Y-75060537D01*
X171044335Y-75100000D01*
X170970506Y-75139463D01*
X170873815Y-75218815D01*
X170854960Y-75241790D01*
X170715000Y-75381750D01*
X170723758Y-75464523D01*
X170699188Y-75545518D01*
X170686928Y-75670000D01*
X170686928Y-77230000D01*
X170699188Y-77354482D01*
X170735498Y-77474180D01*
X170794463Y-77584494D01*
X170873815Y-77681185D01*
X170896122Y-77699492D01*
X170900997Y-77748986D01*
X170944454Y-77892247D01*
X171015026Y-78024276D01*
X171109999Y-78140001D01*
X171225724Y-78234974D01*
X171357753Y-78305546D01*
X171501014Y-78349003D01*
X171612667Y-78360000D01*
X171650000Y-78363677D01*
X171687333Y-78360000D01*
X175076242Y-78360000D01*
X174946006Y-78490236D01*
X174832738Y-78659754D01*
X174754717Y-78848112D01*
X174742567Y-78909193D01*
X174734644Y-78907617D01*
X174530766Y-78907617D01*
X174330807Y-78947391D01*
X174142449Y-79025412D01*
X173972931Y-79138680D01*
X173828768Y-79282843D01*
X173715500Y-79452361D01*
X173637479Y-79640719D01*
X173597705Y-79840678D01*
X173597705Y-80044556D01*
X173637479Y-80244515D01*
X173676704Y-80339211D01*
X173582804Y-80479742D01*
X173504783Y-80668100D01*
X173465009Y-80868059D01*
X173465009Y-81071937D01*
X173504783Y-81271896D01*
X173582804Y-81460254D01*
X173696072Y-81629772D01*
X173840235Y-81773935D01*
X174009753Y-81887203D01*
X174040001Y-81899732D01*
X174040000Y-83093397D01*
X174009574Y-82938939D01*
X173939408Y-82768649D01*
X173937763Y-82765575D01*
X173744541Y-82755064D01*
X173289605Y-83210000D01*
X173303748Y-83224143D01*
X173204566Y-83323324D01*
X173215704Y-83300429D01*
X173297384Y-82988892D01*
X173306719Y-82833676D01*
X173564936Y-82575459D01*
X173554425Y-82382237D01*
X173384397Y-82311438D01*
X173250959Y-82284639D01*
X173167795Y-82043912D01*
X173074814Y-81869956D01*
X172810413Y-81774192D01*
X171854605Y-82730000D01*
X171868748Y-82744143D01*
X171689143Y-82923748D01*
X171675000Y-82909605D01*
X171660858Y-82923748D01*
X171481253Y-82744143D01*
X171495395Y-82730000D01*
X171481253Y-82715858D01*
X171660858Y-82536253D01*
X171675000Y-82550395D01*
X172630808Y-81594587D01*
X172535044Y-81330186D01*
X172245429Y-81189296D01*
X171933892Y-81107616D01*
X171612405Y-81088282D01*
X171293325Y-81132039D01*
X170988912Y-81237205D01*
X170814956Y-81330186D01*
X170719193Y-81594585D01*
X170685000Y-81560392D01*
X170685000Y-71873379D01*
X170798122Y-71920236D01*
%TA.AperFunction,Conductor*%
D31*
G36*
X170798122Y-71920236D02*
G01*
X170986928Y-71957792D01*
X170986928Y-72262500D01*
X171002664Y-72422274D01*
X170970506Y-72439463D01*
X170873815Y-72518815D01*
X170794463Y-72615506D01*
X170735498Y-72725820D01*
X170699188Y-72845518D01*
X170686928Y-72970000D01*
X170686928Y-74530000D01*
X170699188Y-74654482D01*
X170723758Y-74735477D01*
X170715000Y-74818250D01*
X170854960Y-74958210D01*
X170873815Y-74981185D01*
X170970506Y-75060537D01*
X171044335Y-75100000D01*
X170970506Y-75139463D01*
X170873815Y-75218815D01*
X170854960Y-75241790D01*
X170715000Y-75381750D01*
X170723758Y-75464523D01*
X170699188Y-75545518D01*
X170686928Y-75670000D01*
X170686928Y-77230000D01*
X170699188Y-77354482D01*
X170735498Y-77474180D01*
X170794463Y-77584494D01*
X170873815Y-77681185D01*
X170896122Y-77699492D01*
X170900997Y-77748986D01*
X170944454Y-77892247D01*
X171015026Y-78024276D01*
X171109999Y-78140001D01*
X171225724Y-78234974D01*
X171357753Y-78305546D01*
X171501014Y-78349003D01*
X171612667Y-78360000D01*
X171650000Y-78363677D01*
X171687333Y-78360000D01*
X175076242Y-78360000D01*
X174946006Y-78490236D01*
X174832738Y-78659754D01*
X174754717Y-78848112D01*
X174742567Y-78909193D01*
X174734644Y-78907617D01*
X174530766Y-78907617D01*
X174330807Y-78947391D01*
X174142449Y-79025412D01*
X173972931Y-79138680D01*
X173828768Y-79282843D01*
X173715500Y-79452361D01*
X173637479Y-79640719D01*
X173597705Y-79840678D01*
X173597705Y-80044556D01*
X173637479Y-80244515D01*
X173676704Y-80339211D01*
X173582804Y-80479742D01*
X173504783Y-80668100D01*
X173465009Y-80868059D01*
X173465009Y-81071937D01*
X173504783Y-81271896D01*
X173582804Y-81460254D01*
X173696072Y-81629772D01*
X173840235Y-81773935D01*
X174009753Y-81887203D01*
X174040001Y-81899732D01*
X174040000Y-83093397D01*
X174009574Y-82938939D01*
X173939408Y-82768649D01*
X173937763Y-82765575D01*
X173744541Y-82755064D01*
X173289605Y-83210000D01*
X173303748Y-83224143D01*
X173204566Y-83323324D01*
X173215704Y-83300429D01*
X173297384Y-82988892D01*
X173306719Y-82833676D01*
X173564936Y-82575459D01*
X173554425Y-82382237D01*
X173384397Y-82311438D01*
X173250959Y-82284639D01*
X173167795Y-82043912D01*
X173074814Y-81869956D01*
X172810413Y-81774192D01*
X171854605Y-82730000D01*
X171868748Y-82744143D01*
X171689143Y-82923748D01*
X171675000Y-82909605D01*
X171660858Y-82923748D01*
X171481253Y-82744143D01*
X171495395Y-82730000D01*
X171481253Y-82715858D01*
X171660858Y-82536253D01*
X171675000Y-82550395D01*
X172630808Y-81594587D01*
X172535044Y-81330186D01*
X172245429Y-81189296D01*
X171933892Y-81107616D01*
X171612405Y-81088282D01*
X171293325Y-81132039D01*
X170988912Y-81237205D01*
X170814956Y-81330186D01*
X170719193Y-81594585D01*
X170685000Y-81560392D01*
X170685000Y-71873379D01*
X170798122Y-71920236D01*
G37*
%TD.AperFunction*%
D30*
X180518748Y-82715858D02*
X180504605Y-82730000D01*
X180518748Y-82744143D01*
X180339143Y-82923748D01*
X180325000Y-82909605D01*
X180310858Y-82923748D01*
X180131253Y-82744143D01*
X180145395Y-82730000D01*
X180131253Y-82715858D01*
X180310858Y-82536253D01*
X180325000Y-82550395D01*
X180339143Y-82536253D01*
X180518748Y-82715858D01*
%TA.AperFunction,Conductor*%
D31*
G36*
X180518748Y-82715858D02*
G01*
X180504605Y-82730000D01*
X180518748Y-82744143D01*
X180339143Y-82923748D01*
X180325000Y-82909605D01*
X180310858Y-82923748D01*
X180131253Y-82744143D01*
X180145395Y-82730000D01*
X180131253Y-82715858D01*
X180310858Y-82536253D01*
X180325000Y-82550395D01*
X180339143Y-82536253D01*
X180518748Y-82715858D01*
G37*
%TD.AperFunction*%
D30*
X181810000Y-63142143D02*
X184315000Y-63142143D01*
X184315001Y-76135108D01*
X184153475Y-75893368D01*
X183946632Y-75686525D01*
X183703411Y-75524010D01*
X183433158Y-75412068D01*
X183146260Y-75355000D01*
X182853740Y-75355000D01*
X182633592Y-75398791D01*
X182447105Y-75212304D01*
X182447105Y-71950217D01*
X182450781Y-71912894D01*
X182447105Y-71875571D01*
X182447105Y-71875562D01*
X182436108Y-71763909D01*
X182392651Y-71620648D01*
X182322079Y-71488619D01*
X182307770Y-71471183D01*
X182250904Y-71401891D01*
X182250900Y-71401887D01*
X182229349Y-71375626D01*
X182298176Y-71306799D01*
X182411444Y-71137281D01*
X182489465Y-70948923D01*
X182529239Y-70748964D01*
X182529239Y-70545086D01*
X182489465Y-70345127D01*
X182411444Y-70156769D01*
X182298176Y-69987251D01*
X182254239Y-69943314D01*
X182254239Y-67420562D01*
X182296927Y-67377874D01*
X182325931Y-67354071D01*
X182420904Y-67238346D01*
X182491476Y-67106317D01*
X182534933Y-66963056D01*
X182545930Y-66851403D01*
X182545930Y-66851394D01*
X182549606Y-66814071D01*
X182545930Y-66776748D01*
X182545930Y-65923263D01*
X182549607Y-65885930D01*
X182534933Y-65736944D01*
X182491476Y-65593683D01*
X182420904Y-65461654D01*
X182349729Y-65374927D01*
X182349727Y-65374925D01*
X182325931Y-65345929D01*
X182296934Y-65322132D01*
X181663803Y-64689002D01*
X181640001Y-64659999D01*
X181524276Y-64565026D01*
X181392247Y-64494454D01*
X181248986Y-64450997D01*
X181137333Y-64440000D01*
X181137322Y-64440000D01*
X181100000Y-64436324D01*
X181062678Y-64440000D01*
X180470864Y-64440000D01*
X180057811Y-64026948D01*
X180034009Y-63997945D01*
X179918284Y-63902972D01*
X179786255Y-63832400D01*
X179642994Y-63788943D01*
X179531341Y-63777946D01*
X179531330Y-63777946D01*
X179494008Y-63774270D01*
X179456686Y-63777946D01*
X178652747Y-63777946D01*
X178451739Y-63576938D01*
X178427936Y-63547934D01*
X178417211Y-63539132D01*
X178497624Y-63505824D01*
X178595000Y-63440759D01*
X178692376Y-63505824D01*
X178898933Y-63591383D01*
X179118212Y-63635000D01*
X179341788Y-63635000D01*
X179561067Y-63591383D01*
X179672774Y-63545112D01*
X179755820Y-63589502D01*
X179875518Y-63625812D01*
X180000000Y-63638072D01*
X180214250Y-63635000D01*
X180373000Y-63476250D01*
X180373000Y-62627000D01*
X180627000Y-62627000D01*
X180627000Y-63476250D01*
X180785750Y-63635000D01*
X181000000Y-63638072D01*
X181124482Y-63625812D01*
X181244180Y-63589502D01*
X181354494Y-63530537D01*
X181451185Y-63451185D01*
X181530537Y-63354494D01*
X181589502Y-63244180D01*
X181625812Y-63124482D01*
X181638072Y-63000000D01*
X181635000Y-62785750D01*
X181476250Y-62627000D01*
X180627000Y-62627000D01*
X180373000Y-62627000D01*
X180361974Y-62627000D01*
X180365000Y-62611788D01*
X180365000Y-62388212D01*
X180361974Y-62373000D01*
X180373000Y-62373000D01*
X180373000Y-60757000D01*
X180627000Y-60757000D01*
X180627000Y-62373000D01*
X181476250Y-62373000D01*
X181635000Y-62214250D01*
X181638072Y-62000000D01*
X181625812Y-61875518D01*
X181589502Y-61755820D01*
X181530537Y-61645506D01*
X181464468Y-61565000D01*
X181530537Y-61484494D01*
X181589502Y-61374180D01*
X181625812Y-61254482D01*
X181638072Y-61130000D01*
X181635000Y-60915750D01*
X181476250Y-60757000D01*
X180627000Y-60757000D01*
X180373000Y-60757000D01*
X180361974Y-60757000D01*
X180365000Y-60741788D01*
X180365000Y-60518212D01*
X180361974Y-60503000D01*
X180373000Y-60503000D01*
X180373000Y-60483000D01*
X180627000Y-60483000D01*
X180627000Y-60503000D01*
X181476250Y-60503000D01*
X181635000Y-60344250D01*
X181638072Y-60130000D01*
X181625812Y-60005518D01*
X181589502Y-59885820D01*
X181530537Y-59775506D01*
X181456261Y-59685000D01*
X181810000Y-59685000D01*
X181810000Y-63142143D01*
%TA.AperFunction,Conductor*%
D31*
G36*
X181810000Y-63142143D02*
G01*
X184315000Y-63142143D01*
X184315001Y-76135108D01*
X184153475Y-75893368D01*
X183946632Y-75686525D01*
X183703411Y-75524010D01*
X183433158Y-75412068D01*
X183146260Y-75355000D01*
X182853740Y-75355000D01*
X182633592Y-75398791D01*
X182447105Y-75212304D01*
X182447105Y-71950217D01*
X182450781Y-71912894D01*
X182447105Y-71875571D01*
X182447105Y-71875562D01*
X182436108Y-71763909D01*
X182392651Y-71620648D01*
X182322079Y-71488619D01*
X182307770Y-71471183D01*
X182250904Y-71401891D01*
X182250900Y-71401887D01*
X182229349Y-71375626D01*
X182298176Y-71306799D01*
X182411444Y-71137281D01*
X182489465Y-70948923D01*
X182529239Y-70748964D01*
X182529239Y-70545086D01*
X182489465Y-70345127D01*
X182411444Y-70156769D01*
X182298176Y-69987251D01*
X182254239Y-69943314D01*
X182254239Y-67420562D01*
X182296927Y-67377874D01*
X182325931Y-67354071D01*
X182420904Y-67238346D01*
X182491476Y-67106317D01*
X182534933Y-66963056D01*
X182545930Y-66851403D01*
X182545930Y-66851394D01*
X182549606Y-66814071D01*
X182545930Y-66776748D01*
X182545930Y-65923263D01*
X182549607Y-65885930D01*
X182534933Y-65736944D01*
X182491476Y-65593683D01*
X182420904Y-65461654D01*
X182349729Y-65374927D01*
X182349727Y-65374925D01*
X182325931Y-65345929D01*
X182296934Y-65322132D01*
X181663803Y-64689002D01*
X181640001Y-64659999D01*
X181524276Y-64565026D01*
X181392247Y-64494454D01*
X181248986Y-64450997D01*
X181137333Y-64440000D01*
X181137322Y-64440000D01*
X181100000Y-64436324D01*
X181062678Y-64440000D01*
X180470864Y-64440000D01*
X180057811Y-64026948D01*
X180034009Y-63997945D01*
X179918284Y-63902972D01*
X179786255Y-63832400D01*
X179642994Y-63788943D01*
X179531341Y-63777946D01*
X179531330Y-63777946D01*
X179494008Y-63774270D01*
X179456686Y-63777946D01*
X178652747Y-63777946D01*
X178451739Y-63576938D01*
X178427936Y-63547934D01*
X178417211Y-63539132D01*
X178497624Y-63505824D01*
X178595000Y-63440759D01*
X178692376Y-63505824D01*
X178898933Y-63591383D01*
X179118212Y-63635000D01*
X179341788Y-63635000D01*
X179561067Y-63591383D01*
X179672774Y-63545112D01*
X179755820Y-63589502D01*
X179875518Y-63625812D01*
X180000000Y-63638072D01*
X180214250Y-63635000D01*
X180373000Y-63476250D01*
X180373000Y-62627000D01*
X180627000Y-62627000D01*
X180627000Y-63476250D01*
X180785750Y-63635000D01*
X181000000Y-63638072D01*
X181124482Y-63625812D01*
X181244180Y-63589502D01*
X181354494Y-63530537D01*
X181451185Y-63451185D01*
X181530537Y-63354494D01*
X181589502Y-63244180D01*
X181625812Y-63124482D01*
X181638072Y-63000000D01*
X181635000Y-62785750D01*
X181476250Y-62627000D01*
X180627000Y-62627000D01*
X180373000Y-62627000D01*
X180361974Y-62627000D01*
X180365000Y-62611788D01*
X180365000Y-62388212D01*
X180361974Y-62373000D01*
X180373000Y-62373000D01*
X180373000Y-60757000D01*
X180627000Y-60757000D01*
X180627000Y-62373000D01*
X181476250Y-62373000D01*
X181635000Y-62214250D01*
X181638072Y-62000000D01*
X181625812Y-61875518D01*
X181589502Y-61755820D01*
X181530537Y-61645506D01*
X181464468Y-61565000D01*
X181530537Y-61484494D01*
X181589502Y-61374180D01*
X181625812Y-61254482D01*
X181638072Y-61130000D01*
X181635000Y-60915750D01*
X181476250Y-60757000D01*
X180627000Y-60757000D01*
X180373000Y-60757000D01*
X180361974Y-60757000D01*
X180365000Y-60741788D01*
X180365000Y-60518212D01*
X180361974Y-60503000D01*
X180373000Y-60503000D01*
X180373000Y-60483000D01*
X180627000Y-60483000D01*
X180627000Y-60503000D01*
X181476250Y-60503000D01*
X181635000Y-60344250D01*
X181638072Y-60130000D01*
X181625812Y-60005518D01*
X181589502Y-59885820D01*
X181530537Y-59775506D01*
X181456261Y-59685000D01*
X181810000Y-59685000D01*
X181810000Y-63142143D01*
G37*
%TD.AperFunction*%
D30*
X173426480Y-59748388D02*
X173268388Y-59906480D01*
X173144176Y-60092376D01*
X173058617Y-60298933D01*
X173015000Y-60518212D01*
X173015000Y-60741788D01*
X173058617Y-60961067D01*
X173144176Y-61167624D01*
X173268388Y-61353520D01*
X173390000Y-61475132D01*
X173390001Y-61654867D01*
X173268388Y-61776480D01*
X173144176Y-61962376D01*
X173058617Y-62168933D01*
X173015000Y-62388212D01*
X173015000Y-62611788D01*
X173058617Y-62831067D01*
X173144176Y-63037624D01*
X173268388Y-63223520D01*
X173426480Y-63381612D01*
X173612376Y-63505824D01*
X173818933Y-63591383D01*
X174038212Y-63635000D01*
X174261788Y-63635000D01*
X174481067Y-63591383D01*
X174660001Y-63517266D01*
X174660001Y-63689988D01*
X173071931Y-63689988D01*
X173027994Y-63646051D01*
X172858476Y-63532783D01*
X172670118Y-63454762D01*
X172470159Y-63414988D01*
X172266281Y-63414988D01*
X172066322Y-63454762D01*
X171877964Y-63532783D01*
X171708446Y-63646051D01*
X171564283Y-63790214D01*
X171451015Y-63959732D01*
X171372994Y-64148090D01*
X171333220Y-64348049D01*
X171333220Y-64551927D01*
X171372994Y-64751886D01*
X171451015Y-64940244D01*
X171464337Y-64960182D01*
X171409744Y-64982795D01*
X171240226Y-65096063D01*
X171096063Y-65240226D01*
X170982795Y-65409744D01*
X170904774Y-65598102D01*
X170865000Y-65798061D01*
X170865000Y-66001939D01*
X170904774Y-66201898D01*
X170982795Y-66390256D01*
X171096063Y-66559774D01*
X171240226Y-66703937D01*
X171409744Y-66817205D01*
X171598102Y-66895226D01*
X171659949Y-66907528D01*
X171612857Y-66978006D01*
X171534836Y-67166364D01*
X171495062Y-67366323D01*
X171495062Y-67570201D01*
X171534836Y-67770160D01*
X171612857Y-67958518D01*
X171726125Y-68128036D01*
X171870288Y-68272199D01*
X172039806Y-68385467D01*
X172228164Y-68463488D01*
X172428123Y-68503262D01*
X172632001Y-68503262D01*
X172831960Y-68463488D01*
X173020318Y-68385467D01*
X173189836Y-68272199D01*
X173195077Y-68266959D01*
X173220074Y-68291956D01*
X173220074Y-68779725D01*
X173216398Y-68817048D01*
X173218593Y-68839331D01*
X172875000Y-68836928D01*
X172750518Y-68849188D01*
X172630820Y-68885498D01*
X172520506Y-68944463D01*
X172423815Y-69023815D01*
X172388421Y-69066943D01*
X172337500Y-69061928D01*
X171862500Y-69061928D01*
X171691684Y-69078752D01*
X171527433Y-69128577D01*
X171376058Y-69209488D01*
X171243377Y-69318377D01*
X171134488Y-69451058D01*
X171053577Y-69602433D01*
X171003752Y-69766684D01*
X170991476Y-69891324D01*
X170798122Y-69929784D01*
X170685000Y-69976641D01*
X170685000Y-60033505D01*
X170694222Y-59939453D01*
X170711805Y-59881214D01*
X170740366Y-59827499D01*
X170778816Y-59780354D01*
X170825691Y-59741576D01*
X170879204Y-59712642D01*
X170937323Y-59694651D01*
X171029145Y-59685000D01*
X173521347Y-59685000D01*
X173426480Y-59748388D01*
%TA.AperFunction,Conductor*%
D31*
G36*
X173426480Y-59748388D02*
G01*
X173268388Y-59906480D01*
X173144176Y-60092376D01*
X173058617Y-60298933D01*
X173015000Y-60518212D01*
X173015000Y-60741788D01*
X173058617Y-60961067D01*
X173144176Y-61167624D01*
X173268388Y-61353520D01*
X173390000Y-61475132D01*
X173390001Y-61654867D01*
X173268388Y-61776480D01*
X173144176Y-61962376D01*
X173058617Y-62168933D01*
X173015000Y-62388212D01*
X173015000Y-62611788D01*
X173058617Y-62831067D01*
X173144176Y-63037624D01*
X173268388Y-63223520D01*
X173426480Y-63381612D01*
X173612376Y-63505824D01*
X173818933Y-63591383D01*
X174038212Y-63635000D01*
X174261788Y-63635000D01*
X174481067Y-63591383D01*
X174660001Y-63517266D01*
X174660001Y-63689988D01*
X173071931Y-63689988D01*
X173027994Y-63646051D01*
X172858476Y-63532783D01*
X172670118Y-63454762D01*
X172470159Y-63414988D01*
X172266281Y-63414988D01*
X172066322Y-63454762D01*
X171877964Y-63532783D01*
X171708446Y-63646051D01*
X171564283Y-63790214D01*
X171451015Y-63959732D01*
X171372994Y-64148090D01*
X171333220Y-64348049D01*
X171333220Y-64551927D01*
X171372994Y-64751886D01*
X171451015Y-64940244D01*
X171464337Y-64960182D01*
X171409744Y-64982795D01*
X171240226Y-65096063D01*
X171096063Y-65240226D01*
X170982795Y-65409744D01*
X170904774Y-65598102D01*
X170865000Y-65798061D01*
X170865000Y-66001939D01*
X170904774Y-66201898D01*
X170982795Y-66390256D01*
X171096063Y-66559774D01*
X171240226Y-66703937D01*
X171409744Y-66817205D01*
X171598102Y-66895226D01*
X171659949Y-66907528D01*
X171612857Y-66978006D01*
X171534836Y-67166364D01*
X171495062Y-67366323D01*
X171495062Y-67570201D01*
X171534836Y-67770160D01*
X171612857Y-67958518D01*
X171726125Y-68128036D01*
X171870288Y-68272199D01*
X172039806Y-68385467D01*
X172228164Y-68463488D01*
X172428123Y-68503262D01*
X172632001Y-68503262D01*
X172831960Y-68463488D01*
X173020318Y-68385467D01*
X173189836Y-68272199D01*
X173195077Y-68266959D01*
X173220074Y-68291956D01*
X173220074Y-68779725D01*
X173216398Y-68817048D01*
X173218593Y-68839331D01*
X172875000Y-68836928D01*
X172750518Y-68849188D01*
X172630820Y-68885498D01*
X172520506Y-68944463D01*
X172423815Y-69023815D01*
X172388421Y-69066943D01*
X172337500Y-69061928D01*
X171862500Y-69061928D01*
X171691684Y-69078752D01*
X171527433Y-69128577D01*
X171376058Y-69209488D01*
X171243377Y-69318377D01*
X171134488Y-69451058D01*
X171053577Y-69602433D01*
X171003752Y-69766684D01*
X170991476Y-69891324D01*
X170798122Y-69929784D01*
X170685000Y-69976641D01*
X170685000Y-60033505D01*
X170694222Y-59939453D01*
X170711805Y-59881214D01*
X170740366Y-59827499D01*
X170778816Y-59780354D01*
X170825691Y-59741576D01*
X170879204Y-59712642D01*
X170937323Y-59694651D01*
X171029145Y-59685000D01*
X173521347Y-59685000D01*
X173426480Y-59748388D01*
G37*
%TD.AperFunction*%
D30*
X178568748Y-68860858D02*
X178554605Y-68875000D01*
X178568748Y-68889143D01*
X178389143Y-69068748D01*
X178375000Y-69054605D01*
X178360858Y-69068748D01*
X178181253Y-68889143D01*
X178195395Y-68875000D01*
X178181253Y-68860858D01*
X178360858Y-68681253D01*
X178375000Y-68695395D01*
X178389143Y-68681253D01*
X178568748Y-68860858D01*
%TA.AperFunction,Conductor*%
D31*
G36*
X178568748Y-68860858D02*
G01*
X178554605Y-68875000D01*
X178568748Y-68889143D01*
X178389143Y-69068748D01*
X178375000Y-69054605D01*
X178360858Y-69068748D01*
X178181253Y-68889143D01*
X178195395Y-68875000D01*
X178181253Y-68860858D01*
X178360858Y-68681253D01*
X178375000Y-68695395D01*
X178389143Y-68681253D01*
X178568748Y-68860858D01*
G37*
%TD.AperFunction*%
%TD*%
M02*
