M48
; DRILL file {KiCad (5.1.9-0-10_14)} date Friday, April 23, 2021 at 02:41:00 PM
; FORMAT={-:-/ absolute / inch / decimal}
; #@! TF.CreationDate,2021-04-23T14:41:00+01:00
; #@! TF.GenerationSoftware,Kicad,Pcbnew,(5.1.9-0-10_14)
; #@! TF.FileFunction,Plated,1,2,PTH
FMAT,2
INCH
T1C0.0157
T2C0.0236
T3C0.0256
T4C0.0300
T5C0.0394
T6C0.0472
T7C0.0591
%
G90
G05
T1
X6.7992Y-2.563
X6.8009Y-2.7687
X6.8651Y-3.1871
X6.8878Y-3.1549
X6.9065Y-3.1203
X6.9083Y-2.6163
X6.9262Y-2.6781
X6.9395Y-2.5433
X6.9412Y-2.7753
X6.9529Y-3.1547
X6.983Y-2.5818
X6.9921Y-3.1513
X6.9955Y-2.8247
X7.0056Y-3.1886
X7.0865Y-2.5955
X7.1811Y-2.7559
T2
X6.8154Y-3.276
X7.0429Y-3.276
T3
X6.876Y-2.387
X6.876Y-2.4646
X6.926Y-2.387
X6.926Y-2.4646
X6.976Y-2.387
X6.976Y-2.4646
X7.026Y-2.387
X7.026Y-2.4646
X7.076Y-2.387
X7.076Y-2.4646
X7.126Y-2.387
X7.126Y-2.4646
T4
X7.0502Y-2.7215
T5
X6.8004Y-2.6622
X7.2441Y-3.0252
X7.2441Y-3.1252
X7.2441Y-3.2252
X7.2441Y-3.3252
X7.2441Y-3.4252
T6
X6.7589Y-3.4217
X7.0994Y-3.4217
T7
X6.7589Y-3.2571
X7.0994Y-3.2571
T0
M30
