%TF.GenerationSoftware,KiCad,Pcbnew,(5.1.9-0-10_14)*%
%TF.CreationDate,2021-05-02T11:52:11+01:00*%
%TF.ProjectId,Shelly,5368656c-6c79-42e6-9b69-6361645f7063,rev?*%
%TF.SameCoordinates,Original*%
%TF.FileFunction,Copper,L1,Top*%
%TF.FilePolarity,Positive*%
%FSLAX46Y46*%
G04 Gerber Fmt 4.6, Leading zero omitted, Abs format (unit mm)*
G04 Created by KiCad (PCBNEW (5.1.9-0-10_14)) date 2021-05-02 11:52:11*
%MOMM*%
%LPD*%
G01*
G04 APERTURE LIST*
%TA.AperFunction,SMDPad,CuDef*%
%ADD10R,1.200000X0.800000*%
%TD*%
%TA.AperFunction,ComponentPad*%
%ADD11O,1.000000X1.000000*%
%TD*%
%TA.AperFunction,ComponentPad*%
%ADD12R,1.000000X1.000000*%
%TD*%
%TA.AperFunction,SMDPad,CuDef*%
%ADD13R,8.340000X5.490000*%
%TD*%
%TA.AperFunction,SMDPad,CuDef*%
%ADD14R,0.600000X1.140000*%
%TD*%
%TA.AperFunction,ComponentPad*%
%ADD15C,1.700000*%
%TD*%
%TA.AperFunction,ComponentPad*%
%ADD16C,2.000000*%
%TD*%
%TA.AperFunction,SMDPad,CuDef*%
%ADD17R,0.300000X1.140000*%
%TD*%
%TA.AperFunction,ComponentPad*%
%ADD18C,0.600000*%
%TD*%
%TA.AperFunction,ComponentPad*%
%ADD19C,1.524000*%
%TD*%
%TA.AperFunction,SMDPad,CuDef*%
%ADD20R,0.200000X0.200000*%
%TD*%
%TA.AperFunction,SMDPad,CuDef*%
%ADD21C,0.500000*%
%TD*%
%TA.AperFunction,SMDPad,CuDef*%
%ADD22R,2.500000X2.500000*%
%TD*%
%TA.AperFunction,ComponentPad*%
%ADD23O,1.700000X1.700000*%
%TD*%
%TA.AperFunction,ComponentPad*%
%ADD24R,1.700000X1.700000*%
%TD*%
%TA.AperFunction,ViaPad*%
%ADD25C,0.800000*%
%TD*%
%TA.AperFunction,Conductor*%
%ADD26C,0.250000*%
%TD*%
%TA.AperFunction,Conductor*%
%ADD27C,0.500000*%
%TD*%
%TA.AperFunction,Conductor*%
%ADD28C,0.254000*%
%TD*%
%TA.AperFunction,Conductor*%
%ADD29C,0.100000*%
%TD*%
G04 APERTURE END LIST*
D10*
%TO.P,U2,1*%
%TO.N,Net-(R6-Pad1)*%
X172800000Y-77430000D03*
%TO.P,U2,2*%
%TO.N,GND*%
X172800000Y-79970000D03*
%TO.P,U2,3*%
%TO.N,Net-(J1-Pad3)*%
X178800000Y-79970000D03*
%TO.P,U2,4*%
%TO.N,+3V3*%
X178800000Y-77430000D03*
%TD*%
D11*
%TO.P,J3,6*%
%TO.N,TXD*%
X174150000Y-62500000D03*
%TO.P,J3,5*%
%TO.N,RXD*%
X175420000Y-62500000D03*
%TO.P,J3,4*%
%TO.N,+3V3*%
X176690000Y-62500000D03*
%TO.P,J3,3*%
%TO.N,RST*%
X177960000Y-62500000D03*
%TO.P,J3,2*%
%TO.N,GPIO0*%
X179230000Y-62500000D03*
D12*
%TO.P,J3,1*%
%TO.N,GND*%
X180500000Y-62500000D03*
%TD*%
%TO.P,R6,2*%
%TO.N,RST*%
%TA.AperFunction,SMDPad,CuDef*%
G36*
G01*
X174200000Y-75625000D02*
X174200000Y-74375000D01*
G75*
G02*
X174450000Y-74125000I250000J0D01*
G01*
X175250000Y-74125000D01*
G75*
G02*
X175500000Y-74375000I0J-250000D01*
G01*
X175500000Y-75625000D01*
G75*
G02*
X175250000Y-75875000I-250000J0D01*
G01*
X174450000Y-75875000D01*
G75*
G02*
X174200000Y-75625000I0J250000D01*
G01*
G37*
%TD.AperFunction*%
%TO.P,R6,1*%
%TO.N,Net-(R6-Pad1)*%
%TA.AperFunction,SMDPad,CuDef*%
G36*
G01*
X171100000Y-75625000D02*
X171100000Y-74375000D01*
G75*
G02*
X171350000Y-74125000I250000J0D01*
G01*
X172150000Y-74125000D01*
G75*
G02*
X172400000Y-74375000I0J-250000D01*
G01*
X172400000Y-75625000D01*
G75*
G02*
X172150000Y-75875000I-250000J0D01*
G01*
X171350000Y-75875000D01*
G75*
G02*
X171100000Y-75625000I0J250000D01*
G01*
G37*
%TD.AperFunction*%
%TD*%
%TO.P,R3,2*%
%TO.N,Net-(D1-Pad2)*%
%TA.AperFunction,SMDPad,CuDef*%
G36*
G01*
X174200000Y-73225000D02*
X174200000Y-71975000D01*
G75*
G02*
X174450000Y-71725000I250000J0D01*
G01*
X175250000Y-71725000D01*
G75*
G02*
X175500000Y-71975000I0J-250000D01*
G01*
X175500000Y-73225000D01*
G75*
G02*
X175250000Y-73475000I-250000J0D01*
G01*
X174450000Y-73475000D01*
G75*
G02*
X174200000Y-73225000I0J250000D01*
G01*
G37*
%TD.AperFunction*%
%TO.P,R3,1*%
%TO.N,+3V3*%
%TA.AperFunction,SMDPad,CuDef*%
G36*
G01*
X171100000Y-73225000D02*
X171100000Y-71975000D01*
G75*
G02*
X171350000Y-71725000I250000J0D01*
G01*
X172150000Y-71725000D01*
G75*
G02*
X172400000Y-71975000I0J-250000D01*
G01*
X172400000Y-73225000D01*
G75*
G02*
X172150000Y-73475000I-250000J0D01*
G01*
X171350000Y-73475000D01*
G75*
G02*
X171100000Y-73225000I0J250000D01*
G01*
G37*
%TD.AperFunction*%
%TD*%
%TO.P,D1,2*%
%TO.N,Net-(D1-Pad2)*%
%TA.AperFunction,SMDPad,CuDef*%
G36*
G01*
X171100000Y-61800000D02*
X171900000Y-61800000D01*
G75*
G02*
X172150000Y-62050000I0J-250000D01*
G01*
X172150000Y-62875000D01*
G75*
G02*
X171900000Y-63125000I-250000J0D01*
G01*
X171100000Y-63125000D01*
G75*
G02*
X170850000Y-62875000I0J250000D01*
G01*
X170850000Y-62050000D01*
G75*
G02*
X171100000Y-61800000I250000J0D01*
G01*
G37*
%TD.AperFunction*%
%TO.P,D1,1*%
%TO.N,Net-(D1-Pad1)*%
%TA.AperFunction,SMDPad,CuDef*%
G36*
G01*
X171100000Y-59875000D02*
X171900000Y-59875000D01*
G75*
G02*
X172150000Y-60125000I0J-250000D01*
G01*
X172150000Y-60950000D01*
G75*
G02*
X171900000Y-61200000I-250000J0D01*
G01*
X171100000Y-61200000D01*
G75*
G02*
X170850000Y-60950000I0J250000D01*
G01*
X170850000Y-60125000D01*
G75*
G02*
X171100000Y-59875000I250000J0D01*
G01*
G37*
%TD.AperFunction*%
%TD*%
D13*
%TO.P,J4,S1*%
%TO.N,GND*%
X176000000Y-86255000D03*
D14*
%TO.P,J4,A12*%
X179200000Y-82140000D03*
%TO.P,J4,A4*%
%TO.N,VBUS*%
X173600000Y-82140000D03*
%TO.P,J4,B12*%
%TO.N,GND*%
X172800000Y-82140000D03*
%TO.P,J4,B4*%
%TO.N,VBUS*%
X178400000Y-82140000D03*
D15*
%TO.P,J4,S1*%
%TO.N,GND*%
X180325000Y-86910000D03*
X171675000Y-86910000D03*
D16*
X180325000Y-82730000D03*
X171675000Y-82730000D03*
D17*
%TO.P,J4,A7*%
%TO.N,Net-(J4-PadA7)*%
X176250000Y-82140000D03*
%TO.P,J4,A6*%
%TO.N,Net-(J4-PadA6)*%
X175750000Y-82140000D03*
%TO.P,J4,B6*%
X176750000Y-82140000D03*
%TO.P,J4,B7*%
%TO.N,Net-(J4-PadA7)*%
X175250000Y-82140000D03*
%TO.P,J4,A8*%
%TO.N,Net-(J4-PadA8)*%
X177250000Y-82140000D03*
%TO.P,J4,A5*%
%TO.N,Net-(J4-PadA5)*%
X174750000Y-82140000D03*
%TO.P,J4,B5*%
%TO.N,Net-(J4-PadB5)*%
X177750000Y-82140000D03*
%TO.P,J4,B8*%
%TO.N,Net-(J4-PadB8)*%
X174250000Y-82140000D03*
D14*
%TO.P,J4,A9*%
%TO.N,VBUS*%
X178400000Y-82140000D03*
%TO.P,J4,B9*%
X173600000Y-82140000D03*
%TO.P,J4,B1*%
%TO.N,GND*%
X179200000Y-82140000D03*
D18*
%TO.P,J4,S1*%
X178890000Y-83210000D03*
X173110000Y-83210000D03*
D14*
%TO.P,J4,A1*%
X172800000Y-82140000D03*
%TD*%
D19*
%TO.P,U1,21*%
%TO.N,GND*%
X178375000Y-68875000D03*
D20*
%TO.P,U1,~*%
%TO.N,N/C*%
X176375000Y-70875000D03*
X180375000Y-66875000D03*
X180375000Y-70875000D03*
X176375000Y-66875000D03*
D21*
X176375000Y-70875000D03*
D22*
%TO.P,U1,21*%
%TO.N,GND*%
X178375000Y-68875000D03*
%TO.P,U1,20*%
%TO.N,Net-(C1-Pad1)*%
%TA.AperFunction,SMDPad,CuDef*%
G36*
G01*
X176787500Y-70000000D02*
X175912500Y-70000000D01*
G75*
G02*
X175850000Y-69937500I0J62500D01*
G01*
X175850000Y-69812500D01*
G75*
G02*
X175912500Y-69750000I62500J0D01*
G01*
X176787500Y-69750000D01*
G75*
G02*
X176850000Y-69812500I0J-62500D01*
G01*
X176850000Y-69937500D01*
G75*
G02*
X176787500Y-70000000I-62500J0D01*
G01*
G37*
%TD.AperFunction*%
%TO.P,U1,19*%
%TO.N,RST*%
%TA.AperFunction,SMDPad,CuDef*%
G36*
G01*
X176787500Y-69500000D02*
X175912500Y-69500000D01*
G75*
G02*
X175850000Y-69437500I0J62500D01*
G01*
X175850000Y-69312500D01*
G75*
G02*
X175912500Y-69250000I62500J0D01*
G01*
X176787500Y-69250000D01*
G75*
G02*
X176850000Y-69312500I0J-62500D01*
G01*
X176850000Y-69437500D01*
G75*
G02*
X176787500Y-69500000I-62500J0D01*
G01*
G37*
%TD.AperFunction*%
%TO.P,U1,18*%
%TO.N,GPIO0*%
%TA.AperFunction,SMDPad,CuDef*%
G36*
G01*
X176787500Y-69000000D02*
X175912500Y-69000000D01*
G75*
G02*
X175850000Y-68937500I0J62500D01*
G01*
X175850000Y-68812500D01*
G75*
G02*
X175912500Y-68750000I62500J0D01*
G01*
X176787500Y-68750000D01*
G75*
G02*
X176850000Y-68812500I0J-62500D01*
G01*
X176850000Y-68937500D01*
G75*
G02*
X176787500Y-69000000I-62500J0D01*
G01*
G37*
%TD.AperFunction*%
%TO.P,U1,17*%
%TO.N,RXD*%
%TA.AperFunction,SMDPad,CuDef*%
G36*
G01*
X176787500Y-68500000D02*
X175912500Y-68500000D01*
G75*
G02*
X175850000Y-68437500I0J62500D01*
G01*
X175850000Y-68312500D01*
G75*
G02*
X175912500Y-68250000I62500J0D01*
G01*
X176787500Y-68250000D01*
G75*
G02*
X176850000Y-68312500I0J-62500D01*
G01*
X176850000Y-68437500D01*
G75*
G02*
X176787500Y-68500000I-62500J0D01*
G01*
G37*
%TD.AperFunction*%
%TO.P,U1,16*%
%TO.N,Net-(U1-Pad16)*%
%TA.AperFunction,SMDPad,CuDef*%
G36*
G01*
X176787500Y-68000000D02*
X175912500Y-68000000D01*
G75*
G02*
X175850000Y-67937500I0J62500D01*
G01*
X175850000Y-67812500D01*
G75*
G02*
X175912500Y-67750000I62500J0D01*
G01*
X176787500Y-67750000D01*
G75*
G02*
X176850000Y-67812500I0J-62500D01*
G01*
X176850000Y-67937500D01*
G75*
G02*
X176787500Y-68000000I-62500J0D01*
G01*
G37*
%TD.AperFunction*%
%TO.P,U1,15*%
%TO.N,Net-(D1-Pad1)*%
%TA.AperFunction,SMDPad,CuDef*%
G36*
G01*
X177437500Y-67350000D02*
X177312500Y-67350000D01*
G75*
G02*
X177250000Y-67287500I0J62500D01*
G01*
X177250000Y-66412500D01*
G75*
G02*
X177312500Y-66350000I62500J0D01*
G01*
X177437500Y-66350000D01*
G75*
G02*
X177500000Y-66412500I0J-62500D01*
G01*
X177500000Y-67287500D01*
G75*
G02*
X177437500Y-67350000I-62500J0D01*
G01*
G37*
%TD.AperFunction*%
%TO.P,U1,14*%
%TO.N,Net-(U1-Pad14)*%
%TA.AperFunction,SMDPad,CuDef*%
G36*
G01*
X177937500Y-67350000D02*
X177812500Y-67350000D01*
G75*
G02*
X177750000Y-67287500I0J62500D01*
G01*
X177750000Y-66412500D01*
G75*
G02*
X177812500Y-66350000I62500J0D01*
G01*
X177937500Y-66350000D01*
G75*
G02*
X178000000Y-66412500I0J-62500D01*
G01*
X178000000Y-67287500D01*
G75*
G02*
X177937500Y-67350000I-62500J0D01*
G01*
G37*
%TD.AperFunction*%
%TO.P,U1,13*%
%TO.N,GND*%
%TA.AperFunction,SMDPad,CuDef*%
G36*
G01*
X178437500Y-67350000D02*
X178312500Y-67350000D01*
G75*
G02*
X178250000Y-67287500I0J62500D01*
G01*
X178250000Y-66412500D01*
G75*
G02*
X178312500Y-66350000I62500J0D01*
G01*
X178437500Y-66350000D01*
G75*
G02*
X178500000Y-66412500I0J-62500D01*
G01*
X178500000Y-67287500D01*
G75*
G02*
X178437500Y-67350000I-62500J0D01*
G01*
G37*
%TD.AperFunction*%
%TO.P,U1,12*%
%TO.N,VBUS*%
%TA.AperFunction,SMDPad,CuDef*%
G36*
G01*
X178937500Y-67350000D02*
X178812500Y-67350000D01*
G75*
G02*
X178750000Y-67287500I0J62500D01*
G01*
X178750000Y-66412500D01*
G75*
G02*
X178812500Y-66350000I62500J0D01*
G01*
X178937500Y-66350000D01*
G75*
G02*
X179000000Y-66412500I0J-62500D01*
G01*
X179000000Y-67287500D01*
G75*
G02*
X178937500Y-67350000I-62500J0D01*
G01*
G37*
%TD.AperFunction*%
%TO.P,U1,11*%
%TO.N,Net-(C1-Pad1)*%
%TA.AperFunction,SMDPad,CuDef*%
G36*
G01*
X179437500Y-67350000D02*
X179312500Y-67350000D01*
G75*
G02*
X179250000Y-67287500I0J62500D01*
G01*
X179250000Y-66412500D01*
G75*
G02*
X179312500Y-66350000I62500J0D01*
G01*
X179437500Y-66350000D01*
G75*
G02*
X179500000Y-66412500I0J-62500D01*
G01*
X179500000Y-67287500D01*
G75*
G02*
X179437500Y-67350000I-62500J0D01*
G01*
G37*
%TD.AperFunction*%
%TO.P,U1,10*%
%TA.AperFunction,SMDPad,CuDef*%
G36*
G01*
X180837500Y-68000000D02*
X179962500Y-68000000D01*
G75*
G02*
X179900000Y-67937500I0J62500D01*
G01*
X179900000Y-67812500D01*
G75*
G02*
X179962500Y-67750000I62500J0D01*
G01*
X180837500Y-67750000D01*
G75*
G02*
X180900000Y-67812500I0J-62500D01*
G01*
X180900000Y-67937500D01*
G75*
G02*
X180837500Y-68000000I-62500J0D01*
G01*
G37*
%TD.AperFunction*%
%TO.P,U1,9*%
%TO.N,D-*%
%TA.AperFunction,SMDPad,CuDef*%
G36*
G01*
X180837500Y-68500000D02*
X179962500Y-68500000D01*
G75*
G02*
X179900000Y-68437500I0J62500D01*
G01*
X179900000Y-68312500D01*
G75*
G02*
X179962500Y-68250000I62500J0D01*
G01*
X180837500Y-68250000D01*
G75*
G02*
X180900000Y-68312500I0J-62500D01*
G01*
X180900000Y-68437500D01*
G75*
G02*
X180837500Y-68500000I-62500J0D01*
G01*
G37*
%TD.AperFunction*%
%TO.P,U1,8*%
%TO.N,D+*%
%TA.AperFunction,SMDPad,CuDef*%
G36*
G01*
X180837500Y-69000000D02*
X179962500Y-69000000D01*
G75*
G02*
X179900000Y-68937500I0J62500D01*
G01*
X179900000Y-68812500D01*
G75*
G02*
X179962500Y-68750000I62500J0D01*
G01*
X180837500Y-68750000D01*
G75*
G02*
X180900000Y-68812500I0J-62500D01*
G01*
X180900000Y-68937500D01*
G75*
G02*
X180837500Y-69000000I-62500J0D01*
G01*
G37*
%TD.AperFunction*%
%TO.P,U1,7*%
%TO.N,Net-(U1-Pad7)*%
%TA.AperFunction,SMDPad,CuDef*%
G36*
G01*
X180837500Y-69500000D02*
X179962500Y-69500000D01*
G75*
G02*
X179900000Y-69437500I0J62500D01*
G01*
X179900000Y-69312500D01*
G75*
G02*
X179962500Y-69250000I62500J0D01*
G01*
X180837500Y-69250000D01*
G75*
G02*
X180900000Y-69312500I0J-62500D01*
G01*
X180900000Y-69437500D01*
G75*
G02*
X180837500Y-69500000I-62500J0D01*
G01*
G37*
%TD.AperFunction*%
%TO.P,U1,6*%
%TO.N,GND*%
%TA.AperFunction,SMDPad,CuDef*%
G36*
G01*
X180837500Y-70000000D02*
X179962500Y-70000000D01*
G75*
G02*
X179900000Y-69937500I0J62500D01*
G01*
X179900000Y-69812500D01*
G75*
G02*
X179962500Y-69750000I62500J0D01*
G01*
X180837500Y-69750000D01*
G75*
G02*
X180900000Y-69812500I0J-62500D01*
G01*
X180900000Y-69937500D01*
G75*
G02*
X180837500Y-70000000I-62500J0D01*
G01*
G37*
%TD.AperFunction*%
%TO.P,U1,5*%
%TA.AperFunction,SMDPad,CuDef*%
G36*
G01*
X179437500Y-71400000D02*
X179312500Y-71400000D01*
G75*
G02*
X179250000Y-71337500I0J62500D01*
G01*
X179250000Y-70462500D01*
G75*
G02*
X179312500Y-70400000I62500J0D01*
G01*
X179437500Y-70400000D01*
G75*
G02*
X179500000Y-70462500I0J-62500D01*
G01*
X179500000Y-71337500D01*
G75*
G02*
X179437500Y-71400000I-62500J0D01*
G01*
G37*
%TD.AperFunction*%
%TO.P,U1,4*%
%TA.AperFunction,SMDPad,CuDef*%
G36*
G01*
X178937500Y-71400000D02*
X178812500Y-71400000D01*
G75*
G02*
X178750000Y-71337500I0J62500D01*
G01*
X178750000Y-70462500D01*
G75*
G02*
X178812500Y-70400000I62500J0D01*
G01*
X178937500Y-70400000D01*
G75*
G02*
X179000000Y-70462500I0J-62500D01*
G01*
X179000000Y-71337500D01*
G75*
G02*
X178937500Y-71400000I-62500J0D01*
G01*
G37*
%TD.AperFunction*%
%TO.P,U1,3*%
%TA.AperFunction,SMDPad,CuDef*%
G36*
G01*
X178437500Y-71400000D02*
X178312500Y-71400000D01*
G75*
G02*
X178250000Y-71337500I0J62500D01*
G01*
X178250000Y-70462500D01*
G75*
G02*
X178312500Y-70400000I62500J0D01*
G01*
X178437500Y-70400000D01*
G75*
G02*
X178500000Y-70462500I0J-62500D01*
G01*
X178500000Y-71337500D01*
G75*
G02*
X178437500Y-71400000I-62500J0D01*
G01*
G37*
%TD.AperFunction*%
%TO.P,U1,2*%
%TA.AperFunction,SMDPad,CuDef*%
G36*
G01*
X177937500Y-71400000D02*
X177812500Y-71400000D01*
G75*
G02*
X177750000Y-71337500I0J62500D01*
G01*
X177750000Y-70462500D01*
G75*
G02*
X177812500Y-70400000I62500J0D01*
G01*
X177937500Y-70400000D01*
G75*
G02*
X178000000Y-70462500I0J-62500D01*
G01*
X178000000Y-71337500D01*
G75*
G02*
X177937500Y-71400000I-62500J0D01*
G01*
G37*
%TD.AperFunction*%
%TO.P,U1,1*%
%TO.N,TXD*%
%TA.AperFunction,SMDPad,CuDef*%
G36*
G01*
X177437500Y-71400000D02*
X177312500Y-71400000D01*
G75*
G02*
X177250000Y-71337500I0J62500D01*
G01*
X177250000Y-70462500D01*
G75*
G02*
X177312500Y-70400000I62500J0D01*
G01*
X177437500Y-70400000D01*
G75*
G02*
X177500000Y-70462500I0J-62500D01*
G01*
X177500000Y-71337500D01*
G75*
G02*
X177437500Y-71400000I-62500J0D01*
G01*
G37*
%TD.AperFunction*%
%TD*%
%TO.P,C1,2*%
%TO.N,GND*%
%TA.AperFunction,SMDPad,CuDef*%
G36*
G01*
X183650001Y-60537500D02*
X182349999Y-60537500D01*
G75*
G02*
X182100000Y-60287501I0J249999D01*
G01*
X182100000Y-59462499D01*
G75*
G02*
X182349999Y-59212500I249999J0D01*
G01*
X183650001Y-59212500D01*
G75*
G02*
X183900000Y-59462499I0J-249999D01*
G01*
X183900000Y-60287501D01*
G75*
G02*
X183650001Y-60537500I-249999J0D01*
G01*
G37*
%TD.AperFunction*%
%TO.P,C1,1*%
%TO.N,Net-(C1-Pad1)*%
%TA.AperFunction,SMDPad,CuDef*%
G36*
G01*
X183650001Y-63662500D02*
X182349999Y-63662500D01*
G75*
G02*
X182100000Y-63412501I0J249999D01*
G01*
X182100000Y-62587499D01*
G75*
G02*
X182349999Y-62337500I249999J0D01*
G01*
X183650001Y-62337500D01*
G75*
G02*
X183900000Y-62587499I0J-249999D01*
G01*
X183900000Y-63412501D01*
G75*
G02*
X183650001Y-63662500I-249999J0D01*
G01*
G37*
%TD.AperFunction*%
%TD*%
D11*
%TO.P,J2,6*%
%TO.N,TXD*%
X174150000Y-60630000D03*
%TO.P,J2,5*%
%TO.N,RXD*%
X175420000Y-60630000D03*
%TO.P,J2,4*%
%TO.N,+3V3*%
X176690000Y-60630000D03*
%TO.P,J2,3*%
%TO.N,RST*%
X177960000Y-60630000D03*
%TO.P,J2,2*%
%TO.N,GPIO0*%
X179230000Y-60630000D03*
D12*
%TO.P,J2,1*%
%TO.N,GND*%
X180500000Y-60630000D03*
%TD*%
D23*
%TO.P,J1,5*%
%TO.N,TXD*%
X183000000Y-76840000D03*
%TO.P,J1,4*%
%TO.N,RXD*%
X183000000Y-79380000D03*
%TO.P,J1,3*%
%TO.N,Net-(J1-Pad3)*%
X183000000Y-81920000D03*
%TO.P,J1,2*%
%TO.N,GPIO0*%
X183000000Y-84460000D03*
D24*
%TO.P,J1,1*%
%TO.N,GND*%
X183000000Y-87000000D03*
%TD*%
%TO.P,R5,2*%
%TO.N,D+*%
%TA.AperFunction,SMDPad,CuDef*%
G36*
G01*
X183625000Y-70550000D02*
X182375000Y-70550000D01*
G75*
G02*
X182125000Y-70300000I0J250000D01*
G01*
X182125000Y-69500000D01*
G75*
G02*
X182375000Y-69250000I250000J0D01*
G01*
X183625000Y-69250000D01*
G75*
G02*
X183875000Y-69500000I0J-250000D01*
G01*
X183875000Y-70300000D01*
G75*
G02*
X183625000Y-70550000I-250000J0D01*
G01*
G37*
%TD.AperFunction*%
%TO.P,R5,1*%
%TO.N,Net-(J4-PadA6)*%
%TA.AperFunction,SMDPad,CuDef*%
G36*
G01*
X183625000Y-73650000D02*
X182375000Y-73650000D01*
G75*
G02*
X182125000Y-73400000I0J250000D01*
G01*
X182125000Y-72600000D01*
G75*
G02*
X182375000Y-72350000I250000J0D01*
G01*
X183625000Y-72350000D01*
G75*
G02*
X183875000Y-72600000I0J-250000D01*
G01*
X183875000Y-73400000D01*
G75*
G02*
X183625000Y-73650000I-250000J0D01*
G01*
G37*
%TD.AperFunction*%
%TD*%
%TO.P,R4,2*%
%TO.N,D-*%
%TA.AperFunction,SMDPad,CuDef*%
G36*
G01*
X182375000Y-67350000D02*
X183625000Y-67350000D01*
G75*
G02*
X183875000Y-67600000I0J-250000D01*
G01*
X183875000Y-68400000D01*
G75*
G02*
X183625000Y-68650000I-250000J0D01*
G01*
X182375000Y-68650000D01*
G75*
G02*
X182125000Y-68400000I0J250000D01*
G01*
X182125000Y-67600000D01*
G75*
G02*
X182375000Y-67350000I250000J0D01*
G01*
G37*
%TD.AperFunction*%
%TO.P,R4,1*%
%TO.N,Net-(J4-PadA7)*%
%TA.AperFunction,SMDPad,CuDef*%
G36*
G01*
X182375000Y-64250000D02*
X183625000Y-64250000D01*
G75*
G02*
X183875000Y-64500000I0J-250000D01*
G01*
X183875000Y-65300000D01*
G75*
G02*
X183625000Y-65550000I-250000J0D01*
G01*
X182375000Y-65550000D01*
G75*
G02*
X182125000Y-65300000I0J250000D01*
G01*
X182125000Y-64500000D01*
G75*
G02*
X182375000Y-64250000I250000J0D01*
G01*
G37*
%TD.AperFunction*%
%TD*%
D25*
%TO.N,VBUS*%
X171100020Y-70925010D03*
X171900000Y-65900000D03*
X179146007Y-65262947D03*
%TO.N,RXD*%
X176067344Y-64498904D03*
X175430086Y-67300000D03*
%TO.N,+3V3*%
X181494239Y-70647025D03*
X180062073Y-75312053D03*
%TO.N,GPIO0*%
X174705084Y-68500000D03*
%TO.N,TXD*%
X172530062Y-67468262D03*
%TO.N,RST*%
X179671741Y-72726163D03*
X173980074Y-67588245D03*
%TO.N,Net-(C1-Pad1)*%
X181060920Y-66339569D03*
X173800023Y-65869664D03*
%TO.N,Net-(J4-PadA7)*%
X176400309Y-80213274D03*
X174632705Y-79942617D03*
%TO.N,Net-(J4-PadA6)*%
X177273018Y-79725010D03*
X175749943Y-79150010D03*
%TO.N,Net-(J4-PadA5)*%
X174500009Y-80969998D03*
%TO.N,Net-(J4-PadB5)*%
X179451041Y-80969998D03*
%TO.N,Net-(D1-Pad1)*%
X172368220Y-64449988D03*
X177355182Y-64812945D03*
%TD*%
D26*
%TO.N,GND*%
X181255000Y-59875000D02*
X180500000Y-60630000D01*
X183000000Y-59875000D02*
X181255000Y-59875000D01*
X172210000Y-82730000D02*
X172800000Y-82140000D01*
X171675000Y-82730000D02*
X172210000Y-82730000D01*
X172155000Y-83210000D02*
X171675000Y-82730000D01*
X173110000Y-83210000D02*
X172155000Y-83210000D01*
X179845000Y-83210000D02*
X180325000Y-82730000D01*
X178890000Y-83210000D02*
X179845000Y-83210000D01*
X176800000Y-86255000D02*
X176000000Y-86255000D01*
X180325000Y-82730000D02*
X176800000Y-86255000D01*
X179735000Y-82140000D02*
X180325000Y-82730000D01*
X179200000Y-82140000D02*
X179735000Y-82140000D01*
X175345000Y-86910000D02*
X176000000Y-86255000D01*
X171675000Y-86910000D02*
X175345000Y-86910000D01*
X176655000Y-86910000D02*
X176000000Y-86255000D01*
X180325000Y-86910000D02*
X176655000Y-86910000D01*
X175200000Y-86255000D02*
X176000000Y-86255000D01*
X171675000Y-82730000D02*
X175200000Y-86255000D01*
X179375000Y-70900000D02*
X179375000Y-69875000D01*
X178875000Y-69375000D02*
X178375000Y-68875000D01*
X178875000Y-70900000D02*
X178875000Y-69375000D01*
X178375000Y-70900000D02*
X178375000Y-68875000D01*
X177875000Y-69375000D02*
X178375000Y-68875000D01*
X177875000Y-70900000D02*
X177875000Y-69375000D01*
X178375000Y-66850000D02*
X178375000Y-68875000D01*
X179375000Y-69875000D02*
X178375000Y-68875000D01*
X180400000Y-69875000D02*
X179375000Y-69875000D01*
D27*
X182910000Y-86910000D02*
X183000000Y-87000000D01*
X180325000Y-86910000D02*
X182910000Y-86910000D01*
X172800000Y-79970000D02*
X172800000Y-82140000D01*
X181600000Y-79200000D02*
X180500000Y-79200000D01*
X181600000Y-79200000D02*
X181600000Y-81100000D01*
X179375000Y-70900000D02*
X179375000Y-71775000D01*
X182384698Y-75539999D02*
X181600000Y-76324697D01*
X183639999Y-75539999D02*
X182384698Y-75539999D01*
X181600000Y-76324697D02*
X181600000Y-79200000D01*
X184300001Y-76200001D02*
X183639999Y-75539999D01*
X184300001Y-86499999D02*
X184300001Y-76200001D01*
X183000000Y-87000000D02*
X183800000Y-87000000D01*
X183800000Y-87000000D02*
X184300001Y-86499999D01*
X179375000Y-71775000D02*
X178725000Y-71775000D01*
X178725000Y-71775000D02*
X177700000Y-72800000D01*
X180500000Y-62500000D02*
X180500000Y-63600000D01*
X180500000Y-63600000D02*
X179900000Y-64200000D01*
X179006216Y-64200000D02*
X178300000Y-64906216D01*
X179900000Y-64200000D02*
X179006216Y-64200000D01*
D26*
X178375000Y-64981216D02*
X178300000Y-64906216D01*
X178375000Y-66850000D02*
X178375000Y-64981216D01*
D27*
X173600000Y-71800000D02*
X171100000Y-69300000D01*
X180800000Y-73331038D02*
X177806028Y-76325010D01*
X171100000Y-69300000D02*
X171100000Y-68100000D01*
X174160044Y-76325010D02*
X173600000Y-75764966D01*
X173600000Y-75764966D02*
X173600000Y-71800000D01*
X179375000Y-71775000D02*
X180475000Y-71775000D01*
X177806028Y-76325010D02*
X174160044Y-76325010D01*
X180475000Y-71775000D02*
X180800000Y-72100000D01*
X180800000Y-72100000D02*
X180800000Y-73331038D01*
D26*
%TO.N,VBUS*%
X173600000Y-82795002D02*
X173904998Y-83100000D01*
X173600000Y-82140000D02*
X173600000Y-82795002D01*
X178400000Y-82795002D02*
X178400000Y-82140000D01*
X178095002Y-83100000D02*
X178400000Y-82795002D01*
X173904998Y-83100000D02*
X178095002Y-83100000D01*
X171100020Y-70925010D02*
X170524989Y-70349979D01*
X173725001Y-80630001D02*
X173600000Y-80755002D01*
X173907704Y-79742298D02*
X173725001Y-79925001D01*
X173907704Y-79594616D02*
X173907704Y-79742298D01*
X174200000Y-79302320D02*
X173907704Y-79594616D01*
X173725001Y-79925001D02*
X173725001Y-80630001D01*
X174200000Y-78415002D02*
X174200000Y-79302320D01*
X173600000Y-80755002D02*
X173600000Y-82140000D01*
X170500000Y-76715002D02*
X171942499Y-78157501D01*
X173942499Y-78157501D02*
X174200000Y-78415002D01*
X171942499Y-78157501D02*
X173942499Y-78157501D01*
X170500000Y-71525030D02*
X170500000Y-76715002D01*
X171100020Y-70925010D02*
X170500000Y-71525030D01*
X170524989Y-67575011D02*
X170524989Y-67275011D01*
X170524989Y-70349979D02*
X170524989Y-67575011D01*
X170524989Y-67275011D02*
X171900000Y-65900000D01*
X178875000Y-66850000D02*
X178875000Y-65533954D01*
X178875000Y-65533954D02*
X179146007Y-65262947D01*
%TO.N,RXD*%
X175430086Y-65136162D02*
X175430086Y-67300000D01*
X175430086Y-68095771D02*
X175430086Y-67300000D01*
X176350000Y-68375000D02*
X175709315Y-68375000D01*
X175709315Y-68375000D02*
X175430086Y-68095771D01*
X176067344Y-64498904D02*
X175430086Y-65136162D01*
%TO.N,+3V3*%
X179700000Y-76530000D02*
X178800000Y-77430000D01*
X179700000Y-76013990D02*
X179700000Y-76530000D01*
X181494239Y-74219751D02*
X179700000Y-76013990D01*
X181494239Y-70647025D02*
X181494239Y-74219751D01*
X171750000Y-72600000D02*
X173024989Y-73874989D01*
X173024989Y-76138177D02*
X174316812Y-77430000D01*
X173024989Y-73874989D02*
X173024989Y-76138177D01*
X174316812Y-77430000D02*
X178800000Y-77430000D01*
X179700000Y-75674126D02*
X180062073Y-75312053D01*
X179700000Y-76530000D02*
X179700000Y-75674126D01*
%TO.N,GPIO0*%
X175692223Y-63775012D02*
X174975036Y-64492199D01*
X175080084Y-68875000D02*
X174705084Y-68500000D01*
X174975036Y-66404066D02*
X174705084Y-66674017D01*
X176350000Y-68875000D02*
X175080084Y-68875000D01*
X176027613Y-63749800D02*
X176002401Y-63775012D01*
X174975036Y-64492199D02*
X174975036Y-66404066D01*
X176002401Y-63775012D02*
X175692223Y-63775012D01*
X176107599Y-63775012D02*
X176082387Y-63749800D01*
X174705084Y-66674017D02*
X174705084Y-68500000D01*
X179230000Y-62500000D02*
X177954988Y-63775012D01*
X176082387Y-63749800D02*
X176027613Y-63749800D01*
X177954988Y-63775012D02*
X176107599Y-63775012D01*
%TO.N,TXD*%
X174427198Y-70300020D02*
X174049618Y-70300020D01*
X174049618Y-70300020D02*
X172530062Y-68780464D01*
X173075013Y-64947987D02*
X173075013Y-66434402D01*
X177375000Y-70900000D02*
X176675000Y-71600000D01*
X172530062Y-68780464D02*
X172530062Y-67468262D01*
X176675000Y-71600000D02*
X175727178Y-71600000D01*
X173075013Y-66434402D02*
X172530062Y-66979353D01*
X175727178Y-71600000D02*
X174427198Y-70300020D01*
X174150000Y-63873000D02*
X173075013Y-64947987D01*
X172530062Y-66979353D02*
X172530062Y-67468262D01*
X174150000Y-62500000D02*
X174150000Y-63873000D01*
%TO.N,RST*%
X176350000Y-69375000D02*
X174475000Y-69375000D01*
X174475000Y-69375000D02*
X173900000Y-68800000D01*
X173900000Y-68800000D02*
X173900000Y-66900000D01*
X177397904Y-75000000D02*
X179671741Y-72726163D01*
X174850000Y-75000000D02*
X177397904Y-75000000D01*
X174148025Y-66651975D02*
X174148025Y-66594666D01*
X173900000Y-67508171D02*
X173980074Y-67588245D01*
X173900000Y-66900000D02*
X174148025Y-66651975D01*
X175841213Y-63299789D02*
X176268787Y-63299789D01*
X174148025Y-66594666D02*
X174525025Y-66217666D01*
X174525025Y-64223476D02*
X175423500Y-63325001D01*
X176293999Y-63325001D02*
X177134999Y-63325001D01*
X175816001Y-63325001D02*
X175841213Y-63299789D01*
X174525025Y-66217666D02*
X174525025Y-64223476D01*
X176268787Y-63299789D02*
X176293999Y-63325001D01*
X173900000Y-66900000D02*
X173900000Y-67508171D01*
X177134999Y-63325001D02*
X177960000Y-62500000D01*
X175423500Y-63325001D02*
X175816001Y-63325001D01*
%TO.N,D-*%
X182625000Y-68375000D02*
X183000000Y-68000000D01*
X180400000Y-68375000D02*
X182625000Y-68375000D01*
%TO.N,D+*%
X181975000Y-68875000D02*
X183000000Y-69900000D01*
X180400000Y-68875000D02*
X181975000Y-68875000D01*
%TO.N,Net-(C1-Pad1)*%
X179375000Y-66850000D02*
X180400000Y-67875000D01*
X181060920Y-67214080D02*
X181060920Y-66339569D01*
X181060920Y-64939080D02*
X181060920Y-66339569D01*
X183000000Y-63000000D02*
X181060920Y-64939080D01*
X180400000Y-67875000D02*
X181060920Y-67214080D01*
X173525024Y-66620802D02*
X173525024Y-66144663D01*
X173255064Y-66890762D02*
X173525024Y-66620802D01*
X174236019Y-69850009D02*
X173255064Y-68869054D01*
X173525024Y-66144663D02*
X173800023Y-65869664D01*
X176350000Y-69875000D02*
X176325009Y-69850009D01*
X176325009Y-69850009D02*
X174236019Y-69850009D01*
X173255064Y-68869054D02*
X173255064Y-66890762D01*
%TO.N,Net-(J4-PadA7)*%
X176250000Y-82140000D02*
X176250000Y-80363583D01*
X176250000Y-80363583D02*
X176400309Y-80213274D01*
X182146520Y-74964988D02*
X183136010Y-74964988D01*
X184600000Y-73500998D02*
X184600000Y-66500000D01*
X179536410Y-79000000D02*
X180924989Y-77611421D01*
X177000000Y-79000000D02*
X179536410Y-79000000D01*
X184600000Y-66500000D02*
X183000000Y-64900000D01*
X180924989Y-76186519D02*
X182146520Y-74964988D01*
X180924989Y-77611421D02*
X180924989Y-76186519D01*
X183136010Y-74964988D02*
X184600000Y-73500998D01*
X175250000Y-82140000D02*
X175225296Y-82115296D01*
X175225296Y-80535208D02*
X174632705Y-79942617D01*
X175225296Y-82115296D02*
X175225296Y-80535208D01*
X176875061Y-79000000D02*
X176400309Y-79474752D01*
X176400309Y-79474752D02*
X176400309Y-80213274D01*
X177900000Y-79000000D02*
X176875061Y-79000000D01*
%TO.N,Net-(J4-PadA6)*%
X176750000Y-81320000D02*
X177273018Y-80796982D01*
X177273018Y-80796982D02*
X177273018Y-79725010D01*
X176750000Y-82140000D02*
X176750000Y-81320000D01*
X183000000Y-73475098D02*
X180474978Y-76000120D01*
X183000000Y-73000000D02*
X183000000Y-73475098D01*
X175675307Y-81245307D02*
X175675307Y-79224646D01*
X175750000Y-82140000D02*
X175750000Y-81320000D01*
X175750000Y-81320000D02*
X175675307Y-81245307D01*
X176499953Y-78400000D02*
X175749943Y-79150010D01*
X180474978Y-76000120D02*
X180474978Y-77425021D01*
X179499999Y-78400000D02*
X176499953Y-78400000D01*
X180474978Y-77425021D02*
X179499999Y-78400000D01*
X175675307Y-79224646D02*
X175749943Y-79150010D01*
%TO.N,Net-(J4-PadA5)*%
X174750000Y-82140000D02*
X174750000Y-81219989D01*
X174750000Y-81219989D02*
X174500009Y-80969998D01*
%TO.N,Net-(J4-PadB5)*%
X178100002Y-80969998D02*
X179451041Y-80969998D01*
X177750000Y-81320000D02*
X178100002Y-80969998D01*
X177750000Y-82140000D02*
X177750000Y-81320000D01*
%TO.N,Net-(D1-Pad2)*%
X172248002Y-65174998D02*
X172625002Y-65551998D01*
X171500000Y-62462500D02*
X171500000Y-64626996D01*
X172625002Y-65551998D02*
X172625002Y-66248002D01*
X172625002Y-66248002D02*
X171775011Y-67097993D01*
X171775011Y-68661823D02*
X174850000Y-71736812D01*
X172048002Y-65174998D02*
X172248002Y-65174998D01*
X171500000Y-64626996D02*
X172048002Y-65174998D01*
X174850000Y-71736812D02*
X174850000Y-72600000D01*
X171775011Y-67097993D02*
X171775011Y-68661823D01*
%TO.N,Net-(D1-Pad1)*%
X172848954Y-61236454D02*
X172848954Y-63969254D01*
X171500000Y-60537500D02*
X172150000Y-60537500D01*
X172150000Y-60537500D02*
X172848954Y-61236454D01*
X172848954Y-63969254D02*
X172368220Y-64449988D01*
X177375000Y-66850000D02*
X177375000Y-64832763D01*
X177375000Y-64832763D02*
X177355182Y-64812945D01*
%TO.N,Net-(J1-Pad3)*%
X181606812Y-81920000D02*
X183000000Y-81920000D01*
X178800000Y-79970000D02*
X179656812Y-79970000D01*
X179656812Y-79970000D02*
X181606812Y-81920000D01*
%TO.N,Net-(R6-Pad1)*%
X171750000Y-76380000D02*
X172800000Y-77430000D01*
X171750000Y-75000000D02*
X171750000Y-76380000D01*
%TD*%
D28*
%TO.N,GND*%
X183127000Y-86873000D02*
X183147000Y-86873000D01*
X183147000Y-87127000D01*
X183127000Y-87127000D01*
X183127000Y-87147000D01*
X182873000Y-87147000D01*
X182873000Y-87127000D01*
X182853000Y-87127000D01*
X182853000Y-86873000D01*
X182873000Y-86873000D01*
X182873000Y-86853000D01*
X183127000Y-86853000D01*
X183127000Y-86873000D01*
%TA.AperFunction,Conductor*%
D29*
G36*
X183127000Y-86873000D02*
G01*
X183147000Y-86873000D01*
X183147000Y-87127000D01*
X183127000Y-87127000D01*
X183127000Y-87147000D01*
X182873000Y-87147000D01*
X182873000Y-87127000D01*
X182853000Y-87127000D01*
X182853000Y-86873000D01*
X182873000Y-86873000D01*
X182873000Y-86853000D01*
X183127000Y-86853000D01*
X183127000Y-86873000D01*
G37*
%TD.AperFunction*%
D28*
X180518748Y-82715858D02*
X180504605Y-82730000D01*
X181460413Y-83685808D01*
X181724814Y-83590044D01*
X181865704Y-83300429D01*
X181947384Y-82988892D01*
X181948598Y-82968705D01*
X182053368Y-83073475D01*
X182227760Y-83190000D01*
X182053368Y-83306525D01*
X181846525Y-83513368D01*
X181684010Y-83756589D01*
X181572068Y-84026842D01*
X181515000Y-84313740D01*
X181515000Y-84606260D01*
X181572068Y-84893158D01*
X181684010Y-85163411D01*
X181846525Y-85406632D01*
X181978380Y-85538487D01*
X181905820Y-85560498D01*
X181795506Y-85619463D01*
X181698815Y-85698815D01*
X181619463Y-85795506D01*
X181560498Y-85905820D01*
X181524188Y-86025518D01*
X181515691Y-86111794D01*
X181353397Y-86061208D01*
X180805086Y-86609519D01*
X180805000Y-86540750D01*
X180659823Y-86395573D01*
X181173792Y-85881603D01*
X181096157Y-85632528D01*
X180832117Y-85506629D01*
X180805586Y-85499895D01*
X180807094Y-84293269D01*
X181011088Y-84222795D01*
X181185044Y-84129814D01*
X181280808Y-83865413D01*
X180793591Y-83378196D01*
X180759502Y-83265820D01*
X180700537Y-83155506D01*
X180621185Y-83058815D01*
X180524494Y-82979463D01*
X180414180Y-82920498D01*
X180294482Y-82884188D01*
X180268765Y-82881655D01*
X180134399Y-82747289D01*
X180135087Y-82740308D01*
X180145395Y-82730000D01*
X180136935Y-82721540D01*
X180138072Y-82710000D01*
X180138062Y-82709048D01*
X180310858Y-82536253D01*
X180325000Y-82550395D01*
X180339143Y-82536253D01*
X180518748Y-82715858D01*
%TA.AperFunction,Conductor*%
D29*
G36*
X180518748Y-82715858D02*
G01*
X180504605Y-82730000D01*
X181460413Y-83685808D01*
X181724814Y-83590044D01*
X181865704Y-83300429D01*
X181947384Y-82988892D01*
X181948598Y-82968705D01*
X182053368Y-83073475D01*
X182227760Y-83190000D01*
X182053368Y-83306525D01*
X181846525Y-83513368D01*
X181684010Y-83756589D01*
X181572068Y-84026842D01*
X181515000Y-84313740D01*
X181515000Y-84606260D01*
X181572068Y-84893158D01*
X181684010Y-85163411D01*
X181846525Y-85406632D01*
X181978380Y-85538487D01*
X181905820Y-85560498D01*
X181795506Y-85619463D01*
X181698815Y-85698815D01*
X181619463Y-85795506D01*
X181560498Y-85905820D01*
X181524188Y-86025518D01*
X181515691Y-86111794D01*
X181353397Y-86061208D01*
X180805086Y-86609519D01*
X180805000Y-86540750D01*
X180659823Y-86395573D01*
X181173792Y-85881603D01*
X181096157Y-85632528D01*
X180832117Y-85506629D01*
X180805586Y-85499895D01*
X180807094Y-84293269D01*
X181011088Y-84222795D01*
X181185044Y-84129814D01*
X181280808Y-83865413D01*
X180793591Y-83378196D01*
X180759502Y-83265820D01*
X180700537Y-83155506D01*
X180621185Y-83058815D01*
X180524494Y-82979463D01*
X180414180Y-82920498D01*
X180294482Y-82884188D01*
X180268765Y-82881655D01*
X180134399Y-82747289D01*
X180135087Y-82740308D01*
X180145395Y-82730000D01*
X180136935Y-82721540D01*
X180138072Y-82710000D01*
X180138062Y-82709048D01*
X180310858Y-82536253D01*
X180325000Y-82550395D01*
X180339143Y-82536253D01*
X180518748Y-82715858D01*
G37*
%TD.AperFunction*%
D28*
X176127000Y-86128000D02*
X179082315Y-86128000D01*
X179047528Y-86138843D01*
X178931586Y-86382000D01*
X176127000Y-86382000D01*
X176127000Y-86402000D01*
X175873000Y-86402000D01*
X175873000Y-86382000D01*
X173063381Y-86382000D01*
X173025919Y-86276253D01*
X172952472Y-86138843D01*
X172917685Y-86128000D01*
X175873000Y-86128000D01*
X175873000Y-86108000D01*
X176127000Y-86108000D01*
X176127000Y-86128000D01*
%TA.AperFunction,Conductor*%
D29*
G36*
X176127000Y-86128000D02*
G01*
X179082315Y-86128000D01*
X179047528Y-86138843D01*
X178931586Y-86382000D01*
X176127000Y-86382000D01*
X176127000Y-86402000D01*
X175873000Y-86402000D01*
X175873000Y-86382000D01*
X173063381Y-86382000D01*
X173025919Y-86276253D01*
X172952472Y-86138843D01*
X172917685Y-86128000D01*
X175873000Y-86128000D01*
X175873000Y-86108000D01*
X176127000Y-86108000D01*
X176127000Y-86128000D01*
G37*
%TD.AperFunction*%
D28*
X171861938Y-82709048D02*
X171861928Y-82710000D01*
X171863065Y-82721540D01*
X171854605Y-82730000D01*
X171864913Y-82740308D01*
X171865601Y-82747289D01*
X171731235Y-82881655D01*
X171705518Y-82884188D01*
X171640900Y-82903790D01*
X171481253Y-82744143D01*
X171495395Y-82730000D01*
X171481253Y-82715858D01*
X171660858Y-82536253D01*
X171675000Y-82550395D01*
X171689143Y-82536253D01*
X171861938Y-82709048D01*
%TA.AperFunction,Conductor*%
D29*
G36*
X171861938Y-82709048D02*
G01*
X171861928Y-82710000D01*
X171863065Y-82721540D01*
X171854605Y-82730000D01*
X171864913Y-82740308D01*
X171865601Y-82747289D01*
X171731235Y-82881655D01*
X171705518Y-82884188D01*
X171640900Y-82903790D01*
X171481253Y-82744143D01*
X171495395Y-82730000D01*
X171481253Y-82715858D01*
X171660858Y-82536253D01*
X171675000Y-82550395D01*
X171689143Y-82536253D01*
X171861938Y-82709048D01*
G37*
%TD.AperFunction*%
D28*
X171378699Y-78668503D02*
X171402498Y-78697502D01*
X171518223Y-78792475D01*
X171650252Y-78863047D01*
X171793513Y-78906504D01*
X171905166Y-78917501D01*
X171905174Y-78917501D01*
X171942499Y-78921177D01*
X171979824Y-78917501D01*
X173440000Y-78917501D01*
X173440000Y-78935868D01*
X173400000Y-78931928D01*
X173085750Y-78935000D01*
X172927000Y-79093750D01*
X172927000Y-79843000D01*
X172947000Y-79843000D01*
X172947000Y-80097000D01*
X172927000Y-80097000D01*
X172927000Y-80401868D01*
X172894454Y-80462756D01*
X172850997Y-80606017D01*
X172840000Y-80717670D01*
X172840000Y-80717680D01*
X172836324Y-80755002D01*
X172840000Y-80792325D01*
X172840000Y-81129556D01*
X172769463Y-81215506D01*
X172710498Y-81325820D01*
X172674188Y-81445518D01*
X172673000Y-81457580D01*
X172673000Y-81093750D01*
X172549250Y-80970000D01*
X172673000Y-80846250D01*
X172673000Y-80097000D01*
X171723750Y-80097000D01*
X171565000Y-80255750D01*
X171561928Y-80370000D01*
X171574188Y-80494482D01*
X171610498Y-80614180D01*
X171669463Y-80724494D01*
X171748815Y-80821185D01*
X171845506Y-80900537D01*
X171955820Y-80959502D01*
X172075518Y-80995812D01*
X172200000Y-81008072D01*
X172204312Y-81008030D01*
X172145506Y-81039463D01*
X172048815Y-81118815D01*
X172036029Y-81134395D01*
X171933892Y-81107616D01*
X171612405Y-81088282D01*
X171293325Y-81132039D01*
X170988912Y-81237205D01*
X170814956Y-81330186D01*
X170719193Y-81594585D01*
X170685000Y-81560392D01*
X170685000Y-79570000D01*
X171561928Y-79570000D01*
X171565000Y-79684250D01*
X171723750Y-79843000D01*
X172673000Y-79843000D01*
X172673000Y-79093750D01*
X172514250Y-78935000D01*
X172200000Y-78931928D01*
X172075518Y-78944188D01*
X171955820Y-78980498D01*
X171845506Y-79039463D01*
X171748815Y-79118815D01*
X171669463Y-79215506D01*
X171610498Y-79325820D01*
X171574188Y-79445518D01*
X171561928Y-79570000D01*
X170685000Y-79570000D01*
X170685000Y-77974804D01*
X171378699Y-78668503D01*
%TA.AperFunction,Conductor*%
D29*
G36*
X171378699Y-78668503D02*
G01*
X171402498Y-78697502D01*
X171518223Y-78792475D01*
X171650252Y-78863047D01*
X171793513Y-78906504D01*
X171905166Y-78917501D01*
X171905174Y-78917501D01*
X171942499Y-78921177D01*
X171979824Y-78917501D01*
X173440000Y-78917501D01*
X173440000Y-78935868D01*
X173400000Y-78931928D01*
X173085750Y-78935000D01*
X172927000Y-79093750D01*
X172927000Y-79843000D01*
X172947000Y-79843000D01*
X172947000Y-80097000D01*
X172927000Y-80097000D01*
X172927000Y-80401868D01*
X172894454Y-80462756D01*
X172850997Y-80606017D01*
X172840000Y-80717670D01*
X172840000Y-80717680D01*
X172836324Y-80755002D01*
X172840000Y-80792325D01*
X172840000Y-81129556D01*
X172769463Y-81215506D01*
X172710498Y-81325820D01*
X172674188Y-81445518D01*
X172673000Y-81457580D01*
X172673000Y-81093750D01*
X172549250Y-80970000D01*
X172673000Y-80846250D01*
X172673000Y-80097000D01*
X171723750Y-80097000D01*
X171565000Y-80255750D01*
X171561928Y-80370000D01*
X171574188Y-80494482D01*
X171610498Y-80614180D01*
X171669463Y-80724494D01*
X171748815Y-80821185D01*
X171845506Y-80900537D01*
X171955820Y-80959502D01*
X172075518Y-80995812D01*
X172200000Y-81008072D01*
X172204312Y-81008030D01*
X172145506Y-81039463D01*
X172048815Y-81118815D01*
X172036029Y-81134395D01*
X171933892Y-81107616D01*
X171612405Y-81088282D01*
X171293325Y-81132039D01*
X170988912Y-81237205D01*
X170814956Y-81330186D01*
X170719193Y-81594585D01*
X170685000Y-81560392D01*
X170685000Y-79570000D01*
X171561928Y-79570000D01*
X171565000Y-79684250D01*
X171723750Y-79843000D01*
X172673000Y-79843000D01*
X172673000Y-79093750D01*
X172514250Y-78935000D01*
X172200000Y-78931928D01*
X172075518Y-78944188D01*
X171955820Y-78980498D01*
X171845506Y-79039463D01*
X171748815Y-79118815D01*
X171669463Y-79215506D01*
X171610498Y-79325820D01*
X171574188Y-79445518D01*
X171561928Y-79570000D01*
X170685000Y-79570000D01*
X170685000Y-77974804D01*
X171378699Y-78668503D01*
G37*
%TD.AperFunction*%
D28*
X181846525Y-77786632D02*
X182053368Y-77993475D01*
X182227760Y-78110000D01*
X182053368Y-78226525D01*
X181846525Y-78433368D01*
X181684010Y-78676589D01*
X181572068Y-78946842D01*
X181515000Y-79233740D01*
X181515000Y-79526260D01*
X181572068Y-79813158D01*
X181684010Y-80083411D01*
X181846525Y-80326632D01*
X182053368Y-80533475D01*
X182227760Y-80650000D01*
X182053368Y-80766525D01*
X181846525Y-80973368D01*
X181801847Y-81040233D01*
X180220616Y-79459002D01*
X180196813Y-79429999D01*
X180188244Y-79422967D01*
X181435993Y-78175219D01*
X181464990Y-78151422D01*
X181559963Y-78035697D01*
X181630535Y-77903668D01*
X181673992Y-77760407D01*
X181684989Y-77648754D01*
X181684989Y-77648745D01*
X181688665Y-77611422D01*
X181684989Y-77574099D01*
X181684989Y-77544876D01*
X181846525Y-77786632D01*
%TA.AperFunction,Conductor*%
D29*
G36*
X181846525Y-77786632D02*
G01*
X182053368Y-77993475D01*
X182227760Y-78110000D01*
X182053368Y-78226525D01*
X181846525Y-78433368D01*
X181684010Y-78676589D01*
X181572068Y-78946842D01*
X181515000Y-79233740D01*
X181515000Y-79526260D01*
X181572068Y-79813158D01*
X181684010Y-80083411D01*
X181846525Y-80326632D01*
X182053368Y-80533475D01*
X182227760Y-80650000D01*
X182053368Y-80766525D01*
X181846525Y-80973368D01*
X181801847Y-81040233D01*
X180220616Y-79459002D01*
X180196813Y-79429999D01*
X180188244Y-79422967D01*
X181435993Y-78175219D01*
X181464990Y-78151422D01*
X181559963Y-78035697D01*
X181630535Y-77903668D01*
X181673992Y-77760407D01*
X181684989Y-77648754D01*
X181684989Y-77648745D01*
X181688665Y-77611422D01*
X181684989Y-77574099D01*
X181684989Y-77544876D01*
X181846525Y-77786632D01*
G37*
%TD.AperFunction*%
D28*
X180734240Y-73904948D02*
X180329265Y-74309924D01*
X180164012Y-74277053D01*
X179960134Y-74277053D01*
X179760175Y-74316827D01*
X179571817Y-74394848D01*
X179402299Y-74508116D01*
X179258136Y-74652279D01*
X179144868Y-74821797D01*
X179066847Y-75010155D01*
X179027073Y-75210114D01*
X179027073Y-75320855D01*
X178994454Y-75381880D01*
X178970442Y-75461039D01*
X178950998Y-75525140D01*
X178940000Y-75636793D01*
X178940000Y-75636804D01*
X178936324Y-75674126D01*
X178940000Y-75711448D01*
X178940000Y-75976668D01*
X178936324Y-76013990D01*
X178940000Y-76051312D01*
X178940000Y-76215198D01*
X178763270Y-76391928D01*
X178200000Y-76391928D01*
X178075518Y-76404188D01*
X177955820Y-76440498D01*
X177845506Y-76499463D01*
X177748815Y-76578815D01*
X177673982Y-76670000D01*
X174631614Y-76670000D01*
X174474686Y-76513072D01*
X175250000Y-76513072D01*
X175423254Y-76496008D01*
X175589850Y-76445472D01*
X175743386Y-76363405D01*
X175877962Y-76252962D01*
X175988405Y-76118386D01*
X176070472Y-75964850D01*
X176121008Y-75798254D01*
X176124776Y-75760000D01*
X177360582Y-75760000D01*
X177397904Y-75763676D01*
X177435226Y-75760000D01*
X177435237Y-75760000D01*
X177546890Y-75749003D01*
X177690151Y-75705546D01*
X177822180Y-75634974D01*
X177937905Y-75540001D01*
X177961708Y-75510997D01*
X179711543Y-73761163D01*
X179773680Y-73761163D01*
X179973639Y-73721389D01*
X180161997Y-73643368D01*
X180331515Y-73530100D01*
X180475678Y-73385937D01*
X180588946Y-73216419D01*
X180666967Y-73028061D01*
X180706741Y-72828102D01*
X180706741Y-72624224D01*
X180666967Y-72424265D01*
X180588946Y-72235907D01*
X180475678Y-72066389D01*
X180331515Y-71922226D01*
X180161997Y-71808958D01*
X180029421Y-71754043D01*
X180037740Y-71743469D01*
X180094415Y-71631962D01*
X180106885Y-71587576D01*
X180150518Y-71600812D01*
X180275000Y-71613072D01*
X180475000Y-71613072D01*
X180599482Y-71600812D01*
X180677980Y-71577000D01*
X180734239Y-71577000D01*
X180734240Y-73904948D01*
%TA.AperFunction,Conductor*%
D29*
G36*
X180734240Y-73904948D02*
G01*
X180329265Y-74309924D01*
X180164012Y-74277053D01*
X179960134Y-74277053D01*
X179760175Y-74316827D01*
X179571817Y-74394848D01*
X179402299Y-74508116D01*
X179258136Y-74652279D01*
X179144868Y-74821797D01*
X179066847Y-75010155D01*
X179027073Y-75210114D01*
X179027073Y-75320855D01*
X178994454Y-75381880D01*
X178970442Y-75461039D01*
X178950998Y-75525140D01*
X178940000Y-75636793D01*
X178940000Y-75636804D01*
X178936324Y-75674126D01*
X178940000Y-75711448D01*
X178940000Y-75976668D01*
X178936324Y-76013990D01*
X178940000Y-76051312D01*
X178940000Y-76215198D01*
X178763270Y-76391928D01*
X178200000Y-76391928D01*
X178075518Y-76404188D01*
X177955820Y-76440498D01*
X177845506Y-76499463D01*
X177748815Y-76578815D01*
X177673982Y-76670000D01*
X174631614Y-76670000D01*
X174474686Y-76513072D01*
X175250000Y-76513072D01*
X175423254Y-76496008D01*
X175589850Y-76445472D01*
X175743386Y-76363405D01*
X175877962Y-76252962D01*
X175988405Y-76118386D01*
X176070472Y-75964850D01*
X176121008Y-75798254D01*
X176124776Y-75760000D01*
X177360582Y-75760000D01*
X177397904Y-75763676D01*
X177435226Y-75760000D01*
X177435237Y-75760000D01*
X177546890Y-75749003D01*
X177690151Y-75705546D01*
X177822180Y-75634974D01*
X177937905Y-75540001D01*
X177961708Y-75510997D01*
X179711543Y-73761163D01*
X179773680Y-73761163D01*
X179973639Y-73721389D01*
X180161997Y-73643368D01*
X180331515Y-73530100D01*
X180475678Y-73385937D01*
X180588946Y-73216419D01*
X180666967Y-73028061D01*
X180706741Y-72828102D01*
X180706741Y-72624224D01*
X180666967Y-72424265D01*
X180588946Y-72235907D01*
X180475678Y-72066389D01*
X180331515Y-71922226D01*
X180161997Y-71808958D01*
X180029421Y-71754043D01*
X180037740Y-71743469D01*
X180094415Y-71631962D01*
X180106885Y-71587576D01*
X180150518Y-71600812D01*
X180275000Y-71613072D01*
X180475000Y-71613072D01*
X180599482Y-71600812D01*
X180677980Y-71577000D01*
X180734239Y-71577000D01*
X180734240Y-73904948D01*
G37*
%TD.AperFunction*%
D28*
X184315001Y-76135108D02*
X184153475Y-75893368D01*
X183946632Y-75686525D01*
X183703411Y-75524010D01*
X183669799Y-75510087D01*
X183676011Y-75504989D01*
X183699814Y-75475985D01*
X184315001Y-74860799D01*
X184315001Y-76135108D01*
%TA.AperFunction,Conductor*%
D29*
G36*
X184315001Y-76135108D02*
G01*
X184153475Y-75893368D01*
X183946632Y-75686525D01*
X183703411Y-75524010D01*
X183669799Y-75510087D01*
X183676011Y-75504989D01*
X183699814Y-75475985D01*
X184315001Y-74860799D01*
X184315001Y-76135108D01*
G37*
%TD.AperFunction*%
D28*
X177884633Y-71923109D02*
X177969498Y-71970748D01*
X178033750Y-72035000D01*
X178125000Y-72024529D01*
X178216250Y-72035000D01*
X178280502Y-71970748D01*
X178365367Y-71923109D01*
X178375000Y-71914865D01*
X178384633Y-71923109D01*
X178469498Y-71970748D01*
X178533750Y-72035000D01*
X178625000Y-72024529D01*
X178716250Y-72035000D01*
X178780502Y-71970748D01*
X178865367Y-71923109D01*
X178875000Y-71914865D01*
X178884633Y-71923109D01*
X178965621Y-71968572D01*
X178867804Y-72066389D01*
X178754536Y-72235907D01*
X178676515Y-72424265D01*
X178636741Y-72624224D01*
X178636741Y-72686361D01*
X177083103Y-74240000D01*
X176124776Y-74240000D01*
X176121008Y-74201746D01*
X176070472Y-74035150D01*
X175988405Y-73881614D01*
X175921427Y-73800000D01*
X175988405Y-73718386D01*
X176070472Y-73564850D01*
X176121008Y-73398254D01*
X176138072Y-73225000D01*
X176138072Y-72360000D01*
X176637678Y-72360000D01*
X176675000Y-72363676D01*
X176712322Y-72360000D01*
X176712333Y-72360000D01*
X176823986Y-72349003D01*
X176967247Y-72305546D01*
X177099276Y-72234974D01*
X177215001Y-72140001D01*
X177238803Y-72110998D01*
X177311798Y-72038003D01*
X177312500Y-72038072D01*
X177437500Y-72038072D01*
X177574175Y-72024611D01*
X177596481Y-72017844D01*
X177612629Y-72023109D01*
X177716250Y-72035000D01*
X177851973Y-71899277D01*
X177854430Y-71897260D01*
X177884633Y-71923109D01*
%TA.AperFunction,Conductor*%
D29*
G36*
X177884633Y-71923109D02*
G01*
X177969498Y-71970748D01*
X178033750Y-72035000D01*
X178125000Y-72024529D01*
X178216250Y-72035000D01*
X178280502Y-71970748D01*
X178365367Y-71923109D01*
X178375000Y-71914865D01*
X178384633Y-71923109D01*
X178469498Y-71970748D01*
X178533750Y-72035000D01*
X178625000Y-72024529D01*
X178716250Y-72035000D01*
X178780502Y-71970748D01*
X178865367Y-71923109D01*
X178875000Y-71914865D01*
X178884633Y-71923109D01*
X178965621Y-71968572D01*
X178867804Y-72066389D01*
X178754536Y-72235907D01*
X178676515Y-72424265D01*
X178636741Y-72624224D01*
X178636741Y-72686361D01*
X177083103Y-74240000D01*
X176124776Y-74240000D01*
X176121008Y-74201746D01*
X176070472Y-74035150D01*
X175988405Y-73881614D01*
X175921427Y-73800000D01*
X175988405Y-73718386D01*
X176070472Y-73564850D01*
X176121008Y-73398254D01*
X176138072Y-73225000D01*
X176138072Y-72360000D01*
X176637678Y-72360000D01*
X176675000Y-72363676D01*
X176712322Y-72360000D01*
X176712333Y-72360000D01*
X176823986Y-72349003D01*
X176967247Y-72305546D01*
X177099276Y-72234974D01*
X177215001Y-72140001D01*
X177238803Y-72110998D01*
X177311798Y-72038003D01*
X177312500Y-72038072D01*
X177437500Y-72038072D01*
X177574175Y-72024611D01*
X177596481Y-72017844D01*
X177612629Y-72023109D01*
X177716250Y-72035000D01*
X177851973Y-71899277D01*
X177854430Y-71897260D01*
X177884633Y-71923109D01*
G37*
%TD.AperFunction*%
D28*
X173644857Y-71606471D02*
X173629528Y-71635150D01*
X173578992Y-71801746D01*
X173561928Y-71975000D01*
X173561928Y-73225000D01*
X173573821Y-73345748D01*
X173564990Y-73334988D01*
X173535993Y-73311191D01*
X173038072Y-72813270D01*
X173038072Y-71975000D01*
X173021008Y-71801746D01*
X172970472Y-71635150D01*
X172888405Y-71481614D01*
X172777962Y-71347038D01*
X172643386Y-71236595D01*
X172489850Y-71154528D01*
X172323254Y-71103992D01*
X172150000Y-71086928D01*
X172123090Y-71086928D01*
X172135020Y-71026949D01*
X172135020Y-70823071D01*
X172095246Y-70623112D01*
X172017225Y-70434754D01*
X171903957Y-70265236D01*
X171759794Y-70121073D01*
X171590276Y-70007805D01*
X171401918Y-69929784D01*
X171284989Y-69906526D01*
X171284989Y-69246602D01*
X173644857Y-71606471D01*
%TA.AperFunction,Conductor*%
D29*
G36*
X173644857Y-71606471D02*
G01*
X173629528Y-71635150D01*
X173578992Y-71801746D01*
X173561928Y-71975000D01*
X173561928Y-73225000D01*
X173573821Y-73345748D01*
X173564990Y-73334988D01*
X173535993Y-73311191D01*
X173038072Y-72813270D01*
X173038072Y-71975000D01*
X173021008Y-71801746D01*
X172970472Y-71635150D01*
X172888405Y-71481614D01*
X172777962Y-71347038D01*
X172643386Y-71236595D01*
X172489850Y-71154528D01*
X172323254Y-71103992D01*
X172150000Y-71086928D01*
X172123090Y-71086928D01*
X172135020Y-71026949D01*
X172135020Y-70823071D01*
X172095246Y-70623112D01*
X172017225Y-70434754D01*
X171903957Y-70265236D01*
X171759794Y-70121073D01*
X171590276Y-70007805D01*
X171401918Y-69929784D01*
X171284989Y-69906526D01*
X171284989Y-69246602D01*
X173644857Y-71606471D01*
G37*
%TD.AperFunction*%
D28*
X180627000Y-60503000D02*
X180647000Y-60503000D01*
X180647000Y-60757000D01*
X180627000Y-60757000D01*
X180627000Y-62373000D01*
X180647000Y-62373000D01*
X180647000Y-62627000D01*
X180627000Y-62627000D01*
X180627000Y-63476250D01*
X180785750Y-63635000D01*
X181000000Y-63638072D01*
X181124482Y-63625812D01*
X181244180Y-63589502D01*
X181354494Y-63530537D01*
X181451185Y-63451185D01*
X181464179Y-63435352D01*
X181466480Y-63458718D01*
X180549923Y-64375276D01*
X180520919Y-64399079D01*
X180474742Y-64455346D01*
X180425946Y-64514804D01*
X180361701Y-64634997D01*
X180355374Y-64646834D01*
X180311917Y-64790095D01*
X180300920Y-64901748D01*
X180300920Y-64901758D01*
X180297244Y-64939080D01*
X180300920Y-64976403D01*
X180300920Y-65635858D01*
X180256983Y-65679795D01*
X180143715Y-65849313D01*
X180065694Y-66037671D01*
X180055388Y-66089482D01*
X180020004Y-66023283D01*
X179943095Y-65929570D01*
X179949944Y-65922721D01*
X180063212Y-65753203D01*
X180141233Y-65564845D01*
X180181007Y-65364886D01*
X180181007Y-65161008D01*
X180141233Y-64961049D01*
X180063212Y-64772691D01*
X179949944Y-64603173D01*
X179805781Y-64459010D01*
X179636263Y-64345742D01*
X179447905Y-64267721D01*
X179247946Y-64227947D01*
X179044068Y-64227947D01*
X178844109Y-64267721D01*
X178655751Y-64345742D01*
X178486233Y-64459010D01*
X178364309Y-64580934D01*
X178350408Y-64511047D01*
X178321366Y-64440934D01*
X178379264Y-64409986D01*
X178494989Y-64315013D01*
X178518792Y-64286009D01*
X179169802Y-63635000D01*
X179341788Y-63635000D01*
X179561067Y-63591383D01*
X179672774Y-63545112D01*
X179755820Y-63589502D01*
X179875518Y-63625812D01*
X180000000Y-63638072D01*
X180214250Y-63635000D01*
X180373000Y-63476250D01*
X180373000Y-62627000D01*
X180361974Y-62627000D01*
X180365000Y-62611788D01*
X180365000Y-62388212D01*
X180361974Y-62373000D01*
X180373000Y-62373000D01*
X180373000Y-60757000D01*
X180361974Y-60757000D01*
X180365000Y-60741788D01*
X180365000Y-60518212D01*
X180361974Y-60503000D01*
X180373000Y-60503000D01*
X180373000Y-60483000D01*
X180627000Y-60483000D01*
X180627000Y-60503000D01*
%TA.AperFunction,Conductor*%
D29*
G36*
X180627000Y-60503000D02*
G01*
X180647000Y-60503000D01*
X180647000Y-60757000D01*
X180627000Y-60757000D01*
X180627000Y-62373000D01*
X180647000Y-62373000D01*
X180647000Y-62627000D01*
X180627000Y-62627000D01*
X180627000Y-63476250D01*
X180785750Y-63635000D01*
X181000000Y-63638072D01*
X181124482Y-63625812D01*
X181244180Y-63589502D01*
X181354494Y-63530537D01*
X181451185Y-63451185D01*
X181464179Y-63435352D01*
X181466480Y-63458718D01*
X180549923Y-64375276D01*
X180520919Y-64399079D01*
X180474742Y-64455346D01*
X180425946Y-64514804D01*
X180361701Y-64634997D01*
X180355374Y-64646834D01*
X180311917Y-64790095D01*
X180300920Y-64901748D01*
X180300920Y-64901758D01*
X180297244Y-64939080D01*
X180300920Y-64976403D01*
X180300920Y-65635858D01*
X180256983Y-65679795D01*
X180143715Y-65849313D01*
X180065694Y-66037671D01*
X180055388Y-66089482D01*
X180020004Y-66023283D01*
X179943095Y-65929570D01*
X179949944Y-65922721D01*
X180063212Y-65753203D01*
X180141233Y-65564845D01*
X180181007Y-65364886D01*
X180181007Y-65161008D01*
X180141233Y-64961049D01*
X180063212Y-64772691D01*
X179949944Y-64603173D01*
X179805781Y-64459010D01*
X179636263Y-64345742D01*
X179447905Y-64267721D01*
X179247946Y-64227947D01*
X179044068Y-64227947D01*
X178844109Y-64267721D01*
X178655751Y-64345742D01*
X178486233Y-64459010D01*
X178364309Y-64580934D01*
X178350408Y-64511047D01*
X178321366Y-64440934D01*
X178379264Y-64409986D01*
X178494989Y-64315013D01*
X178518792Y-64286009D01*
X179169802Y-63635000D01*
X179341788Y-63635000D01*
X179561067Y-63591383D01*
X179672774Y-63545112D01*
X179755820Y-63589502D01*
X179875518Y-63625812D01*
X180000000Y-63638072D01*
X180214250Y-63635000D01*
X180373000Y-63476250D01*
X180373000Y-62627000D01*
X180361974Y-62627000D01*
X180365000Y-62611788D01*
X180365000Y-62388212D01*
X180361974Y-62373000D01*
X180373000Y-62373000D01*
X180373000Y-60757000D01*
X180361974Y-60757000D01*
X180365000Y-60741788D01*
X180365000Y-60518212D01*
X180361974Y-60503000D01*
X180373000Y-60503000D01*
X180373000Y-60483000D01*
X180627000Y-60483000D01*
X180627000Y-60503000D01*
G37*
%TD.AperFunction*%
D28*
X183127000Y-59748000D02*
X183147000Y-59748000D01*
X183147000Y-60002000D01*
X183127000Y-60002000D01*
X183127000Y-61013750D01*
X183285750Y-61172500D01*
X183900000Y-61175572D01*
X184024482Y-61163312D01*
X184144180Y-61127002D01*
X184254494Y-61068037D01*
X184315000Y-61018381D01*
X184315000Y-62004669D01*
X184277962Y-61959538D01*
X184143387Y-61849095D01*
X183989851Y-61767028D01*
X183823255Y-61716492D01*
X183650001Y-61699428D01*
X182349999Y-61699428D01*
X182176745Y-61716492D01*
X182010149Y-61767028D01*
X181856613Y-61849095D01*
X181722038Y-61959538D01*
X181637169Y-62062951D01*
X181638072Y-62000000D01*
X181625812Y-61875518D01*
X181589502Y-61755820D01*
X181530537Y-61645506D01*
X181464468Y-61565000D01*
X181530537Y-61484494D01*
X181589502Y-61374180D01*
X181625812Y-61254482D01*
X181638072Y-61130000D01*
X181635819Y-60972849D01*
X181648815Y-60988685D01*
X181745506Y-61068037D01*
X181855820Y-61127002D01*
X181975518Y-61163312D01*
X182100000Y-61175572D01*
X182714250Y-61172500D01*
X182873000Y-61013750D01*
X182873000Y-60002000D01*
X182853000Y-60002000D01*
X182853000Y-59748000D01*
X182873000Y-59748000D01*
X182873000Y-59728000D01*
X183127000Y-59728000D01*
X183127000Y-59748000D01*
%TA.AperFunction,Conductor*%
D29*
G36*
X183127000Y-59748000D02*
G01*
X183147000Y-59748000D01*
X183147000Y-60002000D01*
X183127000Y-60002000D01*
X183127000Y-61013750D01*
X183285750Y-61172500D01*
X183900000Y-61175572D01*
X184024482Y-61163312D01*
X184144180Y-61127002D01*
X184254494Y-61068037D01*
X184315000Y-61018381D01*
X184315000Y-62004669D01*
X184277962Y-61959538D01*
X184143387Y-61849095D01*
X183989851Y-61767028D01*
X183823255Y-61716492D01*
X183650001Y-61699428D01*
X182349999Y-61699428D01*
X182176745Y-61716492D01*
X182010149Y-61767028D01*
X181856613Y-61849095D01*
X181722038Y-61959538D01*
X181637169Y-62062951D01*
X181638072Y-62000000D01*
X181625812Y-61875518D01*
X181589502Y-61755820D01*
X181530537Y-61645506D01*
X181464468Y-61565000D01*
X181530537Y-61484494D01*
X181589502Y-61374180D01*
X181625812Y-61254482D01*
X181638072Y-61130000D01*
X181635819Y-60972849D01*
X181648815Y-60988685D01*
X181745506Y-61068037D01*
X181855820Y-61127002D01*
X181975518Y-61163312D01*
X182100000Y-61175572D01*
X182714250Y-61172500D01*
X182873000Y-61013750D01*
X182873000Y-60002000D01*
X182853000Y-60002000D01*
X182853000Y-59748000D01*
X182873000Y-59748000D01*
X182873000Y-59728000D01*
X183127000Y-59728000D01*
X183127000Y-59748000D01*
G37*
%TD.AperFunction*%
%TD*%
M02*
