%TF.GenerationSoftware,KiCad,Pcbnew,(5.1.9-0-10_14)*%
%TF.CreationDate,2021-04-23T16:02:44+01:00*%
%TF.ProjectId,Shelly,5368656c-6c79-42e6-9b69-6361645f7063,rev?*%
%TF.SameCoordinates,Original*%
%TF.FileFunction,Paste,Top*%
%TF.FilePolarity,Positive*%
%FSLAX46Y46*%
G04 Gerber Fmt 4.6, Leading zero omitted, Abs format (unit mm)*
G04 Created by KiCad (PCBNEW (5.1.9-0-10_14)) date 2021-04-23 16:02:44*
%MOMM*%
%LPD*%
G01*
G04 APERTURE LIST*
%ADD10R,1.200000X0.800000*%
%ADD11R,0.600000X1.140000*%
%ADD12R,0.300000X1.140000*%
G04 APERTURE END LIST*
D10*
%TO.C,U2*%
X172800000Y-77430000D03*
X172800000Y-79970000D03*
X178800000Y-79970000D03*
X178800000Y-77430000D03*
%TD*%
%TO.C,R6*%
G36*
G01*
X174200000Y-75625000D02*
X174200000Y-74375000D01*
G75*
G02*
X174450000Y-74125000I250000J0D01*
G01*
X175250000Y-74125000D01*
G75*
G02*
X175500000Y-74375000I0J-250000D01*
G01*
X175500000Y-75625000D01*
G75*
G02*
X175250000Y-75875000I-250000J0D01*
G01*
X174450000Y-75875000D01*
G75*
G02*
X174200000Y-75625000I0J250000D01*
G01*
G37*
G36*
G01*
X171100000Y-75625000D02*
X171100000Y-74375000D01*
G75*
G02*
X171350000Y-74125000I250000J0D01*
G01*
X172150000Y-74125000D01*
G75*
G02*
X172400000Y-74375000I0J-250000D01*
G01*
X172400000Y-75625000D01*
G75*
G02*
X172150000Y-75875000I-250000J0D01*
G01*
X171350000Y-75875000D01*
G75*
G02*
X171100000Y-75625000I0J250000D01*
G01*
G37*
%TD*%
%TO.C,R3*%
G36*
G01*
X174200000Y-73225000D02*
X174200000Y-71975000D01*
G75*
G02*
X174450000Y-71725000I250000J0D01*
G01*
X175250000Y-71725000D01*
G75*
G02*
X175500000Y-71975000I0J-250000D01*
G01*
X175500000Y-73225000D01*
G75*
G02*
X175250000Y-73475000I-250000J0D01*
G01*
X174450000Y-73475000D01*
G75*
G02*
X174200000Y-73225000I0J250000D01*
G01*
G37*
G36*
G01*
X171100000Y-73225000D02*
X171100000Y-71975000D01*
G75*
G02*
X171350000Y-71725000I250000J0D01*
G01*
X172150000Y-71725000D01*
G75*
G02*
X172400000Y-71975000I0J-250000D01*
G01*
X172400000Y-73225000D01*
G75*
G02*
X172150000Y-73475000I-250000J0D01*
G01*
X171350000Y-73475000D01*
G75*
G02*
X171100000Y-73225000I0J250000D01*
G01*
G37*
%TD*%
%TO.C,D1*%
G36*
G01*
X171100000Y-61800000D02*
X171900000Y-61800000D01*
G75*
G02*
X172150000Y-62050000I0J-250000D01*
G01*
X172150000Y-62875000D01*
G75*
G02*
X171900000Y-63125000I-250000J0D01*
G01*
X171100000Y-63125000D01*
G75*
G02*
X170850000Y-62875000I0J250000D01*
G01*
X170850000Y-62050000D01*
G75*
G02*
X171100000Y-61800000I250000J0D01*
G01*
G37*
G36*
G01*
X171100000Y-59875000D02*
X171900000Y-59875000D01*
G75*
G02*
X172150000Y-60125000I0J-250000D01*
G01*
X172150000Y-60950000D01*
G75*
G02*
X171900000Y-61200000I-250000J0D01*
G01*
X171100000Y-61200000D01*
G75*
G02*
X170850000Y-60950000I0J250000D01*
G01*
X170850000Y-60125000D01*
G75*
G02*
X171100000Y-59875000I250000J0D01*
G01*
G37*
%TD*%
D11*
%TO.C,J4*%
X179200000Y-82140000D03*
X173600000Y-82140000D03*
X172800000Y-82140000D03*
X178400000Y-82140000D03*
D12*
X176250000Y-82140000D03*
X175750000Y-82140000D03*
X176750000Y-82140000D03*
X175250000Y-82140000D03*
X177250000Y-82140000D03*
X174750000Y-82140000D03*
X177750000Y-82140000D03*
X174250000Y-82140000D03*
D11*
X178400000Y-82140000D03*
X173600000Y-82140000D03*
X179200000Y-82140000D03*
X172800000Y-82140000D03*
%TD*%
%TO.C,U1*%
G36*
G01*
X179255000Y-68755000D02*
X178745000Y-68755000D01*
G75*
G02*
X178495000Y-68505000I0J250000D01*
G01*
X178495000Y-67995000D01*
G75*
G02*
X178745000Y-67745000I250000J0D01*
G01*
X179255000Y-67745000D01*
G75*
G02*
X179505000Y-67995000I0J-250000D01*
G01*
X179505000Y-68505000D01*
G75*
G02*
X179255000Y-68755000I-250000J0D01*
G01*
G37*
G36*
G01*
X178005000Y-68755000D02*
X177495000Y-68755000D01*
G75*
G02*
X177245000Y-68505000I0J250000D01*
G01*
X177245000Y-67995000D01*
G75*
G02*
X177495000Y-67745000I250000J0D01*
G01*
X178005000Y-67745000D01*
G75*
G02*
X178255000Y-67995000I0J-250000D01*
G01*
X178255000Y-68505000D01*
G75*
G02*
X178005000Y-68755000I-250000J0D01*
G01*
G37*
G36*
G01*
X179255000Y-70005000D02*
X178745000Y-70005000D01*
G75*
G02*
X178495000Y-69755000I0J250000D01*
G01*
X178495000Y-69245000D01*
G75*
G02*
X178745000Y-68995000I250000J0D01*
G01*
X179255000Y-68995000D01*
G75*
G02*
X179505000Y-69245000I0J-250000D01*
G01*
X179505000Y-69755000D01*
G75*
G02*
X179255000Y-70005000I-250000J0D01*
G01*
G37*
G36*
G01*
X178005000Y-70005000D02*
X177495000Y-70005000D01*
G75*
G02*
X177245000Y-69755000I0J250000D01*
G01*
X177245000Y-69245000D01*
G75*
G02*
X177495000Y-68995000I250000J0D01*
G01*
X178005000Y-68995000D01*
G75*
G02*
X178255000Y-69245000I0J-250000D01*
G01*
X178255000Y-69755000D01*
G75*
G02*
X178005000Y-70005000I-250000J0D01*
G01*
G37*
G36*
G01*
X176787500Y-70000000D02*
X175912500Y-70000000D01*
G75*
G02*
X175850000Y-69937500I0J62500D01*
G01*
X175850000Y-69812500D01*
G75*
G02*
X175912500Y-69750000I62500J0D01*
G01*
X176787500Y-69750000D01*
G75*
G02*
X176850000Y-69812500I0J-62500D01*
G01*
X176850000Y-69937500D01*
G75*
G02*
X176787500Y-70000000I-62500J0D01*
G01*
G37*
G36*
G01*
X176787500Y-69500000D02*
X175912500Y-69500000D01*
G75*
G02*
X175850000Y-69437500I0J62500D01*
G01*
X175850000Y-69312500D01*
G75*
G02*
X175912500Y-69250000I62500J0D01*
G01*
X176787500Y-69250000D01*
G75*
G02*
X176850000Y-69312500I0J-62500D01*
G01*
X176850000Y-69437500D01*
G75*
G02*
X176787500Y-69500000I-62500J0D01*
G01*
G37*
G36*
G01*
X176787500Y-69000000D02*
X175912500Y-69000000D01*
G75*
G02*
X175850000Y-68937500I0J62500D01*
G01*
X175850000Y-68812500D01*
G75*
G02*
X175912500Y-68750000I62500J0D01*
G01*
X176787500Y-68750000D01*
G75*
G02*
X176850000Y-68812500I0J-62500D01*
G01*
X176850000Y-68937500D01*
G75*
G02*
X176787500Y-69000000I-62500J0D01*
G01*
G37*
G36*
G01*
X176787500Y-68500000D02*
X175912500Y-68500000D01*
G75*
G02*
X175850000Y-68437500I0J62500D01*
G01*
X175850000Y-68312500D01*
G75*
G02*
X175912500Y-68250000I62500J0D01*
G01*
X176787500Y-68250000D01*
G75*
G02*
X176850000Y-68312500I0J-62500D01*
G01*
X176850000Y-68437500D01*
G75*
G02*
X176787500Y-68500000I-62500J0D01*
G01*
G37*
G36*
G01*
X176787500Y-68000000D02*
X175912500Y-68000000D01*
G75*
G02*
X175850000Y-67937500I0J62500D01*
G01*
X175850000Y-67812500D01*
G75*
G02*
X175912500Y-67750000I62500J0D01*
G01*
X176787500Y-67750000D01*
G75*
G02*
X176850000Y-67812500I0J-62500D01*
G01*
X176850000Y-67937500D01*
G75*
G02*
X176787500Y-68000000I-62500J0D01*
G01*
G37*
G36*
G01*
X177437500Y-67350000D02*
X177312500Y-67350000D01*
G75*
G02*
X177250000Y-67287500I0J62500D01*
G01*
X177250000Y-66412500D01*
G75*
G02*
X177312500Y-66350000I62500J0D01*
G01*
X177437500Y-66350000D01*
G75*
G02*
X177500000Y-66412500I0J-62500D01*
G01*
X177500000Y-67287500D01*
G75*
G02*
X177437500Y-67350000I-62500J0D01*
G01*
G37*
G36*
G01*
X177937500Y-67350000D02*
X177812500Y-67350000D01*
G75*
G02*
X177750000Y-67287500I0J62500D01*
G01*
X177750000Y-66412500D01*
G75*
G02*
X177812500Y-66350000I62500J0D01*
G01*
X177937500Y-66350000D01*
G75*
G02*
X178000000Y-66412500I0J-62500D01*
G01*
X178000000Y-67287500D01*
G75*
G02*
X177937500Y-67350000I-62500J0D01*
G01*
G37*
G36*
G01*
X178437500Y-67350000D02*
X178312500Y-67350000D01*
G75*
G02*
X178250000Y-67287500I0J62500D01*
G01*
X178250000Y-66412500D01*
G75*
G02*
X178312500Y-66350000I62500J0D01*
G01*
X178437500Y-66350000D01*
G75*
G02*
X178500000Y-66412500I0J-62500D01*
G01*
X178500000Y-67287500D01*
G75*
G02*
X178437500Y-67350000I-62500J0D01*
G01*
G37*
G36*
G01*
X178937500Y-67350000D02*
X178812500Y-67350000D01*
G75*
G02*
X178750000Y-67287500I0J62500D01*
G01*
X178750000Y-66412500D01*
G75*
G02*
X178812500Y-66350000I62500J0D01*
G01*
X178937500Y-66350000D01*
G75*
G02*
X179000000Y-66412500I0J-62500D01*
G01*
X179000000Y-67287500D01*
G75*
G02*
X178937500Y-67350000I-62500J0D01*
G01*
G37*
G36*
G01*
X179437500Y-67350000D02*
X179312500Y-67350000D01*
G75*
G02*
X179250000Y-67287500I0J62500D01*
G01*
X179250000Y-66412500D01*
G75*
G02*
X179312500Y-66350000I62500J0D01*
G01*
X179437500Y-66350000D01*
G75*
G02*
X179500000Y-66412500I0J-62500D01*
G01*
X179500000Y-67287500D01*
G75*
G02*
X179437500Y-67350000I-62500J0D01*
G01*
G37*
G36*
G01*
X180837500Y-68000000D02*
X179962500Y-68000000D01*
G75*
G02*
X179900000Y-67937500I0J62500D01*
G01*
X179900000Y-67812500D01*
G75*
G02*
X179962500Y-67750000I62500J0D01*
G01*
X180837500Y-67750000D01*
G75*
G02*
X180900000Y-67812500I0J-62500D01*
G01*
X180900000Y-67937500D01*
G75*
G02*
X180837500Y-68000000I-62500J0D01*
G01*
G37*
G36*
G01*
X180837500Y-68500000D02*
X179962500Y-68500000D01*
G75*
G02*
X179900000Y-68437500I0J62500D01*
G01*
X179900000Y-68312500D01*
G75*
G02*
X179962500Y-68250000I62500J0D01*
G01*
X180837500Y-68250000D01*
G75*
G02*
X180900000Y-68312500I0J-62500D01*
G01*
X180900000Y-68437500D01*
G75*
G02*
X180837500Y-68500000I-62500J0D01*
G01*
G37*
G36*
G01*
X180837500Y-69000000D02*
X179962500Y-69000000D01*
G75*
G02*
X179900000Y-68937500I0J62500D01*
G01*
X179900000Y-68812500D01*
G75*
G02*
X179962500Y-68750000I62500J0D01*
G01*
X180837500Y-68750000D01*
G75*
G02*
X180900000Y-68812500I0J-62500D01*
G01*
X180900000Y-68937500D01*
G75*
G02*
X180837500Y-69000000I-62500J0D01*
G01*
G37*
G36*
G01*
X180837500Y-69500000D02*
X179962500Y-69500000D01*
G75*
G02*
X179900000Y-69437500I0J62500D01*
G01*
X179900000Y-69312500D01*
G75*
G02*
X179962500Y-69250000I62500J0D01*
G01*
X180837500Y-69250000D01*
G75*
G02*
X180900000Y-69312500I0J-62500D01*
G01*
X180900000Y-69437500D01*
G75*
G02*
X180837500Y-69500000I-62500J0D01*
G01*
G37*
G36*
G01*
X180837500Y-70000000D02*
X179962500Y-70000000D01*
G75*
G02*
X179900000Y-69937500I0J62500D01*
G01*
X179900000Y-69812500D01*
G75*
G02*
X179962500Y-69750000I62500J0D01*
G01*
X180837500Y-69750000D01*
G75*
G02*
X180900000Y-69812500I0J-62500D01*
G01*
X180900000Y-69937500D01*
G75*
G02*
X180837500Y-70000000I-62500J0D01*
G01*
G37*
G36*
G01*
X179437500Y-71400000D02*
X179312500Y-71400000D01*
G75*
G02*
X179250000Y-71337500I0J62500D01*
G01*
X179250000Y-70462500D01*
G75*
G02*
X179312500Y-70400000I62500J0D01*
G01*
X179437500Y-70400000D01*
G75*
G02*
X179500000Y-70462500I0J-62500D01*
G01*
X179500000Y-71337500D01*
G75*
G02*
X179437500Y-71400000I-62500J0D01*
G01*
G37*
G36*
G01*
X178937500Y-71400000D02*
X178812500Y-71400000D01*
G75*
G02*
X178750000Y-71337500I0J62500D01*
G01*
X178750000Y-70462500D01*
G75*
G02*
X178812500Y-70400000I62500J0D01*
G01*
X178937500Y-70400000D01*
G75*
G02*
X179000000Y-70462500I0J-62500D01*
G01*
X179000000Y-71337500D01*
G75*
G02*
X178937500Y-71400000I-62500J0D01*
G01*
G37*
G36*
G01*
X178437500Y-71400000D02*
X178312500Y-71400000D01*
G75*
G02*
X178250000Y-71337500I0J62500D01*
G01*
X178250000Y-70462500D01*
G75*
G02*
X178312500Y-70400000I62500J0D01*
G01*
X178437500Y-70400000D01*
G75*
G02*
X178500000Y-70462500I0J-62500D01*
G01*
X178500000Y-71337500D01*
G75*
G02*
X178437500Y-71400000I-62500J0D01*
G01*
G37*
G36*
G01*
X177937500Y-71400000D02*
X177812500Y-71400000D01*
G75*
G02*
X177750000Y-71337500I0J62500D01*
G01*
X177750000Y-70462500D01*
G75*
G02*
X177812500Y-70400000I62500J0D01*
G01*
X177937500Y-70400000D01*
G75*
G02*
X178000000Y-70462500I0J-62500D01*
G01*
X178000000Y-71337500D01*
G75*
G02*
X177937500Y-71400000I-62500J0D01*
G01*
G37*
G36*
G01*
X177437500Y-71400000D02*
X177312500Y-71400000D01*
G75*
G02*
X177250000Y-71337500I0J62500D01*
G01*
X177250000Y-70462500D01*
G75*
G02*
X177312500Y-70400000I62500J0D01*
G01*
X177437500Y-70400000D01*
G75*
G02*
X177500000Y-70462500I0J-62500D01*
G01*
X177500000Y-71337500D01*
G75*
G02*
X177437500Y-71400000I-62500J0D01*
G01*
G37*
%TD*%
%TO.C,C1*%
G36*
G01*
X183650001Y-60537500D02*
X182349999Y-60537500D01*
G75*
G02*
X182100000Y-60287501I0J249999D01*
G01*
X182100000Y-59462499D01*
G75*
G02*
X182349999Y-59212500I249999J0D01*
G01*
X183650001Y-59212500D01*
G75*
G02*
X183900000Y-59462499I0J-249999D01*
G01*
X183900000Y-60287501D01*
G75*
G02*
X183650001Y-60537500I-249999J0D01*
G01*
G37*
G36*
G01*
X183650001Y-63662500D02*
X182349999Y-63662500D01*
G75*
G02*
X182100000Y-63412501I0J249999D01*
G01*
X182100000Y-62587499D01*
G75*
G02*
X182349999Y-62337500I249999J0D01*
G01*
X183650001Y-62337500D01*
G75*
G02*
X183900000Y-62587499I0J-249999D01*
G01*
X183900000Y-63412501D01*
G75*
G02*
X183650001Y-63662500I-249999J0D01*
G01*
G37*
%TD*%
%TO.C,R5*%
G36*
G01*
X183625000Y-70550000D02*
X182375000Y-70550000D01*
G75*
G02*
X182125000Y-70300000I0J250000D01*
G01*
X182125000Y-69500000D01*
G75*
G02*
X182375000Y-69250000I250000J0D01*
G01*
X183625000Y-69250000D01*
G75*
G02*
X183875000Y-69500000I0J-250000D01*
G01*
X183875000Y-70300000D01*
G75*
G02*
X183625000Y-70550000I-250000J0D01*
G01*
G37*
G36*
G01*
X183625000Y-73650000D02*
X182375000Y-73650000D01*
G75*
G02*
X182125000Y-73400000I0J250000D01*
G01*
X182125000Y-72600000D01*
G75*
G02*
X182375000Y-72350000I250000J0D01*
G01*
X183625000Y-72350000D01*
G75*
G02*
X183875000Y-72600000I0J-250000D01*
G01*
X183875000Y-73400000D01*
G75*
G02*
X183625000Y-73650000I-250000J0D01*
G01*
G37*
%TD*%
%TO.C,R4*%
G36*
G01*
X182375000Y-67350000D02*
X183625000Y-67350000D01*
G75*
G02*
X183875000Y-67600000I0J-250000D01*
G01*
X183875000Y-68400000D01*
G75*
G02*
X183625000Y-68650000I-250000J0D01*
G01*
X182375000Y-68650000D01*
G75*
G02*
X182125000Y-68400000I0J250000D01*
G01*
X182125000Y-67600000D01*
G75*
G02*
X182375000Y-67350000I250000J0D01*
G01*
G37*
G36*
G01*
X182375000Y-64250000D02*
X183625000Y-64250000D01*
G75*
G02*
X183875000Y-64500000I0J-250000D01*
G01*
X183875000Y-65300000D01*
G75*
G02*
X183625000Y-65550000I-250000J0D01*
G01*
X182375000Y-65550000D01*
G75*
G02*
X182125000Y-65300000I0J250000D01*
G01*
X182125000Y-64500000D01*
G75*
G02*
X182375000Y-64250000I250000J0D01*
G01*
G37*
%TD*%
M02*
