M48
; DRILL file {KiCad (5.1.9-0-10_14)} date Monday, April 19, 2021 at 12:18:47 PM
; FORMAT={-:-/ absolute / inch / decimal}
; #@! TF.CreationDate,2021-04-19T12:18:47+01:00
; #@! TF.GenerationSoftware,Kicad,Pcbnew,(5.1.9-0-10_14)
; #@! TF.FileFunction,Plated,1,2,PTH
FMAT,2
INCH
T1C0.0157
T2C0.0236
T3C0.0256
T4C0.0300
T5C0.0394
T6C0.0472
T7C0.0591
%
G90
G05
T1
X6.7717Y-2.9921
X6.8405Y-2.8062
X6.8504Y-2.9508
X6.8632Y-3.1861
X6.8876Y-3.1553
X6.9063Y-3.1206
X6.9095Y-2.6132
X6.9252Y-2.5276
X6.9262Y-2.6781
X6.9262Y-2.7677
X6.9606Y-3.1575
X6.9852Y-2.5894
X6.9948Y-3.125
X6.9967Y-2.8402
X7.0315Y-3.1778
X7.0394Y-2.5522
X7.0512Y-2.8543
X7.1607Y-2.5512
X7.1654Y-2.7953
T2
X6.8154Y-3.276
X7.0429Y-3.276
T3
X6.876Y-2.387
X6.876Y-2.4409
X6.926Y-2.387
X6.926Y-2.4409
X6.976Y-2.387
X6.976Y-2.4409
X7.026Y-2.387
X7.026Y-2.4409
X7.076Y-2.387
X7.076Y-2.4409
X7.126Y-2.387
X7.126Y-2.4409
T4
X7.0502Y-2.7215
T5
X6.8004Y-2.6622
X7.2441Y-3.0252
X7.2441Y-3.1252
X7.2441Y-3.2252
X7.2441Y-3.3252
X7.2441Y-3.4252
T6
X6.7589Y-3.4217
X7.0994Y-3.4217
T7
X6.7589Y-3.2571
X7.0994Y-3.2571
T0
M30
