M48
; DRILL file {KiCad (5.1.9-0-10_14)} date Friday, April 23, 2021 at 03:22:12 PM
; FORMAT={-:-/ absolute / inch / decimal}
; #@! TF.CreationDate,2021-04-23T15:22:12+01:00
; #@! TF.GenerationSoftware,Kicad,Pcbnew,(5.1.9-0-10_14)
; #@! TF.FileFunction,Plated,1,2,PTH
FMAT,2
INCH
T1C0.0157
T2C0.0236
T3C0.0256
T4C0.0300
T5C0.0394
T6C0.0472
T7C0.0591
%
G90
G05
T1
X6.7717Y-2.7559
X6.8679Y-3.1776
X6.876Y-2.7726
X6.8793Y-2.7153
X6.8819Y-2.6757
X6.8824Y-2.9503
X6.8937Y-3.1478
X6.9171Y-3.0087
X6.9265Y-2.7609
X6.9316Y-3.1371
X6.9442Y-3.1808
X6.9921Y-3.1496
X6.9931Y-2.5797
X7.001Y-2.8358
X7.0354Y-3.0315
X7.0362Y-3.1878
X7.083Y-2.6041
X7.2047Y-2.3573
T2
X6.8154Y-3.276
X7.0429Y-3.276
T3
X6.8563Y-2.387
X6.8563Y-2.4606
X6.9063Y-2.387
X6.9063Y-2.4606
X6.9563Y-2.387
X6.9563Y-2.4606
X7.0063Y-2.387
X7.0063Y-2.4606
X7.0563Y-2.387
X7.0563Y-2.4606
X7.1063Y-2.387
X7.1063Y-2.4606
T4
X7.0226Y-2.7116
T5
X6.7717Y-2.6559
X7.2047Y-3.0252
X7.2047Y-3.1252
X7.2047Y-3.2252
X7.2047Y-3.3252
X7.2047Y-3.4252
T6
X6.7589Y-3.4217
X7.0994Y-3.4217
T7
X6.7589Y-3.2571
X7.0994Y-3.2571
T0
M30
