%TF.GenerationSoftware,KiCad,Pcbnew,(5.1.9-0-10_14)*%
%TF.CreationDate,2021-05-03T13:28:14+01:00*%
%TF.ProjectId,Shelly,5368656c-6c79-42e6-9b69-6361645f7063,4*%
%TF.SameCoordinates,Original*%
%TF.FileFunction,Paste,Top*%
%TF.FilePolarity,Positive*%
%FSLAX46Y46*%
G04 Gerber Fmt 4.6, Leading zero omitted, Abs format (unit mm)*
G04 Created by KiCad (PCBNEW (5.1.9-0-10_14)) date 2021-05-03 13:28:14*
%MOMM*%
%LPD*%
G01*
G04 APERTURE LIST*
%ADD10R,1.200000X0.800000*%
%ADD11R,0.600000X1.140000*%
%ADD12R,0.300000X1.140000*%
%ADD13C,0.500000*%
G04 APERTURE END LIST*
%TO.C,C1*%
G36*
G01*
X183237500Y-63175000D02*
X182762500Y-63175000D01*
G75*
G02*
X182525000Y-62937500I0J237500D01*
G01*
X182525000Y-62337500D01*
G75*
G02*
X182762500Y-62100000I237500J0D01*
G01*
X183237500Y-62100000D01*
G75*
G02*
X183475000Y-62337500I0J-237500D01*
G01*
X183475000Y-62937500D01*
G75*
G02*
X183237500Y-63175000I-237500J0D01*
G01*
G37*
G36*
G01*
X183237500Y-64900000D02*
X182762500Y-64900000D01*
G75*
G02*
X182525000Y-64662500I0J237500D01*
G01*
X182525000Y-64062500D01*
G75*
G02*
X182762500Y-63825000I237500J0D01*
G01*
X183237500Y-63825000D01*
G75*
G02*
X183475000Y-64062500I0J-237500D01*
G01*
X183475000Y-64662500D01*
G75*
G02*
X183237500Y-64900000I-237500J0D01*
G01*
G37*
%TD*%
%TO.C,R5*%
G36*
G01*
X183237500Y-70075000D02*
X182762500Y-70075000D01*
G75*
G02*
X182525000Y-69837500I0J237500D01*
G01*
X182525000Y-69337500D01*
G75*
G02*
X182762500Y-69100000I237500J0D01*
G01*
X183237500Y-69100000D01*
G75*
G02*
X183475000Y-69337500I0J-237500D01*
G01*
X183475000Y-69837500D01*
G75*
G02*
X183237500Y-70075000I-237500J0D01*
G01*
G37*
G36*
G01*
X183237500Y-71900000D02*
X182762500Y-71900000D01*
G75*
G02*
X182525000Y-71662500I0J237500D01*
G01*
X182525000Y-71162500D01*
G75*
G02*
X182762500Y-70925000I237500J0D01*
G01*
X183237500Y-70925000D01*
G75*
G02*
X183475000Y-71162500I0J-237500D01*
G01*
X183475000Y-71662500D01*
G75*
G02*
X183237500Y-71900000I-237500J0D01*
G01*
G37*
%TD*%
%TO.C,D1*%
G36*
G01*
X171262500Y-61850000D02*
X171737500Y-61850000D01*
G75*
G02*
X171975000Y-62087500I0J-237500D01*
G01*
X171975000Y-62662500D01*
G75*
G02*
X171737500Y-62900000I-237500J0D01*
G01*
X171262500Y-62900000D01*
G75*
G02*
X171025000Y-62662500I0J237500D01*
G01*
X171025000Y-62087500D01*
G75*
G02*
X171262500Y-61850000I237500J0D01*
G01*
G37*
G36*
G01*
X171262500Y-60100000D02*
X171737500Y-60100000D01*
G75*
G02*
X171975000Y-60337500I0J-237500D01*
G01*
X171975000Y-60912500D01*
G75*
G02*
X171737500Y-61150000I-237500J0D01*
G01*
X171262500Y-61150000D01*
G75*
G02*
X171025000Y-60912500I0J237500D01*
G01*
X171025000Y-60337500D01*
G75*
G02*
X171262500Y-60100000I237500J0D01*
G01*
G37*
%TD*%
%TO.C,R6*%
G36*
G01*
X174125000Y-76137500D02*
X174125000Y-75662500D01*
G75*
G02*
X174362500Y-75425000I237500J0D01*
G01*
X174862500Y-75425000D01*
G75*
G02*
X175100000Y-75662500I0J-237500D01*
G01*
X175100000Y-76137500D01*
G75*
G02*
X174862500Y-76375000I-237500J0D01*
G01*
X174362500Y-76375000D01*
G75*
G02*
X174125000Y-76137500I0J237500D01*
G01*
G37*
G36*
G01*
X172300000Y-76137500D02*
X172300000Y-75662500D01*
G75*
G02*
X172537500Y-75425000I237500J0D01*
G01*
X173037500Y-75425000D01*
G75*
G02*
X173275000Y-75662500I0J-237500D01*
G01*
X173275000Y-76137500D01*
G75*
G02*
X173037500Y-76375000I-237500J0D01*
G01*
X172537500Y-76375000D01*
G75*
G02*
X172300000Y-76137500I0J237500D01*
G01*
G37*
%TD*%
%TO.C,R4*%
G36*
G01*
X182762500Y-67425000D02*
X183237500Y-67425000D01*
G75*
G02*
X183475000Y-67662500I0J-237500D01*
G01*
X183475000Y-68162500D01*
G75*
G02*
X183237500Y-68400000I-237500J0D01*
G01*
X182762500Y-68400000D01*
G75*
G02*
X182525000Y-68162500I0J237500D01*
G01*
X182525000Y-67662500D01*
G75*
G02*
X182762500Y-67425000I237500J0D01*
G01*
G37*
G36*
G01*
X182762500Y-65600000D02*
X183237500Y-65600000D01*
G75*
G02*
X183475000Y-65837500I0J-237500D01*
G01*
X183475000Y-66337500D01*
G75*
G02*
X183237500Y-66575000I-237500J0D01*
G01*
X182762500Y-66575000D01*
G75*
G02*
X182525000Y-66337500I0J237500D01*
G01*
X182525000Y-65837500D01*
G75*
G02*
X182762500Y-65600000I237500J0D01*
G01*
G37*
%TD*%
%TO.C,R3*%
G36*
G01*
X174125000Y-74537500D02*
X174125000Y-74062500D01*
G75*
G02*
X174362500Y-73825000I237500J0D01*
G01*
X174862500Y-73825000D01*
G75*
G02*
X175100000Y-74062500I0J-237500D01*
G01*
X175100000Y-74537500D01*
G75*
G02*
X174862500Y-74775000I-237500J0D01*
G01*
X174362500Y-74775000D01*
G75*
G02*
X174125000Y-74537500I0J237500D01*
G01*
G37*
G36*
G01*
X172300000Y-74537500D02*
X172300000Y-74062500D01*
G75*
G02*
X172537500Y-73825000I237500J0D01*
G01*
X173037500Y-73825000D01*
G75*
G02*
X173275000Y-74062500I0J-237500D01*
G01*
X173275000Y-74537500D01*
G75*
G02*
X173037500Y-74775000I-237500J0D01*
G01*
X172537500Y-74775000D01*
G75*
G02*
X172300000Y-74537500I0J237500D01*
G01*
G37*
%TD*%
D10*
%TO.C,U2*%
X172800000Y-77430000D03*
X172800000Y-79970000D03*
X178800000Y-79970000D03*
X178800000Y-77430000D03*
%TD*%
D11*
%TO.C,J4*%
X173600000Y-82140000D03*
X178400000Y-82140000D03*
D12*
X176250000Y-82140000D03*
X175750000Y-82140000D03*
X176750000Y-82140000D03*
X175250000Y-82140000D03*
X177250000Y-82140000D03*
X174750000Y-82140000D03*
X177750000Y-82140000D03*
X174250000Y-82140000D03*
D11*
X179200000Y-82140000D03*
X172800000Y-82140000D03*
%TD*%
D13*
%TO.C,U1*%
X176375000Y-70875000D03*
G36*
G01*
X179255000Y-68755000D02*
X178745000Y-68755000D01*
G75*
G02*
X178495000Y-68505000I0J250000D01*
G01*
X178495000Y-67995000D01*
G75*
G02*
X178745000Y-67745000I250000J0D01*
G01*
X179255000Y-67745000D01*
G75*
G02*
X179505000Y-67995000I0J-250000D01*
G01*
X179505000Y-68505000D01*
G75*
G02*
X179255000Y-68755000I-250000J0D01*
G01*
G37*
G36*
G01*
X178005000Y-68755000D02*
X177495000Y-68755000D01*
G75*
G02*
X177245000Y-68505000I0J250000D01*
G01*
X177245000Y-67995000D01*
G75*
G02*
X177495000Y-67745000I250000J0D01*
G01*
X178005000Y-67745000D01*
G75*
G02*
X178255000Y-67995000I0J-250000D01*
G01*
X178255000Y-68505000D01*
G75*
G02*
X178005000Y-68755000I-250000J0D01*
G01*
G37*
G36*
G01*
X179255000Y-70005000D02*
X178745000Y-70005000D01*
G75*
G02*
X178495000Y-69755000I0J250000D01*
G01*
X178495000Y-69245000D01*
G75*
G02*
X178745000Y-68995000I250000J0D01*
G01*
X179255000Y-68995000D01*
G75*
G02*
X179505000Y-69245000I0J-250000D01*
G01*
X179505000Y-69755000D01*
G75*
G02*
X179255000Y-70005000I-250000J0D01*
G01*
G37*
G36*
G01*
X178005000Y-70005000D02*
X177495000Y-70005000D01*
G75*
G02*
X177245000Y-69755000I0J250000D01*
G01*
X177245000Y-69245000D01*
G75*
G02*
X177495000Y-68995000I250000J0D01*
G01*
X178005000Y-68995000D01*
G75*
G02*
X178255000Y-69245000I0J-250000D01*
G01*
X178255000Y-69755000D01*
G75*
G02*
X178005000Y-70005000I-250000J0D01*
G01*
G37*
G36*
G01*
X176787500Y-70000000D02*
X175912500Y-70000000D01*
G75*
G02*
X175850000Y-69937500I0J62500D01*
G01*
X175850000Y-69812500D01*
G75*
G02*
X175912500Y-69750000I62500J0D01*
G01*
X176787500Y-69750000D01*
G75*
G02*
X176850000Y-69812500I0J-62500D01*
G01*
X176850000Y-69937500D01*
G75*
G02*
X176787500Y-70000000I-62500J0D01*
G01*
G37*
G36*
G01*
X176787500Y-69500000D02*
X175912500Y-69500000D01*
G75*
G02*
X175850000Y-69437500I0J62500D01*
G01*
X175850000Y-69312500D01*
G75*
G02*
X175912500Y-69250000I62500J0D01*
G01*
X176787500Y-69250000D01*
G75*
G02*
X176850000Y-69312500I0J-62500D01*
G01*
X176850000Y-69437500D01*
G75*
G02*
X176787500Y-69500000I-62500J0D01*
G01*
G37*
G36*
G01*
X176787500Y-69000000D02*
X175912500Y-69000000D01*
G75*
G02*
X175850000Y-68937500I0J62500D01*
G01*
X175850000Y-68812500D01*
G75*
G02*
X175912500Y-68750000I62500J0D01*
G01*
X176787500Y-68750000D01*
G75*
G02*
X176850000Y-68812500I0J-62500D01*
G01*
X176850000Y-68937500D01*
G75*
G02*
X176787500Y-69000000I-62500J0D01*
G01*
G37*
G36*
G01*
X176787500Y-68500000D02*
X175912500Y-68500000D01*
G75*
G02*
X175850000Y-68437500I0J62500D01*
G01*
X175850000Y-68312500D01*
G75*
G02*
X175912500Y-68250000I62500J0D01*
G01*
X176787500Y-68250000D01*
G75*
G02*
X176850000Y-68312500I0J-62500D01*
G01*
X176850000Y-68437500D01*
G75*
G02*
X176787500Y-68500000I-62500J0D01*
G01*
G37*
G36*
G01*
X176787500Y-68000000D02*
X175912500Y-68000000D01*
G75*
G02*
X175850000Y-67937500I0J62500D01*
G01*
X175850000Y-67812500D01*
G75*
G02*
X175912500Y-67750000I62500J0D01*
G01*
X176787500Y-67750000D01*
G75*
G02*
X176850000Y-67812500I0J-62500D01*
G01*
X176850000Y-67937500D01*
G75*
G02*
X176787500Y-68000000I-62500J0D01*
G01*
G37*
G36*
G01*
X177437500Y-67350000D02*
X177312500Y-67350000D01*
G75*
G02*
X177250000Y-67287500I0J62500D01*
G01*
X177250000Y-66412500D01*
G75*
G02*
X177312500Y-66350000I62500J0D01*
G01*
X177437500Y-66350000D01*
G75*
G02*
X177500000Y-66412500I0J-62500D01*
G01*
X177500000Y-67287500D01*
G75*
G02*
X177437500Y-67350000I-62500J0D01*
G01*
G37*
G36*
G01*
X177937500Y-67350000D02*
X177812500Y-67350000D01*
G75*
G02*
X177750000Y-67287500I0J62500D01*
G01*
X177750000Y-66412500D01*
G75*
G02*
X177812500Y-66350000I62500J0D01*
G01*
X177937500Y-66350000D01*
G75*
G02*
X178000000Y-66412500I0J-62500D01*
G01*
X178000000Y-67287500D01*
G75*
G02*
X177937500Y-67350000I-62500J0D01*
G01*
G37*
G36*
G01*
X178437500Y-67350000D02*
X178312500Y-67350000D01*
G75*
G02*
X178250000Y-67287500I0J62500D01*
G01*
X178250000Y-66412500D01*
G75*
G02*
X178312500Y-66350000I62500J0D01*
G01*
X178437500Y-66350000D01*
G75*
G02*
X178500000Y-66412500I0J-62500D01*
G01*
X178500000Y-67287500D01*
G75*
G02*
X178437500Y-67350000I-62500J0D01*
G01*
G37*
G36*
G01*
X178937500Y-67350000D02*
X178812500Y-67350000D01*
G75*
G02*
X178750000Y-67287500I0J62500D01*
G01*
X178750000Y-66412500D01*
G75*
G02*
X178812500Y-66350000I62500J0D01*
G01*
X178937500Y-66350000D01*
G75*
G02*
X179000000Y-66412500I0J-62500D01*
G01*
X179000000Y-67287500D01*
G75*
G02*
X178937500Y-67350000I-62500J0D01*
G01*
G37*
G36*
G01*
X179437500Y-67350000D02*
X179312500Y-67350000D01*
G75*
G02*
X179250000Y-67287500I0J62500D01*
G01*
X179250000Y-66412500D01*
G75*
G02*
X179312500Y-66350000I62500J0D01*
G01*
X179437500Y-66350000D01*
G75*
G02*
X179500000Y-66412500I0J-62500D01*
G01*
X179500000Y-67287500D01*
G75*
G02*
X179437500Y-67350000I-62500J0D01*
G01*
G37*
G36*
G01*
X180837500Y-68000000D02*
X179962500Y-68000000D01*
G75*
G02*
X179900000Y-67937500I0J62500D01*
G01*
X179900000Y-67812500D01*
G75*
G02*
X179962500Y-67750000I62500J0D01*
G01*
X180837500Y-67750000D01*
G75*
G02*
X180900000Y-67812500I0J-62500D01*
G01*
X180900000Y-67937500D01*
G75*
G02*
X180837500Y-68000000I-62500J0D01*
G01*
G37*
G36*
G01*
X180837500Y-68500000D02*
X179962500Y-68500000D01*
G75*
G02*
X179900000Y-68437500I0J62500D01*
G01*
X179900000Y-68312500D01*
G75*
G02*
X179962500Y-68250000I62500J0D01*
G01*
X180837500Y-68250000D01*
G75*
G02*
X180900000Y-68312500I0J-62500D01*
G01*
X180900000Y-68437500D01*
G75*
G02*
X180837500Y-68500000I-62500J0D01*
G01*
G37*
G36*
G01*
X180837500Y-69000000D02*
X179962500Y-69000000D01*
G75*
G02*
X179900000Y-68937500I0J62500D01*
G01*
X179900000Y-68812500D01*
G75*
G02*
X179962500Y-68750000I62500J0D01*
G01*
X180837500Y-68750000D01*
G75*
G02*
X180900000Y-68812500I0J-62500D01*
G01*
X180900000Y-68937500D01*
G75*
G02*
X180837500Y-69000000I-62500J0D01*
G01*
G37*
G36*
G01*
X180837500Y-69500000D02*
X179962500Y-69500000D01*
G75*
G02*
X179900000Y-69437500I0J62500D01*
G01*
X179900000Y-69312500D01*
G75*
G02*
X179962500Y-69250000I62500J0D01*
G01*
X180837500Y-69250000D01*
G75*
G02*
X180900000Y-69312500I0J-62500D01*
G01*
X180900000Y-69437500D01*
G75*
G02*
X180837500Y-69500000I-62500J0D01*
G01*
G37*
G36*
G01*
X180837500Y-70000000D02*
X179962500Y-70000000D01*
G75*
G02*
X179900000Y-69937500I0J62500D01*
G01*
X179900000Y-69812500D01*
G75*
G02*
X179962500Y-69750000I62500J0D01*
G01*
X180837500Y-69750000D01*
G75*
G02*
X180900000Y-69812500I0J-62500D01*
G01*
X180900000Y-69937500D01*
G75*
G02*
X180837500Y-70000000I-62500J0D01*
G01*
G37*
G36*
G01*
X179437500Y-71400000D02*
X179312500Y-71400000D01*
G75*
G02*
X179250000Y-71337500I0J62500D01*
G01*
X179250000Y-70462500D01*
G75*
G02*
X179312500Y-70400000I62500J0D01*
G01*
X179437500Y-70400000D01*
G75*
G02*
X179500000Y-70462500I0J-62500D01*
G01*
X179500000Y-71337500D01*
G75*
G02*
X179437500Y-71400000I-62500J0D01*
G01*
G37*
G36*
G01*
X178937500Y-71400000D02*
X178812500Y-71400000D01*
G75*
G02*
X178750000Y-71337500I0J62500D01*
G01*
X178750000Y-70462500D01*
G75*
G02*
X178812500Y-70400000I62500J0D01*
G01*
X178937500Y-70400000D01*
G75*
G02*
X179000000Y-70462500I0J-62500D01*
G01*
X179000000Y-71337500D01*
G75*
G02*
X178937500Y-71400000I-62500J0D01*
G01*
G37*
G36*
G01*
X178437500Y-71400000D02*
X178312500Y-71400000D01*
G75*
G02*
X178250000Y-71337500I0J62500D01*
G01*
X178250000Y-70462500D01*
G75*
G02*
X178312500Y-70400000I62500J0D01*
G01*
X178437500Y-70400000D01*
G75*
G02*
X178500000Y-70462500I0J-62500D01*
G01*
X178500000Y-71337500D01*
G75*
G02*
X178437500Y-71400000I-62500J0D01*
G01*
G37*
G36*
G01*
X177937500Y-71400000D02*
X177812500Y-71400000D01*
G75*
G02*
X177750000Y-71337500I0J62500D01*
G01*
X177750000Y-70462500D01*
G75*
G02*
X177812500Y-70400000I62500J0D01*
G01*
X177937500Y-70400000D01*
G75*
G02*
X178000000Y-70462500I0J-62500D01*
G01*
X178000000Y-71337500D01*
G75*
G02*
X177937500Y-71400000I-62500J0D01*
G01*
G37*
G36*
G01*
X177437500Y-71400000D02*
X177312500Y-71400000D01*
G75*
G02*
X177250000Y-71337500I0J62500D01*
G01*
X177250000Y-70462500D01*
G75*
G02*
X177312500Y-70400000I62500J0D01*
G01*
X177437500Y-70400000D01*
G75*
G02*
X177500000Y-70462500I0J-62500D01*
G01*
X177500000Y-71337500D01*
G75*
G02*
X177437500Y-71400000I-62500J0D01*
G01*
G37*
%TD*%
M02*
