M48
; DRILL file {KiCad (5.1.9-0-10_14)} date Monday, April 19, 2021 at 07:38:00 AM
; FORMAT={-:-/ absolute / inch / decimal}
; #@! TF.CreationDate,2021-04-19T07:38:00+01:00
; #@! TF.GenerationSoftware,Kicad,Pcbnew,(5.1.9-0-10_14)
; #@! TF.FileFunction,Plated,1,2,PTH
FMAT,2
INCH
T1C0.0157
T2C0.0236
T3C0.0256
T4C0.0394
T5C0.0433
T6C0.0472
T7C0.0591
%
G90
G05
T1
X6.8004Y-2.7622
X6.8619Y-3.2197
X6.8994Y-3.2079
X6.9095Y-2.6132
X6.9252Y-2.5276
X6.9262Y-2.6781
X6.9262Y-2.7677
X6.9338Y-3.1646
X6.9587Y-3.2125
X6.9725Y-2.5748
X6.9967Y-2.8402
X7.0012Y-3.1799
X7.0157Y-3.2165
X7.0394Y-2.5522
T2
X6.8299Y-3.3154
X7.0575Y-3.3154
T3
X6.876Y-2.387
X6.876Y-2.4409
X6.926Y-2.387
X6.926Y-2.4409
X6.976Y-2.387
X6.976Y-2.4409
X7.026Y-2.387
X7.026Y-2.4409
X7.076Y-2.387
X7.076Y-2.4409
X7.126Y-2.387
X7.126Y-2.4409
T4
X6.8004Y-2.6622
X7.2441Y-3.0252
X7.2441Y-3.1252
X7.2441Y-3.2252
X7.2441Y-3.3252
X7.2441Y-3.4252
T5
X6.8071Y-2.9843
X6.8071Y-3.1614
X7.063Y-2.9843
X7.063Y-3.1614
T6
X6.7734Y-3.461
X7.114Y-3.461
T7
X6.7734Y-3.2965
X7.114Y-3.2965
T0
M30
