%TF.GenerationSoftware,KiCad,Pcbnew,(5.1.9-0-10_14)*%
%TF.CreationDate,2021-04-17T10:06:41+01:00*%
%TF.ProjectId,Shelly,5368656c-6c79-42e6-9b69-6361645f7063,rev?*%
%TF.SameCoordinates,Original*%
%TF.FileFunction,Legend,Top*%
%TF.FilePolarity,Positive*%
%FSLAX46Y46*%
G04 Gerber Fmt 4.6, Leading zero omitted, Abs format (unit mm)*
G04 Created by KiCad (PCBNEW (5.1.9-0-10_14)) date 2021-04-17 10:06:41*
%MOMM*%
%LPD*%
G01*
G04 APERTURE LIST*
%ADD10C,0.120000*%
%ADD11C,0.150000*%
G04 APERTURE END LIST*
D10*
%TO.C,J2*%
X173955000Y-60890000D02*
X173955000Y-61692470D01*
X173955000Y-62307530D02*
X173955000Y-63110000D01*
X180240000Y-60890000D02*
X173955000Y-60890000D01*
X180240000Y-63110000D02*
X173955000Y-63110000D01*
X180240000Y-60890000D02*
X180240000Y-61436529D01*
X180240000Y-62563471D02*
X180240000Y-63110000D01*
X181000000Y-60890000D02*
X181760000Y-60890000D01*
X181760000Y-60890000D02*
X181760000Y-62000000D01*
%TO.C,SW1*%
X178460000Y-74790000D02*
X173960000Y-74790000D01*
X179710000Y-78790000D02*
X179710000Y-77290000D01*
X173960000Y-81290000D02*
X178460000Y-81290000D01*
X172710000Y-77290000D02*
X172710000Y-78790000D01*
%TO.C,U1*%
X175990000Y-70085000D02*
X175990000Y-70810000D01*
X180210000Y-66590000D02*
X179485000Y-66590000D01*
X180210000Y-67315000D02*
X180210000Y-66590000D01*
X180210000Y-70810000D02*
X179485000Y-70810000D01*
X180210000Y-70085000D02*
X180210000Y-70810000D01*
X175990000Y-66590000D02*
X176715000Y-66590000D01*
X175990000Y-67315000D02*
X175990000Y-66590000D01*
%TO.C,R4*%
X183090000Y-72177064D02*
X183090000Y-70722936D01*
X184910000Y-72177064D02*
X184910000Y-70722936D01*
%TO.C,R3*%
X184910000Y-65722936D02*
X184910000Y-67177064D01*
X183090000Y-65722936D02*
X183090000Y-67177064D01*
%TO.C,J1*%
X171900000Y-90490000D02*
X171900000Y-83140000D01*
X171900000Y-83140000D02*
X180840000Y-83140000D01*
X180840000Y-83140000D02*
X180840000Y-90490000D01*
X171900000Y-90490000D02*
X180840000Y-90490000D01*
%TO.C,J2*%
D11*
X182252380Y-62933333D02*
X182966666Y-62933333D01*
X183109523Y-62980952D01*
X183204761Y-63076190D01*
X183252380Y-63219047D01*
X183252380Y-63314285D01*
X182347619Y-62504761D02*
X182300000Y-62457142D01*
X182252380Y-62361904D01*
X182252380Y-62123809D01*
X182300000Y-62028571D01*
X182347619Y-61980952D01*
X182442857Y-61933333D01*
X182538095Y-61933333D01*
X182680952Y-61980952D01*
X183252380Y-62552380D01*
X183252380Y-61933333D01*
%TO.C,SW1*%
X174766666Y-78504761D02*
X174909523Y-78552380D01*
X175147619Y-78552380D01*
X175242857Y-78504761D01*
X175290476Y-78457142D01*
X175338095Y-78361904D01*
X175338095Y-78266666D01*
X175290476Y-78171428D01*
X175242857Y-78123809D01*
X175147619Y-78076190D01*
X174957142Y-78028571D01*
X174861904Y-77980952D01*
X174814285Y-77933333D01*
X174766666Y-77838095D01*
X174766666Y-77742857D01*
X174814285Y-77647619D01*
X174861904Y-77600000D01*
X174957142Y-77552380D01*
X175195238Y-77552380D01*
X175338095Y-77600000D01*
X175671428Y-77552380D02*
X175909523Y-78552380D01*
X176100000Y-77838095D01*
X176290476Y-78552380D01*
X176528571Y-77552380D01*
X177433333Y-78552380D02*
X176861904Y-78552380D01*
X177147619Y-78552380D02*
X177147619Y-77552380D01*
X177052380Y-77695238D01*
X176957142Y-77790476D01*
X176861904Y-77838095D01*
%TO.C,U1*%
X174232380Y-69461904D02*
X175041904Y-69461904D01*
X175137142Y-69414285D01*
X175184761Y-69366666D01*
X175232380Y-69271428D01*
X175232380Y-69080952D01*
X175184761Y-68985714D01*
X175137142Y-68938095D01*
X175041904Y-68890476D01*
X174232380Y-68890476D01*
X175232380Y-67890476D02*
X175232380Y-68461904D01*
X175232380Y-68176190D02*
X174232380Y-68176190D01*
X174375238Y-68271428D01*
X174470476Y-68366666D01*
X174518095Y-68461904D01*
%TO.C,R4*%
X184352380Y-71616666D02*
X183876190Y-71950000D01*
X184352380Y-72188095D02*
X183352380Y-72188095D01*
X183352380Y-71807142D01*
X183400000Y-71711904D01*
X183447619Y-71664285D01*
X183542857Y-71616666D01*
X183685714Y-71616666D01*
X183780952Y-71664285D01*
X183828571Y-71711904D01*
X183876190Y-71807142D01*
X183876190Y-72188095D01*
X183685714Y-70759523D02*
X184352380Y-70759523D01*
X183304761Y-70997619D02*
X184019047Y-71235714D01*
X184019047Y-70616666D01*
%TO.C,R3*%
X184552380Y-66656666D02*
X184076190Y-66990000D01*
X184552380Y-67228095D02*
X183552380Y-67228095D01*
X183552380Y-66847142D01*
X183600000Y-66751904D01*
X183647619Y-66704285D01*
X183742857Y-66656666D01*
X183885714Y-66656666D01*
X183980952Y-66704285D01*
X184028571Y-66751904D01*
X184076190Y-66847142D01*
X184076190Y-67228095D01*
X183552380Y-66323333D02*
X183552380Y-65704285D01*
X183933333Y-66037619D01*
X183933333Y-65894761D01*
X183980952Y-65799523D01*
X184028571Y-65751904D01*
X184123809Y-65704285D01*
X184361904Y-65704285D01*
X184457142Y-65751904D01*
X184504761Y-65799523D01*
X184552380Y-65894761D01*
X184552380Y-66180476D01*
X184504761Y-66275714D01*
X184457142Y-66323333D01*
%TO.C,J1*%
X175966666Y-86252380D02*
X175966666Y-86966666D01*
X175919047Y-87109523D01*
X175823809Y-87204761D01*
X175680952Y-87252380D01*
X175585714Y-87252380D01*
X176966666Y-87252380D02*
X176395238Y-87252380D01*
X176680952Y-87252380D02*
X176680952Y-86252380D01*
X176585714Y-86395238D01*
X176490476Y-86490476D01*
X176395238Y-86538095D01*
%TD*%
M02*
