%TF.GenerationSoftware,KiCad,Pcbnew,(5.1.9-0-10_14)*%
%TF.CreationDate,2021-05-02T11:52:11+01:00*%
%TF.ProjectId,Shelly,5368656c-6c79-42e6-9b69-6361645f7063,rev?*%
%TF.SameCoordinates,Original*%
%TF.FileFunction,Soldermask,Bot*%
%TF.FilePolarity,Negative*%
%FSLAX46Y46*%
G04 Gerber Fmt 4.6, Leading zero omitted, Abs format (unit mm)*
G04 Created by KiCad (PCBNEW (5.1.9-0-10_14)) date 2021-05-02 11:52:11*
%MOMM*%
%LPD*%
G01*
G04 APERTURE LIST*
%ADD10R,1.100000X3.700000*%
%ADD11R,0.650000X1.560000*%
%ADD12O,1.000000X1.000000*%
%ADD13R,1.000000X1.000000*%
%ADD14C,1.700000*%
%ADD15C,2.000000*%
%ADD16C,1.524000*%
%ADD17O,1.700000X1.700000*%
%ADD18R,1.700000X1.700000*%
G04 APERTURE END LIST*
D10*
%TO.C,Reg1*%
X178100000Y-73600000D03*
X175100000Y-73600000D03*
G36*
G01*
X175650000Y-70149550D02*
X175650000Y-71050450D01*
G75*
G02*
X175400450Y-71300000I-249550J0D01*
G01*
X174749550Y-71300000D01*
G75*
G02*
X174500000Y-71050450I0J249550D01*
G01*
X174500000Y-70149550D01*
G75*
G02*
X174749550Y-69900000I249550J0D01*
G01*
X175400450Y-69900000D01*
G75*
G02*
X175650000Y-70149550I0J-249550D01*
G01*
G37*
G36*
G01*
X177700000Y-70149550D02*
X177700000Y-71050450D01*
G75*
G02*
X177450450Y-71300000I-249550J0D01*
G01*
X176799550Y-71300000D01*
G75*
G02*
X176550000Y-71050450I0J249550D01*
G01*
X176550000Y-70149550D01*
G75*
G02*
X176799550Y-69900000I249550J0D01*
G01*
X177450450Y-69900000D01*
G75*
G02*
X177700000Y-70149550I0J-249550D01*
G01*
G37*
G36*
G01*
X171862500Y-69700000D02*
X172337500Y-69700000D01*
G75*
G02*
X172575000Y-69937500I0J-237500D01*
G01*
X172575000Y-70537500D01*
G75*
G02*
X172337500Y-70775000I-237500J0D01*
G01*
X171862500Y-70775000D01*
G75*
G02*
X171625000Y-70537500I0J237500D01*
G01*
X171625000Y-69937500D01*
G75*
G02*
X171862500Y-69700000I237500J0D01*
G01*
G37*
G36*
G01*
X171862500Y-71425000D02*
X172337500Y-71425000D01*
G75*
G02*
X172575000Y-71662500I0J-237500D01*
G01*
X172575000Y-72262500D01*
G75*
G02*
X172337500Y-72500000I-237500J0D01*
G01*
X171862500Y-72500000D01*
G75*
G02*
X171625000Y-72262500I0J237500D01*
G01*
X171625000Y-71662500D01*
G75*
G02*
X171862500Y-71425000I237500J0D01*
G01*
G37*
G36*
G01*
X174200000Y-76837500D02*
X174200000Y-76362500D01*
G75*
G02*
X174437500Y-76125000I237500J0D01*
G01*
X175037500Y-76125000D01*
G75*
G02*
X175275000Y-76362500I0J-237500D01*
G01*
X175275000Y-76837500D01*
G75*
G02*
X175037500Y-77075000I-237500J0D01*
G01*
X174437500Y-77075000D01*
G75*
G02*
X174200000Y-76837500I0J237500D01*
G01*
G37*
G36*
G01*
X175925000Y-76837500D02*
X175925000Y-76362500D01*
G75*
G02*
X176162500Y-76125000I237500J0D01*
G01*
X176762500Y-76125000D01*
G75*
G02*
X177000000Y-76362500I0J-237500D01*
G01*
X177000000Y-76837500D01*
G75*
G02*
X176762500Y-77075000I-237500J0D01*
G01*
X176162500Y-77075000D01*
G75*
G02*
X175925000Y-76837500I0J237500D01*
G01*
G37*
G36*
G01*
X173125275Y-69475000D02*
X174074725Y-69475000D01*
G75*
G02*
X174325000Y-69725275I0J-250275D01*
G01*
X174325000Y-70399725D01*
G75*
G02*
X174074725Y-70650000I-250275J0D01*
G01*
X173125275Y-70650000D01*
G75*
G02*
X172875000Y-70399725I0J250275D01*
G01*
X172875000Y-69725275D01*
G75*
G02*
X173125275Y-69475000I250275J0D01*
G01*
G37*
G36*
G01*
X173125275Y-71550000D02*
X174074725Y-71550000D01*
G75*
G02*
X174325000Y-71800275I0J-250275D01*
G01*
X174325000Y-72474725D01*
G75*
G02*
X174074725Y-72725000I-250275J0D01*
G01*
X173125275Y-72725000D01*
G75*
G02*
X172875000Y-72474725I0J250275D01*
G01*
X172875000Y-71800275D01*
G75*
G02*
X173125275Y-71550000I250275J0D01*
G01*
G37*
D11*
X171650000Y-73750000D03*
X172600000Y-73750000D03*
X173550000Y-73750000D03*
X173550000Y-76450000D03*
X171650000Y-76450000D03*
X172600000Y-76450000D03*
%TD*%
D12*
%TO.C,J3*%
X174150000Y-62500000D03*
X175420000Y-62500000D03*
X176690000Y-62500000D03*
X177960000Y-62500000D03*
X179230000Y-62500000D03*
D13*
X180500000Y-62500000D03*
%TD*%
D14*
%TO.C,J4*%
X180325000Y-86910000D03*
X171675000Y-86910000D03*
D15*
X180325000Y-82730000D03*
X171675000Y-82730000D03*
%TD*%
%TO.C,R1*%
G36*
G01*
X174175000Y-86850000D02*
X175425000Y-86850000D01*
G75*
G02*
X175675000Y-87100000I0J-250000D01*
G01*
X175675000Y-87900000D01*
G75*
G02*
X175425000Y-88150000I-250000J0D01*
G01*
X174175000Y-88150000D01*
G75*
G02*
X173925000Y-87900000I0J250000D01*
G01*
X173925000Y-87100000D01*
G75*
G02*
X174175000Y-86850000I250000J0D01*
G01*
G37*
G36*
G01*
X174175000Y-83750000D02*
X175425000Y-83750000D01*
G75*
G02*
X175675000Y-84000000I0J-250000D01*
G01*
X175675000Y-84800000D01*
G75*
G02*
X175425000Y-85050000I-250000J0D01*
G01*
X174175000Y-85050000D01*
G75*
G02*
X173925000Y-84800000I0J250000D01*
G01*
X173925000Y-84000000D01*
G75*
G02*
X174175000Y-83750000I250000J0D01*
G01*
G37*
%TD*%
D16*
%TO.C,U1*%
X178375000Y-68875000D03*
%TD*%
D12*
%TO.C,J2*%
X174150000Y-60630000D03*
X175420000Y-60630000D03*
X176690000Y-60630000D03*
X177960000Y-60630000D03*
X179230000Y-60630000D03*
D13*
X180500000Y-60630000D03*
%TD*%
D17*
%TO.C,J1*%
X183000000Y-76840000D03*
X183000000Y-79380000D03*
X183000000Y-81920000D03*
X183000000Y-84460000D03*
D18*
X183000000Y-87000000D03*
%TD*%
%TO.C,R2*%
G36*
G01*
X178225000Y-85050000D02*
X176975000Y-85050000D01*
G75*
G02*
X176725000Y-84800000I0J250000D01*
G01*
X176725000Y-84000000D01*
G75*
G02*
X176975000Y-83750000I250000J0D01*
G01*
X178225000Y-83750000D01*
G75*
G02*
X178475000Y-84000000I0J-250000D01*
G01*
X178475000Y-84800000D01*
G75*
G02*
X178225000Y-85050000I-250000J0D01*
G01*
G37*
G36*
G01*
X178225000Y-88150000D02*
X176975000Y-88150000D01*
G75*
G02*
X176725000Y-87900000I0J250000D01*
G01*
X176725000Y-87100000D01*
G75*
G02*
X176975000Y-86850000I250000J0D01*
G01*
X178225000Y-86850000D01*
G75*
G02*
X178475000Y-87100000I0J-250000D01*
G01*
X178475000Y-87900000D01*
G75*
G02*
X178225000Y-88150000I-250000J0D01*
G01*
G37*
%TD*%
M02*
