%TF.GenerationSoftware,KiCad,Pcbnew,(5.1.9-0-10_14)*%
%TF.CreationDate,2021-04-23T16:02:44+01:00*%
%TF.ProjectId,Shelly,5368656c-6c79-42e6-9b69-6361645f7063,rev?*%
%TF.SameCoordinates,Original*%
%TF.FileFunction,Copper,L1,Top*%
%TF.FilePolarity,Positive*%
%FSLAX46Y46*%
G04 Gerber Fmt 4.6, Leading zero omitted, Abs format (unit mm)*
G04 Created by KiCad (PCBNEW (5.1.9-0-10_14)) date 2021-04-23 16:02:44*
%MOMM*%
%LPD*%
G01*
G04 APERTURE LIST*
%TA.AperFunction,SMDPad,CuDef*%
%ADD10R,1.200000X0.800000*%
%TD*%
%TA.AperFunction,ComponentPad*%
%ADD11O,1.000000X1.000000*%
%TD*%
%TA.AperFunction,ComponentPad*%
%ADD12R,1.000000X1.000000*%
%TD*%
%TA.AperFunction,ComponentPad*%
%ADD13R,1.524000X1.524000*%
%TD*%
%TA.AperFunction,SMDPad,CuDef*%
%ADD14R,8.340000X5.490000*%
%TD*%
%TA.AperFunction,SMDPad,CuDef*%
%ADD15R,0.600000X1.140000*%
%TD*%
%TA.AperFunction,ComponentPad*%
%ADD16C,1.700000*%
%TD*%
%TA.AperFunction,ComponentPad*%
%ADD17C,2.000000*%
%TD*%
%TA.AperFunction,SMDPad,CuDef*%
%ADD18R,0.300000X1.140000*%
%TD*%
%TA.AperFunction,ComponentPad*%
%ADD19C,0.600000*%
%TD*%
%TA.AperFunction,ComponentPad*%
%ADD20C,1.524000*%
%TD*%
%TA.AperFunction,SMDPad,CuDef*%
%ADD21R,0.200000X0.200000*%
%TD*%
%TA.AperFunction,SMDPad,CuDef*%
%ADD22C,0.500000*%
%TD*%
%TA.AperFunction,SMDPad,CuDef*%
%ADD23R,2.500000X2.500000*%
%TD*%
%TA.AperFunction,ComponentPad*%
%ADD24O,1.700000X1.700000*%
%TD*%
%TA.AperFunction,ComponentPad*%
%ADD25R,1.700000X1.700000*%
%TD*%
%TA.AperFunction,ViaPad*%
%ADD26C,0.800000*%
%TD*%
%TA.AperFunction,Conductor*%
%ADD27C,0.250000*%
%TD*%
%TA.AperFunction,Conductor*%
%ADD28C,0.254000*%
%TD*%
%TA.AperFunction,Conductor*%
%ADD29C,0.100000*%
%TD*%
G04 APERTURE END LIST*
D10*
%TO.P,U2,1*%
%TO.N,Net-(R6-Pad1)*%
X172800000Y-77430000D03*
%TO.P,U2,2*%
%TO.N,GND*%
X172800000Y-79970000D03*
%TO.P,U2,3*%
%TO.N,Net-(J1-Pad3)*%
X178800000Y-79970000D03*
%TO.P,U2,4*%
%TO.N,+3V3*%
X178800000Y-77430000D03*
%TD*%
D11*
%TO.P,J3,6*%
%TO.N,TXD*%
X174150000Y-62500000D03*
%TO.P,J3,5*%
%TO.N,RXD*%
X175420000Y-62500000D03*
%TO.P,J3,4*%
%TO.N,+3V3*%
X176690000Y-62500000D03*
%TO.P,J3,3*%
%TO.N,RST*%
X177960000Y-62500000D03*
%TO.P,J3,2*%
%TO.N,GPIO0*%
X179230000Y-62500000D03*
D12*
%TO.P,J3,1*%
%TO.N,GND*%
X180500000Y-62500000D03*
%TD*%
D13*
%TO.P,M1,3*%
%TO.N,GND*%
X172000000Y-67460000D03*
%TD*%
%TO.P,R6,2*%
%TO.N,RST*%
%TA.AperFunction,SMDPad,CuDef*%
G36*
G01*
X174200000Y-75625000D02*
X174200000Y-74375000D01*
G75*
G02*
X174450000Y-74125000I250000J0D01*
G01*
X175250000Y-74125000D01*
G75*
G02*
X175500000Y-74375000I0J-250000D01*
G01*
X175500000Y-75625000D01*
G75*
G02*
X175250000Y-75875000I-250000J0D01*
G01*
X174450000Y-75875000D01*
G75*
G02*
X174200000Y-75625000I0J250000D01*
G01*
G37*
%TD.AperFunction*%
%TO.P,R6,1*%
%TO.N,Net-(R6-Pad1)*%
%TA.AperFunction,SMDPad,CuDef*%
G36*
G01*
X171100000Y-75625000D02*
X171100000Y-74375000D01*
G75*
G02*
X171350000Y-74125000I250000J0D01*
G01*
X172150000Y-74125000D01*
G75*
G02*
X172400000Y-74375000I0J-250000D01*
G01*
X172400000Y-75625000D01*
G75*
G02*
X172150000Y-75875000I-250000J0D01*
G01*
X171350000Y-75875000D01*
G75*
G02*
X171100000Y-75625000I0J250000D01*
G01*
G37*
%TD.AperFunction*%
%TD*%
%TO.P,R3,2*%
%TO.N,Net-(D1-Pad2)*%
%TA.AperFunction,SMDPad,CuDef*%
G36*
G01*
X174200000Y-73225000D02*
X174200000Y-71975000D01*
G75*
G02*
X174450000Y-71725000I250000J0D01*
G01*
X175250000Y-71725000D01*
G75*
G02*
X175500000Y-71975000I0J-250000D01*
G01*
X175500000Y-73225000D01*
G75*
G02*
X175250000Y-73475000I-250000J0D01*
G01*
X174450000Y-73475000D01*
G75*
G02*
X174200000Y-73225000I0J250000D01*
G01*
G37*
%TD.AperFunction*%
%TO.P,R3,1*%
%TO.N,+3V3*%
%TA.AperFunction,SMDPad,CuDef*%
G36*
G01*
X171100000Y-73225000D02*
X171100000Y-71975000D01*
G75*
G02*
X171350000Y-71725000I250000J0D01*
G01*
X172150000Y-71725000D01*
G75*
G02*
X172400000Y-71975000I0J-250000D01*
G01*
X172400000Y-73225000D01*
G75*
G02*
X172150000Y-73475000I-250000J0D01*
G01*
X171350000Y-73475000D01*
G75*
G02*
X171100000Y-73225000I0J250000D01*
G01*
G37*
%TD.AperFunction*%
%TD*%
%TO.P,D1,2*%
%TO.N,Net-(D1-Pad2)*%
%TA.AperFunction,SMDPad,CuDef*%
G36*
G01*
X171100000Y-61800000D02*
X171900000Y-61800000D01*
G75*
G02*
X172150000Y-62050000I0J-250000D01*
G01*
X172150000Y-62875000D01*
G75*
G02*
X171900000Y-63125000I-250000J0D01*
G01*
X171100000Y-63125000D01*
G75*
G02*
X170850000Y-62875000I0J250000D01*
G01*
X170850000Y-62050000D01*
G75*
G02*
X171100000Y-61800000I250000J0D01*
G01*
G37*
%TD.AperFunction*%
%TO.P,D1,1*%
%TO.N,Net-(D1-Pad1)*%
%TA.AperFunction,SMDPad,CuDef*%
G36*
G01*
X171100000Y-59875000D02*
X171900000Y-59875000D01*
G75*
G02*
X172150000Y-60125000I0J-250000D01*
G01*
X172150000Y-60950000D01*
G75*
G02*
X171900000Y-61200000I-250000J0D01*
G01*
X171100000Y-61200000D01*
G75*
G02*
X170850000Y-60950000I0J250000D01*
G01*
X170850000Y-60125000D01*
G75*
G02*
X171100000Y-59875000I250000J0D01*
G01*
G37*
%TD.AperFunction*%
%TD*%
D14*
%TO.P,J4,S1*%
%TO.N,GND*%
X176000000Y-86255000D03*
D15*
%TO.P,J4,A12*%
X179200000Y-82140000D03*
%TO.P,J4,A4*%
%TO.N,VBUS*%
X173600000Y-82140000D03*
%TO.P,J4,B12*%
%TO.N,GND*%
X172800000Y-82140000D03*
%TO.P,J4,B4*%
%TO.N,VBUS*%
X178400000Y-82140000D03*
D16*
%TO.P,J4,S1*%
%TO.N,GND*%
X180325000Y-86910000D03*
X171675000Y-86910000D03*
D17*
X180325000Y-82730000D03*
X171675000Y-82730000D03*
D18*
%TO.P,J4,A7*%
%TO.N,Net-(J4-PadA7)*%
X176250000Y-82140000D03*
%TO.P,J4,A6*%
%TO.N,Net-(J4-PadA6)*%
X175750000Y-82140000D03*
%TO.P,J4,B6*%
X176750000Y-82140000D03*
%TO.P,J4,B7*%
%TO.N,Net-(J4-PadA7)*%
X175250000Y-82140000D03*
%TO.P,J4,A8*%
%TO.N,Net-(J4-PadA8)*%
X177250000Y-82140000D03*
%TO.P,J4,A5*%
%TO.N,Net-(J4-PadA5)*%
X174750000Y-82140000D03*
%TO.P,J4,B5*%
%TO.N,Net-(J4-PadB5)*%
X177750000Y-82140000D03*
%TO.P,J4,B8*%
%TO.N,Net-(J4-PadB8)*%
X174250000Y-82140000D03*
D15*
%TO.P,J4,A9*%
%TO.N,VBUS*%
X178400000Y-82140000D03*
%TO.P,J4,B9*%
X173600000Y-82140000D03*
%TO.P,J4,B1*%
%TO.N,GND*%
X179200000Y-82140000D03*
D19*
%TO.P,J4,S1*%
X178890000Y-83210000D03*
X173110000Y-83210000D03*
D15*
%TO.P,J4,A1*%
X172800000Y-82140000D03*
%TD*%
D20*
%TO.P,U1,21*%
%TO.N,GND*%
X178375000Y-68875000D03*
D21*
%TO.P,U1,~*%
%TO.N,N/C*%
X176375000Y-70875000D03*
X180375000Y-66875000D03*
X180375000Y-70875000D03*
X176375000Y-66875000D03*
D22*
X176375000Y-70875000D03*
D23*
%TO.P,U1,21*%
%TO.N,GND*%
X178375000Y-68875000D03*
%TO.P,U1,20*%
%TO.N,Net-(C1-Pad1)*%
%TA.AperFunction,SMDPad,CuDef*%
G36*
G01*
X176787500Y-70000000D02*
X175912500Y-70000000D01*
G75*
G02*
X175850000Y-69937500I0J62500D01*
G01*
X175850000Y-69812500D01*
G75*
G02*
X175912500Y-69750000I62500J0D01*
G01*
X176787500Y-69750000D01*
G75*
G02*
X176850000Y-69812500I0J-62500D01*
G01*
X176850000Y-69937500D01*
G75*
G02*
X176787500Y-70000000I-62500J0D01*
G01*
G37*
%TD.AperFunction*%
%TO.P,U1,19*%
%TO.N,RST*%
%TA.AperFunction,SMDPad,CuDef*%
G36*
G01*
X176787500Y-69500000D02*
X175912500Y-69500000D01*
G75*
G02*
X175850000Y-69437500I0J62500D01*
G01*
X175850000Y-69312500D01*
G75*
G02*
X175912500Y-69250000I62500J0D01*
G01*
X176787500Y-69250000D01*
G75*
G02*
X176850000Y-69312500I0J-62500D01*
G01*
X176850000Y-69437500D01*
G75*
G02*
X176787500Y-69500000I-62500J0D01*
G01*
G37*
%TD.AperFunction*%
%TO.P,U1,18*%
%TO.N,GPIO0*%
%TA.AperFunction,SMDPad,CuDef*%
G36*
G01*
X176787500Y-69000000D02*
X175912500Y-69000000D01*
G75*
G02*
X175850000Y-68937500I0J62500D01*
G01*
X175850000Y-68812500D01*
G75*
G02*
X175912500Y-68750000I62500J0D01*
G01*
X176787500Y-68750000D01*
G75*
G02*
X176850000Y-68812500I0J-62500D01*
G01*
X176850000Y-68937500D01*
G75*
G02*
X176787500Y-69000000I-62500J0D01*
G01*
G37*
%TD.AperFunction*%
%TO.P,U1,17*%
%TO.N,RXD*%
%TA.AperFunction,SMDPad,CuDef*%
G36*
G01*
X176787500Y-68500000D02*
X175912500Y-68500000D01*
G75*
G02*
X175850000Y-68437500I0J62500D01*
G01*
X175850000Y-68312500D01*
G75*
G02*
X175912500Y-68250000I62500J0D01*
G01*
X176787500Y-68250000D01*
G75*
G02*
X176850000Y-68312500I0J-62500D01*
G01*
X176850000Y-68437500D01*
G75*
G02*
X176787500Y-68500000I-62500J0D01*
G01*
G37*
%TD.AperFunction*%
%TO.P,U1,16*%
%TO.N,Net-(U1-Pad16)*%
%TA.AperFunction,SMDPad,CuDef*%
G36*
G01*
X176787500Y-68000000D02*
X175912500Y-68000000D01*
G75*
G02*
X175850000Y-67937500I0J62500D01*
G01*
X175850000Y-67812500D01*
G75*
G02*
X175912500Y-67750000I62500J0D01*
G01*
X176787500Y-67750000D01*
G75*
G02*
X176850000Y-67812500I0J-62500D01*
G01*
X176850000Y-67937500D01*
G75*
G02*
X176787500Y-68000000I-62500J0D01*
G01*
G37*
%TD.AperFunction*%
%TO.P,U1,15*%
%TO.N,Net-(D1-Pad1)*%
%TA.AperFunction,SMDPad,CuDef*%
G36*
G01*
X177437500Y-67350000D02*
X177312500Y-67350000D01*
G75*
G02*
X177250000Y-67287500I0J62500D01*
G01*
X177250000Y-66412500D01*
G75*
G02*
X177312500Y-66350000I62500J0D01*
G01*
X177437500Y-66350000D01*
G75*
G02*
X177500000Y-66412500I0J-62500D01*
G01*
X177500000Y-67287500D01*
G75*
G02*
X177437500Y-67350000I-62500J0D01*
G01*
G37*
%TD.AperFunction*%
%TO.P,U1,14*%
%TO.N,Net-(U1-Pad14)*%
%TA.AperFunction,SMDPad,CuDef*%
G36*
G01*
X177937500Y-67350000D02*
X177812500Y-67350000D01*
G75*
G02*
X177750000Y-67287500I0J62500D01*
G01*
X177750000Y-66412500D01*
G75*
G02*
X177812500Y-66350000I62500J0D01*
G01*
X177937500Y-66350000D01*
G75*
G02*
X178000000Y-66412500I0J-62500D01*
G01*
X178000000Y-67287500D01*
G75*
G02*
X177937500Y-67350000I-62500J0D01*
G01*
G37*
%TD.AperFunction*%
%TO.P,U1,13*%
%TO.N,GND*%
%TA.AperFunction,SMDPad,CuDef*%
G36*
G01*
X178437500Y-67350000D02*
X178312500Y-67350000D01*
G75*
G02*
X178250000Y-67287500I0J62500D01*
G01*
X178250000Y-66412500D01*
G75*
G02*
X178312500Y-66350000I62500J0D01*
G01*
X178437500Y-66350000D01*
G75*
G02*
X178500000Y-66412500I0J-62500D01*
G01*
X178500000Y-67287500D01*
G75*
G02*
X178437500Y-67350000I-62500J0D01*
G01*
G37*
%TD.AperFunction*%
%TO.P,U1,12*%
%TO.N,VBUS*%
%TA.AperFunction,SMDPad,CuDef*%
G36*
G01*
X178937500Y-67350000D02*
X178812500Y-67350000D01*
G75*
G02*
X178750000Y-67287500I0J62500D01*
G01*
X178750000Y-66412500D01*
G75*
G02*
X178812500Y-66350000I62500J0D01*
G01*
X178937500Y-66350000D01*
G75*
G02*
X179000000Y-66412500I0J-62500D01*
G01*
X179000000Y-67287500D01*
G75*
G02*
X178937500Y-67350000I-62500J0D01*
G01*
G37*
%TD.AperFunction*%
%TO.P,U1,11*%
%TO.N,Net-(C1-Pad1)*%
%TA.AperFunction,SMDPad,CuDef*%
G36*
G01*
X179437500Y-67350000D02*
X179312500Y-67350000D01*
G75*
G02*
X179250000Y-67287500I0J62500D01*
G01*
X179250000Y-66412500D01*
G75*
G02*
X179312500Y-66350000I62500J0D01*
G01*
X179437500Y-66350000D01*
G75*
G02*
X179500000Y-66412500I0J-62500D01*
G01*
X179500000Y-67287500D01*
G75*
G02*
X179437500Y-67350000I-62500J0D01*
G01*
G37*
%TD.AperFunction*%
%TO.P,U1,10*%
%TA.AperFunction,SMDPad,CuDef*%
G36*
G01*
X180837500Y-68000000D02*
X179962500Y-68000000D01*
G75*
G02*
X179900000Y-67937500I0J62500D01*
G01*
X179900000Y-67812500D01*
G75*
G02*
X179962500Y-67750000I62500J0D01*
G01*
X180837500Y-67750000D01*
G75*
G02*
X180900000Y-67812500I0J-62500D01*
G01*
X180900000Y-67937500D01*
G75*
G02*
X180837500Y-68000000I-62500J0D01*
G01*
G37*
%TD.AperFunction*%
%TO.P,U1,9*%
%TO.N,D-*%
%TA.AperFunction,SMDPad,CuDef*%
G36*
G01*
X180837500Y-68500000D02*
X179962500Y-68500000D01*
G75*
G02*
X179900000Y-68437500I0J62500D01*
G01*
X179900000Y-68312500D01*
G75*
G02*
X179962500Y-68250000I62500J0D01*
G01*
X180837500Y-68250000D01*
G75*
G02*
X180900000Y-68312500I0J-62500D01*
G01*
X180900000Y-68437500D01*
G75*
G02*
X180837500Y-68500000I-62500J0D01*
G01*
G37*
%TD.AperFunction*%
%TO.P,U1,8*%
%TO.N,D+*%
%TA.AperFunction,SMDPad,CuDef*%
G36*
G01*
X180837500Y-69000000D02*
X179962500Y-69000000D01*
G75*
G02*
X179900000Y-68937500I0J62500D01*
G01*
X179900000Y-68812500D01*
G75*
G02*
X179962500Y-68750000I62500J0D01*
G01*
X180837500Y-68750000D01*
G75*
G02*
X180900000Y-68812500I0J-62500D01*
G01*
X180900000Y-68937500D01*
G75*
G02*
X180837500Y-69000000I-62500J0D01*
G01*
G37*
%TD.AperFunction*%
%TO.P,U1,7*%
%TO.N,Net-(U1-Pad7)*%
%TA.AperFunction,SMDPad,CuDef*%
G36*
G01*
X180837500Y-69500000D02*
X179962500Y-69500000D01*
G75*
G02*
X179900000Y-69437500I0J62500D01*
G01*
X179900000Y-69312500D01*
G75*
G02*
X179962500Y-69250000I62500J0D01*
G01*
X180837500Y-69250000D01*
G75*
G02*
X180900000Y-69312500I0J-62500D01*
G01*
X180900000Y-69437500D01*
G75*
G02*
X180837500Y-69500000I-62500J0D01*
G01*
G37*
%TD.AperFunction*%
%TO.P,U1,6*%
%TO.N,GND*%
%TA.AperFunction,SMDPad,CuDef*%
G36*
G01*
X180837500Y-70000000D02*
X179962500Y-70000000D01*
G75*
G02*
X179900000Y-69937500I0J62500D01*
G01*
X179900000Y-69812500D01*
G75*
G02*
X179962500Y-69750000I62500J0D01*
G01*
X180837500Y-69750000D01*
G75*
G02*
X180900000Y-69812500I0J-62500D01*
G01*
X180900000Y-69937500D01*
G75*
G02*
X180837500Y-70000000I-62500J0D01*
G01*
G37*
%TD.AperFunction*%
%TO.P,U1,5*%
%TA.AperFunction,SMDPad,CuDef*%
G36*
G01*
X179437500Y-71400000D02*
X179312500Y-71400000D01*
G75*
G02*
X179250000Y-71337500I0J62500D01*
G01*
X179250000Y-70462500D01*
G75*
G02*
X179312500Y-70400000I62500J0D01*
G01*
X179437500Y-70400000D01*
G75*
G02*
X179500000Y-70462500I0J-62500D01*
G01*
X179500000Y-71337500D01*
G75*
G02*
X179437500Y-71400000I-62500J0D01*
G01*
G37*
%TD.AperFunction*%
%TO.P,U1,4*%
%TA.AperFunction,SMDPad,CuDef*%
G36*
G01*
X178937500Y-71400000D02*
X178812500Y-71400000D01*
G75*
G02*
X178750000Y-71337500I0J62500D01*
G01*
X178750000Y-70462500D01*
G75*
G02*
X178812500Y-70400000I62500J0D01*
G01*
X178937500Y-70400000D01*
G75*
G02*
X179000000Y-70462500I0J-62500D01*
G01*
X179000000Y-71337500D01*
G75*
G02*
X178937500Y-71400000I-62500J0D01*
G01*
G37*
%TD.AperFunction*%
%TO.P,U1,3*%
%TA.AperFunction,SMDPad,CuDef*%
G36*
G01*
X178437500Y-71400000D02*
X178312500Y-71400000D01*
G75*
G02*
X178250000Y-71337500I0J62500D01*
G01*
X178250000Y-70462500D01*
G75*
G02*
X178312500Y-70400000I62500J0D01*
G01*
X178437500Y-70400000D01*
G75*
G02*
X178500000Y-70462500I0J-62500D01*
G01*
X178500000Y-71337500D01*
G75*
G02*
X178437500Y-71400000I-62500J0D01*
G01*
G37*
%TD.AperFunction*%
%TO.P,U1,2*%
%TA.AperFunction,SMDPad,CuDef*%
G36*
G01*
X177937500Y-71400000D02*
X177812500Y-71400000D01*
G75*
G02*
X177750000Y-71337500I0J62500D01*
G01*
X177750000Y-70462500D01*
G75*
G02*
X177812500Y-70400000I62500J0D01*
G01*
X177937500Y-70400000D01*
G75*
G02*
X178000000Y-70462500I0J-62500D01*
G01*
X178000000Y-71337500D01*
G75*
G02*
X177937500Y-71400000I-62500J0D01*
G01*
G37*
%TD.AperFunction*%
%TO.P,U1,1*%
%TO.N,TXD*%
%TA.AperFunction,SMDPad,CuDef*%
G36*
G01*
X177437500Y-71400000D02*
X177312500Y-71400000D01*
G75*
G02*
X177250000Y-71337500I0J62500D01*
G01*
X177250000Y-70462500D01*
G75*
G02*
X177312500Y-70400000I62500J0D01*
G01*
X177437500Y-70400000D01*
G75*
G02*
X177500000Y-70462500I0J-62500D01*
G01*
X177500000Y-71337500D01*
G75*
G02*
X177437500Y-71400000I-62500J0D01*
G01*
G37*
%TD.AperFunction*%
%TD*%
%TO.P,C1,2*%
%TO.N,GND*%
%TA.AperFunction,SMDPad,CuDef*%
G36*
G01*
X183650001Y-60537500D02*
X182349999Y-60537500D01*
G75*
G02*
X182100000Y-60287501I0J249999D01*
G01*
X182100000Y-59462499D01*
G75*
G02*
X182349999Y-59212500I249999J0D01*
G01*
X183650001Y-59212500D01*
G75*
G02*
X183900000Y-59462499I0J-249999D01*
G01*
X183900000Y-60287501D01*
G75*
G02*
X183650001Y-60537500I-249999J0D01*
G01*
G37*
%TD.AperFunction*%
%TO.P,C1,1*%
%TO.N,Net-(C1-Pad1)*%
%TA.AperFunction,SMDPad,CuDef*%
G36*
G01*
X183650001Y-63662500D02*
X182349999Y-63662500D01*
G75*
G02*
X182100000Y-63412501I0J249999D01*
G01*
X182100000Y-62587499D01*
G75*
G02*
X182349999Y-62337500I249999J0D01*
G01*
X183650001Y-62337500D01*
G75*
G02*
X183900000Y-62587499I0J-249999D01*
G01*
X183900000Y-63412501D01*
G75*
G02*
X183650001Y-63662500I-249999J0D01*
G01*
G37*
%TD.AperFunction*%
%TD*%
D11*
%TO.P,J2,6*%
%TO.N,TXD*%
X174150000Y-60630000D03*
%TO.P,J2,5*%
%TO.N,RXD*%
X175420000Y-60630000D03*
%TO.P,J2,4*%
%TO.N,+3V3*%
X176690000Y-60630000D03*
%TO.P,J2,3*%
%TO.N,RST*%
X177960000Y-60630000D03*
%TO.P,J2,2*%
%TO.N,GPIO0*%
X179230000Y-60630000D03*
D12*
%TO.P,J2,1*%
%TO.N,GND*%
X180500000Y-60630000D03*
%TD*%
D24*
%TO.P,J1,5*%
%TO.N,TXD*%
X183000000Y-76840000D03*
%TO.P,J1,4*%
%TO.N,RXD*%
X183000000Y-79380000D03*
%TO.P,J1,3*%
%TO.N,Net-(J1-Pad3)*%
X183000000Y-81920000D03*
%TO.P,J1,2*%
%TO.N,GPIO0*%
X183000000Y-84460000D03*
D25*
%TO.P,J1,1*%
%TO.N,GND*%
X183000000Y-87000000D03*
%TD*%
%TO.P,R5,2*%
%TO.N,D+*%
%TA.AperFunction,SMDPad,CuDef*%
G36*
G01*
X183625000Y-70550000D02*
X182375000Y-70550000D01*
G75*
G02*
X182125000Y-70300000I0J250000D01*
G01*
X182125000Y-69500000D01*
G75*
G02*
X182375000Y-69250000I250000J0D01*
G01*
X183625000Y-69250000D01*
G75*
G02*
X183875000Y-69500000I0J-250000D01*
G01*
X183875000Y-70300000D01*
G75*
G02*
X183625000Y-70550000I-250000J0D01*
G01*
G37*
%TD.AperFunction*%
%TO.P,R5,1*%
%TO.N,Net-(J4-PadA6)*%
%TA.AperFunction,SMDPad,CuDef*%
G36*
G01*
X183625000Y-73650000D02*
X182375000Y-73650000D01*
G75*
G02*
X182125000Y-73400000I0J250000D01*
G01*
X182125000Y-72600000D01*
G75*
G02*
X182375000Y-72350000I250000J0D01*
G01*
X183625000Y-72350000D01*
G75*
G02*
X183875000Y-72600000I0J-250000D01*
G01*
X183875000Y-73400000D01*
G75*
G02*
X183625000Y-73650000I-250000J0D01*
G01*
G37*
%TD.AperFunction*%
%TD*%
%TO.P,R4,2*%
%TO.N,D-*%
%TA.AperFunction,SMDPad,CuDef*%
G36*
G01*
X182375000Y-67350000D02*
X183625000Y-67350000D01*
G75*
G02*
X183875000Y-67600000I0J-250000D01*
G01*
X183875000Y-68400000D01*
G75*
G02*
X183625000Y-68650000I-250000J0D01*
G01*
X182375000Y-68650000D01*
G75*
G02*
X182125000Y-68400000I0J250000D01*
G01*
X182125000Y-67600000D01*
G75*
G02*
X182375000Y-67350000I250000J0D01*
G01*
G37*
%TD.AperFunction*%
%TO.P,R4,1*%
%TO.N,Net-(J4-PadA7)*%
%TA.AperFunction,SMDPad,CuDef*%
G36*
G01*
X182375000Y-64250000D02*
X183625000Y-64250000D01*
G75*
G02*
X183875000Y-64500000I0J-250000D01*
G01*
X183875000Y-65300000D01*
G75*
G02*
X183625000Y-65550000I-250000J0D01*
G01*
X182375000Y-65550000D01*
G75*
G02*
X182125000Y-65300000I0J250000D01*
G01*
X182125000Y-64500000D01*
G75*
G02*
X182375000Y-64250000I250000J0D01*
G01*
G37*
%TD.AperFunction*%
%TD*%
D26*
%TO.N,GND*%
X183000000Y-59875000D03*
%TO.N,VBUS*%
X172000000Y-70000000D03*
X177625782Y-65525010D03*
%TO.N,RXD*%
X174650022Y-70425010D03*
%TO.N,+3V3*%
X175694421Y-76419741D03*
X178700000Y-77000000D03*
%TO.N,GPIO0*%
X174799980Y-67962446D03*
%TO.N,TXD*%
X177825288Y-72030379D03*
%TO.N,RST*%
X174735061Y-68969814D03*
X174812539Y-74937859D03*
%TO.N,Net-(C1-Pad1)*%
X179909243Y-66143237D03*
X175932720Y-70126290D03*
%TO.N,Net-(J4-PadA7)*%
X176382343Y-80792338D03*
X175099266Y-79953426D03*
%TO.N,Net-(J4-PadA6)*%
X177600000Y-80000000D03*
X176061745Y-79682025D03*
%TO.N,Net-(J4-PadA5)*%
X174445563Y-80710192D03*
%TO.N,Net-(J4-PadB5)*%
X178719846Y-80970002D03*
%TD*%
D27*
%TO.N,GND*%
X179375000Y-70900000D02*
X179375000Y-69875000D01*
X178875000Y-69375000D02*
X178375000Y-68875000D01*
X178875000Y-70900000D02*
X178875000Y-69375000D01*
X178375000Y-70900000D02*
X178375000Y-68875000D01*
X177875000Y-69375000D02*
X178375000Y-68875000D01*
X177875000Y-70900000D02*
X177875000Y-69375000D01*
X179375000Y-69875000D02*
X178375000Y-68875000D01*
X180400000Y-69875000D02*
X179375000Y-69875000D01*
X178375000Y-66850000D02*
X178375000Y-68875000D01*
X172265000Y-82140000D02*
X171675000Y-82730000D01*
X172800000Y-82140000D02*
X172265000Y-82140000D01*
X172155000Y-83210000D02*
X171675000Y-82730000D01*
X173110000Y-83210000D02*
X172155000Y-83210000D01*
X179845000Y-83210000D02*
X180325000Y-82730000D01*
X178890000Y-83210000D02*
X179845000Y-83210000D01*
X179735000Y-82140000D02*
X180325000Y-82730000D01*
X179200000Y-82140000D02*
X179735000Y-82140000D01*
X175345000Y-86910000D02*
X176000000Y-86255000D01*
X171675000Y-86910000D02*
X175345000Y-86910000D01*
X176655000Y-86910000D02*
X176000000Y-86255000D01*
X180325000Y-86910000D02*
X176655000Y-86910000D01*
X176800000Y-86255000D02*
X176000000Y-86255000D01*
X180325000Y-82730000D02*
X176800000Y-86255000D01*
X180415000Y-87000000D02*
X180325000Y-86910000D01*
X183000000Y-87000000D02*
X180415000Y-87000000D01*
X179375000Y-70900000D02*
X179375000Y-73175000D01*
X173973997Y-61455001D02*
X172475010Y-62953988D01*
X179674999Y-61455001D02*
X173973997Y-61455001D01*
X180500000Y-60630000D02*
X179674999Y-61455001D01*
X172000000Y-65000000D02*
X172475010Y-64524990D01*
X172000000Y-67460000D02*
X172000000Y-65000000D01*
X172475010Y-62953988D02*
X172475010Y-64524990D01*
%TO.N,VBUS*%
X178400000Y-82795002D02*
X178400000Y-82140000D01*
X178160001Y-83035001D02*
X178400000Y-82795002D01*
X173839999Y-83035001D02*
X178160001Y-83035001D01*
X173600000Y-82795002D02*
X173839999Y-83035001D01*
X173600000Y-82140000D02*
X173600000Y-82795002D01*
X173400000Y-80900000D02*
X173600000Y-81100000D01*
X170874990Y-80274990D02*
X171500000Y-80900000D01*
X173600000Y-81100000D02*
X173600000Y-82140000D01*
X171500000Y-80900000D02*
X173400000Y-80900000D01*
X170774990Y-80274990D02*
X170874990Y-80274990D01*
X170774990Y-70725010D02*
X170774990Y-80274990D01*
X171500000Y-70000000D02*
X170774990Y-70725010D01*
X172000000Y-70000000D02*
X171500000Y-70000000D01*
X178412991Y-65525010D02*
X177625782Y-65525010D01*
X178875000Y-66850000D02*
X178875000Y-65987019D01*
X178875000Y-65987019D02*
X178412991Y-65525010D01*
%TO.N,RXD*%
X175524990Y-66461401D02*
X174849991Y-65786401D01*
X174849991Y-65786401D02*
X174849991Y-63070009D01*
X174849991Y-63070009D02*
X175420000Y-62500000D01*
X175524990Y-67224990D02*
X175524990Y-66461401D01*
X175801978Y-68375000D02*
X175524990Y-68098012D01*
X175524990Y-68098012D02*
X175524990Y-67224990D01*
X176350000Y-68375000D02*
X175801978Y-68375000D01*
X174511424Y-67224990D02*
X174000001Y-67736413D01*
X175524990Y-67224990D02*
X174511424Y-67224990D01*
X174000001Y-67736413D02*
X174000001Y-69774989D01*
X174000001Y-69774989D02*
X174650022Y-70425010D01*
%TO.N,+3V3*%
X171750000Y-72600000D02*
X171900000Y-72600000D01*
X171900000Y-72600000D02*
X173500000Y-74200000D01*
X173500000Y-74200000D02*
X173500000Y-75488190D01*
X174105905Y-76094095D02*
X174211820Y-76200010D01*
X175474690Y-76200010D02*
X175694421Y-76419741D01*
X174211820Y-76200010D02*
X175474690Y-76200010D01*
X173500000Y-75488190D02*
X174105905Y-76094095D01*
X178700000Y-77330000D02*
X178800000Y-77430000D01*
X178700000Y-77000000D02*
X178700000Y-77330000D01*
%TO.N,GPIO0*%
X174799980Y-68009412D02*
X174799980Y-67962446D01*
X175615578Y-68825010D02*
X174799980Y-68009412D01*
X176350000Y-68875000D02*
X176300010Y-68825010D01*
X176300010Y-68825010D02*
X175615578Y-68825010D01*
%TO.N,TXD*%
X177375000Y-70900000D02*
X176575000Y-71700000D01*
X176026996Y-71700000D02*
X175726986Y-71399990D01*
X176575000Y-71700000D02*
X176026996Y-71700000D01*
X177375000Y-71580091D02*
X177825288Y-72030379D01*
X177375000Y-70900000D02*
X177375000Y-71580091D01*
X174150000Y-62500000D02*
X174150000Y-63350000D01*
X174150000Y-63350000D02*
X174200000Y-63400000D01*
X173549993Y-70449973D02*
X174500010Y-71399990D01*
X174200000Y-63400000D02*
X174200000Y-66900004D01*
X175726986Y-71399990D02*
X174500010Y-71399990D01*
X173549991Y-67550013D02*
X173549993Y-70449973D01*
X174200000Y-66900004D02*
X173549991Y-67550013D01*
%TO.N,RST*%
X175123971Y-68969814D02*
X174735061Y-68969814D01*
X175800784Y-69375000D02*
X175700805Y-69275021D01*
X175700805Y-69275021D02*
X175429177Y-69275020D01*
X176350000Y-69375000D02*
X175800784Y-69375000D01*
X175429177Y-69275020D02*
X175123971Y-68969814D01*
%TO.N,D-*%
X182625000Y-68375000D02*
X183000000Y-68000000D01*
X180400000Y-68375000D02*
X182625000Y-68375000D01*
%TO.N,D+*%
X181975000Y-68875000D02*
X183000000Y-69900000D01*
X180400000Y-68875000D02*
X181975000Y-68875000D01*
%TO.N,Net-(C1-Pad1)*%
X179375000Y-66850000D02*
X180400000Y-67875000D01*
X179909243Y-66143237D02*
X179443237Y-66143237D01*
X179375000Y-66211474D02*
X179375000Y-66850000D01*
X179443237Y-66143237D02*
X179375000Y-66211474D01*
X183000000Y-63052480D02*
X183000000Y-63000000D01*
X179909243Y-66143237D02*
X183000000Y-63052480D01*
X176350000Y-69875000D02*
X176098710Y-70126290D01*
X176098710Y-70126290D02*
X175932720Y-70126290D01*
%TO.N,Net-(J4-PadA7)*%
X176250000Y-82140000D02*
X176250000Y-80924681D01*
X176250000Y-80924681D02*
X176382343Y-80792338D01*
X175250000Y-81369408D02*
X175207331Y-81326739D01*
X175207331Y-81326739D02*
X175207331Y-80061491D01*
X175207331Y-80061491D02*
X175099266Y-79953426D01*
X175250000Y-82140000D02*
X175250000Y-81369408D01*
X181824999Y-74975001D02*
X182700000Y-74100000D01*
X184225010Y-66125010D02*
X183000000Y-64900000D01*
X183738190Y-74100000D02*
X184225010Y-73613180D01*
X181824999Y-78711412D02*
X181824999Y-74975001D01*
X176382343Y-80792338D02*
X176786747Y-80387934D01*
X177152907Y-79244999D02*
X181291412Y-79244999D01*
X176786747Y-80387934D02*
X176786747Y-79611158D01*
X181291412Y-79244999D02*
X181824999Y-78711412D01*
X184225010Y-73613180D02*
X184225010Y-66125010D01*
X182700000Y-74100000D02*
X183738190Y-74100000D01*
X176786747Y-79611158D02*
X177152907Y-79244999D01*
%TO.N,Net-(J4-PadA6)*%
X177600000Y-80000000D02*
X177600000Y-80600000D01*
X176750000Y-81450000D02*
X176750000Y-82140000D01*
X177600000Y-80600000D02*
X176750000Y-81450000D01*
X175750000Y-82140000D02*
X175750000Y-81232997D01*
X175657342Y-80472041D02*
X176061745Y-80067638D01*
X176061745Y-80067638D02*
X176061745Y-79682025D01*
X175657342Y-81140339D02*
X175657342Y-80472041D01*
X175750000Y-81232997D02*
X175657342Y-81140339D01*
X176871885Y-78871885D02*
X176061745Y-79682025D01*
X176948782Y-78794988D02*
X176871885Y-78871885D01*
X181105012Y-78794988D02*
X176948782Y-78794988D01*
X181374988Y-78525012D02*
X181105012Y-78794988D01*
X181374988Y-74625012D02*
X181374988Y-78525012D01*
X183000000Y-73000000D02*
X181374988Y-74625012D01*
%TO.N,Net-(J4-PadA5)*%
X174750000Y-82140000D02*
X174750000Y-81014629D01*
X174750000Y-81014629D02*
X174445563Y-80710192D01*
%TO.N,Net-(J4-PadB5)*%
X177750000Y-82140000D02*
X177750000Y-81374163D01*
X177750000Y-81374163D02*
X178154161Y-80970002D01*
X178154161Y-80970002D02*
X178719846Y-80970002D01*
%TO.N,Net-(D1-Pad2)*%
X170850000Y-62462500D02*
X171500000Y-62462500D01*
X170400000Y-68600000D02*
X170400000Y-62912500D01*
X172999978Y-69874979D02*
X171972001Y-68847001D01*
X171972001Y-68847001D02*
X170647001Y-68847001D01*
X172999978Y-71399978D02*
X172999978Y-69874979D01*
X174200000Y-72600000D02*
X172999978Y-71399978D01*
X170647001Y-68847001D02*
X170400000Y-68600000D01*
X170400000Y-62912500D02*
X170850000Y-62462500D01*
X174850000Y-72600000D02*
X174200000Y-72600000D01*
%TO.N,Net-(D1-Pad1)*%
X172562500Y-60537500D02*
X171500000Y-60537500D01*
X181255002Y-59800000D02*
X173300000Y-59800000D01*
X173300000Y-59800000D02*
X172562500Y-60537500D01*
X181325001Y-63974999D02*
X181325001Y-59869999D01*
X180500000Y-64800000D02*
X181325001Y-63974999D01*
X176625000Y-64975000D02*
X176800000Y-64800000D01*
X176800000Y-64800000D02*
X180500000Y-64800000D01*
X181325001Y-59869999D02*
X181255002Y-59800000D01*
X176625000Y-66100000D02*
X176625000Y-64975000D01*
X177375000Y-66850000D02*
X176625000Y-66100000D01*
%TO.N,Net-(J1-Pad3)*%
X181050000Y-79970000D02*
X183000000Y-81920000D01*
X178800000Y-79970000D02*
X181050000Y-79970000D01*
%TO.N,Net-(R6-Pad1)*%
X171750000Y-76380000D02*
X172800000Y-77430000D01*
X171750000Y-75000000D02*
X171750000Y-76380000D01*
%TD*%
D28*
%TO.N,GND*%
X183127000Y-86873000D02*
X183147000Y-86873000D01*
X183147000Y-87127000D01*
X183127000Y-87127000D01*
X183127000Y-87147000D01*
X182873000Y-87147000D01*
X182873000Y-87127000D01*
X182853000Y-87127000D01*
X182853000Y-86873000D01*
X182873000Y-86873000D01*
X182873000Y-86853000D01*
X183127000Y-86853000D01*
X183127000Y-86873000D01*
%TA.AperFunction,Conductor*%
D29*
G36*
X183127000Y-86873000D02*
G01*
X183147000Y-86873000D01*
X183147000Y-87127000D01*
X183127000Y-87127000D01*
X183127000Y-87147000D01*
X182873000Y-87147000D01*
X182873000Y-87127000D01*
X182853000Y-87127000D01*
X182853000Y-86873000D01*
X182873000Y-86873000D01*
X182873000Y-86853000D01*
X183127000Y-86853000D01*
X183127000Y-86873000D01*
G37*
%TD.AperFunction*%
D28*
X181558790Y-81553592D02*
X181515000Y-81773740D01*
X181515000Y-81793963D01*
X181460413Y-81774192D01*
X180504605Y-82730000D01*
X181460413Y-83685808D01*
X181724814Y-83590044D01*
X181865704Y-83300429D01*
X181947384Y-82988892D01*
X181948598Y-82968705D01*
X182053368Y-83073475D01*
X182227760Y-83190000D01*
X182053368Y-83306525D01*
X181846525Y-83513368D01*
X181684010Y-83756589D01*
X181572068Y-84026842D01*
X181515000Y-84313740D01*
X181515000Y-84606260D01*
X181572068Y-84893158D01*
X181684010Y-85163411D01*
X181846525Y-85406632D01*
X181978380Y-85538487D01*
X181905820Y-85560498D01*
X181795506Y-85619463D01*
X181698815Y-85698815D01*
X181619463Y-85795506D01*
X181560498Y-85905820D01*
X181524188Y-86025518D01*
X181515691Y-86111794D01*
X181353397Y-86061208D01*
X180805086Y-86609519D01*
X180805000Y-86540750D01*
X180659823Y-86395573D01*
X181173792Y-85881603D01*
X181096157Y-85632528D01*
X180832117Y-85506629D01*
X180805586Y-85499895D01*
X180807094Y-84293269D01*
X181011088Y-84222795D01*
X181185044Y-84129814D01*
X181280808Y-83865413D01*
X180793591Y-83378196D01*
X180759502Y-83265820D01*
X180700537Y-83155506D01*
X180621185Y-83058815D01*
X180524494Y-82979463D01*
X180414180Y-82920498D01*
X180294482Y-82884188D01*
X180268765Y-82881655D01*
X180134399Y-82747289D01*
X180135087Y-82740308D01*
X180145395Y-82730000D01*
X180136935Y-82721540D01*
X180138072Y-82710000D01*
X180138062Y-82709048D01*
X180310858Y-82536253D01*
X180325000Y-82550395D01*
X181280808Y-81594587D01*
X181185044Y-81330186D01*
X180895429Y-81189296D01*
X180583892Y-81107616D01*
X180262405Y-81088282D01*
X179960145Y-81129732D01*
X179951185Y-81118815D01*
X179854494Y-81039463D01*
X179754846Y-80986199D01*
X179754846Y-80900248D01*
X179851185Y-80821185D01*
X179926018Y-80730000D01*
X180735199Y-80730000D01*
X181558790Y-81553592D01*
%TA.AperFunction,Conductor*%
D29*
G36*
X181558790Y-81553592D02*
G01*
X181515000Y-81773740D01*
X181515000Y-81793963D01*
X181460413Y-81774192D01*
X180504605Y-82730000D01*
X181460413Y-83685808D01*
X181724814Y-83590044D01*
X181865704Y-83300429D01*
X181947384Y-82988892D01*
X181948598Y-82968705D01*
X182053368Y-83073475D01*
X182227760Y-83190000D01*
X182053368Y-83306525D01*
X181846525Y-83513368D01*
X181684010Y-83756589D01*
X181572068Y-84026842D01*
X181515000Y-84313740D01*
X181515000Y-84606260D01*
X181572068Y-84893158D01*
X181684010Y-85163411D01*
X181846525Y-85406632D01*
X181978380Y-85538487D01*
X181905820Y-85560498D01*
X181795506Y-85619463D01*
X181698815Y-85698815D01*
X181619463Y-85795506D01*
X181560498Y-85905820D01*
X181524188Y-86025518D01*
X181515691Y-86111794D01*
X181353397Y-86061208D01*
X180805086Y-86609519D01*
X180805000Y-86540750D01*
X180659823Y-86395573D01*
X181173792Y-85881603D01*
X181096157Y-85632528D01*
X180832117Y-85506629D01*
X180805586Y-85499895D01*
X180807094Y-84293269D01*
X181011088Y-84222795D01*
X181185044Y-84129814D01*
X181280808Y-83865413D01*
X180793591Y-83378196D01*
X180759502Y-83265820D01*
X180700537Y-83155506D01*
X180621185Y-83058815D01*
X180524494Y-82979463D01*
X180414180Y-82920498D01*
X180294482Y-82884188D01*
X180268765Y-82881655D01*
X180134399Y-82747289D01*
X180135087Y-82740308D01*
X180145395Y-82730000D01*
X180136935Y-82721540D01*
X180138072Y-82710000D01*
X180138062Y-82709048D01*
X180310858Y-82536253D01*
X180325000Y-82550395D01*
X181280808Y-81594587D01*
X181185044Y-81330186D01*
X180895429Y-81189296D01*
X180583892Y-81107616D01*
X180262405Y-81088282D01*
X179960145Y-81129732D01*
X179951185Y-81118815D01*
X179854494Y-81039463D01*
X179754846Y-80986199D01*
X179754846Y-80900248D01*
X179851185Y-80821185D01*
X179926018Y-80730000D01*
X180735199Y-80730000D01*
X181558790Y-81553592D01*
G37*
%TD.AperFunction*%
D28*
X176127000Y-86128000D02*
X179082315Y-86128000D01*
X179047528Y-86138843D01*
X178931586Y-86382000D01*
X176127000Y-86382000D01*
X176127000Y-86402000D01*
X175873000Y-86402000D01*
X175873000Y-86382000D01*
X173063381Y-86382000D01*
X173025919Y-86276253D01*
X172952472Y-86138843D01*
X172917685Y-86128000D01*
X175873000Y-86128000D01*
X175873000Y-86108000D01*
X176127000Y-86108000D01*
X176127000Y-86128000D01*
%TA.AperFunction,Conductor*%
D29*
G36*
X176127000Y-86128000D02*
G01*
X179082315Y-86128000D01*
X179047528Y-86138843D01*
X178931586Y-86382000D01*
X176127000Y-86382000D01*
X176127000Y-86402000D01*
X175873000Y-86402000D01*
X175873000Y-86382000D01*
X173063381Y-86382000D01*
X173025919Y-86276253D01*
X172952472Y-86138843D01*
X172917685Y-86128000D01*
X175873000Y-86128000D01*
X175873000Y-86108000D01*
X176127000Y-86108000D01*
X176127000Y-86128000D01*
G37*
%TD.AperFunction*%
D28*
X171861938Y-82709048D02*
X171861928Y-82710000D01*
X171863065Y-82721540D01*
X171854605Y-82730000D01*
X171864913Y-82740308D01*
X171865601Y-82747289D01*
X171731235Y-82881655D01*
X171705518Y-82884188D01*
X171640900Y-82903790D01*
X171481253Y-82744143D01*
X171495395Y-82730000D01*
X171481253Y-82715858D01*
X171660858Y-82536253D01*
X171675000Y-82550395D01*
X171689143Y-82536253D01*
X171861938Y-82709048D01*
%TA.AperFunction,Conductor*%
D29*
G36*
X171861938Y-82709048D02*
G01*
X171861928Y-82710000D01*
X171863065Y-82721540D01*
X171854605Y-82730000D01*
X171864913Y-82740308D01*
X171865601Y-82747289D01*
X171731235Y-82881655D01*
X171705518Y-82884188D01*
X171640900Y-82903790D01*
X171481253Y-82744143D01*
X171495395Y-82730000D01*
X171481253Y-82715858D01*
X171660858Y-82536253D01*
X171675000Y-82550395D01*
X171689143Y-82536253D01*
X171861938Y-82709048D01*
G37*
%TD.AperFunction*%
D28*
X181486928Y-70300000D02*
X181503992Y-70473254D01*
X181554528Y-70639850D01*
X181636595Y-70793386D01*
X181747038Y-70927962D01*
X181881614Y-71038405D01*
X182035150Y-71120472D01*
X182201746Y-71171008D01*
X182375000Y-71188072D01*
X183465010Y-71188072D01*
X183465010Y-71711928D01*
X182375000Y-71711928D01*
X182201746Y-71728992D01*
X182035150Y-71779528D01*
X181881614Y-71861595D01*
X181747038Y-71972038D01*
X181636595Y-72106614D01*
X181554528Y-72260150D01*
X181503992Y-72426746D01*
X181486928Y-72600000D01*
X181486928Y-73400000D01*
X181490359Y-73434839D01*
X180863991Y-74061208D01*
X180834987Y-74085011D01*
X180802840Y-74124183D01*
X180740014Y-74200736D01*
X180714224Y-74248986D01*
X180669442Y-74332766D01*
X180625985Y-74476027D01*
X180614988Y-74587680D01*
X180614988Y-74587690D01*
X180611312Y-74625012D01*
X180614988Y-74662335D01*
X180614989Y-78034988D01*
X180001391Y-78034988D01*
X180025812Y-77954482D01*
X180038072Y-77830000D01*
X180038072Y-77030000D01*
X180025812Y-76905518D01*
X179989502Y-76785820D01*
X179930537Y-76675506D01*
X179851185Y-76578815D01*
X179754494Y-76499463D01*
X179644180Y-76440498D01*
X179552317Y-76412632D01*
X179503937Y-76340226D01*
X179359774Y-76196063D01*
X179190256Y-76082795D01*
X179001898Y-76004774D01*
X178801939Y-75965000D01*
X178598061Y-75965000D01*
X178398102Y-76004774D01*
X178209744Y-76082795D01*
X178040226Y-76196063D01*
X177896063Y-76340226D01*
X177782795Y-76509744D01*
X177756950Y-76572139D01*
X177748815Y-76578815D01*
X177669463Y-76675506D01*
X177610498Y-76785820D01*
X177574188Y-76905518D01*
X177561928Y-77030000D01*
X177561928Y-77830000D01*
X177574188Y-77954482D01*
X177598609Y-78034988D01*
X176986107Y-78034988D01*
X176948782Y-78031312D01*
X176911457Y-78034988D01*
X176911449Y-78034988D01*
X176799796Y-78045985D01*
X176656535Y-78089442D01*
X176524506Y-78160014D01*
X176408781Y-78254987D01*
X176384978Y-78283991D01*
X176360888Y-78308081D01*
X176360882Y-78308086D01*
X176021943Y-78647025D01*
X175959806Y-78647025D01*
X175759847Y-78686799D01*
X175571489Y-78764820D01*
X175401971Y-78878088D01*
X175335016Y-78945043D01*
X175201205Y-78918426D01*
X174997327Y-78918426D01*
X174797368Y-78958200D01*
X174609010Y-79036221D01*
X174439492Y-79149489D01*
X174295329Y-79293652D01*
X174182061Y-79463170D01*
X174104040Y-79651528D01*
X174086731Y-79738549D01*
X173955307Y-79792987D01*
X173880460Y-79842998D01*
X173876252Y-79842998D01*
X174035000Y-79684250D01*
X174038072Y-79570000D01*
X174025812Y-79445518D01*
X173989502Y-79325820D01*
X173930537Y-79215506D01*
X173851185Y-79118815D01*
X173754494Y-79039463D01*
X173644180Y-78980498D01*
X173524482Y-78944188D01*
X173400000Y-78931928D01*
X173085750Y-78935000D01*
X172927000Y-79093750D01*
X172927000Y-79843000D01*
X172947000Y-79843000D01*
X172947000Y-80097000D01*
X172927000Y-80097000D01*
X172927000Y-80117000D01*
X172673000Y-80117000D01*
X172673000Y-80097000D01*
X172653000Y-80097000D01*
X172653000Y-79843000D01*
X172673000Y-79843000D01*
X172673000Y-79093750D01*
X172514250Y-78935000D01*
X172200000Y-78931928D01*
X172075518Y-78944188D01*
X171955820Y-78980498D01*
X171845506Y-79039463D01*
X171748815Y-79118815D01*
X171669463Y-79215506D01*
X171610498Y-79325820D01*
X171574188Y-79445518D01*
X171561928Y-79570000D01*
X171565000Y-79684250D01*
X171723748Y-79842998D01*
X171565000Y-79842998D01*
X171565000Y-79890199D01*
X171534990Y-79860189D01*
X171534990Y-77239791D01*
X171561928Y-77266729D01*
X171561928Y-77830000D01*
X171574188Y-77954482D01*
X171610498Y-78074180D01*
X171669463Y-78184494D01*
X171748815Y-78281185D01*
X171845506Y-78360537D01*
X171955820Y-78419502D01*
X172075518Y-78455812D01*
X172200000Y-78468072D01*
X173400000Y-78468072D01*
X173524482Y-78455812D01*
X173644180Y-78419502D01*
X173754494Y-78360537D01*
X173851185Y-78281185D01*
X173930537Y-78184494D01*
X173989502Y-78074180D01*
X174025812Y-77954482D01*
X174038072Y-77830000D01*
X174038072Y-77030000D01*
X174029088Y-76938776D01*
X174062834Y-76949013D01*
X174174487Y-76960010D01*
X174174497Y-76960010D01*
X174211819Y-76963686D01*
X174249142Y-76960010D01*
X174810634Y-76960010D01*
X174890484Y-77079515D01*
X175034647Y-77223678D01*
X175204165Y-77336946D01*
X175392523Y-77414967D01*
X175592482Y-77454741D01*
X175796360Y-77454741D01*
X175996319Y-77414967D01*
X176184677Y-77336946D01*
X176354195Y-77223678D01*
X176498358Y-77079515D01*
X176611626Y-76909997D01*
X176689647Y-76721639D01*
X176729421Y-76521680D01*
X176729421Y-76317802D01*
X176689647Y-76117843D01*
X176611626Y-75929485D01*
X176498358Y-75759967D01*
X176354195Y-75615804D01*
X176184677Y-75502536D01*
X176138072Y-75483231D01*
X176138072Y-74375000D01*
X176121008Y-74201746D01*
X176070472Y-74035150D01*
X175988405Y-73881614D01*
X175921427Y-73800000D01*
X175988405Y-73718386D01*
X176070472Y-73564850D01*
X176121008Y-73398254D01*
X176138072Y-73225000D01*
X176138072Y-72460000D01*
X176537678Y-72460000D01*
X176575000Y-72463676D01*
X176612322Y-72460000D01*
X176612333Y-72460000D01*
X176723986Y-72449003D01*
X176861174Y-72407388D01*
X176908083Y-72520635D01*
X177021351Y-72690153D01*
X177165514Y-72834316D01*
X177335032Y-72947584D01*
X177523390Y-73025605D01*
X177723349Y-73065379D01*
X177927227Y-73065379D01*
X178127186Y-73025605D01*
X178315544Y-72947584D01*
X178485062Y-72834316D01*
X178629225Y-72690153D01*
X178742493Y-72520635D01*
X178820514Y-72332277D01*
X178860288Y-72132318D01*
X178860288Y-71928440D01*
X178859844Y-71926209D01*
X178865367Y-71923109D01*
X178875000Y-71914865D01*
X178884633Y-71923109D01*
X178969498Y-71970748D01*
X179033750Y-72035000D01*
X179125000Y-72024529D01*
X179216250Y-72035000D01*
X179280502Y-71970748D01*
X179365367Y-71923109D01*
X179395807Y-71897057D01*
X179533750Y-72035000D01*
X179637371Y-72023109D01*
X179756294Y-71984337D01*
X179865367Y-71923109D01*
X179960400Y-71841777D01*
X180037740Y-71743469D01*
X180094415Y-71631962D01*
X180106885Y-71587576D01*
X180150518Y-71600812D01*
X180275000Y-71613072D01*
X180475000Y-71613072D01*
X180599482Y-71600812D01*
X180677980Y-71577000D01*
X180950000Y-71577000D01*
X180974776Y-71574560D01*
X180998601Y-71567333D01*
X181020557Y-71555597D01*
X181039803Y-71539803D01*
X181055597Y-71520557D01*
X181067333Y-71498601D01*
X181074560Y-71474776D01*
X181077000Y-71450000D01*
X181077000Y-71177980D01*
X181100812Y-71099482D01*
X181113072Y-70975000D01*
X181113072Y-70775000D01*
X181100812Y-70650518D01*
X181087576Y-70606885D01*
X181131962Y-70594415D01*
X181243469Y-70537740D01*
X181341777Y-70460400D01*
X181423109Y-70365367D01*
X181484337Y-70256294D01*
X181486928Y-70248347D01*
X181486928Y-70300000D01*
%TA.AperFunction,Conductor*%
D29*
G36*
X181486928Y-70300000D02*
G01*
X181503992Y-70473254D01*
X181554528Y-70639850D01*
X181636595Y-70793386D01*
X181747038Y-70927962D01*
X181881614Y-71038405D01*
X182035150Y-71120472D01*
X182201746Y-71171008D01*
X182375000Y-71188072D01*
X183465010Y-71188072D01*
X183465010Y-71711928D01*
X182375000Y-71711928D01*
X182201746Y-71728992D01*
X182035150Y-71779528D01*
X181881614Y-71861595D01*
X181747038Y-71972038D01*
X181636595Y-72106614D01*
X181554528Y-72260150D01*
X181503992Y-72426746D01*
X181486928Y-72600000D01*
X181486928Y-73400000D01*
X181490359Y-73434839D01*
X180863991Y-74061208D01*
X180834987Y-74085011D01*
X180802840Y-74124183D01*
X180740014Y-74200736D01*
X180714224Y-74248986D01*
X180669442Y-74332766D01*
X180625985Y-74476027D01*
X180614988Y-74587680D01*
X180614988Y-74587690D01*
X180611312Y-74625012D01*
X180614988Y-74662335D01*
X180614989Y-78034988D01*
X180001391Y-78034988D01*
X180025812Y-77954482D01*
X180038072Y-77830000D01*
X180038072Y-77030000D01*
X180025812Y-76905518D01*
X179989502Y-76785820D01*
X179930537Y-76675506D01*
X179851185Y-76578815D01*
X179754494Y-76499463D01*
X179644180Y-76440498D01*
X179552317Y-76412632D01*
X179503937Y-76340226D01*
X179359774Y-76196063D01*
X179190256Y-76082795D01*
X179001898Y-76004774D01*
X178801939Y-75965000D01*
X178598061Y-75965000D01*
X178398102Y-76004774D01*
X178209744Y-76082795D01*
X178040226Y-76196063D01*
X177896063Y-76340226D01*
X177782795Y-76509744D01*
X177756950Y-76572139D01*
X177748815Y-76578815D01*
X177669463Y-76675506D01*
X177610498Y-76785820D01*
X177574188Y-76905518D01*
X177561928Y-77030000D01*
X177561928Y-77830000D01*
X177574188Y-77954482D01*
X177598609Y-78034988D01*
X176986107Y-78034988D01*
X176948782Y-78031312D01*
X176911457Y-78034988D01*
X176911449Y-78034988D01*
X176799796Y-78045985D01*
X176656535Y-78089442D01*
X176524506Y-78160014D01*
X176408781Y-78254987D01*
X176384978Y-78283991D01*
X176360888Y-78308081D01*
X176360882Y-78308086D01*
X176021943Y-78647025D01*
X175959806Y-78647025D01*
X175759847Y-78686799D01*
X175571489Y-78764820D01*
X175401971Y-78878088D01*
X175335016Y-78945043D01*
X175201205Y-78918426D01*
X174997327Y-78918426D01*
X174797368Y-78958200D01*
X174609010Y-79036221D01*
X174439492Y-79149489D01*
X174295329Y-79293652D01*
X174182061Y-79463170D01*
X174104040Y-79651528D01*
X174086731Y-79738549D01*
X173955307Y-79792987D01*
X173880460Y-79842998D01*
X173876252Y-79842998D01*
X174035000Y-79684250D01*
X174038072Y-79570000D01*
X174025812Y-79445518D01*
X173989502Y-79325820D01*
X173930537Y-79215506D01*
X173851185Y-79118815D01*
X173754494Y-79039463D01*
X173644180Y-78980498D01*
X173524482Y-78944188D01*
X173400000Y-78931928D01*
X173085750Y-78935000D01*
X172927000Y-79093750D01*
X172927000Y-79843000D01*
X172947000Y-79843000D01*
X172947000Y-80097000D01*
X172927000Y-80097000D01*
X172927000Y-80117000D01*
X172673000Y-80117000D01*
X172673000Y-80097000D01*
X172653000Y-80097000D01*
X172653000Y-79843000D01*
X172673000Y-79843000D01*
X172673000Y-79093750D01*
X172514250Y-78935000D01*
X172200000Y-78931928D01*
X172075518Y-78944188D01*
X171955820Y-78980498D01*
X171845506Y-79039463D01*
X171748815Y-79118815D01*
X171669463Y-79215506D01*
X171610498Y-79325820D01*
X171574188Y-79445518D01*
X171561928Y-79570000D01*
X171565000Y-79684250D01*
X171723748Y-79842998D01*
X171565000Y-79842998D01*
X171565000Y-79890199D01*
X171534990Y-79860189D01*
X171534990Y-77239791D01*
X171561928Y-77266729D01*
X171561928Y-77830000D01*
X171574188Y-77954482D01*
X171610498Y-78074180D01*
X171669463Y-78184494D01*
X171748815Y-78281185D01*
X171845506Y-78360537D01*
X171955820Y-78419502D01*
X172075518Y-78455812D01*
X172200000Y-78468072D01*
X173400000Y-78468072D01*
X173524482Y-78455812D01*
X173644180Y-78419502D01*
X173754494Y-78360537D01*
X173851185Y-78281185D01*
X173930537Y-78184494D01*
X173989502Y-78074180D01*
X174025812Y-77954482D01*
X174038072Y-77830000D01*
X174038072Y-77030000D01*
X174029088Y-76938776D01*
X174062834Y-76949013D01*
X174174487Y-76960010D01*
X174174497Y-76960010D01*
X174211819Y-76963686D01*
X174249142Y-76960010D01*
X174810634Y-76960010D01*
X174890484Y-77079515D01*
X175034647Y-77223678D01*
X175204165Y-77336946D01*
X175392523Y-77414967D01*
X175592482Y-77454741D01*
X175796360Y-77454741D01*
X175996319Y-77414967D01*
X176184677Y-77336946D01*
X176354195Y-77223678D01*
X176498358Y-77079515D01*
X176611626Y-76909997D01*
X176689647Y-76721639D01*
X176729421Y-76521680D01*
X176729421Y-76317802D01*
X176689647Y-76117843D01*
X176611626Y-75929485D01*
X176498358Y-75759967D01*
X176354195Y-75615804D01*
X176184677Y-75502536D01*
X176138072Y-75483231D01*
X176138072Y-74375000D01*
X176121008Y-74201746D01*
X176070472Y-74035150D01*
X175988405Y-73881614D01*
X175921427Y-73800000D01*
X175988405Y-73718386D01*
X176070472Y-73564850D01*
X176121008Y-73398254D01*
X176138072Y-73225000D01*
X176138072Y-72460000D01*
X176537678Y-72460000D01*
X176575000Y-72463676D01*
X176612322Y-72460000D01*
X176612333Y-72460000D01*
X176723986Y-72449003D01*
X176861174Y-72407388D01*
X176908083Y-72520635D01*
X177021351Y-72690153D01*
X177165514Y-72834316D01*
X177335032Y-72947584D01*
X177523390Y-73025605D01*
X177723349Y-73065379D01*
X177927227Y-73065379D01*
X178127186Y-73025605D01*
X178315544Y-72947584D01*
X178485062Y-72834316D01*
X178629225Y-72690153D01*
X178742493Y-72520635D01*
X178820514Y-72332277D01*
X178860288Y-72132318D01*
X178860288Y-71928440D01*
X178859844Y-71926209D01*
X178865367Y-71923109D01*
X178875000Y-71914865D01*
X178884633Y-71923109D01*
X178969498Y-71970748D01*
X179033750Y-72035000D01*
X179125000Y-72024529D01*
X179216250Y-72035000D01*
X179280502Y-71970748D01*
X179365367Y-71923109D01*
X179395807Y-71897057D01*
X179533750Y-72035000D01*
X179637371Y-72023109D01*
X179756294Y-71984337D01*
X179865367Y-71923109D01*
X179960400Y-71841777D01*
X180037740Y-71743469D01*
X180094415Y-71631962D01*
X180106885Y-71587576D01*
X180150518Y-71600812D01*
X180275000Y-71613072D01*
X180475000Y-71613072D01*
X180599482Y-71600812D01*
X180677980Y-71577000D01*
X180950000Y-71577000D01*
X180974776Y-71574560D01*
X180998601Y-71567333D01*
X181020557Y-71555597D01*
X181039803Y-71539803D01*
X181055597Y-71520557D01*
X181067333Y-71498601D01*
X181074560Y-71474776D01*
X181077000Y-71450000D01*
X181077000Y-71177980D01*
X181100812Y-71099482D01*
X181113072Y-70975000D01*
X181113072Y-70775000D01*
X181100812Y-70650518D01*
X181087576Y-70606885D01*
X181131962Y-70594415D01*
X181243469Y-70537740D01*
X181341777Y-70460400D01*
X181423109Y-70365367D01*
X181484337Y-70256294D01*
X181486928Y-70248347D01*
X181486928Y-70300000D01*
G37*
%TD.AperFunction*%
D28*
X173144176Y-61167624D02*
X173268388Y-61353520D01*
X173426480Y-61511612D01*
X173506381Y-61565000D01*
X173426480Y-61618388D01*
X173268388Y-61776480D01*
X173144176Y-61962376D01*
X173058617Y-62168933D01*
X173015000Y-62388212D01*
X173015000Y-62611788D01*
X173058617Y-62831067D01*
X173144176Y-63037624D01*
X173268388Y-63223520D01*
X173387090Y-63342222D01*
X173386324Y-63350000D01*
X173390000Y-63387322D01*
X173390000Y-63387333D01*
X173400998Y-63498986D01*
X173410569Y-63530537D01*
X173440000Y-63627563D01*
X173440001Y-66585201D01*
X173393539Y-66631664D01*
X173387812Y-66573518D01*
X173351502Y-66453820D01*
X173292537Y-66343506D01*
X173213185Y-66246815D01*
X173116494Y-66167463D01*
X173006180Y-66108498D01*
X172886482Y-66072188D01*
X172762000Y-66059928D01*
X172285750Y-66063000D01*
X172127000Y-66221750D01*
X172127000Y-67333000D01*
X172147000Y-67333000D01*
X172147000Y-67587000D01*
X172127000Y-67587000D01*
X172127000Y-67607000D01*
X171873000Y-67607000D01*
X171873000Y-67587000D01*
X171853000Y-67587000D01*
X171853000Y-67333000D01*
X171873000Y-67333000D01*
X171873000Y-66221750D01*
X171714250Y-66063000D01*
X171238000Y-66059928D01*
X171160000Y-66067610D01*
X171160000Y-63763072D01*
X171900000Y-63763072D01*
X172073254Y-63746008D01*
X172239850Y-63695472D01*
X172393386Y-63613405D01*
X172527962Y-63502962D01*
X172638405Y-63368386D01*
X172720472Y-63214850D01*
X172771008Y-63048254D01*
X172788072Y-62875000D01*
X172788072Y-62050000D01*
X172771008Y-61876746D01*
X172720472Y-61710150D01*
X172638405Y-61556614D01*
X172591943Y-61500000D01*
X172638405Y-61443386D01*
X172720472Y-61289850D01*
X172722501Y-61283162D01*
X172854747Y-61243046D01*
X172986776Y-61172474D01*
X173102501Y-61077501D01*
X173105388Y-61073983D01*
X173144176Y-61167624D01*
%TA.AperFunction,Conductor*%
D29*
G36*
X173144176Y-61167624D02*
G01*
X173268388Y-61353520D01*
X173426480Y-61511612D01*
X173506381Y-61565000D01*
X173426480Y-61618388D01*
X173268388Y-61776480D01*
X173144176Y-61962376D01*
X173058617Y-62168933D01*
X173015000Y-62388212D01*
X173015000Y-62611788D01*
X173058617Y-62831067D01*
X173144176Y-63037624D01*
X173268388Y-63223520D01*
X173387090Y-63342222D01*
X173386324Y-63350000D01*
X173390000Y-63387322D01*
X173390000Y-63387333D01*
X173400998Y-63498986D01*
X173410569Y-63530537D01*
X173440000Y-63627563D01*
X173440001Y-66585201D01*
X173393539Y-66631664D01*
X173387812Y-66573518D01*
X173351502Y-66453820D01*
X173292537Y-66343506D01*
X173213185Y-66246815D01*
X173116494Y-66167463D01*
X173006180Y-66108498D01*
X172886482Y-66072188D01*
X172762000Y-66059928D01*
X172285750Y-66063000D01*
X172127000Y-66221750D01*
X172127000Y-67333000D01*
X172147000Y-67333000D01*
X172147000Y-67587000D01*
X172127000Y-67587000D01*
X172127000Y-67607000D01*
X171873000Y-67607000D01*
X171873000Y-67587000D01*
X171853000Y-67587000D01*
X171853000Y-67333000D01*
X171873000Y-67333000D01*
X171873000Y-66221750D01*
X171714250Y-66063000D01*
X171238000Y-66059928D01*
X171160000Y-66067610D01*
X171160000Y-63763072D01*
X171900000Y-63763072D01*
X172073254Y-63746008D01*
X172239850Y-63695472D01*
X172393386Y-63613405D01*
X172527962Y-63502962D01*
X172638405Y-63368386D01*
X172720472Y-63214850D01*
X172771008Y-63048254D01*
X172788072Y-62875000D01*
X172788072Y-62050000D01*
X172771008Y-61876746D01*
X172720472Y-61710150D01*
X172638405Y-61556614D01*
X172591943Y-61500000D01*
X172638405Y-61443386D01*
X172720472Y-61289850D01*
X172722501Y-61283162D01*
X172854747Y-61243046D01*
X172986776Y-61172474D01*
X173102501Y-61077501D01*
X173105388Y-61073983D01*
X173144176Y-61167624D01*
G37*
%TD.AperFunction*%
D28*
X180565001Y-63660197D02*
X180185199Y-64040000D01*
X176837322Y-64040000D01*
X176799999Y-64036324D01*
X176762676Y-64040000D01*
X176762667Y-64040000D01*
X176651014Y-64050997D01*
X176507753Y-64094454D01*
X176375724Y-64165026D01*
X176259999Y-64259999D01*
X176236200Y-64288998D01*
X176113997Y-64411202D01*
X176085000Y-64434999D01*
X176061202Y-64463997D01*
X176061201Y-64463998D01*
X175990026Y-64550724D01*
X175919454Y-64682754D01*
X175875998Y-64826015D01*
X175861324Y-64975000D01*
X175865001Y-65012332D01*
X175865000Y-65726609D01*
X175609991Y-65471599D01*
X175609991Y-63619445D01*
X175751067Y-63591383D01*
X175957624Y-63505824D01*
X176055000Y-63440759D01*
X176152376Y-63505824D01*
X176358933Y-63591383D01*
X176578212Y-63635000D01*
X176801788Y-63635000D01*
X177021067Y-63591383D01*
X177227624Y-63505824D01*
X177325000Y-63440759D01*
X177422376Y-63505824D01*
X177628933Y-63591383D01*
X177848212Y-63635000D01*
X178071788Y-63635000D01*
X178291067Y-63591383D01*
X178497624Y-63505824D01*
X178595000Y-63440759D01*
X178692376Y-63505824D01*
X178898933Y-63591383D01*
X179118212Y-63635000D01*
X179341788Y-63635000D01*
X179561067Y-63591383D01*
X179672774Y-63545112D01*
X179755820Y-63589502D01*
X179875518Y-63625812D01*
X180000000Y-63638072D01*
X180214250Y-63635000D01*
X180373000Y-63476250D01*
X180373000Y-62627000D01*
X180361974Y-62627000D01*
X180365000Y-62611788D01*
X180365000Y-62388212D01*
X180361974Y-62373000D01*
X180373000Y-62373000D01*
X180373000Y-60757000D01*
X180361974Y-60757000D01*
X180365000Y-60741788D01*
X180365000Y-60560000D01*
X180565002Y-60560000D01*
X180565001Y-63660197D01*
%TA.AperFunction,Conductor*%
D29*
G36*
X180565001Y-63660197D02*
G01*
X180185199Y-64040000D01*
X176837322Y-64040000D01*
X176799999Y-64036324D01*
X176762676Y-64040000D01*
X176762667Y-64040000D01*
X176651014Y-64050997D01*
X176507753Y-64094454D01*
X176375724Y-64165026D01*
X176259999Y-64259999D01*
X176236200Y-64288998D01*
X176113997Y-64411202D01*
X176085000Y-64434999D01*
X176061202Y-64463997D01*
X176061201Y-64463998D01*
X175990026Y-64550724D01*
X175919454Y-64682754D01*
X175875998Y-64826015D01*
X175861324Y-64975000D01*
X175865001Y-65012332D01*
X175865000Y-65726609D01*
X175609991Y-65471599D01*
X175609991Y-63619445D01*
X175751067Y-63591383D01*
X175957624Y-63505824D01*
X176055000Y-63440759D01*
X176152376Y-63505824D01*
X176358933Y-63591383D01*
X176578212Y-63635000D01*
X176801788Y-63635000D01*
X177021067Y-63591383D01*
X177227624Y-63505824D01*
X177325000Y-63440759D01*
X177422376Y-63505824D01*
X177628933Y-63591383D01*
X177848212Y-63635000D01*
X178071788Y-63635000D01*
X178291067Y-63591383D01*
X178497624Y-63505824D01*
X178595000Y-63440759D01*
X178692376Y-63505824D01*
X178898933Y-63591383D01*
X179118212Y-63635000D01*
X179341788Y-63635000D01*
X179561067Y-63591383D01*
X179672774Y-63545112D01*
X179755820Y-63589502D01*
X179875518Y-63625812D01*
X180000000Y-63638072D01*
X180214250Y-63635000D01*
X180373000Y-63476250D01*
X180373000Y-62627000D01*
X180361974Y-62627000D01*
X180365000Y-62611788D01*
X180365000Y-62388212D01*
X180361974Y-62373000D01*
X180373000Y-62373000D01*
X180373000Y-60757000D01*
X180361974Y-60757000D01*
X180365000Y-60741788D01*
X180365000Y-60560000D01*
X180565002Y-60560000D01*
X180565001Y-63660197D01*
G37*
%TD.AperFunction*%
D28*
X183127000Y-59748000D02*
X183147000Y-59748000D01*
X183147000Y-60002000D01*
X183127000Y-60002000D01*
X183127000Y-61013750D01*
X183285750Y-61172500D01*
X183900000Y-61175572D01*
X184024482Y-61163312D01*
X184144180Y-61127002D01*
X184254494Y-61068037D01*
X184315000Y-61018381D01*
X184315000Y-62004669D01*
X184277962Y-61959538D01*
X184143387Y-61849095D01*
X183989851Y-61767028D01*
X183823255Y-61716492D01*
X183650001Y-61699428D01*
X182349999Y-61699428D01*
X182176745Y-61716492D01*
X182085001Y-61744322D01*
X182085001Y-61174095D01*
X182100000Y-61175572D01*
X182714250Y-61172500D01*
X182873000Y-61013750D01*
X182873000Y-60002000D01*
X182853000Y-60002000D01*
X182853000Y-59748000D01*
X182873000Y-59748000D01*
X182873000Y-59728000D01*
X183127000Y-59728000D01*
X183127000Y-59748000D01*
%TA.AperFunction,Conductor*%
D29*
G36*
X183127000Y-59748000D02*
G01*
X183147000Y-59748000D01*
X183147000Y-60002000D01*
X183127000Y-60002000D01*
X183127000Y-61013750D01*
X183285750Y-61172500D01*
X183900000Y-61175572D01*
X184024482Y-61163312D01*
X184144180Y-61127002D01*
X184254494Y-61068037D01*
X184315000Y-61018381D01*
X184315000Y-62004669D01*
X184277962Y-61959538D01*
X184143387Y-61849095D01*
X183989851Y-61767028D01*
X183823255Y-61716492D01*
X183650001Y-61699428D01*
X182349999Y-61699428D01*
X182176745Y-61716492D01*
X182085001Y-61744322D01*
X182085001Y-61174095D01*
X182100000Y-61175572D01*
X182714250Y-61172500D01*
X182873000Y-61013750D01*
X182873000Y-60002000D01*
X182853000Y-60002000D01*
X182853000Y-59748000D01*
X182873000Y-59748000D01*
X182873000Y-59728000D01*
X183127000Y-59728000D01*
X183127000Y-59748000D01*
G37*
%TD.AperFunction*%
%TD*%
M02*
