%TF.GenerationSoftware,KiCad,Pcbnew,(5.1.9-0-10_14)*%
%TF.CreationDate,2021-04-19T07:38:01+01:00*%
%TF.ProjectId,Shelly,5368656c-6c79-42e6-9b69-6361645f7063,rev?*%
%TF.SameCoordinates,Original*%
%TF.FileFunction,Legend,Top*%
%TF.FilePolarity,Positive*%
%FSLAX46Y46*%
G04 Gerber Fmt 4.6, Leading zero omitted, Abs format (unit mm)*
G04 Created by KiCad (PCBNEW (5.1.9-0-10_14)) date 2021-04-19 07:38:01*
%MOMM*%
%LPD*%
G01*
G04 APERTURE LIST*
%ADD10C,0.120000*%
%ADD11C,0.150000*%
G04 APERTURE END LIST*
D10*
%TO.C,U1*%
X176965000Y-70510000D02*
X176965000Y-71235000D01*
X181185000Y-67015000D02*
X180460000Y-67015000D01*
X181185000Y-67740000D02*
X181185000Y-67015000D01*
X181185000Y-71235000D02*
X180460000Y-71235000D01*
X181185000Y-70510000D02*
X181185000Y-71235000D01*
X176965000Y-67015000D02*
X177690000Y-67015000D01*
X176965000Y-67740000D02*
X176965000Y-67015000D01*
%TO.C,SW1*%
X179650000Y-78800000D02*
X179650000Y-77300000D01*
X178400000Y-74800000D02*
X173900000Y-74800000D01*
X172650000Y-77300000D02*
X172650000Y-78800000D01*
X173900000Y-81300000D02*
X178400000Y-81300000D01*
%TO.C,C1*%
X179626248Y-63890000D02*
X181048752Y-63890000D01*
X179626248Y-65710000D02*
X181048752Y-65710000D01*
%TO.C,J3*%
X181760000Y-60890000D02*
X181760000Y-62000000D01*
X181000000Y-60890000D02*
X181760000Y-60890000D01*
X180240000Y-62563471D02*
X180240000Y-63110000D01*
X180240000Y-60890000D02*
X180240000Y-61436529D01*
X180240000Y-63110000D02*
X173955000Y-63110000D01*
X180240000Y-60890000D02*
X173955000Y-60890000D01*
X173955000Y-62307530D02*
X173955000Y-63110000D01*
X173955000Y-60890000D02*
X173955000Y-61692470D01*
%TO.C,R4*%
X184910000Y-72177064D02*
X184910000Y-70722936D01*
X183090000Y-72177064D02*
X183090000Y-70722936D01*
%TO.C,R3*%
X183090000Y-65722936D02*
X183090000Y-67177064D01*
X184910000Y-65722936D02*
X184910000Y-67177064D01*
%TO.C,J4*%
X171900000Y-90490000D02*
X180840000Y-90490000D01*
X180840000Y-83140000D02*
X180840000Y-90490000D01*
X171900000Y-83140000D02*
X180840000Y-83140000D01*
X171900000Y-90490000D02*
X171900000Y-83140000D01*
%TO.C,U1*%
D11*
X175227380Y-69886904D02*
X176036904Y-69886904D01*
X176132142Y-69839285D01*
X176179761Y-69791666D01*
X176227380Y-69696428D01*
X176227380Y-69505952D01*
X176179761Y-69410714D01*
X176132142Y-69363095D01*
X176036904Y-69315476D01*
X175227380Y-69315476D01*
X176227380Y-68315476D02*
X176227380Y-68886904D01*
X176227380Y-68601190D02*
X175227380Y-68601190D01*
X175370238Y-68696428D01*
X175465476Y-68791666D01*
X175513095Y-68886904D01*
%TO.C,SW1*%
X174816666Y-74204761D02*
X174959523Y-74252380D01*
X175197619Y-74252380D01*
X175292857Y-74204761D01*
X175340476Y-74157142D01*
X175388095Y-74061904D01*
X175388095Y-73966666D01*
X175340476Y-73871428D01*
X175292857Y-73823809D01*
X175197619Y-73776190D01*
X175007142Y-73728571D01*
X174911904Y-73680952D01*
X174864285Y-73633333D01*
X174816666Y-73538095D01*
X174816666Y-73442857D01*
X174864285Y-73347619D01*
X174911904Y-73300000D01*
X175007142Y-73252380D01*
X175245238Y-73252380D01*
X175388095Y-73300000D01*
X175721428Y-73252380D02*
X175959523Y-74252380D01*
X176150000Y-73538095D01*
X176340476Y-74252380D01*
X176578571Y-73252380D01*
X177483333Y-74252380D02*
X176911904Y-74252380D01*
X177197619Y-74252380D02*
X177197619Y-73252380D01*
X177102380Y-73395238D01*
X177007142Y-73490476D01*
X176911904Y-73538095D01*
%TO.C,C1*%
X180170833Y-63307142D02*
X180123214Y-63354761D01*
X179980357Y-63402380D01*
X179885119Y-63402380D01*
X179742261Y-63354761D01*
X179647023Y-63259523D01*
X179599404Y-63164285D01*
X179551785Y-62973809D01*
X179551785Y-62830952D01*
X179599404Y-62640476D01*
X179647023Y-62545238D01*
X179742261Y-62450000D01*
X179885119Y-62402380D01*
X179980357Y-62402380D01*
X180123214Y-62450000D01*
X180170833Y-62497619D01*
X181123214Y-63402380D02*
X180551785Y-63402380D01*
X180837500Y-63402380D02*
X180837500Y-62402380D01*
X180742261Y-62545238D01*
X180647023Y-62640476D01*
X180551785Y-62688095D01*
%TO.C,J3*%
X182252380Y-62933333D02*
X182966666Y-62933333D01*
X183109523Y-62980952D01*
X183204761Y-63076190D01*
X183252380Y-63219047D01*
X183252380Y-63314285D01*
X182252380Y-62552380D02*
X182252380Y-61933333D01*
X182633333Y-62266666D01*
X182633333Y-62123809D01*
X182680952Y-62028571D01*
X182728571Y-61980952D01*
X182823809Y-61933333D01*
X183061904Y-61933333D01*
X183157142Y-61980952D01*
X183204761Y-62028571D01*
X183252380Y-62123809D01*
X183252380Y-62409523D01*
X183204761Y-62504761D01*
X183157142Y-62552380D01*
%TO.C,R4*%
X184352380Y-71616666D02*
X183876190Y-71950000D01*
X184352380Y-72188095D02*
X183352380Y-72188095D01*
X183352380Y-71807142D01*
X183400000Y-71711904D01*
X183447619Y-71664285D01*
X183542857Y-71616666D01*
X183685714Y-71616666D01*
X183780952Y-71664285D01*
X183828571Y-71711904D01*
X183876190Y-71807142D01*
X183876190Y-72188095D01*
X183685714Y-70759523D02*
X184352380Y-70759523D01*
X183304761Y-70997619D02*
X184019047Y-71235714D01*
X184019047Y-70616666D01*
%TO.C,R3*%
X184552380Y-66656666D02*
X184076190Y-66990000D01*
X184552380Y-67228095D02*
X183552380Y-67228095D01*
X183552380Y-66847142D01*
X183600000Y-66751904D01*
X183647619Y-66704285D01*
X183742857Y-66656666D01*
X183885714Y-66656666D01*
X183980952Y-66704285D01*
X184028571Y-66751904D01*
X184076190Y-66847142D01*
X184076190Y-67228095D01*
X183552380Y-66323333D02*
X183552380Y-65704285D01*
X183933333Y-66037619D01*
X183933333Y-65894761D01*
X183980952Y-65799523D01*
X184028571Y-65751904D01*
X184123809Y-65704285D01*
X184361904Y-65704285D01*
X184457142Y-65751904D01*
X184504761Y-65799523D01*
X184552380Y-65894761D01*
X184552380Y-66180476D01*
X184504761Y-66275714D01*
X184457142Y-66323333D01*
%TO.C,J4*%
X175966666Y-86252380D02*
X175966666Y-86966666D01*
X175919047Y-87109523D01*
X175823809Y-87204761D01*
X175680952Y-87252380D01*
X175585714Y-87252380D01*
X176871428Y-86585714D02*
X176871428Y-87252380D01*
X176633333Y-86204761D02*
X176395238Y-86919047D01*
X177014285Y-86919047D01*
%TD*%
M02*
