M48
; DRILL file {KiCad (5.1.9-0-10_14)} date Saturday, April 17, 2021 at 08:17:10 AM
; FORMAT={-:-/ absolute / inch / decimal}
; #@! TF.CreationDate,2021-04-17T08:17:10+01:00
; #@! TF.GenerationSoftware,Kicad,Pcbnew,(5.1.9-0-10_14)
; #@! TF.FileFunction,Plated,1,2,PTH
FMAT,2
INCH
T1C0.0157
T2C0.0236
T3C0.0256
T4C0.0300
T5C0.0394
T6C0.0433
T7C0.0472
T8C0.0591
%
G90
G05
T1
X6.8661Y-3.2205
X6.8844Y-3.1784
X6.8898Y-2.8268
X6.9047Y-3.2124
X6.9349Y-2.8227
X6.9473Y-2.5425
X6.953Y-2.5815
X6.9618Y-3.2146
X7.0053Y-3.1862
X7.0307Y-3.2272
X7.0935Y-2.7504
X7.252Y-2.6811
X7.2539Y-2.8815
T2
X6.8299Y-3.3154
X7.0575Y-3.3154
T3
X6.876Y-2.387
X6.876Y-2.4409
X6.926Y-2.387
X6.926Y-2.4409
X6.976Y-2.387
X6.976Y-2.4409
X7.026Y-2.387
X7.026Y-2.4409
X7.076Y-2.387
X7.076Y-2.4409
X7.126Y-2.387
X7.126Y-2.4409
T4
X6.9943Y-2.7081
T5
X6.8004Y-2.7622
X7.2441Y-3.0252
X7.2441Y-3.1252
X7.2441Y-3.2252
X7.2441Y-3.3252
X7.2441Y-3.4252
T6
X6.8094Y-2.9839
X6.8094Y-3.161
X7.0654Y-2.9839
X7.0654Y-3.161
T7
X6.7734Y-3.461
X7.114Y-3.461
T8
X6.7734Y-3.2965
X7.114Y-3.2965
T0
M30
