%TF.GenerationSoftware,KiCad,Pcbnew,(5.1.9-0-10_14)*%
%TF.CreationDate,2021-04-17T08:17:12+01:00*%
%TF.ProjectId,Shelly,5368656c-6c79-42e6-9b69-6361645f7063,rev?*%
%TF.SameCoordinates,Original*%
%TF.FileFunction,Soldermask,Top*%
%TF.FilePolarity,Negative*%
%FSLAX46Y46*%
G04 Gerber Fmt 4.6, Leading zero omitted, Abs format (unit mm)*
G04 Created by KiCad (PCBNEW (5.1.9-0-10_14)) date 2021-04-17 08:17:12*
%MOMM*%
%LPD*%
G01*
G04 APERTURE LIST*
%ADD10O,1.000000X1.000000*%
%ADD11R,1.000000X1.000000*%
%ADD12O,1.700000X1.700000*%
%ADD13R,1.700000X1.700000*%
%ADD14C,2.000000*%
%ADD15C,1.524000*%
%ADD16C,1.700000*%
%ADD17R,1.524000X1.524000*%
%ADD18R,0.600000X1.140000*%
%ADD19R,0.300000X1.140000*%
%ADD20C,0.600000*%
G04 APERTURE END LIST*
D10*
%TO.C,J2*%
X174650000Y-62000000D03*
X175920000Y-62000000D03*
X177190000Y-62000000D03*
X178460000Y-62000000D03*
X179730000Y-62000000D03*
D11*
X181000000Y-62000000D03*
%TD*%
D10*
%TO.C,J4*%
X174650000Y-60630000D03*
X175920000Y-60630000D03*
X177190000Y-60630000D03*
X178460000Y-60630000D03*
X179730000Y-60630000D03*
D11*
X181000000Y-60630000D03*
%TD*%
D12*
%TO.C,J3*%
X184000000Y-76840000D03*
X184000000Y-79380000D03*
X184000000Y-81920000D03*
X184000000Y-84460000D03*
D13*
X184000000Y-87000000D03*
%TD*%
D14*
%TO.C,SW1*%
X172960000Y-80290000D03*
X172960000Y-75790000D03*
X179460000Y-80290000D03*
X179460000Y-75790000D03*
%TD*%
D15*
%TO.C,U1*%
X177655000Y-68785000D03*
%TD*%
D16*
%TO.C,M1*%
X172730000Y-65080000D03*
X172730000Y-72700000D03*
D17*
X172730000Y-70160000D03*
D16*
X172730000Y-67620000D03*
%TD*%
D18*
%TO.C,J1*%
X179570000Y-83140000D03*
X173970000Y-83140000D03*
X173170000Y-83140000D03*
X178770000Y-83140000D03*
D16*
X180695000Y-87910000D03*
X172045000Y-87910000D03*
D14*
X180695000Y-83730000D03*
X172045000Y-83730000D03*
D19*
X176620000Y-83140000D03*
X176120000Y-83140000D03*
X177120000Y-83140000D03*
X175620000Y-83140000D03*
X177620000Y-83140000D03*
X175120000Y-83140000D03*
X178120000Y-83140000D03*
X174620000Y-83140000D03*
D18*
X178770000Y-83140000D03*
X173970000Y-83140000D03*
X179570000Y-83140000D03*
D20*
X179260000Y-84210000D03*
X173480000Y-84210000D03*
D18*
X173170000Y-83140000D03*
%TD*%
M02*
