%TF.GenerationSoftware,KiCad,Pcbnew,(5.1.9-0-10_14)*%
%TF.CreationDate,2021-04-19T09:47:37+01:00*%
%TF.ProjectId,Shelly,5368656c-6c79-42e6-9b69-6361645f7063,rev?*%
%TF.SameCoordinates,Original*%
%TF.FileFunction,Paste,Top*%
%TF.FilePolarity,Positive*%
%FSLAX46Y46*%
G04 Gerber Fmt 4.6, Leading zero omitted, Abs format (unit mm)*
G04 Created by KiCad (PCBNEW (5.1.9-0-10_14)) date 2021-04-19 09:47:37*
%MOMM*%
%LPD*%
G01*
G04 APERTURE LIST*
%ADD10R,0.600000X1.140000*%
%ADD11R,0.300000X1.140000*%
G04 APERTURE END LIST*
%TO.C,R5*%
G36*
G01*
X172625000Y-70600000D02*
X171375000Y-70600000D01*
G75*
G02*
X171125000Y-70350000I0J250000D01*
G01*
X171125000Y-69550000D01*
G75*
G02*
X171375000Y-69300000I250000J0D01*
G01*
X172625000Y-69300000D01*
G75*
G02*
X172875000Y-69550000I0J-250000D01*
G01*
X172875000Y-70350000D01*
G75*
G02*
X172625000Y-70600000I-250000J0D01*
G01*
G37*
G36*
G01*
X172625000Y-73700000D02*
X171375000Y-73700000D01*
G75*
G02*
X171125000Y-73450000I0J250000D01*
G01*
X171125000Y-72650000D01*
G75*
G02*
X171375000Y-72400000I250000J0D01*
G01*
X172625000Y-72400000D01*
G75*
G02*
X172875000Y-72650000I0J-250000D01*
G01*
X172875000Y-73450000D01*
G75*
G02*
X172625000Y-73700000I-250000J0D01*
G01*
G37*
%TD*%
%TO.C,D1*%
G36*
G01*
X171100000Y-61800000D02*
X171900000Y-61800000D01*
G75*
G02*
X172150000Y-62050000I0J-250000D01*
G01*
X172150000Y-62875000D01*
G75*
G02*
X171900000Y-63125000I-250000J0D01*
G01*
X171100000Y-63125000D01*
G75*
G02*
X170850000Y-62875000I0J250000D01*
G01*
X170850000Y-62050000D01*
G75*
G02*
X171100000Y-61800000I250000J0D01*
G01*
G37*
G36*
G01*
X171100000Y-59875000D02*
X171900000Y-59875000D01*
G75*
G02*
X172150000Y-60125000I0J-250000D01*
G01*
X172150000Y-60950000D01*
G75*
G02*
X171900000Y-61200000I-250000J0D01*
G01*
X171100000Y-61200000D01*
G75*
G02*
X170850000Y-60950000I0J250000D01*
G01*
X170850000Y-60125000D01*
G75*
G02*
X171100000Y-59875000I250000J0D01*
G01*
G37*
%TD*%
D10*
%TO.C,J4*%
X179200000Y-83140000D03*
X173600000Y-83140000D03*
X172800000Y-83140000D03*
X178400000Y-83140000D03*
D11*
X176250000Y-83140000D03*
X175750000Y-83140000D03*
X176750000Y-83140000D03*
X175250000Y-83140000D03*
X177250000Y-83140000D03*
X174750000Y-83140000D03*
X177750000Y-83140000D03*
X174250000Y-83140000D03*
D10*
X178400000Y-83140000D03*
X173600000Y-83140000D03*
X179200000Y-83140000D03*
X172800000Y-83140000D03*
%TD*%
%TO.C,U1*%
G36*
G01*
X179955000Y-69005000D02*
X179445000Y-69005000D01*
G75*
G02*
X179195000Y-68755000I0J250000D01*
G01*
X179195000Y-68245000D01*
G75*
G02*
X179445000Y-67995000I250000J0D01*
G01*
X179955000Y-67995000D01*
G75*
G02*
X180205000Y-68245000I0J-250000D01*
G01*
X180205000Y-68755000D01*
G75*
G02*
X179955000Y-69005000I-250000J0D01*
G01*
G37*
G36*
G01*
X178705000Y-69005000D02*
X178195000Y-69005000D01*
G75*
G02*
X177945000Y-68755000I0J250000D01*
G01*
X177945000Y-68245000D01*
G75*
G02*
X178195000Y-67995000I250000J0D01*
G01*
X178705000Y-67995000D01*
G75*
G02*
X178955000Y-68245000I0J-250000D01*
G01*
X178955000Y-68755000D01*
G75*
G02*
X178705000Y-69005000I-250000J0D01*
G01*
G37*
G36*
G01*
X179955000Y-70255000D02*
X179445000Y-70255000D01*
G75*
G02*
X179195000Y-70005000I0J250000D01*
G01*
X179195000Y-69495000D01*
G75*
G02*
X179445000Y-69245000I250000J0D01*
G01*
X179955000Y-69245000D01*
G75*
G02*
X180205000Y-69495000I0J-250000D01*
G01*
X180205000Y-70005000D01*
G75*
G02*
X179955000Y-70255000I-250000J0D01*
G01*
G37*
G36*
G01*
X178705000Y-70255000D02*
X178195000Y-70255000D01*
G75*
G02*
X177945000Y-70005000I0J250000D01*
G01*
X177945000Y-69495000D01*
G75*
G02*
X178195000Y-69245000I250000J0D01*
G01*
X178705000Y-69245000D01*
G75*
G02*
X178955000Y-69495000I0J-250000D01*
G01*
X178955000Y-70005000D01*
G75*
G02*
X178705000Y-70255000I-250000J0D01*
G01*
G37*
G36*
G01*
X177487500Y-70250000D02*
X176612500Y-70250000D01*
G75*
G02*
X176550000Y-70187500I0J62500D01*
G01*
X176550000Y-70062500D01*
G75*
G02*
X176612500Y-70000000I62500J0D01*
G01*
X177487500Y-70000000D01*
G75*
G02*
X177550000Y-70062500I0J-62500D01*
G01*
X177550000Y-70187500D01*
G75*
G02*
X177487500Y-70250000I-62500J0D01*
G01*
G37*
G36*
G01*
X177487500Y-69750000D02*
X176612500Y-69750000D01*
G75*
G02*
X176550000Y-69687500I0J62500D01*
G01*
X176550000Y-69562500D01*
G75*
G02*
X176612500Y-69500000I62500J0D01*
G01*
X177487500Y-69500000D01*
G75*
G02*
X177550000Y-69562500I0J-62500D01*
G01*
X177550000Y-69687500D01*
G75*
G02*
X177487500Y-69750000I-62500J0D01*
G01*
G37*
G36*
G01*
X177487500Y-69250000D02*
X176612500Y-69250000D01*
G75*
G02*
X176550000Y-69187500I0J62500D01*
G01*
X176550000Y-69062500D01*
G75*
G02*
X176612500Y-69000000I62500J0D01*
G01*
X177487500Y-69000000D01*
G75*
G02*
X177550000Y-69062500I0J-62500D01*
G01*
X177550000Y-69187500D01*
G75*
G02*
X177487500Y-69250000I-62500J0D01*
G01*
G37*
G36*
G01*
X177487500Y-68750000D02*
X176612500Y-68750000D01*
G75*
G02*
X176550000Y-68687500I0J62500D01*
G01*
X176550000Y-68562500D01*
G75*
G02*
X176612500Y-68500000I62500J0D01*
G01*
X177487500Y-68500000D01*
G75*
G02*
X177550000Y-68562500I0J-62500D01*
G01*
X177550000Y-68687500D01*
G75*
G02*
X177487500Y-68750000I-62500J0D01*
G01*
G37*
G36*
G01*
X177487500Y-68250000D02*
X176612500Y-68250000D01*
G75*
G02*
X176550000Y-68187500I0J62500D01*
G01*
X176550000Y-68062500D01*
G75*
G02*
X176612500Y-68000000I62500J0D01*
G01*
X177487500Y-68000000D01*
G75*
G02*
X177550000Y-68062500I0J-62500D01*
G01*
X177550000Y-68187500D01*
G75*
G02*
X177487500Y-68250000I-62500J0D01*
G01*
G37*
G36*
G01*
X178137500Y-67600000D02*
X178012500Y-67600000D01*
G75*
G02*
X177950000Y-67537500I0J62500D01*
G01*
X177950000Y-66662500D01*
G75*
G02*
X178012500Y-66600000I62500J0D01*
G01*
X178137500Y-66600000D01*
G75*
G02*
X178200000Y-66662500I0J-62500D01*
G01*
X178200000Y-67537500D01*
G75*
G02*
X178137500Y-67600000I-62500J0D01*
G01*
G37*
G36*
G01*
X178637500Y-67600000D02*
X178512500Y-67600000D01*
G75*
G02*
X178450000Y-67537500I0J62500D01*
G01*
X178450000Y-66662500D01*
G75*
G02*
X178512500Y-66600000I62500J0D01*
G01*
X178637500Y-66600000D01*
G75*
G02*
X178700000Y-66662500I0J-62500D01*
G01*
X178700000Y-67537500D01*
G75*
G02*
X178637500Y-67600000I-62500J0D01*
G01*
G37*
G36*
G01*
X179137500Y-67600000D02*
X179012500Y-67600000D01*
G75*
G02*
X178950000Y-67537500I0J62500D01*
G01*
X178950000Y-66662500D01*
G75*
G02*
X179012500Y-66600000I62500J0D01*
G01*
X179137500Y-66600000D01*
G75*
G02*
X179200000Y-66662500I0J-62500D01*
G01*
X179200000Y-67537500D01*
G75*
G02*
X179137500Y-67600000I-62500J0D01*
G01*
G37*
G36*
G01*
X179637500Y-67600000D02*
X179512500Y-67600000D01*
G75*
G02*
X179450000Y-67537500I0J62500D01*
G01*
X179450000Y-66662500D01*
G75*
G02*
X179512500Y-66600000I62500J0D01*
G01*
X179637500Y-66600000D01*
G75*
G02*
X179700000Y-66662500I0J-62500D01*
G01*
X179700000Y-67537500D01*
G75*
G02*
X179637500Y-67600000I-62500J0D01*
G01*
G37*
G36*
G01*
X180137500Y-67600000D02*
X180012500Y-67600000D01*
G75*
G02*
X179950000Y-67537500I0J62500D01*
G01*
X179950000Y-66662500D01*
G75*
G02*
X180012500Y-66600000I62500J0D01*
G01*
X180137500Y-66600000D01*
G75*
G02*
X180200000Y-66662500I0J-62500D01*
G01*
X180200000Y-67537500D01*
G75*
G02*
X180137500Y-67600000I-62500J0D01*
G01*
G37*
G36*
G01*
X181537500Y-68250000D02*
X180662500Y-68250000D01*
G75*
G02*
X180600000Y-68187500I0J62500D01*
G01*
X180600000Y-68062500D01*
G75*
G02*
X180662500Y-68000000I62500J0D01*
G01*
X181537500Y-68000000D01*
G75*
G02*
X181600000Y-68062500I0J-62500D01*
G01*
X181600000Y-68187500D01*
G75*
G02*
X181537500Y-68250000I-62500J0D01*
G01*
G37*
G36*
G01*
X181537500Y-68750000D02*
X180662500Y-68750000D01*
G75*
G02*
X180600000Y-68687500I0J62500D01*
G01*
X180600000Y-68562500D01*
G75*
G02*
X180662500Y-68500000I62500J0D01*
G01*
X181537500Y-68500000D01*
G75*
G02*
X181600000Y-68562500I0J-62500D01*
G01*
X181600000Y-68687500D01*
G75*
G02*
X181537500Y-68750000I-62500J0D01*
G01*
G37*
G36*
G01*
X181537500Y-69250000D02*
X180662500Y-69250000D01*
G75*
G02*
X180600000Y-69187500I0J62500D01*
G01*
X180600000Y-69062500D01*
G75*
G02*
X180662500Y-69000000I62500J0D01*
G01*
X181537500Y-69000000D01*
G75*
G02*
X181600000Y-69062500I0J-62500D01*
G01*
X181600000Y-69187500D01*
G75*
G02*
X181537500Y-69250000I-62500J0D01*
G01*
G37*
G36*
G01*
X181537500Y-69750000D02*
X180662500Y-69750000D01*
G75*
G02*
X180600000Y-69687500I0J62500D01*
G01*
X180600000Y-69562500D01*
G75*
G02*
X180662500Y-69500000I62500J0D01*
G01*
X181537500Y-69500000D01*
G75*
G02*
X181600000Y-69562500I0J-62500D01*
G01*
X181600000Y-69687500D01*
G75*
G02*
X181537500Y-69750000I-62500J0D01*
G01*
G37*
G36*
G01*
X181537500Y-70250000D02*
X180662500Y-70250000D01*
G75*
G02*
X180600000Y-70187500I0J62500D01*
G01*
X180600000Y-70062500D01*
G75*
G02*
X180662500Y-70000000I62500J0D01*
G01*
X181537500Y-70000000D01*
G75*
G02*
X181600000Y-70062500I0J-62500D01*
G01*
X181600000Y-70187500D01*
G75*
G02*
X181537500Y-70250000I-62500J0D01*
G01*
G37*
G36*
G01*
X180137500Y-71650000D02*
X180012500Y-71650000D01*
G75*
G02*
X179950000Y-71587500I0J62500D01*
G01*
X179950000Y-70712500D01*
G75*
G02*
X180012500Y-70650000I62500J0D01*
G01*
X180137500Y-70650000D01*
G75*
G02*
X180200000Y-70712500I0J-62500D01*
G01*
X180200000Y-71587500D01*
G75*
G02*
X180137500Y-71650000I-62500J0D01*
G01*
G37*
G36*
G01*
X179637500Y-71650000D02*
X179512500Y-71650000D01*
G75*
G02*
X179450000Y-71587500I0J62500D01*
G01*
X179450000Y-70712500D01*
G75*
G02*
X179512500Y-70650000I62500J0D01*
G01*
X179637500Y-70650000D01*
G75*
G02*
X179700000Y-70712500I0J-62500D01*
G01*
X179700000Y-71587500D01*
G75*
G02*
X179637500Y-71650000I-62500J0D01*
G01*
G37*
G36*
G01*
X179137500Y-71650000D02*
X179012500Y-71650000D01*
G75*
G02*
X178950000Y-71587500I0J62500D01*
G01*
X178950000Y-70712500D01*
G75*
G02*
X179012500Y-70650000I62500J0D01*
G01*
X179137500Y-70650000D01*
G75*
G02*
X179200000Y-70712500I0J-62500D01*
G01*
X179200000Y-71587500D01*
G75*
G02*
X179137500Y-71650000I-62500J0D01*
G01*
G37*
G36*
G01*
X178637500Y-71650000D02*
X178512500Y-71650000D01*
G75*
G02*
X178450000Y-71587500I0J62500D01*
G01*
X178450000Y-70712500D01*
G75*
G02*
X178512500Y-70650000I62500J0D01*
G01*
X178637500Y-70650000D01*
G75*
G02*
X178700000Y-70712500I0J-62500D01*
G01*
X178700000Y-71587500D01*
G75*
G02*
X178637500Y-71650000I-62500J0D01*
G01*
G37*
G36*
G01*
X178137500Y-71650000D02*
X178012500Y-71650000D01*
G75*
G02*
X177950000Y-71587500I0J62500D01*
G01*
X177950000Y-70712500D01*
G75*
G02*
X178012500Y-70650000I62500J0D01*
G01*
X178137500Y-70650000D01*
G75*
G02*
X178200000Y-70712500I0J-62500D01*
G01*
X178200000Y-71587500D01*
G75*
G02*
X178137500Y-71650000I-62500J0D01*
G01*
G37*
%TD*%
%TO.C,C1*%
G36*
G01*
X181237500Y-65450001D02*
X181237500Y-64149999D01*
G75*
G02*
X181487499Y-63900000I249999J0D01*
G01*
X182312501Y-63900000D01*
G75*
G02*
X182562500Y-64149999I0J-249999D01*
G01*
X182562500Y-65450001D01*
G75*
G02*
X182312501Y-65700000I-249999J0D01*
G01*
X181487499Y-65700000D01*
G75*
G02*
X181237500Y-65450001I0J249999D01*
G01*
G37*
G36*
G01*
X178112500Y-65450001D02*
X178112500Y-64149999D01*
G75*
G02*
X178362499Y-63900000I249999J0D01*
G01*
X179187501Y-63900000D01*
G75*
G02*
X179437500Y-64149999I0J-249999D01*
G01*
X179437500Y-65450001D01*
G75*
G02*
X179187501Y-65700000I-249999J0D01*
G01*
X178362499Y-65700000D01*
G75*
G02*
X178112500Y-65450001I0J249999D01*
G01*
G37*
%TD*%
%TO.C,R4*%
G36*
G01*
X184625000Y-70550000D02*
X183375000Y-70550000D01*
G75*
G02*
X183125000Y-70300000I0J250000D01*
G01*
X183125000Y-69500000D01*
G75*
G02*
X183375000Y-69250000I250000J0D01*
G01*
X184625000Y-69250000D01*
G75*
G02*
X184875000Y-69500000I0J-250000D01*
G01*
X184875000Y-70300000D01*
G75*
G02*
X184625000Y-70550000I-250000J0D01*
G01*
G37*
G36*
G01*
X184625000Y-73650000D02*
X183375000Y-73650000D01*
G75*
G02*
X183125000Y-73400000I0J250000D01*
G01*
X183125000Y-72600000D01*
G75*
G02*
X183375000Y-72350000I250000J0D01*
G01*
X184625000Y-72350000D01*
G75*
G02*
X184875000Y-72600000I0J-250000D01*
G01*
X184875000Y-73400000D01*
G75*
G02*
X184625000Y-73650000I-250000J0D01*
G01*
G37*
%TD*%
%TO.C,R3*%
G36*
G01*
X183375000Y-67350000D02*
X184625000Y-67350000D01*
G75*
G02*
X184875000Y-67600000I0J-250000D01*
G01*
X184875000Y-68400000D01*
G75*
G02*
X184625000Y-68650000I-250000J0D01*
G01*
X183375000Y-68650000D01*
G75*
G02*
X183125000Y-68400000I0J250000D01*
G01*
X183125000Y-67600000D01*
G75*
G02*
X183375000Y-67350000I250000J0D01*
G01*
G37*
G36*
G01*
X183375000Y-64250000D02*
X184625000Y-64250000D01*
G75*
G02*
X184875000Y-64500000I0J-250000D01*
G01*
X184875000Y-65300000D01*
G75*
G02*
X184625000Y-65550000I-250000J0D01*
G01*
X183375000Y-65550000D01*
G75*
G02*
X183125000Y-65300000I0J250000D01*
G01*
X183125000Y-64500000D01*
G75*
G02*
X183375000Y-64250000I250000J0D01*
G01*
G37*
%TD*%
M02*
