%TF.GenerationSoftware,KiCad,Pcbnew,(5.1.9-0-10_14)*%
%TF.CreationDate,2021-05-05T08:10:57+01:00*%
%TF.ProjectId,Shelly,5368656c-6c79-42e6-9b69-6361645f7063,4*%
%TF.SameCoordinates,Original*%
%TF.FileFunction,Soldermask,Bot*%
%TF.FilePolarity,Negative*%
%FSLAX46Y46*%
G04 Gerber Fmt 4.6, Leading zero omitted, Abs format (unit mm)*
G04 Created by KiCad (PCBNEW (5.1.9-0-10_14)) date 2021-05-05 08:10:57*
%MOMM*%
%LPD*%
G01*
G04 APERTURE LIST*
%ADD10R,1.100000X3.700000*%
%ADD11R,0.650000X1.560000*%
%ADD12O,1.000000X1.000000*%
%ADD13R,1.000000X1.000000*%
%ADD14C,1.700000*%
%ADD15C,2.000000*%
%ADD16C,1.000000*%
%ADD17O,1.700000X1.700000*%
%ADD18R,1.700000X1.700000*%
G04 APERTURE END LIST*
%TO.C,R2*%
G36*
G01*
X177237500Y-85575000D02*
X176762500Y-85575000D01*
G75*
G02*
X176525000Y-85337500I0J237500D01*
G01*
X176525000Y-84837500D01*
G75*
G02*
X176762500Y-84600000I237500J0D01*
G01*
X177237500Y-84600000D01*
G75*
G02*
X177475000Y-84837500I0J-237500D01*
G01*
X177475000Y-85337500D01*
G75*
G02*
X177237500Y-85575000I-237500J0D01*
G01*
G37*
G36*
G01*
X177237500Y-87400000D02*
X176762500Y-87400000D01*
G75*
G02*
X176525000Y-87162500I0J237500D01*
G01*
X176525000Y-86662500D01*
G75*
G02*
X176762500Y-86425000I237500J0D01*
G01*
X177237500Y-86425000D01*
G75*
G02*
X177475000Y-86662500I0J-237500D01*
G01*
X177475000Y-87162500D01*
G75*
G02*
X177237500Y-87400000I-237500J0D01*
G01*
G37*
%TD*%
%TO.C,R1*%
G36*
G01*
X174762500Y-86425000D02*
X175237500Y-86425000D01*
G75*
G02*
X175475000Y-86662500I0J-237500D01*
G01*
X175475000Y-87162500D01*
G75*
G02*
X175237500Y-87400000I-237500J0D01*
G01*
X174762500Y-87400000D01*
G75*
G02*
X174525000Y-87162500I0J237500D01*
G01*
X174525000Y-86662500D01*
G75*
G02*
X174762500Y-86425000I237500J0D01*
G01*
G37*
G36*
G01*
X174762500Y-84600000D02*
X175237500Y-84600000D01*
G75*
G02*
X175475000Y-84837500I0J-237500D01*
G01*
X175475000Y-85337500D01*
G75*
G02*
X175237500Y-85575000I-237500J0D01*
G01*
X174762500Y-85575000D01*
G75*
G02*
X174525000Y-85337500I0J237500D01*
G01*
X174525000Y-84837500D01*
G75*
G02*
X174762500Y-84600000I237500J0D01*
G01*
G37*
%TD*%
%TO.C,Reg1*%
G36*
G01*
X174150000Y-72975627D02*
X174150000Y-71724373D01*
G75*
G02*
X174399373Y-71475000I249373J0D01*
G01*
X175325627Y-71475000D01*
G75*
G02*
X175575000Y-71724373I0J-249373D01*
G01*
X175575000Y-72975627D01*
G75*
G02*
X175325627Y-73225000I-249373J0D01*
G01*
X174399373Y-73225000D01*
G75*
G02*
X174150000Y-72975627I0J249373D01*
G01*
G37*
G36*
G01*
X177125000Y-72975627D02*
X177125000Y-71724373D01*
G75*
G02*
X177374373Y-71475000I249373J0D01*
G01*
X178300627Y-71475000D01*
G75*
G02*
X178550000Y-71724373I0J-249373D01*
G01*
X178550000Y-72975627D01*
G75*
G02*
X178300627Y-73225000I-249373J0D01*
G01*
X177374373Y-73225000D01*
G75*
G02*
X177125000Y-72975627I0J249373D01*
G01*
G37*
D10*
X177850000Y-75350000D03*
X174850000Y-75350000D03*
G36*
G01*
X177300000Y-70550450D02*
X177300000Y-69649550D01*
G75*
G02*
X177549550Y-69400000I249550J0D01*
G01*
X178200450Y-69400000D01*
G75*
G02*
X178450000Y-69649550I0J-249550D01*
G01*
X178450000Y-70550450D01*
G75*
G02*
X178200450Y-70800000I-249550J0D01*
G01*
X177549550Y-70800000D01*
G75*
G02*
X177300000Y-70550450I0J249550D01*
G01*
G37*
G36*
G01*
X175250000Y-70550450D02*
X175250000Y-69649550D01*
G75*
G02*
X175499550Y-69400000I249550J0D01*
G01*
X176150450Y-69400000D01*
G75*
G02*
X176400000Y-69649550I0J-249550D01*
G01*
X176400000Y-70550450D01*
G75*
G02*
X176150450Y-70800000I-249550J0D01*
G01*
X175499550Y-70800000D01*
G75*
G02*
X175250000Y-70550450I0J249550D01*
G01*
G37*
G36*
G01*
X171862500Y-69700000D02*
X172337500Y-69700000D01*
G75*
G02*
X172575000Y-69937500I0J-237500D01*
G01*
X172575000Y-70537500D01*
G75*
G02*
X172337500Y-70775000I-237500J0D01*
G01*
X171862500Y-70775000D01*
G75*
G02*
X171625000Y-70537500I0J237500D01*
G01*
X171625000Y-69937500D01*
G75*
G02*
X171862500Y-69700000I237500J0D01*
G01*
G37*
G36*
G01*
X171862500Y-71425000D02*
X172337500Y-71425000D01*
G75*
G02*
X172575000Y-71662500I0J-237500D01*
G01*
X172575000Y-72262500D01*
G75*
G02*
X172337500Y-72500000I-237500J0D01*
G01*
X171862500Y-72500000D01*
G75*
G02*
X171625000Y-72262500I0J237500D01*
G01*
X171625000Y-71662500D01*
G75*
G02*
X171862500Y-71425000I237500J0D01*
G01*
G37*
G36*
G01*
X173112500Y-69700000D02*
X173587500Y-69700000D01*
G75*
G02*
X173825000Y-69937500I0J-237500D01*
G01*
X173825000Y-70537500D01*
G75*
G02*
X173587500Y-70775000I-237500J0D01*
G01*
X173112500Y-70775000D01*
G75*
G02*
X172875000Y-70537500I0J237500D01*
G01*
X172875000Y-69937500D01*
G75*
G02*
X173112500Y-69700000I237500J0D01*
G01*
G37*
G36*
G01*
X173112500Y-71425000D02*
X173587500Y-71425000D01*
G75*
G02*
X173825000Y-71662500I0J-237500D01*
G01*
X173825000Y-72262500D01*
G75*
G02*
X173587500Y-72500000I-237500J0D01*
G01*
X173112500Y-72500000D01*
G75*
G02*
X172875000Y-72262500I0J237500D01*
G01*
X172875000Y-71662500D01*
G75*
G02*
X173112500Y-71425000I237500J0D01*
G01*
G37*
D11*
X171650000Y-73750000D03*
X172600000Y-73750000D03*
X173550000Y-73750000D03*
X173550000Y-76450000D03*
X171650000Y-76450000D03*
X172600000Y-76450000D03*
%TD*%
D12*
%TO.C,J3*%
X174150000Y-62500000D03*
X175420000Y-62500000D03*
X176690000Y-62500000D03*
X177960000Y-62500000D03*
X179230000Y-62500000D03*
D13*
X180500000Y-62500000D03*
%TD*%
D14*
%TO.C,J4*%
X180325000Y-86910000D03*
X171675000Y-86910000D03*
D15*
X180325000Y-82730000D03*
X171675000Y-82730000D03*
%TD*%
D16*
%TO.C,U1*%
X178375000Y-68875000D03*
%TD*%
D12*
%TO.C,J2*%
X174150000Y-60630000D03*
X175420000Y-60630000D03*
X176690000Y-60630000D03*
X177960000Y-60630000D03*
X179230000Y-60630000D03*
D13*
X180500000Y-60630000D03*
%TD*%
D17*
%TO.C,J1*%
X183000000Y-76840000D03*
X183000000Y-79380000D03*
X183000000Y-81920000D03*
X183000000Y-84460000D03*
D18*
X183000000Y-87000000D03*
%TD*%
M02*
