%TF.GenerationSoftware,KiCad,Pcbnew,(5.1.9-0-10_14)*%
%TF.CreationDate,2021-04-17T08:17:12+01:00*%
%TF.ProjectId,Shelly,5368656c-6c79-42e6-9b69-6361645f7063,rev?*%
%TF.SameCoordinates,Original*%
%TF.FileFunction,Copper,L2,Bot*%
%TF.FilePolarity,Positive*%
%FSLAX46Y46*%
G04 Gerber Fmt 4.6, Leading zero omitted, Abs format (unit mm)*
G04 Created by KiCad (PCBNEW (5.1.9-0-10_14)) date 2021-04-17 08:17:12*
%MOMM*%
%LPD*%
G01*
G04 APERTURE LIST*
%TA.AperFunction,NonConductor*%
%ADD10C,0.200000*%
%TD*%
%TA.AperFunction,EtchedComponent*%
%ADD11C,0.200000*%
%TD*%
%TA.AperFunction,ComponentPad*%
%ADD12O,1.000000X1.000000*%
%TD*%
%TA.AperFunction,ComponentPad*%
%ADD13R,1.000000X1.000000*%
%TD*%
%TA.AperFunction,ComponentPad*%
%ADD14O,1.700000X1.700000*%
%TD*%
%TA.AperFunction,ComponentPad*%
%ADD15R,1.700000X1.700000*%
%TD*%
%TA.AperFunction,ComponentPad*%
%ADD16C,2.000000*%
%TD*%
%TA.AperFunction,SMDPad,CuDef*%
%ADD17R,0.200000X0.200000*%
%TD*%
%TA.AperFunction,SMDPad,CuDef*%
%ADD18C,0.500000*%
%TD*%
%TA.AperFunction,ComponentPad*%
%ADD19C,1.524000*%
%TD*%
%TA.AperFunction,SMDPad,CuDef*%
%ADD20R,2.100000X2.100000*%
%TD*%
%TA.AperFunction,SMDPad,CuDef*%
%ADD21R,1.000000X0.300000*%
%TD*%
%TA.AperFunction,SMDPad,CuDef*%
%ADD22R,0.300000X1.000000*%
%TD*%
%TA.AperFunction,ComponentPad*%
%ADD23R,1.524000X1.524000*%
%TD*%
%TA.AperFunction,ComponentPad*%
%ADD24C,1.700000*%
%TD*%
%TA.AperFunction,ComponentPad*%
%ADD25C,0.600000*%
%TD*%
%TA.AperFunction,ViaPad*%
%ADD26C,0.800000*%
%TD*%
%TA.AperFunction,Conductor*%
%ADD27C,0.250000*%
%TD*%
%TA.AperFunction,Conductor*%
%ADD28C,0.254000*%
%TD*%
%TA.AperFunction,Conductor*%
%ADD29C,0.100000*%
%TD*%
G04 APERTURE END LIST*
D10*
X171485714Y-59942857D02*
X172152380Y-60133333D01*
X171676190Y-60323809D01*
X172152380Y-60514285D01*
X171485714Y-60704761D01*
X171485714Y-60990476D02*
X172152380Y-61180952D01*
X171676190Y-61371428D01*
X172152380Y-61561904D01*
X171485714Y-61752380D01*
X171485714Y-62038095D02*
X172152380Y-62228571D01*
X171676190Y-62419047D01*
X172152380Y-62609523D01*
X171485714Y-62800000D01*
X172057142Y-63180952D02*
X172104761Y-63228571D01*
X172152380Y-63180952D01*
X172104761Y-63133333D01*
X172057142Y-63180952D01*
X172152380Y-63180952D01*
X172152380Y-63657142D02*
X171485714Y-63657142D01*
X171580952Y-63657142D02*
X171533333Y-63704761D01*
X171485714Y-63800000D01*
X171485714Y-63942857D01*
X171533333Y-64038095D01*
X171628571Y-64085714D01*
X172152380Y-64085714D01*
X171628571Y-64085714D02*
X171533333Y-64133333D01*
X171485714Y-64228571D01*
X171485714Y-64371428D01*
X171533333Y-64466666D01*
X171628571Y-64514285D01*
X172152380Y-64514285D01*
X172104761Y-65371428D02*
X172152380Y-65276190D01*
X172152380Y-65085714D01*
X172104761Y-64990476D01*
X172009523Y-64942857D01*
X171628571Y-64942857D01*
X171533333Y-64990476D01*
X171485714Y-65085714D01*
X171485714Y-65276190D01*
X171533333Y-65371428D01*
X171628571Y-65419047D01*
X171723809Y-65419047D01*
X171819047Y-64942857D01*
X172057142Y-65847619D02*
X172104761Y-65895238D01*
X172152380Y-65847619D01*
X172104761Y-65800000D01*
X172057142Y-65847619D01*
X172152380Y-65847619D01*
X171485714Y-66752380D02*
X172152380Y-66752380D01*
X171485714Y-66323809D02*
X172009523Y-66323809D01*
X172104761Y-66371428D01*
X172152380Y-66466666D01*
X172152380Y-66609523D01*
X172104761Y-66704761D01*
X172057142Y-66752380D01*
X172152380Y-67228571D02*
X171152380Y-67228571D01*
X171771428Y-67323809D02*
X172152380Y-67609523D01*
X171485714Y-67609523D02*
X171866666Y-67228571D01*
D11*
%TO.C,AJK1*%
X178935880Y-78867650D02*
X175994700Y-74750000D01*
X175994700Y-78867650D02*
X176210062Y-79387579D01*
X175994700Y-74750000D02*
X175994700Y-78867650D01*
X176729994Y-79602940D02*
X177249926Y-79387579D01*
X176210062Y-79387579D02*
X176729994Y-79602940D01*
X177249926Y-79387579D02*
X177465288Y-78867650D01*
X175994710Y-76808820D02*
X174230000Y-78867650D01*
X175994700Y-76809000D02*
X177465300Y-76809000D01*
X174230000Y-74750000D02*
X175994710Y-76808820D01*
%TD*%
D12*
%TO.P,J2,6*%
%TO.N,TXD*%
X174650000Y-62000000D03*
%TO.P,J2,5*%
%TO.N,RXD*%
X175920000Y-62000000D03*
%TO.P,J2,4*%
%TO.N,+3V3*%
X177190000Y-62000000D03*
%TO.P,J2,3*%
%TO.N,RST*%
X178460000Y-62000000D03*
%TO.P,J2,2*%
%TO.N,GPIO0*%
X179730000Y-62000000D03*
D13*
%TO.P,J2,1*%
%TO.N,GND*%
X181000000Y-62000000D03*
%TD*%
D12*
%TO.P,J4,6*%
%TO.N,TXD*%
X174650000Y-60630000D03*
%TO.P,J4,5*%
%TO.N,RXD*%
X175920000Y-60630000D03*
%TO.P,J4,4*%
%TO.N,+3V3*%
X177190000Y-60630000D03*
%TO.P,J4,3*%
%TO.N,RST*%
X178460000Y-60630000D03*
%TO.P,J4,2*%
%TO.N,GPIO0*%
X179730000Y-60630000D03*
D13*
%TO.P,J4,1*%
%TO.N,GND*%
X181000000Y-60630000D03*
%TD*%
D14*
%TO.P,J3,5*%
%TO.N,TXD*%
X184000000Y-76840000D03*
%TO.P,J3,4*%
%TO.N,RXD*%
X184000000Y-79380000D03*
%TO.P,J3,3*%
%TO.N,+3V3*%
X184000000Y-81920000D03*
%TO.P,J3,2*%
%TO.N,GPIO0*%
X184000000Y-84460000D03*
D15*
%TO.P,J3,1*%
%TO.N,GND*%
X184000000Y-87000000D03*
%TD*%
D16*
%TO.P,SW1,1*%
%TO.N,GND*%
X172960000Y-80290000D03*
%TO.P,SW1,2*%
%TO.N,GPIO0*%
X172960000Y-75790000D03*
%TO.P,SW1,1*%
%TO.N,GND*%
X179460000Y-80290000D03*
%TO.P,SW1,2*%
%TO.N,GPIO0*%
X179460000Y-75790000D03*
%TD*%
D17*
%TO.P,U1,~*%
%TO.N,N/C*%
X175655000Y-66785000D03*
X179655000Y-70785000D03*
X179655000Y-66785000D03*
X175655000Y-70785000D03*
D18*
X175655000Y-66785000D03*
D19*
%TO.P,U1,17*%
%TO.N,GND*%
X177655000Y-68785000D03*
D20*
X177655000Y-68785000D03*
D21*
%TO.P,U1,16*%
%TO.N,RST*%
X175605000Y-67810000D03*
%TO.P,U1,15*%
%TO.N,RXD*%
X175605000Y-68460000D03*
%TO.P,U1,14*%
%TO.N,Net-(U1-Pad14)*%
X175605000Y-69110000D03*
%TO.P,U1,13*%
%TO.N,GND*%
X175605000Y-69760000D03*
D22*
%TO.P,U1,12*%
%TO.N,GPIO0*%
X176680000Y-70835000D03*
%TO.P,U1,11*%
%TO.N,Net-(U1-Pad11)*%
X177330000Y-70835000D03*
%TO.P,U1,10*%
%TO.N,+3V3*%
X177980000Y-70835000D03*
%TO.P,U1,9*%
X178630000Y-70835000D03*
D21*
%TO.P,U1,8*%
X179705000Y-69760000D03*
%TO.P,U1,7*%
%TO.N,D-*%
X179705000Y-69110000D03*
%TO.P,U1,6*%
%TO.N,D+*%
X179705000Y-68460000D03*
%TO.P,U1,5*%
%TO.N,Net-(U1-Pad5)*%
X179705000Y-67810000D03*
D22*
%TO.P,U1,4*%
%TO.N,GND*%
X178630000Y-66735000D03*
%TO.P,U1,3*%
X177980000Y-66735000D03*
%TO.P,U1,2*%
%TO.N,TXD*%
X177330000Y-66735000D03*
%TO.P,U1,1*%
%TO.N,+3V3*%
X176680000Y-66735000D03*
%TD*%
%TO.P,R4,2*%
%TO.N,D+*%
%TA.AperFunction,SMDPad,CuDef*%
G36*
G01*
X184825000Y-65650000D02*
X183575000Y-65650000D01*
G75*
G02*
X183325000Y-65400000I0J250000D01*
G01*
X183325000Y-64600000D01*
G75*
G02*
X183575000Y-64350000I250000J0D01*
G01*
X184825000Y-64350000D01*
G75*
G02*
X185075000Y-64600000I0J-250000D01*
G01*
X185075000Y-65400000D01*
G75*
G02*
X184825000Y-65650000I-250000J0D01*
G01*
G37*
%TD.AperFunction*%
%TO.P,R4,1*%
%TO.N,Net-(J1-PadA6)*%
%TA.AperFunction,SMDPad,CuDef*%
G36*
G01*
X184825000Y-68750000D02*
X183575000Y-68750000D01*
G75*
G02*
X183325000Y-68500000I0J250000D01*
G01*
X183325000Y-67700000D01*
G75*
G02*
X183575000Y-67450000I250000J0D01*
G01*
X184825000Y-67450000D01*
G75*
G02*
X185075000Y-67700000I0J-250000D01*
G01*
X185075000Y-68500000D01*
G75*
G02*
X184825000Y-68750000I-250000J0D01*
G01*
G37*
%TD.AperFunction*%
%TD*%
%TO.P,R3,2*%
%TO.N,D-*%
%TA.AperFunction,SMDPad,CuDef*%
G36*
G01*
X184825000Y-70740000D02*
X183575000Y-70740000D01*
G75*
G02*
X183325000Y-70490000I0J250000D01*
G01*
X183325000Y-69690000D01*
G75*
G02*
X183575000Y-69440000I250000J0D01*
G01*
X184825000Y-69440000D01*
G75*
G02*
X185075000Y-69690000I0J-250000D01*
G01*
X185075000Y-70490000D01*
G75*
G02*
X184825000Y-70740000I-250000J0D01*
G01*
G37*
%TD.AperFunction*%
%TO.P,R3,1*%
%TO.N,Net-(J1-PadA7)*%
%TA.AperFunction,SMDPad,CuDef*%
G36*
G01*
X184825000Y-73840000D02*
X183575000Y-73840000D01*
G75*
G02*
X183325000Y-73590000I0J250000D01*
G01*
X183325000Y-72790000D01*
G75*
G02*
X183575000Y-72540000I250000J0D01*
G01*
X184825000Y-72540000D01*
G75*
G02*
X185075000Y-72790000I0J-250000D01*
G01*
X185075000Y-73590000D01*
G75*
G02*
X184825000Y-73840000I-250000J0D01*
G01*
G37*
%TD.AperFunction*%
%TD*%
%TO.P,R2,2*%
%TO.N,Net-(J1-PadB5)*%
%TA.AperFunction,SMDPad,CuDef*%
G36*
G01*
X178625000Y-86050000D02*
X177375000Y-86050000D01*
G75*
G02*
X177125000Y-85800000I0J250000D01*
G01*
X177125000Y-85000000D01*
G75*
G02*
X177375000Y-84750000I250000J0D01*
G01*
X178625000Y-84750000D01*
G75*
G02*
X178875000Y-85000000I0J-250000D01*
G01*
X178875000Y-85800000D01*
G75*
G02*
X178625000Y-86050000I-250000J0D01*
G01*
G37*
%TD.AperFunction*%
%TO.P,R2,1*%
%TO.N,GND*%
%TA.AperFunction,SMDPad,CuDef*%
G36*
G01*
X178625000Y-89150000D02*
X177375000Y-89150000D01*
G75*
G02*
X177125000Y-88900000I0J250000D01*
G01*
X177125000Y-88100000D01*
G75*
G02*
X177375000Y-87850000I250000J0D01*
G01*
X178625000Y-87850000D01*
G75*
G02*
X178875000Y-88100000I0J-250000D01*
G01*
X178875000Y-88900000D01*
G75*
G02*
X178625000Y-89150000I-250000J0D01*
G01*
G37*
%TD.AperFunction*%
%TD*%
%TO.P,R1,2*%
%TO.N,GND*%
%TA.AperFunction,SMDPad,CuDef*%
G36*
G01*
X174375000Y-87850000D02*
X175625000Y-87850000D01*
G75*
G02*
X175875000Y-88100000I0J-250000D01*
G01*
X175875000Y-88900000D01*
G75*
G02*
X175625000Y-89150000I-250000J0D01*
G01*
X174375000Y-89150000D01*
G75*
G02*
X174125000Y-88900000I0J250000D01*
G01*
X174125000Y-88100000D01*
G75*
G02*
X174375000Y-87850000I250000J0D01*
G01*
G37*
%TD.AperFunction*%
%TO.P,R1,1*%
%TO.N,Net-(J1-PadA5)*%
%TA.AperFunction,SMDPad,CuDef*%
G36*
G01*
X174375000Y-84750000D02*
X175625000Y-84750000D01*
G75*
G02*
X175875000Y-85000000I0J-250000D01*
G01*
X175875000Y-85800000D01*
G75*
G02*
X175625000Y-86050000I-250000J0D01*
G01*
X174375000Y-86050000D01*
G75*
G02*
X174125000Y-85800000I0J250000D01*
G01*
X174125000Y-85000000D01*
G75*
G02*
X174375000Y-84750000I250000J0D01*
G01*
G37*
%TD.AperFunction*%
%TD*%
D23*
%TO.P,M1,3*%
%TO.N,GND*%
X172730000Y-70160000D03*
%TD*%
D24*
%TO.P,J1,S1*%
%TO.N,GND*%
X180695000Y-87910000D03*
X172045000Y-87910000D03*
D16*
X180695000Y-83730000D03*
X172045000Y-83730000D03*
D25*
X179260000Y-84210000D03*
X173480000Y-84210000D03*
%TD*%
D26*
%TO.N,Net-(J1-PadA7)*%
X176828831Y-81651810D03*
X175378820Y-81595219D03*
X184250010Y-73190000D03*
%TO.N,Net-(J1-PadA6)*%
X174862743Y-80731394D03*
X184200000Y-68100000D03*
X177933414Y-80928316D03*
%TO.N,Net-(J1-PadA5)*%
X174400000Y-81800000D03*
%TO.N,Net-(J1-PadB5)*%
X178578756Y-81969988D03*
%TO.N,+3V3*%
X180174990Y-69860012D03*
X176604990Y-65569919D03*
X175000000Y-71800000D03*
%TO.N,GPIO0*%
X176146116Y-71695575D03*
%TO.N,TXD*%
X176460483Y-64580403D03*
%TD*%
D27*
%TO.N,GND*%
X178630000Y-67810000D02*
X177655000Y-68785000D01*
X178630000Y-66735000D02*
X178630000Y-67810000D01*
X177980000Y-68460000D02*
X177655000Y-68785000D01*
X177980000Y-66735000D02*
X177980000Y-68460000D01*
X176680000Y-69760000D02*
X177655000Y-68785000D01*
X175605000Y-69760000D02*
X176680000Y-69760000D01*
X178630000Y-66735000D02*
X178630000Y-65870000D01*
X181000000Y-63500000D02*
X181000000Y-62000000D01*
X178630000Y-65870000D02*
X181000000Y-63500000D01*
%TO.N,Net-(J1-PadA7)*%
X175378820Y-81595219D02*
X176772240Y-81595219D01*
X176772240Y-81595219D02*
X176828831Y-81651810D01*
%TO.N,Net-(J1-PadA6)*%
X177736492Y-80731394D02*
X177933414Y-80928316D01*
X174862743Y-80731394D02*
X177736492Y-80731394D01*
%TO.N,Net-(J1-PadA5)*%
X175000000Y-82400000D02*
X175000000Y-85400000D01*
X174400000Y-81800000D02*
X175000000Y-82400000D01*
%TO.N,Net-(J1-PadB5)*%
X178000000Y-85400000D02*
X178000000Y-82548744D01*
X178000000Y-82548744D02*
X178578756Y-81969988D01*
%TO.N,RXD*%
X175920000Y-60630000D02*
X175920000Y-62000000D01*
X174479988Y-67919990D02*
X174479988Y-63440012D01*
X174479988Y-63440012D02*
X175920000Y-62000000D01*
X175019998Y-68460000D02*
X174479988Y-67919990D01*
X175605000Y-68460000D02*
X175019998Y-68460000D01*
X174855000Y-68460000D02*
X175605000Y-68460000D01*
X174117001Y-69197999D02*
X174855000Y-68460000D01*
X184000000Y-79380000D02*
X185175001Y-80555001D01*
X175034002Y-73100000D02*
X174117001Y-72182999D01*
X174117001Y-72182999D02*
X174117001Y-69197999D01*
X184655001Y-83095001D02*
X185175001Y-82575001D01*
X183435999Y-83095001D02*
X184655001Y-83095001D01*
X182100000Y-81759002D02*
X183435999Y-83095001D01*
X182100000Y-76500000D02*
X182100000Y-81759002D01*
X185175001Y-80555001D02*
X185175001Y-82575001D01*
X181700000Y-76100000D02*
X181700000Y-71000000D01*
X181700000Y-76100000D02*
X182100000Y-76500000D01*
X181700000Y-71000000D02*
X180700000Y-71000000D01*
X180700000Y-71000000D02*
X178900000Y-72800000D01*
X177600000Y-72800000D02*
X177300000Y-73100000D01*
X178900000Y-72800000D02*
X177600000Y-72800000D01*
X177300000Y-73100000D02*
X175034002Y-73100000D01*
%TO.N,+3V3*%
X179355000Y-69760000D02*
X179705000Y-69760000D01*
X178630000Y-70485000D02*
X179355000Y-69760000D01*
X178630000Y-70835000D02*
X178630000Y-70485000D01*
X177190000Y-60630000D02*
X177190000Y-62000000D01*
X179705000Y-69760000D02*
X180074978Y-69760000D01*
X180074978Y-69760000D02*
X180174990Y-69860012D01*
X176680000Y-66735000D02*
X176680000Y-65644929D01*
X176680000Y-65644929D02*
X176604990Y-65569919D01*
X178630000Y-70835000D02*
X178630000Y-72070000D01*
X178630000Y-72070000D02*
X178500000Y-72200000D01*
X178500000Y-72200000D02*
X178200000Y-72200000D01*
X177980000Y-71980000D02*
X177980000Y-70835000D01*
X178200000Y-72200000D02*
X177980000Y-71980000D01*
X182824999Y-80744999D02*
X182824999Y-76524999D01*
X184000000Y-81920000D02*
X182824999Y-80744999D01*
X177980000Y-71980000D02*
X177320000Y-71980000D01*
X177320000Y-71980000D02*
X176800000Y-72500000D01*
X175700000Y-72500000D02*
X175000000Y-71800000D01*
X176800000Y-72500000D02*
X175700000Y-72500000D01*
X182400000Y-76100000D02*
X182400000Y-69800000D01*
X182824999Y-76524999D02*
X182400000Y-76100000D01*
X180235002Y-69800000D02*
X180174990Y-69860012D01*
X182400000Y-69800000D02*
X180235002Y-69800000D01*
%TO.N,GPIO0*%
X179730000Y-60630000D02*
X179730000Y-62000000D01*
X176680000Y-71161691D02*
X176146116Y-71695575D01*
X176680000Y-70835000D02*
X176680000Y-71161691D01*
X181550011Y-77880011D02*
X181550011Y-81987599D01*
X184000000Y-84437588D02*
X184000000Y-84460000D01*
X179460000Y-75790000D02*
X181550011Y-77880011D01*
X181550011Y-81987599D02*
X184000000Y-84437588D01*
%TO.N,TXD*%
X174650000Y-60630000D02*
X174650000Y-62000000D01*
X177330000Y-66735000D02*
X177330000Y-64884235D01*
X177330000Y-64884235D02*
X177026168Y-64580403D01*
X177026168Y-64580403D02*
X176460483Y-64580403D01*
X182999990Y-75839990D02*
X184000000Y-76840000D01*
X184486800Y-71065010D02*
X182999990Y-72551820D01*
X182999990Y-72551820D02*
X182999990Y-75839990D01*
X185063180Y-71065010D02*
X184486800Y-71065010D01*
X175475001Y-59804999D02*
X185004999Y-59804999D01*
X185400010Y-70728180D02*
X185063180Y-71065010D01*
X174650000Y-60630000D02*
X175475001Y-59804999D01*
X185400010Y-60200010D02*
X185400010Y-70728180D01*
X185004999Y-59804999D02*
X185400010Y-60200010D01*
%TO.N,RST*%
X178460000Y-60630000D02*
X178460000Y-62000000D01*
X174929999Y-65078091D02*
X176433092Y-63574998D01*
X175605000Y-67810000D02*
X175354998Y-67810000D01*
X176885002Y-63574998D02*
X178460000Y-62000000D01*
X174929999Y-67385001D02*
X174929999Y-65078091D01*
X176433092Y-63574998D02*
X176885002Y-63574998D01*
X175354998Y-67810000D02*
X174929999Y-67385001D01*
%TO.N,D-*%
X183220000Y-69110000D02*
X184200000Y-70090000D01*
X179705000Y-69110000D02*
X183220000Y-69110000D01*
%TO.N,D+*%
X182800000Y-67661810D02*
X184200000Y-66261810D01*
X182800000Y-68100000D02*
X182800000Y-67661810D01*
X184200000Y-66261810D02*
X184200000Y-65000000D01*
X182440000Y-68460000D02*
X182800000Y-68100000D01*
X179705000Y-68460000D02*
X182440000Y-68460000D01*
%TD*%
D28*
%TO.N,GND*%
X173926480Y-59748388D02*
X173768388Y-59906480D01*
X173644176Y-60092376D01*
X173558617Y-60298933D01*
X173515000Y-60518212D01*
X173515000Y-60741788D01*
X173558617Y-60961067D01*
X173644176Y-61167624D01*
X173742650Y-61315000D01*
X173644176Y-61462376D01*
X173558617Y-61668933D01*
X173515000Y-61888212D01*
X173515000Y-62111788D01*
X173558617Y-62331067D01*
X173644176Y-62537624D01*
X173768388Y-62723520D01*
X173926480Y-62881612D01*
X173946284Y-62894844D01*
X173939988Y-62900011D01*
X173916190Y-62929009D01*
X173916189Y-62929010D01*
X173845014Y-63015736D01*
X173774442Y-63147766D01*
X173730986Y-63291027D01*
X173716312Y-63440012D01*
X173719989Y-63477344D01*
X173719988Y-67882667D01*
X173716312Y-67919990D01*
X173719988Y-67957312D01*
X173719988Y-67957322D01*
X173730985Y-68068975D01*
X173771998Y-68204180D01*
X173774442Y-68212236D01*
X173845014Y-68344266D01*
X173867966Y-68372233D01*
X173605999Y-68634200D01*
X173577001Y-68657998D01*
X173553203Y-68686996D01*
X173553202Y-68686997D01*
X173493248Y-68760051D01*
X173492000Y-68759928D01*
X173015750Y-68763000D01*
X172857000Y-68921750D01*
X172857000Y-70033000D01*
X172877000Y-70033000D01*
X172877000Y-70287000D01*
X172857000Y-70287000D01*
X172857000Y-71398250D01*
X173015750Y-71557000D01*
X173357001Y-71559201D01*
X173357001Y-72145676D01*
X173353325Y-72182999D01*
X173357001Y-72220321D01*
X173357001Y-72220331D01*
X173367998Y-72331984D01*
X173402152Y-72444577D01*
X173411455Y-72475245D01*
X173482027Y-72607275D01*
X173489800Y-72616746D01*
X173577000Y-72723000D01*
X173606003Y-72746802D01*
X174470203Y-73611003D01*
X174494001Y-73640001D01*
X174609726Y-73734974D01*
X174741755Y-73805546D01*
X174885016Y-73849003D01*
X174996669Y-73860000D01*
X174996678Y-73860000D01*
X175034001Y-73863676D01*
X175071324Y-73860000D01*
X177262678Y-73860000D01*
X177300000Y-73863676D01*
X177337322Y-73860000D01*
X177337333Y-73860000D01*
X177448986Y-73849003D01*
X177592247Y-73805546D01*
X177724276Y-73734974D01*
X177840001Y-73640001D01*
X177863804Y-73610997D01*
X177914801Y-73560000D01*
X178862678Y-73560000D01*
X178900000Y-73563676D01*
X178937322Y-73560000D01*
X178937333Y-73560000D01*
X179048986Y-73549003D01*
X179192247Y-73505546D01*
X179324276Y-73434974D01*
X179440001Y-73340001D01*
X179463803Y-73310998D01*
X180940001Y-71834802D01*
X180940000Y-75090576D01*
X180908918Y-75015537D01*
X180729987Y-74747748D01*
X180502252Y-74520013D01*
X180234463Y-74341082D01*
X179936912Y-74217832D01*
X179621033Y-74155000D01*
X179298967Y-74155000D01*
X178983088Y-74217832D01*
X178685537Y-74341082D01*
X178417748Y-74520013D01*
X178190013Y-74747748D01*
X178011082Y-75015537D01*
X177887832Y-75313088D01*
X177825000Y-75628967D01*
X177825000Y-75951033D01*
X177851698Y-76085256D01*
X176620469Y-74361535D01*
X176608787Y-74339680D01*
X176578483Y-74302755D01*
X176571808Y-74293410D01*
X176555588Y-74274857D01*
X176516937Y-74227762D01*
X176508002Y-74220429D01*
X176500392Y-74211725D01*
X176452112Y-74174561D01*
X176405019Y-74135913D01*
X176394824Y-74130464D01*
X176385663Y-74123412D01*
X176331069Y-74096386D01*
X176277332Y-74067663D01*
X176266266Y-74064306D01*
X176255909Y-74059179D01*
X176197099Y-74043325D01*
X176138784Y-74025635D01*
X176127277Y-74024502D01*
X176116117Y-74021493D01*
X176055341Y-74017417D01*
X175994700Y-74011444D01*
X175983192Y-74012577D01*
X175971661Y-74011804D01*
X175911266Y-74019661D01*
X175850615Y-74025635D01*
X175839549Y-74028992D01*
X175828088Y-74030483D01*
X175770391Y-74049971D01*
X175712067Y-74067663D01*
X175701866Y-74073116D01*
X175690919Y-74076813D01*
X175638138Y-74107179D01*
X175584380Y-74135913D01*
X175575440Y-74143250D01*
X175565423Y-74149013D01*
X175519561Y-74189109D01*
X175472462Y-74227763D01*
X175465129Y-74236698D01*
X175456425Y-74244308D01*
X175419261Y-74292588D01*
X175380613Y-74339681D01*
X175375164Y-74349876D01*
X175368112Y-74359037D01*
X175341086Y-74413631D01*
X175312363Y-74467368D01*
X175309006Y-74478434D01*
X175303879Y-74488791D01*
X175288025Y-74547601D01*
X175270335Y-74605916D01*
X175269202Y-74617422D01*
X175266193Y-74628583D01*
X175262117Y-74689361D01*
X175259700Y-74713896D01*
X175259700Y-74725389D01*
X175256504Y-74773039D01*
X175259700Y-74797605D01*
X175259700Y-74821922D01*
X174764555Y-74244255D01*
X174686208Y-74169192D01*
X174564132Y-74091350D01*
X174429215Y-74038819D01*
X174286643Y-74013620D01*
X174141895Y-74016718D01*
X174000531Y-74047997D01*
X173867986Y-74106253D01*
X173749354Y-74189248D01*
X173649192Y-74293792D01*
X173643154Y-74303261D01*
X173436912Y-74217832D01*
X173121033Y-74155000D01*
X172798967Y-74155000D01*
X172483088Y-74217832D01*
X172185537Y-74341082D01*
X171917748Y-74520013D01*
X171690013Y-74747748D01*
X171511082Y-75015537D01*
X171387832Y-75313088D01*
X171325000Y-75628967D01*
X171325000Y-75951033D01*
X171387832Y-76266912D01*
X171511082Y-76564463D01*
X171690013Y-76832252D01*
X171917748Y-77059987D01*
X172185537Y-77238918D01*
X172483088Y-77362168D01*
X172798967Y-77425000D01*
X173121033Y-77425000D01*
X173436912Y-77362168D01*
X173734463Y-77238918D01*
X174002252Y-77059987D01*
X174229987Y-76832252D01*
X174408918Y-76564463D01*
X174532168Y-76266912D01*
X174537818Y-76238510D01*
X175026657Y-76808821D01*
X173648450Y-78416732D01*
X173586252Y-78505638D01*
X173527996Y-78638183D01*
X173504893Y-78742601D01*
X173218892Y-78667616D01*
X172897405Y-78648282D01*
X172578325Y-78692039D01*
X172273912Y-78797205D01*
X172099956Y-78890186D01*
X172004192Y-79154587D01*
X172960000Y-80110395D01*
X172974143Y-80096253D01*
X173153748Y-80275858D01*
X173139605Y-80290000D01*
X173153748Y-80304143D01*
X172974143Y-80483748D01*
X172960000Y-80469605D01*
X172004192Y-81425413D01*
X172099956Y-81689814D01*
X172389571Y-81830704D01*
X172701108Y-81912384D01*
X173022595Y-81931718D01*
X173341675Y-81887961D01*
X173365000Y-81879903D01*
X173365000Y-81901939D01*
X173404774Y-82101898D01*
X173482795Y-82290256D01*
X173596063Y-82459774D01*
X173740226Y-82603937D01*
X173909744Y-82717205D01*
X174098102Y-82795226D01*
X174240000Y-82823451D01*
X174240000Y-83761889D01*
X174114541Y-83755064D01*
X173659605Y-84210000D01*
X173673748Y-84224143D01*
X173574566Y-84323324D01*
X173585704Y-84300429D01*
X173667384Y-83988892D01*
X173676719Y-83833676D01*
X173934936Y-83575459D01*
X173924425Y-83382237D01*
X173754397Y-83311438D01*
X173620959Y-83284639D01*
X173537795Y-83043912D01*
X173444814Y-82869956D01*
X173180413Y-82774192D01*
X172224605Y-83730000D01*
X172238748Y-83744143D01*
X172059143Y-83923748D01*
X172045000Y-83909605D01*
X171089192Y-84865413D01*
X171184956Y-85129814D01*
X171474571Y-85270704D01*
X171786108Y-85352384D01*
X172107595Y-85371718D01*
X172426675Y-85327961D01*
X172731088Y-85222795D01*
X172905044Y-85129814D01*
X172998885Y-84870723D01*
X173002500Y-84867108D01*
X173027660Y-84892268D01*
X173035575Y-85037763D01*
X173205603Y-85108562D01*
X173386176Y-85144828D01*
X173486928Y-85145016D01*
X173486928Y-85800000D01*
X173503992Y-85973254D01*
X173554528Y-86139850D01*
X173636595Y-86293386D01*
X173747038Y-86427962D01*
X173881614Y-86538405D01*
X174035150Y-86620472D01*
X174201746Y-86671008D01*
X174375000Y-86688072D01*
X175625000Y-86688072D01*
X175798254Y-86671008D01*
X175964850Y-86620472D01*
X176118386Y-86538405D01*
X176252962Y-86427962D01*
X176363405Y-86293386D01*
X176445472Y-86139850D01*
X176496008Y-85973254D01*
X176500000Y-85932722D01*
X176503992Y-85973254D01*
X176554528Y-86139850D01*
X176636595Y-86293386D01*
X176747038Y-86427962D01*
X176881614Y-86538405D01*
X177035150Y-86620472D01*
X177201746Y-86671008D01*
X177375000Y-86688072D01*
X178625000Y-86688072D01*
X178798254Y-86671008D01*
X178964850Y-86620472D01*
X179118386Y-86538405D01*
X179252962Y-86427962D01*
X179363405Y-86293386D01*
X179445472Y-86139850D01*
X179496008Y-85973254D01*
X179513072Y-85800000D01*
X179513072Y-85113118D01*
X179531061Y-85109574D01*
X179701351Y-85039408D01*
X179704425Y-85037763D01*
X179712340Y-84892268D01*
X179737500Y-84867108D01*
X179741115Y-84870723D01*
X179834956Y-85129814D01*
X180124571Y-85270704D01*
X180436108Y-85352384D01*
X180757595Y-85371718D01*
X181076675Y-85327961D01*
X181381088Y-85222795D01*
X181555044Y-85129814D01*
X181650808Y-84865413D01*
X180695000Y-83909605D01*
X180680858Y-83923748D01*
X180501253Y-83744143D01*
X180515395Y-83730000D01*
X179559587Y-82774192D01*
X179295186Y-82869956D01*
X179154296Y-83159571D01*
X179121596Y-83284294D01*
X178988939Y-83310426D01*
X178818649Y-83380592D01*
X178815575Y-83382237D01*
X178805064Y-83575456D01*
X178760000Y-83530392D01*
X178760000Y-82989213D01*
X178880654Y-82965214D01*
X179069012Y-82887193D01*
X179238530Y-82773925D01*
X179382693Y-82629762D01*
X179495961Y-82460244D01*
X179573982Y-82271886D01*
X179613756Y-82071927D01*
X179613756Y-81919217D01*
X179841675Y-81887961D01*
X180146088Y-81782795D01*
X180320044Y-81689814D01*
X180415808Y-81425413D01*
X179460000Y-80469605D01*
X179445858Y-80483748D01*
X179266253Y-80304143D01*
X179280395Y-80290000D01*
X179266253Y-80275858D01*
X179445858Y-80096253D01*
X179460000Y-80110395D01*
X180415808Y-79154587D01*
X180320044Y-78890186D01*
X180030429Y-78749296D01*
X179718892Y-78667616D01*
X179642558Y-78663025D01*
X179609067Y-78563868D01*
X179554959Y-78469819D01*
X178666802Y-77226399D01*
X178685537Y-77238918D01*
X178983088Y-77362168D01*
X179298967Y-77425000D01*
X179621033Y-77425000D01*
X179936912Y-77362168D01*
X179951376Y-77356177D01*
X180790011Y-78194813D01*
X180790011Y-79404674D01*
X180595413Y-79334192D01*
X179639605Y-80290000D01*
X180595413Y-81245808D01*
X180790012Y-81175326D01*
X180790012Y-81950267D01*
X180786335Y-81987599D01*
X180790012Y-82024932D01*
X180797228Y-82098194D01*
X180632405Y-82088282D01*
X180313325Y-82132039D01*
X180008912Y-82237205D01*
X179834956Y-82330186D01*
X179739192Y-82594587D01*
X180695000Y-83550395D01*
X180709143Y-83536253D01*
X180888748Y-83715858D01*
X180874605Y-83730000D01*
X181830413Y-84685808D01*
X182094814Y-84590044D01*
X182235704Y-84300429D01*
X182317384Y-83988892D01*
X182326410Y-83838800D01*
X182562509Y-84074899D01*
X182515000Y-84313740D01*
X182515000Y-84606260D01*
X182572068Y-84893158D01*
X182684010Y-85163411D01*
X182846525Y-85406632D01*
X182978380Y-85538487D01*
X182905820Y-85560498D01*
X182795506Y-85619463D01*
X182698815Y-85698815D01*
X182619463Y-85795506D01*
X182560498Y-85905820D01*
X182524188Y-86025518D01*
X182511928Y-86150000D01*
X182515000Y-86714250D01*
X182673750Y-86873000D01*
X183873000Y-86873000D01*
X183873000Y-86853000D01*
X184127000Y-86853000D01*
X184127000Y-86873000D01*
X184147000Y-86873000D01*
X184147000Y-87127000D01*
X184127000Y-87127000D01*
X184127000Y-88326250D01*
X184285750Y-88485000D01*
X184850000Y-88488072D01*
X184974482Y-88475812D01*
X185094180Y-88439502D01*
X185204494Y-88380537D01*
X185301185Y-88301185D01*
X185315001Y-88284350D01*
X185315001Y-88966485D01*
X185305778Y-89060546D01*
X185288194Y-89118787D01*
X185259635Y-89172500D01*
X185221183Y-89219646D01*
X185174310Y-89258423D01*
X185120796Y-89287358D01*
X185062677Y-89305349D01*
X184970855Y-89315000D01*
X181176089Y-89315000D01*
X181328747Y-89260919D01*
X181466157Y-89187472D01*
X181543792Y-88938397D01*
X180695000Y-88089605D01*
X179846208Y-88938397D01*
X179923843Y-89187472D01*
X180187883Y-89313371D01*
X180194301Y-89315000D01*
X179488521Y-89315000D01*
X179500812Y-89274482D01*
X179513072Y-89150000D01*
X179510000Y-88785750D01*
X179351252Y-88627002D01*
X179388582Y-88627002D01*
X179417528Y-88681157D01*
X179666603Y-88758792D01*
X180515395Y-87910000D01*
X180874605Y-87910000D01*
X181723397Y-88758792D01*
X181972472Y-88681157D01*
X182098371Y-88417117D01*
X182170339Y-88133589D01*
X182185165Y-87850000D01*
X182511928Y-87850000D01*
X182524188Y-87974482D01*
X182560498Y-88094180D01*
X182619463Y-88204494D01*
X182698815Y-88301185D01*
X182795506Y-88380537D01*
X182905820Y-88439502D01*
X183025518Y-88475812D01*
X183150000Y-88488072D01*
X183714250Y-88485000D01*
X183873000Y-88326250D01*
X183873000Y-87127000D01*
X182673750Y-87127000D01*
X182515000Y-87285750D01*
X182511928Y-87850000D01*
X182185165Y-87850000D01*
X182185611Y-87841469D01*
X182143599Y-87551981D01*
X182045919Y-87276253D01*
X181972472Y-87138843D01*
X181723397Y-87061208D01*
X180874605Y-87910000D01*
X180515395Y-87910000D01*
X179666603Y-87061208D01*
X179417528Y-87138843D01*
X179302742Y-87379576D01*
X179229494Y-87319463D01*
X179119180Y-87260498D01*
X178999482Y-87224188D01*
X178875000Y-87211928D01*
X178285750Y-87215000D01*
X178127000Y-87373750D01*
X178127000Y-88373000D01*
X178147000Y-88373000D01*
X178147000Y-88627000D01*
X178127000Y-88627000D01*
X178127000Y-88647000D01*
X177873000Y-88647000D01*
X177873000Y-88627000D01*
X176648750Y-88627000D01*
X176500000Y-88775750D01*
X176351250Y-88627000D01*
X175127000Y-88627000D01*
X175127000Y-88647000D01*
X174873000Y-88647000D01*
X174873000Y-88627000D01*
X173648750Y-88627000D01*
X173490000Y-88785750D01*
X173486928Y-89150000D01*
X173499188Y-89274482D01*
X173511479Y-89315000D01*
X172526089Y-89315000D01*
X172678747Y-89260919D01*
X172816157Y-89187472D01*
X172893792Y-88938397D01*
X172045000Y-88089605D01*
X171196208Y-88938397D01*
X171273843Y-89187472D01*
X171537883Y-89313371D01*
X171544301Y-89315000D01*
X171033505Y-89315000D01*
X170939454Y-89305778D01*
X170881213Y-89288194D01*
X170827500Y-89259635D01*
X170780354Y-89221183D01*
X170741577Y-89174310D01*
X170712642Y-89120796D01*
X170694651Y-89062677D01*
X170685000Y-88970855D01*
X170685000Y-88518113D01*
X170694081Y-88543747D01*
X170767528Y-88681157D01*
X171016603Y-88758792D01*
X171865395Y-87910000D01*
X172224605Y-87910000D01*
X173073397Y-88758792D01*
X173322472Y-88681157D01*
X173448371Y-88417117D01*
X173497868Y-88222118D01*
X173648750Y-88373000D01*
X174873000Y-88373000D01*
X174873000Y-87373750D01*
X175127000Y-87373750D01*
X175127000Y-88373000D01*
X176351250Y-88373000D01*
X176500000Y-88224250D01*
X176648750Y-88373000D01*
X177873000Y-88373000D01*
X177873000Y-87373750D01*
X177714250Y-87215000D01*
X177125000Y-87211928D01*
X177000518Y-87224188D01*
X176880820Y-87260498D01*
X176770506Y-87319463D01*
X176673815Y-87398815D01*
X176594463Y-87495506D01*
X176535498Y-87605820D01*
X176500000Y-87722841D01*
X176464502Y-87605820D01*
X176405537Y-87495506D01*
X176326185Y-87398815D01*
X176229494Y-87319463D01*
X176119180Y-87260498D01*
X175999482Y-87224188D01*
X175875000Y-87211928D01*
X175285750Y-87215000D01*
X175127000Y-87373750D01*
X174873000Y-87373750D01*
X174714250Y-87215000D01*
X174125000Y-87211928D01*
X174000518Y-87224188D01*
X173880820Y-87260498D01*
X173770506Y-87319463D01*
X173673815Y-87398815D01*
X173594463Y-87495506D01*
X173535498Y-87605820D01*
X173512442Y-87681824D01*
X173493599Y-87551981D01*
X173395919Y-87276253D01*
X173322472Y-87138843D01*
X173073397Y-87061208D01*
X172224605Y-87910000D01*
X171865395Y-87910000D01*
X171016603Y-87061208D01*
X170767528Y-87138843D01*
X170685000Y-87311924D01*
X170685000Y-86881603D01*
X171196208Y-86881603D01*
X172045000Y-87730395D01*
X172893792Y-86881603D01*
X179846208Y-86881603D01*
X180695000Y-87730395D01*
X181543792Y-86881603D01*
X181466157Y-86632528D01*
X181202117Y-86506629D01*
X180918589Y-86434661D01*
X180626469Y-86419389D01*
X180336981Y-86461401D01*
X180061253Y-86559081D01*
X179923843Y-86632528D01*
X179846208Y-86881603D01*
X172893792Y-86881603D01*
X172816157Y-86632528D01*
X172552117Y-86506629D01*
X172268589Y-86434661D01*
X171976469Y-86419389D01*
X171686981Y-86461401D01*
X171411253Y-86559081D01*
X171273843Y-86632528D01*
X171196208Y-86881603D01*
X170685000Y-86881603D01*
X170685000Y-84604464D01*
X170909587Y-84685808D01*
X171865395Y-83730000D01*
X170909587Y-82774192D01*
X170685000Y-82855536D01*
X170685000Y-82594587D01*
X171089192Y-82594587D01*
X172045000Y-83550395D01*
X173000808Y-82594587D01*
X172905044Y-82330186D01*
X172615429Y-82189296D01*
X172303892Y-82107616D01*
X171982405Y-82088282D01*
X171663325Y-82132039D01*
X171358912Y-82237205D01*
X171184956Y-82330186D01*
X171089192Y-82594587D01*
X170685000Y-82594587D01*
X170685000Y-80352595D01*
X171318282Y-80352595D01*
X171362039Y-80671675D01*
X171467205Y-80976088D01*
X171560186Y-81150044D01*
X171824587Y-81245808D01*
X172780395Y-80290000D01*
X171824587Y-79334192D01*
X171560186Y-79429956D01*
X171419296Y-79719571D01*
X171337616Y-80031108D01*
X171318282Y-80352595D01*
X170685000Y-80352595D01*
X170685000Y-70922000D01*
X171329928Y-70922000D01*
X171342188Y-71046482D01*
X171378498Y-71166180D01*
X171437463Y-71276494D01*
X171516815Y-71373185D01*
X171613506Y-71452537D01*
X171723820Y-71511502D01*
X171843518Y-71547812D01*
X171968000Y-71560072D01*
X172444250Y-71557000D01*
X172603000Y-71398250D01*
X172603000Y-70287000D01*
X171491750Y-70287000D01*
X171333000Y-70445750D01*
X171329928Y-70922000D01*
X170685000Y-70922000D01*
X170685000Y-69398000D01*
X171329928Y-69398000D01*
X171333000Y-69874250D01*
X171491750Y-70033000D01*
X172603000Y-70033000D01*
X172603000Y-68921750D01*
X172444250Y-68763000D01*
X171968000Y-68759928D01*
X171843518Y-68772188D01*
X171723820Y-68808498D01*
X171613506Y-68867463D01*
X171516815Y-68946815D01*
X171437463Y-69043506D01*
X171378498Y-69153820D01*
X171342188Y-69273518D01*
X171329928Y-69398000D01*
X170685000Y-69398000D01*
X170685000Y-68535000D01*
X173265000Y-68535000D01*
X173265000Y-59685000D01*
X174021347Y-59685000D01*
X173926480Y-59748388D01*
%TA.AperFunction,Conductor*%
D29*
G36*
X173926480Y-59748388D02*
G01*
X173768388Y-59906480D01*
X173644176Y-60092376D01*
X173558617Y-60298933D01*
X173515000Y-60518212D01*
X173515000Y-60741788D01*
X173558617Y-60961067D01*
X173644176Y-61167624D01*
X173742650Y-61315000D01*
X173644176Y-61462376D01*
X173558617Y-61668933D01*
X173515000Y-61888212D01*
X173515000Y-62111788D01*
X173558617Y-62331067D01*
X173644176Y-62537624D01*
X173768388Y-62723520D01*
X173926480Y-62881612D01*
X173946284Y-62894844D01*
X173939988Y-62900011D01*
X173916190Y-62929009D01*
X173916189Y-62929010D01*
X173845014Y-63015736D01*
X173774442Y-63147766D01*
X173730986Y-63291027D01*
X173716312Y-63440012D01*
X173719989Y-63477344D01*
X173719988Y-67882667D01*
X173716312Y-67919990D01*
X173719988Y-67957312D01*
X173719988Y-67957322D01*
X173730985Y-68068975D01*
X173771998Y-68204180D01*
X173774442Y-68212236D01*
X173845014Y-68344266D01*
X173867966Y-68372233D01*
X173605999Y-68634200D01*
X173577001Y-68657998D01*
X173553203Y-68686996D01*
X173553202Y-68686997D01*
X173493248Y-68760051D01*
X173492000Y-68759928D01*
X173015750Y-68763000D01*
X172857000Y-68921750D01*
X172857000Y-70033000D01*
X172877000Y-70033000D01*
X172877000Y-70287000D01*
X172857000Y-70287000D01*
X172857000Y-71398250D01*
X173015750Y-71557000D01*
X173357001Y-71559201D01*
X173357001Y-72145676D01*
X173353325Y-72182999D01*
X173357001Y-72220321D01*
X173357001Y-72220331D01*
X173367998Y-72331984D01*
X173402152Y-72444577D01*
X173411455Y-72475245D01*
X173482027Y-72607275D01*
X173489800Y-72616746D01*
X173577000Y-72723000D01*
X173606003Y-72746802D01*
X174470203Y-73611003D01*
X174494001Y-73640001D01*
X174609726Y-73734974D01*
X174741755Y-73805546D01*
X174885016Y-73849003D01*
X174996669Y-73860000D01*
X174996678Y-73860000D01*
X175034001Y-73863676D01*
X175071324Y-73860000D01*
X177262678Y-73860000D01*
X177300000Y-73863676D01*
X177337322Y-73860000D01*
X177337333Y-73860000D01*
X177448986Y-73849003D01*
X177592247Y-73805546D01*
X177724276Y-73734974D01*
X177840001Y-73640001D01*
X177863804Y-73610997D01*
X177914801Y-73560000D01*
X178862678Y-73560000D01*
X178900000Y-73563676D01*
X178937322Y-73560000D01*
X178937333Y-73560000D01*
X179048986Y-73549003D01*
X179192247Y-73505546D01*
X179324276Y-73434974D01*
X179440001Y-73340001D01*
X179463803Y-73310998D01*
X180940001Y-71834802D01*
X180940000Y-75090576D01*
X180908918Y-75015537D01*
X180729987Y-74747748D01*
X180502252Y-74520013D01*
X180234463Y-74341082D01*
X179936912Y-74217832D01*
X179621033Y-74155000D01*
X179298967Y-74155000D01*
X178983088Y-74217832D01*
X178685537Y-74341082D01*
X178417748Y-74520013D01*
X178190013Y-74747748D01*
X178011082Y-75015537D01*
X177887832Y-75313088D01*
X177825000Y-75628967D01*
X177825000Y-75951033D01*
X177851698Y-76085256D01*
X176620469Y-74361535D01*
X176608787Y-74339680D01*
X176578483Y-74302755D01*
X176571808Y-74293410D01*
X176555588Y-74274857D01*
X176516937Y-74227762D01*
X176508002Y-74220429D01*
X176500392Y-74211725D01*
X176452112Y-74174561D01*
X176405019Y-74135913D01*
X176394824Y-74130464D01*
X176385663Y-74123412D01*
X176331069Y-74096386D01*
X176277332Y-74067663D01*
X176266266Y-74064306D01*
X176255909Y-74059179D01*
X176197099Y-74043325D01*
X176138784Y-74025635D01*
X176127277Y-74024502D01*
X176116117Y-74021493D01*
X176055341Y-74017417D01*
X175994700Y-74011444D01*
X175983192Y-74012577D01*
X175971661Y-74011804D01*
X175911266Y-74019661D01*
X175850615Y-74025635D01*
X175839549Y-74028992D01*
X175828088Y-74030483D01*
X175770391Y-74049971D01*
X175712067Y-74067663D01*
X175701866Y-74073116D01*
X175690919Y-74076813D01*
X175638138Y-74107179D01*
X175584380Y-74135913D01*
X175575440Y-74143250D01*
X175565423Y-74149013D01*
X175519561Y-74189109D01*
X175472462Y-74227763D01*
X175465129Y-74236698D01*
X175456425Y-74244308D01*
X175419261Y-74292588D01*
X175380613Y-74339681D01*
X175375164Y-74349876D01*
X175368112Y-74359037D01*
X175341086Y-74413631D01*
X175312363Y-74467368D01*
X175309006Y-74478434D01*
X175303879Y-74488791D01*
X175288025Y-74547601D01*
X175270335Y-74605916D01*
X175269202Y-74617422D01*
X175266193Y-74628583D01*
X175262117Y-74689361D01*
X175259700Y-74713896D01*
X175259700Y-74725389D01*
X175256504Y-74773039D01*
X175259700Y-74797605D01*
X175259700Y-74821922D01*
X174764555Y-74244255D01*
X174686208Y-74169192D01*
X174564132Y-74091350D01*
X174429215Y-74038819D01*
X174286643Y-74013620D01*
X174141895Y-74016718D01*
X174000531Y-74047997D01*
X173867986Y-74106253D01*
X173749354Y-74189248D01*
X173649192Y-74293792D01*
X173643154Y-74303261D01*
X173436912Y-74217832D01*
X173121033Y-74155000D01*
X172798967Y-74155000D01*
X172483088Y-74217832D01*
X172185537Y-74341082D01*
X171917748Y-74520013D01*
X171690013Y-74747748D01*
X171511082Y-75015537D01*
X171387832Y-75313088D01*
X171325000Y-75628967D01*
X171325000Y-75951033D01*
X171387832Y-76266912D01*
X171511082Y-76564463D01*
X171690013Y-76832252D01*
X171917748Y-77059987D01*
X172185537Y-77238918D01*
X172483088Y-77362168D01*
X172798967Y-77425000D01*
X173121033Y-77425000D01*
X173436912Y-77362168D01*
X173734463Y-77238918D01*
X174002252Y-77059987D01*
X174229987Y-76832252D01*
X174408918Y-76564463D01*
X174532168Y-76266912D01*
X174537818Y-76238510D01*
X175026657Y-76808821D01*
X173648450Y-78416732D01*
X173586252Y-78505638D01*
X173527996Y-78638183D01*
X173504893Y-78742601D01*
X173218892Y-78667616D01*
X172897405Y-78648282D01*
X172578325Y-78692039D01*
X172273912Y-78797205D01*
X172099956Y-78890186D01*
X172004192Y-79154587D01*
X172960000Y-80110395D01*
X172974143Y-80096253D01*
X173153748Y-80275858D01*
X173139605Y-80290000D01*
X173153748Y-80304143D01*
X172974143Y-80483748D01*
X172960000Y-80469605D01*
X172004192Y-81425413D01*
X172099956Y-81689814D01*
X172389571Y-81830704D01*
X172701108Y-81912384D01*
X173022595Y-81931718D01*
X173341675Y-81887961D01*
X173365000Y-81879903D01*
X173365000Y-81901939D01*
X173404774Y-82101898D01*
X173482795Y-82290256D01*
X173596063Y-82459774D01*
X173740226Y-82603937D01*
X173909744Y-82717205D01*
X174098102Y-82795226D01*
X174240000Y-82823451D01*
X174240000Y-83761889D01*
X174114541Y-83755064D01*
X173659605Y-84210000D01*
X173673748Y-84224143D01*
X173574566Y-84323324D01*
X173585704Y-84300429D01*
X173667384Y-83988892D01*
X173676719Y-83833676D01*
X173934936Y-83575459D01*
X173924425Y-83382237D01*
X173754397Y-83311438D01*
X173620959Y-83284639D01*
X173537795Y-83043912D01*
X173444814Y-82869956D01*
X173180413Y-82774192D01*
X172224605Y-83730000D01*
X172238748Y-83744143D01*
X172059143Y-83923748D01*
X172045000Y-83909605D01*
X171089192Y-84865413D01*
X171184956Y-85129814D01*
X171474571Y-85270704D01*
X171786108Y-85352384D01*
X172107595Y-85371718D01*
X172426675Y-85327961D01*
X172731088Y-85222795D01*
X172905044Y-85129814D01*
X172998885Y-84870723D01*
X173002500Y-84867108D01*
X173027660Y-84892268D01*
X173035575Y-85037763D01*
X173205603Y-85108562D01*
X173386176Y-85144828D01*
X173486928Y-85145016D01*
X173486928Y-85800000D01*
X173503992Y-85973254D01*
X173554528Y-86139850D01*
X173636595Y-86293386D01*
X173747038Y-86427962D01*
X173881614Y-86538405D01*
X174035150Y-86620472D01*
X174201746Y-86671008D01*
X174375000Y-86688072D01*
X175625000Y-86688072D01*
X175798254Y-86671008D01*
X175964850Y-86620472D01*
X176118386Y-86538405D01*
X176252962Y-86427962D01*
X176363405Y-86293386D01*
X176445472Y-86139850D01*
X176496008Y-85973254D01*
X176500000Y-85932722D01*
X176503992Y-85973254D01*
X176554528Y-86139850D01*
X176636595Y-86293386D01*
X176747038Y-86427962D01*
X176881614Y-86538405D01*
X177035150Y-86620472D01*
X177201746Y-86671008D01*
X177375000Y-86688072D01*
X178625000Y-86688072D01*
X178798254Y-86671008D01*
X178964850Y-86620472D01*
X179118386Y-86538405D01*
X179252962Y-86427962D01*
X179363405Y-86293386D01*
X179445472Y-86139850D01*
X179496008Y-85973254D01*
X179513072Y-85800000D01*
X179513072Y-85113118D01*
X179531061Y-85109574D01*
X179701351Y-85039408D01*
X179704425Y-85037763D01*
X179712340Y-84892268D01*
X179737500Y-84867108D01*
X179741115Y-84870723D01*
X179834956Y-85129814D01*
X180124571Y-85270704D01*
X180436108Y-85352384D01*
X180757595Y-85371718D01*
X181076675Y-85327961D01*
X181381088Y-85222795D01*
X181555044Y-85129814D01*
X181650808Y-84865413D01*
X180695000Y-83909605D01*
X180680858Y-83923748D01*
X180501253Y-83744143D01*
X180515395Y-83730000D01*
X179559587Y-82774192D01*
X179295186Y-82869956D01*
X179154296Y-83159571D01*
X179121596Y-83284294D01*
X178988939Y-83310426D01*
X178818649Y-83380592D01*
X178815575Y-83382237D01*
X178805064Y-83575456D01*
X178760000Y-83530392D01*
X178760000Y-82989213D01*
X178880654Y-82965214D01*
X179069012Y-82887193D01*
X179238530Y-82773925D01*
X179382693Y-82629762D01*
X179495961Y-82460244D01*
X179573982Y-82271886D01*
X179613756Y-82071927D01*
X179613756Y-81919217D01*
X179841675Y-81887961D01*
X180146088Y-81782795D01*
X180320044Y-81689814D01*
X180415808Y-81425413D01*
X179460000Y-80469605D01*
X179445858Y-80483748D01*
X179266253Y-80304143D01*
X179280395Y-80290000D01*
X179266253Y-80275858D01*
X179445858Y-80096253D01*
X179460000Y-80110395D01*
X180415808Y-79154587D01*
X180320044Y-78890186D01*
X180030429Y-78749296D01*
X179718892Y-78667616D01*
X179642558Y-78663025D01*
X179609067Y-78563868D01*
X179554959Y-78469819D01*
X178666802Y-77226399D01*
X178685537Y-77238918D01*
X178983088Y-77362168D01*
X179298967Y-77425000D01*
X179621033Y-77425000D01*
X179936912Y-77362168D01*
X179951376Y-77356177D01*
X180790011Y-78194813D01*
X180790011Y-79404674D01*
X180595413Y-79334192D01*
X179639605Y-80290000D01*
X180595413Y-81245808D01*
X180790012Y-81175326D01*
X180790012Y-81950267D01*
X180786335Y-81987599D01*
X180790012Y-82024932D01*
X180797228Y-82098194D01*
X180632405Y-82088282D01*
X180313325Y-82132039D01*
X180008912Y-82237205D01*
X179834956Y-82330186D01*
X179739192Y-82594587D01*
X180695000Y-83550395D01*
X180709143Y-83536253D01*
X180888748Y-83715858D01*
X180874605Y-83730000D01*
X181830413Y-84685808D01*
X182094814Y-84590044D01*
X182235704Y-84300429D01*
X182317384Y-83988892D01*
X182326410Y-83838800D01*
X182562509Y-84074899D01*
X182515000Y-84313740D01*
X182515000Y-84606260D01*
X182572068Y-84893158D01*
X182684010Y-85163411D01*
X182846525Y-85406632D01*
X182978380Y-85538487D01*
X182905820Y-85560498D01*
X182795506Y-85619463D01*
X182698815Y-85698815D01*
X182619463Y-85795506D01*
X182560498Y-85905820D01*
X182524188Y-86025518D01*
X182511928Y-86150000D01*
X182515000Y-86714250D01*
X182673750Y-86873000D01*
X183873000Y-86873000D01*
X183873000Y-86853000D01*
X184127000Y-86853000D01*
X184127000Y-86873000D01*
X184147000Y-86873000D01*
X184147000Y-87127000D01*
X184127000Y-87127000D01*
X184127000Y-88326250D01*
X184285750Y-88485000D01*
X184850000Y-88488072D01*
X184974482Y-88475812D01*
X185094180Y-88439502D01*
X185204494Y-88380537D01*
X185301185Y-88301185D01*
X185315001Y-88284350D01*
X185315001Y-88966485D01*
X185305778Y-89060546D01*
X185288194Y-89118787D01*
X185259635Y-89172500D01*
X185221183Y-89219646D01*
X185174310Y-89258423D01*
X185120796Y-89287358D01*
X185062677Y-89305349D01*
X184970855Y-89315000D01*
X181176089Y-89315000D01*
X181328747Y-89260919D01*
X181466157Y-89187472D01*
X181543792Y-88938397D01*
X180695000Y-88089605D01*
X179846208Y-88938397D01*
X179923843Y-89187472D01*
X180187883Y-89313371D01*
X180194301Y-89315000D01*
X179488521Y-89315000D01*
X179500812Y-89274482D01*
X179513072Y-89150000D01*
X179510000Y-88785750D01*
X179351252Y-88627002D01*
X179388582Y-88627002D01*
X179417528Y-88681157D01*
X179666603Y-88758792D01*
X180515395Y-87910000D01*
X180874605Y-87910000D01*
X181723397Y-88758792D01*
X181972472Y-88681157D01*
X182098371Y-88417117D01*
X182170339Y-88133589D01*
X182185165Y-87850000D01*
X182511928Y-87850000D01*
X182524188Y-87974482D01*
X182560498Y-88094180D01*
X182619463Y-88204494D01*
X182698815Y-88301185D01*
X182795506Y-88380537D01*
X182905820Y-88439502D01*
X183025518Y-88475812D01*
X183150000Y-88488072D01*
X183714250Y-88485000D01*
X183873000Y-88326250D01*
X183873000Y-87127000D01*
X182673750Y-87127000D01*
X182515000Y-87285750D01*
X182511928Y-87850000D01*
X182185165Y-87850000D01*
X182185611Y-87841469D01*
X182143599Y-87551981D01*
X182045919Y-87276253D01*
X181972472Y-87138843D01*
X181723397Y-87061208D01*
X180874605Y-87910000D01*
X180515395Y-87910000D01*
X179666603Y-87061208D01*
X179417528Y-87138843D01*
X179302742Y-87379576D01*
X179229494Y-87319463D01*
X179119180Y-87260498D01*
X178999482Y-87224188D01*
X178875000Y-87211928D01*
X178285750Y-87215000D01*
X178127000Y-87373750D01*
X178127000Y-88373000D01*
X178147000Y-88373000D01*
X178147000Y-88627000D01*
X178127000Y-88627000D01*
X178127000Y-88647000D01*
X177873000Y-88647000D01*
X177873000Y-88627000D01*
X176648750Y-88627000D01*
X176500000Y-88775750D01*
X176351250Y-88627000D01*
X175127000Y-88627000D01*
X175127000Y-88647000D01*
X174873000Y-88647000D01*
X174873000Y-88627000D01*
X173648750Y-88627000D01*
X173490000Y-88785750D01*
X173486928Y-89150000D01*
X173499188Y-89274482D01*
X173511479Y-89315000D01*
X172526089Y-89315000D01*
X172678747Y-89260919D01*
X172816157Y-89187472D01*
X172893792Y-88938397D01*
X172045000Y-88089605D01*
X171196208Y-88938397D01*
X171273843Y-89187472D01*
X171537883Y-89313371D01*
X171544301Y-89315000D01*
X171033505Y-89315000D01*
X170939454Y-89305778D01*
X170881213Y-89288194D01*
X170827500Y-89259635D01*
X170780354Y-89221183D01*
X170741577Y-89174310D01*
X170712642Y-89120796D01*
X170694651Y-89062677D01*
X170685000Y-88970855D01*
X170685000Y-88518113D01*
X170694081Y-88543747D01*
X170767528Y-88681157D01*
X171016603Y-88758792D01*
X171865395Y-87910000D01*
X172224605Y-87910000D01*
X173073397Y-88758792D01*
X173322472Y-88681157D01*
X173448371Y-88417117D01*
X173497868Y-88222118D01*
X173648750Y-88373000D01*
X174873000Y-88373000D01*
X174873000Y-87373750D01*
X175127000Y-87373750D01*
X175127000Y-88373000D01*
X176351250Y-88373000D01*
X176500000Y-88224250D01*
X176648750Y-88373000D01*
X177873000Y-88373000D01*
X177873000Y-87373750D01*
X177714250Y-87215000D01*
X177125000Y-87211928D01*
X177000518Y-87224188D01*
X176880820Y-87260498D01*
X176770506Y-87319463D01*
X176673815Y-87398815D01*
X176594463Y-87495506D01*
X176535498Y-87605820D01*
X176500000Y-87722841D01*
X176464502Y-87605820D01*
X176405537Y-87495506D01*
X176326185Y-87398815D01*
X176229494Y-87319463D01*
X176119180Y-87260498D01*
X175999482Y-87224188D01*
X175875000Y-87211928D01*
X175285750Y-87215000D01*
X175127000Y-87373750D01*
X174873000Y-87373750D01*
X174714250Y-87215000D01*
X174125000Y-87211928D01*
X174000518Y-87224188D01*
X173880820Y-87260498D01*
X173770506Y-87319463D01*
X173673815Y-87398815D01*
X173594463Y-87495506D01*
X173535498Y-87605820D01*
X173512442Y-87681824D01*
X173493599Y-87551981D01*
X173395919Y-87276253D01*
X173322472Y-87138843D01*
X173073397Y-87061208D01*
X172224605Y-87910000D01*
X171865395Y-87910000D01*
X171016603Y-87061208D01*
X170767528Y-87138843D01*
X170685000Y-87311924D01*
X170685000Y-86881603D01*
X171196208Y-86881603D01*
X172045000Y-87730395D01*
X172893792Y-86881603D01*
X179846208Y-86881603D01*
X180695000Y-87730395D01*
X181543792Y-86881603D01*
X181466157Y-86632528D01*
X181202117Y-86506629D01*
X180918589Y-86434661D01*
X180626469Y-86419389D01*
X180336981Y-86461401D01*
X180061253Y-86559081D01*
X179923843Y-86632528D01*
X179846208Y-86881603D01*
X172893792Y-86881603D01*
X172816157Y-86632528D01*
X172552117Y-86506629D01*
X172268589Y-86434661D01*
X171976469Y-86419389D01*
X171686981Y-86461401D01*
X171411253Y-86559081D01*
X171273843Y-86632528D01*
X171196208Y-86881603D01*
X170685000Y-86881603D01*
X170685000Y-84604464D01*
X170909587Y-84685808D01*
X171865395Y-83730000D01*
X170909587Y-82774192D01*
X170685000Y-82855536D01*
X170685000Y-82594587D01*
X171089192Y-82594587D01*
X172045000Y-83550395D01*
X173000808Y-82594587D01*
X172905044Y-82330186D01*
X172615429Y-82189296D01*
X172303892Y-82107616D01*
X171982405Y-82088282D01*
X171663325Y-82132039D01*
X171358912Y-82237205D01*
X171184956Y-82330186D01*
X171089192Y-82594587D01*
X170685000Y-82594587D01*
X170685000Y-80352595D01*
X171318282Y-80352595D01*
X171362039Y-80671675D01*
X171467205Y-80976088D01*
X171560186Y-81150044D01*
X171824587Y-81245808D01*
X172780395Y-80290000D01*
X171824587Y-79334192D01*
X171560186Y-79429956D01*
X171419296Y-79719571D01*
X171337616Y-80031108D01*
X171318282Y-80352595D01*
X170685000Y-80352595D01*
X170685000Y-70922000D01*
X171329928Y-70922000D01*
X171342188Y-71046482D01*
X171378498Y-71166180D01*
X171437463Y-71276494D01*
X171516815Y-71373185D01*
X171613506Y-71452537D01*
X171723820Y-71511502D01*
X171843518Y-71547812D01*
X171968000Y-71560072D01*
X172444250Y-71557000D01*
X172603000Y-71398250D01*
X172603000Y-70287000D01*
X171491750Y-70287000D01*
X171333000Y-70445750D01*
X171329928Y-70922000D01*
X170685000Y-70922000D01*
X170685000Y-69398000D01*
X171329928Y-69398000D01*
X171333000Y-69874250D01*
X171491750Y-70033000D01*
X172603000Y-70033000D01*
X172603000Y-68921750D01*
X172444250Y-68763000D01*
X171968000Y-68759928D01*
X171843518Y-68772188D01*
X171723820Y-68808498D01*
X171613506Y-68867463D01*
X171516815Y-68946815D01*
X171437463Y-69043506D01*
X171378498Y-69153820D01*
X171342188Y-69273518D01*
X171329928Y-69398000D01*
X170685000Y-69398000D01*
X170685000Y-68535000D01*
X173265000Y-68535000D01*
X173265000Y-59685000D01*
X174021347Y-59685000D01*
X173926480Y-59748388D01*
G37*
%TD.AperFunction*%
D28*
X179160880Y-84296469D02*
X179118386Y-84261595D01*
X179086847Y-84244737D01*
X179066253Y-84224143D01*
X179080395Y-84210000D01*
X179066253Y-84195858D01*
X179110749Y-84151361D01*
X179160880Y-84296469D01*
%TA.AperFunction,Conductor*%
D29*
G36*
X179160880Y-84296469D02*
G01*
X179118386Y-84261595D01*
X179086847Y-84244737D01*
X179066253Y-84224143D01*
X179080395Y-84210000D01*
X179066253Y-84195858D01*
X179110749Y-84151361D01*
X179160880Y-84296469D01*
G37*
%TD.AperFunction*%
D28*
X177802000Y-68724110D02*
X177802000Y-68845890D01*
X177715890Y-68932000D01*
X177594110Y-68932000D01*
X177508000Y-68845890D01*
X177508000Y-68724110D01*
X177594110Y-68638000D01*
X177715890Y-68638000D01*
X177802000Y-68724110D01*
%TA.AperFunction,Conductor*%
D29*
G36*
X177802000Y-68724110D02*
G01*
X177802000Y-68845890D01*
X177715890Y-68932000D01*
X177594110Y-68932000D01*
X177508000Y-68845890D01*
X177508000Y-68724110D01*
X177594110Y-68638000D01*
X177715890Y-68638000D01*
X177802000Y-68724110D01*
G37*
%TD.AperFunction*%
D28*
X184640010Y-63711928D02*
X183575000Y-63711928D01*
X183401746Y-63728992D01*
X183235150Y-63779528D01*
X183081614Y-63861595D01*
X182947038Y-63972038D01*
X182836595Y-64106614D01*
X182754528Y-64260150D01*
X182703992Y-64426746D01*
X182686928Y-64600000D01*
X182686928Y-65400000D01*
X182703992Y-65573254D01*
X182754528Y-65739850D01*
X182836595Y-65893386D01*
X182947038Y-66027962D01*
X183081614Y-66138405D01*
X183190436Y-66196572D01*
X182288998Y-67098011D01*
X182260000Y-67121809D01*
X182165026Y-67237534D01*
X182094454Y-67369563D01*
X182050997Y-67512824D01*
X182040000Y-67624477D01*
X182040000Y-67624488D01*
X182036324Y-67661810D01*
X182040000Y-67699132D01*
X182040000Y-67700000D01*
X180843072Y-67700000D01*
X180843072Y-67660000D01*
X180830812Y-67535518D01*
X180794502Y-67415820D01*
X180735537Y-67305506D01*
X180656185Y-67208815D01*
X180559494Y-67129463D01*
X180449180Y-67070498D01*
X180369624Y-67046365D01*
X180380812Y-67009482D01*
X180393072Y-66885000D01*
X180393072Y-66685000D01*
X180380812Y-66560518D01*
X180344502Y-66440820D01*
X180285537Y-66330506D01*
X180206185Y-66233815D01*
X180109494Y-66154463D01*
X179999180Y-66095498D01*
X179879482Y-66059188D01*
X179755000Y-66046928D01*
X179555000Y-66046928D01*
X179430518Y-66059188D01*
X179393367Y-66070458D01*
X179374131Y-66002312D01*
X179317320Y-65890874D01*
X179239860Y-65792660D01*
X179144728Y-65711445D01*
X179035579Y-65650350D01*
X178916609Y-65611723D01*
X178811750Y-65600000D01*
X178653000Y-65758750D01*
X178653000Y-65872717D01*
X178607000Y-65814392D01*
X178607000Y-65758750D01*
X178448250Y-65600000D01*
X178343391Y-65611723D01*
X178305000Y-65624188D01*
X178266609Y-65611723D01*
X178161750Y-65600000D01*
X178107002Y-65654748D01*
X178107002Y-65600000D01*
X178090000Y-65600000D01*
X178090000Y-64921557D01*
X178093676Y-64884234D01*
X178090000Y-64846911D01*
X178090000Y-64846902D01*
X178079003Y-64735249D01*
X178035546Y-64591988D01*
X177964974Y-64459959D01*
X177870001Y-64344234D01*
X177840997Y-64320431D01*
X177589972Y-64069406D01*
X177566169Y-64040402D01*
X177526750Y-64008051D01*
X178399802Y-63135000D01*
X178571788Y-63135000D01*
X178791067Y-63091383D01*
X178997624Y-63005824D01*
X179095000Y-62940759D01*
X179192376Y-63005824D01*
X179398933Y-63091383D01*
X179618212Y-63135000D01*
X179841788Y-63135000D01*
X180061067Y-63091383D01*
X180172774Y-63045112D01*
X180255820Y-63089502D01*
X180375518Y-63125812D01*
X180500000Y-63138072D01*
X180714250Y-63135000D01*
X180873000Y-62976250D01*
X180873000Y-62127000D01*
X181127000Y-62127000D01*
X181127000Y-62976250D01*
X181285750Y-63135000D01*
X181500000Y-63138072D01*
X181624482Y-63125812D01*
X181744180Y-63089502D01*
X181854494Y-63030537D01*
X181951185Y-62951185D01*
X182030537Y-62854494D01*
X182089502Y-62744180D01*
X182125812Y-62624482D01*
X182138072Y-62500000D01*
X182135000Y-62285750D01*
X181976250Y-62127000D01*
X181127000Y-62127000D01*
X180873000Y-62127000D01*
X180861974Y-62127000D01*
X180865000Y-62111788D01*
X180865000Y-61888212D01*
X180861974Y-61873000D01*
X180873000Y-61873000D01*
X180873000Y-60757000D01*
X181127000Y-60757000D01*
X181127000Y-61873000D01*
X181976250Y-61873000D01*
X182135000Y-61714250D01*
X182138072Y-61500000D01*
X182125812Y-61375518D01*
X182107454Y-61315000D01*
X182125812Y-61254482D01*
X182138072Y-61130000D01*
X182135000Y-60915750D01*
X181976250Y-60757000D01*
X181127000Y-60757000D01*
X180873000Y-60757000D01*
X180861974Y-60757000D01*
X180865000Y-60741788D01*
X180865000Y-60564999D01*
X184640010Y-60564999D01*
X184640010Y-63711928D01*
%TA.AperFunction,Conductor*%
D29*
G36*
X184640010Y-63711928D02*
G01*
X183575000Y-63711928D01*
X183401746Y-63728992D01*
X183235150Y-63779528D01*
X183081614Y-63861595D01*
X182947038Y-63972038D01*
X182836595Y-64106614D01*
X182754528Y-64260150D01*
X182703992Y-64426746D01*
X182686928Y-64600000D01*
X182686928Y-65400000D01*
X182703992Y-65573254D01*
X182754528Y-65739850D01*
X182836595Y-65893386D01*
X182947038Y-66027962D01*
X183081614Y-66138405D01*
X183190436Y-66196572D01*
X182288998Y-67098011D01*
X182260000Y-67121809D01*
X182165026Y-67237534D01*
X182094454Y-67369563D01*
X182050997Y-67512824D01*
X182040000Y-67624477D01*
X182040000Y-67624488D01*
X182036324Y-67661810D01*
X182040000Y-67699132D01*
X182040000Y-67700000D01*
X180843072Y-67700000D01*
X180843072Y-67660000D01*
X180830812Y-67535518D01*
X180794502Y-67415820D01*
X180735537Y-67305506D01*
X180656185Y-67208815D01*
X180559494Y-67129463D01*
X180449180Y-67070498D01*
X180369624Y-67046365D01*
X180380812Y-67009482D01*
X180393072Y-66885000D01*
X180393072Y-66685000D01*
X180380812Y-66560518D01*
X180344502Y-66440820D01*
X180285537Y-66330506D01*
X180206185Y-66233815D01*
X180109494Y-66154463D01*
X179999180Y-66095498D01*
X179879482Y-66059188D01*
X179755000Y-66046928D01*
X179555000Y-66046928D01*
X179430518Y-66059188D01*
X179393367Y-66070458D01*
X179374131Y-66002312D01*
X179317320Y-65890874D01*
X179239860Y-65792660D01*
X179144728Y-65711445D01*
X179035579Y-65650350D01*
X178916609Y-65611723D01*
X178811750Y-65600000D01*
X178653000Y-65758750D01*
X178653000Y-65872717D01*
X178607000Y-65814392D01*
X178607000Y-65758750D01*
X178448250Y-65600000D01*
X178343391Y-65611723D01*
X178305000Y-65624188D01*
X178266609Y-65611723D01*
X178161750Y-65600000D01*
X178107002Y-65654748D01*
X178107002Y-65600000D01*
X178090000Y-65600000D01*
X178090000Y-64921557D01*
X178093676Y-64884234D01*
X178090000Y-64846911D01*
X178090000Y-64846902D01*
X178079003Y-64735249D01*
X178035546Y-64591988D01*
X177964974Y-64459959D01*
X177870001Y-64344234D01*
X177840997Y-64320431D01*
X177589972Y-64069406D01*
X177566169Y-64040402D01*
X177526750Y-64008051D01*
X178399802Y-63135000D01*
X178571788Y-63135000D01*
X178791067Y-63091383D01*
X178997624Y-63005824D01*
X179095000Y-62940759D01*
X179192376Y-63005824D01*
X179398933Y-63091383D01*
X179618212Y-63135000D01*
X179841788Y-63135000D01*
X180061067Y-63091383D01*
X180172774Y-63045112D01*
X180255820Y-63089502D01*
X180375518Y-63125812D01*
X180500000Y-63138072D01*
X180714250Y-63135000D01*
X180873000Y-62976250D01*
X180873000Y-62127000D01*
X181127000Y-62127000D01*
X181127000Y-62976250D01*
X181285750Y-63135000D01*
X181500000Y-63138072D01*
X181624482Y-63125812D01*
X181744180Y-63089502D01*
X181854494Y-63030537D01*
X181951185Y-62951185D01*
X182030537Y-62854494D01*
X182089502Y-62744180D01*
X182125812Y-62624482D01*
X182138072Y-62500000D01*
X182135000Y-62285750D01*
X181976250Y-62127000D01*
X181127000Y-62127000D01*
X180873000Y-62127000D01*
X180861974Y-62127000D01*
X180865000Y-62111788D01*
X180865000Y-61888212D01*
X180861974Y-61873000D01*
X180873000Y-61873000D01*
X180873000Y-60757000D01*
X181127000Y-60757000D01*
X181127000Y-61873000D01*
X181976250Y-61873000D01*
X182135000Y-61714250D01*
X182138072Y-61500000D01*
X182125812Y-61375518D01*
X182107454Y-61315000D01*
X182125812Y-61254482D01*
X182138072Y-61130000D01*
X182135000Y-60915750D01*
X181976250Y-60757000D01*
X181127000Y-60757000D01*
X180873000Y-60757000D01*
X180861974Y-60757000D01*
X180865000Y-60741788D01*
X180865000Y-60564999D01*
X184640010Y-60564999D01*
X184640010Y-63711928D01*
G37*
%TD.AperFunction*%
D28*
X178653000Y-66608000D02*
X178777000Y-66608000D01*
X178777000Y-66862000D01*
X178653000Y-66862000D01*
X178653000Y-66882000D01*
X178626250Y-66882000D01*
X178607000Y-66862750D01*
X178607000Y-66862000D01*
X178483000Y-66862000D01*
X178483000Y-66608000D01*
X178607000Y-66608000D01*
X178607000Y-66607250D01*
X178653000Y-66561250D01*
X178653000Y-66608000D01*
%TA.AperFunction,Conductor*%
D29*
G36*
X178653000Y-66608000D02*
G01*
X178777000Y-66608000D01*
X178777000Y-66862000D01*
X178653000Y-66862000D01*
X178653000Y-66882000D01*
X178626250Y-66882000D01*
X178607000Y-66862750D01*
X178607000Y-66862000D01*
X178483000Y-66862000D01*
X178483000Y-66608000D01*
X178607000Y-66608000D01*
X178607000Y-66607250D01*
X178653000Y-66561250D01*
X178653000Y-66608000D01*
G37*
%TD.AperFunction*%
%TD*%
M02*
