%TF.GenerationSoftware,KiCad,Pcbnew,(5.1.9-0-10_14)*%
%TF.CreationDate,2021-04-23T14:41:01+01:00*%
%TF.ProjectId,Shelly,5368656c-6c79-42e6-9b69-6361645f7063,rev?*%
%TF.SameCoordinates,Original*%
%TF.FileFunction,Legend,Bot*%
%TF.FilePolarity,Positive*%
%FSLAX46Y46*%
G04 Gerber Fmt 4.6, Leading zero omitted, Abs format (unit mm)*
G04 Created by KiCad (PCBNEW (5.1.9-0-10_14)) date 2021-04-23 14:41:01*
%MOMM*%
%LPD*%
G01*
G04 APERTURE LIST*
%ADD10C,0.120000*%
%ADD11C,0.150000*%
G04 APERTURE END LIST*
D10*
%TO.C,M1*%
X171460000Y-73970000D02*
X184160000Y-73970000D01*
X184160000Y-73970000D02*
X184160000Y-63810000D01*
X184160000Y-63810000D02*
X171460000Y-63810000D01*
X171460000Y-63810000D02*
X171460000Y-73970000D01*
%TO.C,R1*%
X173890000Y-85222936D02*
X173890000Y-86677064D01*
X175710000Y-85222936D02*
X175710000Y-86677064D01*
%TO.C,J2*%
X173955000Y-61740000D02*
X173955000Y-60937530D01*
X173955000Y-60322470D02*
X173955000Y-59520000D01*
X180240000Y-61740000D02*
X173955000Y-61740000D01*
X180240000Y-59520000D02*
X173955000Y-59520000D01*
X180240000Y-61740000D02*
X180240000Y-61193471D01*
X180240000Y-60066529D02*
X180240000Y-59520000D01*
X181000000Y-61740000D02*
X181760000Y-61740000D01*
X181760000Y-61740000D02*
X181760000Y-60630000D01*
%TO.C,J1*%
X182670000Y-75510000D02*
X185330000Y-75510000D01*
X182670000Y-85730000D02*
X182670000Y-75510000D01*
X185330000Y-85730000D02*
X185330000Y-75510000D01*
X182670000Y-85730000D02*
X185330000Y-85730000D01*
X182670000Y-87000000D02*
X182670000Y-88330000D01*
X182670000Y-88330000D02*
X184000000Y-88330000D01*
%TO.C,R2*%
X178510000Y-86677064D02*
X178510000Y-85222936D01*
X176690000Y-86677064D02*
X176690000Y-85222936D01*
%TO.C,J3*%
D11*
X172352380Y-62266666D02*
X173066666Y-62266666D01*
X173209523Y-62219047D01*
X173304761Y-62123809D01*
X173352380Y-61980952D01*
X173352380Y-61885714D01*
X172352380Y-62647619D02*
X172352380Y-63266666D01*
X172733333Y-62933333D01*
X172733333Y-63076190D01*
X172780952Y-63171428D01*
X172828571Y-63219047D01*
X172923809Y-63266666D01*
X173161904Y-63266666D01*
X173257142Y-63219047D01*
X173304761Y-63171428D01*
X173352380Y-63076190D01*
X173352380Y-62790476D01*
X173304761Y-62695238D01*
X173257142Y-62647619D01*
%TO.C,M1*%
X181552380Y-70170476D02*
X180552380Y-70170476D01*
X181266666Y-70503809D01*
X180552380Y-70837142D01*
X181552380Y-70837142D01*
X181552380Y-71837142D02*
X181552380Y-71265714D01*
X181552380Y-71551428D02*
X180552380Y-71551428D01*
X180695238Y-71456190D01*
X180790476Y-71360952D01*
X180838095Y-71265714D01*
%TO.C,R1*%
X175252380Y-82433333D02*
X174776190Y-82100000D01*
X175252380Y-81861904D02*
X174252380Y-81861904D01*
X174252380Y-82242857D01*
X174300000Y-82338095D01*
X174347619Y-82385714D01*
X174442857Y-82433333D01*
X174585714Y-82433333D01*
X174680952Y-82385714D01*
X174728571Y-82338095D01*
X174776190Y-82242857D01*
X174776190Y-81861904D01*
X175252380Y-83385714D02*
X175252380Y-82814285D01*
X175252380Y-83100000D02*
X174252380Y-83100000D01*
X174395238Y-83004761D01*
X174490476Y-82909523D01*
X174538095Y-82814285D01*
%TO.C,J2*%
X172352380Y-60266666D02*
X173066666Y-60266666D01*
X173209523Y-60219047D01*
X173304761Y-60123809D01*
X173352380Y-59980952D01*
X173352380Y-59885714D01*
X172447619Y-60695238D02*
X172400000Y-60742857D01*
X172352380Y-60838095D01*
X172352380Y-61076190D01*
X172400000Y-61171428D01*
X172447619Y-61219047D01*
X172542857Y-61266666D01*
X172638095Y-61266666D01*
X172780952Y-61219047D01*
X173352380Y-60647619D01*
X173352380Y-61266666D01*
%TO.C,J1*%
X184233333Y-74252380D02*
X184233333Y-74966666D01*
X184280952Y-75109523D01*
X184376190Y-75204761D01*
X184519047Y-75252380D01*
X184614285Y-75252380D01*
X183233333Y-75252380D02*
X183804761Y-75252380D01*
X183519047Y-75252380D02*
X183519047Y-74252380D01*
X183614285Y-74395238D01*
X183709523Y-74490476D01*
X183804761Y-74538095D01*
%TO.C,R2*%
X178152380Y-82433333D02*
X177676190Y-82100000D01*
X178152380Y-81861904D02*
X177152380Y-81861904D01*
X177152380Y-82242857D01*
X177200000Y-82338095D01*
X177247619Y-82385714D01*
X177342857Y-82433333D01*
X177485714Y-82433333D01*
X177580952Y-82385714D01*
X177628571Y-82338095D01*
X177676190Y-82242857D01*
X177676190Y-81861904D01*
X177247619Y-82814285D02*
X177200000Y-82861904D01*
X177152380Y-82957142D01*
X177152380Y-83195238D01*
X177200000Y-83290476D01*
X177247619Y-83338095D01*
X177342857Y-83385714D01*
X177438095Y-83385714D01*
X177580952Y-83338095D01*
X178152380Y-82766666D01*
X178152380Y-83385714D01*
%TD*%
M02*
