%TF.GenerationSoftware,KiCad,Pcbnew,(5.1.9-0-10_14)*%
%TF.CreationDate,2021-04-17T08:17:12+01:00*%
%TF.ProjectId,Shelly,5368656c-6c79-42e6-9b69-6361645f7063,rev?*%
%TF.SameCoordinates,Original*%
%TF.FileFunction,Soldermask,Bot*%
%TF.FilePolarity,Negative*%
%FSLAX46Y46*%
G04 Gerber Fmt 4.6, Leading zero omitted, Abs format (unit mm)*
G04 Created by KiCad (PCBNEW (5.1.9-0-10_14)) date 2021-04-17 08:17:12*
%MOMM*%
%LPD*%
G01*
G04 APERTURE LIST*
%ADD10O,1.000000X1.000000*%
%ADD11R,1.000000X1.000000*%
%ADD12O,1.700000X1.700000*%
%ADD13R,1.700000X1.700000*%
%ADD14C,2.000000*%
%ADD15C,1.524000*%
%ADD16R,2.100000X2.100000*%
%ADD17R,1.000000X0.300000*%
%ADD18R,0.300000X1.000000*%
%ADD19R,1.524000X1.524000*%
%ADD20C,1.700000*%
%ADD21C,0.600000*%
G04 APERTURE END LIST*
D10*
%TO.C,J2*%
X174650000Y-62000000D03*
X175920000Y-62000000D03*
X177190000Y-62000000D03*
X178460000Y-62000000D03*
X179730000Y-62000000D03*
D11*
X181000000Y-62000000D03*
%TD*%
D10*
%TO.C,J4*%
X174650000Y-60630000D03*
X175920000Y-60630000D03*
X177190000Y-60630000D03*
X178460000Y-60630000D03*
X179730000Y-60630000D03*
D11*
X181000000Y-60630000D03*
%TD*%
D12*
%TO.C,J3*%
X184000000Y-76840000D03*
X184000000Y-79380000D03*
X184000000Y-81920000D03*
X184000000Y-84460000D03*
D13*
X184000000Y-87000000D03*
%TD*%
D14*
%TO.C,SW1*%
X172960000Y-80290000D03*
X172960000Y-75790000D03*
X179460000Y-80290000D03*
X179460000Y-75790000D03*
%TD*%
D15*
%TO.C,U1*%
X177655000Y-68785000D03*
D16*
X177655000Y-68785000D03*
D17*
X175605000Y-67810000D03*
X175605000Y-68460000D03*
X175605000Y-69110000D03*
X175605000Y-69760000D03*
D18*
X176680000Y-70835000D03*
X177330000Y-70835000D03*
X177980000Y-70835000D03*
X178630000Y-70835000D03*
D17*
X179705000Y-69760000D03*
X179705000Y-69110000D03*
X179705000Y-68460000D03*
X179705000Y-67810000D03*
D18*
X178630000Y-66735000D03*
X177980000Y-66735000D03*
X177330000Y-66735000D03*
X176680000Y-66735000D03*
%TD*%
%TO.C,R4*%
G36*
G01*
X184825000Y-65650000D02*
X183575000Y-65650000D01*
G75*
G02*
X183325000Y-65400000I0J250000D01*
G01*
X183325000Y-64600000D01*
G75*
G02*
X183575000Y-64350000I250000J0D01*
G01*
X184825000Y-64350000D01*
G75*
G02*
X185075000Y-64600000I0J-250000D01*
G01*
X185075000Y-65400000D01*
G75*
G02*
X184825000Y-65650000I-250000J0D01*
G01*
G37*
G36*
G01*
X184825000Y-68750000D02*
X183575000Y-68750000D01*
G75*
G02*
X183325000Y-68500000I0J250000D01*
G01*
X183325000Y-67700000D01*
G75*
G02*
X183575000Y-67450000I250000J0D01*
G01*
X184825000Y-67450000D01*
G75*
G02*
X185075000Y-67700000I0J-250000D01*
G01*
X185075000Y-68500000D01*
G75*
G02*
X184825000Y-68750000I-250000J0D01*
G01*
G37*
%TD*%
%TO.C,R3*%
G36*
G01*
X184825000Y-70740000D02*
X183575000Y-70740000D01*
G75*
G02*
X183325000Y-70490000I0J250000D01*
G01*
X183325000Y-69690000D01*
G75*
G02*
X183575000Y-69440000I250000J0D01*
G01*
X184825000Y-69440000D01*
G75*
G02*
X185075000Y-69690000I0J-250000D01*
G01*
X185075000Y-70490000D01*
G75*
G02*
X184825000Y-70740000I-250000J0D01*
G01*
G37*
G36*
G01*
X184825000Y-73840000D02*
X183575000Y-73840000D01*
G75*
G02*
X183325000Y-73590000I0J250000D01*
G01*
X183325000Y-72790000D01*
G75*
G02*
X183575000Y-72540000I250000J0D01*
G01*
X184825000Y-72540000D01*
G75*
G02*
X185075000Y-72790000I0J-250000D01*
G01*
X185075000Y-73590000D01*
G75*
G02*
X184825000Y-73840000I-250000J0D01*
G01*
G37*
%TD*%
%TO.C,R2*%
G36*
G01*
X178625000Y-86050000D02*
X177375000Y-86050000D01*
G75*
G02*
X177125000Y-85800000I0J250000D01*
G01*
X177125000Y-85000000D01*
G75*
G02*
X177375000Y-84750000I250000J0D01*
G01*
X178625000Y-84750000D01*
G75*
G02*
X178875000Y-85000000I0J-250000D01*
G01*
X178875000Y-85800000D01*
G75*
G02*
X178625000Y-86050000I-250000J0D01*
G01*
G37*
G36*
G01*
X178625000Y-89150000D02*
X177375000Y-89150000D01*
G75*
G02*
X177125000Y-88900000I0J250000D01*
G01*
X177125000Y-88100000D01*
G75*
G02*
X177375000Y-87850000I250000J0D01*
G01*
X178625000Y-87850000D01*
G75*
G02*
X178875000Y-88100000I0J-250000D01*
G01*
X178875000Y-88900000D01*
G75*
G02*
X178625000Y-89150000I-250000J0D01*
G01*
G37*
%TD*%
%TO.C,R1*%
G36*
G01*
X174375000Y-87850000D02*
X175625000Y-87850000D01*
G75*
G02*
X175875000Y-88100000I0J-250000D01*
G01*
X175875000Y-88900000D01*
G75*
G02*
X175625000Y-89150000I-250000J0D01*
G01*
X174375000Y-89150000D01*
G75*
G02*
X174125000Y-88900000I0J250000D01*
G01*
X174125000Y-88100000D01*
G75*
G02*
X174375000Y-87850000I250000J0D01*
G01*
G37*
G36*
G01*
X174375000Y-84750000D02*
X175625000Y-84750000D01*
G75*
G02*
X175875000Y-85000000I0J-250000D01*
G01*
X175875000Y-85800000D01*
G75*
G02*
X175625000Y-86050000I-250000J0D01*
G01*
X174375000Y-86050000D01*
G75*
G02*
X174125000Y-85800000I0J250000D01*
G01*
X174125000Y-85000000D01*
G75*
G02*
X174375000Y-84750000I250000J0D01*
G01*
G37*
%TD*%
D19*
%TO.C,M1*%
X172730000Y-70160000D03*
%TD*%
D20*
%TO.C,J1*%
X180695000Y-87910000D03*
X172045000Y-87910000D03*
D14*
X180695000Y-83730000D03*
X172045000Y-83730000D03*
D21*
X179260000Y-84210000D03*
X173480000Y-84210000D03*
%TD*%
M02*
