%TF.GenerationSoftware,KiCad,Pcbnew,(5.1.9-0-10_14)*%
%TF.CreationDate,2021-04-23T14:41:01+01:00*%
%TF.ProjectId,Shelly,5368656c-6c79-42e6-9b69-6361645f7063,rev?*%
%TF.SameCoordinates,Original*%
%TF.FileFunction,Legend,Top*%
%TF.FilePolarity,Positive*%
%FSLAX46Y46*%
G04 Gerber Fmt 4.6, Leading zero omitted, Abs format (unit mm)*
G04 Created by KiCad (PCBNEW (5.1.9-0-10_14)) date 2021-04-23 14:41:01*
%MOMM*%
%LPD*%
G01*
G04 APERTURE LIST*
%ADD10C,0.250000*%
%ADD11C,0.120000*%
%ADD12C,0.150000*%
G04 APERTURE END LIST*
D10*
X181678571Y-86585714D02*
X182678571Y-86300000D01*
X181964285Y-86014285D01*
X182678571Y-85728571D01*
X181678571Y-85442857D01*
X181678571Y-85014285D02*
X182678571Y-84728571D01*
X181964285Y-84442857D01*
X182678571Y-84157142D01*
X181678571Y-83871428D01*
X181678571Y-83442857D02*
X182678571Y-83157142D01*
X181964285Y-82871428D01*
X182678571Y-82585714D01*
X181678571Y-82300000D01*
X182535714Y-81728571D02*
X182607142Y-81657142D01*
X182678571Y-81728571D01*
X182607142Y-81800000D01*
X182535714Y-81728571D01*
X182678571Y-81728571D01*
X182678571Y-81014285D02*
X181678571Y-81014285D01*
X181821428Y-81014285D02*
X181750000Y-80942857D01*
X181678571Y-80800000D01*
X181678571Y-80585714D01*
X181750000Y-80442857D01*
X181892857Y-80371428D01*
X182678571Y-80371428D01*
X181892857Y-80371428D02*
X181750000Y-80300000D01*
X181678571Y-80157142D01*
X181678571Y-79942857D01*
X181750000Y-79800000D01*
X181892857Y-79728571D01*
X182678571Y-79728571D01*
X182607142Y-78442857D02*
X182678571Y-78585714D01*
X182678571Y-78871428D01*
X182607142Y-79014285D01*
X182464285Y-79085714D01*
X181892857Y-79085714D01*
X181750000Y-79014285D01*
X181678571Y-78871428D01*
X181678571Y-78585714D01*
X181750000Y-78442857D01*
X181892857Y-78371428D01*
X182035714Y-78371428D01*
X182178571Y-79085714D01*
X182535714Y-77728571D02*
X182607142Y-77657142D01*
X182678571Y-77728571D01*
X182607142Y-77800000D01*
X182535714Y-77728571D01*
X182678571Y-77728571D01*
X181678571Y-76371428D02*
X182678571Y-76371428D01*
X181678571Y-77014285D02*
X182464285Y-77014285D01*
X182607142Y-76942857D01*
X182678571Y-76800000D01*
X182678571Y-76585714D01*
X182607142Y-76442857D01*
X182535714Y-76371428D01*
X182678571Y-75657142D02*
X181178571Y-75657142D01*
X182107142Y-75514285D02*
X182678571Y-75085714D01*
X181678571Y-75085714D02*
X182250000Y-75657142D01*
D11*
%TO.C,J3*%
X173955000Y-61490000D02*
X173955000Y-62292470D01*
X173955000Y-62907530D02*
X173955000Y-63710000D01*
X180240000Y-61490000D02*
X173955000Y-61490000D01*
X180240000Y-63710000D02*
X173955000Y-63710000D01*
X180240000Y-61490000D02*
X180240000Y-62036529D01*
X180240000Y-63163471D02*
X180240000Y-63710000D01*
X181000000Y-61490000D02*
X181760000Y-61490000D01*
X181760000Y-61490000D02*
X181760000Y-62600000D01*
%TO.C,R6*%
X172572936Y-73640000D02*
X174027064Y-73640000D01*
X172572936Y-75460000D02*
X174027064Y-75460000D01*
%TO.C,R3*%
X172572936Y-70990000D02*
X174027064Y-70990000D01*
X172572936Y-72810000D02*
X174027064Y-72810000D01*
%TO.C,D1*%
X172410000Y-62500000D02*
X172410000Y-59615000D01*
X172410000Y-59615000D02*
X170590000Y-59615000D01*
X170590000Y-59615000D02*
X170590000Y-62500000D01*
%TO.C,J4*%
X171530000Y-89490000D02*
X180470000Y-89490000D01*
X180470000Y-82140000D02*
X180470000Y-89490000D01*
X171530000Y-82140000D02*
X180470000Y-82140000D01*
X171530000Y-89490000D02*
X171530000Y-82140000D01*
%TO.C,U1*%
X176965000Y-67740000D02*
X176965000Y-67015000D01*
X176965000Y-67015000D02*
X177690000Y-67015000D01*
X181185000Y-70510000D02*
X181185000Y-71235000D01*
X181185000Y-71235000D02*
X180460000Y-71235000D01*
X181185000Y-67740000D02*
X181185000Y-67015000D01*
X181185000Y-67015000D02*
X180460000Y-67015000D01*
X176965000Y-70510000D02*
X176965000Y-71235000D01*
%TO.C,C1*%
X183090000Y-62148752D02*
X183090000Y-60726248D01*
X184910000Y-62148752D02*
X184910000Y-60726248D01*
%TO.C,R5*%
X183090000Y-72177064D02*
X183090000Y-70722936D01*
X184910000Y-72177064D02*
X184910000Y-70722936D01*
%TO.C,R4*%
X184910000Y-65722936D02*
X184910000Y-67177064D01*
X183090000Y-65722936D02*
X183090000Y-67177064D01*
%TO.C,U2*%
D12*
X170252380Y-79461904D02*
X171061904Y-79461904D01*
X171157142Y-79414285D01*
X171204761Y-79366666D01*
X171252380Y-79271428D01*
X171252380Y-79080952D01*
X171204761Y-78985714D01*
X171157142Y-78938095D01*
X171061904Y-78890476D01*
X170252380Y-78890476D01*
X170347619Y-78461904D02*
X170300000Y-78414285D01*
X170252380Y-78319047D01*
X170252380Y-78080952D01*
X170300000Y-77985714D01*
X170347619Y-77938095D01*
X170442857Y-77890476D01*
X170538095Y-77890476D01*
X170680952Y-77938095D01*
X171252380Y-78509523D01*
X171252380Y-77890476D01*
%TO.C,R6*%
X176433333Y-75652380D02*
X176100000Y-75176190D01*
X175861904Y-75652380D02*
X175861904Y-74652380D01*
X176242857Y-74652380D01*
X176338095Y-74700000D01*
X176385714Y-74747619D01*
X176433333Y-74842857D01*
X176433333Y-74985714D01*
X176385714Y-75080952D01*
X176338095Y-75128571D01*
X176242857Y-75176190D01*
X175861904Y-75176190D01*
X177290476Y-74652380D02*
X177100000Y-74652380D01*
X177004761Y-74700000D01*
X176957142Y-74747619D01*
X176861904Y-74890476D01*
X176814285Y-75080952D01*
X176814285Y-75461904D01*
X176861904Y-75557142D01*
X176909523Y-75604761D01*
X177004761Y-75652380D01*
X177195238Y-75652380D01*
X177290476Y-75604761D01*
X177338095Y-75557142D01*
X177385714Y-75461904D01*
X177385714Y-75223809D01*
X177338095Y-75128571D01*
X177290476Y-75080952D01*
X177195238Y-75033333D01*
X177004761Y-75033333D01*
X176909523Y-75080952D01*
X176861904Y-75128571D01*
X176814285Y-75223809D01*
%TO.C,R3*%
X176433333Y-72952380D02*
X176100000Y-72476190D01*
X175861904Y-72952380D02*
X175861904Y-71952380D01*
X176242857Y-71952380D01*
X176338095Y-72000000D01*
X176385714Y-72047619D01*
X176433333Y-72142857D01*
X176433333Y-72285714D01*
X176385714Y-72380952D01*
X176338095Y-72428571D01*
X176242857Y-72476190D01*
X175861904Y-72476190D01*
X176766666Y-71952380D02*
X177385714Y-71952380D01*
X177052380Y-72333333D01*
X177195238Y-72333333D01*
X177290476Y-72380952D01*
X177338095Y-72428571D01*
X177385714Y-72523809D01*
X177385714Y-72761904D01*
X177338095Y-72857142D01*
X177290476Y-72904761D01*
X177195238Y-72952380D01*
X176909523Y-72952380D01*
X176814285Y-72904761D01*
X176766666Y-72857142D01*
%TO.C,D1*%
X173552380Y-62238095D02*
X172552380Y-62238095D01*
X172552380Y-62000000D01*
X172600000Y-61857142D01*
X172695238Y-61761904D01*
X172790476Y-61714285D01*
X172980952Y-61666666D01*
X173123809Y-61666666D01*
X173314285Y-61714285D01*
X173409523Y-61761904D01*
X173504761Y-61857142D01*
X173552380Y-62000000D01*
X173552380Y-62238095D01*
X173552380Y-60714285D02*
X173552380Y-61285714D01*
X173552380Y-61000000D02*
X172552380Y-61000000D01*
X172695238Y-61095238D01*
X172790476Y-61190476D01*
X172838095Y-61285714D01*
%TO.C,J4*%
X170252380Y-85333333D02*
X170966666Y-85333333D01*
X171109523Y-85380952D01*
X171204761Y-85476190D01*
X171252380Y-85619047D01*
X171252380Y-85714285D01*
X170585714Y-84428571D02*
X171252380Y-84428571D01*
X170204761Y-84666666D02*
X170919047Y-84904761D01*
X170919047Y-84285714D01*
%TO.C,U1*%
X175227380Y-69886904D02*
X176036904Y-69886904D01*
X176132142Y-69839285D01*
X176179761Y-69791666D01*
X176227380Y-69696428D01*
X176227380Y-69505952D01*
X176179761Y-69410714D01*
X176132142Y-69363095D01*
X176036904Y-69315476D01*
X175227380Y-69315476D01*
X176227380Y-68315476D02*
X176227380Y-68886904D01*
X176227380Y-68601190D02*
X175227380Y-68601190D01*
X175370238Y-68696428D01*
X175465476Y-68791666D01*
X175513095Y-68886904D01*
%TO.C,C1*%
X184357142Y-61541666D02*
X184404761Y-61589285D01*
X184452380Y-61732142D01*
X184452380Y-61827380D01*
X184404761Y-61970238D01*
X184309523Y-62065476D01*
X184214285Y-62113095D01*
X184023809Y-62160714D01*
X183880952Y-62160714D01*
X183690476Y-62113095D01*
X183595238Y-62065476D01*
X183500000Y-61970238D01*
X183452380Y-61827380D01*
X183452380Y-61732142D01*
X183500000Y-61589285D01*
X183547619Y-61541666D01*
X184452380Y-60589285D02*
X184452380Y-61160714D01*
X184452380Y-60875000D02*
X183452380Y-60875000D01*
X183595238Y-60970238D01*
X183690476Y-61065476D01*
X183738095Y-61160714D01*
%TO.C,R5*%
X182752380Y-71566666D02*
X182276190Y-71900000D01*
X182752380Y-72138095D02*
X181752380Y-72138095D01*
X181752380Y-71757142D01*
X181800000Y-71661904D01*
X181847619Y-71614285D01*
X181942857Y-71566666D01*
X182085714Y-71566666D01*
X182180952Y-71614285D01*
X182228571Y-71661904D01*
X182276190Y-71757142D01*
X182276190Y-72138095D01*
X181752380Y-70661904D02*
X181752380Y-71138095D01*
X182228571Y-71185714D01*
X182180952Y-71138095D01*
X182133333Y-71042857D01*
X182133333Y-70804761D01*
X182180952Y-70709523D01*
X182228571Y-70661904D01*
X182323809Y-70614285D01*
X182561904Y-70614285D01*
X182657142Y-70661904D01*
X182704761Y-70709523D01*
X182752380Y-70804761D01*
X182752380Y-71042857D01*
X182704761Y-71138095D01*
X182657142Y-71185714D01*
%TO.C,R4*%
X182752380Y-66656666D02*
X182276190Y-66990000D01*
X182752380Y-67228095D02*
X181752380Y-67228095D01*
X181752380Y-66847142D01*
X181800000Y-66751904D01*
X181847619Y-66704285D01*
X181942857Y-66656666D01*
X182085714Y-66656666D01*
X182180952Y-66704285D01*
X182228571Y-66751904D01*
X182276190Y-66847142D01*
X182276190Y-67228095D01*
X182085714Y-65799523D02*
X182752380Y-65799523D01*
X181704761Y-66037619D02*
X182419047Y-66275714D01*
X182419047Y-65656666D01*
%TD*%
M02*
