%TF.GenerationSoftware,KiCad,Pcbnew,(5.1.9-0-10_14)*%
%TF.CreationDate,2021-04-19T09:47:37+01:00*%
%TF.ProjectId,Shelly,5368656c-6c79-42e6-9b69-6361645f7063,rev?*%
%TF.SameCoordinates,Original*%
%TF.FileFunction,Copper,L1,Top*%
%TF.FilePolarity,Positive*%
%FSLAX46Y46*%
G04 Gerber Fmt 4.6, Leading zero omitted, Abs format (unit mm)*
G04 Created by KiCad (PCBNEW (5.1.9-0-10_14)) date 2021-04-19 09:47:37*
%MOMM*%
%LPD*%
G01*
G04 APERTURE LIST*
%TA.AperFunction,NonConductor*%
%ADD10C,0.300000*%
%TD*%
%TA.AperFunction,SMDPad,CuDef*%
%ADD11R,8.340000X5.490000*%
%TD*%
%TA.AperFunction,SMDPad,CuDef*%
%ADD12R,0.600000X1.140000*%
%TD*%
%TA.AperFunction,ComponentPad*%
%ADD13C,1.700000*%
%TD*%
%TA.AperFunction,ComponentPad*%
%ADD14C,2.000000*%
%TD*%
%TA.AperFunction,SMDPad,CuDef*%
%ADD15R,0.300000X1.140000*%
%TD*%
%TA.AperFunction,ComponentPad*%
%ADD16C,0.600000*%
%TD*%
%TA.AperFunction,ComponentPad*%
%ADD17C,1.524000*%
%TD*%
%TA.AperFunction,SMDPad,CuDef*%
%ADD18R,0.200000X0.200000*%
%TD*%
%TA.AperFunction,SMDPad,CuDef*%
%ADD19C,0.500000*%
%TD*%
%TA.AperFunction,SMDPad,CuDef*%
%ADD20R,2.500000X2.500000*%
%TD*%
%TA.AperFunction,ComponentPad*%
%ADD21O,1.000000X1.000000*%
%TD*%
%TA.AperFunction,ComponentPad*%
%ADD22R,1.000000X1.000000*%
%TD*%
%TA.AperFunction,ComponentPad*%
%ADD23O,1.700000X1.700000*%
%TD*%
%TA.AperFunction,ComponentPad*%
%ADD24R,1.700000X1.700000*%
%TD*%
%TA.AperFunction,ComponentPad*%
%ADD25R,1.524000X1.524000*%
%TD*%
%TA.AperFunction,ViaPad*%
%ADD26C,0.800000*%
%TD*%
%TA.AperFunction,Conductor*%
%ADD27C,0.250000*%
%TD*%
%TA.AperFunction,Conductor*%
%ADD28C,0.254000*%
%TD*%
%TA.AperFunction,Conductor*%
%ADD29C,0.100000*%
%TD*%
G04 APERTURE END LIST*
D10*
X183778571Y-62014285D02*
X185278571Y-61514285D01*
X183778571Y-61014285D01*
X183921428Y-60585714D02*
X183850000Y-60514285D01*
X183778571Y-60371428D01*
X183778571Y-60014285D01*
X183850000Y-59871428D01*
X183921428Y-59800000D01*
X184064285Y-59728571D01*
X184207142Y-59728571D01*
X184421428Y-59800000D01*
X185278571Y-60657142D01*
X185278571Y-59728571D01*
%TO.P,R5,2*%
%TO.N,Net-(D1-Pad2)*%
%TA.AperFunction,SMDPad,CuDef*%
G36*
G01*
X172625000Y-70600000D02*
X171375000Y-70600000D01*
G75*
G02*
X171125000Y-70350000I0J250000D01*
G01*
X171125000Y-69550000D01*
G75*
G02*
X171375000Y-69300000I250000J0D01*
G01*
X172625000Y-69300000D01*
G75*
G02*
X172875000Y-69550000I0J-250000D01*
G01*
X172875000Y-70350000D01*
G75*
G02*
X172625000Y-70600000I-250000J0D01*
G01*
G37*
%TD.AperFunction*%
%TO.P,R5,1*%
%TO.N,+3V3*%
%TA.AperFunction,SMDPad,CuDef*%
G36*
G01*
X172625000Y-73700000D02*
X171375000Y-73700000D01*
G75*
G02*
X171125000Y-73450000I0J250000D01*
G01*
X171125000Y-72650000D01*
G75*
G02*
X171375000Y-72400000I250000J0D01*
G01*
X172625000Y-72400000D01*
G75*
G02*
X172875000Y-72650000I0J-250000D01*
G01*
X172875000Y-73450000D01*
G75*
G02*
X172625000Y-73700000I-250000J0D01*
G01*
G37*
%TD.AperFunction*%
%TD*%
%TO.P,D1,2*%
%TO.N,Net-(D1-Pad2)*%
%TA.AperFunction,SMDPad,CuDef*%
G36*
G01*
X171100000Y-61800000D02*
X171900000Y-61800000D01*
G75*
G02*
X172150000Y-62050000I0J-250000D01*
G01*
X172150000Y-62875000D01*
G75*
G02*
X171900000Y-63125000I-250000J0D01*
G01*
X171100000Y-63125000D01*
G75*
G02*
X170850000Y-62875000I0J250000D01*
G01*
X170850000Y-62050000D01*
G75*
G02*
X171100000Y-61800000I250000J0D01*
G01*
G37*
%TD.AperFunction*%
%TO.P,D1,1*%
%TO.N,Net-(D1-Pad1)*%
%TA.AperFunction,SMDPad,CuDef*%
G36*
G01*
X171100000Y-59875000D02*
X171900000Y-59875000D01*
G75*
G02*
X172150000Y-60125000I0J-250000D01*
G01*
X172150000Y-60950000D01*
G75*
G02*
X171900000Y-61200000I-250000J0D01*
G01*
X171100000Y-61200000D01*
G75*
G02*
X170850000Y-60950000I0J250000D01*
G01*
X170850000Y-60125000D01*
G75*
G02*
X171100000Y-59875000I250000J0D01*
G01*
G37*
%TD.AperFunction*%
%TD*%
D11*
%TO.P,J4,S1*%
%TO.N,GND*%
X176000000Y-87255000D03*
D12*
%TO.P,J4,A12*%
X179200000Y-83140000D03*
%TO.P,J4,A4*%
%TO.N,VBUS*%
X173600000Y-83140000D03*
%TO.P,J4,B12*%
%TO.N,GND*%
X172800000Y-83140000D03*
%TO.P,J4,B4*%
%TO.N,VBUS*%
X178400000Y-83140000D03*
D13*
%TO.P,J4,S1*%
%TO.N,GND*%
X180325000Y-87910000D03*
X171675000Y-87910000D03*
D14*
X180325000Y-83730000D03*
X171675000Y-83730000D03*
D15*
%TO.P,J4,A7*%
%TO.N,Net-(J4-PadA7)*%
X176250000Y-83140000D03*
%TO.P,J4,A6*%
%TO.N,Net-(J4-PadA6)*%
X175750000Y-83140000D03*
%TO.P,J4,B6*%
X176750000Y-83140000D03*
%TO.P,J4,B7*%
%TO.N,Net-(J4-PadA7)*%
X175250000Y-83140000D03*
%TO.P,J4,A8*%
%TO.N,Net-(J4-PadA8)*%
X177250000Y-83140000D03*
%TO.P,J4,A5*%
%TO.N,Net-(J4-PadA5)*%
X174750000Y-83140000D03*
%TO.P,J4,B5*%
%TO.N,Net-(J4-PadB5)*%
X177750000Y-83140000D03*
%TO.P,J4,B8*%
%TO.N,Net-(J4-PadB8)*%
X174250000Y-83140000D03*
D12*
%TO.P,J4,A9*%
%TO.N,VBUS*%
X178400000Y-83140000D03*
%TO.P,J4,B9*%
X173600000Y-83140000D03*
%TO.P,J4,B1*%
%TO.N,GND*%
X179200000Y-83140000D03*
D16*
%TO.P,J4,S1*%
X178890000Y-84210000D03*
X173110000Y-84210000D03*
D12*
%TO.P,J4,A1*%
X172800000Y-83140000D03*
%TD*%
D17*
%TO.P,U1,21*%
%TO.N,GND*%
X179075000Y-69125000D03*
D18*
%TO.P,U1,~*%
%TO.N,N/C*%
X177075000Y-71125000D03*
X181075000Y-67125000D03*
X181075000Y-71125000D03*
X177075000Y-67125000D03*
D19*
X177075000Y-71125000D03*
D20*
%TO.P,U1,21*%
%TO.N,GND*%
X179075000Y-69125000D03*
%TO.P,U1,20*%
%TO.N,Net-(C1-Pad1)*%
%TA.AperFunction,SMDPad,CuDef*%
G36*
G01*
X177487500Y-70250000D02*
X176612500Y-70250000D01*
G75*
G02*
X176550000Y-70187500I0J62500D01*
G01*
X176550000Y-70062500D01*
G75*
G02*
X176612500Y-70000000I62500J0D01*
G01*
X177487500Y-70000000D01*
G75*
G02*
X177550000Y-70062500I0J-62500D01*
G01*
X177550000Y-70187500D01*
G75*
G02*
X177487500Y-70250000I-62500J0D01*
G01*
G37*
%TD.AperFunction*%
%TO.P,U1,19*%
%TO.N,RST*%
%TA.AperFunction,SMDPad,CuDef*%
G36*
G01*
X177487500Y-69750000D02*
X176612500Y-69750000D01*
G75*
G02*
X176550000Y-69687500I0J62500D01*
G01*
X176550000Y-69562500D01*
G75*
G02*
X176612500Y-69500000I62500J0D01*
G01*
X177487500Y-69500000D01*
G75*
G02*
X177550000Y-69562500I0J-62500D01*
G01*
X177550000Y-69687500D01*
G75*
G02*
X177487500Y-69750000I-62500J0D01*
G01*
G37*
%TD.AperFunction*%
%TO.P,U1,18*%
%TO.N,GPIO0*%
%TA.AperFunction,SMDPad,CuDef*%
G36*
G01*
X177487500Y-69250000D02*
X176612500Y-69250000D01*
G75*
G02*
X176550000Y-69187500I0J62500D01*
G01*
X176550000Y-69062500D01*
G75*
G02*
X176612500Y-69000000I62500J0D01*
G01*
X177487500Y-69000000D01*
G75*
G02*
X177550000Y-69062500I0J-62500D01*
G01*
X177550000Y-69187500D01*
G75*
G02*
X177487500Y-69250000I-62500J0D01*
G01*
G37*
%TD.AperFunction*%
%TO.P,U1,17*%
%TO.N,RXD*%
%TA.AperFunction,SMDPad,CuDef*%
G36*
G01*
X177487500Y-68750000D02*
X176612500Y-68750000D01*
G75*
G02*
X176550000Y-68687500I0J62500D01*
G01*
X176550000Y-68562500D01*
G75*
G02*
X176612500Y-68500000I62500J0D01*
G01*
X177487500Y-68500000D01*
G75*
G02*
X177550000Y-68562500I0J-62500D01*
G01*
X177550000Y-68687500D01*
G75*
G02*
X177487500Y-68750000I-62500J0D01*
G01*
G37*
%TD.AperFunction*%
%TO.P,U1,16*%
%TO.N,Net-(U1-Pad16)*%
%TA.AperFunction,SMDPad,CuDef*%
G36*
G01*
X177487500Y-68250000D02*
X176612500Y-68250000D01*
G75*
G02*
X176550000Y-68187500I0J62500D01*
G01*
X176550000Y-68062500D01*
G75*
G02*
X176612500Y-68000000I62500J0D01*
G01*
X177487500Y-68000000D01*
G75*
G02*
X177550000Y-68062500I0J-62500D01*
G01*
X177550000Y-68187500D01*
G75*
G02*
X177487500Y-68250000I-62500J0D01*
G01*
G37*
%TD.AperFunction*%
%TO.P,U1,15*%
%TO.N,Net-(D1-Pad1)*%
%TA.AperFunction,SMDPad,CuDef*%
G36*
G01*
X178137500Y-67600000D02*
X178012500Y-67600000D01*
G75*
G02*
X177950000Y-67537500I0J62500D01*
G01*
X177950000Y-66662500D01*
G75*
G02*
X178012500Y-66600000I62500J0D01*
G01*
X178137500Y-66600000D01*
G75*
G02*
X178200000Y-66662500I0J-62500D01*
G01*
X178200000Y-67537500D01*
G75*
G02*
X178137500Y-67600000I-62500J0D01*
G01*
G37*
%TD.AperFunction*%
%TO.P,U1,14*%
%TO.N,Net-(U1-Pad14)*%
%TA.AperFunction,SMDPad,CuDef*%
G36*
G01*
X178637500Y-67600000D02*
X178512500Y-67600000D01*
G75*
G02*
X178450000Y-67537500I0J62500D01*
G01*
X178450000Y-66662500D01*
G75*
G02*
X178512500Y-66600000I62500J0D01*
G01*
X178637500Y-66600000D01*
G75*
G02*
X178700000Y-66662500I0J-62500D01*
G01*
X178700000Y-67537500D01*
G75*
G02*
X178637500Y-67600000I-62500J0D01*
G01*
G37*
%TD.AperFunction*%
%TO.P,U1,13*%
%TO.N,GND*%
%TA.AperFunction,SMDPad,CuDef*%
G36*
G01*
X179137500Y-67600000D02*
X179012500Y-67600000D01*
G75*
G02*
X178950000Y-67537500I0J62500D01*
G01*
X178950000Y-66662500D01*
G75*
G02*
X179012500Y-66600000I62500J0D01*
G01*
X179137500Y-66600000D01*
G75*
G02*
X179200000Y-66662500I0J-62500D01*
G01*
X179200000Y-67537500D01*
G75*
G02*
X179137500Y-67600000I-62500J0D01*
G01*
G37*
%TD.AperFunction*%
%TO.P,U1,12*%
%TO.N,VBUS*%
%TA.AperFunction,SMDPad,CuDef*%
G36*
G01*
X179637500Y-67600000D02*
X179512500Y-67600000D01*
G75*
G02*
X179450000Y-67537500I0J62500D01*
G01*
X179450000Y-66662500D01*
G75*
G02*
X179512500Y-66600000I62500J0D01*
G01*
X179637500Y-66600000D01*
G75*
G02*
X179700000Y-66662500I0J-62500D01*
G01*
X179700000Y-67537500D01*
G75*
G02*
X179637500Y-67600000I-62500J0D01*
G01*
G37*
%TD.AperFunction*%
%TO.P,U1,11*%
%TO.N,Net-(C1-Pad1)*%
%TA.AperFunction,SMDPad,CuDef*%
G36*
G01*
X180137500Y-67600000D02*
X180012500Y-67600000D01*
G75*
G02*
X179950000Y-67537500I0J62500D01*
G01*
X179950000Y-66662500D01*
G75*
G02*
X180012500Y-66600000I62500J0D01*
G01*
X180137500Y-66600000D01*
G75*
G02*
X180200000Y-66662500I0J-62500D01*
G01*
X180200000Y-67537500D01*
G75*
G02*
X180137500Y-67600000I-62500J0D01*
G01*
G37*
%TD.AperFunction*%
%TO.P,U1,10*%
%TA.AperFunction,SMDPad,CuDef*%
G36*
G01*
X181537500Y-68250000D02*
X180662500Y-68250000D01*
G75*
G02*
X180600000Y-68187500I0J62500D01*
G01*
X180600000Y-68062500D01*
G75*
G02*
X180662500Y-68000000I62500J0D01*
G01*
X181537500Y-68000000D01*
G75*
G02*
X181600000Y-68062500I0J-62500D01*
G01*
X181600000Y-68187500D01*
G75*
G02*
X181537500Y-68250000I-62500J0D01*
G01*
G37*
%TD.AperFunction*%
%TO.P,U1,9*%
%TO.N,D-*%
%TA.AperFunction,SMDPad,CuDef*%
G36*
G01*
X181537500Y-68750000D02*
X180662500Y-68750000D01*
G75*
G02*
X180600000Y-68687500I0J62500D01*
G01*
X180600000Y-68562500D01*
G75*
G02*
X180662500Y-68500000I62500J0D01*
G01*
X181537500Y-68500000D01*
G75*
G02*
X181600000Y-68562500I0J-62500D01*
G01*
X181600000Y-68687500D01*
G75*
G02*
X181537500Y-68750000I-62500J0D01*
G01*
G37*
%TD.AperFunction*%
%TO.P,U1,8*%
%TO.N,D+*%
%TA.AperFunction,SMDPad,CuDef*%
G36*
G01*
X181537500Y-69250000D02*
X180662500Y-69250000D01*
G75*
G02*
X180600000Y-69187500I0J62500D01*
G01*
X180600000Y-69062500D01*
G75*
G02*
X180662500Y-69000000I62500J0D01*
G01*
X181537500Y-69000000D01*
G75*
G02*
X181600000Y-69062500I0J-62500D01*
G01*
X181600000Y-69187500D01*
G75*
G02*
X181537500Y-69250000I-62500J0D01*
G01*
G37*
%TD.AperFunction*%
%TO.P,U1,7*%
%TO.N,Net-(U1-Pad7)*%
%TA.AperFunction,SMDPad,CuDef*%
G36*
G01*
X181537500Y-69750000D02*
X180662500Y-69750000D01*
G75*
G02*
X180600000Y-69687500I0J62500D01*
G01*
X180600000Y-69562500D01*
G75*
G02*
X180662500Y-69500000I62500J0D01*
G01*
X181537500Y-69500000D01*
G75*
G02*
X181600000Y-69562500I0J-62500D01*
G01*
X181600000Y-69687500D01*
G75*
G02*
X181537500Y-69750000I-62500J0D01*
G01*
G37*
%TD.AperFunction*%
%TO.P,U1,6*%
%TO.N,GND*%
%TA.AperFunction,SMDPad,CuDef*%
G36*
G01*
X181537500Y-70250000D02*
X180662500Y-70250000D01*
G75*
G02*
X180600000Y-70187500I0J62500D01*
G01*
X180600000Y-70062500D01*
G75*
G02*
X180662500Y-70000000I62500J0D01*
G01*
X181537500Y-70000000D01*
G75*
G02*
X181600000Y-70062500I0J-62500D01*
G01*
X181600000Y-70187500D01*
G75*
G02*
X181537500Y-70250000I-62500J0D01*
G01*
G37*
%TD.AperFunction*%
%TO.P,U1,5*%
%TA.AperFunction,SMDPad,CuDef*%
G36*
G01*
X180137500Y-71650000D02*
X180012500Y-71650000D01*
G75*
G02*
X179950000Y-71587500I0J62500D01*
G01*
X179950000Y-70712500D01*
G75*
G02*
X180012500Y-70650000I62500J0D01*
G01*
X180137500Y-70650000D01*
G75*
G02*
X180200000Y-70712500I0J-62500D01*
G01*
X180200000Y-71587500D01*
G75*
G02*
X180137500Y-71650000I-62500J0D01*
G01*
G37*
%TD.AperFunction*%
%TO.P,U1,4*%
%TA.AperFunction,SMDPad,CuDef*%
G36*
G01*
X179637500Y-71650000D02*
X179512500Y-71650000D01*
G75*
G02*
X179450000Y-71587500I0J62500D01*
G01*
X179450000Y-70712500D01*
G75*
G02*
X179512500Y-70650000I62500J0D01*
G01*
X179637500Y-70650000D01*
G75*
G02*
X179700000Y-70712500I0J-62500D01*
G01*
X179700000Y-71587500D01*
G75*
G02*
X179637500Y-71650000I-62500J0D01*
G01*
G37*
%TD.AperFunction*%
%TO.P,U1,3*%
%TA.AperFunction,SMDPad,CuDef*%
G36*
G01*
X179137500Y-71650000D02*
X179012500Y-71650000D01*
G75*
G02*
X178950000Y-71587500I0J62500D01*
G01*
X178950000Y-70712500D01*
G75*
G02*
X179012500Y-70650000I62500J0D01*
G01*
X179137500Y-70650000D01*
G75*
G02*
X179200000Y-70712500I0J-62500D01*
G01*
X179200000Y-71587500D01*
G75*
G02*
X179137500Y-71650000I-62500J0D01*
G01*
G37*
%TD.AperFunction*%
%TO.P,U1,2*%
%TO.N,Net-(U1-Pad2)*%
%TA.AperFunction,SMDPad,CuDef*%
G36*
G01*
X178637500Y-71650000D02*
X178512500Y-71650000D01*
G75*
G02*
X178450000Y-71587500I0J62500D01*
G01*
X178450000Y-70712500D01*
G75*
G02*
X178512500Y-70650000I62500J0D01*
G01*
X178637500Y-70650000D01*
G75*
G02*
X178700000Y-70712500I0J-62500D01*
G01*
X178700000Y-71587500D01*
G75*
G02*
X178637500Y-71650000I-62500J0D01*
G01*
G37*
%TD.AperFunction*%
%TO.P,U1,1*%
%TO.N,TXD*%
%TA.AperFunction,SMDPad,CuDef*%
G36*
G01*
X178137500Y-71650000D02*
X178012500Y-71650000D01*
G75*
G02*
X177950000Y-71587500I0J62500D01*
G01*
X177950000Y-70712500D01*
G75*
G02*
X178012500Y-70650000I62500J0D01*
G01*
X178137500Y-70650000D01*
G75*
G02*
X178200000Y-70712500I0J-62500D01*
G01*
X178200000Y-71587500D01*
G75*
G02*
X178137500Y-71650000I-62500J0D01*
G01*
G37*
%TD.AperFunction*%
%TD*%
D14*
%TO.P,SW1,1*%
%TO.N,SHDN*%
X179400000Y-75800000D03*
%TO.P,SW1,2*%
%TO.N,GND*%
X179400000Y-80300000D03*
%TO.P,SW1,1*%
%TO.N,SHDN*%
X172900000Y-75800000D03*
%TO.P,SW1,2*%
%TO.N,GND*%
X172900000Y-80300000D03*
%TD*%
%TO.P,C1,2*%
%TO.N,GND*%
%TA.AperFunction,SMDPad,CuDef*%
G36*
G01*
X181237500Y-65450001D02*
X181237500Y-64149999D01*
G75*
G02*
X181487499Y-63900000I249999J0D01*
G01*
X182312501Y-63900000D01*
G75*
G02*
X182562500Y-64149999I0J-249999D01*
G01*
X182562500Y-65450001D01*
G75*
G02*
X182312501Y-65700000I-249999J0D01*
G01*
X181487499Y-65700000D01*
G75*
G02*
X181237500Y-65450001I0J249999D01*
G01*
G37*
%TD.AperFunction*%
%TO.P,C1,1*%
%TO.N,Net-(C1-Pad1)*%
%TA.AperFunction,SMDPad,CuDef*%
G36*
G01*
X178112500Y-65450001D02*
X178112500Y-64149999D01*
G75*
G02*
X178362499Y-63900000I249999J0D01*
G01*
X179187501Y-63900000D01*
G75*
G02*
X179437500Y-64149999I0J-249999D01*
G01*
X179437500Y-65450001D01*
G75*
G02*
X179187501Y-65700000I-249999J0D01*
G01*
X178362499Y-65700000D01*
G75*
G02*
X178112500Y-65450001I0J249999D01*
G01*
G37*
%TD.AperFunction*%
%TD*%
D21*
%TO.P,J3,6*%
%TO.N,TXD*%
X174650000Y-62000000D03*
%TO.P,J3,5*%
%TO.N,RXD*%
X175920000Y-62000000D03*
%TO.P,J3,4*%
%TO.N,+3V3*%
X177190000Y-62000000D03*
%TO.P,J3,3*%
%TO.N,RST*%
X178460000Y-62000000D03*
%TO.P,J3,2*%
%TO.N,GPIO0*%
X179730000Y-62000000D03*
D22*
%TO.P,J3,1*%
%TO.N,GND*%
X181000000Y-62000000D03*
%TD*%
D21*
%TO.P,J2,6*%
%TO.N,TXD*%
X174650000Y-60630000D03*
%TO.P,J2,5*%
%TO.N,RXD*%
X175920000Y-60630000D03*
%TO.P,J2,4*%
%TO.N,+3V3*%
X177190000Y-60630000D03*
%TO.P,J2,3*%
%TO.N,RST*%
X178460000Y-60630000D03*
%TO.P,J2,2*%
%TO.N,GPIO0*%
X179730000Y-60630000D03*
D22*
%TO.P,J2,1*%
%TO.N,GND*%
X181000000Y-60630000D03*
%TD*%
D23*
%TO.P,J1,5*%
%TO.N,TXD*%
X184000000Y-76840000D03*
%TO.P,J1,4*%
%TO.N,RXD*%
X184000000Y-79380000D03*
%TO.P,J1,3*%
%TO.N,+3V3*%
X184000000Y-81920000D03*
%TO.P,J1,2*%
%TO.N,GPIO0*%
X184000000Y-84460000D03*
D24*
%TO.P,J1,1*%
%TO.N,GND*%
X184000000Y-87000000D03*
%TD*%
%TO.P,R4,2*%
%TO.N,D+*%
%TA.AperFunction,SMDPad,CuDef*%
G36*
G01*
X184625000Y-70550000D02*
X183375000Y-70550000D01*
G75*
G02*
X183125000Y-70300000I0J250000D01*
G01*
X183125000Y-69500000D01*
G75*
G02*
X183375000Y-69250000I250000J0D01*
G01*
X184625000Y-69250000D01*
G75*
G02*
X184875000Y-69500000I0J-250000D01*
G01*
X184875000Y-70300000D01*
G75*
G02*
X184625000Y-70550000I-250000J0D01*
G01*
G37*
%TD.AperFunction*%
%TO.P,R4,1*%
%TO.N,Net-(J4-PadA6)*%
%TA.AperFunction,SMDPad,CuDef*%
G36*
G01*
X184625000Y-73650000D02*
X183375000Y-73650000D01*
G75*
G02*
X183125000Y-73400000I0J250000D01*
G01*
X183125000Y-72600000D01*
G75*
G02*
X183375000Y-72350000I250000J0D01*
G01*
X184625000Y-72350000D01*
G75*
G02*
X184875000Y-72600000I0J-250000D01*
G01*
X184875000Y-73400000D01*
G75*
G02*
X184625000Y-73650000I-250000J0D01*
G01*
G37*
%TD.AperFunction*%
%TD*%
%TO.P,R3,2*%
%TO.N,D-*%
%TA.AperFunction,SMDPad,CuDef*%
G36*
G01*
X183375000Y-67350000D02*
X184625000Y-67350000D01*
G75*
G02*
X184875000Y-67600000I0J-250000D01*
G01*
X184875000Y-68400000D01*
G75*
G02*
X184625000Y-68650000I-250000J0D01*
G01*
X183375000Y-68650000D01*
G75*
G02*
X183125000Y-68400000I0J250000D01*
G01*
X183125000Y-67600000D01*
G75*
G02*
X183375000Y-67350000I250000J0D01*
G01*
G37*
%TD.AperFunction*%
%TO.P,R3,1*%
%TO.N,Net-(J4-PadA7)*%
%TA.AperFunction,SMDPad,CuDef*%
G36*
G01*
X183375000Y-64250000D02*
X184625000Y-64250000D01*
G75*
G02*
X184875000Y-64500000I0J-250000D01*
G01*
X184875000Y-65300000D01*
G75*
G02*
X184625000Y-65550000I-250000J0D01*
G01*
X183375000Y-65550000D01*
G75*
G02*
X183125000Y-65300000I0J250000D01*
G01*
X183125000Y-64500000D01*
G75*
G02*
X183375000Y-64250000I250000J0D01*
G01*
G37*
%TD.AperFunction*%
%TD*%
D25*
%TO.P,M1,3*%
%TO.N,GND*%
X172730000Y-67620000D03*
%TD*%
D26*
%TO.N,GND*%
X181900000Y-64800000D03*
%TO.N,VBUS*%
X173748442Y-71276878D03*
X177424320Y-65769746D03*
%TO.N,RXD*%
X175925010Y-68023022D03*
X175900000Y-64200000D03*
%TO.N,+3V3*%
X179100000Y-72500000D03*
%TO.N,GPIO0*%
X175500561Y-66374119D03*
%TO.N,TXD*%
X177715426Y-72140745D03*
%TO.N,Net-(C1-Pad1)*%
X175925984Y-70300000D03*
X178800160Y-64825160D03*
%TO.N,Net-(J4-PadA7)*%
X176800000Y-81200000D03*
X174944906Y-81143496D03*
%TO.N,Net-(J4-PadA6)*%
X177667839Y-80300000D03*
X175419742Y-80263409D03*
%TO.N,Net-(J4-PadA5)*%
X174325010Y-81928195D03*
%TO.N,Net-(J4-PadB5)*%
X178600000Y-81714998D03*
%TD*%
D27*
%TO.N,GND*%
X181100000Y-70125000D02*
X180075000Y-70125000D01*
X180075000Y-70125000D02*
X179075000Y-69125000D01*
X180075000Y-71150000D02*
X180075000Y-70125000D01*
X179575000Y-69625000D02*
X179075000Y-69125000D01*
X179575000Y-71150000D02*
X179575000Y-69625000D01*
X179075000Y-71150000D02*
X179075000Y-69125000D01*
X179075000Y-67100000D02*
X179075000Y-69125000D01*
X179735000Y-83140000D02*
X180325000Y-83730000D01*
X179200000Y-83140000D02*
X179735000Y-83140000D01*
X172265000Y-83140000D02*
X171675000Y-83730000D01*
X172800000Y-83140000D02*
X172265000Y-83140000D01*
X175345000Y-87910000D02*
X176000000Y-87255000D01*
X171675000Y-87910000D02*
X175345000Y-87910000D01*
X179845000Y-84210000D02*
X180325000Y-83730000D01*
X178890000Y-84210000D02*
X179845000Y-84210000D01*
X172155000Y-84210000D02*
X171675000Y-83730000D01*
X173110000Y-84210000D02*
X172155000Y-84210000D01*
%TO.N,VBUS*%
X178160001Y-84035001D02*
X178400000Y-83795002D01*
X173839999Y-84035001D02*
X178160001Y-84035001D01*
X173600000Y-83795002D02*
X173839999Y-84035001D01*
X178400000Y-83795002D02*
X178400000Y-83140000D01*
X173600000Y-83140000D02*
X173600000Y-83795002D01*
X173748442Y-73139748D02*
X173748442Y-71276878D01*
X173600000Y-82320000D02*
X172905001Y-81625001D01*
X170625001Y-81625001D02*
X170500000Y-81500000D01*
X172905001Y-81625001D02*
X170625001Y-81625001D01*
X170500000Y-81500000D02*
X170500000Y-75000000D01*
X171474990Y-74025010D02*
X172863180Y-74025010D01*
X170500000Y-75000000D02*
X171474990Y-74025010D01*
X173600000Y-83140000D02*
X173600000Y-82320000D01*
X172863180Y-74025010D02*
X173748442Y-73139748D01*
X179575000Y-67100000D02*
X179575000Y-66551978D01*
X179575000Y-66551978D02*
X179192767Y-66169745D01*
X179192767Y-66169745D02*
X177824319Y-66169745D01*
X177824319Y-66169745D02*
X177424320Y-65769746D01*
%TO.N,RXD*%
X175925010Y-68048032D02*
X175925010Y-68023022D01*
X176501978Y-68625000D02*
X175925010Y-68048032D01*
X177050000Y-68625000D02*
X176501978Y-68625000D01*
X175900000Y-64200000D02*
X176249299Y-64549299D01*
X176249299Y-64549299D02*
X176249299Y-67698733D01*
X176249299Y-67698733D02*
X175925010Y-68023022D01*
%TO.N,+3V3*%
X172000000Y-73050000D02*
X172000000Y-72000000D01*
X172000000Y-72000000D02*
X173500000Y-70500000D01*
X174473443Y-70928877D02*
X174473443Y-71473443D01*
X174096443Y-70551877D02*
X174473443Y-70928877D01*
X173551877Y-70551877D02*
X174096443Y-70551877D01*
X173500000Y-70500000D02*
X173551877Y-70551877D01*
X174473443Y-71473443D02*
X176000000Y-73000000D01*
X178600000Y-73000000D02*
X179100000Y-72500000D01*
X176000000Y-73000000D02*
X178600000Y-73000000D01*
%TO.N,GPIO0*%
X175928964Y-69124987D02*
X175174998Y-68371021D01*
X177049987Y-69124987D02*
X175928964Y-69124987D01*
X175174998Y-68371021D02*
X175174998Y-65874998D01*
X177050000Y-69125000D02*
X177049987Y-69124987D01*
X175174998Y-66048556D02*
X175500561Y-66374119D01*
X175174998Y-65874998D02*
X175174998Y-66048556D01*
X175174998Y-65874998D02*
X175174998Y-63851998D01*
X175551998Y-63474998D02*
X177587902Y-63474998D01*
X175174998Y-63851998D02*
X175551998Y-63474998D01*
X177587902Y-63474998D02*
X178012911Y-63049989D01*
X178680011Y-63049989D02*
X179730000Y-62000000D01*
X178012911Y-63049989D02*
X178680011Y-63049989D01*
%TO.N,TXD*%
X178075000Y-71150000D02*
X178075000Y-71650000D01*
X178075000Y-71650000D02*
X178075000Y-71781171D01*
X178075000Y-71781171D02*
X177715426Y-72140745D01*
X177424682Y-71850001D02*
X177715426Y-72140745D01*
X176450001Y-71850001D02*
X177424682Y-71850001D01*
X175200000Y-70600000D02*
X176450001Y-71850001D01*
X174150001Y-68950001D02*
X175200000Y-70000000D01*
X174150001Y-62499999D02*
X174150001Y-68950001D01*
X175200000Y-70000000D02*
X175200000Y-70600000D01*
X174650000Y-62000000D02*
X174150001Y-62499999D01*
%TO.N,RST*%
X174724987Y-68557420D02*
X174724987Y-63665598D01*
X174724987Y-63665598D02*
X175365598Y-63024987D01*
X178426488Y-62000000D02*
X178460000Y-62000000D01*
X176398004Y-69625000D02*
X176348002Y-69574998D01*
X177050000Y-69625000D02*
X176398004Y-69625000D01*
X176348002Y-69574998D02*
X175742565Y-69574998D01*
X175742565Y-69574998D02*
X174724987Y-68557420D01*
X175365598Y-63024987D02*
X177401501Y-63024987D01*
X177401501Y-63024987D02*
X178426488Y-62000000D01*
%TO.N,D-*%
X183375000Y-68625000D02*
X184000000Y-68000000D01*
X181100000Y-68625000D02*
X183375000Y-68625000D01*
%TO.N,D+*%
X183225000Y-69125000D02*
X184000000Y-69900000D01*
X181100000Y-69125000D02*
X183225000Y-69125000D01*
%TO.N,Net-(C1-Pad1)*%
X177050000Y-70125000D02*
X176100984Y-70125000D01*
X176100984Y-70125000D02*
X175925984Y-70300000D01*
X180075000Y-67100000D02*
X181100000Y-68125000D01*
X180075000Y-66100000D02*
X178800160Y-64825160D01*
X180075000Y-67100000D02*
X180075000Y-66100000D01*
%TO.N,Net-(J4-PadA7)*%
X176800000Y-81200000D02*
X176250000Y-81750000D01*
X185200010Y-66100010D02*
X184000000Y-64900000D01*
X184719095Y-74119095D02*
X185200010Y-73638180D01*
X183780905Y-74119095D02*
X184719095Y-74119095D01*
X182650000Y-75250000D02*
X183780905Y-74119095D01*
X185200010Y-73638180D02*
X185200010Y-66100010D01*
X182325001Y-78974999D02*
X182650000Y-78650000D01*
X177925001Y-78974999D02*
X182325001Y-78974999D01*
X182650000Y-78650000D02*
X182650000Y-75250000D01*
X176800000Y-80100000D02*
X177925001Y-78974999D01*
X176800000Y-81200000D02*
X176800000Y-80100000D01*
X176250000Y-81750000D02*
X176250000Y-83140000D01*
X175250000Y-83140000D02*
X175250000Y-81448590D01*
X175250000Y-81448590D02*
X174944906Y-81143496D01*
%TO.N,Net-(J4-PadA6)*%
X176825001Y-81989999D02*
X177203588Y-81989999D01*
X177203588Y-81989999D02*
X177667839Y-81525748D01*
X176750000Y-82065000D02*
X176825001Y-81989999D01*
X177667839Y-81525748D02*
X177667839Y-80300000D01*
X176750000Y-82065000D02*
X176750000Y-83140000D01*
X184000000Y-73000000D02*
X183125000Y-73000000D01*
X183125000Y-73000000D02*
X182151294Y-73973706D01*
X175750000Y-83140000D02*
X175750000Y-80593667D01*
X182151294Y-77848706D02*
X181750009Y-78249991D01*
X182151294Y-73973706D02*
X182151294Y-77848706D01*
X181750009Y-78249991D02*
X177433160Y-78249991D01*
X175750000Y-80593667D02*
X175419742Y-80263409D01*
X177433160Y-78249991D02*
X175419742Y-80263409D01*
%TO.N,Net-(J4-PadA5)*%
X174750000Y-82123004D02*
X174555191Y-81928195D01*
X174555191Y-81928195D02*
X174325010Y-81928195D01*
X174750000Y-83140000D02*
X174750000Y-82123004D01*
%TO.N,Net-(J4-PadB5)*%
X177750000Y-82079997D02*
X178114999Y-81714998D01*
X178114999Y-81714998D02*
X178600000Y-81714998D01*
X177750000Y-82079997D02*
X177750000Y-83140000D01*
%TO.N,Net-(D1-Pad2)*%
X171500000Y-62462500D02*
X171037500Y-62462500D01*
X171037500Y-62462500D02*
X170500000Y-63000000D01*
X170500000Y-68450000D02*
X172000000Y-69950000D01*
X170500000Y-63000000D02*
X170500000Y-68450000D01*
%TO.N,Net-(D1-Pad1)*%
X171500000Y-60537500D02*
X171500000Y-60500000D01*
X171500000Y-60500000D02*
X172500000Y-59500000D01*
X181455002Y-59500000D02*
X182000000Y-60044998D01*
X172500000Y-59500000D02*
X181455002Y-59500000D01*
X182000000Y-62585002D02*
X181010012Y-63574990D01*
X178124320Y-63574990D02*
X176699310Y-65000000D01*
X182000000Y-60044998D02*
X182000000Y-62585002D01*
X181010012Y-63574990D02*
X178124320Y-63574990D01*
X177469747Y-66494747D02*
X178075000Y-67100000D01*
X176699310Y-66117738D02*
X177076319Y-66494747D01*
X176699310Y-65000000D02*
X176699310Y-66117738D01*
X177076319Y-66494747D02*
X177469747Y-66494747D01*
%TD*%
D28*
%TO.N,GND*%
X182572068Y-79813158D02*
X182684010Y-80083411D01*
X182846525Y-80326632D01*
X183053368Y-80533475D01*
X183227760Y-80650000D01*
X183053368Y-80766525D01*
X182846525Y-80973368D01*
X182684010Y-81216589D01*
X182572068Y-81486842D01*
X182515000Y-81773740D01*
X182515000Y-82066260D01*
X182572068Y-82353158D01*
X182684010Y-82623411D01*
X182846525Y-82866632D01*
X183053368Y-83073475D01*
X183227760Y-83190000D01*
X183053368Y-83306525D01*
X182846525Y-83513368D01*
X182684010Y-83756589D01*
X182572068Y-84026842D01*
X182515000Y-84313740D01*
X182515000Y-84606260D01*
X182572068Y-84893158D01*
X182684010Y-85163411D01*
X182846525Y-85406632D01*
X182978380Y-85538487D01*
X182905820Y-85560498D01*
X182795506Y-85619463D01*
X182698815Y-85698815D01*
X182619463Y-85795506D01*
X182560498Y-85905820D01*
X182524188Y-86025518D01*
X182511928Y-86150000D01*
X182515000Y-86714250D01*
X182673750Y-86873000D01*
X183873000Y-86873000D01*
X183873000Y-86853000D01*
X184127000Y-86853000D01*
X184127000Y-86873000D01*
X184147000Y-86873000D01*
X184147000Y-87127000D01*
X184127000Y-87127000D01*
X184127000Y-88326250D01*
X184285750Y-88485000D01*
X184850000Y-88488072D01*
X184974482Y-88475812D01*
X185094180Y-88439502D01*
X185204494Y-88380537D01*
X185301185Y-88301185D01*
X185315001Y-88284350D01*
X185315001Y-88966485D01*
X185305778Y-89060546D01*
X185288194Y-89118787D01*
X185259635Y-89172500D01*
X185221183Y-89219646D01*
X185174310Y-89258423D01*
X185120796Y-89287358D01*
X185062677Y-89305349D01*
X184970855Y-89315000D01*
X180807216Y-89315000D01*
X180807216Y-89314601D01*
X180958747Y-89260919D01*
X181096157Y-89187472D01*
X181173792Y-88938397D01*
X180806287Y-88570892D01*
X180805838Y-88211233D01*
X181353397Y-88758792D01*
X181602472Y-88681157D01*
X181728371Y-88417117D01*
X181800339Y-88133589D01*
X181815165Y-87850000D01*
X182511928Y-87850000D01*
X182524188Y-87974482D01*
X182560498Y-88094180D01*
X182619463Y-88204494D01*
X182698815Y-88301185D01*
X182795506Y-88380537D01*
X182905820Y-88439502D01*
X183025518Y-88475812D01*
X183150000Y-88488072D01*
X183714250Y-88485000D01*
X183873000Y-88326250D01*
X183873000Y-87127000D01*
X182673750Y-87127000D01*
X182515000Y-87285750D01*
X182511928Y-87850000D01*
X181815165Y-87850000D01*
X181815611Y-87841469D01*
X181773599Y-87551981D01*
X181675919Y-87276253D01*
X181602472Y-87138843D01*
X181353397Y-87061208D01*
X180805086Y-87609519D01*
X180805000Y-87540750D01*
X180659823Y-87395573D01*
X181173792Y-86881603D01*
X181096157Y-86632528D01*
X180832117Y-86506629D01*
X180805586Y-86499895D01*
X180807094Y-85293269D01*
X181011088Y-85222795D01*
X181185044Y-85129814D01*
X181280808Y-84865413D01*
X180793591Y-84378196D01*
X180759502Y-84265820D01*
X180700537Y-84155506D01*
X180621185Y-84058815D01*
X180524494Y-83979463D01*
X180414180Y-83920498D01*
X180294482Y-83884188D01*
X180268765Y-83881655D01*
X180134399Y-83747289D01*
X180135087Y-83740308D01*
X180145395Y-83730000D01*
X180504605Y-83730000D01*
X181460413Y-84685808D01*
X181724814Y-84590044D01*
X181865704Y-84300429D01*
X181947384Y-83988892D01*
X181966718Y-83667405D01*
X181922961Y-83348325D01*
X181817795Y-83043912D01*
X181724814Y-82869956D01*
X181460413Y-82774192D01*
X180504605Y-83730000D01*
X180145395Y-83730000D01*
X180136935Y-83721540D01*
X180138072Y-83710000D01*
X180138062Y-83709048D01*
X180310858Y-83536253D01*
X180325000Y-83550395D01*
X181280808Y-82594587D01*
X181185044Y-82330186D01*
X180895429Y-82189296D01*
X180583892Y-82107616D01*
X180262405Y-82088282D01*
X179960145Y-82129732D01*
X179951185Y-82118815D01*
X179854494Y-82039463D01*
X179744180Y-81980498D01*
X179624482Y-81944188D01*
X179609973Y-81942759D01*
X179614318Y-81920911D01*
X179781675Y-81897961D01*
X180086088Y-81792795D01*
X180260044Y-81699814D01*
X180355808Y-81435413D01*
X179400000Y-80479605D01*
X179385858Y-80493748D01*
X179206253Y-80314143D01*
X179220395Y-80300000D01*
X179206253Y-80285858D01*
X179385858Y-80106253D01*
X179400000Y-80120395D01*
X179414143Y-80106253D01*
X179593748Y-80285858D01*
X179579605Y-80300000D01*
X180535413Y-81255808D01*
X180799814Y-81160044D01*
X180940704Y-80870429D01*
X181022384Y-80558892D01*
X181041718Y-80237405D01*
X180997961Y-79918325D01*
X180934627Y-79734999D01*
X182287679Y-79734999D01*
X182325001Y-79738675D01*
X182362323Y-79734999D01*
X182362334Y-79734999D01*
X182473987Y-79724002D01*
X182549761Y-79701016D01*
X182572068Y-79813158D01*
%TA.AperFunction,Conductor*%
D29*
G36*
X182572068Y-79813158D02*
G01*
X182684010Y-80083411D01*
X182846525Y-80326632D01*
X183053368Y-80533475D01*
X183227760Y-80650000D01*
X183053368Y-80766525D01*
X182846525Y-80973368D01*
X182684010Y-81216589D01*
X182572068Y-81486842D01*
X182515000Y-81773740D01*
X182515000Y-82066260D01*
X182572068Y-82353158D01*
X182684010Y-82623411D01*
X182846525Y-82866632D01*
X183053368Y-83073475D01*
X183227760Y-83190000D01*
X183053368Y-83306525D01*
X182846525Y-83513368D01*
X182684010Y-83756589D01*
X182572068Y-84026842D01*
X182515000Y-84313740D01*
X182515000Y-84606260D01*
X182572068Y-84893158D01*
X182684010Y-85163411D01*
X182846525Y-85406632D01*
X182978380Y-85538487D01*
X182905820Y-85560498D01*
X182795506Y-85619463D01*
X182698815Y-85698815D01*
X182619463Y-85795506D01*
X182560498Y-85905820D01*
X182524188Y-86025518D01*
X182511928Y-86150000D01*
X182515000Y-86714250D01*
X182673750Y-86873000D01*
X183873000Y-86873000D01*
X183873000Y-86853000D01*
X184127000Y-86853000D01*
X184127000Y-86873000D01*
X184147000Y-86873000D01*
X184147000Y-87127000D01*
X184127000Y-87127000D01*
X184127000Y-88326250D01*
X184285750Y-88485000D01*
X184850000Y-88488072D01*
X184974482Y-88475812D01*
X185094180Y-88439502D01*
X185204494Y-88380537D01*
X185301185Y-88301185D01*
X185315001Y-88284350D01*
X185315001Y-88966485D01*
X185305778Y-89060546D01*
X185288194Y-89118787D01*
X185259635Y-89172500D01*
X185221183Y-89219646D01*
X185174310Y-89258423D01*
X185120796Y-89287358D01*
X185062677Y-89305349D01*
X184970855Y-89315000D01*
X180807216Y-89315000D01*
X180807216Y-89314601D01*
X180958747Y-89260919D01*
X181096157Y-89187472D01*
X181173792Y-88938397D01*
X180806287Y-88570892D01*
X180805838Y-88211233D01*
X181353397Y-88758792D01*
X181602472Y-88681157D01*
X181728371Y-88417117D01*
X181800339Y-88133589D01*
X181815165Y-87850000D01*
X182511928Y-87850000D01*
X182524188Y-87974482D01*
X182560498Y-88094180D01*
X182619463Y-88204494D01*
X182698815Y-88301185D01*
X182795506Y-88380537D01*
X182905820Y-88439502D01*
X183025518Y-88475812D01*
X183150000Y-88488072D01*
X183714250Y-88485000D01*
X183873000Y-88326250D01*
X183873000Y-87127000D01*
X182673750Y-87127000D01*
X182515000Y-87285750D01*
X182511928Y-87850000D01*
X181815165Y-87850000D01*
X181815611Y-87841469D01*
X181773599Y-87551981D01*
X181675919Y-87276253D01*
X181602472Y-87138843D01*
X181353397Y-87061208D01*
X180805086Y-87609519D01*
X180805000Y-87540750D01*
X180659823Y-87395573D01*
X181173792Y-86881603D01*
X181096157Y-86632528D01*
X180832117Y-86506629D01*
X180805586Y-86499895D01*
X180807094Y-85293269D01*
X181011088Y-85222795D01*
X181185044Y-85129814D01*
X181280808Y-84865413D01*
X180793591Y-84378196D01*
X180759502Y-84265820D01*
X180700537Y-84155506D01*
X180621185Y-84058815D01*
X180524494Y-83979463D01*
X180414180Y-83920498D01*
X180294482Y-83884188D01*
X180268765Y-83881655D01*
X180134399Y-83747289D01*
X180135087Y-83740308D01*
X180145395Y-83730000D01*
X180504605Y-83730000D01*
X181460413Y-84685808D01*
X181724814Y-84590044D01*
X181865704Y-84300429D01*
X181947384Y-83988892D01*
X181966718Y-83667405D01*
X181922961Y-83348325D01*
X181817795Y-83043912D01*
X181724814Y-82869956D01*
X181460413Y-82774192D01*
X180504605Y-83730000D01*
X180145395Y-83730000D01*
X180136935Y-83721540D01*
X180138072Y-83710000D01*
X180138062Y-83709048D01*
X180310858Y-83536253D01*
X180325000Y-83550395D01*
X181280808Y-82594587D01*
X181185044Y-82330186D01*
X180895429Y-82189296D01*
X180583892Y-82107616D01*
X180262405Y-82088282D01*
X179960145Y-82129732D01*
X179951185Y-82118815D01*
X179854494Y-82039463D01*
X179744180Y-81980498D01*
X179624482Y-81944188D01*
X179609973Y-81942759D01*
X179614318Y-81920911D01*
X179781675Y-81897961D01*
X180086088Y-81792795D01*
X180260044Y-81699814D01*
X180355808Y-81435413D01*
X179400000Y-80479605D01*
X179385858Y-80493748D01*
X179206253Y-80314143D01*
X179220395Y-80300000D01*
X179206253Y-80285858D01*
X179385858Y-80106253D01*
X179400000Y-80120395D01*
X179414143Y-80106253D01*
X179593748Y-80285858D01*
X179579605Y-80300000D01*
X180535413Y-81255808D01*
X180799814Y-81160044D01*
X180940704Y-80870429D01*
X181022384Y-80558892D01*
X181041718Y-80237405D01*
X180997961Y-79918325D01*
X180934627Y-79734999D01*
X182287679Y-79734999D01*
X182325001Y-79738675D01*
X182362323Y-79734999D01*
X182362334Y-79734999D01*
X182473987Y-79724002D01*
X182549761Y-79701016D01*
X182572068Y-79813158D01*
G37*
%TD.AperFunction*%
D28*
X176127000Y-87128000D02*
X179082315Y-87128000D01*
X179047528Y-87138843D01*
X178931586Y-87382000D01*
X176127000Y-87382000D01*
X176127000Y-87402000D01*
X175873000Y-87402000D01*
X175873000Y-87382000D01*
X173063381Y-87382000D01*
X173025919Y-87276253D01*
X172952472Y-87138843D01*
X172917685Y-87128000D01*
X175873000Y-87128000D01*
X175873000Y-87108000D01*
X176127000Y-87108000D01*
X176127000Y-87128000D01*
%TA.AperFunction,Conductor*%
D29*
G36*
X176127000Y-87128000D02*
G01*
X179082315Y-87128000D01*
X179047528Y-87138843D01*
X178931586Y-87382000D01*
X176127000Y-87382000D01*
X176127000Y-87402000D01*
X175873000Y-87402000D01*
X175873000Y-87382000D01*
X173063381Y-87382000D01*
X173025919Y-87276253D01*
X172952472Y-87138843D01*
X172917685Y-87128000D01*
X175873000Y-87128000D01*
X175873000Y-87108000D01*
X176127000Y-87108000D01*
X176127000Y-87128000D01*
G37*
%TD.AperFunction*%
D28*
X171861938Y-83709048D02*
X171861928Y-83710000D01*
X171863065Y-83721540D01*
X171854605Y-83730000D01*
X171864913Y-83740308D01*
X171865601Y-83747289D01*
X171731235Y-83881655D01*
X171705518Y-83884188D01*
X171640900Y-83903790D01*
X171481253Y-83744143D01*
X171495395Y-83730000D01*
X171481253Y-83715858D01*
X171660858Y-83536253D01*
X171675000Y-83550395D01*
X171689143Y-83536253D01*
X171861938Y-83709048D01*
%TA.AperFunction,Conductor*%
D29*
G36*
X171861938Y-83709048D02*
G01*
X171861928Y-83710000D01*
X171863065Y-83721540D01*
X171854605Y-83730000D01*
X171864913Y-83740308D01*
X171865601Y-83747289D01*
X171731235Y-83881655D01*
X171705518Y-83884188D01*
X171640900Y-83903790D01*
X171481253Y-83744143D01*
X171495395Y-83730000D01*
X171481253Y-83715858D01*
X171660858Y-83536253D01*
X171675000Y-83550395D01*
X171689143Y-83536253D01*
X171861938Y-83709048D01*
G37*
%TD.AperFunction*%
D28*
X182486928Y-70300000D02*
X182503992Y-70473254D01*
X182554528Y-70639850D01*
X182636595Y-70793386D01*
X182747038Y-70927962D01*
X182881614Y-71038405D01*
X183035150Y-71120472D01*
X183201746Y-71171008D01*
X183375000Y-71188072D01*
X184440010Y-71188072D01*
X184440010Y-71711928D01*
X183375000Y-71711928D01*
X183201746Y-71728992D01*
X183035150Y-71779528D01*
X182881614Y-71861595D01*
X182747038Y-71972038D01*
X182636595Y-72106614D01*
X182554528Y-72260150D01*
X182503992Y-72426746D01*
X182490941Y-72559257D01*
X181640296Y-73409902D01*
X181611293Y-73433705D01*
X181556165Y-73500880D01*
X181516320Y-73549430D01*
X181448927Y-73675512D01*
X181445748Y-73681460D01*
X181402291Y-73824721D01*
X181391294Y-73936374D01*
X181391294Y-73936384D01*
X181387618Y-73973706D01*
X181391294Y-74011029D01*
X181391295Y-77489991D01*
X177470482Y-77489991D01*
X177433159Y-77486315D01*
X177395836Y-77489991D01*
X177395827Y-77489991D01*
X177284174Y-77500988D01*
X177144322Y-77543411D01*
X177140913Y-77544445D01*
X177008883Y-77615017D01*
X176925243Y-77683659D01*
X176893159Y-77709990D01*
X176869361Y-77738988D01*
X175379941Y-79228409D01*
X175317803Y-79228409D01*
X175117844Y-79268183D01*
X174929486Y-79346204D01*
X174759968Y-79459472D01*
X174615805Y-79603635D01*
X174502537Y-79773153D01*
X174472696Y-79845194D01*
X174392795Y-79613912D01*
X174299814Y-79439956D01*
X174035413Y-79344192D01*
X173079605Y-80300000D01*
X173093748Y-80314143D01*
X172914143Y-80493748D01*
X172900000Y-80479605D01*
X172885858Y-80493748D01*
X172706253Y-80314143D01*
X172720395Y-80300000D01*
X171764587Y-79344192D01*
X171500186Y-79439956D01*
X171359296Y-79729571D01*
X171277616Y-80041108D01*
X171260000Y-80334028D01*
X171260000Y-79164587D01*
X171944192Y-79164587D01*
X172900000Y-80120395D01*
X173855808Y-79164587D01*
X173760044Y-78900186D01*
X173470429Y-78759296D01*
X173158892Y-78677616D01*
X172837405Y-78658282D01*
X172518325Y-78702039D01*
X172213912Y-78807205D01*
X172039956Y-78900186D01*
X171944192Y-79164587D01*
X171260000Y-79164587D01*
X171260000Y-75314801D01*
X171381656Y-75193145D01*
X171327832Y-75323088D01*
X171265000Y-75638967D01*
X171265000Y-75961033D01*
X171327832Y-76276912D01*
X171451082Y-76574463D01*
X171630013Y-76842252D01*
X171857748Y-77069987D01*
X172125537Y-77248918D01*
X172423088Y-77372168D01*
X172738967Y-77435000D01*
X173061033Y-77435000D01*
X173376912Y-77372168D01*
X173674463Y-77248918D01*
X173942252Y-77069987D01*
X174169987Y-76842252D01*
X174348918Y-76574463D01*
X174472168Y-76276912D01*
X174535000Y-75961033D01*
X174535000Y-75638967D01*
X177765000Y-75638967D01*
X177765000Y-75961033D01*
X177827832Y-76276912D01*
X177951082Y-76574463D01*
X178130013Y-76842252D01*
X178357748Y-77069987D01*
X178625537Y-77248918D01*
X178923088Y-77372168D01*
X179238967Y-77435000D01*
X179561033Y-77435000D01*
X179876912Y-77372168D01*
X180174463Y-77248918D01*
X180442252Y-77069987D01*
X180669987Y-76842252D01*
X180848918Y-76574463D01*
X180972168Y-76276912D01*
X181035000Y-75961033D01*
X181035000Y-75638967D01*
X180972168Y-75323088D01*
X180848918Y-75025537D01*
X180669987Y-74757748D01*
X180442252Y-74530013D01*
X180174463Y-74351082D01*
X179876912Y-74227832D01*
X179561033Y-74165000D01*
X179238967Y-74165000D01*
X178923088Y-74227832D01*
X178625537Y-74351082D01*
X178357748Y-74530013D01*
X178130013Y-74757748D01*
X177951082Y-75025537D01*
X177827832Y-75323088D01*
X177765000Y-75638967D01*
X174535000Y-75638967D01*
X174472168Y-75323088D01*
X174348918Y-75025537D01*
X174169987Y-74757748D01*
X173942252Y-74530013D01*
X173674463Y-74351082D01*
X173630231Y-74332760D01*
X174259446Y-73703546D01*
X174288443Y-73679749D01*
X174383416Y-73564024D01*
X174453988Y-73431995D01*
X174497445Y-73288734D01*
X174508442Y-73177081D01*
X174508442Y-73177080D01*
X174512119Y-73139748D01*
X174508442Y-73102415D01*
X174508442Y-72583243D01*
X175436201Y-73511003D01*
X175459999Y-73540001D01*
X175488997Y-73563799D01*
X175575724Y-73634974D01*
X175707753Y-73705546D01*
X175851014Y-73749003D01*
X176000000Y-73763677D01*
X176037333Y-73760000D01*
X178562678Y-73760000D01*
X178600000Y-73763676D01*
X178637322Y-73760000D01*
X178637333Y-73760000D01*
X178748986Y-73749003D01*
X178892247Y-73705546D01*
X179024276Y-73634974D01*
X179140001Y-73540001D01*
X179144105Y-73535000D01*
X179201939Y-73535000D01*
X179401898Y-73495226D01*
X179590256Y-73417205D01*
X179759774Y-73303937D01*
X179903937Y-73159774D01*
X180017205Y-72990256D01*
X180095226Y-72801898D01*
X180135000Y-72601939D01*
X180135000Y-72398061D01*
X180112511Y-72285000D01*
X180202002Y-72285000D01*
X180202002Y-72253252D01*
X180233750Y-72285000D01*
X180337371Y-72273109D01*
X180456294Y-72234337D01*
X180565367Y-72173109D01*
X180660400Y-72091777D01*
X180737740Y-71993469D01*
X180794415Y-71881962D01*
X180806885Y-71837576D01*
X180850518Y-71850812D01*
X180975000Y-71863072D01*
X181175000Y-71863072D01*
X181299482Y-71850812D01*
X181419180Y-71814502D01*
X181529494Y-71755537D01*
X181626185Y-71676185D01*
X181705537Y-71579494D01*
X181764502Y-71469180D01*
X181800812Y-71349482D01*
X181813072Y-71225000D01*
X181813072Y-71025000D01*
X181800812Y-70900518D01*
X181787576Y-70856885D01*
X181831962Y-70844415D01*
X181943469Y-70787740D01*
X182041777Y-70710400D01*
X182123109Y-70615367D01*
X182184337Y-70506294D01*
X182223109Y-70387371D01*
X182235000Y-70283750D01*
X182078518Y-70127268D01*
X182099277Y-70101973D01*
X182235000Y-69966250D01*
X182225676Y-69885000D01*
X182486928Y-69885000D01*
X182486928Y-70300000D01*
%TA.AperFunction,Conductor*%
D29*
G36*
X182486928Y-70300000D02*
G01*
X182503992Y-70473254D01*
X182554528Y-70639850D01*
X182636595Y-70793386D01*
X182747038Y-70927962D01*
X182881614Y-71038405D01*
X183035150Y-71120472D01*
X183201746Y-71171008D01*
X183375000Y-71188072D01*
X184440010Y-71188072D01*
X184440010Y-71711928D01*
X183375000Y-71711928D01*
X183201746Y-71728992D01*
X183035150Y-71779528D01*
X182881614Y-71861595D01*
X182747038Y-71972038D01*
X182636595Y-72106614D01*
X182554528Y-72260150D01*
X182503992Y-72426746D01*
X182490941Y-72559257D01*
X181640296Y-73409902D01*
X181611293Y-73433705D01*
X181556165Y-73500880D01*
X181516320Y-73549430D01*
X181448927Y-73675512D01*
X181445748Y-73681460D01*
X181402291Y-73824721D01*
X181391294Y-73936374D01*
X181391294Y-73936384D01*
X181387618Y-73973706D01*
X181391294Y-74011029D01*
X181391295Y-77489991D01*
X177470482Y-77489991D01*
X177433159Y-77486315D01*
X177395836Y-77489991D01*
X177395827Y-77489991D01*
X177284174Y-77500988D01*
X177144322Y-77543411D01*
X177140913Y-77544445D01*
X177008883Y-77615017D01*
X176925243Y-77683659D01*
X176893159Y-77709990D01*
X176869361Y-77738988D01*
X175379941Y-79228409D01*
X175317803Y-79228409D01*
X175117844Y-79268183D01*
X174929486Y-79346204D01*
X174759968Y-79459472D01*
X174615805Y-79603635D01*
X174502537Y-79773153D01*
X174472696Y-79845194D01*
X174392795Y-79613912D01*
X174299814Y-79439956D01*
X174035413Y-79344192D01*
X173079605Y-80300000D01*
X173093748Y-80314143D01*
X172914143Y-80493748D01*
X172900000Y-80479605D01*
X172885858Y-80493748D01*
X172706253Y-80314143D01*
X172720395Y-80300000D01*
X171764587Y-79344192D01*
X171500186Y-79439956D01*
X171359296Y-79729571D01*
X171277616Y-80041108D01*
X171260000Y-80334028D01*
X171260000Y-79164587D01*
X171944192Y-79164587D01*
X172900000Y-80120395D01*
X173855808Y-79164587D01*
X173760044Y-78900186D01*
X173470429Y-78759296D01*
X173158892Y-78677616D01*
X172837405Y-78658282D01*
X172518325Y-78702039D01*
X172213912Y-78807205D01*
X172039956Y-78900186D01*
X171944192Y-79164587D01*
X171260000Y-79164587D01*
X171260000Y-75314801D01*
X171381656Y-75193145D01*
X171327832Y-75323088D01*
X171265000Y-75638967D01*
X171265000Y-75961033D01*
X171327832Y-76276912D01*
X171451082Y-76574463D01*
X171630013Y-76842252D01*
X171857748Y-77069987D01*
X172125537Y-77248918D01*
X172423088Y-77372168D01*
X172738967Y-77435000D01*
X173061033Y-77435000D01*
X173376912Y-77372168D01*
X173674463Y-77248918D01*
X173942252Y-77069987D01*
X174169987Y-76842252D01*
X174348918Y-76574463D01*
X174472168Y-76276912D01*
X174535000Y-75961033D01*
X174535000Y-75638967D01*
X177765000Y-75638967D01*
X177765000Y-75961033D01*
X177827832Y-76276912D01*
X177951082Y-76574463D01*
X178130013Y-76842252D01*
X178357748Y-77069987D01*
X178625537Y-77248918D01*
X178923088Y-77372168D01*
X179238967Y-77435000D01*
X179561033Y-77435000D01*
X179876912Y-77372168D01*
X180174463Y-77248918D01*
X180442252Y-77069987D01*
X180669987Y-76842252D01*
X180848918Y-76574463D01*
X180972168Y-76276912D01*
X181035000Y-75961033D01*
X181035000Y-75638967D01*
X180972168Y-75323088D01*
X180848918Y-75025537D01*
X180669987Y-74757748D01*
X180442252Y-74530013D01*
X180174463Y-74351082D01*
X179876912Y-74227832D01*
X179561033Y-74165000D01*
X179238967Y-74165000D01*
X178923088Y-74227832D01*
X178625537Y-74351082D01*
X178357748Y-74530013D01*
X178130013Y-74757748D01*
X177951082Y-75025537D01*
X177827832Y-75323088D01*
X177765000Y-75638967D01*
X174535000Y-75638967D01*
X174472168Y-75323088D01*
X174348918Y-75025537D01*
X174169987Y-74757748D01*
X173942252Y-74530013D01*
X173674463Y-74351082D01*
X173630231Y-74332760D01*
X174259446Y-73703546D01*
X174288443Y-73679749D01*
X174383416Y-73564024D01*
X174453988Y-73431995D01*
X174497445Y-73288734D01*
X174508442Y-73177081D01*
X174508442Y-73177080D01*
X174512119Y-73139748D01*
X174508442Y-73102415D01*
X174508442Y-72583243D01*
X175436201Y-73511003D01*
X175459999Y-73540001D01*
X175488997Y-73563799D01*
X175575724Y-73634974D01*
X175707753Y-73705546D01*
X175851014Y-73749003D01*
X176000000Y-73763677D01*
X176037333Y-73760000D01*
X178562678Y-73760000D01*
X178600000Y-73763676D01*
X178637322Y-73760000D01*
X178637333Y-73760000D01*
X178748986Y-73749003D01*
X178892247Y-73705546D01*
X179024276Y-73634974D01*
X179140001Y-73540001D01*
X179144105Y-73535000D01*
X179201939Y-73535000D01*
X179401898Y-73495226D01*
X179590256Y-73417205D01*
X179759774Y-73303937D01*
X179903937Y-73159774D01*
X180017205Y-72990256D01*
X180095226Y-72801898D01*
X180135000Y-72601939D01*
X180135000Y-72398061D01*
X180112511Y-72285000D01*
X180202002Y-72285000D01*
X180202002Y-72253252D01*
X180233750Y-72285000D01*
X180337371Y-72273109D01*
X180456294Y-72234337D01*
X180565367Y-72173109D01*
X180660400Y-72091777D01*
X180737740Y-71993469D01*
X180794415Y-71881962D01*
X180806885Y-71837576D01*
X180850518Y-71850812D01*
X180975000Y-71863072D01*
X181175000Y-71863072D01*
X181299482Y-71850812D01*
X181419180Y-71814502D01*
X181529494Y-71755537D01*
X181626185Y-71676185D01*
X181705537Y-71579494D01*
X181764502Y-71469180D01*
X181800812Y-71349482D01*
X181813072Y-71225000D01*
X181813072Y-71025000D01*
X181800812Y-70900518D01*
X181787576Y-70856885D01*
X181831962Y-70844415D01*
X181943469Y-70787740D01*
X182041777Y-70710400D01*
X182123109Y-70615367D01*
X182184337Y-70506294D01*
X182223109Y-70387371D01*
X182235000Y-70283750D01*
X182078518Y-70127268D01*
X182099277Y-70101973D01*
X182235000Y-69966250D01*
X182225676Y-69885000D01*
X182486928Y-69885000D01*
X182486928Y-70300000D01*
G37*
%TD.AperFunction*%
D28*
X180200000Y-71277000D02*
X179950000Y-71277000D01*
X179950000Y-71023000D01*
X180200000Y-71023000D01*
X180200000Y-71277000D01*
%TA.AperFunction,Conductor*%
D29*
G36*
X180200000Y-71277000D02*
G01*
X179950000Y-71277000D01*
X179950000Y-71023000D01*
X180200000Y-71023000D01*
X180200000Y-71277000D01*
G37*
%TD.AperFunction*%
D28*
X179222000Y-69064110D02*
X179222000Y-69185890D01*
X179135890Y-69272000D01*
X179014110Y-69272000D01*
X178928000Y-69185890D01*
X178928000Y-69064110D01*
X179014110Y-68978000D01*
X179135890Y-68978000D01*
X179222000Y-69064110D01*
%TA.AperFunction,Conductor*%
D29*
G36*
X179222000Y-69064110D02*
G01*
X179222000Y-69185890D01*
X179135890Y-69272000D01*
X179014110Y-69272000D01*
X178928000Y-69185890D01*
X178928000Y-69064110D01*
X179014110Y-68978000D01*
X179135890Y-68978000D01*
X179222000Y-69064110D01*
G37*
%TD.AperFunction*%
D28*
X173558617Y-60298933D02*
X173515000Y-60518212D01*
X173515000Y-60741788D01*
X173558617Y-60961067D01*
X173644176Y-61167624D01*
X173742650Y-61315000D01*
X173644176Y-61462376D01*
X173558617Y-61668933D01*
X173515000Y-61888212D01*
X173515000Y-62075774D01*
X173469591Y-62160727D01*
X173444455Y-62207753D01*
X173400998Y-62351014D01*
X173390001Y-62462667D01*
X173390001Y-62462677D01*
X173386325Y-62499999D01*
X173390001Y-62537322D01*
X173390002Y-66220586D01*
X173015750Y-66223000D01*
X172857000Y-66381750D01*
X172857000Y-67493000D01*
X172877000Y-67493000D01*
X172877000Y-67747000D01*
X172857000Y-67747000D01*
X172857000Y-67767000D01*
X172603000Y-67767000D01*
X172603000Y-67747000D01*
X171491750Y-67747000D01*
X171333000Y-67905750D01*
X171331062Y-68206260D01*
X171260000Y-68135199D01*
X171260000Y-66858000D01*
X171329928Y-66858000D01*
X171333000Y-67334250D01*
X171491750Y-67493000D01*
X172603000Y-67493000D01*
X172603000Y-66381750D01*
X172444250Y-66223000D01*
X171968000Y-66219928D01*
X171843518Y-66232188D01*
X171723820Y-66268498D01*
X171613506Y-66327463D01*
X171516815Y-66406815D01*
X171437463Y-66503506D01*
X171378498Y-66613820D01*
X171342188Y-66733518D01*
X171329928Y-66858000D01*
X171260000Y-66858000D01*
X171260000Y-63763072D01*
X171900000Y-63763072D01*
X172073254Y-63746008D01*
X172239850Y-63695472D01*
X172393386Y-63613405D01*
X172527962Y-63502962D01*
X172638405Y-63368386D01*
X172720472Y-63214850D01*
X172771008Y-63048254D01*
X172788072Y-62875000D01*
X172788072Y-62050000D01*
X172771008Y-61876746D01*
X172720472Y-61710150D01*
X172638405Y-61556614D01*
X172591943Y-61500000D01*
X172638405Y-61443386D01*
X172720472Y-61289850D01*
X172771008Y-61123254D01*
X172788072Y-60950000D01*
X172788072Y-60286730D01*
X172814802Y-60260000D01*
X173574744Y-60260000D01*
X173558617Y-60298933D01*
%TA.AperFunction,Conductor*%
D29*
G36*
X173558617Y-60298933D02*
G01*
X173515000Y-60518212D01*
X173515000Y-60741788D01*
X173558617Y-60961067D01*
X173644176Y-61167624D01*
X173742650Y-61315000D01*
X173644176Y-61462376D01*
X173558617Y-61668933D01*
X173515000Y-61888212D01*
X173515000Y-62075774D01*
X173469591Y-62160727D01*
X173444455Y-62207753D01*
X173400998Y-62351014D01*
X173390001Y-62462667D01*
X173390001Y-62462677D01*
X173386325Y-62499999D01*
X173390001Y-62537322D01*
X173390002Y-66220586D01*
X173015750Y-66223000D01*
X172857000Y-66381750D01*
X172857000Y-67493000D01*
X172877000Y-67493000D01*
X172877000Y-67747000D01*
X172857000Y-67747000D01*
X172857000Y-67767000D01*
X172603000Y-67767000D01*
X172603000Y-67747000D01*
X171491750Y-67747000D01*
X171333000Y-67905750D01*
X171331062Y-68206260D01*
X171260000Y-68135199D01*
X171260000Y-66858000D01*
X171329928Y-66858000D01*
X171333000Y-67334250D01*
X171491750Y-67493000D01*
X172603000Y-67493000D01*
X172603000Y-66381750D01*
X172444250Y-66223000D01*
X171968000Y-66219928D01*
X171843518Y-66232188D01*
X171723820Y-66268498D01*
X171613506Y-66327463D01*
X171516815Y-66406815D01*
X171437463Y-66503506D01*
X171378498Y-66613820D01*
X171342188Y-66733518D01*
X171329928Y-66858000D01*
X171260000Y-66858000D01*
X171260000Y-63763072D01*
X171900000Y-63763072D01*
X172073254Y-63746008D01*
X172239850Y-63695472D01*
X172393386Y-63613405D01*
X172527962Y-63502962D01*
X172638405Y-63368386D01*
X172720472Y-63214850D01*
X172771008Y-63048254D01*
X172788072Y-62875000D01*
X172788072Y-62050000D01*
X172771008Y-61876746D01*
X172720472Y-61710150D01*
X172638405Y-61556614D01*
X172591943Y-61500000D01*
X172638405Y-61443386D01*
X172720472Y-61289850D01*
X172771008Y-61123254D01*
X172788072Y-60950000D01*
X172788072Y-60286730D01*
X172814802Y-60260000D01*
X173574744Y-60260000D01*
X173558617Y-60298933D01*
G37*
%TD.AperFunction*%
D28*
X180602500Y-64514250D02*
X180761250Y-64673000D01*
X181773000Y-64673000D01*
X181773000Y-64653000D01*
X182027000Y-64653000D01*
X182027000Y-64673000D01*
X182047000Y-64673000D01*
X182047000Y-64927000D01*
X182027000Y-64927000D01*
X182027000Y-66176250D01*
X182185750Y-66335000D01*
X182562500Y-66338072D01*
X182686982Y-66325812D01*
X182806680Y-66289502D01*
X182916994Y-66230537D01*
X183013685Y-66151185D01*
X183038145Y-66121380D01*
X183201746Y-66171008D01*
X183375000Y-66188072D01*
X184213270Y-66188072D01*
X184440011Y-66414814D01*
X184440011Y-66711928D01*
X183375000Y-66711928D01*
X183201746Y-66728992D01*
X183035150Y-66779528D01*
X182881614Y-66861595D01*
X182747038Y-66972038D01*
X182636595Y-67106614D01*
X182554528Y-67260150D01*
X182503992Y-67426746D01*
X182486928Y-67600000D01*
X182486928Y-67865000D01*
X182206160Y-67865000D01*
X182184744Y-67794403D01*
X182120004Y-67673283D01*
X182032879Y-67567121D01*
X181926717Y-67479996D01*
X181805597Y-67415256D01*
X181782944Y-67408384D01*
X181800812Y-67349482D01*
X181813072Y-67225000D01*
X181813072Y-67025000D01*
X181800812Y-66900518D01*
X181764502Y-66780820D01*
X181705537Y-66670506D01*
X181626185Y-66573815D01*
X181529494Y-66494463D01*
X181419180Y-66435498D01*
X181299482Y-66399188D01*
X181175000Y-66386928D01*
X180975000Y-66386928D01*
X180850518Y-66399188D01*
X180835000Y-66403895D01*
X180835000Y-66191140D01*
X180883006Y-66230537D01*
X180993320Y-66289502D01*
X181113018Y-66325812D01*
X181237500Y-66338072D01*
X181614250Y-66335000D01*
X181773000Y-66176250D01*
X181773000Y-64927000D01*
X180761250Y-64927000D01*
X180602500Y-65085750D01*
X180600189Y-65547843D01*
X180586003Y-65536201D01*
X180075572Y-65025770D01*
X180075572Y-64334990D01*
X180601603Y-64334990D01*
X180602500Y-64514250D01*
%TA.AperFunction,Conductor*%
D29*
G36*
X180602500Y-64514250D02*
G01*
X180761250Y-64673000D01*
X181773000Y-64673000D01*
X181773000Y-64653000D01*
X182027000Y-64653000D01*
X182027000Y-64673000D01*
X182047000Y-64673000D01*
X182047000Y-64927000D01*
X182027000Y-64927000D01*
X182027000Y-66176250D01*
X182185750Y-66335000D01*
X182562500Y-66338072D01*
X182686982Y-66325812D01*
X182806680Y-66289502D01*
X182916994Y-66230537D01*
X183013685Y-66151185D01*
X183038145Y-66121380D01*
X183201746Y-66171008D01*
X183375000Y-66188072D01*
X184213270Y-66188072D01*
X184440011Y-66414814D01*
X184440011Y-66711928D01*
X183375000Y-66711928D01*
X183201746Y-66728992D01*
X183035150Y-66779528D01*
X182881614Y-66861595D01*
X182747038Y-66972038D01*
X182636595Y-67106614D01*
X182554528Y-67260150D01*
X182503992Y-67426746D01*
X182486928Y-67600000D01*
X182486928Y-67865000D01*
X182206160Y-67865000D01*
X182184744Y-67794403D01*
X182120004Y-67673283D01*
X182032879Y-67567121D01*
X181926717Y-67479996D01*
X181805597Y-67415256D01*
X181782944Y-67408384D01*
X181800812Y-67349482D01*
X181813072Y-67225000D01*
X181813072Y-67025000D01*
X181800812Y-66900518D01*
X181764502Y-66780820D01*
X181705537Y-66670506D01*
X181626185Y-66573815D01*
X181529494Y-66494463D01*
X181419180Y-66435498D01*
X181299482Y-66399188D01*
X181175000Y-66386928D01*
X180975000Y-66386928D01*
X180850518Y-66399188D01*
X180835000Y-66403895D01*
X180835000Y-66191140D01*
X180883006Y-66230537D01*
X180993320Y-66289502D01*
X181113018Y-66325812D01*
X181237500Y-66338072D01*
X181614250Y-66335000D01*
X181773000Y-66176250D01*
X181773000Y-64927000D01*
X180761250Y-64927000D01*
X180602500Y-65085750D01*
X180600189Y-65547843D01*
X180586003Y-65536201D01*
X180075572Y-65025770D01*
X180075572Y-64334990D01*
X180601603Y-64334990D01*
X180602500Y-64514250D01*
G37*
%TD.AperFunction*%
D28*
X181127000Y-60503000D02*
X181147000Y-60503000D01*
X181147000Y-60757000D01*
X181127000Y-60757000D01*
X181127000Y-61873000D01*
X181147000Y-61873000D01*
X181147000Y-62127000D01*
X181127000Y-62127000D01*
X181127000Y-62147000D01*
X180873000Y-62147000D01*
X180873000Y-62127000D01*
X180861974Y-62127000D01*
X180865000Y-62111788D01*
X180865000Y-61888212D01*
X180861974Y-61873000D01*
X180873000Y-61873000D01*
X180873000Y-60757000D01*
X180861974Y-60757000D01*
X180865000Y-60741788D01*
X180865000Y-60518212D01*
X180861974Y-60503000D01*
X180873000Y-60503000D01*
X180873000Y-60483000D01*
X181127000Y-60483000D01*
X181127000Y-60503000D01*
%TA.AperFunction,Conductor*%
D29*
G36*
X181127000Y-60503000D02*
G01*
X181147000Y-60503000D01*
X181147000Y-60757000D01*
X181127000Y-60757000D01*
X181127000Y-61873000D01*
X181147000Y-61873000D01*
X181147000Y-62127000D01*
X181127000Y-62127000D01*
X181127000Y-62147000D01*
X180873000Y-62147000D01*
X180873000Y-62127000D01*
X180861974Y-62127000D01*
X180865000Y-62111788D01*
X180865000Y-61888212D01*
X180861974Y-61873000D01*
X180873000Y-61873000D01*
X180873000Y-60757000D01*
X180861974Y-60757000D01*
X180865000Y-60741788D01*
X180865000Y-60518212D01*
X180861974Y-60503000D01*
X180873000Y-60503000D01*
X180873000Y-60483000D01*
X181127000Y-60483000D01*
X181127000Y-60503000D01*
G37*
%TD.AperFunction*%
%TD*%
M02*
