%TF.GenerationSoftware,KiCad,Pcbnew,(5.1.9-0-10_14)*%
%TF.CreationDate,2021-04-19T12:18:48+01:00*%
%TF.ProjectId,Shelly,5368656c-6c79-42e6-9b69-6361645f7063,rev?*%
%TF.SameCoordinates,Original*%
%TF.FileFunction,Copper,L2,Bot*%
%TF.FilePolarity,Positive*%
%FSLAX46Y46*%
G04 Gerber Fmt 4.6, Leading zero omitted, Abs format (unit mm)*
G04 Created by KiCad (PCBNEW (5.1.9-0-10_14)) date 2021-04-19 12:18:48*
%MOMM*%
%LPD*%
G01*
G04 APERTURE LIST*
%TA.AperFunction,ComponentPad*%
%ADD10C,1.700000*%
%TD*%
%TA.AperFunction,ComponentPad*%
%ADD11C,2.000000*%
%TD*%
%TA.AperFunction,ComponentPad*%
%ADD12C,0.600000*%
%TD*%
%TA.AperFunction,ComponentPad*%
%ADD13C,1.524000*%
%TD*%
%TA.AperFunction,ComponentPad*%
%ADD14O,1.000000X1.000000*%
%TD*%
%TA.AperFunction,ComponentPad*%
%ADD15R,1.000000X1.000000*%
%TD*%
%TA.AperFunction,ComponentPad*%
%ADD16O,1.700000X1.700000*%
%TD*%
%TA.AperFunction,ComponentPad*%
%ADD17R,1.700000X1.700000*%
%TD*%
%TA.AperFunction,SMDPad,CuDef*%
%ADD18C,1.700000*%
%TD*%
%TA.AperFunction,ComponentPad*%
%ADD19R,1.524000X1.524000*%
%TD*%
%TA.AperFunction,ViaPad*%
%ADD20C,0.800000*%
%TD*%
%TA.AperFunction,Conductor*%
%ADD21C,0.250000*%
%TD*%
%TA.AperFunction,Conductor*%
%ADD22C,0.254000*%
%TD*%
%TA.AperFunction,Conductor*%
%ADD23C,0.100000*%
%TD*%
G04 APERTURE END LIST*
D10*
%TO.P,J4,S1*%
%TO.N,GND*%
X180325000Y-86910000D03*
X171675000Y-86910000D03*
D11*
X180325000Y-82730000D03*
X171675000Y-82730000D03*
D12*
X178890000Y-83210000D03*
X173110000Y-83210000D03*
%TD*%
%TO.P,R1,2*%
%TO.N,GND*%
%TA.AperFunction,SMDPad,CuDef*%
G36*
G01*
X174375000Y-86850000D02*
X175625000Y-86850000D01*
G75*
G02*
X175875000Y-87100000I0J-250000D01*
G01*
X175875000Y-87900000D01*
G75*
G02*
X175625000Y-88150000I-250000J0D01*
G01*
X174375000Y-88150000D01*
G75*
G02*
X174125000Y-87900000I0J250000D01*
G01*
X174125000Y-87100000D01*
G75*
G02*
X174375000Y-86850000I250000J0D01*
G01*
G37*
%TD.AperFunction*%
%TO.P,R1,1*%
%TO.N,Net-(J4-PadA5)*%
%TA.AperFunction,SMDPad,CuDef*%
G36*
G01*
X174375000Y-83750000D02*
X175625000Y-83750000D01*
G75*
G02*
X175875000Y-84000000I0J-250000D01*
G01*
X175875000Y-84800000D01*
G75*
G02*
X175625000Y-85050000I-250000J0D01*
G01*
X174375000Y-85050000D01*
G75*
G02*
X174125000Y-84800000I0J250000D01*
G01*
X174125000Y-84000000D01*
G75*
G02*
X174375000Y-83750000I250000J0D01*
G01*
G37*
%TD.AperFunction*%
%TD*%
D13*
%TO.P,U1,21*%
%TO.N,GND*%
X179075000Y-69125000D03*
%TD*%
D14*
%TO.P,J3,6*%
%TO.N,TXD*%
X174650000Y-62000000D03*
%TO.P,J3,5*%
%TO.N,RXD*%
X175920000Y-62000000D03*
%TO.P,J3,4*%
%TO.N,+3V3*%
X177190000Y-62000000D03*
%TO.P,J3,3*%
%TO.N,RST*%
X178460000Y-62000000D03*
%TO.P,J3,2*%
%TO.N,GPIO0*%
X179730000Y-62000000D03*
D15*
%TO.P,J3,1*%
%TO.N,GND*%
X181000000Y-62000000D03*
%TD*%
D14*
%TO.P,J2,6*%
%TO.N,TXD*%
X174650000Y-60630000D03*
%TO.P,J2,5*%
%TO.N,RXD*%
X175920000Y-60630000D03*
%TO.P,J2,4*%
%TO.N,+3V3*%
X177190000Y-60630000D03*
%TO.P,J2,3*%
%TO.N,RST*%
X178460000Y-60630000D03*
%TO.P,J2,2*%
%TO.N,GPIO0*%
X179730000Y-60630000D03*
D15*
%TO.P,J2,1*%
%TO.N,GND*%
X181000000Y-60630000D03*
%TD*%
D16*
%TO.P,J1,5*%
%TO.N,TXD*%
X184000000Y-76840000D03*
%TO.P,J1,4*%
%TO.N,RXD*%
X184000000Y-79380000D03*
%TO.P,J1,3*%
%TO.N,+3V3*%
X184000000Y-81920000D03*
%TO.P,J1,2*%
%TO.N,GPIO0*%
X184000000Y-84460000D03*
D17*
%TO.P,J1,1*%
%TO.N,GND*%
X184000000Y-87000000D03*
%TD*%
%TO.P,R2,2*%
%TO.N,Net-(J4-PadB5)*%
%TA.AperFunction,SMDPad,CuDef*%
G36*
G01*
X178625000Y-85050000D02*
X177375000Y-85050000D01*
G75*
G02*
X177125000Y-84800000I0J250000D01*
G01*
X177125000Y-84000000D01*
G75*
G02*
X177375000Y-83750000I250000J0D01*
G01*
X178625000Y-83750000D01*
G75*
G02*
X178875000Y-84000000I0J-250000D01*
G01*
X178875000Y-84800000D01*
G75*
G02*
X178625000Y-85050000I-250000J0D01*
G01*
G37*
%TD.AperFunction*%
%TO.P,R2,1*%
%TO.N,GND*%
%TA.AperFunction,SMDPad,CuDef*%
G36*
G01*
X178625000Y-88150000D02*
X177375000Y-88150000D01*
G75*
G02*
X177125000Y-87900000I0J250000D01*
G01*
X177125000Y-87100000D01*
G75*
G02*
X177375000Y-86850000I250000J0D01*
G01*
X178625000Y-86850000D01*
G75*
G02*
X178875000Y-87100000I0J-250000D01*
G01*
X178875000Y-87900000D01*
G75*
G02*
X178625000Y-88150000I-250000J0D01*
G01*
G37*
%TD.AperFunction*%
%TD*%
D18*
%TO.P,M1,1*%
%TO.N,SHDN*%
X172730000Y-72700000D03*
%TO.P,M1,4*%
%TO.N,+3V3*%
X172730000Y-65080000D03*
D19*
%TO.P,M1,3*%
%TO.N,GND*%
X172730000Y-67620000D03*
D18*
%TO.P,M1,2*%
%TO.N,VBUS*%
X172730000Y-70160000D03*
%TD*%
D20*
%TO.N,GND*%
X172000000Y-76000000D03*
X181880769Y-64800000D03*
%TO.N,VBUS*%
X177424320Y-65769746D03*
X173748442Y-71276878D03*
%TO.N,RXD*%
X175925010Y-68023022D03*
X175900000Y-64200000D03*
%TO.N,+3V3*%
X179100000Y-72500000D03*
%TO.N,GPIO0*%
X175500561Y-66374119D03*
%TO.N,TXD*%
X177715426Y-72140745D03*
%TO.N,RST*%
X182000000Y-71000000D03*
%TO.N,Net-(C1-Pad1)*%
X175925984Y-70300000D03*
X178800160Y-64825160D03*
%TO.N,Net-(J4-PadA7)*%
X176800000Y-80200000D03*
X174944906Y-80143496D03*
%TO.N,Net-(J4-PadA6)*%
X175419742Y-79263409D03*
X177667839Y-79375010D03*
%TO.N,Net-(J4-PadA5)*%
X174325010Y-80928195D03*
%TO.N,Net-(J4-PadB5)*%
X178600000Y-80714998D03*
%TO.N,SHDN*%
X174000000Y-74949998D03*
%TD*%
D21*
%TO.N,GND*%
X181000000Y-62000000D02*
X181000000Y-60630000D01*
X171254999Y-62803999D02*
X171254999Y-67454999D01*
X174253999Y-59804999D02*
X171254999Y-62803999D01*
X180174999Y-59804999D02*
X174253999Y-59804999D01*
X181000000Y-60630000D02*
X180174999Y-59804999D01*
X171420000Y-67620000D02*
X172730000Y-67620000D01*
X171254999Y-67454999D02*
X171420000Y-67620000D01*
%TO.N,VBUS*%
X174199978Y-66601698D02*
X175152559Y-65649117D01*
X174199978Y-68690022D02*
X174199978Y-66601698D01*
X172730000Y-70160000D02*
X174199978Y-68690022D01*
X175152559Y-65649117D02*
X177303691Y-65649117D01*
X177303691Y-65649117D02*
X177424320Y-65769746D01*
X172730000Y-70160000D02*
X173748442Y-71178442D01*
X173748442Y-71178442D02*
X173748442Y-71276878D01*
%TO.N,RXD*%
X175920000Y-62000000D02*
X175920000Y-60630000D01*
X177099978Y-73799978D02*
X176650994Y-73350994D01*
X176650994Y-73350994D02*
X176650994Y-68749006D01*
X180236389Y-73799978D02*
X177099978Y-73799978D01*
X182350011Y-75913600D02*
X180236389Y-73799978D01*
X176650994Y-68749006D02*
X175925010Y-68023022D01*
X175900000Y-62020000D02*
X175920000Y-62000000D01*
X175900000Y-64200000D02*
X175900000Y-62020000D01*
X182350011Y-75826421D02*
X182350010Y-75826420D01*
X182350011Y-76929013D02*
X182350011Y-75826421D01*
X184000000Y-78579002D02*
X182350011Y-76929013D01*
X184000000Y-79380000D02*
X184000000Y-78579002D01*
%TO.N,+3V3*%
X177190000Y-62000000D02*
X177190000Y-60630000D01*
X177190000Y-62000000D02*
X177190000Y-63990000D01*
X179100000Y-72500000D02*
X180600000Y-72500000D01*
X180600000Y-72500000D02*
X183764999Y-75664999D01*
X177190000Y-64510000D02*
X177110000Y-64590000D01*
X177190000Y-63990000D02*
X177190000Y-64510000D01*
X172730000Y-65080000D02*
X176100000Y-65080000D01*
X176100000Y-65080000D02*
X176590000Y-64590000D01*
X176590000Y-64590000D02*
X177110000Y-64590000D01*
X177110000Y-64590000D02*
X177710000Y-63990000D01*
X177710000Y-63990000D02*
X179290000Y-63990000D01*
X179525162Y-64225162D02*
X179525162Y-65378317D01*
X179290000Y-63990000D02*
X179525162Y-64225162D01*
X179525162Y-65378317D02*
X177300000Y-67603479D01*
X177300000Y-70700000D02*
X179100000Y-72500000D01*
X177300000Y-67603479D02*
X177300000Y-70700000D01*
X185175001Y-80744999D02*
X184000000Y-81920000D01*
X185175001Y-79744999D02*
X185175001Y-80744999D01*
X184664999Y-75664999D02*
X185175001Y-76175001D01*
X183764999Y-75664999D02*
X184664999Y-75664999D01*
X185175001Y-76175001D02*
X185175001Y-79744999D01*
%TO.N,GPIO0*%
X179730000Y-62000000D02*
X179730000Y-60630000D01*
X175149989Y-74249989D02*
X180049989Y-74249989D01*
X175500561Y-66374119D02*
X174649989Y-67224691D01*
X180049989Y-74249989D02*
X181900000Y-76100000D01*
X174649989Y-67224691D02*
X174649989Y-73749989D01*
X174649989Y-73749989D02*
X175149989Y-74249989D01*
X181900000Y-82360000D02*
X181900000Y-76100000D01*
X184000000Y-84460000D02*
X181900000Y-82360000D01*
%TO.N,TXD*%
X174650000Y-62000000D02*
X174650000Y-60630000D01*
X178799682Y-73225001D02*
X177715426Y-72140745D01*
X184000000Y-76840000D02*
X180385001Y-73225001D01*
X180385001Y-73225001D02*
X178799682Y-73225001D01*
%TO.N,RST*%
X178460000Y-62000000D02*
X178460000Y-60630000D01*
X179285001Y-62825001D02*
X178460000Y-62000000D01*
X181094082Y-62825001D02*
X179285001Y-62825001D01*
X182605779Y-70394221D02*
X182605779Y-64336698D01*
X182605779Y-64336698D02*
X181094082Y-62825001D01*
X182000000Y-71000000D02*
X182605779Y-70394221D01*
%TO.N,Net-(C1-Pad1)*%
X178800160Y-65466908D02*
X178800160Y-64825160D01*
X176969047Y-67298021D02*
X178800160Y-65466908D01*
X175100000Y-69474016D02*
X175100000Y-67775030D01*
X175100000Y-67775030D02*
X175577009Y-67298021D01*
X175577009Y-67298021D02*
X176969047Y-67298021D01*
X175925984Y-70300000D02*
X175100000Y-69474016D01*
%TO.N,Net-(J4-PadA7)*%
X176800000Y-80200000D02*
X175001410Y-80200000D01*
X175001410Y-80200000D02*
X174944906Y-80143496D01*
%TO.N,Net-(J4-PadA6)*%
X177556238Y-79263409D02*
X177667839Y-79375010D01*
X175419742Y-79263409D02*
X177556238Y-79263409D01*
%TO.N,Net-(J4-PadA5)*%
X175000000Y-84400000D02*
X175000000Y-81603185D01*
X175000000Y-81603185D02*
X174325010Y-80928195D01*
%TO.N,Net-(J4-PadB5)*%
X178200001Y-81114997D02*
X178200001Y-84199999D01*
X178200001Y-84199999D02*
X178000000Y-84400000D01*
X178600000Y-80714998D02*
X178200001Y-81114997D01*
%TO.N,SHDN*%
X174000000Y-73970000D02*
X172730000Y-72700000D01*
X174000000Y-74949998D02*
X174000000Y-73970000D01*
%TD*%
D22*
%TO.N,GND*%
X180518748Y-82715858D02*
X180504605Y-82730000D01*
X181460413Y-83685808D01*
X181724814Y-83590044D01*
X181832952Y-83367754D01*
X182558790Y-84093593D01*
X182515000Y-84313740D01*
X182515000Y-84606260D01*
X182572068Y-84893158D01*
X182684010Y-85163411D01*
X182846525Y-85406632D01*
X182978380Y-85538487D01*
X182905820Y-85560498D01*
X182795506Y-85619463D01*
X182698815Y-85698815D01*
X182619463Y-85795506D01*
X182560498Y-85905820D01*
X182524188Y-86025518D01*
X182511928Y-86150000D01*
X182515000Y-86714250D01*
X182673750Y-86873000D01*
X183873000Y-86873000D01*
X183873000Y-86853000D01*
X184127000Y-86853000D01*
X184127000Y-86873000D01*
X184147000Y-86873000D01*
X184147000Y-87127000D01*
X184127000Y-87127000D01*
X184127000Y-87147000D01*
X183873000Y-87147000D01*
X183873000Y-87127000D01*
X182673750Y-87127000D01*
X182515000Y-87285750D01*
X182511928Y-87850000D01*
X182524188Y-87974482D01*
X182560498Y-88094180D01*
X182619463Y-88204494D01*
X182698815Y-88301185D01*
X182715649Y-88315000D01*
X180806089Y-88315000D01*
X180958747Y-88260919D01*
X181096157Y-88187472D01*
X181173792Y-87938397D01*
X180325000Y-87089605D01*
X180310858Y-87103748D01*
X180131253Y-86924143D01*
X180145395Y-86910000D01*
X180504605Y-86910000D01*
X181353397Y-87758792D01*
X181602472Y-87681157D01*
X181728371Y-87417117D01*
X181800339Y-87133589D01*
X181815611Y-86841469D01*
X181773599Y-86551981D01*
X181675919Y-86276253D01*
X181602472Y-86138843D01*
X181353397Y-86061208D01*
X180504605Y-86910000D01*
X180145395Y-86910000D01*
X179296603Y-86061208D01*
X179047528Y-86138843D01*
X179005905Y-86226136D01*
X178999482Y-86224188D01*
X178875000Y-86211928D01*
X178285750Y-86215000D01*
X178127000Y-86373750D01*
X178127000Y-87373000D01*
X178147000Y-87373000D01*
X178147000Y-87627000D01*
X178127000Y-87627000D01*
X178127000Y-87647000D01*
X177873000Y-87647000D01*
X177873000Y-87627000D01*
X176648750Y-87627000D01*
X176500000Y-87775750D01*
X176351250Y-87627000D01*
X175127000Y-87627000D01*
X175127000Y-87647000D01*
X174873000Y-87647000D01*
X174873000Y-87627000D01*
X173648750Y-87627000D01*
X173490000Y-87785750D01*
X173486928Y-88150000D01*
X173499188Y-88274482D01*
X173511479Y-88315000D01*
X172156089Y-88315000D01*
X172308747Y-88260919D01*
X172446157Y-88187472D01*
X172523792Y-87938397D01*
X171675000Y-87089605D01*
X171660858Y-87103748D01*
X171481253Y-86924143D01*
X171495395Y-86910000D01*
X171854605Y-86910000D01*
X172703397Y-87758792D01*
X172952472Y-87681157D01*
X173078371Y-87417117D01*
X173150339Y-87133589D01*
X173165165Y-86850000D01*
X173486928Y-86850000D01*
X173490000Y-87214250D01*
X173648750Y-87373000D01*
X174873000Y-87373000D01*
X174873000Y-86373750D01*
X175127000Y-86373750D01*
X175127000Y-87373000D01*
X176351250Y-87373000D01*
X176500000Y-87224250D01*
X176648750Y-87373000D01*
X177873000Y-87373000D01*
X177873000Y-86373750D01*
X177714250Y-86215000D01*
X177125000Y-86211928D01*
X177000518Y-86224188D01*
X176880820Y-86260498D01*
X176770506Y-86319463D01*
X176673815Y-86398815D01*
X176594463Y-86495506D01*
X176535498Y-86605820D01*
X176500000Y-86722841D01*
X176464502Y-86605820D01*
X176405537Y-86495506D01*
X176326185Y-86398815D01*
X176229494Y-86319463D01*
X176119180Y-86260498D01*
X175999482Y-86224188D01*
X175875000Y-86211928D01*
X175285750Y-86215000D01*
X175127000Y-86373750D01*
X174873000Y-86373750D01*
X174714250Y-86215000D01*
X174125000Y-86211928D01*
X174000518Y-86224188D01*
X173880820Y-86260498D01*
X173770506Y-86319463D01*
X173673815Y-86398815D01*
X173594463Y-86495506D01*
X173535498Y-86605820D01*
X173499188Y-86725518D01*
X173486928Y-86850000D01*
X173165165Y-86850000D01*
X173165611Y-86841469D01*
X173123599Y-86551981D01*
X173025919Y-86276253D01*
X172952472Y-86138843D01*
X172703397Y-86061208D01*
X171854605Y-86910000D01*
X171495395Y-86910000D01*
X171481253Y-86895858D01*
X171660858Y-86716253D01*
X171675000Y-86730395D01*
X172523792Y-85881603D01*
X179476208Y-85881603D01*
X180325000Y-86730395D01*
X181173792Y-85881603D01*
X181096157Y-85632528D01*
X180832117Y-85506629D01*
X180548589Y-85434661D01*
X180256469Y-85419389D01*
X179966981Y-85461401D01*
X179691253Y-85559081D01*
X179553843Y-85632528D01*
X179476208Y-85881603D01*
X172523792Y-85881603D01*
X172446157Y-85632528D01*
X172182117Y-85506629D01*
X171898589Y-85434661D01*
X171606469Y-85419389D01*
X171316981Y-85461401D01*
X171041253Y-85559081D01*
X170903843Y-85632528D01*
X170826209Y-85881601D01*
X170710104Y-85765496D01*
X170685000Y-85790600D01*
X170685000Y-83899608D01*
X170719193Y-83865415D01*
X170814956Y-84129814D01*
X171104571Y-84270704D01*
X171416108Y-84352384D01*
X171737595Y-84371718D01*
X172056675Y-84327961D01*
X172361088Y-84222795D01*
X172535044Y-84129814D01*
X172628885Y-83870723D01*
X172632500Y-83867108D01*
X172657660Y-83892268D01*
X172665575Y-84037763D01*
X172835603Y-84108562D01*
X173016176Y-84144828D01*
X173200355Y-84145171D01*
X173381061Y-84109574D01*
X173486928Y-84065953D01*
X173486928Y-84800000D01*
X173503992Y-84973254D01*
X173554528Y-85139850D01*
X173636595Y-85293386D01*
X173747038Y-85427962D01*
X173881614Y-85538405D01*
X174035150Y-85620472D01*
X174201746Y-85671008D01*
X174375000Y-85688072D01*
X175625000Y-85688072D01*
X175798254Y-85671008D01*
X175964850Y-85620472D01*
X176118386Y-85538405D01*
X176252962Y-85427962D01*
X176363405Y-85293386D01*
X176445472Y-85139850D01*
X176496008Y-84973254D01*
X176500000Y-84932722D01*
X176503992Y-84973254D01*
X176554528Y-85139850D01*
X176636595Y-85293386D01*
X176747038Y-85427962D01*
X176881614Y-85538405D01*
X177035150Y-85620472D01*
X177201746Y-85671008D01*
X177375000Y-85688072D01*
X178625000Y-85688072D01*
X178798254Y-85671008D01*
X178964850Y-85620472D01*
X179118386Y-85538405D01*
X179252962Y-85427962D01*
X179363405Y-85293386D01*
X179445472Y-85139850D01*
X179496008Y-84973254D01*
X179513072Y-84800000D01*
X179513072Y-84153221D01*
X179754571Y-84270704D01*
X180066108Y-84352384D01*
X180387595Y-84371718D01*
X180706675Y-84327961D01*
X181011088Y-84222795D01*
X181185044Y-84129814D01*
X181280808Y-83865413D01*
X180325000Y-82909605D01*
X180310858Y-82923748D01*
X180131253Y-82744143D01*
X180145395Y-82730000D01*
X180131253Y-82715858D01*
X180310858Y-82536253D01*
X180325000Y-82550395D01*
X180339143Y-82536253D01*
X180518748Y-82715858D01*
%TA.AperFunction,Conductor*%
D23*
G36*
X180518748Y-82715858D02*
G01*
X180504605Y-82730000D01*
X181460413Y-83685808D01*
X181724814Y-83590044D01*
X181832952Y-83367754D01*
X182558790Y-84093593D01*
X182515000Y-84313740D01*
X182515000Y-84606260D01*
X182572068Y-84893158D01*
X182684010Y-85163411D01*
X182846525Y-85406632D01*
X182978380Y-85538487D01*
X182905820Y-85560498D01*
X182795506Y-85619463D01*
X182698815Y-85698815D01*
X182619463Y-85795506D01*
X182560498Y-85905820D01*
X182524188Y-86025518D01*
X182511928Y-86150000D01*
X182515000Y-86714250D01*
X182673750Y-86873000D01*
X183873000Y-86873000D01*
X183873000Y-86853000D01*
X184127000Y-86853000D01*
X184127000Y-86873000D01*
X184147000Y-86873000D01*
X184147000Y-87127000D01*
X184127000Y-87127000D01*
X184127000Y-87147000D01*
X183873000Y-87147000D01*
X183873000Y-87127000D01*
X182673750Y-87127000D01*
X182515000Y-87285750D01*
X182511928Y-87850000D01*
X182524188Y-87974482D01*
X182560498Y-88094180D01*
X182619463Y-88204494D01*
X182698815Y-88301185D01*
X182715649Y-88315000D01*
X180806089Y-88315000D01*
X180958747Y-88260919D01*
X181096157Y-88187472D01*
X181173792Y-87938397D01*
X180325000Y-87089605D01*
X180310858Y-87103748D01*
X180131253Y-86924143D01*
X180145395Y-86910000D01*
X180504605Y-86910000D01*
X181353397Y-87758792D01*
X181602472Y-87681157D01*
X181728371Y-87417117D01*
X181800339Y-87133589D01*
X181815611Y-86841469D01*
X181773599Y-86551981D01*
X181675919Y-86276253D01*
X181602472Y-86138843D01*
X181353397Y-86061208D01*
X180504605Y-86910000D01*
X180145395Y-86910000D01*
X179296603Y-86061208D01*
X179047528Y-86138843D01*
X179005905Y-86226136D01*
X178999482Y-86224188D01*
X178875000Y-86211928D01*
X178285750Y-86215000D01*
X178127000Y-86373750D01*
X178127000Y-87373000D01*
X178147000Y-87373000D01*
X178147000Y-87627000D01*
X178127000Y-87627000D01*
X178127000Y-87647000D01*
X177873000Y-87647000D01*
X177873000Y-87627000D01*
X176648750Y-87627000D01*
X176500000Y-87775750D01*
X176351250Y-87627000D01*
X175127000Y-87627000D01*
X175127000Y-87647000D01*
X174873000Y-87647000D01*
X174873000Y-87627000D01*
X173648750Y-87627000D01*
X173490000Y-87785750D01*
X173486928Y-88150000D01*
X173499188Y-88274482D01*
X173511479Y-88315000D01*
X172156089Y-88315000D01*
X172308747Y-88260919D01*
X172446157Y-88187472D01*
X172523792Y-87938397D01*
X171675000Y-87089605D01*
X171660858Y-87103748D01*
X171481253Y-86924143D01*
X171495395Y-86910000D01*
X171854605Y-86910000D01*
X172703397Y-87758792D01*
X172952472Y-87681157D01*
X173078371Y-87417117D01*
X173150339Y-87133589D01*
X173165165Y-86850000D01*
X173486928Y-86850000D01*
X173490000Y-87214250D01*
X173648750Y-87373000D01*
X174873000Y-87373000D01*
X174873000Y-86373750D01*
X175127000Y-86373750D01*
X175127000Y-87373000D01*
X176351250Y-87373000D01*
X176500000Y-87224250D01*
X176648750Y-87373000D01*
X177873000Y-87373000D01*
X177873000Y-86373750D01*
X177714250Y-86215000D01*
X177125000Y-86211928D01*
X177000518Y-86224188D01*
X176880820Y-86260498D01*
X176770506Y-86319463D01*
X176673815Y-86398815D01*
X176594463Y-86495506D01*
X176535498Y-86605820D01*
X176500000Y-86722841D01*
X176464502Y-86605820D01*
X176405537Y-86495506D01*
X176326185Y-86398815D01*
X176229494Y-86319463D01*
X176119180Y-86260498D01*
X175999482Y-86224188D01*
X175875000Y-86211928D01*
X175285750Y-86215000D01*
X175127000Y-86373750D01*
X174873000Y-86373750D01*
X174714250Y-86215000D01*
X174125000Y-86211928D01*
X174000518Y-86224188D01*
X173880820Y-86260498D01*
X173770506Y-86319463D01*
X173673815Y-86398815D01*
X173594463Y-86495506D01*
X173535498Y-86605820D01*
X173499188Y-86725518D01*
X173486928Y-86850000D01*
X173165165Y-86850000D01*
X173165611Y-86841469D01*
X173123599Y-86551981D01*
X173025919Y-86276253D01*
X172952472Y-86138843D01*
X172703397Y-86061208D01*
X171854605Y-86910000D01*
X171495395Y-86910000D01*
X171481253Y-86895858D01*
X171660858Y-86716253D01*
X171675000Y-86730395D01*
X172523792Y-85881603D01*
X179476208Y-85881603D01*
X180325000Y-86730395D01*
X181173792Y-85881603D01*
X181096157Y-85632528D01*
X180832117Y-85506629D01*
X180548589Y-85434661D01*
X180256469Y-85419389D01*
X179966981Y-85461401D01*
X179691253Y-85559081D01*
X179553843Y-85632528D01*
X179476208Y-85881603D01*
X172523792Y-85881603D01*
X172446157Y-85632528D01*
X172182117Y-85506629D01*
X171898589Y-85434661D01*
X171606469Y-85419389D01*
X171316981Y-85461401D01*
X171041253Y-85559081D01*
X170903843Y-85632528D01*
X170826209Y-85881601D01*
X170710104Y-85765496D01*
X170685000Y-85790600D01*
X170685000Y-83899608D01*
X170719193Y-83865415D01*
X170814956Y-84129814D01*
X171104571Y-84270704D01*
X171416108Y-84352384D01*
X171737595Y-84371718D01*
X172056675Y-84327961D01*
X172361088Y-84222795D01*
X172535044Y-84129814D01*
X172628885Y-83870723D01*
X172632500Y-83867108D01*
X172657660Y-83892268D01*
X172665575Y-84037763D01*
X172835603Y-84108562D01*
X173016176Y-84144828D01*
X173200355Y-84145171D01*
X173381061Y-84109574D01*
X173486928Y-84065953D01*
X173486928Y-84800000D01*
X173503992Y-84973254D01*
X173554528Y-85139850D01*
X173636595Y-85293386D01*
X173747038Y-85427962D01*
X173881614Y-85538405D01*
X174035150Y-85620472D01*
X174201746Y-85671008D01*
X174375000Y-85688072D01*
X175625000Y-85688072D01*
X175798254Y-85671008D01*
X175964850Y-85620472D01*
X176118386Y-85538405D01*
X176252962Y-85427962D01*
X176363405Y-85293386D01*
X176445472Y-85139850D01*
X176496008Y-84973254D01*
X176500000Y-84932722D01*
X176503992Y-84973254D01*
X176554528Y-85139850D01*
X176636595Y-85293386D01*
X176747038Y-85427962D01*
X176881614Y-85538405D01*
X177035150Y-85620472D01*
X177201746Y-85671008D01*
X177375000Y-85688072D01*
X178625000Y-85688072D01*
X178798254Y-85671008D01*
X178964850Y-85620472D01*
X179118386Y-85538405D01*
X179252962Y-85427962D01*
X179363405Y-85293386D01*
X179445472Y-85139850D01*
X179496008Y-84973254D01*
X179513072Y-84800000D01*
X179513072Y-84153221D01*
X179754571Y-84270704D01*
X180066108Y-84352384D01*
X180387595Y-84371718D01*
X180706675Y-84327961D01*
X181011088Y-84222795D01*
X181185044Y-84129814D01*
X181280808Y-83865413D01*
X180325000Y-82909605D01*
X180310858Y-82923748D01*
X180131253Y-82744143D01*
X180145395Y-82730000D01*
X180131253Y-82715858D01*
X180310858Y-82536253D01*
X180325000Y-82550395D01*
X180339143Y-82536253D01*
X180518748Y-82715858D01*
G37*
%TD.AperFunction*%
D22*
X173926480Y-59748388D02*
X173768388Y-59906480D01*
X173644176Y-60092376D01*
X173558617Y-60298933D01*
X173515000Y-60518212D01*
X173515000Y-60741788D01*
X173558617Y-60961067D01*
X173644176Y-61167624D01*
X173742650Y-61315000D01*
X173644176Y-61462376D01*
X173558617Y-61668933D01*
X173515000Y-61888212D01*
X173515000Y-62111788D01*
X173558617Y-62331067D01*
X173644176Y-62537624D01*
X173768388Y-62723520D01*
X173926480Y-62881612D01*
X174112376Y-63005824D01*
X174318933Y-63091383D01*
X174538212Y-63135000D01*
X174761788Y-63135000D01*
X174981067Y-63091383D01*
X175140001Y-63025550D01*
X175140000Y-63496289D01*
X175096063Y-63540226D01*
X174982795Y-63709744D01*
X174904774Y-63898102D01*
X174865000Y-64098061D01*
X174865000Y-64301939D01*
X174868593Y-64320000D01*
X174008178Y-64320000D01*
X173883475Y-64133368D01*
X173676632Y-63926525D01*
X173433411Y-63764010D01*
X173163158Y-63652068D01*
X172876260Y-63595000D01*
X172583740Y-63595000D01*
X172296842Y-63652068D01*
X172026589Y-63764010D01*
X171783368Y-63926525D01*
X171576525Y-64133368D01*
X171414010Y-64376589D01*
X171302068Y-64646842D01*
X171245000Y-64933740D01*
X171245000Y-65226260D01*
X171302068Y-65513158D01*
X171414010Y-65783411D01*
X171576525Y-66026632D01*
X171783368Y-66233475D01*
X171800824Y-66245139D01*
X171723820Y-66268498D01*
X171613506Y-66327463D01*
X171516815Y-66406815D01*
X171437463Y-66503506D01*
X171378498Y-66613820D01*
X171342188Y-66733518D01*
X171329928Y-66858000D01*
X171333000Y-67334250D01*
X171491750Y-67493000D01*
X172603000Y-67493000D01*
X172603000Y-67473000D01*
X172857000Y-67473000D01*
X172857000Y-67493000D01*
X172877000Y-67493000D01*
X172877000Y-67747000D01*
X172857000Y-67747000D01*
X172857000Y-67767000D01*
X172603000Y-67767000D01*
X172603000Y-67747000D01*
X171491750Y-67747000D01*
X171333000Y-67905750D01*
X171329928Y-68382000D01*
X171342188Y-68506482D01*
X171378498Y-68626180D01*
X171437463Y-68736494D01*
X171516815Y-68833185D01*
X171613506Y-68912537D01*
X171723820Y-68971502D01*
X171800824Y-68994861D01*
X171783368Y-69006525D01*
X171576525Y-69213368D01*
X171414010Y-69456589D01*
X171302068Y-69726842D01*
X171245000Y-70013740D01*
X171245000Y-70306260D01*
X171302068Y-70593158D01*
X171414010Y-70863411D01*
X171576525Y-71106632D01*
X171783368Y-71313475D01*
X171957760Y-71430000D01*
X171783368Y-71546525D01*
X171576525Y-71753368D01*
X171414010Y-71996589D01*
X171302068Y-72266842D01*
X171245000Y-72553740D01*
X171245000Y-72846260D01*
X171302068Y-73133158D01*
X171414010Y-73403411D01*
X171576525Y-73646632D01*
X171783368Y-73853475D01*
X172026589Y-74015990D01*
X172296842Y-74127932D01*
X172583740Y-74185000D01*
X172876260Y-74185000D01*
X173096408Y-74141210D01*
X173220743Y-74265544D01*
X173196063Y-74290224D01*
X173082795Y-74459742D01*
X173004774Y-74648100D01*
X172965000Y-74848059D01*
X172965000Y-75051937D01*
X173004774Y-75251896D01*
X173082795Y-75440254D01*
X173196063Y-75609772D01*
X173340226Y-75753935D01*
X173509744Y-75867203D01*
X173698102Y-75945224D01*
X173898061Y-75984998D01*
X174101939Y-75984998D01*
X174301898Y-75945224D01*
X174490256Y-75867203D01*
X174659774Y-75753935D01*
X174803937Y-75609772D01*
X174917205Y-75440254D01*
X174995226Y-75251896D01*
X175035000Y-75051937D01*
X175035000Y-75002340D01*
X175112656Y-75009989D01*
X175112664Y-75009989D01*
X175149989Y-75013665D01*
X175187314Y-75009989D01*
X179735188Y-75009989D01*
X181140001Y-76414803D01*
X181140000Y-81308273D01*
X180895429Y-81189296D01*
X180583892Y-81107616D01*
X180262405Y-81088282D01*
X179943325Y-81132039D01*
X179638912Y-81237205D01*
X179464956Y-81330186D01*
X179369193Y-81594585D01*
X179276659Y-81502051D01*
X179403937Y-81374772D01*
X179517205Y-81205254D01*
X179595226Y-81016896D01*
X179635000Y-80816937D01*
X179635000Y-80613059D01*
X179595226Y-80413100D01*
X179517205Y-80224742D01*
X179403937Y-80055224D01*
X179259774Y-79911061D01*
X179090256Y-79797793D01*
X178901898Y-79719772D01*
X178701939Y-79679998D01*
X178661785Y-79679998D01*
X178663065Y-79676908D01*
X178702839Y-79476949D01*
X178702839Y-79273071D01*
X178663065Y-79073112D01*
X178585044Y-78884754D01*
X178471776Y-78715236D01*
X178327613Y-78571073D01*
X178158095Y-78457805D01*
X177969737Y-78379784D01*
X177769778Y-78340010D01*
X177565900Y-78340010D01*
X177365941Y-78379784D01*
X177177583Y-78457805D01*
X177109332Y-78503409D01*
X176123453Y-78503409D01*
X176079516Y-78459472D01*
X175909998Y-78346204D01*
X175721640Y-78268183D01*
X175521681Y-78228409D01*
X175317803Y-78228409D01*
X175117844Y-78268183D01*
X174929486Y-78346204D01*
X174759968Y-78459472D01*
X174615805Y-78603635D01*
X174502537Y-78773153D01*
X174424516Y-78961511D01*
X174384742Y-79161470D01*
X174384742Y-79273002D01*
X174285132Y-79339559D01*
X174140969Y-79483722D01*
X174027701Y-79653240D01*
X173949680Y-79841598D01*
X173923280Y-79974321D01*
X173834754Y-80010990D01*
X173665236Y-80124258D01*
X173521073Y-80268421D01*
X173407805Y-80437939D01*
X173329784Y-80626297D01*
X173290010Y-80826256D01*
X173290010Y-81030134D01*
X173329784Y-81230093D01*
X173407805Y-81418451D01*
X173521073Y-81587969D01*
X173665236Y-81732132D01*
X173834754Y-81845400D01*
X174023112Y-81923421D01*
X174223071Y-81963195D01*
X174240001Y-81963195D01*
X174240000Y-83125224D01*
X174201746Y-83128992D01*
X174045065Y-83176520D01*
X174045171Y-83119645D01*
X174009574Y-82938939D01*
X173939408Y-82768649D01*
X173937763Y-82765575D01*
X173744541Y-82755064D01*
X173289605Y-83210000D01*
X173303748Y-83224143D01*
X173204566Y-83323324D01*
X173215704Y-83300429D01*
X173297384Y-82988892D01*
X173306719Y-82833676D01*
X173564936Y-82575459D01*
X173554425Y-82382237D01*
X173384397Y-82311438D01*
X173250959Y-82284639D01*
X173167795Y-82043912D01*
X173074814Y-81869956D01*
X172810413Y-81774192D01*
X171854605Y-82730000D01*
X171868748Y-82744143D01*
X171689143Y-82923748D01*
X171675000Y-82909605D01*
X171660858Y-82923748D01*
X171481253Y-82744143D01*
X171495395Y-82730000D01*
X171481253Y-82715858D01*
X171660858Y-82536253D01*
X171675000Y-82550395D01*
X172630808Y-81594587D01*
X172535044Y-81330186D01*
X172245429Y-81189296D01*
X171933892Y-81107616D01*
X171612405Y-81088282D01*
X171293325Y-81132039D01*
X170988912Y-81237205D01*
X170814956Y-81330186D01*
X170719193Y-81594585D01*
X170685000Y-81560392D01*
X170685000Y-60033505D01*
X170694222Y-59939453D01*
X170711805Y-59881214D01*
X170740366Y-59827499D01*
X170778816Y-59780354D01*
X170825691Y-59741576D01*
X170879204Y-59712642D01*
X170937323Y-59694651D01*
X171029145Y-59685000D01*
X174021347Y-59685000D01*
X173926480Y-59748388D01*
%TA.AperFunction,Conductor*%
D23*
G36*
X173926480Y-59748388D02*
G01*
X173768388Y-59906480D01*
X173644176Y-60092376D01*
X173558617Y-60298933D01*
X173515000Y-60518212D01*
X173515000Y-60741788D01*
X173558617Y-60961067D01*
X173644176Y-61167624D01*
X173742650Y-61315000D01*
X173644176Y-61462376D01*
X173558617Y-61668933D01*
X173515000Y-61888212D01*
X173515000Y-62111788D01*
X173558617Y-62331067D01*
X173644176Y-62537624D01*
X173768388Y-62723520D01*
X173926480Y-62881612D01*
X174112376Y-63005824D01*
X174318933Y-63091383D01*
X174538212Y-63135000D01*
X174761788Y-63135000D01*
X174981067Y-63091383D01*
X175140001Y-63025550D01*
X175140000Y-63496289D01*
X175096063Y-63540226D01*
X174982795Y-63709744D01*
X174904774Y-63898102D01*
X174865000Y-64098061D01*
X174865000Y-64301939D01*
X174868593Y-64320000D01*
X174008178Y-64320000D01*
X173883475Y-64133368D01*
X173676632Y-63926525D01*
X173433411Y-63764010D01*
X173163158Y-63652068D01*
X172876260Y-63595000D01*
X172583740Y-63595000D01*
X172296842Y-63652068D01*
X172026589Y-63764010D01*
X171783368Y-63926525D01*
X171576525Y-64133368D01*
X171414010Y-64376589D01*
X171302068Y-64646842D01*
X171245000Y-64933740D01*
X171245000Y-65226260D01*
X171302068Y-65513158D01*
X171414010Y-65783411D01*
X171576525Y-66026632D01*
X171783368Y-66233475D01*
X171800824Y-66245139D01*
X171723820Y-66268498D01*
X171613506Y-66327463D01*
X171516815Y-66406815D01*
X171437463Y-66503506D01*
X171378498Y-66613820D01*
X171342188Y-66733518D01*
X171329928Y-66858000D01*
X171333000Y-67334250D01*
X171491750Y-67493000D01*
X172603000Y-67493000D01*
X172603000Y-67473000D01*
X172857000Y-67473000D01*
X172857000Y-67493000D01*
X172877000Y-67493000D01*
X172877000Y-67747000D01*
X172857000Y-67747000D01*
X172857000Y-67767000D01*
X172603000Y-67767000D01*
X172603000Y-67747000D01*
X171491750Y-67747000D01*
X171333000Y-67905750D01*
X171329928Y-68382000D01*
X171342188Y-68506482D01*
X171378498Y-68626180D01*
X171437463Y-68736494D01*
X171516815Y-68833185D01*
X171613506Y-68912537D01*
X171723820Y-68971502D01*
X171800824Y-68994861D01*
X171783368Y-69006525D01*
X171576525Y-69213368D01*
X171414010Y-69456589D01*
X171302068Y-69726842D01*
X171245000Y-70013740D01*
X171245000Y-70306260D01*
X171302068Y-70593158D01*
X171414010Y-70863411D01*
X171576525Y-71106632D01*
X171783368Y-71313475D01*
X171957760Y-71430000D01*
X171783368Y-71546525D01*
X171576525Y-71753368D01*
X171414010Y-71996589D01*
X171302068Y-72266842D01*
X171245000Y-72553740D01*
X171245000Y-72846260D01*
X171302068Y-73133158D01*
X171414010Y-73403411D01*
X171576525Y-73646632D01*
X171783368Y-73853475D01*
X172026589Y-74015990D01*
X172296842Y-74127932D01*
X172583740Y-74185000D01*
X172876260Y-74185000D01*
X173096408Y-74141210D01*
X173220743Y-74265544D01*
X173196063Y-74290224D01*
X173082795Y-74459742D01*
X173004774Y-74648100D01*
X172965000Y-74848059D01*
X172965000Y-75051937D01*
X173004774Y-75251896D01*
X173082795Y-75440254D01*
X173196063Y-75609772D01*
X173340226Y-75753935D01*
X173509744Y-75867203D01*
X173698102Y-75945224D01*
X173898061Y-75984998D01*
X174101939Y-75984998D01*
X174301898Y-75945224D01*
X174490256Y-75867203D01*
X174659774Y-75753935D01*
X174803937Y-75609772D01*
X174917205Y-75440254D01*
X174995226Y-75251896D01*
X175035000Y-75051937D01*
X175035000Y-75002340D01*
X175112656Y-75009989D01*
X175112664Y-75009989D01*
X175149989Y-75013665D01*
X175187314Y-75009989D01*
X179735188Y-75009989D01*
X181140001Y-76414803D01*
X181140000Y-81308273D01*
X180895429Y-81189296D01*
X180583892Y-81107616D01*
X180262405Y-81088282D01*
X179943325Y-81132039D01*
X179638912Y-81237205D01*
X179464956Y-81330186D01*
X179369193Y-81594585D01*
X179276659Y-81502051D01*
X179403937Y-81374772D01*
X179517205Y-81205254D01*
X179595226Y-81016896D01*
X179635000Y-80816937D01*
X179635000Y-80613059D01*
X179595226Y-80413100D01*
X179517205Y-80224742D01*
X179403937Y-80055224D01*
X179259774Y-79911061D01*
X179090256Y-79797793D01*
X178901898Y-79719772D01*
X178701939Y-79679998D01*
X178661785Y-79679998D01*
X178663065Y-79676908D01*
X178702839Y-79476949D01*
X178702839Y-79273071D01*
X178663065Y-79073112D01*
X178585044Y-78884754D01*
X178471776Y-78715236D01*
X178327613Y-78571073D01*
X178158095Y-78457805D01*
X177969737Y-78379784D01*
X177769778Y-78340010D01*
X177565900Y-78340010D01*
X177365941Y-78379784D01*
X177177583Y-78457805D01*
X177109332Y-78503409D01*
X176123453Y-78503409D01*
X176079516Y-78459472D01*
X175909998Y-78346204D01*
X175721640Y-78268183D01*
X175521681Y-78228409D01*
X175317803Y-78228409D01*
X175117844Y-78268183D01*
X174929486Y-78346204D01*
X174759968Y-78459472D01*
X174615805Y-78603635D01*
X174502537Y-78773153D01*
X174424516Y-78961511D01*
X174384742Y-79161470D01*
X174384742Y-79273002D01*
X174285132Y-79339559D01*
X174140969Y-79483722D01*
X174027701Y-79653240D01*
X173949680Y-79841598D01*
X173923280Y-79974321D01*
X173834754Y-80010990D01*
X173665236Y-80124258D01*
X173521073Y-80268421D01*
X173407805Y-80437939D01*
X173329784Y-80626297D01*
X173290010Y-80826256D01*
X173290010Y-81030134D01*
X173329784Y-81230093D01*
X173407805Y-81418451D01*
X173521073Y-81587969D01*
X173665236Y-81732132D01*
X173834754Y-81845400D01*
X174023112Y-81923421D01*
X174223071Y-81963195D01*
X174240001Y-81963195D01*
X174240000Y-83125224D01*
X174201746Y-83128992D01*
X174045065Y-83176520D01*
X174045171Y-83119645D01*
X174009574Y-82938939D01*
X173939408Y-82768649D01*
X173937763Y-82765575D01*
X173744541Y-82755064D01*
X173289605Y-83210000D01*
X173303748Y-83224143D01*
X173204566Y-83323324D01*
X173215704Y-83300429D01*
X173297384Y-82988892D01*
X173306719Y-82833676D01*
X173564936Y-82575459D01*
X173554425Y-82382237D01*
X173384397Y-82311438D01*
X173250959Y-82284639D01*
X173167795Y-82043912D01*
X173074814Y-81869956D01*
X172810413Y-81774192D01*
X171854605Y-82730000D01*
X171868748Y-82744143D01*
X171689143Y-82923748D01*
X171675000Y-82909605D01*
X171660858Y-82923748D01*
X171481253Y-82744143D01*
X171495395Y-82730000D01*
X171481253Y-82715858D01*
X171660858Y-82536253D01*
X171675000Y-82550395D01*
X172630808Y-81594587D01*
X172535044Y-81330186D01*
X172245429Y-81189296D01*
X171933892Y-81107616D01*
X171612405Y-81088282D01*
X171293325Y-81132039D01*
X170988912Y-81237205D01*
X170814956Y-81330186D01*
X170719193Y-81594585D01*
X170685000Y-81560392D01*
X170685000Y-60033505D01*
X170694222Y-59939453D01*
X170711805Y-59881214D01*
X170740366Y-59827499D01*
X170778816Y-59780354D01*
X170825691Y-59741576D01*
X170879204Y-59712642D01*
X170937323Y-59694651D01*
X171029145Y-59685000D01*
X174021347Y-59685000D01*
X173926480Y-59748388D01*
G37*
%TD.AperFunction*%
D22*
X185060547Y-59694222D02*
X185118786Y-59711805D01*
X185172501Y-59740366D01*
X185219646Y-59778816D01*
X185258424Y-59825691D01*
X185287358Y-59879204D01*
X185305349Y-59937323D01*
X185315000Y-60029145D01*
X185315001Y-75240200D01*
X185228803Y-75154002D01*
X185205000Y-75124998D01*
X185089275Y-75030025D01*
X184957246Y-74959453D01*
X184813985Y-74915996D01*
X184702332Y-74904999D01*
X184702321Y-74904999D01*
X184664999Y-74901323D01*
X184627677Y-74904999D01*
X184079801Y-74904999D01*
X181163804Y-71989003D01*
X181140001Y-71959999D01*
X181024276Y-71865026D01*
X180892247Y-71794454D01*
X180748986Y-71750997D01*
X180637333Y-71740000D01*
X180637322Y-71740000D01*
X180600000Y-71736324D01*
X180562678Y-71740000D01*
X179803711Y-71740000D01*
X179759774Y-71696063D01*
X179590256Y-71582795D01*
X179401898Y-71504774D01*
X179201939Y-71465000D01*
X179139802Y-71465000D01*
X178060000Y-70385199D01*
X178060000Y-70090565D01*
X178289040Y-70090565D01*
X178356020Y-70330656D01*
X178605048Y-70447756D01*
X178872135Y-70514023D01*
X179147017Y-70526910D01*
X179419133Y-70485922D01*
X179678023Y-70392636D01*
X179793980Y-70330656D01*
X179860960Y-70090565D01*
X179075000Y-69304605D01*
X178289040Y-70090565D01*
X178060000Y-70090565D01*
X178060000Y-69897169D01*
X178109435Y-69910960D01*
X178895395Y-69125000D01*
X179254605Y-69125000D01*
X180040565Y-69910960D01*
X180280656Y-69843980D01*
X180397756Y-69594952D01*
X180464023Y-69327865D01*
X180476910Y-69052983D01*
X180435922Y-68780867D01*
X180342636Y-68521977D01*
X180280656Y-68406020D01*
X180040565Y-68339040D01*
X179254605Y-69125000D01*
X178895395Y-69125000D01*
X178109435Y-68339040D01*
X178060000Y-68352831D01*
X178060000Y-68159435D01*
X178289040Y-68159435D01*
X179075000Y-68945395D01*
X179860960Y-68159435D01*
X179793980Y-67919344D01*
X179544952Y-67802244D01*
X179277865Y-67735977D01*
X179002983Y-67723090D01*
X178730867Y-67764078D01*
X178471977Y-67857364D01*
X178356020Y-67919344D01*
X178289040Y-68159435D01*
X178060000Y-68159435D01*
X178060000Y-67918280D01*
X180036165Y-65942116D01*
X180065163Y-65918318D01*
X180160136Y-65802593D01*
X180230708Y-65670564D01*
X180274165Y-65527303D01*
X180285162Y-65415650D01*
X180285162Y-65415641D01*
X180288838Y-65378318D01*
X180285162Y-65340995D01*
X180285162Y-64262484D01*
X180288838Y-64225161D01*
X180285162Y-64187838D01*
X180285162Y-64187829D01*
X180274165Y-64076176D01*
X180230708Y-63932915D01*
X180160136Y-63800886D01*
X180065163Y-63685161D01*
X180036160Y-63661359D01*
X179959802Y-63585001D01*
X180779281Y-63585001D01*
X181845780Y-64651502D01*
X181845779Y-69975399D01*
X181698102Y-70004774D01*
X181509744Y-70082795D01*
X181340226Y-70196063D01*
X181196063Y-70340226D01*
X181082795Y-70509744D01*
X181004774Y-70698102D01*
X180965000Y-70898061D01*
X180965000Y-71101939D01*
X181004774Y-71301898D01*
X181082795Y-71490256D01*
X181196063Y-71659774D01*
X181340226Y-71803937D01*
X181509744Y-71917205D01*
X181698102Y-71995226D01*
X181898061Y-72035000D01*
X182101939Y-72035000D01*
X182301898Y-71995226D01*
X182490256Y-71917205D01*
X182659774Y-71803937D01*
X182803937Y-71659774D01*
X182917205Y-71490256D01*
X182995226Y-71301898D01*
X183035000Y-71101939D01*
X183035000Y-71039802D01*
X183116783Y-70958019D01*
X183145780Y-70934222D01*
X183203893Y-70863411D01*
X183240753Y-70818498D01*
X183311325Y-70686468D01*
X183316016Y-70671002D01*
X183354782Y-70543207D01*
X183365779Y-70431554D01*
X183365779Y-70431544D01*
X183369455Y-70394221D01*
X183365779Y-70356898D01*
X183365779Y-64374020D01*
X183369455Y-64336697D01*
X183365779Y-64299374D01*
X183365779Y-64299365D01*
X183354782Y-64187712D01*
X183311325Y-64044451D01*
X183240753Y-63912422D01*
X183182151Y-63841015D01*
X183169578Y-63825694D01*
X183169574Y-63825690D01*
X183145780Y-63796697D01*
X183116787Y-63772903D01*
X182089001Y-62745118D01*
X182089502Y-62744180D01*
X182125812Y-62624482D01*
X182138072Y-62500000D01*
X182135000Y-62285750D01*
X181976250Y-62127000D01*
X181400444Y-62127000D01*
X181386329Y-62119455D01*
X181243068Y-62075998D01*
X181131415Y-62065001D01*
X181131404Y-62065001D01*
X181094082Y-62061325D01*
X181056760Y-62065001D01*
X180865000Y-62065001D01*
X180865000Y-61888212D01*
X180861974Y-61873000D01*
X180873000Y-61873000D01*
X180873000Y-60757000D01*
X181127000Y-60757000D01*
X181127000Y-61873000D01*
X181976250Y-61873000D01*
X182135000Y-61714250D01*
X182138072Y-61500000D01*
X182125812Y-61375518D01*
X182107454Y-61315000D01*
X182125812Y-61254482D01*
X182138072Y-61130000D01*
X182135000Y-60915750D01*
X181976250Y-60757000D01*
X181127000Y-60757000D01*
X180873000Y-60757000D01*
X180861974Y-60757000D01*
X180865000Y-60741788D01*
X180865000Y-60518212D01*
X180861974Y-60503000D01*
X180873000Y-60503000D01*
X180873000Y-60483000D01*
X181127000Y-60483000D01*
X181127000Y-60503000D01*
X181976250Y-60503000D01*
X182135000Y-60344250D01*
X182138072Y-60130000D01*
X182125812Y-60005518D01*
X182089502Y-59885820D01*
X182030537Y-59775506D01*
X181956261Y-59685000D01*
X184966495Y-59685000D01*
X185060547Y-59694222D01*
%TA.AperFunction,Conductor*%
D23*
G36*
X185060547Y-59694222D02*
G01*
X185118786Y-59711805D01*
X185172501Y-59740366D01*
X185219646Y-59778816D01*
X185258424Y-59825691D01*
X185287358Y-59879204D01*
X185305349Y-59937323D01*
X185315000Y-60029145D01*
X185315001Y-75240200D01*
X185228803Y-75154002D01*
X185205000Y-75124998D01*
X185089275Y-75030025D01*
X184957246Y-74959453D01*
X184813985Y-74915996D01*
X184702332Y-74904999D01*
X184702321Y-74904999D01*
X184664999Y-74901323D01*
X184627677Y-74904999D01*
X184079801Y-74904999D01*
X181163804Y-71989003D01*
X181140001Y-71959999D01*
X181024276Y-71865026D01*
X180892247Y-71794454D01*
X180748986Y-71750997D01*
X180637333Y-71740000D01*
X180637322Y-71740000D01*
X180600000Y-71736324D01*
X180562678Y-71740000D01*
X179803711Y-71740000D01*
X179759774Y-71696063D01*
X179590256Y-71582795D01*
X179401898Y-71504774D01*
X179201939Y-71465000D01*
X179139802Y-71465000D01*
X178060000Y-70385199D01*
X178060000Y-70090565D01*
X178289040Y-70090565D01*
X178356020Y-70330656D01*
X178605048Y-70447756D01*
X178872135Y-70514023D01*
X179147017Y-70526910D01*
X179419133Y-70485922D01*
X179678023Y-70392636D01*
X179793980Y-70330656D01*
X179860960Y-70090565D01*
X179075000Y-69304605D01*
X178289040Y-70090565D01*
X178060000Y-70090565D01*
X178060000Y-69897169D01*
X178109435Y-69910960D01*
X178895395Y-69125000D01*
X179254605Y-69125000D01*
X180040565Y-69910960D01*
X180280656Y-69843980D01*
X180397756Y-69594952D01*
X180464023Y-69327865D01*
X180476910Y-69052983D01*
X180435922Y-68780867D01*
X180342636Y-68521977D01*
X180280656Y-68406020D01*
X180040565Y-68339040D01*
X179254605Y-69125000D01*
X178895395Y-69125000D01*
X178109435Y-68339040D01*
X178060000Y-68352831D01*
X178060000Y-68159435D01*
X178289040Y-68159435D01*
X179075000Y-68945395D01*
X179860960Y-68159435D01*
X179793980Y-67919344D01*
X179544952Y-67802244D01*
X179277865Y-67735977D01*
X179002983Y-67723090D01*
X178730867Y-67764078D01*
X178471977Y-67857364D01*
X178356020Y-67919344D01*
X178289040Y-68159435D01*
X178060000Y-68159435D01*
X178060000Y-67918280D01*
X180036165Y-65942116D01*
X180065163Y-65918318D01*
X180160136Y-65802593D01*
X180230708Y-65670564D01*
X180274165Y-65527303D01*
X180285162Y-65415650D01*
X180285162Y-65415641D01*
X180288838Y-65378318D01*
X180285162Y-65340995D01*
X180285162Y-64262484D01*
X180288838Y-64225161D01*
X180285162Y-64187838D01*
X180285162Y-64187829D01*
X180274165Y-64076176D01*
X180230708Y-63932915D01*
X180160136Y-63800886D01*
X180065163Y-63685161D01*
X180036160Y-63661359D01*
X179959802Y-63585001D01*
X180779281Y-63585001D01*
X181845780Y-64651502D01*
X181845779Y-69975399D01*
X181698102Y-70004774D01*
X181509744Y-70082795D01*
X181340226Y-70196063D01*
X181196063Y-70340226D01*
X181082795Y-70509744D01*
X181004774Y-70698102D01*
X180965000Y-70898061D01*
X180965000Y-71101939D01*
X181004774Y-71301898D01*
X181082795Y-71490256D01*
X181196063Y-71659774D01*
X181340226Y-71803937D01*
X181509744Y-71917205D01*
X181698102Y-71995226D01*
X181898061Y-72035000D01*
X182101939Y-72035000D01*
X182301898Y-71995226D01*
X182490256Y-71917205D01*
X182659774Y-71803937D01*
X182803937Y-71659774D01*
X182917205Y-71490256D01*
X182995226Y-71301898D01*
X183035000Y-71101939D01*
X183035000Y-71039802D01*
X183116783Y-70958019D01*
X183145780Y-70934222D01*
X183203893Y-70863411D01*
X183240753Y-70818498D01*
X183311325Y-70686468D01*
X183316016Y-70671002D01*
X183354782Y-70543207D01*
X183365779Y-70431554D01*
X183365779Y-70431544D01*
X183369455Y-70394221D01*
X183365779Y-70356898D01*
X183365779Y-64374020D01*
X183369455Y-64336697D01*
X183365779Y-64299374D01*
X183365779Y-64299365D01*
X183354782Y-64187712D01*
X183311325Y-64044451D01*
X183240753Y-63912422D01*
X183182151Y-63841015D01*
X183169578Y-63825694D01*
X183169574Y-63825690D01*
X183145780Y-63796697D01*
X183116787Y-63772903D01*
X182089001Y-62745118D01*
X182089502Y-62744180D01*
X182125812Y-62624482D01*
X182138072Y-62500000D01*
X182135000Y-62285750D01*
X181976250Y-62127000D01*
X181400444Y-62127000D01*
X181386329Y-62119455D01*
X181243068Y-62075998D01*
X181131415Y-62065001D01*
X181131404Y-62065001D01*
X181094082Y-62061325D01*
X181056760Y-62065001D01*
X180865000Y-62065001D01*
X180865000Y-61888212D01*
X180861974Y-61873000D01*
X180873000Y-61873000D01*
X180873000Y-60757000D01*
X181127000Y-60757000D01*
X181127000Y-61873000D01*
X181976250Y-61873000D01*
X182135000Y-61714250D01*
X182138072Y-61500000D01*
X182125812Y-61375518D01*
X182107454Y-61315000D01*
X182125812Y-61254482D01*
X182138072Y-61130000D01*
X182135000Y-60915750D01*
X181976250Y-60757000D01*
X181127000Y-60757000D01*
X180873000Y-60757000D01*
X180861974Y-60757000D01*
X180865000Y-60741788D01*
X180865000Y-60518212D01*
X180861974Y-60503000D01*
X180873000Y-60503000D01*
X180873000Y-60483000D01*
X181127000Y-60483000D01*
X181127000Y-60503000D01*
X181976250Y-60503000D01*
X182135000Y-60344250D01*
X182138072Y-60130000D01*
X182125812Y-60005518D01*
X182089502Y-59885820D01*
X182030537Y-59775506D01*
X181956261Y-59685000D01*
X184966495Y-59685000D01*
X185060547Y-59694222D01*
G37*
%TD.AperFunction*%
%TD*%
M02*
