%TF.GenerationSoftware,KiCad,Pcbnew,(5.1.9-0-10_14)*%
%TF.CreationDate,2021-04-17T10:06:41+01:00*%
%TF.ProjectId,Shelly,5368656c-6c79-42e6-9b69-6361645f7063,rev?*%
%TF.SameCoordinates,Original*%
%TF.FileFunction,Copper,L2,Bot*%
%TF.FilePolarity,Positive*%
%FSLAX46Y46*%
G04 Gerber Fmt 4.6, Leading zero omitted, Abs format (unit mm)*
G04 Created by KiCad (PCBNEW (5.1.9-0-10_14)) date 2021-04-17 10:06:41*
%MOMM*%
%LPD*%
G01*
G04 APERTURE LIST*
%TA.AperFunction,ComponentPad*%
%ADD10O,1.000000X1.000000*%
%TD*%
%TA.AperFunction,ComponentPad*%
%ADD11R,1.000000X1.000000*%
%TD*%
%TA.AperFunction,ComponentPad*%
%ADD12O,1.700000X1.700000*%
%TD*%
%TA.AperFunction,ComponentPad*%
%ADD13R,1.700000X1.700000*%
%TD*%
%TA.AperFunction,ComponentPad*%
%ADD14C,2.000000*%
%TD*%
%TA.AperFunction,ComponentPad*%
%ADD15C,1.524000*%
%TD*%
%TA.AperFunction,SMDPad,CuDef*%
%ADD16C,1.700000*%
%TD*%
%TA.AperFunction,ComponentPad*%
%ADD17R,1.524000X1.524000*%
%TD*%
%TA.AperFunction,ComponentPad*%
%ADD18C,1.700000*%
%TD*%
%TA.AperFunction,ComponentPad*%
%ADD19C,0.600000*%
%TD*%
%TA.AperFunction,ViaPad*%
%ADD20C,0.800000*%
%TD*%
%TA.AperFunction,Conductor*%
%ADD21C,0.250000*%
%TD*%
%TA.AperFunction,Conductor*%
%ADD22C,0.254000*%
%TD*%
%TA.AperFunction,Conductor*%
%ADD23C,0.100000*%
%TD*%
G04 APERTURE END LIST*
D10*
%TO.P,J2,6*%
%TO.N,TXD*%
X174650000Y-62000000D03*
%TO.P,J2,5*%
%TO.N,RXD*%
X175920000Y-62000000D03*
%TO.P,J2,4*%
%TO.N,+3V3*%
X177190000Y-62000000D03*
%TO.P,J2,3*%
%TO.N,RST*%
X178460000Y-62000000D03*
%TO.P,J2,2*%
%TO.N,GPIO0*%
X179730000Y-62000000D03*
D11*
%TO.P,J2,1*%
%TO.N,GND*%
X181000000Y-62000000D03*
%TD*%
D10*
%TO.P,J4,6*%
%TO.N,TXD*%
X174650000Y-60630000D03*
%TO.P,J4,5*%
%TO.N,RXD*%
X175920000Y-60630000D03*
%TO.P,J4,4*%
%TO.N,+3V3*%
X177190000Y-60630000D03*
%TO.P,J4,3*%
%TO.N,RST*%
X178460000Y-60630000D03*
%TO.P,J4,2*%
%TO.N,GPIO0*%
X179730000Y-60630000D03*
D11*
%TO.P,J4,1*%
%TO.N,GND*%
X181000000Y-60630000D03*
%TD*%
D12*
%TO.P,J3,5*%
%TO.N,TXD*%
X184000000Y-76840000D03*
%TO.P,J3,4*%
%TO.N,RXD*%
X184000000Y-79380000D03*
%TO.P,J3,3*%
%TO.N,+3V3*%
X184000000Y-81920000D03*
%TO.P,J3,2*%
%TO.N,GPIO0*%
X184000000Y-84460000D03*
D13*
%TO.P,J3,1*%
%TO.N,GND*%
X184000000Y-87000000D03*
%TD*%
D14*
%TO.P,SW1,1*%
%TO.N,GND*%
X172960000Y-80290000D03*
%TO.P,SW1,2*%
%TO.N,GPIO0*%
X172960000Y-75790000D03*
%TO.P,SW1,1*%
%TO.N,GND*%
X179460000Y-80290000D03*
%TO.P,SW1,2*%
%TO.N,GPIO0*%
X179460000Y-75790000D03*
%TD*%
D15*
%TO.P,U1,17*%
%TO.N,GND*%
X178100000Y-68700000D03*
%TD*%
%TO.P,R2,2*%
%TO.N,Net-(J1-PadB5)*%
%TA.AperFunction,SMDPad,CuDef*%
G36*
G01*
X178625001Y-86050000D02*
X177374999Y-86050000D01*
G75*
G02*
X177125000Y-85800001I0J249999D01*
G01*
X177125000Y-84999999D01*
G75*
G02*
X177374999Y-84750000I249999J0D01*
G01*
X178625001Y-84750000D01*
G75*
G02*
X178875000Y-84999999I0J-249999D01*
G01*
X178875000Y-85800001D01*
G75*
G02*
X178625001Y-86050000I-249999J0D01*
G01*
G37*
%TD.AperFunction*%
%TO.P,R2,1*%
%TO.N,GND*%
%TA.AperFunction,SMDPad,CuDef*%
G36*
G01*
X178625001Y-89150000D02*
X177374999Y-89150000D01*
G75*
G02*
X177125000Y-88900001I0J249999D01*
G01*
X177125000Y-88099999D01*
G75*
G02*
X177374999Y-87850000I249999J0D01*
G01*
X178625001Y-87850000D01*
G75*
G02*
X178875000Y-88099999I0J-249999D01*
G01*
X178875000Y-88900001D01*
G75*
G02*
X178625001Y-89150000I-249999J0D01*
G01*
G37*
%TD.AperFunction*%
%TD*%
%TO.P,R1,2*%
%TO.N,GND*%
%TA.AperFunction,SMDPad,CuDef*%
G36*
G01*
X174374999Y-87850000D02*
X175625001Y-87850000D01*
G75*
G02*
X175875000Y-88099999I0J-249999D01*
G01*
X175875000Y-88900001D01*
G75*
G02*
X175625001Y-89150000I-249999J0D01*
G01*
X174374999Y-89150000D01*
G75*
G02*
X174125000Y-88900001I0J249999D01*
G01*
X174125000Y-88099999D01*
G75*
G02*
X174374999Y-87850000I249999J0D01*
G01*
G37*
%TD.AperFunction*%
%TO.P,R1,1*%
%TO.N,Net-(J1-PadA5)*%
%TA.AperFunction,SMDPad,CuDef*%
G36*
G01*
X174374999Y-84750000D02*
X175625001Y-84750000D01*
G75*
G02*
X175875000Y-84999999I0J-249999D01*
G01*
X175875000Y-85800001D01*
G75*
G02*
X175625001Y-86050000I-249999J0D01*
G01*
X174374999Y-86050000D01*
G75*
G02*
X174125000Y-85800001I0J249999D01*
G01*
X174125000Y-84999999D01*
G75*
G02*
X174374999Y-84750000I249999J0D01*
G01*
G37*
%TD.AperFunction*%
%TD*%
D16*
%TO.P,M1,1*%
%TO.N,Net-(M1-Pad1)*%
X172730000Y-72700000D03*
%TO.P,M1,4*%
%TO.N,+3V3*%
X172730000Y-65080000D03*
D17*
%TO.P,M1,3*%
%TO.N,GND*%
X172730000Y-67620000D03*
D16*
%TO.P,M1,2*%
%TO.N,VBUS*%
X172730000Y-70160000D03*
%TD*%
D18*
%TO.P,J1,S1*%
%TO.N,GND*%
X180695000Y-87910000D03*
X172045000Y-87910000D03*
D14*
X180695000Y-83730000D03*
X172045000Y-83730000D03*
D19*
X179260000Y-84210000D03*
X173480000Y-84210000D03*
%TD*%
D20*
%TO.N,VBUS*%
X173000000Y-81900000D03*
%TO.N,Net-(J1-PadA7)*%
X175588028Y-81307745D03*
X177038039Y-81450651D03*
%TO.N,Net-(J1-PadA6)*%
X177913558Y-80875007D03*
X176500000Y-80300000D03*
%TO.N,Net-(J1-PadA5)*%
X174758737Y-81866582D03*
%TO.N,Net-(J1-PadB5)*%
X178800000Y-81969998D03*
%TO.N,RXD*%
X175276854Y-66064218D03*
X175982559Y-63550013D03*
%TO.N,+3V3*%
X176359256Y-64999446D03*
X174930011Y-72091907D03*
%TO.N,TXD*%
X176956096Y-72816908D03*
%TD*%
D21*
%TO.N,GND*%
X171254999Y-66144999D02*
X172730000Y-67620000D01*
X171254999Y-62803999D02*
X171254999Y-66144999D01*
X174253999Y-59804999D02*
X171254999Y-62803999D01*
X180174999Y-59804999D02*
X174253999Y-59804999D01*
X181000000Y-60630000D02*
X180174999Y-59804999D01*
%TO.N,VBUS*%
X173000000Y-81900000D02*
X173700000Y-81900000D01*
X174285001Y-72574922D02*
X174205001Y-72494922D01*
X174285001Y-81314999D02*
X174285001Y-72574922D01*
X173700000Y-81900000D02*
X174285001Y-81314999D01*
X174205001Y-72494922D02*
X174205001Y-71992660D01*
X174205001Y-71992660D02*
X172730000Y-70517659D01*
X172730000Y-70517659D02*
X172730000Y-70160000D01*
%TO.N,Net-(J1-PadA7)*%
X176895133Y-81307745D02*
X177038039Y-81450651D01*
X175588028Y-81307745D02*
X176895133Y-81307745D01*
%TO.N,Net-(J1-PadA6)*%
X177360999Y-80322448D02*
X177913558Y-80875007D01*
X177338551Y-80300000D02*
X177360999Y-80322448D01*
X176500000Y-80300000D02*
X177338551Y-80300000D01*
%TO.N,Net-(J1-PadA5)*%
X175000000Y-85400000D02*
X175000000Y-82107845D01*
X175000000Y-82107845D02*
X174758737Y-81866582D01*
%TO.N,Net-(J1-PadB5)*%
X178000000Y-82769998D02*
X178000000Y-85400000D01*
X178800000Y-81969998D02*
X178000000Y-82769998D01*
%TO.N,RXD*%
X182797919Y-79380000D02*
X184000000Y-79380000D01*
X178823999Y-77115001D02*
X180532920Y-77115001D01*
X174699999Y-70788893D02*
X175655012Y-71743906D01*
X175276854Y-66523146D02*
X174699999Y-67100001D01*
X180532920Y-77115001D02*
X182797919Y-79380000D01*
X175276854Y-66064218D02*
X175276854Y-66523146D01*
X175655012Y-73946014D02*
X178823999Y-77115001D01*
X175655012Y-71743906D02*
X175655012Y-73946014D01*
X174699999Y-67100001D02*
X174699999Y-70788893D01*
X175920000Y-63487454D02*
X175982559Y-63550013D01*
X175920000Y-62000000D02*
X175920000Y-63487454D01*
%TO.N,+3V3*%
X172730000Y-65080000D02*
X175599316Y-65080000D01*
X175599316Y-65080000D02*
X176278702Y-65080000D01*
X177149989Y-62040011D02*
X177190000Y-62000000D01*
X176278702Y-65080000D02*
X176359256Y-64999446D01*
X177149989Y-63529327D02*
X177149989Y-62040011D01*
X174249989Y-71400577D02*
X174930011Y-72080599D01*
X174930011Y-73857424D02*
X174930011Y-72091907D01*
X174930011Y-72080599D02*
X174930011Y-72091907D01*
X172730000Y-65080000D02*
X174249989Y-66599989D01*
X179645012Y-77565012D02*
X178637599Y-77565012D01*
X178637599Y-77565012D02*
X174930011Y-73857424D01*
X184000000Y-81920000D02*
X179645012Y-77565012D01*
X174249989Y-66599989D02*
X174249989Y-71400577D01*
X177149989Y-64208713D02*
X176359256Y-64999446D01*
X177149989Y-63529327D02*
X177149989Y-64208713D01*
%TO.N,GPIO0*%
X183099214Y-78015001D02*
X180874213Y-75790000D01*
X184000000Y-84460000D02*
X185175001Y-83284999D01*
X184374003Y-78015001D02*
X183099214Y-78015001D01*
X180874213Y-75790000D02*
X179460000Y-75790000D01*
X185175001Y-78815999D02*
X184374003Y-78015001D01*
X185175001Y-83284999D02*
X185175001Y-78815999D01*
X177600000Y-64130000D02*
X179730000Y-62000000D01*
X176874998Y-65509006D02*
X177600000Y-64784004D01*
X177600000Y-64784004D02*
X177600000Y-64130000D01*
X176874998Y-65509006D02*
X176874998Y-65725002D01*
X176874998Y-65725002D02*
X175300000Y-67300000D01*
X175300000Y-67300000D02*
X175300000Y-70600000D01*
X175300000Y-70600000D02*
X176200000Y-71500000D01*
X176200000Y-71500000D02*
X176200000Y-73600000D01*
X178390000Y-75790000D02*
X179460000Y-75790000D01*
X176200000Y-73600000D02*
X178390000Y-75790000D01*
%TO.N,TXD*%
X184000000Y-76840000D02*
X182616996Y-76840000D01*
X179738498Y-73961502D02*
X177461502Y-73961502D01*
X182616996Y-76840000D02*
X179738498Y-73961502D01*
X176956096Y-73456096D02*
X176956096Y-72816908D01*
X177461502Y-73961502D02*
X176956096Y-73456096D01*
%TD*%
D22*
%TO.N,GND*%
X173926480Y-59748388D02*
X173768388Y-59906480D01*
X173644176Y-60092376D01*
X173558617Y-60298933D01*
X173515000Y-60518212D01*
X173515000Y-60741788D01*
X173558617Y-60961067D01*
X173644176Y-61167624D01*
X173742650Y-61315000D01*
X173644176Y-61462376D01*
X173558617Y-61668933D01*
X173515000Y-61888212D01*
X173515000Y-62111788D01*
X173558617Y-62331067D01*
X173644176Y-62537624D01*
X173768388Y-62723520D01*
X173926480Y-62881612D01*
X174112376Y-63005824D01*
X174318933Y-63091383D01*
X174538212Y-63135000D01*
X174761788Y-63135000D01*
X174981067Y-63091383D01*
X175068391Y-63055212D01*
X175065354Y-63059757D01*
X174987333Y-63248115D01*
X174947559Y-63448074D01*
X174947559Y-63651952D01*
X174987333Y-63851911D01*
X175065354Y-64040269D01*
X175178622Y-64209787D01*
X175288835Y-64320000D01*
X174008178Y-64320000D01*
X173883475Y-64133368D01*
X173676632Y-63926525D01*
X173433411Y-63764010D01*
X173163158Y-63652068D01*
X172876260Y-63595000D01*
X172583740Y-63595000D01*
X172296842Y-63652068D01*
X172026589Y-63764010D01*
X171783368Y-63926525D01*
X171576525Y-64133368D01*
X171414010Y-64376589D01*
X171302068Y-64646842D01*
X171245000Y-64933740D01*
X171245000Y-65226260D01*
X171302068Y-65513158D01*
X171414010Y-65783411D01*
X171576525Y-66026632D01*
X171783368Y-66233475D01*
X171800824Y-66245139D01*
X171723820Y-66268498D01*
X171613506Y-66327463D01*
X171516815Y-66406815D01*
X171437463Y-66503506D01*
X171378498Y-66613820D01*
X171342188Y-66733518D01*
X171329928Y-66858000D01*
X171333000Y-67334250D01*
X171491750Y-67493000D01*
X172603000Y-67493000D01*
X172603000Y-67473000D01*
X172857000Y-67473000D01*
X172857000Y-67493000D01*
X172877000Y-67493000D01*
X172877000Y-67747000D01*
X172857000Y-67747000D01*
X172857000Y-67767000D01*
X172603000Y-67767000D01*
X172603000Y-67747000D01*
X171491750Y-67747000D01*
X171333000Y-67905750D01*
X171329928Y-68382000D01*
X171342188Y-68506482D01*
X171378498Y-68626180D01*
X171437463Y-68736494D01*
X171516815Y-68833185D01*
X171613506Y-68912537D01*
X171723820Y-68971502D01*
X171800824Y-68994861D01*
X171783368Y-69006525D01*
X171576525Y-69213368D01*
X171414010Y-69456589D01*
X171302068Y-69726842D01*
X171245000Y-70013740D01*
X171245000Y-70306260D01*
X171302068Y-70593158D01*
X171414010Y-70863411D01*
X171576525Y-71106632D01*
X171783368Y-71313475D01*
X171957760Y-71430000D01*
X171783368Y-71546525D01*
X171576525Y-71753368D01*
X171414010Y-71996589D01*
X171302068Y-72266842D01*
X171245000Y-72553740D01*
X171245000Y-72846260D01*
X171302068Y-73133158D01*
X171414010Y-73403411D01*
X171576525Y-73646632D01*
X171783368Y-73853475D01*
X172026589Y-74015990D01*
X172296842Y-74127932D01*
X172583740Y-74185000D01*
X172648146Y-74185000D01*
X172483088Y-74217832D01*
X172185537Y-74341082D01*
X171917748Y-74520013D01*
X171690013Y-74747748D01*
X171511082Y-75015537D01*
X171387832Y-75313088D01*
X171325000Y-75628967D01*
X171325000Y-75951033D01*
X171387832Y-76266912D01*
X171511082Y-76564463D01*
X171690013Y-76832252D01*
X171917748Y-77059987D01*
X172185537Y-77238918D01*
X172483088Y-77362168D01*
X172798967Y-77425000D01*
X173121033Y-77425000D01*
X173436912Y-77362168D01*
X173525001Y-77325680D01*
X173525001Y-78747873D01*
X173218892Y-78667616D01*
X172897405Y-78648282D01*
X172578325Y-78692039D01*
X172273912Y-78797205D01*
X172099956Y-78890186D01*
X172004192Y-79154587D01*
X172960000Y-80110395D01*
X172974143Y-80096253D01*
X173153748Y-80275858D01*
X173139605Y-80290000D01*
X173153748Y-80304143D01*
X172974143Y-80483748D01*
X172960000Y-80469605D01*
X172004192Y-81425413D01*
X172037832Y-81518293D01*
X172004774Y-81598102D01*
X171965000Y-81798061D01*
X171965000Y-82001939D01*
X171982181Y-82088313D01*
X171663325Y-82132039D01*
X171358912Y-82237205D01*
X171184956Y-82330186D01*
X171089192Y-82594587D01*
X172045000Y-83550395D01*
X172059143Y-83536253D01*
X172238748Y-83715858D01*
X172224605Y-83730000D01*
X172238748Y-83744143D01*
X172059143Y-83923748D01*
X172045000Y-83909605D01*
X171089192Y-84865413D01*
X171184956Y-85129814D01*
X171474571Y-85270704D01*
X171786108Y-85352384D01*
X172107595Y-85371718D01*
X172426675Y-85327961D01*
X172731088Y-85222795D01*
X172905044Y-85129814D01*
X172998885Y-84870723D01*
X173002500Y-84867108D01*
X173027660Y-84892268D01*
X173035575Y-85037763D01*
X173205603Y-85108562D01*
X173386176Y-85144828D01*
X173486928Y-85145016D01*
X173486928Y-85800001D01*
X173503992Y-85973255D01*
X173554528Y-86139851D01*
X173636595Y-86293387D01*
X173747038Y-86427962D01*
X173881613Y-86538405D01*
X174035149Y-86620472D01*
X174201745Y-86671008D01*
X174374999Y-86688072D01*
X175625001Y-86688072D01*
X175798255Y-86671008D01*
X175964851Y-86620472D01*
X176118387Y-86538405D01*
X176252962Y-86427962D01*
X176363405Y-86293387D01*
X176445472Y-86139851D01*
X176496008Y-85973255D01*
X176500000Y-85932723D01*
X176503992Y-85973255D01*
X176554528Y-86139851D01*
X176636595Y-86293387D01*
X176747038Y-86427962D01*
X176881613Y-86538405D01*
X177035149Y-86620472D01*
X177201745Y-86671008D01*
X177374999Y-86688072D01*
X178625001Y-86688072D01*
X178798255Y-86671008D01*
X178964851Y-86620472D01*
X179118387Y-86538405D01*
X179252962Y-86427962D01*
X179363405Y-86293387D01*
X179445472Y-86139851D01*
X179496008Y-85973255D01*
X179513072Y-85800001D01*
X179513072Y-85113118D01*
X179531061Y-85109574D01*
X179701351Y-85039408D01*
X179704425Y-85037763D01*
X179712340Y-84892268D01*
X179737500Y-84867108D01*
X179741115Y-84870723D01*
X179834956Y-85129814D01*
X180124571Y-85270704D01*
X180436108Y-85352384D01*
X180757595Y-85371718D01*
X181076675Y-85327961D01*
X181381088Y-85222795D01*
X181555044Y-85129814D01*
X181650808Y-84865413D01*
X180695000Y-83909605D01*
X180680858Y-83923748D01*
X180501253Y-83744143D01*
X180515395Y-83730000D01*
X180874605Y-83730000D01*
X181830413Y-84685808D01*
X182094814Y-84590044D01*
X182235704Y-84300429D01*
X182317384Y-83988892D01*
X182336718Y-83667405D01*
X182292961Y-83348325D01*
X182187795Y-83043912D01*
X182094814Y-82869956D01*
X181830413Y-82774192D01*
X180874605Y-83730000D01*
X180515395Y-83730000D01*
X180501253Y-83715858D01*
X180680858Y-83536253D01*
X180695000Y-83550395D01*
X181650808Y-82594587D01*
X181555044Y-82330186D01*
X181265429Y-82189296D01*
X180953892Y-82107616D01*
X180632405Y-82088282D01*
X180313325Y-82132039D01*
X180008912Y-82237205D01*
X179834956Y-82330186D01*
X179739193Y-82594585D01*
X179672207Y-82527599D01*
X179717205Y-82460254D01*
X179795226Y-82271896D01*
X179835000Y-82071937D01*
X179835000Y-81888876D01*
X179841675Y-81887961D01*
X180146088Y-81782795D01*
X180320044Y-81689814D01*
X180415808Y-81425413D01*
X179460000Y-80469605D01*
X179445858Y-80483748D01*
X179266253Y-80304143D01*
X179280395Y-80290000D01*
X178324587Y-79334192D01*
X178060186Y-79429956D01*
X177919296Y-79719571D01*
X177901398Y-79787837D01*
X177878552Y-79759999D01*
X177762827Y-79665026D01*
X177630798Y-79594454D01*
X177487537Y-79550997D01*
X177375884Y-79540000D01*
X177375873Y-79540000D01*
X177338551Y-79536324D01*
X177301229Y-79540000D01*
X177203711Y-79540000D01*
X177159774Y-79496063D01*
X176990256Y-79382795D01*
X176801898Y-79304774D01*
X176601939Y-79265000D01*
X176398061Y-79265000D01*
X176198102Y-79304774D01*
X176009744Y-79382795D01*
X175840226Y-79496063D01*
X175696063Y-79640226D01*
X175582795Y-79809744D01*
X175504774Y-79998102D01*
X175465000Y-80198061D01*
X175465000Y-80276940D01*
X175286130Y-80312519D01*
X175097772Y-80390540D01*
X175045001Y-80425800D01*
X175045001Y-75047215D01*
X178073799Y-78076014D01*
X178097598Y-78105013D01*
X178213323Y-78199986D01*
X178345352Y-78270558D01*
X178488613Y-78314015D01*
X178600266Y-78325012D01*
X178600275Y-78325012D01*
X178637598Y-78328688D01*
X178674921Y-78325012D01*
X179330211Y-78325012D01*
X179669867Y-78664668D01*
X179397405Y-78648282D01*
X179078325Y-78692039D01*
X178773912Y-78797205D01*
X178599956Y-78890186D01*
X178504192Y-79154587D01*
X179460000Y-80110395D01*
X179474143Y-80096253D01*
X179653748Y-80275858D01*
X179639605Y-80290000D01*
X180595413Y-81245808D01*
X180859814Y-81150044D01*
X181000704Y-80860429D01*
X181082384Y-80548892D01*
X181101718Y-80227405D01*
X181080916Y-80075718D01*
X182558790Y-81553592D01*
X182515000Y-81773740D01*
X182515000Y-82066260D01*
X182572068Y-82353158D01*
X182684010Y-82623411D01*
X182846525Y-82866632D01*
X183053368Y-83073475D01*
X183227760Y-83190000D01*
X183053368Y-83306525D01*
X182846525Y-83513368D01*
X182684010Y-83756589D01*
X182572068Y-84026842D01*
X182515000Y-84313740D01*
X182515000Y-84606260D01*
X182572068Y-84893158D01*
X182684010Y-85163411D01*
X182846525Y-85406632D01*
X182978380Y-85538487D01*
X182905820Y-85560498D01*
X182795506Y-85619463D01*
X182698815Y-85698815D01*
X182619463Y-85795506D01*
X182560498Y-85905820D01*
X182524188Y-86025518D01*
X182511928Y-86150000D01*
X182515000Y-86714250D01*
X182673750Y-86873000D01*
X183873000Y-86873000D01*
X183873000Y-86853000D01*
X184127000Y-86853000D01*
X184127000Y-86873000D01*
X184147000Y-86873000D01*
X184147000Y-87127000D01*
X184127000Y-87127000D01*
X184127000Y-88326250D01*
X184285750Y-88485000D01*
X184850000Y-88488072D01*
X184974482Y-88475812D01*
X185094180Y-88439502D01*
X185204494Y-88380537D01*
X185301185Y-88301185D01*
X185315001Y-88284350D01*
X185315001Y-88966485D01*
X185305778Y-89060546D01*
X185288194Y-89118787D01*
X185259635Y-89172500D01*
X185221183Y-89219646D01*
X185174310Y-89258423D01*
X185120796Y-89287358D01*
X185062677Y-89305349D01*
X184970855Y-89315000D01*
X181176089Y-89315000D01*
X181328747Y-89260919D01*
X181466157Y-89187472D01*
X181543792Y-88938397D01*
X180695000Y-88089605D01*
X179846208Y-88938397D01*
X179923843Y-89187472D01*
X180187883Y-89313371D01*
X180194301Y-89315000D01*
X179488521Y-89315000D01*
X179500812Y-89274482D01*
X179513072Y-89150000D01*
X179510000Y-88785750D01*
X179351252Y-88627002D01*
X179388582Y-88627002D01*
X179417528Y-88681157D01*
X179666603Y-88758792D01*
X180515395Y-87910000D01*
X180874605Y-87910000D01*
X181723397Y-88758792D01*
X181972472Y-88681157D01*
X182098371Y-88417117D01*
X182170339Y-88133589D01*
X182185165Y-87850000D01*
X182511928Y-87850000D01*
X182524188Y-87974482D01*
X182560498Y-88094180D01*
X182619463Y-88204494D01*
X182698815Y-88301185D01*
X182795506Y-88380537D01*
X182905820Y-88439502D01*
X183025518Y-88475812D01*
X183150000Y-88488072D01*
X183714250Y-88485000D01*
X183873000Y-88326250D01*
X183873000Y-87127000D01*
X182673750Y-87127000D01*
X182515000Y-87285750D01*
X182511928Y-87850000D01*
X182185165Y-87850000D01*
X182185611Y-87841469D01*
X182143599Y-87551981D01*
X182045919Y-87276253D01*
X181972472Y-87138843D01*
X181723397Y-87061208D01*
X180874605Y-87910000D01*
X180515395Y-87910000D01*
X179666603Y-87061208D01*
X179417528Y-87138843D01*
X179302742Y-87379576D01*
X179229494Y-87319463D01*
X179119180Y-87260498D01*
X178999482Y-87224188D01*
X178875000Y-87211928D01*
X178285750Y-87215000D01*
X178127000Y-87373750D01*
X178127000Y-88373000D01*
X178147000Y-88373000D01*
X178147000Y-88627000D01*
X178127000Y-88627000D01*
X178127000Y-88647000D01*
X177873000Y-88647000D01*
X177873000Y-88627000D01*
X176648750Y-88627000D01*
X176500000Y-88775750D01*
X176351250Y-88627000D01*
X175127000Y-88627000D01*
X175127000Y-88647000D01*
X174873000Y-88647000D01*
X174873000Y-88627000D01*
X173648750Y-88627000D01*
X173490000Y-88785750D01*
X173486928Y-89150000D01*
X173499188Y-89274482D01*
X173511479Y-89315000D01*
X172526089Y-89315000D01*
X172678747Y-89260919D01*
X172816157Y-89187472D01*
X172893792Y-88938397D01*
X172045000Y-88089605D01*
X171196208Y-88938397D01*
X171273843Y-89187472D01*
X171537883Y-89313371D01*
X171544301Y-89315000D01*
X171033505Y-89315000D01*
X170939454Y-89305778D01*
X170881213Y-89288194D01*
X170827500Y-89259635D01*
X170780354Y-89221183D01*
X170741577Y-89174310D01*
X170712642Y-89120796D01*
X170694651Y-89062677D01*
X170685000Y-88970855D01*
X170685000Y-88518113D01*
X170694081Y-88543747D01*
X170767528Y-88681157D01*
X171016603Y-88758792D01*
X171865395Y-87910000D01*
X172224605Y-87910000D01*
X173073397Y-88758792D01*
X173322472Y-88681157D01*
X173448371Y-88417117D01*
X173497868Y-88222118D01*
X173648750Y-88373000D01*
X174873000Y-88373000D01*
X174873000Y-87373750D01*
X175127000Y-87373750D01*
X175127000Y-88373000D01*
X176351250Y-88373000D01*
X176500000Y-88224250D01*
X176648750Y-88373000D01*
X177873000Y-88373000D01*
X177873000Y-87373750D01*
X177714250Y-87215000D01*
X177125000Y-87211928D01*
X177000518Y-87224188D01*
X176880820Y-87260498D01*
X176770506Y-87319463D01*
X176673815Y-87398815D01*
X176594463Y-87495506D01*
X176535498Y-87605820D01*
X176500000Y-87722841D01*
X176464502Y-87605820D01*
X176405537Y-87495506D01*
X176326185Y-87398815D01*
X176229494Y-87319463D01*
X176119180Y-87260498D01*
X175999482Y-87224188D01*
X175875000Y-87211928D01*
X175285750Y-87215000D01*
X175127000Y-87373750D01*
X174873000Y-87373750D01*
X174714250Y-87215000D01*
X174125000Y-87211928D01*
X174000518Y-87224188D01*
X173880820Y-87260498D01*
X173770506Y-87319463D01*
X173673815Y-87398815D01*
X173594463Y-87495506D01*
X173535498Y-87605820D01*
X173512442Y-87681824D01*
X173493599Y-87551981D01*
X173395919Y-87276253D01*
X173322472Y-87138843D01*
X173073397Y-87061208D01*
X172224605Y-87910000D01*
X171865395Y-87910000D01*
X171016603Y-87061208D01*
X170767528Y-87138843D01*
X170685000Y-87311924D01*
X170685000Y-86881603D01*
X171196208Y-86881603D01*
X172045000Y-87730395D01*
X172893792Y-86881603D01*
X179846208Y-86881603D01*
X180695000Y-87730395D01*
X181543792Y-86881603D01*
X181466157Y-86632528D01*
X181202117Y-86506629D01*
X180918589Y-86434661D01*
X180626469Y-86419389D01*
X180336981Y-86461401D01*
X180061253Y-86559081D01*
X179923843Y-86632528D01*
X179846208Y-86881603D01*
X172893792Y-86881603D01*
X172816157Y-86632528D01*
X172552117Y-86506629D01*
X172268589Y-86434661D01*
X171976469Y-86419389D01*
X171686981Y-86461401D01*
X171411253Y-86559081D01*
X171273843Y-86632528D01*
X171196208Y-86881603D01*
X170685000Y-86881603D01*
X170685000Y-84604464D01*
X170909587Y-84685808D01*
X171865395Y-83730000D01*
X170909587Y-82774192D01*
X170685000Y-82855536D01*
X170685000Y-80352595D01*
X171318282Y-80352595D01*
X171362039Y-80671675D01*
X171467205Y-80976088D01*
X171560186Y-81150044D01*
X171824587Y-81245808D01*
X172780395Y-80290000D01*
X171824587Y-79334192D01*
X171560186Y-79429956D01*
X171419296Y-79719571D01*
X171337616Y-80031108D01*
X171318282Y-80352595D01*
X170685000Y-80352595D01*
X170685000Y-60033505D01*
X170694222Y-59939453D01*
X170711805Y-59881214D01*
X170740366Y-59827499D01*
X170778816Y-59780354D01*
X170825691Y-59741576D01*
X170879204Y-59712642D01*
X170937323Y-59694651D01*
X171029145Y-59685000D01*
X174021347Y-59685000D01*
X173926480Y-59748388D01*
%TA.AperFunction,Conductor*%
D23*
G36*
X173926480Y-59748388D02*
G01*
X173768388Y-59906480D01*
X173644176Y-60092376D01*
X173558617Y-60298933D01*
X173515000Y-60518212D01*
X173515000Y-60741788D01*
X173558617Y-60961067D01*
X173644176Y-61167624D01*
X173742650Y-61315000D01*
X173644176Y-61462376D01*
X173558617Y-61668933D01*
X173515000Y-61888212D01*
X173515000Y-62111788D01*
X173558617Y-62331067D01*
X173644176Y-62537624D01*
X173768388Y-62723520D01*
X173926480Y-62881612D01*
X174112376Y-63005824D01*
X174318933Y-63091383D01*
X174538212Y-63135000D01*
X174761788Y-63135000D01*
X174981067Y-63091383D01*
X175068391Y-63055212D01*
X175065354Y-63059757D01*
X174987333Y-63248115D01*
X174947559Y-63448074D01*
X174947559Y-63651952D01*
X174987333Y-63851911D01*
X175065354Y-64040269D01*
X175178622Y-64209787D01*
X175288835Y-64320000D01*
X174008178Y-64320000D01*
X173883475Y-64133368D01*
X173676632Y-63926525D01*
X173433411Y-63764010D01*
X173163158Y-63652068D01*
X172876260Y-63595000D01*
X172583740Y-63595000D01*
X172296842Y-63652068D01*
X172026589Y-63764010D01*
X171783368Y-63926525D01*
X171576525Y-64133368D01*
X171414010Y-64376589D01*
X171302068Y-64646842D01*
X171245000Y-64933740D01*
X171245000Y-65226260D01*
X171302068Y-65513158D01*
X171414010Y-65783411D01*
X171576525Y-66026632D01*
X171783368Y-66233475D01*
X171800824Y-66245139D01*
X171723820Y-66268498D01*
X171613506Y-66327463D01*
X171516815Y-66406815D01*
X171437463Y-66503506D01*
X171378498Y-66613820D01*
X171342188Y-66733518D01*
X171329928Y-66858000D01*
X171333000Y-67334250D01*
X171491750Y-67493000D01*
X172603000Y-67493000D01*
X172603000Y-67473000D01*
X172857000Y-67473000D01*
X172857000Y-67493000D01*
X172877000Y-67493000D01*
X172877000Y-67747000D01*
X172857000Y-67747000D01*
X172857000Y-67767000D01*
X172603000Y-67767000D01*
X172603000Y-67747000D01*
X171491750Y-67747000D01*
X171333000Y-67905750D01*
X171329928Y-68382000D01*
X171342188Y-68506482D01*
X171378498Y-68626180D01*
X171437463Y-68736494D01*
X171516815Y-68833185D01*
X171613506Y-68912537D01*
X171723820Y-68971502D01*
X171800824Y-68994861D01*
X171783368Y-69006525D01*
X171576525Y-69213368D01*
X171414010Y-69456589D01*
X171302068Y-69726842D01*
X171245000Y-70013740D01*
X171245000Y-70306260D01*
X171302068Y-70593158D01*
X171414010Y-70863411D01*
X171576525Y-71106632D01*
X171783368Y-71313475D01*
X171957760Y-71430000D01*
X171783368Y-71546525D01*
X171576525Y-71753368D01*
X171414010Y-71996589D01*
X171302068Y-72266842D01*
X171245000Y-72553740D01*
X171245000Y-72846260D01*
X171302068Y-73133158D01*
X171414010Y-73403411D01*
X171576525Y-73646632D01*
X171783368Y-73853475D01*
X172026589Y-74015990D01*
X172296842Y-74127932D01*
X172583740Y-74185000D01*
X172648146Y-74185000D01*
X172483088Y-74217832D01*
X172185537Y-74341082D01*
X171917748Y-74520013D01*
X171690013Y-74747748D01*
X171511082Y-75015537D01*
X171387832Y-75313088D01*
X171325000Y-75628967D01*
X171325000Y-75951033D01*
X171387832Y-76266912D01*
X171511082Y-76564463D01*
X171690013Y-76832252D01*
X171917748Y-77059987D01*
X172185537Y-77238918D01*
X172483088Y-77362168D01*
X172798967Y-77425000D01*
X173121033Y-77425000D01*
X173436912Y-77362168D01*
X173525001Y-77325680D01*
X173525001Y-78747873D01*
X173218892Y-78667616D01*
X172897405Y-78648282D01*
X172578325Y-78692039D01*
X172273912Y-78797205D01*
X172099956Y-78890186D01*
X172004192Y-79154587D01*
X172960000Y-80110395D01*
X172974143Y-80096253D01*
X173153748Y-80275858D01*
X173139605Y-80290000D01*
X173153748Y-80304143D01*
X172974143Y-80483748D01*
X172960000Y-80469605D01*
X172004192Y-81425413D01*
X172037832Y-81518293D01*
X172004774Y-81598102D01*
X171965000Y-81798061D01*
X171965000Y-82001939D01*
X171982181Y-82088313D01*
X171663325Y-82132039D01*
X171358912Y-82237205D01*
X171184956Y-82330186D01*
X171089192Y-82594587D01*
X172045000Y-83550395D01*
X172059143Y-83536253D01*
X172238748Y-83715858D01*
X172224605Y-83730000D01*
X172238748Y-83744143D01*
X172059143Y-83923748D01*
X172045000Y-83909605D01*
X171089192Y-84865413D01*
X171184956Y-85129814D01*
X171474571Y-85270704D01*
X171786108Y-85352384D01*
X172107595Y-85371718D01*
X172426675Y-85327961D01*
X172731088Y-85222795D01*
X172905044Y-85129814D01*
X172998885Y-84870723D01*
X173002500Y-84867108D01*
X173027660Y-84892268D01*
X173035575Y-85037763D01*
X173205603Y-85108562D01*
X173386176Y-85144828D01*
X173486928Y-85145016D01*
X173486928Y-85800001D01*
X173503992Y-85973255D01*
X173554528Y-86139851D01*
X173636595Y-86293387D01*
X173747038Y-86427962D01*
X173881613Y-86538405D01*
X174035149Y-86620472D01*
X174201745Y-86671008D01*
X174374999Y-86688072D01*
X175625001Y-86688072D01*
X175798255Y-86671008D01*
X175964851Y-86620472D01*
X176118387Y-86538405D01*
X176252962Y-86427962D01*
X176363405Y-86293387D01*
X176445472Y-86139851D01*
X176496008Y-85973255D01*
X176500000Y-85932723D01*
X176503992Y-85973255D01*
X176554528Y-86139851D01*
X176636595Y-86293387D01*
X176747038Y-86427962D01*
X176881613Y-86538405D01*
X177035149Y-86620472D01*
X177201745Y-86671008D01*
X177374999Y-86688072D01*
X178625001Y-86688072D01*
X178798255Y-86671008D01*
X178964851Y-86620472D01*
X179118387Y-86538405D01*
X179252962Y-86427962D01*
X179363405Y-86293387D01*
X179445472Y-86139851D01*
X179496008Y-85973255D01*
X179513072Y-85800001D01*
X179513072Y-85113118D01*
X179531061Y-85109574D01*
X179701351Y-85039408D01*
X179704425Y-85037763D01*
X179712340Y-84892268D01*
X179737500Y-84867108D01*
X179741115Y-84870723D01*
X179834956Y-85129814D01*
X180124571Y-85270704D01*
X180436108Y-85352384D01*
X180757595Y-85371718D01*
X181076675Y-85327961D01*
X181381088Y-85222795D01*
X181555044Y-85129814D01*
X181650808Y-84865413D01*
X180695000Y-83909605D01*
X180680858Y-83923748D01*
X180501253Y-83744143D01*
X180515395Y-83730000D01*
X180874605Y-83730000D01*
X181830413Y-84685808D01*
X182094814Y-84590044D01*
X182235704Y-84300429D01*
X182317384Y-83988892D01*
X182336718Y-83667405D01*
X182292961Y-83348325D01*
X182187795Y-83043912D01*
X182094814Y-82869956D01*
X181830413Y-82774192D01*
X180874605Y-83730000D01*
X180515395Y-83730000D01*
X180501253Y-83715858D01*
X180680858Y-83536253D01*
X180695000Y-83550395D01*
X181650808Y-82594587D01*
X181555044Y-82330186D01*
X181265429Y-82189296D01*
X180953892Y-82107616D01*
X180632405Y-82088282D01*
X180313325Y-82132039D01*
X180008912Y-82237205D01*
X179834956Y-82330186D01*
X179739193Y-82594585D01*
X179672207Y-82527599D01*
X179717205Y-82460254D01*
X179795226Y-82271896D01*
X179835000Y-82071937D01*
X179835000Y-81888876D01*
X179841675Y-81887961D01*
X180146088Y-81782795D01*
X180320044Y-81689814D01*
X180415808Y-81425413D01*
X179460000Y-80469605D01*
X179445858Y-80483748D01*
X179266253Y-80304143D01*
X179280395Y-80290000D01*
X178324587Y-79334192D01*
X178060186Y-79429956D01*
X177919296Y-79719571D01*
X177901398Y-79787837D01*
X177878552Y-79759999D01*
X177762827Y-79665026D01*
X177630798Y-79594454D01*
X177487537Y-79550997D01*
X177375884Y-79540000D01*
X177375873Y-79540000D01*
X177338551Y-79536324D01*
X177301229Y-79540000D01*
X177203711Y-79540000D01*
X177159774Y-79496063D01*
X176990256Y-79382795D01*
X176801898Y-79304774D01*
X176601939Y-79265000D01*
X176398061Y-79265000D01*
X176198102Y-79304774D01*
X176009744Y-79382795D01*
X175840226Y-79496063D01*
X175696063Y-79640226D01*
X175582795Y-79809744D01*
X175504774Y-79998102D01*
X175465000Y-80198061D01*
X175465000Y-80276940D01*
X175286130Y-80312519D01*
X175097772Y-80390540D01*
X175045001Y-80425800D01*
X175045001Y-75047215D01*
X178073799Y-78076014D01*
X178097598Y-78105013D01*
X178213323Y-78199986D01*
X178345352Y-78270558D01*
X178488613Y-78314015D01*
X178600266Y-78325012D01*
X178600275Y-78325012D01*
X178637598Y-78328688D01*
X178674921Y-78325012D01*
X179330211Y-78325012D01*
X179669867Y-78664668D01*
X179397405Y-78648282D01*
X179078325Y-78692039D01*
X178773912Y-78797205D01*
X178599956Y-78890186D01*
X178504192Y-79154587D01*
X179460000Y-80110395D01*
X179474143Y-80096253D01*
X179653748Y-80275858D01*
X179639605Y-80290000D01*
X180595413Y-81245808D01*
X180859814Y-81150044D01*
X181000704Y-80860429D01*
X181082384Y-80548892D01*
X181101718Y-80227405D01*
X181080916Y-80075718D01*
X182558790Y-81553592D01*
X182515000Y-81773740D01*
X182515000Y-82066260D01*
X182572068Y-82353158D01*
X182684010Y-82623411D01*
X182846525Y-82866632D01*
X183053368Y-83073475D01*
X183227760Y-83190000D01*
X183053368Y-83306525D01*
X182846525Y-83513368D01*
X182684010Y-83756589D01*
X182572068Y-84026842D01*
X182515000Y-84313740D01*
X182515000Y-84606260D01*
X182572068Y-84893158D01*
X182684010Y-85163411D01*
X182846525Y-85406632D01*
X182978380Y-85538487D01*
X182905820Y-85560498D01*
X182795506Y-85619463D01*
X182698815Y-85698815D01*
X182619463Y-85795506D01*
X182560498Y-85905820D01*
X182524188Y-86025518D01*
X182511928Y-86150000D01*
X182515000Y-86714250D01*
X182673750Y-86873000D01*
X183873000Y-86873000D01*
X183873000Y-86853000D01*
X184127000Y-86853000D01*
X184127000Y-86873000D01*
X184147000Y-86873000D01*
X184147000Y-87127000D01*
X184127000Y-87127000D01*
X184127000Y-88326250D01*
X184285750Y-88485000D01*
X184850000Y-88488072D01*
X184974482Y-88475812D01*
X185094180Y-88439502D01*
X185204494Y-88380537D01*
X185301185Y-88301185D01*
X185315001Y-88284350D01*
X185315001Y-88966485D01*
X185305778Y-89060546D01*
X185288194Y-89118787D01*
X185259635Y-89172500D01*
X185221183Y-89219646D01*
X185174310Y-89258423D01*
X185120796Y-89287358D01*
X185062677Y-89305349D01*
X184970855Y-89315000D01*
X181176089Y-89315000D01*
X181328747Y-89260919D01*
X181466157Y-89187472D01*
X181543792Y-88938397D01*
X180695000Y-88089605D01*
X179846208Y-88938397D01*
X179923843Y-89187472D01*
X180187883Y-89313371D01*
X180194301Y-89315000D01*
X179488521Y-89315000D01*
X179500812Y-89274482D01*
X179513072Y-89150000D01*
X179510000Y-88785750D01*
X179351252Y-88627002D01*
X179388582Y-88627002D01*
X179417528Y-88681157D01*
X179666603Y-88758792D01*
X180515395Y-87910000D01*
X180874605Y-87910000D01*
X181723397Y-88758792D01*
X181972472Y-88681157D01*
X182098371Y-88417117D01*
X182170339Y-88133589D01*
X182185165Y-87850000D01*
X182511928Y-87850000D01*
X182524188Y-87974482D01*
X182560498Y-88094180D01*
X182619463Y-88204494D01*
X182698815Y-88301185D01*
X182795506Y-88380537D01*
X182905820Y-88439502D01*
X183025518Y-88475812D01*
X183150000Y-88488072D01*
X183714250Y-88485000D01*
X183873000Y-88326250D01*
X183873000Y-87127000D01*
X182673750Y-87127000D01*
X182515000Y-87285750D01*
X182511928Y-87850000D01*
X182185165Y-87850000D01*
X182185611Y-87841469D01*
X182143599Y-87551981D01*
X182045919Y-87276253D01*
X181972472Y-87138843D01*
X181723397Y-87061208D01*
X180874605Y-87910000D01*
X180515395Y-87910000D01*
X179666603Y-87061208D01*
X179417528Y-87138843D01*
X179302742Y-87379576D01*
X179229494Y-87319463D01*
X179119180Y-87260498D01*
X178999482Y-87224188D01*
X178875000Y-87211928D01*
X178285750Y-87215000D01*
X178127000Y-87373750D01*
X178127000Y-88373000D01*
X178147000Y-88373000D01*
X178147000Y-88627000D01*
X178127000Y-88627000D01*
X178127000Y-88647000D01*
X177873000Y-88647000D01*
X177873000Y-88627000D01*
X176648750Y-88627000D01*
X176500000Y-88775750D01*
X176351250Y-88627000D01*
X175127000Y-88627000D01*
X175127000Y-88647000D01*
X174873000Y-88647000D01*
X174873000Y-88627000D01*
X173648750Y-88627000D01*
X173490000Y-88785750D01*
X173486928Y-89150000D01*
X173499188Y-89274482D01*
X173511479Y-89315000D01*
X172526089Y-89315000D01*
X172678747Y-89260919D01*
X172816157Y-89187472D01*
X172893792Y-88938397D01*
X172045000Y-88089605D01*
X171196208Y-88938397D01*
X171273843Y-89187472D01*
X171537883Y-89313371D01*
X171544301Y-89315000D01*
X171033505Y-89315000D01*
X170939454Y-89305778D01*
X170881213Y-89288194D01*
X170827500Y-89259635D01*
X170780354Y-89221183D01*
X170741577Y-89174310D01*
X170712642Y-89120796D01*
X170694651Y-89062677D01*
X170685000Y-88970855D01*
X170685000Y-88518113D01*
X170694081Y-88543747D01*
X170767528Y-88681157D01*
X171016603Y-88758792D01*
X171865395Y-87910000D01*
X172224605Y-87910000D01*
X173073397Y-88758792D01*
X173322472Y-88681157D01*
X173448371Y-88417117D01*
X173497868Y-88222118D01*
X173648750Y-88373000D01*
X174873000Y-88373000D01*
X174873000Y-87373750D01*
X175127000Y-87373750D01*
X175127000Y-88373000D01*
X176351250Y-88373000D01*
X176500000Y-88224250D01*
X176648750Y-88373000D01*
X177873000Y-88373000D01*
X177873000Y-87373750D01*
X177714250Y-87215000D01*
X177125000Y-87211928D01*
X177000518Y-87224188D01*
X176880820Y-87260498D01*
X176770506Y-87319463D01*
X176673815Y-87398815D01*
X176594463Y-87495506D01*
X176535498Y-87605820D01*
X176500000Y-87722841D01*
X176464502Y-87605820D01*
X176405537Y-87495506D01*
X176326185Y-87398815D01*
X176229494Y-87319463D01*
X176119180Y-87260498D01*
X175999482Y-87224188D01*
X175875000Y-87211928D01*
X175285750Y-87215000D01*
X175127000Y-87373750D01*
X174873000Y-87373750D01*
X174714250Y-87215000D01*
X174125000Y-87211928D01*
X174000518Y-87224188D01*
X173880820Y-87260498D01*
X173770506Y-87319463D01*
X173673815Y-87398815D01*
X173594463Y-87495506D01*
X173535498Y-87605820D01*
X173512442Y-87681824D01*
X173493599Y-87551981D01*
X173395919Y-87276253D01*
X173322472Y-87138843D01*
X173073397Y-87061208D01*
X172224605Y-87910000D01*
X171865395Y-87910000D01*
X171016603Y-87061208D01*
X170767528Y-87138843D01*
X170685000Y-87311924D01*
X170685000Y-86881603D01*
X171196208Y-86881603D01*
X172045000Y-87730395D01*
X172893792Y-86881603D01*
X179846208Y-86881603D01*
X180695000Y-87730395D01*
X181543792Y-86881603D01*
X181466157Y-86632528D01*
X181202117Y-86506629D01*
X180918589Y-86434661D01*
X180626469Y-86419389D01*
X180336981Y-86461401D01*
X180061253Y-86559081D01*
X179923843Y-86632528D01*
X179846208Y-86881603D01*
X172893792Y-86881603D01*
X172816157Y-86632528D01*
X172552117Y-86506629D01*
X172268589Y-86434661D01*
X171976469Y-86419389D01*
X171686981Y-86461401D01*
X171411253Y-86559081D01*
X171273843Y-86632528D01*
X171196208Y-86881603D01*
X170685000Y-86881603D01*
X170685000Y-84604464D01*
X170909587Y-84685808D01*
X171865395Y-83730000D01*
X170909587Y-82774192D01*
X170685000Y-82855536D01*
X170685000Y-80352595D01*
X171318282Y-80352595D01*
X171362039Y-80671675D01*
X171467205Y-80976088D01*
X171560186Y-81150044D01*
X171824587Y-81245808D01*
X172780395Y-80290000D01*
X171824587Y-79334192D01*
X171560186Y-79429956D01*
X171419296Y-79719571D01*
X171337616Y-80031108D01*
X171318282Y-80352595D01*
X170685000Y-80352595D01*
X170685000Y-60033505D01*
X170694222Y-59939453D01*
X170711805Y-59881214D01*
X170740366Y-59827499D01*
X170778816Y-59780354D01*
X170825691Y-59741576D01*
X170879204Y-59712642D01*
X170937323Y-59694651D01*
X171029145Y-59685000D01*
X174021347Y-59685000D01*
X173926480Y-59748388D01*
G37*
%TD.AperFunction*%
D22*
X174098963Y-82670519D02*
X174240001Y-82764757D01*
X174240000Y-83761889D01*
X174114541Y-83755064D01*
X173659605Y-84210000D01*
X173673748Y-84224143D01*
X173574566Y-84323324D01*
X173585704Y-84300429D01*
X173667384Y-83988892D01*
X173676719Y-83833676D01*
X173934936Y-83575459D01*
X173924425Y-83382237D01*
X173754397Y-83311438D01*
X173620959Y-83284639D01*
X173537795Y-83043912D01*
X173444814Y-82869956D01*
X173401115Y-82854129D01*
X173490256Y-82817205D01*
X173659774Y-82703937D01*
X173700039Y-82663672D01*
X173737322Y-82660000D01*
X173737333Y-82660000D01*
X173848986Y-82649003D01*
X173992247Y-82605546D01*
X174019450Y-82591006D01*
X174098963Y-82670519D01*
%TA.AperFunction,Conductor*%
D23*
G36*
X174098963Y-82670519D02*
G01*
X174240001Y-82764757D01*
X174240000Y-83761889D01*
X174114541Y-83755064D01*
X173659605Y-84210000D01*
X173673748Y-84224143D01*
X173574566Y-84323324D01*
X173585704Y-84300429D01*
X173667384Y-83988892D01*
X173676719Y-83833676D01*
X173934936Y-83575459D01*
X173924425Y-83382237D01*
X173754397Y-83311438D01*
X173620959Y-83284639D01*
X173537795Y-83043912D01*
X173444814Y-82869956D01*
X173401115Y-82854129D01*
X173490256Y-82817205D01*
X173659774Y-82703937D01*
X173700039Y-82663672D01*
X173737322Y-82660000D01*
X173737333Y-82660000D01*
X173848986Y-82649003D01*
X173992247Y-82605546D01*
X174019450Y-82591006D01*
X174098963Y-82670519D01*
G37*
%TD.AperFunction*%
D22*
X179160880Y-84296468D02*
X179118387Y-84261595D01*
X179086845Y-84244735D01*
X179066253Y-84224143D01*
X179080395Y-84210000D01*
X179066253Y-84195858D01*
X179110749Y-84151361D01*
X179160880Y-84296468D01*
%TA.AperFunction,Conductor*%
D23*
G36*
X179160880Y-84296468D02*
G01*
X179118387Y-84261595D01*
X179086845Y-84244735D01*
X179066253Y-84224143D01*
X179080395Y-84210000D01*
X179066253Y-84195858D01*
X179110749Y-84151361D01*
X179160880Y-84296468D01*
G37*
%TD.AperFunction*%
D22*
X185060547Y-59694222D02*
X185118786Y-59711805D01*
X185172501Y-59740366D01*
X185219646Y-59778816D01*
X185258424Y-59825691D01*
X185287358Y-59879204D01*
X185305349Y-59937323D01*
X185315000Y-60029145D01*
X185315001Y-76135108D01*
X185153475Y-75893368D01*
X184946632Y-75686525D01*
X184703411Y-75524010D01*
X184433158Y-75412068D01*
X184146260Y-75355000D01*
X183853740Y-75355000D01*
X183566842Y-75412068D01*
X183296589Y-75524010D01*
X183053368Y-75686525D01*
X182846525Y-75893368D01*
X182805926Y-75954128D01*
X180302302Y-73450505D01*
X180278499Y-73421501D01*
X180162774Y-73326528D01*
X180030745Y-73255956D01*
X179887484Y-73212499D01*
X179775831Y-73201502D01*
X179775820Y-73201502D01*
X179738498Y-73197826D01*
X179701176Y-73201502D01*
X177917068Y-73201502D01*
X177951322Y-73118806D01*
X177991096Y-72918847D01*
X177991096Y-72714969D01*
X177951322Y-72515010D01*
X177873301Y-72326652D01*
X177760033Y-72157134D01*
X177615870Y-72012971D01*
X177446352Y-71899703D01*
X177257994Y-71821682D01*
X177058035Y-71781908D01*
X176960000Y-71781908D01*
X176960000Y-71537322D01*
X176963676Y-71499999D01*
X176960000Y-71462676D01*
X176960000Y-71462667D01*
X176949003Y-71351014D01*
X176905546Y-71207753D01*
X176834974Y-71075724D01*
X176740001Y-70959999D01*
X176711004Y-70936202D01*
X176060000Y-70285199D01*
X176060000Y-69665565D01*
X177314040Y-69665565D01*
X177381020Y-69905656D01*
X177630048Y-70022756D01*
X177897135Y-70089023D01*
X178172017Y-70101910D01*
X178444133Y-70060922D01*
X178703023Y-69967636D01*
X178818980Y-69905656D01*
X178885960Y-69665565D01*
X178100000Y-68879605D01*
X177314040Y-69665565D01*
X176060000Y-69665565D01*
X176060000Y-68772017D01*
X176698090Y-68772017D01*
X176739078Y-69044133D01*
X176832364Y-69303023D01*
X176894344Y-69418980D01*
X177134435Y-69485960D01*
X177920395Y-68700000D01*
X178279605Y-68700000D01*
X179065565Y-69485960D01*
X179305656Y-69418980D01*
X179422756Y-69169952D01*
X179489023Y-68902865D01*
X179501910Y-68627983D01*
X179460922Y-68355867D01*
X179367636Y-68096977D01*
X179305656Y-67981020D01*
X179065565Y-67914040D01*
X178279605Y-68700000D01*
X177920395Y-68700000D01*
X177134435Y-67914040D01*
X176894344Y-67981020D01*
X176777244Y-68230048D01*
X176710977Y-68497135D01*
X176698090Y-68772017D01*
X176060000Y-68772017D01*
X176060000Y-67734435D01*
X177314040Y-67734435D01*
X178100000Y-68520395D01*
X178885960Y-67734435D01*
X178818980Y-67494344D01*
X178569952Y-67377244D01*
X178302865Y-67310977D01*
X178027983Y-67298090D01*
X177755867Y-67339078D01*
X177496977Y-67432364D01*
X177381020Y-67494344D01*
X177314040Y-67734435D01*
X176060000Y-67734435D01*
X176060000Y-67614801D01*
X177386001Y-66288801D01*
X177414999Y-66265003D01*
X177509972Y-66149278D01*
X177557699Y-66059988D01*
X177580544Y-66017249D01*
X177624001Y-65873988D01*
X177628282Y-65830523D01*
X178111004Y-65347802D01*
X178140001Y-65324005D01*
X178234974Y-65208280D01*
X178305546Y-65076251D01*
X178349003Y-64932990D01*
X178360000Y-64821337D01*
X178360000Y-64821329D01*
X178363676Y-64784004D01*
X178360000Y-64746679D01*
X178360000Y-64444801D01*
X179669802Y-63135000D01*
X179841788Y-63135000D01*
X180061067Y-63091383D01*
X180172774Y-63045112D01*
X180255820Y-63089502D01*
X180375518Y-63125812D01*
X180500000Y-63138072D01*
X180714250Y-63135000D01*
X180873000Y-62976250D01*
X180873000Y-62127000D01*
X181127000Y-62127000D01*
X181127000Y-62976250D01*
X181285750Y-63135000D01*
X181500000Y-63138072D01*
X181624482Y-63125812D01*
X181744180Y-63089502D01*
X181854494Y-63030537D01*
X181951185Y-62951185D01*
X182030537Y-62854494D01*
X182089502Y-62744180D01*
X182125812Y-62624482D01*
X182138072Y-62500000D01*
X182135000Y-62285750D01*
X181976250Y-62127000D01*
X181127000Y-62127000D01*
X180873000Y-62127000D01*
X180861974Y-62127000D01*
X180865000Y-62111788D01*
X180865000Y-61888212D01*
X180861974Y-61873000D01*
X180873000Y-61873000D01*
X180873000Y-60757000D01*
X181127000Y-60757000D01*
X181127000Y-61873000D01*
X181976250Y-61873000D01*
X182135000Y-61714250D01*
X182138072Y-61500000D01*
X182125812Y-61375518D01*
X182107454Y-61315000D01*
X182125812Y-61254482D01*
X182138072Y-61130000D01*
X182135000Y-60915750D01*
X181976250Y-60757000D01*
X181127000Y-60757000D01*
X180873000Y-60757000D01*
X180861974Y-60757000D01*
X180865000Y-60741788D01*
X180865000Y-60518212D01*
X180861974Y-60503000D01*
X180873000Y-60503000D01*
X180873000Y-60483000D01*
X181127000Y-60483000D01*
X181127000Y-60503000D01*
X181976250Y-60503000D01*
X182135000Y-60344250D01*
X182138072Y-60130000D01*
X182125812Y-60005518D01*
X182089502Y-59885820D01*
X182030537Y-59775506D01*
X181956261Y-59685000D01*
X184966495Y-59685000D01*
X185060547Y-59694222D01*
%TA.AperFunction,Conductor*%
D23*
G36*
X185060547Y-59694222D02*
G01*
X185118786Y-59711805D01*
X185172501Y-59740366D01*
X185219646Y-59778816D01*
X185258424Y-59825691D01*
X185287358Y-59879204D01*
X185305349Y-59937323D01*
X185315000Y-60029145D01*
X185315001Y-76135108D01*
X185153475Y-75893368D01*
X184946632Y-75686525D01*
X184703411Y-75524010D01*
X184433158Y-75412068D01*
X184146260Y-75355000D01*
X183853740Y-75355000D01*
X183566842Y-75412068D01*
X183296589Y-75524010D01*
X183053368Y-75686525D01*
X182846525Y-75893368D01*
X182805926Y-75954128D01*
X180302302Y-73450505D01*
X180278499Y-73421501D01*
X180162774Y-73326528D01*
X180030745Y-73255956D01*
X179887484Y-73212499D01*
X179775831Y-73201502D01*
X179775820Y-73201502D01*
X179738498Y-73197826D01*
X179701176Y-73201502D01*
X177917068Y-73201502D01*
X177951322Y-73118806D01*
X177991096Y-72918847D01*
X177991096Y-72714969D01*
X177951322Y-72515010D01*
X177873301Y-72326652D01*
X177760033Y-72157134D01*
X177615870Y-72012971D01*
X177446352Y-71899703D01*
X177257994Y-71821682D01*
X177058035Y-71781908D01*
X176960000Y-71781908D01*
X176960000Y-71537322D01*
X176963676Y-71499999D01*
X176960000Y-71462676D01*
X176960000Y-71462667D01*
X176949003Y-71351014D01*
X176905546Y-71207753D01*
X176834974Y-71075724D01*
X176740001Y-70959999D01*
X176711004Y-70936202D01*
X176060000Y-70285199D01*
X176060000Y-69665565D01*
X177314040Y-69665565D01*
X177381020Y-69905656D01*
X177630048Y-70022756D01*
X177897135Y-70089023D01*
X178172017Y-70101910D01*
X178444133Y-70060922D01*
X178703023Y-69967636D01*
X178818980Y-69905656D01*
X178885960Y-69665565D01*
X178100000Y-68879605D01*
X177314040Y-69665565D01*
X176060000Y-69665565D01*
X176060000Y-68772017D01*
X176698090Y-68772017D01*
X176739078Y-69044133D01*
X176832364Y-69303023D01*
X176894344Y-69418980D01*
X177134435Y-69485960D01*
X177920395Y-68700000D01*
X178279605Y-68700000D01*
X179065565Y-69485960D01*
X179305656Y-69418980D01*
X179422756Y-69169952D01*
X179489023Y-68902865D01*
X179501910Y-68627983D01*
X179460922Y-68355867D01*
X179367636Y-68096977D01*
X179305656Y-67981020D01*
X179065565Y-67914040D01*
X178279605Y-68700000D01*
X177920395Y-68700000D01*
X177134435Y-67914040D01*
X176894344Y-67981020D01*
X176777244Y-68230048D01*
X176710977Y-68497135D01*
X176698090Y-68772017D01*
X176060000Y-68772017D01*
X176060000Y-67734435D01*
X177314040Y-67734435D01*
X178100000Y-68520395D01*
X178885960Y-67734435D01*
X178818980Y-67494344D01*
X178569952Y-67377244D01*
X178302865Y-67310977D01*
X178027983Y-67298090D01*
X177755867Y-67339078D01*
X177496977Y-67432364D01*
X177381020Y-67494344D01*
X177314040Y-67734435D01*
X176060000Y-67734435D01*
X176060000Y-67614801D01*
X177386001Y-66288801D01*
X177414999Y-66265003D01*
X177509972Y-66149278D01*
X177557699Y-66059988D01*
X177580544Y-66017249D01*
X177624001Y-65873988D01*
X177628282Y-65830523D01*
X178111004Y-65347802D01*
X178140001Y-65324005D01*
X178234974Y-65208280D01*
X178305546Y-65076251D01*
X178349003Y-64932990D01*
X178360000Y-64821337D01*
X178360000Y-64821329D01*
X178363676Y-64784004D01*
X178360000Y-64746679D01*
X178360000Y-64444801D01*
X179669802Y-63135000D01*
X179841788Y-63135000D01*
X180061067Y-63091383D01*
X180172774Y-63045112D01*
X180255820Y-63089502D01*
X180375518Y-63125812D01*
X180500000Y-63138072D01*
X180714250Y-63135000D01*
X180873000Y-62976250D01*
X180873000Y-62127000D01*
X181127000Y-62127000D01*
X181127000Y-62976250D01*
X181285750Y-63135000D01*
X181500000Y-63138072D01*
X181624482Y-63125812D01*
X181744180Y-63089502D01*
X181854494Y-63030537D01*
X181951185Y-62951185D01*
X182030537Y-62854494D01*
X182089502Y-62744180D01*
X182125812Y-62624482D01*
X182138072Y-62500000D01*
X182135000Y-62285750D01*
X181976250Y-62127000D01*
X181127000Y-62127000D01*
X180873000Y-62127000D01*
X180861974Y-62127000D01*
X180865000Y-62111788D01*
X180865000Y-61888212D01*
X180861974Y-61873000D01*
X180873000Y-61873000D01*
X180873000Y-60757000D01*
X181127000Y-60757000D01*
X181127000Y-61873000D01*
X181976250Y-61873000D01*
X182135000Y-61714250D01*
X182138072Y-61500000D01*
X182125812Y-61375518D01*
X182107454Y-61315000D01*
X182125812Y-61254482D01*
X182138072Y-61130000D01*
X182135000Y-60915750D01*
X181976250Y-60757000D01*
X181127000Y-60757000D01*
X180873000Y-60757000D01*
X180861974Y-60757000D01*
X180865000Y-60741788D01*
X180865000Y-60518212D01*
X180861974Y-60503000D01*
X180873000Y-60503000D01*
X180873000Y-60483000D01*
X181127000Y-60483000D01*
X181127000Y-60503000D01*
X181976250Y-60503000D01*
X182135000Y-60344250D01*
X182138072Y-60130000D01*
X182125812Y-60005518D01*
X182089502Y-59885820D01*
X182030537Y-59775506D01*
X181956261Y-59685000D01*
X184966495Y-59685000D01*
X185060547Y-59694222D01*
G37*
%TD.AperFunction*%
%TD*%
M02*
