M48
; DRILL file {KiCad (5.1.9-0-10_14)} date Sunday, May 02, 2021 at 11:52:09 AM
; FORMAT={-:-/ absolute / inch / decimal}
; #@! TF.CreationDate,2021-05-02T11:52:09+01:00
; #@! TF.GenerationSoftware,Kicad,Pcbnew,(5.1.9-0-10_14)
; #@! TF.FileFunction,Plated,1,2,PTH
FMAT,2
INCH
T1C0.0157
T2C0.0236
T3C0.0256
T4C0.0300
T5C0.0394
T6C0.0472
T7C0.0591
%
G90
G05
T1
X6.7362Y-2.7923
X6.7677Y-2.5945
X6.7862Y-2.5374
X6.7925Y-2.6562
X6.8425Y-2.5933
X6.8496Y-2.661
X6.8701Y-3.1878
X6.8753Y-3.1473
X6.8782Y-2.6969
X6.9067Y-2.6496
X6.9193Y-3.1161
X6.9318Y-2.5393
X6.9449Y-3.158
X6.9793Y-3.1388
X6.9825Y-2.5517
X7.053Y-2.5694
X7.065Y-3.1878
X7.0737Y-2.8632
X7.0891Y-2.965
X7.1284Y-2.6118
X7.1454Y-2.7814
T2
X6.8154Y-3.276
X7.0429Y-3.276
T3
X6.8563Y-2.387
X6.8563Y-2.4606
X6.9063Y-2.387
X6.9063Y-2.4606
X6.9563Y-2.387
X6.9563Y-2.4606
X7.0063Y-2.387
X7.0063Y-2.4606
X7.0563Y-2.387
X7.0563Y-2.4606
X7.1063Y-2.387
X7.1063Y-2.4606
T4
X7.0226Y-2.7116
T5
X7.2047Y-3.0252
X7.2047Y-3.1252
X7.2047Y-3.2252
X7.2047Y-3.3252
X7.2047Y-3.4252
T6
X6.7589Y-3.4217
X7.0994Y-3.4217
T7
X6.7589Y-3.2571
X7.0994Y-3.2571
T0
M30
